<?xml version="1.0" encoding="UTF-8"?>
<svg xmlns="http://www.w3.org/2000/svg"
     xmlns:xlink="http://www.w3.org/1999/xlink"
     xmlns:gadfly="http://www.gadflyjl.org/ns"
     version="1.2"
     width="141.42mm" height="100mm" viewBox="0 0 141.42 100"
     stroke="none"
     fill="#000000"
     stroke-width="0.3"
     font-size="3.88"
>
<defs>
  <marker id="arrow" markerWidth="15" markerHeight="7" refX="5" refY="3.5" orient="auto" markerUnits="strokeWidth">
    <path d="M0,0 L15,3.5 L0,7 z" stroke="context-stroke" fill="context-stroke"/>
  </marker>
</defs>
<g class="plotroot xscalable yscalable" id="img-63349779-1">
  <g class="guide xlabels" font-size="2.82" font-family="'PT Sans Caption','Helvetica Neue','Helvetica',sans-serif" fill="#6C606B" id="img-63349779-2">
    <g transform="translate(18.29,91.33)">
      <g class="primitive">
        <text text-anchor="middle" dy="0.6em">6.5</text>
      </g>
    </g>
    <g transform="translate(30.34,91.33)">
      <g class="primitive">
        <text text-anchor="middle" dy="0.6em">7.0</text>
      </g>
    </g>
    <g transform="translate(42.39,91.33)">
      <g class="primitive">
        <text text-anchor="middle" dy="0.6em">7.5</text>
      </g>
    </g>
    <g transform="translate(54.44,91.33)">
      <g class="primitive">
        <text text-anchor="middle" dy="0.6em">8.0</text>
      </g>
    </g>
    <g transform="translate(66.49,91.33)">
      <g class="primitive">
        <text text-anchor="middle" dy="0.6em">8.5</text>
      </g>
    </g>
  </g>
  <g class="guide colorkey" id="img-63349779-3">
    <g class="color_noncoding_noncoding_noncoding_noncoding_4-cycle" id="img-63349779-4">
      <g fill="#4C404B" font-size="2.82" font-family="'PT Sans','Helvetica Neue','Helvetica',sans-serif" id="img-63349779-5">
        <g transform="translate(72.31,49.48)" id="img-63349779-6">
          <g class="primitive">
            <text dy="0.35em">noncoding_noncoding_noncoding_noncoding_4-cycle</text>
          </g>
        </g>
      </g>
      <g fill-opacity="1" fill="#00BFFF" stroke="#FFFFFF" id="img-63349779-7">
        <g transform="translate(70.4,49.48)" id="img-63349779-8">
          <path d="M-0.91,-0.91 L 0.91 -0.91 0.91 0.91 -0.91 0.91 z" class="primitive"/>
        </g>
      </g>
    </g>
    <g fill="#362A35" font-size="3.88" font-family="'PT Sans','Helvetica Neue','Helvetica',sans-serif" stroke="#000000" stroke-opacity="0.000" id="img-63349779-9">
      <g transform="translate(69.49,45.66)" id="img-63349779-10">
        <g class="primitive">
          <text dy="-0em">graphlet</text>
        </g>
      </g>
    </g>
  </g>
  <g clip-path="url(#img-63349779-11)">
    <g id="img-63349779-12">
      <g pointer-events="visible" stroke-width="0.3" fill="#000000" fill-opacity="0.000" stroke="#000000" stroke-opacity="0.000" class="guide background" id="img-63349779-13">
        <g transform="translate(42.39,47.66)" id="img-63349779-14">
          <path d="M-26.1,-42.66 L 26.1 -42.66 26.1 42.66 -26.1 42.66 z" class="primitive"/>
        </g>
      </g>
      <g class="guide ygridlines xfixed" stroke-dasharray="0.5,0.5" stroke-width="0.2" stroke="#D0D0E0" id="img-63349779-15">
        <g transform="translate(42.39,88.33)" id="img-63349779-16">
          <path fill="none" d="M-26.1,0 L 26.1 0" class="primitive"/>
        </g>
        <g transform="translate(42.39,72.06)" id="img-63349779-17">
          <path fill="none" d="M-26.1,0 L 26.1 0" class="primitive"/>
        </g>
        <g transform="translate(42.39,55.8)" id="img-63349779-18">
          <path fill="none" d="M-26.1,0 L 26.1 0" class="primitive"/>
        </g>
        <g transform="translate(42.39,39.53)" id="img-63349779-19">
          <path fill="none" d="M-26.1,0 L 26.1 0" class="primitive"/>
        </g>
        <g transform="translate(42.39,23.27)" id="img-63349779-20">
          <path fill="none" d="M-26.1,0 L 26.1 0" class="primitive"/>
        </g>
        <g transform="translate(42.39,7)" id="img-63349779-21">
          <path fill="none" d="M-26.1,0 L 26.1 0" class="primitive"/>
        </g>
      </g>
      <g class="guide xgridlines yfixed" stroke-dasharray="0.5,0.5" stroke-width="0.2" stroke="#D0D0E0" id="img-63349779-22">
        <g transform="translate(18.29,47.66)" id="img-63349779-23">
          <path fill="none" d="M0,-42.66 L 0 42.66" class="primitive"/>
        </g>
        <g transform="translate(30.34,47.66)" id="img-63349779-24">
          <path fill="none" d="M0,-42.66 L 0 42.66" class="primitive"/>
        </g>
        <g transform="translate(42.39,47.66)" id="img-63349779-25">
          <path fill="none" d="M0,-42.66 L 0 42.66" class="primitive"/>
        </g>
        <g transform="translate(54.44,47.66)" id="img-63349779-26">
          <path fill="none" d="M0,-42.66 L 0 42.66" class="primitive"/>
        </g>
        <g transform="translate(66.49,47.66)" id="img-63349779-27">
          <path fill="none" d="M0,-42.66 L 0 42.66" class="primitive"/>
        </g>
      </g>
      <g class="plotpanel" id="img-63349779-28">
        <metadata>
          <boundingbox value="16.284999999999997mm 5.0mm 52.209689570642844mm 85.32666666666667mm"/>
          <unitbox value="6.417029127637532 5.122960898434298 2.1659417447249356 -5.245921796868595"/>
        </metadata>
        <g shape-rendering="crispEdges" stroke-width="0.3" id="img-63349779-29">
          <g stroke="#000000" stroke-opacity="0.000" class="geometry" id="img-63349779-30">
            <g fill="#00BFFF" id="img-63349779-31">
              <g transform="translate(21.15,80.19)" id="img-63349779-32">
                <path d="M-0.22,-8.13 L 0.22 -8.13 0.22 8.13 -0.22 8.13 z" class="primitive"/>
              </g>
              <g transform="translate(21.53,88.33)" id="img-63349779-33">
                <path d="M-0.22,-0 L 0.22 -0 0.22 0 -0.22 0 z" class="primitive"/>
              </g>
              <g transform="translate(21.92,88.33)" id="img-63349779-34">
                <path d="M-0.22,-0 L 0.22 -0 0.22 0 -0.22 0 z" class="primitive"/>
              </g>
              <g transform="translate(22.3,88.33)" id="img-63349779-35">
                <path d="M-0.22,-0 L 0.22 -0 0.22 0 -0.22 0 z" class="primitive"/>
              </g>
              <g transform="translate(22.69,88.33)" id="img-63349779-36">
                <path d="M-0.22,-0 L 0.22 -0 0.22 0 -0.22 0 z" class="primitive"/>
              </g>
              <g transform="translate(23.08,88.33)" id="img-63349779-37">
                <path d="M-0.22,-0 L 0.22 -0 0.22 0 -0.22 0 z" class="primitive"/>
              </g>
              <g transform="translate(23.46,88.33)" id="img-63349779-38">
                <path d="M-0.22,-0 L 0.22 -0 0.22 0 -0.22 0 z" class="primitive"/>
              </g>
              <g transform="translate(23.85,88.33)" id="img-63349779-39">
                <path d="M-0.22,-0 L 0.22 -0 0.22 0 -0.22 0 z" class="primitive"/>
              </g>
              <g transform="translate(24.23,88.33)" id="img-63349779-40">
                <path d="M-0.22,-0 L 0.22 -0 0.22 0 -0.22 0 z" class="primitive"/>
              </g>
              <g transform="translate(24.62,88.33)" id="img-63349779-41">
                <path d="M-0.22,-0 L 0.22 -0 0.22 0 -0.22 0 z" class="primitive"/>
              </g>
              <g transform="translate(25.01,88.33)" id="img-63349779-42">
                <path d="M-0.22,-0 L 0.22 -0 0.22 0 -0.22 0 z" class="primitive"/>
              </g>
              <g transform="translate(25.39,88.33)" id="img-63349779-43">
                <path d="M-0.22,-0 L 0.22 -0 0.22 0 -0.22 0 z" class="primitive"/>
              </g>
              <g transform="translate(25.78,88.33)" id="img-63349779-44">
                <path d="M-0.22,-0 L 0.22 -0 0.22 0 -0.22 0 z" class="primitive"/>
              </g>
              <g transform="translate(26.16,88.33)" id="img-63349779-45">
                <path d="M-0.22,-0 L 0.22 -0 0.22 0 -0.22 0 z" class="primitive"/>
              </g>
              <g transform="translate(26.55,88.33)" id="img-63349779-46">
                <path d="M-0.22,-0 L 0.22 -0 0.22 0 -0.22 0 z" class="primitive"/>
              </g>
              <g transform="translate(26.94,88.33)" id="img-63349779-47">
                <path d="M-0.22,-0 L 0.22 -0 0.22 0 -0.22 0 z" class="primitive"/>
              </g>
              <g transform="translate(27.32,88.33)" id="img-63349779-48">
                <path d="M-0.22,-0 L 0.22 -0 0.22 0 -0.22 0 z" class="primitive"/>
              </g>
              <g transform="translate(27.71,88.33)" id="img-63349779-49">
                <path d="M-0.22,-0 L 0.22 -0 0.22 0 -0.22 0 z" class="primitive"/>
              </g>
              <g transform="translate(28.09,80.19)" id="img-63349779-50">
                <path d="M-0.22,-8.13 L 0.22 -8.13 0.22 8.13 -0.22 8.13 z" class="primitive"/>
              </g>
              <g transform="translate(28.48,88.33)" id="img-63349779-51">
                <path d="M-0.22,-0 L 0.22 -0 0.22 0 -0.22 0 z" class="primitive"/>
              </g>
              <g transform="translate(28.86,80.19)" id="img-63349779-52">
                <path d="M-0.22,-8.13 L 0.22 -8.13 0.22 8.13 -0.22 8.13 z" class="primitive"/>
              </g>
              <g transform="translate(29.25,80.19)" id="img-63349779-53">
                <path d="M-0.22,-8.13 L 0.22 -8.13 0.22 8.13 -0.22 8.13 z" class="primitive"/>
              </g>
              <g transform="translate(29.64,88.33)" id="img-63349779-54">
                <path d="M-0.22,-0 L 0.22 -0 0.22 0 -0.22 0 z" class="primitive"/>
              </g>
              <g transform="translate(30.02,88.33)" id="img-63349779-55">
                <path d="M-0.22,-0 L 0.22 -0 0.22 0 -0.22 0 z" class="primitive"/>
              </g>
              <g transform="translate(30.41,72.06)" id="img-63349779-56">
                <path d="M-0.22,-16.27 L 0.22 -16.27 0.22 16.27 -0.22 16.27 z" class="primitive"/>
              </g>
              <g transform="translate(30.79,88.33)" id="img-63349779-57">
                <path d="M-0.22,-0 L 0.22 -0 0.22 0 -0.22 0 z" class="primitive"/>
              </g>
              <g transform="translate(31.18,80.19)" id="img-63349779-58">
                <path d="M-0.22,-8.13 L 0.22 -8.13 0.22 8.13 -0.22 8.13 z" class="primitive"/>
              </g>
              <g transform="translate(31.57,88.33)" id="img-63349779-59">
                <path d="M-0.22,-0 L 0.22 -0 0.22 0 -0.22 0 z" class="primitive"/>
              </g>
              <g transform="translate(31.95,88.33)" id="img-63349779-60">
                <path d="M-0.22,-0 L 0.22 -0 0.22 0 -0.22 0 z" class="primitive"/>
              </g>
              <g transform="translate(32.34,88.33)" id="img-63349779-61">
                <path d="M-0.22,-0 L 0.22 -0 0.22 0 -0.22 0 z" class="primitive"/>
              </g>
              <g transform="translate(32.72,88.33)" id="img-63349779-62">
                <path d="M-0.22,-0 L 0.22 -0 0.22 0 -0.22 0 z" class="primitive"/>
              </g>
              <g transform="translate(33.11,88.33)" id="img-63349779-63">
                <path d="M-0.22,-0 L 0.22 -0 0.22 0 -0.22 0 z" class="primitive"/>
              </g>
              <g transform="translate(33.5,88.33)" id="img-63349779-64">
                <path d="M-0.22,-0 L 0.22 -0 0.22 0 -0.22 0 z" class="primitive"/>
              </g>
              <g transform="translate(33.88,88.33)" id="img-63349779-65">
                <path d="M-0.22,-0 L 0.22 -0 0.22 0 -0.22 0 z" class="primitive"/>
              </g>
              <g transform="translate(34.27,88.33)" id="img-63349779-66">
                <path d="M-0.22,-0 L 0.22 -0 0.22 0 -0.22 0 z" class="primitive"/>
              </g>
              <g transform="translate(34.65,72.06)" id="img-63349779-67">
                <path d="M-0.22,-16.27 L 0.22 -16.27 0.22 16.27 -0.22 16.27 z" class="primitive"/>
              </g>
              <g transform="translate(35.04,88.33)" id="img-63349779-68">
                <path d="M-0.22,-0 L 0.22 -0 0.22 0 -0.22 0 z" class="primitive"/>
              </g>
              <g transform="translate(35.43,88.33)" id="img-63349779-69">
                <path d="M-0.22,-0 L 0.22 -0 0.22 0 -0.22 0 z" class="primitive"/>
              </g>
              <g transform="translate(35.81,88.33)" id="img-63349779-70">
                <path d="M-0.22,-0 L 0.22 -0 0.22 0 -0.22 0 z" class="primitive"/>
              </g>
              <g transform="translate(36.2,88.33)" id="img-63349779-71">
                <path d="M-0.22,-0 L 0.22 -0 0.22 0 -0.22 0 z" class="primitive"/>
              </g>
              <g transform="translate(36.58,72.06)" id="img-63349779-72">
                <path d="M-0.22,-16.27 L 0.22 -16.27 0.22 16.27 -0.22 16.27 z" class="primitive"/>
              </g>
              <g transform="translate(36.97,63.93)" id="img-63349779-73">
                <path d="M-0.22,-24.4 L 0.22 -24.4 0.22 24.4 -0.22 24.4 z" class="primitive"/>
              </g>
              <g transform="translate(37.36,88.33)" id="img-63349779-74">
                <path d="M-0.22,-0 L 0.22 -0 0.22 0 -0.22 0 z" class="primitive"/>
              </g>
              <g transform="translate(37.74,80.19)" id="img-63349779-75">
                <path d="M-0.22,-8.13 L 0.22 -8.13 0.22 8.13 -0.22 8.13 z" class="primitive"/>
              </g>
              <g transform="translate(38.13,80.19)" id="img-63349779-76">
                <path d="M-0.22,-8.13 L 0.22 -8.13 0.22 8.13 -0.22 8.13 z" class="primitive"/>
              </g>
              <g transform="translate(38.51,72.06)" id="img-63349779-77">
                <path d="M-0.22,-16.27 L 0.22 -16.27 0.22 16.27 -0.22 16.27 z" class="primitive"/>
              </g>
              <g transform="translate(38.9,72.06)" id="img-63349779-78">
                <path d="M-0.22,-16.27 L 0.22 -16.27 0.22 16.27 -0.22 16.27 z" class="primitive"/>
              </g>
              <g transform="translate(39.29,88.33)" id="img-63349779-79">
                <path d="M-0.22,-0 L 0.22 -0 0.22 0 -0.22 0 z" class="primitive"/>
              </g>
              <g transform="translate(39.67,80.19)" id="img-63349779-80">
                <path d="M-0.22,-8.13 L 0.22 -8.13 0.22 8.13 -0.22 8.13 z" class="primitive"/>
              </g>
              <g transform="translate(40.06,72.06)" id="img-63349779-81">
                <path d="M-0.22,-16.27 L 0.22 -16.27 0.22 16.27 -0.22 16.27 z" class="primitive"/>
              </g>
              <g transform="translate(40.44,88.33)" id="img-63349779-82">
                <path d="M-0.22,-0 L 0.22 -0 0.22 0 -0.22 0 z" class="primitive"/>
              </g>
              <g transform="translate(40.83,88.33)" id="img-63349779-83">
                <path d="M-0.22,-0 L 0.22 -0 0.22 0 -0.22 0 z" class="primitive"/>
              </g>
              <g transform="translate(41.21,80.19)" id="img-63349779-84">
                <path d="M-0.22,-8.13 L 0.22 -8.13 0.22 8.13 -0.22 8.13 z" class="primitive"/>
              </g>
              <g transform="translate(41.6,63.93)" id="img-63349779-85">
                <path d="M-0.22,-24.4 L 0.22 -24.4 0.22 24.4 -0.22 24.4 z" class="primitive"/>
              </g>
              <g transform="translate(41.99,88.33)" id="img-63349779-86">
                <path d="M-0.22,-0 L 0.22 -0 0.22 0 -0.22 0 z" class="primitive"/>
              </g>
              <g transform="translate(42.37,80.19)" id="img-63349779-87">
                <path d="M-0.22,-8.13 L 0.22 -8.13 0.22 8.13 -0.22 8.13 z" class="primitive"/>
              </g>
              <g transform="translate(42.76,55.8)" id="img-63349779-88">
                <path d="M-0.22,-32.53 L 0.22 -32.53 0.22 32.53 -0.22 32.53 z" class="primitive"/>
              </g>
              <g transform="translate(43.14,80.19)" id="img-63349779-89">
                <path d="M-0.22,-8.13 L 0.22 -8.13 0.22 8.13 -0.22 8.13 z" class="primitive"/>
              </g>
              <g transform="translate(43.53,55.8)" id="img-63349779-90">
                <path d="M-0.22,-32.53 L 0.22 -32.53 0.22 32.53 -0.22 32.53 z" class="primitive"/>
              </g>
              <g transform="translate(43.92,55.8)" id="img-63349779-91">
                <path d="M-0.22,-32.53 L 0.22 -32.53 0.22 32.53 -0.22 32.53 z" class="primitive"/>
              </g>
              <g transform="translate(44.3,72.06)" id="img-63349779-92">
                <path d="M-0.22,-16.27 L 0.22 -16.27 0.22 16.27 -0.22 16.27 z" class="primitive"/>
              </g>
              <g transform="translate(44.69,80.19)" id="img-63349779-93">
                <path d="M-0.22,-8.13 L 0.22 -8.13 0.22 8.13 -0.22 8.13 z" class="primitive"/>
              </g>
              <g transform="translate(45.07,72.06)" id="img-63349779-94">
                <path d="M-0.22,-16.27 L 0.22 -16.27 0.22 16.27 -0.22 16.27 z" class="primitive"/>
              </g>
              <g transform="translate(45.46,80.19)" id="img-63349779-95">
                <path d="M-0.22,-8.13 L 0.22 -8.13 0.22 8.13 -0.22 8.13 z" class="primitive"/>
              </g>
              <g transform="translate(45.85,88.33)" id="img-63349779-96">
                <path d="M-0.22,-0 L 0.22 -0 0.22 0 -0.22 0 z" class="primitive"/>
              </g>
              <g transform="translate(46.23,63.93)" id="img-63349779-97">
                <path d="M-0.22,-24.4 L 0.22 -24.4 0.22 24.4 -0.22 24.4 z" class="primitive"/>
              </g>
              <g transform="translate(46.62,63.93)" id="img-63349779-98">
                <path d="M-0.22,-24.4 L 0.22 -24.4 0.22 24.4 -0.22 24.4 z" class="primitive"/>
              </g>
              <g transform="translate(47,88.33)" id="img-63349779-99">
                <path d="M-0.22,-0 L 0.22 -0 0.22 0 -0.22 0 z" class="primitive"/>
              </g>
              <g transform="translate(47.39,72.06)" id="img-63349779-100">
                <path d="M-0.22,-16.27 L 0.22 -16.27 0.22 16.27 -0.22 16.27 z" class="primitive"/>
              </g>
              <g transform="translate(47.78,63.93)" id="img-63349779-101">
                <path d="M-0.22,-24.4 L 0.22 -24.4 0.22 24.4 -0.22 24.4 z" class="primitive"/>
              </g>
              <g transform="translate(48.16,55.8)" id="img-63349779-102">
                <path d="M-0.22,-32.53 L 0.22 -32.53 0.22 32.53 -0.22 32.53 z" class="primitive"/>
              </g>
              <g transform="translate(48.55,63.93)" id="img-63349779-103">
                <path d="M-0.22,-24.4 L 0.22 -24.4 0.22 24.4 -0.22 24.4 z" class="primitive"/>
              </g>
              <g transform="translate(48.93,80.19)" id="img-63349779-104">
                <path d="M-0.22,-8.13 L 0.22 -8.13 0.22 8.13 -0.22 8.13 z" class="primitive"/>
              </g>
              <g transform="translate(49.32,88.33)" id="img-63349779-105">
                <path d="M-0.22,-0 L 0.22 -0 0.22 0 -0.22 0 z" class="primitive"/>
              </g>
              <g transform="translate(49.71,80.19)" id="img-63349779-106">
                <path d="M-0.22,-8.13 L 0.22 -8.13 0.22 8.13 -0.22 8.13 z" class="primitive"/>
              </g>
              <g transform="translate(50.09,80.19)" id="img-63349779-107">
                <path d="M-0.22,-8.13 L 0.22 -8.13 0.22 8.13 -0.22 8.13 z" class="primitive"/>
              </g>
              <g transform="translate(50.48,80.19)" id="img-63349779-108">
                <path d="M-0.22,-8.13 L 0.22 -8.13 0.22 8.13 -0.22 8.13 z" class="primitive"/>
              </g>
              <g transform="translate(50.86,72.06)" id="img-63349779-109">
                <path d="M-0.22,-16.27 L 0.22 -16.27 0.22 16.27 -0.22 16.27 z" class="primitive"/>
              </g>
              <g transform="translate(51.25,63.93)" id="img-63349779-110">
                <path d="M-0.22,-24.4 L 0.22 -24.4 0.22 24.4 -0.22 24.4 z" class="primitive"/>
              </g>
              <g transform="translate(51.63,47.66)" id="img-63349779-111">
                <path d="M-0.22,-40.66 L 0.22 -40.66 0.22 40.66 -0.22 40.66 z" class="primitive"/>
              </g>
              <g transform="translate(52.02,72.06)" id="img-63349779-112">
                <path d="M-0.22,-16.27 L 0.22 -16.27 0.22 16.27 -0.22 16.27 z" class="primitive"/>
              </g>
              <g transform="translate(52.41,72.06)" id="img-63349779-113">
                <path d="M-0.22,-16.27 L 0.22 -16.27 0.22 16.27 -0.22 16.27 z" class="primitive"/>
              </g>
              <g transform="translate(52.79,80.19)" id="img-63349779-114">
                <path d="M-0.22,-8.13 L 0.22 -8.13 0.22 8.13 -0.22 8.13 z" class="primitive"/>
              </g>
              <g transform="translate(53.18,80.19)" id="img-63349779-115">
                <path d="M-0.22,-8.13 L 0.22 -8.13 0.22 8.13 -0.22 8.13 z" class="primitive"/>
              </g>
              <g transform="translate(53.56,80.19)" id="img-63349779-116">
                <path d="M-0.22,-8.13 L 0.22 -8.13 0.22 8.13 -0.22 8.13 z" class="primitive"/>
              </g>
              <g transform="translate(53.95,72.06)" id="img-63349779-117">
                <path d="M-0.22,-16.27 L 0.22 -16.27 0.22 16.27 -0.22 16.27 z" class="primitive"/>
              </g>
              <g transform="translate(54.34,80.19)" id="img-63349779-118">
                <path d="M-0.22,-8.13 L 0.22 -8.13 0.22 8.13 -0.22 8.13 z" class="primitive"/>
              </g>
              <g transform="translate(54.72,80.19)" id="img-63349779-119">
                <path d="M-0.22,-8.13 L 0.22 -8.13 0.22 8.13 -0.22 8.13 z" class="primitive"/>
              </g>
              <g transform="translate(55.11,80.19)" id="img-63349779-120">
                <path d="M-0.22,-8.13 L 0.22 -8.13 0.22 8.13 -0.22 8.13 z" class="primitive"/>
              </g>
              <g transform="translate(55.49,63.93)" id="img-63349779-121">
                <path d="M-0.22,-24.4 L 0.22 -24.4 0.22 24.4 -0.22 24.4 z" class="primitive"/>
              </g>
              <g transform="translate(55.88,88.33)" id="img-63349779-122">
                <path d="M-0.22,-0 L 0.22 -0 0.22 0 -0.22 0 z" class="primitive"/>
              </g>
              <g transform="translate(56.27,80.19)" id="img-63349779-123">
                <path d="M-0.22,-8.13 L 0.22 -8.13 0.22 8.13 -0.22 8.13 z" class="primitive"/>
              </g>
              <g transform="translate(56.65,80.19)" id="img-63349779-124">
                <path d="M-0.22,-8.13 L 0.22 -8.13 0.22 8.13 -0.22 8.13 z" class="primitive"/>
              </g>
              <g transform="translate(57.04,80.19)" id="img-63349779-125">
                <path d="M-0.22,-8.13 L 0.22 -8.13 0.22 8.13 -0.22 8.13 z" class="primitive"/>
              </g>
              <g transform="translate(57.42,88.33)" id="img-63349779-126">
                <path d="M-0.22,-0 L 0.22 -0 0.22 0 -0.22 0 z" class="primitive"/>
              </g>
              <g transform="translate(57.81,80.19)" id="img-63349779-127">
                <path d="M-0.22,-8.13 L 0.22 -8.13 0.22 8.13 -0.22 8.13 z" class="primitive"/>
              </g>
              <g transform="translate(58.2,88.33)" id="img-63349779-128">
                <path d="M-0.22,-0 L 0.22 -0 0.22 0 -0.22 0 z" class="primitive"/>
              </g>
              <g transform="translate(58.58,88.33)" id="img-63349779-129">
                <path d="M-0.22,-0 L 0.22 -0 0.22 0 -0.22 0 z" class="primitive"/>
              </g>
              <g transform="translate(58.97,80.19)" id="img-63349779-130">
                <path d="M-0.22,-8.13 L 0.22 -8.13 0.22 8.13 -0.22 8.13 z" class="primitive"/>
              </g>
              <g transform="translate(59.35,80.19)" id="img-63349779-131">
                <path d="M-0.22,-8.13 L 0.22 -8.13 0.22 8.13 -0.22 8.13 z" class="primitive"/>
              </g>
            </g>
          </g>
        </g>
      </g>
    </g>
  </g>
  <g class="guide ylabels" font-size="2.82" font-family="'PT Sans Caption','Helvetica Neue','Helvetica',sans-serif" fill="#6C606B" id="img-63349779-132">
    <g transform="translate(15.28,88.33)" id="img-63349779-133">
      <g class="primitive">
        <text text-anchor="end" dy="0.35em">0</text>
      </g>
    </g>
    <g transform="translate(15.28,72.06)" id="img-63349779-134">
      <g class="primitive">
        <text text-anchor="end" dy="0.35em">1</text>
      </g>
    </g>
    <g transform="translate(15.28,55.8)" id="img-63349779-135">
      <g class="primitive">
        <text text-anchor="end" dy="0.35em">2</text>
      </g>
    </g>
    <g transform="translate(15.28,39.53)" id="img-63349779-136">
      <g class="primitive">
        <text text-anchor="end" dy="0.35em">3</text>
      </g>
    </g>
    <g transform="translate(15.28,23.27)" id="img-63349779-137">
      <g class="primitive">
        <text text-anchor="end" dy="0.35em">4</text>
      </g>
    </g>
    <g transform="translate(15.28,7)" id="img-63349779-138">
      <g class="primitive">
        <text text-anchor="end" dy="0.35em">5</text>
      </g>
    </g>
  </g>
  <g font-size="3.88" font-family="'PT Sans','Helvetica Neue','Helvetica',sans-serif" fill="#564A55" stroke="#000000" stroke-opacity="0.000" id="img-63349779-139">
    <g transform="translate(8.81,45.66)" id="img-63349779-140">
      <g class="primitive">
        <text text-anchor="middle" dy="0.35em" transform="rotate(-90,0, 2)">frequency</text>
      </g>
    </g>
  </g>
</g>
<defs>
  <clipPath id="img-63349779-11">
    <path d="M16.28,5 L 68.49 5 68.49 90.33 16.28 90.33" />
  </clipPath>
</defs>
</svg>
