<?xml version="1.0" encoding="UTF-8"?>
<svg xmlns="http://www.w3.org/2000/svg"
     xmlns:xlink="http://www.w3.org/1999/xlink"
     xmlns:gadfly="http://www.gadflyjl.org/ns"
     version="1.2"
     width="141.42mm" height="100mm" viewBox="0 0 141.42 100"
     stroke="none"
     fill="#000000"
     stroke-width="0.3"
     font-size="3.88"
>
<defs>
  <marker id="arrow" markerWidth="15" markerHeight="7" refX="5" refY="3.5" orient="auto" markerUnits="strokeWidth">
    <path d="M0,0 L15,3.5 L0,7 z" stroke="context-stroke" fill="context-stroke"/>
  </marker>
</defs>
<g class="plotroot xscalable yscalable" id="img-9117b285-1">
  <g class="guide xlabels" font-size="2.82" font-family="'PT Sans Caption','Helvetica Neue','Helvetica',sans-serif" fill="#6C606B" id="img-9117b285-2">
    <g transform="translate(19.96,91.33)">
      <g class="primitive">
        <text text-anchor="middle" dy="0.6em">0</text>
      </g>
    </g>
    <g transform="translate(34.29,91.33)">
      <g class="primitive">
        <text text-anchor="middle" dy="0.6em">5.0×10³</text>
      </g>
    </g>
    <g transform="translate(48.63,91.33)">
      <g class="primitive">
        <text text-anchor="middle" dy="0.6em">1.0×10⁴</text>
      </g>
    </g>
    <g transform="translate(62.96,91.33)">
      <g class="primitive">
        <text text-anchor="middle" dy="0.6em">1.5×10⁴</text>
      </g>
    </g>
    <g transform="translate(77.29,91.33)">
      <g class="primitive">
        <text text-anchor="middle" dy="0.6em">2.0×10⁴</text>
      </g>
    </g>
  </g>
  <g class="guide colorkey" id="img-9117b285-3">
    <g class="color_coding_noncoding_coding_noncoding_4-star" id="img-9117b285-4">
      <g fill="#4C404B" font-size="2.82" font-family="'PT Sans','Helvetica Neue','Helvetica',sans-serif" id="img-9117b285-5">
        <g transform="translate(83.11,49.48)" id="img-9117b285-6">
          <g class="primitive">
            <text dy="0.35em">coding_noncoding_coding_noncoding_4-star</text>
          </g>
        </g>
      </g>
      <g fill-opacity="1" fill="#00BFFF" stroke="#FFFFFF" id="img-9117b285-7">
        <g transform="translate(81.2,49.48)" id="img-9117b285-8">
          <path d="M-0.91,-0.91 L 0.91 -0.91 0.91 0.91 -0.91 0.91 z" class="primitive"/>
        </g>
      </g>
    </g>
    <g fill="#362A35" font-size="3.88" font-family="'PT Sans','Helvetica Neue','Helvetica',sans-serif" stroke="#000000" stroke-opacity="0.000" id="img-9117b285-9">
      <g transform="translate(80.29,45.66)" id="img-9117b285-10">
        <g class="primitive">
          <text dy="-0em">graphlet</text>
        </g>
      </g>
    </g>
  </g>
  <g clip-path="url(#img-9117b285-11)">
    <g id="img-9117b285-12">
      <g pointer-events="visible" stroke-width="0.3" fill="#000000" fill-opacity="0.000" stroke="#000000" stroke-opacity="0.000" class="guide background" id="img-9117b285-13">
        <g transform="translate(48.63,47.66)" id="img-9117b285-14">
          <path d="M-30.67,-42.66 L 30.67 -42.66 30.67 42.66 -30.67 42.66 z" class="primitive"/>
        </g>
      </g>
      <g class="guide ygridlines xfixed" stroke-dasharray="0.5,0.5" stroke-width="0.2" stroke="#D0D0E0" id="img-9117b285-15">
        <g transform="translate(48.63,88.33)" id="img-9117b285-16">
          <path fill="none" d="M-30.67,0 L 30.67 0" class="primitive"/>
        </g>
        <g transform="translate(48.63,68)" id="img-9117b285-17">
          <path fill="none" d="M-30.67,0 L 30.67 0" class="primitive"/>
        </g>
        <g transform="translate(48.63,47.66)" id="img-9117b285-18">
          <path fill="none" d="M-30.67,0 L 30.67 0" class="primitive"/>
        </g>
        <g transform="translate(48.63,27.33)" id="img-9117b285-19">
          <path fill="none" d="M-30.67,0 L 30.67 0" class="primitive"/>
        </g>
        <g transform="translate(48.63,7)" id="img-9117b285-20">
          <path fill="none" d="M-30.67,0 L 30.67 0" class="primitive"/>
        </g>
      </g>
      <g class="guide xgridlines yfixed" stroke-dasharray="0.5,0.5" stroke-width="0.2" stroke="#D0D0E0" id="img-9117b285-21">
        <g transform="translate(19.96,47.66)" id="img-9117b285-22">
          <path fill="none" d="M0,-42.66 L 0 42.66" class="primitive"/>
        </g>
        <g transform="translate(34.29,47.66)" id="img-9117b285-23">
          <path fill="none" d="M0,-42.66 L 0 42.66" class="primitive"/>
        </g>
        <g transform="translate(48.63,47.66)" id="img-9117b285-24">
          <path fill="none" d="M0,-42.66 L 0 42.66" class="primitive"/>
        </g>
        <g transform="translate(62.96,47.66)" id="img-9117b285-25">
          <path fill="none" d="M0,-42.66 L 0 42.66" class="primitive"/>
        </g>
        <g transform="translate(77.29,47.66)" id="img-9117b285-26">
          <path fill="none" d="M0,-42.66 L 0 42.66" class="primitive"/>
        </g>
      </g>
      <g class="plotpanel" id="img-9117b285-27">
        <metadata>
          <boundingbox value="17.95833333333333mm 5.0mm 61.3363562373095mm 85.32666666666667mm"/>
          <unitbox value="-697.6376356119313 40.98368718747438 21395.275271223865 -41.96737437494876"/>
        </metadata>
        <g shape-rendering="crispEdges" stroke-width="0.3" id="img-9117b285-28">
          <g stroke="#000000" stroke-opacity="0.000" class="geometry" id="img-9117b285-29">
            <g fill="#00BFFF" id="img-9117b285-30">
              <g transform="translate(37.37,87.31)" id="img-9117b285-31">
                <path d="M-0.19,-1.02 L 0.19 -1.02 0.19 1.02 -0.19 1.02 z" class="primitive"/>
              </g>
              <g transform="translate(37.71,88.33)" id="img-9117b285-32">
                <path d="M-0.19,-0 L 0.19 -0 0.19 0 -0.19 0 z" class="primitive"/>
              </g>
              <g transform="translate(38.04,88.33)" id="img-9117b285-33">
                <path d="M-0.19,-0 L 0.19 -0 0.19 0 -0.19 0 z" class="primitive"/>
              </g>
              <g transform="translate(38.38,87.31)" id="img-9117b285-34">
                <path d="M-0.19,-1.02 L 0.19 -1.02 0.19 1.02 -0.19 1.02 z" class="primitive"/>
              </g>
              <g transform="translate(38.72,88.33)" id="img-9117b285-35">
                <path d="M-0.19,-0 L 0.19 -0 0.19 0 -0.19 0 z" class="primitive"/>
              </g>
              <g transform="translate(39.06,87.31)" id="img-9117b285-36">
                <path d="M-0.19,-1.02 L 0.19 -1.02 0.19 1.02 -0.19 1.02 z" class="primitive"/>
              </g>
              <g transform="translate(39.4,86.29)" id="img-9117b285-37">
                <path d="M-0.19,-2.03 L 0.19 -2.03 0.19 2.03 -0.19 2.03 z" class="primitive"/>
              </g>
              <g transform="translate(39.73,88.33)" id="img-9117b285-38">
                <path d="M-0.19,-0 L 0.19 -0 0.19 0 -0.19 0 z" class="primitive"/>
              </g>
              <g transform="translate(40.07,86.29)" id="img-9117b285-39">
                <path d="M-0.19,-2.03 L 0.19 -2.03 0.19 2.03 -0.19 2.03 z" class="primitive"/>
              </g>
              <g transform="translate(40.41,84.26)" id="img-9117b285-40">
                <path d="M-0.19,-4.07 L 0.19 -4.07 0.19 4.07 -0.19 4.07 z" class="primitive"/>
              </g>
              <g transform="translate(40.75,87.31)" id="img-9117b285-41">
                <path d="M-0.19,-1.02 L 0.19 -1.02 0.19 1.02 -0.19 1.02 z" class="primitive"/>
              </g>
              <g transform="translate(41.09,84.26)" id="img-9117b285-42">
                <path d="M-0.19,-4.07 L 0.19 -4.07 0.19 4.07 -0.19 4.07 z" class="primitive"/>
              </g>
              <g transform="translate(41.42,86.29)" id="img-9117b285-43">
                <path d="M-0.19,-2.03 L 0.19 -2.03 0.19 2.03 -0.19 2.03 z" class="primitive"/>
              </g>
              <g transform="translate(41.76,80.19)" id="img-9117b285-44">
                <path d="M-0.19,-8.13 L 0.19 -8.13 0.19 8.13 -0.19 8.13 z" class="primitive"/>
              </g>
              <g transform="translate(42.1,85.28)" id="img-9117b285-45">
                <path d="M-0.19,-3.05 L 0.19 -3.05 0.19 3.05 -0.19 3.05 z" class="primitive"/>
              </g>
              <g transform="translate(42.44,76.13)" id="img-9117b285-46">
                <path d="M-0.19,-12.2 L 0.19 -12.2 0.19 12.2 -0.19 12.2 z" class="primitive"/>
              </g>
              <g transform="translate(42.78,81.21)" id="img-9117b285-47">
                <path d="M-0.19,-7.12 L 0.19 -7.12 0.19 7.12 -0.19 7.12 z" class="primitive"/>
              </g>
              <g transform="translate(43.11,79.18)" id="img-9117b285-48">
                <path d="M-0.19,-9.15 L 0.19 -9.15 0.19 9.15 -0.19 9.15 z" class="primitive"/>
              </g>
              <g transform="translate(43.45,80.19)" id="img-9117b285-49">
                <path d="M-0.19,-8.13 L 0.19 -8.13 0.19 8.13 -0.19 8.13 z" class="primitive"/>
              </g>
              <g transform="translate(43.79,81.21)" id="img-9117b285-50">
                <path d="M-0.19,-7.12 L 0.19 -7.12 0.19 7.12 -0.19 7.12 z" class="primitive"/>
              </g>
              <g transform="translate(44.13,77.14)" id="img-9117b285-51">
                <path d="M-0.19,-11.18 L 0.19 -11.18 0.19 11.18 -0.19 11.18 z" class="primitive"/>
              </g>
              <g transform="translate(44.47,76.13)" id="img-9117b285-52">
                <path d="M-0.19,-12.2 L 0.19 -12.2 0.19 12.2 -0.19 12.2 z" class="primitive"/>
              </g>
              <g transform="translate(44.8,75.11)" id="img-9117b285-53">
                <path d="M-0.19,-13.22 L 0.19 -13.22 0.19 13.22 -0.19 13.22 z" class="primitive"/>
              </g>
              <g transform="translate(45.14,65.96)" id="img-9117b285-54">
                <path d="M-0.19,-22.36 L 0.19 -22.36 0.19 22.36 -0.19 22.36 z" class="primitive"/>
              </g>
              <g transform="translate(45.48,72.06)" id="img-9117b285-55">
                <path d="M-0.19,-16.27 L 0.19 -16.27 0.19 16.27 -0.19 16.27 z" class="primitive"/>
              </g>
              <g transform="translate(45.82,70.03)" id="img-9117b285-56">
                <path d="M-0.19,-18.3 L 0.19 -18.3 0.19 18.3 -0.19 18.3 z" class="primitive"/>
              </g>
              <g transform="translate(46.16,65.96)" id="img-9117b285-57">
                <path d="M-0.19,-22.36 L 0.19 -22.36 0.19 22.36 -0.19 22.36 z" class="primitive"/>
              </g>
              <g transform="translate(46.5,63.93)" id="img-9117b285-58">
                <path d="M-0.19,-24.4 L 0.19 -24.4 0.19 24.4 -0.19 24.4 z" class="primitive"/>
              </g>
              <g transform="translate(46.83,58.85)" id="img-9117b285-59">
                <path d="M-0.19,-29.48 L 0.19 -29.48 0.19 29.48 -0.19 29.48 z" class="primitive"/>
              </g>
              <g transform="translate(47.17,65.96)" id="img-9117b285-60">
                <path d="M-0.19,-22.36 L 0.19 -22.36 0.19 22.36 -0.19 22.36 z" class="primitive"/>
              </g>
              <g transform="translate(47.51,62.91)" id="img-9117b285-61">
                <path d="M-0.19,-25.41 L 0.19 -25.41 0.19 25.41 -0.19 25.41 z" class="primitive"/>
              </g>
              <g transform="translate(47.85,62.91)" id="img-9117b285-62">
                <path d="M-0.19,-25.41 L 0.19 -25.41 0.19 25.41 -0.19 25.41 z" class="primitive"/>
              </g>
              <g transform="translate(48.19,66.98)" id="img-9117b285-63">
                <path d="M-0.19,-21.35 L 0.19 -21.35 0.19 21.35 -0.19 21.35 z" class="primitive"/>
              </g>
              <g transform="translate(48.52,54.78)" id="img-9117b285-64">
                <path d="M-0.19,-33.55 L 0.19 -33.55 0.19 33.55 -0.19 33.55 z" class="primitive"/>
              </g>
              <g transform="translate(48.86,56.81)" id="img-9117b285-65">
                <path d="M-0.19,-31.51 L 0.19 -31.51 0.19 31.51 -0.19 31.51 z" class="primitive"/>
              </g>
              <g transform="translate(49.2,66.98)" id="img-9117b285-66">
                <path d="M-0.19,-21.35 L 0.19 -21.35 0.19 21.35 -0.19 21.35 z" class="primitive"/>
              </g>
              <g transform="translate(49.54,57.83)" id="img-9117b285-67">
                <path d="M-0.19,-30.5 L 0.19 -30.5 0.19 30.5 -0.19 30.5 z" class="primitive"/>
              </g>
              <g transform="translate(49.88,57.83)" id="img-9117b285-68">
                <path d="M-0.19,-30.5 L 0.19 -30.5 0.19 30.5 -0.19 30.5 z" class="primitive"/>
              </g>
              <g transform="translate(50.21,65.96)" id="img-9117b285-69">
                <path d="M-0.19,-22.36 L 0.19 -22.36 0.19 22.36 -0.19 22.36 z" class="primitive"/>
              </g>
              <g transform="translate(50.55,65.96)" id="img-9117b285-70">
                <path d="M-0.19,-22.36 L 0.19 -22.36 0.19 22.36 -0.19 22.36 z" class="primitive"/>
              </g>
              <g transform="translate(50.89,59.86)" id="img-9117b285-71">
                <path d="M-0.19,-28.46 L 0.19 -28.46 0.19 28.46 -0.19 28.46 z" class="primitive"/>
              </g>
              <g transform="translate(51.23,60.88)" id="img-9117b285-72">
                <path d="M-0.19,-27.45 L 0.19 -27.45 0.19 27.45 -0.19 27.45 z" class="primitive"/>
              </g>
              <g transform="translate(51.57,73.08)" id="img-9117b285-73">
                <path d="M-0.19,-15.25 L 0.19 -15.25 0.19 15.25 -0.19 15.25 z" class="primitive"/>
              </g>
              <g transform="translate(51.9,63.93)" id="img-9117b285-74">
                <path d="M-0.19,-24.4 L 0.19 -24.4 0.19 24.4 -0.19 24.4 z" class="primitive"/>
              </g>
              <g transform="translate(52.24,61.9)" id="img-9117b285-75">
                <path d="M-0.19,-26.43 L 0.19 -26.43 0.19 26.43 -0.19 26.43 z" class="primitive"/>
              </g>
              <g transform="translate(52.58,70.03)" id="img-9117b285-76">
                <path d="M-0.19,-18.3 L 0.19 -18.3 0.19 18.3 -0.19 18.3 z" class="primitive"/>
              </g>
              <g transform="translate(52.92,49.7)" id="img-9117b285-77">
                <path d="M-0.19,-38.63 L 0.19 -38.63 0.19 38.63 -0.19 38.63 z" class="primitive"/>
              </g>
              <g transform="translate(53.26,70.03)" id="img-9117b285-78">
                <path d="M-0.19,-18.3 L 0.19 -18.3 0.19 18.3 -0.19 18.3 z" class="primitive"/>
              </g>
              <g transform="translate(53.59,70.03)" id="img-9117b285-79">
                <path d="M-0.19,-18.3 L 0.19 -18.3 0.19 18.3 -0.19 18.3 z" class="primitive"/>
              </g>
              <g transform="translate(53.93,73.08)" id="img-9117b285-80">
                <path d="M-0.19,-15.25 L 0.19 -15.25 0.19 15.25 -0.19 15.25 z" class="primitive"/>
              </g>
              <g transform="translate(54.27,75.11)" id="img-9117b285-81">
                <path d="M-0.19,-13.22 L 0.19 -13.22 0.19 13.22 -0.19 13.22 z" class="primitive"/>
              </g>
              <g transform="translate(54.61,69.01)" id="img-9117b285-82">
                <path d="M-0.19,-19.32 L 0.19 -19.32 0.19 19.32 -0.19 19.32 z" class="primitive"/>
              </g>
              <g transform="translate(54.95,72.06)" id="img-9117b285-83">
                <path d="M-0.19,-16.27 L 0.19 -16.27 0.19 16.27 -0.19 16.27 z" class="primitive"/>
              </g>
              <g transform="translate(55.28,76.13)" id="img-9117b285-84">
                <path d="M-0.19,-12.2 L 0.19 -12.2 0.19 12.2 -0.19 12.2 z" class="primitive"/>
              </g>
              <g transform="translate(55.62,68)" id="img-9117b285-85">
                <path d="M-0.19,-20.33 L 0.19 -20.33 0.19 20.33 -0.19 20.33 z" class="primitive"/>
              </g>
              <g transform="translate(55.96,73.08)" id="img-9117b285-86">
                <path d="M-0.19,-15.25 L 0.19 -15.25 0.19 15.25 -0.19 15.25 z" class="primitive"/>
              </g>
              <g transform="translate(56.3,70.03)" id="img-9117b285-87">
                <path d="M-0.19,-18.3 L 0.19 -18.3 0.19 18.3 -0.19 18.3 z" class="primitive"/>
              </g>
              <g transform="translate(56.64,77.14)" id="img-9117b285-88">
                <path d="M-0.19,-11.18 L 0.19 -11.18 0.19 11.18 -0.19 11.18 z" class="primitive"/>
              </g>
              <g transform="translate(56.97,72.06)" id="img-9117b285-89">
                <path d="M-0.19,-16.27 L 0.19 -16.27 0.19 16.27 -0.19 16.27 z" class="primitive"/>
              </g>
              <g transform="translate(57.31,73.08)" id="img-9117b285-90">
                <path d="M-0.19,-15.25 L 0.19 -15.25 0.19 15.25 -0.19 15.25 z" class="primitive"/>
              </g>
              <g transform="translate(57.65,81.21)" id="img-9117b285-91">
                <path d="M-0.19,-7.12 L 0.19 -7.12 0.19 7.12 -0.19 7.12 z" class="primitive"/>
              </g>
              <g transform="translate(57.99,80.19)" id="img-9117b285-92">
                <path d="M-0.19,-8.13 L 0.19 -8.13 0.19 8.13 -0.19 8.13 z" class="primitive"/>
              </g>
              <g transform="translate(58.33,78.16)" id="img-9117b285-93">
                <path d="M-0.19,-10.17 L 0.19 -10.17 0.19 10.17 -0.19 10.17 z" class="primitive"/>
              </g>
              <g transform="translate(58.66,75.11)" id="img-9117b285-94">
                <path d="M-0.19,-13.22 L 0.19 -13.22 0.19 13.22 -0.19 13.22 z" class="primitive"/>
              </g>
              <g transform="translate(59,84.26)" id="img-9117b285-95">
                <path d="M-0.19,-4.07 L 0.19 -4.07 0.19 4.07 -0.19 4.07 z" class="primitive"/>
              </g>
              <g transform="translate(59.34,85.28)" id="img-9117b285-96">
                <path d="M-0.19,-3.05 L 0.19 -3.05 0.19 3.05 -0.19 3.05 z" class="primitive"/>
              </g>
              <g transform="translate(59.68,84.26)" id="img-9117b285-97">
                <path d="M-0.19,-4.07 L 0.19 -4.07 0.19 4.07 -0.19 4.07 z" class="primitive"/>
              </g>
              <g transform="translate(60.02,82.23)" id="img-9117b285-98">
                <path d="M-0.19,-6.1 L 0.19 -6.1 0.19 6.1 -0.19 6.1 z" class="primitive"/>
              </g>
              <g transform="translate(60.35,86.29)" id="img-9117b285-99">
                <path d="M-0.19,-2.03 L 0.19 -2.03 0.19 2.03 -0.19 2.03 z" class="primitive"/>
              </g>
              <g transform="translate(60.69,83.24)" id="img-9117b285-100">
                <path d="M-0.19,-5.08 L 0.19 -5.08 0.19 5.08 -0.19 5.08 z" class="primitive"/>
              </g>
              <g transform="translate(61.03,84.26)" id="img-9117b285-101">
                <path d="M-0.19,-4.07 L 0.19 -4.07 0.19 4.07 -0.19 4.07 z" class="primitive"/>
              </g>
              <g transform="translate(61.37,86.29)" id="img-9117b285-102">
                <path d="M-0.19,-2.03 L 0.19 -2.03 0.19 2.03 -0.19 2.03 z" class="primitive"/>
              </g>
              <g transform="translate(61.71,86.29)" id="img-9117b285-103">
                <path d="M-0.19,-2.03 L 0.19 -2.03 0.19 2.03 -0.19 2.03 z" class="primitive"/>
              </g>
              <g transform="translate(62.04,84.26)" id="img-9117b285-104">
                <path d="M-0.19,-4.07 L 0.19 -4.07 0.19 4.07 -0.19 4.07 z" class="primitive"/>
              </g>
              <g transform="translate(62.38,85.28)" id="img-9117b285-105">
                <path d="M-0.19,-3.05 L 0.19 -3.05 0.19 3.05 -0.19 3.05 z" class="primitive"/>
              </g>
              <g transform="translate(62.72,87.31)" id="img-9117b285-106">
                <path d="M-0.19,-1.02 L 0.19 -1.02 0.19 1.02 -0.19 1.02 z" class="primitive"/>
              </g>
              <g transform="translate(63.06,86.29)" id="img-9117b285-107">
                <path d="M-0.19,-2.03 L 0.19 -2.03 0.19 2.03 -0.19 2.03 z" class="primitive"/>
              </g>
              <g transform="translate(63.4,86.29)" id="img-9117b285-108">
                <path d="M-0.19,-2.03 L 0.19 -2.03 0.19 2.03 -0.19 2.03 z" class="primitive"/>
              </g>
              <g transform="translate(63.73,87.31)" id="img-9117b285-109">
                <path d="M-0.19,-1.02 L 0.19 -1.02 0.19 1.02 -0.19 1.02 z" class="primitive"/>
              </g>
              <g transform="translate(64.07,85.28)" id="img-9117b285-110">
                <path d="M-0.19,-3.05 L 0.19 -3.05 0.19 3.05 -0.19 3.05 z" class="primitive"/>
              </g>
              <g transform="translate(64.41,88.33)" id="img-9117b285-111">
                <path d="M-0.19,-0 L 0.19 -0 0.19 0 -0.19 0 z" class="primitive"/>
              </g>
              <g transform="translate(64.75,86.29)" id="img-9117b285-112">
                <path d="M-0.19,-2.03 L 0.19 -2.03 0.19 2.03 -0.19 2.03 z" class="primitive"/>
              </g>
              <g transform="translate(65.09,87.31)" id="img-9117b285-113">
                <path d="M-0.19,-1.02 L 0.19 -1.02 0.19 1.02 -0.19 1.02 z" class="primitive"/>
              </g>
              <g transform="translate(65.42,86.29)" id="img-9117b285-114">
                <path d="M-0.19,-2.03 L 0.19 -2.03 0.19 2.03 -0.19 2.03 z" class="primitive"/>
              </g>
              <g transform="translate(65.76,87.31)" id="img-9117b285-115">
                <path d="M-0.19,-1.02 L 0.19 -1.02 0.19 1.02 -0.19 1.02 z" class="primitive"/>
              </g>
              <g transform="translate(66.1,86.29)" id="img-9117b285-116">
                <path d="M-0.19,-2.03 L 0.19 -2.03 0.19 2.03 -0.19 2.03 z" class="primitive"/>
              </g>
              <g transform="translate(66.44,88.33)" id="img-9117b285-117">
                <path d="M-0.19,-0 L 0.19 -0 0.19 0 -0.19 0 z" class="primitive"/>
              </g>
              <g transform="translate(66.78,88.33)" id="img-9117b285-118">
                <path d="M-0.19,-0 L 0.19 -0 0.19 0 -0.19 0 z" class="primitive"/>
              </g>
              <g transform="translate(67.11,87.31)" id="img-9117b285-119">
                <path d="M-0.19,-1.02 L 0.19 -1.02 0.19 1.02 -0.19 1.02 z" class="primitive"/>
              </g>
              <g transform="translate(67.45,87.31)" id="img-9117b285-120">
                <path d="M-0.19,-1.02 L 0.19 -1.02 0.19 1.02 -0.19 1.02 z" class="primitive"/>
              </g>
              <g transform="translate(67.79,88.33)" id="img-9117b285-121">
                <path d="M-0.19,-0 L 0.19 -0 0.19 0 -0.19 0 z" class="primitive"/>
              </g>
              <g transform="translate(68.13,88.33)" id="img-9117b285-122">
                <path d="M-0.19,-0 L 0.19 -0 0.19 0 -0.19 0 z" class="primitive"/>
              </g>
              <g transform="translate(68.47,88.33)" id="img-9117b285-123">
                <path d="M-0.19,-0 L 0.19 -0 0.19 0 -0.19 0 z" class="primitive"/>
              </g>
              <g transform="translate(68.8,88.33)" id="img-9117b285-124">
                <path d="M-0.19,-0 L 0.19 -0 0.19 0 -0.19 0 z" class="primitive"/>
              </g>
              <g transform="translate(69.14,88.33)" id="img-9117b285-125">
                <path d="M-0.19,-0 L 0.19 -0 0.19 0 -0.19 0 z" class="primitive"/>
              </g>
              <g transform="translate(69.48,88.33)" id="img-9117b285-126">
                <path d="M-0.19,-0 L 0.19 -0 0.19 0 -0.19 0 z" class="primitive"/>
              </g>
              <g transform="translate(69.82,88.33)" id="img-9117b285-127">
                <path d="M-0.19,-0 L 0.19 -0 0.19 0 -0.19 0 z" class="primitive"/>
              </g>
              <g transform="translate(70.16,88.33)" id="img-9117b285-128">
                <path d="M-0.19,-0 L 0.19 -0 0.19 0 -0.19 0 z" class="primitive"/>
              </g>
              <g transform="translate(70.49,88.33)" id="img-9117b285-129">
                <path d="M-0.19,-0 L 0.19 -0 0.19 0 -0.19 0 z" class="primitive"/>
              </g>
              <g transform="translate(70.83,87.31)" id="img-9117b285-130">
                <path d="M-0.19,-1.02 L 0.19 -1.02 0.19 1.02 -0.19 1.02 z" class="primitive"/>
              </g>
            </g>
          </g>
        </g>
      </g>
    </g>
  </g>
  <g class="guide ylabels" font-size="2.82" font-family="'PT Sans Caption','Helvetica Neue','Helvetica',sans-serif" fill="#6C606B" id="img-9117b285-131">
    <g transform="translate(16.96,88.33)" id="img-9117b285-132">
      <g class="primitive">
        <text text-anchor="end" dy="0.35em">0</text>
      </g>
    </g>
    <g transform="translate(16.96,68)" id="img-9117b285-133">
      <g class="primitive">
        <text text-anchor="end" dy="0.35em">10</text>
      </g>
    </g>
    <g transform="translate(16.96,47.66)" id="img-9117b285-134">
      <g class="primitive">
        <text text-anchor="end" dy="0.35em">20</text>
      </g>
    </g>
    <g transform="translate(16.96,27.33)" id="img-9117b285-135">
      <g class="primitive">
        <text text-anchor="end" dy="0.35em">30</text>
      </g>
    </g>
    <g transform="translate(16.96,7)" id="img-9117b285-136">
      <g class="primitive">
        <text text-anchor="end" dy="0.35em">40</text>
      </g>
    </g>
  </g>
  <g font-size="3.88" font-family="'PT Sans','Helvetica Neue','Helvetica',sans-serif" fill="#564A55" stroke="#000000" stroke-opacity="0.000" id="img-9117b285-137">
    <g transform="translate(8.81,45.66)" id="img-9117b285-138">
      <g class="primitive">
        <text text-anchor="middle" dy="0.35em" transform="rotate(-90,0, 2)">frequency</text>
      </g>
    </g>
  </g>
</g>
<defs>
  <clipPath id="img-9117b285-11">
    <path d="M17.96,5 L 79.29 5 79.29 90.33 17.96 90.33" />
  </clipPath>
</defs>
</svg>
