<?xml version="1.0" encoding="UTF-8"?>
<svg xmlns="http://www.w3.org/2000/svg"
     xmlns:xlink="http://www.w3.org/1999/xlink"
     xmlns:gadfly="http://www.gadflyjl.org/ns"
     version="1.2"
     width="141.42mm" height="100mm" viewBox="0 0 141.42 100"
     stroke="none"
     fill="#000000"
     stroke-width="0.3"
     font-size="3.88"
>
<defs>
  <marker id="arrow" markerWidth="15" markerHeight="7" refX="5" refY="3.5" orient="auto" markerUnits="strokeWidth">
    <path d="M0,0 L15,3.5 L0,7 z" stroke="context-stroke" fill="context-stroke"/>
  </marker>
</defs>
<g class="plotroot xscalable yscalable" id="img-3bf2ce6f-1">
  <g class="guide xlabels" font-size="2.82" font-family="'PT Sans Caption','Helvetica Neue','Helvetica',sans-serif" fill="#6C606B" id="img-3bf2ce6f-2">
    <g transform="translate(21.63,91.33)">
      <g class="primitive">
        <text text-anchor="middle" dy="0.6em">0</text>
      </g>
    </g>
    <g transform="translate(29.76,91.33)">
      <g class="primitive">
        <text text-anchor="middle" dy="0.6em">100</text>
      </g>
    </g>
    <g transform="translate(37.89,91.33)">
      <g class="primitive">
        <text text-anchor="middle" dy="0.6em">200</text>
      </g>
    </g>
    <g transform="translate(46.02,91.33)">
      <g class="primitive">
        <text text-anchor="middle" dy="0.6em">300</text>
      </g>
    </g>
    <g transform="translate(54.14,91.33)">
      <g class="primitive">
        <text text-anchor="middle" dy="0.6em">400</text>
      </g>
    </g>
    <g transform="translate(62.27,91.33)">
      <g class="primitive">
        <text text-anchor="middle" dy="0.6em">500</text>
      </g>
    </g>
    <g transform="translate(70.4,91.33)">
      <g class="primitive">
        <text text-anchor="middle" dy="0.6em">600</text>
      </g>
    </g>
  </g>
  <g class="guide colorkey" id="img-3bf2ce6f-3">
    <g class="color_coding_noncoding_noncoding_noncoding_4-chord" id="img-3bf2ce6f-4">
      <g fill="#4C404B" font-size="2.82" font-family="'PT Sans','Helvetica Neue','Helvetica',sans-serif" id="img-3bf2ce6f-5">
        <g transform="translate(76.21,49.48)" id="img-3bf2ce6f-6">
          <g class="primitive">
            <text dy="0.35em">coding_noncoding_noncoding_noncoding_4-chord</text>
          </g>
        </g>
      </g>
      <g fill-opacity="1" fill="#00BFFF" stroke="#FFFFFF" id="img-3bf2ce6f-7">
        <g transform="translate(74.31,49.48)" id="img-3bf2ce6f-8">
          <path d="M-0.91,-0.91 L 0.91 -0.91 0.91 0.91 -0.91 0.91 z" class="primitive"/>
        </g>
      </g>
    </g>
    <g fill="#362A35" font-size="3.88" font-family="'PT Sans','Helvetica Neue','Helvetica',sans-serif" stroke="#000000" stroke-opacity="0.000" id="img-3bf2ce6f-9">
      <g transform="translate(73.4,45.66)" id="img-3bf2ce6f-10">
        <g class="primitive">
          <text dy="-0em">graphlet</text>
        </g>
      </g>
    </g>
  </g>
  <g clip-path="url(#img-3bf2ce6f-11)">
    <g id="img-3bf2ce6f-12">
      <g pointer-events="visible" stroke-width="0.3" fill="#000000" fill-opacity="0.000" stroke="#000000" stroke-opacity="0.000" class="guide background" id="img-3bf2ce6f-13">
        <g transform="translate(46.02,47.66)" id="img-3bf2ce6f-14">
          <path d="M-26.38,-42.66 L 26.38 -42.66 26.38 42.66 -26.38 42.66 z" class="primitive"/>
        </g>
      </g>
      <g class="guide ygridlines xfixed" stroke-dasharray="0.5,0.5" stroke-width="0.2" stroke="#D0D0E0" id="img-3bf2ce6f-15">
        <g transform="translate(46.02,88.33)" id="img-3bf2ce6f-16">
          <path fill="none" d="M-26.38,0 L 26.38 0" class="primitive"/>
        </g>
        <g transform="translate(46.02,61.22)" id="img-3bf2ce6f-17">
          <path fill="none" d="M-26.38,0 L 26.38 0" class="primitive"/>
        </g>
        <g transform="translate(46.02,34.11)" id="img-3bf2ce6f-18">
          <path fill="none" d="M-26.38,0 L 26.38 0" class="primitive"/>
        </g>
        <g transform="translate(46.02,7)" id="img-3bf2ce6f-19">
          <path fill="none" d="M-26.38,0 L 26.38 0" class="primitive"/>
        </g>
      </g>
      <g class="guide xgridlines yfixed" stroke-dasharray="0.5,0.5" stroke-width="0.2" stroke="#D0D0E0" id="img-3bf2ce6f-20">
        <g transform="translate(21.63,47.66)" id="img-3bf2ce6f-21">
          <path fill="none" d="M0,-42.66 L 0 42.66" class="primitive"/>
        </g>
        <g transform="translate(29.76,47.66)" id="img-3bf2ce6f-22">
          <path fill="none" d="M0,-42.66 L 0 42.66" class="primitive"/>
        </g>
        <g transform="translate(37.89,47.66)" id="img-3bf2ce6f-23">
          <path fill="none" d="M0,-42.66 L 0 42.66" class="primitive"/>
        </g>
        <g transform="translate(46.02,47.66)" id="img-3bf2ce6f-24">
          <path fill="none" d="M0,-42.66 L 0 42.66" class="primitive"/>
        </g>
        <g transform="translate(54.14,47.66)" id="img-3bf2ce6f-25">
          <path fill="none" d="M0,-42.66 L 0 42.66" class="primitive"/>
        </g>
        <g transform="translate(62.27,47.66)" id="img-3bf2ce6f-26">
          <path fill="none" d="M0,-42.66 L 0 42.66" class="primitive"/>
        </g>
        <g transform="translate(70.4,47.66)" id="img-3bf2ce6f-27">
          <path fill="none" d="M0,-42.66 L 0 42.66" class="primitive"/>
        </g>
      </g>
      <g class="plotpanel" id="img-3bf2ce6f-28">
        <metadata>
          <boundingbox value="19.631666666666675mm 5.0mm 52.76968957064284mm 85.32666666666667mm"/>
          <unitbox value="-24.60544675523926 153.68882695302895 649.2108935104785 -157.37765390605787"/>
        </metadata>
        <g shape-rendering="crispEdges" stroke-width="0.3" id="img-3bf2ce6f-29">
          <g stroke="#000000" stroke-opacity="0.000" class="geometry" id="img-3bf2ce6f-30">
            <g fill="#00BFFF" id="img-3bf2ce6f-31">
              <g transform="translate(21.92,52)" id="img-3bf2ce6f-32">
                <path d="M-0.23,-36.33 L 0.23 -36.33 0.23 36.33 -0.23 36.33 z" class="primitive"/>
              </g>
              <g transform="translate(22.32,60.95)" id="img-3bf2ce6f-33">
                <path d="M-0.23,-27.38 L 0.23 -27.38 0.23 27.38 -0.23 27.38 z" class="primitive"/>
              </g>
              <g transform="translate(22.73,59.32)" id="img-3bf2ce6f-34">
                <path d="M-0.23,-29.01 L 0.23 -29.01 0.23 29.01 -0.23 29.01 z" class="primitive"/>
              </g>
              <g transform="translate(23.14,70.16)" id="img-3bf2ce6f-35">
                <path d="M-0.23,-18.16 L 0.23 -18.16 0.23 18.16 -0.23 18.16 z" class="primitive"/>
              </g>
              <g transform="translate(23.54,69.08)" id="img-3bf2ce6f-36">
                <path d="M-0.23,-19.25 L 0.23 -19.25 0.23 19.25 -0.23 19.25 z" class="primitive"/>
              </g>
              <g transform="translate(23.95,72.87)" id="img-3bf2ce6f-37">
                <path d="M-0.23,-15.45 L 0.23 -15.45 0.23 15.45 -0.23 15.45 z" class="primitive"/>
              </g>
              <g transform="translate(24.35,76.67)" id="img-3bf2ce6f-38">
                <path d="M-0.23,-11.66 L 0.23 -11.66 0.23 11.66 -0.23 11.66 z" class="primitive"/>
              </g>
              <g transform="translate(24.76,78.57)" id="img-3bf2ce6f-39">
                <path d="M-0.23,-9.76 L 0.23 -9.76 0.23 9.76 -0.23 9.76 z" class="primitive"/>
              </g>
              <g transform="translate(25.17,78.03)" id="img-3bf2ce6f-40">
                <path d="M-0.23,-10.3 L 0.23 -10.3 0.23 10.3 -0.23 10.3 z" class="primitive"/>
              </g>
              <g transform="translate(25.57,80.47)" id="img-3bf2ce6f-41">
                <path d="M-0.23,-7.86 L 0.23 -7.86 0.23 7.86 -0.23 7.86 z" class="primitive"/>
              </g>
              <g transform="translate(25.98,78.03)" id="img-3bf2ce6f-42">
                <path d="M-0.23,-10.3 L 0.23 -10.3 0.23 10.3 -0.23 10.3 z" class="primitive"/>
              </g>
              <g transform="translate(26.39,82.09)" id="img-3bf2ce6f-43">
                <path d="M-0.23,-6.24 L 0.23 -6.24 0.23 6.24 -0.23 6.24 z" class="primitive"/>
              </g>
              <g transform="translate(26.79,82.36)" id="img-3bf2ce6f-44">
                <path d="M-0.23,-5.96 L 0.23 -5.96 0.23 5.96 -0.23 5.96 z" class="primitive"/>
              </g>
              <g transform="translate(27.2,83.18)" id="img-3bf2ce6f-45">
                <path d="M-0.23,-5.15 L 0.23 -5.15 0.23 5.15 -0.23 5.15 z" class="primitive"/>
              </g>
              <g transform="translate(27.61,84.8)" id="img-3bf2ce6f-46">
                <path d="M-0.23,-3.52 L 0.23 -3.52 0.23 3.52 -0.23 3.52 z" class="primitive"/>
              </g>
              <g transform="translate(28.01,83.18)" id="img-3bf2ce6f-47">
                <path d="M-0.23,-5.15 L 0.23 -5.15 0.23 5.15 -0.23 5.15 z" class="primitive"/>
              </g>
              <g transform="translate(28.42,85.34)" id="img-3bf2ce6f-48">
                <path d="M-0.23,-2.98 L 0.23 -2.98 0.23 2.98 -0.23 2.98 z" class="primitive"/>
              </g>
              <g transform="translate(28.83,86.16)" id="img-3bf2ce6f-49">
                <path d="M-0.23,-2.17 L 0.23 -2.17 0.23 2.17 -0.23 2.17 z" class="primitive"/>
              </g>
              <g transform="translate(29.23,86.7)" id="img-3bf2ce6f-50">
                <path d="M-0.23,-1.63 L 0.23 -1.63 0.23 1.63 -0.23 1.63 z" class="primitive"/>
              </g>
              <g transform="translate(29.64,85.34)" id="img-3bf2ce6f-51">
                <path d="M-0.23,-2.98 L 0.23 -2.98 0.23 2.98 -0.23 2.98 z" class="primitive"/>
              </g>
              <g transform="translate(30.04,86.16)" id="img-3bf2ce6f-52">
                <path d="M-0.23,-2.17 L 0.23 -2.17 0.23 2.17 -0.23 2.17 z" class="primitive"/>
              </g>
              <g transform="translate(30.45,87.24)" id="img-3bf2ce6f-53">
                <path d="M-0.23,-1.08 L 0.23 -1.08 0.23 1.08 -0.23 1.08 z" class="primitive"/>
              </g>
              <g transform="translate(30.86,86.43)" id="img-3bf2ce6f-54">
                <path d="M-0.23,-1.9 L 0.23 -1.9 0.23 1.9 -0.23 1.9 z" class="primitive"/>
              </g>
              <g transform="translate(31.26,86.97)" id="img-3bf2ce6f-55">
                <path d="M-0.23,-1.36 L 0.23 -1.36 0.23 1.36 -0.23 1.36 z" class="primitive"/>
              </g>
              <g transform="translate(31.67,86.97)" id="img-3bf2ce6f-56">
                <path d="M-0.23,-1.36 L 0.23 -1.36 0.23 1.36 -0.23 1.36 z" class="primitive"/>
              </g>
              <g transform="translate(32.08,87.78)" id="img-3bf2ce6f-57">
                <path d="M-0.23,-0.54 L 0.23 -0.54 0.23 0.54 -0.23 0.54 z" class="primitive"/>
              </g>
              <g transform="translate(32.48,86.43)" id="img-3bf2ce6f-58">
                <path d="M-0.23,-1.9 L 0.23 -1.9 0.23 1.9 -0.23 1.9 z" class="primitive"/>
              </g>
              <g transform="translate(32.89,86.97)" id="img-3bf2ce6f-59">
                <path d="M-0.23,-1.36 L 0.23 -1.36 0.23 1.36 -0.23 1.36 z" class="primitive"/>
              </g>
              <g transform="translate(33.3,87.51)" id="img-3bf2ce6f-60">
                <path d="M-0.23,-0.81 L 0.23 -0.81 0.23 0.81 -0.23 0.81 z" class="primitive"/>
              </g>
              <g transform="translate(33.7,86.97)" id="img-3bf2ce6f-61">
                <path d="M-0.23,-1.36 L 0.23 -1.36 0.23 1.36 -0.23 1.36 z" class="primitive"/>
              </g>
              <g transform="translate(34.11,87.24)" id="img-3bf2ce6f-62">
                <path d="M-0.23,-1.08 L 0.23 -1.08 0.23 1.08 -0.23 1.08 z" class="primitive"/>
              </g>
              <g transform="translate(34.51,88.33)" id="img-3bf2ce6f-63">
                <path d="M-0.23,-0 L 0.23 -0 0.23 0 -0.23 0 z" class="primitive"/>
              </g>
              <g transform="translate(34.92,87.78)" id="img-3bf2ce6f-64">
                <path d="M-0.23,-0.54 L 0.23 -0.54 0.23 0.54 -0.23 0.54 z" class="primitive"/>
              </g>
              <g transform="translate(35.33,87.51)" id="img-3bf2ce6f-65">
                <path d="M-0.23,-0.81 L 0.23 -0.81 0.23 0.81 -0.23 0.81 z" class="primitive"/>
              </g>
              <g transform="translate(35.73,87.78)" id="img-3bf2ce6f-66">
                <path d="M-0.23,-0.54 L 0.23 -0.54 0.23 0.54 -0.23 0.54 z" class="primitive"/>
              </g>
              <g transform="translate(36.14,88.06)" id="img-3bf2ce6f-67">
                <path d="M-0.23,-0.27 L 0.23 -0.27 0.23 0.27 -0.23 0.27 z" class="primitive"/>
              </g>
              <g transform="translate(36.55,87.51)" id="img-3bf2ce6f-68">
                <path d="M-0.23,-0.81 L 0.23 -0.81 0.23 0.81 -0.23 0.81 z" class="primitive"/>
              </g>
              <g transform="translate(36.95,87.51)" id="img-3bf2ce6f-69">
                <path d="M-0.23,-0.81 L 0.23 -0.81 0.23 0.81 -0.23 0.81 z" class="primitive"/>
              </g>
              <g transform="translate(37.36,87.78)" id="img-3bf2ce6f-70">
                <path d="M-0.23,-0.54 L 0.23 -0.54 0.23 0.54 -0.23 0.54 z" class="primitive"/>
              </g>
              <g transform="translate(37.77,87.78)" id="img-3bf2ce6f-71">
                <path d="M-0.23,-0.54 L 0.23 -0.54 0.23 0.54 -0.23 0.54 z" class="primitive"/>
              </g>
              <g transform="translate(38.17,87.24)" id="img-3bf2ce6f-72">
                <path d="M-0.23,-1.08 L 0.23 -1.08 0.23 1.08 -0.23 1.08 z" class="primitive"/>
              </g>
              <g transform="translate(38.58,88.33)" id="img-3bf2ce6f-73">
                <path d="M-0.23,-0 L 0.23 -0 0.23 0 -0.23 0 z" class="primitive"/>
              </g>
              <g transform="translate(38.99,87.78)" id="img-3bf2ce6f-74">
                <path d="M-0.23,-0.54 L 0.23 -0.54 0.23 0.54 -0.23 0.54 z" class="primitive"/>
              </g>
              <g transform="translate(39.39,88.06)" id="img-3bf2ce6f-75">
                <path d="M-0.23,-0.27 L 0.23 -0.27 0.23 0.27 -0.23 0.27 z" class="primitive"/>
              </g>
              <g transform="translate(39.8,88.06)" id="img-3bf2ce6f-76">
                <path d="M-0.23,-0.27 L 0.23 -0.27 0.23 0.27 -0.23 0.27 z" class="primitive"/>
              </g>
              <g transform="translate(40.2,88.33)" id="img-3bf2ce6f-77">
                <path d="M-0.23,-0 L 0.23 -0 0.23 0 -0.23 0 z" class="primitive"/>
              </g>
              <g transform="translate(40.61,88.06)" id="img-3bf2ce6f-78">
                <path d="M-0.23,-0.27 L 0.23 -0.27 0.23 0.27 -0.23 0.27 z" class="primitive"/>
              </g>
              <g transform="translate(41.02,87.78)" id="img-3bf2ce6f-79">
                <path d="M-0.23,-0.54 L 0.23 -0.54 0.23 0.54 -0.23 0.54 z" class="primitive"/>
              </g>
              <g transform="translate(41.42,87.51)" id="img-3bf2ce6f-80">
                <path d="M-0.23,-0.81 L 0.23 -0.81 0.23 0.81 -0.23 0.81 z" class="primitive"/>
              </g>
              <g transform="translate(41.83,88.06)" id="img-3bf2ce6f-81">
                <path d="M-0.23,-0.27 L 0.23 -0.27 0.23 0.27 -0.23 0.27 z" class="primitive"/>
              </g>
              <g transform="translate(42.24,87.78)" id="img-3bf2ce6f-82">
                <path d="M-0.23,-0.54 L 0.23 -0.54 0.23 0.54 -0.23 0.54 z" class="primitive"/>
              </g>
              <g transform="translate(42.64,88.06)" id="img-3bf2ce6f-83">
                <path d="M-0.23,-0.27 L 0.23 -0.27 0.23 0.27 -0.23 0.27 z" class="primitive"/>
              </g>
              <g transform="translate(43.05,87.51)" id="img-3bf2ce6f-84">
                <path d="M-0.23,-0.81 L 0.23 -0.81 0.23 0.81 -0.23 0.81 z" class="primitive"/>
              </g>
              <g transform="translate(43.46,88.06)" id="img-3bf2ce6f-85">
                <path d="M-0.23,-0.27 L 0.23 -0.27 0.23 0.27 -0.23 0.27 z" class="primitive"/>
              </g>
              <g transform="translate(43.86,88.33)" id="img-3bf2ce6f-86">
                <path d="M-0.23,-0 L 0.23 -0 0.23 0 -0.23 0 z" class="primitive"/>
              </g>
              <g transform="translate(44.27,87.51)" id="img-3bf2ce6f-87">
                <path d="M-0.23,-0.81 L 0.23 -0.81 0.23 0.81 -0.23 0.81 z" class="primitive"/>
              </g>
              <g transform="translate(44.68,87.78)" id="img-3bf2ce6f-88">
                <path d="M-0.23,-0.54 L 0.23 -0.54 0.23 0.54 -0.23 0.54 z" class="primitive"/>
              </g>
              <g transform="translate(45.08,88.33)" id="img-3bf2ce6f-89">
                <path d="M-0.23,-0 L 0.23 -0 0.23 0 -0.23 0 z" class="primitive"/>
              </g>
              <g transform="translate(45.49,88.33)" id="img-3bf2ce6f-90">
                <path d="M-0.23,-0 L 0.23 -0 0.23 0 -0.23 0 z" class="primitive"/>
              </g>
              <g transform="translate(45.89,88.33)" id="img-3bf2ce6f-91">
                <path d="M-0.23,-0 L 0.23 -0 0.23 0 -0.23 0 z" class="primitive"/>
              </g>
              <g transform="translate(46.3,88.33)" id="img-3bf2ce6f-92">
                <path d="M-0.23,-0 L 0.23 -0 0.23 0 -0.23 0 z" class="primitive"/>
              </g>
              <g transform="translate(46.71,88.33)" id="img-3bf2ce6f-93">
                <path d="M-0.23,-0 L 0.23 -0 0.23 0 -0.23 0 z" class="primitive"/>
              </g>
              <g transform="translate(47.11,88.33)" id="img-3bf2ce6f-94">
                <path d="M-0.23,-0 L 0.23 -0 0.23 0 -0.23 0 z" class="primitive"/>
              </g>
              <g transform="translate(47.52,88.33)" id="img-3bf2ce6f-95">
                <path d="M-0.23,-0 L 0.23 -0 0.23 0 -0.23 0 z" class="primitive"/>
              </g>
              <g transform="translate(47.93,88.06)" id="img-3bf2ce6f-96">
                <path d="M-0.23,-0.27 L 0.23 -0.27 0.23 0.27 -0.23 0.27 z" class="primitive"/>
              </g>
              <g transform="translate(48.33,88.33)" id="img-3bf2ce6f-97">
                <path d="M-0.23,-0 L 0.23 -0 0.23 0 -0.23 0 z" class="primitive"/>
              </g>
              <g transform="translate(48.74,88.33)" id="img-3bf2ce6f-98">
                <path d="M-0.23,-0 L 0.23 -0 0.23 0 -0.23 0 z" class="primitive"/>
              </g>
              <g transform="translate(49.15,88.33)" id="img-3bf2ce6f-99">
                <path d="M-0.23,-0 L 0.23 -0 0.23 0 -0.23 0 z" class="primitive"/>
              </g>
              <g transform="translate(49.55,88.33)" id="img-3bf2ce6f-100">
                <path d="M-0.23,-0 L 0.23 -0 0.23 0 -0.23 0 z" class="primitive"/>
              </g>
              <g transform="translate(49.96,88.06)" id="img-3bf2ce6f-101">
                <path d="M-0.23,-0.27 L 0.23 -0.27 0.23 0.27 -0.23 0.27 z" class="primitive"/>
              </g>
              <g transform="translate(50.37,88.33)" id="img-3bf2ce6f-102">
                <path d="M-0.23,-0 L 0.23 -0 0.23 0 -0.23 0 z" class="primitive"/>
              </g>
              <g transform="translate(50.77,88.33)" id="img-3bf2ce6f-103">
                <path d="M-0.23,-0 L 0.23 -0 0.23 0 -0.23 0 z" class="primitive"/>
              </g>
              <g transform="translate(51.18,88.33)" id="img-3bf2ce6f-104">
                <path d="M-0.23,-0 L 0.23 -0 0.23 0 -0.23 0 z" class="primitive"/>
              </g>
              <g transform="translate(51.58,88.06)" id="img-3bf2ce6f-105">
                <path d="M-0.23,-0.27 L 0.23 -0.27 0.23 0.27 -0.23 0.27 z" class="primitive"/>
              </g>
              <g transform="translate(51.99,88.33)" id="img-3bf2ce6f-106">
                <path d="M-0.23,-0 L 0.23 -0 0.23 0 -0.23 0 z" class="primitive"/>
              </g>
              <g transform="translate(52.4,88.33)" id="img-3bf2ce6f-107">
                <path d="M-0.23,-0 L 0.23 -0 0.23 0 -0.23 0 z" class="primitive"/>
              </g>
              <g transform="translate(52.8,88.33)" id="img-3bf2ce6f-108">
                <path d="M-0.23,-0 L 0.23 -0 0.23 0 -0.23 0 z" class="primitive"/>
              </g>
              <g transform="translate(53.21,88.06)" id="img-3bf2ce6f-109">
                <path d="M-0.23,-0.27 L 0.23 -0.27 0.23 0.27 -0.23 0.27 z" class="primitive"/>
              </g>
              <g transform="translate(53.62,87.78)" id="img-3bf2ce6f-110">
                <path d="M-0.23,-0.54 L 0.23 -0.54 0.23 0.54 -0.23 0.54 z" class="primitive"/>
              </g>
              <g transform="translate(54.02,88.33)" id="img-3bf2ce6f-111">
                <path d="M-0.23,-0 L 0.23 -0 0.23 0 -0.23 0 z" class="primitive"/>
              </g>
              <g transform="translate(54.43,88.33)" id="img-3bf2ce6f-112">
                <path d="M-0.23,-0 L 0.23 -0 0.23 0 -0.23 0 z" class="primitive"/>
              </g>
              <g transform="translate(54.84,88.33)" id="img-3bf2ce6f-113">
                <path d="M-0.23,-0 L 0.23 -0 0.23 0 -0.23 0 z" class="primitive"/>
              </g>
              <g transform="translate(55.24,88.06)" id="img-3bf2ce6f-114">
                <path d="M-0.23,-0.27 L 0.23 -0.27 0.23 0.27 -0.23 0.27 z" class="primitive"/>
              </g>
              <g transform="translate(55.65,88.33)" id="img-3bf2ce6f-115">
                <path d="M-0.23,-0 L 0.23 -0 0.23 0 -0.23 0 z" class="primitive"/>
              </g>
              <g transform="translate(56.05,88.33)" id="img-3bf2ce6f-116">
                <path d="M-0.23,-0 L 0.23 -0 0.23 0 -0.23 0 z" class="primitive"/>
              </g>
              <g transform="translate(56.46,88.33)" id="img-3bf2ce6f-117">
                <path d="M-0.23,-0 L 0.23 -0 0.23 0 -0.23 0 z" class="primitive"/>
              </g>
              <g transform="translate(56.87,88.33)" id="img-3bf2ce6f-118">
                <path d="M-0.23,-0 L 0.23 -0 0.23 0 -0.23 0 z" class="primitive"/>
              </g>
              <g transform="translate(57.27,88.33)" id="img-3bf2ce6f-119">
                <path d="M-0.23,-0 L 0.23 -0 0.23 0 -0.23 0 z" class="primitive"/>
              </g>
              <g transform="translate(57.68,88.33)" id="img-3bf2ce6f-120">
                <path d="M-0.23,-0 L 0.23 -0 0.23 0 -0.23 0 z" class="primitive"/>
              </g>
              <g transform="translate(58.09,88.33)" id="img-3bf2ce6f-121">
                <path d="M-0.23,-0 L 0.23 -0 0.23 0 -0.23 0 z" class="primitive"/>
              </g>
              <g transform="translate(58.49,88.33)" id="img-3bf2ce6f-122">
                <path d="M-0.23,-0 L 0.23 -0 0.23 0 -0.23 0 z" class="primitive"/>
              </g>
              <g transform="translate(58.9,88.33)" id="img-3bf2ce6f-123">
                <path d="M-0.23,-0 L 0.23 -0 0.23 0 -0.23 0 z" class="primitive"/>
              </g>
              <g transform="translate(59.31,88.33)" id="img-3bf2ce6f-124">
                <path d="M-0.23,-0 L 0.23 -0 0.23 0 -0.23 0 z" class="primitive"/>
              </g>
              <g transform="translate(59.71,88.33)" id="img-3bf2ce6f-125">
                <path d="M-0.23,-0 L 0.23 -0 0.23 0 -0.23 0 z" class="primitive"/>
              </g>
              <g transform="translate(60.12,88.33)" id="img-3bf2ce6f-126">
                <path d="M-0.23,-0 L 0.23 -0 0.23 0 -0.23 0 z" class="primitive"/>
              </g>
              <g transform="translate(60.53,88.33)" id="img-3bf2ce6f-127">
                <path d="M-0.23,-0 L 0.23 -0 0.23 0 -0.23 0 z" class="primitive"/>
              </g>
              <g transform="translate(60.93,88.33)" id="img-3bf2ce6f-128">
                <path d="M-0.23,-0 L 0.23 -0 0.23 0 -0.23 0 z" class="primitive"/>
              </g>
              <g transform="translate(61.34,88.33)" id="img-3bf2ce6f-129">
                <path d="M-0.23,-0 L 0.23 -0 0.23 0 -0.23 0 z" class="primitive"/>
              </g>
              <g transform="translate(61.74,88.33)" id="img-3bf2ce6f-130">
                <path d="M-0.23,-0 L 0.23 -0 0.23 0 -0.23 0 z" class="primitive"/>
              </g>
              <g transform="translate(62.15,88.33)" id="img-3bf2ce6f-131">
                <path d="M-0.23,-0 L 0.23 -0 0.23 0 -0.23 0 z" class="primitive"/>
              </g>
            </g>
          </g>
        </g>
      </g>
    </g>
  </g>
  <g class="guide ylabels" font-size="2.82" font-family="'PT Sans Caption','Helvetica Neue','Helvetica',sans-serif" fill="#6C606B" id="img-3bf2ce6f-132">
    <g transform="translate(18.63,88.33)" id="img-3bf2ce6f-133">
      <g class="primitive">
        <text text-anchor="end" dy="0.35em">0</text>
      </g>
    </g>
    <g transform="translate(18.63,61.22)" id="img-3bf2ce6f-134">
      <g class="primitive">
        <text text-anchor="end" dy="0.35em">50</text>
      </g>
    </g>
    <g transform="translate(18.63,34.11)" id="img-3bf2ce6f-135">
      <g class="primitive">
        <text text-anchor="end" dy="0.35em">100</text>
      </g>
    </g>
    <g transform="translate(18.63,7)" id="img-3bf2ce6f-136">
      <g class="primitive">
        <text text-anchor="end" dy="0.35em">150</text>
      </g>
    </g>
  </g>
  <g font-size="3.88" font-family="'PT Sans','Helvetica Neue','Helvetica',sans-serif" fill="#564A55" stroke="#000000" stroke-opacity="0.000" id="img-3bf2ce6f-137">
    <g transform="translate(8.81,45.66)" id="img-3bf2ce6f-138">
      <g class="primitive">
        <text text-anchor="middle" dy="0.35em" transform="rotate(-90,0, 2)">frequency</text>
      </g>
    </g>
  </g>
</g>
<defs>
  <clipPath id="img-3bf2ce6f-11">
    <path d="M19.63,5 L 72.4 5 72.4 90.33 19.63 90.33" />
  </clipPath>
</defs>
</svg>
