<?xml version="1.0" encoding="UTF-8"?>
<svg xmlns="http://www.w3.org/2000/svg"
     xmlns:xlink="http://www.w3.org/1999/xlink"
     xmlns:gadfly="http://www.gadflyjl.org/ns"
     version="1.2"
     width="141.42mm" height="100mm" viewBox="0 0 141.42 100"
     stroke="none"
     fill="#000000"
     stroke-width="0.3"
     font-size="3.88"
>
<defs>
  <marker id="arrow" markerWidth="15" markerHeight="7" refX="5" refY="3.5" orient="auto" markerUnits="strokeWidth">
    <path d="M0,0 L15,3.5 L0,7 z" stroke="context-stroke" fill="context-stroke"/>
  </marker>
</defs>
<g class="plotroot xscalable yscalable" id="img-a6328983-1">
  <g class="guide xlabels" font-size="2.82" font-family="'PT Sans Caption','Helvetica Neue','Helvetica',sans-serif" fill="#6C606B" id="img-a6328983-2">
    <g transform="translate(19.96,91.33)">
      <g class="primitive">
        <text text-anchor="middle" dy="0.6em">2.5×10⁶</text>
      </g>
    </g>
    <g transform="translate(42.32,91.33)">
      <g class="primitive">
        <text text-anchor="middle" dy="0.6em">3.0×10⁶</text>
      </g>
    </g>
    <g transform="translate(64.68,91.33)">
      <g class="primitive">
        <text text-anchor="middle" dy="0.6em">3.5×10⁶</text>
      </g>
    </g>
    <g transform="translate(87.05,91.33)">
      <g class="primitive">
        <text text-anchor="middle" dy="0.6em">4.0×10⁶</text>
      </g>
    </g>
  </g>
  <g class="guide colorkey" id="img-a6328983-3">
    <g class="color_coding_coding_coding_coding_4-tail" id="img-a6328983-4">
      <g fill="#4C404B" font-size="2.82" font-family="'PT Sans','Helvetica Neue','Helvetica',sans-serif" id="img-a6328983-5">
        <g transform="translate(92.86,49.48)" id="img-a6328983-6">
          <g class="primitive">
            <text dy="0.35em">coding_coding_coding_coding_4-tail</text>
          </g>
        </g>
      </g>
      <g fill-opacity="1" fill="#00BFFF" stroke="#FFFFFF" id="img-a6328983-7">
        <g transform="translate(90.95,49.48)" id="img-a6328983-8">
          <path d="M-0.91,-0.91 L 0.91 -0.91 0.91 0.91 -0.91 0.91 z" class="primitive"/>
        </g>
      </g>
    </g>
    <g fill="#362A35" font-size="3.88" font-family="'PT Sans','Helvetica Neue','Helvetica',sans-serif" stroke="#000000" stroke-opacity="0.000" id="img-a6328983-9">
      <g transform="translate(90.05,45.66)" id="img-a6328983-10">
        <g class="primitive">
          <text dy="-0em">graphlet</text>
        </g>
      </g>
    </g>
  </g>
  <g clip-path="url(#img-a6328983-11)">
    <g id="img-a6328983-12">
      <g pointer-events="visible" stroke-width="0.3" fill="#000000" fill-opacity="0.000" stroke="#000000" stroke-opacity="0.000" class="guide background" id="img-a6328983-13">
        <g transform="translate(53.5,47.66)" id="img-a6328983-14">
          <path d="M-35.54,-42.66 L 35.54 -42.66 35.54 42.66 -35.54 42.66 z" class="primitive"/>
        </g>
      </g>
      <g class="guide ygridlines xfixed" stroke-dasharray="0.5,0.5" stroke-width="0.2" stroke="#D0D0E0" id="img-a6328983-15">
        <g transform="translate(53.5,88.33)" id="img-a6328983-16">
          <path fill="none" d="M-35.54,0 L 35.54 0" class="primitive"/>
        </g>
        <g transform="translate(53.5,68)" id="img-a6328983-17">
          <path fill="none" d="M-35.54,0 L 35.54 0" class="primitive"/>
        </g>
        <g transform="translate(53.5,47.66)" id="img-a6328983-18">
          <path fill="none" d="M-35.54,0 L 35.54 0" class="primitive"/>
        </g>
        <g transform="translate(53.5,27.33)" id="img-a6328983-19">
          <path fill="none" d="M-35.54,0 L 35.54 0" class="primitive"/>
        </g>
        <g transform="translate(53.5,7)" id="img-a6328983-20">
          <path fill="none" d="M-35.54,0 L 35.54 0" class="primitive"/>
        </g>
      </g>
      <g class="guide xgridlines yfixed" stroke-dasharray="0.5,0.5" stroke-width="0.2" stroke="#D0D0E0" id="img-a6328983-21">
        <g transform="translate(19.96,47.66)" id="img-a6328983-22">
          <path fill="none" d="M0,-42.66 L 0 42.66" class="primitive"/>
        </g>
        <g transform="translate(42.32,47.66)" id="img-a6328983-23">
          <path fill="none" d="M0,-42.66 L 0 42.66" class="primitive"/>
        </g>
        <g transform="translate(64.68,47.66)" id="img-a6328983-24">
          <path fill="none" d="M0,-42.66 L 0 42.66" class="primitive"/>
        </g>
        <g transform="translate(87.05,47.66)" id="img-a6328983-25">
          <path fill="none" d="M0,-42.66 L 0 42.66" class="primitive"/>
        </g>
      </g>
      <g class="plotpanel" id="img-a6328983-26">
        <metadata>
          <boundingbox value="17.95833333333333mm 5.0mm 71.08968957064285mm 85.32666666666667mm"/>
          <unitbox value="2.455283740032198e6 40.98368718747438 1.589432519935604e6 -41.96737437494876"/>
        </metadata>
        <g shape-rendering="crispEdges" stroke-width="0.3" id="img-a6328983-27">
          <g stroke="#000000" stroke-opacity="0.000" class="geometry" id="img-a6328983-28">
            <g fill="#00BFFF" id="img-a6328983-29">
              <g transform="translate(26.11,87.31)" id="img-a6328983-30">
                <path d="M-0.26,-1.02 L 0.26 -1.02 0.26 1.02 -0.26 1.02 z" class="primitive"/>
              </g>
              <g transform="translate(26.59,88.33)" id="img-a6328983-31">
                <path d="M-0.26,-0 L 0.26 -0 0.26 0 -0.26 0 z" class="primitive"/>
              </g>
              <g transform="translate(27.07,87.31)" id="img-a6328983-32">
                <path d="M-0.26,-1.02 L 0.26 -1.02 0.26 1.02 -0.26 1.02 z" class="primitive"/>
              </g>
              <g transform="translate(27.55,87.31)" id="img-a6328983-33">
                <path d="M-0.26,-1.02 L 0.26 -1.02 0.26 1.02 -0.26 1.02 z" class="primitive"/>
              </g>
              <g transform="translate(28.03,86.29)" id="img-a6328983-34">
                <path d="M-0.26,-2.03 L 0.26 -2.03 0.26 2.03 -0.26 2.03 z" class="primitive"/>
              </g>
              <g transform="translate(28.51,86.29)" id="img-a6328983-35">
                <path d="M-0.26,-2.03 L 0.26 -2.03 0.26 2.03 -0.26 2.03 z" class="primitive"/>
              </g>
              <g transform="translate(28.99,87.31)" id="img-a6328983-36">
                <path d="M-0.26,-1.02 L 0.26 -1.02 0.26 1.02 -0.26 1.02 z" class="primitive"/>
              </g>
              <g transform="translate(29.47,88.33)" id="img-a6328983-37">
                <path d="M-0.26,-0 L 0.26 -0 0.26 0 -0.26 0 z" class="primitive"/>
              </g>
              <g transform="translate(29.94,87.31)" id="img-a6328983-38">
                <path d="M-0.26,-1.02 L 0.26 -1.02 0.26 1.02 -0.26 1.02 z" class="primitive"/>
              </g>
              <g transform="translate(30.42,86.29)" id="img-a6328983-39">
                <path d="M-0.26,-2.03 L 0.26 -2.03 0.26 2.03 -0.26 2.03 z" class="primitive"/>
              </g>
              <g transform="translate(30.9,87.31)" id="img-a6328983-40">
                <path d="M-0.26,-1.02 L 0.26 -1.02 0.26 1.02 -0.26 1.02 z" class="primitive"/>
              </g>
              <g transform="translate(31.38,88.33)" id="img-a6328983-41">
                <path d="M-0.26,-0 L 0.26 -0 0.26 0 -0.26 0 z" class="primitive"/>
              </g>
              <g transform="translate(31.86,81.21)" id="img-a6328983-42">
                <path d="M-0.26,-7.12 L 0.26 -7.12 0.26 7.12 -0.26 7.12 z" class="primitive"/>
              </g>
              <g transform="translate(32.34,85.28)" id="img-a6328983-43">
                <path d="M-0.26,-3.05 L 0.26 -3.05 0.26 3.05 -0.26 3.05 z" class="primitive"/>
              </g>
              <g transform="translate(32.82,84.26)" id="img-a6328983-44">
                <path d="M-0.26,-4.07 L 0.26 -4.07 0.26 4.07 -0.26 4.07 z" class="primitive"/>
              </g>
              <g transform="translate(33.3,78.16)" id="img-a6328983-45">
                <path d="M-0.26,-10.17 L 0.26 -10.17 0.26 10.17 -0.26 10.17 z" class="primitive"/>
              </g>
              <g transform="translate(33.78,80.19)" id="img-a6328983-46">
                <path d="M-0.26,-8.13 L 0.26 -8.13 0.26 8.13 -0.26 8.13 z" class="primitive"/>
              </g>
              <g transform="translate(34.26,83.24)" id="img-a6328983-47">
                <path d="M-0.26,-5.08 L 0.26 -5.08 0.26 5.08 -0.26 5.08 z" class="primitive"/>
              </g>
              <g transform="translate(34.74,77.14)" id="img-a6328983-48">
                <path d="M-0.26,-11.18 L 0.26 -11.18 0.26 11.18 -0.26 11.18 z" class="primitive"/>
              </g>
              <g transform="translate(35.22,77.14)" id="img-a6328983-49">
                <path d="M-0.26,-11.18 L 0.26 -11.18 0.26 11.18 -0.26 11.18 z" class="primitive"/>
              </g>
              <g transform="translate(35.7,76.13)" id="img-a6328983-50">
                <path d="M-0.26,-12.2 L 0.26 -12.2 0.26 12.2 -0.26 12.2 z" class="primitive"/>
              </g>
              <g transform="translate(36.17,77.14)" id="img-a6328983-51">
                <path d="M-0.26,-11.18 L 0.26 -11.18 0.26 11.18 -0.26 11.18 z" class="primitive"/>
              </g>
              <g transform="translate(36.65,82.23)" id="img-a6328983-52">
                <path d="M-0.26,-6.1 L 0.26 -6.1 0.26 6.1 -0.26 6.1 z" class="primitive"/>
              </g>
              <g transform="translate(37.13,73.08)" id="img-a6328983-53">
                <path d="M-0.26,-15.25 L 0.26 -15.25 0.26 15.25 -0.26 15.25 z" class="primitive"/>
              </g>
              <g transform="translate(37.61,71.04)" id="img-a6328983-54">
                <path d="M-0.26,-17.28 L 0.26 -17.28 0.26 17.28 -0.26 17.28 z" class="primitive"/>
              </g>
              <g transform="translate(38.09,64.95)" id="img-a6328983-55">
                <path d="M-0.26,-23.38 L 0.26 -23.38 0.26 23.38 -0.26 23.38 z" class="primitive"/>
              </g>
              <g transform="translate(38.57,60.88)" id="img-a6328983-56">
                <path d="M-0.26,-27.45 L 0.26 -27.45 0.26 27.45 -0.26 27.45 z" class="primitive"/>
              </g>
              <g transform="translate(39.05,69.01)" id="img-a6328983-57">
                <path d="M-0.26,-19.32 L 0.26 -19.32 0.26 19.32 -0.26 19.32 z" class="primitive"/>
              </g>
              <g transform="translate(39.53,60.88)" id="img-a6328983-58">
                <path d="M-0.26,-27.45 L 0.26 -27.45 0.26 27.45 -0.26 27.45 z" class="primitive"/>
              </g>
              <g transform="translate(40.01,70.03)" id="img-a6328983-59">
                <path d="M-0.26,-18.3 L 0.26 -18.3 0.26 18.3 -0.26 18.3 z" class="primitive"/>
              </g>
              <g transform="translate(40.49,63.93)" id="img-a6328983-60">
                <path d="M-0.26,-24.4 L 0.26 -24.4 0.26 24.4 -0.26 24.4 z" class="primitive"/>
              </g>
              <g transform="translate(40.97,64.95)" id="img-a6328983-61">
                <path d="M-0.26,-23.38 L 0.26 -23.38 0.26 23.38 -0.26 23.38 z" class="primitive"/>
              </g>
              <g transform="translate(41.45,57.83)" id="img-a6328983-62">
                <path d="M-0.26,-30.5 L 0.26 -30.5 0.26 30.5 -0.26 30.5 z" class="primitive"/>
              </g>
              <g transform="translate(41.93,53.76)" id="img-a6328983-63">
                <path d="M-0.26,-34.56 L 0.26 -34.56 0.26 34.56 -0.26 34.56 z" class="primitive"/>
              </g>
              <g transform="translate(42.41,54.78)" id="img-a6328983-64">
                <path d="M-0.26,-33.55 L 0.26 -33.55 0.26 33.55 -0.26 33.55 z" class="primitive"/>
              </g>
              <g transform="translate(42.88,66.98)" id="img-a6328983-65">
                <path d="M-0.26,-21.35 L 0.26 -21.35 0.26 21.35 -0.26 21.35 z" class="primitive"/>
              </g>
              <g transform="translate(43.36,57.83)" id="img-a6328983-66">
                <path d="M-0.26,-30.5 L 0.26 -30.5 0.26 30.5 -0.26 30.5 z" class="primitive"/>
              </g>
              <g transform="translate(43.84,57.83)" id="img-a6328983-67">
                <path d="M-0.26,-30.5 L 0.26 -30.5 0.26 30.5 -0.26 30.5 z" class="primitive"/>
              </g>
              <g transform="translate(44.32,54.78)" id="img-a6328983-68">
                <path d="M-0.26,-33.55 L 0.26 -33.55 0.26 33.55 -0.26 33.55 z" class="primitive"/>
              </g>
              <g transform="translate(44.8,55.8)" id="img-a6328983-69">
                <path d="M-0.26,-32.53 L 0.26 -32.53 0.26 32.53 -0.26 32.53 z" class="primitive"/>
              </g>
              <g transform="translate(45.28,62.91)" id="img-a6328983-70">
                <path d="M-0.26,-25.41 L 0.26 -25.41 0.26 25.41 -0.26 25.41 z" class="primitive"/>
              </g>
              <g transform="translate(45.76,62.91)" id="img-a6328983-71">
                <path d="M-0.26,-25.41 L 0.26 -25.41 0.26 25.41 -0.26 25.41 z" class="primitive"/>
              </g>
              <g transform="translate(46.24,61.9)" id="img-a6328983-72">
                <path d="M-0.26,-26.43 L 0.26 -26.43 0.26 26.43 -0.26 26.43 z" class="primitive"/>
              </g>
              <g transform="translate(46.72,63.93)" id="img-a6328983-73">
                <path d="M-0.26,-24.4 L 0.26 -24.4 0.26 24.4 -0.26 24.4 z" class="primitive"/>
              </g>
              <g transform="translate(47.2,60.88)" id="img-a6328983-74">
                <path d="M-0.26,-27.45 L 0.26 -27.45 0.26 27.45 -0.26 27.45 z" class="primitive"/>
              </g>
              <g transform="translate(47.68,63.93)" id="img-a6328983-75">
                <path d="M-0.26,-24.4 L 0.26 -24.4 0.26 24.4 -0.26 24.4 z" class="primitive"/>
              </g>
              <g transform="translate(48.16,62.91)" id="img-a6328983-76">
                <path d="M-0.26,-25.41 L 0.26 -25.41 0.26 25.41 -0.26 25.41 z" class="primitive"/>
              </g>
              <g transform="translate(48.64,63.93)" id="img-a6328983-77">
                <path d="M-0.26,-24.4 L 0.26 -24.4 0.26 24.4 -0.26 24.4 z" class="primitive"/>
              </g>
              <g transform="translate(49.11,66.98)" id="img-a6328983-78">
                <path d="M-0.26,-21.35 L 0.26 -21.35 0.26 21.35 -0.26 21.35 z" class="primitive"/>
              </g>
              <g transform="translate(49.59,66.98)" id="img-a6328983-79">
                <path d="M-0.26,-21.35 L 0.26 -21.35 0.26 21.35 -0.26 21.35 z" class="primitive"/>
              </g>
              <g transform="translate(50.07,66.98)" id="img-a6328983-80">
                <path d="M-0.26,-21.35 L 0.26 -21.35 0.26 21.35 -0.26 21.35 z" class="primitive"/>
              </g>
              <g transform="translate(50.55,70.03)" id="img-a6328983-81">
                <path d="M-0.26,-18.3 L 0.26 -18.3 0.26 18.3 -0.26 18.3 z" class="primitive"/>
              </g>
              <g transform="translate(51.03,63.93)" id="img-a6328983-82">
                <path d="M-0.26,-24.4 L 0.26 -24.4 0.26 24.4 -0.26 24.4 z" class="primitive"/>
              </g>
              <g transform="translate(51.51,73.08)" id="img-a6328983-83">
                <path d="M-0.26,-15.25 L 0.26 -15.25 0.26 15.25 -0.26 15.25 z" class="primitive"/>
              </g>
              <g transform="translate(51.99,75.11)" id="img-a6328983-84">
                <path d="M-0.26,-13.22 L 0.26 -13.22 0.26 13.22 -0.26 13.22 z" class="primitive"/>
              </g>
              <g transform="translate(52.47,65.96)" id="img-a6328983-85">
                <path d="M-0.26,-22.36 L 0.26 -22.36 0.26 22.36 -0.26 22.36 z" class="primitive"/>
              </g>
              <g transform="translate(52.95,76.13)" id="img-a6328983-86">
                <path d="M-0.26,-12.2 L 0.26 -12.2 0.26 12.2 -0.26 12.2 z" class="primitive"/>
              </g>
              <g transform="translate(53.43,84.26)" id="img-a6328983-87">
                <path d="M-0.26,-4.07 L 0.26 -4.07 0.26 4.07 -0.26 4.07 z" class="primitive"/>
              </g>
              <g transform="translate(53.91,76.13)" id="img-a6328983-88">
                <path d="M-0.26,-12.2 L 0.26 -12.2 0.26 12.2 -0.26 12.2 z" class="primitive"/>
              </g>
              <g transform="translate(54.39,77.14)" id="img-a6328983-89">
                <path d="M-0.26,-11.18 L 0.26 -11.18 0.26 11.18 -0.26 11.18 z" class="primitive"/>
              </g>
              <g transform="translate(54.87,81.21)" id="img-a6328983-90">
                <path d="M-0.26,-7.12 L 0.26 -7.12 0.26 7.12 -0.26 7.12 z" class="primitive"/>
              </g>
              <g transform="translate(55.35,80.19)" id="img-a6328983-91">
                <path d="M-0.26,-8.13 L 0.26 -8.13 0.26 8.13 -0.26 8.13 z" class="primitive"/>
              </g>
              <g transform="translate(55.82,79.18)" id="img-a6328983-92">
                <path d="M-0.26,-9.15 L 0.26 -9.15 0.26 9.15 -0.26 9.15 z" class="primitive"/>
              </g>
              <g transform="translate(56.3,81.21)" id="img-a6328983-93">
                <path d="M-0.26,-7.12 L 0.26 -7.12 0.26 7.12 -0.26 7.12 z" class="primitive"/>
              </g>
              <g transform="translate(56.78,82.23)" id="img-a6328983-94">
                <path d="M-0.26,-6.1 L 0.26 -6.1 0.26 6.1 -0.26 6.1 z" class="primitive"/>
              </g>
              <g transform="translate(57.26,86.29)" id="img-a6328983-95">
                <path d="M-0.26,-2.03 L 0.26 -2.03 0.26 2.03 -0.26 2.03 z" class="primitive"/>
              </g>
              <g transform="translate(57.74,83.24)" id="img-a6328983-96">
                <path d="M-0.26,-5.08 L 0.26 -5.08 0.26 5.08 -0.26 5.08 z" class="primitive"/>
              </g>
              <g transform="translate(58.22,86.29)" id="img-a6328983-97">
                <path d="M-0.26,-2.03 L 0.26 -2.03 0.26 2.03 -0.26 2.03 z" class="primitive"/>
              </g>
              <g transform="translate(58.7,85.28)" id="img-a6328983-98">
                <path d="M-0.26,-3.05 L 0.26 -3.05 0.26 3.05 -0.26 3.05 z" class="primitive"/>
              </g>
              <g transform="translate(59.18,83.24)" id="img-a6328983-99">
                <path d="M-0.26,-5.08 L 0.26 -5.08 0.26 5.08 -0.26 5.08 z" class="primitive"/>
              </g>
              <g transform="translate(59.66,82.23)" id="img-a6328983-100">
                <path d="M-0.26,-6.1 L 0.26 -6.1 0.26 6.1 -0.26 6.1 z" class="primitive"/>
              </g>
              <g transform="translate(60.14,84.26)" id="img-a6328983-101">
                <path d="M-0.26,-4.07 L 0.26 -4.07 0.26 4.07 -0.26 4.07 z" class="primitive"/>
              </g>
              <g transform="translate(60.62,88.33)" id="img-a6328983-102">
                <path d="M-0.26,-0 L 0.26 -0 0.26 0 -0.26 0 z" class="primitive"/>
              </g>
              <g transform="translate(61.1,87.31)" id="img-a6328983-103">
                <path d="M-0.26,-1.02 L 0.26 -1.02 0.26 1.02 -0.26 1.02 z" class="primitive"/>
              </g>
              <g transform="translate(61.58,88.33)" id="img-a6328983-104">
                <path d="M-0.26,-0 L 0.26 -0 0.26 0 -0.26 0 z" class="primitive"/>
              </g>
              <g transform="translate(62.05,88.33)" id="img-a6328983-105">
                <path d="M-0.26,-0 L 0.26 -0 0.26 0 -0.26 0 z" class="primitive"/>
              </g>
              <g transform="translate(62.53,88.33)" id="img-a6328983-106">
                <path d="M-0.26,-0 L 0.26 -0 0.26 0 -0.26 0 z" class="primitive"/>
              </g>
              <g transform="translate(63.01,88.33)" id="img-a6328983-107">
                <path d="M-0.26,-0 L 0.26 -0 0.26 0 -0.26 0 z" class="primitive"/>
              </g>
              <g transform="translate(63.49,88.33)" id="img-a6328983-108">
                <path d="M-0.26,-0 L 0.26 -0 0.26 0 -0.26 0 z" class="primitive"/>
              </g>
              <g transform="translate(63.97,86.29)" id="img-a6328983-109">
                <path d="M-0.26,-2.03 L 0.26 -2.03 0.26 2.03 -0.26 2.03 z" class="primitive"/>
              </g>
              <g transform="translate(64.45,88.33)" id="img-a6328983-110">
                <path d="M-0.26,-0 L 0.26 -0 0.26 0 -0.26 0 z" class="primitive"/>
              </g>
              <g transform="translate(64.93,88.33)" id="img-a6328983-111">
                <path d="M-0.26,-0 L 0.26 -0 0.26 0 -0.26 0 z" class="primitive"/>
              </g>
              <g transform="translate(65.41,86.29)" id="img-a6328983-112">
                <path d="M-0.26,-2.03 L 0.26 -2.03 0.26 2.03 -0.26 2.03 z" class="primitive"/>
              </g>
              <g transform="translate(65.89,88.33)" id="img-a6328983-113">
                <path d="M-0.26,-0 L 0.26 -0 0.26 0 -0.26 0 z" class="primitive"/>
              </g>
              <g transform="translate(66.37,88.33)" id="img-a6328983-114">
                <path d="M-0.26,-0 L 0.26 -0 0.26 0 -0.26 0 z" class="primitive"/>
              </g>
              <g transform="translate(66.85,88.33)" id="img-a6328983-115">
                <path d="M-0.26,-0 L 0.26 -0 0.26 0 -0.26 0 z" class="primitive"/>
              </g>
              <g transform="translate(67.33,88.33)" id="img-a6328983-116">
                <path d="M-0.26,-0 L 0.26 -0 0.26 0 -0.26 0 z" class="primitive"/>
              </g>
              <g transform="translate(67.81,88.33)" id="img-a6328983-117">
                <path d="M-0.26,-0 L 0.26 -0 0.26 0 -0.26 0 z" class="primitive"/>
              </g>
              <g transform="translate(68.29,88.33)" id="img-a6328983-118">
                <path d="M-0.26,-0 L 0.26 -0 0.26 0 -0.26 0 z" class="primitive"/>
              </g>
              <g transform="translate(68.76,88.33)" id="img-a6328983-119">
                <path d="M-0.26,-0 L 0.26 -0 0.26 0 -0.26 0 z" class="primitive"/>
              </g>
              <g transform="translate(69.24,88.33)" id="img-a6328983-120">
                <path d="M-0.26,-0 L 0.26 -0 0.26 0 -0.26 0 z" class="primitive"/>
              </g>
              <g transform="translate(69.72,88.33)" id="img-a6328983-121">
                <path d="M-0.26,-0 L 0.26 -0 0.26 0 -0.26 0 z" class="primitive"/>
              </g>
              <g transform="translate(70.2,88.33)" id="img-a6328983-122">
                <path d="M-0.26,-0 L 0.26 -0 0.26 0 -0.26 0 z" class="primitive"/>
              </g>
              <g transform="translate(70.68,88.33)" id="img-a6328983-123">
                <path d="M-0.26,-0 L 0.26 -0 0.26 0 -0.26 0 z" class="primitive"/>
              </g>
              <g transform="translate(71.16,88.33)" id="img-a6328983-124">
                <path d="M-0.26,-0 L 0.26 -0 0.26 0 -0.26 0 z" class="primitive"/>
              </g>
              <g transform="translate(71.64,88.33)" id="img-a6328983-125">
                <path d="M-0.26,-0 L 0.26 -0 0.26 0 -0.26 0 z" class="primitive"/>
              </g>
              <g transform="translate(72.12,88.33)" id="img-a6328983-126">
                <path d="M-0.26,-0 L 0.26 -0 0.26 0 -0.26 0 z" class="primitive"/>
              </g>
              <g transform="translate(72.6,88.33)" id="img-a6328983-127">
                <path d="M-0.26,-0 L 0.26 -0 0.26 0 -0.26 0 z" class="primitive"/>
              </g>
              <g transform="translate(73.08,88.33)" id="img-a6328983-128">
                <path d="M-0.26,-0 L 0.26 -0 0.26 0 -0.26 0 z" class="primitive"/>
              </g>
              <g transform="translate(73.56,87.31)" id="img-a6328983-129">
                <path d="M-0.26,-1.02 L 0.26 -1.02 0.26 1.02 -0.26 1.02 z" class="primitive"/>
              </g>
            </g>
          </g>
        </g>
      </g>
    </g>
  </g>
  <g class="guide ylabels" font-size="2.82" font-family="'PT Sans Caption','Helvetica Neue','Helvetica',sans-serif" fill="#6C606B" id="img-a6328983-130">
    <g transform="translate(16.96,88.33)" id="img-a6328983-131">
      <g class="primitive">
        <text text-anchor="end" dy="0.35em">0</text>
      </g>
    </g>
    <g transform="translate(16.96,68)" id="img-a6328983-132">
      <g class="primitive">
        <text text-anchor="end" dy="0.35em">10</text>
      </g>
    </g>
    <g transform="translate(16.96,47.66)" id="img-a6328983-133">
      <g class="primitive">
        <text text-anchor="end" dy="0.35em">20</text>
      </g>
    </g>
    <g transform="translate(16.96,27.33)" id="img-a6328983-134">
      <g class="primitive">
        <text text-anchor="end" dy="0.35em">30</text>
      </g>
    </g>
    <g transform="translate(16.96,7)" id="img-a6328983-135">
      <g class="primitive">
        <text text-anchor="end" dy="0.35em">40</text>
      </g>
    </g>
  </g>
  <g font-size="3.88" font-family="'PT Sans','Helvetica Neue','Helvetica',sans-serif" fill="#564A55" stroke="#000000" stroke-opacity="0.000" id="img-a6328983-136">
    <g transform="translate(8.81,45.66)" id="img-a6328983-137">
      <g class="primitive">
        <text text-anchor="middle" dy="0.35em" transform="rotate(-90,0, 2)">frequency</text>
      </g>
    </g>
  </g>
</g>
<defs>
  <clipPath id="img-a6328983-11">
    <path d="M17.96,5 L 89.05 5 89.05 90.33 17.96 90.33" />
  </clipPath>
</defs>
</svg>
