<?xml version="1.0" encoding="UTF-8"?>
<svg xmlns="http://www.w3.org/2000/svg"
     xmlns:xlink="http://www.w3.org/1999/xlink"
     xmlns:gadfly="http://www.gadflyjl.org/ns"
     version="1.2"
     width="140mm" height="80mm" viewBox="0 0 140 80"
     stroke="none"
     fill="#000000"
     stroke-width="0.3"
     font-size="3.88"
>
<defs>
  <marker id="arrow" markerWidth="15" markerHeight="7" refX="5" refY="3.5" orient="auto" markerUnits="strokeWidth">
    <path d="M0,0 L15,3.5 L0,7 z" stroke="context-stroke" fill="context-stroke"/>
  </marker>
</defs>
<g class="plotroot xscalable yscalable" id="img-da65af45-1">
  <g class="guide xlabels" font-size="2.82" font-family="'PT Sans Caption','Helvetica Neue','Helvetica',sans-serif" fill="#6C606B" id="img-da65af45-2">
    <g transform="translate(19.96,71.33)">
      <g class="primitive">
        <text text-anchor="middle" dy="0.6em">9.2</text>
      </g>
    </g>
    <g transform="translate(29.01,71.33)">
      <g class="primitive">
        <text text-anchor="middle" dy="0.6em">9.3</text>
      </g>
    </g>
    <g transform="translate(38.06,71.33)">
      <g class="primitive">
        <text text-anchor="middle" dy="0.6em">9.4</text>
      </g>
    </g>
    <g transform="translate(47.11,71.33)">
      <g class="primitive">
        <text text-anchor="middle" dy="0.6em">9.5</text>
      </g>
    </g>
    <g transform="translate(56.16,71.33)">
      <g class="primitive">
        <text text-anchor="middle" dy="0.6em">9.6</text>
      </g>
    </g>
    <g transform="translate(65.21,71.33)">
      <g class="primitive">
        <text text-anchor="middle" dy="0.6em">9.7</text>
      </g>
    </g>
    <g transform="translate(74.26,71.33)">
      <g class="primitive">
        <text text-anchor="middle" dy="0.6em">9.8</text>
      </g>
    </g>
  </g>
  <g class="guide colorkey" id="img-da65af45-3">
    <g class="color_coding_coding_noncoding_noncoding_4-cycle" id="img-da65af45-4">
      <g fill="#4C404B" font-size="2.82" font-family="'PT Sans','Helvetica Neue','Helvetica',sans-serif" id="img-da65af45-5">
        <g transform="translate(80.07,39.48)" id="img-da65af45-6">
          <g class="primitive">
            <text dy="0.35em">coding_coding_noncoding_noncoding_4-cycle</text>
          </g>
        </g>
      </g>
      <g fill-opacity="1" fill="#00BFFF" stroke="#FFFFFF" id="img-da65af45-7">
        <g transform="translate(78.17,39.48)" id="img-da65af45-8">
          <path d="M-0.91,-0.91 L 0.91 -0.91 0.91 0.91 -0.91 0.91 z" class="primitive"/>
        </g>
      </g>
    </g>
    <g fill="#362A35" font-size="3.88" font-family="'PT Sans','Helvetica Neue','Helvetica',sans-serif" stroke="#000000" stroke-opacity="0.000" id="img-da65af45-9">
      <g transform="translate(77.26,35.66)" id="img-da65af45-10">
        <g class="primitive">
          <text dy="-0em">graphlet</text>
        </g>
      </g>
    </g>
  </g>
  <g clip-path="url(#img-da65af45-11)">
    <g id="img-da65af45-12">
      <g pointer-events="visible" stroke-width="0.3" fill="#000000" fill-opacity="0.000" stroke="#000000" stroke-opacity="0.000" class="guide background" id="img-da65af45-13">
        <g transform="translate(47.11,37.66)" id="img-da65af45-14">
          <path d="M-29.15,-32.66 L 29.15 -32.66 29.15 32.66 -29.15 32.66 z" class="primitive"/>
        </g>
      </g>
      <g class="guide ygridlines xfixed" stroke-dasharray="0.5,0.5" stroke-width="0.2" stroke="#D0D0E0" id="img-da65af45-15">
        <g transform="translate(47.11,68.33)" id="img-da65af45-16">
          <path fill="none" d="M-29.15,0 L 29.15 0" class="primitive"/>
        </g>
        <g transform="translate(47.11,53)" id="img-da65af45-17">
          <path fill="none" d="M-29.15,0 L 29.15 0" class="primitive"/>
        </g>
        <g transform="translate(47.11,37.66)" id="img-da65af45-18">
          <path fill="none" d="M-29.15,0 L 29.15 0" class="primitive"/>
        </g>
        <g transform="translate(47.11,22.33)" id="img-da65af45-19">
          <path fill="none" d="M-29.15,0 L 29.15 0" class="primitive"/>
        </g>
        <g transform="translate(47.11,7)" id="img-da65af45-20">
          <path fill="none" d="M-29.15,0 L 29.15 0" class="primitive"/>
        </g>
      </g>
      <g class="guide xgridlines yfixed" stroke-dasharray="0.5,0.5" stroke-width="0.2" stroke="#D0D0E0" id="img-da65af45-21">
        <g transform="translate(19.96,37.66)" id="img-da65af45-22">
          <path fill="none" d="M0,-32.66 L 0 32.66" class="primitive"/>
        </g>
        <g transform="translate(29.01,37.66)" id="img-da65af45-23">
          <path fill="none" d="M0,-32.66 L 0 32.66" class="primitive"/>
        </g>
        <g transform="translate(38.06,37.66)" id="img-da65af45-24">
          <path fill="none" d="M0,-32.66 L 0 32.66" class="primitive"/>
        </g>
        <g transform="translate(47.11,37.66)" id="img-da65af45-25">
          <path fill="none" d="M0,-32.66 L 0 32.66" class="primitive"/>
        </g>
        <g transform="translate(56.16,37.66)" id="img-da65af45-26">
          <path fill="none" d="M0,-32.66 L 0 32.66" class="primitive"/>
        </g>
        <g transform="translate(65.21,37.66)" id="img-da65af45-27">
          <path fill="none" d="M0,-32.66 L 0 32.66" class="primitive"/>
        </g>
        <g transform="translate(74.26,37.66)" id="img-da65af45-28">
          <path fill="none" d="M0,-32.66 L 0 32.66" class="primitive"/>
        </g>
      </g>
      <g class="plotpanel" id="img-da65af45-29">
        <metadata>
          <boundingbox value="17.95833333333333mm 5.0mm 58.30166666666666mm 65.32666666666667mm"/>
          <unitbox value="9.177901230778676 41.30448961843679 0.6441975384426503 -42.60897923687358"/>
        </metadata>
        <g shape-rendering="crispEdges" stroke-width="0.3" id="img-da65af45-30">
          <g stroke="#000000" stroke-opacity="0.000" class="geometry" id="img-da65af45-31">
            <g fill="#00BFFF" id="img-da65af45-32">
              <g transform="translate(28.35,67.56)" id="img-da65af45-33">
                <path d="M-0.25,-0.77 L 0.25 -0.77 0.25 0.77 -0.25 0.77 z" class="primitive"/>
              </g>
              <g transform="translate(28.8,68.33)" id="img-da65af45-34">
                <path d="M-0.25,-0 L 0.25 -0 0.25 0 -0.25 0 z" class="primitive"/>
              </g>
              <g transform="translate(29.26,68.33)" id="img-da65af45-35">
                <path d="M-0.25,-0 L 0.25 -0 0.25 0 -0.25 0 z" class="primitive"/>
              </g>
              <g transform="translate(29.72,68.33)" id="img-da65af45-36">
                <path d="M-0.25,-0 L 0.25 -0 0.25 0 -0.25 0 z" class="primitive"/>
              </g>
              <g transform="translate(30.18,68.33)" id="img-da65af45-37">
                <path d="M-0.25,-0 L 0.25 -0 0.25 0 -0.25 0 z" class="primitive"/>
              </g>
              <g transform="translate(30.63,68.33)" id="img-da65af45-38">
                <path d="M-0.25,-0 L 0.25 -0 0.25 0 -0.25 0 z" class="primitive"/>
              </g>
              <g transform="translate(31.09,68.33)" id="img-da65af45-39">
                <path d="M-0.25,-0 L 0.25 -0 0.25 0 -0.25 0 z" class="primitive"/>
              </g>
              <g transform="translate(31.55,68.33)" id="img-da65af45-40">
                <path d="M-0.25,-0 L 0.25 -0 0.25 0 -0.25 0 z" class="primitive"/>
              </g>
              <g transform="translate(32,68.33)" id="img-da65af45-41">
                <path d="M-0.25,-0 L 0.25 -0 0.25 0 -0.25 0 z" class="primitive"/>
              </g>
              <g transform="translate(32.46,68.33)" id="img-da65af45-42">
                <path d="M-0.25,-0 L 0.25 -0 0.25 0 -0.25 0 z" class="primitive"/>
              </g>
              <g transform="translate(32.92,67.56)" id="img-da65af45-43">
                <path d="M-0.25,-0.77 L 0.25 -0.77 0.25 0.77 -0.25 0.77 z" class="primitive"/>
              </g>
              <g transform="translate(33.37,67.56)" id="img-da65af45-44">
                <path d="M-0.25,-0.77 L 0.25 -0.77 0.25 0.77 -0.25 0.77 z" class="primitive"/>
              </g>
              <g transform="translate(33.83,68.33)" id="img-da65af45-45">
                <path d="M-0.25,-0 L 0.25 -0 0.25 0 -0.25 0 z" class="primitive"/>
              </g>
              <g transform="translate(34.29,68.33)" id="img-da65af45-46">
                <path d="M-0.25,-0 L 0.25 -0 0.25 0 -0.25 0 z" class="primitive"/>
              </g>
              <g transform="translate(34.75,67.56)" id="img-da65af45-47">
                <path d="M-0.25,-0.77 L 0.25 -0.77 0.25 0.77 -0.25 0.77 z" class="primitive"/>
              </g>
              <g transform="translate(35.2,68.33)" id="img-da65af45-48">
                <path d="M-0.25,-0 L 0.25 -0 0.25 0 -0.25 0 z" class="primitive"/>
              </g>
              <g transform="translate(35.66,66.79)" id="img-da65af45-49">
                <path d="M-0.25,-1.53 L 0.25 -1.53 0.25 1.53 -0.25 1.53 z" class="primitive"/>
              </g>
              <g transform="translate(36.12,68.33)" id="img-da65af45-50">
                <path d="M-0.25,-0 L 0.25 -0 0.25 0 -0.25 0 z" class="primitive"/>
              </g>
              <g transform="translate(36.57,66.79)" id="img-da65af45-51">
                <path d="M-0.25,-1.53 L 0.25 -1.53 0.25 1.53 -0.25 1.53 z" class="primitive"/>
              </g>
              <g transform="translate(37.03,67.56)" id="img-da65af45-52">
                <path d="M-0.25,-0.77 L 0.25 -0.77 0.25 0.77 -0.25 0.77 z" class="primitive"/>
              </g>
              <g transform="translate(37.49,67.56)" id="img-da65af45-53">
                <path d="M-0.25,-0.77 L 0.25 -0.77 0.25 0.77 -0.25 0.77 z" class="primitive"/>
              </g>
              <g transform="translate(37.94,68.33)" id="img-da65af45-54">
                <path d="M-0.25,-0 L 0.25 -0 0.25 0 -0.25 0 z" class="primitive"/>
              </g>
              <g transform="translate(38.4,66.79)" id="img-da65af45-55">
                <path d="M-0.25,-1.53 L 0.25 -1.53 0.25 1.53 -0.25 1.53 z" class="primitive"/>
              </g>
              <g transform="translate(38.86,68.33)" id="img-da65af45-56">
                <path d="M-0.25,-0 L 0.25 -0 0.25 0 -0.25 0 z" class="primitive"/>
              </g>
              <g transform="translate(39.32,66.79)" id="img-da65af45-57">
                <path d="M-0.25,-1.53 L 0.25 -1.53 0.25 1.53 -0.25 1.53 z" class="primitive"/>
              </g>
              <g transform="translate(39.77,65.26)" id="img-da65af45-58">
                <path d="M-0.25,-3.07 L 0.25 -3.07 0.25 3.07 -0.25 3.07 z" class="primitive"/>
              </g>
              <g transform="translate(40.23,67.56)" id="img-da65af45-59">
                <path d="M-0.25,-0.77 L 0.25 -0.77 0.25 0.77 -0.25 0.77 z" class="primitive"/>
              </g>
              <g transform="translate(40.69,66.03)" id="img-da65af45-60">
                <path d="M-0.25,-2.3 L 0.25 -2.3 0.25 2.3 -0.25 2.3 z" class="primitive"/>
              </g>
              <g transform="translate(41.14,66.03)" id="img-da65af45-61">
                <path d="M-0.25,-2.3 L 0.25 -2.3 0.25 2.3 -0.25 2.3 z" class="primitive"/>
              </g>
              <g transform="translate(41.6,64.49)" id="img-da65af45-62">
                <path d="M-0.25,-3.83 L 0.25 -3.83 0.25 3.83 -0.25 3.83 z" class="primitive"/>
              </g>
              <g transform="translate(42.06,66.03)" id="img-da65af45-63">
                <path d="M-0.25,-2.3 L 0.25 -2.3 0.25 2.3 -0.25 2.3 z" class="primitive"/>
              </g>
              <g transform="translate(42.51,66.03)" id="img-da65af45-64">
                <path d="M-0.25,-2.3 L 0.25 -2.3 0.25 2.3 -0.25 2.3 z" class="primitive"/>
              </g>
              <g transform="translate(42.97,60.66)" id="img-da65af45-65">
                <path d="M-0.25,-7.67 L 0.25 -7.67 0.25 7.67 -0.25 7.67 z" class="primitive"/>
              </g>
              <g transform="translate(43.43,61.43)" id="img-da65af45-66">
                <path d="M-0.25,-6.9 L 0.25 -6.9 0.25 6.9 -0.25 6.9 z" class="primitive"/>
              </g>
              <g transform="translate(43.89,63.73)" id="img-da65af45-67">
                <path d="M-0.25,-4.6 L 0.25 -4.6 0.25 4.6 -0.25 4.6 z" class="primitive"/>
              </g>
              <g transform="translate(44.34,62.19)" id="img-da65af45-68">
                <path d="M-0.25,-6.13 L 0.25 -6.13 0.25 6.13 -0.25 6.13 z" class="primitive"/>
              </g>
              <g transform="translate(44.8,61.43)" id="img-da65af45-69">
                <path d="M-0.25,-6.9 L 0.25 -6.9 0.25 6.9 -0.25 6.9 z" class="primitive"/>
              </g>
              <g transform="translate(45.26,60.66)" id="img-da65af45-70">
                <path d="M-0.25,-7.67 L 0.25 -7.67 0.25 7.67 -0.25 7.67 z" class="primitive"/>
              </g>
              <g transform="translate(45.71,59.89)" id="img-da65af45-71">
                <path d="M-0.25,-8.43 L 0.25 -8.43 0.25 8.43 -0.25 8.43 z" class="primitive"/>
              </g>
              <g transform="translate(46.17,60.66)" id="img-da65af45-72">
                <path d="M-0.25,-7.67 L 0.25 -7.67 0.25 7.67 -0.25 7.67 z" class="primitive"/>
              </g>
              <g transform="translate(46.63,59.13)" id="img-da65af45-73">
                <path d="M-0.25,-9.2 L 0.25 -9.2 0.25 9.2 -0.25 9.2 z" class="primitive"/>
              </g>
              <g transform="translate(47.08,56.06)" id="img-da65af45-74">
                <path d="M-0.25,-12.27 L 0.25 -12.27 0.25 12.27 -0.25 12.27 z" class="primitive"/>
              </g>
              <g transform="translate(47.54,59.89)" id="img-da65af45-75">
                <path d="M-0.25,-8.43 L 0.25 -8.43 0.25 8.43 -0.25 8.43 z" class="primitive"/>
              </g>
              <g transform="translate(48,54.53)" id="img-da65af45-76">
                <path d="M-0.25,-13.8 L 0.25 -13.8 0.25 13.8 -0.25 13.8 z" class="primitive"/>
              </g>
              <g transform="translate(48.46,59.13)" id="img-da65af45-77">
                <path d="M-0.25,-9.2 L 0.25 -9.2 0.25 9.2 -0.25 9.2 z" class="primitive"/>
              </g>
              <g transform="translate(48.91,49.93)" id="img-da65af45-78">
                <path d="M-0.25,-18.4 L 0.25 -18.4 0.25 18.4 -0.25 18.4 z" class="primitive"/>
              </g>
              <g transform="translate(49.37,52.23)" id="img-da65af45-79">
                <path d="M-0.25,-16.1 L 0.25 -16.1 0.25 16.1 -0.25 16.1 z" class="primitive"/>
              </g>
              <g transform="translate(49.83,55.29)" id="img-da65af45-80">
                <path d="M-0.25,-13.03 L 0.25 -13.03 0.25 13.03 -0.25 13.03 z" class="primitive"/>
              </g>
              <g transform="translate(50.28,48.4)" id="img-da65af45-81">
                <path d="M-0.25,-19.93 L 0.25 -19.93 0.25 19.93 -0.25 19.93 z" class="primitive"/>
              </g>
              <g transform="translate(50.74,43.8)" id="img-da65af45-82">
                <path d="M-0.25,-24.53 L 0.25 -24.53 0.25 24.53 -0.25 24.53 z" class="primitive"/>
              </g>
              <g transform="translate(51.2,44.56)" id="img-da65af45-83">
                <path d="M-0.25,-23.76 L 0.25 -23.76 0.25 23.76 -0.25 23.76 z" class="primitive"/>
              </g>
              <g transform="translate(51.65,46.86)" id="img-da65af45-84">
                <path d="M-0.25,-21.46 L 0.25 -21.46 0.25 21.46 -0.25 21.46 z" class="primitive"/>
              </g>
              <g transform="translate(52.11,55.29)" id="img-da65af45-85">
                <path d="M-0.25,-13.03 L 0.25 -13.03 0.25 13.03 -0.25 13.03 z" class="primitive"/>
              </g>
              <g transform="translate(52.57,55.29)" id="img-da65af45-86">
                <path d="M-0.25,-13.03 L 0.25 -13.03 0.25 13.03 -0.25 13.03 z" class="primitive"/>
              </g>
              <g transform="translate(53.03,43.8)" id="img-da65af45-87">
                <path d="M-0.25,-24.53 L 0.25 -24.53 0.25 24.53 -0.25 24.53 z" class="primitive"/>
              </g>
              <g transform="translate(53.48,43.03)" id="img-da65af45-88">
                <path d="M-0.25,-25.3 L 0.25 -25.3 0.25 25.3 -0.25 25.3 z" class="primitive"/>
              </g>
              <g transform="translate(53.94,46.86)" id="img-da65af45-89">
                <path d="M-0.25,-21.46 L 0.25 -21.46 0.25 21.46 -0.25 21.46 z" class="primitive"/>
              </g>
              <g transform="translate(54.4,46.1)" id="img-da65af45-90">
                <path d="M-0.25,-22.23 L 0.25 -22.23 0.25 22.23 -0.25 22.23 z" class="primitive"/>
              </g>
              <g transform="translate(54.85,43.03)" id="img-da65af45-91">
                <path d="M-0.25,-25.3 L 0.25 -25.3 0.25 25.3 -0.25 25.3 z" class="primitive"/>
              </g>
              <g transform="translate(55.31,49.93)" id="img-da65af45-92">
                <path d="M-0.25,-18.4 L 0.25 -18.4 0.25 18.4 -0.25 18.4 z" class="primitive"/>
              </g>
              <g transform="translate(55.77,46.1)" id="img-da65af45-93">
                <path d="M-0.25,-22.23 L 0.25 -22.23 0.25 22.23 -0.25 22.23 z" class="primitive"/>
              </g>
              <g transform="translate(56.22,47.63)" id="img-da65af45-94">
                <path d="M-0.25,-20.7 L 0.25 -20.7 0.25 20.7 -0.25 20.7 z" class="primitive"/>
              </g>
              <g transform="translate(56.68,51.46)" id="img-da65af45-95">
                <path d="M-0.25,-16.86 L 0.25 -16.86 0.25 16.86 -0.25 16.86 z" class="primitive"/>
              </g>
              <g transform="translate(57.14,50.7)" id="img-da65af45-96">
                <path d="M-0.25,-17.63 L 0.25 -17.63 0.25 17.63 -0.25 17.63 z" class="primitive"/>
              </g>
              <g transform="translate(57.6,53)" id="img-da65af45-97">
                <path d="M-0.25,-15.33 L 0.25 -15.33 0.25 15.33 -0.25 15.33 z" class="primitive"/>
              </g>
              <g transform="translate(58.05,47.63)" id="img-da65af45-98">
                <path d="M-0.25,-20.7 L 0.25 -20.7 0.25 20.7 -0.25 20.7 z" class="primitive"/>
              </g>
              <g transform="translate(58.51,51.46)" id="img-da65af45-99">
                <path d="M-0.25,-16.86 L 0.25 -16.86 0.25 16.86 -0.25 16.86 z" class="primitive"/>
              </g>
              <g transform="translate(58.97,53)" id="img-da65af45-100">
                <path d="M-0.25,-15.33 L 0.25 -15.33 0.25 15.33 -0.25 15.33 z" class="primitive"/>
              </g>
              <g transform="translate(59.42,50.7)" id="img-da65af45-101">
                <path d="M-0.25,-17.63 L 0.25 -17.63 0.25 17.63 -0.25 17.63 z" class="primitive"/>
              </g>
              <g transform="translate(59.88,53)" id="img-da65af45-102">
                <path d="M-0.25,-15.33 L 0.25 -15.33 0.25 15.33 -0.25 15.33 z" class="primitive"/>
              </g>
              <g transform="translate(60.34,50.7)" id="img-da65af45-103">
                <path d="M-0.25,-17.63 L 0.25 -17.63 0.25 17.63 -0.25 17.63 z" class="primitive"/>
              </g>
              <g transform="translate(60.79,53)" id="img-da65af45-104">
                <path d="M-0.25,-15.33 L 0.25 -15.33 0.25 15.33 -0.25 15.33 z" class="primitive"/>
              </g>
              <g transform="translate(61.25,56.06)" id="img-da65af45-105">
                <path d="M-0.25,-12.27 L 0.25 -12.27 0.25 12.27 -0.25 12.27 z" class="primitive"/>
              </g>
              <g transform="translate(61.71,53)" id="img-da65af45-106">
                <path d="M-0.25,-15.33 L 0.25 -15.33 0.25 15.33 -0.25 15.33 z" class="primitive"/>
              </g>
              <g transform="translate(62.17,56.83)" id="img-da65af45-107">
                <path d="M-0.25,-11.5 L 0.25 -11.5 0.25 11.5 -0.25 11.5 z" class="primitive"/>
              </g>
              <g transform="translate(62.62,57.59)" id="img-da65af45-108">
                <path d="M-0.25,-10.73 L 0.25 -10.73 0.25 10.73 -0.25 10.73 z" class="primitive"/>
              </g>
              <g transform="translate(63.08,61.43)" id="img-da65af45-109">
                <path d="M-0.25,-6.9 L 0.25 -6.9 0.25 6.9 -0.25 6.9 z" class="primitive"/>
              </g>
              <g transform="translate(63.54,59.89)" id="img-da65af45-110">
                <path d="M-0.25,-8.43 L 0.25 -8.43 0.25 8.43 -0.25 8.43 z" class="primitive"/>
              </g>
              <g transform="translate(63.99,61.43)" id="img-da65af45-111">
                <path d="M-0.25,-6.9 L 0.25 -6.9 0.25 6.9 -0.25 6.9 z" class="primitive"/>
              </g>
              <g transform="translate(64.45,59.89)" id="img-da65af45-112">
                <path d="M-0.25,-8.43 L 0.25 -8.43 0.25 8.43 -0.25 8.43 z" class="primitive"/>
              </g>
              <g transform="translate(64.91,62.19)" id="img-da65af45-113">
                <path d="M-0.25,-6.13 L 0.25 -6.13 0.25 6.13 -0.25 6.13 z" class="primitive"/>
              </g>
              <g transform="translate(65.36,63.73)" id="img-da65af45-114">
                <path d="M-0.25,-4.6 L 0.25 -4.6 0.25 4.6 -0.25 4.6 z" class="primitive"/>
              </g>
              <g transform="translate(65.82,62.96)" id="img-da65af45-115">
                <path d="M-0.25,-5.37 L 0.25 -5.37 0.25 5.37 -0.25 5.37 z" class="primitive"/>
              </g>
              <g transform="translate(66.28,67.56)" id="img-da65af45-116">
                <path d="M-0.25,-0.77 L 0.25 -0.77 0.25 0.77 -0.25 0.77 z" class="primitive"/>
              </g>
              <g transform="translate(66.74,66.79)" id="img-da65af45-117">
                <path d="M-0.25,-1.53 L 0.25 -1.53 0.25 1.53 -0.25 1.53 z" class="primitive"/>
              </g>
              <g transform="translate(67.19,66.03)" id="img-da65af45-118">
                <path d="M-0.25,-2.3 L 0.25 -2.3 0.25 2.3 -0.25 2.3 z" class="primitive"/>
              </g>
              <g transform="translate(67.65,62.19)" id="img-da65af45-119">
                <path d="M-0.25,-6.13 L 0.25 -6.13 0.25 6.13 -0.25 6.13 z" class="primitive"/>
              </g>
              <g transform="translate(68.11,67.56)" id="img-da65af45-120">
                <path d="M-0.25,-0.77 L 0.25 -0.77 0.25 0.77 -0.25 0.77 z" class="primitive"/>
              </g>
              <g transform="translate(68.56,66.79)" id="img-da65af45-121">
                <path d="M-0.25,-1.53 L 0.25 -1.53 0.25 1.53 -0.25 1.53 z" class="primitive"/>
              </g>
              <g transform="translate(69.02,65.26)" id="img-da65af45-122">
                <path d="M-0.25,-3.07 L 0.25 -3.07 0.25 3.07 -0.25 3.07 z" class="primitive"/>
              </g>
              <g transform="translate(69.48,67.56)" id="img-da65af45-123">
                <path d="M-0.25,-0.77 L 0.25 -0.77 0.25 0.77 -0.25 0.77 z" class="primitive"/>
              </g>
              <g transform="translate(69.93,66.79)" id="img-da65af45-124">
                <path d="M-0.25,-1.53 L 0.25 -1.53 0.25 1.53 -0.25 1.53 z" class="primitive"/>
              </g>
              <g transform="translate(70.39,68.33)" id="img-da65af45-125">
                <path d="M-0.25,-0 L 0.25 -0 0.25 0 -0.25 0 z" class="primitive"/>
              </g>
              <g transform="translate(70.85,67.56)" id="img-da65af45-126">
                <path d="M-0.25,-0.77 L 0.25 -0.77 0.25 0.77 -0.25 0.77 z" class="primitive"/>
              </g>
              <g transform="translate(71.31,67.56)" id="img-da65af45-127">
                <path d="M-0.25,-0.77 L 0.25 -0.77 0.25 0.77 -0.25 0.77 z" class="primitive"/>
              </g>
              <g transform="translate(71.76,68.33)" id="img-da65af45-128">
                <path d="M-0.25,-0 L 0.25 -0 0.25 0 -0.25 0 z" class="primitive"/>
              </g>
              <g transform="translate(72.22,68.33)" id="img-da65af45-129">
                <path d="M-0.25,-0 L 0.25 -0 0.25 0 -0.25 0 z" class="primitive"/>
              </g>
              <g transform="translate(72.68,67.56)" id="img-da65af45-130">
                <path d="M-0.25,-0.77 L 0.25 -0.77 0.25 0.77 -0.25 0.77 z" class="primitive"/>
              </g>
              <g transform="translate(73.13,68.33)" id="img-da65af45-131">
                <path d="M-0.25,-0 L 0.25 -0 0.25 0 -0.25 0 z" class="primitive"/>
              </g>
              <g transform="translate(73.59,67.56)" id="img-da65af45-132">
                <path d="M-0.25,-0.77 L 0.25 -0.77 0.25 0.77 -0.25 0.77 z" class="primitive"/>
              </g>
            </g>
          </g>
        </g>
      </g>
    </g>
  </g>
  <g class="guide ylabels" font-size="2.82" font-family="'PT Sans Caption','Helvetica Neue','Helvetica',sans-serif" fill="#6C606B" id="img-da65af45-133">
    <g transform="translate(16.96,68.33)" id="img-da65af45-134">
      <g class="primitive">
        <text text-anchor="end" dy="0.35em">0</text>
      </g>
    </g>
    <g transform="translate(16.96,53)" id="img-da65af45-135">
      <g class="primitive">
        <text text-anchor="end" dy="0.35em">10</text>
      </g>
    </g>
    <g transform="translate(16.96,37.66)" id="img-da65af45-136">
      <g class="primitive">
        <text text-anchor="end" dy="0.35em">20</text>
      </g>
    </g>
    <g transform="translate(16.96,22.33)" id="img-da65af45-137">
      <g class="primitive">
        <text text-anchor="end" dy="0.35em">30</text>
      </g>
    </g>
    <g transform="translate(16.96,7)" id="img-da65af45-138">
      <g class="primitive">
        <text text-anchor="end" dy="0.35em">40</text>
      </g>
    </g>
  </g>
  <g font-size="3.88" font-family="'PT Sans','Helvetica Neue','Helvetica',sans-serif" fill="#564A55" stroke="#000000" stroke-opacity="0.000" id="img-da65af45-139">
    <g transform="translate(8.81,35.66)" id="img-da65af45-140">
      <g class="primitive">
        <text text-anchor="middle" dy="0.35em" transform="rotate(-90,0, 2)">frequency</text>
      </g>
    </g>
  </g>
</g>
<defs>
  <clipPath id="img-da65af45-11">
    <path d="M17.96,5 L 76.26 5 76.26 70.33 17.96 70.33" />
  </clipPath>
</defs>
</svg>
