<?xml version="1.0" encoding="UTF-8"?>
<svg xmlns="http://www.w3.org/2000/svg"
     xmlns:xlink="http://www.w3.org/1999/xlink"
     xmlns:gadfly="http://www.gadflyjl.org/ns"
     version="1.2"
     width="141.42mm" height="100mm" viewBox="0 0 141.42 100"
     stroke="none"
     fill="#000000"
     stroke-width="0.3"
     font-size="3.88"
>
<defs>
  <marker id="arrow" markerWidth="15" markerHeight="7" refX="5" refY="3.5" orient="auto" markerUnits="strokeWidth">
    <path d="M0,0 L15,3.5 L0,7 z" stroke="context-stroke" fill="context-stroke"/>
  </marker>
</defs>
<g class="plotroot xscalable yscalable" id="img-a00fa6d7-1">
  <g class="guide xlabels" font-size="2.82" font-family="'PT Sans Caption','Helvetica Neue','Helvetica',sans-serif" fill="#6C606B" id="img-a00fa6d7-2">
    <g transform="translate(19.96,91.33)">
      <g class="primitive">
        <text text-anchor="middle" dy="0.6em">9.4</text>
      </g>
    </g>
    <g transform="translate(36.19,91.33)">
      <g class="primitive">
        <text text-anchor="middle" dy="0.6em">9.5</text>
      </g>
    </g>
    <g transform="translate(52.41,91.33)">
      <g class="primitive">
        <text text-anchor="middle" dy="0.6em">9.6</text>
      </g>
    </g>
    <g transform="translate(68.64,91.33)">
      <g class="primitive">
        <text text-anchor="middle" dy="0.6em">9.7</text>
      </g>
    </g>
    <g transform="translate(84.87,91.33)">
      <g class="primitive">
        <text text-anchor="middle" dy="0.6em">9.8</text>
      </g>
    </g>
  </g>
  <g class="guide colorkey" id="img-a00fa6d7-3">
    <g class="color_coding_coding_coding_coding_4-cycle" id="img-a00fa6d7-4">
      <g fill="#4C404B" font-size="2.82" font-family="'PT Sans','Helvetica Neue','Helvetica',sans-serif" id="img-a00fa6d7-5">
        <g transform="translate(90.68,49.48)" id="img-a00fa6d7-6">
          <g class="primitive">
            <text dy="0.35em">coding_coding_coding_coding_4-cycle</text>
          </g>
        </g>
      </g>
      <g fill-opacity="1" fill="#00BFFF" stroke="#FFFFFF" id="img-a00fa6d7-7">
        <g transform="translate(88.77,49.48)" id="img-a00fa6d7-8">
          <path d="M-0.91,-0.91 L 0.91 -0.91 0.91 0.91 -0.91 0.91 z" class="primitive"/>
        </g>
      </g>
    </g>
    <g fill="#362A35" font-size="3.88" font-family="'PT Sans','Helvetica Neue','Helvetica',sans-serif" stroke="#000000" stroke-opacity="0.000" id="img-a00fa6d7-9">
      <g transform="translate(87.87,45.66)" id="img-a00fa6d7-10">
        <g class="primitive">
          <text dy="-0em">graphlet</text>
        </g>
      </g>
    </g>
  </g>
  <g clip-path="url(#img-a00fa6d7-11)">
    <g id="img-a00fa6d7-12">
      <g pointer-events="visible" stroke-width="0.3" fill="#000000" fill-opacity="0.000" stroke="#000000" stroke-opacity="0.000" class="guide background" id="img-a00fa6d7-13">
        <g transform="translate(52.41,47.66)" id="img-a00fa6d7-14">
          <path d="M-34.45,-42.66 L 34.45 -42.66 34.45 42.66 -34.45 42.66 z" class="primitive"/>
        </g>
      </g>
      <g class="guide ygridlines xfixed" stroke-dasharray="0.5,0.5" stroke-width="0.2" stroke="#D0D0E0" id="img-a00fa6d7-15">
        <g transform="translate(52.41,88.33)" id="img-a00fa6d7-16">
          <path fill="none" d="M-34.45,0 L 34.45 0" class="primitive"/>
        </g>
        <g transform="translate(52.41,68)" id="img-a00fa6d7-17">
          <path fill="none" d="M-34.45,0 L 34.45 0" class="primitive"/>
        </g>
        <g transform="translate(52.41,47.66)" id="img-a00fa6d7-18">
          <path fill="none" d="M-34.45,0 L 34.45 0" class="primitive"/>
        </g>
        <g transform="translate(52.41,27.33)" id="img-a00fa6d7-19">
          <path fill="none" d="M-34.45,0 L 34.45 0" class="primitive"/>
        </g>
        <g transform="translate(52.41,7)" id="img-a00fa6d7-20">
          <path fill="none" d="M-34.45,0 L 34.45 0" class="primitive"/>
        </g>
      </g>
      <g class="guide xgridlines yfixed" stroke-dasharray="0.5,0.5" stroke-width="0.2" stroke="#D0D0E0" id="img-a00fa6d7-21">
        <g transform="translate(19.96,47.66)" id="img-a00fa6d7-22">
          <path fill="none" d="M0,-42.66 L 0 42.66" class="primitive"/>
        </g>
        <g transform="translate(36.19,47.66)" id="img-a00fa6d7-23">
          <path fill="none" d="M0,-42.66 L 0 42.66" class="primitive"/>
        </g>
        <g transform="translate(52.41,47.66)" id="img-a00fa6d7-24">
          <path fill="none" d="M0,-42.66 L 0 42.66" class="primitive"/>
        </g>
        <g transform="translate(68.64,47.66)" id="img-a00fa6d7-25">
          <path fill="none" d="M0,-42.66 L 0 42.66" class="primitive"/>
        </g>
        <g transform="translate(84.87,47.66)" id="img-a00fa6d7-26">
          <path fill="none" d="M0,-42.66 L 0 42.66" class="primitive"/>
        </g>
      </g>
      <g class="plotpanel" id="img-a00fa6d7-27">
        <metadata>
          <boundingbox value="17.95833333333333mm 5.0mm 68.90968957064283mm 85.32666666666667mm"/>
          <unitbox value="9.387675183700743 40.98368718747438 0.42464963259851524 -41.96737437494876"/>
        </metadata>
        <g shape-rendering="crispEdges" stroke-width="0.3" id="img-a00fa6d7-28">
          <g stroke="#000000" stroke-opacity="0.000" class="geometry" id="img-a00fa6d7-29">
            <g fill="#00BFFF" id="img-a00fa6d7-30">
              <g transform="translate(21.79,87.31)" id="img-a00fa6d7-31">
                <path d="M-0.33,-1.02 L 0.33 -1.02 0.33 1.02 -0.33 1.02 z" class="primitive"/>
              </g>
              <g transform="translate(22.41,87.31)" id="img-a00fa6d7-32">
                <path d="M-0.33,-1.02 L 0.33 -1.02 0.33 1.02 -0.33 1.02 z" class="primitive"/>
              </g>
              <g transform="translate(23.03,88.33)" id="img-a00fa6d7-33">
                <path d="M-0.33,-0 L 0.33 -0 0.33 0 -0.33 0 z" class="primitive"/>
              </g>
              <g transform="translate(23.65,88.33)" id="img-a00fa6d7-34">
                <path d="M-0.33,-0 L 0.33 -0 0.33 0 -0.33 0 z" class="primitive"/>
              </g>
              <g transform="translate(24.27,87.31)" id="img-a00fa6d7-35">
                <path d="M-0.33,-1.02 L 0.33 -1.02 0.33 1.02 -0.33 1.02 z" class="primitive"/>
              </g>
              <g transform="translate(24.89,88.33)" id="img-a00fa6d7-36">
                <path d="M-0.33,-0 L 0.33 -0 0.33 0 -0.33 0 z" class="primitive"/>
              </g>
              <g transform="translate(25.5,88.33)" id="img-a00fa6d7-37">
                <path d="M-0.33,-0 L 0.33 -0 0.33 0 -0.33 0 z" class="primitive"/>
              </g>
              <g transform="translate(26.12,88.33)" id="img-a00fa6d7-38">
                <path d="M-0.33,-0 L 0.33 -0 0.33 0 -0.33 0 z" class="primitive"/>
              </g>
              <g transform="translate(26.74,88.33)" id="img-a00fa6d7-39">
                <path d="M-0.33,-0 L 0.33 -0 0.33 0 -0.33 0 z" class="primitive"/>
              </g>
              <g transform="translate(27.36,88.33)" id="img-a00fa6d7-40">
                <path d="M-0.33,-0 L 0.33 -0 0.33 0 -0.33 0 z" class="primitive"/>
              </g>
              <g transform="translate(27.98,88.33)" id="img-a00fa6d7-41">
                <path d="M-0.33,-0 L 0.33 -0 0.33 0 -0.33 0 z" class="primitive"/>
              </g>
              <g transform="translate(28.6,88.33)" id="img-a00fa6d7-42">
                <path d="M-0.33,-0 L 0.33 -0 0.33 0 -0.33 0 z" class="primitive"/>
              </g>
              <g transform="translate(29.22,88.33)" id="img-a00fa6d7-43">
                <path d="M-0.33,-0 L 0.33 -0 0.33 0 -0.33 0 z" class="primitive"/>
              </g>
              <g transform="translate(29.84,87.31)" id="img-a00fa6d7-44">
                <path d="M-0.33,-1.02 L 0.33 -1.02 0.33 1.02 -0.33 1.02 z" class="primitive"/>
              </g>
              <g transform="translate(30.46,88.33)" id="img-a00fa6d7-45">
                <path d="M-0.33,-0 L 0.33 -0 0.33 0 -0.33 0 z" class="primitive"/>
              </g>
              <g transform="translate(31.08,87.31)" id="img-a00fa6d7-46">
                <path d="M-0.33,-1.02 L 0.33 -1.02 0.33 1.02 -0.33 1.02 z" class="primitive"/>
              </g>
              <g transform="translate(31.7,88.33)" id="img-a00fa6d7-47">
                <path d="M-0.33,-0 L 0.33 -0 0.33 0 -0.33 0 z" class="primitive"/>
              </g>
              <g transform="translate(32.32,87.31)" id="img-a00fa6d7-48">
                <path d="M-0.33,-1.02 L 0.33 -1.02 0.33 1.02 -0.33 1.02 z" class="primitive"/>
              </g>
              <g transform="translate(32.94,87.31)" id="img-a00fa6d7-49">
                <path d="M-0.33,-1.02 L 0.33 -1.02 0.33 1.02 -0.33 1.02 z" class="primitive"/>
              </g>
              <g transform="translate(33.56,88.33)" id="img-a00fa6d7-50">
                <path d="M-0.33,-0 L 0.33 -0 0.33 0 -0.33 0 z" class="primitive"/>
              </g>
              <g transform="translate(34.18,83.24)" id="img-a00fa6d7-51">
                <path d="M-0.33,-5.08 L 0.33 -5.08 0.33 5.08 -0.33 5.08 z" class="primitive"/>
              </g>
              <g transform="translate(34.8,88.33)" id="img-a00fa6d7-52">
                <path d="M-0.33,-0 L 0.33 -0 0.33 0 -0.33 0 z" class="primitive"/>
              </g>
              <g transform="translate(35.42,86.29)" id="img-a00fa6d7-53">
                <path d="M-0.33,-2.03 L 0.33 -2.03 0.33 2.03 -0.33 2.03 z" class="primitive"/>
              </g>
              <g transform="translate(36.04,86.29)" id="img-a00fa6d7-54">
                <path d="M-0.33,-2.03 L 0.33 -2.03 0.33 2.03 -0.33 2.03 z" class="primitive"/>
              </g>
              <g transform="translate(36.66,87.31)" id="img-a00fa6d7-55">
                <path d="M-0.33,-1.02 L 0.33 -1.02 0.33 1.02 -0.33 1.02 z" class="primitive"/>
              </g>
              <g transform="translate(37.28,88.33)" id="img-a00fa6d7-56">
                <path d="M-0.33,-0 L 0.33 -0 0.33 0 -0.33 0 z" class="primitive"/>
              </g>
              <g transform="translate(37.9,86.29)" id="img-a00fa6d7-57">
                <path d="M-0.33,-2.03 L 0.33 -2.03 0.33 2.03 -0.33 2.03 z" class="primitive"/>
              </g>
              <g transform="translate(38.52,86.29)" id="img-a00fa6d7-58">
                <path d="M-0.33,-2.03 L 0.33 -2.03 0.33 2.03 -0.33 2.03 z" class="primitive"/>
              </g>
              <g transform="translate(39.14,88.33)" id="img-a00fa6d7-59">
                <path d="M-0.33,-0 L 0.33 -0 0.33 0 -0.33 0 z" class="primitive"/>
              </g>
              <g transform="translate(39.76,87.31)" id="img-a00fa6d7-60">
                <path d="M-0.33,-1.02 L 0.33 -1.02 0.33 1.02 -0.33 1.02 z" class="primitive"/>
              </g>
              <g transform="translate(40.38,84.26)" id="img-a00fa6d7-61">
                <path d="M-0.33,-4.07 L 0.33 -4.07 0.33 4.07 -0.33 4.07 z" class="primitive"/>
              </g>
              <g transform="translate(41,86.29)" id="img-a00fa6d7-62">
                <path d="M-0.33,-2.03 L 0.33 -2.03 0.33 2.03 -0.33 2.03 z" class="primitive"/>
              </g>
              <g transform="translate(41.62,80.19)" id="img-a00fa6d7-63">
                <path d="M-0.33,-8.13 L 0.33 -8.13 0.33 8.13 -0.33 8.13 z" class="primitive"/>
              </g>
              <g transform="translate(42.24,85.28)" id="img-a00fa6d7-64">
                <path d="M-0.33,-3.05 L 0.33 -3.05 0.33 3.05 -0.33 3.05 z" class="primitive"/>
              </g>
              <g transform="translate(42.86,86.29)" id="img-a00fa6d7-65">
                <path d="M-0.33,-2.03 L 0.33 -2.03 0.33 2.03 -0.33 2.03 z" class="primitive"/>
              </g>
              <g transform="translate(43.48,82.23)" id="img-a00fa6d7-66">
                <path d="M-0.33,-6.1 L 0.33 -6.1 0.33 6.1 -0.33 6.1 z" class="primitive"/>
              </g>
              <g transform="translate(44.1,84.26)" id="img-a00fa6d7-67">
                <path d="M-0.33,-4.07 L 0.33 -4.07 0.33 4.07 -0.33 4.07 z" class="primitive"/>
              </g>
              <g transform="translate(44.72,81.21)" id="img-a00fa6d7-68">
                <path d="M-0.33,-7.12 L 0.33 -7.12 0.33 7.12 -0.33 7.12 z" class="primitive"/>
              </g>
              <g transform="translate(45.34,86.29)" id="img-a00fa6d7-69">
                <path d="M-0.33,-2.03 L 0.33 -2.03 0.33 2.03 -0.33 2.03 z" class="primitive"/>
              </g>
              <g transform="translate(45.96,84.26)" id="img-a00fa6d7-70">
                <path d="M-0.33,-4.07 L 0.33 -4.07 0.33 4.07 -0.33 4.07 z" class="primitive"/>
              </g>
              <g transform="translate(46.58,80.19)" id="img-a00fa6d7-71">
                <path d="M-0.33,-8.13 L 0.33 -8.13 0.33 8.13 -0.33 8.13 z" class="primitive"/>
              </g>
              <g transform="translate(47.2,83.24)" id="img-a00fa6d7-72">
                <path d="M-0.33,-5.08 L 0.33 -5.08 0.33 5.08 -0.33 5.08 z" class="primitive"/>
              </g>
              <g transform="translate(47.82,76.13)" id="img-a00fa6d7-73">
                <path d="M-0.33,-12.2 L 0.33 -12.2 0.33 12.2 -0.33 12.2 z" class="primitive"/>
              </g>
              <g transform="translate(48.44,81.21)" id="img-a00fa6d7-74">
                <path d="M-0.33,-7.12 L 0.33 -7.12 0.33 7.12 -0.33 7.12 z" class="primitive"/>
              </g>
              <g transform="translate(49.06,81.21)" id="img-a00fa6d7-75">
                <path d="M-0.33,-7.12 L 0.33 -7.12 0.33 7.12 -0.33 7.12 z" class="primitive"/>
              </g>
              <g transform="translate(49.68,76.13)" id="img-a00fa6d7-76">
                <path d="M-0.33,-12.2 L 0.33 -12.2 0.33 12.2 -0.33 12.2 z" class="primitive"/>
              </g>
              <g transform="translate(50.29,83.24)" id="img-a00fa6d7-77">
                <path d="M-0.33,-5.08 L 0.33 -5.08 0.33 5.08 -0.33 5.08 z" class="primitive"/>
              </g>
              <g transform="translate(50.91,83.24)" id="img-a00fa6d7-78">
                <path d="M-0.33,-5.08 L 0.33 -5.08 0.33 5.08 -0.33 5.08 z" class="primitive"/>
              </g>
              <g transform="translate(51.53,77.14)" id="img-a00fa6d7-79">
                <path d="M-0.33,-11.18 L 0.33 -11.18 0.33 11.18 -0.33 11.18 z" class="primitive"/>
              </g>
              <g transform="translate(52.15,71.04)" id="img-a00fa6d7-80">
                <path d="M-0.33,-17.28 L 0.33 -17.28 0.33 17.28 -0.33 17.28 z" class="primitive"/>
              </g>
              <g transform="translate(52.77,76.13)" id="img-a00fa6d7-81">
                <path d="M-0.33,-12.2 L 0.33 -12.2 0.33 12.2 -0.33 12.2 z" class="primitive"/>
              </g>
              <g transform="translate(53.39,76.13)" id="img-a00fa6d7-82">
                <path d="M-0.33,-12.2 L 0.33 -12.2 0.33 12.2 -0.33 12.2 z" class="primitive"/>
              </g>
              <g transform="translate(54.01,71.04)" id="img-a00fa6d7-83">
                <path d="M-0.33,-17.28 L 0.33 -17.28 0.33 17.28 -0.33 17.28 z" class="primitive"/>
              </g>
              <g transform="translate(54.63,74.09)" id="img-a00fa6d7-84">
                <path d="M-0.33,-14.23 L 0.33 -14.23 0.33 14.23 -0.33 14.23 z" class="primitive"/>
              </g>
              <g transform="translate(55.25,77.14)" id="img-a00fa6d7-85">
                <path d="M-0.33,-11.18 L 0.33 -11.18 0.33 11.18 -0.33 11.18 z" class="primitive"/>
              </g>
              <g transform="translate(55.87,79.18)" id="img-a00fa6d7-86">
                <path d="M-0.33,-9.15 L 0.33 -9.15 0.33 9.15 -0.33 9.15 z" class="primitive"/>
              </g>
              <g transform="translate(56.49,74.09)" id="img-a00fa6d7-87">
                <path d="M-0.33,-14.23 L 0.33 -14.23 0.33 14.23 -0.33 14.23 z" class="primitive"/>
              </g>
              <g transform="translate(57.11,71.04)" id="img-a00fa6d7-88">
                <path d="M-0.33,-17.28 L 0.33 -17.28 0.33 17.28 -0.33 17.28 z" class="primitive"/>
              </g>
              <g transform="translate(57.73,69.01)" id="img-a00fa6d7-89">
                <path d="M-0.33,-19.32 L 0.33 -19.32 0.33 19.32 -0.33 19.32 z" class="primitive"/>
              </g>
              <g transform="translate(58.35,68)" id="img-a00fa6d7-90">
                <path d="M-0.33,-20.33 L 0.33 -20.33 0.33 20.33 -0.33 20.33 z" class="primitive"/>
              </g>
              <g transform="translate(58.97,73.08)" id="img-a00fa6d7-91">
                <path d="M-0.33,-15.25 L 0.33 -15.25 0.33 15.25 -0.33 15.25 z" class="primitive"/>
              </g>
              <g transform="translate(59.59,59.86)" id="img-a00fa6d7-92">
                <path d="M-0.33,-28.46 L 0.33 -28.46 0.33 28.46 -0.33 28.46 z" class="primitive"/>
              </g>
              <g transform="translate(60.21,59.86)" id="img-a00fa6d7-93">
                <path d="M-0.33,-28.46 L 0.33 -28.46 0.33 28.46 -0.33 28.46 z" class="primitive"/>
              </g>
              <g transform="translate(60.83,71.04)" id="img-a00fa6d7-94">
                <path d="M-0.33,-17.28 L 0.33 -17.28 0.33 17.28 -0.33 17.28 z" class="primitive"/>
              </g>
              <g transform="translate(61.45,56.81)" id="img-a00fa6d7-95">
                <path d="M-0.33,-31.51 L 0.33 -31.51 0.33 31.51 -0.33 31.51 z" class="primitive"/>
              </g>
              <g transform="translate(62.07,64.95)" id="img-a00fa6d7-96">
                <path d="M-0.33,-23.38 L 0.33 -23.38 0.33 23.38 -0.33 23.38 z" class="primitive"/>
              </g>
              <g transform="translate(62.69,63.93)" id="img-a00fa6d7-97">
                <path d="M-0.33,-24.4 L 0.33 -24.4 0.33 24.4 -0.33 24.4 z" class="primitive"/>
              </g>
              <g transform="translate(63.31,63.93)" id="img-a00fa6d7-98">
                <path d="M-0.33,-24.4 L 0.33 -24.4 0.33 24.4 -0.33 24.4 z" class="primitive"/>
              </g>
              <g transform="translate(63.93,65.96)" id="img-a00fa6d7-99">
                <path d="M-0.33,-22.36 L 0.33 -22.36 0.33 22.36 -0.33 22.36 z" class="primitive"/>
              </g>
              <g transform="translate(64.55,59.86)" id="img-a00fa6d7-100">
                <path d="M-0.33,-28.46 L 0.33 -28.46 0.33 28.46 -0.33 28.46 z" class="primitive"/>
              </g>
              <g transform="translate(65.17,57.83)" id="img-a00fa6d7-101">
                <path d="M-0.33,-30.5 L 0.33 -30.5 0.33 30.5 -0.33 30.5 z" class="primitive"/>
              </g>
              <g transform="translate(65.79,65.96)" id="img-a00fa6d7-102">
                <path d="M-0.33,-22.36 L 0.33 -22.36 0.33 22.36 -0.33 22.36 z" class="primitive"/>
              </g>
              <g transform="translate(66.41,49.7)" id="img-a00fa6d7-103">
                <path d="M-0.33,-38.63 L 0.33 -38.63 0.33 38.63 -0.33 38.63 z" class="primitive"/>
              </g>
              <g transform="translate(67.03,60.88)" id="img-a00fa6d7-104">
                <path d="M-0.33,-27.45 L 0.33 -27.45 0.33 27.45 -0.33 27.45 z" class="primitive"/>
              </g>
              <g transform="translate(67.65,63.93)" id="img-a00fa6d7-105">
                <path d="M-0.33,-24.4 L 0.33 -24.4 0.33 24.4 -0.33 24.4 z" class="primitive"/>
              </g>
              <g transform="translate(68.27,56.81)" id="img-a00fa6d7-106">
                <path d="M-0.33,-31.51 L 0.33 -31.51 0.33 31.51 -0.33 31.51 z" class="primitive"/>
              </g>
              <g transform="translate(68.89,57.83)" id="img-a00fa6d7-107">
                <path d="M-0.33,-30.5 L 0.33 -30.5 0.33 30.5 -0.33 30.5 z" class="primitive"/>
              </g>
              <g transform="translate(69.51,63.93)" id="img-a00fa6d7-108">
                <path d="M-0.33,-24.4 L 0.33 -24.4 0.33 24.4 -0.33 24.4 z" class="primitive"/>
              </g>
              <g transform="translate(70.13,64.95)" id="img-a00fa6d7-109">
                <path d="M-0.33,-23.38 L 0.33 -23.38 0.33 23.38 -0.33 23.38 z" class="primitive"/>
              </g>
              <g transform="translate(70.75,57.83)" id="img-a00fa6d7-110">
                <path d="M-0.33,-30.5 L 0.33 -30.5 0.33 30.5 -0.33 30.5 z" class="primitive"/>
              </g>
              <g transform="translate(71.37,68)" id="img-a00fa6d7-111">
                <path d="M-0.33,-20.33 L 0.33 -20.33 0.33 20.33 -0.33 20.33 z" class="primitive"/>
              </g>
              <g transform="translate(71.99,60.88)" id="img-a00fa6d7-112">
                <path d="M-0.33,-27.45 L 0.33 -27.45 0.33 27.45 -0.33 27.45 z" class="primitive"/>
              </g>
              <g transform="translate(72.61,74.09)" id="img-a00fa6d7-113">
                <path d="M-0.33,-14.23 L 0.33 -14.23 0.33 14.23 -0.33 14.23 z" class="primitive"/>
              </g>
              <g transform="translate(73.23,74.09)" id="img-a00fa6d7-114">
                <path d="M-0.33,-14.23 L 0.33 -14.23 0.33 14.23 -0.33 14.23 z" class="primitive"/>
              </g>
              <g transform="translate(73.85,71.04)" id="img-a00fa6d7-115">
                <path d="M-0.33,-17.28 L 0.33 -17.28 0.33 17.28 -0.33 17.28 z" class="primitive"/>
              </g>
              <g transform="translate(74.47,71.04)" id="img-a00fa6d7-116">
                <path d="M-0.33,-17.28 L 0.33 -17.28 0.33 17.28 -0.33 17.28 z" class="primitive"/>
              </g>
              <g transform="translate(75.08,79.18)" id="img-a00fa6d7-117">
                <path d="M-0.33,-9.15 L 0.33 -9.15 0.33 9.15 -0.33 9.15 z" class="primitive"/>
              </g>
              <g transform="translate(75.7,77.14)" id="img-a00fa6d7-118">
                <path d="M-0.33,-11.18 L 0.33 -11.18 0.33 11.18 -0.33 11.18 z" class="primitive"/>
              </g>
              <g transform="translate(76.32,75.11)" id="img-a00fa6d7-119">
                <path d="M-0.33,-13.22 L 0.33 -13.22 0.33 13.22 -0.33 13.22 z" class="primitive"/>
              </g>
              <g transform="translate(76.94,79.18)" id="img-a00fa6d7-120">
                <path d="M-0.33,-9.15 L 0.33 -9.15 0.33 9.15 -0.33 9.15 z" class="primitive"/>
              </g>
              <g transform="translate(77.56,77.14)" id="img-a00fa6d7-121">
                <path d="M-0.33,-11.18 L 0.33 -11.18 0.33 11.18 -0.33 11.18 z" class="primitive"/>
              </g>
              <g transform="translate(78.18,85.28)" id="img-a00fa6d7-122">
                <path d="M-0.33,-3.05 L 0.33 -3.05 0.33 3.05 -0.33 3.05 z" class="primitive"/>
              </g>
              <g transform="translate(78.8,83.24)" id="img-a00fa6d7-123">
                <path d="M-0.33,-5.08 L 0.33 -5.08 0.33 5.08 -0.33 5.08 z" class="primitive"/>
              </g>
              <g transform="translate(79.42,85.28)" id="img-a00fa6d7-124">
                <path d="M-0.33,-3.05 L 0.33 -3.05 0.33 3.05 -0.33 3.05 z" class="primitive"/>
              </g>
              <g transform="translate(80.04,87.31)" id="img-a00fa6d7-125">
                <path d="M-0.33,-1.02 L 0.33 -1.02 0.33 1.02 -0.33 1.02 z" class="primitive"/>
              </g>
              <g transform="translate(80.66,85.28)" id="img-a00fa6d7-126">
                <path d="M-0.33,-3.05 L 0.33 -3.05 0.33 3.05 -0.33 3.05 z" class="primitive"/>
              </g>
              <g transform="translate(81.28,85.28)" id="img-a00fa6d7-127">
                <path d="M-0.33,-3.05 L 0.33 -3.05 0.33 3.05 -0.33 3.05 z" class="primitive"/>
              </g>
              <g transform="translate(81.9,88.33)" id="img-a00fa6d7-128">
                <path d="M-0.33,-0 L 0.33 -0 0.33 0 -0.33 0 z" class="primitive"/>
              </g>
              <g transform="translate(82.52,87.31)" id="img-a00fa6d7-129">
                <path d="M-0.33,-1.02 L 0.33 -1.02 0.33 1.02 -0.33 1.02 z" class="primitive"/>
              </g>
              <g transform="translate(83.14,86.29)" id="img-a00fa6d7-130">
                <path d="M-0.33,-2.03 L 0.33 -2.03 0.33 2.03 -0.33 2.03 z" class="primitive"/>
              </g>
            </g>
          </g>
        </g>
      </g>
    </g>
  </g>
  <g class="guide ylabels" font-size="2.82" font-family="'PT Sans Caption','Helvetica Neue','Helvetica',sans-serif" fill="#6C606B" id="img-a00fa6d7-131">
    <g transform="translate(16.96,88.33)" id="img-a00fa6d7-132">
      <g class="primitive">
        <text text-anchor="end" dy="0.35em">0</text>
      </g>
    </g>
    <g transform="translate(16.96,68)" id="img-a00fa6d7-133">
      <g class="primitive">
        <text text-anchor="end" dy="0.35em">10</text>
      </g>
    </g>
    <g transform="translate(16.96,47.66)" id="img-a00fa6d7-134">
      <g class="primitive">
        <text text-anchor="end" dy="0.35em">20</text>
      </g>
    </g>
    <g transform="translate(16.96,27.33)" id="img-a00fa6d7-135">
      <g class="primitive">
        <text text-anchor="end" dy="0.35em">30</text>
      </g>
    </g>
    <g transform="translate(16.96,7)" id="img-a00fa6d7-136">
      <g class="primitive">
        <text text-anchor="end" dy="0.35em">40</text>
      </g>
    </g>
  </g>
  <g font-size="3.88" font-family="'PT Sans','Helvetica Neue','Helvetica',sans-serif" fill="#564A55" stroke="#000000" stroke-opacity="0.000" id="img-a00fa6d7-137">
    <g transform="translate(8.81,45.66)" id="img-a00fa6d7-138">
      <g class="primitive">
        <text text-anchor="middle" dy="0.35em" transform="rotate(-90,0, 2)">frequency</text>
      </g>
    </g>
  </g>
</g>
<defs>
  <clipPath id="img-a00fa6d7-11">
    <path d="M17.96,5 L 86.87 5 86.87 90.33 17.96 90.33" />
  </clipPath>
</defs>
</svg>
