<?xml version="1.0" encoding="UTF-8"?>
<svg xmlns="http://www.w3.org/2000/svg"
     xmlns:xlink="http://www.w3.org/1999/xlink"
     xmlns:gadfly="http://www.gadflyjl.org/ns"
     version="1.2"
     width="141.42mm" height="100mm" viewBox="0 0 141.42 100"
     stroke="none"
     fill="#000000"
     stroke-width="0.3"
     font-size="3.88"
>
<defs>
  <marker id="arrow" markerWidth="15" markerHeight="7" refX="5" refY="3.5" orient="auto" markerUnits="strokeWidth">
    <path d="M0,0 L15,3.5 L0,7 z" stroke="context-stroke" fill="context-stroke"/>
  </marker>
</defs>
<g class="plotroot xscalable yscalable" id="img-2c4648ef-1">
  <g class="guide xlabels" font-size="2.82" font-family="'PT Sans Caption','Helvetica Neue','Helvetica',sans-serif" fill="#6C606B" id="img-2c4648ef-2">
    <g transform="translate(19.96,78.54)">
      <g class="primitive">
        <text text-anchor="end" dy="0.35em" transform="rotate(-90,0, 0)">1.250×10⁷</text>
      </g>
    </g>
    <g transform="translate(34.43,78.54)">
      <g class="primitive">
        <text text-anchor="end" dy="0.35em" transform="rotate(-90,0, 0)">1.300×10⁷</text>
      </g>
    </g>
    <g transform="translate(48.91,78.54)">
      <g class="primitive">
        <text text-anchor="end" dy="0.35em" transform="rotate(-90,0, 0)">1.350×10⁷</text>
      </g>
    </g>
    <g transform="translate(63.39,78.54)">
      <g class="primitive">
        <text text-anchor="end" dy="0.35em" transform="rotate(-90,0, 0)">1.400×10⁷</text>
      </g>
    </g>
    <g transform="translate(77.86,78.54)">
      <g class="primitive">
        <text text-anchor="end" dy="0.35em" transform="rotate(-90,0, 0)">1.450×10⁷</text>
      </g>
    </g>
  </g>
  <g class="guide colorkey" id="img-2c4648ef-3">
    <g class="color_coding_noncoding_coding_noncoding_4-tail" id="img-2c4648ef-4">
      <g fill="#4C404B" font-size="2.82" font-family="'PT Sans','Helvetica Neue','Helvetica',sans-serif" id="img-2c4648ef-5">
        <g transform="translate(83.67,43.08)" id="img-2c4648ef-6">
          <g class="primitive">
            <text dy="0.35em">coding_noncoding_coding_noncoding_4-tail</text>
          </g>
        </g>
      </g>
      <g fill-opacity="1" fill="#00BFFF" stroke="#FFFFFF" id="img-2c4648ef-7">
        <g transform="translate(81.77,43.08)" id="img-2c4648ef-8">
          <path d="M-0.91,-0.91 L0.91,-0.91 0.91,0.91 -0.91,0.91  z" class="primitive"/>
        </g>
      </g>
    </g>
    <g fill="#362A35" font-size="3.88" font-family="'PT Sans','Helvetica Neue','Helvetica',sans-serif" stroke="#000000" stroke-opacity="0.000" id="img-2c4648ef-9">
      <g transform="translate(80.86,39.26)" id="img-2c4648ef-10">
        <g class="primitive">
          <text dy="-0em">graphlet</text>
        </g>
      </g>
    </g>
  </g>
  <g clip-path="url(#img-2c4648ef-11)">
    <g id="img-2c4648ef-12">
      <g pointer-events="visible" stroke-width="0.3" fill="#000000" fill-opacity="0.000" stroke="#000000" stroke-opacity="0.000" class="guide background" id="img-2c4648ef-13">
        <g transform="translate(48.91,41.27)" id="img-2c4648ef-14">
          <path d="M-30.95,-36.27 L30.95,-36.27 30.95,36.27 -30.95,36.27  z" class="primitive"/>
        </g>
      </g>
      <g class="guide ygridlines xfixed" stroke-dasharray="0.5,0.5" stroke-width="0.2" stroke="#D0D0E0" id="img-2c4648ef-15">
        <g transform="translate(48.91,75.54)" id="img-2c4648ef-16">
          <path fill="none" d="M-30.95,0 L30.95,0 " class="primitive"/>
        </g>
        <g transform="translate(48.91,58.41)" id="img-2c4648ef-17">
          <path fill="none" d="M-30.95,0 L30.95,0 " class="primitive"/>
        </g>
        <g transform="translate(48.91,41.27)" id="img-2c4648ef-18">
          <path fill="none" d="M-30.95,0 L30.95,0 " class="primitive"/>
        </g>
        <g transform="translate(48.91,24.14)" id="img-2c4648ef-19">
          <path fill="none" d="M-30.95,0 L30.95,0 " class="primitive"/>
        </g>
        <g transform="translate(48.91,7)" id="img-2c4648ef-20">
          <path fill="none" d="M-30.95,0 L30.95,0 " class="primitive"/>
        </g>
      </g>
      <g class="guide xgridlines yfixed" stroke-dasharray="0.5,0.5" stroke-width="0.2" stroke="#D0D0E0" id="img-2c4648ef-21">
        <g transform="translate(19.96,41.27)" id="img-2c4648ef-22">
          <path fill="none" d="M0,-36.27 L0,36.27 " class="primitive"/>
        </g>
        <g transform="translate(34.43,41.27)" id="img-2c4648ef-23">
          <path fill="none" d="M0,-36.27 L0,36.27 " class="primitive"/>
        </g>
        <g transform="translate(48.91,41.27)" id="img-2c4648ef-24">
          <path fill="none" d="M0,-36.27 L0,36.27 " class="primitive"/>
        </g>
        <g transform="translate(63.39,41.27)" id="img-2c4648ef-25">
          <path fill="none" d="M0,-36.27 L0,36.27 " class="primitive"/>
        </g>
        <g transform="translate(77.86,41.27)" id="img-2c4648ef-26">
          <path fill="none" d="M0,-36.27 L0,36.27 " class="primitive"/>
        </g>
      </g>
      <g class="plotpanel" id="img-2c4648ef-27">
        <metadata>
          <boundingbox value="17.958333333333336mm 5.0mm 61.903022903976186mm 72.54mm"/>
          <unitbox value="1.243091897798439e7 41.16720163408229 2.138162044031222e6 -42.33440326816457"/>
        </metadata>
        <g shape-rendering="crispEdges" stroke-width="0.3" id="img-2c4648ef-28">
          <g stroke="#000000" stroke-opacity="0.000" class="geometry" id="img-2c4648ef-29">
            <g fill="#00BFFF" id="img-2c4648ef-30">
              <g transform="translate(31.33,74.68)" id="img-2c4648ef-31">
                <path d="M-0.21,-0.86 L0.21,-0.86 0.21,0.86 -0.21,0.86  z" class="primitive"/>
              </g>
              <g transform="translate(31.7,75.55)" id="img-2c4648ef-32">
                <path d="M-0.21,-0 L0.21,-0 0.21,0 -0.21,0  z" class="primitive"/>
              </g>
              <g transform="translate(32.07,75.55)" id="img-2c4648ef-33">
                <path d="M-0.21,-0 L0.21,-0 0.21,0 -0.21,0  z" class="primitive"/>
              </g>
              <g transform="translate(32.45,75.55)" id="img-2c4648ef-34">
                <path d="M-0.21,-0 L0.21,-0 0.21,0 -0.21,0  z" class="primitive"/>
              </g>
              <g transform="translate(32.82,75.55)" id="img-2c4648ef-35">
                <path d="M-0.21,-0 L0.21,-0 0.21,0 -0.21,0  z" class="primitive"/>
              </g>
              <g transform="translate(33.2,75.55)" id="img-2c4648ef-36">
                <path d="M-0.21,-0 L0.21,-0 0.21,0 -0.21,0  z" class="primitive"/>
              </g>
              <g transform="translate(33.57,75.55)" id="img-2c4648ef-37">
                <path d="M-0.21,-0 L0.21,-0 0.21,0 -0.21,0  z" class="primitive"/>
              </g>
              <g transform="translate(33.94,74.68)" id="img-2c4648ef-38">
                <path d="M-0.21,-0.86 L0.21,-0.86 0.21,0.86 -0.21,0.86  z" class="primitive"/>
              </g>
              <g transform="translate(34.32,74.68)" id="img-2c4648ef-39">
                <path d="M-0.21,-0.86 L0.21,-0.86 0.21,0.86 -0.21,0.86  z" class="primitive"/>
              </g>
              <g transform="translate(34.69,74.68)" id="img-2c4648ef-40">
                <path d="M-0.21,-0.86 L0.21,-0.86 0.21,0.86 -0.21,0.86  z" class="primitive"/>
              </g>
              <g transform="translate(35.07,72.11)" id="img-2c4648ef-41">
                <path d="M-0.21,-3.43 L0.21,-3.43 0.21,3.43 -0.21,3.43  z" class="primitive"/>
              </g>
              <g transform="translate(35.44,73.83)" id="img-2c4648ef-42">
                <path d="M-0.21,-1.71 L0.21,-1.71 0.21,1.71 -0.21,1.71  z" class="primitive"/>
              </g>
              <g transform="translate(35.81,73.83)" id="img-2c4648ef-43">
                <path d="M-0.21,-1.71 L0.21,-1.71 0.21,1.71 -0.21,1.71  z" class="primitive"/>
              </g>
              <g transform="translate(36.19,72.97)" id="img-2c4648ef-44">
                <path d="M-0.21,-2.57 L0.21,-2.57 0.21,2.57 -0.21,2.57  z" class="primitive"/>
              </g>
              <g transform="translate(36.56,74.68)" id="img-2c4648ef-45">
                <path d="M-0.21,-0.86 L0.21,-0.86 0.21,0.86 -0.21,0.86  z" class="primitive"/>
              </g>
              <g transform="translate(36.94,71.26)" id="img-2c4648ef-46">
                <path d="M-0.21,-4.28 L0.21,-4.28 0.21,4.28 -0.21,4.28  z" class="primitive"/>
              </g>
              <g transform="translate(37.31,72.97)" id="img-2c4648ef-47">
                <path d="M-0.21,-2.57 L0.21,-2.57 0.21,2.57 -0.21,2.57  z" class="primitive"/>
              </g>
              <g transform="translate(37.68,74.68)" id="img-2c4648ef-48">
                <path d="M-0.21,-0.86 L0.21,-0.86 0.21,0.86 -0.21,0.86  z" class="primitive"/>
              </g>
              <g transform="translate(38.06,74.68)" id="img-2c4648ef-49">
                <path d="M-0.21,-0.86 L0.21,-0.86 0.21,0.86 -0.21,0.86  z" class="primitive"/>
              </g>
              <g transform="translate(38.43,68.69)" id="img-2c4648ef-50">
                <path d="M-0.21,-6.85 L0.21,-6.85 0.21,6.85 -0.21,6.85  z" class="primitive"/>
              </g>
              <g transform="translate(38.8,72.97)" id="img-2c4648ef-51">
                <path d="M-0.21,-2.57 L0.21,-2.57 0.21,2.57 -0.21,2.57  z" class="primitive"/>
              </g>
              <g transform="translate(39.18,70.4)" id="img-2c4648ef-52">
                <path d="M-0.21,-5.14 L0.21,-5.14 0.21,5.14 -0.21,5.14  z" class="primitive"/>
              </g>
              <g transform="translate(39.55,73.83)" id="img-2c4648ef-53">
                <path d="M-0.21,-1.71 L0.21,-1.71 0.21,1.71 -0.21,1.71  z" class="primitive"/>
              </g>
              <g transform="translate(39.93,72.97)" id="img-2c4648ef-54">
                <path d="M-0.21,-2.57 L0.21,-2.57 0.21,2.57 -0.21,2.57  z" class="primitive"/>
              </g>
              <g transform="translate(40.3,69.54)" id="img-2c4648ef-55">
                <path d="M-0.21,-6 L0.21,-6 0.21,6 -0.21,6  z" class="primitive"/>
              </g>
              <g transform="translate(40.67,64.4)" id="img-2c4648ef-56">
                <path d="M-0.21,-11.14 L0.21,-11.14 0.21,11.14 -0.21,11.14  z" class="primitive"/>
              </g>
              <g transform="translate(41.05,71.26)" id="img-2c4648ef-57">
                <path d="M-0.21,-4.28 L0.21,-4.28 0.21,4.28 -0.21,4.28  z" class="primitive"/>
              </g>
              <g transform="translate(41.42,66.12)" id="img-2c4648ef-58">
                <path d="M-0.21,-9.42 L0.21,-9.42 0.21,9.42 -0.21,9.42  z" class="primitive"/>
              </g>
              <g transform="translate(41.8,68.69)" id="img-2c4648ef-59">
                <path d="M-0.21,-6.85 L0.21,-6.85 0.21,6.85 -0.21,6.85  z" class="primitive"/>
              </g>
              <g transform="translate(42.17,69.54)" id="img-2c4648ef-60">
                <path d="M-0.21,-6 L0.21,-6 0.21,6 -0.21,6  z" class="primitive"/>
              </g>
              <g transform="translate(42.54,65.26)" id="img-2c4648ef-61">
                <path d="M-0.21,-10.28 L0.21,-10.28 0.21,10.28 -0.21,10.28  z" class="primitive"/>
              </g>
              <g transform="translate(42.92,64.4)" id="img-2c4648ef-62">
                <path d="M-0.21,-11.14 L0.21,-11.14 0.21,11.14 -0.21,11.14  z" class="primitive"/>
              </g>
              <g transform="translate(43.29,68.69)" id="img-2c4648ef-63">
                <path d="M-0.21,-6.85 L0.21,-6.85 0.21,6.85 -0.21,6.85  z" class="primitive"/>
              </g>
              <g transform="translate(43.67,63.55)" id="img-2c4648ef-64">
                <path d="M-0.21,-11.99 L0.21,-11.99 0.21,11.99 -0.21,11.99  z" class="primitive"/>
              </g>
              <g transform="translate(44.04,62.69)" id="img-2c4648ef-65">
                <path d="M-0.21,-12.85 L0.21,-12.85 0.21,12.85 -0.21,12.85  z" class="primitive"/>
              </g>
              <g transform="translate(44.41,55.83)" id="img-2c4648ef-66">
                <path d="M-0.21,-19.71 L0.21,-19.71 0.21,19.71 -0.21,19.71  z" class="primitive"/>
              </g>
              <g transform="translate(44.79,65.26)" id="img-2c4648ef-67">
                <path d="M-0.21,-10.28 L0.21,-10.28 0.21,10.28 -0.21,10.28  z" class="primitive"/>
              </g>
              <g transform="translate(45.16,60.12)" id="img-2c4648ef-68">
                <path d="M-0.21,-15.42 L0.21,-15.42 0.21,15.42 -0.21,15.42  z" class="primitive"/>
              </g>
              <g transform="translate(45.53,60.98)" id="img-2c4648ef-69">
                <path d="M-0.21,-14.56 L0.21,-14.56 0.21,14.56 -0.21,14.56  z" class="primitive"/>
              </g>
              <g transform="translate(45.91,64.4)" id="img-2c4648ef-70">
                <path d="M-0.21,-11.14 L0.21,-11.14 0.21,11.14 -0.21,11.14  z" class="primitive"/>
              </g>
              <g transform="translate(46.28,64.4)" id="img-2c4648ef-71">
                <path d="M-0.21,-11.14 L0.21,-11.14 0.21,11.14 -0.21,11.14  z" class="primitive"/>
              </g>
              <g transform="translate(46.66,48.98)" id="img-2c4648ef-72">
                <path d="M-0.21,-26.56 L0.21,-26.56 0.21,26.56 -0.21,26.56  z" class="primitive"/>
              </g>
              <g transform="translate(47.03,57.55)" id="img-2c4648ef-73">
                <path d="M-0.21,-17.99 L0.21,-17.99 0.21,17.99 -0.21,17.99  z" class="primitive"/>
              </g>
              <g transform="translate(47.4,57.55)" id="img-2c4648ef-74">
                <path d="M-0.21,-17.99 L0.21,-17.99 0.21,17.99 -0.21,17.99  z" class="primitive"/>
              </g>
              <g transform="translate(47.78,46.41)" id="img-2c4648ef-75">
                <path d="M-0.21,-29.13 L0.21,-29.13 0.21,29.13 -0.21,29.13  z" class="primitive"/>
              </g>
              <g transform="translate(48.15,51.55)" id="img-2c4648ef-76">
                <path d="M-0.21,-23.99 L0.21,-23.99 0.21,23.99 -0.21,23.99  z" class="primitive"/>
              </g>
              <g transform="translate(48.53,51.55)" id="img-2c4648ef-77">
                <path d="M-0.21,-23.99 L0.21,-23.99 0.21,23.99 -0.21,23.99  z" class="primitive"/>
              </g>
              <g transform="translate(48.9,49.84)" id="img-2c4648ef-78">
                <path d="M-0.21,-25.7 L0.21,-25.7 0.21,25.7 -0.21,25.7  z" class="primitive"/>
              </g>
              <g transform="translate(49.27,50.69)" id="img-2c4648ef-79">
                <path d="M-0.21,-24.85 L0.21,-24.85 0.21,24.85 -0.21,24.85  z" class="primitive"/>
              </g>
              <g transform="translate(49.65,54.98)" id="img-2c4648ef-80">
                <path d="M-0.21,-20.56 L0.21,-20.56 0.21,20.56 -0.21,20.56  z" class="primitive"/>
              </g>
              <g transform="translate(50.02,54.98)" id="img-2c4648ef-81">
                <path d="M-0.21,-20.56 L0.21,-20.56 0.21,20.56 -0.21,20.56  z" class="primitive"/>
              </g>
              <g transform="translate(50.4,49.84)" id="img-2c4648ef-82">
                <path d="M-0.21,-25.7 L0.21,-25.7 0.21,25.7 -0.21,25.7  z" class="primitive"/>
              </g>
              <g transform="translate(50.77,58.41)" id="img-2c4648ef-83">
                <path d="M-0.21,-17.14 L0.21,-17.14 0.21,17.14 -0.21,17.14  z" class="primitive"/>
              </g>
              <g transform="translate(51.14,54.12)" id="img-2c4648ef-84">
                <path d="M-0.21,-21.42 L0.21,-21.42 0.21,21.42 -0.21,21.42  z" class="primitive"/>
              </g>
              <g transform="translate(51.52,48.98)" id="img-2c4648ef-85">
                <path d="M-0.21,-26.56 L0.21,-26.56 0.21,26.56 -0.21,26.56  z" class="primitive"/>
              </g>
              <g transform="translate(51.89,51.55)" id="img-2c4648ef-86">
                <path d="M-0.21,-23.99 L0.21,-23.99 0.21,23.99 -0.21,23.99  z" class="primitive"/>
              </g>
              <g transform="translate(52.27,55.83)" id="img-2c4648ef-87">
                <path d="M-0.21,-19.71 L0.21,-19.71 0.21,19.71 -0.21,19.71  z" class="primitive"/>
              </g>
              <g transform="translate(52.64,61.83)" id="img-2c4648ef-88">
                <path d="M-0.21,-13.71 L0.21,-13.71 0.21,13.71 -0.21,13.71  z" class="primitive"/>
              </g>
              <g transform="translate(53.01,58.41)" id="img-2c4648ef-89">
                <path d="M-0.21,-17.14 L0.21,-17.14 0.21,17.14 -0.21,17.14  z" class="primitive"/>
              </g>
              <g transform="translate(53.39,51.55)" id="img-2c4648ef-90">
                <path d="M-0.21,-23.99 L0.21,-23.99 0.21,23.99 -0.21,23.99  z" class="primitive"/>
              </g>
              <g transform="translate(53.76,57.55)" id="img-2c4648ef-91">
                <path d="M-0.21,-17.99 L0.21,-17.99 0.21,17.99 -0.21,17.99  z" class="primitive"/>
              </g>
              <g transform="translate(54.13,63.55)" id="img-2c4648ef-92">
                <path d="M-0.21,-11.99 L0.21,-11.99 0.21,11.99 -0.21,11.99  z" class="primitive"/>
              </g>
              <g transform="translate(54.51,57.55)" id="img-2c4648ef-93">
                <path d="M-0.21,-17.99 L0.21,-17.99 0.21,17.99 -0.21,17.99  z" class="primitive"/>
              </g>
              <g transform="translate(54.88,61.83)" id="img-2c4648ef-94">
                <path d="M-0.21,-13.71 L0.21,-13.71 0.21,13.71 -0.21,13.71  z" class="primitive"/>
              </g>
              <g transform="translate(55.26,65.26)" id="img-2c4648ef-95">
                <path d="M-0.21,-10.28 L0.21,-10.28 0.21,10.28 -0.21,10.28  z" class="primitive"/>
              </g>
              <g transform="translate(55.63,58.41)" id="img-2c4648ef-96">
                <path d="M-0.21,-17.14 L0.21,-17.14 0.21,17.14 -0.21,17.14  z" class="primitive"/>
              </g>
              <g transform="translate(56,57.55)" id="img-2c4648ef-97">
                <path d="M-0.21,-17.99 L0.21,-17.99 0.21,17.99 -0.21,17.99  z" class="primitive"/>
              </g>
              <g transform="translate(56.38,56.69)" id="img-2c4648ef-98">
                <path d="M-0.21,-18.85 L0.21,-18.85 0.21,18.85 -0.21,18.85  z" class="primitive"/>
              </g>
              <g transform="translate(56.75,64.4)" id="img-2c4648ef-99">
                <path d="M-0.21,-11.14 L0.21,-11.14 0.21,11.14 -0.21,11.14  z" class="primitive"/>
              </g>
              <g transform="translate(57.13,70.4)" id="img-2c4648ef-100">
                <path d="M-0.21,-5.14 L0.21,-5.14 0.21,5.14 -0.21,5.14  z" class="primitive"/>
              </g>
              <g transform="translate(57.5,68.69)" id="img-2c4648ef-101">
                <path d="M-0.21,-6.85 L0.21,-6.85 0.21,6.85 -0.21,6.85  z" class="primitive"/>
              </g>
              <g transform="translate(57.87,69.54)" id="img-2c4648ef-102">
                <path d="M-0.21,-6 L0.21,-6 0.21,6 -0.21,6  z" class="primitive"/>
              </g>
              <g transform="translate(58.25,62.69)" id="img-2c4648ef-103">
                <path d="M-0.21,-12.85 L0.21,-12.85 0.21,12.85 -0.21,12.85  z" class="primitive"/>
              </g>
              <g transform="translate(58.62,67.83)" id="img-2c4648ef-104">
                <path d="M-0.21,-7.71 L0.21,-7.71 0.21,7.71 -0.21,7.71  z" class="primitive"/>
              </g>
              <g transform="translate(59,70.4)" id="img-2c4648ef-105">
                <path d="M-0.21,-5.14 L0.21,-5.14 0.21,5.14 -0.21,5.14  z" class="primitive"/>
              </g>
              <g transform="translate(59.37,71.26)" id="img-2c4648ef-106">
                <path d="M-0.21,-4.28 L0.21,-4.28 0.21,4.28 -0.21,4.28  z" class="primitive"/>
              </g>
              <g transform="translate(59.74,72.11)" id="img-2c4648ef-107">
                <path d="M-0.21,-3.43 L0.21,-3.43 0.21,3.43 -0.21,3.43  z" class="primitive"/>
              </g>
              <g transform="translate(60.12,72.97)" id="img-2c4648ef-108">
                <path d="M-0.21,-2.57 L0.21,-2.57 0.21,2.57 -0.21,2.57  z" class="primitive"/>
              </g>
              <g transform="translate(60.49,72.11)" id="img-2c4648ef-109">
                <path d="M-0.21,-3.43 L0.21,-3.43 0.21,3.43 -0.21,3.43  z" class="primitive"/>
              </g>
              <g transform="translate(60.86,70.4)" id="img-2c4648ef-110">
                <path d="M-0.21,-5.14 L0.21,-5.14 0.21,5.14 -0.21,5.14  z" class="primitive"/>
              </g>
              <g transform="translate(61.24,72.11)" id="img-2c4648ef-111">
                <path d="M-0.21,-3.43 L0.21,-3.43 0.21,3.43 -0.21,3.43  z" class="primitive"/>
              </g>
              <g transform="translate(61.61,73.83)" id="img-2c4648ef-112">
                <path d="M-0.21,-1.71 L0.21,-1.71 0.21,1.71 -0.21,1.71  z" class="primitive"/>
              </g>
              <g transform="translate(61.99,72.97)" id="img-2c4648ef-113">
                <path d="M-0.21,-2.57 L0.21,-2.57 0.21,2.57 -0.21,2.57  z" class="primitive"/>
              </g>
              <g transform="translate(62.36,74.68)" id="img-2c4648ef-114">
                <path d="M-0.21,-0.86 L0.21,-0.86 0.21,0.86 -0.21,0.86  z" class="primitive"/>
              </g>
              <g transform="translate(62.73,73.83)" id="img-2c4648ef-115">
                <path d="M-0.21,-1.71 L0.21,-1.71 0.21,1.71 -0.21,1.71  z" class="primitive"/>
              </g>
              <g transform="translate(63.11,75.55)" id="img-2c4648ef-116">
                <path d="M-0.21,-0 L0.21,-0 0.21,0 -0.21,0  z" class="primitive"/>
              </g>
              <g transform="translate(63.48,74.68)" id="img-2c4648ef-117">
                <path d="M-0.21,-0.86 L0.21,-0.86 0.21,0.86 -0.21,0.86  z" class="primitive"/>
              </g>
              <g transform="translate(63.86,74.68)" id="img-2c4648ef-118">
                <path d="M-0.21,-0.86 L0.21,-0.86 0.21,0.86 -0.21,0.86  z" class="primitive"/>
              </g>
              <g transform="translate(64.23,73.83)" id="img-2c4648ef-119">
                <path d="M-0.21,-1.71 L0.21,-1.71 0.21,1.71 -0.21,1.71  z" class="primitive"/>
              </g>
              <g transform="translate(64.6,74.68)" id="img-2c4648ef-120">
                <path d="M-0.21,-0.86 L0.21,-0.86 0.21,0.86 -0.21,0.86  z" class="primitive"/>
              </g>
              <g transform="translate(64.98,75.55)" id="img-2c4648ef-121">
                <path d="M-0.21,-0 L0.21,-0 0.21,0 -0.21,0  z" class="primitive"/>
              </g>
              <g transform="translate(65.35,74.68)" id="img-2c4648ef-122">
                <path d="M-0.21,-0.86 L0.21,-0.86 0.21,0.86 -0.21,0.86  z" class="primitive"/>
              </g>
              <g transform="translate(65.73,75.55)" id="img-2c4648ef-123">
                <path d="M-0.21,-0 L0.21,-0 0.21,0 -0.21,0  z" class="primitive"/>
              </g>
              <g transform="translate(66.1,75.55)" id="img-2c4648ef-124">
                <path d="M-0.21,-0 L0.21,-0 0.21,0 -0.21,0  z" class="primitive"/>
              </g>
              <g transform="translate(66.47,75.55)" id="img-2c4648ef-125">
                <path d="M-0.21,-0 L0.21,-0 0.21,0 -0.21,0  z" class="primitive"/>
              </g>
              <g transform="translate(66.85,75.55)" id="img-2c4648ef-126">
                <path d="M-0.21,-0 L0.21,-0 0.21,0 -0.21,0  z" class="primitive"/>
              </g>
              <g transform="translate(67.22,75.55)" id="img-2c4648ef-127">
                <path d="M-0.21,-0 L0.21,-0 0.21,0 -0.21,0  z" class="primitive"/>
              </g>
              <g transform="translate(67.6,75.55)" id="img-2c4648ef-128">
                <path d="M-0.21,-0 L0.21,-0 0.21,0 -0.21,0  z" class="primitive"/>
              </g>
              <g transform="translate(67.97,75.55)" id="img-2c4648ef-129">
                <path d="M-0.21,-0 L0.21,-0 0.21,0 -0.21,0  z" class="primitive"/>
              </g>
              <g transform="translate(68.34,74.68)" id="img-2c4648ef-130">
                <path d="M-0.21,-0.86 L0.21,-0.86 0.21,0.86 -0.21,0.86  z" class="primitive"/>
              </g>
            </g>
          </g>
        </g>
      </g>
    </g>
  </g>
  <g class="guide ylabels" font-size="2.82" font-family="'PT Sans Caption','Helvetica Neue','Helvetica',sans-serif" fill="#6C606B" id="img-2c4648ef-131">
    <g transform="translate(16.96,75.54)" id="img-2c4648ef-132">
      <g class="primitive">
        <text text-anchor="end" dy="0.35em">0</text>
      </g>
    </g>
    <g transform="translate(16.96,58.41)" id="img-2c4648ef-133">
      <g class="primitive">
        <text text-anchor="end" dy="0.35em">10</text>
      </g>
    </g>
    <g transform="translate(16.96,41.27)" id="img-2c4648ef-134">
      <g class="primitive">
        <text text-anchor="end" dy="0.35em">20</text>
      </g>
    </g>
    <g transform="translate(16.96,24.14)" id="img-2c4648ef-135">
      <g class="primitive">
        <text text-anchor="end" dy="0.35em">30</text>
      </g>
    </g>
    <g transform="translate(16.96,7)" id="img-2c4648ef-136">
      <g class="primitive">
        <text text-anchor="end" dy="0.35em">40</text>
      </g>
    </g>
  </g>
  <g font-size="3.88" font-family="'PT Sans','Helvetica Neue','Helvetica',sans-serif" fill="#564A55" stroke="#000000" stroke-opacity="0.000" id="img-2c4648ef-137">
    <g transform="translate(8.81,39.27)" id="img-2c4648ef-138">
      <g class="primitive">
        <text text-anchor="middle" dy="0.35em" transform="rotate(-90,0, 2)">frequency</text>
      </g>
    </g>
  </g>
</g>
<defs>
  <clipPath id="img-2c4648ef-11">
    <path d="M17.96,5 L79.86,5 79.86,77.54 17.96,77.54 " />
  </clipPath>
</defs>
</svg>
