<?xml version="1.0" encoding="UTF-8"?>
<svg xmlns="http://www.w3.org/2000/svg"
     xmlns:xlink="http://www.w3.org/1999/xlink"
     xmlns:gadfly="http://www.gadflyjl.org/ns"
     version="1.2"
     width="141.42mm" height="100mm" viewBox="0 0 141.42 100"
     stroke="none"
     fill="#000000"
     stroke-width="0.3"
     font-size="3.88"
>
<defs>
  <marker id="arrow" markerWidth="15" markerHeight="7" refX="5" refY="3.5" orient="auto" markerUnits="strokeWidth">
    <path d="M0,0 L15,3.5 L0,7 z" stroke="context-stroke" fill="context-stroke"/>
  </marker>
</defs>
<g class="plotroot xscalable yscalable" id="img-8a760936-1">
  <g class="guide xlabels" font-size="2.82" font-family="'PT Sans Caption','Helvetica Neue','Helvetica',sans-serif" fill="#6C606B" id="img-8a760936-2">
    <g transform="translate(19.96,91.33)">
      <g class="primitive">
        <text text-anchor="middle" dy="0.6em">0</text>
      </g>
    </g>
    <g transform="translate(32.44,91.33)">
      <g class="primitive">
        <text text-anchor="middle" dy="0.6em">500</text>
      </g>
    </g>
    <g transform="translate(44.92,91.33)">
      <g class="primitive">
        <text text-anchor="middle" dy="0.6em">1000</text>
      </g>
    </g>
    <g transform="translate(57.41,91.33)">
      <g class="primitive">
        <text text-anchor="middle" dy="0.6em">1500</text>
      </g>
    </g>
    <g transform="translate(69.89,91.33)">
      <g class="primitive">
        <text text-anchor="middle" dy="0.6em">2000</text>
      </g>
    </g>
  </g>
  <g class="guide colorkey" id="img-8a760936-3">
    <g class="color_coding_noncoding_noncoding_noncoding_4-clique" id="img-8a760936-4">
      <g fill="#4C404B" font-size="2.82" font-family="'PT Sans','Helvetica Neue','Helvetica',sans-serif" id="img-8a760936-5">
        <g transform="translate(75.7,49.48)" id="img-8a760936-6">
          <g class="primitive">
            <text dy="0.35em">coding_noncoding_noncoding_noncoding_4-clique</text>
          </g>
        </g>
      </g>
      <g fill-opacity="1" fill="#00BFFF" stroke="#FFFFFF" id="img-8a760936-7">
        <g transform="translate(73.79,49.48)" id="img-8a760936-8">
          <path d="M-0.91,-0.91 L0.91,-0.91 0.91,0.91 -0.91,0.91  z" class="primitive"/>
        </g>
      </g>
    </g>
    <g fill="#362A35" font-size="3.88" font-family="'PT Sans','Helvetica Neue','Helvetica',sans-serif" stroke="#000000" stroke-opacity="0.000" id="img-8a760936-9">
      <g transform="translate(72.89,45.66)" id="img-8a760936-10">
        <g class="primitive">
          <text dy="-0em">graphlet</text>
        </g>
      </g>
    </g>
  </g>
  <g clip-path="url(#img-8a760936-11)">
    <g id="img-8a760936-12">
      <g pointer-events="visible" stroke-width="0.3" fill="#000000" fill-opacity="0.000" stroke="#000000" stroke-opacity="0.000" class="guide background" id="img-8a760936-13">
        <g transform="translate(44.92,47.66)" id="img-8a760936-14">
          <path d="M-26.96,-42.66 L26.96,-42.66 26.96,42.66 -26.96,42.66  z" class="primitive"/>
        </g>
      </g>
      <g class="guide ygridlines xfixed" stroke-dasharray="0.5,0.5" stroke-width="0.2" stroke="#D0D0E0" id="img-8a760936-15">
        <g transform="translate(44.92,88.33)" id="img-8a760936-16">
          <path fill="none" d="M-26.96,0 L26.96,0 " class="primitive"/>
        </g>
        <g transform="translate(44.92,68)" id="img-8a760936-17">
          <path fill="none" d="M-26.96,0 L26.96,0 " class="primitive"/>
        </g>
        <g transform="translate(44.92,47.66)" id="img-8a760936-18">
          <path fill="none" d="M-26.96,0 L26.96,0 " class="primitive"/>
        </g>
        <g transform="translate(44.92,27.33)" id="img-8a760936-19">
          <path fill="none" d="M-26.96,0 L26.96,0 " class="primitive"/>
        </g>
        <g transform="translate(44.92,7)" id="img-8a760936-20">
          <path fill="none" d="M-26.96,0 L26.96,0 " class="primitive"/>
        </g>
      </g>
      <g class="guide xgridlines yfixed" stroke-dasharray="0.5,0.5" stroke-width="0.2" stroke="#D0D0E0" id="img-8a760936-21">
        <g transform="translate(19.96,47.66)" id="img-8a760936-22">
          <path fill="none" d="M0,-42.66 L0,42.66 " class="primitive"/>
        </g>
        <g transform="translate(32.44,47.66)" id="img-8a760936-23">
          <path fill="none" d="M0,-42.66 L0,42.66 " class="primitive"/>
        </g>
        <g transform="translate(44.92,47.66)" id="img-8a760936-24">
          <path fill="none" d="M0,-42.66 L0,42.66 " class="primitive"/>
        </g>
        <g transform="translate(57.41,47.66)" id="img-8a760936-25">
          <path fill="none" d="M0,-42.66 L0,42.66 " class="primitive"/>
        </g>
        <g transform="translate(69.89,47.66)" id="img-8a760936-26">
          <path fill="none" d="M0,-42.66 L0,42.66 " class="primitive"/>
        </g>
      </g>
      <g class="plotpanel" id="img-8a760936-27">
        <metadata>
          <boundingbox value="17.958333333333336mm 5.0mm 53.92968957064283mm 85.32666666666667mm"/>
          <unitbox value="-80.11265510354546 40.98368718747438 2160.225310207091 -41.96737437494876"/>
        </metadata>
        <g shape-rendering="crispEdges" stroke-width="0.3" id="img-8a760936-28">
          <g stroke="#000000" stroke-opacity="0.000" class="geometry" id="img-8a760936-29">
            <g fill="#00BFFF" id="img-8a760936-30">
              <g transform="translate(38.68,86.29)" id="img-8a760936-31">
                <path d="M-0.17,-2.03 L0.17,-2.03 0.17,2.03 -0.17,2.03  z" class="primitive"/>
              </g>
              <g transform="translate(38.96,87.31)" id="img-8a760936-32">
                <path d="M-0.17,-1.02 L0.17,-1.02 0.17,1.02 -0.17,1.02  z" class="primitive"/>
              </g>
              <g transform="translate(39.25,87.31)" id="img-8a760936-33">
                <path d="M-0.17,-1.02 L0.17,-1.02 0.17,1.02 -0.17,1.02  z" class="primitive"/>
              </g>
              <g transform="translate(39.54,86.29)" id="img-8a760936-34">
                <path d="M-0.17,-2.03 L0.17,-2.03 0.17,2.03 -0.17,2.03  z" class="primitive"/>
              </g>
              <g transform="translate(39.83,86.29)" id="img-8a760936-35">
                <path d="M-0.17,-2.03 L0.17,-2.03 0.17,2.03 -0.17,2.03  z" class="primitive"/>
              </g>
              <g transform="translate(40.11,85.28)" id="img-8a760936-36">
                <path d="M-0.17,-3.05 L0.17,-3.05 0.17,3.05 -0.17,3.05  z" class="primitive"/>
              </g>
              <g transform="translate(40.4,87.31)" id="img-8a760936-37">
                <path d="M-0.17,-1.02 L0.17,-1.02 0.17,1.02 -0.17,1.02  z" class="primitive"/>
              </g>
              <g transform="translate(40.69,85.28)" id="img-8a760936-38">
                <path d="M-0.17,-3.05 L0.17,-3.05 0.17,3.05 -0.17,3.05  z" class="primitive"/>
              </g>
              <g transform="translate(40.98,83.24)" id="img-8a760936-39">
                <path d="M-0.17,-5.08 L0.17,-5.08 0.17,5.08 -0.17,5.08  z" class="primitive"/>
              </g>
              <g transform="translate(41.26,80.19)" id="img-8a760936-40">
                <path d="M-0.17,-8.13 L0.17,-8.13 0.17,8.13 -0.17,8.13  z" class="primitive"/>
              </g>
              <g transform="translate(41.55,81.21)" id="img-8a760936-41">
                <path d="M-0.17,-7.12 L0.17,-7.12 0.17,7.12 -0.17,7.12  z" class="primitive"/>
              </g>
              <g transform="translate(41.84,77.14)" id="img-8a760936-42">
                <path d="M-0.17,-11.18 L0.17,-11.18 0.17,11.18 -0.17,11.18  z" class="primitive"/>
              </g>
              <g transform="translate(42.13,84.26)" id="img-8a760936-43">
                <path d="M-0.17,-4.07 L0.17,-4.07 0.17,4.07 -0.17,4.07  z" class="primitive"/>
              </g>
              <g transform="translate(42.41,78.16)" id="img-8a760936-44">
                <path d="M-0.17,-10.17 L0.17,-10.17 0.17,10.17 -0.17,10.17  z" class="primitive"/>
              </g>
              <g transform="translate(42.7,79.18)" id="img-8a760936-45">
                <path d="M-0.17,-9.15 L0.17,-9.15 0.17,9.15 -0.17,9.15  z" class="primitive"/>
              </g>
              <g transform="translate(42.99,72.06)" id="img-8a760936-46">
                <path d="M-0.17,-16.27 L0.17,-16.27 0.17,16.27 -0.17,16.27  z" class="primitive"/>
              </g>
              <g transform="translate(43.28,81.21)" id="img-8a760936-47">
                <path d="M-0.17,-7.12 L0.17,-7.12 0.17,7.12 -0.17,7.12  z" class="primitive"/>
              </g>
              <g transform="translate(43.57,80.19)" id="img-8a760936-48">
                <path d="M-0.17,-8.13 L0.17,-8.13 0.17,8.13 -0.17,8.13  z" class="primitive"/>
              </g>
              <g transform="translate(43.85,68)" id="img-8a760936-49">
                <path d="M-0.17,-20.33 L0.17,-20.33 0.17,20.33 -0.17,20.33  z" class="primitive"/>
              </g>
              <g transform="translate(44.14,75.11)" id="img-8a760936-50">
                <path d="M-0.17,-13.22 L0.17,-13.22 0.17,13.22 -0.17,13.22  z" class="primitive"/>
              </g>
              <g transform="translate(44.43,70.03)" id="img-8a760936-51">
                <path d="M-0.17,-18.3 L0.17,-18.3 0.17,18.3 -0.17,18.3  z" class="primitive"/>
              </g>
              <g transform="translate(44.72,66.98)" id="img-8a760936-52">
                <path d="M-0.17,-21.35 L0.17,-21.35 0.17,21.35 -0.17,21.35  z" class="primitive"/>
              </g>
              <g transform="translate(45,65.96)" id="img-8a760936-53">
                <path d="M-0.17,-22.36 L0.17,-22.36 0.17,22.36 -0.17,22.36  z" class="primitive"/>
              </g>
              <g transform="translate(45.29,66.98)" id="img-8a760936-54">
                <path d="M-0.17,-21.35 L0.17,-21.35 0.17,21.35 -0.17,21.35  z" class="primitive"/>
              </g>
              <g transform="translate(45.58,70.03)" id="img-8a760936-55">
                <path d="M-0.17,-18.3 L0.17,-18.3 0.17,18.3 -0.17,18.3  z" class="primitive"/>
              </g>
              <g transform="translate(45.87,72.06)" id="img-8a760936-56">
                <path d="M-0.17,-16.27 L0.17,-16.27 0.17,16.27 -0.17,16.27  z" class="primitive"/>
              </g>
              <g transform="translate(46.15,60.88)" id="img-8a760936-57">
                <path d="M-0.17,-27.45 L0.17,-27.45 0.17,27.45 -0.17,27.45  z" class="primitive"/>
              </g>
              <g transform="translate(46.44,68)" id="img-8a760936-58">
                <path d="M-0.17,-20.33 L0.17,-20.33 0.17,20.33 -0.17,20.33  z" class="primitive"/>
              </g>
              <g transform="translate(46.73,64.95)" id="img-8a760936-59">
                <path d="M-0.17,-23.38 L0.17,-23.38 0.17,23.38 -0.17,23.38  z" class="primitive"/>
              </g>
              <g transform="translate(47.02,55.8)" id="img-8a760936-60">
                <path d="M-0.17,-32.53 L0.17,-32.53 0.17,32.53 -0.17,32.53  z" class="primitive"/>
              </g>
              <g transform="translate(47.3,65.96)" id="img-8a760936-61">
                <path d="M-0.17,-22.36 L0.17,-22.36 0.17,22.36 -0.17,22.36  z" class="primitive"/>
              </g>
              <g transform="translate(47.59,58.85)" id="img-8a760936-62">
                <path d="M-0.17,-29.48 L0.17,-29.48 0.17,29.48 -0.17,29.48  z" class="primitive"/>
              </g>
              <g transform="translate(47.88,63.93)" id="img-8a760936-63">
                <path d="M-0.17,-24.4 L0.17,-24.4 0.17,24.4 -0.17,24.4  z" class="primitive"/>
              </g>
              <g transform="translate(48.17,57.83)" id="img-8a760936-64">
                <path d="M-0.17,-30.5 L0.17,-30.5 0.17,30.5 -0.17,30.5  z" class="primitive"/>
              </g>
              <g transform="translate(48.45,55.8)" id="img-8a760936-65">
                <path d="M-0.17,-32.53 L0.17,-32.53 0.17,32.53 -0.17,32.53  z" class="primitive"/>
              </g>
              <g transform="translate(48.74,64.95)" id="img-8a760936-66">
                <path d="M-0.17,-23.38 L0.17,-23.38 0.17,23.38 -0.17,23.38  z" class="primitive"/>
              </g>
              <g transform="translate(49.03,52.75)" id="img-8a760936-67">
                <path d="M-0.17,-35.58 L0.17,-35.58 0.17,35.58 -0.17,35.58  z" class="primitive"/>
              </g>
              <g transform="translate(49.32,63.93)" id="img-8a760936-68">
                <path d="M-0.17,-24.4 L0.17,-24.4 0.17,24.4 -0.17,24.4  z" class="primitive"/>
              </g>
              <g transform="translate(49.6,60.88)" id="img-8a760936-69">
                <path d="M-0.17,-27.45 L0.17,-27.45 0.17,27.45 -0.17,27.45  z" class="primitive"/>
              </g>
              <g transform="translate(49.89,58.85)" id="img-8a760936-70">
                <path d="M-0.17,-29.48 L0.17,-29.48 0.17,29.48 -0.17,29.48  z" class="primitive"/>
              </g>
              <g transform="translate(50.18,69.01)" id="img-8a760936-71">
                <path d="M-0.17,-19.32 L0.17,-19.32 0.17,19.32 -0.17,19.32  z" class="primitive"/>
              </g>
              <g transform="translate(50.47,64.95)" id="img-8a760936-72">
                <path d="M-0.17,-23.38 L0.17,-23.38 0.17,23.38 -0.17,23.38  z" class="primitive"/>
              </g>
              <g transform="translate(50.75,63.93)" id="img-8a760936-73">
                <path d="M-0.17,-24.4 L0.17,-24.4 0.17,24.4 -0.17,24.4  z" class="primitive"/>
              </g>
              <g transform="translate(51.04,58.85)" id="img-8a760936-74">
                <path d="M-0.17,-29.48 L0.17,-29.48 0.17,29.48 -0.17,29.48  z" class="primitive"/>
              </g>
              <g transform="translate(51.33,66.98)" id="img-8a760936-75">
                <path d="M-0.17,-21.35 L0.17,-21.35 0.17,21.35 -0.17,21.35  z" class="primitive"/>
              </g>
              <g transform="translate(51.62,76.13)" id="img-8a760936-76">
                <path d="M-0.17,-12.2 L0.17,-12.2 0.17,12.2 -0.17,12.2  z" class="primitive"/>
              </g>
              <g transform="translate(51.91,73.08)" id="img-8a760936-77">
                <path d="M-0.17,-15.25 L0.17,-15.25 0.17,15.25 -0.17,15.25  z" class="primitive"/>
              </g>
              <g transform="translate(52.19,74.09)" id="img-8a760936-78">
                <path d="M-0.17,-14.23 L0.17,-14.23 0.17,14.23 -0.17,14.23  z" class="primitive"/>
              </g>
              <g transform="translate(52.48,68)" id="img-8a760936-79">
                <path d="M-0.17,-20.33 L0.17,-20.33 0.17,20.33 -0.17,20.33  z" class="primitive"/>
              </g>
              <g transform="translate(52.77,80.19)" id="img-8a760936-80">
                <path d="M-0.17,-8.13 L0.17,-8.13 0.17,8.13 -0.17,8.13  z" class="primitive"/>
              </g>
              <g transform="translate(53.06,72.06)" id="img-8a760936-81">
                <path d="M-0.17,-16.27 L0.17,-16.27 0.17,16.27 -0.17,16.27  z" class="primitive"/>
              </g>
              <g transform="translate(53.34,71.04)" id="img-8a760936-82">
                <path d="M-0.17,-17.28 L0.17,-17.28 0.17,17.28 -0.17,17.28  z" class="primitive"/>
              </g>
              <g transform="translate(53.63,81.21)" id="img-8a760936-83">
                <path d="M-0.17,-7.12 L0.17,-7.12 0.17,7.12 -0.17,7.12  z" class="primitive"/>
              </g>
              <g transform="translate(53.92,76.13)" id="img-8a760936-84">
                <path d="M-0.17,-12.2 L0.17,-12.2 0.17,12.2 -0.17,12.2  z" class="primitive"/>
              </g>
              <g transform="translate(54.21,73.08)" id="img-8a760936-85">
                <path d="M-0.17,-15.25 L0.17,-15.25 0.17,15.25 -0.17,15.25  z" class="primitive"/>
              </g>
              <g transform="translate(54.49,74.09)" id="img-8a760936-86">
                <path d="M-0.17,-14.23 L0.17,-14.23 0.17,14.23 -0.17,14.23  z" class="primitive"/>
              </g>
              <g transform="translate(54.78,76.13)" id="img-8a760936-87">
                <path d="M-0.17,-12.2 L0.17,-12.2 0.17,12.2 -0.17,12.2  z" class="primitive"/>
              </g>
              <g transform="translate(55.07,84.26)" id="img-8a760936-88">
                <path d="M-0.17,-4.07 L0.17,-4.07 0.17,4.07 -0.17,4.07  z" class="primitive"/>
              </g>
              <g transform="translate(55.36,80.19)" id="img-8a760936-89">
                <path d="M-0.17,-8.13 L0.17,-8.13 0.17,8.13 -0.17,8.13  z" class="primitive"/>
              </g>
              <g transform="translate(55.64,80.19)" id="img-8a760936-90">
                <path d="M-0.17,-8.13 L0.17,-8.13 0.17,8.13 -0.17,8.13  z" class="primitive"/>
              </g>
              <g transform="translate(55.93,79.18)" id="img-8a760936-91">
                <path d="M-0.17,-9.15 L0.17,-9.15 0.17,9.15 -0.17,9.15  z" class="primitive"/>
              </g>
              <g transform="translate(56.22,85.28)" id="img-8a760936-92">
                <path d="M-0.17,-3.05 L0.17,-3.05 0.17,3.05 -0.17,3.05  z" class="primitive"/>
              </g>
              <g transform="translate(56.51,79.18)" id="img-8a760936-93">
                <path d="M-0.17,-9.15 L0.17,-9.15 0.17,9.15 -0.17,9.15  z" class="primitive"/>
              </g>
              <g transform="translate(56.79,83.24)" id="img-8a760936-94">
                <path d="M-0.17,-5.08 L0.17,-5.08 0.17,5.08 -0.17,5.08  z" class="primitive"/>
              </g>
              <g transform="translate(57.08,82.23)" id="img-8a760936-95">
                <path d="M-0.17,-6.1 L0.17,-6.1 0.17,6.1 -0.17,6.1  z" class="primitive"/>
              </g>
              <g transform="translate(57.37,85.28)" id="img-8a760936-96">
                <path d="M-0.17,-3.05 L0.17,-3.05 0.17,3.05 -0.17,3.05  z" class="primitive"/>
              </g>
              <g transform="translate(57.66,82.23)" id="img-8a760936-97">
                <path d="M-0.17,-6.1 L0.17,-6.1 0.17,6.1 -0.17,6.1  z" class="primitive"/>
              </g>
              <g transform="translate(57.94,81.21)" id="img-8a760936-98">
                <path d="M-0.17,-7.12 L0.17,-7.12 0.17,7.12 -0.17,7.12  z" class="primitive"/>
              </g>
              <g transform="translate(58.23,87.31)" id="img-8a760936-99">
                <path d="M-0.17,-1.02 L0.17,-1.02 0.17,1.02 -0.17,1.02  z" class="primitive"/>
              </g>
              <g transform="translate(58.52,83.24)" id="img-8a760936-100">
                <path d="M-0.17,-5.08 L0.17,-5.08 0.17,5.08 -0.17,5.08  z" class="primitive"/>
              </g>
              <g transform="translate(58.81,86.29)" id="img-8a760936-101">
                <path d="M-0.17,-2.03 L0.17,-2.03 0.17,2.03 -0.17,2.03  z" class="primitive"/>
              </g>
              <g transform="translate(59.1,86.29)" id="img-8a760936-102">
                <path d="M-0.17,-2.03 L0.17,-2.03 0.17,2.03 -0.17,2.03  z" class="primitive"/>
              </g>
              <g transform="translate(59.38,86.29)" id="img-8a760936-103">
                <path d="M-0.17,-2.03 L0.17,-2.03 0.17,2.03 -0.17,2.03  z" class="primitive"/>
              </g>
              <g transform="translate(59.67,86.29)" id="img-8a760936-104">
                <path d="M-0.17,-2.03 L0.17,-2.03 0.17,2.03 -0.17,2.03  z" class="primitive"/>
              </g>
              <g transform="translate(59.96,88.33)" id="img-8a760936-105">
                <path d="M-0.17,-0 L0.17,-0 0.17,0 -0.17,0  z" class="primitive"/>
              </g>
              <g transform="translate(60.25,87.31)" id="img-8a760936-106">
                <path d="M-0.17,-1.02 L0.17,-1.02 0.17,1.02 -0.17,1.02  z" class="primitive"/>
              </g>
              <g transform="translate(60.53,84.26)" id="img-8a760936-107">
                <path d="M-0.17,-4.07 L0.17,-4.07 0.17,4.07 -0.17,4.07  z" class="primitive"/>
              </g>
              <g transform="translate(60.82,86.29)" id="img-8a760936-108">
                <path d="M-0.17,-2.03 L0.17,-2.03 0.17,2.03 -0.17,2.03  z" class="primitive"/>
              </g>
              <g transform="translate(61.11,87.31)" id="img-8a760936-109">
                <path d="M-0.17,-1.02 L0.17,-1.02 0.17,1.02 -0.17,1.02  z" class="primitive"/>
              </g>
              <g transform="translate(61.4,88.33)" id="img-8a760936-110">
                <path d="M-0.17,-0 L0.17,-0 0.17,0 -0.17,0  z" class="primitive"/>
              </g>
              <g transform="translate(61.68,87.31)" id="img-8a760936-111">
                <path d="M-0.17,-1.02 L0.17,-1.02 0.17,1.02 -0.17,1.02  z" class="primitive"/>
              </g>
              <g transform="translate(61.97,86.29)" id="img-8a760936-112">
                <path d="M-0.17,-2.03 L0.17,-2.03 0.17,2.03 -0.17,2.03  z" class="primitive"/>
              </g>
              <g transform="translate(62.26,88.33)" id="img-8a760936-113">
                <path d="M-0.17,-0 L0.17,-0 0.17,0 -0.17,0  z" class="primitive"/>
              </g>
              <g transform="translate(62.55,88.33)" id="img-8a760936-114">
                <path d="M-0.17,-0 L0.17,-0 0.17,0 -0.17,0  z" class="primitive"/>
              </g>
              <g transform="translate(62.83,88.33)" id="img-8a760936-115">
                <path d="M-0.17,-0 L0.17,-0 0.17,0 -0.17,0  z" class="primitive"/>
              </g>
              <g transform="translate(63.12,87.31)" id="img-8a760936-116">
                <path d="M-0.17,-1.02 L0.17,-1.02 0.17,1.02 -0.17,1.02  z" class="primitive"/>
              </g>
              <g transform="translate(63.41,88.33)" id="img-8a760936-117">
                <path d="M-0.17,-0 L0.17,-0 0.17,0 -0.17,0  z" class="primitive"/>
              </g>
              <g transform="translate(63.7,88.33)" id="img-8a760936-118">
                <path d="M-0.17,-0 L0.17,-0 0.17,0 -0.17,0  z" class="primitive"/>
              </g>
              <g transform="translate(63.98,88.33)" id="img-8a760936-119">
                <path d="M-0.17,-0 L0.17,-0 0.17,0 -0.17,0  z" class="primitive"/>
              </g>
              <g transform="translate(64.27,88.33)" id="img-8a760936-120">
                <path d="M-0.17,-0 L0.17,-0 0.17,0 -0.17,0  z" class="primitive"/>
              </g>
              <g transform="translate(64.56,88.33)" id="img-8a760936-121">
                <path d="M-0.17,-0 L0.17,-0 0.17,0 -0.17,0  z" class="primitive"/>
              </g>
              <g transform="translate(64.85,88.33)" id="img-8a760936-122">
                <path d="M-0.17,-0 L0.17,-0 0.17,0 -0.17,0  z" class="primitive"/>
              </g>
              <g transform="translate(65.13,88.33)" id="img-8a760936-123">
                <path d="M-0.17,-0 L0.17,-0 0.17,0 -0.17,0  z" class="primitive"/>
              </g>
              <g transform="translate(65.42,88.33)" id="img-8a760936-124">
                <path d="M-0.17,-0 L0.17,-0 0.17,0 -0.17,0  z" class="primitive"/>
              </g>
              <g transform="translate(65.71,88.33)" id="img-8a760936-125">
                <path d="M-0.17,-0 L0.17,-0 0.17,0 -0.17,0  z" class="primitive"/>
              </g>
              <g transform="translate(66,88.33)" id="img-8a760936-126">
                <path d="M-0.17,-0 L0.17,-0 0.17,0 -0.17,0  z" class="primitive"/>
              </g>
              <g transform="translate(66.29,87.31)" id="img-8a760936-127">
                <path d="M-0.17,-1.02 L0.17,-1.02 0.17,1.02 -0.17,1.02  z" class="primitive"/>
              </g>
              <g transform="translate(66.57,88.33)" id="img-8a760936-128">
                <path d="M-0.17,-0 L0.17,-0 0.17,0 -0.17,0  z" class="primitive"/>
              </g>
              <g transform="translate(66.86,88.33)" id="img-8a760936-129">
                <path d="M-0.17,-0 L0.17,-0 0.17,0 -0.17,0  z" class="primitive"/>
              </g>
              <g transform="translate(67.15,87.31)" id="img-8a760936-130">
                <path d="M-0.17,-1.02 L0.17,-1.02 0.17,1.02 -0.17,1.02  z" class="primitive"/>
              </g>
            </g>
          </g>
        </g>
      </g>
    </g>
  </g>
  <g class="guide ylabels" font-size="2.82" font-family="'PT Sans Caption','Helvetica Neue','Helvetica',sans-serif" fill="#6C606B" id="img-8a760936-131">
    <g transform="translate(16.96,88.33)" id="img-8a760936-132">
      <g class="primitive">
        <text text-anchor="end" dy="0.35em">0</text>
      </g>
    </g>
    <g transform="translate(16.96,68)" id="img-8a760936-133">
      <g class="primitive">
        <text text-anchor="end" dy="0.35em">10</text>
      </g>
    </g>
    <g transform="translate(16.96,47.66)" id="img-8a760936-134">
      <g class="primitive">
        <text text-anchor="end" dy="0.35em">20</text>
      </g>
    </g>
    <g transform="translate(16.96,27.33)" id="img-8a760936-135">
      <g class="primitive">
        <text text-anchor="end" dy="0.35em">30</text>
      </g>
    </g>
    <g transform="translate(16.96,7)" id="img-8a760936-136">
      <g class="primitive">
        <text text-anchor="end" dy="0.35em">40</text>
      </g>
    </g>
  </g>
  <g font-size="3.88" font-family="'PT Sans','Helvetica Neue','Helvetica',sans-serif" fill="#564A55" stroke="#000000" stroke-opacity="0.000" id="img-8a760936-137">
    <g transform="translate(8.81,45.66)" id="img-8a760936-138">
      <g class="primitive">
        <text text-anchor="middle" dy="0.35em" transform="rotate(-90,0, 2)">frequency</text>
      </g>
    </g>
  </g>
</g>
<defs>
  <clipPath id="img-8a760936-11">
    <path d="M17.96,5 L71.89,5 71.89,90.33 17.96,90.33 " />
  </clipPath>
</defs>
</svg>
