<?xml version="1.0" encoding="UTF-8"?>
<svg xmlns="http://www.w3.org/2000/svg"
     xmlns:xlink="http://www.w3.org/1999/xlink"
     xmlns:gadfly="http://www.gadflyjl.org/ns"
     version="1.2"
     width="140mm" height="80mm" viewBox="0 0 140 80"
     stroke="none"
     fill="#000000"
     stroke-width="0.3"
     font-size="3.88"
>
<defs>
  <marker id="arrow" markerWidth="15" markerHeight="7" refX="5" refY="3.5" orient="auto" markerUnits="strokeWidth">
    <path d="M0,0 L15,3.5 L0,7 z" stroke="context-stroke" fill="context-stroke"/>
  </marker>
</defs>
<g class="plotroot xscalable yscalable" id="img-cfef5696-1">
  <g class="guide xlabels" font-size="2.82" font-family="'PT Sans Caption','Helvetica Neue','Helvetica',sans-serif" fill="#6C606B" id="img-cfef5696-2">
    <g transform="translate(19.96,60.21)">
      <g class="primitive">
        <text text-anchor="end" dy="0.35em" transform="rotate(-90,0, 0)">1.80×10⁵</text>
      </g>
    </g>
    <g transform="translate(33.73,60.21)">
      <g class="primitive">
        <text text-anchor="end" dy="0.35em" transform="rotate(-90,0, 0)">1.85×10⁵</text>
      </g>
    </g>
    <g transform="translate(47.5,60.21)">
      <g class="primitive">
        <text text-anchor="end" dy="0.35em" transform="rotate(-90,0, 0)">1.90×10⁵</text>
      </g>
    </g>
    <g transform="translate(61.27,60.21)">
      <g class="primitive">
        <text text-anchor="end" dy="0.35em" transform="rotate(-90,0, 0)">1.95×10⁵</text>
      </g>
    </g>
    <g transform="translate(75.04,60.21)">
      <g class="primitive">
        <text text-anchor="end" dy="0.35em" transform="rotate(-90,0, 0)">2.00×10⁵</text>
      </g>
    </g>
    <g transform="translate(88.81,60.21)">
      <g class="primitive">
        <text text-anchor="end" dy="0.35em" transform="rotate(-90,0, 0)">2.05×10⁵</text>
      </g>
    </g>
  </g>
  <g class="guide colorkey" id="img-cfef5696-3">
    <g class="color_coding_coding_noncoding_3-path" id="img-cfef5696-4">
      <g fill="#4C404B" font-size="2.82" font-family="'PT Sans','Helvetica Neue','Helvetica',sans-serif" id="img-cfef5696-5">
        <g transform="translate(94.63,33.92)" id="img-cfef5696-6">
          <g class="primitive">
            <text dy="0.35em">coding_coding_noncoding_3-path</text>
          </g>
        </g>
      </g>
      <g fill-opacity="1" fill="#00BFFF" stroke="#FFFFFF" id="img-cfef5696-7">
        <g transform="translate(92.72,33.92)" id="img-cfef5696-8">
          <path d="M-0.91,-0.91 L 0.91 -0.91 0.91 0.91 -0.91 0.91 z" class="primitive"/>
        </g>
      </g>
    </g>
    <g fill="#362A35" font-size="3.88" font-family="'PT Sans','Helvetica Neue','Helvetica',sans-serif" stroke="#000000" stroke-opacity="0.000" id="img-cfef5696-9">
      <g transform="translate(91.81,30.1)" id="img-cfef5696-10">
        <g class="primitive">
          <text dy="-0em">graphlet</text>
        </g>
      </g>
    </g>
  </g>
  <g clip-path="url(#img-cfef5696-11)">
    <g id="img-cfef5696-12">
      <g pointer-events="visible" stroke-width="0.3" fill="#000000" fill-opacity="0.000" stroke="#000000" stroke-opacity="0.000" class="guide background" id="img-cfef5696-13">
        <g transform="translate(54.39,32.11)" id="img-cfef5696-14">
          <path d="M-36.43,-27.11 L 36.43 -27.11 36.43 27.11 -36.43 27.11 z" class="primitive"/>
        </g>
      </g>
      <g class="guide ygridlines xfixed" stroke-dasharray="0.5,0.5" stroke-width="0.2" stroke="#D0D0E0" id="img-cfef5696-15">
        <g transform="translate(54.39,57.21)" id="img-cfef5696-16">
          <path fill="none" d="M-36.43,0 L 36.43 0" class="primitive"/>
        </g>
        <g transform="translate(54.39,44.66)" id="img-cfef5696-17">
          <path fill="none" d="M-36.43,0 L 36.43 0" class="primitive"/>
        </g>
        <g transform="translate(54.39,32.11)" id="img-cfef5696-18">
          <path fill="none" d="M-36.43,0 L 36.43 0" class="primitive"/>
        </g>
        <g transform="translate(54.39,19.55)" id="img-cfef5696-19">
          <path fill="none" d="M-36.43,0 L 36.43 0" class="primitive"/>
        </g>
        <g transform="translate(54.39,7)" id="img-cfef5696-20">
          <path fill="none" d="M-36.43,0 L 36.43 0" class="primitive"/>
        </g>
      </g>
      <g class="guide xgridlines yfixed" stroke-dasharray="0.5,0.5" stroke-width="0.2" stroke="#D0D0E0" id="img-cfef5696-21">
        <g transform="translate(19.96,32.11)" id="img-cfef5696-22">
          <path fill="none" d="M0,-27.11 L 0 27.11" class="primitive"/>
        </g>
        <g transform="translate(33.73,32.11)" id="img-cfef5696-23">
          <path fill="none" d="M0,-27.11 L 0 27.11" class="primitive"/>
        </g>
        <g transform="translate(47.5,32.11)" id="img-cfef5696-24">
          <path fill="none" d="M0,-27.11 L 0 27.11" class="primitive"/>
        </g>
        <g transform="translate(61.27,32.11)" id="img-cfef5696-25">
          <path fill="none" d="M0,-27.11 L 0 27.11" class="primitive"/>
        </g>
        <g transform="translate(75.04,32.11)" id="img-cfef5696-26">
          <path fill="none" d="M0,-27.11 L 0 27.11" class="primitive"/>
        </g>
        <g transform="translate(88.81,32.11)" id="img-cfef5696-27">
          <path fill="none" d="M0,-27.11 L 0 27.11" class="primitive"/>
        </g>
      </g>
      <g class="plotpanel" id="img-cfef5696-28">
        <metadata>
          <boundingbox value="17.95833333333333mm 5.0mm 72.85499999999999mm 54.21333333333334mm"/>
          <unitbox value="179273.83632270712 41.59320233669676 26452.327354585726 -43.186404673393525"/>
        </metadata>
        <g shape-rendering="crispEdges" stroke-width="0.3" id="img-cfef5696-29">
          <g stroke="#000000" stroke-opacity="0.000" class="geometry" id="img-cfef5696-30">
            <g fill="#00BFFF" id="img-cfef5696-31">
              <g transform="translate(21.71,56.59)" id="img-cfef5696-32">
                <path d="M-0.34,-0.63 L 0.34 -0.63 0.34 0.63 -0.34 0.63 z" class="primitive"/>
              </g>
              <g transform="translate(22.33,57.22)" id="img-cfef5696-33">
                <path d="M-0.34,-0 L 0.34 -0 0.34 0 -0.34 0 z" class="primitive"/>
              </g>
              <g transform="translate(22.96,56.59)" id="img-cfef5696-34">
                <path d="M-0.34,-0.63 L 0.34 -0.63 0.34 0.63 -0.34 0.63 z" class="primitive"/>
              </g>
              <g transform="translate(23.59,57.22)" id="img-cfef5696-35">
                <path d="M-0.34,-0 L 0.34 -0 0.34 0 -0.34 0 z" class="primitive"/>
              </g>
              <g transform="translate(24.21,55.33)" id="img-cfef5696-36">
                <path d="M-0.34,-1.88 L 0.34 -1.88 0.34 1.88 -0.34 1.88 z" class="primitive"/>
              </g>
              <g transform="translate(24.84,57.22)" id="img-cfef5696-37">
                <path d="M-0.34,-0 L 0.34 -0 0.34 0 -0.34 0 z" class="primitive"/>
              </g>
              <g transform="translate(25.46,57.22)" id="img-cfef5696-38">
                <path d="M-0.34,-0 L 0.34 -0 0.34 0 -0.34 0 z" class="primitive"/>
              </g>
              <g transform="translate(26.09,57.22)" id="img-cfef5696-39">
                <path d="M-0.34,-0 L 0.34 -0 0.34 0 -0.34 0 z" class="primitive"/>
              </g>
              <g transform="translate(26.72,55.33)" id="img-cfef5696-40">
                <path d="M-0.34,-1.88 L 0.34 -1.88 0.34 1.88 -0.34 1.88 z" class="primitive"/>
              </g>
              <g transform="translate(27.34,57.22)" id="img-cfef5696-41">
                <path d="M-0.34,-0 L 0.34 -0 0.34 0 -0.34 0 z" class="primitive"/>
              </g>
              <g transform="translate(27.97,56.59)" id="img-cfef5696-42">
                <path d="M-0.34,-0.63 L 0.34 -0.63 0.34 0.63 -0.34 0.63 z" class="primitive"/>
              </g>
              <g transform="translate(28.6,56.59)" id="img-cfef5696-43">
                <path d="M-0.34,-0.63 L 0.34 -0.63 0.34 0.63 -0.34 0.63 z" class="primitive"/>
              </g>
              <g transform="translate(29.22,56.59)" id="img-cfef5696-44">
                <path d="M-0.34,-0.63 L 0.34 -0.63 0.34 0.63 -0.34 0.63 z" class="primitive"/>
              </g>
              <g transform="translate(29.85,55.96)" id="img-cfef5696-45">
                <path d="M-0.34,-1.26 L 0.34 -1.26 0.34 1.26 -0.34 1.26 z" class="primitive"/>
              </g>
              <g transform="translate(30.48,55.96)" id="img-cfef5696-46">
                <path d="M-0.34,-1.26 L 0.34 -1.26 0.34 1.26 -0.34 1.26 z" class="primitive"/>
              </g>
              <g transform="translate(31.1,54.08)" id="img-cfef5696-47">
                <path d="M-0.34,-3.14 L 0.34 -3.14 0.34 3.14 -0.34 3.14 z" class="primitive"/>
              </g>
              <g transform="translate(31.73,55.96)" id="img-cfef5696-48">
                <path d="M-0.34,-1.26 L 0.34 -1.26 0.34 1.26 -0.34 1.26 z" class="primitive"/>
              </g>
              <g transform="translate(32.36,55.96)" id="img-cfef5696-49">
                <path d="M-0.34,-1.26 L 0.34 -1.26 0.34 1.26 -0.34 1.26 z" class="primitive"/>
              </g>
              <g transform="translate(32.98,53.45)" id="img-cfef5696-50">
                <path d="M-0.34,-3.77 L 0.34 -3.77 0.34 3.77 -0.34 3.77 z" class="primitive"/>
              </g>
              <g transform="translate(33.61,55.33)" id="img-cfef5696-51">
                <path d="M-0.34,-1.88 L 0.34 -1.88 0.34 1.88 -0.34 1.88 z" class="primitive"/>
              </g>
              <g transform="translate(34.23,56.59)" id="img-cfef5696-52">
                <path d="M-0.34,-0.63 L 0.34 -0.63 0.34 0.63 -0.34 0.63 z" class="primitive"/>
              </g>
              <g transform="translate(34.86,52.82)" id="img-cfef5696-53">
                <path d="M-0.34,-4.39 L 0.34 -4.39 0.34 4.39 -0.34 4.39 z" class="primitive"/>
              </g>
              <g transform="translate(35.49,53.45)" id="img-cfef5696-54">
                <path d="M-0.34,-3.77 L 0.34 -3.77 0.34 3.77 -0.34 3.77 z" class="primitive"/>
              </g>
              <g transform="translate(36.11,53.45)" id="img-cfef5696-55">
                <path d="M-0.34,-3.77 L 0.34 -3.77 0.34 3.77 -0.34 3.77 z" class="primitive"/>
              </g>
              <g transform="translate(36.74,50.94)" id="img-cfef5696-56">
                <path d="M-0.34,-6.28 L 0.34 -6.28 0.34 6.28 -0.34 6.28 z" class="primitive"/>
              </g>
              <g transform="translate(37.37,52.19)" id="img-cfef5696-57">
                <path d="M-0.34,-5.02 L 0.34 -5.02 0.34 5.02 -0.34 5.02 z" class="primitive"/>
              </g>
              <g transform="translate(37.99,48.43)" id="img-cfef5696-58">
                <path d="M-0.34,-8.79 L 0.34 -8.79 0.34 8.79 -0.34 8.79 z" class="primitive"/>
              </g>
              <g transform="translate(38.62,52.82)" id="img-cfef5696-59">
                <path d="M-0.34,-4.39 L 0.34 -4.39 0.34 4.39 -0.34 4.39 z" class="primitive"/>
              </g>
              <g transform="translate(39.25,48.43)" id="img-cfef5696-60">
                <path d="M-0.34,-8.79 L 0.34 -8.79 0.34 8.79 -0.34 8.79 z" class="primitive"/>
              </g>
              <g transform="translate(39.87,50.94)" id="img-cfef5696-61">
                <path d="M-0.34,-6.28 L 0.34 -6.28 0.34 6.28 -0.34 6.28 z" class="primitive"/>
              </g>
              <g transform="translate(40.5,50.94)" id="img-cfef5696-62">
                <path d="M-0.34,-6.28 L 0.34 -6.28 0.34 6.28 -0.34 6.28 z" class="primitive"/>
              </g>
              <g transform="translate(41.13,39.64)" id="img-cfef5696-63">
                <path d="M-0.34,-17.57 L 0.34 -17.57 0.34 17.57 -0.34 17.57 z" class="primitive"/>
              </g>
              <g transform="translate(41.75,42.78)" id="img-cfef5696-64">
                <path d="M-0.34,-14.44 L 0.34 -14.44 0.34 14.44 -0.34 14.44 z" class="primitive"/>
              </g>
              <g transform="translate(42.38,49.05)" id="img-cfef5696-65">
                <path d="M-0.34,-8.16 L 0.34 -8.16 0.34 8.16 -0.34 8.16 z" class="primitive"/>
              </g>
              <g transform="translate(43,49.68)" id="img-cfef5696-66">
                <path d="M-0.34,-7.53 L 0.34 -7.53 0.34 7.53 -0.34 7.53 z" class="primitive"/>
              </g>
              <g transform="translate(43.63,49.05)" id="img-cfef5696-67">
                <path d="M-0.34,-8.16 L 0.34 -8.16 0.34 8.16 -0.34 8.16 z" class="primitive"/>
              </g>
              <g transform="translate(44.26,42.15)" id="img-cfef5696-68">
                <path d="M-0.34,-15.06 L 0.34 -15.06 0.34 15.06 -0.34 15.06 z" class="primitive"/>
              </g>
              <g transform="translate(44.88,45.29)" id="img-cfef5696-69">
                <path d="M-0.34,-11.93 L 0.34 -11.93 0.34 11.93 -0.34 11.93 z" class="primitive"/>
              </g>
              <g transform="translate(45.51,40.89)" id="img-cfef5696-70">
                <path d="M-0.34,-16.32 L 0.34 -16.32 0.34 16.32 -0.34 16.32 z" class="primitive"/>
              </g>
              <g transform="translate(46.14,42.15)" id="img-cfef5696-71">
                <path d="M-0.34,-15.06 L 0.34 -15.06 0.34 15.06 -0.34 15.06 z" class="primitive"/>
              </g>
              <g transform="translate(46.76,37.13)" id="img-cfef5696-72">
                <path d="M-0.34,-20.09 L 0.34 -20.09 0.34 20.09 -0.34 20.09 z" class="primitive"/>
              </g>
              <g transform="translate(47.39,40.89)" id="img-cfef5696-73">
                <path d="M-0.34,-16.32 L 0.34 -16.32 0.34 16.32 -0.34 16.32 z" class="primitive"/>
              </g>
              <g transform="translate(48.02,36.5)" id="img-cfef5696-74">
                <path d="M-0.34,-20.71 L 0.34 -20.71 0.34 20.71 -0.34 20.71 z" class="primitive"/>
              </g>
              <g transform="translate(48.64,40.89)" id="img-cfef5696-75">
                <path d="M-0.34,-16.32 L 0.34 -16.32 0.34 16.32 -0.34 16.32 z" class="primitive"/>
              </g>
              <g transform="translate(49.27,37.76)" id="img-cfef5696-76">
                <path d="M-0.34,-19.46 L 0.34 -19.46 0.34 19.46 -0.34 19.46 z" class="primitive"/>
              </g>
              <g transform="translate(49.9,35.24)" id="img-cfef5696-77">
                <path d="M-0.34,-21.97 L 0.34 -21.97 0.34 21.97 -0.34 21.97 z" class="primitive"/>
              </g>
              <g transform="translate(50.52,36.5)" id="img-cfef5696-78">
                <path d="M-0.34,-20.71 L 0.34 -20.71 0.34 20.71 -0.34 20.71 z" class="primitive"/>
              </g>
              <g transform="translate(51.15,39.01)" id="img-cfef5696-79">
                <path d="M-0.34,-18.2 L 0.34 -18.2 0.34 18.2 -0.34 18.2 z" class="primitive"/>
              </g>
              <g transform="translate(51.77,35.24)" id="img-cfef5696-80">
                <path d="M-0.34,-21.97 L 0.34 -21.97 0.34 21.97 -0.34 21.97 z" class="primitive"/>
              </g>
              <g transform="translate(52.4,34.62)" id="img-cfef5696-81">
                <path d="M-0.34,-22.6 L 0.34 -22.6 0.34 22.6 -0.34 22.6 z" class="primitive"/>
              </g>
              <g transform="translate(53.03,41.52)" id="img-cfef5696-82">
                <path d="M-0.34,-15.69 L 0.34 -15.69 0.34 15.69 -0.34 15.69 z" class="primitive"/>
              </g>
              <g transform="translate(53.65,33.99)" id="img-cfef5696-83">
                <path d="M-0.34,-23.22 L 0.34 -23.22 0.34 23.22 -0.34 23.22 z" class="primitive"/>
              </g>
              <g transform="translate(54.28,47.17)" id="img-cfef5696-84">
                <path d="M-0.34,-10.04 L 0.34 -10.04 0.34 10.04 -0.34 10.04 z" class="primitive"/>
              </g>
              <g transform="translate(54.91,41.52)" id="img-cfef5696-85">
                <path d="M-0.34,-15.69 L 0.34 -15.69 0.34 15.69 -0.34 15.69 z" class="primitive"/>
              </g>
              <g transform="translate(55.53,46.54)" id="img-cfef5696-86">
                <path d="M-0.34,-10.67 L 0.34 -10.67 0.34 10.67 -0.34 10.67 z" class="primitive"/>
              </g>
              <g transform="translate(56.16,39.64)" id="img-cfef5696-87">
                <path d="M-0.34,-17.57 L 0.34 -17.57 0.34 17.57 -0.34 17.57 z" class="primitive"/>
              </g>
              <g transform="translate(56.79,44.66)" id="img-cfef5696-88">
                <path d="M-0.34,-12.55 L 0.34 -12.55 0.34 12.55 -0.34 12.55 z" class="primitive"/>
              </g>
              <g transform="translate(57.41,44.66)" id="img-cfef5696-89">
                <path d="M-0.34,-12.55 L 0.34 -12.55 0.34 12.55 -0.34 12.55 z" class="primitive"/>
              </g>
              <g transform="translate(58.04,45.29)" id="img-cfef5696-90">
                <path d="M-0.34,-11.93 L 0.34 -11.93 0.34 11.93 -0.34 11.93 z" class="primitive"/>
              </g>
              <g transform="translate(58.66,49.05)" id="img-cfef5696-91">
                <path d="M-0.34,-8.16 L 0.34 -8.16 0.34 8.16 -0.34 8.16 z" class="primitive"/>
              </g>
              <g transform="translate(59.29,46.54)" id="img-cfef5696-92">
                <path d="M-0.34,-10.67 L 0.34 -10.67 0.34 10.67 -0.34 10.67 z" class="primitive"/>
              </g>
              <g transform="translate(59.92,51.56)" id="img-cfef5696-93">
                <path d="M-0.34,-5.65 L 0.34 -5.65 0.34 5.65 -0.34 5.65 z" class="primitive"/>
              </g>
              <g transform="translate(60.54,45.92)" id="img-cfef5696-94">
                <path d="M-0.34,-11.3 L 0.34 -11.3 0.34 11.3 -0.34 11.3 z" class="primitive"/>
              </g>
              <g transform="translate(61.17,50.31)" id="img-cfef5696-95">
                <path d="M-0.34,-6.9 L 0.34 -6.9 0.34 6.9 -0.34 6.9 z" class="primitive"/>
              </g>
              <g transform="translate(61.8,46.54)" id="img-cfef5696-96">
                <path d="M-0.34,-10.67 L 0.34 -10.67 0.34 10.67 -0.34 10.67 z" class="primitive"/>
              </g>
              <g transform="translate(62.42,49.05)" id="img-cfef5696-97">
                <path d="M-0.34,-8.16 L 0.34 -8.16 0.34 8.16 -0.34 8.16 z" class="primitive"/>
              </g>
              <g transform="translate(63.05,54.08)" id="img-cfef5696-98">
                <path d="M-0.34,-3.14 L 0.34 -3.14 0.34 3.14 -0.34 3.14 z" class="primitive"/>
              </g>
              <g transform="translate(63.68,54.08)" id="img-cfef5696-99">
                <path d="M-0.34,-3.14 L 0.34 -3.14 0.34 3.14 -0.34 3.14 z" class="primitive"/>
              </g>
              <g transform="translate(64.3,50.94)" id="img-cfef5696-100">
                <path d="M-0.34,-6.28 L 0.34 -6.28 0.34 6.28 -0.34 6.28 z" class="primitive"/>
              </g>
              <g transform="translate(64.93,53.45)" id="img-cfef5696-101">
                <path d="M-0.34,-3.77 L 0.34 -3.77 0.34 3.77 -0.34 3.77 z" class="primitive"/>
              </g>
              <g transform="translate(65.56,51.56)" id="img-cfef5696-102">
                <path d="M-0.34,-5.65 L 0.34 -5.65 0.34 5.65 -0.34 5.65 z" class="primitive"/>
              </g>
              <g transform="translate(66.18,55.33)" id="img-cfef5696-103">
                <path d="M-0.34,-1.88 L 0.34 -1.88 0.34 1.88 -0.34 1.88 z" class="primitive"/>
              </g>
              <g transform="translate(66.81,54.7)" id="img-cfef5696-104">
                <path d="M-0.34,-2.51 L 0.34 -2.51 0.34 2.51 -0.34 2.51 z" class="primitive"/>
              </g>
              <g transform="translate(67.43,54.7)" id="img-cfef5696-105">
                <path d="M-0.34,-2.51 L 0.34 -2.51 0.34 2.51 -0.34 2.51 z" class="primitive"/>
              </g>
              <g transform="translate(68.06,56.59)" id="img-cfef5696-106">
                <path d="M-0.34,-0.63 L 0.34 -0.63 0.34 0.63 -0.34 0.63 z" class="primitive"/>
              </g>
              <g transform="translate(68.69,55.96)" id="img-cfef5696-107">
                <path d="M-0.34,-1.26 L 0.34 -1.26 0.34 1.26 -0.34 1.26 z" class="primitive"/>
              </g>
              <g transform="translate(69.31,54.08)" id="img-cfef5696-108">
                <path d="M-0.34,-3.14 L 0.34 -3.14 0.34 3.14 -0.34 3.14 z" class="primitive"/>
              </g>
              <g transform="translate(69.94,56.59)" id="img-cfef5696-109">
                <path d="M-0.34,-0.63 L 0.34 -0.63 0.34 0.63 -0.34 0.63 z" class="primitive"/>
              </g>
              <g transform="translate(70.57,55.96)" id="img-cfef5696-110">
                <path d="M-0.34,-1.26 L 0.34 -1.26 0.34 1.26 -0.34 1.26 z" class="primitive"/>
              </g>
              <g transform="translate(71.19,55.96)" id="img-cfef5696-111">
                <path d="M-0.34,-1.26 L 0.34 -1.26 0.34 1.26 -0.34 1.26 z" class="primitive"/>
              </g>
              <g transform="translate(71.82,55.96)" id="img-cfef5696-112">
                <path d="M-0.34,-1.26 L 0.34 -1.26 0.34 1.26 -0.34 1.26 z" class="primitive"/>
              </g>
              <g transform="translate(72.45,55.96)" id="img-cfef5696-113">
                <path d="M-0.34,-1.26 L 0.34 -1.26 0.34 1.26 -0.34 1.26 z" class="primitive"/>
              </g>
              <g transform="translate(73.07,57.22)" id="img-cfef5696-114">
                <path d="M-0.34,-0 L 0.34 -0 0.34 0 -0.34 0 z" class="primitive"/>
              </g>
              <g transform="translate(73.7,55.33)" id="img-cfef5696-115">
                <path d="M-0.34,-1.88 L 0.34 -1.88 0.34 1.88 -0.34 1.88 z" class="primitive"/>
              </g>
              <g transform="translate(74.33,56.59)" id="img-cfef5696-116">
                <path d="M-0.34,-0.63 L 0.34 -0.63 0.34 0.63 -0.34 0.63 z" class="primitive"/>
              </g>
              <g transform="translate(74.95,57.22)" id="img-cfef5696-117">
                <path d="M-0.34,-0 L 0.34 -0 0.34 0 -0.34 0 z" class="primitive"/>
              </g>
              <g transform="translate(75.58,56.59)" id="img-cfef5696-118">
                <path d="M-0.34,-0.63 L 0.34 -0.63 0.34 0.63 -0.34 0.63 z" class="primitive"/>
              </g>
              <g transform="translate(76.2,57.22)" id="img-cfef5696-119">
                <path d="M-0.34,-0 L 0.34 -0 0.34 0 -0.34 0 z" class="primitive"/>
              </g>
              <g transform="translate(76.83,57.22)" id="img-cfef5696-120">
                <path d="M-0.34,-0 L 0.34 -0 0.34 0 -0.34 0 z" class="primitive"/>
              </g>
              <g transform="translate(77.46,57.22)" id="img-cfef5696-121">
                <path d="M-0.34,-0 L 0.34 -0 0.34 0 -0.34 0 z" class="primitive"/>
              </g>
              <g transform="translate(78.08,56.59)" id="img-cfef5696-122">
                <path d="M-0.34,-0.63 L 0.34 -0.63 0.34 0.63 -0.34 0.63 z" class="primitive"/>
              </g>
              <g transform="translate(78.71,57.22)" id="img-cfef5696-123">
                <path d="M-0.34,-0 L 0.34 -0 0.34 0 -0.34 0 z" class="primitive"/>
              </g>
              <g transform="translate(79.34,56.59)" id="img-cfef5696-124">
                <path d="M-0.34,-0.63 L 0.34 -0.63 0.34 0.63 -0.34 0.63 z" class="primitive"/>
              </g>
              <g transform="translate(79.96,57.22)" id="img-cfef5696-125">
                <path d="M-0.34,-0 L 0.34 -0 0.34 0 -0.34 0 z" class="primitive"/>
              </g>
              <g transform="translate(80.59,57.22)" id="img-cfef5696-126">
                <path d="M-0.34,-0 L 0.34 -0 0.34 0 -0.34 0 z" class="primitive"/>
              </g>
              <g transform="translate(81.22,57.22)" id="img-cfef5696-127">
                <path d="M-0.34,-0 L 0.34 -0 0.34 0 -0.34 0 z" class="primitive"/>
              </g>
              <g transform="translate(81.84,57.22)" id="img-cfef5696-128">
                <path d="M-0.34,-0 L 0.34 -0 0.34 0 -0.34 0 z" class="primitive"/>
              </g>
              <g transform="translate(82.47,57.22)" id="img-cfef5696-129">
                <path d="M-0.34,-0 L 0.34 -0 0.34 0 -0.34 0 z" class="primitive"/>
              </g>
              <g transform="translate(83.1,57.22)" id="img-cfef5696-130">
                <path d="M-0.34,-0 L 0.34 -0 0.34 0 -0.34 0 z" class="primitive"/>
              </g>
              <g transform="translate(83.72,56.59)" id="img-cfef5696-131">
                <path d="M-0.34,-0.63 L 0.34 -0.63 0.34 0.63 -0.34 0.63 z" class="primitive"/>
              </g>
            </g>
          </g>
        </g>
      </g>
    </g>
  </g>
  <g class="guide ylabels" font-size="2.82" font-family="'PT Sans Caption','Helvetica Neue','Helvetica',sans-serif" fill="#6C606B" id="img-cfef5696-132">
    <g transform="translate(16.96,57.21)" id="img-cfef5696-133">
      <g class="primitive">
        <text text-anchor="end" dy="0.35em">0</text>
      </g>
    </g>
    <g transform="translate(16.96,44.66)" id="img-cfef5696-134">
      <g class="primitive">
        <text text-anchor="end" dy="0.35em">10</text>
      </g>
    </g>
    <g transform="translate(16.96,32.11)" id="img-cfef5696-135">
      <g class="primitive">
        <text text-anchor="end" dy="0.35em">20</text>
      </g>
    </g>
    <g transform="translate(16.96,19.55)" id="img-cfef5696-136">
      <g class="primitive">
        <text text-anchor="end" dy="0.35em">30</text>
      </g>
    </g>
    <g transform="translate(16.96,7)" id="img-cfef5696-137">
      <g class="primitive">
        <text text-anchor="end" dy="0.35em">40</text>
      </g>
    </g>
  </g>
  <g font-size="3.88" font-family="'PT Sans','Helvetica Neue','Helvetica',sans-serif" fill="#564A55" stroke="#000000" stroke-opacity="0.000" id="img-cfef5696-138">
    <g transform="translate(8.81,30.11)" id="img-cfef5696-139">
      <g class="primitive">
        <text text-anchor="middle" dy="0.35em" transform="rotate(-90,0, 2)">frequency</text>
      </g>
    </g>
  </g>
</g>
<defs>
  <clipPath id="img-cfef5696-11">
    <path d="M17.96,5 L 90.81 5 90.81 59.21 17.96 59.21" />
  </clipPath>
</defs>
</svg>
