<?xml version="1.0" encoding="UTF-8"?>
<svg xmlns="http://www.w3.org/2000/svg"
     xmlns:xlink="http://www.w3.org/1999/xlink"
     xmlns:gadfly="http://www.gadflyjl.org/ns"
     version="1.2"
     width="141.42mm" height="100mm" viewBox="0 0 141.42 100"
     stroke="none"
     fill="#000000"
     stroke-width="0.3"
     font-size="3.88"
>
<defs>
  <marker id="arrow" markerWidth="15" markerHeight="7" refX="5" refY="3.5" orient="auto" markerUnits="strokeWidth">
    <path d="M0,0 L15,3.5 L0,7 z" stroke="context-stroke" fill="context-stroke"/>
  </marker>
</defs>
<g class="plotroot xscalable yscalable" id="img-c6427e73-1">
  <g class="guide xlabels" font-size="2.82" font-family="'PT Sans Caption','Helvetica Neue','Helvetica',sans-serif" fill="#6C606B" id="img-c6427e73-2">
    <g transform="translate(18.29,91.33)">
      <g class="primitive">
        <text text-anchor="middle" dy="0.6em">5.5</text>
      </g>
    </g>
    <g transform="translate(32.31,91.33)">
      <g class="primitive">
        <text text-anchor="middle" dy="0.6em">6.0</text>
      </g>
    </g>
    <g transform="translate(46.33,91.33)">
      <g class="primitive">
        <text text-anchor="middle" dy="0.6em">6.5</text>
      </g>
    </g>
    <g transform="translate(60.35,91.33)">
      <g class="primitive">
        <text text-anchor="middle" dy="0.6em">7.0</text>
      </g>
    </g>
    <g transform="translate(74.37,91.33)">
      <g class="primitive">
        <text text-anchor="middle" dy="0.6em">7.5</text>
      </g>
    </g>
    <g transform="translate(88.39,91.33)">
      <g class="primitive">
        <text text-anchor="middle" dy="0.6em">8.0</text>
      </g>
    </g>
  </g>
  <g class="guide colorkey" id="img-c6427e73-3">
    <g class="color_coding_noncoding_noncoding_3-tri" id="img-c6427e73-4">
      <g fill="#4C404B" font-size="2.82" font-family="'PT Sans','Helvetica Neue','Helvetica',sans-serif" id="img-c6427e73-5">
        <g transform="translate(94.21,49.48)" id="img-c6427e73-6">
          <g class="primitive">
            <text dy="0.35em">coding_noncoding_noncoding_3-tri</text>
          </g>
        </g>
      </g>
      <g fill-opacity="1" fill="#00BFFF" stroke="#FFFFFF" id="img-c6427e73-7">
        <g transform="translate(92.3,49.48)" id="img-c6427e73-8">
          <path d="M-0.91,-0.91 L 0.91 -0.91 0.91 0.91 -0.91 0.91 z" class="primitive"/>
        </g>
      </g>
    </g>
    <g fill="#362A35" font-size="3.88" font-family="'PT Sans','Helvetica Neue','Helvetica',sans-serif" stroke="#000000" stroke-opacity="0.000" id="img-c6427e73-9">
      <g transform="translate(91.39,45.66)" id="img-c6427e73-10">
        <g class="primitive">
          <text dy="-0em">graphlet</text>
        </g>
      </g>
    </g>
  </g>
  <g clip-path="url(#img-c6427e73-11)">
    <g id="img-c6427e73-12">
      <g pointer-events="visible" stroke-width="0.3" fill="#000000" fill-opacity="0.000" stroke="#000000" stroke-opacity="0.000" class="guide background" id="img-c6427e73-13">
        <g transform="translate(53.34,47.66)" id="img-c6427e73-14">
          <path d="M-37.05,-42.66 L 37.05 -42.66 37.05 42.66 -37.05 42.66 z" class="primitive"/>
        </g>
      </g>
      <g class="guide ygridlines xfixed" stroke-dasharray="0.5,0.5" stroke-width="0.2" stroke="#D0D0E0" id="img-c6427e73-15">
        <g transform="translate(53.34,88.33)" id="img-c6427e73-16">
          <path fill="none" d="M-37.05,0 L 37.05 0" class="primitive"/>
        </g>
        <g transform="translate(53.34,74.77)" id="img-c6427e73-17">
          <path fill="none" d="M-37.05,0 L 37.05 0" class="primitive"/>
        </g>
        <g transform="translate(53.34,61.22)" id="img-c6427e73-18">
          <path fill="none" d="M-37.05,0 L 37.05 0" class="primitive"/>
        </g>
        <g transform="translate(53.34,47.66)" id="img-c6427e73-19">
          <path fill="none" d="M-37.05,0 L 37.05 0" class="primitive"/>
        </g>
        <g transform="translate(53.34,34.11)" id="img-c6427e73-20">
          <path fill="none" d="M-37.05,0 L 37.05 0" class="primitive"/>
        </g>
        <g transform="translate(53.34,20.55)" id="img-c6427e73-21">
          <path fill="none" d="M-37.05,0 L 37.05 0" class="primitive"/>
        </g>
        <g transform="translate(53.34,7)" id="img-c6427e73-22">
          <path fill="none" d="M-37.05,0 L 37.05 0" class="primitive"/>
        </g>
      </g>
      <g class="guide xgridlines yfixed" stroke-dasharray="0.5,0.5" stroke-width="0.2" stroke="#D0D0E0" id="img-c6427e73-23">
        <g transform="translate(18.29,47.66)" id="img-c6427e73-24">
          <path fill="none" d="M0,-42.66 L 0 42.66" class="primitive"/>
        </g>
        <g transform="translate(32.31,47.66)" id="img-c6427e73-25">
          <path fill="none" d="M0,-42.66 L 0 42.66" class="primitive"/>
        </g>
        <g transform="translate(46.33,47.66)" id="img-c6427e73-26">
          <path fill="none" d="M0,-42.66 L 0 42.66" class="primitive"/>
        </g>
        <g transform="translate(60.35,47.66)" id="img-c6427e73-27">
          <path fill="none" d="M0,-42.66 L 0 42.66" class="primitive"/>
        </g>
        <g transform="translate(74.37,47.66)" id="img-c6427e73-28">
          <path fill="none" d="M0,-42.66 L 0 42.66" class="primitive"/>
        </g>
        <g transform="translate(88.39,47.66)" id="img-c6427e73-29">
          <path fill="none" d="M0,-42.66 L 0 42.66" class="primitive"/>
        </g>
      </g>
      <g class="plotpanel" id="img-c6427e73-30">
        <metadata>
          <boundingbox value="16.284999999999997mm 5.0mm 74.10968957064284mm 85.32666666666667mm"/>
          <unitbox value="5.428683181588445 6.147553078121158 2.642633636823109 -6.295106156242315"/>
        </metadata>
        <g shape-rendering="crispEdges" stroke-width="0.3" id="img-c6427e73-31">
          <g stroke="#000000" stroke-opacity="0.000" class="geometry" id="img-c6427e73-32">
            <g fill="#00BFFF" id="img-c6427e73-33">
              <g transform="translate(24.84,81.55)" id="img-c6427e73-34">
                <path d="M-0.31,-6.78 L 0.31 -6.78 0.31 6.78 -0.31 6.78 z" class="primitive"/>
              </g>
              <g transform="translate(25.42,88.33)" id="img-c6427e73-35">
                <path d="M-0.31,-0 L 0.31 -0 0.31 0 -0.31 0 z" class="primitive"/>
              </g>
              <g transform="translate(25.99,88.33)" id="img-c6427e73-36">
                <path d="M-0.31,-0 L 0.31 -0 0.31 0 -0.31 0 z" class="primitive"/>
              </g>
              <g transform="translate(26.57,88.33)" id="img-c6427e73-37">
                <path d="M-0.31,-0 L 0.31 -0 0.31 0 -0.31 0 z" class="primitive"/>
              </g>
              <g transform="translate(27.14,88.33)" id="img-c6427e73-38">
                <path d="M-0.31,-0 L 0.31 -0 0.31 0 -0.31 0 z" class="primitive"/>
              </g>
              <g transform="translate(27.71,88.33)" id="img-c6427e73-39">
                <path d="M-0.31,-0 L 0.31 -0 0.31 0 -0.31 0 z" class="primitive"/>
              </g>
              <g transform="translate(28.29,88.33)" id="img-c6427e73-40">
                <path d="M-0.31,-0 L 0.31 -0 0.31 0 -0.31 0 z" class="primitive"/>
              </g>
              <g transform="translate(28.86,88.33)" id="img-c6427e73-41">
                <path d="M-0.31,-0 L 0.31 -0 0.31 0 -0.31 0 z" class="primitive"/>
              </g>
              <g transform="translate(29.44,88.33)" id="img-c6427e73-42">
                <path d="M-0.31,-0 L 0.31 -0 0.31 0 -0.31 0 z" class="primitive"/>
              </g>
              <g transform="translate(30.01,88.33)" id="img-c6427e73-43">
                <path d="M-0.31,-0 L 0.31 -0 0.31 0 -0.31 0 z" class="primitive"/>
              </g>
              <g transform="translate(30.59,88.33)" id="img-c6427e73-44">
                <path d="M-0.31,-0 L 0.31 -0 0.31 0 -0.31 0 z" class="primitive"/>
              </g>
              <g transform="translate(31.16,88.33)" id="img-c6427e73-45">
                <path d="M-0.31,-0 L 0.31 -0 0.31 0 -0.31 0 z" class="primitive"/>
              </g>
              <g transform="translate(31.74,88.33)" id="img-c6427e73-46">
                <path d="M-0.31,-0 L 0.31 -0 0.31 0 -0.31 0 z" class="primitive"/>
              </g>
              <g transform="translate(32.31,88.33)" id="img-c6427e73-47">
                <path d="M-0.31,-0 L 0.31 -0 0.31 0 -0.31 0 z" class="primitive"/>
              </g>
              <g transform="translate(32.88,81.55)" id="img-c6427e73-48">
                <path d="M-0.31,-6.78 L 0.31 -6.78 0.31 6.78 -0.31 6.78 z" class="primitive"/>
              </g>
              <g transform="translate(33.46,88.33)" id="img-c6427e73-49">
                <path d="M-0.31,-0 L 0.31 -0 0.31 0 -0.31 0 z" class="primitive"/>
              </g>
              <g transform="translate(34.03,81.55)" id="img-c6427e73-50">
                <path d="M-0.31,-6.78 L 0.31 -6.78 0.31 6.78 -0.31 6.78 z" class="primitive"/>
              </g>
              <g transform="translate(34.61,88.33)" id="img-c6427e73-51">
                <path d="M-0.31,-0 L 0.31 -0 0.31 0 -0.31 0 z" class="primitive"/>
              </g>
              <g transform="translate(35.18,74.77)" id="img-c6427e73-52">
                <path d="M-0.31,-13.55 L 0.31 -13.55 0.31 13.55 -0.31 13.55 z" class="primitive"/>
              </g>
              <g transform="translate(35.76,88.33)" id="img-c6427e73-53">
                <path d="M-0.31,-0 L 0.31 -0 0.31 0 -0.31 0 z" class="primitive"/>
              </g>
              <g transform="translate(36.33,81.55)" id="img-c6427e73-54">
                <path d="M-0.31,-6.78 L 0.31 -6.78 0.31 6.78 -0.31 6.78 z" class="primitive"/>
              </g>
              <g transform="translate(36.91,74.77)" id="img-c6427e73-55">
                <path d="M-0.31,-13.55 L 0.31 -13.55 0.31 13.55 -0.31 13.55 z" class="primitive"/>
              </g>
              <g transform="translate(37.48,88.33)" id="img-c6427e73-56">
                <path d="M-0.31,-0 L 0.31 -0 0.31 0 -0.31 0 z" class="primitive"/>
              </g>
              <g transform="translate(38.05,81.55)" id="img-c6427e73-57">
                <path d="M-0.31,-6.78 L 0.31 -6.78 0.31 6.78 -0.31 6.78 z" class="primitive"/>
              </g>
              <g transform="translate(38.63,88.33)" id="img-c6427e73-58">
                <path d="M-0.31,-0 L 0.31 -0 0.31 0 -0.31 0 z" class="primitive"/>
              </g>
              <g transform="translate(39.2,81.55)" id="img-c6427e73-59">
                <path d="M-0.31,-6.78 L 0.31 -6.78 0.31 6.78 -0.31 6.78 z" class="primitive"/>
              </g>
              <g transform="translate(39.78,88.33)" id="img-c6427e73-60">
                <path d="M-0.31,-0 L 0.31 -0 0.31 0 -0.31 0 z" class="primitive"/>
              </g>
              <g transform="translate(40.35,88.33)" id="img-c6427e73-61">
                <path d="M-0.31,-0 L 0.31 -0 0.31 0 -0.31 0 z" class="primitive"/>
              </g>
              <g transform="translate(40.93,81.55)" id="img-c6427e73-62">
                <path d="M-0.31,-6.78 L 0.31 -6.78 0.31 6.78 -0.31 6.78 z" class="primitive"/>
              </g>
              <g transform="translate(41.5,68)" id="img-c6427e73-63">
                <path d="M-0.31,-20.33 L 0.31 -20.33 0.31 20.33 -0.31 20.33 z" class="primitive"/>
              </g>
              <g transform="translate(42.08,81.55)" id="img-c6427e73-64">
                <path d="M-0.31,-6.78 L 0.31 -6.78 0.31 6.78 -0.31 6.78 z" class="primitive"/>
              </g>
              <g transform="translate(42.65,81.55)" id="img-c6427e73-65">
                <path d="M-0.31,-6.78 L 0.31 -6.78 0.31 6.78 -0.31 6.78 z" class="primitive"/>
              </g>
              <g transform="translate(43.22,81.55)" id="img-c6427e73-66">
                <path d="M-0.31,-6.78 L 0.31 -6.78 0.31 6.78 -0.31 6.78 z" class="primitive"/>
              </g>
              <g transform="translate(43.8,74.77)" id="img-c6427e73-67">
                <path d="M-0.31,-13.55 L 0.31 -13.55 0.31 13.55 -0.31 13.55 z" class="primitive"/>
              </g>
              <g transform="translate(44.37,74.77)" id="img-c6427e73-68">
                <path d="M-0.31,-13.55 L 0.31 -13.55 0.31 13.55 -0.31 13.55 z" class="primitive"/>
              </g>
              <g transform="translate(44.95,88.33)" id="img-c6427e73-69">
                <path d="M-0.31,-0 L 0.31 -0 0.31 0 -0.31 0 z" class="primitive"/>
              </g>
              <g transform="translate(45.52,81.55)" id="img-c6427e73-70">
                <path d="M-0.31,-6.78 L 0.31 -6.78 0.31 6.78 -0.31 6.78 z" class="primitive"/>
              </g>
              <g transform="translate(46.1,74.77)" id="img-c6427e73-71">
                <path d="M-0.31,-13.55 L 0.31 -13.55 0.31 13.55 -0.31 13.55 z" class="primitive"/>
              </g>
              <g transform="translate(46.67,68)" id="img-c6427e73-72">
                <path d="M-0.31,-20.33 L 0.31 -20.33 0.31 20.33 -0.31 20.33 z" class="primitive"/>
              </g>
              <g transform="translate(47.25,81.55)" id="img-c6427e73-73">
                <path d="M-0.31,-6.78 L 0.31 -6.78 0.31 6.78 -0.31 6.78 z" class="primitive"/>
              </g>
              <g transform="translate(47.82,61.22)" id="img-c6427e73-74">
                <path d="M-0.31,-27.11 L 0.31 -27.11 0.31 27.11 -0.31 27.11 z" class="primitive"/>
              </g>
              <g transform="translate(48.39,88.33)" id="img-c6427e73-75">
                <path d="M-0.31,-0 L 0.31 -0 0.31 0 -0.31 0 z" class="primitive"/>
              </g>
              <g transform="translate(48.97,61.22)" id="img-c6427e73-76">
                <path d="M-0.31,-27.11 L 0.31 -27.11 0.31 27.11 -0.31 27.11 z" class="primitive"/>
              </g>
              <g transform="translate(49.54,81.55)" id="img-c6427e73-77">
                <path d="M-0.31,-6.78 L 0.31 -6.78 0.31 6.78 -0.31 6.78 z" class="primitive"/>
              </g>
              <g transform="translate(50.12,81.55)" id="img-c6427e73-78">
                <path d="M-0.31,-6.78 L 0.31 -6.78 0.31 6.78 -0.31 6.78 z" class="primitive"/>
              </g>
              <g transform="translate(50.69,74.77)" id="img-c6427e73-79">
                <path d="M-0.31,-13.55 L 0.31 -13.55 0.31 13.55 -0.31 13.55 z" class="primitive"/>
              </g>
              <g transform="translate(51.27,81.55)" id="img-c6427e73-80">
                <path d="M-0.31,-6.78 L 0.31 -6.78 0.31 6.78 -0.31 6.78 z" class="primitive"/>
              </g>
              <g transform="translate(51.84,68)" id="img-c6427e73-81">
                <path d="M-0.31,-20.33 L 0.31 -20.33 0.31 20.33 -0.31 20.33 z" class="primitive"/>
              </g>
              <g transform="translate(52.42,81.55)" id="img-c6427e73-82">
                <path d="M-0.31,-6.78 L 0.31 -6.78 0.31 6.78 -0.31 6.78 z" class="primitive"/>
              </g>
              <g transform="translate(52.99,81.55)" id="img-c6427e73-83">
                <path d="M-0.31,-6.78 L 0.31 -6.78 0.31 6.78 -0.31 6.78 z" class="primitive"/>
              </g>
              <g transform="translate(53.56,74.77)" id="img-c6427e73-84">
                <path d="M-0.31,-13.55 L 0.31 -13.55 0.31 13.55 -0.31 13.55 z" class="primitive"/>
              </g>
              <g transform="translate(54.14,74.77)" id="img-c6427e73-85">
                <path d="M-0.31,-13.55 L 0.31 -13.55 0.31 13.55 -0.31 13.55 z" class="primitive"/>
              </g>
              <g transform="translate(54.71,68)" id="img-c6427e73-86">
                <path d="M-0.31,-20.33 L 0.31 -20.33 0.31 20.33 -0.31 20.33 z" class="primitive"/>
              </g>
              <g transform="translate(55.29,47.66)" id="img-c6427e73-87">
                <path d="M-0.31,-40.66 L 0.31 -40.66 0.31 40.66 -0.31 40.66 z" class="primitive"/>
              </g>
              <g transform="translate(55.86,74.77)" id="img-c6427e73-88">
                <path d="M-0.31,-13.55 L 0.31 -13.55 0.31 13.55 -0.31 13.55 z" class="primitive"/>
              </g>
              <g transform="translate(56.44,74.77)" id="img-c6427e73-89">
                <path d="M-0.31,-13.55 L 0.31 -13.55 0.31 13.55 -0.31 13.55 z" class="primitive"/>
              </g>
              <g transform="translate(57.01,54.44)" id="img-c6427e73-90">
                <path d="M-0.31,-33.89 L 0.31 -33.89 0.31 33.89 -0.31 33.89 z" class="primitive"/>
              </g>
              <g transform="translate(57.58,81.55)" id="img-c6427e73-91">
                <path d="M-0.31,-6.78 L 0.31 -6.78 0.31 6.78 -0.31 6.78 z" class="primitive"/>
              </g>
              <g transform="translate(58.16,68)" id="img-c6427e73-92">
                <path d="M-0.31,-20.33 L 0.31 -20.33 0.31 20.33 -0.31 20.33 z" class="primitive"/>
              </g>
              <g transform="translate(58.73,68)" id="img-c6427e73-93">
                <path d="M-0.31,-20.33 L 0.31 -20.33 0.31 20.33 -0.31 20.33 z" class="primitive"/>
              </g>
              <g transform="translate(59.31,68)" id="img-c6427e73-94">
                <path d="M-0.31,-20.33 L 0.31 -20.33 0.31 20.33 -0.31 20.33 z" class="primitive"/>
              </g>
              <g transform="translate(59.88,68)" id="img-c6427e73-95">
                <path d="M-0.31,-20.33 L 0.31 -20.33 0.31 20.33 -0.31 20.33 z" class="primitive"/>
              </g>
              <g transform="translate(60.46,54.44)" id="img-c6427e73-96">
                <path d="M-0.31,-33.89 L 0.31 -33.89 0.31 33.89 -0.31 33.89 z" class="primitive"/>
              </g>
              <g transform="translate(61.03,88.33)" id="img-c6427e73-97">
                <path d="M-0.31,-0 L 0.31 -0 0.31 0 -0.31 0 z" class="primitive"/>
              </g>
              <g transform="translate(61.61,88.33)" id="img-c6427e73-98">
                <path d="M-0.31,-0 L 0.31 -0 0.31 0 -0.31 0 z" class="primitive"/>
              </g>
              <g transform="translate(62.18,68)" id="img-c6427e73-99">
                <path d="M-0.31,-20.33 L 0.31 -20.33 0.31 20.33 -0.31 20.33 z" class="primitive"/>
              </g>
              <g transform="translate(62.75,81.55)" id="img-c6427e73-100">
                <path d="M-0.31,-6.78 L 0.31 -6.78 0.31 6.78 -0.31 6.78 z" class="primitive"/>
              </g>
              <g transform="translate(63.33,88.33)" id="img-c6427e73-101">
                <path d="M-0.31,-0 L 0.31 -0 0.31 0 -0.31 0 z" class="primitive"/>
              </g>
              <g transform="translate(63.9,81.55)" id="img-c6427e73-102">
                <path d="M-0.31,-6.78 L 0.31 -6.78 0.31 6.78 -0.31 6.78 z" class="primitive"/>
              </g>
              <g transform="translate(64.48,88.33)" id="img-c6427e73-103">
                <path d="M-0.31,-0 L 0.31 -0 0.31 0 -0.31 0 z" class="primitive"/>
              </g>
              <g transform="translate(65.05,81.55)" id="img-c6427e73-104">
                <path d="M-0.31,-6.78 L 0.31 -6.78 0.31 6.78 -0.31 6.78 z" class="primitive"/>
              </g>
              <g transform="translate(65.63,81.55)" id="img-c6427e73-105">
                <path d="M-0.31,-6.78 L 0.31 -6.78 0.31 6.78 -0.31 6.78 z" class="primitive"/>
              </g>
              <g transform="translate(66.2,88.33)" id="img-c6427e73-106">
                <path d="M-0.31,-0 L 0.31 -0 0.31 0 -0.31 0 z" class="primitive"/>
              </g>
              <g transform="translate(66.78,81.55)" id="img-c6427e73-107">
                <path d="M-0.31,-6.78 L 0.31 -6.78 0.31 6.78 -0.31 6.78 z" class="primitive"/>
              </g>
              <g transform="translate(67.35,88.33)" id="img-c6427e73-108">
                <path d="M-0.31,-0 L 0.31 -0 0.31 0 -0.31 0 z" class="primitive"/>
              </g>
              <g transform="translate(67.92,88.33)" id="img-c6427e73-109">
                <path d="M-0.31,-0 L 0.31 -0 0.31 0 -0.31 0 z" class="primitive"/>
              </g>
              <g transform="translate(68.5,88.33)" id="img-c6427e73-110">
                <path d="M-0.31,-0 L 0.31 -0 0.31 0 -0.31 0 z" class="primitive"/>
              </g>
              <g transform="translate(69.07,88.33)" id="img-c6427e73-111">
                <path d="M-0.31,-0 L 0.31 -0 0.31 0 -0.31 0 z" class="primitive"/>
              </g>
              <g transform="translate(69.65,81.55)" id="img-c6427e73-112">
                <path d="M-0.31,-6.78 L 0.31 -6.78 0.31 6.78 -0.31 6.78 z" class="primitive"/>
              </g>
              <g transform="translate(70.22,88.33)" id="img-c6427e73-113">
                <path d="M-0.31,-0 L 0.31 -0 0.31 0 -0.31 0 z" class="primitive"/>
              </g>
              <g transform="translate(70.8,81.55)" id="img-c6427e73-114">
                <path d="M-0.31,-6.78 L 0.31 -6.78 0.31 6.78 -0.31 6.78 z" class="primitive"/>
              </g>
              <g transform="translate(71.37,88.33)" id="img-c6427e73-115">
                <path d="M-0.31,-0 L 0.31 -0 0.31 0 -0.31 0 z" class="primitive"/>
              </g>
              <g transform="translate(71.95,88.33)" id="img-c6427e73-116">
                <path d="M-0.31,-0 L 0.31 -0 0.31 0 -0.31 0 z" class="primitive"/>
              </g>
              <g transform="translate(72.52,81.55)" id="img-c6427e73-117">
                <path d="M-0.31,-6.78 L 0.31 -6.78 0.31 6.78 -0.31 6.78 z" class="primitive"/>
              </g>
              <g transform="translate(73.09,81.55)" id="img-c6427e73-118">
                <path d="M-0.31,-6.78 L 0.31 -6.78 0.31 6.78 -0.31 6.78 z" class="primitive"/>
              </g>
              <g transform="translate(73.67,88.33)" id="img-c6427e73-119">
                <path d="M-0.31,-0 L 0.31 -0 0.31 0 -0.31 0 z" class="primitive"/>
              </g>
              <g transform="translate(74.24,88.33)" id="img-c6427e73-120">
                <path d="M-0.31,-0 L 0.31 -0 0.31 0 -0.31 0 z" class="primitive"/>
              </g>
              <g transform="translate(74.82,88.33)" id="img-c6427e73-121">
                <path d="M-0.31,-0 L 0.31 -0 0.31 0 -0.31 0 z" class="primitive"/>
              </g>
              <g transform="translate(75.39,81.55)" id="img-c6427e73-122">
                <path d="M-0.31,-6.78 L 0.31 -6.78 0.31 6.78 -0.31 6.78 z" class="primitive"/>
              </g>
              <g transform="translate(75.97,88.33)" id="img-c6427e73-123">
                <path d="M-0.31,-0 L 0.31 -0 0.31 0 -0.31 0 z" class="primitive"/>
              </g>
              <g transform="translate(76.54,88.33)" id="img-c6427e73-124">
                <path d="M-0.31,-0 L 0.31 -0 0.31 0 -0.31 0 z" class="primitive"/>
              </g>
              <g transform="translate(77.12,88.33)" id="img-c6427e73-125">
                <path d="M-0.31,-0 L 0.31 -0 0.31 0 -0.31 0 z" class="primitive"/>
              </g>
              <g transform="translate(77.69,88.33)" id="img-c6427e73-126">
                <path d="M-0.31,-0 L 0.31 -0 0.31 0 -0.31 0 z" class="primitive"/>
              </g>
              <g transform="translate(78.26,88.33)" id="img-c6427e73-127">
                <path d="M-0.31,-0 L 0.31 -0 0.31 0 -0.31 0 z" class="primitive"/>
              </g>
              <g transform="translate(78.84,88.33)" id="img-c6427e73-128">
                <path d="M-0.31,-0 L 0.31 -0 0.31 0 -0.31 0 z" class="primitive"/>
              </g>
              <g transform="translate(79.41,88.33)" id="img-c6427e73-129">
                <path d="M-0.31,-0 L 0.31 -0 0.31 0 -0.31 0 z" class="primitive"/>
              </g>
              <g transform="translate(79.99,88.33)" id="img-c6427e73-130">
                <path d="M-0.31,-0 L 0.31 -0 0.31 0 -0.31 0 z" class="primitive"/>
              </g>
              <g transform="translate(80.56,88.33)" id="img-c6427e73-131">
                <path d="M-0.31,-0 L 0.31 -0 0.31 0 -0.31 0 z" class="primitive"/>
              </g>
              <g transform="translate(81.14,88.33)" id="img-c6427e73-132">
                <path d="M-0.31,-0 L 0.31 -0 0.31 0 -0.31 0 z" class="primitive"/>
              </g>
              <g transform="translate(81.71,81.55)" id="img-c6427e73-133">
                <path d="M-0.31,-6.78 L 0.31 -6.78 0.31 6.78 -0.31 6.78 z" class="primitive"/>
              </g>
            </g>
          </g>
        </g>
      </g>
    </g>
  </g>
  <g class="guide ylabels" font-size="2.82" font-family="'PT Sans Caption','Helvetica Neue','Helvetica',sans-serif" fill="#6C606B" id="img-c6427e73-134">
    <g transform="translate(15.28,88.33)" id="img-c6427e73-135">
      <g class="primitive">
        <text text-anchor="end" dy="0.35em">0</text>
      </g>
    </g>
    <g transform="translate(15.28,74.77)" id="img-c6427e73-136">
      <g class="primitive">
        <text text-anchor="end" dy="0.35em">1</text>
      </g>
    </g>
    <g transform="translate(15.28,61.22)" id="img-c6427e73-137">
      <g class="primitive">
        <text text-anchor="end" dy="0.35em">2</text>
      </g>
    </g>
    <g transform="translate(15.28,47.66)" id="img-c6427e73-138">
      <g class="primitive">
        <text text-anchor="end" dy="0.35em">3</text>
      </g>
    </g>
    <g transform="translate(15.28,34.11)" id="img-c6427e73-139">
      <g class="primitive">
        <text text-anchor="end" dy="0.35em">4</text>
      </g>
    </g>
    <g transform="translate(15.28,20.55)" id="img-c6427e73-140">
      <g class="primitive">
        <text text-anchor="end" dy="0.35em">5</text>
      </g>
    </g>
    <g transform="translate(15.28,7)" id="img-c6427e73-141">
      <g class="primitive">
        <text text-anchor="end" dy="0.35em">6</text>
      </g>
    </g>
  </g>
  <g font-size="3.88" font-family="'PT Sans','Helvetica Neue','Helvetica',sans-serif" fill="#564A55" stroke="#000000" stroke-opacity="0.000" id="img-c6427e73-142">
    <g transform="translate(8.81,45.66)" id="img-c6427e73-143">
      <g class="primitive">
        <text text-anchor="middle" dy="0.35em" transform="rotate(-90,0, 2)">frequency</text>
      </g>
    </g>
  </g>
</g>
<defs>
  <clipPath id="img-c6427e73-11">
    <path d="M16.28,5 L 90.39 5 90.39 90.33 16.28 90.33" />
  </clipPath>
</defs>
</svg>
