<?xml version="1.0" encoding="UTF-8"?>
<svg xmlns="http://www.w3.org/2000/svg"
     xmlns:xlink="http://www.w3.org/1999/xlink"
     xmlns:gadfly="http://www.gadflyjl.org/ns"
     version="1.2"
     width="141.42mm" height="100mm" viewBox="0 0 141.42 100"
     stroke="none"
     fill="#000000"
     stroke-width="0.3"
     font-size="3.88"
>
<defs>
  <marker id="arrow" markerWidth="15" markerHeight="7" refX="5" refY="3.5" orient="auto" markerUnits="strokeWidth">
    <path d="M0,0 L15,3.5 L0,7 z" stroke="context-stroke" fill="context-stroke"/>
  </marker>
</defs>
<g class="plotroot xscalable yscalable" id="img-bfe12bbc-1">
  <g class="guide xlabels" font-size="2.82" font-family="'PT Sans Caption','Helvetica Neue','Helvetica',sans-serif" fill="#6C606B" id="img-bfe12bbc-2">
    <g transform="translate(19.96,91.33)">
      <g class="primitive">
        <text text-anchor="middle" dy="0.6em">11.65</text>
      </g>
    </g>
    <g transform="translate(38.22,91.33)">
      <g class="primitive">
        <text text-anchor="middle" dy="0.6em">11.70</text>
      </g>
    </g>
    <g transform="translate(56.47,91.33)">
      <g class="primitive">
        <text text-anchor="middle" dy="0.6em">11.75</text>
      </g>
    </g>
    <g transform="translate(74.73,91.33)">
      <g class="primitive">
        <text text-anchor="middle" dy="0.6em">11.80</text>
      </g>
    </g>
    <g transform="translate(92.99,91.33)">
      <g class="primitive">
        <text text-anchor="middle" dy="0.6em">11.85</text>
      </g>
    </g>
  </g>
  <g class="guide colorkey" id="img-bfe12bbc-3">
    <g class="color_coding_coding_noncoding_3-tri" id="img-bfe12bbc-4">
      <g fill="#4C404B" font-size="2.82" font-family="'PT Sans','Helvetica Neue','Helvetica',sans-serif" id="img-bfe12bbc-5">
        <g transform="translate(98.8,49.48)" id="img-bfe12bbc-6">
          <g class="primitive">
            <text dy="0.35em">coding_coding_noncoding_3-tri</text>
          </g>
        </g>
      </g>
      <g fill-opacity="1" fill="#00BFFF" stroke="#FFFFFF" id="img-bfe12bbc-7">
        <g transform="translate(96.89,49.48)" id="img-bfe12bbc-8">
          <path d="M-0.91,-0.91 L 0.91 -0.91 0.91 0.91 -0.91 0.91 z" class="primitive"/>
        </g>
      </g>
    </g>
    <g fill="#362A35" font-size="3.88" font-family="'PT Sans','Helvetica Neue','Helvetica',sans-serif" stroke="#000000" stroke-opacity="0.000" id="img-bfe12bbc-9">
      <g transform="translate(95.99,45.66)" id="img-bfe12bbc-10">
        <g class="primitive">
          <text dy="-0em">graphlet</text>
        </g>
      </g>
    </g>
  </g>
  <g clip-path="url(#img-bfe12bbc-11)">
    <g id="img-bfe12bbc-12">
      <g pointer-events="visible" stroke-width="0.3" fill="#000000" fill-opacity="0.000" stroke="#000000" stroke-opacity="0.000" class="guide background" id="img-bfe12bbc-13">
        <g transform="translate(56.47,47.66)" id="img-bfe12bbc-14">
          <path d="M-38.51,-42.66 L 38.51 -42.66 38.51 42.66 -38.51 42.66 z" class="primitive"/>
        </g>
      </g>
      <g class="guide ygridlines xfixed" stroke-dasharray="0.5,0.5" stroke-width="0.2" stroke="#D0D0E0" id="img-bfe12bbc-15">
        <g transform="translate(56.47,88.33)" id="img-bfe12bbc-16">
          <path fill="none" d="M-38.51,0 L 38.51 0" class="primitive"/>
        </g>
        <g transform="translate(56.47,74.77)" id="img-bfe12bbc-17">
          <path fill="none" d="M-38.51,0 L 38.51 0" class="primitive"/>
        </g>
        <g transform="translate(56.47,61.22)" id="img-bfe12bbc-18">
          <path fill="none" d="M-38.51,0 L 38.51 0" class="primitive"/>
        </g>
        <g transform="translate(56.47,47.66)" id="img-bfe12bbc-19">
          <path fill="none" d="M-38.51,0 L 38.51 0" class="primitive"/>
        </g>
        <g transform="translate(56.47,34.11)" id="img-bfe12bbc-20">
          <path fill="none" d="M-38.51,0 L 38.51 0" class="primitive"/>
        </g>
        <g transform="translate(56.47,20.55)" id="img-bfe12bbc-21">
          <path fill="none" d="M-38.51,0 L 38.51 0" class="primitive"/>
        </g>
        <g transform="translate(56.47,7)" id="img-bfe12bbc-22">
          <path fill="none" d="M-38.51,0 L 38.51 0" class="primitive"/>
        </g>
      </g>
      <g class="guide xgridlines yfixed" stroke-dasharray="0.5,0.5" stroke-width="0.2" stroke="#D0D0E0" id="img-bfe12bbc-23">
        <g transform="translate(19.96,47.66)" id="img-bfe12bbc-24">
          <path fill="none" d="M0,-42.66 L 0 42.66" class="primitive"/>
        </g>
        <g transform="translate(38.22,47.66)" id="img-bfe12bbc-25">
          <path fill="none" d="M0,-42.66 L 0 42.66" class="primitive"/>
        </g>
        <g transform="translate(56.47,47.66)" id="img-bfe12bbc-26">
          <path fill="none" d="M0,-42.66 L 0 42.66" class="primitive"/>
        </g>
        <g transform="translate(74.73,47.66)" id="img-bfe12bbc-27">
          <path fill="none" d="M0,-42.66 L 0 42.66" class="primitive"/>
        </g>
        <g transform="translate(92.99,47.66)" id="img-bfe12bbc-28">
          <path fill="none" d="M0,-42.66 L 0 42.66" class="primitive"/>
        </g>
      </g>
      <g class="plotpanel" id="img-bfe12bbc-29">
        <metadata>
          <boundingbox value="17.95833333333333mm 5.0mm 77.02968957064283mm 85.32666666666667mm"/>
          <unitbox value="11.644522775567696 61.475530781211575 0.21095444886461182 -62.95106156242315"/>
        </metadata>
        <g shape-rendering="crispEdges" stroke-width="0.3" id="img-bfe12bbc-30">
          <g stroke="#000000" stroke-opacity="0.000" class="geometry" id="img-bfe12bbc-31">
            <g fill="#00BFFF" id="img-bfe12bbc-32">
              <g transform="translate(30.46,87.65)" id="img-bfe12bbc-33">
                <path d="M-0.25,-0.68 L 0.25 -0.68 0.25 0.68 -0.25 0.68 z" class="primitive"/>
              </g>
              <g transform="translate(30.91,88.33)" id="img-bfe12bbc-34">
                <path d="M-0.25,-0 L 0.25 -0 0.25 0 -0.25 0 z" class="primitive"/>
              </g>
              <g transform="translate(31.36,88.33)" id="img-bfe12bbc-35">
                <path d="M-0.25,-0 L 0.25 -0 0.25 0 -0.25 0 z" class="primitive"/>
              </g>
              <g transform="translate(31.81,88.33)" id="img-bfe12bbc-36">
                <path d="M-0.25,-0 L 0.25 -0 0.25 0 -0.25 0 z" class="primitive"/>
              </g>
              <g transform="translate(32.26,88.33)" id="img-bfe12bbc-37">
                <path d="M-0.25,-0 L 0.25 -0 0.25 0 -0.25 0 z" class="primitive"/>
              </g>
              <g transform="translate(32.7,88.33)" id="img-bfe12bbc-38">
                <path d="M-0.25,-0 L 0.25 -0 0.25 0 -0.25 0 z" class="primitive"/>
              </g>
              <g transform="translate(33.15,88.33)" id="img-bfe12bbc-39">
                <path d="M-0.25,-0 L 0.25 -0 0.25 0 -0.25 0 z" class="primitive"/>
              </g>
              <g transform="translate(33.6,87.65)" id="img-bfe12bbc-40">
                <path d="M-0.25,-0.68 L 0.25 -0.68 0.25 0.68 -0.25 0.68 z" class="primitive"/>
              </g>
              <g transform="translate(34.05,88.33)" id="img-bfe12bbc-41">
                <path d="M-0.25,-0 L 0.25 -0 0.25 0 -0.25 0 z" class="primitive"/>
              </g>
              <g transform="translate(34.49,88.33)" id="img-bfe12bbc-42">
                <path d="M-0.25,-0 L 0.25 -0 0.25 0 -0.25 0 z" class="primitive"/>
              </g>
              <g transform="translate(34.94,88.33)" id="img-bfe12bbc-43">
                <path d="M-0.25,-0 L 0.25 -0 0.25 0 -0.25 0 z" class="primitive"/>
              </g>
              <g transform="translate(35.39,88.33)" id="img-bfe12bbc-44">
                <path d="M-0.25,-0 L 0.25 -0 0.25 0 -0.25 0 z" class="primitive"/>
              </g>
              <g transform="translate(35.84,88.33)" id="img-bfe12bbc-45">
                <path d="M-0.25,-0 L 0.25 -0 0.25 0 -0.25 0 z" class="primitive"/>
              </g>
              <g transform="translate(36.28,88.33)" id="img-bfe12bbc-46">
                <path d="M-0.25,-0 L 0.25 -0 0.25 0 -0.25 0 z" class="primitive"/>
              </g>
              <g transform="translate(36.73,88.33)" id="img-bfe12bbc-47">
                <path d="M-0.25,-0 L 0.25 -0 0.25 0 -0.25 0 z" class="primitive"/>
              </g>
              <g transform="translate(37.18,88.33)" id="img-bfe12bbc-48">
                <path d="M-0.25,-0 L 0.25 -0 0.25 0 -0.25 0 z" class="primitive"/>
              </g>
              <g transform="translate(37.63,87.65)" id="img-bfe12bbc-49">
                <path d="M-0.25,-0.68 L 0.25 -0.68 0.25 0.68 -0.25 0.68 z" class="primitive"/>
              </g>
              <g transform="translate(38.08,88.33)" id="img-bfe12bbc-50">
                <path d="M-0.25,-0 L 0.25 -0 0.25 0 -0.25 0 z" class="primitive"/>
              </g>
              <g transform="translate(38.52,88.33)" id="img-bfe12bbc-51">
                <path d="M-0.25,-0 L 0.25 -0 0.25 0 -0.25 0 z" class="primitive"/>
              </g>
              <g transform="translate(38.97,88.33)" id="img-bfe12bbc-52">
                <path d="M-0.25,-0 L 0.25 -0 0.25 0 -0.25 0 z" class="primitive"/>
              </g>
              <g transform="translate(39.42,88.33)" id="img-bfe12bbc-53">
                <path d="M-0.25,-0 L 0.25 -0 0.25 0 -0.25 0 z" class="primitive"/>
              </g>
              <g transform="translate(39.87,88.33)" id="img-bfe12bbc-54">
                <path d="M-0.25,-0 L 0.25 -0 0.25 0 -0.25 0 z" class="primitive"/>
              </g>
              <g transform="translate(40.31,88.33)" id="img-bfe12bbc-55">
                <path d="M-0.25,-0 L 0.25 -0 0.25 0 -0.25 0 z" class="primitive"/>
              </g>
              <g transform="translate(40.76,88.33)" id="img-bfe12bbc-56">
                <path d="M-0.25,-0 L 0.25 -0 0.25 0 -0.25 0 z" class="primitive"/>
              </g>
              <g transform="translate(41.21,88.33)" id="img-bfe12bbc-57">
                <path d="M-0.25,-0 L 0.25 -0 0.25 0 -0.25 0 z" class="primitive"/>
              </g>
              <g transform="translate(41.66,88.33)" id="img-bfe12bbc-58">
                <path d="M-0.25,-0 L 0.25 -0 0.25 0 -0.25 0 z" class="primitive"/>
              </g>
              <g transform="translate(42.1,84.94)" id="img-bfe12bbc-59">
                <path d="M-0.25,-3.39 L 0.25 -3.39 0.25 3.39 -0.25 3.39 z" class="primitive"/>
              </g>
              <g transform="translate(42.55,87.65)" id="img-bfe12bbc-60">
                <path d="M-0.25,-0.68 L 0.25 -0.68 0.25 0.68 -0.25 0.68 z" class="primitive"/>
              </g>
              <g transform="translate(43,88.33)" id="img-bfe12bbc-61">
                <path d="M-0.25,-0 L 0.25 -0 0.25 0 -0.25 0 z" class="primitive"/>
              </g>
              <g transform="translate(43.45,85.62)" id="img-bfe12bbc-62">
                <path d="M-0.25,-2.71 L 0.25 -2.71 0.25 2.71 -0.25 2.71 z" class="primitive"/>
              </g>
              <g transform="translate(43.9,88.33)" id="img-bfe12bbc-63">
                <path d="M-0.25,-0 L 0.25 -0 0.25 0 -0.25 0 z" class="primitive"/>
              </g>
              <g transform="translate(44.34,88.33)" id="img-bfe12bbc-64">
                <path d="M-0.25,-0 L 0.25 -0 0.25 0 -0.25 0 z" class="primitive"/>
              </g>
              <g transform="translate(44.79,87.65)" id="img-bfe12bbc-65">
                <path d="M-0.25,-0.68 L 0.25 -0.68 0.25 0.68 -0.25 0.68 z" class="primitive"/>
              </g>
              <g transform="translate(45.24,88.33)" id="img-bfe12bbc-66">
                <path d="M-0.25,-0 L 0.25 -0 0.25 0 -0.25 0 z" class="primitive"/>
              </g>
              <g transform="translate(45.69,87.65)" id="img-bfe12bbc-67">
                <path d="M-0.25,-0.68 L 0.25 -0.68 0.25 0.68 -0.25 0.68 z" class="primitive"/>
              </g>
              <g transform="translate(46.13,88.33)" id="img-bfe12bbc-68">
                <path d="M-0.25,-0 L 0.25 -0 0.25 0 -0.25 0 z" class="primitive"/>
              </g>
              <g transform="translate(46.58,86.97)" id="img-bfe12bbc-69">
                <path d="M-0.25,-1.36 L 0.25 -1.36 0.25 1.36 -0.25 1.36 z" class="primitive"/>
              </g>
              <g transform="translate(47.03,88.33)" id="img-bfe12bbc-70">
                <path d="M-0.25,-0 L 0.25 -0 0.25 0 -0.25 0 z" class="primitive"/>
              </g>
              <g transform="translate(47.48,88.33)" id="img-bfe12bbc-71">
                <path d="M-0.25,-0 L 0.25 -0 0.25 0 -0.25 0 z" class="primitive"/>
              </g>
              <g transform="translate(47.92,87.65)" id="img-bfe12bbc-72">
                <path d="M-0.25,-0.68 L 0.25 -0.68 0.25 0.68 -0.25 0.68 z" class="primitive"/>
              </g>
              <g transform="translate(48.37,87.65)" id="img-bfe12bbc-73">
                <path d="M-0.25,-0.68 L 0.25 -0.68 0.25 0.68 -0.25 0.68 z" class="primitive"/>
              </g>
              <g transform="translate(48.82,86.97)" id="img-bfe12bbc-74">
                <path d="M-0.25,-1.36 L 0.25 -1.36 0.25 1.36 -0.25 1.36 z" class="primitive"/>
              </g>
              <g transform="translate(49.27,87.65)" id="img-bfe12bbc-75">
                <path d="M-0.25,-0.68 L 0.25 -0.68 0.25 0.68 -0.25 0.68 z" class="primitive"/>
              </g>
              <g transform="translate(49.72,86.97)" id="img-bfe12bbc-76">
                <path d="M-0.25,-1.36 L 0.25 -1.36 0.25 1.36 -0.25 1.36 z" class="primitive"/>
              </g>
              <g transform="translate(50.16,86.29)" id="img-bfe12bbc-77">
                <path d="M-0.25,-2.03 L 0.25 -2.03 0.25 2.03 -0.25 2.03 z" class="primitive"/>
              </g>
              <g transform="translate(50.61,86.97)" id="img-bfe12bbc-78">
                <path d="M-0.25,-1.36 L 0.25 -1.36 0.25 1.36 -0.25 1.36 z" class="primitive"/>
              </g>
              <g transform="translate(51.06,87.65)" id="img-bfe12bbc-79">
                <path d="M-0.25,-0.68 L 0.25 -0.68 0.25 0.68 -0.25 0.68 z" class="primitive"/>
              </g>
              <g transform="translate(51.51,86.97)" id="img-bfe12bbc-80">
                <path d="M-0.25,-1.36 L 0.25 -1.36 0.25 1.36 -0.25 1.36 z" class="primitive"/>
              </g>
              <g transform="translate(51.95,86.29)" id="img-bfe12bbc-81">
                <path d="M-0.25,-2.03 L 0.25 -2.03 0.25 2.03 -0.25 2.03 z" class="primitive"/>
              </g>
              <g transform="translate(52.4,85.62)" id="img-bfe12bbc-82">
                <path d="M-0.25,-2.71 L 0.25 -2.71 0.25 2.71 -0.25 2.71 z" class="primitive"/>
              </g>
              <g transform="translate(52.85,86.97)" id="img-bfe12bbc-83">
                <path d="M-0.25,-1.36 L 0.25 -1.36 0.25 1.36 -0.25 1.36 z" class="primitive"/>
              </g>
              <g transform="translate(53.3,84.94)" id="img-bfe12bbc-84">
                <path d="M-0.25,-3.39 L 0.25 -3.39 0.25 3.39 -0.25 3.39 z" class="primitive"/>
              </g>
              <g transform="translate(53.74,82.23)" id="img-bfe12bbc-85">
                <path d="M-0.25,-6.1 L 0.25 -6.1 0.25 6.1 -0.25 6.1 z" class="primitive"/>
              </g>
              <g transform="translate(54.19,86.97)" id="img-bfe12bbc-86">
                <path d="M-0.25,-1.36 L 0.25 -1.36 0.25 1.36 -0.25 1.36 z" class="primitive"/>
              </g>
              <g transform="translate(54.64,82.23)" id="img-bfe12bbc-87">
                <path d="M-0.25,-6.1 L 0.25 -6.1 0.25 6.1 -0.25 6.1 z" class="primitive"/>
              </g>
              <g transform="translate(55.09,84.26)" id="img-bfe12bbc-88">
                <path d="M-0.25,-4.07 L 0.25 -4.07 0.25 4.07 -0.25 4.07 z" class="primitive"/>
              </g>
              <g transform="translate(55.53,83.58)" id="img-bfe12bbc-89">
                <path d="M-0.25,-4.74 L 0.25 -4.74 0.25 4.74 -0.25 4.74 z" class="primitive"/>
              </g>
              <g transform="translate(55.98,82.23)" id="img-bfe12bbc-90">
                <path d="M-0.25,-6.1 L 0.25 -6.1 0.25 6.1 -0.25 6.1 z" class="primitive"/>
              </g>
              <g transform="translate(56.43,82.9)" id="img-bfe12bbc-91">
                <path d="M-0.25,-5.42 L 0.25 -5.42 0.25 5.42 -0.25 5.42 z" class="primitive"/>
              </g>
              <g transform="translate(56.88,80.87)" id="img-bfe12bbc-92">
                <path d="M-0.25,-7.45 L 0.25 -7.45 0.25 7.45 -0.25 7.45 z" class="primitive"/>
              </g>
              <g transform="translate(57.33,79.52)" id="img-bfe12bbc-93">
                <path d="M-0.25,-8.81 L 0.25 -8.81 0.25 8.81 -0.25 8.81 z" class="primitive"/>
              </g>
              <g transform="translate(57.77,80.87)" id="img-bfe12bbc-94">
                <path d="M-0.25,-7.45 L 0.25 -7.45 0.25 7.45 -0.25 7.45 z" class="primitive"/>
              </g>
              <g transform="translate(58.22,77.48)" id="img-bfe12bbc-95">
                <path d="M-0.25,-10.84 L 0.25 -10.84 0.25 10.84 -0.25 10.84 z" class="primitive"/>
              </g>
              <g transform="translate(58.67,79.52)" id="img-bfe12bbc-96">
                <path d="M-0.25,-8.81 L 0.25 -8.81 0.25 8.81 -0.25 8.81 z" class="primitive"/>
              </g>
              <g transform="translate(59.12,81.55)" id="img-bfe12bbc-97">
                <path d="M-0.25,-6.78 L 0.25 -6.78 0.25 6.78 -0.25 6.78 z" class="primitive"/>
              </g>
              <g transform="translate(59.56,74.77)" id="img-bfe12bbc-98">
                <path d="M-0.25,-13.55 L 0.25 -13.55 0.25 13.55 -0.25 13.55 z" class="primitive"/>
              </g>
              <g transform="translate(60.01,76.13)" id="img-bfe12bbc-99">
                <path d="M-0.25,-12.2 L 0.25 -12.2 0.25 12.2 -0.25 12.2 z" class="primitive"/>
              </g>
              <g transform="translate(60.46,80.19)" id="img-bfe12bbc-100">
                <path d="M-0.25,-8.13 L 0.25 -8.13 0.25 8.13 -0.25 8.13 z" class="primitive"/>
              </g>
              <g transform="translate(60.91,74.77)" id="img-bfe12bbc-101">
                <path d="M-0.25,-13.55 L 0.25 -13.55 0.25 13.55 -0.25 13.55 z" class="primitive"/>
              </g>
              <g transform="translate(61.35,70.71)" id="img-bfe12bbc-102">
                <path d="M-0.25,-17.62 L 0.25 -17.62 0.25 17.62 -0.25 17.62 z" class="primitive"/>
              </g>
              <g transform="translate(61.8,68.67)" id="img-bfe12bbc-103">
                <path d="M-0.25,-19.65 L 0.25 -19.65 0.25 19.65 -0.25 19.65 z" class="primitive"/>
              </g>
              <g transform="translate(62.25,68.67)" id="img-bfe12bbc-104">
                <path d="M-0.25,-19.65 L 0.25 -19.65 0.25 19.65 -0.25 19.65 z" class="primitive"/>
              </g>
              <g transform="translate(62.7,73.42)" id="img-bfe12bbc-105">
                <path d="M-0.25,-14.91 L 0.25 -14.91 0.25 14.91 -0.25 14.91 z" class="primitive"/>
              </g>
              <g transform="translate(63.15,63.93)" id="img-bfe12bbc-106">
                <path d="M-0.25,-24.4 L 0.25 -24.4 0.25 24.4 -0.25 24.4 z" class="primitive"/>
              </g>
              <g transform="translate(63.59,70.03)" id="img-bfe12bbc-107">
                <path d="M-0.25,-18.3 L 0.25 -18.3 0.25 18.3 -0.25 18.3 z" class="primitive"/>
              </g>
              <g transform="translate(64.04,53.09)" id="img-bfe12bbc-108">
                <path d="M-0.25,-35.24 L 0.25 -35.24 0.25 35.24 -0.25 35.24 z" class="primitive"/>
              </g>
              <g transform="translate(64.49,63.93)" id="img-bfe12bbc-109">
                <path d="M-0.25,-24.4 L 0.25 -24.4 0.25 24.4 -0.25 24.4 z" class="primitive"/>
              </g>
              <g transform="translate(64.94,59.86)" id="img-bfe12bbc-110">
                <path d="M-0.25,-28.46 L 0.25 -28.46 0.25 28.46 -0.25 28.46 z" class="primitive"/>
              </g>
              <g transform="translate(65.38,65.28)" id="img-bfe12bbc-111">
                <path d="M-0.25,-23.04 L 0.25 -23.04 0.25 23.04 -0.25 23.04 z" class="primitive"/>
              </g>
              <g transform="translate(65.83,57.83)" id="img-bfe12bbc-112">
                <path d="M-0.25,-30.5 L 0.25 -30.5 0.25 30.5 -0.25 30.5 z" class="primitive"/>
              </g>
              <g transform="translate(66.28,63.25)" id="img-bfe12bbc-113">
                <path d="M-0.25,-25.08 L 0.25 -25.08 0.25 25.08 -0.25 25.08 z" class="primitive"/>
              </g>
              <g transform="translate(66.73,53.76)" id="img-bfe12bbc-114">
                <path d="M-0.25,-34.56 L 0.25 -34.56 0.25 34.56 -0.25 34.56 z" class="primitive"/>
              </g>
              <g transform="translate(67.17,57.83)" id="img-bfe12bbc-115">
                <path d="M-0.25,-30.5 L 0.25 -30.5 0.25 30.5 -0.25 30.5 z" class="primitive"/>
              </g>
              <g transform="translate(67.62,67.32)" id="img-bfe12bbc-116">
                <path d="M-0.25,-21.01 L 0.25 -21.01 0.25 21.01 -0.25 21.01 z" class="primitive"/>
              </g>
              <g transform="translate(68.07,63.25)" id="img-bfe12bbc-117">
                <path d="M-0.25,-25.08 L 0.25 -25.08 0.25 25.08 -0.25 25.08 z" class="primitive"/>
              </g>
              <g transform="translate(68.52,69.35)" id="img-bfe12bbc-118">
                <path d="M-0.25,-18.98 L 0.25 -18.98 0.25 18.98 -0.25 18.98 z" class="primitive"/>
              </g>
              <g transform="translate(68.97,67.32)" id="img-bfe12bbc-119">
                <path d="M-0.25,-21.01 L 0.25 -21.01 0.25 21.01 -0.25 21.01 z" class="primitive"/>
              </g>
              <g transform="translate(69.41,74.77)" id="img-bfe12bbc-120">
                <path d="M-0.25,-13.55 L 0.25 -13.55 0.25 13.55 -0.25 13.55 z" class="primitive"/>
              </g>
              <g transform="translate(69.86,68.67)" id="img-bfe12bbc-121">
                <path d="M-0.25,-19.65 L 0.25 -19.65 0.25 19.65 -0.25 19.65 z" class="primitive"/>
              </g>
              <g transform="translate(70.31,71.38)" id="img-bfe12bbc-122">
                <path d="M-0.25,-16.94 L 0.25 -16.94 0.25 16.94 -0.25 16.94 z" class="primitive"/>
              </g>
              <g transform="translate(70.76,79.52)" id="img-bfe12bbc-123">
                <path d="M-0.25,-8.81 L 0.25 -8.81 0.25 8.81 -0.25 8.81 z" class="primitive"/>
              </g>
              <g transform="translate(71.2,83.58)" id="img-bfe12bbc-124">
                <path d="M-0.25,-4.74 L 0.25 -4.74 0.25 4.74 -0.25 4.74 z" class="primitive"/>
              </g>
              <g transform="translate(71.65,80.87)" id="img-bfe12bbc-125">
                <path d="M-0.25,-7.45 L 0.25 -7.45 0.25 7.45 -0.25 7.45 z" class="primitive"/>
              </g>
              <g transform="translate(72.1,82.23)" id="img-bfe12bbc-126">
                <path d="M-0.25,-6.1 L 0.25 -6.1 0.25 6.1 -0.25 6.1 z" class="primitive"/>
              </g>
              <g transform="translate(72.55,86.97)" id="img-bfe12bbc-127">
                <path d="M-0.25,-1.36 L 0.25 -1.36 0.25 1.36 -0.25 1.36 z" class="primitive"/>
              </g>
              <g transform="translate(72.99,87.65)" id="img-bfe12bbc-128">
                <path d="M-0.25,-0.68 L 0.25 -0.68 0.25 0.68 -0.25 0.68 z" class="primitive"/>
              </g>
              <g transform="translate(73.44,86.29)" id="img-bfe12bbc-129">
                <path d="M-0.25,-2.03 L 0.25 -2.03 0.25 2.03 -0.25 2.03 z" class="primitive"/>
              </g>
              <g transform="translate(73.89,87.65)" id="img-bfe12bbc-130">
                <path d="M-0.25,-0.68 L 0.25 -0.68 0.25 0.68 -0.25 0.68 z" class="primitive"/>
              </g>
              <g transform="translate(74.34,88.33)" id="img-bfe12bbc-131">
                <path d="M-0.25,-0 L 0.25 -0 0.25 0 -0.25 0 z" class="primitive"/>
              </g>
              <g transform="translate(74.79,87.65)" id="img-bfe12bbc-132">
                <path d="M-0.25,-0.68 L 0.25 -0.68 0.25 0.68 -0.25 0.68 z" class="primitive"/>
              </g>
            </g>
          </g>
        </g>
      </g>
    </g>
  </g>
  <g class="guide ylabels" font-size="2.82" font-family="'PT Sans Caption','Helvetica Neue','Helvetica',sans-serif" fill="#6C606B" id="img-bfe12bbc-133">
    <g transform="translate(16.96,88.33)" id="img-bfe12bbc-134">
      <g class="primitive">
        <text text-anchor="end" dy="0.35em">0</text>
      </g>
    </g>
    <g transform="translate(16.96,74.77)" id="img-bfe12bbc-135">
      <g class="primitive">
        <text text-anchor="end" dy="0.35em">10</text>
      </g>
    </g>
    <g transform="translate(16.96,61.22)" id="img-bfe12bbc-136">
      <g class="primitive">
        <text text-anchor="end" dy="0.35em">20</text>
      </g>
    </g>
    <g transform="translate(16.96,47.66)" id="img-bfe12bbc-137">
      <g class="primitive">
        <text text-anchor="end" dy="0.35em">30</text>
      </g>
    </g>
    <g transform="translate(16.96,34.11)" id="img-bfe12bbc-138">
      <g class="primitive">
        <text text-anchor="end" dy="0.35em">40</text>
      </g>
    </g>
    <g transform="translate(16.96,20.55)" id="img-bfe12bbc-139">
      <g class="primitive">
        <text text-anchor="end" dy="0.35em">50</text>
      </g>
    </g>
    <g transform="translate(16.96,7)" id="img-bfe12bbc-140">
      <g class="primitive">
        <text text-anchor="end" dy="0.35em">60</text>
      </g>
    </g>
  </g>
  <g font-size="3.88" font-family="'PT Sans','Helvetica Neue','Helvetica',sans-serif" fill="#564A55" stroke="#000000" stroke-opacity="0.000" id="img-bfe12bbc-141">
    <g transform="translate(8.81,45.66)" id="img-bfe12bbc-142">
      <g class="primitive">
        <text text-anchor="middle" dy="0.35em" transform="rotate(-90,0, 2)">frequency</text>
      </g>
    </g>
  </g>
</g>
<defs>
  <clipPath id="img-bfe12bbc-11">
    <path d="M17.96,5 L 94.99 5 94.99 90.33 17.96 90.33" />
  </clipPath>
</defs>
</svg>
