<?xml version="1.0" encoding="UTF-8"?>
<svg xmlns="http://www.w3.org/2000/svg"
     xmlns:xlink="http://www.w3.org/1999/xlink"
     xmlns:gadfly="http://www.gadflyjl.org/ns"
     version="1.2"
     width="141.42mm" height="100mm" viewBox="0 0 141.42 100"
     stroke="none"
     fill="#000000"
     stroke-width="0.3"
     font-size="3.88"
>
<defs>
  <marker id="arrow" markerWidth="15" markerHeight="7" refX="5" refY="3.5" orient="auto" markerUnits="strokeWidth">
    <path d="M0,0 L15,3.5 L0,7 z" stroke="context-stroke" fill="context-stroke"/>
  </marker>
</defs>
<g class="plotroot xscalable yscalable" id="img-34ae3d7e-1">
  <g class="guide xlabels" font-size="2.82" font-family="'PT Sans Caption','Helvetica Neue','Helvetica',sans-serif" fill="#6C606B" id="img-34ae3d7e-2">
    <g transform="translate(19.96,78.54)">
      <g class="primitive">
        <text text-anchor="end" dy="0.35em" transform="rotate(-90,0, 0)">7.500×10⁶</text>
      </g>
    </g>
    <g transform="translate(35.21,78.54)">
      <g class="primitive">
        <text text-anchor="end" dy="0.35em" transform="rotate(-90,0, 0)">8.000×10⁶</text>
      </g>
    </g>
    <g transform="translate(50.46,78.54)">
      <g class="primitive">
        <text text-anchor="end" dy="0.35em" transform="rotate(-90,0, 0)">8.500×10⁶</text>
      </g>
    </g>
    <g transform="translate(65.72,78.54)">
      <g class="primitive">
        <text text-anchor="end" dy="0.35em" transform="rotate(-90,0, 0)">9.000×10⁶</text>
      </g>
    </g>
    <g transform="translate(80.97,78.54)">
      <g class="primitive">
        <text text-anchor="end" dy="0.35em" transform="rotate(-90,0, 0)">9.500×10⁶</text>
      </g>
    </g>
  </g>
  <g class="guide colorkey" id="img-34ae3d7e-3">
    <g class="color_coding_coding_coding_noncoding_4-path" id="img-34ae3d7e-4">
      <g fill="#4C404B" font-size="2.82" font-family="'PT Sans','Helvetica Neue','Helvetica',sans-serif" id="img-34ae3d7e-5">
        <g transform="translate(86.78,43.08)" id="img-34ae3d7e-6">
          <g class="primitive">
            <text dy="0.35em">coding_coding_coding_noncoding_4-path</text>
          </g>
        </g>
      </g>
      <g fill-opacity="1" fill="#00BFFF" stroke="#FFFFFF" id="img-34ae3d7e-7">
        <g transform="translate(84.87,43.08)" id="img-34ae3d7e-8">
          <path d="M-0.91,-0.91 L0.91,-0.91 0.91,0.91 -0.91,0.91  z" class="primitive"/>
        </g>
      </g>
    </g>
    <g fill="#362A35" font-size="3.88" font-family="'PT Sans','Helvetica Neue','Helvetica',sans-serif" stroke="#000000" stroke-opacity="0.000" id="img-34ae3d7e-9">
      <g transform="translate(83.97,39.26)" id="img-34ae3d7e-10">
        <g class="primitive">
          <text dy="-0em">graphlet</text>
        </g>
      </g>
    </g>
  </g>
  <g clip-path="url(#img-34ae3d7e-11)">
    <g id="img-34ae3d7e-12">
      <g pointer-events="visible" stroke-width="0.3" fill="#000000" fill-opacity="0.000" stroke="#000000" stroke-opacity="0.000" class="guide background" id="img-34ae3d7e-13">
        <g transform="translate(50.46,41.27)" id="img-34ae3d7e-14">
          <path d="M-32.5,-36.27 L32.5,-36.27 32.5,36.27 -32.5,36.27  z" class="primitive"/>
        </g>
      </g>
      <g class="guide ygridlines xfixed" stroke-dasharray="0.5,0.5" stroke-width="0.2" stroke="#D0D0E0" id="img-34ae3d7e-15">
        <g transform="translate(50.46,75.54)" id="img-34ae3d7e-16">
          <path fill="none" d="M-32.5,0 L32.5,0 " class="primitive"/>
        </g>
        <g transform="translate(50.46,58.41)" id="img-34ae3d7e-17">
          <path fill="none" d="M-32.5,0 L32.5,0 " class="primitive"/>
        </g>
        <g transform="translate(50.46,41.27)" id="img-34ae3d7e-18">
          <path fill="none" d="M-32.5,0 L32.5,0 " class="primitive"/>
        </g>
        <g transform="translate(50.46,24.14)" id="img-34ae3d7e-19">
          <path fill="none" d="M-32.5,0 L32.5,0 " class="primitive"/>
        </g>
        <g transform="translate(50.46,7)" id="img-34ae3d7e-20">
          <path fill="none" d="M-32.5,0 L32.5,0 " class="primitive"/>
        </g>
      </g>
      <g class="guide xgridlines yfixed" stroke-dasharray="0.5,0.5" stroke-width="0.2" stroke="#D0D0E0" id="img-34ae3d7e-21">
        <g transform="translate(19.96,41.27)" id="img-34ae3d7e-22">
          <path fill="none" d="M0,-36.27 L0,36.27 " class="primitive"/>
        </g>
        <g transform="translate(35.21,41.27)" id="img-34ae3d7e-23">
          <path fill="none" d="M0,-36.27 L0,36.27 " class="primitive"/>
        </g>
        <g transform="translate(50.46,41.27)" id="img-34ae3d7e-24">
          <path fill="none" d="M0,-36.27 L0,36.27 " class="primitive"/>
        </g>
        <g transform="translate(65.72,41.27)" id="img-34ae3d7e-25">
          <path fill="none" d="M0,-36.27 L0,36.27 " class="primitive"/>
        </g>
        <g transform="translate(80.97,41.27)" id="img-34ae3d7e-26">
          <path fill="none" d="M0,-36.27 L0,36.27 " class="primitive"/>
        </g>
      </g>
      <g class="plotpanel" id="img-34ae3d7e-27">
        <metadata>
          <boundingbox value="17.95833333333333mm 5.0mm 65.00968957064285mm 72.54mm"/>
          <unitbox value="7.43443664394705e6 41.16720163408229 2.1311267121058996e6 -42.33440326816457"/>
        </metadata>
        <g shape-rendering="crispEdges" stroke-width="0.3" id="img-34ae3d7e-28">
          <g stroke="#000000" stroke-opacity="0.000" class="geometry" id="img-34ae3d7e-29">
            <g fill="#00BFFF" id="img-34ae3d7e-30">
              <g transform="translate(27.04,74.68)" id="img-34ae3d7e-31">
                <path d="M-0.23,-0.86 L0.23,-0.86 0.23,0.86 -0.23,0.86  z" class="primitive"/>
              </g>
              <g transform="translate(27.45,72.97)" id="img-34ae3d7e-32">
                <path d="M-0.23,-2.57 L0.23,-2.57 0.23,2.57 -0.23,2.57  z" class="primitive"/>
              </g>
              <g transform="translate(27.85,74.68)" id="img-34ae3d7e-33">
                <path d="M-0.23,-0.86 L0.23,-0.86 0.23,0.86 -0.23,0.86  z" class="primitive"/>
              </g>
              <g transform="translate(28.25,73.83)" id="img-34ae3d7e-34">
                <path d="M-0.23,-1.71 L0.23,-1.71 0.23,1.71 -0.23,1.71  z" class="primitive"/>
              </g>
              <g transform="translate(28.66,74.68)" id="img-34ae3d7e-35">
                <path d="M-0.23,-0.86 L0.23,-0.86 0.23,0.86 -0.23,0.86  z" class="primitive"/>
              </g>
              <g transform="translate(29.06,74.68)" id="img-34ae3d7e-36">
                <path d="M-0.23,-0.86 L0.23,-0.86 0.23,0.86 -0.23,0.86  z" class="primitive"/>
              </g>
              <g transform="translate(29.46,72.11)" id="img-34ae3d7e-37">
                <path d="M-0.23,-3.43 L0.23,-3.43 0.23,3.43 -0.23,3.43  z" class="primitive"/>
              </g>
              <g transform="translate(29.87,72.97)" id="img-34ae3d7e-38">
                <path d="M-0.23,-2.57 L0.23,-2.57 0.23,2.57 -0.23,2.57  z" class="primitive"/>
              </g>
              <g transform="translate(30.27,72.11)" id="img-34ae3d7e-39">
                <path d="M-0.23,-3.43 L0.23,-3.43 0.23,3.43 -0.23,3.43  z" class="primitive"/>
              </g>
              <g transform="translate(30.67,72.11)" id="img-34ae3d7e-40">
                <path d="M-0.23,-3.43 L0.23,-3.43 0.23,3.43 -0.23,3.43  z" class="primitive"/>
              </g>
              <g transform="translate(31.08,71.26)" id="img-34ae3d7e-41">
                <path d="M-0.23,-4.28 L0.23,-4.28 0.23,4.28 -0.23,4.28  z" class="primitive"/>
              </g>
              <g transform="translate(31.48,72.11)" id="img-34ae3d7e-42">
                <path d="M-0.23,-3.43 L0.23,-3.43 0.23,3.43 -0.23,3.43  z" class="primitive"/>
              </g>
              <g transform="translate(31.88,70.4)" id="img-34ae3d7e-43">
                <path d="M-0.23,-5.14 L0.23,-5.14 0.23,5.14 -0.23,5.14  z" class="primitive"/>
              </g>
              <g transform="translate(32.28,72.97)" id="img-34ae3d7e-44">
                <path d="M-0.23,-2.57 L0.23,-2.57 0.23,2.57 -0.23,2.57  z" class="primitive"/>
              </g>
              <g transform="translate(32.69,69.54)" id="img-34ae3d7e-45">
                <path d="M-0.23,-6 L0.23,-6 0.23,6 -0.23,6  z" class="primitive"/>
              </g>
              <g transform="translate(33.09,67.83)" id="img-34ae3d7e-46">
                <path d="M-0.23,-7.71 L0.23,-7.71 0.23,7.71 -0.23,7.71  z" class="primitive"/>
              </g>
              <g transform="translate(33.49,72.11)" id="img-34ae3d7e-47">
                <path d="M-0.23,-3.43 L0.23,-3.43 0.23,3.43 -0.23,3.43  z" class="primitive"/>
              </g>
              <g transform="translate(33.9,64.4)" id="img-34ae3d7e-48">
                <path d="M-0.23,-11.14 L0.23,-11.14 0.23,11.14 -0.23,11.14  z" class="primitive"/>
              </g>
              <g transform="translate(34.3,68.69)" id="img-34ae3d7e-49">
                <path d="M-0.23,-6.85 L0.23,-6.85 0.23,6.85 -0.23,6.85  z" class="primitive"/>
              </g>
              <g transform="translate(34.7,65.26)" id="img-34ae3d7e-50">
                <path d="M-0.23,-10.28 L0.23,-10.28 0.23,10.28 -0.23,10.28  z" class="primitive"/>
              </g>
              <g transform="translate(35.11,70.4)" id="img-34ae3d7e-51">
                <path d="M-0.23,-5.14 L0.23,-5.14 0.23,5.14 -0.23,5.14  z" class="primitive"/>
              </g>
              <g transform="translate(35.51,67.83)" id="img-34ae3d7e-52">
                <path d="M-0.23,-7.71 L0.23,-7.71 0.23,7.71 -0.23,7.71  z" class="primitive"/>
              </g>
              <g transform="translate(35.91,69.54)" id="img-34ae3d7e-53">
                <path d="M-0.23,-6 L0.23,-6 0.23,6 -0.23,6  z" class="primitive"/>
              </g>
              <g transform="translate(36.32,66.12)" id="img-34ae3d7e-54">
                <path d="M-0.23,-9.42 L0.23,-9.42 0.23,9.42 -0.23,9.42  z" class="primitive"/>
              </g>
              <g transform="translate(36.72,65.26)" id="img-34ae3d7e-55">
                <path d="M-0.23,-10.28 L0.23,-10.28 0.23,10.28 -0.23,10.28  z" class="primitive"/>
              </g>
              <g transform="translate(37.12,62.69)" id="img-34ae3d7e-56">
                <path d="M-0.23,-12.85 L0.23,-12.85 0.23,12.85 -0.23,12.85  z" class="primitive"/>
              </g>
              <g transform="translate(37.53,68.69)" id="img-34ae3d7e-57">
                <path d="M-0.23,-6.85 L0.23,-6.85 0.23,6.85 -0.23,6.85  z" class="primitive"/>
              </g>
              <g transform="translate(37.93,65.26)" id="img-34ae3d7e-58">
                <path d="M-0.23,-10.28 L0.23,-10.28 0.23,10.28 -0.23,10.28  z" class="primitive"/>
              </g>
              <g transform="translate(38.33,60.12)" id="img-34ae3d7e-59">
                <path d="M-0.23,-15.42 L0.23,-15.42 0.23,15.42 -0.23,15.42  z" class="primitive"/>
              </g>
              <g transform="translate(38.74,61.83)" id="img-34ae3d7e-60">
                <path d="M-0.23,-13.71 L0.23,-13.71 0.23,13.71 -0.23,13.71  z" class="primitive"/>
              </g>
              <g transform="translate(39.14,60.12)" id="img-34ae3d7e-61">
                <path d="M-0.23,-15.42 L0.23,-15.42 0.23,15.42 -0.23,15.42  z" class="primitive"/>
              </g>
              <g transform="translate(39.54,60.98)" id="img-34ae3d7e-62">
                <path d="M-0.23,-14.56 L0.23,-14.56 0.23,14.56 -0.23,14.56  z" class="primitive"/>
              </g>
              <g transform="translate(39.95,58.41)" id="img-34ae3d7e-63">
                <path d="M-0.23,-17.14 L0.23,-17.14 0.23,17.14 -0.23,17.14  z" class="primitive"/>
              </g>
              <g transform="translate(40.35,60.98)" id="img-34ae3d7e-64">
                <path d="M-0.23,-14.56 L0.23,-14.56 0.23,14.56 -0.23,14.56  z" class="primitive"/>
              </g>
              <g transform="translate(40.75,59.26)" id="img-34ae3d7e-65">
                <path d="M-0.23,-16.28 L0.23,-16.28 0.23,16.28 -0.23,16.28  z" class="primitive"/>
              </g>
              <g transform="translate(41.16,56.69)" id="img-34ae3d7e-66">
                <path d="M-0.23,-18.85 L0.23,-18.85 0.23,18.85 -0.23,18.85  z" class="primitive"/>
              </g>
              <g transform="translate(41.56,58.41)" id="img-34ae3d7e-67">
                <path d="M-0.23,-17.14 L0.23,-17.14 0.23,17.14 -0.23,17.14  z" class="primitive"/>
              </g>
              <g transform="translate(41.96,58.41)" id="img-34ae3d7e-68">
                <path d="M-0.23,-17.14 L0.23,-17.14 0.23,17.14 -0.23,17.14  z" class="primitive"/>
              </g>
              <g transform="translate(42.37,55.83)" id="img-34ae3d7e-69">
                <path d="M-0.23,-19.71 L0.23,-19.71 0.23,19.71 -0.23,19.71  z" class="primitive"/>
              </g>
              <g transform="translate(42.77,60.12)" id="img-34ae3d7e-70">
                <path d="M-0.23,-15.42 L0.23,-15.42 0.23,15.42 -0.23,15.42  z" class="primitive"/>
              </g>
              <g transform="translate(43.17,56.69)" id="img-34ae3d7e-71">
                <path d="M-0.23,-18.85 L0.23,-18.85 0.23,18.85 -0.23,18.85  z" class="primitive"/>
              </g>
              <g transform="translate(43.58,50.69)" id="img-34ae3d7e-72">
                <path d="M-0.23,-24.85 L0.23,-24.85 0.23,24.85 -0.23,24.85  z" class="primitive"/>
              </g>
              <g transform="translate(43.98,54.98)" id="img-34ae3d7e-73">
                <path d="M-0.23,-20.56 L0.23,-20.56 0.23,20.56 -0.23,20.56  z" class="primitive"/>
              </g>
              <g transform="translate(44.38,43.84)" id="img-34ae3d7e-74">
                <path d="M-0.23,-31.7 L0.23,-31.7 0.23,31.7 -0.23,31.7  z" class="primitive"/>
              </g>
              <g transform="translate(44.79,54.98)" id="img-34ae3d7e-75">
                <path d="M-0.23,-20.56 L0.23,-20.56 0.23,20.56 -0.23,20.56  z" class="primitive"/>
              </g>
              <g transform="translate(45.19,57.55)" id="img-34ae3d7e-76">
                <path d="M-0.23,-17.99 L0.23,-17.99 0.23,17.99 -0.23,17.99  z" class="primitive"/>
              </g>
              <g transform="translate(45.59,46.41)" id="img-34ae3d7e-77">
                <path d="M-0.23,-29.13 L0.23,-29.13 0.23,29.13 -0.23,29.13  z" class="primitive"/>
              </g>
              <g transform="translate(46,55.83)" id="img-34ae3d7e-78">
                <path d="M-0.23,-19.71 L0.23,-19.71 0.23,19.71 -0.23,19.71  z" class="primitive"/>
              </g>
              <g transform="translate(46.4,55.83)" id="img-34ae3d7e-79">
                <path d="M-0.23,-19.71 L0.23,-19.71 0.23,19.71 -0.23,19.71  z" class="primitive"/>
              </g>
              <g transform="translate(46.8,54.12)" id="img-34ae3d7e-80">
                <path d="M-0.23,-21.42 L0.23,-21.42 0.23,21.42 -0.23,21.42  z" class="primitive"/>
              </g>
              <g transform="translate(47.21,54.98)" id="img-34ae3d7e-81">
                <path d="M-0.23,-20.56 L0.23,-20.56 0.23,20.56 -0.23,20.56  z" class="primitive"/>
              </g>
              <g transform="translate(47.61,65.26)" id="img-34ae3d7e-82">
                <path d="M-0.23,-10.28 L0.23,-10.28 0.23,10.28 -0.23,10.28  z" class="primitive"/>
              </g>
              <g transform="translate(48.01,60.12)" id="img-34ae3d7e-83">
                <path d="M-0.23,-15.42 L0.23,-15.42 0.23,15.42 -0.23,15.42  z" class="primitive"/>
              </g>
              <g transform="translate(48.42,60.98)" id="img-34ae3d7e-84">
                <path d="M-0.23,-14.56 L0.23,-14.56 0.23,14.56 -0.23,14.56  z" class="primitive"/>
              </g>
              <g transform="translate(48.82,60.12)" id="img-34ae3d7e-85">
                <path d="M-0.23,-15.42 L0.23,-15.42 0.23,15.42 -0.23,15.42  z" class="primitive"/>
              </g>
              <g transform="translate(49.22,60.98)" id="img-34ae3d7e-86">
                <path d="M-0.23,-14.56 L0.23,-14.56 0.23,14.56 -0.23,14.56  z" class="primitive"/>
              </g>
              <g transform="translate(49.62,53.26)" id="img-34ae3d7e-87">
                <path d="M-0.23,-22.28 L0.23,-22.28 0.23,22.28 -0.23,22.28  z" class="primitive"/>
              </g>
              <g transform="translate(50.03,62.69)" id="img-34ae3d7e-88">
                <path d="M-0.23,-12.85 L0.23,-12.85 0.23,12.85 -0.23,12.85  z" class="primitive"/>
              </g>
              <g transform="translate(50.43,66.97)" id="img-34ae3d7e-89">
                <path d="M-0.23,-8.57 L0.23,-8.57 0.23,8.57 -0.23,8.57  z" class="primitive"/>
              </g>
              <g transform="translate(50.83,62.69)" id="img-34ae3d7e-90">
                <path d="M-0.23,-12.85 L0.23,-12.85 0.23,12.85 -0.23,12.85  z" class="primitive"/>
              </g>
              <g transform="translate(51.24,65.26)" id="img-34ae3d7e-91">
                <path d="M-0.23,-10.28 L0.23,-10.28 0.23,10.28 -0.23,10.28  z" class="primitive"/>
              </g>
              <g transform="translate(51.64,68.69)" id="img-34ae3d7e-92">
                <path d="M-0.23,-6.85 L0.23,-6.85 0.23,6.85 -0.23,6.85  z" class="primitive"/>
              </g>
              <g transform="translate(52.04,61.83)" id="img-34ae3d7e-93">
                <path d="M-0.23,-13.71 L0.23,-13.71 0.23,13.71 -0.23,13.71  z" class="primitive"/>
              </g>
              <g transform="translate(52.45,64.4)" id="img-34ae3d7e-94">
                <path d="M-0.23,-11.14 L0.23,-11.14 0.23,11.14 -0.23,11.14  z" class="primitive"/>
              </g>
              <g transform="translate(52.85,67.83)" id="img-34ae3d7e-95">
                <path d="M-0.23,-7.71 L0.23,-7.71 0.23,7.71 -0.23,7.71  z" class="primitive"/>
              </g>
              <g transform="translate(53.25,61.83)" id="img-34ae3d7e-96">
                <path d="M-0.23,-13.71 L0.23,-13.71 0.23,13.71 -0.23,13.71  z" class="primitive"/>
              </g>
              <g transform="translate(53.66,71.26)" id="img-34ae3d7e-97">
                <path d="M-0.23,-4.28 L0.23,-4.28 0.23,4.28 -0.23,4.28  z" class="primitive"/>
              </g>
              <g transform="translate(54.06,61.83)" id="img-34ae3d7e-98">
                <path d="M-0.23,-13.71 L0.23,-13.71 0.23,13.71 -0.23,13.71  z" class="primitive"/>
              </g>
              <g transform="translate(54.46,68.69)" id="img-34ae3d7e-99">
                <path d="M-0.23,-6.85 L0.23,-6.85 0.23,6.85 -0.23,6.85  z" class="primitive"/>
              </g>
              <g transform="translate(54.87,67.83)" id="img-34ae3d7e-100">
                <path d="M-0.23,-7.71 L0.23,-7.71 0.23,7.71 -0.23,7.71  z" class="primitive"/>
              </g>
              <g transform="translate(55.27,70.4)" id="img-34ae3d7e-101">
                <path d="M-0.23,-5.14 L0.23,-5.14 0.23,5.14 -0.23,5.14  z" class="primitive"/>
              </g>
              <g transform="translate(55.67,72.11)" id="img-34ae3d7e-102">
                <path d="M-0.23,-3.43 L0.23,-3.43 0.23,3.43 -0.23,3.43  z" class="primitive"/>
              </g>
              <g transform="translate(56.08,72.97)" id="img-34ae3d7e-103">
                <path d="M-0.23,-2.57 L0.23,-2.57 0.23,2.57 -0.23,2.57  z" class="primitive"/>
              </g>
              <g transform="translate(56.48,70.4)" id="img-34ae3d7e-104">
                <path d="M-0.23,-5.14 L0.23,-5.14 0.23,5.14 -0.23,5.14  z" class="primitive"/>
              </g>
              <g transform="translate(56.88,72.11)" id="img-34ae3d7e-105">
                <path d="M-0.23,-3.43 L0.23,-3.43 0.23,3.43 -0.23,3.43  z" class="primitive"/>
              </g>
              <g transform="translate(57.29,72.97)" id="img-34ae3d7e-106">
                <path d="M-0.23,-2.57 L0.23,-2.57 0.23,2.57 -0.23,2.57  z" class="primitive"/>
              </g>
              <g transform="translate(57.69,71.26)" id="img-34ae3d7e-107">
                <path d="M-0.23,-4.28 L0.23,-4.28 0.23,4.28 -0.23,4.28  z" class="primitive"/>
              </g>
              <g transform="translate(58.09,75.55)" id="img-34ae3d7e-108">
                <path d="M-0.23,-0 L0.23,-0 0.23,0 -0.23,0  z" class="primitive"/>
              </g>
              <g transform="translate(58.5,75.55)" id="img-34ae3d7e-109">
                <path d="M-0.23,-0 L0.23,-0 0.23,0 -0.23,0  z" class="primitive"/>
              </g>
              <g transform="translate(58.9,72.97)" id="img-34ae3d7e-110">
                <path d="M-0.23,-2.57 L0.23,-2.57 0.23,2.57 -0.23,2.57  z" class="primitive"/>
              </g>
              <g transform="translate(59.3,75.55)" id="img-34ae3d7e-111">
                <path d="M-0.23,-0 L0.23,-0 0.23,0 -0.23,0  z" class="primitive"/>
              </g>
              <g transform="translate(59.71,73.83)" id="img-34ae3d7e-112">
                <path d="M-0.23,-1.71 L0.23,-1.71 0.23,1.71 -0.23,1.71  z" class="primitive"/>
              </g>
              <g transform="translate(60.11,72.11)" id="img-34ae3d7e-113">
                <path d="M-0.23,-3.43 L0.23,-3.43 0.23,3.43 -0.23,3.43  z" class="primitive"/>
              </g>
              <g transform="translate(60.51,75.55)" id="img-34ae3d7e-114">
                <path d="M-0.23,-0 L0.23,-0 0.23,0 -0.23,0  z" class="primitive"/>
              </g>
              <g transform="translate(60.92,74.68)" id="img-34ae3d7e-115">
                <path d="M-0.23,-0.86 L0.23,-0.86 0.23,0.86 -0.23,0.86  z" class="primitive"/>
              </g>
              <g transform="translate(61.32,73.83)" id="img-34ae3d7e-116">
                <path d="M-0.23,-1.71 L0.23,-1.71 0.23,1.71 -0.23,1.71  z" class="primitive"/>
              </g>
              <g transform="translate(61.72,74.68)" id="img-34ae3d7e-117">
                <path d="M-0.23,-0.86 L0.23,-0.86 0.23,0.86 -0.23,0.86  z" class="primitive"/>
              </g>
              <g transform="translate(62.13,73.83)" id="img-34ae3d7e-118">
                <path d="M-0.23,-1.71 L0.23,-1.71 0.23,1.71 -0.23,1.71  z" class="primitive"/>
              </g>
              <g transform="translate(62.53,75.55)" id="img-34ae3d7e-119">
                <path d="M-0.23,-0 L0.23,-0 0.23,0 -0.23,0  z" class="primitive"/>
              </g>
              <g transform="translate(62.93,75.55)" id="img-34ae3d7e-120">
                <path d="M-0.23,-0 L0.23,-0 0.23,0 -0.23,0  z" class="primitive"/>
              </g>
              <g transform="translate(63.34,73.83)" id="img-34ae3d7e-121">
                <path d="M-0.23,-1.71 L0.23,-1.71 0.23,1.71 -0.23,1.71  z" class="primitive"/>
              </g>
              <g transform="translate(63.74,75.55)" id="img-34ae3d7e-122">
                <path d="M-0.23,-0 L0.23,-0 0.23,0 -0.23,0  z" class="primitive"/>
              </g>
              <g transform="translate(64.14,75.55)" id="img-34ae3d7e-123">
                <path d="M-0.23,-0 L0.23,-0 0.23,0 -0.23,0  z" class="primitive"/>
              </g>
              <g transform="translate(64.55,74.68)" id="img-34ae3d7e-124">
                <path d="M-0.23,-0.86 L0.23,-0.86 0.23,0.86 -0.23,0.86  z" class="primitive"/>
              </g>
              <g transform="translate(64.95,75.55)" id="img-34ae3d7e-125">
                <path d="M-0.23,-0 L0.23,-0 0.23,0 -0.23,0  z" class="primitive"/>
              </g>
              <g transform="translate(65.35,75.55)" id="img-34ae3d7e-126">
                <path d="M-0.23,-0 L0.23,-0 0.23,0 -0.23,0  z" class="primitive"/>
              </g>
              <g transform="translate(65.76,75.55)" id="img-34ae3d7e-127">
                <path d="M-0.23,-0 L0.23,-0 0.23,0 -0.23,0  z" class="primitive"/>
              </g>
              <g transform="translate(66.16,75.55)" id="img-34ae3d7e-128">
                <path d="M-0.23,-0 L0.23,-0 0.23,0 -0.23,0  z" class="primitive"/>
              </g>
              <g transform="translate(66.56,74.68)" id="img-34ae3d7e-129">
                <path d="M-0.23,-0.86 L0.23,-0.86 0.23,0.86 -0.23,0.86  z" class="primitive"/>
              </g>
              <g transform="translate(66.96,74.68)" id="img-34ae3d7e-130">
                <path d="M-0.23,-0.86 L0.23,-0.86 0.23,0.86 -0.23,0.86  z" class="primitive"/>
              </g>
            </g>
          </g>
        </g>
      </g>
    </g>
  </g>
  <g class="guide ylabels" font-size="2.82" font-family="'PT Sans Caption','Helvetica Neue','Helvetica',sans-serif" fill="#6C606B" id="img-34ae3d7e-131">
    <g transform="translate(16.96,75.54)" id="img-34ae3d7e-132">
      <g class="primitive">
        <text text-anchor="end" dy="0.35em">0</text>
      </g>
    </g>
    <g transform="translate(16.96,58.41)" id="img-34ae3d7e-133">
      <g class="primitive">
        <text text-anchor="end" dy="0.35em">10</text>
      </g>
    </g>
    <g transform="translate(16.96,41.27)" id="img-34ae3d7e-134">
      <g class="primitive">
        <text text-anchor="end" dy="0.35em">20</text>
      </g>
    </g>
    <g transform="translate(16.96,24.14)" id="img-34ae3d7e-135">
      <g class="primitive">
        <text text-anchor="end" dy="0.35em">30</text>
      </g>
    </g>
    <g transform="translate(16.96,7)" id="img-34ae3d7e-136">
      <g class="primitive">
        <text text-anchor="end" dy="0.35em">40</text>
      </g>
    </g>
  </g>
  <g font-size="3.88" font-family="'PT Sans','Helvetica Neue','Helvetica',sans-serif" fill="#564A55" stroke="#000000" stroke-opacity="0.000" id="img-34ae3d7e-137">
    <g transform="translate(8.81,39.27)" id="img-34ae3d7e-138">
      <g class="primitive">
        <text text-anchor="middle" dy="0.35em" transform="rotate(-90,0, 2)">frequency</text>
      </g>
    </g>
  </g>
</g>
<defs>
  <clipPath id="img-34ae3d7e-11">
    <path d="M17.96,5 L82.97,5 82.97,77.54 17.96,77.54 " />
  </clipPath>
</defs>
</svg>
