<?xml version="1.0" encoding="UTF-8"?>
<svg xmlns="http://www.w3.org/2000/svg"
     xmlns:xlink="http://www.w3.org/1999/xlink"
     xmlns:gadfly="http://www.gadflyjl.org/ns"
     version="1.2"
     width="141.42mm" height="100mm" viewBox="0 0 141.42 100"
     stroke="none"
     fill="#000000"
     stroke-width="0.3"
     font-size="3.88"
>
<defs>
  <marker id="arrow" markerWidth="15" markerHeight="7" refX="5" refY="3.5" orient="auto" markerUnits="strokeWidth">
    <path d="M0,0 L15,3.5 L0,7 z" stroke="context-stroke" fill="context-stroke"/>
  </marker>
</defs>
<g class="plotroot xscalable yscalable" id="img-cf9ee502-1">
  <g class="guide xlabels" font-size="2.82" font-family="'PT Sans Caption','Helvetica Neue','Helvetica',sans-serif" fill="#6C606B" id="img-cf9ee502-2">
    <g transform="translate(19.96,78.54)">
      <g class="primitive">
        <text text-anchor="end" dy="0.35em" transform="rotate(-90,0, 0)">1.750×10⁴</text>
      </g>
    </g>
    <g transform="translate(33.72,78.54)">
      <g class="primitive">
        <text text-anchor="end" dy="0.35em" transform="rotate(-90,0, 0)">2.000×10⁴</text>
      </g>
    </g>
    <g transform="translate(47.48,78.54)">
      <g class="primitive">
        <text text-anchor="end" dy="0.35em" transform="rotate(-90,0, 0)">2.250×10⁴</text>
      </g>
    </g>
    <g transform="translate(61.24,78.54)">
      <g class="primitive">
        <text text-anchor="end" dy="0.35em" transform="rotate(-90,0, 0)">2.500×10⁴</text>
      </g>
    </g>
    <g transform="translate(74.99,78.54)">
      <g class="primitive">
        <text text-anchor="end" dy="0.35em" transform="rotate(-90,0, 0)">2.750×10⁴</text>
      </g>
    </g>
  </g>
  <g class="guide colorkey" id="img-cf9ee502-3">
    <g class="color_coding_noncoding_noncoding_coding_4-chord" id="img-cf9ee502-4">
      <g fill="#4C404B" font-size="2.82" font-family="'PT Sans','Helvetica Neue','Helvetica',sans-serif" id="img-cf9ee502-5">
        <g transform="translate(80.81,43.08)" id="img-cf9ee502-6">
          <g class="primitive">
            <text dy="0.35em">coding_noncoding_noncoding_coding_4-chord</text>
          </g>
        </g>
      </g>
      <g fill-opacity="1" fill="#00BFFF" stroke="#FFFFFF" id="img-cf9ee502-7">
        <g transform="translate(78.9,43.08)" id="img-cf9ee502-8">
          <path d="M-0.91,-0.91 L0.91,-0.91 0.91,0.91 -0.91,0.91  z" class="primitive"/>
        </g>
      </g>
    </g>
    <g fill="#362A35" font-size="3.88" font-family="'PT Sans','Helvetica Neue','Helvetica',sans-serif" stroke="#000000" stroke-opacity="0.000" id="img-cf9ee502-9">
      <g transform="translate(77.99,39.26)" id="img-cf9ee502-10">
        <g class="primitive">
          <text dy="-0em">graphlet</text>
        </g>
      </g>
    </g>
  </g>
  <g clip-path="url(#img-cf9ee502-11)">
    <g id="img-cf9ee502-12">
      <g pointer-events="visible" stroke-width="0.3" fill="#000000" fill-opacity="0.000" stroke="#000000" stroke-opacity="0.000" class="guide background" id="img-cf9ee502-13">
        <g transform="translate(47.48,41.27)" id="img-cf9ee502-14">
          <path d="M-29.52,-36.27 L29.52,-36.27 29.52,36.27 -29.52,36.27  z" class="primitive"/>
        </g>
      </g>
      <g class="guide ygridlines xfixed" stroke-dasharray="0.5,0.5" stroke-width="0.2" stroke="#D0D0E0" id="img-cf9ee502-15">
        <g transform="translate(47.48,75.54)" id="img-cf9ee502-16">
          <path fill="none" d="M-29.52,0 L29.52,0 " class="primitive"/>
        </g>
        <g transform="translate(47.48,52.69)" id="img-cf9ee502-17">
          <path fill="none" d="M-29.52,0 L29.52,0 " class="primitive"/>
        </g>
        <g transform="translate(47.48,29.85)" id="img-cf9ee502-18">
          <path fill="none" d="M-29.52,0 L29.52,0 " class="primitive"/>
        </g>
        <g transform="translate(47.48,7)" id="img-cf9ee502-19">
          <path fill="none" d="M-29.52,0 L29.52,0 " class="primitive"/>
        </g>
      </g>
      <g class="guide xgridlines yfixed" stroke-dasharray="0.5,0.5" stroke-width="0.2" stroke="#D0D0E0" id="img-cf9ee502-20">
        <g transform="translate(19.96,41.27)" id="img-cf9ee502-21">
          <path fill="none" d="M0,-36.27 L0,36.27 " class="primitive"/>
        </g>
        <g transform="translate(33.72,41.27)" id="img-cf9ee502-22">
          <path fill="none" d="M0,-36.27 L0,36.27 " class="primitive"/>
        </g>
        <g transform="translate(47.48,41.27)" id="img-cf9ee502-23">
          <path fill="none" d="M0,-36.27 L0,36.27 " class="primitive"/>
        </g>
        <g transform="translate(61.24,41.27)" id="img-cf9ee502-24">
          <path fill="none" d="M0,-36.27 L0,36.27 " class="primitive"/>
        </g>
        <g transform="translate(74.99,41.27)" id="img-cf9ee502-25">
          <path fill="none" d="M0,-36.27 L0,36.27 " class="primitive"/>
        </g>
      </g>
      <g class="plotpanel" id="img-cf9ee502-26">
        <metadata>
          <boundingbox value="17.958333333333336mm 5.0mm 59.0363562373095mm 72.54mm"/>
          <unitbox value="17136.60384939434 30.875401225561717 10726.792301211317 -31.75080245112343"/>
        </metadata>
        <g shape-rendering="crispEdges" stroke-width="0.3" id="img-cf9ee502-27">
          <g stroke="#000000" stroke-opacity="0.000" class="geometry" id="img-cf9ee502-28">
            <g fill="#00BFFF" id="img-cf9ee502-29">
              <g transform="translate(24.7,74.4)" id="img-cf9ee502-30">
                <path d="M-0.25,-1.14 L0.25,-1.14 0.25,1.14 -0.25,1.14  z" class="primitive"/>
              </g>
              <g transform="translate(25.15,75.54)" id="img-cf9ee502-31">
                <path d="M-0.25,-0 L0.25,-0 0.25,0 -0.25,0  z" class="primitive"/>
              </g>
              <g transform="translate(25.59,75.54)" id="img-cf9ee502-32">
                <path d="M-0.25,-0 L0.25,-0 0.25,0 -0.25,0  z" class="primitive"/>
              </g>
              <g transform="translate(26.04,75.54)" id="img-cf9ee502-33">
                <path d="M-0.25,-0 L0.25,-0 0.25,0 -0.25,0  z" class="primitive"/>
              </g>
              <g transform="translate(26.48,75.54)" id="img-cf9ee502-34">
                <path d="M-0.25,-0 L0.25,-0 0.25,0 -0.25,0  z" class="primitive"/>
              </g>
              <g transform="translate(26.93,74.4)" id="img-cf9ee502-35">
                <path d="M-0.25,-1.14 L0.25,-1.14 0.25,1.14 -0.25,1.14  z" class="primitive"/>
              </g>
              <g transform="translate(27.37,74.4)" id="img-cf9ee502-36">
                <path d="M-0.25,-1.14 L0.25,-1.14 0.25,1.14 -0.25,1.14  z" class="primitive"/>
              </g>
              <g transform="translate(27.82,74.4)" id="img-cf9ee502-37">
                <path d="M-0.25,-1.14 L0.25,-1.14 0.25,1.14 -0.25,1.14  z" class="primitive"/>
              </g>
              <g transform="translate(28.26,72.11)" id="img-cf9ee502-38">
                <path d="M-0.25,-3.43 L0.25,-3.43 0.25,3.43 -0.25,3.43  z" class="primitive"/>
              </g>
              <g transform="translate(28.71,70.97)" id="img-cf9ee502-39">
                <path d="M-0.25,-4.57 L0.25,-4.57 0.25,4.57 -0.25,4.57  z" class="primitive"/>
              </g>
              <g transform="translate(29.15,74.4)" id="img-cf9ee502-40">
                <path d="M-0.25,-1.14 L0.25,-1.14 0.25,1.14 -0.25,1.14  z" class="primitive"/>
              </g>
              <g transform="translate(29.6,74.4)" id="img-cf9ee502-41">
                <path d="M-0.25,-1.14 L0.25,-1.14 0.25,1.14 -0.25,1.14  z" class="primitive"/>
              </g>
              <g transform="translate(30.04,75.54)" id="img-cf9ee502-42">
                <path d="M-0.25,-0 L0.25,-0 0.25,0 -0.25,0  z" class="primitive"/>
              </g>
              <g transform="translate(30.49,75.54)" id="img-cf9ee502-43">
                <path d="M-0.25,-0 L0.25,-0 0.25,0 -0.25,0  z" class="primitive"/>
              </g>
              <g transform="translate(30.93,70.97)" id="img-cf9ee502-44">
                <path d="M-0.25,-4.57 L0.25,-4.57 0.25,4.57 -0.25,4.57  z" class="primitive"/>
              </g>
              <g transform="translate(31.38,73.26)" id="img-cf9ee502-45">
                <path d="M-0.25,-2.28 L0.25,-2.28 0.25,2.28 -0.25,2.28  z" class="primitive"/>
              </g>
              <g transform="translate(31.82,68.69)" id="img-cf9ee502-46">
                <path d="M-0.25,-6.85 L0.25,-6.85 0.25,6.85 -0.25,6.85  z" class="primitive"/>
              </g>
              <g transform="translate(32.26,68.69)" id="img-cf9ee502-47">
                <path d="M-0.25,-6.85 L0.25,-6.85 0.25,6.85 -0.25,6.85  z" class="primitive"/>
              </g>
              <g transform="translate(32.71,70.97)" id="img-cf9ee502-48">
                <path d="M-0.25,-4.57 L0.25,-4.57 0.25,4.57 -0.25,4.57  z" class="primitive"/>
              </g>
              <g transform="translate(33.15,70.97)" id="img-cf9ee502-49">
                <path d="M-0.25,-4.57 L0.25,-4.57 0.25,4.57 -0.25,4.57  z" class="primitive"/>
              </g>
              <g transform="translate(33.6,67.54)" id="img-cf9ee502-50">
                <path d="M-0.25,-8 L0.25,-8 0.25,8 -0.25,8  z" class="primitive"/>
              </g>
              <g transform="translate(34.04,69.83)" id="img-cf9ee502-51">
                <path d="M-0.25,-5.71 L0.25,-5.71 0.25,5.71 -0.25,5.71  z" class="primitive"/>
              </g>
              <g transform="translate(34.49,67.54)" id="img-cf9ee502-52">
                <path d="M-0.25,-8 L0.25,-8 0.25,8 -0.25,8  z" class="primitive"/>
              </g>
              <g transform="translate(34.93,64.12)" id="img-cf9ee502-53">
                <path d="M-0.25,-11.42 L0.25,-11.42 0.25,11.42 -0.25,11.42  z" class="primitive"/>
              </g>
              <g transform="translate(35.38,67.54)" id="img-cf9ee502-54">
                <path d="M-0.25,-8 L0.25,-8 0.25,8 -0.25,8  z" class="primitive"/>
              </g>
              <g transform="translate(35.82,59.55)" id="img-cf9ee502-55">
                <path d="M-0.25,-15.99 L0.25,-15.99 0.25,15.99 -0.25,15.99  z" class="primitive"/>
              </g>
              <g transform="translate(36.27,64.12)" id="img-cf9ee502-56">
                <path d="M-0.25,-11.42 L0.25,-11.42 0.25,11.42 -0.25,11.42  z" class="primitive"/>
              </g>
              <g transform="translate(36.71,66.4)" id="img-cf9ee502-57">
                <path d="M-0.25,-9.14 L0.25,-9.14 0.25,9.14 -0.25,9.14  z" class="primitive"/>
              </g>
              <g transform="translate(37.16,65.26)" id="img-cf9ee502-58">
                <path d="M-0.25,-10.28 L0.25,-10.28 0.25,10.28 -0.25,10.28  z" class="primitive"/>
              </g>
              <g transform="translate(37.6,66.4)" id="img-cf9ee502-59">
                <path d="M-0.25,-9.14 L0.25,-9.14 0.25,9.14 -0.25,9.14  z" class="primitive"/>
              </g>
              <g transform="translate(38.05,65.26)" id="img-cf9ee502-60">
                <path d="M-0.25,-10.28 L0.25,-10.28 0.25,10.28 -0.25,10.28  z" class="primitive"/>
              </g>
              <g transform="translate(38.49,64.12)" id="img-cf9ee502-61">
                <path d="M-0.25,-11.42 L0.25,-11.42 0.25,11.42 -0.25,11.42  z" class="primitive"/>
              </g>
              <g transform="translate(38.93,53.84)" id="img-cf9ee502-62">
                <path d="M-0.25,-21.7 L0.25,-21.7 0.25,21.7 -0.25,21.7  z" class="primitive"/>
              </g>
              <g transform="translate(39.38,64.12)" id="img-cf9ee502-63">
                <path d="M-0.25,-11.42 L0.25,-11.42 0.25,11.42 -0.25,11.42  z" class="primitive"/>
              </g>
              <g transform="translate(39.82,60.69)" id="img-cf9ee502-64">
                <path d="M-0.25,-14.85 L0.25,-14.85 0.25,14.85 -0.25,14.85  z" class="primitive"/>
              </g>
              <g transform="translate(40.27,54.98)" id="img-cf9ee502-65">
                <path d="M-0.25,-20.56 L0.25,-20.56 0.25,20.56 -0.25,20.56  z" class="primitive"/>
              </g>
              <g transform="translate(40.71,60.69)" id="img-cf9ee502-66">
                <path d="M-0.25,-14.85 L0.25,-14.85 0.25,14.85 -0.25,14.85  z" class="primitive"/>
              </g>
              <g transform="translate(41.16,44.7)" id="img-cf9ee502-67">
                <path d="M-0.25,-30.84 L0.25,-30.84 0.25,30.84 -0.25,30.84  z" class="primitive"/>
              </g>
              <g transform="translate(41.6,58.4)" id="img-cf9ee502-68">
                <path d="M-0.25,-17.14 L0.25,-17.14 0.25,17.14 -0.25,17.14  z" class="primitive"/>
              </g>
              <g transform="translate(42.05,54.98)" id="img-cf9ee502-69">
                <path d="M-0.25,-20.56 L0.25,-20.56 0.25,20.56 -0.25,20.56  z" class="primitive"/>
              </g>
              <g transform="translate(42.49,42.41)" id="img-cf9ee502-70">
                <path d="M-0.25,-33.13 L0.25,-33.13 0.25,33.13 -0.25,33.13  z" class="primitive"/>
              </g>
              <g transform="translate(42.94,50.41)" id="img-cf9ee502-71">
                <path d="M-0.25,-25.13 L0.25,-25.13 0.25,25.13 -0.25,25.13  z" class="primitive"/>
              </g>
              <g transform="translate(43.38,61.83)" id="img-cf9ee502-72">
                <path d="M-0.25,-13.71 L0.25,-13.71 0.25,13.71 -0.25,13.71  z" class="primitive"/>
              </g>
              <g transform="translate(43.83,42.41)" id="img-cf9ee502-73">
                <path d="M-0.25,-33.13 L0.25,-33.13 0.25,33.13 -0.25,33.13  z" class="primitive"/>
              </g>
              <g transform="translate(44.27,48.12)" id="img-cf9ee502-74">
                <path d="M-0.25,-27.42 L0.25,-27.42 0.25,27.42 -0.25,27.42  z" class="primitive"/>
              </g>
              <g transform="translate(44.72,56.12)" id="img-cf9ee502-75">
                <path d="M-0.25,-19.42 L0.25,-19.42 0.25,19.42 -0.25,19.42  z" class="primitive"/>
              </g>
              <g transform="translate(45.16,52.69)" id="img-cf9ee502-76">
                <path d="M-0.25,-22.85 L0.25,-22.85 0.25,22.85 -0.25,22.85  z" class="primitive"/>
              </g>
              <g transform="translate(45.61,54.98)" id="img-cf9ee502-77">
                <path d="M-0.25,-20.56 L0.25,-20.56 0.25,20.56 -0.25,20.56  z" class="primitive"/>
              </g>
              <g transform="translate(46.05,56.12)" id="img-cf9ee502-78">
                <path d="M-0.25,-19.42 L0.25,-19.42 0.25,19.42 -0.25,19.42  z" class="primitive"/>
              </g>
              <g transform="translate(46.49,50.41)" id="img-cf9ee502-79">
                <path d="M-0.25,-25.13 L0.25,-25.13 0.25,25.13 -0.25,25.13  z" class="primitive"/>
              </g>
              <g transform="translate(46.94,44.7)" id="img-cf9ee502-80">
                <path d="M-0.25,-30.84 L0.25,-30.84 0.25,30.84 -0.25,30.84  z" class="primitive"/>
              </g>
              <g transform="translate(47.38,50.41)" id="img-cf9ee502-81">
                <path d="M-0.25,-25.13 L0.25,-25.13 0.25,25.13 -0.25,25.13  z" class="primitive"/>
              </g>
              <g transform="translate(47.83,46.98)" id="img-cf9ee502-82">
                <path d="M-0.25,-28.56 L0.25,-28.56 0.25,28.56 -0.25,28.56  z" class="primitive"/>
              </g>
              <g transform="translate(48.27,48.12)" id="img-cf9ee502-83">
                <path d="M-0.25,-27.42 L0.25,-27.42 0.25,27.42 -0.25,27.42  z" class="primitive"/>
              </g>
              <g transform="translate(48.72,49.27)" id="img-cf9ee502-84">
                <path d="M-0.25,-26.27 L0.25,-26.27 0.25,26.27 -0.25,26.27  z" class="primitive"/>
              </g>
              <g transform="translate(49.16,50.41)" id="img-cf9ee502-85">
                <path d="M-0.25,-25.13 L0.25,-25.13 0.25,25.13 -0.25,25.13  z" class="primitive"/>
              </g>
              <g transform="translate(49.61,44.7)" id="img-cf9ee502-86">
                <path d="M-0.25,-30.84 L0.25,-30.84 0.25,30.84 -0.25,30.84  z" class="primitive"/>
              </g>
              <g transform="translate(50.05,51.55)" id="img-cf9ee502-87">
                <path d="M-0.25,-23.99 L0.25,-23.99 0.25,23.99 -0.25,23.99  z" class="primitive"/>
              </g>
              <g transform="translate(50.5,42.41)" id="img-cf9ee502-88">
                <path d="M-0.25,-33.13 L0.25,-33.13 0.25,33.13 -0.25,33.13  z" class="primitive"/>
              </g>
              <g transform="translate(50.94,48.12)" id="img-cf9ee502-89">
                <path d="M-0.25,-27.42 L0.25,-27.42 0.25,27.42 -0.25,27.42  z" class="primitive"/>
              </g>
              <g transform="translate(51.39,64.12)" id="img-cf9ee502-90">
                <path d="M-0.25,-11.42 L0.25,-11.42 0.25,11.42 -0.25,11.42  z" class="primitive"/>
              </g>
              <g transform="translate(51.83,43.55)" id="img-cf9ee502-91">
                <path d="M-0.25,-31.99 L0.25,-31.99 0.25,31.99 -0.25,31.99  z" class="primitive"/>
              </g>
              <g transform="translate(52.28,59.55)" id="img-cf9ee502-92">
                <path d="M-0.25,-15.99 L0.25,-15.99 0.25,15.99 -0.25,15.99  z" class="primitive"/>
              </g>
              <g transform="translate(52.72,60.69)" id="img-cf9ee502-93">
                <path d="M-0.25,-14.85 L0.25,-14.85 0.25,14.85 -0.25,14.85  z" class="primitive"/>
              </g>
              <g transform="translate(53.17,59.55)" id="img-cf9ee502-94">
                <path d="M-0.25,-15.99 L0.25,-15.99 0.25,15.99 -0.25,15.99  z" class="primitive"/>
              </g>
              <g transform="translate(53.61,53.84)" id="img-cf9ee502-95">
                <path d="M-0.25,-21.7 L0.25,-21.7 0.25,21.7 -0.25,21.7  z" class="primitive"/>
              </g>
              <g transform="translate(54.05,59.55)" id="img-cf9ee502-96">
                <path d="M-0.25,-15.99 L0.25,-15.99 0.25,15.99 -0.25,15.99  z" class="primitive"/>
              </g>
              <g transform="translate(54.5,64.12)" id="img-cf9ee502-97">
                <path d="M-0.25,-11.42 L0.25,-11.42 0.25,11.42 -0.25,11.42  z" class="primitive"/>
              </g>
              <g transform="translate(54.94,65.26)" id="img-cf9ee502-98">
                <path d="M-0.25,-10.28 L0.25,-10.28 0.25,10.28 -0.25,10.28  z" class="primitive"/>
              </g>
              <g transform="translate(55.39,66.4)" id="img-cf9ee502-99">
                <path d="M-0.25,-9.14 L0.25,-9.14 0.25,9.14 -0.25,9.14  z" class="primitive"/>
              </g>
              <g transform="translate(55.83,58.4)" id="img-cf9ee502-100">
                <path d="M-0.25,-17.14 L0.25,-17.14 0.25,17.14 -0.25,17.14  z" class="primitive"/>
              </g>
              <g transform="translate(56.28,60.69)" id="img-cf9ee502-101">
                <path d="M-0.25,-14.85 L0.25,-14.85 0.25,14.85 -0.25,14.85  z" class="primitive"/>
              </g>
              <g transform="translate(56.72,59.55)" id="img-cf9ee502-102">
                <path d="M-0.25,-15.99 L0.25,-15.99 0.25,15.99 -0.25,15.99  z" class="primitive"/>
              </g>
              <g transform="translate(57.17,62.97)" id="img-cf9ee502-103">
                <path d="M-0.25,-12.57 L0.25,-12.57 0.25,12.57 -0.25,12.57  z" class="primitive"/>
              </g>
              <g transform="translate(57.61,70.97)" id="img-cf9ee502-104">
                <path d="M-0.25,-4.57 L0.25,-4.57 0.25,4.57 -0.25,4.57  z" class="primitive"/>
              </g>
              <g transform="translate(58.06,70.97)" id="img-cf9ee502-105">
                <path d="M-0.25,-4.57 L0.25,-4.57 0.25,4.57 -0.25,4.57  z" class="primitive"/>
              </g>
              <g transform="translate(58.5,70.97)" id="img-cf9ee502-106">
                <path d="M-0.25,-4.57 L0.25,-4.57 0.25,4.57 -0.25,4.57  z" class="primitive"/>
              </g>
              <g transform="translate(58.95,68.69)" id="img-cf9ee502-107">
                <path d="M-0.25,-6.85 L0.25,-6.85 0.25,6.85 -0.25,6.85  z" class="primitive"/>
              </g>
              <g transform="translate(59.39,72.11)" id="img-cf9ee502-108">
                <path d="M-0.25,-3.43 L0.25,-3.43 0.25,3.43 -0.25,3.43  z" class="primitive"/>
              </g>
              <g transform="translate(59.84,65.26)" id="img-cf9ee502-109">
                <path d="M-0.25,-10.28 L0.25,-10.28 0.25,10.28 -0.25,10.28  z" class="primitive"/>
              </g>
              <g transform="translate(60.28,72.11)" id="img-cf9ee502-110">
                <path d="M-0.25,-3.43 L0.25,-3.43 0.25,3.43 -0.25,3.43  z" class="primitive"/>
              </g>
              <g transform="translate(60.72,72.11)" id="img-cf9ee502-111">
                <path d="M-0.25,-3.43 L0.25,-3.43 0.25,3.43 -0.25,3.43  z" class="primitive"/>
              </g>
              <g transform="translate(61.17,70.97)" id="img-cf9ee502-112">
                <path d="M-0.25,-4.57 L0.25,-4.57 0.25,4.57 -0.25,4.57  z" class="primitive"/>
              </g>
              <g transform="translate(61.61,68.69)" id="img-cf9ee502-113">
                <path d="M-0.25,-6.85 L0.25,-6.85 0.25,6.85 -0.25,6.85  z" class="primitive"/>
              </g>
              <g transform="translate(62.06,69.83)" id="img-cf9ee502-114">
                <path d="M-0.25,-5.71 L0.25,-5.71 0.25,5.71 -0.25,5.71  z" class="primitive"/>
              </g>
              <g transform="translate(62.5,72.11)" id="img-cf9ee502-115">
                <path d="M-0.25,-3.43 L0.25,-3.43 0.25,3.43 -0.25,3.43  z" class="primitive"/>
              </g>
              <g transform="translate(62.95,73.26)" id="img-cf9ee502-116">
                <path d="M-0.25,-2.28 L0.25,-2.28 0.25,2.28 -0.25,2.28  z" class="primitive"/>
              </g>
              <g transform="translate(63.39,70.97)" id="img-cf9ee502-117">
                <path d="M-0.25,-4.57 L0.25,-4.57 0.25,4.57 -0.25,4.57  z" class="primitive"/>
              </g>
              <g transform="translate(63.84,72.11)" id="img-cf9ee502-118">
                <path d="M-0.25,-3.43 L0.25,-3.43 0.25,3.43 -0.25,3.43  z" class="primitive"/>
              </g>
              <g transform="translate(64.28,72.11)" id="img-cf9ee502-119">
                <path d="M-0.25,-3.43 L0.25,-3.43 0.25,3.43 -0.25,3.43  z" class="primitive"/>
              </g>
              <g transform="translate(64.73,74.4)" id="img-cf9ee502-120">
                <path d="M-0.25,-1.14 L0.25,-1.14 0.25,1.14 -0.25,1.14  z" class="primitive"/>
              </g>
              <g transform="translate(65.17,70.97)" id="img-cf9ee502-121">
                <path d="M-0.25,-4.57 L0.25,-4.57 0.25,4.57 -0.25,4.57  z" class="primitive"/>
              </g>
              <g transform="translate(65.62,75.54)" id="img-cf9ee502-122">
                <path d="M-0.25,-0 L0.25,-0 0.25,0 -0.25,0  z" class="primitive"/>
              </g>
              <g transform="translate(66.06,73.26)" id="img-cf9ee502-123">
                <path d="M-0.25,-2.28 L0.25,-2.28 0.25,2.28 -0.25,2.28  z" class="primitive"/>
              </g>
              <g transform="translate(66.51,75.54)" id="img-cf9ee502-124">
                <path d="M-0.25,-0 L0.25,-0 0.25,0 -0.25,0  z" class="primitive"/>
              </g>
              <g transform="translate(66.95,72.11)" id="img-cf9ee502-125">
                <path d="M-0.25,-3.43 L0.25,-3.43 0.25,3.43 -0.25,3.43  z" class="primitive"/>
              </g>
              <g transform="translate(67.4,75.54)" id="img-cf9ee502-126">
                <path d="M-0.25,-0 L0.25,-0 0.25,0 -0.25,0  z" class="primitive"/>
              </g>
              <g transform="translate(67.84,75.54)" id="img-cf9ee502-127">
                <path d="M-0.25,-0 L0.25,-0 0.25,0 -0.25,0  z" class="primitive"/>
              </g>
              <g transform="translate(68.28,74.4)" id="img-cf9ee502-128">
                <path d="M-0.25,-1.14 L0.25,-1.14 0.25,1.14 -0.25,1.14  z" class="primitive"/>
              </g>
              <g transform="translate(68.73,74.4)" id="img-cf9ee502-129">
                <path d="M-0.25,-1.14 L0.25,-1.14 0.25,1.14 -0.25,1.14  z" class="primitive"/>
              </g>
            </g>
          </g>
        </g>
      </g>
    </g>
  </g>
  <g class="guide ylabels" font-size="2.82" font-family="'PT Sans Caption','Helvetica Neue','Helvetica',sans-serif" fill="#6C606B" id="img-cf9ee502-130">
    <g transform="translate(16.96,75.54)" id="img-cf9ee502-131">
      <g class="primitive">
        <text text-anchor="end" dy="0.35em">0</text>
      </g>
    </g>
    <g transform="translate(16.96,52.69)" id="img-cf9ee502-132">
      <g class="primitive">
        <text text-anchor="end" dy="0.35em">10</text>
      </g>
    </g>
    <g transform="translate(16.96,29.85)" id="img-cf9ee502-133">
      <g class="primitive">
        <text text-anchor="end" dy="0.35em">20</text>
      </g>
    </g>
    <g transform="translate(16.96,7)" id="img-cf9ee502-134">
      <g class="primitive">
        <text text-anchor="end" dy="0.35em">30</text>
      </g>
    </g>
  </g>
  <g font-size="3.88" font-family="'PT Sans','Helvetica Neue','Helvetica',sans-serif" fill="#564A55" stroke="#000000" stroke-opacity="0.000" id="img-cf9ee502-135">
    <g transform="translate(8.81,39.27)" id="img-cf9ee502-136">
      <g class="primitive">
        <text text-anchor="middle" dy="0.35em" transform="rotate(-90,0, 2)">frequency</text>
      </g>
    </g>
  </g>
</g>
<defs>
  <clipPath id="img-cf9ee502-11">
    <path d="M17.96,5 L76.99,5 76.99,77.54 17.96,77.54 " />
  </clipPath>
</defs>
</svg>
