<?xml version="1.0" encoding="UTF-8"?>
<svg xmlns="http://www.w3.org/2000/svg"
     xmlns:xlink="http://www.w3.org/1999/xlink"
     xmlns:gadfly="http://www.gadflyjl.org/ns"
     version="1.2"
     width="140mm" height="80mm" viewBox="0 0 140 80"
     stroke="none"
     fill="#000000"
     stroke-width="0.3"
     font-size="3.88"
>
<defs>
  <marker id="arrow" markerWidth="15" markerHeight="7" refX="5" refY="3.5" orient="auto" markerUnits="strokeWidth">
    <path d="M0,0 L15,3.5 L0,7 z" stroke="context-stroke" fill="context-stroke"/>
  </marker>
</defs>
<g class="plotroot xscalable yscalable" id="img-0b941690-1">
  <g class="guide xlabels" font-size="2.82" font-family="'PT Sans Caption','Helvetica Neue','Helvetica',sans-serif" fill="#6C606B" id="img-0b941690-2">
    <g transform="translate(19.96,61.89)">
      <g class="primitive">
        <text text-anchor="end" dy="0.35em" transform="rotate(-90,0, 0)">1.5×10⁴</text>
      </g>
    </g>
    <g transform="translate(32.21,61.89)">
      <g class="primitive">
        <text text-anchor="end" dy="0.35em" transform="rotate(-90,0, 0)">2.0×10⁴</text>
      </g>
    </g>
    <g transform="translate(44.47,61.89)">
      <g class="primitive">
        <text text-anchor="end" dy="0.35em" transform="rotate(-90,0, 0)">2.5×10⁴</text>
      </g>
    </g>
    <g transform="translate(56.72,61.89)">
      <g class="primitive">
        <text text-anchor="end" dy="0.35em" transform="rotate(-90,0, 0)">3.0×10⁴</text>
      </g>
    </g>
    <g transform="translate(68.98,61.89)">
      <g class="primitive">
        <text text-anchor="end" dy="0.35em" transform="rotate(-90,0, 0)">3.5×10⁴</text>
      </g>
    </g>
  </g>
  <g class="guide colorkey" id="img-0b941690-3">
    <g class="color_coding_noncoding_noncoding_noncoding_4-chord" id="img-0b941690-4">
      <g fill="#4C404B" font-size="2.82" font-family="'PT Sans','Helvetica Neue','Helvetica',sans-serif" id="img-0b941690-5">
        <g transform="translate(74.79,34.76)" id="img-0b941690-6">
          <g class="primitive">
            <text dy="0.35em">coding_noncoding_noncoding_noncoding_4-chord</text>
          </g>
        </g>
      </g>
      <g fill-opacity="1" fill="#00BFFF" stroke="#FFFFFF" id="img-0b941690-7">
        <g transform="translate(72.89,34.76)" id="img-0b941690-8">
          <path d="M-0.91,-0.91 L 0.91 -0.91 0.91 0.91 -0.91 0.91 z" class="primitive"/>
        </g>
      </g>
    </g>
    <g fill="#362A35" font-size="3.88" font-family="'PT Sans','Helvetica Neue','Helvetica',sans-serif" stroke="#000000" stroke-opacity="0.000" id="img-0b941690-9">
      <g transform="translate(71.98,30.94)" id="img-0b941690-10">
        <g class="primitive">
          <text dy="-0em">graphlet</text>
        </g>
      </g>
    </g>
  </g>
  <g clip-path="url(#img-0b941690-11)">
    <g id="img-0b941690-12">
      <g pointer-events="visible" stroke-width="0.3" fill="#000000" fill-opacity="0.000" stroke="#000000" stroke-opacity="0.000" class="guide background" id="img-0b941690-13">
        <g transform="translate(44.47,32.94)" id="img-0b941690-14">
          <path d="M-26.51,-27.94 L 26.51 -27.94 26.51 27.94 -26.51 27.94 z" class="primitive"/>
        </g>
      </g>
      <g class="guide ygridlines xfixed" stroke-dasharray="0.5,0.5" stroke-width="0.2" stroke="#D0D0E0" id="img-0b941690-15">
        <g transform="translate(44.47,58.89)" id="img-0b941690-16">
          <path fill="none" d="M-26.51,0 L 26.51 0" class="primitive"/>
        </g>
        <g transform="translate(44.47,45.92)" id="img-0b941690-17">
          <path fill="none" d="M-26.51,0 L 26.51 0" class="primitive"/>
        </g>
        <g transform="translate(44.47,32.94)" id="img-0b941690-18">
          <path fill="none" d="M-26.51,0 L 26.51 0" class="primitive"/>
        </g>
        <g transform="translate(44.47,19.97)" id="img-0b941690-19">
          <path fill="none" d="M-26.51,0 L 26.51 0" class="primitive"/>
        </g>
        <g transform="translate(44.47,7)" id="img-0b941690-20">
          <path fill="none" d="M-26.51,0 L 26.51 0" class="primitive"/>
        </g>
      </g>
      <g class="guide xgridlines yfixed" stroke-dasharray="0.5,0.5" stroke-width="0.2" stroke="#D0D0E0" id="img-0b941690-21">
        <g transform="translate(19.96,32.94)" id="img-0b941690-22">
          <path fill="none" d="M0,-27.94 L 0 27.94" class="primitive"/>
        </g>
        <g transform="translate(32.21,32.94)" id="img-0b941690-23">
          <path fill="none" d="M0,-27.94 L 0 27.94" class="primitive"/>
        </g>
        <g transform="translate(44.47,32.94)" id="img-0b941690-24">
          <path fill="none" d="M0,-27.94 L 0 27.94" class="primitive"/>
        </g>
        <g transform="translate(56.72,32.94)" id="img-0b941690-25">
          <path fill="none" d="M0,-27.94 L 0 27.94" class="primitive"/>
        </g>
        <g transform="translate(68.98,32.94)" id="img-0b941690-26">
          <path fill="none" d="M0,-27.94 L 0 27.94" class="primitive"/>
        </g>
      </g>
      <g class="plotpanel" id="img-0b941690-27">
        <metadata>
          <boundingbox value="17.958333333333336mm 5.0mm 53.021666666666654mm 55.88666666666667mm"/>
          <unitbox value="14184.034270560636 41.54182191956829 21631.931458878727 -43.083643839136585"/>
        </metadata>
        <g shape-rendering="crispEdges" stroke-width="0.3" id="img-0b941690-28">
          <g stroke="#000000" stroke-opacity="0.000" class="geometry" id="img-0b941690-29">
            <g fill="#00BFFF" id="img-0b941690-30">
              <g transform="translate(21.81,56.94)" id="img-0b941690-31">
                <path d="M-0.21,-1.95 L 0.21 -1.95 0.21 1.95 -0.21 1.95 z" class="primitive"/>
              </g>
              <g transform="translate(22.18,58.89)" id="img-0b941690-32">
                <path d="M-0.21,-0 L 0.21 -0 0.21 0 -0.21 0 z" class="primitive"/>
              </g>
              <g transform="translate(22.55,58.89)" id="img-0b941690-33">
                <path d="M-0.21,-0 L 0.21 -0 0.21 0 -0.21 0 z" class="primitive"/>
              </g>
              <g transform="translate(22.93,58.24)" id="img-0b941690-34">
                <path d="M-0.21,-0.65 L 0.21 -0.65 0.21 0.65 -0.21 0.65 z" class="primitive"/>
              </g>
              <g transform="translate(23.3,58.24)" id="img-0b941690-35">
                <path d="M-0.21,-0.65 L 0.21 -0.65 0.21 0.65 -0.21 0.65 z" class="primitive"/>
              </g>
              <g transform="translate(23.67,58.89)" id="img-0b941690-36">
                <path d="M-0.21,-0 L 0.21 -0 0.21 0 -0.21 0 z" class="primitive"/>
              </g>
              <g transform="translate(24.04,58.24)" id="img-0b941690-37">
                <path d="M-0.21,-0.65 L 0.21 -0.65 0.21 0.65 -0.21 0.65 z" class="primitive"/>
              </g>
              <g transform="translate(24.41,58.24)" id="img-0b941690-38">
                <path d="M-0.21,-0.65 L 0.21 -0.65 0.21 0.65 -0.21 0.65 z" class="primitive"/>
              </g>
              <g transform="translate(24.79,58.24)" id="img-0b941690-39">
                <path d="M-0.21,-0.65 L 0.21 -0.65 0.21 0.65 -0.21 0.65 z" class="primitive"/>
              </g>
              <g transform="translate(25.16,57.59)" id="img-0b941690-40">
                <path d="M-0.21,-1.3 L 0.21 -1.3 0.21 1.3 -0.21 1.3 z" class="primitive"/>
              </g>
              <g transform="translate(25.53,56.29)" id="img-0b941690-41">
                <path d="M-0.21,-2.59 L 0.21 -2.59 0.21 2.59 -0.21 2.59 z" class="primitive"/>
              </g>
              <g transform="translate(25.9,57.59)" id="img-0b941690-42">
                <path d="M-0.21,-1.3 L 0.21 -1.3 0.21 1.3 -0.21 1.3 z" class="primitive"/>
              </g>
              <g transform="translate(26.27,55)" id="img-0b941690-43">
                <path d="M-0.21,-3.89 L 0.21 -3.89 0.21 3.89 -0.21 3.89 z" class="primitive"/>
              </g>
              <g transform="translate(26.65,53.7)" id="img-0b941690-44">
                <path d="M-0.21,-5.19 L 0.21 -5.19 0.21 5.19 -0.21 5.19 z" class="primitive"/>
              </g>
              <g transform="translate(27.02,56.94)" id="img-0b941690-45">
                <path d="M-0.21,-1.95 L 0.21 -1.95 0.21 1.95 -0.21 1.95 z" class="primitive"/>
              </g>
              <g transform="translate(27.39,55.64)" id="img-0b941690-46">
                <path d="M-0.21,-3.24 L 0.21 -3.24 0.21 3.24 -0.21 3.24 z" class="primitive"/>
              </g>
              <g transform="translate(27.76,55)" id="img-0b941690-47">
                <path d="M-0.21,-3.89 L 0.21 -3.89 0.21 3.89 -0.21 3.89 z" class="primitive"/>
              </g>
              <g transform="translate(28.13,54.35)" id="img-0b941690-48">
                <path d="M-0.21,-4.54 L 0.21 -4.54 0.21 4.54 -0.21 4.54 z" class="primitive"/>
              </g>
              <g transform="translate(28.51,55.64)" id="img-0b941690-49">
                <path d="M-0.21,-3.24 L 0.21 -3.24 0.21 3.24 -0.21 3.24 z" class="primitive"/>
              </g>
              <g transform="translate(28.88,55.64)" id="img-0b941690-50">
                <path d="M-0.21,-3.24 L 0.21 -3.24 0.21 3.24 -0.21 3.24 z" class="primitive"/>
              </g>
              <g transform="translate(29.25,54.35)" id="img-0b941690-51">
                <path d="M-0.21,-4.54 L 0.21 -4.54 0.21 4.54 -0.21 4.54 z" class="primitive"/>
              </g>
              <g transform="translate(29.62,53.7)" id="img-0b941690-52">
                <path d="M-0.21,-5.19 L 0.21 -5.19 0.21 5.19 -0.21 5.19 z" class="primitive"/>
              </g>
              <g transform="translate(29.99,50.46)" id="img-0b941690-53">
                <path d="M-0.21,-8.43 L 0.21 -8.43 0.21 8.43 -0.21 8.43 z" class="primitive"/>
              </g>
              <g transform="translate(30.37,50.46)" id="img-0b941690-54">
                <path d="M-0.21,-8.43 L 0.21 -8.43 0.21 8.43 -0.21 8.43 z" class="primitive"/>
              </g>
              <g transform="translate(30.74,51.75)" id="img-0b941690-55">
                <path d="M-0.21,-7.13 L 0.21 -7.13 0.21 7.13 -0.21 7.13 z" class="primitive"/>
              </g>
              <g transform="translate(31.11,51.1)" id="img-0b941690-56">
                <path d="M-0.21,-7.78 L 0.21 -7.78 0.21 7.78 -0.21 7.78 z" class="primitive"/>
              </g>
              <g transform="translate(31.48,51.1)" id="img-0b941690-57">
                <path d="M-0.21,-7.78 L 0.21 -7.78 0.21 7.78 -0.21 7.78 z" class="primitive"/>
              </g>
              <g transform="translate(31.85,43.32)" id="img-0b941690-58">
                <path d="M-0.21,-15.57 L 0.21 -15.57 0.21 15.57 -0.21 15.57 z" class="primitive"/>
              </g>
              <g transform="translate(32.23,45.92)" id="img-0b941690-59">
                <path d="M-0.21,-12.97 L 0.21 -12.97 0.21 12.97 -0.21 12.97 z" class="primitive"/>
              </g>
              <g transform="translate(32.6,44.62)" id="img-0b941690-60">
                <path d="M-0.21,-14.27 L 0.21 -14.27 0.21 14.27 -0.21 14.27 z" class="primitive"/>
              </g>
              <g transform="translate(32.97,45.92)" id="img-0b941690-61">
                <path d="M-0.21,-12.97 L 0.21 -12.97 0.21 12.97 -0.21 12.97 z" class="primitive"/>
              </g>
              <g transform="translate(33.34,48.51)" id="img-0b941690-62">
                <path d="M-0.21,-10.38 L 0.21 -10.38 0.21 10.38 -0.21 10.38 z" class="primitive"/>
              </g>
              <g transform="translate(33.71,50.46)" id="img-0b941690-63">
                <path d="M-0.21,-8.43 L 0.21 -8.43 0.21 8.43 -0.21 8.43 z" class="primitive"/>
              </g>
              <g transform="translate(34.08,45.27)" id="img-0b941690-64">
                <path d="M-0.21,-13.62 L 0.21 -13.62 0.21 13.62 -0.21 13.62 z" class="primitive"/>
              </g>
              <g transform="translate(34.46,47.86)" id="img-0b941690-65">
                <path d="M-0.21,-11.03 L 0.21 -11.03 0.21 11.03 -0.21 11.03 z" class="primitive"/>
              </g>
              <g transform="translate(34.83,48.51)" id="img-0b941690-66">
                <path d="M-0.21,-10.38 L 0.21 -10.38 0.21 10.38 -0.21 10.38 z" class="primitive"/>
              </g>
              <g transform="translate(35.2,44.62)" id="img-0b941690-67">
                <path d="M-0.21,-14.27 L 0.21 -14.27 0.21 14.27 -0.21 14.27 z" class="primitive"/>
              </g>
              <g transform="translate(35.57,44.62)" id="img-0b941690-68">
                <path d="M-0.21,-14.27 L 0.21 -14.27 0.21 14.27 -0.21 14.27 z" class="primitive"/>
              </g>
              <g transform="translate(35.94,45.92)" id="img-0b941690-69">
                <path d="M-0.21,-12.97 L 0.21 -12.97 0.21 12.97 -0.21 12.97 z" class="primitive"/>
              </g>
              <g transform="translate(36.32,47.86)" id="img-0b941690-70">
                <path d="M-0.21,-11.03 L 0.21 -11.03 0.21 11.03 -0.21 11.03 z" class="primitive"/>
              </g>
              <g transform="translate(36.69,42.02)" id="img-0b941690-71">
                <path d="M-0.21,-16.86 L 0.21 -16.86 0.21 16.86 -0.21 16.86 z" class="primitive"/>
              </g>
              <g transform="translate(37.06,43.97)" id="img-0b941690-72">
                <path d="M-0.21,-14.92 L 0.21 -14.92 0.21 14.92 -0.21 14.92 z" class="primitive"/>
              </g>
              <g transform="translate(37.43,44.62)" id="img-0b941690-73">
                <path d="M-0.21,-14.27 L 0.21 -14.27 0.21 14.27 -0.21 14.27 z" class="primitive"/>
              </g>
              <g transform="translate(37.8,38.78)" id="img-0b941690-74">
                <path d="M-0.21,-20.11 L 0.21 -20.11 0.21 20.11 -0.21 20.11 z" class="primitive"/>
              </g>
              <g transform="translate(38.18,36.19)" id="img-0b941690-75">
                <path d="M-0.21,-22.7 L 0.21 -22.7 0.21 22.7 -0.21 22.7 z" class="primitive"/>
              </g>
              <g transform="translate(38.55,42.02)" id="img-0b941690-76">
                <path d="M-0.21,-16.86 L 0.21 -16.86 0.21 16.86 -0.21 16.86 z" class="primitive"/>
              </g>
              <g transform="translate(38.92,48.51)" id="img-0b941690-77">
                <path d="M-0.21,-10.38 L 0.21 -10.38 0.21 10.38 -0.21 10.38 z" class="primitive"/>
              </g>
              <g transform="translate(39.29,38.78)" id="img-0b941690-78">
                <path d="M-0.21,-20.11 L 0.21 -20.11 0.21 20.11 -0.21 20.11 z" class="primitive"/>
              </g>
              <g transform="translate(39.66,39.43)" id="img-0b941690-79">
                <path d="M-0.21,-19.46 L 0.21 -19.46 0.21 19.46 -0.21 19.46 z" class="primitive"/>
              </g>
              <g transform="translate(40.04,46.56)" id="img-0b941690-80">
                <path d="M-0.21,-12.32 L 0.21 -12.32 0.21 12.32 -0.21 12.32 z" class="primitive"/>
              </g>
              <g transform="translate(40.41,44.62)" id="img-0b941690-81">
                <path d="M-0.21,-14.27 L 0.21 -14.27 0.21 14.27 -0.21 14.27 z" class="primitive"/>
              </g>
              <g transform="translate(40.78,47.86)" id="img-0b941690-82">
                <path d="M-0.21,-11.03 L 0.21 -11.03 0.21 11.03 -0.21 11.03 z" class="primitive"/>
              </g>
              <g transform="translate(41.15,41.37)" id="img-0b941690-83">
                <path d="M-0.21,-17.51 L 0.21 -17.51 0.21 17.51 -0.21 17.51 z" class="primitive"/>
              </g>
              <g transform="translate(41.52,45.27)" id="img-0b941690-84">
                <path d="M-0.21,-13.62 L 0.21 -13.62 0.21 13.62 -0.21 13.62 z" class="primitive"/>
              </g>
              <g transform="translate(41.9,47.21)" id="img-0b941690-85">
                <path d="M-0.21,-11.67 L 0.21 -11.67 0.21 11.67 -0.21 11.67 z" class="primitive"/>
              </g>
              <g transform="translate(42.27,42.02)" id="img-0b941690-86">
                <path d="M-0.21,-16.86 L 0.21 -16.86 0.21 16.86 -0.21 16.86 z" class="primitive"/>
              </g>
              <g transform="translate(42.64,49.81)" id="img-0b941690-87">
                <path d="M-0.21,-9.08 L 0.21 -9.08 0.21 9.08 -0.21 9.08 z" class="primitive"/>
              </g>
              <g transform="translate(43.01,47.86)" id="img-0b941690-88">
                <path d="M-0.21,-11.03 L 0.21 -11.03 0.21 11.03 -0.21 11.03 z" class="primitive"/>
              </g>
              <g transform="translate(43.38,50.46)" id="img-0b941690-89">
                <path d="M-0.21,-8.43 L 0.21 -8.43 0.21 8.43 -0.21 8.43 z" class="primitive"/>
              </g>
              <g transform="translate(43.75,53.7)" id="img-0b941690-90">
                <path d="M-0.21,-5.19 L 0.21 -5.19 0.21 5.19 -0.21 5.19 z" class="primitive"/>
              </g>
              <g transform="translate(44.13,52.4)" id="img-0b941690-91">
                <path d="M-0.21,-6.49 L 0.21 -6.49 0.21 6.49 -0.21 6.49 z" class="primitive"/>
              </g>
              <g transform="translate(44.5,51.75)" id="img-0b941690-92">
                <path d="M-0.21,-7.13 L 0.21 -7.13 0.21 7.13 -0.21 7.13 z" class="primitive"/>
              </g>
              <g transform="translate(44.87,51.1)" id="img-0b941690-93">
                <path d="M-0.21,-7.78 L 0.21 -7.78 0.21 7.78 -0.21 7.78 z" class="primitive"/>
              </g>
              <g transform="translate(45.24,50.46)" id="img-0b941690-94">
                <path d="M-0.21,-8.43 L 0.21 -8.43 0.21 8.43 -0.21 8.43 z" class="primitive"/>
              </g>
              <g transform="translate(45.61,53.05)" id="img-0b941690-95">
                <path d="M-0.21,-5.84 L 0.21 -5.84 0.21 5.84 -0.21 5.84 z" class="primitive"/>
              </g>
              <g transform="translate(45.99,51.75)" id="img-0b941690-96">
                <path d="M-0.21,-7.13 L 0.21 -7.13 0.21 7.13 -0.21 7.13 z" class="primitive"/>
              </g>
              <g transform="translate(46.36,53.05)" id="img-0b941690-97">
                <path d="M-0.21,-5.84 L 0.21 -5.84 0.21 5.84 -0.21 5.84 z" class="primitive"/>
              </g>
              <g transform="translate(46.73,53.05)" id="img-0b941690-98">
                <path d="M-0.21,-5.84 L 0.21 -5.84 0.21 5.84 -0.21 5.84 z" class="primitive"/>
              </g>
              <g transform="translate(47.1,56.29)" id="img-0b941690-99">
                <path d="M-0.21,-2.59 L 0.21 -2.59 0.21 2.59 -0.21 2.59 z" class="primitive"/>
              </g>
              <g transform="translate(47.47,51.1)" id="img-0b941690-100">
                <path d="M-0.21,-7.78 L 0.21 -7.78 0.21 7.78 -0.21 7.78 z" class="primitive"/>
              </g>
              <g transform="translate(47.85,55)" id="img-0b941690-101">
                <path d="M-0.21,-3.89 L 0.21 -3.89 0.21 3.89 -0.21 3.89 z" class="primitive"/>
              </g>
              <g transform="translate(48.22,55)" id="img-0b941690-102">
                <path d="M-0.21,-3.89 L 0.21 -3.89 0.21 3.89 -0.21 3.89 z" class="primitive"/>
              </g>
              <g transform="translate(48.59,56.94)" id="img-0b941690-103">
                <path d="M-0.21,-1.95 L 0.21 -1.95 0.21 1.95 -0.21 1.95 z" class="primitive"/>
              </g>
              <g transform="translate(48.96,55)" id="img-0b941690-104">
                <path d="M-0.21,-3.89 L 0.21 -3.89 0.21 3.89 -0.21 3.89 z" class="primitive"/>
              </g>
              <g transform="translate(49.33,53.05)" id="img-0b941690-105">
                <path d="M-0.21,-5.84 L 0.21 -5.84 0.21 5.84 -0.21 5.84 z" class="primitive"/>
              </g>
              <g transform="translate(49.71,56.94)" id="img-0b941690-106">
                <path d="M-0.21,-1.95 L 0.21 -1.95 0.21 1.95 -0.21 1.95 z" class="primitive"/>
              </g>
              <g transform="translate(50.08,56.29)" id="img-0b941690-107">
                <path d="M-0.21,-2.59 L 0.21 -2.59 0.21 2.59 -0.21 2.59 z" class="primitive"/>
              </g>
              <g transform="translate(50.45,56.29)" id="img-0b941690-108">
                <path d="M-0.21,-2.59 L 0.21 -2.59 0.21 2.59 -0.21 2.59 z" class="primitive"/>
              </g>
              <g transform="translate(50.82,55.64)" id="img-0b941690-109">
                <path d="M-0.21,-3.24 L 0.21 -3.24 0.21 3.24 -0.21 3.24 z" class="primitive"/>
              </g>
              <g transform="translate(51.19,55.64)" id="img-0b941690-110">
                <path d="M-0.21,-3.24 L 0.21 -3.24 0.21 3.24 -0.21 3.24 z" class="primitive"/>
              </g>
              <g transform="translate(51.57,57.59)" id="img-0b941690-111">
                <path d="M-0.21,-1.3 L 0.21 -1.3 0.21 1.3 -0.21 1.3 z" class="primitive"/>
              </g>
              <g transform="translate(51.94,58.24)" id="img-0b941690-112">
                <path d="M-0.21,-0.65 L 0.21 -0.65 0.21 0.65 -0.21 0.65 z" class="primitive"/>
              </g>
              <g transform="translate(52.31,57.59)" id="img-0b941690-113">
                <path d="M-0.21,-1.3 L 0.21 -1.3 0.21 1.3 -0.21 1.3 z" class="primitive"/>
              </g>
              <g transform="translate(52.68,58.89)" id="img-0b941690-114">
                <path d="M-0.21,-0 L 0.21 -0 0.21 0 -0.21 0 z" class="primitive"/>
              </g>
              <g transform="translate(53.05,56.94)" id="img-0b941690-115">
                <path d="M-0.21,-1.95 L 0.21 -1.95 0.21 1.95 -0.21 1.95 z" class="primitive"/>
              </g>
              <g transform="translate(53.42,58.24)" id="img-0b941690-116">
                <path d="M-0.21,-0.65 L 0.21 -0.65 0.21 0.65 -0.21 0.65 z" class="primitive"/>
              </g>
              <g transform="translate(53.8,58.24)" id="img-0b941690-117">
                <path d="M-0.21,-0.65 L 0.21 -0.65 0.21 0.65 -0.21 0.65 z" class="primitive"/>
              </g>
              <g transform="translate(54.17,58.24)" id="img-0b941690-118">
                <path d="M-0.21,-0.65 L 0.21 -0.65 0.21 0.65 -0.21 0.65 z" class="primitive"/>
              </g>
              <g transform="translate(54.54,58.24)" id="img-0b941690-119">
                <path d="M-0.21,-0.65 L 0.21 -0.65 0.21 0.65 -0.21 0.65 z" class="primitive"/>
              </g>
              <g transform="translate(54.91,58.89)" id="img-0b941690-120">
                <path d="M-0.21,-0 L 0.21 -0 0.21 0 -0.21 0 z" class="primitive"/>
              </g>
              <g transform="translate(55.28,58.89)" id="img-0b941690-121">
                <path d="M-0.21,-0 L 0.21 -0 0.21 0 -0.21 0 z" class="primitive"/>
              </g>
              <g transform="translate(55.66,58.24)" id="img-0b941690-122">
                <path d="M-0.21,-0.65 L 0.21 -0.65 0.21 0.65 -0.21 0.65 z" class="primitive"/>
              </g>
              <g transform="translate(56.03,57.59)" id="img-0b941690-123">
                <path d="M-0.21,-1.3 L 0.21 -1.3 0.21 1.3 -0.21 1.3 z" class="primitive"/>
              </g>
              <g transform="translate(56.4,58.24)" id="img-0b941690-124">
                <path d="M-0.21,-0.65 L 0.21 -0.65 0.21 0.65 -0.21 0.65 z" class="primitive"/>
              </g>
              <g transform="translate(56.77,58.24)" id="img-0b941690-125">
                <path d="M-0.21,-0.65 L 0.21 -0.65 0.21 0.65 -0.21 0.65 z" class="primitive"/>
              </g>
              <g transform="translate(57.14,58.89)" id="img-0b941690-126">
                <path d="M-0.21,-0 L 0.21 -0 0.21 0 -0.21 0 z" class="primitive"/>
              </g>
              <g transform="translate(57.52,58.89)" id="img-0b941690-127">
                <path d="M-0.21,-0 L 0.21 -0 0.21 0 -0.21 0 z" class="primitive"/>
              </g>
              <g transform="translate(57.89,58.89)" id="img-0b941690-128">
                <path d="M-0.21,-0 L 0.21 -0 0.21 0 -0.21 0 z" class="primitive"/>
              </g>
              <g transform="translate(58.26,57.59)" id="img-0b941690-129">
                <path d="M-0.21,-1.3 L 0.21 -1.3 0.21 1.3 -0.21 1.3 z" class="primitive"/>
              </g>
              <g transform="translate(58.63,58.24)" id="img-0b941690-130">
                <path d="M-0.21,-0.65 L 0.21 -0.65 0.21 0.65 -0.21 0.65 z" class="primitive"/>
              </g>
            </g>
          </g>
        </g>
      </g>
    </g>
  </g>
  <g class="guide ylabels" font-size="2.82" font-family="'PT Sans Caption','Helvetica Neue','Helvetica',sans-serif" fill="#6C606B" id="img-0b941690-131">
    <g transform="translate(16.96,58.89)" id="img-0b941690-132">
      <g class="primitive">
        <text text-anchor="end" dy="0.35em">0</text>
      </g>
    </g>
    <g transform="translate(16.96,45.92)" id="img-0b941690-133">
      <g class="primitive">
        <text text-anchor="end" dy="0.35em">10</text>
      </g>
    </g>
    <g transform="translate(16.96,32.94)" id="img-0b941690-134">
      <g class="primitive">
        <text text-anchor="end" dy="0.35em">20</text>
      </g>
    </g>
    <g transform="translate(16.96,19.97)" id="img-0b941690-135">
      <g class="primitive">
        <text text-anchor="end" dy="0.35em">30</text>
      </g>
    </g>
    <g transform="translate(16.96,7)" id="img-0b941690-136">
      <g class="primitive">
        <text text-anchor="end" dy="0.35em">40</text>
      </g>
    </g>
  </g>
  <g font-size="3.88" font-family="'PT Sans','Helvetica Neue','Helvetica',sans-serif" fill="#564A55" stroke="#000000" stroke-opacity="0.000" id="img-0b941690-137">
    <g transform="translate(8.81,30.94)" id="img-0b941690-138">
      <g class="primitive">
        <text text-anchor="middle" dy="0.35em" transform="rotate(-90,0, 2)">frequency</text>
      </g>
    </g>
  </g>
</g>
<defs>
  <clipPath id="img-0b941690-11">
    <path d="M17.96,5 L 70.98 5 70.98 60.89 17.96 60.89" />
  </clipPath>
</defs>
</svg>
