<?xml version="1.0" encoding="UTF-8"?>
<svg xmlns="http://www.w3.org/2000/svg"
     xmlns:xlink="http://www.w3.org/1999/xlink"
     xmlns:gadfly="http://www.gadflyjl.org/ns"
     version="1.2"
     width="141.42mm" height="100mm" viewBox="0 0 141.42 100"
     stroke="none"
     fill="#000000"
     stroke-width="0.3"
     font-size="3.88"
>
<defs>
  <marker id="arrow" markerWidth="15" markerHeight="7" refX="5" refY="3.5" orient="auto" markerUnits="strokeWidth">
    <path d="M0,0 L15,3.5 L0,7 z" stroke="context-stroke" fill="context-stroke"/>
  </marker>
</defs>
<g class="plotroot xscalable yscalable" id="img-21a1fd00-1">
  <g class="guide xlabels" font-size="2.82" font-family="'PT Sans Caption','Helvetica Neue','Helvetica',sans-serif" fill="#6C606B" id="img-21a1fd00-2">
    <g transform="translate(19.96,78.54)">
      <g class="primitive">
        <text text-anchor="end" dy="0.35em" transform="rotate(-90,0, 0)">1.750×10⁷</text>
      </g>
    </g>
    <g transform="translate(32.34,78.54)">
      <g class="primitive">
        <text text-anchor="end" dy="0.35em" transform="rotate(-90,0, 0)">1.800×10⁷</text>
      </g>
    </g>
    <g transform="translate(44.73,78.54)">
      <g class="primitive">
        <text text-anchor="end" dy="0.35em" transform="rotate(-90,0, 0)">1.850×10⁷</text>
      </g>
    </g>
    <g transform="translate(57.12,78.54)">
      <g class="primitive">
        <text text-anchor="end" dy="0.35em" transform="rotate(-90,0, 0)">1.900×10⁷</text>
      </g>
    </g>
    <g transform="translate(69.5,78.54)">
      <g class="primitive">
        <text text-anchor="end" dy="0.35em" transform="rotate(-90,0, 0)">1.950×10⁷</text>
      </g>
    </g>
    <g transform="translate(81.89,78.54)">
      <g class="primitive">
        <text text-anchor="end" dy="0.35em" transform="rotate(-90,0, 0)">2.000×10⁷</text>
      </g>
    </g>
  </g>
  <g class="guide colorkey" id="img-21a1fd00-3">
    <g class="color_coding_coding_coding_noncoding_4-star" id="img-21a1fd00-4">
      <g fill="#4C404B" font-size="2.82" font-family="'PT Sans','Helvetica Neue','Helvetica',sans-serif" id="img-21a1fd00-5">
        <g transform="translate(87.7,43.08)" id="img-21a1fd00-6">
          <g class="primitive">
            <text dy="0.35em">coding_coding_coding_noncoding_4-star</text>
          </g>
        </g>
      </g>
      <g fill-opacity="1" fill="#00BFFF" stroke="#FFFFFF" id="img-21a1fd00-7">
        <g transform="translate(85.79,43.08)" id="img-21a1fd00-8">
          <path d="M-0.91,-0.91 L0.91,-0.91 0.91,0.91 -0.91,0.91  z" class="primitive"/>
        </g>
      </g>
    </g>
    <g fill="#362A35" font-size="3.88" font-family="'PT Sans','Helvetica Neue','Helvetica',sans-serif" stroke="#000000" stroke-opacity="0.000" id="img-21a1fd00-9">
      <g transform="translate(84.89,39.26)" id="img-21a1fd00-10">
        <g class="primitive">
          <text dy="-0em">graphlet</text>
        </g>
      </g>
    </g>
  </g>
  <g clip-path="url(#img-21a1fd00-11)">
    <g id="img-21a1fd00-12">
      <g pointer-events="visible" stroke-width="0.3" fill="#000000" fill-opacity="0.000" stroke="#000000" stroke-opacity="0.000" class="guide background" id="img-21a1fd00-13">
        <g transform="translate(50.92,41.27)" id="img-21a1fd00-14">
          <path d="M-32.96,-36.27 L32.96,-36.27 32.96,36.27 -32.96,36.27  z" class="primitive"/>
        </g>
      </g>
      <g class="guide ygridlines xfixed" stroke-dasharray="0.5,0.5" stroke-width="0.2" stroke="#D0D0E0" id="img-21a1fd00-15">
        <g transform="translate(50.92,75.54)" id="img-21a1fd00-16">
          <path fill="none" d="M-32.96,0 L32.96,0 " class="primitive"/>
        </g>
        <g transform="translate(50.92,52.69)" id="img-21a1fd00-17">
          <path fill="none" d="M-32.96,0 L32.96,0 " class="primitive"/>
        </g>
        <g transform="translate(50.92,29.85)" id="img-21a1fd00-18">
          <path fill="none" d="M-32.96,0 L32.96,0 " class="primitive"/>
        </g>
        <g transform="translate(50.92,7)" id="img-21a1fd00-19">
          <path fill="none" d="M-32.96,0 L32.96,0 " class="primitive"/>
        </g>
      </g>
      <g class="guide xgridlines yfixed" stroke-dasharray="0.5,0.5" stroke-width="0.2" stroke="#D0D0E0" id="img-21a1fd00-20">
        <g transform="translate(19.96,41.27)" id="img-21a1fd00-21">
          <path fill="none" d="M0,-36.27 L0,36.27 " class="primitive"/>
        </g>
        <g transform="translate(32.34,41.27)" id="img-21a1fd00-22">
          <path fill="none" d="M0,-36.27 L0,36.27 " class="primitive"/>
        </g>
        <g transform="translate(44.73,41.27)" id="img-21a1fd00-23">
          <path fill="none" d="M0,-36.27 L0,36.27 " class="primitive"/>
        </g>
        <g transform="translate(57.12,41.27)" id="img-21a1fd00-24">
          <path fill="none" d="M0,-36.27 L0,36.27 " class="primitive"/>
        </g>
        <g transform="translate(69.5,41.27)" id="img-21a1fd00-25">
          <path fill="none" d="M0,-36.27 L0,36.27 " class="primitive"/>
        </g>
        <g transform="translate(81.89,41.27)" id="img-21a1fd00-26">
          <path fill="none" d="M0,-36.27 L0,36.27 " class="primitive"/>
        </g>
      </g>
      <g class="plotpanel" id="img-21a1fd00-27">
        <metadata>
          <boundingbox value="17.95833333333333mm 5.0mm 65.92968957064284mm 72.54mm"/>
          <unitbox value="1.7419263280105796e7 30.875401225561717 2.661473439788408e6 -31.75080245112343"/>
        </metadata>
        <g shape-rendering="crispEdges" stroke-width="0.3" id="img-21a1fd00-28">
          <g stroke="#000000" stroke-opacity="0.000" class="geometry" id="img-21a1fd00-29">
            <g fill="#00BFFF" id="img-21a1fd00-30">
              <g transform="translate(21.58,73.26)" id="img-21a1fd00-31">
                <path d="M-0.31,-2.28 L0.31,-2.28 0.31,2.28 -0.31,2.28  z" class="primitive"/>
              </g>
              <g transform="translate(22.15,72.11)" id="img-21a1fd00-32">
                <path d="M-0.31,-3.43 L0.31,-3.43 0.31,3.43 -0.31,3.43  z" class="primitive"/>
              </g>
              <g transform="translate(22.72,74.4)" id="img-21a1fd00-33">
                <path d="M-0.31,-1.14 L0.31,-1.14 0.31,1.14 -0.31,1.14  z" class="primitive"/>
              </g>
              <g transform="translate(23.29,75.54)" id="img-21a1fd00-34">
                <path d="M-0.31,-0 L0.31,-0 0.31,0 -0.31,0  z" class="primitive"/>
              </g>
              <g transform="translate(23.86,73.26)" id="img-21a1fd00-35">
                <path d="M-0.31,-2.28 L0.31,-2.28 0.31,2.28 -0.31,2.28  z" class="primitive"/>
              </g>
              <g transform="translate(24.43,75.54)" id="img-21a1fd00-36">
                <path d="M-0.31,-0 L0.31,-0 0.31,0 -0.31,0  z" class="primitive"/>
              </g>
              <g transform="translate(25,74.4)" id="img-21a1fd00-37">
                <path d="M-0.31,-1.14 L0.31,-1.14 0.31,1.14 -0.31,1.14  z" class="primitive"/>
              </g>
              <g transform="translate(25.57,74.4)" id="img-21a1fd00-38">
                <path d="M-0.31,-1.14 L0.31,-1.14 0.31,1.14 -0.31,1.14  z" class="primitive"/>
              </g>
              <g transform="translate(26.14,75.54)" id="img-21a1fd00-39">
                <path d="M-0.31,-0 L0.31,-0 0.31,0 -0.31,0  z" class="primitive"/>
              </g>
              <g transform="translate(26.71,73.26)" id="img-21a1fd00-40">
                <path d="M-0.31,-2.28 L0.31,-2.28 0.31,2.28 -0.31,2.28  z" class="primitive"/>
              </g>
              <g transform="translate(27.28,74.4)" id="img-21a1fd00-41">
                <path d="M-0.31,-1.14 L0.31,-1.14 0.31,1.14 -0.31,1.14  z" class="primitive"/>
              </g>
              <g transform="translate(27.85,73.26)" id="img-21a1fd00-42">
                <path d="M-0.31,-2.28 L0.31,-2.28 0.31,2.28 -0.31,2.28  z" class="primitive"/>
              </g>
              <g transform="translate(28.42,75.54)" id="img-21a1fd00-43">
                <path d="M-0.31,-0 L0.31,-0 0.31,0 -0.31,0  z" class="primitive"/>
              </g>
              <g transform="translate(28.99,70.97)" id="img-21a1fd00-44">
                <path d="M-0.31,-4.57 L0.31,-4.57 0.31,4.57 -0.31,4.57  z" class="primitive"/>
              </g>
              <g transform="translate(29.55,74.4)" id="img-21a1fd00-45">
                <path d="M-0.31,-1.14 L0.31,-1.14 0.31,1.14 -0.31,1.14  z" class="primitive"/>
              </g>
              <g transform="translate(30.12,73.26)" id="img-21a1fd00-46">
                <path d="M-0.31,-2.28 L0.31,-2.28 0.31,2.28 -0.31,2.28  z" class="primitive"/>
              </g>
              <g transform="translate(30.69,70.97)" id="img-21a1fd00-47">
                <path d="M-0.31,-4.57 L0.31,-4.57 0.31,4.57 -0.31,4.57  z" class="primitive"/>
              </g>
              <g transform="translate(31.26,68.69)" id="img-21a1fd00-48">
                <path d="M-0.31,-6.85 L0.31,-6.85 0.31,6.85 -0.31,6.85  z" class="primitive"/>
              </g>
              <g transform="translate(31.83,67.54)" id="img-21a1fd00-49">
                <path d="M-0.31,-8 L0.31,-8 0.31,8 -0.31,8  z" class="primitive"/>
              </g>
              <g transform="translate(32.4,72.11)" id="img-21a1fd00-50">
                <path d="M-0.31,-3.43 L0.31,-3.43 0.31,3.43 -0.31,3.43  z" class="primitive"/>
              </g>
              <g transform="translate(32.97,64.12)" id="img-21a1fd00-51">
                <path d="M-0.31,-11.42 L0.31,-11.42 0.31,11.42 -0.31,11.42  z" class="primitive"/>
              </g>
              <g transform="translate(33.54,73.26)" id="img-21a1fd00-52">
                <path d="M-0.31,-2.28 L0.31,-2.28 0.31,2.28 -0.31,2.28  z" class="primitive"/>
              </g>
              <g transform="translate(34.11,68.69)" id="img-21a1fd00-53">
                <path d="M-0.31,-6.85 L0.31,-6.85 0.31,6.85 -0.31,6.85  z" class="primitive"/>
              </g>
              <g transform="translate(34.68,64.12)" id="img-21a1fd00-54">
                <path d="M-0.31,-11.42 L0.31,-11.42 0.31,11.42 -0.31,11.42  z" class="primitive"/>
              </g>
              <g transform="translate(35.25,67.54)" id="img-21a1fd00-55">
                <path d="M-0.31,-8 L0.31,-8 0.31,8 -0.31,8  z" class="primitive"/>
              </g>
              <g transform="translate(35.82,69.83)" id="img-21a1fd00-56">
                <path d="M-0.31,-5.71 L0.31,-5.71 0.31,5.71 -0.31,5.71  z" class="primitive"/>
              </g>
              <g transform="translate(36.39,69.83)" id="img-21a1fd00-57">
                <path d="M-0.31,-5.71 L0.31,-5.71 0.31,5.71 -0.31,5.71  z" class="primitive"/>
              </g>
              <g transform="translate(36.96,57.26)" id="img-21a1fd00-58">
                <path d="M-0.31,-18.28 L0.31,-18.28 0.31,18.28 -0.31,18.28  z" class="primitive"/>
              </g>
              <g transform="translate(37.53,67.54)" id="img-21a1fd00-59">
                <path d="M-0.31,-8 L0.31,-8 0.31,8 -0.31,8  z" class="primitive"/>
              </g>
              <g transform="translate(38.1,67.54)" id="img-21a1fd00-60">
                <path d="M-0.31,-8 L0.31,-8 0.31,8 -0.31,8  z" class="primitive"/>
              </g>
              <g transform="translate(38.67,64.12)" id="img-21a1fd00-61">
                <path d="M-0.31,-11.42 L0.31,-11.42 0.31,11.42 -0.31,11.42  z" class="primitive"/>
              </g>
              <g transform="translate(39.24,58.4)" id="img-21a1fd00-62">
                <path d="M-0.31,-17.14 L0.31,-17.14 0.31,17.14 -0.31,17.14  z" class="primitive"/>
              </g>
              <g transform="translate(39.81,66.4)" id="img-21a1fd00-63">
                <path d="M-0.31,-9.14 L0.31,-9.14 0.31,9.14 -0.31,9.14  z" class="primitive"/>
              </g>
              <g transform="translate(40.38,64.12)" id="img-21a1fd00-64">
                <path d="M-0.31,-11.42 L0.31,-11.42 0.31,11.42 -0.31,11.42  z" class="primitive"/>
              </g>
              <g transform="translate(40.94,62.97)" id="img-21a1fd00-65">
                <path d="M-0.31,-12.57 L0.31,-12.57 0.31,12.57 -0.31,12.57  z" class="primitive"/>
              </g>
              <g transform="translate(41.51,58.4)" id="img-21a1fd00-66">
                <path d="M-0.31,-17.14 L0.31,-17.14 0.31,17.14 -0.31,17.14  z" class="primitive"/>
              </g>
              <g transform="translate(42.08,53.84)" id="img-21a1fd00-67">
                <path d="M-0.31,-21.7 L0.31,-21.7 0.31,21.7 -0.31,21.7  z" class="primitive"/>
              </g>
              <g transform="translate(42.65,60.69)" id="img-21a1fd00-68">
                <path d="M-0.31,-14.85 L0.31,-14.85 0.31,14.85 -0.31,14.85  z" class="primitive"/>
              </g>
              <g transform="translate(43.22,64.12)" id="img-21a1fd00-69">
                <path d="M-0.31,-11.42 L0.31,-11.42 0.31,11.42 -0.31,11.42  z" class="primitive"/>
              </g>
              <g transform="translate(43.79,53.84)" id="img-21a1fd00-70">
                <path d="M-0.31,-21.7 L0.31,-21.7 0.31,21.7 -0.31,21.7  z" class="primitive"/>
              </g>
              <g transform="translate(44.36,50.41)" id="img-21a1fd00-71">
                <path d="M-0.31,-25.13 L0.31,-25.13 0.31,25.13 -0.31,25.13  z" class="primitive"/>
              </g>
              <g transform="translate(44.93,51.55)" id="img-21a1fd00-72">
                <path d="M-0.31,-23.99 L0.31,-23.99 0.31,23.99 -0.31,23.99  z" class="primitive"/>
              </g>
              <g transform="translate(45.5,62.97)" id="img-21a1fd00-73">
                <path d="M-0.31,-12.57 L0.31,-12.57 0.31,12.57 -0.31,12.57  z" class="primitive"/>
              </g>
              <g transform="translate(46.07,54.98)" id="img-21a1fd00-74">
                <path d="M-0.31,-20.56 L0.31,-20.56 0.31,20.56 -0.31,20.56  z" class="primitive"/>
              </g>
              <g transform="translate(46.64,45.84)" id="img-21a1fd00-75">
                <path d="M-0.31,-29.7 L0.31,-29.7 0.31,29.7 -0.31,29.7  z" class="primitive"/>
              </g>
              <g transform="translate(47.21,51.55)" id="img-21a1fd00-76">
                <path d="M-0.31,-23.99 L0.31,-23.99 0.31,23.99 -0.31,23.99  z" class="primitive"/>
              </g>
              <g transform="translate(47.78,50.41)" id="img-21a1fd00-77">
                <path d="M-0.31,-25.13 L0.31,-25.13 0.31,25.13 -0.31,25.13  z" class="primitive"/>
              </g>
              <g transform="translate(48.35,58.4)" id="img-21a1fd00-78">
                <path d="M-0.31,-17.14 L0.31,-17.14 0.31,17.14 -0.31,17.14  z" class="primitive"/>
              </g>
              <g transform="translate(48.92,48.12)" id="img-21a1fd00-79">
                <path d="M-0.31,-27.42 L0.31,-27.42 0.31,27.42 -0.31,27.42  z" class="primitive"/>
              </g>
              <g transform="translate(49.49,48.12)" id="img-21a1fd00-80">
                <path d="M-0.31,-27.42 L0.31,-27.42 0.31,27.42 -0.31,27.42  z" class="primitive"/>
              </g>
              <g transform="translate(50.06,54.98)" id="img-21a1fd00-81">
                <path d="M-0.31,-20.56 L0.31,-20.56 0.31,20.56 -0.31,20.56  z" class="primitive"/>
              </g>
              <g transform="translate(50.63,49.27)" id="img-21a1fd00-82">
                <path d="M-0.31,-26.27 L0.31,-26.27 0.31,26.27 -0.31,26.27  z" class="primitive"/>
              </g>
              <g transform="translate(51.2,51.55)" id="img-21a1fd00-83">
                <path d="M-0.31,-23.99 L0.31,-23.99 0.31,23.99 -0.31,23.99  z" class="primitive"/>
              </g>
              <g transform="translate(51.77,58.4)" id="img-21a1fd00-84">
                <path d="M-0.31,-17.14 L0.31,-17.14 0.31,17.14 -0.31,17.14  z" class="primitive"/>
              </g>
              <g transform="translate(52.33,49.27)" id="img-21a1fd00-85">
                <path d="M-0.31,-26.27 L0.31,-26.27 0.31,26.27 -0.31,26.27  z" class="primitive"/>
              </g>
              <g transform="translate(52.9,41.27)" id="img-21a1fd00-86">
                <path d="M-0.31,-34.27 L0.31,-34.27 0.31,34.27 -0.31,34.27  z" class="primitive"/>
              </g>
              <g transform="translate(53.47,51.55)" id="img-21a1fd00-87">
                <path d="M-0.31,-23.99 L0.31,-23.99 0.31,23.99 -0.31,23.99  z" class="primitive"/>
              </g>
              <g transform="translate(54.04,58.4)" id="img-21a1fd00-88">
                <path d="M-0.31,-17.14 L0.31,-17.14 0.31,17.14 -0.31,17.14  z" class="primitive"/>
              </g>
              <g transform="translate(54.61,44.7)" id="img-21a1fd00-89">
                <path d="M-0.31,-30.84 L0.31,-30.84 0.31,30.84 -0.31,30.84  z" class="primitive"/>
              </g>
              <g transform="translate(55.18,49.27)" id="img-21a1fd00-90">
                <path d="M-0.31,-26.27 L0.31,-26.27 0.31,26.27 -0.31,26.27  z" class="primitive"/>
              </g>
              <g transform="translate(55.75,53.84)" id="img-21a1fd00-91">
                <path d="M-0.31,-21.7 L0.31,-21.7 0.31,21.7 -0.31,21.7  z" class="primitive"/>
              </g>
              <g transform="translate(56.32,53.84)" id="img-21a1fd00-92">
                <path d="M-0.31,-21.7 L0.31,-21.7 0.31,21.7 -0.31,21.7  z" class="primitive"/>
              </g>
              <g transform="translate(56.89,61.83)" id="img-21a1fd00-93">
                <path d="M-0.31,-13.71 L0.31,-13.71 0.31,13.71 -0.31,13.71  z" class="primitive"/>
              </g>
              <g transform="translate(57.46,52.69)" id="img-21a1fd00-94">
                <path d="M-0.31,-22.85 L0.31,-22.85 0.31,22.85 -0.31,22.85  z" class="primitive"/>
              </g>
              <g transform="translate(58.03,60.69)" id="img-21a1fd00-95">
                <path d="M-0.31,-14.85 L0.31,-14.85 0.31,14.85 -0.31,14.85  z" class="primitive"/>
              </g>
              <g transform="translate(58.6,58.4)" id="img-21a1fd00-96">
                <path d="M-0.31,-17.14 L0.31,-17.14 0.31,17.14 -0.31,17.14  z" class="primitive"/>
              </g>
              <g transform="translate(59.17,51.55)" id="img-21a1fd00-97">
                <path d="M-0.31,-23.99 L0.31,-23.99 0.31,23.99 -0.31,23.99  z" class="primitive"/>
              </g>
              <g transform="translate(59.74,52.69)" id="img-21a1fd00-98">
                <path d="M-0.31,-22.85 L0.31,-22.85 0.31,22.85 -0.31,22.85  z" class="primitive"/>
              </g>
              <g transform="translate(60.31,53.84)" id="img-21a1fd00-99">
                <path d="M-0.31,-21.7 L0.31,-21.7 0.31,21.7 -0.31,21.7  z" class="primitive"/>
              </g>
              <g transform="translate(60.88,56.12)" id="img-21a1fd00-100">
                <path d="M-0.31,-19.42 L0.31,-19.42 0.31,19.42 -0.31,19.42  z" class="primitive"/>
              </g>
              <g transform="translate(61.45,67.54)" id="img-21a1fd00-101">
                <path d="M-0.31,-8 L0.31,-8 0.31,8 -0.31,8  z" class="primitive"/>
              </g>
              <g transform="translate(62.02,56.12)" id="img-21a1fd00-102">
                <path d="M-0.31,-19.42 L0.31,-19.42 0.31,19.42 -0.31,19.42  z" class="primitive"/>
              </g>
              <g transform="translate(62.59,73.26)" id="img-21a1fd00-103">
                <path d="M-0.31,-2.28 L0.31,-2.28 0.31,2.28 -0.31,2.28  z" class="primitive"/>
              </g>
              <g transform="translate(63.16,65.26)" id="img-21a1fd00-104">
                <path d="M-0.31,-10.28 L0.31,-10.28 0.31,10.28 -0.31,10.28  z" class="primitive"/>
              </g>
              <g transform="translate(63.72,59.55)" id="img-21a1fd00-105">
                <path d="M-0.31,-15.99 L0.31,-15.99 0.31,15.99 -0.31,15.99  z" class="primitive"/>
              </g>
              <g transform="translate(64.29,59.55)" id="img-21a1fd00-106">
                <path d="M-0.31,-15.99 L0.31,-15.99 0.31,15.99 -0.31,15.99  z" class="primitive"/>
              </g>
              <g transform="translate(64.86,65.26)" id="img-21a1fd00-107">
                <path d="M-0.31,-10.28 L0.31,-10.28 0.31,10.28 -0.31,10.28  z" class="primitive"/>
              </g>
              <g transform="translate(65.43,62.97)" id="img-21a1fd00-108">
                <path d="M-0.31,-12.57 L0.31,-12.57 0.31,12.57 -0.31,12.57  z" class="primitive"/>
              </g>
              <g transform="translate(66,69.83)" id="img-21a1fd00-109">
                <path d="M-0.31,-5.71 L0.31,-5.71 0.31,5.71 -0.31,5.71  z" class="primitive"/>
              </g>
              <g transform="translate(66.57,62.97)" id="img-21a1fd00-110">
                <path d="M-0.31,-12.57 L0.31,-12.57 0.31,12.57 -0.31,12.57  z" class="primitive"/>
              </g>
              <g transform="translate(67.14,64.12)" id="img-21a1fd00-111">
                <path d="M-0.31,-11.42 L0.31,-11.42 0.31,11.42 -0.31,11.42  z" class="primitive"/>
              </g>
              <g transform="translate(67.71,64.12)" id="img-21a1fd00-112">
                <path d="M-0.31,-11.42 L0.31,-11.42 0.31,11.42 -0.31,11.42  z" class="primitive"/>
              </g>
              <g transform="translate(68.28,67.54)" id="img-21a1fd00-113">
                <path d="M-0.31,-8 L0.31,-8 0.31,8 -0.31,8  z" class="primitive"/>
              </g>
              <g transform="translate(68.85,69.83)" id="img-21a1fd00-114">
                <path d="M-0.31,-5.71 L0.31,-5.71 0.31,5.71 -0.31,5.71  z" class="primitive"/>
              </g>
              <g transform="translate(69.42,72.11)" id="img-21a1fd00-115">
                <path d="M-0.31,-3.43 L0.31,-3.43 0.31,3.43 -0.31,3.43  z" class="primitive"/>
              </g>
              <g transform="translate(69.99,72.11)" id="img-21a1fd00-116">
                <path d="M-0.31,-3.43 L0.31,-3.43 0.31,3.43 -0.31,3.43  z" class="primitive"/>
              </g>
              <g transform="translate(70.56,74.4)" id="img-21a1fd00-117">
                <path d="M-0.31,-1.14 L0.31,-1.14 0.31,1.14 -0.31,1.14  z" class="primitive"/>
              </g>
              <g transform="translate(71.13,69.83)" id="img-21a1fd00-118">
                <path d="M-0.31,-5.71 L0.31,-5.71 0.31,5.71 -0.31,5.71  z" class="primitive"/>
              </g>
              <g transform="translate(71.7,68.69)" id="img-21a1fd00-119">
                <path d="M-0.31,-6.85 L0.31,-6.85 0.31,6.85 -0.31,6.85  z" class="primitive"/>
              </g>
              <g transform="translate(72.27,74.4)" id="img-21a1fd00-120">
                <path d="M-0.31,-1.14 L0.31,-1.14 0.31,1.14 -0.31,1.14  z" class="primitive"/>
              </g>
              <g transform="translate(72.84,74.4)" id="img-21a1fd00-121">
                <path d="M-0.31,-1.14 L0.31,-1.14 0.31,1.14 -0.31,1.14  z" class="primitive"/>
              </g>
              <g transform="translate(73.41,75.54)" id="img-21a1fd00-122">
                <path d="M-0.31,-0 L0.31,-0 0.31,0 -0.31,0  z" class="primitive"/>
              </g>
              <g transform="translate(73.98,73.26)" id="img-21a1fd00-123">
                <path d="M-0.31,-2.28 L0.31,-2.28 0.31,2.28 -0.31,2.28  z" class="primitive"/>
              </g>
              <g transform="translate(74.55,74.4)" id="img-21a1fd00-124">
                <path d="M-0.31,-1.14 L0.31,-1.14 0.31,1.14 -0.31,1.14  z" class="primitive"/>
              </g>
              <g transform="translate(75.11,75.54)" id="img-21a1fd00-125">
                <path d="M-0.31,-0 L0.31,-0 0.31,0 -0.31,0  z" class="primitive"/>
              </g>
              <g transform="translate(75.68,74.4)" id="img-21a1fd00-126">
                <path d="M-0.31,-1.14 L0.31,-1.14 0.31,1.14 -0.31,1.14  z" class="primitive"/>
              </g>
              <g transform="translate(76.25,74.4)" id="img-21a1fd00-127">
                <path d="M-0.31,-1.14 L0.31,-1.14 0.31,1.14 -0.31,1.14  z" class="primitive"/>
              </g>
              <g transform="translate(76.82,74.4)" id="img-21a1fd00-128">
                <path d="M-0.31,-1.14 L0.31,-1.14 0.31,1.14 -0.31,1.14  z" class="primitive"/>
              </g>
              <g transform="translate(77.39,75.54)" id="img-21a1fd00-129">
                <path d="M-0.31,-0 L0.31,-0 0.31,0 -0.31,0  z" class="primitive"/>
              </g>
              <g transform="translate(77.96,74.4)" id="img-21a1fd00-130">
                <path d="M-0.31,-1.14 L0.31,-1.14 0.31,1.14 -0.31,1.14  z" class="primitive"/>
              </g>
            </g>
          </g>
        </g>
      </g>
    </g>
  </g>
  <g class="guide ylabels" font-size="2.82" font-family="'PT Sans Caption','Helvetica Neue','Helvetica',sans-serif" fill="#6C606B" id="img-21a1fd00-131">
    <g transform="translate(16.96,75.54)" id="img-21a1fd00-132">
      <g class="primitive">
        <text text-anchor="end" dy="0.35em">0</text>
      </g>
    </g>
    <g transform="translate(16.96,52.69)" id="img-21a1fd00-133">
      <g class="primitive">
        <text text-anchor="end" dy="0.35em">10</text>
      </g>
    </g>
    <g transform="translate(16.96,29.85)" id="img-21a1fd00-134">
      <g class="primitive">
        <text text-anchor="end" dy="0.35em">20</text>
      </g>
    </g>
    <g transform="translate(16.96,7)" id="img-21a1fd00-135">
      <g class="primitive">
        <text text-anchor="end" dy="0.35em">30</text>
      </g>
    </g>
  </g>
  <g font-size="3.88" font-family="'PT Sans','Helvetica Neue','Helvetica',sans-serif" fill="#564A55" stroke="#000000" stroke-opacity="0.000" id="img-21a1fd00-136">
    <g transform="translate(8.81,39.27)" id="img-21a1fd00-137">
      <g class="primitive">
        <text text-anchor="middle" dy="0.35em" transform="rotate(-90,0, 2)">frequency</text>
      </g>
    </g>
  </g>
</g>
<defs>
  <clipPath id="img-21a1fd00-11">
    <path d="M17.96,5 L83.89,5 83.89,77.54 17.96,77.54 " />
  </clipPath>
</defs>
</svg>
