<?xml version="1.0" encoding="UTF-8"?>
<svg xmlns="http://www.w3.org/2000/svg"
     xmlns:xlink="http://www.w3.org/1999/xlink"
     xmlns:gadfly="http://www.gadflyjl.org/ns"
     version="1.2"
     width="141.42mm" height="100mm" viewBox="0 0 141.42 100"
     stroke="none"
     fill="#000000"
     stroke-width="0.3"
     font-size="3.88"
>
<defs>
  <marker id="arrow" markerWidth="15" markerHeight="7" refX="5" refY="3.5" orient="auto" markerUnits="strokeWidth">
    <path d="M0,0 L15,3.5 L0,7 z" stroke="context-stroke" fill="context-stroke"/>
  </marker>
</defs>
<g class="plotroot xscalable yscalable" id="img-e35c80cf-1">
  <g class="guide xlabels" font-size="2.82" font-family="'PT Sans Caption','Helvetica Neue','Helvetica',sans-serif" fill="#6C606B" id="img-e35c80cf-2">
    <g transform="translate(19.96,91.33)">
      <g class="primitive">
        <text text-anchor="middle" dy="0.6em">0.0</text>
      </g>
    </g>
    <g transform="translate(32.91,91.33)">
      <g class="primitive">
        <text text-anchor="middle" dy="0.6em">2.5</text>
      </g>
    </g>
    <g transform="translate(45.87,91.33)">
      <g class="primitive">
        <text text-anchor="middle" dy="0.6em">5.0</text>
      </g>
    </g>
    <g transform="translate(58.83,91.33)">
      <g class="primitive">
        <text text-anchor="middle" dy="0.6em">7.5</text>
      </g>
    </g>
    <g transform="translate(71.78,91.33)">
      <g class="primitive">
        <text text-anchor="middle" dy="0.6em">10.0</text>
      </g>
    </g>
  </g>
  <g class="guide colorkey" id="img-e35c80cf-3">
    <g class="color_coding_noncoding_noncoding_noncoding_4-path" id="img-e35c80cf-4">
      <g fill="#4C404B" font-size="2.82" font-family="'PT Sans','Helvetica Neue','Helvetica',sans-serif" id="img-e35c80cf-5">
        <g transform="translate(77.59,49.48)" id="img-e35c80cf-6">
          <g class="primitive">
            <text dy="0.35em">coding_noncoding_noncoding_noncoding_4-path</text>
          </g>
        </g>
      </g>
      <g fill-opacity="1" fill="#00BFFF" stroke="#FFFFFF" id="img-e35c80cf-7">
        <g transform="translate(75.69,49.48)" id="img-e35c80cf-8">
          <path d="M-0.91,-0.91 L 0.91 -0.91 0.91 0.91 -0.91 0.91 z" class="primitive"/>
        </g>
      </g>
    </g>
    <g fill="#362A35" font-size="3.88" font-family="'PT Sans','Helvetica Neue','Helvetica',sans-serif" stroke="#000000" stroke-opacity="0.000" id="img-e35c80cf-9">
      <g transform="translate(74.78,45.66)" id="img-e35c80cf-10">
        <g class="primitive">
          <text dy="-0em">graphlet</text>
        </g>
      </g>
    </g>
  </g>
  <g clip-path="url(#img-e35c80cf-11)">
    <g id="img-e35c80cf-12">
      <g pointer-events="visible" stroke-width="0.3" fill="#000000" fill-opacity="0.000" stroke="#000000" stroke-opacity="0.000" class="guide background" id="img-e35c80cf-13">
        <g transform="translate(45.87,47.66)" id="img-e35c80cf-14">
          <path d="M-27.91,-42.66 L 27.91 -42.66 27.91 42.66 -27.91 42.66 z" class="primitive"/>
        </g>
      </g>
      <g class="guide ygridlines xfixed" stroke-dasharray="0.5,0.5" stroke-width="0.2" stroke="#D0D0E0" id="img-e35c80cf-15">
        <g transform="translate(45.87,88.33)" id="img-e35c80cf-16">
          <path fill="none" d="M-27.91,0 L 27.91 0" class="primitive"/>
        </g>
        <g transform="translate(45.87,72.06)" id="img-e35c80cf-17">
          <path fill="none" d="M-27.91,0 L 27.91 0" class="primitive"/>
        </g>
        <g transform="translate(45.87,55.8)" id="img-e35c80cf-18">
          <path fill="none" d="M-27.91,0 L 27.91 0" class="primitive"/>
        </g>
        <g transform="translate(45.87,39.53)" id="img-e35c80cf-19">
          <path fill="none" d="M-27.91,0 L 27.91 0" class="primitive"/>
        </g>
        <g transform="translate(45.87,23.27)" id="img-e35c80cf-20">
          <path fill="none" d="M-27.91,0 L 27.91 0" class="primitive"/>
        </g>
        <g transform="translate(45.87,7)" id="img-e35c80cf-21">
          <path fill="none" d="M-27.91,0 L 27.91 0" class="primitive"/>
        </g>
      </g>
      <g class="guide xgridlines yfixed" stroke-dasharray="0.5,0.5" stroke-width="0.2" stroke="#D0D0E0" id="img-e35c80cf-22">
        <g transform="translate(19.96,47.66)" id="img-e35c80cf-23">
          <path fill="none" d="M0,-42.66 L 0 42.66" class="primitive"/>
        </g>
        <g transform="translate(32.91,47.66)" id="img-e35c80cf-24">
          <path fill="none" d="M0,-42.66 L 0 42.66" class="primitive"/>
        </g>
        <g transform="translate(45.87,47.66)" id="img-e35c80cf-25">
          <path fill="none" d="M0,-42.66 L 0 42.66" class="primitive"/>
        </g>
        <g transform="translate(58.83,47.66)" id="img-e35c80cf-26">
          <path fill="none" d="M0,-42.66 L 0 42.66" class="primitive"/>
        </g>
        <g transform="translate(71.78,47.66)" id="img-e35c80cf-27">
          <path fill="none" d="M0,-42.66 L 0 42.66" class="primitive"/>
        </g>
      </g>
      <g class="plotpanel" id="img-e35c80cf-28">
        <metadata>
          <boundingbox value="17.958333333333336mm 5.0mm 55.82302290397616mm 85.32666666666667mm"/>
          <unitbox value="-0.385928857084589 51.22960898434298 10.771857714169178 -52.459217968685955"/>
        </metadata>
        <g shape-rendering="crispEdges" stroke-width="0.3" id="img-e35c80cf-29">
          <g stroke="#000000" stroke-opacity="0.000" class="geometry" id="img-e35c80cf-30">
            <g fill="#00BFFF" id="img-e35c80cf-31">
              <g transform="translate(23.74,85.07)" id="img-e35c80cf-32">
                <path d="M-0.22,-3.25 L 0.22 -3.25 0.22 3.25 -0.22 3.25 z" class="primitive"/>
              </g>
              <g transform="translate(24.13,88.33)" id="img-e35c80cf-33">
                <path d="M-0.22,-0 L 0.22 -0 0.22 0 -0.22 0 z" class="primitive"/>
              </g>
              <g transform="translate(24.52,88.33)" id="img-e35c80cf-34">
                <path d="M-0.22,-0 L 0.22 -0 0.22 0 -0.22 0 z" class="primitive"/>
              </g>
              <g transform="translate(24.91,88.33)" id="img-e35c80cf-35">
                <path d="M-0.22,-0 L 0.22 -0 0.22 0 -0.22 0 z" class="primitive"/>
              </g>
              <g transform="translate(25.3,88.33)" id="img-e35c80cf-36">
                <path d="M-0.22,-0 L 0.22 -0 0.22 0 -0.22 0 z" class="primitive"/>
              </g>
              <g transform="translate(25.69,88.33)" id="img-e35c80cf-37">
                <path d="M-0.22,-0 L 0.22 -0 0.22 0 -0.22 0 z" class="primitive"/>
              </g>
              <g transform="translate(26.08,88.33)" id="img-e35c80cf-38">
                <path d="M-0.22,-0 L 0.22 -0 0.22 0 -0.22 0 z" class="primitive"/>
              </g>
              <g transform="translate(26.47,88.33)" id="img-e35c80cf-39">
                <path d="M-0.22,-0 L 0.22 -0 0.22 0 -0.22 0 z" class="primitive"/>
              </g>
              <g transform="translate(26.85,88.33)" id="img-e35c80cf-40">
                <path d="M-0.22,-0 L 0.22 -0 0.22 0 -0.22 0 z" class="primitive"/>
              </g>
              <g transform="translate(27.24,86.7)" id="img-e35c80cf-41">
                <path d="M-0.22,-1.63 L 0.22 -1.63 0.22 1.63 -0.22 1.63 z" class="primitive"/>
              </g>
              <g transform="translate(27.63,88.33)" id="img-e35c80cf-42">
                <path d="M-0.22,-0 L 0.22 -0 0.22 0 -0.22 0 z" class="primitive"/>
              </g>
              <g transform="translate(28.02,88.33)" id="img-e35c80cf-43">
                <path d="M-0.22,-0 L 0.22 -0 0.22 0 -0.22 0 z" class="primitive"/>
              </g>
              <g transform="translate(28.41,87.51)" id="img-e35c80cf-44">
                <path d="M-0.22,-0.81 L 0.22 -0.81 0.22 0.81 -0.22 0.81 z" class="primitive"/>
              </g>
              <g transform="translate(28.8,88.33)" id="img-e35c80cf-45">
                <path d="M-0.22,-0 L 0.22 -0 0.22 0 -0.22 0 z" class="primitive"/>
              </g>
              <g transform="translate(29.19,87.51)" id="img-e35c80cf-46">
                <path d="M-0.22,-0.81 L 0.22 -0.81 0.22 0.81 -0.22 0.81 z" class="primitive"/>
              </g>
              <g transform="translate(29.57,88.33)" id="img-e35c80cf-47">
                <path d="M-0.22,-0 L 0.22 -0 0.22 0 -0.22 0 z" class="primitive"/>
              </g>
              <g transform="translate(29.96,88.33)" id="img-e35c80cf-48">
                <path d="M-0.22,-0 L 0.22 -0 0.22 0 -0.22 0 z" class="primitive"/>
              </g>
              <g transform="translate(30.35,88.33)" id="img-e35c80cf-49">
                <path d="M-0.22,-0 L 0.22 -0 0.22 0 -0.22 0 z" class="primitive"/>
              </g>
              <g transform="translate(30.74,87.51)" id="img-e35c80cf-50">
                <path d="M-0.22,-0.81 L 0.22 -0.81 0.22 0.81 -0.22 0.81 z" class="primitive"/>
              </g>
              <g transform="translate(31.13,88.33)" id="img-e35c80cf-51">
                <path d="M-0.22,-0 L 0.22 -0 0.22 0 -0.22 0 z" class="primitive"/>
              </g>
              <g transform="translate(31.52,88.33)" id="img-e35c80cf-52">
                <path d="M-0.22,-0 L 0.22 -0 0.22 0 -0.22 0 z" class="primitive"/>
              </g>
              <g transform="translate(31.91,88.33)" id="img-e35c80cf-53">
                <path d="M-0.22,-0 L 0.22 -0 0.22 0 -0.22 0 z" class="primitive"/>
              </g>
              <g transform="translate(32.29,87.51)" id="img-e35c80cf-54">
                <path d="M-0.22,-0.81 L 0.22 -0.81 0.22 0.81 -0.22 0.81 z" class="primitive"/>
              </g>
              <g transform="translate(32.68,88.33)" id="img-e35c80cf-55">
                <path d="M-0.22,-0 L 0.22 -0 0.22 0 -0.22 0 z" class="primitive"/>
              </g>
              <g transform="translate(33.07,86.7)" id="img-e35c80cf-56">
                <path d="M-0.22,-1.63 L 0.22 -1.63 0.22 1.63 -0.22 1.63 z" class="primitive"/>
              </g>
              <g transform="translate(33.46,88.33)" id="img-e35c80cf-57">
                <path d="M-0.22,-0 L 0.22 -0 0.22 0 -0.22 0 z" class="primitive"/>
              </g>
              <g transform="translate(33.85,86.7)" id="img-e35c80cf-58">
                <path d="M-0.22,-1.63 L 0.22 -1.63 0.22 1.63 -0.22 1.63 z" class="primitive"/>
              </g>
              <g transform="translate(34.24,88.33)" id="img-e35c80cf-59">
                <path d="M-0.22,-0 L 0.22 -0 0.22 0 -0.22 0 z" class="primitive"/>
              </g>
              <g transform="translate(34.63,88.33)" id="img-e35c80cf-60">
                <path d="M-0.22,-0 L 0.22 -0 0.22 0 -0.22 0 z" class="primitive"/>
              </g>
              <g transform="translate(35.01,86.7)" id="img-e35c80cf-61">
                <path d="M-0.22,-1.63 L 0.22 -1.63 0.22 1.63 -0.22 1.63 z" class="primitive"/>
              </g>
              <g transform="translate(35.4,87.51)" id="img-e35c80cf-62">
                <path d="M-0.22,-0.81 L 0.22 -0.81 0.22 0.81 -0.22 0.81 z" class="primitive"/>
              </g>
              <g transform="translate(35.79,87.51)" id="img-e35c80cf-63">
                <path d="M-0.22,-0.81 L 0.22 -0.81 0.22 0.81 -0.22 0.81 z" class="primitive"/>
              </g>
              <g transform="translate(36.18,88.33)" id="img-e35c80cf-64">
                <path d="M-0.22,-0 L 0.22 -0 0.22 0 -0.22 0 z" class="primitive"/>
              </g>
              <g transform="translate(36.57,86.7)" id="img-e35c80cf-65">
                <path d="M-0.22,-1.63 L 0.22 -1.63 0.22 1.63 -0.22 1.63 z" class="primitive"/>
              </g>
              <g transform="translate(36.96,85.89)" id="img-e35c80cf-66">
                <path d="M-0.22,-2.44 L 0.22 -2.44 0.22 2.44 -0.22 2.44 z" class="primitive"/>
              </g>
              <g transform="translate(37.35,87.51)" id="img-e35c80cf-67">
                <path d="M-0.22,-0.81 L 0.22 -0.81 0.22 0.81 -0.22 0.81 z" class="primitive"/>
              </g>
              <g transform="translate(37.73,86.7)" id="img-e35c80cf-68">
                <path d="M-0.22,-1.63 L 0.22 -1.63 0.22 1.63 -0.22 1.63 z" class="primitive"/>
              </g>
              <g transform="translate(38.12,85.89)" id="img-e35c80cf-69">
                <path d="M-0.22,-2.44 L 0.22 -2.44 0.22 2.44 -0.22 2.44 z" class="primitive"/>
              </g>
              <g transform="translate(38.51,84.26)" id="img-e35c80cf-70">
                <path d="M-0.22,-4.07 L 0.22 -4.07 0.22 4.07 -0.22 4.07 z" class="primitive"/>
              </g>
              <g transform="translate(38.9,86.7)" id="img-e35c80cf-71">
                <path d="M-0.22,-1.63 L 0.22 -1.63 0.22 1.63 -0.22 1.63 z" class="primitive"/>
              </g>
              <g transform="translate(39.29,88.33)" id="img-e35c80cf-72">
                <path d="M-0.22,-0 L 0.22 -0 0.22 0 -0.22 0 z" class="primitive"/>
              </g>
              <g transform="translate(39.68,85.89)" id="img-e35c80cf-73">
                <path d="M-0.22,-2.44 L 0.22 -2.44 0.22 2.44 -0.22 2.44 z" class="primitive"/>
              </g>
              <g transform="translate(40.07,83.45)" id="img-e35c80cf-74">
                <path d="M-0.22,-4.88 L 0.22 -4.88 0.22 4.88 -0.22 4.88 z" class="primitive"/>
              </g>
              <g transform="translate(40.46,86.7)" id="img-e35c80cf-75">
                <path d="M-0.22,-1.63 L 0.22 -1.63 0.22 1.63 -0.22 1.63 z" class="primitive"/>
              </g>
              <g transform="translate(40.84,83.45)" id="img-e35c80cf-76">
                <path d="M-0.22,-4.88 L 0.22 -4.88 0.22 4.88 -0.22 4.88 z" class="primitive"/>
              </g>
              <g transform="translate(41.23,85.07)" id="img-e35c80cf-77">
                <path d="M-0.22,-3.25 L 0.22 -3.25 0.22 3.25 -0.22 3.25 z" class="primitive"/>
              </g>
              <g transform="translate(41.62,85.89)" id="img-e35c80cf-78">
                <path d="M-0.22,-2.44 L 0.22 -2.44 0.22 2.44 -0.22 2.44 z" class="primitive"/>
              </g>
              <g transform="translate(42.01,81.82)" id="img-e35c80cf-79">
                <path d="M-0.22,-6.51 L 0.22 -6.51 0.22 6.51 -0.22 6.51 z" class="primitive"/>
              </g>
              <g transform="translate(42.4,83.45)" id="img-e35c80cf-80">
                <path d="M-0.22,-4.88 L 0.22 -4.88 0.22 4.88 -0.22 4.88 z" class="primitive"/>
              </g>
              <g transform="translate(42.79,84.26)" id="img-e35c80cf-81">
                <path d="M-0.22,-4.07 L 0.22 -4.07 0.22 4.07 -0.22 4.07 z" class="primitive"/>
              </g>
              <g transform="translate(43.18,83.45)" id="img-e35c80cf-82">
                <path d="M-0.22,-4.88 L 0.22 -4.88 0.22 4.88 -0.22 4.88 z" class="primitive"/>
              </g>
              <g transform="translate(43.56,81.82)" id="img-e35c80cf-83">
                <path d="M-0.22,-6.51 L 0.22 -6.51 0.22 6.51 -0.22 6.51 z" class="primitive"/>
              </g>
              <g transform="translate(43.95,83.45)" id="img-e35c80cf-84">
                <path d="M-0.22,-4.88 L 0.22 -4.88 0.22 4.88 -0.22 4.88 z" class="primitive"/>
              </g>
              <g transform="translate(44.34,79.38)" id="img-e35c80cf-85">
                <path d="M-0.22,-8.95 L 0.22 -8.95 0.22 8.95 -0.22 8.95 z" class="primitive"/>
              </g>
              <g transform="translate(44.73,82.63)" id="img-e35c80cf-86">
                <path d="M-0.22,-5.69 L 0.22 -5.69 0.22 5.69 -0.22 5.69 z" class="primitive"/>
              </g>
              <g transform="translate(45.12,75.31)" id="img-e35c80cf-87">
                <path d="M-0.22,-13.01 L 0.22 -13.01 0.22 13.01 -0.22 13.01 z" class="primitive"/>
              </g>
              <g transform="translate(45.51,79.38)" id="img-e35c80cf-88">
                <path d="M-0.22,-8.95 L 0.22 -8.95 0.22 8.95 -0.22 8.95 z" class="primitive"/>
              </g>
              <g transform="translate(45.9,68.81)" id="img-e35c80cf-89">
                <path d="M-0.22,-19.52 L 0.22 -19.52 0.22 19.52 -0.22 19.52 z" class="primitive"/>
              </g>
              <g transform="translate(46.28,80.19)" id="img-e35c80cf-90">
                <path d="M-0.22,-8.13 L 0.22 -8.13 0.22 8.13 -0.22 8.13 z" class="primitive"/>
              </g>
              <g transform="translate(46.67,79.38)" id="img-e35c80cf-91">
                <path d="M-0.22,-8.95 L 0.22 -8.95 0.22 8.95 -0.22 8.95 z" class="primitive"/>
              </g>
              <g transform="translate(47.06,76.94)" id="img-e35c80cf-92">
                <path d="M-0.22,-11.39 L 0.22 -11.39 0.22 11.39 -0.22 11.39 z" class="primitive"/>
              </g>
              <g transform="translate(47.45,73.69)" id="img-e35c80cf-93">
                <path d="M-0.22,-14.64 L 0.22 -14.64 0.22 14.64 -0.22 14.64 z" class="primitive"/>
              </g>
              <g transform="translate(47.84,68)" id="img-e35c80cf-94">
                <path d="M-0.22,-20.33 L 0.22 -20.33 0.22 20.33 -0.22 20.33 z" class="primitive"/>
              </g>
              <g transform="translate(48.23,74.5)" id="img-e35c80cf-95">
                <path d="M-0.22,-13.83 L 0.22 -13.83 0.22 13.83 -0.22 13.83 z" class="primitive"/>
              </g>
              <g transform="translate(48.62,72.06)" id="img-e35c80cf-96">
                <path d="M-0.22,-16.27 L 0.22 -16.27 0.22 16.27 -0.22 16.27 z" class="primitive"/>
              </g>
              <g transform="translate(49,67.18)" id="img-e35c80cf-97">
                <path d="M-0.22,-21.14 L 0.22 -21.14 0.22 21.14 -0.22 21.14 z" class="primitive"/>
              </g>
              <g transform="translate(49.39,68)" id="img-e35c80cf-98">
                <path d="M-0.22,-20.33 L 0.22 -20.33 0.22 20.33 -0.22 20.33 z" class="primitive"/>
              </g>
              <g transform="translate(49.78,72.06)" id="img-e35c80cf-99">
                <path d="M-0.22,-16.27 L 0.22 -16.27 0.22 16.27 -0.22 16.27 z" class="primitive"/>
              </g>
              <g transform="translate(50.17,68.81)" id="img-e35c80cf-100">
                <path d="M-0.22,-19.52 L 0.22 -19.52 0.22 19.52 -0.22 19.52 z" class="primitive"/>
              </g>
              <g transform="translate(50.56,58.24)" id="img-e35c80cf-101">
                <path d="M-0.22,-30.09 L 0.22 -30.09 0.22 30.09 -0.22 30.09 z" class="primitive"/>
              </g>
              <g transform="translate(50.95,65.56)" id="img-e35c80cf-102">
                <path d="M-0.22,-22.77 L 0.22 -22.77 0.22 22.77 -0.22 22.77 z" class="primitive"/>
              </g>
              <g transform="translate(51.34,64.74)" id="img-e35c80cf-103">
                <path d="M-0.22,-23.58 L 0.22 -23.58 0.22 23.58 -0.22 23.58 z" class="primitive"/>
              </g>
              <g transform="translate(51.72,62.3)" id="img-e35c80cf-104">
                <path d="M-0.22,-26.02 L 0.22 -26.02 0.22 26.02 -0.22 26.02 z" class="primitive"/>
              </g>
              <g transform="translate(52.11,50.92)" id="img-e35c80cf-105">
                <path d="M-0.22,-37.41 L 0.22 -37.41 0.22 37.41 -0.22 37.41 z" class="primitive"/>
              </g>
              <g transform="translate(52.5,60.68)" id="img-e35c80cf-106">
                <path d="M-0.22,-27.65 L 0.22 -27.65 0.22 27.65 -0.22 27.65 z" class="primitive"/>
              </g>
              <g transform="translate(52.89,60.68)" id="img-e35c80cf-107">
                <path d="M-0.22,-27.65 L 0.22 -27.65 0.22 27.65 -0.22 27.65 z" class="primitive"/>
              </g>
              <g transform="translate(53.28,58.24)" id="img-e35c80cf-108">
                <path d="M-0.22,-30.09 L 0.22 -30.09 0.22 30.09 -0.22 30.09 z" class="primitive"/>
              </g>
              <g transform="translate(53.67,69.62)" id="img-e35c80cf-109">
                <path d="M-0.22,-18.71 L 0.22 -18.71 0.22 18.71 -0.22 18.71 z" class="primitive"/>
              </g>
              <g transform="translate(54.06,69.62)" id="img-e35c80cf-110">
                <path d="M-0.22,-18.71 L 0.22 -18.71 0.22 18.71 -0.22 18.71 z" class="primitive"/>
              </g>
              <g transform="translate(54.45,61.49)" id="img-e35c80cf-111">
                <path d="M-0.22,-26.84 L 0.22 -26.84 0.22 26.84 -0.22 26.84 z" class="primitive"/>
              </g>
              <g transform="translate(54.83,66.37)" id="img-e35c80cf-112">
                <path d="M-0.22,-21.96 L 0.22 -21.96 0.22 21.96 -0.22 21.96 z" class="primitive"/>
              </g>
              <g transform="translate(55.22,69.62)" id="img-e35c80cf-113">
                <path d="M-0.22,-18.71 L 0.22 -18.71 0.22 18.71 -0.22 18.71 z" class="primitive"/>
              </g>
              <g transform="translate(55.61,65.56)" id="img-e35c80cf-114">
                <path d="M-0.22,-22.77 L 0.22 -22.77 0.22 22.77 -0.22 22.77 z" class="primitive"/>
              </g>
              <g transform="translate(56,66.37)" id="img-e35c80cf-115">
                <path d="M-0.22,-21.96 L 0.22 -21.96 0.22 21.96 -0.22 21.96 z" class="primitive"/>
              </g>
              <g transform="translate(56.39,70.43)" id="img-e35c80cf-116">
                <path d="M-0.22,-17.89 L 0.22 -17.89 0.22 17.89 -0.22 17.89 z" class="primitive"/>
              </g>
              <g transform="translate(56.78,69.62)" id="img-e35c80cf-117">
                <path d="M-0.22,-18.71 L 0.22 -18.71 0.22 18.71 -0.22 18.71 z" class="primitive"/>
              </g>
              <g transform="translate(57.17,68)" id="img-e35c80cf-118">
                <path d="M-0.22,-20.33 L 0.22 -20.33 0.22 20.33 -0.22 20.33 z" class="primitive"/>
              </g>
              <g transform="translate(57.55,76.94)" id="img-e35c80cf-119">
                <path d="M-0.22,-11.39 L 0.22 -11.39 0.22 11.39 -0.22 11.39 z" class="primitive"/>
              </g>
              <g transform="translate(57.94,75.31)" id="img-e35c80cf-120">
                <path d="M-0.22,-13.01 L 0.22 -13.01 0.22 13.01 -0.22 13.01 z" class="primitive"/>
              </g>
              <g transform="translate(58.33,71.25)" id="img-e35c80cf-121">
                <path d="M-0.22,-17.08 L 0.22 -17.08 0.22 17.08 -0.22 17.08 z" class="primitive"/>
              </g>
              <g transform="translate(58.72,81.82)" id="img-e35c80cf-122">
                <path d="M-0.22,-6.51 L 0.22 -6.51 0.22 6.51 -0.22 6.51 z" class="primitive"/>
              </g>
              <g transform="translate(59.11,81.82)" id="img-e35c80cf-123">
                <path d="M-0.22,-6.51 L 0.22 -6.51 0.22 6.51 -0.22 6.51 z" class="primitive"/>
              </g>
              <g transform="translate(59.5,85.07)" id="img-e35c80cf-124">
                <path d="M-0.22,-3.25 L 0.22 -3.25 0.22 3.25 -0.22 3.25 z" class="primitive"/>
              </g>
              <g transform="translate(59.89,85.07)" id="img-e35c80cf-125">
                <path d="M-0.22,-3.25 L 0.22 -3.25 0.22 3.25 -0.22 3.25 z" class="primitive"/>
              </g>
              <g transform="translate(60.27,85.07)" id="img-e35c80cf-126">
                <path d="M-0.22,-3.25 L 0.22 -3.25 0.22 3.25 -0.22 3.25 z" class="primitive"/>
              </g>
              <g transform="translate(60.66,88.33)" id="img-e35c80cf-127">
                <path d="M-0.22,-0 L 0.22 -0 0.22 0 -0.22 0 z" class="primitive"/>
              </g>
              <g transform="translate(61.05,86.7)" id="img-e35c80cf-128">
                <path d="M-0.22,-1.63 L 0.22 -1.63 0.22 1.63 -0.22 1.63 z" class="primitive"/>
              </g>
              <g transform="translate(61.44,86.7)" id="img-e35c80cf-129">
                <path d="M-0.22,-1.63 L 0.22 -1.63 0.22 1.63 -0.22 1.63 z" class="primitive"/>
              </g>
              <g transform="translate(61.83,87.51)" id="img-e35c80cf-130">
                <path d="M-0.22,-0.81 L 0.22 -0.81 0.22 0.81 -0.22 0.81 z" class="primitive"/>
              </g>
              <g transform="translate(62.22,87.51)" id="img-e35c80cf-131">
                <path d="M-0.22,-0.81 L 0.22 -0.81 0.22 0.81 -0.22 0.81 z" class="primitive"/>
              </g>
            </g>
          </g>
        </g>
      </g>
    </g>
  </g>
  <g class="guide ylabels" font-size="2.82" font-family="'PT Sans Caption','Helvetica Neue','Helvetica',sans-serif" fill="#6C606B" id="img-e35c80cf-132">
    <g transform="translate(16.96,88.33)" id="img-e35c80cf-133">
      <g class="primitive">
        <text text-anchor="end" dy="0.35em">0</text>
      </g>
    </g>
    <g transform="translate(16.96,72.06)" id="img-e35c80cf-134">
      <g class="primitive">
        <text text-anchor="end" dy="0.35em">10</text>
      </g>
    </g>
    <g transform="translate(16.96,55.8)" id="img-e35c80cf-135">
      <g class="primitive">
        <text text-anchor="end" dy="0.35em">20</text>
      </g>
    </g>
    <g transform="translate(16.96,39.53)" id="img-e35c80cf-136">
      <g class="primitive">
        <text text-anchor="end" dy="0.35em">30</text>
      </g>
    </g>
    <g transform="translate(16.96,23.27)" id="img-e35c80cf-137">
      <g class="primitive">
        <text text-anchor="end" dy="0.35em">40</text>
      </g>
    </g>
    <g transform="translate(16.96,7)" id="img-e35c80cf-138">
      <g class="primitive">
        <text text-anchor="end" dy="0.35em">50</text>
      </g>
    </g>
  </g>
  <g font-size="3.88" font-family="'PT Sans','Helvetica Neue','Helvetica',sans-serif" fill="#564A55" stroke="#000000" stroke-opacity="0.000" id="img-e35c80cf-139">
    <g transform="translate(8.81,45.66)" id="img-e35c80cf-140">
      <g class="primitive">
        <text text-anchor="middle" dy="0.35em" transform="rotate(-90,0, 2)">frequency</text>
      </g>
    </g>
  </g>
</g>
<defs>
  <clipPath id="img-e35c80cf-11">
    <path d="M17.96,5 L 73.78 5 73.78 90.33 17.96 90.33" />
  </clipPath>
</defs>
</svg>
