<?xml version="1.0" encoding="UTF-8"?>
<svg xmlns="http://www.w3.org/2000/svg"
     xmlns:xlink="http://www.w3.org/1999/xlink"
     xmlns:gadfly="http://www.gadflyjl.org/ns"
     version="1.2"
     width="140mm" height="80mm" viewBox="0 0 140 80"
     stroke="none"
     fill="#000000"
     stroke-width="0.3"
     font-size="3.88"
>
<defs>
  <marker id="arrow" markerWidth="15" markerHeight="7" refX="5" refY="3.5" orient="auto" markerUnits="strokeWidth">
    <path d="M0,0 L15,3.5 L0,7 z" stroke="context-stroke" fill="context-stroke"/>
  </marker>
</defs>
<g class="plotroot xscalable yscalable" id="img-ff23f29e-1">
  <g class="guide xlabels" font-size="2.82" font-family="'PT Sans Caption','Helvetica Neue','Helvetica',sans-serif" fill="#6C606B" id="img-ff23f29e-2">
    <g transform="translate(19.96,71.33)">
      <g class="primitive">
        <text text-anchor="middle" dy="0.6em">13.0</text>
      </g>
    </g>
    <g transform="translate(40.72,71.33)">
      <g class="primitive">
        <text text-anchor="middle" dy="0.6em">13.5</text>
      </g>
    </g>
    <g transform="translate(61.48,71.33)">
      <g class="primitive">
        <text text-anchor="middle" dy="0.6em">14.0</text>
      </g>
    </g>
    <g transform="translate(82.25,71.33)">
      <g class="primitive">
        <text text-anchor="middle" dy="0.6em">14.5</text>
      </g>
    </g>
  </g>
  <g class="guide colorkey" id="img-ff23f29e-3">
    <g class="color_coding_coding_coding_coding_4-clique" id="img-ff23f29e-4">
      <g fill="#4C404B" font-size="2.82" font-family="'PT Sans','Helvetica Neue','Helvetica',sans-serif" id="img-ff23f29e-5">
        <g transform="translate(88.06,39.48)" id="img-ff23f29e-6">
          <g class="primitive">
            <text dy="0.35em">coding_coding_coding_coding_4-clique</text>
          </g>
        </g>
      </g>
      <g fill-opacity="1" fill="#00BFFF" stroke="#FFFFFF" id="img-ff23f29e-7">
        <g transform="translate(86.15,39.48)" id="img-ff23f29e-8">
          <path d="M-0.91,-0.91 L 0.91 -0.91 0.91 0.91 -0.91 0.91 z" class="primitive"/>
        </g>
      </g>
    </g>
    <g fill="#362A35" font-size="3.88" font-family="'PT Sans','Helvetica Neue','Helvetica',sans-serif" stroke="#000000" stroke-opacity="0.000" id="img-ff23f29e-9">
      <g transform="translate(85.25,35.66)" id="img-ff23f29e-10">
        <g class="primitive">
          <text dy="-0em">graphlet</text>
        </g>
      </g>
    </g>
  </g>
  <g clip-path="url(#img-ff23f29e-11)">
    <g id="img-ff23f29e-12">
      <g pointer-events="visible" stroke-width="0.3" fill="#000000" fill-opacity="0.000" stroke="#000000" stroke-opacity="0.000" class="guide background" id="img-ff23f29e-13">
        <g transform="translate(51.1,37.66)" id="img-ff23f29e-14">
          <path d="M-33.14,-32.66 L 33.14 -32.66 33.14 32.66 -33.14 32.66 z" class="primitive"/>
        </g>
      </g>
      <g class="guide ygridlines xfixed" stroke-dasharray="0.5,0.5" stroke-width="0.2" stroke="#D0D0E0" id="img-ff23f29e-15">
        <g transform="translate(51.1,68.33)" id="img-ff23f29e-16">
          <path fill="none" d="M-33.14,0 L 33.14 0" class="primitive"/>
        </g>
        <g transform="translate(51.1,53)" id="img-ff23f29e-17">
          <path fill="none" d="M-33.14,0 L 33.14 0" class="primitive"/>
        </g>
        <g transform="translate(51.1,37.66)" id="img-ff23f29e-18">
          <path fill="none" d="M-33.14,0 L 33.14 0" class="primitive"/>
        </g>
        <g transform="translate(51.1,22.33)" id="img-ff23f29e-19">
          <path fill="none" d="M-33.14,0 L 33.14 0" class="primitive"/>
        </g>
        <g transform="translate(51.1,7)" id="img-ff23f29e-20">
          <path fill="none" d="M-33.14,0 L 33.14 0" class="primitive"/>
        </g>
      </g>
      <g class="guide xgridlines yfixed" stroke-dasharray="0.5,0.5" stroke-width="0.2" stroke="#D0D0E0" id="img-ff23f29e-21">
        <g transform="translate(19.96,37.66)" id="img-ff23f29e-22">
          <path fill="none" d="M0,-32.66 L 0 32.66" class="primitive"/>
        </g>
        <g transform="translate(40.72,37.66)" id="img-ff23f29e-23">
          <path fill="none" d="M0,-32.66 L 0 32.66" class="primitive"/>
        </g>
        <g transform="translate(61.48,37.66)" id="img-ff23f29e-24">
          <path fill="none" d="M0,-32.66 L 0 32.66" class="primitive"/>
        </g>
        <g transform="translate(82.25,37.66)" id="img-ff23f29e-25">
          <path fill="none" d="M0,-32.66 L 0 32.66" class="primitive"/>
        </g>
      </g>
      <g class="plotpanel" id="img-ff23f29e-26">
        <metadata>
          <boundingbox value="17.95833333333333mm 5.0mm 66.28833333333333mm 65.32666666666667mm"/>
          <unitbox value="12.951836887592647 41.30448961843679 1.5963262248147059 -42.60897923687358"/>
        </metadata>
        <g shape-rendering="crispEdges" stroke-width="0.3" id="img-ff23f29e-27">
          <g stroke="#000000" stroke-opacity="0.000" class="geometry" id="img-ff23f29e-28">
            <g fill="#00BFFF" id="img-ff23f29e-29">
              <g transform="translate(20.64,67.56)" id="img-ff23f29e-30">
                <path d="M-0.25,-0.77 L 0.25 -0.77 0.25 0.77 -0.25 0.77 z" class="primitive"/>
              </g>
              <g transform="translate(21.08,68.33)" id="img-ff23f29e-31">
                <path d="M-0.25,-0 L 0.25 -0 0.25 0 -0.25 0 z" class="primitive"/>
              </g>
              <g transform="translate(21.53,68.33)" id="img-ff23f29e-32">
                <path d="M-0.25,-0 L 0.25 -0 0.25 0 -0.25 0 z" class="primitive"/>
              </g>
              <g transform="translate(21.97,68.33)" id="img-ff23f29e-33">
                <path d="M-0.25,-0 L 0.25 -0 0.25 0 -0.25 0 z" class="primitive"/>
              </g>
              <g transform="translate(22.42,67.56)" id="img-ff23f29e-34">
                <path d="M-0.25,-0.77 L 0.25 -0.77 0.25 0.77 -0.25 0.77 z" class="primitive"/>
              </g>
              <g transform="translate(22.86,68.33)" id="img-ff23f29e-35">
                <path d="M-0.25,-0 L 0.25 -0 0.25 0 -0.25 0 z" class="primitive"/>
              </g>
              <g transform="translate(23.3,68.33)" id="img-ff23f29e-36">
                <path d="M-0.25,-0 L 0.25 -0 0.25 0 -0.25 0 z" class="primitive"/>
              </g>
              <g transform="translate(23.75,67.56)" id="img-ff23f29e-37">
                <path d="M-0.25,-0.77 L 0.25 -0.77 0.25 0.77 -0.25 0.77 z" class="primitive"/>
              </g>
              <g transform="translate(24.19,68.33)" id="img-ff23f29e-38">
                <path d="M-0.25,-0 L 0.25 -0 0.25 0 -0.25 0 z" class="primitive"/>
              </g>
              <g transform="translate(24.63,68.33)" id="img-ff23f29e-39">
                <path d="M-0.25,-0 L 0.25 -0 0.25 0 -0.25 0 z" class="primitive"/>
              </g>
              <g transform="translate(25.08,67.56)" id="img-ff23f29e-40">
                <path d="M-0.25,-0.77 L 0.25 -0.77 0.25 0.77 -0.25 0.77 z" class="primitive"/>
              </g>
              <g transform="translate(25.52,67.56)" id="img-ff23f29e-41">
                <path d="M-0.25,-0.77 L 0.25 -0.77 0.25 0.77 -0.25 0.77 z" class="primitive"/>
              </g>
              <g transform="translate(25.97,68.33)" id="img-ff23f29e-42">
                <path d="M-0.25,-0 L 0.25 -0 0.25 0 -0.25 0 z" class="primitive"/>
              </g>
              <g transform="translate(26.41,67.56)" id="img-ff23f29e-43">
                <path d="M-0.25,-0.77 L 0.25 -0.77 0.25 0.77 -0.25 0.77 z" class="primitive"/>
              </g>
              <g transform="translate(26.85,66.03)" id="img-ff23f29e-44">
                <path d="M-0.25,-2.3 L 0.25 -2.3 0.25 2.3 -0.25 2.3 z" class="primitive"/>
              </g>
              <g transform="translate(27.3,66.03)" id="img-ff23f29e-45">
                <path d="M-0.25,-2.3 L 0.25 -2.3 0.25 2.3 -0.25 2.3 z" class="primitive"/>
              </g>
              <g transform="translate(27.74,67.56)" id="img-ff23f29e-46">
                <path d="M-0.25,-0.77 L 0.25 -0.77 0.25 0.77 -0.25 0.77 z" class="primitive"/>
              </g>
              <g transform="translate(28.19,66.79)" id="img-ff23f29e-47">
                <path d="M-0.25,-1.53 L 0.25 -1.53 0.25 1.53 -0.25 1.53 z" class="primitive"/>
              </g>
              <g transform="translate(28.63,64.49)" id="img-ff23f29e-48">
                <path d="M-0.25,-3.83 L 0.25 -3.83 0.25 3.83 -0.25 3.83 z" class="primitive"/>
              </g>
              <g transform="translate(29.07,66.03)" id="img-ff23f29e-49">
                <path d="M-0.25,-2.3 L 0.25 -2.3 0.25 2.3 -0.25 2.3 z" class="primitive"/>
              </g>
              <g transform="translate(29.52,66.03)" id="img-ff23f29e-50">
                <path d="M-0.25,-2.3 L 0.25 -2.3 0.25 2.3 -0.25 2.3 z" class="primitive"/>
              </g>
              <g transform="translate(29.96,63.73)" id="img-ff23f29e-51">
                <path d="M-0.25,-4.6 L 0.25 -4.6 0.25 4.6 -0.25 4.6 z" class="primitive"/>
              </g>
              <g transform="translate(30.41,66.03)" id="img-ff23f29e-52">
                <path d="M-0.25,-2.3 L 0.25 -2.3 0.25 2.3 -0.25 2.3 z" class="primitive"/>
              </g>
              <g transform="translate(30.85,61.43)" id="img-ff23f29e-53">
                <path d="M-0.25,-6.9 L 0.25 -6.9 0.25 6.9 -0.25 6.9 z" class="primitive"/>
              </g>
              <g transform="translate(31.29,62.96)" id="img-ff23f29e-54">
                <path d="M-0.25,-5.37 L 0.25 -5.37 0.25 5.37 -0.25 5.37 z" class="primitive"/>
              </g>
              <g transform="translate(31.74,62.19)" id="img-ff23f29e-55">
                <path d="M-0.25,-6.13 L 0.25 -6.13 0.25 6.13 -0.25 6.13 z" class="primitive"/>
              </g>
              <g transform="translate(32.18,59.89)" id="img-ff23f29e-56">
                <path d="M-0.25,-8.43 L 0.25 -8.43 0.25 8.43 -0.25 8.43 z" class="primitive"/>
              </g>
              <g transform="translate(32.63,62.19)" id="img-ff23f29e-57">
                <path d="M-0.25,-6.13 L 0.25 -6.13 0.25 6.13 -0.25 6.13 z" class="primitive"/>
              </g>
              <g transform="translate(33.07,62.19)" id="img-ff23f29e-58">
                <path d="M-0.25,-6.13 L 0.25 -6.13 0.25 6.13 -0.25 6.13 z" class="primitive"/>
              </g>
              <g transform="translate(33.51,60.66)" id="img-ff23f29e-59">
                <path d="M-0.25,-7.67 L 0.25 -7.67 0.25 7.67 -0.25 7.67 z" class="primitive"/>
              </g>
              <g transform="translate(33.96,61.43)" id="img-ff23f29e-60">
                <path d="M-0.25,-6.9 L 0.25 -6.9 0.25 6.9 -0.25 6.9 z" class="primitive"/>
              </g>
              <g transform="translate(34.4,56.06)" id="img-ff23f29e-61">
                <path d="M-0.25,-12.27 L 0.25 -12.27 0.25 12.27 -0.25 12.27 z" class="primitive"/>
              </g>
              <g transform="translate(34.85,59.13)" id="img-ff23f29e-62">
                <path d="M-0.25,-9.2 L 0.25 -9.2 0.25 9.2 -0.25 9.2 z" class="primitive"/>
              </g>
              <g transform="translate(35.29,59.13)" id="img-ff23f29e-63">
                <path d="M-0.25,-9.2 L 0.25 -9.2 0.25 9.2 -0.25 9.2 z" class="primitive"/>
              </g>
              <g transform="translate(35.73,55.29)" id="img-ff23f29e-64">
                <path d="M-0.25,-13.03 L 0.25 -13.03 0.25 13.03 -0.25 13.03 z" class="primitive"/>
              </g>
              <g transform="translate(36.18,59.89)" id="img-ff23f29e-65">
                <path d="M-0.25,-8.43 L 0.25 -8.43 0.25 8.43 -0.25 8.43 z" class="primitive"/>
              </g>
              <g transform="translate(36.62,55.29)" id="img-ff23f29e-66">
                <path d="M-0.25,-13.03 L 0.25 -13.03 0.25 13.03 -0.25 13.03 z" class="primitive"/>
              </g>
              <g transform="translate(37.06,48.4)" id="img-ff23f29e-67">
                <path d="M-0.25,-19.93 L 0.25 -19.93 0.25 19.93 -0.25 19.93 z" class="primitive"/>
              </g>
              <g transform="translate(37.51,55.29)" id="img-ff23f29e-68">
                <path d="M-0.25,-13.03 L 0.25 -13.03 0.25 13.03 -0.25 13.03 z" class="primitive"/>
              </g>
              <g transform="translate(37.95,51.46)" id="img-ff23f29e-69">
                <path d="M-0.25,-16.86 L 0.25 -16.86 0.25 16.86 -0.25 16.86 z" class="primitive"/>
              </g>
              <g transform="translate(38.4,54.53)" id="img-ff23f29e-70">
                <path d="M-0.25,-13.8 L 0.25 -13.8 0.25 13.8 -0.25 13.8 z" class="primitive"/>
              </g>
              <g transform="translate(38.84,48.4)" id="img-ff23f29e-71">
                <path d="M-0.25,-19.93 L 0.25 -19.93 0.25 19.93 -0.25 19.93 z" class="primitive"/>
              </g>
              <g transform="translate(39.28,46.1)" id="img-ff23f29e-72">
                <path d="M-0.25,-22.23 L 0.25 -22.23 0.25 22.23 -0.25 22.23 z" class="primitive"/>
              </g>
              <g transform="translate(39.73,52.23)" id="img-ff23f29e-73">
                <path d="M-0.25,-16.1 L 0.25 -16.1 0.25 16.1 -0.25 16.1 z" class="primitive"/>
              </g>
              <g transform="translate(40.17,54.53)" id="img-ff23f29e-74">
                <path d="M-0.25,-13.8 L 0.25 -13.8 0.25 13.8 -0.25 13.8 z" class="primitive"/>
              </g>
              <g transform="translate(40.62,53)" id="img-ff23f29e-75">
                <path d="M-0.25,-15.33 L 0.25 -15.33 0.25 15.33 -0.25 15.33 z" class="primitive"/>
              </g>
              <g transform="translate(41.06,41.5)" id="img-ff23f29e-76">
                <path d="M-0.25,-26.83 L 0.25 -26.83 0.25 26.83 -0.25 26.83 z" class="primitive"/>
              </g>
              <g transform="translate(41.5,52.23)" id="img-ff23f29e-77">
                <path d="M-0.25,-16.1 L 0.25 -16.1 0.25 16.1 -0.25 16.1 z" class="primitive"/>
              </g>
              <g transform="translate(41.95,49.16)" id="img-ff23f29e-78">
                <path d="M-0.25,-19.16 L 0.25 -19.16 0.25 19.16 -0.25 19.16 z" class="primitive"/>
              </g>
              <g transform="translate(42.39,50.7)" id="img-ff23f29e-79">
                <path d="M-0.25,-17.63 L 0.25 -17.63 0.25 17.63 -0.25 17.63 z" class="primitive"/>
              </g>
              <g transform="translate(42.84,49.93)" id="img-ff23f29e-80">
                <path d="M-0.25,-18.4 L 0.25 -18.4 0.25 18.4 -0.25 18.4 z" class="primitive"/>
              </g>
              <g transform="translate(43.28,53.76)" id="img-ff23f29e-81">
                <path d="M-0.25,-14.57 L 0.25 -14.57 0.25 14.57 -0.25 14.57 z" class="primitive"/>
              </g>
              <g transform="translate(43.72,51.46)" id="img-ff23f29e-82">
                <path d="M-0.25,-16.86 L 0.25 -16.86 0.25 16.86 -0.25 16.86 z" class="primitive"/>
              </g>
              <g transform="translate(44.17,46.1)" id="img-ff23f29e-83">
                <path d="M-0.25,-22.23 L 0.25 -22.23 0.25 22.23 -0.25 22.23 z" class="primitive"/>
              </g>
              <g transform="translate(44.61,53)" id="img-ff23f29e-84">
                <path d="M-0.25,-15.33 L 0.25 -15.33 0.25 15.33 -0.25 15.33 z" class="primitive"/>
              </g>
              <g transform="translate(45.06,39.96)" id="img-ff23f29e-85">
                <path d="M-0.25,-28.36 L 0.25 -28.36 0.25 28.36 -0.25 28.36 z" class="primitive"/>
              </g>
              <g transform="translate(45.5,47.63)" id="img-ff23f29e-86">
                <path d="M-0.25,-20.7 L 0.25 -20.7 0.25 20.7 -0.25 20.7 z" class="primitive"/>
              </g>
              <g transform="translate(45.94,56.06)" id="img-ff23f29e-87">
                <path d="M-0.25,-12.27 L 0.25 -12.27 0.25 12.27 -0.25 12.27 z" class="primitive"/>
              </g>
              <g transform="translate(46.39,47.63)" id="img-ff23f29e-88">
                <path d="M-0.25,-20.7 L 0.25 -20.7 0.25 20.7 -0.25 20.7 z" class="primitive"/>
              </g>
              <g transform="translate(46.83,54.53)" id="img-ff23f29e-89">
                <path d="M-0.25,-13.8 L 0.25 -13.8 0.25 13.8 -0.25 13.8 z" class="primitive"/>
              </g>
              <g transform="translate(47.27,53)" id="img-ff23f29e-90">
                <path d="M-0.25,-15.33 L 0.25 -15.33 0.25 15.33 -0.25 15.33 z" class="primitive"/>
              </g>
              <g transform="translate(47.72,52.23)" id="img-ff23f29e-91">
                <path d="M-0.25,-16.1 L 0.25 -16.1 0.25 16.1 -0.25 16.1 z" class="primitive"/>
              </g>
              <g transform="translate(48.16,54.53)" id="img-ff23f29e-92">
                <path d="M-0.25,-13.8 L 0.25 -13.8 0.25 13.8 -0.25 13.8 z" class="primitive"/>
              </g>
              <g transform="translate(48.61,53)" id="img-ff23f29e-93">
                <path d="M-0.25,-15.33 L 0.25 -15.33 0.25 15.33 -0.25 15.33 z" class="primitive"/>
              </g>
              <g transform="translate(49.05,51.46)" id="img-ff23f29e-94">
                <path d="M-0.25,-16.86 L 0.25 -16.86 0.25 16.86 -0.25 16.86 z" class="primitive"/>
              </g>
              <g transform="translate(49.49,57.59)" id="img-ff23f29e-95">
                <path d="M-0.25,-10.73 L 0.25 -10.73 0.25 10.73 -0.25 10.73 z" class="primitive"/>
              </g>
              <g transform="translate(49.94,53.76)" id="img-ff23f29e-96">
                <path d="M-0.25,-14.57 L 0.25 -14.57 0.25 14.57 -0.25 14.57 z" class="primitive"/>
              </g>
              <g transform="translate(50.38,58.36)" id="img-ff23f29e-97">
                <path d="M-0.25,-9.97 L 0.25 -9.97 0.25 9.97 -0.25 9.97 z" class="primitive"/>
              </g>
              <g transform="translate(50.83,60.66)" id="img-ff23f29e-98">
                <path d="M-0.25,-7.67 L 0.25 -7.67 0.25 7.67 -0.25 7.67 z" class="primitive"/>
              </g>
              <g transform="translate(51.27,59.13)" id="img-ff23f29e-99">
                <path d="M-0.25,-9.2 L 0.25 -9.2 0.25 9.2 -0.25 9.2 z" class="primitive"/>
              </g>
              <g transform="translate(51.71,63.73)" id="img-ff23f29e-100">
                <path d="M-0.25,-4.6 L 0.25 -4.6 0.25 4.6 -0.25 4.6 z" class="primitive"/>
              </g>
              <g transform="translate(52.16,59.89)" id="img-ff23f29e-101">
                <path d="M-0.25,-8.43 L 0.25 -8.43 0.25 8.43 -0.25 8.43 z" class="primitive"/>
              </g>
              <g transform="translate(52.6,56.83)" id="img-ff23f29e-102">
                <path d="M-0.25,-11.5 L 0.25 -11.5 0.25 11.5 -0.25 11.5 z" class="primitive"/>
              </g>
              <g transform="translate(53.05,61.43)" id="img-ff23f29e-103">
                <path d="M-0.25,-6.9 L 0.25 -6.9 0.25 6.9 -0.25 6.9 z" class="primitive"/>
              </g>
              <g transform="translate(53.49,62.96)" id="img-ff23f29e-104">
                <path d="M-0.25,-5.37 L 0.25 -5.37 0.25 5.37 -0.25 5.37 z" class="primitive"/>
              </g>
              <g transform="translate(53.93,60.66)" id="img-ff23f29e-105">
                <path d="M-0.25,-7.67 L 0.25 -7.67 0.25 7.67 -0.25 7.67 z" class="primitive"/>
              </g>
              <g transform="translate(54.38,65.26)" id="img-ff23f29e-106">
                <path d="M-0.25,-3.07 L 0.25 -3.07 0.25 3.07 -0.25 3.07 z" class="primitive"/>
              </g>
              <g transform="translate(54.82,65.26)" id="img-ff23f29e-107">
                <path d="M-0.25,-3.07 L 0.25 -3.07 0.25 3.07 -0.25 3.07 z" class="primitive"/>
              </g>
              <g transform="translate(55.27,62.96)" id="img-ff23f29e-108">
                <path d="M-0.25,-5.37 L 0.25 -5.37 0.25 5.37 -0.25 5.37 z" class="primitive"/>
              </g>
              <g transform="translate(55.71,63.73)" id="img-ff23f29e-109">
                <path d="M-0.25,-4.6 L 0.25 -4.6 0.25 4.6 -0.25 4.6 z" class="primitive"/>
              </g>
              <g transform="translate(56.15,66.03)" id="img-ff23f29e-110">
                <path d="M-0.25,-2.3 L 0.25 -2.3 0.25 2.3 -0.25 2.3 z" class="primitive"/>
              </g>
              <g transform="translate(56.6,67.56)" id="img-ff23f29e-111">
                <path d="M-0.25,-0.77 L 0.25 -0.77 0.25 0.77 -0.25 0.77 z" class="primitive"/>
              </g>
              <g transform="translate(57.04,68.33)" id="img-ff23f29e-112">
                <path d="M-0.25,-0 L 0.25 -0 0.25 0 -0.25 0 z" class="primitive"/>
              </g>
              <g transform="translate(57.48,66.79)" id="img-ff23f29e-113">
                <path d="M-0.25,-1.53 L 0.25 -1.53 0.25 1.53 -0.25 1.53 z" class="primitive"/>
              </g>
              <g transform="translate(57.93,66.79)" id="img-ff23f29e-114">
                <path d="M-0.25,-1.53 L 0.25 -1.53 0.25 1.53 -0.25 1.53 z" class="primitive"/>
              </g>
              <g transform="translate(58.37,66.79)" id="img-ff23f29e-115">
                <path d="M-0.25,-1.53 L 0.25 -1.53 0.25 1.53 -0.25 1.53 z" class="primitive"/>
              </g>
              <g transform="translate(58.82,68.33)" id="img-ff23f29e-116">
                <path d="M-0.25,-0 L 0.25 -0 0.25 0 -0.25 0 z" class="primitive"/>
              </g>
              <g transform="translate(59.26,67.56)" id="img-ff23f29e-117">
                <path d="M-0.25,-0.77 L 0.25 -0.77 0.25 0.77 -0.25 0.77 z" class="primitive"/>
              </g>
              <g transform="translate(59.7,67.56)" id="img-ff23f29e-118">
                <path d="M-0.25,-0.77 L 0.25 -0.77 0.25 0.77 -0.25 0.77 z" class="primitive"/>
              </g>
              <g transform="translate(60.15,68.33)" id="img-ff23f29e-119">
                <path d="M-0.25,-0 L 0.25 -0 0.25 0 -0.25 0 z" class="primitive"/>
              </g>
              <g transform="translate(60.59,63.73)" id="img-ff23f29e-120">
                <path d="M-0.25,-4.6 L 0.25 -4.6 0.25 4.6 -0.25 4.6 z" class="primitive"/>
              </g>
              <g transform="translate(61.04,67.56)" id="img-ff23f29e-121">
                <path d="M-0.25,-0.77 L 0.25 -0.77 0.25 0.77 -0.25 0.77 z" class="primitive"/>
              </g>
              <g transform="translate(61.48,68.33)" id="img-ff23f29e-122">
                <path d="M-0.25,-0 L 0.25 -0 0.25 0 -0.25 0 z" class="primitive"/>
              </g>
              <g transform="translate(61.92,68.33)" id="img-ff23f29e-123">
                <path d="M-0.25,-0 L 0.25 -0 0.25 0 -0.25 0 z" class="primitive"/>
              </g>
              <g transform="translate(62.37,68.33)" id="img-ff23f29e-124">
                <path d="M-0.25,-0 L 0.25 -0 0.25 0 -0.25 0 z" class="primitive"/>
              </g>
              <g transform="translate(62.81,67.56)" id="img-ff23f29e-125">
                <path d="M-0.25,-0.77 L 0.25 -0.77 0.25 0.77 -0.25 0.77 z" class="primitive"/>
              </g>
              <g transform="translate(63.26,68.33)" id="img-ff23f29e-126">
                <path d="M-0.25,-0 L 0.25 -0 0.25 0 -0.25 0 z" class="primitive"/>
              </g>
              <g transform="translate(63.7,67.56)" id="img-ff23f29e-127">
                <path d="M-0.25,-0.77 L 0.25 -0.77 0.25 0.77 -0.25 0.77 z" class="primitive"/>
              </g>
              <g transform="translate(64.14,68.33)" id="img-ff23f29e-128">
                <path d="M-0.25,-0 L 0.25 -0 0.25 0 -0.25 0 z" class="primitive"/>
              </g>
              <g transform="translate(64.59,67.56)" id="img-ff23f29e-129">
                <path d="M-0.25,-0.77 L 0.25 -0.77 0.25 0.77 -0.25 0.77 z" class="primitive"/>
              </g>
            </g>
          </g>
        </g>
      </g>
    </g>
  </g>
  <g class="guide ylabels" font-size="2.82" font-family="'PT Sans Caption','Helvetica Neue','Helvetica',sans-serif" fill="#6C606B" id="img-ff23f29e-130">
    <g transform="translate(16.96,68.33)" id="img-ff23f29e-131">
      <g class="primitive">
        <text text-anchor="end" dy="0.35em">0</text>
      </g>
    </g>
    <g transform="translate(16.96,53)" id="img-ff23f29e-132">
      <g class="primitive">
        <text text-anchor="end" dy="0.35em">10</text>
      </g>
    </g>
    <g transform="translate(16.96,37.66)" id="img-ff23f29e-133">
      <g class="primitive">
        <text text-anchor="end" dy="0.35em">20</text>
      </g>
    </g>
    <g transform="translate(16.96,22.33)" id="img-ff23f29e-134">
      <g class="primitive">
        <text text-anchor="end" dy="0.35em">30</text>
      </g>
    </g>
    <g transform="translate(16.96,7)" id="img-ff23f29e-135">
      <g class="primitive">
        <text text-anchor="end" dy="0.35em">40</text>
      </g>
    </g>
  </g>
  <g font-size="3.88" font-family="'PT Sans','Helvetica Neue','Helvetica',sans-serif" fill="#564A55" stroke="#000000" stroke-opacity="0.000" id="img-ff23f29e-136">
    <g transform="translate(8.81,35.66)" id="img-ff23f29e-137">
      <g class="primitive">
        <text text-anchor="middle" dy="0.35em" transform="rotate(-90,0, 2)">frequency</text>
      </g>
    </g>
  </g>
</g>
<defs>
  <clipPath id="img-ff23f29e-11">
    <path d="M17.96,5 L 84.25 5 84.25 70.33 17.96 70.33" />
  </clipPath>
</defs>
</svg>
