<?xml version="1.0" encoding="UTF-8"?>
<svg xmlns="http://www.w3.org/2000/svg"
     xmlns:xlink="http://www.w3.org/1999/xlink"
     xmlns:gadfly="http://www.gadflyjl.org/ns"
     version="1.2"
     width="141.42mm" height="100mm" viewBox="0 0 141.42 100"
     stroke="none"
     fill="#000000"
     stroke-width="0.3"
     font-size="3.88"
>
<defs>
  <marker id="arrow" markerWidth="15" markerHeight="7" refX="5" refY="3.5" orient="auto" markerUnits="strokeWidth">
    <path d="M0,0 L15,3.5 L0,7 z" stroke="context-stroke" fill="context-stroke"/>
  </marker>
</defs>
<g class="plotroot xscalable yscalable" id="img-2a6e1324-1">
  <g class="guide xlabels" font-size="2.82" font-family="'PT Sans Caption','Helvetica Neue','Helvetica',sans-serif" fill="#6C606B" id="img-2a6e1324-2">
    <g transform="translate(19.96,78.54)">
      <g class="primitive">
        <text text-anchor="end" dy="0.35em" transform="rotate(-90,0, 0)">1.350×10⁵</text>
      </g>
    </g>
    <g transform="translate(31.88,78.54)">
      <g class="primitive">
        <text text-anchor="end" dy="0.35em" transform="rotate(-90,0, 0)">1.400×10⁵</text>
      </g>
    </g>
    <g transform="translate(43.81,78.54)">
      <g class="primitive">
        <text text-anchor="end" dy="0.35em" transform="rotate(-90,0, 0)">1.450×10⁵</text>
      </g>
    </g>
    <g transform="translate(55.74,78.54)">
      <g class="primitive">
        <text text-anchor="end" dy="0.35em" transform="rotate(-90,0, 0)">1.500×10⁵</text>
      </g>
    </g>
    <g transform="translate(67.66,78.54)">
      <g class="primitive">
        <text text-anchor="end" dy="0.35em" transform="rotate(-90,0, 0)">1.550×10⁵</text>
      </g>
    </g>
    <g transform="translate(79.59,78.54)">
      <g class="primitive">
        <text text-anchor="end" dy="0.35em" transform="rotate(-90,0, 0)">1.600×10⁵</text>
      </g>
    </g>
  </g>
  <g class="guide colorkey" id="img-2a6e1324-3">
    <g class="color_coding_coding_noncoding_coding_4-chord" id="img-2a6e1324-4">
      <g fill="#4C404B" font-size="2.82" font-family="'PT Sans','Helvetica Neue','Helvetica',sans-serif" id="img-2a6e1324-5">
        <g transform="translate(85.4,43.08)" id="img-2a6e1324-6">
          <g class="primitive">
            <text dy="0.35em">coding_coding_noncoding_coding_4-chord</text>
          </g>
        </g>
      </g>
      <g fill-opacity="1" fill="#00BFFF" stroke="#FFFFFF" id="img-2a6e1324-7">
        <g transform="translate(83.49,43.08)" id="img-2a6e1324-8">
          <path d="M-0.91,-0.91 L0.91,-0.91 0.91,0.91 -0.91,0.91  z" class="primitive"/>
        </g>
      </g>
    </g>
    <g fill="#362A35" font-size="3.88" font-family="'PT Sans','Helvetica Neue','Helvetica',sans-serif" stroke="#000000" stroke-opacity="0.000" id="img-2a6e1324-9">
      <g transform="translate(82.59,39.26)" id="img-2a6e1324-10">
        <g class="primitive">
          <text dy="-0em">graphlet</text>
        </g>
      </g>
    </g>
  </g>
  <g clip-path="url(#img-2a6e1324-11)">
    <g id="img-2a6e1324-12">
      <g pointer-events="visible" stroke-width="0.3" fill="#000000" fill-opacity="0.000" stroke="#000000" stroke-opacity="0.000" class="guide background" id="img-2a6e1324-13">
        <g transform="translate(49.77,41.27)" id="img-2a6e1324-14">
          <path d="M-31.81,-36.27 L31.81,-36.27 31.81,36.27 -31.81,36.27  z" class="primitive"/>
        </g>
      </g>
      <g class="guide ygridlines xfixed" stroke-dasharray="0.5,0.5" stroke-width="0.2" stroke="#D0D0E0" id="img-2a6e1324-15">
        <g transform="translate(49.77,75.54)" id="img-2a6e1324-16">
          <path fill="none" d="M-31.81,0 L31.81,0 " class="primitive"/>
        </g>
        <g transform="translate(49.77,58.41)" id="img-2a6e1324-17">
          <path fill="none" d="M-31.81,0 L31.81,0 " class="primitive"/>
        </g>
        <g transform="translate(49.77,41.27)" id="img-2a6e1324-18">
          <path fill="none" d="M-31.81,0 L31.81,0 " class="primitive"/>
        </g>
        <g transform="translate(49.77,24.14)" id="img-2a6e1324-19">
          <path fill="none" d="M-31.81,0 L31.81,0 " class="primitive"/>
        </g>
        <g transform="translate(49.77,7)" id="img-2a6e1324-20">
          <path fill="none" d="M-31.81,0 L31.81,0 " class="primitive"/>
        </g>
      </g>
      <g class="guide xgridlines yfixed" stroke-dasharray="0.5,0.5" stroke-width="0.2" stroke="#D0D0E0" id="img-2a6e1324-21">
        <g transform="translate(19.96,41.27)" id="img-2a6e1324-22">
          <path fill="none" d="M0,-36.27 L0,36.27 " class="primitive"/>
        </g>
        <g transform="translate(31.88,41.27)" id="img-2a6e1324-23">
          <path fill="none" d="M0,-36.27 L0,36.27 " class="primitive"/>
        </g>
        <g transform="translate(43.81,41.27)" id="img-2a6e1324-24">
          <path fill="none" d="M0,-36.27 L0,36.27 " class="primitive"/>
        </g>
        <g transform="translate(55.74,41.27)" id="img-2a6e1324-25">
          <path fill="none" d="M0,-36.27 L0,36.27 " class="primitive"/>
        </g>
        <g transform="translate(67.66,41.27)" id="img-2a6e1324-26">
          <path fill="none" d="M0,-36.27 L0,36.27 " class="primitive"/>
        </g>
        <g transform="translate(79.59,41.27)" id="img-2a6e1324-27">
          <path fill="none" d="M0,-36.27 L0,36.27 " class="primitive"/>
        </g>
      </g>
      <g class="plotpanel" id="img-2a6e1324-28">
        <metadata>
          <boundingbox value="17.958333333333336mm 5.0mm 63.629689570642846mm 72.54mm"/>
          <unitbox value="134161.49152611694 41.16720163408229 26677.016947766107 -42.33440326816457"/>
        </metadata>
        <g shape-rendering="crispEdges" stroke-width="0.3" id="img-2a6e1324-29">
          <g stroke="#000000" stroke-opacity="0.000" class="geometry" id="img-2a6e1324-30">
            <g fill="#00BFFF" id="img-2a6e1324-31">
              <g transform="translate(30.32,73.83)" id="img-2a6e1324-32">
                <path d="M-0.22,-1.71 L0.22,-1.71 0.22,1.71 -0.22,1.71  z" class="primitive"/>
              </g>
              <g transform="translate(30.71,74.68)" id="img-2a6e1324-33">
                <path d="M-0.22,-0.86 L0.22,-0.86 0.22,0.86 -0.22,0.86  z" class="primitive"/>
              </g>
              <g transform="translate(31.1,75.55)" id="img-2a6e1324-34">
                <path d="M-0.22,-0 L0.22,-0 0.22,0 -0.22,0  z" class="primitive"/>
              </g>
              <g transform="translate(31.49,74.68)" id="img-2a6e1324-35">
                <path d="M-0.22,-0.86 L0.22,-0.86 0.22,0.86 -0.22,0.86  z" class="primitive"/>
              </g>
              <g transform="translate(31.88,75.55)" id="img-2a6e1324-36">
                <path d="M-0.22,-0 L0.22,-0 0.22,0 -0.22,0  z" class="primitive"/>
              </g>
              <g transform="translate(32.27,74.68)" id="img-2a6e1324-37">
                <path d="M-0.22,-0.86 L0.22,-0.86 0.22,0.86 -0.22,0.86  z" class="primitive"/>
              </g>
              <g transform="translate(32.66,73.83)" id="img-2a6e1324-38">
                <path d="M-0.22,-1.71 L0.22,-1.71 0.22,1.71 -0.22,1.71  z" class="primitive"/>
              </g>
              <g transform="translate(33.06,74.68)" id="img-2a6e1324-39">
                <path d="M-0.22,-0.86 L0.22,-0.86 0.22,0.86 -0.22,0.86  z" class="primitive"/>
              </g>
              <g transform="translate(33.45,74.68)" id="img-2a6e1324-40">
                <path d="M-0.22,-0.86 L0.22,-0.86 0.22,0.86 -0.22,0.86  z" class="primitive"/>
              </g>
              <g transform="translate(33.84,75.55)" id="img-2a6e1324-41">
                <path d="M-0.22,-0 L0.22,-0 0.22,0 -0.22,0  z" class="primitive"/>
              </g>
              <g transform="translate(34.23,74.68)" id="img-2a6e1324-42">
                <path d="M-0.22,-0.86 L0.22,-0.86 0.22,0.86 -0.22,0.86  z" class="primitive"/>
              </g>
              <g transform="translate(34.62,75.55)" id="img-2a6e1324-43">
                <path d="M-0.22,-0 L0.22,-0 0.22,0 -0.22,0  z" class="primitive"/>
              </g>
              <g transform="translate(35.01,72.97)" id="img-2a6e1324-44">
                <path d="M-0.22,-2.57 L0.22,-2.57 0.22,2.57 -0.22,2.57  z" class="primitive"/>
              </g>
              <g transform="translate(35.41,72.97)" id="img-2a6e1324-45">
                <path d="M-0.22,-2.57 L0.22,-2.57 0.22,2.57 -0.22,2.57  z" class="primitive"/>
              </g>
              <g transform="translate(35.8,74.68)" id="img-2a6e1324-46">
                <path d="M-0.22,-0.86 L0.22,-0.86 0.22,0.86 -0.22,0.86  z" class="primitive"/>
              </g>
              <g transform="translate(36.19,72.97)" id="img-2a6e1324-47">
                <path d="M-0.22,-2.57 L0.22,-2.57 0.22,2.57 -0.22,2.57  z" class="primitive"/>
              </g>
              <g transform="translate(36.58,74.68)" id="img-2a6e1324-48">
                <path d="M-0.22,-0.86 L0.22,-0.86 0.22,0.86 -0.22,0.86  z" class="primitive"/>
              </g>
              <g transform="translate(36.97,72.11)" id="img-2a6e1324-49">
                <path d="M-0.22,-3.43 L0.22,-3.43 0.22,3.43 -0.22,3.43  z" class="primitive"/>
              </g>
              <g transform="translate(37.36,72.11)" id="img-2a6e1324-50">
                <path d="M-0.22,-3.43 L0.22,-3.43 0.22,3.43 -0.22,3.43  z" class="primitive"/>
              </g>
              <g transform="translate(37.76,70.4)" id="img-2a6e1324-51">
                <path d="M-0.22,-5.14 L0.22,-5.14 0.22,5.14 -0.22,5.14  z" class="primitive"/>
              </g>
              <g transform="translate(38.15,70.4)" id="img-2a6e1324-52">
                <path d="M-0.22,-5.14 L0.22,-5.14 0.22,5.14 -0.22,5.14  z" class="primitive"/>
              </g>
              <g transform="translate(38.54,70.4)" id="img-2a6e1324-53">
                <path d="M-0.22,-5.14 L0.22,-5.14 0.22,5.14 -0.22,5.14  z" class="primitive"/>
              </g>
              <g transform="translate(38.93,65.26)" id="img-2a6e1324-54">
                <path d="M-0.22,-10.28 L0.22,-10.28 0.22,10.28 -0.22,10.28  z" class="primitive"/>
              </g>
              <g transform="translate(39.32,65.26)" id="img-2a6e1324-55">
                <path d="M-0.22,-10.28 L0.22,-10.28 0.22,10.28 -0.22,10.28  z" class="primitive"/>
              </g>
              <g transform="translate(39.71,69.54)" id="img-2a6e1324-56">
                <path d="M-0.22,-6 L0.22,-6 0.22,6 -0.22,6  z" class="primitive"/>
              </g>
              <g transform="translate(40.11,68.69)" id="img-2a6e1324-57">
                <path d="M-0.22,-6.85 L0.22,-6.85 0.22,6.85 -0.22,6.85  z" class="primitive"/>
              </g>
              <g transform="translate(40.5,69.54)" id="img-2a6e1324-58">
                <path d="M-0.22,-6 L0.22,-6 0.22,6 -0.22,6  z" class="primitive"/>
              </g>
              <g transform="translate(40.89,69.54)" id="img-2a6e1324-59">
                <path d="M-0.22,-6 L0.22,-6 0.22,6 -0.22,6  z" class="primitive"/>
              </g>
              <g transform="translate(41.28,67.83)" id="img-2a6e1324-60">
                <path d="M-0.22,-7.71 L0.22,-7.71 0.22,7.71 -0.22,7.71  z" class="primitive"/>
              </g>
              <g transform="translate(41.67,70.4)" id="img-2a6e1324-61">
                <path d="M-0.22,-5.14 L0.22,-5.14 0.22,5.14 -0.22,5.14  z" class="primitive"/>
              </g>
              <g transform="translate(42.06,67.83)" id="img-2a6e1324-62">
                <path d="M-0.22,-7.71 L0.22,-7.71 0.22,7.71 -0.22,7.71  z" class="primitive"/>
              </g>
              <g transform="translate(42.46,70.4)" id="img-2a6e1324-63">
                <path d="M-0.22,-5.14 L0.22,-5.14 0.22,5.14 -0.22,5.14  z" class="primitive"/>
              </g>
              <g transform="translate(42.85,66.12)" id="img-2a6e1324-64">
                <path d="M-0.22,-9.42 L0.22,-9.42 0.22,9.42 -0.22,9.42  z" class="primitive"/>
              </g>
              <g transform="translate(43.24,66.12)" id="img-2a6e1324-65">
                <path d="M-0.22,-9.42 L0.22,-9.42 0.22,9.42 -0.22,9.42  z" class="primitive"/>
              </g>
              <g transform="translate(43.63,59.26)" id="img-2a6e1324-66">
                <path d="M-0.22,-16.28 L0.22,-16.28 0.22,16.28 -0.22,16.28  z" class="primitive"/>
              </g>
              <g transform="translate(44.02,62.69)" id="img-2a6e1324-67">
                <path d="M-0.22,-12.85 L0.22,-12.85 0.22,12.85 -0.22,12.85  z" class="primitive"/>
              </g>
              <g transform="translate(44.41,60.12)" id="img-2a6e1324-68">
                <path d="M-0.22,-15.42 L0.22,-15.42 0.22,15.42 -0.22,15.42  z" class="primitive"/>
              </g>
              <g transform="translate(44.81,64.4)" id="img-2a6e1324-69">
                <path d="M-0.22,-11.14 L0.22,-11.14 0.22,11.14 -0.22,11.14  z" class="primitive"/>
              </g>
              <g transform="translate(45.2,64.4)" id="img-2a6e1324-70">
                <path d="M-0.22,-11.14 L0.22,-11.14 0.22,11.14 -0.22,11.14  z" class="primitive"/>
              </g>
              <g transform="translate(45.59,48.12)" id="img-2a6e1324-71">
                <path d="M-0.22,-27.42 L0.22,-27.42 0.22,27.42 -0.22,27.42  z" class="primitive"/>
              </g>
              <g transform="translate(45.98,53.26)" id="img-2a6e1324-72">
                <path d="M-0.22,-22.28 L0.22,-22.28 0.22,22.28 -0.22,22.28  z" class="primitive"/>
              </g>
              <g transform="translate(46.37,57.55)" id="img-2a6e1324-73">
                <path d="M-0.22,-17.99 L0.22,-17.99 0.22,17.99 -0.22,17.99  z" class="primitive"/>
              </g>
              <g transform="translate(46.76,63.55)" id="img-2a6e1324-74">
                <path d="M-0.22,-11.99 L0.22,-11.99 0.22,11.99 -0.22,11.99  z" class="primitive"/>
              </g>
              <g transform="translate(47.16,58.41)" id="img-2a6e1324-75">
                <path d="M-0.22,-17.14 L0.22,-17.14 0.22,17.14 -0.22,17.14  z" class="primitive"/>
              </g>
              <g transform="translate(47.55,60.98)" id="img-2a6e1324-76">
                <path d="M-0.22,-14.56 L0.22,-14.56 0.22,14.56 -0.22,14.56  z" class="primitive"/>
              </g>
              <g transform="translate(47.94,59.26)" id="img-2a6e1324-77">
                <path d="M-0.22,-16.28 L0.22,-16.28 0.22,16.28 -0.22,16.28  z" class="primitive"/>
              </g>
              <g transform="translate(48.33,56.69)" id="img-2a6e1324-78">
                <path d="M-0.22,-18.85 L0.22,-18.85 0.22,18.85 -0.22,18.85  z" class="primitive"/>
              </g>
              <g transform="translate(48.72,60.98)" id="img-2a6e1324-79">
                <path d="M-0.22,-14.56 L0.22,-14.56 0.22,14.56 -0.22,14.56  z" class="primitive"/>
              </g>
              <g transform="translate(49.11,53.26)" id="img-2a6e1324-80">
                <path d="M-0.22,-22.28 L0.22,-22.28 0.22,22.28 -0.22,22.28  z" class="primitive"/>
              </g>
              <g transform="translate(49.51,60.98)" id="img-2a6e1324-81">
                <path d="M-0.22,-14.56 L0.22,-14.56 0.22,14.56 -0.22,14.56  z" class="primitive"/>
              </g>
              <g transform="translate(49.9,58.41)" id="img-2a6e1324-82">
                <path d="M-0.22,-17.14 L0.22,-17.14 0.22,17.14 -0.22,17.14  z" class="primitive"/>
              </g>
              <g transform="translate(50.29,51.55)" id="img-2a6e1324-83">
                <path d="M-0.22,-23.99 L0.22,-23.99 0.22,23.99 -0.22,23.99  z" class="primitive"/>
              </g>
              <g transform="translate(50.68,57.55)" id="img-2a6e1324-84">
                <path d="M-0.22,-17.99 L0.22,-17.99 0.22,17.99 -0.22,17.99  z" class="primitive"/>
              </g>
              <g transform="translate(51.07,48.98)" id="img-2a6e1324-85">
                <path d="M-0.22,-26.56 L0.22,-26.56 0.22,26.56 -0.22,26.56  z" class="primitive"/>
              </g>
              <g transform="translate(51.46,49.84)" id="img-2a6e1324-86">
                <path d="M-0.22,-25.7 L0.22,-25.7 0.22,25.7 -0.22,25.7  z" class="primitive"/>
              </g>
              <g transform="translate(51.86,51.55)" id="img-2a6e1324-87">
                <path d="M-0.22,-23.99 L0.22,-23.99 0.22,23.99 -0.22,23.99  z" class="primitive"/>
              </g>
              <g transform="translate(52.25,56.69)" id="img-2a6e1324-88">
                <path d="M-0.22,-18.85 L0.22,-18.85 0.22,18.85 -0.22,18.85  z" class="primitive"/>
              </g>
              <g transform="translate(52.64,51.55)" id="img-2a6e1324-89">
                <path d="M-0.22,-23.99 L0.22,-23.99 0.22,23.99 -0.22,23.99  z" class="primitive"/>
              </g>
              <g transform="translate(53.03,53.26)" id="img-2a6e1324-90">
                <path d="M-0.22,-22.28 L0.22,-22.28 0.22,22.28 -0.22,22.28  z" class="primitive"/>
              </g>
              <g transform="translate(53.42,63.55)" id="img-2a6e1324-91">
                <path d="M-0.22,-11.99 L0.22,-11.99 0.22,11.99 -0.22,11.99  z" class="primitive"/>
              </g>
              <g transform="translate(53.81,52.41)" id="img-2a6e1324-92">
                <path d="M-0.22,-23.13 L0.22,-23.13 0.22,23.13 -0.22,23.13  z" class="primitive"/>
              </g>
              <g transform="translate(54.21,59.26)" id="img-2a6e1324-93">
                <path d="M-0.22,-16.28 L0.22,-16.28 0.22,16.28 -0.22,16.28  z" class="primitive"/>
              </g>
              <g transform="translate(54.6,60.12)" id="img-2a6e1324-94">
                <path d="M-0.22,-15.42 L0.22,-15.42 0.22,15.42 -0.22,15.42  z" class="primitive"/>
              </g>
              <g transform="translate(54.99,65.26)" id="img-2a6e1324-95">
                <path d="M-0.22,-10.28 L0.22,-10.28 0.22,10.28 -0.22,10.28  z" class="primitive"/>
              </g>
              <g transform="translate(55.38,58.41)" id="img-2a6e1324-96">
                <path d="M-0.22,-17.14 L0.22,-17.14 0.22,17.14 -0.22,17.14  z" class="primitive"/>
              </g>
              <g transform="translate(55.77,61.83)" id="img-2a6e1324-97">
                <path d="M-0.22,-13.71 L0.22,-13.71 0.22,13.71 -0.22,13.71  z" class="primitive"/>
              </g>
              <g transform="translate(56.16,66.97)" id="img-2a6e1324-98">
                <path d="M-0.22,-8.57 L0.22,-8.57 0.22,8.57 -0.22,8.57  z" class="primitive"/>
              </g>
              <g transform="translate(56.56,66.12)" id="img-2a6e1324-99">
                <path d="M-0.22,-9.42 L0.22,-9.42 0.22,9.42 -0.22,9.42  z" class="primitive"/>
              </g>
              <g transform="translate(56.95,69.54)" id="img-2a6e1324-100">
                <path d="M-0.22,-6 L0.22,-6 0.22,6 -0.22,6  z" class="primitive"/>
              </g>
              <g transform="translate(57.34,61.83)" id="img-2a6e1324-101">
                <path d="M-0.22,-13.71 L0.22,-13.71 0.22,13.71 -0.22,13.71  z" class="primitive"/>
              </g>
              <g transform="translate(57.73,66.97)" id="img-2a6e1324-102">
                <path d="M-0.22,-8.57 L0.22,-8.57 0.22,8.57 -0.22,8.57  z" class="primitive"/>
              </g>
              <g transform="translate(58.12,62.69)" id="img-2a6e1324-103">
                <path d="M-0.22,-12.85 L0.22,-12.85 0.22,12.85 -0.22,12.85  z" class="primitive"/>
              </g>
              <g transform="translate(58.51,66.12)" id="img-2a6e1324-104">
                <path d="M-0.22,-9.42 L0.22,-9.42 0.22,9.42 -0.22,9.42  z" class="primitive"/>
              </g>
              <g transform="translate(58.91,66.97)" id="img-2a6e1324-105">
                <path d="M-0.22,-8.57 L0.22,-8.57 0.22,8.57 -0.22,8.57  z" class="primitive"/>
              </g>
              <g transform="translate(59.3,67.83)" id="img-2a6e1324-106">
                <path d="M-0.22,-7.71 L0.22,-7.71 0.22,7.71 -0.22,7.71  z" class="primitive"/>
              </g>
              <g transform="translate(59.69,68.69)" id="img-2a6e1324-107">
                <path d="M-0.22,-6.85 L0.22,-6.85 0.22,6.85 -0.22,6.85  z" class="primitive"/>
              </g>
              <g transform="translate(60.08,68.69)" id="img-2a6e1324-108">
                <path d="M-0.22,-6.85 L0.22,-6.85 0.22,6.85 -0.22,6.85  z" class="primitive"/>
              </g>
              <g transform="translate(60.47,67.83)" id="img-2a6e1324-109">
                <path d="M-0.22,-7.71 L0.22,-7.71 0.22,7.71 -0.22,7.71  z" class="primitive"/>
              </g>
              <g transform="translate(60.86,70.4)" id="img-2a6e1324-110">
                <path d="M-0.22,-5.14 L0.22,-5.14 0.22,5.14 -0.22,5.14  z" class="primitive"/>
              </g>
              <g transform="translate(61.26,72.11)" id="img-2a6e1324-111">
                <path d="M-0.22,-3.43 L0.22,-3.43 0.22,3.43 -0.22,3.43  z" class="primitive"/>
              </g>
              <g transform="translate(61.65,72.11)" id="img-2a6e1324-112">
                <path d="M-0.22,-3.43 L0.22,-3.43 0.22,3.43 -0.22,3.43  z" class="primitive"/>
              </g>
              <g transform="translate(62.04,67.83)" id="img-2a6e1324-113">
                <path d="M-0.22,-7.71 L0.22,-7.71 0.22,7.71 -0.22,7.71  z" class="primitive"/>
              </g>
              <g transform="translate(62.43,69.54)" id="img-2a6e1324-114">
                <path d="M-0.22,-6 L0.22,-6 0.22,6 -0.22,6  z" class="primitive"/>
              </g>
              <g transform="translate(62.82,73.83)" id="img-2a6e1324-115">
                <path d="M-0.22,-1.71 L0.22,-1.71 0.22,1.71 -0.22,1.71  z" class="primitive"/>
              </g>
              <g transform="translate(63.21,72.97)" id="img-2a6e1324-116">
                <path d="M-0.22,-2.57 L0.22,-2.57 0.22,2.57 -0.22,2.57  z" class="primitive"/>
              </g>
              <g transform="translate(63.61,73.83)" id="img-2a6e1324-117">
                <path d="M-0.22,-1.71 L0.22,-1.71 0.22,1.71 -0.22,1.71  z" class="primitive"/>
              </g>
              <g transform="translate(64,75.55)" id="img-2a6e1324-118">
                <path d="M-0.22,-0 L0.22,-0 0.22,0 -0.22,0  z" class="primitive"/>
              </g>
              <g transform="translate(64.39,71.26)" id="img-2a6e1324-119">
                <path d="M-0.22,-4.28 L0.22,-4.28 0.22,4.28 -0.22,4.28  z" class="primitive"/>
              </g>
              <g transform="translate(64.78,74.68)" id="img-2a6e1324-120">
                <path d="M-0.22,-0.86 L0.22,-0.86 0.22,0.86 -0.22,0.86  z" class="primitive"/>
              </g>
              <g transform="translate(65.17,72.97)" id="img-2a6e1324-121">
                <path d="M-0.22,-2.57 L0.22,-2.57 0.22,2.57 -0.22,2.57  z" class="primitive"/>
              </g>
              <g transform="translate(65.56,72.11)" id="img-2a6e1324-122">
                <path d="M-0.22,-3.43 L0.22,-3.43 0.22,3.43 -0.22,3.43  z" class="primitive"/>
              </g>
              <g transform="translate(65.96,73.83)" id="img-2a6e1324-123">
                <path d="M-0.22,-1.71 L0.22,-1.71 0.22,1.71 -0.22,1.71  z" class="primitive"/>
              </g>
              <g transform="translate(66.35,74.68)" id="img-2a6e1324-124">
                <path d="M-0.22,-0.86 L0.22,-0.86 0.22,0.86 -0.22,0.86  z" class="primitive"/>
              </g>
              <g transform="translate(66.74,75.55)" id="img-2a6e1324-125">
                <path d="M-0.22,-0 L0.22,-0 0.22,0 -0.22,0  z" class="primitive"/>
              </g>
              <g transform="translate(67.13,75.55)" id="img-2a6e1324-126">
                <path d="M-0.22,-0 L0.22,-0 0.22,0 -0.22,0  z" class="primitive"/>
              </g>
              <g transform="translate(67.52,75.55)" id="img-2a6e1324-127">
                <path d="M-0.22,-0 L0.22,-0 0.22,0 -0.22,0  z" class="primitive"/>
              </g>
              <g transform="translate(67.91,75.55)" id="img-2a6e1324-128">
                <path d="M-0.22,-0 L0.22,-0 0.22,0 -0.22,0  z" class="primitive"/>
              </g>
              <g transform="translate(68.3,74.68)" id="img-2a6e1324-129">
                <path d="M-0.22,-0.86 L0.22,-0.86 0.22,0.86 -0.22,0.86  z" class="primitive"/>
              </g>
              <g transform="translate(68.7,75.55)" id="img-2a6e1324-130">
                <path d="M-0.22,-0 L0.22,-0 0.22,0 -0.22,0  z" class="primitive"/>
              </g>
              <g transform="translate(69.09,74.68)" id="img-2a6e1324-131">
                <path d="M-0.22,-0.86 L0.22,-0.86 0.22,0.86 -0.22,0.86  z" class="primitive"/>
              </g>
            </g>
          </g>
        </g>
      </g>
    </g>
  </g>
  <g class="guide ylabels" font-size="2.82" font-family="'PT Sans Caption','Helvetica Neue','Helvetica',sans-serif" fill="#6C606B" id="img-2a6e1324-132">
    <g transform="translate(16.96,75.54)" id="img-2a6e1324-133">
      <g class="primitive">
        <text text-anchor="end" dy="0.35em">0</text>
      </g>
    </g>
    <g transform="translate(16.96,58.41)" id="img-2a6e1324-134">
      <g class="primitive">
        <text text-anchor="end" dy="0.35em">10</text>
      </g>
    </g>
    <g transform="translate(16.96,41.27)" id="img-2a6e1324-135">
      <g class="primitive">
        <text text-anchor="end" dy="0.35em">20</text>
      </g>
    </g>
    <g transform="translate(16.96,24.14)" id="img-2a6e1324-136">
      <g class="primitive">
        <text text-anchor="end" dy="0.35em">30</text>
      </g>
    </g>
    <g transform="translate(16.96,7)" id="img-2a6e1324-137">
      <g class="primitive">
        <text text-anchor="end" dy="0.35em">40</text>
      </g>
    </g>
  </g>
  <g font-size="3.88" font-family="'PT Sans','Helvetica Neue','Helvetica',sans-serif" fill="#564A55" stroke="#000000" stroke-opacity="0.000" id="img-2a6e1324-138">
    <g transform="translate(8.81,39.27)" id="img-2a6e1324-139">
      <g class="primitive">
        <text text-anchor="middle" dy="0.35em" transform="rotate(-90,0, 2)">frequency</text>
      </g>
    </g>
  </g>
</g>
<defs>
  <clipPath id="img-2a6e1324-11">
    <path d="M17.96,5 L81.59,5 81.59,77.54 17.96,77.54 " />
  </clipPath>
</defs>
</svg>
