<?xml version="1.0" encoding="UTF-8"?>
<svg xmlns="http://www.w3.org/2000/svg"
     xmlns:xlink="http://www.w3.org/1999/xlink"
     xmlns:gadfly="http://www.gadflyjl.org/ns"
     version="1.2"
     width="141.42mm" height="100mm" viewBox="0 0 141.42 100"
     stroke="none"
     fill="#000000"
     stroke-width="0.3"
     font-size="3.88"
>
<defs>
  <marker id="arrow" markerWidth="15" markerHeight="7" refX="5" refY="3.5" orient="auto" markerUnits="strokeWidth">
    <path d="M0,0 L15,3.5 L0,7 z" stroke="context-stroke" fill="context-stroke"/>
  </marker>
</defs>
<g class="plotroot xscalable yscalable" id="img-a7f6e68c-1">
  <g class="guide xlabels" font-size="2.82" font-family="'PT Sans Caption','Helvetica Neue','Helvetica',sans-serif" fill="#6C606B" id="img-a7f6e68c-2">
    <g transform="translate(19.96,80.21)">
      <g class="primitive">
        <text text-anchor="end" dy="0.35em" transform="rotate(-90,0, 0)">2.40×10⁶</text>
      </g>
    </g>
    <g transform="translate(35.89,80.21)">
      <g class="primitive">
        <text text-anchor="end" dy="0.35em" transform="rotate(-90,0, 0)">2.60×10⁶</text>
      </g>
    </g>
    <g transform="translate(51.81,80.21)">
      <g class="primitive">
        <text text-anchor="end" dy="0.35em" transform="rotate(-90,0, 0)">2.80×10⁶</text>
      </g>
    </g>
    <g transform="translate(67.74,80.21)">
      <g class="primitive">
        <text text-anchor="end" dy="0.35em" transform="rotate(-90,0, 0)">3.00×10⁶</text>
      </g>
    </g>
    <g transform="translate(83.67,80.21)">
      <g class="primitive">
        <text text-anchor="end" dy="0.35em" transform="rotate(-90,0, 0)">3.20×10⁶</text>
      </g>
    </g>
  </g>
  <g class="guide colorkey" id="img-a7f6e68c-3">
    <g class="color_coding_coding_coding_coding_4-clique" id="img-a7f6e68c-4">
      <g fill="#4C404B" font-size="2.82" font-family="'PT Sans','Helvetica Neue','Helvetica',sans-serif" id="img-a7f6e68c-5">
        <g transform="translate(89.48,43.92)" id="img-a7f6e68c-6">
          <g class="primitive">
            <text dy="0.35em">coding_coding_coding_coding_4-clique</text>
          </g>
        </g>
      </g>
      <g fill-opacity="1" fill="#00BFFF" stroke="#FFFFFF" id="img-a7f6e68c-7">
        <g transform="translate(87.57,43.92)" id="img-a7f6e68c-8">
          <path d="M-0.91,-0.91 L0.91,-0.91 0.91,0.91 -0.91,0.91  z" class="primitive"/>
        </g>
      </g>
    </g>
    <g fill="#362A35" font-size="3.88" font-family="'PT Sans','Helvetica Neue','Helvetica',sans-serif" stroke="#000000" stroke-opacity="0.000" id="img-a7f6e68c-9">
      <g transform="translate(86.67,40.1)" id="img-a7f6e68c-10">
        <g class="primitive">
          <text dy="-0em">graphlet</text>
        </g>
      </g>
    </g>
  </g>
  <g clip-path="url(#img-a7f6e68c-11)">
    <g id="img-a7f6e68c-12">
      <g pointer-events="visible" stroke-width="0.3" fill="#000000" fill-opacity="0.000" stroke="#000000" stroke-opacity="0.000" class="guide background" id="img-a7f6e68c-13">
        <g transform="translate(51.81,42.11)" id="img-a7f6e68c-14">
          <path d="M-33.85,-37.11 L33.85,-37.11 33.85,37.11 -33.85,37.11  z" class="primitive"/>
        </g>
      </g>
      <g class="guide ygridlines xfixed" stroke-dasharray="0.5,0.5" stroke-width="0.2" stroke="#D0D0E0" id="img-a7f6e68c-15">
        <g transform="translate(51.81,77.21)" id="img-a7f6e68c-16">
          <path fill="none" d="M-33.85,0 L33.85,0 " class="primitive"/>
        </g>
        <g transform="translate(51.81,59.66)" id="img-a7f6e68c-17">
          <path fill="none" d="M-33.85,0 L33.85,0 " class="primitive"/>
        </g>
        <g transform="translate(51.81,42.11)" id="img-a7f6e68c-18">
          <path fill="none" d="M-33.85,0 L33.85,0 " class="primitive"/>
        </g>
        <g transform="translate(51.81,24.55)" id="img-a7f6e68c-19">
          <path fill="none" d="M-33.85,0 L33.85,0 " class="primitive"/>
        </g>
        <g transform="translate(51.81,7)" id="img-a7f6e68c-20">
          <path fill="none" d="M-33.85,0 L33.85,0 " class="primitive"/>
        </g>
      </g>
      <g class="guide xgridlines yfixed" stroke-dasharray="0.5,0.5" stroke-width="0.2" stroke="#D0D0E0" id="img-a7f6e68c-21">
        <g transform="translate(19.96,42.11)" id="img-a7f6e68c-22">
          <path fill="none" d="M0,-37.11 L0,37.11 " class="primitive"/>
        </g>
        <g transform="translate(35.89,42.11)" id="img-a7f6e68c-23">
          <path fill="none" d="M0,-37.11 L0,37.11 " class="primitive"/>
        </g>
        <g transform="translate(51.81,42.11)" id="img-a7f6e68c-24">
          <path fill="none" d="M0,-37.11 L0,37.11 " class="primitive"/>
        </g>
        <g transform="translate(67.74,42.11)" id="img-a7f6e68c-25">
          <path fill="none" d="M0,-37.11 L0,37.11 " class="primitive"/>
        </g>
        <g transform="translate(83.67,42.11)" id="img-a7f6e68c-26">
          <path fill="none" d="M0,-37.11 L0,37.11 " class="primitive"/>
        </g>
      </g>
      <g class="plotpanel" id="img-a7f6e68c-27">
        <metadata>
          <boundingbox value="17.95833333333333mm 5.0mm 67.70968957064284mm 74.21333333333334mm"/>
          <unitbox value="2.3748860807393217e6 41.13938473224459 850227.8385213565 -42.27876946448917"/>
        </metadata>
        <g shape-rendering="crispEdges" stroke-width="0.3" id="img-a7f6e68c-28">
          <g stroke="#000000" stroke-opacity="0.000" class="geometry" id="img-a7f6e68c-29">
            <g fill="#00BFFF" id="img-a7f6e68c-30">
              <g transform="translate(23.06,76.34)" id="img-a7f6e68c-31">
                <path d="M-0.32,-0.88 L0.32,-0.88 0.32,0.88 -0.32,0.88  z" class="primitive"/>
              </g>
              <g transform="translate(23.65,77.22)" id="img-a7f6e68c-32">
                <path d="M-0.32,-0 L0.32,-0 0.32,0 -0.32,0  z" class="primitive"/>
              </g>
              <g transform="translate(24.24,77.22)" id="img-a7f6e68c-33">
                <path d="M-0.32,-0 L0.32,-0 0.32,0 -0.32,0  z" class="primitive"/>
              </g>
              <g transform="translate(24.83,77.22)" id="img-a7f6e68c-34">
                <path d="M-0.32,-0 L0.32,-0 0.32,0 -0.32,0  z" class="primitive"/>
              </g>
              <g transform="translate(25.42,77.22)" id="img-a7f6e68c-35">
                <path d="M-0.32,-0 L0.32,-0 0.32,0 -0.32,0  z" class="primitive"/>
              </g>
              <g transform="translate(26.01,77.22)" id="img-a7f6e68c-36">
                <path d="M-0.32,-0 L0.32,-0 0.32,0 -0.32,0  z" class="primitive"/>
              </g>
              <g transform="translate(26.6,77.22)" id="img-a7f6e68c-37">
                <path d="M-0.32,-0 L0.32,-0 0.32,0 -0.32,0  z" class="primitive"/>
              </g>
              <g transform="translate(27.19,76.34)" id="img-a7f6e68c-38">
                <path d="M-0.32,-0.88 L0.32,-0.88 0.32,0.88 -0.32,0.88  z" class="primitive"/>
              </g>
              <g transform="translate(27.78,77.22)" id="img-a7f6e68c-39">
                <path d="M-0.32,-0 L0.32,-0 0.32,0 -0.32,0  z" class="primitive"/>
              </g>
              <g transform="translate(28.37,76.34)" id="img-a7f6e68c-40">
                <path d="M-0.32,-0.88 L0.32,-0.88 0.32,0.88 -0.32,0.88  z" class="primitive"/>
              </g>
              <g transform="translate(28.96,76.34)" id="img-a7f6e68c-41">
                <path d="M-0.32,-0.88 L0.32,-0.88 0.32,0.88 -0.32,0.88  z" class="primitive"/>
              </g>
              <g transform="translate(29.55,76.34)" id="img-a7f6e68c-42">
                <path d="M-0.32,-0.88 L0.32,-0.88 0.32,0.88 -0.32,0.88  z" class="primitive"/>
              </g>
              <g transform="translate(30.14,77.22)" id="img-a7f6e68c-43">
                <path d="M-0.32,-0 L0.32,-0 0.32,0 -0.32,0  z" class="primitive"/>
              </g>
              <g transform="translate(30.73,76.34)" id="img-a7f6e68c-44">
                <path d="M-0.32,-0.88 L0.32,-0.88 0.32,0.88 -0.32,0.88  z" class="primitive"/>
              </g>
              <g transform="translate(31.32,75.46)" id="img-a7f6e68c-45">
                <path d="M-0.32,-1.76 L0.32,-1.76 0.32,1.76 -0.32,1.76  z" class="primitive"/>
              </g>
              <g transform="translate(31.91,77.22)" id="img-a7f6e68c-46">
                <path d="M-0.32,-0 L0.32,-0 0.32,0 -0.32,0  z" class="primitive"/>
              </g>
              <g transform="translate(32.5,77.22)" id="img-a7f6e68c-47">
                <path d="M-0.32,-0 L0.32,-0 0.32,0 -0.32,0  z" class="primitive"/>
              </g>
              <g transform="translate(33.09,70.19)" id="img-a7f6e68c-48">
                <path d="M-0.32,-7.02 L0.32,-7.02 0.32,7.02 -0.32,7.02  z" class="primitive"/>
              </g>
              <g transform="translate(33.68,77.22)" id="img-a7f6e68c-49">
                <path d="M-0.32,-0 L0.32,-0 0.32,0 -0.32,0  z" class="primitive"/>
              </g>
              <g transform="translate(34.27,74.58)" id="img-a7f6e68c-50">
                <path d="M-0.32,-2.63 L0.32,-2.63 0.32,2.63 -0.32,2.63  z" class="primitive"/>
              </g>
              <g transform="translate(34.86,72.82)" id="img-a7f6e68c-51">
                <path d="M-0.32,-4.39 L0.32,-4.39 0.32,4.39 -0.32,4.39  z" class="primitive"/>
              </g>
              <g transform="translate(35.45,72.82)" id="img-a7f6e68c-52">
                <path d="M-0.32,-4.39 L0.32,-4.39 0.32,4.39 -0.32,4.39  z" class="primitive"/>
              </g>
              <g transform="translate(36.04,75.46)" id="img-a7f6e68c-53">
                <path d="M-0.32,-1.76 L0.32,-1.76 0.32,1.76 -0.32,1.76  z" class="primitive"/>
              </g>
              <g transform="translate(36.63,71.95)" id="img-a7f6e68c-54">
                <path d="M-0.32,-5.27 L0.32,-5.27 0.32,5.27 -0.32,5.27  z" class="primitive"/>
              </g>
              <g transform="translate(37.22,71.07)" id="img-a7f6e68c-55">
                <path d="M-0.32,-6.14 L0.32,-6.14 0.32,6.14 -0.32,6.14  z" class="primitive"/>
              </g>
              <g transform="translate(37.81,68.44)" id="img-a7f6e68c-56">
                <path d="M-0.32,-8.78 L0.32,-8.78 0.32,8.78 -0.32,8.78  z" class="primitive"/>
              </g>
              <g transform="translate(38.4,63.17)" id="img-a7f6e68c-57">
                <path d="M-0.32,-14.04 L0.32,-14.04 0.32,14.04 -0.32,14.04  z" class="primitive"/>
              </g>
              <g transform="translate(38.99,71.07)" id="img-a7f6e68c-58">
                <path d="M-0.32,-6.14 L0.32,-6.14 0.32,6.14 -0.32,6.14  z" class="primitive"/>
              </g>
              <g transform="translate(39.58,69.31)" id="img-a7f6e68c-59">
                <path d="M-0.32,-7.9 L0.32,-7.9 0.32,7.9 -0.32,7.9  z" class="primitive"/>
              </g>
              <g transform="translate(40.17,71.07)" id="img-a7f6e68c-60">
                <path d="M-0.32,-6.14 L0.32,-6.14 0.32,6.14 -0.32,6.14  z" class="primitive"/>
              </g>
              <g transform="translate(40.76,65.8)" id="img-a7f6e68c-61">
                <path d="M-0.32,-11.41 L0.32,-11.41 0.32,11.41 -0.32,11.41  z" class="primitive"/>
              </g>
              <g transform="translate(41.35,58.78)" id="img-a7f6e68c-62">
                <path d="M-0.32,-18.43 L0.32,-18.43 0.32,18.43 -0.32,18.43  z" class="primitive"/>
              </g>
              <g transform="translate(41.94,62.29)" id="img-a7f6e68c-63">
                <path d="M-0.32,-14.92 L0.32,-14.92 0.32,14.92 -0.32,14.92  z" class="primitive"/>
              </g>
              <g transform="translate(42.53,66.68)" id="img-a7f6e68c-64">
                <path d="M-0.32,-10.53 L0.32,-10.53 0.32,10.53 -0.32,10.53  z" class="primitive"/>
              </g>
              <g transform="translate(43.12,59.66)" id="img-a7f6e68c-65">
                <path d="M-0.32,-17.55 L0.32,-17.55 0.32,17.55 -0.32,17.55  z" class="primitive"/>
              </g>
              <g transform="translate(43.71,58.78)" id="img-a7f6e68c-66">
                <path d="M-0.32,-18.43 L0.32,-18.43 0.32,18.43 -0.32,18.43  z" class="primitive"/>
              </g>
              <g transform="translate(44.3,62.29)" id="img-a7f6e68c-67">
                <path d="M-0.32,-14.92 L0.32,-14.92 0.32,14.92 -0.32,14.92  z" class="primitive"/>
              </g>
              <g transform="translate(44.89,55.27)" id="img-a7f6e68c-68">
                <path d="M-0.32,-21.94 L0.32,-21.94 0.32,21.94 -0.32,21.94  z" class="primitive"/>
              </g>
              <g transform="translate(45.48,59.66)" id="img-a7f6e68c-69">
                <path d="M-0.32,-17.55 L0.32,-17.55 0.32,17.55 -0.32,17.55  z" class="primitive"/>
              </g>
              <g transform="translate(46.07,64.93)" id="img-a7f6e68c-70">
                <path d="M-0.32,-12.29 L0.32,-12.29 0.32,12.29 -0.32,12.29  z" class="primitive"/>
              </g>
              <g transform="translate(46.66,54.39)" id="img-a7f6e68c-71">
                <path d="M-0.32,-22.82 L0.32,-22.82 0.32,22.82 -0.32,22.82  z" class="primitive"/>
              </g>
              <g transform="translate(47.25,55.27)" id="img-a7f6e68c-72">
                <path d="M-0.32,-21.94 L0.32,-21.94 0.32,21.94 -0.32,21.94  z" class="primitive"/>
              </g>
              <g transform="translate(47.84,51.76)" id="img-a7f6e68c-73">
                <path d="M-0.32,-25.45 L0.32,-25.45 0.32,25.45 -0.32,25.45  z" class="primitive"/>
              </g>
              <g transform="translate(48.43,53.52)" id="img-a7f6e68c-74">
                <path d="M-0.32,-23.7 L0.32,-23.7 0.32,23.7 -0.32,23.7  z" class="primitive"/>
              </g>
              <g transform="translate(49.02,48.25)" id="img-a7f6e68c-75">
                <path d="M-0.32,-28.96 L0.32,-28.96 0.32,28.96 -0.32,28.96  z" class="primitive"/>
              </g>
              <g transform="translate(49.61,60.54)" id="img-a7f6e68c-76">
                <path d="M-0.32,-16.68 L0.32,-16.68 0.32,16.68 -0.32,16.68  z" class="primitive"/>
              </g>
              <g transform="translate(50.2,54.39)" id="img-a7f6e68c-77">
                <path d="M-0.32,-22.82 L0.32,-22.82 0.32,22.82 -0.32,22.82  z" class="primitive"/>
              </g>
              <g transform="translate(50.79,50.88)" id="img-a7f6e68c-78">
                <path d="M-0.32,-26.33 L0.32,-26.33 0.32,26.33 -0.32,26.33  z" class="primitive"/>
              </g>
              <g transform="translate(51.38,55.27)" id="img-a7f6e68c-79">
                <path d="M-0.32,-21.94 L0.32,-21.94 0.32,21.94 -0.32,21.94  z" class="primitive"/>
              </g>
              <g transform="translate(51.97,49.13)" id="img-a7f6e68c-80">
                <path d="M-0.32,-28.09 L0.32,-28.09 0.32,28.09 -0.32,28.09  z" class="primitive"/>
              </g>
              <g transform="translate(52.57,60.54)" id="img-a7f6e68c-81">
                <path d="M-0.32,-16.68 L0.32,-16.68 0.32,16.68 -0.32,16.68  z" class="primitive"/>
              </g>
              <g transform="translate(53.16,53.52)" id="img-a7f6e68c-82">
                <path d="M-0.32,-23.7 L0.32,-23.7 0.32,23.7 -0.32,23.7  z" class="primitive"/>
              </g>
              <g transform="translate(53.75,61.42)" id="img-a7f6e68c-83">
                <path d="M-0.32,-15.8 L0.32,-15.8 0.32,15.8 -0.32,15.8  z" class="primitive"/>
              </g>
              <g transform="translate(54.34,50.88)" id="img-a7f6e68c-84">
                <path d="M-0.32,-26.33 L0.32,-26.33 0.32,26.33 -0.32,26.33  z" class="primitive"/>
              </g>
              <g transform="translate(54.93,58.78)" id="img-a7f6e68c-85">
                <path d="M-0.32,-18.43 L0.32,-18.43 0.32,18.43 -0.32,18.43  z" class="primitive"/>
              </g>
              <g transform="translate(55.52,52.64)" id="img-a7f6e68c-86">
                <path d="M-0.32,-24.57 L0.32,-24.57 0.32,24.57 -0.32,24.57  z" class="primitive"/>
              </g>
              <g transform="translate(56.11,42.98)" id="img-a7f6e68c-87">
                <path d="M-0.32,-34.23 L0.32,-34.23 0.32,34.23 -0.32,34.23  z" class="primitive"/>
              </g>
              <g transform="translate(56.7,58.78)" id="img-a7f6e68c-88">
                <path d="M-0.32,-18.43 L0.32,-18.43 0.32,18.43 -0.32,18.43  z" class="primitive"/>
              </g>
              <g transform="translate(57.29,58.78)" id="img-a7f6e68c-89">
                <path d="M-0.32,-18.43 L0.32,-18.43 0.32,18.43 -0.32,18.43  z" class="primitive"/>
              </g>
              <g transform="translate(57.88,59.66)" id="img-a7f6e68c-90">
                <path d="M-0.32,-17.55 L0.32,-17.55 0.32,17.55 -0.32,17.55  z" class="primitive"/>
              </g>
              <g transform="translate(58.47,64.05)" id="img-a7f6e68c-91">
                <path d="M-0.32,-13.17 L0.32,-13.17 0.32,13.17 -0.32,13.17  z" class="primitive"/>
              </g>
              <g transform="translate(59.06,61.42)" id="img-a7f6e68c-92">
                <path d="M-0.32,-15.8 L0.32,-15.8 0.32,15.8 -0.32,15.8  z" class="primitive"/>
              </g>
              <g transform="translate(59.65,67.56)" id="img-a7f6e68c-93">
                <path d="M-0.32,-9.65 L0.32,-9.65 0.32,9.65 -0.32,9.65  z" class="primitive"/>
              </g>
              <g transform="translate(60.24,65.8)" id="img-a7f6e68c-94">
                <path d="M-0.32,-11.41 L0.32,-11.41 0.32,11.41 -0.32,11.41  z" class="primitive"/>
              </g>
              <g transform="translate(60.83,63.17)" id="img-a7f6e68c-95">
                <path d="M-0.32,-14.04 L0.32,-14.04 0.32,14.04 -0.32,14.04  z" class="primitive"/>
              </g>
              <g transform="translate(61.42,66.68)" id="img-a7f6e68c-96">
                <path d="M-0.32,-10.53 L0.32,-10.53 0.32,10.53 -0.32,10.53  z" class="primitive"/>
              </g>
              <g transform="translate(62.01,69.31)" id="img-a7f6e68c-97">
                <path d="M-0.32,-7.9 L0.32,-7.9 0.32,7.9 -0.32,7.9  z" class="primitive"/>
              </g>
              <g transform="translate(62.6,70.19)" id="img-a7f6e68c-98">
                <path d="M-0.32,-7.02 L0.32,-7.02 0.32,7.02 -0.32,7.02  z" class="primitive"/>
              </g>
              <g transform="translate(63.19,65.8)" id="img-a7f6e68c-99">
                <path d="M-0.32,-11.41 L0.32,-11.41 0.32,11.41 -0.32,11.41  z" class="primitive"/>
              </g>
              <g transform="translate(63.78,66.68)" id="img-a7f6e68c-100">
                <path d="M-0.32,-10.53 L0.32,-10.53 0.32,10.53 -0.32,10.53  z" class="primitive"/>
              </g>
              <g transform="translate(64.37,67.56)" id="img-a7f6e68c-101">
                <path d="M-0.32,-9.65 L0.32,-9.65 0.32,9.65 -0.32,9.65  z" class="primitive"/>
              </g>
              <g transform="translate(64.96,65.8)" id="img-a7f6e68c-102">
                <path d="M-0.32,-11.41 L0.32,-11.41 0.32,11.41 -0.32,11.41  z" class="primitive"/>
              </g>
              <g transform="translate(65.55,72.82)" id="img-a7f6e68c-103">
                <path d="M-0.32,-4.39 L0.32,-4.39 0.32,4.39 -0.32,4.39  z" class="primitive"/>
              </g>
              <g transform="translate(66.14,73.7)" id="img-a7f6e68c-104">
                <path d="M-0.32,-3.51 L0.32,-3.51 0.32,3.51 -0.32,3.51  z" class="primitive"/>
              </g>
              <g transform="translate(66.73,68.44)" id="img-a7f6e68c-105">
                <path d="M-0.32,-8.78 L0.32,-8.78 0.32,8.78 -0.32,8.78  z" class="primitive"/>
              </g>
              <g transform="translate(67.32,73.7)" id="img-a7f6e68c-106">
                <path d="M-0.32,-3.51 L0.32,-3.51 0.32,3.51 -0.32,3.51  z" class="primitive"/>
              </g>
              <g transform="translate(67.91,74.58)" id="img-a7f6e68c-107">
                <path d="M-0.32,-2.63 L0.32,-2.63 0.32,2.63 -0.32,2.63  z" class="primitive"/>
              </g>
              <g transform="translate(68.5,72.82)" id="img-a7f6e68c-108">
                <path d="M-0.32,-4.39 L0.32,-4.39 0.32,4.39 -0.32,4.39  z" class="primitive"/>
              </g>
              <g transform="translate(69.09,75.46)" id="img-a7f6e68c-109">
                <path d="M-0.32,-1.76 L0.32,-1.76 0.32,1.76 -0.32,1.76  z" class="primitive"/>
              </g>
              <g transform="translate(69.68,71.07)" id="img-a7f6e68c-110">
                <path d="M-0.32,-6.14 L0.32,-6.14 0.32,6.14 -0.32,6.14  z" class="primitive"/>
              </g>
              <g transform="translate(70.27,72.82)" id="img-a7f6e68c-111">
                <path d="M-0.32,-4.39 L0.32,-4.39 0.32,4.39 -0.32,4.39  z" class="primitive"/>
              </g>
              <g transform="translate(70.86,75.46)" id="img-a7f6e68c-112">
                <path d="M-0.32,-1.76 L0.32,-1.76 0.32,1.76 -0.32,1.76  z" class="primitive"/>
              </g>
              <g transform="translate(71.45,74.58)" id="img-a7f6e68c-113">
                <path d="M-0.32,-2.63 L0.32,-2.63 0.32,2.63 -0.32,2.63  z" class="primitive"/>
              </g>
              <g transform="translate(72.04,76.34)" id="img-a7f6e68c-114">
                <path d="M-0.32,-0.88 L0.32,-0.88 0.32,0.88 -0.32,0.88  z" class="primitive"/>
              </g>
              <g transform="translate(72.63,77.22)" id="img-a7f6e68c-115">
                <path d="M-0.32,-0 L0.32,-0 0.32,0 -0.32,0  z" class="primitive"/>
              </g>
              <g transform="translate(73.22,76.34)" id="img-a7f6e68c-116">
                <path d="M-0.32,-0.88 L0.32,-0.88 0.32,0.88 -0.32,0.88  z" class="primitive"/>
              </g>
              <g transform="translate(73.81,76.34)" id="img-a7f6e68c-117">
                <path d="M-0.32,-0.88 L0.32,-0.88 0.32,0.88 -0.32,0.88  z" class="primitive"/>
              </g>
              <g transform="translate(74.4,75.46)" id="img-a7f6e68c-118">
                <path d="M-0.32,-1.76 L0.32,-1.76 0.32,1.76 -0.32,1.76  z" class="primitive"/>
              </g>
              <g transform="translate(74.99,77.22)" id="img-a7f6e68c-119">
                <path d="M-0.32,-0 L0.32,-0 0.32,0 -0.32,0  z" class="primitive"/>
              </g>
              <g transform="translate(75.58,76.34)" id="img-a7f6e68c-120">
                <path d="M-0.32,-0.88 L0.32,-0.88 0.32,0.88 -0.32,0.88  z" class="primitive"/>
              </g>
              <g transform="translate(76.17,76.34)" id="img-a7f6e68c-121">
                <path d="M-0.32,-0.88 L0.32,-0.88 0.32,0.88 -0.32,0.88  z" class="primitive"/>
              </g>
              <g transform="translate(76.76,76.34)" id="img-a7f6e68c-122">
                <path d="M-0.32,-0.88 L0.32,-0.88 0.32,0.88 -0.32,0.88  z" class="primitive"/>
              </g>
              <g transform="translate(77.35,77.22)" id="img-a7f6e68c-123">
                <path d="M-0.32,-0 L0.32,-0 0.32,0 -0.32,0  z" class="primitive"/>
              </g>
              <g transform="translate(77.94,77.22)" id="img-a7f6e68c-124">
                <path d="M-0.32,-0 L0.32,-0 0.32,0 -0.32,0  z" class="primitive"/>
              </g>
              <g transform="translate(78.53,77.22)" id="img-a7f6e68c-125">
                <path d="M-0.32,-0 L0.32,-0 0.32,0 -0.32,0  z" class="primitive"/>
              </g>
              <g transform="translate(79.12,77.22)" id="img-a7f6e68c-126">
                <path d="M-0.32,-0 L0.32,-0 0.32,0 -0.32,0  z" class="primitive"/>
              </g>
              <g transform="translate(79.71,76.34)" id="img-a7f6e68c-127">
                <path d="M-0.32,-0.88 L0.32,-0.88 0.32,0.88 -0.32,0.88  z" class="primitive"/>
              </g>
              <g transform="translate(80.3,77.22)" id="img-a7f6e68c-128">
                <path d="M-0.32,-0 L0.32,-0 0.32,0 -0.32,0  z" class="primitive"/>
              </g>
              <g transform="translate(80.89,77.22)" id="img-a7f6e68c-129">
                <path d="M-0.32,-0 L0.32,-0 0.32,0 -0.32,0  z" class="primitive"/>
              </g>
              <g transform="translate(81.48,76.34)" id="img-a7f6e68c-130">
                <path d="M-0.32,-0.88 L0.32,-0.88 0.32,0.88 -0.32,0.88  z" class="primitive"/>
              </g>
            </g>
          </g>
        </g>
      </g>
    </g>
  </g>
  <g class="guide ylabels" font-size="2.82" font-family="'PT Sans Caption','Helvetica Neue','Helvetica',sans-serif" fill="#6C606B" id="img-a7f6e68c-131">
    <g transform="translate(16.96,77.21)" id="img-a7f6e68c-132">
      <g class="primitive">
        <text text-anchor="end" dy="0.35em">0</text>
      </g>
    </g>
    <g transform="translate(16.96,59.66)" id="img-a7f6e68c-133">
      <g class="primitive">
        <text text-anchor="end" dy="0.35em">10</text>
      </g>
    </g>
    <g transform="translate(16.96,42.11)" id="img-a7f6e68c-134">
      <g class="primitive">
        <text text-anchor="end" dy="0.35em">20</text>
      </g>
    </g>
    <g transform="translate(16.96,24.55)" id="img-a7f6e68c-135">
      <g class="primitive">
        <text text-anchor="end" dy="0.35em">30</text>
      </g>
    </g>
    <g transform="translate(16.96,7)" id="img-a7f6e68c-136">
      <g class="primitive">
        <text text-anchor="end" dy="0.35em">40</text>
      </g>
    </g>
  </g>
  <g font-size="3.88" font-family="'PT Sans','Helvetica Neue','Helvetica',sans-serif" fill="#564A55" stroke="#000000" stroke-opacity="0.000" id="img-a7f6e68c-137">
    <g transform="translate(8.81,40.11)" id="img-a7f6e68c-138">
      <g class="primitive">
        <text text-anchor="middle" dy="0.35em" transform="rotate(-90,0, 2)">frequency</text>
      </g>
    </g>
  </g>
</g>
<defs>
  <clipPath id="img-a7f6e68c-11">
    <path d="M17.96,5 L85.67,5 85.67,79.21 17.96,79.21 " />
  </clipPath>
</defs>
</svg>
