<?xml version="1.0" encoding="UTF-8"?>
<svg xmlns="http://www.w3.org/2000/svg"
     xmlns:xlink="http://www.w3.org/1999/xlink"
     xmlns:gadfly="http://www.gadflyjl.org/ns"
     version="1.2"
     width="141.42mm" height="100mm" viewBox="0 0 141.42 100"
     stroke="none"
     fill="#000000"
     stroke-width="0.3"
     font-size="3.88"
>
<defs>
  <marker id="arrow" markerWidth="15" markerHeight="7" refX="5" refY="3.5" orient="auto" markerUnits="strokeWidth">
    <path d="M0,0 L15,3.5 L0,7 z" stroke="context-stroke" fill="context-stroke"/>
  </marker>
</defs>
<g class="plotroot xscalable yscalable" id="img-b32020e0-1">
  <g class="guide xlabels" font-size="2.82" font-family="'PT Sans Caption','Helvetica Neue','Helvetica',sans-serif" fill="#6C606B" id="img-b32020e0-2">
    <g transform="translate(19.96,91.33)">
      <g class="primitive">
        <text text-anchor="middle" dy="0.6em">5.00×10⁵</text>
      </g>
    </g>
    <g transform="translate(36.38,91.33)">
      <g class="primitive">
        <text text-anchor="middle" dy="0.6em">5.50×10⁵</text>
      </g>
    </g>
    <g transform="translate(52.8,91.33)">
      <g class="primitive">
        <text text-anchor="middle" dy="0.6em">6.00×10⁵</text>
      </g>
    </g>
    <g transform="translate(69.22,91.33)">
      <g class="primitive">
        <text text-anchor="middle" dy="0.6em">6.50×10⁵</text>
      </g>
    </g>
    <g transform="translate(85.64,91.33)">
      <g class="primitive">
        <text text-anchor="middle" dy="0.6em">7.00×10⁵</text>
      </g>
    </g>
  </g>
  <g class="guide colorkey" id="img-b32020e0-3">
    <g class="color_coding_noncoding_noncoding_3-path" id="img-b32020e0-4">
      <g fill="#4C404B" font-size="2.82" font-family="'PT Sans','Helvetica Neue','Helvetica',sans-serif" id="img-b32020e0-5">
        <g transform="translate(91.45,49.48)" id="img-b32020e0-6">
          <g class="primitive">
            <text dy="0.35em">coding_noncoding_noncoding_3-path</text>
          </g>
        </g>
      </g>
      <g fill-opacity="1" fill="#00BFFF" stroke="#FFFFFF" id="img-b32020e0-7">
        <g transform="translate(89.55,49.48)" id="img-b32020e0-8">
          <path d="M-0.91,-0.91 L0.91,-0.91 0.91,0.91 -0.91,0.91  z" class="primitive"/>
        </g>
      </g>
    </g>
    <g fill="#362A35" font-size="3.88" font-family="'PT Sans','Helvetica Neue','Helvetica',sans-serif" stroke="#000000" stroke-opacity="0.000" id="img-b32020e0-9">
      <g transform="translate(88.64,45.66)" id="img-b32020e0-10">
        <g class="primitive">
          <text dy="-0em">graphlet</text>
        </g>
      </g>
    </g>
  </g>
  <g clip-path="url(#img-b32020e0-11)">
    <g id="img-b32020e0-12">
      <g pointer-events="visible" stroke-width="0.3" fill="#000000" fill-opacity="0.000" stroke="#000000" stroke-opacity="0.000" class="guide background" id="img-b32020e0-13">
        <g transform="translate(52.8,47.66)" id="img-b32020e0-14">
          <path d="M-34.84,-42.66 L34.84,-42.66 34.84,42.66 -34.84,42.66  z" class="primitive"/>
        </g>
      </g>
      <g class="guide ygridlines xfixed" stroke-dasharray="0.5,0.5" stroke-width="0.2" stroke="#D0D0E0" id="img-b32020e0-15">
        <g transform="translate(52.8,88.33)" id="img-b32020e0-16">
          <path fill="none" d="M-34.84,0 L34.84,0 " class="primitive"/>
        </g>
        <g transform="translate(52.8,68)" id="img-b32020e0-17">
          <path fill="none" d="M-34.84,0 L34.84,0 " class="primitive"/>
        </g>
        <g transform="translate(52.8,47.66)" id="img-b32020e0-18">
          <path fill="none" d="M-34.84,0 L34.84,0 " class="primitive"/>
        </g>
        <g transform="translate(52.8,27.33)" id="img-b32020e0-19">
          <path fill="none" d="M-34.84,0 L34.84,0 " class="primitive"/>
        </g>
        <g transform="translate(52.8,7)" id="img-b32020e0-20">
          <path fill="none" d="M-34.84,0 L34.84,0 " class="primitive"/>
        </g>
      </g>
      <g class="guide xgridlines yfixed" stroke-dasharray="0.5,0.5" stroke-width="0.2" stroke="#D0D0E0" id="img-b32020e0-21">
        <g transform="translate(19.96,47.66)" id="img-b32020e0-22">
          <path fill="none" d="M0,-42.66 L0,42.66 " class="primitive"/>
        </g>
        <g transform="translate(36.38,47.66)" id="img-b32020e0-23">
          <path fill="none" d="M0,-42.66 L0,42.66 " class="primitive"/>
        </g>
        <g transform="translate(52.8,47.66)" id="img-b32020e0-24">
          <path fill="none" d="M0,-42.66 L0,42.66 " class="primitive"/>
        </g>
        <g transform="translate(69.22,47.66)" id="img-b32020e0-25">
          <path fill="none" d="M0,-42.66 L0,42.66 " class="primitive"/>
        </g>
        <g transform="translate(85.64,47.66)" id="img-b32020e0-26">
          <path fill="none" d="M0,-42.66 L0,42.66 " class="primitive"/>
        </g>
      </g>
      <g class="plotpanel" id="img-b32020e0-27">
        <metadata>
          <boundingbox value="17.95833333333333mm 5.0mm 69.68302290397615mm 85.32666666666667mm"/>
          <unitbox value="493910.1463008977 40.98368718747438 212179.70739820457 -41.96737437494876"/>
        </metadata>
        <g shape-rendering="crispEdges" stroke-width="0.3" id="img-b32020e0-28">
          <g stroke="#000000" stroke-opacity="0.000" class="geometry" id="img-b32020e0-29">
            <g fill="#00BFFF" id="img-b32020e0-30">
              <g transform="translate(22,86.29)" id="img-b32020e0-31">
                <path d="M-0.26,-2.03 L0.26,-2.03 0.26,2.03 -0.26,2.03  z" class="primitive"/>
              </g>
              <g transform="translate(22.48,88.33)" id="img-b32020e0-32">
                <path d="M-0.26,-0 L0.26,-0 0.26,0 -0.26,0  z" class="primitive"/>
              </g>
              <g transform="translate(22.96,88.33)" id="img-b32020e0-33">
                <path d="M-0.26,-0 L0.26,-0 0.26,0 -0.26,0  z" class="primitive"/>
              </g>
              <g transform="translate(23.44,88.33)" id="img-b32020e0-34">
                <path d="M-0.26,-0 L0.26,-0 0.26,0 -0.26,0  z" class="primitive"/>
              </g>
              <g transform="translate(23.91,88.33)" id="img-b32020e0-35">
                <path d="M-0.26,-0 L0.26,-0 0.26,0 -0.26,0  z" class="primitive"/>
              </g>
              <g transform="translate(24.39,88.33)" id="img-b32020e0-36">
                <path d="M-0.26,-0 L0.26,-0 0.26,0 -0.26,0  z" class="primitive"/>
              </g>
              <g transform="translate(24.87,88.33)" id="img-b32020e0-37">
                <path d="M-0.26,-0 L0.26,-0 0.26,0 -0.26,0  z" class="primitive"/>
              </g>
              <g transform="translate(25.35,86.29)" id="img-b32020e0-38">
                <path d="M-0.26,-2.03 L0.26,-2.03 0.26,2.03 -0.26,2.03  z" class="primitive"/>
              </g>
              <g transform="translate(25.83,88.33)" id="img-b32020e0-39">
                <path d="M-0.26,-0 L0.26,-0 0.26,0 -0.26,0  z" class="primitive"/>
              </g>
              <g transform="translate(26.3,88.33)" id="img-b32020e0-40">
                <path d="M-0.26,-0 L0.26,-0 0.26,0 -0.26,0  z" class="primitive"/>
              </g>
              <g transform="translate(26.78,86.29)" id="img-b32020e0-41">
                <path d="M-0.26,-2.03 L0.26,-2.03 0.26,2.03 -0.26,2.03  z" class="primitive"/>
              </g>
              <g transform="translate(27.26,84.26)" id="img-b32020e0-42">
                <path d="M-0.26,-4.07 L0.26,-4.07 0.26,4.07 -0.26,4.07  z" class="primitive"/>
              </g>
              <g transform="translate(27.74,85.28)" id="img-b32020e0-43">
                <path d="M-0.26,-3.05 L0.26,-3.05 0.26,3.05 -0.26,3.05  z" class="primitive"/>
              </g>
              <g transform="translate(28.21,84.26)" id="img-b32020e0-44">
                <path d="M-0.26,-4.07 L0.26,-4.07 0.26,4.07 -0.26,4.07  z" class="primitive"/>
              </g>
              <g transform="translate(28.69,85.28)" id="img-b32020e0-45">
                <path d="M-0.26,-3.05 L0.26,-3.05 0.26,3.05 -0.26,3.05  z" class="primitive"/>
              </g>
              <g transform="translate(29.17,86.29)" id="img-b32020e0-46">
                <path d="M-0.26,-2.03 L0.26,-2.03 0.26,2.03 -0.26,2.03  z" class="primitive"/>
              </g>
              <g transform="translate(29.65,85.28)" id="img-b32020e0-47">
                <path d="M-0.26,-3.05 L0.26,-3.05 0.26,3.05 -0.26,3.05  z" class="primitive"/>
              </g>
              <g transform="translate(30.13,86.29)" id="img-b32020e0-48">
                <path d="M-0.26,-2.03 L0.26,-2.03 0.26,2.03 -0.26,2.03  z" class="primitive"/>
              </g>
              <g transform="translate(30.6,86.29)" id="img-b32020e0-49">
                <path d="M-0.26,-2.03 L0.26,-2.03 0.26,2.03 -0.26,2.03  z" class="primitive"/>
              </g>
              <g transform="translate(31.08,81.21)" id="img-b32020e0-50">
                <path d="M-0.26,-7.12 L0.26,-7.12 0.26,7.12 -0.26,7.12  z" class="primitive"/>
              </g>
              <g transform="translate(31.56,84.26)" id="img-b32020e0-51">
                <path d="M-0.26,-4.07 L0.26,-4.07 0.26,4.07 -0.26,4.07  z" class="primitive"/>
              </g>
              <g transform="translate(32.04,82.23)" id="img-b32020e0-52">
                <path d="M-0.26,-6.1 L0.26,-6.1 0.26,6.1 -0.26,6.1  z" class="primitive"/>
              </g>
              <g transform="translate(32.52,76.13)" id="img-b32020e0-53">
                <path d="M-0.26,-12.2 L0.26,-12.2 0.26,12.2 -0.26,12.2  z" class="primitive"/>
              </g>
              <g transform="translate(32.99,79.18)" id="img-b32020e0-54">
                <path d="M-0.26,-9.15 L0.26,-9.15 0.26,9.15 -0.26,9.15  z" class="primitive"/>
              </g>
              <g transform="translate(33.47,85.28)" id="img-b32020e0-55">
                <path d="M-0.26,-3.05 L0.26,-3.05 0.26,3.05 -0.26,3.05  z" class="primitive"/>
              </g>
              <g transform="translate(33.95,79.18)" id="img-b32020e0-56">
                <path d="M-0.26,-9.15 L0.26,-9.15 0.26,9.15 -0.26,9.15  z" class="primitive"/>
              </g>
              <g transform="translate(34.43,78.16)" id="img-b32020e0-57">
                <path d="M-0.26,-10.17 L0.26,-10.17 0.26,10.17 -0.26,10.17  z" class="primitive"/>
              </g>
              <g transform="translate(34.91,75.11)" id="img-b32020e0-58">
                <path d="M-0.26,-13.22 L0.26,-13.22 0.26,13.22 -0.26,13.22  z" class="primitive"/>
              </g>
              <g transform="translate(35.38,73.08)" id="img-b32020e0-59">
                <path d="M-0.26,-15.25 L0.26,-15.25 0.26,15.25 -0.26,15.25  z" class="primitive"/>
              </g>
              <g transform="translate(35.86,75.11)" id="img-b32020e0-60">
                <path d="M-0.26,-13.22 L0.26,-13.22 0.26,13.22 -0.26,13.22  z" class="primitive"/>
              </g>
              <g transform="translate(36.34,74.09)" id="img-b32020e0-61">
                <path d="M-0.26,-14.23 L0.26,-14.23 0.26,14.23 -0.26,14.23  z" class="primitive"/>
              </g>
              <g transform="translate(36.82,74.09)" id="img-b32020e0-62">
                <path d="M-0.26,-14.23 L0.26,-14.23 0.26,14.23 -0.26,14.23  z" class="primitive"/>
              </g>
              <g transform="translate(37.29,73.08)" id="img-b32020e0-63">
                <path d="M-0.26,-15.25 L0.26,-15.25 0.26,15.25 -0.26,15.25  z" class="primitive"/>
              </g>
              <g transform="translate(37.77,65.96)" id="img-b32020e0-64">
                <path d="M-0.26,-22.36 L0.26,-22.36 0.26,22.36 -0.26,22.36  z" class="primitive"/>
              </g>
              <g transform="translate(38.25,71.04)" id="img-b32020e0-65">
                <path d="M-0.26,-17.28 L0.26,-17.28 0.26,17.28 -0.26,17.28  z" class="primitive"/>
              </g>
              <g transform="translate(38.73,70.03)" id="img-b32020e0-66">
                <path d="M-0.26,-18.3 L0.26,-18.3 0.26,18.3 -0.26,18.3  z" class="primitive"/>
              </g>
              <g transform="translate(39.21,70.03)" id="img-b32020e0-67">
                <path d="M-0.26,-18.3 L0.26,-18.3 0.26,18.3 -0.26,18.3  z" class="primitive"/>
              </g>
              <g transform="translate(39.68,65.96)" id="img-b32020e0-68">
                <path d="M-0.26,-22.36 L0.26,-22.36 0.26,22.36 -0.26,22.36  z" class="primitive"/>
              </g>
              <g transform="translate(40.16,72.06)" id="img-b32020e0-69">
                <path d="M-0.26,-16.27 L0.26,-16.27 0.26,16.27 -0.26,16.27  z" class="primitive"/>
              </g>
              <g transform="translate(40.64,68)" id="img-b32020e0-70">
                <path d="M-0.26,-20.33 L0.26,-20.33 0.26,20.33 -0.26,20.33  z" class="primitive"/>
              </g>
              <g transform="translate(41.12,71.04)" id="img-b32020e0-71">
                <path d="M-0.26,-17.28 L0.26,-17.28 0.26,17.28 -0.26,17.28  z" class="primitive"/>
              </g>
              <g transform="translate(41.6,52.75)" id="img-b32020e0-72">
                <path d="M-0.26,-35.58 L0.26,-35.58 0.26,35.58 -0.26,35.58  z" class="primitive"/>
              </g>
              <g transform="translate(42.07,70.03)" id="img-b32020e0-73">
                <path d="M-0.26,-18.3 L0.26,-18.3 0.26,18.3 -0.26,18.3  z" class="primitive"/>
              </g>
              <g transform="translate(42.55,50.71)" id="img-b32020e0-74">
                <path d="M-0.26,-37.61 L0.26,-37.61 0.26,37.61 -0.26,37.61  z" class="primitive"/>
              </g>
              <g transform="translate(43.03,64.95)" id="img-b32020e0-75">
                <path d="M-0.26,-23.38 L0.26,-23.38 0.26,23.38 -0.26,23.38  z" class="primitive"/>
              </g>
              <g transform="translate(43.51,71.04)" id="img-b32020e0-76">
                <path d="M-0.26,-17.28 L0.26,-17.28 0.26,17.28 -0.26,17.28  z" class="primitive"/>
              </g>
              <g transform="translate(43.98,75.11)" id="img-b32020e0-77">
                <path d="M-0.26,-13.22 L0.26,-13.22 0.26,13.22 -0.26,13.22  z" class="primitive"/>
              </g>
              <g transform="translate(44.46,61.9)" id="img-b32020e0-78">
                <path d="M-0.26,-26.43 L0.26,-26.43 0.26,26.43 -0.26,26.43  z" class="primitive"/>
              </g>
              <g transform="translate(44.94,66.98)" id="img-b32020e0-79">
                <path d="M-0.26,-21.35 L0.26,-21.35 0.26,21.35 -0.26,21.35  z" class="primitive"/>
              </g>
              <g transform="translate(45.42,66.98)" id="img-b32020e0-80">
                <path d="M-0.26,-21.35 L0.26,-21.35 0.26,21.35 -0.26,21.35  z" class="primitive"/>
              </g>
              <g transform="translate(45.9,60.88)" id="img-b32020e0-81">
                <path d="M-0.26,-27.45 L0.26,-27.45 0.26,27.45 -0.26,27.45  z" class="primitive"/>
              </g>
              <g transform="translate(46.37,58.85)" id="img-b32020e0-82">
                <path d="M-0.26,-29.48 L0.26,-29.48 0.26,29.48 -0.26,29.48  z" class="primitive"/>
              </g>
              <g transform="translate(46.85,62.91)" id="img-b32020e0-83">
                <path d="M-0.26,-25.41 L0.26,-25.41 0.26,25.41 -0.26,25.41  z" class="primitive"/>
              </g>
              <g transform="translate(47.33,73.08)" id="img-b32020e0-84">
                <path d="M-0.26,-15.25 L0.26,-15.25 0.26,15.25 -0.26,15.25  z" class="primitive"/>
              </g>
              <g transform="translate(47.81,73.08)" id="img-b32020e0-85">
                <path d="M-0.26,-15.25 L0.26,-15.25 0.26,15.25 -0.26,15.25  z" class="primitive"/>
              </g>
              <g transform="translate(48.29,60.88)" id="img-b32020e0-86">
                <path d="M-0.26,-27.45 L0.26,-27.45 0.26,27.45 -0.26,27.45  z" class="primitive"/>
              </g>
              <g transform="translate(48.76,60.88)" id="img-b32020e0-87">
                <path d="M-0.26,-27.45 L0.26,-27.45 0.26,27.45 -0.26,27.45  z" class="primitive"/>
              </g>
              <g transform="translate(49.24,73.08)" id="img-b32020e0-88">
                <path d="M-0.26,-15.25 L0.26,-15.25 0.26,15.25 -0.26,15.25  z" class="primitive"/>
              </g>
              <g transform="translate(49.72,65.96)" id="img-b32020e0-89">
                <path d="M-0.26,-22.36 L0.26,-22.36 0.26,22.36 -0.26,22.36  z" class="primitive"/>
              </g>
              <g transform="translate(50.2,76.13)" id="img-b32020e0-90">
                <path d="M-0.26,-12.2 L0.26,-12.2 0.26,12.2 -0.26,12.2  z" class="primitive"/>
              </g>
              <g transform="translate(50.68,75.11)" id="img-b32020e0-91">
                <path d="M-0.26,-13.22 L0.26,-13.22 0.26,13.22 -0.26,13.22  z" class="primitive"/>
              </g>
              <g transform="translate(51.15,71.04)" id="img-b32020e0-92">
                <path d="M-0.26,-17.28 L0.26,-17.28 0.26,17.28 -0.26,17.28  z" class="primitive"/>
              </g>
              <g transform="translate(51.63,69.01)" id="img-b32020e0-93">
                <path d="M-0.26,-19.32 L0.26,-19.32 0.26,19.32 -0.26,19.32  z" class="primitive"/>
              </g>
              <g transform="translate(52.11,78.16)" id="img-b32020e0-94">
                <path d="M-0.26,-10.17 L0.26,-10.17 0.26,10.17 -0.26,10.17  z" class="primitive"/>
              </g>
              <g transform="translate(52.59,76.13)" id="img-b32020e0-95">
                <path d="M-0.26,-12.2 L0.26,-12.2 0.26,12.2 -0.26,12.2  z" class="primitive"/>
              </g>
              <g transform="translate(53.06,76.13)" id="img-b32020e0-96">
                <path d="M-0.26,-12.2 L0.26,-12.2 0.26,12.2 -0.26,12.2  z" class="primitive"/>
              </g>
              <g transform="translate(53.54,74.09)" id="img-b32020e0-97">
                <path d="M-0.26,-14.23 L0.26,-14.23 0.26,14.23 -0.26,14.23  z" class="primitive"/>
              </g>
              <g transform="translate(54.02,70.03)" id="img-b32020e0-98">
                <path d="M-0.26,-18.3 L0.26,-18.3 0.26,18.3 -0.26,18.3  z" class="primitive"/>
              </g>
              <g transform="translate(54.5,70.03)" id="img-b32020e0-99">
                <path d="M-0.26,-18.3 L0.26,-18.3 0.26,18.3 -0.26,18.3  z" class="primitive"/>
              </g>
              <g transform="translate(54.98,80.19)" id="img-b32020e0-100">
                <path d="M-0.26,-8.13 L0.26,-8.13 0.26,8.13 -0.26,8.13  z" class="primitive"/>
              </g>
              <g transform="translate(55.45,78.16)" id="img-b32020e0-101">
                <path d="M-0.26,-10.17 L0.26,-10.17 0.26,10.17 -0.26,10.17  z" class="primitive"/>
              </g>
              <g transform="translate(55.93,80.19)" id="img-b32020e0-102">
                <path d="M-0.26,-8.13 L0.26,-8.13 0.26,8.13 -0.26,8.13  z" class="primitive"/>
              </g>
              <g transform="translate(56.41,76.13)" id="img-b32020e0-103">
                <path d="M-0.26,-12.2 L0.26,-12.2 0.26,12.2 -0.26,12.2  z" class="primitive"/>
              </g>
              <g transform="translate(56.89,82.23)" id="img-b32020e0-104">
                <path d="M-0.26,-6.1 L0.26,-6.1 0.26,6.1 -0.26,6.1  z" class="primitive"/>
              </g>
              <g transform="translate(57.37,80.19)" id="img-b32020e0-105">
                <path d="M-0.26,-8.13 L0.26,-8.13 0.26,8.13 -0.26,8.13  z" class="primitive"/>
              </g>
              <g transform="translate(57.84,85.28)" id="img-b32020e0-106">
                <path d="M-0.26,-3.05 L0.26,-3.05 0.26,3.05 -0.26,3.05  z" class="primitive"/>
              </g>
              <g transform="translate(58.32,79.18)" id="img-b32020e0-107">
                <path d="M-0.26,-9.15 L0.26,-9.15 0.26,9.15 -0.26,9.15  z" class="primitive"/>
              </g>
              <g transform="translate(58.8,85.28)" id="img-b32020e0-108">
                <path d="M-0.26,-3.05 L0.26,-3.05 0.26,3.05 -0.26,3.05  z" class="primitive"/>
              </g>
              <g transform="translate(59.28,84.26)" id="img-b32020e0-109">
                <path d="M-0.26,-4.07 L0.26,-4.07 0.26,4.07 -0.26,4.07  z" class="primitive"/>
              </g>
              <g transform="translate(59.76,81.21)" id="img-b32020e0-110">
                <path d="M-0.26,-7.12 L0.26,-7.12 0.26,7.12 -0.26,7.12  z" class="primitive"/>
              </g>
              <g transform="translate(60.23,85.28)" id="img-b32020e0-111">
                <path d="M-0.26,-3.05 L0.26,-3.05 0.26,3.05 -0.26,3.05  z" class="primitive"/>
              </g>
              <g transform="translate(60.71,86.29)" id="img-b32020e0-112">
                <path d="M-0.26,-2.03 L0.26,-2.03 0.26,2.03 -0.26,2.03  z" class="primitive"/>
              </g>
              <g transform="translate(61.19,87.31)" id="img-b32020e0-113">
                <path d="M-0.26,-1.02 L0.26,-1.02 0.26,1.02 -0.26,1.02  z" class="primitive"/>
              </g>
              <g transform="translate(61.67,80.19)" id="img-b32020e0-114">
                <path d="M-0.26,-8.13 L0.26,-8.13 0.26,8.13 -0.26,8.13  z" class="primitive"/>
              </g>
              <g transform="translate(62.14,80.19)" id="img-b32020e0-115">
                <path d="M-0.26,-8.13 L0.26,-8.13 0.26,8.13 -0.26,8.13  z" class="primitive"/>
              </g>
              <g transform="translate(62.62,85.28)" id="img-b32020e0-116">
                <path d="M-0.26,-3.05 L0.26,-3.05 0.26,3.05 -0.26,3.05  z" class="primitive"/>
              </g>
              <g transform="translate(63.1,88.33)" id="img-b32020e0-117">
                <path d="M-0.26,-0 L0.26,-0 0.26,0 -0.26,0  z" class="primitive"/>
              </g>
              <g transform="translate(63.58,85.28)" id="img-b32020e0-118">
                <path d="M-0.26,-3.05 L0.26,-3.05 0.26,3.05 -0.26,3.05  z" class="primitive"/>
              </g>
              <g transform="translate(64.06,87.31)" id="img-b32020e0-119">
                <path d="M-0.26,-1.02 L0.26,-1.02 0.26,1.02 -0.26,1.02  z" class="primitive"/>
              </g>
              <g transform="translate(64.53,86.29)" id="img-b32020e0-120">
                <path d="M-0.26,-2.03 L0.26,-2.03 0.26,2.03 -0.26,2.03  z" class="primitive"/>
              </g>
              <g transform="translate(65.01,87.31)" id="img-b32020e0-121">
                <path d="M-0.26,-1.02 L0.26,-1.02 0.26,1.02 -0.26,1.02  z" class="primitive"/>
              </g>
              <g transform="translate(65.49,86.29)" id="img-b32020e0-122">
                <path d="M-0.26,-2.03 L0.26,-2.03 0.26,2.03 -0.26,2.03  z" class="primitive"/>
              </g>
              <g transform="translate(65.97,87.31)" id="img-b32020e0-123">
                <path d="M-0.26,-1.02 L0.26,-1.02 0.26,1.02 -0.26,1.02  z" class="primitive"/>
              </g>
              <g transform="translate(66.45,88.33)" id="img-b32020e0-124">
                <path d="M-0.26,-0 L0.26,-0 0.26,0 -0.26,0  z" class="primitive"/>
              </g>
              <g transform="translate(66.92,85.28)" id="img-b32020e0-125">
                <path d="M-0.26,-3.05 L0.26,-3.05 0.26,3.05 -0.26,3.05  z" class="primitive"/>
              </g>
              <g transform="translate(67.4,86.29)" id="img-b32020e0-126">
                <path d="M-0.26,-2.03 L0.26,-2.03 0.26,2.03 -0.26,2.03  z" class="primitive"/>
              </g>
              <g transform="translate(67.88,88.33)" id="img-b32020e0-127">
                <path d="M-0.26,-0 L0.26,-0 0.26,0 -0.26,0  z" class="primitive"/>
              </g>
              <g transform="translate(68.36,88.33)" id="img-b32020e0-128">
                <path d="M-0.26,-0 L0.26,-0 0.26,0 -0.26,0  z" class="primitive"/>
              </g>
              <g transform="translate(68.83,88.33)" id="img-b32020e0-129">
                <path d="M-0.26,-0 L0.26,-0 0.26,0 -0.26,0  z" class="primitive"/>
              </g>
              <g transform="translate(69.31,87.31)" id="img-b32020e0-130">
                <path d="M-0.26,-1.02 L0.26,-1.02 0.26,1.02 -0.26,1.02  z" class="primitive"/>
              </g>
            </g>
          </g>
        </g>
      </g>
    </g>
  </g>
  <g class="guide ylabels" font-size="2.82" font-family="'PT Sans Caption','Helvetica Neue','Helvetica',sans-serif" fill="#6C606B" id="img-b32020e0-131">
    <g transform="translate(16.96,88.33)" id="img-b32020e0-132">
      <g class="primitive">
        <text text-anchor="end" dy="0.35em">0</text>
      </g>
    </g>
    <g transform="translate(16.96,68)" id="img-b32020e0-133">
      <g class="primitive">
        <text text-anchor="end" dy="0.35em">10</text>
      </g>
    </g>
    <g transform="translate(16.96,47.66)" id="img-b32020e0-134">
      <g class="primitive">
        <text text-anchor="end" dy="0.35em">20</text>
      </g>
    </g>
    <g transform="translate(16.96,27.33)" id="img-b32020e0-135">
      <g class="primitive">
        <text text-anchor="end" dy="0.35em">30</text>
      </g>
    </g>
    <g transform="translate(16.96,7)" id="img-b32020e0-136">
      <g class="primitive">
        <text text-anchor="end" dy="0.35em">40</text>
      </g>
    </g>
  </g>
  <g font-size="3.88" font-family="'PT Sans','Helvetica Neue','Helvetica',sans-serif" fill="#564A55" stroke="#000000" stroke-opacity="0.000" id="img-b32020e0-137">
    <g transform="translate(8.81,45.66)" id="img-b32020e0-138">
      <g class="primitive">
        <text text-anchor="middle" dy="0.35em" transform="rotate(-90,0, 2)">frequency</text>
      </g>
    </g>
  </g>
</g>
<defs>
  <clipPath id="img-b32020e0-11">
    <path d="M17.96,5 L87.64,5 87.64,90.33 17.96,90.33 " />
  </clipPath>
</defs>
</svg>
