<?xml version="1.0" encoding="UTF-8"?>
<svg xmlns="http://www.w3.org/2000/svg"
     xmlns:xlink="http://www.w3.org/1999/xlink"
     xmlns:gadfly="http://www.gadflyjl.org/ns"
     version="1.2"
     width="141.42mm" height="100mm" viewBox="0 0 141.42 100"
     stroke="none"
     fill="#000000"
     stroke-width="0.3"
     font-size="3.88"
>
<defs>
  <marker id="arrow" markerWidth="15" markerHeight="7" refX="5" refY="3.5" orient="auto" markerUnits="strokeWidth">
    <path d="M0,0 L15,3.5 L0,7 z" stroke="context-stroke" fill="context-stroke"/>
  </marker>
</defs>
<g class="plotroot xscalable yscalable" id="img-a3023580-1">
  <g class="guide xlabels" font-size="2.82" font-family="'PT Sans Caption','Helvetica Neue','Helvetica',sans-serif" fill="#6C606B" id="img-a3023580-2">
    <g transform="translate(19.96,91.33)">
      <g class="primitive">
        <text text-anchor="middle" dy="0.6em">0</text>
      </g>
    </g>
    <g transform="translate(32.34,91.33)">
      <g class="primitive">
        <text text-anchor="middle" dy="0.6em">5.0×10⁴</text>
      </g>
    </g>
    <g transform="translate(44.73,91.33)">
      <g class="primitive">
        <text text-anchor="middle" dy="0.6em">1.0×10⁵</text>
      </g>
    </g>
    <g transform="translate(57.12,91.33)">
      <g class="primitive">
        <text text-anchor="middle" dy="0.6em">1.5×10⁵</text>
      </g>
    </g>
    <g transform="translate(69.5,91.33)">
      <g class="primitive">
        <text text-anchor="middle" dy="0.6em">2.0×10⁵</text>
      </g>
    </g>
    <g transform="translate(81.89,91.33)">
      <g class="primitive">
        <text text-anchor="middle" dy="0.6em">2.5×10⁵</text>
      </g>
    </g>
  </g>
  <g class="guide colorkey" id="img-a3023580-3">
    <g class="color_coding_coding_noncoding_coding_4-star" id="img-a3023580-4">
      <g fill="#4C404B" font-size="2.82" font-family="'PT Sans','Helvetica Neue','Helvetica',sans-serif" id="img-a3023580-5">
        <g transform="translate(87.7,49.48)" id="img-a3023580-6">
          <g class="primitive">
            <text dy="0.35em">coding_coding_noncoding_coding_4-star</text>
          </g>
        </g>
      </g>
      <g fill-opacity="1" fill="#00BFFF" stroke="#FFFFFF" id="img-a3023580-7">
        <g transform="translate(85.79,49.48)" id="img-a3023580-8">
          <path d="M-0.91,-0.91 L 0.91 -0.91 0.91 0.91 -0.91 0.91 z" class="primitive"/>
        </g>
      </g>
    </g>
    <g fill="#362A35" font-size="3.88" font-family="'PT Sans','Helvetica Neue','Helvetica',sans-serif" stroke="#000000" stroke-opacity="0.000" id="img-a3023580-9">
      <g transform="translate(84.89,45.66)" id="img-a3023580-10">
        <g class="primitive">
          <text dy="-0em">graphlet</text>
        </g>
      </g>
    </g>
  </g>
  <g clip-path="url(#img-a3023580-11)">
    <g id="img-a3023580-12">
      <g pointer-events="visible" stroke-width="0.3" fill="#000000" fill-opacity="0.000" stroke="#000000" stroke-opacity="0.000" class="guide background" id="img-a3023580-13">
        <g transform="translate(50.92,47.66)" id="img-a3023580-14">
          <path d="M-32.96,-42.66 L 32.96 -42.66 32.96 42.66 -32.96 42.66 z" class="primitive"/>
        </g>
      </g>
      <g class="guide ygridlines xfixed" stroke-dasharray="0.5,0.5" stroke-width="0.2" stroke="#D0D0E0" id="img-a3023580-15">
        <g transform="translate(50.92,88.33)" id="img-a3023580-16">
          <path fill="none" d="M-32.96,0 L 32.96 0" class="primitive"/>
        </g>
        <g transform="translate(50.92,61.22)" id="img-a3023580-17">
          <path fill="none" d="M-32.96,0 L 32.96 0" class="primitive"/>
        </g>
        <g transform="translate(50.92,34.11)" id="img-a3023580-18">
          <path fill="none" d="M-32.96,0 L 32.96 0" class="primitive"/>
        </g>
        <g transform="translate(50.92,7)" id="img-a3023580-19">
          <path fill="none" d="M-32.96,0 L 32.96 0" class="primitive"/>
        </g>
      </g>
      <g class="guide xgridlines yfixed" stroke-dasharray="0.5,0.5" stroke-width="0.2" stroke="#D0D0E0" id="img-a3023580-20">
        <g transform="translate(19.96,47.66)" id="img-a3023580-21">
          <path fill="none" d="M0,-42.66 L 0 42.66" class="primitive"/>
        </g>
        <g transform="translate(32.34,47.66)" id="img-a3023580-22">
          <path fill="none" d="M0,-42.66 L 0 42.66" class="primitive"/>
        </g>
        <g transform="translate(44.73,47.66)" id="img-a3023580-23">
          <path fill="none" d="M0,-42.66 L 0 42.66" class="primitive"/>
        </g>
        <g transform="translate(57.12,47.66)" id="img-a3023580-24">
          <path fill="none" d="M0,-42.66 L 0 42.66" class="primitive"/>
        </g>
        <g transform="translate(69.5,47.66)" id="img-a3023580-25">
          <path fill="none" d="M0,-42.66 L 0 42.66" class="primitive"/>
        </g>
        <g transform="translate(81.89,47.66)" id="img-a3023580-26">
          <path fill="none" d="M0,-42.66 L 0 42.66" class="primitive"/>
        </g>
      </g>
      <g class="plotpanel" id="img-a3023580-27">
        <metadata>
          <boundingbox value="17.95833333333333mm 5.0mm 65.92968957064285mm 85.32666666666667mm"/>
          <unitbox value="-8073.6719894204025 30.737765390605787 266147.3439788408 -31.475530781211575"/>
        </metadata>
        <g shape-rendering="crispEdges" stroke-width="0.3" id="img-a3023580-28">
          <g stroke="#000000" stroke-opacity="0.000" class="geometry" id="img-a3023580-29">
            <g fill="#00BFFF" id="img-a3023580-30">
              <g transform="translate(20.54,85.62)" id="img-a3023580-31">
                <path d="M-0.28,-2.71 L 0.28 -2.71 0.28 2.71 -0.28 2.71 z" class="primitive"/>
              </g>
              <g transform="translate(21.05,88.33)" id="img-a3023580-32">
                <path d="M-0.28,-0 L 0.28 -0 0.28 0 -0.28 0 z" class="primitive"/>
              </g>
              <g transform="translate(21.57,88.33)" id="img-a3023580-33">
                <path d="M-0.28,-0 L 0.28 -0 0.28 0 -0.28 0 z" class="primitive"/>
              </g>
              <g transform="translate(22.08,84.26)" id="img-a3023580-34">
                <path d="M-0.28,-4.07 L 0.28 -4.07 0.28 4.07 -0.28 4.07 z" class="primitive"/>
              </g>
              <g transform="translate(22.59,85.62)" id="img-a3023580-35">
                <path d="M-0.28,-2.71 L 0.28 -2.71 0.28 2.71 -0.28 2.71 z" class="primitive"/>
              </g>
              <g transform="translate(23.11,88.33)" id="img-a3023580-36">
                <path d="M-0.28,-0 L 0.28 -0 0.28 0 -0.28 0 z" class="primitive"/>
              </g>
              <g transform="translate(23.62,80.19)" id="img-a3023580-37">
                <path d="M-0.28,-8.13 L 0.28 -8.13 0.28 8.13 -0.28 8.13 z" class="primitive"/>
              </g>
              <g transform="translate(24.13,81.55)" id="img-a3023580-38">
                <path d="M-0.28,-6.78 L 0.28 -6.78 0.28 6.78 -0.28 6.78 z" class="primitive"/>
              </g>
              <g transform="translate(24.65,80.19)" id="img-a3023580-39">
                <path d="M-0.28,-8.13 L 0.28 -8.13 0.28 8.13 -0.28 8.13 z" class="primitive"/>
              </g>
              <g transform="translate(25.16,84.26)" id="img-a3023580-40">
                <path d="M-0.28,-4.07 L 0.28 -4.07 0.28 4.07 -0.28 4.07 z" class="primitive"/>
              </g>
              <g transform="translate(25.67,74.77)" id="img-a3023580-41">
                <path d="M-0.28,-13.55 L 0.28 -13.55 0.28 13.55 -0.28 13.55 z" class="primitive"/>
              </g>
              <g transform="translate(26.18,80.19)" id="img-a3023580-42">
                <path d="M-0.28,-8.13 L 0.28 -8.13 0.28 8.13 -0.28 8.13 z" class="primitive"/>
              </g>
              <g transform="translate(26.7,76.13)" id="img-a3023580-43">
                <path d="M-0.28,-12.2 L 0.28 -12.2 0.28 12.2 -0.28 12.2 z" class="primitive"/>
              </g>
              <g transform="translate(27.21,77.48)" id="img-a3023580-44">
                <path d="M-0.28,-10.84 L 0.28 -10.84 0.28 10.84 -0.28 10.84 z" class="primitive"/>
              </g>
              <g transform="translate(27.72,78.84)" id="img-a3023580-45">
                <path d="M-0.28,-9.49 L 0.28 -9.49 0.28 9.49 -0.28 9.49 z" class="primitive"/>
              </g>
              <g transform="translate(28.24,68)" id="img-a3023580-46">
                <path d="M-0.28,-20.33 L 0.28 -20.33 0.28 20.33 -0.28 20.33 z" class="primitive"/>
              </g>
              <g transform="translate(28.75,70.71)" id="img-a3023580-47">
                <path d="M-0.28,-17.62 L 0.28 -17.62 0.28 17.62 -0.28 17.62 z" class="primitive"/>
              </g>
              <g transform="translate(29.26,63.93)" id="img-a3023580-48">
                <path d="M-0.28,-24.4 L 0.28 -24.4 0.28 24.4 -0.28 24.4 z" class="primitive"/>
              </g>
              <g transform="translate(29.77,74.77)" id="img-a3023580-49">
                <path d="M-0.28,-13.55 L 0.28 -13.55 0.28 13.55 -0.28 13.55 z" class="primitive"/>
              </g>
              <g transform="translate(30.29,73.42)" id="img-a3023580-50">
                <path d="M-0.28,-14.91 L 0.28 -14.91 0.28 14.91 -0.28 14.91 z" class="primitive"/>
              </g>
              <g transform="translate(30.8,59.86)" id="img-a3023580-51">
                <path d="M-0.28,-28.46 L 0.28 -28.46 0.28 28.46 -0.28 28.46 z" class="primitive"/>
              </g>
              <g transform="translate(31.31,62.57)" id="img-a3023580-52">
                <path d="M-0.28,-25.75 L 0.28 -25.75 0.28 25.75 -0.28 25.75 z" class="primitive"/>
              </g>
              <g transform="translate(31.83,58.51)" id="img-a3023580-53">
                <path d="M-0.28,-29.82 L 0.28 -29.82 0.28 29.82 -0.28 29.82 z" class="primitive"/>
              </g>
              <g transform="translate(32.34,54.44)" id="img-a3023580-54">
                <path d="M-0.28,-33.89 L 0.28 -33.89 0.28 33.89 -0.28 33.89 z" class="primitive"/>
              </g>
              <g transform="translate(32.85,59.86)" id="img-a3023580-55">
                <path d="M-0.28,-28.46 L 0.28 -28.46 0.28 28.46 -0.28 28.46 z" class="primitive"/>
              </g>
              <g transform="translate(33.36,62.57)" id="img-a3023580-56">
                <path d="M-0.28,-25.75 L 0.28 -25.75 0.28 25.75 -0.28 25.75 z" class="primitive"/>
              </g>
              <g transform="translate(33.88,68)" id="img-a3023580-57">
                <path d="M-0.28,-20.33 L 0.28 -20.33 0.28 20.33 -0.28 20.33 z" class="primitive"/>
              </g>
              <g transform="translate(34.39,62.57)" id="img-a3023580-58">
                <path d="M-0.28,-25.75 L 0.28 -25.75 0.28 25.75 -0.28 25.75 z" class="primitive"/>
              </g>
              <g transform="translate(34.9,51.73)" id="img-a3023580-59">
                <path d="M-0.28,-36.6 L 0.28 -36.6 0.28 36.6 -0.28 36.6 z" class="primitive"/>
              </g>
              <g transform="translate(35.42,55.8)" id="img-a3023580-60">
                <path d="M-0.28,-32.53 L 0.28 -32.53 0.28 32.53 -0.28 32.53 z" class="primitive"/>
              </g>
              <g transform="translate(35.93,59.86)" id="img-a3023580-61">
                <path d="M-0.28,-28.46 L 0.28 -28.46 0.28 28.46 -0.28 28.46 z" class="primitive"/>
              </g>
              <g transform="translate(36.44,63.93)" id="img-a3023580-62">
                <path d="M-0.28,-24.4 L 0.28 -24.4 0.28 24.4 -0.28 24.4 z" class="primitive"/>
              </g>
              <g transform="translate(36.95,62.57)" id="img-a3023580-63">
                <path d="M-0.28,-25.75 L 0.28 -25.75 0.28 25.75 -0.28 25.75 z" class="primitive"/>
              </g>
              <g transform="translate(37.47,50.37)" id="img-a3023580-64">
                <path d="M-0.28,-37.95 L 0.28 -37.95 0.28 37.95 -0.28 37.95 z" class="primitive"/>
              </g>
              <g transform="translate(37.98,65.28)" id="img-a3023580-65">
                <path d="M-0.28,-23.04 L 0.28 -23.04 0.28 23.04 -0.28 23.04 z" class="primitive"/>
              </g>
              <g transform="translate(38.49,55.8)" id="img-a3023580-66">
                <path d="M-0.28,-32.53 L 0.28 -32.53 0.28 32.53 -0.28 32.53 z" class="primitive"/>
              </g>
              <g transform="translate(39.01,58.51)" id="img-a3023580-67">
                <path d="M-0.28,-29.82 L 0.28 -29.82 0.28 29.82 -0.28 29.82 z" class="primitive"/>
              </g>
              <g transform="translate(39.52,57.15)" id="img-a3023580-68">
                <path d="M-0.28,-31.18 L 0.28 -31.18 0.28 31.18 -0.28 31.18 z" class="primitive"/>
              </g>
              <g transform="translate(40.03,50.37)" id="img-a3023580-69">
                <path d="M-0.28,-37.95 L 0.28 -37.95 0.28 37.95 -0.28 37.95 z" class="primitive"/>
              </g>
              <g transform="translate(40.55,59.86)" id="img-a3023580-70">
                <path d="M-0.28,-28.46 L 0.28 -28.46 0.28 28.46 -0.28 28.46 z" class="primitive"/>
              </g>
              <g transform="translate(41.06,54.44)" id="img-a3023580-71">
                <path d="M-0.28,-33.89 L 0.28 -33.89 0.28 33.89 -0.28 33.89 z" class="primitive"/>
              </g>
              <g transform="translate(41.57,53.09)" id="img-a3023580-72">
                <path d="M-0.28,-35.24 L 0.28 -35.24 0.28 35.24 -0.28 35.24 z" class="primitive"/>
              </g>
              <g transform="translate(42.08,66.64)" id="img-a3023580-73">
                <path d="M-0.28,-21.69 L 0.28 -21.69 0.28 21.69 -0.28 21.69 z" class="primitive"/>
              </g>
              <g transform="translate(42.6,57.15)" id="img-a3023580-74">
                <path d="M-0.28,-31.18 L 0.28 -31.18 0.28 31.18 -0.28 31.18 z" class="primitive"/>
              </g>
              <g transform="translate(43.11,61.22)" id="img-a3023580-75">
                <path d="M-0.28,-27.11 L 0.28 -27.11 0.28 27.11 -0.28 27.11 z" class="primitive"/>
              </g>
              <g transform="translate(43.62,68)" id="img-a3023580-76">
                <path d="M-0.28,-20.33 L 0.28 -20.33 0.28 20.33 -0.28 20.33 z" class="primitive"/>
              </g>
              <g transform="translate(44.14,66.64)" id="img-a3023580-77">
                <path d="M-0.28,-21.69 L 0.28 -21.69 0.28 21.69 -0.28 21.69 z" class="primitive"/>
              </g>
              <g transform="translate(44.65,63.93)" id="img-a3023580-78">
                <path d="M-0.28,-24.4 L 0.28 -24.4 0.28 24.4 -0.28 24.4 z" class="primitive"/>
              </g>
              <g transform="translate(45.16,59.86)" id="img-a3023580-79">
                <path d="M-0.28,-28.46 L 0.28 -28.46 0.28 28.46 -0.28 28.46 z" class="primitive"/>
              </g>
              <g transform="translate(45.67,72.06)" id="img-a3023580-80">
                <path d="M-0.28,-16.27 L 0.28 -16.27 0.28 16.27 -0.28 16.27 z" class="primitive"/>
              </g>
              <g transform="translate(46.19,68)" id="img-a3023580-81">
                <path d="M-0.28,-20.33 L 0.28 -20.33 0.28 20.33 -0.28 20.33 z" class="primitive"/>
              </g>
              <g transform="translate(46.7,66.64)" id="img-a3023580-82">
                <path d="M-0.28,-21.69 L 0.28 -21.69 0.28 21.69 -0.28 21.69 z" class="primitive"/>
              </g>
              <g transform="translate(47.21,65.28)" id="img-a3023580-83">
                <path d="M-0.28,-23.04 L 0.28 -23.04 0.28 23.04 -0.28 23.04 z" class="primitive"/>
              </g>
              <g transform="translate(47.73,73.42)" id="img-a3023580-84">
                <path d="M-0.28,-14.91 L 0.28 -14.91 0.28 14.91 -0.28 14.91 z" class="primitive"/>
              </g>
              <g transform="translate(48.24,63.93)" id="img-a3023580-85">
                <path d="M-0.28,-24.4 L 0.28 -24.4 0.28 24.4 -0.28 24.4 z" class="primitive"/>
              </g>
              <g transform="translate(48.75,73.42)" id="img-a3023580-86">
                <path d="M-0.28,-14.91 L 0.28 -14.91 0.28 14.91 -0.28 14.91 z" class="primitive"/>
              </g>
              <g transform="translate(49.26,73.42)" id="img-a3023580-87">
                <path d="M-0.28,-14.91 L 0.28 -14.91 0.28 14.91 -0.28 14.91 z" class="primitive"/>
              </g>
              <g transform="translate(49.78,70.71)" id="img-a3023580-88">
                <path d="M-0.28,-17.62 L 0.28 -17.62 0.28 17.62 -0.28 17.62 z" class="primitive"/>
              </g>
              <g transform="translate(50.29,73.42)" id="img-a3023580-89">
                <path d="M-0.28,-14.91 L 0.28 -14.91 0.28 14.91 -0.28 14.91 z" class="primitive"/>
              </g>
              <g transform="translate(50.8,72.06)" id="img-a3023580-90">
                <path d="M-0.28,-16.27 L 0.28 -16.27 0.28 16.27 -0.28 16.27 z" class="primitive"/>
              </g>
              <g transform="translate(51.32,73.42)" id="img-a3023580-91">
                <path d="M-0.28,-14.91 L 0.28 -14.91 0.28 14.91 -0.28 14.91 z" class="primitive"/>
              </g>
              <g transform="translate(51.83,80.19)" id="img-a3023580-92">
                <path d="M-0.28,-8.13 L 0.28 -8.13 0.28 8.13 -0.28 8.13 z" class="primitive"/>
              </g>
              <g transform="translate(52.34,81.55)" id="img-a3023580-93">
                <path d="M-0.28,-6.78 L 0.28 -6.78 0.28 6.78 -0.28 6.78 z" class="primitive"/>
              </g>
              <g transform="translate(52.85,81.55)" id="img-a3023580-94">
                <path d="M-0.28,-6.78 L 0.28 -6.78 0.28 6.78 -0.28 6.78 z" class="primitive"/>
              </g>
              <g transform="translate(53.37,82.9)" id="img-a3023580-95">
                <path d="M-0.28,-5.42 L 0.28 -5.42 0.28 5.42 -0.28 5.42 z" class="primitive"/>
              </g>
              <g transform="translate(53.88,76.13)" id="img-a3023580-96">
                <path d="M-0.28,-12.2 L 0.28 -12.2 0.28 12.2 -0.28 12.2 z" class="primitive"/>
              </g>
              <g transform="translate(54.39,82.9)" id="img-a3023580-97">
                <path d="M-0.28,-5.42 L 0.28 -5.42 0.28 5.42 -0.28 5.42 z" class="primitive"/>
              </g>
              <g transform="translate(54.91,81.55)" id="img-a3023580-98">
                <path d="M-0.28,-6.78 L 0.28 -6.78 0.28 6.78 -0.28 6.78 z" class="primitive"/>
              </g>
              <g transform="translate(55.42,82.9)" id="img-a3023580-99">
                <path d="M-0.28,-5.42 L 0.28 -5.42 0.28 5.42 -0.28 5.42 z" class="primitive"/>
              </g>
              <g transform="translate(55.93,78.84)" id="img-a3023580-100">
                <path d="M-0.28,-9.49 L 0.28 -9.49 0.28 9.49 -0.28 9.49 z" class="primitive"/>
              </g>
              <g transform="translate(56.45,82.9)" id="img-a3023580-101">
                <path d="M-0.28,-5.42 L 0.28 -5.42 0.28 5.42 -0.28 5.42 z" class="primitive"/>
              </g>
              <g transform="translate(56.96,82.9)" id="img-a3023580-102">
                <path d="M-0.28,-5.42 L 0.28 -5.42 0.28 5.42 -0.28 5.42 z" class="primitive"/>
              </g>
              <g transform="translate(57.47,85.62)" id="img-a3023580-103">
                <path d="M-0.28,-2.71 L 0.28 -2.71 0.28 2.71 -0.28 2.71 z" class="primitive"/>
              </g>
              <g transform="translate(57.98,84.26)" id="img-a3023580-104">
                <path d="M-0.28,-4.07 L 0.28 -4.07 0.28 4.07 -0.28 4.07 z" class="primitive"/>
              </g>
              <g transform="translate(58.5,85.62)" id="img-a3023580-105">
                <path d="M-0.28,-2.71 L 0.28 -2.71 0.28 2.71 -0.28 2.71 z" class="primitive"/>
              </g>
              <g transform="translate(59.01,81.55)" id="img-a3023580-106">
                <path d="M-0.28,-6.78 L 0.28 -6.78 0.28 6.78 -0.28 6.78 z" class="primitive"/>
              </g>
              <g transform="translate(59.52,88.33)" id="img-a3023580-107">
                <path d="M-0.28,-0 L 0.28 -0 0.28 0 -0.28 0 z" class="primitive"/>
              </g>
              <g transform="translate(60.04,82.9)" id="img-a3023580-108">
                <path d="M-0.28,-5.42 L 0.28 -5.42 0.28 5.42 -0.28 5.42 z" class="primitive"/>
              </g>
              <g transform="translate(60.55,85.62)" id="img-a3023580-109">
                <path d="M-0.28,-2.71 L 0.28 -2.71 0.28 2.71 -0.28 2.71 z" class="primitive"/>
              </g>
              <g transform="translate(61.06,86.97)" id="img-a3023580-110">
                <path d="M-0.28,-1.36 L 0.28 -1.36 0.28 1.36 -0.28 1.36 z" class="primitive"/>
              </g>
              <g transform="translate(61.57,86.97)" id="img-a3023580-111">
                <path d="M-0.28,-1.36 L 0.28 -1.36 0.28 1.36 -0.28 1.36 z" class="primitive"/>
              </g>
              <g transform="translate(62.09,88.33)" id="img-a3023580-112">
                <path d="M-0.28,-0 L 0.28 -0 0.28 0 -0.28 0 z" class="primitive"/>
              </g>
              <g transform="translate(62.6,85.62)" id="img-a3023580-113">
                <path d="M-0.28,-2.71 L 0.28 -2.71 0.28 2.71 -0.28 2.71 z" class="primitive"/>
              </g>
              <g transform="translate(63.11,86.97)" id="img-a3023580-114">
                <path d="M-0.28,-1.36 L 0.28 -1.36 0.28 1.36 -0.28 1.36 z" class="primitive"/>
              </g>
              <g transform="translate(63.63,86.97)" id="img-a3023580-115">
                <path d="M-0.28,-1.36 L 0.28 -1.36 0.28 1.36 -0.28 1.36 z" class="primitive"/>
              </g>
              <g transform="translate(64.14,86.97)" id="img-a3023580-116">
                <path d="M-0.28,-1.36 L 0.28 -1.36 0.28 1.36 -0.28 1.36 z" class="primitive"/>
              </g>
              <g transform="translate(64.65,88.33)" id="img-a3023580-117">
                <path d="M-0.28,-0 L 0.28 -0 0.28 0 -0.28 0 z" class="primitive"/>
              </g>
              <g transform="translate(65.16,85.62)" id="img-a3023580-118">
                <path d="M-0.28,-2.71 L 0.28 -2.71 0.28 2.71 -0.28 2.71 z" class="primitive"/>
              </g>
              <g transform="translate(65.68,85.62)" id="img-a3023580-119">
                <path d="M-0.28,-2.71 L 0.28 -2.71 0.28 2.71 -0.28 2.71 z" class="primitive"/>
              </g>
              <g transform="translate(66.19,88.33)" id="img-a3023580-120">
                <path d="M-0.28,-0 L 0.28 -0 0.28 0 -0.28 0 z" class="primitive"/>
              </g>
              <g transform="translate(66.7,81.55)" id="img-a3023580-121">
                <path d="M-0.28,-6.78 L 0.28 -6.78 0.28 6.78 -0.28 6.78 z" class="primitive"/>
              </g>
              <g transform="translate(67.22,88.33)" id="img-a3023580-122">
                <path d="M-0.28,-0 L 0.28 -0 0.28 0 -0.28 0 z" class="primitive"/>
              </g>
              <g transform="translate(67.73,88.33)" id="img-a3023580-123">
                <path d="M-0.28,-0 L 0.28 -0 0.28 0 -0.28 0 z" class="primitive"/>
              </g>
              <g transform="translate(68.24,86.97)" id="img-a3023580-124">
                <path d="M-0.28,-1.36 L 0.28 -1.36 0.28 1.36 -0.28 1.36 z" class="primitive"/>
              </g>
              <g transform="translate(68.75,88.33)" id="img-a3023580-125">
                <path d="M-0.28,-0 L 0.28 -0 0.28 0 -0.28 0 z" class="primitive"/>
              </g>
              <g transform="translate(69.27,85.62)" id="img-a3023580-126">
                <path d="M-0.28,-2.71 L 0.28 -2.71 0.28 2.71 -0.28 2.71 z" class="primitive"/>
              </g>
              <g transform="translate(69.78,88.33)" id="img-a3023580-127">
                <path d="M-0.28,-0 L 0.28 -0 0.28 0 -0.28 0 z" class="primitive"/>
              </g>
              <g transform="translate(70.29,88.33)" id="img-a3023580-128">
                <path d="M-0.28,-0 L 0.28 -0 0.28 0 -0.28 0 z" class="primitive"/>
              </g>
              <g transform="translate(70.81,88.33)" id="img-a3023580-129">
                <path d="M-0.28,-0 L 0.28 -0 0.28 0 -0.28 0 z" class="primitive"/>
              </g>
              <g transform="translate(71.32,86.97)" id="img-a3023580-130">
                <path d="M-0.28,-1.36 L 0.28 -1.36 0.28 1.36 -0.28 1.36 z" class="primitive"/>
              </g>
            </g>
          </g>
        </g>
      </g>
    </g>
  </g>
  <g class="guide ylabels" font-size="2.82" font-family="'PT Sans Caption','Helvetica Neue','Helvetica',sans-serif" fill="#6C606B" id="img-a3023580-131">
    <g transform="translate(16.96,88.33)" id="img-a3023580-132">
      <g class="primitive">
        <text text-anchor="end" dy="0.35em">0</text>
      </g>
    </g>
    <g transform="translate(16.96,61.22)" id="img-a3023580-133">
      <g class="primitive">
        <text text-anchor="end" dy="0.35em">10</text>
      </g>
    </g>
    <g transform="translate(16.96,34.11)" id="img-a3023580-134">
      <g class="primitive">
        <text text-anchor="end" dy="0.35em">20</text>
      </g>
    </g>
    <g transform="translate(16.96,7)" id="img-a3023580-135">
      <g class="primitive">
        <text text-anchor="end" dy="0.35em">30</text>
      </g>
    </g>
  </g>
  <g font-size="3.88" font-family="'PT Sans','Helvetica Neue','Helvetica',sans-serif" fill="#564A55" stroke="#000000" stroke-opacity="0.000" id="img-a3023580-136">
    <g transform="translate(8.81,45.66)" id="img-a3023580-137">
      <g class="primitive">
        <text text-anchor="middle" dy="0.35em" transform="rotate(-90,0, 2)">frequency</text>
      </g>
    </g>
  </g>
</g>
<defs>
  <clipPath id="img-a3023580-11">
    <path d="M17.96,5 L 83.89 5 83.89 90.33 17.96 90.33" />
  </clipPath>
</defs>
</svg>
