<?xml version="1.0" encoding="UTF-8"?>
<svg xmlns="http://www.w3.org/2000/svg"
     xmlns:xlink="http://www.w3.org/1999/xlink"
     xmlns:gadfly="http://www.gadflyjl.org/ns"
     version="1.2"
     width="141.42mm" height="100mm" viewBox="0 0 141.42 100"
     stroke="none"
     fill="#000000"
     stroke-width="0.3"
     font-size="3.88"
>
<defs>
  <marker id="arrow" markerWidth="15" markerHeight="7" refX="5" refY="3.5" orient="auto" markerUnits="strokeWidth">
    <path d="M0,0 L15,3.5 L0,7 z" stroke="context-stroke" fill="context-stroke"/>
  </marker>
</defs>
<g class="plotroot xscalable yscalable" id="img-662d38cb-1">
  <g class="guide xlabels" font-size="2.82" font-family="'PT Sans Caption','Helvetica Neue','Helvetica',sans-serif" fill="#6C606B" id="img-662d38cb-2">
    <g transform="translate(19.96,80.21)">
      <g class="primitive">
        <text text-anchor="end" dy="0.35em" transform="rotate(-90,0, 0)">1.80×10⁵</text>
      </g>
    </g>
    <g transform="translate(34.01,80.21)">
      <g class="primitive">
        <text text-anchor="end" dy="0.35em" transform="rotate(-90,0, 0)">1.85×10⁵</text>
      </g>
    </g>
    <g transform="translate(48.07,80.21)">
      <g class="primitive">
        <text text-anchor="end" dy="0.35em" transform="rotate(-90,0, 0)">1.90×10⁵</text>
      </g>
    </g>
    <g transform="translate(62.12,80.21)">
      <g class="primitive">
        <text text-anchor="end" dy="0.35em" transform="rotate(-90,0, 0)">1.95×10⁵</text>
      </g>
    </g>
    <g transform="translate(76.18,80.21)">
      <g class="primitive">
        <text text-anchor="end" dy="0.35em" transform="rotate(-90,0, 0)">2.00×10⁵</text>
      </g>
    </g>
    <g transform="translate(90.23,80.21)">
      <g class="primitive">
        <text text-anchor="end" dy="0.35em" transform="rotate(-90,0, 0)">2.05×10⁵</text>
      </g>
    </g>
  </g>
  <g class="guide colorkey" id="img-662d38cb-3">
    <g class="color_coding_coding_noncoding_3-path" id="img-662d38cb-4">
      <g fill="#4C404B" font-size="2.82" font-family="'PT Sans','Helvetica Neue','Helvetica',sans-serif" id="img-662d38cb-5">
        <g transform="translate(96.05,43.92)" id="img-662d38cb-6">
          <g class="primitive">
            <text dy="0.35em">coding_coding_noncoding_3-path</text>
          </g>
        </g>
      </g>
      <g fill-opacity="1" fill="#00BFFF" stroke="#FFFFFF" id="img-662d38cb-7">
        <g transform="translate(94.14,43.92)" id="img-662d38cb-8">
          <path d="M-0.91,-0.91 L 0.91 -0.91 0.91 0.91 -0.91 0.91 z" class="primitive"/>
        </g>
      </g>
    </g>
    <g fill="#362A35" font-size="3.88" font-family="'PT Sans','Helvetica Neue','Helvetica',sans-serif" stroke="#000000" stroke-opacity="0.000" id="img-662d38cb-9">
      <g transform="translate(93.23,40.1)" id="img-662d38cb-10">
        <g class="primitive">
          <text dy="-0em">graphlet</text>
        </g>
      </g>
    </g>
  </g>
  <g clip-path="url(#img-662d38cb-11)">
    <g id="img-662d38cb-12">
      <g pointer-events="visible" stroke-width="0.3" fill="#000000" fill-opacity="0.000" stroke="#000000" stroke-opacity="0.000" class="guide background" id="img-662d38cb-13">
        <g transform="translate(55.1,42.11)" id="img-662d38cb-14">
          <path d="M-37.14,-37.11 L 37.14 -37.11 37.14 37.11 -37.14 37.11 z" class="primitive"/>
        </g>
      </g>
      <g class="guide ygridlines xfixed" stroke-dasharray="0.5,0.5" stroke-width="0.2" stroke="#D0D0E0" id="img-662d38cb-15">
        <g transform="translate(55.1,77.21)" id="img-662d38cb-16">
          <path fill="none" d="M-37.14,0 L 37.14 0" class="primitive"/>
        </g>
        <g transform="translate(55.1,59.66)" id="img-662d38cb-17">
          <path fill="none" d="M-37.14,0 L 37.14 0" class="primitive"/>
        </g>
        <g transform="translate(55.1,42.11)" id="img-662d38cb-18">
          <path fill="none" d="M-37.14,0 L 37.14 0" class="primitive"/>
        </g>
        <g transform="translate(55.1,24.55)" id="img-662d38cb-19">
          <path fill="none" d="M-37.14,0 L 37.14 0" class="primitive"/>
        </g>
        <g transform="translate(55.1,7)" id="img-662d38cb-20">
          <path fill="none" d="M-37.14,0 L 37.14 0" class="primitive"/>
        </g>
      </g>
      <g class="guide xgridlines yfixed" stroke-dasharray="0.5,0.5" stroke-width="0.2" stroke="#D0D0E0" id="img-662d38cb-21">
        <g transform="translate(19.96,42.11)" id="img-662d38cb-22">
          <path fill="none" d="M0,-37.11 L 0 37.11" class="primitive"/>
        </g>
        <g transform="translate(34.01,42.11)" id="img-662d38cb-23">
          <path fill="none" d="M0,-37.11 L 0 37.11" class="primitive"/>
        </g>
        <g transform="translate(48.07,42.11)" id="img-662d38cb-24">
          <path fill="none" d="M0,-37.11 L 0 37.11" class="primitive"/>
        </g>
        <g transform="translate(62.12,42.11)" id="img-662d38cb-25">
          <path fill="none" d="M0,-37.11 L 0 37.11" class="primitive"/>
        </g>
        <g transform="translate(76.18,42.11)" id="img-662d38cb-26">
          <path fill="none" d="M0,-37.11 L 0 37.11" class="primitive"/>
        </g>
        <g transform="translate(90.23,42.11)" id="img-662d38cb-27">
          <path fill="none" d="M0,-37.11 L 0 37.11" class="primitive"/>
        </g>
      </g>
      <g class="plotpanel" id="img-662d38cb-28">
        <metadata>
          <boundingbox value="17.95833333333333mm 5.0mm 74.2763562373095mm 74.21333333333334mm"/>
          <unitbox value="179288.52315804252 41.13938473224459 26422.953683914962 -42.27876946448917"/>
        </metadata>
        <g shape-rendering="crispEdges" stroke-width="0.3" id="img-662d38cb-29">
          <g stroke="#000000" stroke-opacity="0.000" class="geometry" id="img-662d38cb-30">
            <g fill="#00BFFF" id="img-662d38cb-31">
              <g transform="translate(21.74,76.34)" id="img-662d38cb-32">
                <path d="M-0.34,-0.88 L 0.34 -0.88 0.34 0.88 -0.34 0.88 z" class="primitive"/>
              </g>
              <g transform="translate(22.38,77.22)" id="img-662d38cb-33">
                <path d="M-0.34,-0 L 0.34 -0 0.34 0 -0.34 0 z" class="primitive"/>
              </g>
              <g transform="translate(23.02,76.34)" id="img-662d38cb-34">
                <path d="M-0.34,-0.88 L 0.34 -0.88 0.34 0.88 -0.34 0.88 z" class="primitive"/>
              </g>
              <g transform="translate(23.66,77.22)" id="img-662d38cb-35">
                <path d="M-0.34,-0 L 0.34 -0 0.34 0 -0.34 0 z" class="primitive"/>
              </g>
              <g transform="translate(24.3,74.58)" id="img-662d38cb-36">
                <path d="M-0.34,-2.63 L 0.34 -2.63 0.34 2.63 -0.34 2.63 z" class="primitive"/>
              </g>
              <g transform="translate(24.94,77.22)" id="img-662d38cb-37">
                <path d="M-0.34,-0 L 0.34 -0 0.34 0 -0.34 0 z" class="primitive"/>
              </g>
              <g transform="translate(25.58,77.22)" id="img-662d38cb-38">
                <path d="M-0.34,-0 L 0.34 -0 0.34 0 -0.34 0 z" class="primitive"/>
              </g>
              <g transform="translate(26.22,77.22)" id="img-662d38cb-39">
                <path d="M-0.34,-0 L 0.34 -0 0.34 0 -0.34 0 z" class="primitive"/>
              </g>
              <g transform="translate(26.86,74.58)" id="img-662d38cb-40">
                <path d="M-0.34,-2.63 L 0.34 -2.63 0.34 2.63 -0.34 2.63 z" class="primitive"/>
              </g>
              <g transform="translate(27.5,77.22)" id="img-662d38cb-41">
                <path d="M-0.34,-0 L 0.34 -0 0.34 0 -0.34 0 z" class="primitive"/>
              </g>
              <g transform="translate(28.14,76.34)" id="img-662d38cb-42">
                <path d="M-0.34,-0.88 L 0.34 -0.88 0.34 0.88 -0.34 0.88 z" class="primitive"/>
              </g>
              <g transform="translate(28.78,76.34)" id="img-662d38cb-43">
                <path d="M-0.34,-0.88 L 0.34 -0.88 0.34 0.88 -0.34 0.88 z" class="primitive"/>
              </g>
              <g transform="translate(29.41,76.34)" id="img-662d38cb-44">
                <path d="M-0.34,-0.88 L 0.34 -0.88 0.34 0.88 -0.34 0.88 z" class="primitive"/>
              </g>
              <g transform="translate(30.05,75.46)" id="img-662d38cb-45">
                <path d="M-0.34,-1.76 L 0.34 -1.76 0.34 1.76 -0.34 1.76 z" class="primitive"/>
              </g>
              <g transform="translate(30.69,75.46)" id="img-662d38cb-46">
                <path d="M-0.34,-1.76 L 0.34 -1.76 0.34 1.76 -0.34 1.76 z" class="primitive"/>
              </g>
              <g transform="translate(31.33,72.82)" id="img-662d38cb-47">
                <path d="M-0.34,-4.39 L 0.34 -4.39 0.34 4.39 -0.34 4.39 z" class="primitive"/>
              </g>
              <g transform="translate(31.97,75.46)" id="img-662d38cb-48">
                <path d="M-0.34,-1.76 L 0.34 -1.76 0.34 1.76 -0.34 1.76 z" class="primitive"/>
              </g>
              <g transform="translate(32.61,75.46)" id="img-662d38cb-49">
                <path d="M-0.34,-1.76 L 0.34 -1.76 0.34 1.76 -0.34 1.76 z" class="primitive"/>
              </g>
              <g transform="translate(33.25,71.95)" id="img-662d38cb-50">
                <path d="M-0.34,-5.27 L 0.34 -5.27 0.34 5.27 -0.34 5.27 z" class="primitive"/>
              </g>
              <g transform="translate(33.89,74.58)" id="img-662d38cb-51">
                <path d="M-0.34,-2.63 L 0.34 -2.63 0.34 2.63 -0.34 2.63 z" class="primitive"/>
              </g>
              <g transform="translate(34.53,76.34)" id="img-662d38cb-52">
                <path d="M-0.34,-0.88 L 0.34 -0.88 0.34 0.88 -0.34 0.88 z" class="primitive"/>
              </g>
              <g transform="translate(35.17,71.07)" id="img-662d38cb-53">
                <path d="M-0.34,-6.14 L 0.34 -6.14 0.34 6.14 -0.34 6.14 z" class="primitive"/>
              </g>
              <g transform="translate(35.81,71.95)" id="img-662d38cb-54">
                <path d="M-0.34,-5.27 L 0.34 -5.27 0.34 5.27 -0.34 5.27 z" class="primitive"/>
              </g>
              <g transform="translate(36.45,71.95)" id="img-662d38cb-55">
                <path d="M-0.34,-5.27 L 0.34 -5.27 0.34 5.27 -0.34 5.27 z" class="primitive"/>
              </g>
              <g transform="translate(37.09,68.44)" id="img-662d38cb-56">
                <path d="M-0.34,-8.78 L 0.34 -8.78 0.34 8.78 -0.34 8.78 z" class="primitive"/>
              </g>
              <g transform="translate(37.73,70.19)" id="img-662d38cb-57">
                <path d="M-0.34,-7.02 L 0.34 -7.02 0.34 7.02 -0.34 7.02 z" class="primitive"/>
              </g>
              <g transform="translate(38.37,64.93)" id="img-662d38cb-58">
                <path d="M-0.34,-12.29 L 0.34 -12.29 0.34 12.29 -0.34 12.29 z" class="primitive"/>
              </g>
              <g transform="translate(39,71.07)" id="img-662d38cb-59">
                <path d="M-0.34,-6.14 L 0.34 -6.14 0.34 6.14 -0.34 6.14 z" class="primitive"/>
              </g>
              <g transform="translate(39.64,64.93)" id="img-662d38cb-60">
                <path d="M-0.34,-12.29 L 0.34 -12.29 0.34 12.29 -0.34 12.29 z" class="primitive"/>
              </g>
              <g transform="translate(40.28,68.44)" id="img-662d38cb-61">
                <path d="M-0.34,-8.78 L 0.34 -8.78 0.34 8.78 -0.34 8.78 z" class="primitive"/>
              </g>
              <g transform="translate(40.92,68.44)" id="img-662d38cb-62">
                <path d="M-0.34,-8.78 L 0.34 -8.78 0.34 8.78 -0.34 8.78 z" class="primitive"/>
              </g>
              <g transform="translate(41.56,52.64)" id="img-662d38cb-63">
                <path d="M-0.34,-24.57 L 0.34 -24.57 0.34 24.57 -0.34 24.57 z" class="primitive"/>
              </g>
              <g transform="translate(42.2,57.03)" id="img-662d38cb-64">
                <path d="M-0.34,-20.19 L 0.34 -20.19 0.34 20.19 -0.34 20.19 z" class="primitive"/>
              </g>
              <g transform="translate(42.84,65.8)" id="img-662d38cb-65">
                <path d="M-0.34,-11.41 L 0.34 -11.41 0.34 11.41 -0.34 11.41 z" class="primitive"/>
              </g>
              <g transform="translate(43.48,66.68)" id="img-662d38cb-66">
                <path d="M-0.34,-10.53 L 0.34 -10.53 0.34 10.53 -0.34 10.53 z" class="primitive"/>
              </g>
              <g transform="translate(44.12,65.8)" id="img-662d38cb-67">
                <path d="M-0.34,-11.41 L 0.34 -11.41 0.34 11.41 -0.34 11.41 z" class="primitive"/>
              </g>
              <g transform="translate(44.76,56.15)" id="img-662d38cb-68">
                <path d="M-0.34,-21.06 L 0.34 -21.06 0.34 21.06 -0.34 21.06 z" class="primitive"/>
              </g>
              <g transform="translate(45.4,60.54)" id="img-662d38cb-69">
                <path d="M-0.34,-16.68 L 0.34 -16.68 0.34 16.68 -0.34 16.68 z" class="primitive"/>
              </g>
              <g transform="translate(46.04,54.39)" id="img-662d38cb-70">
                <path d="M-0.34,-22.82 L 0.34 -22.82 0.34 22.82 -0.34 22.82 z" class="primitive"/>
              </g>
              <g transform="translate(46.68,56.15)" id="img-662d38cb-71">
                <path d="M-0.34,-21.06 L 0.34 -21.06 0.34 21.06 -0.34 21.06 z" class="primitive"/>
              </g>
              <g transform="translate(47.32,49.13)" id="img-662d38cb-72">
                <path d="M-0.34,-28.09 L 0.34 -28.09 0.34 28.09 -0.34 28.09 z" class="primitive"/>
              </g>
              <g transform="translate(47.96,54.39)" id="img-662d38cb-73">
                <path d="M-0.34,-22.82 L 0.34 -22.82 0.34 22.82 -0.34 22.82 z" class="primitive"/>
              </g>
              <g transform="translate(48.6,48.25)" id="img-662d38cb-74">
                <path d="M-0.34,-28.96 L 0.34 -28.96 0.34 28.96 -0.34 28.96 z" class="primitive"/>
              </g>
              <g transform="translate(49.23,54.39)" id="img-662d38cb-75">
                <path d="M-0.34,-22.82 L 0.34 -22.82 0.34 22.82 -0.34 22.82 z" class="primitive"/>
              </g>
              <g transform="translate(49.87,50.01)" id="img-662d38cb-76">
                <path d="M-0.34,-27.21 L 0.34 -27.21 0.34 27.21 -0.34 27.21 z" class="primitive"/>
              </g>
              <g transform="translate(50.51,46.5)" id="img-662d38cb-77">
                <path d="M-0.34,-30.72 L 0.34 -30.72 0.34 30.72 -0.34 30.72 z" class="primitive"/>
              </g>
              <g transform="translate(51.15,48.25)" id="img-662d38cb-78">
                <path d="M-0.34,-28.96 L 0.34 -28.96 0.34 28.96 -0.34 28.96 z" class="primitive"/>
              </g>
              <g transform="translate(51.79,51.76)" id="img-662d38cb-79">
                <path d="M-0.34,-25.45 L 0.34 -25.45 0.34 25.45 -0.34 25.45 z" class="primitive"/>
              </g>
              <g transform="translate(52.43,46.5)" id="img-662d38cb-80">
                <path d="M-0.34,-30.72 L 0.34 -30.72 0.34 30.72 -0.34 30.72 z" class="primitive"/>
              </g>
              <g transform="translate(53.07,45.62)" id="img-662d38cb-81">
                <path d="M-0.34,-31.6 L 0.34 -31.6 0.34 31.6 -0.34 31.6 z" class="primitive"/>
              </g>
              <g transform="translate(53.71,55.27)" id="img-662d38cb-82">
                <path d="M-0.34,-21.94 L 0.34 -21.94 0.34 21.94 -0.34 21.94 z" class="primitive"/>
              </g>
              <g transform="translate(54.35,44.74)" id="img-662d38cb-83">
                <path d="M-0.34,-32.47 L 0.34 -32.47 0.34 32.47 -0.34 32.47 z" class="primitive"/>
              </g>
              <g transform="translate(54.99,63.17)" id="img-662d38cb-84">
                <path d="M-0.34,-14.04 L 0.34 -14.04 0.34 14.04 -0.34 14.04 z" class="primitive"/>
              </g>
              <g transform="translate(55.63,55.27)" id="img-662d38cb-85">
                <path d="M-0.34,-21.94 L 0.34 -21.94 0.34 21.94 -0.34 21.94 z" class="primitive"/>
              </g>
              <g transform="translate(56.27,62.29)" id="img-662d38cb-86">
                <path d="M-0.34,-14.92 L 0.34 -14.92 0.34 14.92 -0.34 14.92 z" class="primitive"/>
              </g>
              <g transform="translate(56.91,52.64)" id="img-662d38cb-87">
                <path d="M-0.34,-24.57 L 0.34 -24.57 0.34 24.57 -0.34 24.57 z" class="primitive"/>
              </g>
              <g transform="translate(57.55,59.66)" id="img-662d38cb-88">
                <path d="M-0.34,-17.55 L 0.34 -17.55 0.34 17.55 -0.34 17.55 z" class="primitive"/>
              </g>
              <g transform="translate(58.19,59.66)" id="img-662d38cb-89">
                <path d="M-0.34,-17.55 L 0.34 -17.55 0.34 17.55 -0.34 17.55 z" class="primitive"/>
              </g>
              <g transform="translate(58.82,60.54)" id="img-662d38cb-90">
                <path d="M-0.34,-16.68 L 0.34 -16.68 0.34 16.68 -0.34 16.68 z" class="primitive"/>
              </g>
              <g transform="translate(59.46,65.8)" id="img-662d38cb-91">
                <path d="M-0.34,-11.41 L 0.34 -11.41 0.34 11.41 -0.34 11.41 z" class="primitive"/>
              </g>
              <g transform="translate(60.1,62.29)" id="img-662d38cb-92">
                <path d="M-0.34,-14.92 L 0.34 -14.92 0.34 14.92 -0.34 14.92 z" class="primitive"/>
              </g>
              <g transform="translate(60.74,69.31)" id="img-662d38cb-93">
                <path d="M-0.34,-7.9 L 0.34 -7.9 0.34 7.9 -0.34 7.9 z" class="primitive"/>
              </g>
              <g transform="translate(61.38,61.42)" id="img-662d38cb-94">
                <path d="M-0.34,-15.8 L 0.34 -15.8 0.34 15.8 -0.34 15.8 z" class="primitive"/>
              </g>
              <g transform="translate(62.02,67.56)" id="img-662d38cb-95">
                <path d="M-0.34,-9.65 L 0.34 -9.65 0.34 9.65 -0.34 9.65 z" class="primitive"/>
              </g>
              <g transform="translate(62.66,62.29)" id="img-662d38cb-96">
                <path d="M-0.34,-14.92 L 0.34 -14.92 0.34 14.92 -0.34 14.92 z" class="primitive"/>
              </g>
              <g transform="translate(63.3,65.8)" id="img-662d38cb-97">
                <path d="M-0.34,-11.41 L 0.34 -11.41 0.34 11.41 -0.34 11.41 z" class="primitive"/>
              </g>
              <g transform="translate(63.94,72.82)" id="img-662d38cb-98">
                <path d="M-0.34,-4.39 L 0.34 -4.39 0.34 4.39 -0.34 4.39 z" class="primitive"/>
              </g>
              <g transform="translate(64.58,72.82)" id="img-662d38cb-99">
                <path d="M-0.34,-4.39 L 0.34 -4.39 0.34 4.39 -0.34 4.39 z" class="primitive"/>
              </g>
              <g transform="translate(65.22,68.44)" id="img-662d38cb-100">
                <path d="M-0.34,-8.78 L 0.34 -8.78 0.34 8.78 -0.34 8.78 z" class="primitive"/>
              </g>
              <g transform="translate(65.86,71.95)" id="img-662d38cb-101">
                <path d="M-0.34,-5.27 L 0.34 -5.27 0.34 5.27 -0.34 5.27 z" class="primitive"/>
              </g>
              <g transform="translate(66.5,69.31)" id="img-662d38cb-102">
                <path d="M-0.34,-7.9 L 0.34 -7.9 0.34 7.9 -0.34 7.9 z" class="primitive"/>
              </g>
              <g transform="translate(67.14,74.58)" id="img-662d38cb-103">
                <path d="M-0.34,-2.63 L 0.34 -2.63 0.34 2.63 -0.34 2.63 z" class="primitive"/>
              </g>
              <g transform="translate(67.78,73.7)" id="img-662d38cb-104">
                <path d="M-0.34,-3.51 L 0.34 -3.51 0.34 3.51 -0.34 3.51 z" class="primitive"/>
              </g>
              <g transform="translate(68.41,73.7)" id="img-662d38cb-105">
                <path d="M-0.34,-3.51 L 0.34 -3.51 0.34 3.51 -0.34 3.51 z" class="primitive"/>
              </g>
              <g transform="translate(69.05,76.34)" id="img-662d38cb-106">
                <path d="M-0.34,-0.88 L 0.34 -0.88 0.34 0.88 -0.34 0.88 z" class="primitive"/>
              </g>
              <g transform="translate(69.69,75.46)" id="img-662d38cb-107">
                <path d="M-0.34,-1.76 L 0.34 -1.76 0.34 1.76 -0.34 1.76 z" class="primitive"/>
              </g>
              <g transform="translate(70.33,72.82)" id="img-662d38cb-108">
                <path d="M-0.34,-4.39 L 0.34 -4.39 0.34 4.39 -0.34 4.39 z" class="primitive"/>
              </g>
              <g transform="translate(70.97,76.34)" id="img-662d38cb-109">
                <path d="M-0.34,-0.88 L 0.34 -0.88 0.34 0.88 -0.34 0.88 z" class="primitive"/>
              </g>
              <g transform="translate(71.61,75.46)" id="img-662d38cb-110">
                <path d="M-0.34,-1.76 L 0.34 -1.76 0.34 1.76 -0.34 1.76 z" class="primitive"/>
              </g>
              <g transform="translate(72.25,75.46)" id="img-662d38cb-111">
                <path d="M-0.34,-1.76 L 0.34 -1.76 0.34 1.76 -0.34 1.76 z" class="primitive"/>
              </g>
              <g transform="translate(72.89,75.46)" id="img-662d38cb-112">
                <path d="M-0.34,-1.76 L 0.34 -1.76 0.34 1.76 -0.34 1.76 z" class="primitive"/>
              </g>
              <g transform="translate(73.53,75.46)" id="img-662d38cb-113">
                <path d="M-0.34,-1.76 L 0.34 -1.76 0.34 1.76 -0.34 1.76 z" class="primitive"/>
              </g>
              <g transform="translate(74.17,77.22)" id="img-662d38cb-114">
                <path d="M-0.34,-0 L 0.34 -0 0.34 0 -0.34 0 z" class="primitive"/>
              </g>
              <g transform="translate(74.81,74.58)" id="img-662d38cb-115">
                <path d="M-0.34,-2.63 L 0.34 -2.63 0.34 2.63 -0.34 2.63 z" class="primitive"/>
              </g>
              <g transform="translate(75.45,76.34)" id="img-662d38cb-116">
                <path d="M-0.34,-0.88 L 0.34 -0.88 0.34 0.88 -0.34 0.88 z" class="primitive"/>
              </g>
              <g transform="translate(76.09,77.22)" id="img-662d38cb-117">
                <path d="M-0.34,-0 L 0.34 -0 0.34 0 -0.34 0 z" class="primitive"/>
              </g>
              <g transform="translate(76.73,76.34)" id="img-662d38cb-118">
                <path d="M-0.34,-0.88 L 0.34 -0.88 0.34 0.88 -0.34 0.88 z" class="primitive"/>
              </g>
              <g transform="translate(77.37,77.22)" id="img-662d38cb-119">
                <path d="M-0.34,-0 L 0.34 -0 0.34 0 -0.34 0 z" class="primitive"/>
              </g>
              <g transform="translate(78.01,77.22)" id="img-662d38cb-120">
                <path d="M-0.34,-0 L 0.34 -0 0.34 0 -0.34 0 z" class="primitive"/>
              </g>
              <g transform="translate(78.64,77.22)" id="img-662d38cb-121">
                <path d="M-0.34,-0 L 0.34 -0 0.34 0 -0.34 0 z" class="primitive"/>
              </g>
              <g transform="translate(79.28,76.34)" id="img-662d38cb-122">
                <path d="M-0.34,-0.88 L 0.34 -0.88 0.34 0.88 -0.34 0.88 z" class="primitive"/>
              </g>
              <g transform="translate(79.92,77.22)" id="img-662d38cb-123">
                <path d="M-0.34,-0 L 0.34 -0 0.34 0 -0.34 0 z" class="primitive"/>
              </g>
              <g transform="translate(80.56,76.34)" id="img-662d38cb-124">
                <path d="M-0.34,-0.88 L 0.34 -0.88 0.34 0.88 -0.34 0.88 z" class="primitive"/>
              </g>
              <g transform="translate(81.2,77.22)" id="img-662d38cb-125">
                <path d="M-0.34,-0 L 0.34 -0 0.34 0 -0.34 0 z" class="primitive"/>
              </g>
              <g transform="translate(81.84,77.22)" id="img-662d38cb-126">
                <path d="M-0.34,-0 L 0.34 -0 0.34 0 -0.34 0 z" class="primitive"/>
              </g>
              <g transform="translate(82.48,77.22)" id="img-662d38cb-127">
                <path d="M-0.34,-0 L 0.34 -0 0.34 0 -0.34 0 z" class="primitive"/>
              </g>
              <g transform="translate(83.12,77.22)" id="img-662d38cb-128">
                <path d="M-0.34,-0 L 0.34 -0 0.34 0 -0.34 0 z" class="primitive"/>
              </g>
              <g transform="translate(83.76,77.22)" id="img-662d38cb-129">
                <path d="M-0.34,-0 L 0.34 -0 0.34 0 -0.34 0 z" class="primitive"/>
              </g>
              <g transform="translate(84.4,77.22)" id="img-662d38cb-130">
                <path d="M-0.34,-0 L 0.34 -0 0.34 0 -0.34 0 z" class="primitive"/>
              </g>
              <g transform="translate(85.04,76.34)" id="img-662d38cb-131">
                <path d="M-0.34,-0.88 L 0.34 -0.88 0.34 0.88 -0.34 0.88 z" class="primitive"/>
              </g>
            </g>
          </g>
        </g>
      </g>
    </g>
  </g>
  <g class="guide ylabels" font-size="2.82" font-family="'PT Sans Caption','Helvetica Neue','Helvetica',sans-serif" fill="#6C606B" id="img-662d38cb-132">
    <g transform="translate(16.96,77.21)" id="img-662d38cb-133">
      <g class="primitive">
        <text text-anchor="end" dy="0.35em">0</text>
      </g>
    </g>
    <g transform="translate(16.96,59.66)" id="img-662d38cb-134">
      <g class="primitive">
        <text text-anchor="end" dy="0.35em">10</text>
      </g>
    </g>
    <g transform="translate(16.96,42.11)" id="img-662d38cb-135">
      <g class="primitive">
        <text text-anchor="end" dy="0.35em">20</text>
      </g>
    </g>
    <g transform="translate(16.96,24.55)" id="img-662d38cb-136">
      <g class="primitive">
        <text text-anchor="end" dy="0.35em">30</text>
      </g>
    </g>
    <g transform="translate(16.96,7)" id="img-662d38cb-137">
      <g class="primitive">
        <text text-anchor="end" dy="0.35em">40</text>
      </g>
    </g>
  </g>
  <g font-size="3.88" font-family="'PT Sans','Helvetica Neue','Helvetica',sans-serif" fill="#564A55" stroke="#000000" stroke-opacity="0.000" id="img-662d38cb-138">
    <g transform="translate(8.81,40.11)" id="img-662d38cb-139">
      <g class="primitive">
        <text text-anchor="middle" dy="0.35em" transform="rotate(-90,0, 2)">frequency</text>
      </g>
    </g>
  </g>
</g>
<defs>
  <clipPath id="img-662d38cb-11">
    <path d="M17.96,5 L 92.23 5 92.23 79.21 17.96 79.21" />
  </clipPath>
</defs>
</svg>
