<?xml version="1.0" encoding="UTF-8"?>
<svg xmlns="http://www.w3.org/2000/svg"
     xmlns:xlink="http://www.w3.org/1999/xlink"
     xmlns:gadfly="http://www.gadflyjl.org/ns"
     version="1.2"
     width="140mm" height="80mm" viewBox="0 0 140 80"
     stroke="none"
     fill="#000000"
     stroke-width="0.3"
     font-size="3.88"
>
<defs>
  <marker id="arrow" markerWidth="15" markerHeight="7" refX="5" refY="3.5" orient="auto" markerUnits="strokeWidth">
    <path d="M0,0 L15,3.5 L0,7 z" stroke="context-stroke" fill="context-stroke"/>
  </marker>
</defs>
<g class="plotroot xscalable yscalable" id="img-90623f9a-1">
  <g class="guide xlabels" font-size="2.82" font-family="'PT Sans Caption','Helvetica Neue','Helvetica',sans-serif" fill="#6C606B" id="img-90623f9a-2">
    <g transform="translate(19.96,71.33)">
      <g class="primitive">
        <text text-anchor="middle" dy="0.6em">14.1</text>
      </g>
    </g>
    <g transform="translate(35.09,71.33)">
      <g class="primitive">
        <text text-anchor="middle" dy="0.6em">14.2</text>
      </g>
    </g>
    <g transform="translate(50.21,71.33)">
      <g class="primitive">
        <text text-anchor="middle" dy="0.6em">14.3</text>
      </g>
    </g>
    <g transform="translate(65.34,71.33)">
      <g class="primitive">
        <text text-anchor="middle" dy="0.6em">14.4</text>
      </g>
    </g>
    <g transform="translate(80.47,71.33)">
      <g class="primitive">
        <text text-anchor="middle" dy="0.6em">14.5</text>
      </g>
    </g>
  </g>
  <g class="guide colorkey" id="img-90623f9a-3">
    <g class="color_coding_coding_coding_noncoding_4-star" id="img-90623f9a-4">
      <g fill="#4C404B" font-size="2.82" font-family="'PT Sans','Helvetica Neue','Helvetica',sans-serif" id="img-90623f9a-5">
        <g transform="translate(86.28,39.48)" id="img-90623f9a-6">
          <g class="primitive">
            <text dy="0.35em">coding_coding_coding_noncoding_4-star</text>
          </g>
        </g>
      </g>
      <g fill-opacity="1" fill="#00BFFF" stroke="#FFFFFF" id="img-90623f9a-7">
        <g transform="translate(84.37,39.48)" id="img-90623f9a-8">
          <path d="M-0.91,-0.91 L 0.91 -0.91 0.91 0.91 -0.91 0.91 z" class="primitive"/>
        </g>
      </g>
    </g>
    <g fill="#362A35" font-size="3.88" font-family="'PT Sans','Helvetica Neue','Helvetica',sans-serif" stroke="#000000" stroke-opacity="0.000" id="img-90623f9a-9">
      <g transform="translate(83.47,35.66)" id="img-90623f9a-10">
        <g class="primitive">
          <text dy="-0em">graphlet</text>
        </g>
      </g>
    </g>
  </g>
  <g clip-path="url(#img-90623f9a-11)">
    <g id="img-90623f9a-12">
      <g pointer-events="visible" stroke-width="0.3" fill="#000000" fill-opacity="0.000" stroke="#000000" stroke-opacity="0.000" class="guide background" id="img-90623f9a-13">
        <g transform="translate(50.21,37.66)" id="img-90623f9a-14">
          <path d="M-32.25,-32.66 L 32.25 -32.66 32.25 32.66 -32.25 32.66 z" class="primitive"/>
        </g>
      </g>
      <g class="guide ygridlines xfixed" stroke-dasharray="0.5,0.5" stroke-width="0.2" stroke="#D0D0E0" id="img-90623f9a-15">
        <g transform="translate(50.21,68.33)" id="img-90623f9a-16">
          <path fill="none" d="M-32.25,0 L 32.25 0" class="primitive"/>
        </g>
        <g transform="translate(50.21,53)" id="img-90623f9a-17">
          <path fill="none" d="M-32.25,0 L 32.25 0" class="primitive"/>
        </g>
        <g transform="translate(50.21,37.66)" id="img-90623f9a-18">
          <path fill="none" d="M-32.25,0 L 32.25 0" class="primitive"/>
        </g>
        <g transform="translate(50.21,22.33)" id="img-90623f9a-19">
          <path fill="none" d="M-32.25,0 L 32.25 0" class="primitive"/>
        </g>
        <g transform="translate(50.21,7)" id="img-90623f9a-20">
          <path fill="none" d="M-32.25,0 L 32.25 0" class="primitive"/>
        </g>
      </g>
      <g class="guide xgridlines yfixed" stroke-dasharray="0.5,0.5" stroke-width="0.2" stroke="#D0D0E0" id="img-90623f9a-21">
        <g transform="translate(19.96,37.66)" id="img-90623f9a-22">
          <path fill="none" d="M0,-32.66 L 0 32.66" class="primitive"/>
        </g>
        <g transform="translate(35.09,37.66)" id="img-90623f9a-23">
          <path fill="none" d="M0,-32.66 L 0 32.66" class="primitive"/>
        </g>
        <g transform="translate(50.21,37.66)" id="img-90623f9a-24">
          <path fill="none" d="M0,-32.66 L 0 32.66" class="primitive"/>
        </g>
        <g transform="translate(65.34,37.66)" id="img-90623f9a-25">
          <path fill="none" d="M0,-32.66 L 0 32.66" class="primitive"/>
        </g>
        <g transform="translate(80.47,37.66)" id="img-90623f9a-26">
          <path fill="none" d="M0,-32.66 L 0 32.66" class="primitive"/>
        </g>
      </g>
      <g class="plotpanel" id="img-90623f9a-27">
        <metadata>
          <boundingbox value="17.95833333333333mm 5.0mm 64.50833333333333mm 65.32666666666667mm"/>
          <unitbox value="14.086778680622505 41.30448961843679 0.4264426387549909 -42.60897923687358"/>
        </metadata>
        <g shape-rendering="crispEdges" stroke-width="0.3" id="img-90623f9a-28">
          <g stroke="#000000" stroke-opacity="0.000" class="geometry" id="img-90623f9a-29">
            <g fill="#00BFFF" id="img-90623f9a-30">
              <g transform="translate(32.06,67.56)" id="img-90623f9a-31">
                <path d="M-0.22,-0.77 L 0.22 -0.77 0.22 0.77 -0.22 0.77 z" class="primitive"/>
              </g>
              <g transform="translate(32.45,67.56)" id="img-90623f9a-32">
                <path d="M-0.22,-0.77 L 0.22 -0.77 0.22 0.77 -0.22 0.77 z" class="primitive"/>
              </g>
              <g transform="translate(32.84,68.33)" id="img-90623f9a-33">
                <path d="M-0.22,-0 L 0.22 -0 0.22 0 -0.22 0 z" class="primitive"/>
              </g>
              <g transform="translate(33.23,68.33)" id="img-90623f9a-34">
                <path d="M-0.22,-0 L 0.22 -0 0.22 0 -0.22 0 z" class="primitive"/>
              </g>
              <g transform="translate(33.62,67.56)" id="img-90623f9a-35">
                <path d="M-0.22,-0.77 L 0.22 -0.77 0.22 0.77 -0.22 0.77 z" class="primitive"/>
              </g>
              <g transform="translate(34,68.33)" id="img-90623f9a-36">
                <path d="M-0.22,-0 L 0.22 -0 0.22 0 -0.22 0 z" class="primitive"/>
              </g>
              <g transform="translate(34.39,68.33)" id="img-90623f9a-37">
                <path d="M-0.22,-0 L 0.22 -0 0.22 0 -0.22 0 z" class="primitive"/>
              </g>
              <g transform="translate(34.78,68.33)" id="img-90623f9a-38">
                <path d="M-0.22,-0 L 0.22 -0 0.22 0 -0.22 0 z" class="primitive"/>
              </g>
              <g transform="translate(35.17,68.33)" id="img-90623f9a-39">
                <path d="M-0.22,-0 L 0.22 -0 0.22 0 -0.22 0 z" class="primitive"/>
              </g>
              <g transform="translate(35.56,68.33)" id="img-90623f9a-40">
                <path d="M-0.22,-0 L 0.22 -0 0.22 0 -0.22 0 z" class="primitive"/>
              </g>
              <g transform="translate(35.95,68.33)" id="img-90623f9a-41">
                <path d="M-0.22,-0 L 0.22 -0 0.22 0 -0.22 0 z" class="primitive"/>
              </g>
              <g transform="translate(36.33,68.33)" id="img-90623f9a-42">
                <path d="M-0.22,-0 L 0.22 -0 0.22 0 -0.22 0 z" class="primitive"/>
              </g>
              <g transform="translate(36.72,67.56)" id="img-90623f9a-43">
                <path d="M-0.22,-0.77 L 0.22 -0.77 0.22 0.77 -0.22 0.77 z" class="primitive"/>
              </g>
              <g transform="translate(37.11,68.33)" id="img-90623f9a-44">
                <path d="M-0.22,-0 L 0.22 -0 0.22 0 -0.22 0 z" class="primitive"/>
              </g>
              <g transform="translate(37.5,67.56)" id="img-90623f9a-45">
                <path d="M-0.22,-0.77 L 0.22 -0.77 0.22 0.77 -0.22 0.77 z" class="primitive"/>
              </g>
              <g transform="translate(37.89,66.79)" id="img-90623f9a-46">
                <path d="M-0.22,-1.53 L 0.22 -1.53 0.22 1.53 -0.22 1.53 z" class="primitive"/>
              </g>
              <g transform="translate(38.27,67.56)" id="img-90623f9a-47">
                <path d="M-0.22,-0.77 L 0.22 -0.77 0.22 0.77 -0.22 0.77 z" class="primitive"/>
              </g>
              <g transform="translate(38.66,68.33)" id="img-90623f9a-48">
                <path d="M-0.22,-0 L 0.22 -0 0.22 0 -0.22 0 z" class="primitive"/>
              </g>
              <g transform="translate(39.05,66.79)" id="img-90623f9a-49">
                <path d="M-0.22,-1.53 L 0.22 -1.53 0.22 1.53 -0.22 1.53 z" class="primitive"/>
              </g>
              <g transform="translate(39.44,67.56)" id="img-90623f9a-50">
                <path d="M-0.22,-0.77 L 0.22 -0.77 0.22 0.77 -0.22 0.77 z" class="primitive"/>
              </g>
              <g transform="translate(39.83,67.56)" id="img-90623f9a-51">
                <path d="M-0.22,-0.77 L 0.22 -0.77 0.22 0.77 -0.22 0.77 z" class="primitive"/>
              </g>
              <g transform="translate(40.22,66.03)" id="img-90623f9a-52">
                <path d="M-0.22,-2.3 L 0.22 -2.3 0.22 2.3 -0.22 2.3 z" class="primitive"/>
              </g>
              <g transform="translate(40.6,66.03)" id="img-90623f9a-53">
                <path d="M-0.22,-2.3 L 0.22 -2.3 0.22 2.3 -0.22 2.3 z" class="primitive"/>
              </g>
              <g transform="translate(40.99,67.56)" id="img-90623f9a-54">
                <path d="M-0.22,-0.77 L 0.22 -0.77 0.22 0.77 -0.22 0.77 z" class="primitive"/>
              </g>
              <g transform="translate(41.38,66.79)" id="img-90623f9a-55">
                <path d="M-0.22,-1.53 L 0.22 -1.53 0.22 1.53 -0.22 1.53 z" class="primitive"/>
              </g>
              <g transform="translate(41.77,67.56)" id="img-90623f9a-56">
                <path d="M-0.22,-0.77 L 0.22 -0.77 0.22 0.77 -0.22 0.77 z" class="primitive"/>
              </g>
              <g transform="translate(42.16,64.49)" id="img-90623f9a-57">
                <path d="M-0.22,-3.83 L 0.22 -3.83 0.22 3.83 -0.22 3.83 z" class="primitive"/>
              </g>
              <g transform="translate(42.54,66.79)" id="img-90623f9a-58">
                <path d="M-0.22,-1.53 L 0.22 -1.53 0.22 1.53 -0.22 1.53 z" class="primitive"/>
              </g>
              <g transform="translate(42.93,62.96)" id="img-90623f9a-59">
                <path d="M-0.22,-5.37 L 0.22 -5.37 0.22 5.37 -0.22 5.37 z" class="primitive"/>
              </g>
              <g transform="translate(43.32,64.49)" id="img-90623f9a-60">
                <path d="M-0.22,-3.83 L 0.22 -3.83 0.22 3.83 -0.22 3.83 z" class="primitive"/>
              </g>
              <g transform="translate(43.71,63.73)" id="img-90623f9a-61">
                <path d="M-0.22,-4.6 L 0.22 -4.6 0.22 4.6 -0.22 4.6 z" class="primitive"/>
              </g>
              <g transform="translate(44.1,61.43)" id="img-90623f9a-62">
                <path d="M-0.22,-6.9 L 0.22 -6.9 0.22 6.9 -0.22 6.9 z" class="primitive"/>
              </g>
              <g transform="translate(44.49,59.89)" id="img-90623f9a-63">
                <path d="M-0.22,-8.43 L 0.22 -8.43 0.22 8.43 -0.22 8.43 z" class="primitive"/>
              </g>
              <g transform="translate(44.87,62.19)" id="img-90623f9a-64">
                <path d="M-0.22,-6.13 L 0.22 -6.13 0.22 6.13 -0.22 6.13 z" class="primitive"/>
              </g>
              <g transform="translate(45.26,60.66)" id="img-90623f9a-65">
                <path d="M-0.22,-7.67 L 0.22 -7.67 0.22 7.67 -0.22 7.67 z" class="primitive"/>
              </g>
              <g transform="translate(45.65,59.13)" id="img-90623f9a-66">
                <path d="M-0.22,-9.2 L 0.22 -9.2 0.22 9.2 -0.22 9.2 z" class="primitive"/>
              </g>
              <g transform="translate(46.04,60.66)" id="img-90623f9a-67">
                <path d="M-0.22,-7.67 L 0.22 -7.67 0.22 7.67 -0.22 7.67 z" class="primitive"/>
              </g>
              <g transform="translate(46.43,59.89)" id="img-90623f9a-68">
                <path d="M-0.22,-8.43 L 0.22 -8.43 0.22 8.43 -0.22 8.43 z" class="primitive"/>
              </g>
              <g transform="translate(46.81,59.13)" id="img-90623f9a-69">
                <path d="M-0.22,-9.2 L 0.22 -9.2 0.22 9.2 -0.22 9.2 z" class="primitive"/>
              </g>
              <g transform="translate(47.2,57.59)" id="img-90623f9a-70">
                <path d="M-0.22,-10.73 L 0.22 -10.73 0.22 10.73 -0.22 10.73 z" class="primitive"/>
              </g>
              <g transform="translate(47.59,56.83)" id="img-90623f9a-71">
                <path d="M-0.22,-11.5 L 0.22 -11.5 0.22 11.5 -0.22 11.5 z" class="primitive"/>
              </g>
              <g transform="translate(47.98,57.59)" id="img-90623f9a-72">
                <path d="M-0.22,-10.73 L 0.22 -10.73 0.22 10.73 -0.22 10.73 z" class="primitive"/>
              </g>
              <g transform="translate(48.37,55.29)" id="img-90623f9a-73">
                <path d="M-0.22,-13.03 L 0.22 -13.03 0.22 13.03 -0.22 13.03 z" class="primitive"/>
              </g>
              <g transform="translate(48.76,50.7)" id="img-90623f9a-74">
                <path d="M-0.22,-17.63 L 0.22 -17.63 0.22 17.63 -0.22 17.63 z" class="primitive"/>
              </g>
              <g transform="translate(49.14,49.93)" id="img-90623f9a-75">
                <path d="M-0.22,-18.4 L 0.22 -18.4 0.22 18.4 -0.22 18.4 z" class="primitive"/>
              </g>
              <g transform="translate(49.53,56.83)" id="img-90623f9a-76">
                <path d="M-0.22,-11.5 L 0.22 -11.5 0.22 11.5 -0.22 11.5 z" class="primitive"/>
              </g>
              <g transform="translate(49.92,49.16)" id="img-90623f9a-77">
                <path d="M-0.22,-19.16 L 0.22 -19.16 0.22 19.16 -0.22 19.16 z" class="primitive"/>
              </g>
              <g transform="translate(50.31,49.93)" id="img-90623f9a-78">
                <path d="M-0.22,-18.4 L 0.22 -18.4 0.22 18.4 -0.22 18.4 z" class="primitive"/>
              </g>
              <g transform="translate(50.7,48.4)" id="img-90623f9a-79">
                <path d="M-0.22,-19.93 L 0.22 -19.93 0.22 19.93 -0.22 19.93 z" class="primitive"/>
              </g>
              <g transform="translate(51.08,47.63)" id="img-90623f9a-80">
                <path d="M-0.22,-20.7 L 0.22 -20.7 0.22 20.7 -0.22 20.7 z" class="primitive"/>
              </g>
              <g transform="translate(51.47,53)" id="img-90623f9a-81">
                <path d="M-0.22,-15.33 L 0.22 -15.33 0.22 15.33 -0.22 15.33 z" class="primitive"/>
              </g>
              <g transform="translate(51.86,50.7)" id="img-90623f9a-82">
                <path d="M-0.22,-17.63 L 0.22 -17.63 0.22 17.63 -0.22 17.63 z" class="primitive"/>
              </g>
              <g transform="translate(52.25,49.93)" id="img-90623f9a-83">
                <path d="M-0.22,-18.4 L 0.22 -18.4 0.22 18.4 -0.22 18.4 z" class="primitive"/>
              </g>
              <g transform="translate(52.64,43.03)" id="img-90623f9a-84">
                <path d="M-0.22,-25.3 L 0.22 -25.3 0.22 25.3 -0.22 25.3 z" class="primitive"/>
              </g>
              <g transform="translate(53.02,44.56)" id="img-90623f9a-85">
                <path d="M-0.22,-23.76 L 0.22 -23.76 0.22 23.76 -0.22 23.76 z" class="primitive"/>
              </g>
              <g transform="translate(53.41,42.26)" id="img-90623f9a-86">
                <path d="M-0.22,-26.06 L 0.22 -26.06 0.22 26.06 -0.22 26.06 z" class="primitive"/>
              </g>
              <g transform="translate(53.8,42.26)" id="img-90623f9a-87">
                <path d="M-0.22,-26.06 L 0.22 -26.06 0.22 26.06 -0.22 26.06 z" class="primitive"/>
              </g>
              <g transform="translate(54.19,44.56)" id="img-90623f9a-88">
                <path d="M-0.22,-23.76 L 0.22 -23.76 0.22 23.76 -0.22 23.76 z" class="primitive"/>
              </g>
              <g transform="translate(54.58,45.33)" id="img-90623f9a-89">
                <path d="M-0.22,-23 L 0.22 -23 0.22 23 -0.22 23 z" class="primitive"/>
              </g>
              <g transform="translate(54.97,50.7)" id="img-90623f9a-90">
                <path d="M-0.22,-17.63 L 0.22 -17.63 0.22 17.63 -0.22 17.63 z" class="primitive"/>
              </g>
              <g transform="translate(55.35,45.33)" id="img-90623f9a-91">
                <path d="M-0.22,-23 L 0.22 -23 0.22 23 -0.22 23 z" class="primitive"/>
              </g>
              <g transform="translate(55.74,45.33)" id="img-90623f9a-92">
                <path d="M-0.22,-23 L 0.22 -23 0.22 23 -0.22 23 z" class="primitive"/>
              </g>
              <g transform="translate(56.13,48.4)" id="img-90623f9a-93">
                <path d="M-0.22,-19.93 L 0.22 -19.93 0.22 19.93 -0.22 19.93 z" class="primitive"/>
              </g>
              <g transform="translate(56.52,48.4)" id="img-90623f9a-94">
                <path d="M-0.22,-19.93 L 0.22 -19.93 0.22 19.93 -0.22 19.93 z" class="primitive"/>
              </g>
              <g transform="translate(56.91,51.46)" id="img-90623f9a-95">
                <path d="M-0.22,-16.86 L 0.22 -16.86 0.22 16.86 -0.22 16.86 z" class="primitive"/>
              </g>
              <g transform="translate(57.29,49.93)" id="img-90623f9a-96">
                <path d="M-0.22,-18.4 L 0.22 -18.4 0.22 18.4 -0.22 18.4 z" class="primitive"/>
              </g>
              <g transform="translate(57.68,49.16)" id="img-90623f9a-97">
                <path d="M-0.22,-19.16 L 0.22 -19.16 0.22 19.16 -0.22 19.16 z" class="primitive"/>
              </g>
              <g transform="translate(58.07,53.76)" id="img-90623f9a-98">
                <path d="M-0.22,-14.57 L 0.22 -14.57 0.22 14.57 -0.22 14.57 z" class="primitive"/>
              </g>
              <g transform="translate(58.46,53.76)" id="img-90623f9a-99">
                <path d="M-0.22,-14.57 L 0.22 -14.57 0.22 14.57 -0.22 14.57 z" class="primitive"/>
              </g>
              <g transform="translate(58.85,56.06)" id="img-90623f9a-100">
                <path d="M-0.22,-12.27 L 0.22 -12.27 0.22 12.27 -0.22 12.27 z" class="primitive"/>
              </g>
              <g transform="translate(59.24,55.29)" id="img-90623f9a-101">
                <path d="M-0.22,-13.03 L 0.22 -13.03 0.22 13.03 -0.22 13.03 z" class="primitive"/>
              </g>
              <g transform="translate(59.62,59.13)" id="img-90623f9a-102">
                <path d="M-0.22,-9.2 L 0.22 -9.2 0.22 9.2 -0.22 9.2 z" class="primitive"/>
              </g>
              <g transform="translate(60.01,57.59)" id="img-90623f9a-103">
                <path d="M-0.22,-10.73 L 0.22 -10.73 0.22 10.73 -0.22 10.73 z" class="primitive"/>
              </g>
              <g transform="translate(60.4,59.13)" id="img-90623f9a-104">
                <path d="M-0.22,-9.2 L 0.22 -9.2 0.22 9.2 -0.22 9.2 z" class="primitive"/>
              </g>
              <g transform="translate(60.79,61.43)" id="img-90623f9a-105">
                <path d="M-0.22,-6.9 L 0.22 -6.9 0.22 6.9 -0.22 6.9 z" class="primitive"/>
              </g>
              <g transform="translate(61.18,59.13)" id="img-90623f9a-106">
                <path d="M-0.22,-9.2 L 0.22 -9.2 0.22 9.2 -0.22 9.2 z" class="primitive"/>
              </g>
              <g transform="translate(61.56,62.96)" id="img-90623f9a-107">
                <path d="M-0.22,-5.37 L 0.22 -5.37 0.22 5.37 -0.22 5.37 z" class="primitive"/>
              </g>
              <g transform="translate(61.95,65.26)" id="img-90623f9a-108">
                <path d="M-0.22,-3.07 L 0.22 -3.07 0.22 3.07 -0.22 3.07 z" class="primitive"/>
              </g>
              <g transform="translate(62.34,61.43)" id="img-90623f9a-109">
                <path d="M-0.22,-6.9 L 0.22 -6.9 0.22 6.9 -0.22 6.9 z" class="primitive"/>
              </g>
              <g transform="translate(62.73,68.33)" id="img-90623f9a-110">
                <path d="M-0.22,-0 L 0.22 -0 0.22 0 -0.22 0 z" class="primitive"/>
              </g>
              <g transform="translate(63.12,66.03)" id="img-90623f9a-111">
                <path d="M-0.22,-2.3 L 0.22 -2.3 0.22 2.3 -0.22 2.3 z" class="primitive"/>
              </g>
              <g transform="translate(63.51,64.49)" id="img-90623f9a-112">
                <path d="M-0.22,-3.83 L 0.22 -3.83 0.22 3.83 -0.22 3.83 z" class="primitive"/>
              </g>
              <g transform="translate(63.89,66.79)" id="img-90623f9a-113">
                <path d="M-0.22,-1.53 L 0.22 -1.53 0.22 1.53 -0.22 1.53 z" class="primitive"/>
              </g>
              <g transform="translate(64.28,66.03)" id="img-90623f9a-114">
                <path d="M-0.22,-2.3 L 0.22 -2.3 0.22 2.3 -0.22 2.3 z" class="primitive"/>
              </g>
              <g transform="translate(64.67,66.79)" id="img-90623f9a-115">
                <path d="M-0.22,-1.53 L 0.22 -1.53 0.22 1.53 -0.22 1.53 z" class="primitive"/>
              </g>
              <g transform="translate(65.06,66.79)" id="img-90623f9a-116">
                <path d="M-0.22,-1.53 L 0.22 -1.53 0.22 1.53 -0.22 1.53 z" class="primitive"/>
              </g>
              <g transform="translate(65.45,66.79)" id="img-90623f9a-117">
                <path d="M-0.22,-1.53 L 0.22 -1.53 0.22 1.53 -0.22 1.53 z" class="primitive"/>
              </g>
              <g transform="translate(65.83,66.03)" id="img-90623f9a-118">
                <path d="M-0.22,-2.3 L 0.22 -2.3 0.22 2.3 -0.22 2.3 z" class="primitive"/>
              </g>
              <g transform="translate(66.22,66.03)" id="img-90623f9a-119">
                <path d="M-0.22,-2.3 L 0.22 -2.3 0.22 2.3 -0.22 2.3 z" class="primitive"/>
              </g>
              <g transform="translate(66.61,68.33)" id="img-90623f9a-120">
                <path d="M-0.22,-0 L 0.22 -0 0.22 0 -0.22 0 z" class="primitive"/>
              </g>
              <g transform="translate(67,67.56)" id="img-90623f9a-121">
                <path d="M-0.22,-0.77 L 0.22 -0.77 0.22 0.77 -0.22 0.77 z" class="primitive"/>
              </g>
              <g transform="translate(67.39,68.33)" id="img-90623f9a-122">
                <path d="M-0.22,-0 L 0.22 -0 0.22 0 -0.22 0 z" class="primitive"/>
              </g>
              <g transform="translate(67.78,67.56)" id="img-90623f9a-123">
                <path d="M-0.22,-0.77 L 0.22 -0.77 0.22 0.77 -0.22 0.77 z" class="primitive"/>
              </g>
              <g transform="translate(68.16,68.33)" id="img-90623f9a-124">
                <path d="M-0.22,-0 L 0.22 -0 0.22 0 -0.22 0 z" class="primitive"/>
              </g>
              <g transform="translate(68.55,67.56)" id="img-90623f9a-125">
                <path d="M-0.22,-0.77 L 0.22 -0.77 0.22 0.77 -0.22 0.77 z" class="primitive"/>
              </g>
              <g transform="translate(68.94,67.56)" id="img-90623f9a-126">
                <path d="M-0.22,-0.77 L 0.22 -0.77 0.22 0.77 -0.22 0.77 z" class="primitive"/>
              </g>
              <g transform="translate(69.33,68.33)" id="img-90623f9a-127">
                <path d="M-0.22,-0 L 0.22 -0 0.22 0 -0.22 0 z" class="primitive"/>
              </g>
              <g transform="translate(69.72,68.33)" id="img-90623f9a-128">
                <path d="M-0.22,-0 L 0.22 -0 0.22 0 -0.22 0 z" class="primitive"/>
              </g>
              <g transform="translate(70.1,68.33)" id="img-90623f9a-129">
                <path d="M-0.22,-0 L 0.22 -0 0.22 0 -0.22 0 z" class="primitive"/>
              </g>
              <g transform="translate(70.49,67.56)" id="img-90623f9a-130">
                <path d="M-0.22,-0.77 L 0.22 -0.77 0.22 0.77 -0.22 0.77 z" class="primitive"/>
              </g>
            </g>
          </g>
        </g>
      </g>
    </g>
  </g>
  <g class="guide ylabels" font-size="2.82" font-family="'PT Sans Caption','Helvetica Neue','Helvetica',sans-serif" fill="#6C606B" id="img-90623f9a-131">
    <g transform="translate(16.96,68.33)" id="img-90623f9a-132">
      <g class="primitive">
        <text text-anchor="end" dy="0.35em">0</text>
      </g>
    </g>
    <g transform="translate(16.96,53)" id="img-90623f9a-133">
      <g class="primitive">
        <text text-anchor="end" dy="0.35em">10</text>
      </g>
    </g>
    <g transform="translate(16.96,37.66)" id="img-90623f9a-134">
      <g class="primitive">
        <text text-anchor="end" dy="0.35em">20</text>
      </g>
    </g>
    <g transform="translate(16.96,22.33)" id="img-90623f9a-135">
      <g class="primitive">
        <text text-anchor="end" dy="0.35em">30</text>
      </g>
    </g>
    <g transform="translate(16.96,7)" id="img-90623f9a-136">
      <g class="primitive">
        <text text-anchor="end" dy="0.35em">40</text>
      </g>
    </g>
  </g>
  <g font-size="3.88" font-family="'PT Sans','Helvetica Neue','Helvetica',sans-serif" fill="#564A55" stroke="#000000" stroke-opacity="0.000" id="img-90623f9a-137">
    <g transform="translate(8.81,35.66)" id="img-90623f9a-138">
      <g class="primitive">
        <text text-anchor="middle" dy="0.35em" transform="rotate(-90,0, 2)">frequency</text>
      </g>
    </g>
  </g>
</g>
<defs>
  <clipPath id="img-90623f9a-11">
    <path d="M17.96,5 L 82.47 5 82.47 70.33 17.96 70.33" />
  </clipPath>
</defs>
</svg>
