<?xml version="1.0" encoding="UTF-8"?>
<svg xmlns="http://www.w3.org/2000/svg"
     xmlns:xlink="http://www.w3.org/1999/xlink"
     xmlns:gadfly="http://www.gadflyjl.org/ns"
     version="1.2"
     width="141.42mm" height="100mm" viewBox="0 0 141.42 100"
     stroke="none"
     fill="#000000"
     stroke-width="0.3"
     font-size="3.88"
>
<defs>
  <marker id="arrow" markerWidth="15" markerHeight="7" refX="5" refY="3.5" orient="auto" markerUnits="strokeWidth">
    <path d="M0,0 L15,3.5 L0,7 z" stroke="context-stroke" fill="context-stroke"/>
  </marker>
</defs>
<g class="plotroot xscalable yscalable" id="img-2c8307d4-1">
  <g class="guide xlabels" font-size="2.82" font-family="'PT Sans Caption','Helvetica Neue','Helvetica',sans-serif" fill="#6C606B" id="img-2c8307d4-2">
    <g transform="translate(19.96,91.33)">
      <g class="primitive">
        <text text-anchor="middle" dy="0.6em">11.75</text>
      </g>
    </g>
    <g transform="translate(39.36,91.33)">
      <g class="primitive">
        <text text-anchor="middle" dy="0.6em">11.80</text>
      </g>
    </g>
    <g transform="translate(58.77,91.33)">
      <g class="primitive">
        <text text-anchor="middle" dy="0.6em">11.85</text>
      </g>
    </g>
    <g transform="translate(78.18,91.33)">
      <g class="primitive">
        <text text-anchor="middle" dy="0.6em">11.90</text>
      </g>
    </g>
    <g transform="translate(97.58,91.33)">
      <g class="primitive">
        <text text-anchor="middle" dy="0.6em">11.95</text>
      </g>
    </g>
  </g>
  <g class="guide colorkey" id="img-2c8307d4-3">
    <g class="color_coding_coding_coding_3-tri" id="img-2c8307d4-4">
      <g fill="#4C404B" font-size="2.82" font-family="'PT Sans','Helvetica Neue','Helvetica',sans-serif" id="img-2c8307d4-5">
        <g transform="translate(103.39,49.48)" id="img-2c8307d4-6">
          <g class="primitive">
            <text dy="0.35em">coding_coding_coding_3-tri</text>
          </g>
        </g>
      </g>
      <g fill-opacity="1" fill="#00BFFF" stroke="#FFFFFF" id="img-2c8307d4-7">
        <g transform="translate(101.49,49.48)" id="img-2c8307d4-8">
          <path d="M-0.91,-0.91 L 0.91 -0.91 0.91 0.91 -0.91 0.91 z" class="primitive"/>
        </g>
      </g>
    </g>
    <g fill="#362A35" font-size="3.88" font-family="'PT Sans','Helvetica Neue','Helvetica',sans-serif" stroke="#000000" stroke-opacity="0.000" id="img-2c8307d4-9">
      <g transform="translate(100.58,45.66)" id="img-2c8307d4-10">
        <g class="primitive">
          <text dy="-0em">graphlet</text>
        </g>
      </g>
    </g>
  </g>
  <g clip-path="url(#img-2c8307d4-11)">
    <g id="img-2c8307d4-12">
      <g pointer-events="visible" stroke-width="0.3" fill="#000000" fill-opacity="0.000" stroke="#000000" stroke-opacity="0.000" class="guide background" id="img-2c8307d4-13">
        <g transform="translate(58.77,47.66)" id="img-2c8307d4-14">
          <path d="M-40.81,-42.66 L 40.81 -42.66 40.81 42.66 -40.81 42.66 z" class="primitive"/>
        </g>
      </g>
      <g class="guide ygridlines xfixed" stroke-dasharray="0.5,0.5" stroke-width="0.2" stroke="#D0D0E0" id="img-2c8307d4-15">
        <g transform="translate(58.77,88.33)" id="img-2c8307d4-16">
          <path fill="none" d="M-40.81,0 L 40.81 0" class="primitive"/>
        </g>
        <g transform="translate(58.77,68)" id="img-2c8307d4-17">
          <path fill="none" d="M-40.81,0 L 40.81 0" class="primitive"/>
        </g>
        <g transform="translate(58.77,47.66)" id="img-2c8307d4-18">
          <path fill="none" d="M-40.81,0 L 40.81 0" class="primitive"/>
        </g>
        <g transform="translate(58.77,27.33)" id="img-2c8307d4-19">
          <path fill="none" d="M-40.81,0 L 40.81 0" class="primitive"/>
        </g>
        <g transform="translate(58.77,7)" id="img-2c8307d4-20">
          <path fill="none" d="M-40.81,0 L 40.81 0" class="primitive"/>
        </g>
      </g>
      <g class="guide xgridlines yfixed" stroke-dasharray="0.5,0.5" stroke-width="0.2" stroke="#D0D0E0" id="img-2c8307d4-21">
        <g transform="translate(19.96,47.66)" id="img-2c8307d4-22">
          <path fill="none" d="M0,-42.66 L 0 42.66" class="primitive"/>
        </g>
        <g transform="translate(39.36,47.66)" id="img-2c8307d4-23">
          <path fill="none" d="M0,-42.66 L 0 42.66" class="primitive"/>
        </g>
        <g transform="translate(58.77,47.66)" id="img-2c8307d4-24">
          <path fill="none" d="M0,-42.66 L 0 42.66" class="primitive"/>
        </g>
        <g transform="translate(78.18,47.66)" id="img-2c8307d4-25">
          <path fill="none" d="M0,-42.66 L 0 42.66" class="primitive"/>
        </g>
        <g transform="translate(97.58,47.66)" id="img-2c8307d4-26">
          <path fill="none" d="M0,-42.66 L 0 42.66" class="primitive"/>
        </g>
      </g>
      <g class="plotpanel" id="img-2c8307d4-27">
        <metadata>
          <boundingbox value="17.95833333333333mm 5.0mm 81.62302290397616mm 85.32666666666667mm"/>
          <unitbox value="11.744846889685103 40.98368718747438 0.210306220629796 -41.96737437494876"/>
        </metadata>
        <g shape-rendering="crispEdges" stroke-width="0.3" id="img-2c8307d4-28">
          <g stroke="#000000" stroke-opacity="0.000" class="geometry" id="img-2c8307d4-29">
            <g fill="#00BFFF" id="img-2c8307d4-30">
              <g transform="translate(32.83,87.31)" id="img-2c8307d4-31">
                <path d="M-0.3,-1.02 L 0.3 -1.02 0.3 1.02 -0.3 1.02 z" class="primitive"/>
              </g>
              <g transform="translate(33.37,88.33)" id="img-2c8307d4-32">
                <path d="M-0.3,-0 L 0.3 -0 0.3 0 -0.3 0 z" class="primitive"/>
              </g>
              <g transform="translate(33.92,88.33)" id="img-2c8307d4-33">
                <path d="M-0.3,-0 L 0.3 -0 0.3 0 -0.3 0 z" class="primitive"/>
              </g>
              <g transform="translate(34.47,88.33)" id="img-2c8307d4-34">
                <path d="M-0.3,-0 L 0.3 -0 0.3 0 -0.3 0 z" class="primitive"/>
              </g>
              <g transform="translate(35.01,88.33)" id="img-2c8307d4-35">
                <path d="M-0.3,-0 L 0.3 -0 0.3 0 -0.3 0 z" class="primitive"/>
              </g>
              <g transform="translate(35.56,88.33)" id="img-2c8307d4-36">
                <path d="M-0.3,-0 L 0.3 -0 0.3 0 -0.3 0 z" class="primitive"/>
              </g>
              <g transform="translate(36.11,88.33)" id="img-2c8307d4-37">
                <path d="M-0.3,-0 L 0.3 -0 0.3 0 -0.3 0 z" class="primitive"/>
              </g>
              <g transform="translate(36.65,88.33)" id="img-2c8307d4-38">
                <path d="M-0.3,-0 L 0.3 -0 0.3 0 -0.3 0 z" class="primitive"/>
              </g>
              <g transform="translate(37.2,88.33)" id="img-2c8307d4-39">
                <path d="M-0.3,-0 L 0.3 -0 0.3 0 -0.3 0 z" class="primitive"/>
              </g>
              <g transform="translate(37.75,88.33)" id="img-2c8307d4-40">
                <path d="M-0.3,-0 L 0.3 -0 0.3 0 -0.3 0 z" class="primitive"/>
              </g>
              <g transform="translate(38.29,88.33)" id="img-2c8307d4-41">
                <path d="M-0.3,-0 L 0.3 -0 0.3 0 -0.3 0 z" class="primitive"/>
              </g>
              <g transform="translate(38.84,88.33)" id="img-2c8307d4-42">
                <path d="M-0.3,-0 L 0.3 -0 0.3 0 -0.3 0 z" class="primitive"/>
              </g>
              <g transform="translate(39.38,87.31)" id="img-2c8307d4-43">
                <path d="M-0.3,-1.02 L 0.3 -1.02 0.3 1.02 -0.3 1.02 z" class="primitive"/>
              </g>
              <g transform="translate(39.93,88.33)" id="img-2c8307d4-44">
                <path d="M-0.3,-0 L 0.3 -0 0.3 0 -0.3 0 z" class="primitive"/>
              </g>
              <g transform="translate(40.48,86.29)" id="img-2c8307d4-45">
                <path d="M-0.3,-2.03 L 0.3 -2.03 0.3 2.03 -0.3 2.03 z" class="primitive"/>
              </g>
              <g transform="translate(41.02,87.31)" id="img-2c8307d4-46">
                <path d="M-0.3,-1.02 L 0.3 -1.02 0.3 1.02 -0.3 1.02 z" class="primitive"/>
              </g>
              <g transform="translate(41.57,88.33)" id="img-2c8307d4-47">
                <path d="M-0.3,-0 L 0.3 -0 0.3 0 -0.3 0 z" class="primitive"/>
              </g>
              <g transform="translate(42.12,88.33)" id="img-2c8307d4-48">
                <path d="M-0.3,-0 L 0.3 -0 0.3 0 -0.3 0 z" class="primitive"/>
              </g>
              <g transform="translate(42.66,85.28)" id="img-2c8307d4-49">
                <path d="M-0.3,-3.05 L 0.3 -3.05 0.3 3.05 -0.3 3.05 z" class="primitive"/>
              </g>
              <g transform="translate(43.21,87.31)" id="img-2c8307d4-50">
                <path d="M-0.3,-1.02 L 0.3 -1.02 0.3 1.02 -0.3 1.02 z" class="primitive"/>
              </g>
              <g transform="translate(43.76,86.29)" id="img-2c8307d4-51">
                <path d="M-0.3,-2.03 L 0.3 -2.03 0.3 2.03 -0.3 2.03 z" class="primitive"/>
              </g>
              <g transform="translate(44.3,86.29)" id="img-2c8307d4-52">
                <path d="M-0.3,-2.03 L 0.3 -2.03 0.3 2.03 -0.3 2.03 z" class="primitive"/>
              </g>
              <g transform="translate(44.85,86.29)" id="img-2c8307d4-53">
                <path d="M-0.3,-2.03 L 0.3 -2.03 0.3 2.03 -0.3 2.03 z" class="primitive"/>
              </g>
              <g transform="translate(45.39,86.29)" id="img-2c8307d4-54">
                <path d="M-0.3,-2.03 L 0.3 -2.03 0.3 2.03 -0.3 2.03 z" class="primitive"/>
              </g>
              <g transform="translate(45.94,83.24)" id="img-2c8307d4-55">
                <path d="M-0.3,-5.08 L 0.3 -5.08 0.3 5.08 -0.3 5.08 z" class="primitive"/>
              </g>
              <g transform="translate(46.49,87.31)" id="img-2c8307d4-56">
                <path d="M-0.3,-1.02 L 0.3 -1.02 0.3 1.02 -0.3 1.02 z" class="primitive"/>
              </g>
              <g transform="translate(47.03,83.24)" id="img-2c8307d4-57">
                <path d="M-0.3,-5.08 L 0.3 -5.08 0.3 5.08 -0.3 5.08 z" class="primitive"/>
              </g>
              <g transform="translate(47.58,86.29)" id="img-2c8307d4-58">
                <path d="M-0.3,-2.03 L 0.3 -2.03 0.3 2.03 -0.3 2.03 z" class="primitive"/>
              </g>
              <g transform="translate(48.13,85.28)" id="img-2c8307d4-59">
                <path d="M-0.3,-3.05 L 0.3 -3.05 0.3 3.05 -0.3 3.05 z" class="primitive"/>
              </g>
              <g transform="translate(48.67,84.26)" id="img-2c8307d4-60">
                <path d="M-0.3,-4.07 L 0.3 -4.07 0.3 4.07 -0.3 4.07 z" class="primitive"/>
              </g>
              <g transform="translate(49.22,83.24)" id="img-2c8307d4-61">
                <path d="M-0.3,-5.08 L 0.3 -5.08 0.3 5.08 -0.3 5.08 z" class="primitive"/>
              </g>
              <g transform="translate(49.77,86.29)" id="img-2c8307d4-62">
                <path d="M-0.3,-2.03 L 0.3 -2.03 0.3 2.03 -0.3 2.03 z" class="primitive"/>
              </g>
              <g transform="translate(50.31,80.19)" id="img-2c8307d4-63">
                <path d="M-0.3,-8.13 L 0.3 -8.13 0.3 8.13 -0.3 8.13 z" class="primitive"/>
              </g>
              <g transform="translate(50.86,84.26)" id="img-2c8307d4-64">
                <path d="M-0.3,-4.07 L 0.3 -4.07 0.3 4.07 -0.3 4.07 z" class="primitive"/>
              </g>
              <g transform="translate(51.4,78.16)" id="img-2c8307d4-65">
                <path d="M-0.3,-10.17 L 0.3 -10.17 0.3 10.17 -0.3 10.17 z" class="primitive"/>
              </g>
              <g transform="translate(51.95,80.19)" id="img-2c8307d4-66">
                <path d="M-0.3,-8.13 L 0.3 -8.13 0.3 8.13 -0.3 8.13 z" class="primitive"/>
              </g>
              <g transform="translate(52.5,83.24)" id="img-2c8307d4-67">
                <path d="M-0.3,-5.08 L 0.3 -5.08 0.3 5.08 -0.3 5.08 z" class="primitive"/>
              </g>
              <g transform="translate(53.04,78.16)" id="img-2c8307d4-68">
                <path d="M-0.3,-10.17 L 0.3 -10.17 0.3 10.17 -0.3 10.17 z" class="primitive"/>
              </g>
              <g transform="translate(53.59,76.13)" id="img-2c8307d4-69">
                <path d="M-0.3,-12.2 L 0.3 -12.2 0.3 12.2 -0.3 12.2 z" class="primitive"/>
              </g>
              <g transform="translate(54.14,76.13)" id="img-2c8307d4-70">
                <path d="M-0.3,-12.2 L 0.3 -12.2 0.3 12.2 -0.3 12.2 z" class="primitive"/>
              </g>
              <g transform="translate(54.68,80.19)" id="img-2c8307d4-71">
                <path d="M-0.3,-8.13 L 0.3 -8.13 0.3 8.13 -0.3 8.13 z" class="primitive"/>
              </g>
              <g transform="translate(55.23,76.13)" id="img-2c8307d4-72">
                <path d="M-0.3,-12.2 L 0.3 -12.2 0.3 12.2 -0.3 12.2 z" class="primitive"/>
              </g>
              <g transform="translate(55.78,76.13)" id="img-2c8307d4-73">
                <path d="M-0.3,-12.2 L 0.3 -12.2 0.3 12.2 -0.3 12.2 z" class="primitive"/>
              </g>
              <g transform="translate(56.32,77.14)" id="img-2c8307d4-74">
                <path d="M-0.3,-11.18 L 0.3 -11.18 0.3 11.18 -0.3 11.18 z" class="primitive"/>
              </g>
              <g transform="translate(56.87,75.11)" id="img-2c8307d4-75">
                <path d="M-0.3,-13.22 L 0.3 -13.22 0.3 13.22 -0.3 13.22 z" class="primitive"/>
              </g>
              <g transform="translate(57.41,73.08)" id="img-2c8307d4-76">
                <path d="M-0.3,-15.25 L 0.3 -15.25 0.3 15.25 -0.3 15.25 z" class="primitive"/>
              </g>
              <g transform="translate(57.96,72.06)" id="img-2c8307d4-77">
                <path d="M-0.3,-16.27 L 0.3 -16.27 0.3 16.27 -0.3 16.27 z" class="primitive"/>
              </g>
              <g transform="translate(58.51,73.08)" id="img-2c8307d4-78">
                <path d="M-0.3,-15.25 L 0.3 -15.25 0.3 15.25 -0.3 15.25 z" class="primitive"/>
              </g>
              <g transform="translate(59.05,66.98)" id="img-2c8307d4-79">
                <path d="M-0.3,-21.35 L 0.3 -21.35 0.3 21.35 -0.3 21.35 z" class="primitive"/>
              </g>
              <g transform="translate(59.6,65.96)" id="img-2c8307d4-80">
                <path d="M-0.3,-22.36 L 0.3 -22.36 0.3 22.36 -0.3 22.36 z" class="primitive"/>
              </g>
              <g transform="translate(60.15,70.03)" id="img-2c8307d4-81">
                <path d="M-0.3,-18.3 L 0.3 -18.3 0.3 18.3 -0.3 18.3 z" class="primitive"/>
              </g>
              <g transform="translate(60.69,62.91)" id="img-2c8307d4-82">
                <path d="M-0.3,-25.41 L 0.3 -25.41 0.3 25.41 -0.3 25.41 z" class="primitive"/>
              </g>
              <g transform="translate(61.24,70.03)" id="img-2c8307d4-83">
                <path d="M-0.3,-18.3 L 0.3 -18.3 0.3 18.3 -0.3 18.3 z" class="primitive"/>
              </g>
              <g transform="translate(61.78,72.06)" id="img-2c8307d4-84">
                <path d="M-0.3,-16.27 L 0.3 -16.27 0.3 16.27 -0.3 16.27 z" class="primitive"/>
              </g>
              <g transform="translate(62.33,72.06)" id="img-2c8307d4-85">
                <path d="M-0.3,-16.27 L 0.3 -16.27 0.3 16.27 -0.3 16.27 z" class="primitive"/>
              </g>
              <g transform="translate(62.88,61.9)" id="img-2c8307d4-86">
                <path d="M-0.3,-26.43 L 0.3 -26.43 0.3 26.43 -0.3 26.43 z" class="primitive"/>
              </g>
              <g transform="translate(63.42,69.01)" id="img-2c8307d4-87">
                <path d="M-0.3,-19.32 L 0.3 -19.32 0.3 19.32 -0.3 19.32 z" class="primitive"/>
              </g>
              <g transform="translate(63.97,69.01)" id="img-2c8307d4-88">
                <path d="M-0.3,-19.32 L 0.3 -19.32 0.3 19.32 -0.3 19.32 z" class="primitive"/>
              </g>
              <g transform="translate(64.52,57.83)" id="img-2c8307d4-89">
                <path d="M-0.3,-30.5 L 0.3 -30.5 0.3 30.5 -0.3 30.5 z" class="primitive"/>
              </g>
              <g transform="translate(65.06,61.9)" id="img-2c8307d4-90">
                <path d="M-0.3,-26.43 L 0.3 -26.43 0.3 26.43 -0.3 26.43 z" class="primitive"/>
              </g>
              <g transform="translate(65.61,64.95)" id="img-2c8307d4-91">
                <path d="M-0.3,-23.38 L 0.3 -23.38 0.3 23.38 -0.3 23.38 z" class="primitive"/>
              </g>
              <g transform="translate(66.16,59.86)" id="img-2c8307d4-92">
                <path d="M-0.3,-28.46 L 0.3 -28.46 0.3 28.46 -0.3 28.46 z" class="primitive"/>
              </g>
              <g transform="translate(66.7,69.01)" id="img-2c8307d4-93">
                <path d="M-0.3,-19.32 L 0.3 -19.32 0.3 19.32 -0.3 19.32 z" class="primitive"/>
              </g>
              <g transform="translate(67.25,65.96)" id="img-2c8307d4-94">
                <path d="M-0.3,-22.36 L 0.3 -22.36 0.3 22.36 -0.3 22.36 z" class="primitive"/>
              </g>
              <g transform="translate(67.79,71.04)" id="img-2c8307d4-95">
                <path d="M-0.3,-17.28 L 0.3 -17.28 0.3 17.28 -0.3 17.28 z" class="primitive"/>
              </g>
              <g transform="translate(68.34,65.96)" id="img-2c8307d4-96">
                <path d="M-0.3,-22.36 L 0.3 -22.36 0.3 22.36 -0.3 22.36 z" class="primitive"/>
              </g>
              <g transform="translate(68.89,64.95)" id="img-2c8307d4-97">
                <path d="M-0.3,-23.38 L 0.3 -23.38 0.3 23.38 -0.3 23.38 z" class="primitive"/>
              </g>
              <g transform="translate(69.43,63.93)" id="img-2c8307d4-98">
                <path d="M-0.3,-24.4 L 0.3 -24.4 0.3 24.4 -0.3 24.4 z" class="primitive"/>
              </g>
              <g transform="translate(69.98,58.85)" id="img-2c8307d4-99">
                <path d="M-0.3,-29.48 L 0.3 -29.48 0.3 29.48 -0.3 29.48 z" class="primitive"/>
              </g>
              <g transform="translate(70.53,66.98)" id="img-2c8307d4-100">
                <path d="M-0.3,-21.35 L 0.3 -21.35 0.3 21.35 -0.3 21.35 z" class="primitive"/>
              </g>
              <g transform="translate(71.07,61.9)" id="img-2c8307d4-101">
                <path d="M-0.3,-26.43 L 0.3 -26.43 0.3 26.43 -0.3 26.43 z" class="primitive"/>
              </g>
              <g transform="translate(71.62,56.81)" id="img-2c8307d4-102">
                <path d="M-0.3,-31.51 L 0.3 -31.51 0.3 31.51 -0.3 31.51 z" class="primitive"/>
              </g>
              <g transform="translate(72.17,63.93)" id="img-2c8307d4-103">
                <path d="M-0.3,-24.4 L 0.3 -24.4 0.3 24.4 -0.3 24.4 z" class="primitive"/>
              </g>
              <g transform="translate(72.71,59.86)" id="img-2c8307d4-104">
                <path d="M-0.3,-28.46 L 0.3 -28.46 0.3 28.46 -0.3 28.46 z" class="primitive"/>
              </g>
              <g transform="translate(73.26,71.04)" id="img-2c8307d4-105">
                <path d="M-0.3,-17.28 L 0.3 -17.28 0.3 17.28 -0.3 17.28 z" class="primitive"/>
              </g>
              <g transform="translate(73.8,64.95)" id="img-2c8307d4-106">
                <path d="M-0.3,-23.38 L 0.3 -23.38 0.3 23.38 -0.3 23.38 z" class="primitive"/>
              </g>
              <g transform="translate(74.35,63.93)" id="img-2c8307d4-107">
                <path d="M-0.3,-24.4 L 0.3 -24.4 0.3 24.4 -0.3 24.4 z" class="primitive"/>
              </g>
              <g transform="translate(74.9,74.09)" id="img-2c8307d4-108">
                <path d="M-0.3,-14.23 L 0.3 -14.23 0.3 14.23 -0.3 14.23 z" class="primitive"/>
              </g>
              <g transform="translate(75.44,75.11)" id="img-2c8307d4-109">
                <path d="M-0.3,-13.22 L 0.3 -13.22 0.3 13.22 -0.3 13.22 z" class="primitive"/>
              </g>
              <g transform="translate(75.99,75.11)" id="img-2c8307d4-110">
                <path d="M-0.3,-13.22 L 0.3 -13.22 0.3 13.22 -0.3 13.22 z" class="primitive"/>
              </g>
              <g transform="translate(76.54,77.14)" id="img-2c8307d4-111">
                <path d="M-0.3,-11.18 L 0.3 -11.18 0.3 11.18 -0.3 11.18 z" class="primitive"/>
              </g>
              <g transform="translate(77.08,82.23)" id="img-2c8307d4-112">
                <path d="M-0.3,-6.1 L 0.3 -6.1 0.3 6.1 -0.3 6.1 z" class="primitive"/>
              </g>
              <g transform="translate(77.63,77.14)" id="img-2c8307d4-113">
                <path d="M-0.3,-11.18 L 0.3 -11.18 0.3 11.18 -0.3 11.18 z" class="primitive"/>
              </g>
              <g transform="translate(78.18,82.23)" id="img-2c8307d4-114">
                <path d="M-0.3,-6.1 L 0.3 -6.1 0.3 6.1 -0.3 6.1 z" class="primitive"/>
              </g>
              <g transform="translate(78.72,83.24)" id="img-2c8307d4-115">
                <path d="M-0.3,-5.08 L 0.3 -5.08 0.3 5.08 -0.3 5.08 z" class="primitive"/>
              </g>
              <g transform="translate(79.27,78.16)" id="img-2c8307d4-116">
                <path d="M-0.3,-10.17 L 0.3 -10.17 0.3 10.17 -0.3 10.17 z" class="primitive"/>
              </g>
              <g transform="translate(79.81,78.16)" id="img-2c8307d4-117">
                <path d="M-0.3,-10.17 L 0.3 -10.17 0.3 10.17 -0.3 10.17 z" class="primitive"/>
              </g>
              <g transform="translate(80.36,85.28)" id="img-2c8307d4-118">
                <path d="M-0.3,-3.05 L 0.3 -3.05 0.3 3.05 -0.3 3.05 z" class="primitive"/>
              </g>
              <g transform="translate(80.91,86.29)" id="img-2c8307d4-119">
                <path d="M-0.3,-2.03 L 0.3 -2.03 0.3 2.03 -0.3 2.03 z" class="primitive"/>
              </g>
              <g transform="translate(81.45,85.28)" id="img-2c8307d4-120">
                <path d="M-0.3,-3.05 L 0.3 -3.05 0.3 3.05 -0.3 3.05 z" class="primitive"/>
              </g>
              <g transform="translate(82,84.26)" id="img-2c8307d4-121">
                <path d="M-0.3,-4.07 L 0.3 -4.07 0.3 4.07 -0.3 4.07 z" class="primitive"/>
              </g>
              <g transform="translate(82.55,84.26)" id="img-2c8307d4-122">
                <path d="M-0.3,-4.07 L 0.3 -4.07 0.3 4.07 -0.3 4.07 z" class="primitive"/>
              </g>
              <g transform="translate(83.09,84.26)" id="img-2c8307d4-123">
                <path d="M-0.3,-4.07 L 0.3 -4.07 0.3 4.07 -0.3 4.07 z" class="primitive"/>
              </g>
              <g transform="translate(83.64,87.31)" id="img-2c8307d4-124">
                <path d="M-0.3,-1.02 L 0.3 -1.02 0.3 1.02 -0.3 1.02 z" class="primitive"/>
              </g>
              <g transform="translate(84.19,85.28)" id="img-2c8307d4-125">
                <path d="M-0.3,-3.05 L 0.3 -3.05 0.3 3.05 -0.3 3.05 z" class="primitive"/>
              </g>
              <g transform="translate(84.73,87.31)" id="img-2c8307d4-126">
                <path d="M-0.3,-1.02 L 0.3 -1.02 0.3 1.02 -0.3 1.02 z" class="primitive"/>
              </g>
              <g transform="translate(85.28,86.29)" id="img-2c8307d4-127">
                <path d="M-0.3,-2.03 L 0.3 -2.03 0.3 2.03 -0.3 2.03 z" class="primitive"/>
              </g>
              <g transform="translate(85.82,88.33)" id="img-2c8307d4-128">
                <path d="M-0.3,-0 L 0.3 -0 0.3 0 -0.3 0 z" class="primitive"/>
              </g>
              <g transform="translate(86.37,87.31)" id="img-2c8307d4-129">
                <path d="M-0.3,-1.02 L 0.3 -1.02 0.3 1.02 -0.3 1.02 z" class="primitive"/>
              </g>
              <g transform="translate(86.92,87.31)" id="img-2c8307d4-130">
                <path d="M-0.3,-1.02 L 0.3 -1.02 0.3 1.02 -0.3 1.02 z" class="primitive"/>
              </g>
            </g>
          </g>
        </g>
      </g>
    </g>
  </g>
  <g class="guide ylabels" font-size="2.82" font-family="'PT Sans Caption','Helvetica Neue','Helvetica',sans-serif" fill="#6C606B" id="img-2c8307d4-131">
    <g transform="translate(16.96,88.33)" id="img-2c8307d4-132">
      <g class="primitive">
        <text text-anchor="end" dy="0.35em">0</text>
      </g>
    </g>
    <g transform="translate(16.96,68)" id="img-2c8307d4-133">
      <g class="primitive">
        <text text-anchor="end" dy="0.35em">10</text>
      </g>
    </g>
    <g transform="translate(16.96,47.66)" id="img-2c8307d4-134">
      <g class="primitive">
        <text text-anchor="end" dy="0.35em">20</text>
      </g>
    </g>
    <g transform="translate(16.96,27.33)" id="img-2c8307d4-135">
      <g class="primitive">
        <text text-anchor="end" dy="0.35em">30</text>
      </g>
    </g>
    <g transform="translate(16.96,7)" id="img-2c8307d4-136">
      <g class="primitive">
        <text text-anchor="end" dy="0.35em">40</text>
      </g>
    </g>
  </g>
  <g font-size="3.88" font-family="'PT Sans','Helvetica Neue','Helvetica',sans-serif" fill="#564A55" stroke="#000000" stroke-opacity="0.000" id="img-2c8307d4-137">
    <g transform="translate(8.81,45.66)" id="img-2c8307d4-138">
      <g class="primitive">
        <text text-anchor="middle" dy="0.35em" transform="rotate(-90,0, 2)">frequency</text>
      </g>
    </g>
  </g>
</g>
<defs>
  <clipPath id="img-2c8307d4-11">
    <path d="M17.96,5 L 99.58 5 99.58 90.33 17.96 90.33" />
  </clipPath>
</defs>
</svg>
