<?xml version="1.0" encoding="UTF-8"?>
<svg xmlns="http://www.w3.org/2000/svg"
     xmlns:xlink="http://www.w3.org/1999/xlink"
     xmlns:gadfly="http://www.gadflyjl.org/ns"
     version="1.2"
     width="141.42mm" height="100mm" viewBox="0 0 141.42 100"
     stroke="none"
     fill="#000000"
     stroke-width="0.3"
     font-size="3.88"
>
<defs>
  <marker id="arrow" markerWidth="15" markerHeight="7" refX="5" refY="3.5" orient="auto" markerUnits="strokeWidth">
    <path d="M0,0 L15,3.5 L0,7 z" stroke="context-stroke" fill="context-stroke"/>
  </marker>
</defs>
<g class="plotroot xscalable yscalable" id="img-ace8be95-1">
  <g class="guide xlabels" font-size="2.82" font-family="'PT Sans Caption','Helvetica Neue','Helvetica',sans-serif" fill="#6C606B" id="img-ace8be95-2">
    <g transform="translate(19.96,78.54)">
      <g class="primitive">
        <text text-anchor="end" dy="0.35em" transform="rotate(-90,0, 0)">8.000×10⁴</text>
      </g>
    </g>
    <g transform="translate(31.1,78.54)">
      <g class="primitive">
        <text text-anchor="end" dy="0.35em" transform="rotate(-90,0, 0)">8.500×10⁴</text>
      </g>
    </g>
    <g transform="translate(42.25,78.54)">
      <g class="primitive">
        <text text-anchor="end" dy="0.35em" transform="rotate(-90,0, 0)">9.000×10⁴</text>
      </g>
    </g>
    <g transform="translate(53.39,78.54)">
      <g class="primitive">
        <text text-anchor="end" dy="0.35em" transform="rotate(-90,0, 0)">9.500×10⁴</text>
      </g>
    </g>
    <g transform="translate(64.54,78.54)">
      <g class="primitive">
        <text text-anchor="end" dy="0.35em" transform="rotate(-90,0, 0)">1.000×10⁵</text>
      </g>
    </g>
    <g transform="translate(75.68,78.54)">
      <g class="primitive">
        <text text-anchor="end" dy="0.35em" transform="rotate(-90,0, 0)">1.050×10⁵</text>
      </g>
    </g>
  </g>
  <g class="guide colorkey" id="img-ace8be95-3">
    <g class="color_coding_noncoding_coding_noncoding_4-cycle" id="img-ace8be95-4">
      <g fill="#4C404B" font-size="2.82" font-family="'PT Sans','Helvetica Neue','Helvetica',sans-serif" id="img-ace8be95-5">
        <g transform="translate(81.49,43.08)" id="img-ace8be95-6">
          <g class="primitive">
            <text dy="0.35em">coding_noncoding_coding_noncoding_4-cycle</text>
          </g>
        </g>
      </g>
      <g fill-opacity="1" fill="#00BFFF" stroke="#FFFFFF" id="img-ace8be95-7">
        <g transform="translate(79.59,43.08)" id="img-ace8be95-8">
          <path d="M-0.91,-0.91 L0.91,-0.91 0.91,0.91 -0.91,0.91  z" class="primitive"/>
        </g>
      </g>
    </g>
    <g fill="#362A35" font-size="3.88" font-family="'PT Sans','Helvetica Neue','Helvetica',sans-serif" stroke="#000000" stroke-opacity="0.000" id="img-ace8be95-9">
      <g transform="translate(78.68,39.26)" id="img-ace8be95-10">
        <g class="primitive">
          <text dy="-0em">graphlet</text>
        </g>
      </g>
    </g>
  </g>
  <g clip-path="url(#img-ace8be95-11)">
    <g id="img-ace8be95-12">
      <g pointer-events="visible" stroke-width="0.3" fill="#000000" fill-opacity="0.000" stroke="#000000" stroke-opacity="0.000" class="guide background" id="img-ace8be95-13">
        <g transform="translate(47.82,41.27)" id="img-ace8be95-14">
          <path d="M-29.86,-36.27 L29.86,-36.27 29.86,36.27 -29.86,36.27  z" class="primitive"/>
        </g>
      </g>
      <g class="guide ygridlines xfixed" stroke-dasharray="0.5,0.5" stroke-width="0.2" stroke="#D0D0E0" id="img-ace8be95-15">
        <g transform="translate(47.82,75.54)" id="img-ace8be95-16">
          <path fill="none" d="M-29.86,0 L29.86,0 " class="primitive"/>
        </g>
        <g transform="translate(47.82,52.69)" id="img-ace8be95-17">
          <path fill="none" d="M-29.86,0 L29.86,0 " class="primitive"/>
        </g>
        <g transform="translate(47.82,29.85)" id="img-ace8be95-18">
          <path fill="none" d="M-29.86,0 L29.86,0 " class="primitive"/>
        </g>
        <g transform="translate(47.82,7)" id="img-ace8be95-19">
          <path fill="none" d="M-29.86,0 L29.86,0 " class="primitive"/>
        </g>
      </g>
      <g class="guide xgridlines yfixed" stroke-dasharray="0.5,0.5" stroke-width="0.2" stroke="#D0D0E0" id="img-ace8be95-20">
        <g transform="translate(19.96,41.27)" id="img-ace8be95-21">
          <path fill="none" d="M0,-36.27 L0,36.27 " class="primitive"/>
        </g>
        <g transform="translate(31.1,41.27)" id="img-ace8be95-22">
          <path fill="none" d="M0,-36.27 L0,36.27 " class="primitive"/>
        </g>
        <g transform="translate(42.25,41.27)" id="img-ace8be95-23">
          <path fill="none" d="M0,-36.27 L0,36.27 " class="primitive"/>
        </g>
        <g transform="translate(53.39,41.27)" id="img-ace8be95-24">
          <path fill="none" d="M0,-36.27 L0,36.27 " class="primitive"/>
        </g>
        <g transform="translate(64.54,41.27)" id="img-ace8be95-25">
          <path fill="none" d="M0,-36.27 L0,36.27 " class="primitive"/>
        </g>
        <g transform="translate(75.68,41.27)" id="img-ace8be95-26">
          <path fill="none" d="M0,-36.27 L0,36.27 " class="primitive"/>
        </g>
      </g>
      <g class="plotpanel" id="img-ace8be95-27">
        <metadata>
          <boundingbox value="17.958333333333336mm 5.0mm 59.723022903976165mm 72.54mm"/>
          <unitbox value="79102.70481760902 30.875401225561717 26794.590364781958 -31.75080245112343"/>
        </metadata>
        <g shape-rendering="crispEdges" stroke-width="0.3" id="img-ace8be95-28">
          <g stroke="#000000" stroke-opacity="0.000" class="geometry" id="img-ace8be95-29">
            <g fill="#00BFFF" id="img-ace8be95-30">
              <g transform="translate(27.68,74.4)" id="img-ace8be95-31">
                <path d="M-0.26,-1.14 L0.26,-1.14 0.26,1.14 -0.26,1.14  z" class="primitive"/>
              </g>
              <g transform="translate(28.15,75.54)" id="img-ace8be95-32">
                <path d="M-0.26,-0 L0.26,-0 0.26,0 -0.26,0  z" class="primitive"/>
              </g>
              <g transform="translate(28.62,73.26)" id="img-ace8be95-33">
                <path d="M-0.26,-2.28 L0.26,-2.28 0.26,2.28 -0.26,2.28  z" class="primitive"/>
              </g>
              <g transform="translate(29.09,74.4)" id="img-ace8be95-34">
                <path d="M-0.26,-1.14 L0.26,-1.14 0.26,1.14 -0.26,1.14  z" class="primitive"/>
              </g>
              <g transform="translate(29.56,74.4)" id="img-ace8be95-35">
                <path d="M-0.26,-1.14 L0.26,-1.14 0.26,1.14 -0.26,1.14  z" class="primitive"/>
              </g>
              <g transform="translate(30.02,74.4)" id="img-ace8be95-36">
                <path d="M-0.26,-1.14 L0.26,-1.14 0.26,1.14 -0.26,1.14  z" class="primitive"/>
              </g>
              <g transform="translate(30.49,74.4)" id="img-ace8be95-37">
                <path d="M-0.26,-1.14 L0.26,-1.14 0.26,1.14 -0.26,1.14  z" class="primitive"/>
              </g>
              <g transform="translate(30.96,75.54)" id="img-ace8be95-38">
                <path d="M-0.26,-0 L0.26,-0 0.26,0 -0.26,0  z" class="primitive"/>
              </g>
              <g transform="translate(31.43,75.54)" id="img-ace8be95-39">
                <path d="M-0.26,-0 L0.26,-0 0.26,0 -0.26,0  z" class="primitive"/>
              </g>
              <g transform="translate(31.9,69.83)" id="img-ace8be95-40">
                <path d="M-0.26,-5.71 L0.26,-5.71 0.26,5.71 -0.26,5.71  z" class="primitive"/>
              </g>
              <g transform="translate(32.37,74.4)" id="img-ace8be95-41">
                <path d="M-0.26,-1.14 L0.26,-1.14 0.26,1.14 -0.26,1.14  z" class="primitive"/>
              </g>
              <g transform="translate(32.84,73.26)" id="img-ace8be95-42">
                <path d="M-0.26,-2.28 L0.26,-2.28 0.26,2.28 -0.26,2.28  z" class="primitive"/>
              </g>
              <g transform="translate(33.31,73.26)" id="img-ace8be95-43">
                <path d="M-0.26,-2.28 L0.26,-2.28 0.26,2.28 -0.26,2.28  z" class="primitive"/>
              </g>
              <g transform="translate(33.77,74.4)" id="img-ace8be95-44">
                <path d="M-0.26,-1.14 L0.26,-1.14 0.26,1.14 -0.26,1.14  z" class="primitive"/>
              </g>
              <g transform="translate(34.24,69.83)" id="img-ace8be95-45">
                <path d="M-0.26,-5.71 L0.26,-5.71 0.26,5.71 -0.26,5.71  z" class="primitive"/>
              </g>
              <g transform="translate(34.71,73.26)" id="img-ace8be95-46">
                <path d="M-0.26,-2.28 L0.26,-2.28 0.26,2.28 -0.26,2.28  z" class="primitive"/>
              </g>
              <g transform="translate(35.18,69.83)" id="img-ace8be95-47">
                <path d="M-0.26,-5.71 L0.26,-5.71 0.26,5.71 -0.26,5.71  z" class="primitive"/>
              </g>
              <g transform="translate(35.65,68.69)" id="img-ace8be95-48">
                <path d="M-0.26,-6.85 L0.26,-6.85 0.26,6.85 -0.26,6.85  z" class="primitive"/>
              </g>
              <g transform="translate(36.12,67.54)" id="img-ace8be95-49">
                <path d="M-0.26,-8 L0.26,-8 0.26,8 -0.26,8  z" class="primitive"/>
              </g>
              <g transform="translate(36.59,65.26)" id="img-ace8be95-50">
                <path d="M-0.26,-10.28 L0.26,-10.28 0.26,10.28 -0.26,10.28  z" class="primitive"/>
              </g>
              <g transform="translate(37.05,70.97)" id="img-ace8be95-51">
                <path d="M-0.26,-4.57 L0.26,-4.57 0.26,4.57 -0.26,4.57  z" class="primitive"/>
              </g>
              <g transform="translate(37.52,68.69)" id="img-ace8be95-52">
                <path d="M-0.26,-6.85 L0.26,-6.85 0.26,6.85 -0.26,6.85  z" class="primitive"/>
              </g>
              <g transform="translate(37.99,66.4)" id="img-ace8be95-53">
                <path d="M-0.26,-9.14 L0.26,-9.14 0.26,9.14 -0.26,9.14  z" class="primitive"/>
              </g>
              <g transform="translate(38.46,67.54)" id="img-ace8be95-54">
                <path d="M-0.26,-8 L0.26,-8 0.26,8 -0.26,8  z" class="primitive"/>
              </g>
              <g transform="translate(38.93,67.54)" id="img-ace8be95-55">
                <path d="M-0.26,-8 L0.26,-8 0.26,8 -0.26,8  z" class="primitive"/>
              </g>
              <g transform="translate(39.4,66.4)" id="img-ace8be95-56">
                <path d="M-0.26,-9.14 L0.26,-9.14 0.26,9.14 -0.26,9.14  z" class="primitive"/>
              </g>
              <g transform="translate(39.87,62.97)" id="img-ace8be95-57">
                <path d="M-0.26,-12.57 L0.26,-12.57 0.26,12.57 -0.26,12.57  z" class="primitive"/>
              </g>
              <g transform="translate(40.33,64.12)" id="img-ace8be95-58">
                <path d="M-0.26,-11.42 L0.26,-11.42 0.26,11.42 -0.26,11.42  z" class="primitive"/>
              </g>
              <g transform="translate(40.8,67.54)" id="img-ace8be95-59">
                <path d="M-0.26,-8 L0.26,-8 0.26,8 -0.26,8  z" class="primitive"/>
              </g>
              <g transform="translate(41.27,60.69)" id="img-ace8be95-60">
                <path d="M-0.26,-14.85 L0.26,-14.85 0.26,14.85 -0.26,14.85  z" class="primitive"/>
              </g>
              <g transform="translate(41.74,68.69)" id="img-ace8be95-61">
                <path d="M-0.26,-6.85 L0.26,-6.85 0.26,6.85 -0.26,6.85  z" class="primitive"/>
              </g>
              <g transform="translate(42.21,54.98)" id="img-ace8be95-62">
                <path d="M-0.26,-20.56 L0.26,-20.56 0.26,20.56 -0.26,20.56  z" class="primitive"/>
              </g>
              <g transform="translate(42.68,54.98)" id="img-ace8be95-63">
                <path d="M-0.26,-20.56 L0.26,-20.56 0.26,20.56 -0.26,20.56  z" class="primitive"/>
              </g>
              <g transform="translate(43.15,67.54)" id="img-ace8be95-64">
                <path d="M-0.26,-8 L0.26,-8 0.26,8 -0.26,8  z" class="primitive"/>
              </g>
              <g transform="translate(43.61,57.26)" id="img-ace8be95-65">
                <path d="M-0.26,-18.28 L0.26,-18.28 0.26,18.28 -0.26,18.28  z" class="primitive"/>
              </g>
              <g transform="translate(44.08,60.69)" id="img-ace8be95-66">
                <path d="M-0.26,-14.85 L0.26,-14.85 0.26,14.85 -0.26,14.85  z" class="primitive"/>
              </g>
              <g transform="translate(44.55,56.12)" id="img-ace8be95-67">
                <path d="M-0.26,-19.42 L0.26,-19.42 0.26,19.42 -0.26,19.42  z" class="primitive"/>
              </g>
              <g transform="translate(45.02,58.4)" id="img-ace8be95-68">
                <path d="M-0.26,-17.14 L0.26,-17.14 0.26,17.14 -0.26,17.14  z" class="primitive"/>
              </g>
              <g transform="translate(45.49,57.26)" id="img-ace8be95-69">
                <path d="M-0.26,-18.28 L0.26,-18.28 0.26,18.28 -0.26,18.28  z" class="primitive"/>
              </g>
              <g transform="translate(45.96,48.12)" id="img-ace8be95-70">
                <path d="M-0.26,-27.42 L0.26,-27.42 0.26,27.42 -0.26,27.42  z" class="primitive"/>
              </g>
              <g transform="translate(46.43,54.98)" id="img-ace8be95-71">
                <path d="M-0.26,-20.56 L0.26,-20.56 0.26,20.56 -0.26,20.56  z" class="primitive"/>
              </g>
              <g transform="translate(46.89,49.27)" id="img-ace8be95-72">
                <path d="M-0.26,-26.27 L0.26,-26.27 0.26,26.27 -0.26,26.27  z" class="primitive"/>
              </g>
              <g transform="translate(47.36,53.84)" id="img-ace8be95-73">
                <path d="M-0.26,-21.7 L0.26,-21.7 0.26,21.7 -0.26,21.7  z" class="primitive"/>
              </g>
              <g transform="translate(47.83,53.84)" id="img-ace8be95-74">
                <path d="M-0.26,-21.7 L0.26,-21.7 0.26,21.7 -0.26,21.7  z" class="primitive"/>
              </g>
              <g transform="translate(48.3,42.41)" id="img-ace8be95-75">
                <path d="M-0.26,-33.13 L0.26,-33.13 0.26,33.13 -0.26,33.13  z" class="primitive"/>
              </g>
              <g transform="translate(48.77,48.12)" id="img-ace8be95-76">
                <path d="M-0.26,-27.42 L0.26,-27.42 0.26,27.42 -0.26,27.42  z" class="primitive"/>
              </g>
              <g transform="translate(49.24,48.12)" id="img-ace8be95-77">
                <path d="M-0.26,-27.42 L0.26,-27.42 0.26,27.42 -0.26,27.42  z" class="primitive"/>
              </g>
              <g transform="translate(49.71,50.41)" id="img-ace8be95-78">
                <path d="M-0.26,-25.13 L0.26,-25.13 0.26,25.13 -0.26,25.13  z" class="primitive"/>
              </g>
              <g transform="translate(50.18,50.41)" id="img-ace8be95-79">
                <path d="M-0.26,-25.13 L0.26,-25.13 0.26,25.13 -0.26,25.13  z" class="primitive"/>
              </g>
              <g transform="translate(50.64,45.84)" id="img-ace8be95-80">
                <path d="M-0.26,-29.7 L0.26,-29.7 0.26,29.7 -0.26,29.7  z" class="primitive"/>
              </g>
              <g transform="translate(51.11,52.69)" id="img-ace8be95-81">
                <path d="M-0.26,-22.85 L0.26,-22.85 0.26,22.85 -0.26,22.85  z" class="primitive"/>
              </g>
              <g transform="translate(51.58,46.98)" id="img-ace8be95-82">
                <path d="M-0.26,-28.56 L0.26,-28.56 0.26,28.56 -0.26,28.56  z" class="primitive"/>
              </g>
              <g transform="translate(52.05,46.98)" id="img-ace8be95-83">
                <path d="M-0.26,-28.56 L0.26,-28.56 0.26,28.56 -0.26,28.56  z" class="primitive"/>
              </g>
              <g transform="translate(52.52,44.7)" id="img-ace8be95-84">
                <path d="M-0.26,-30.84 L0.26,-30.84 0.26,30.84 -0.26,30.84  z" class="primitive"/>
              </g>
              <g transform="translate(52.99,41.27)" id="img-ace8be95-85">
                <path d="M-0.26,-34.27 L0.26,-34.27 0.26,34.27 -0.26,34.27  z" class="primitive"/>
              </g>
              <g transform="translate(53.46,56.12)" id="img-ace8be95-86">
                <path d="M-0.26,-19.42 L0.26,-19.42 0.26,19.42 -0.26,19.42  z" class="primitive"/>
              </g>
              <g transform="translate(53.92,57.26)" id="img-ace8be95-87">
                <path d="M-0.26,-18.28 L0.26,-18.28 0.26,18.28 -0.26,18.28  z" class="primitive"/>
              </g>
              <g transform="translate(54.39,50.41)" id="img-ace8be95-88">
                <path d="M-0.26,-25.13 L0.26,-25.13 0.26,25.13 -0.26,25.13  z" class="primitive"/>
              </g>
              <g transform="translate(54.86,51.55)" id="img-ace8be95-89">
                <path d="M-0.26,-23.99 L0.26,-23.99 0.26,23.99 -0.26,23.99  z" class="primitive"/>
              </g>
              <g transform="translate(55.33,52.69)" id="img-ace8be95-90">
                <path d="M-0.26,-22.85 L0.26,-22.85 0.26,22.85 -0.26,22.85  z" class="primitive"/>
              </g>
              <g transform="translate(55.8,59.55)" id="img-ace8be95-91">
                <path d="M-0.26,-15.99 L0.26,-15.99 0.26,15.99 -0.26,15.99  z" class="primitive"/>
              </g>
              <g transform="translate(56.27,58.4)" id="img-ace8be95-92">
                <path d="M-0.26,-17.14 L0.26,-17.14 0.26,17.14 -0.26,17.14  z" class="primitive"/>
              </g>
              <g transform="translate(56.74,58.4)" id="img-ace8be95-93">
                <path d="M-0.26,-17.14 L0.26,-17.14 0.26,17.14 -0.26,17.14  z" class="primitive"/>
              </g>
              <g transform="translate(57.2,53.84)" id="img-ace8be95-94">
                <path d="M-0.26,-21.7 L0.26,-21.7 0.26,21.7 -0.26,21.7  z" class="primitive"/>
              </g>
              <g transform="translate(57.67,61.83)" id="img-ace8be95-95">
                <path d="M-0.26,-13.71 L0.26,-13.71 0.26,13.71 -0.26,13.71  z" class="primitive"/>
              </g>
              <g transform="translate(58.14,64.12)" id="img-ace8be95-96">
                <path d="M-0.26,-11.42 L0.26,-11.42 0.26,11.42 -0.26,11.42  z" class="primitive"/>
              </g>
              <g transform="translate(58.61,65.26)" id="img-ace8be95-97">
                <path d="M-0.26,-10.28 L0.26,-10.28 0.26,10.28 -0.26,10.28  z" class="primitive"/>
              </g>
              <g transform="translate(59.08,56.12)" id="img-ace8be95-98">
                <path d="M-0.26,-19.42 L0.26,-19.42 0.26,19.42 -0.26,19.42  z" class="primitive"/>
              </g>
              <g transform="translate(59.55,60.69)" id="img-ace8be95-99">
                <path d="M-0.26,-14.85 L0.26,-14.85 0.26,14.85 -0.26,14.85  z" class="primitive"/>
              </g>
              <g transform="translate(60.02,59.55)" id="img-ace8be95-100">
                <path d="M-0.26,-15.99 L0.26,-15.99 0.26,15.99 -0.26,15.99  z" class="primitive"/>
              </g>
              <g transform="translate(60.48,62.97)" id="img-ace8be95-101">
                <path d="M-0.26,-12.57 L0.26,-12.57 0.26,12.57 -0.26,12.57  z" class="primitive"/>
              </g>
              <g transform="translate(60.95,56.12)" id="img-ace8be95-102">
                <path d="M-0.26,-19.42 L0.26,-19.42 0.26,19.42 -0.26,19.42  z" class="primitive"/>
              </g>
              <g transform="translate(61.42,65.26)" id="img-ace8be95-103">
                <path d="M-0.26,-10.28 L0.26,-10.28 0.26,10.28 -0.26,10.28  z" class="primitive"/>
              </g>
              <g transform="translate(61.89,64.12)" id="img-ace8be95-104">
                <path d="M-0.26,-11.42 L0.26,-11.42 0.26,11.42 -0.26,11.42  z" class="primitive"/>
              </g>
              <g transform="translate(62.36,66.4)" id="img-ace8be95-105">
                <path d="M-0.26,-9.14 L0.26,-9.14 0.26,9.14 -0.26,9.14  z" class="primitive"/>
              </g>
              <g transform="translate(62.83,68.69)" id="img-ace8be95-106">
                <path d="M-0.26,-6.85 L0.26,-6.85 0.26,6.85 -0.26,6.85  z" class="primitive"/>
              </g>
              <g transform="translate(63.3,67.54)" id="img-ace8be95-107">
                <path d="M-0.26,-8 L0.26,-8 0.26,8 -0.26,8  z" class="primitive"/>
              </g>
              <g transform="translate(63.76,69.83)" id="img-ace8be95-108">
                <path d="M-0.26,-5.71 L0.26,-5.71 0.26,5.71 -0.26,5.71  z" class="primitive"/>
              </g>
              <g transform="translate(64.23,66.4)" id="img-ace8be95-109">
                <path d="M-0.26,-9.14 L0.26,-9.14 0.26,9.14 -0.26,9.14  z" class="primitive"/>
              </g>
              <g transform="translate(64.7,72.11)" id="img-ace8be95-110">
                <path d="M-0.26,-3.43 L0.26,-3.43 0.26,3.43 -0.26,3.43  z" class="primitive"/>
              </g>
              <g transform="translate(65.17,68.69)" id="img-ace8be95-111">
                <path d="M-0.26,-6.85 L0.26,-6.85 0.26,6.85 -0.26,6.85  z" class="primitive"/>
              </g>
              <g transform="translate(65.64,72.11)" id="img-ace8be95-112">
                <path d="M-0.26,-3.43 L0.26,-3.43 0.26,3.43 -0.26,3.43  z" class="primitive"/>
              </g>
              <g transform="translate(66.11,69.83)" id="img-ace8be95-113">
                <path d="M-0.26,-5.71 L0.26,-5.71 0.26,5.71 -0.26,5.71  z" class="primitive"/>
              </g>
              <g transform="translate(66.58,69.83)" id="img-ace8be95-114">
                <path d="M-0.26,-5.71 L0.26,-5.71 0.26,5.71 -0.26,5.71  z" class="primitive"/>
              </g>
              <g transform="translate(67.04,68.69)" id="img-ace8be95-115">
                <path d="M-0.26,-6.85 L0.26,-6.85 0.26,6.85 -0.26,6.85  z" class="primitive"/>
              </g>
              <g transform="translate(67.51,73.26)" id="img-ace8be95-116">
                <path d="M-0.26,-2.28 L0.26,-2.28 0.26,2.28 -0.26,2.28  z" class="primitive"/>
              </g>
              <g transform="translate(67.98,73.26)" id="img-ace8be95-117">
                <path d="M-0.26,-2.28 L0.26,-2.28 0.26,2.28 -0.26,2.28  z" class="primitive"/>
              </g>
              <g transform="translate(68.45,75.54)" id="img-ace8be95-118">
                <path d="M-0.26,-0 L0.26,-0 0.26,0 -0.26,0  z" class="primitive"/>
              </g>
              <g transform="translate(68.92,72.11)" id="img-ace8be95-119">
                <path d="M-0.26,-3.43 L0.26,-3.43 0.26,3.43 -0.26,3.43  z" class="primitive"/>
              </g>
              <g transform="translate(69.39,74.4)" id="img-ace8be95-120">
                <path d="M-0.26,-1.14 L0.26,-1.14 0.26,1.14 -0.26,1.14  z" class="primitive"/>
              </g>
              <g transform="translate(69.86,73.26)" id="img-ace8be95-121">
                <path d="M-0.26,-2.28 L0.26,-2.28 0.26,2.28 -0.26,2.28  z" class="primitive"/>
              </g>
              <g transform="translate(70.33,74.4)" id="img-ace8be95-122">
                <path d="M-0.26,-1.14 L0.26,-1.14 0.26,1.14 -0.26,1.14  z" class="primitive"/>
              </g>
              <g transform="translate(70.79,74.4)" id="img-ace8be95-123">
                <path d="M-0.26,-1.14 L0.26,-1.14 0.26,1.14 -0.26,1.14  z" class="primitive"/>
              </g>
              <g transform="translate(71.26,73.26)" id="img-ace8be95-124">
                <path d="M-0.26,-2.28 L0.26,-2.28 0.26,2.28 -0.26,2.28  z" class="primitive"/>
              </g>
              <g transform="translate(71.73,74.4)" id="img-ace8be95-125">
                <path d="M-0.26,-1.14 L0.26,-1.14 0.26,1.14 -0.26,1.14  z" class="primitive"/>
              </g>
              <g transform="translate(72.2,75.54)" id="img-ace8be95-126">
                <path d="M-0.26,-0 L0.26,-0 0.26,0 -0.26,0  z" class="primitive"/>
              </g>
              <g transform="translate(72.67,73.26)" id="img-ace8be95-127">
                <path d="M-0.26,-2.28 L0.26,-2.28 0.26,2.28 -0.26,2.28  z" class="primitive"/>
              </g>
              <g transform="translate(73.14,75.54)" id="img-ace8be95-128">
                <path d="M-0.26,-0 L0.26,-0 0.26,0 -0.26,0  z" class="primitive"/>
              </g>
              <g transform="translate(73.61,73.26)" id="img-ace8be95-129">
                <path d="M-0.26,-2.28 L0.26,-2.28 0.26,2.28 -0.26,2.28  z" class="primitive"/>
              </g>
              <g transform="translate(74.07,73.26)" id="img-ace8be95-130">
                <path d="M-0.26,-2.28 L0.26,-2.28 0.26,2.28 -0.26,2.28  z" class="primitive"/>
              </g>
            </g>
          </g>
        </g>
      </g>
    </g>
  </g>
  <g class="guide ylabels" font-size="2.82" font-family="'PT Sans Caption','Helvetica Neue','Helvetica',sans-serif" fill="#6C606B" id="img-ace8be95-131">
    <g transform="translate(16.96,75.54)" id="img-ace8be95-132">
      <g class="primitive">
        <text text-anchor="end" dy="0.35em">0</text>
      </g>
    </g>
    <g transform="translate(16.96,52.69)" id="img-ace8be95-133">
      <g class="primitive">
        <text text-anchor="end" dy="0.35em">10</text>
      </g>
    </g>
    <g transform="translate(16.96,29.85)" id="img-ace8be95-134">
      <g class="primitive">
        <text text-anchor="end" dy="0.35em">20</text>
      </g>
    </g>
    <g transform="translate(16.96,7)" id="img-ace8be95-135">
      <g class="primitive">
        <text text-anchor="end" dy="0.35em">30</text>
      </g>
    </g>
  </g>
  <g font-size="3.88" font-family="'PT Sans','Helvetica Neue','Helvetica',sans-serif" fill="#564A55" stroke="#000000" stroke-opacity="0.000" id="img-ace8be95-136">
    <g transform="translate(8.81,39.27)" id="img-ace8be95-137">
      <g class="primitive">
        <text text-anchor="middle" dy="0.35em" transform="rotate(-90,0, 2)">frequency</text>
      </g>
    </g>
  </g>
</g>
<defs>
  <clipPath id="img-ace8be95-11">
    <path d="M17.96,5 L77.68,5 77.68,77.54 17.96,77.54 " />
  </clipPath>
</defs>
</svg>
