<?xml version="1.0" encoding="UTF-8"?>
<svg xmlns="http://www.w3.org/2000/svg"
     xmlns:xlink="http://www.w3.org/1999/xlink"
     xmlns:gadfly="http://www.gadflyjl.org/ns"
     version="1.2"
     width="141.42mm" height="100mm" viewBox="0 0 141.42 100"
     stroke="none"
     fill="#000000"
     stroke-width="0.3"
     font-size="3.88"
>
<defs>
  <marker id="arrow" markerWidth="15" markerHeight="7" refX="5" refY="3.5" orient="auto" markerUnits="strokeWidth">
    <path d="M0,0 L15,3.5 L0,7 z" stroke="context-stroke" fill="context-stroke"/>
  </marker>
</defs>
<g class="plotroot xscalable yscalable" id="img-990a4904-1">
  <g class="guide xlabels" font-size="2.82" font-family="'PT Sans Caption','Helvetica Neue','Helvetica',sans-serif" fill="#6C606B" id="img-990a4904-2">
    <g transform="translate(19.96,91.33)">
      <g class="primitive">
        <text text-anchor="middle" dy="0.6em">2.80×10⁷</text>
      </g>
    </g>
    <g transform="translate(36.73,91.33)">
      <g class="primitive">
        <text text-anchor="middle" dy="0.6em">3.00×10⁷</text>
      </g>
    </g>
    <g transform="translate(53.5,91.33)">
      <g class="primitive">
        <text text-anchor="middle" dy="0.6em">3.20×10⁷</text>
      </g>
    </g>
    <g transform="translate(70.28,91.33)">
      <g class="primitive">
        <text text-anchor="middle" dy="0.6em">3.40×10⁷</text>
      </g>
    </g>
    <g transform="translate(87.05,91.33)">
      <g class="primitive">
        <text text-anchor="middle" dy="0.6em">3.60×10⁷</text>
      </g>
    </g>
  </g>
  <g class="guide colorkey" id="img-990a4904-3">
    <g class="color_coding_coding_coding_coding_4-tail" id="img-990a4904-4">
      <g fill="#4C404B" font-size="2.82" font-family="'PT Sans','Helvetica Neue','Helvetica',sans-serif" id="img-990a4904-5">
        <g transform="translate(92.86,49.48)" id="img-990a4904-6">
          <g class="primitive">
            <text dy="0.35em">coding_coding_coding_coding_4-tail</text>
          </g>
        </g>
      </g>
      <g fill-opacity="1" fill="#00BFFF" stroke="#FFFFFF" id="img-990a4904-7">
        <g transform="translate(90.95,49.48)" id="img-990a4904-8">
          <path d="M-0.91,-0.91 L0.91,-0.91 0.91,0.91 -0.91,0.91  z" class="primitive"/>
        </g>
      </g>
    </g>
    <g fill="#362A35" font-size="3.88" font-family="'PT Sans','Helvetica Neue','Helvetica',sans-serif" stroke="#000000" stroke-opacity="0.000" id="img-990a4904-9">
      <g transform="translate(90.05,45.66)" id="img-990a4904-10">
        <g class="primitive">
          <text dy="-0em">graphlet</text>
        </g>
      </g>
    </g>
  </g>
  <g clip-path="url(#img-990a4904-11)">
    <g id="img-990a4904-12">
      <g pointer-events="visible" stroke-width="0.3" fill="#000000" fill-opacity="0.000" stroke="#000000" stroke-opacity="0.000" class="guide background" id="img-990a4904-13">
        <g transform="translate(53.5,47.66)" id="img-990a4904-14">
          <path d="M-35.54,-42.66 L35.54,-42.66 35.54,42.66 -35.54,42.66  z" class="primitive"/>
        </g>
      </g>
      <g class="guide ygridlines xfixed" stroke-dasharray="0.5,0.5" stroke-width="0.2" stroke="#D0D0E0" id="img-990a4904-15">
        <g transform="translate(53.5,88.33)" id="img-990a4904-16">
          <path fill="none" d="M-35.54,0 L35.54,0 " class="primitive"/>
        </g>
        <g transform="translate(53.5,72.06)" id="img-990a4904-17">
          <path fill="none" d="M-35.54,0 L35.54,0 " class="primitive"/>
        </g>
        <g transform="translate(53.5,55.8)" id="img-990a4904-18">
          <path fill="none" d="M-35.54,0 L35.54,0 " class="primitive"/>
        </g>
        <g transform="translate(53.5,39.53)" id="img-990a4904-19">
          <path fill="none" d="M-35.54,0 L35.54,0 " class="primitive"/>
        </g>
        <g transform="translate(53.5,23.27)" id="img-990a4904-20">
          <path fill="none" d="M-35.54,0 L35.54,0 " class="primitive"/>
        </g>
        <g transform="translate(53.5,7)" id="img-990a4904-21">
          <path fill="none" d="M-35.54,0 L35.54,0 " class="primitive"/>
        </g>
      </g>
      <g class="guide xgridlines yfixed" stroke-dasharray="0.5,0.5" stroke-width="0.2" stroke="#D0D0E0" id="img-990a4904-22">
        <g transform="translate(19.96,47.66)" id="img-990a4904-23">
          <path fill="none" d="M0,-42.66 L0,42.66 " class="primitive"/>
        </g>
        <g transform="translate(36.73,47.66)" id="img-990a4904-24">
          <path fill="none" d="M0,-42.66 L0,42.66 " class="primitive"/>
        </g>
        <g transform="translate(53.5,47.66)" id="img-990a4904-25">
          <path fill="none" d="M0,-42.66 L0,42.66 " class="primitive"/>
        </g>
        <g transform="translate(70.28,47.66)" id="img-990a4904-26">
          <path fill="none" d="M0,-42.66 L0,42.66 " class="primitive"/>
        </g>
        <g transform="translate(87.05,47.66)" id="img-990a4904-27">
          <path fill="none" d="M0,-42.66 L0,42.66 " class="primitive"/>
        </g>
      </g>
      <g class="plotpanel" id="img-990a4904-28">
        <metadata>
          <boundingbox value="17.95833333333333mm 5.0mm 71.08968957064285mm 85.32666666666667mm"/>
          <unitbox value="2.7761513280171722e7 51.22960898434298 8.476973439656554e6 -52.459217968685955"/>
        </metadata>
        <g shape-rendering="crispEdges" stroke-width="0.3" id="img-990a4904-29">
          <g stroke="#000000" stroke-opacity="0.000" class="geometry" id="img-990a4904-30">
            <g fill="#00BFFF" id="img-990a4904-31">
              <g transform="translate(27.45,87.51)" id="img-990a4904-32">
                <path d="M-0.32,-0.81 L0.32,-0.81 0.32,0.81 -0.32,0.81  z" class="primitive"/>
              </g>
              <g transform="translate(28.05,88.33)" id="img-990a4904-33">
                <path d="M-0.32,-0 L0.32,-0 0.32,0 -0.32,0  z" class="primitive"/>
              </g>
              <g transform="translate(28.65,88.33)" id="img-990a4904-34">
                <path d="M-0.32,-0 L0.32,-0 0.32,0 -0.32,0  z" class="primitive"/>
              </g>
              <g transform="translate(29.25,88.33)" id="img-990a4904-35">
                <path d="M-0.32,-0 L0.32,-0 0.32,0 -0.32,0  z" class="primitive"/>
              </g>
              <g transform="translate(29.84,88.33)" id="img-990a4904-36">
                <path d="M-0.32,-0 L0.32,-0 0.32,0 -0.32,0  z" class="primitive"/>
              </g>
              <g transform="translate(30.44,88.33)" id="img-990a4904-37">
                <path d="M-0.32,-0 L0.32,-0 0.32,0 -0.32,0  z" class="primitive"/>
              </g>
              <g transform="translate(31.04,86.7)" id="img-990a4904-38">
                <path d="M-0.32,-1.63 L0.32,-1.63 0.32,1.63 -0.32,1.63  z" class="primitive"/>
              </g>
              <g transform="translate(31.64,88.33)" id="img-990a4904-39">
                <path d="M-0.32,-0 L0.32,-0 0.32,0 -0.32,0  z" class="primitive"/>
              </g>
              <g transform="translate(32.24,88.33)" id="img-990a4904-40">
                <path d="M-0.32,-0 L0.32,-0 0.32,0 -0.32,0  z" class="primitive"/>
              </g>
              <g transform="translate(32.84,88.33)" id="img-990a4904-41">
                <path d="M-0.32,-0 L0.32,-0 0.32,0 -0.32,0  z" class="primitive"/>
              </g>
              <g transform="translate(33.44,87.51)" id="img-990a4904-42">
                <path d="M-0.32,-0.81 L0.32,-0.81 0.32,0.81 -0.32,0.81  z" class="primitive"/>
              </g>
              <g transform="translate(34.03,88.33)" id="img-990a4904-43">
                <path d="M-0.32,-0 L0.32,-0 0.32,0 -0.32,0  z" class="primitive"/>
              </g>
              <g transform="translate(34.63,88.33)" id="img-990a4904-44">
                <path d="M-0.32,-0 L0.32,-0 0.32,0 -0.32,0  z" class="primitive"/>
              </g>
              <g transform="translate(35.23,87.51)" id="img-990a4904-45">
                <path d="M-0.32,-0.81 L0.32,-0.81 0.32,0.81 -0.32,0.81  z" class="primitive"/>
              </g>
              <g transform="translate(35.83,88.33)" id="img-990a4904-46">
                <path d="M-0.32,-0 L0.32,-0 0.32,0 -0.32,0  z" class="primitive"/>
              </g>
              <g transform="translate(36.43,88.33)" id="img-990a4904-47">
                <path d="M-0.32,-0 L0.32,-0 0.32,0 -0.32,0  z" class="primitive"/>
              </g>
              <g transform="translate(37.03,85.89)" id="img-990a4904-48">
                <path d="M-0.32,-2.44 L0.32,-2.44 0.32,2.44 -0.32,2.44  z" class="primitive"/>
              </g>
              <g transform="translate(37.62,87.51)" id="img-990a4904-49">
                <path d="M-0.32,-0.81 L0.32,-0.81 0.32,0.81 -0.32,0.81  z" class="primitive"/>
              </g>
              <g transform="translate(38.22,85.89)" id="img-990a4904-50">
                <path d="M-0.32,-2.44 L0.32,-2.44 0.32,2.44 -0.32,2.44  z" class="primitive"/>
              </g>
              <g transform="translate(38.82,85.07)" id="img-990a4904-51">
                <path d="M-0.32,-3.25 L0.32,-3.25 0.32,3.25 -0.32,3.25  z" class="primitive"/>
              </g>
              <g transform="translate(39.42,83.45)" id="img-990a4904-52">
                <path d="M-0.32,-4.88 L0.32,-4.88 0.32,4.88 -0.32,4.88  z" class="primitive"/>
              </g>
              <g transform="translate(40.02,85.89)" id="img-990a4904-53">
                <path d="M-0.32,-2.44 L0.32,-2.44 0.32,2.44 -0.32,2.44  z" class="primitive"/>
              </g>
              <g transform="translate(40.62,81.82)" id="img-990a4904-54">
                <path d="M-0.32,-6.51 L0.32,-6.51 0.32,6.51 -0.32,6.51  z" class="primitive"/>
              </g>
              <g transform="translate(41.21,81.01)" id="img-990a4904-55">
                <path d="M-0.32,-7.32 L0.32,-7.32 0.32,7.32 -0.32,7.32  z" class="primitive"/>
              </g>
              <g transform="translate(41.81,85.07)" id="img-990a4904-56">
                <path d="M-0.32,-3.25 L0.32,-3.25 0.32,3.25 -0.32,3.25  z" class="primitive"/>
              </g>
              <g transform="translate(42.41,85.07)" id="img-990a4904-57">
                <path d="M-0.32,-3.25 L0.32,-3.25 0.32,3.25 -0.32,3.25  z" class="primitive"/>
              </g>
              <g transform="translate(43.01,86.7)" id="img-990a4904-58">
                <path d="M-0.32,-1.63 L0.32,-1.63 0.32,1.63 -0.32,1.63  z" class="primitive"/>
              </g>
              <g transform="translate(43.61,83.45)" id="img-990a4904-59">
                <path d="M-0.32,-4.88 L0.32,-4.88 0.32,4.88 -0.32,4.88  z" class="primitive"/>
              </g>
              <g transform="translate(44.21,78.57)" id="img-990a4904-60">
                <path d="M-0.32,-9.76 L0.32,-9.76 0.32,9.76 -0.32,9.76  z" class="primitive"/>
              </g>
              <g transform="translate(44.8,81.01)" id="img-990a4904-61">
                <path d="M-0.32,-7.32 L0.32,-7.32 0.32,7.32 -0.32,7.32  z" class="primitive"/>
              </g>
              <g transform="translate(45.4,77.75)" id="img-990a4904-62">
                <path d="M-0.32,-10.57 L0.32,-10.57 0.32,10.57 -0.32,10.57  z" class="primitive"/>
              </g>
              <g transform="translate(46,73.69)" id="img-990a4904-63">
                <path d="M-0.32,-14.64 L0.32,-14.64 0.32,14.64 -0.32,14.64  z" class="primitive"/>
              </g>
              <g transform="translate(46.6,79.38)" id="img-990a4904-64">
                <path d="M-0.32,-8.95 L0.32,-8.95 0.32,8.95 -0.32,8.95  z" class="primitive"/>
              </g>
              <g transform="translate(47.2,75.31)" id="img-990a4904-65">
                <path d="M-0.32,-13.01 L0.32,-13.01 0.32,13.01 -0.32,13.01  z" class="primitive"/>
              </g>
              <g transform="translate(47.8,78.57)" id="img-990a4904-66">
                <path d="M-0.32,-9.76 L0.32,-9.76 0.32,9.76 -0.32,9.76  z" class="primitive"/>
              </g>
              <g transform="translate(48.39,75.31)" id="img-990a4904-67">
                <path d="M-0.32,-13.01 L0.32,-13.01 0.32,13.01 -0.32,13.01  z" class="primitive"/>
              </g>
              <g transform="translate(48.99,72.06)" id="img-990a4904-68">
                <path d="M-0.32,-16.27 L0.32,-16.27 0.32,16.27 -0.32,16.27  z" class="primitive"/>
              </g>
              <g transform="translate(49.59,69.62)" id="img-990a4904-69">
                <path d="M-0.32,-18.71 L0.32,-18.71 0.32,18.71 -0.32,18.71  z" class="primitive"/>
              </g>
              <g transform="translate(50.19,77.75)" id="img-990a4904-70">
                <path d="M-0.32,-10.57 L0.32,-10.57 0.32,10.57 -0.32,10.57  z" class="primitive"/>
              </g>
              <g transform="translate(50.79,72.06)" id="img-990a4904-71">
                <path d="M-0.32,-16.27 L0.32,-16.27 0.32,16.27 -0.32,16.27  z" class="primitive"/>
              </g>
              <g transform="translate(51.39,63.93)" id="img-990a4904-72">
                <path d="M-0.32,-24.4 L0.32,-24.4 0.32,24.4 -0.32,24.4  z" class="primitive"/>
              </g>
              <g transform="translate(51.98,68.81)" id="img-990a4904-73">
                <path d="M-0.32,-19.52 L0.32,-19.52 0.32,19.52 -0.32,19.52  z" class="primitive"/>
              </g>
              <g transform="translate(52.58,72.87)" id="img-990a4904-74">
                <path d="M-0.32,-15.45 L0.32,-15.45 0.32,15.45 -0.32,15.45  z" class="primitive"/>
              </g>
              <g transform="translate(53.18,72.06)" id="img-990a4904-75">
                <path d="M-0.32,-16.27 L0.32,-16.27 0.32,16.27 -0.32,16.27  z" class="primitive"/>
              </g>
              <g transform="translate(53.78,70.43)" id="img-990a4904-76">
                <path d="M-0.32,-17.89 L0.32,-17.89 0.32,17.89 -0.32,17.89  z" class="primitive"/>
              </g>
              <g transform="translate(54.38,61.49)" id="img-990a4904-77">
                <path d="M-0.32,-26.84 L0.32,-26.84 0.32,26.84 -0.32,26.84  z" class="primitive"/>
              </g>
              <g transform="translate(54.98,63.93)" id="img-990a4904-78">
                <path d="M-0.32,-24.4 L0.32,-24.4 0.32,24.4 -0.32,24.4  z" class="primitive"/>
              </g>
              <g transform="translate(55.58,71.25)" id="img-990a4904-79">
                <path d="M-0.32,-17.08 L0.32,-17.08 0.32,17.08 -0.32,17.08  z" class="primitive"/>
              </g>
              <g transform="translate(56.17,67.18)" id="img-990a4904-80">
                <path d="M-0.32,-21.14 L0.32,-21.14 0.32,21.14 -0.32,21.14  z" class="primitive"/>
              </g>
              <g transform="translate(56.77,71.25)" id="img-990a4904-81">
                <path d="M-0.32,-17.08 L0.32,-17.08 0.32,17.08 -0.32,17.08  z" class="primitive"/>
              </g>
              <g transform="translate(57.37,60.68)" id="img-990a4904-82">
                <path d="M-0.32,-27.65 L0.32,-27.65 0.32,27.65 -0.32,27.65  z" class="primitive"/>
              </g>
              <g transform="translate(57.97,70.43)" id="img-990a4904-83">
                <path d="M-0.32,-17.89 L0.32,-17.89 0.32,17.89 -0.32,17.89  z" class="primitive"/>
              </g>
              <g transform="translate(58.57,71.25)" id="img-990a4904-84">
                <path d="M-0.32,-17.08 L0.32,-17.08 0.32,17.08 -0.32,17.08  z" class="primitive"/>
              </g>
              <g transform="translate(59.17,58.24)" id="img-990a4904-85">
                <path d="M-0.32,-30.09 L0.32,-30.09 0.32,30.09 -0.32,30.09  z" class="primitive"/>
              </g>
              <g transform="translate(59.76,51.73)" id="img-990a4904-86">
                <path d="M-0.32,-36.6 L0.32,-36.6 0.32,36.6 -0.32,36.6  z" class="primitive"/>
              </g>
              <g transform="translate(60.36,66.37)" id="img-990a4904-87">
                <path d="M-0.32,-21.96 L0.32,-21.96 0.32,21.96 -0.32,21.96  z" class="primitive"/>
              </g>
              <g transform="translate(60.96,72.06)" id="img-990a4904-88">
                <path d="M-0.32,-16.27 L0.32,-16.27 0.32,16.27 -0.32,16.27  z" class="primitive"/>
              </g>
              <g transform="translate(61.56,64.74)" id="img-990a4904-89">
                <path d="M-0.32,-23.58 L0.32,-23.58 0.32,23.58 -0.32,23.58  z" class="primitive"/>
              </g>
              <g transform="translate(62.16,73.69)" id="img-990a4904-90">
                <path d="M-0.32,-14.64 L0.32,-14.64 0.32,14.64 -0.32,14.64  z" class="primitive"/>
              </g>
              <g transform="translate(62.76,71.25)" id="img-990a4904-91">
                <path d="M-0.32,-17.08 L0.32,-17.08 0.32,17.08 -0.32,17.08  z" class="primitive"/>
              </g>
              <g transform="translate(63.35,72.06)" id="img-990a4904-92">
                <path d="M-0.32,-16.27 L0.32,-16.27 0.32,16.27 -0.32,16.27  z" class="primitive"/>
              </g>
              <g transform="translate(63.95,78.57)" id="img-990a4904-93">
                <path d="M-0.32,-9.76 L0.32,-9.76 0.32,9.76 -0.32,9.76  z" class="primitive"/>
              </g>
              <g transform="translate(64.55,67.18)" id="img-990a4904-94">
                <path d="M-0.32,-21.14 L0.32,-21.14 0.32,21.14 -0.32,21.14  z" class="primitive"/>
              </g>
              <g transform="translate(65.15,76.13)" id="img-990a4904-95">
                <path d="M-0.32,-12.2 L0.32,-12.2 0.32,12.2 -0.32,12.2  z" class="primitive"/>
              </g>
              <g transform="translate(65.75,79.38)" id="img-990a4904-96">
                <path d="M-0.32,-8.95 L0.32,-8.95 0.32,8.95 -0.32,8.95  z" class="primitive"/>
              </g>
              <g transform="translate(66.35,80.19)" id="img-990a4904-97">
                <path d="M-0.32,-8.13 L0.32,-8.13 0.32,8.13 -0.32,8.13  z" class="primitive"/>
              </g>
              <g transform="translate(66.94,81.82)" id="img-990a4904-98">
                <path d="M-0.32,-6.51 L0.32,-6.51 0.32,6.51 -0.32,6.51  z" class="primitive"/>
              </g>
              <g transform="translate(67.54,76.13)" id="img-990a4904-99">
                <path d="M-0.32,-12.2 L0.32,-12.2 0.32,12.2 -0.32,12.2  z" class="primitive"/>
              </g>
              <g transform="translate(68.14,73.69)" id="img-990a4904-100">
                <path d="M-0.32,-14.64 L0.32,-14.64 0.32,14.64 -0.32,14.64  z" class="primitive"/>
              </g>
              <g transform="translate(68.74,79.38)" id="img-990a4904-101">
                <path d="M-0.32,-8.95 L0.32,-8.95 0.32,8.95 -0.32,8.95  z" class="primitive"/>
              </g>
              <g transform="translate(69.34,77.75)" id="img-990a4904-102">
                <path d="M-0.32,-10.57 L0.32,-10.57 0.32,10.57 -0.32,10.57  z" class="primitive"/>
              </g>
              <g transform="translate(69.94,80.19)" id="img-990a4904-103">
                <path d="M-0.32,-8.13 L0.32,-8.13 0.32,8.13 -0.32,8.13  z" class="primitive"/>
              </g>
              <g transform="translate(70.53,81.82)" id="img-990a4904-104">
                <path d="M-0.32,-6.51 L0.32,-6.51 0.32,6.51 -0.32,6.51  z" class="primitive"/>
              </g>
              <g transform="translate(71.13,82.63)" id="img-990a4904-105">
                <path d="M-0.32,-5.69 L0.32,-5.69 0.32,5.69 -0.32,5.69  z" class="primitive"/>
              </g>
              <g transform="translate(71.73,84.26)" id="img-990a4904-106">
                <path d="M-0.32,-4.07 L0.32,-4.07 0.32,4.07 -0.32,4.07  z" class="primitive"/>
              </g>
              <g transform="translate(72.33,85.07)" id="img-990a4904-107">
                <path d="M-0.32,-3.25 L0.32,-3.25 0.32,3.25 -0.32,3.25  z" class="primitive"/>
              </g>
              <g transform="translate(72.93,78.57)" id="img-990a4904-108">
                <path d="M-0.32,-9.76 L0.32,-9.76 0.32,9.76 -0.32,9.76  z" class="primitive"/>
              </g>
              <g transform="translate(73.53,86.7)" id="img-990a4904-109">
                <path d="M-0.32,-1.63 L0.32,-1.63 0.32,1.63 -0.32,1.63  z" class="primitive"/>
              </g>
              <g transform="translate(74.12,84.26)" id="img-990a4904-110">
                <path d="M-0.32,-4.07 L0.32,-4.07 0.32,4.07 -0.32,4.07  z" class="primitive"/>
              </g>
              <g transform="translate(74.72,83.45)" id="img-990a4904-111">
                <path d="M-0.32,-4.88 L0.32,-4.88 0.32,4.88 -0.32,4.88  z" class="primitive"/>
              </g>
              <g transform="translate(75.32,86.7)" id="img-990a4904-112">
                <path d="M-0.32,-1.63 L0.32,-1.63 0.32,1.63 -0.32,1.63  z" class="primitive"/>
              </g>
              <g transform="translate(75.92,88.33)" id="img-990a4904-113">
                <path d="M-0.32,-0 L0.32,-0 0.32,0 -0.32,0  z" class="primitive"/>
              </g>
              <g transform="translate(76.52,85.07)" id="img-990a4904-114">
                <path d="M-0.32,-3.25 L0.32,-3.25 0.32,3.25 -0.32,3.25  z" class="primitive"/>
              </g>
              <g transform="translate(77.12,86.7)" id="img-990a4904-115">
                <path d="M-0.32,-1.63 L0.32,-1.63 0.32,1.63 -0.32,1.63  z" class="primitive"/>
              </g>
              <g transform="translate(77.72,86.7)" id="img-990a4904-116">
                <path d="M-0.32,-1.63 L0.32,-1.63 0.32,1.63 -0.32,1.63  z" class="primitive"/>
              </g>
              <g transform="translate(78.31,88.33)" id="img-990a4904-117">
                <path d="M-0.32,-0 L0.32,-0 0.32,0 -0.32,0  z" class="primitive"/>
              </g>
              <g transform="translate(78.91,86.7)" id="img-990a4904-118">
                <path d="M-0.32,-1.63 L0.32,-1.63 0.32,1.63 -0.32,1.63  z" class="primitive"/>
              </g>
              <g transform="translate(79.51,85.89)" id="img-990a4904-119">
                <path d="M-0.32,-2.44 L0.32,-2.44 0.32,2.44 -0.32,2.44  z" class="primitive"/>
              </g>
              <g transform="translate(80.11,87.51)" id="img-990a4904-120">
                <path d="M-0.32,-0.81 L0.32,-0.81 0.32,0.81 -0.32,0.81  z" class="primitive"/>
              </g>
              <g transform="translate(80.71,87.51)" id="img-990a4904-121">
                <path d="M-0.32,-0.81 L0.32,-0.81 0.32,0.81 -0.32,0.81  z" class="primitive"/>
              </g>
              <g transform="translate(81.31,87.51)" id="img-990a4904-122">
                <path d="M-0.32,-0.81 L0.32,-0.81 0.32,0.81 -0.32,0.81  z" class="primitive"/>
              </g>
              <g transform="translate(81.9,87.51)" id="img-990a4904-123">
                <path d="M-0.32,-0.81 L0.32,-0.81 0.32,0.81 -0.32,0.81  z" class="primitive"/>
              </g>
              <g transform="translate(82.5,88.33)" id="img-990a4904-124">
                <path d="M-0.32,-0 L0.32,-0 0.32,0 -0.32,0  z" class="primitive"/>
              </g>
              <g transform="translate(83.1,88.33)" id="img-990a4904-125">
                <path d="M-0.32,-0 L0.32,-0 0.32,0 -0.32,0  z" class="primitive"/>
              </g>
              <g transform="translate(83.7,87.51)" id="img-990a4904-126">
                <path d="M-0.32,-0.81 L0.32,-0.81 0.32,0.81 -0.32,0.81  z" class="primitive"/>
              </g>
              <g transform="translate(84.3,88.33)" id="img-990a4904-127">
                <path d="M-0.32,-0 L0.32,-0 0.32,0 -0.32,0  z" class="primitive"/>
              </g>
              <g transform="translate(84.9,88.33)" id="img-990a4904-128">
                <path d="M-0.32,-0 L0.32,-0 0.32,0 -0.32,0  z" class="primitive"/>
              </g>
              <g transform="translate(85.49,88.33)" id="img-990a4904-129">
                <path d="M-0.32,-0 L0.32,-0 0.32,0 -0.32,0  z" class="primitive"/>
              </g>
              <g transform="translate(86.09,88.33)" id="img-990a4904-130">
                <path d="M-0.32,-0 L0.32,-0 0.32,0 -0.32,0  z" class="primitive"/>
              </g>
              <g transform="translate(86.69,87.51)" id="img-990a4904-131">
                <path d="M-0.32,-0.81 L0.32,-0.81 0.32,0.81 -0.32,0.81  z" class="primitive"/>
              </g>
            </g>
          </g>
        </g>
      </g>
    </g>
  </g>
  <g class="guide ylabels" font-size="2.82" font-family="'PT Sans Caption','Helvetica Neue','Helvetica',sans-serif" fill="#6C606B" id="img-990a4904-132">
    <g transform="translate(16.96,88.33)" id="img-990a4904-133">
      <g class="primitive">
        <text text-anchor="end" dy="0.35em">0</text>
      </g>
    </g>
    <g transform="translate(16.96,72.06)" id="img-990a4904-134">
      <g class="primitive">
        <text text-anchor="end" dy="0.35em">10</text>
      </g>
    </g>
    <g transform="translate(16.96,55.8)" id="img-990a4904-135">
      <g class="primitive">
        <text text-anchor="end" dy="0.35em">20</text>
      </g>
    </g>
    <g transform="translate(16.96,39.53)" id="img-990a4904-136">
      <g class="primitive">
        <text text-anchor="end" dy="0.35em">30</text>
      </g>
    </g>
    <g transform="translate(16.96,23.27)" id="img-990a4904-137">
      <g class="primitive">
        <text text-anchor="end" dy="0.35em">40</text>
      </g>
    </g>
    <g transform="translate(16.96,7)" id="img-990a4904-138">
      <g class="primitive">
        <text text-anchor="end" dy="0.35em">50</text>
      </g>
    </g>
  </g>
  <g font-size="3.88" font-family="'PT Sans','Helvetica Neue','Helvetica',sans-serif" fill="#564A55" stroke="#000000" stroke-opacity="0.000" id="img-990a4904-139">
    <g transform="translate(8.81,45.66)" id="img-990a4904-140">
      <g class="primitive">
        <text text-anchor="middle" dy="0.35em" transform="rotate(-90,0, 2)">frequency</text>
      </g>
    </g>
  </g>
</g>
<defs>
  <clipPath id="img-990a4904-11">
    <path d="M17.96,5 L89.05,5 89.05,90.33 17.96,90.33 " />
  </clipPath>
</defs>
</svg>
