<?xml version="1.0" encoding="UTF-8"?>
<svg xmlns="http://www.w3.org/2000/svg"
     xmlns:xlink="http://www.w3.org/1999/xlink"
     xmlns:gadfly="http://www.gadflyjl.org/ns"
     version="1.2"
     width="141.42mm" height="100mm" viewBox="0 0 141.42 100"
     stroke="none"
     fill="#000000"
     stroke-width="0.3"
     font-size="3.88"
>
<defs>
  <marker id="arrow" markerWidth="15" markerHeight="7" refX="5" refY="3.5" orient="auto" markerUnits="strokeWidth">
    <path d="M0,0 L15,3.5 L0,7 z" stroke="context-stroke" fill="context-stroke"/>
  </marker>
</defs>
<g class="plotroot xscalable yscalable" id="img-36cbdd61-1">
  <g class="guide xlabels" font-size="2.82" font-family="'PT Sans Caption','Helvetica Neue','Helvetica',sans-serif" fill="#6C606B" id="img-36cbdd61-2">
    <g transform="translate(19.96,80.21)">
      <g class="primitive">
        <text text-anchor="end" dy="0.35em" transform="rotate(-90,0, 0)">4.40×10⁷</text>
      </g>
    </g>
    <g transform="translate(35.21,80.21)">
      <g class="primitive">
        <text text-anchor="end" dy="0.35em" transform="rotate(-90,0, 0)">4.60×10⁷</text>
      </g>
    </g>
    <g transform="translate(50.46,80.21)">
      <g class="primitive">
        <text text-anchor="end" dy="0.35em" transform="rotate(-90,0, 0)">4.80×10⁷</text>
      </g>
    </g>
    <g transform="translate(65.72,80.21)">
      <g class="primitive">
        <text text-anchor="end" dy="0.35em" transform="rotate(-90,0, 0)">5.00×10⁷</text>
      </g>
    </g>
    <g transform="translate(80.97,80.21)">
      <g class="primitive">
        <text text-anchor="end" dy="0.35em" transform="rotate(-90,0, 0)">5.20×10⁷</text>
      </g>
    </g>
  </g>
  <g class="guide colorkey" id="img-36cbdd61-3">
    <g class="color_coding_coding_coding_noncoding_4-path" id="img-36cbdd61-4">
      <g fill="#4C404B" font-size="2.82" font-family="'PT Sans','Helvetica Neue','Helvetica',sans-serif" id="img-36cbdd61-5">
        <g transform="translate(86.78,43.92)" id="img-36cbdd61-6">
          <g class="primitive">
            <text dy="0.35em">coding_coding_coding_noncoding_4-path</text>
          </g>
        </g>
      </g>
      <g fill-opacity="1" fill="#00BFFF" stroke="#FFFFFF" id="img-36cbdd61-7">
        <g transform="translate(84.87,43.92)" id="img-36cbdd61-8">
          <path d="M-0.91,-0.91 L0.91,-0.91 0.91,0.91 -0.91,0.91  z" class="primitive"/>
        </g>
      </g>
    </g>
    <g fill="#362A35" font-size="3.88" font-family="'PT Sans','Helvetica Neue','Helvetica',sans-serif" stroke="#000000" stroke-opacity="0.000" id="img-36cbdd61-9">
      <g transform="translate(83.97,40.1)" id="img-36cbdd61-10">
        <g class="primitive">
          <text dy="-0em">graphlet</text>
        </g>
      </g>
    </g>
  </g>
  <g clip-path="url(#img-36cbdd61-11)">
    <g id="img-36cbdd61-12">
      <g pointer-events="visible" stroke-width="0.3" fill="#000000" fill-opacity="0.000" stroke="#000000" stroke-opacity="0.000" class="guide background" id="img-36cbdd61-13">
        <g transform="translate(50.46,42.11)" id="img-36cbdd61-14">
          <path d="M-32.5,-37.11 L32.5,-37.11 32.5,37.11 -32.5,37.11  z" class="primitive"/>
        </g>
      </g>
      <g class="guide ygridlines xfixed" stroke-dasharray="0.5,0.5" stroke-width="0.2" stroke="#D0D0E0" id="img-36cbdd61-15">
        <g transform="translate(50.46,77.21)" id="img-36cbdd61-16">
          <path fill="none" d="M-32.5,0 L32.5,0 " class="primitive"/>
        </g>
        <g transform="translate(50.46,59.66)" id="img-36cbdd61-17">
          <path fill="none" d="M-32.5,0 L32.5,0 " class="primitive"/>
        </g>
        <g transform="translate(50.46,42.11)" id="img-36cbdd61-18">
          <path fill="none" d="M-32.5,0 L32.5,0 " class="primitive"/>
        </g>
        <g transform="translate(50.46,24.55)" id="img-36cbdd61-19">
          <path fill="none" d="M-32.5,0 L32.5,0 " class="primitive"/>
        </g>
        <g transform="translate(50.46,7)" id="img-36cbdd61-20">
          <path fill="none" d="M-32.5,0 L32.5,0 " class="primitive"/>
        </g>
      </g>
      <g class="guide xgridlines yfixed" stroke-dasharray="0.5,0.5" stroke-width="0.2" stroke="#D0D0E0" id="img-36cbdd61-21">
        <g transform="translate(19.96,42.11)" id="img-36cbdd61-22">
          <path fill="none" d="M0,-37.11 L0,37.11 " class="primitive"/>
        </g>
        <g transform="translate(35.21,42.11)" id="img-36cbdd61-23">
          <path fill="none" d="M0,-37.11 L0,37.11 " class="primitive"/>
        </g>
        <g transform="translate(50.46,42.11)" id="img-36cbdd61-24">
          <path fill="none" d="M0,-37.11 L0,37.11 " class="primitive"/>
        </g>
        <g transform="translate(65.72,42.11)" id="img-36cbdd61-25">
          <path fill="none" d="M0,-37.11 L0,37.11 " class="primitive"/>
        </g>
        <g transform="translate(80.97,42.11)" id="img-36cbdd61-26">
          <path fill="none" d="M0,-37.11 L0,37.11 " class="primitive"/>
        </g>
      </g>
      <g class="plotpanel" id="img-36cbdd61-27">
        <metadata>
          <boundingbox value="17.95833333333333mm 5.0mm 65.00968957064285mm 74.21333333333334mm"/>
          <unitbox value="4.37377465757882e7 41.13938473224459 8.524506848423598e6 -42.27876946448917"/>
        </metadata>
        <g shape-rendering="crispEdges" stroke-width="0.3" id="img-36cbdd61-28">
          <g stroke="#000000" stroke-opacity="0.000" class="geometry" id="img-36cbdd61-29">
            <g fill="#00BFFF" id="img-36cbdd61-30">
              <g transform="translate(27.29,75.46)" id="img-36cbdd61-31">
                <path d="M-0.26,-1.76 L0.26,-1.76 0.26,1.76 -0.26,1.76  z" class="primitive"/>
              </g>
              <g transform="translate(27.76,77.22)" id="img-36cbdd61-32">
                <path d="M-0.26,-0 L0.26,-0 0.26,0 -0.26,0  z" class="primitive"/>
              </g>
              <g transform="translate(28.23,77.22)" id="img-36cbdd61-33">
                <path d="M-0.26,-0 L0.26,-0 0.26,0 -0.26,0  z" class="primitive"/>
              </g>
              <g transform="translate(28.69,77.22)" id="img-36cbdd61-34">
                <path d="M-0.26,-0 L0.26,-0 0.26,0 -0.26,0  z" class="primitive"/>
              </g>
              <g transform="translate(29.16,76.34)" id="img-36cbdd61-35">
                <path d="M-0.26,-0.88 L0.26,-0.88 0.26,0.88 -0.26,0.88  z" class="primitive"/>
              </g>
              <g transform="translate(29.63,77.22)" id="img-36cbdd61-36">
                <path d="M-0.26,-0 L0.26,-0 0.26,0 -0.26,0  z" class="primitive"/>
              </g>
              <g transform="translate(30.09,77.22)" id="img-36cbdd61-37">
                <path d="M-0.26,-0 L0.26,-0 0.26,0 -0.26,0  z" class="primitive"/>
              </g>
              <g transform="translate(30.56,75.46)" id="img-36cbdd61-38">
                <path d="M-0.26,-1.76 L0.26,-1.76 0.26,1.76 -0.26,1.76  z" class="primitive"/>
              </g>
              <g transform="translate(31.03,75.46)" id="img-36cbdd61-39">
                <path d="M-0.26,-1.76 L0.26,-1.76 0.26,1.76 -0.26,1.76  z" class="primitive"/>
              </g>
              <g transform="translate(31.5,76.34)" id="img-36cbdd61-40">
                <path d="M-0.26,-0.88 L0.26,-0.88 0.26,0.88 -0.26,0.88  z" class="primitive"/>
              </g>
              <g transform="translate(31.96,77.22)" id="img-36cbdd61-41">
                <path d="M-0.26,-0 L0.26,-0 0.26,0 -0.26,0  z" class="primitive"/>
              </g>
              <g transform="translate(32.43,77.22)" id="img-36cbdd61-42">
                <path d="M-0.26,-0 L0.26,-0 0.26,0 -0.26,0  z" class="primitive"/>
              </g>
              <g transform="translate(32.9,74.58)" id="img-36cbdd61-43">
                <path d="M-0.26,-2.63 L0.26,-2.63 0.26,2.63 -0.26,2.63  z" class="primitive"/>
              </g>
              <g transform="translate(33.36,72.82)" id="img-36cbdd61-44">
                <path d="M-0.26,-4.39 L0.26,-4.39 0.26,4.39 -0.26,4.39  z" class="primitive"/>
              </g>
              <g transform="translate(33.83,73.7)" id="img-36cbdd61-45">
                <path d="M-0.26,-3.51 L0.26,-3.51 0.26,3.51 -0.26,3.51  z" class="primitive"/>
              </g>
              <g transform="translate(34.3,73.7)" id="img-36cbdd61-46">
                <path d="M-0.26,-3.51 L0.26,-3.51 0.26,3.51 -0.26,3.51  z" class="primitive"/>
              </g>
              <g transform="translate(34.77,76.34)" id="img-36cbdd61-47">
                <path d="M-0.26,-0.88 L0.26,-0.88 0.26,0.88 -0.26,0.88  z" class="primitive"/>
              </g>
              <g transform="translate(35.23,70.19)" id="img-36cbdd61-48">
                <path d="M-0.26,-7.02 L0.26,-7.02 0.26,7.02 -0.26,7.02  z" class="primitive"/>
              </g>
              <g transform="translate(35.7,68.44)" id="img-36cbdd61-49">
                <path d="M-0.26,-8.78 L0.26,-8.78 0.26,8.78 -0.26,8.78  z" class="primitive"/>
              </g>
              <g transform="translate(36.17,77.22)" id="img-36cbdd61-50">
                <path d="M-0.26,-0 L0.26,-0 0.26,0 -0.26,0  z" class="primitive"/>
              </g>
              <g transform="translate(36.63,68.44)" id="img-36cbdd61-51">
                <path d="M-0.26,-8.78 L0.26,-8.78 0.26,8.78 -0.26,8.78  z" class="primitive"/>
              </g>
              <g transform="translate(37.1,71.07)" id="img-36cbdd61-52">
                <path d="M-0.26,-6.14 L0.26,-6.14 0.26,6.14 -0.26,6.14  z" class="primitive"/>
              </g>
              <g transform="translate(37.57,71.07)" id="img-36cbdd61-53">
                <path d="M-0.26,-6.14 L0.26,-6.14 0.26,6.14 -0.26,6.14  z" class="primitive"/>
              </g>
              <g transform="translate(38.03,69.31)" id="img-36cbdd61-54">
                <path d="M-0.26,-7.9 L0.26,-7.9 0.26,7.9 -0.26,7.9  z" class="primitive"/>
              </g>
              <g transform="translate(38.5,67.56)" id="img-36cbdd61-55">
                <path d="M-0.26,-9.65 L0.26,-9.65 0.26,9.65 -0.26,9.65  z" class="primitive"/>
              </g>
              <g transform="translate(38.97,67.56)" id="img-36cbdd61-56">
                <path d="M-0.26,-9.65 L0.26,-9.65 0.26,9.65 -0.26,9.65  z" class="primitive"/>
              </g>
              <g transform="translate(39.44,68.44)" id="img-36cbdd61-57">
                <path d="M-0.26,-8.78 L0.26,-8.78 0.26,8.78 -0.26,8.78  z" class="primitive"/>
              </g>
              <g transform="translate(39.9,70.19)" id="img-36cbdd61-58">
                <path d="M-0.26,-7.02 L0.26,-7.02 0.26,7.02 -0.26,7.02  z" class="primitive"/>
              </g>
              <g transform="translate(40.37,72.82)" id="img-36cbdd61-59">
                <path d="M-0.26,-4.39 L0.26,-4.39 0.26,4.39 -0.26,4.39  z" class="primitive"/>
              </g>
              <g transform="translate(40.84,66.68)" id="img-36cbdd61-60">
                <path d="M-0.26,-10.53 L0.26,-10.53 0.26,10.53 -0.26,10.53  z" class="primitive"/>
              </g>
              <g transform="translate(41.3,61.42)" id="img-36cbdd61-61">
                <path d="M-0.26,-15.8 L0.26,-15.8 0.26,15.8 -0.26,15.8  z" class="primitive"/>
              </g>
              <g transform="translate(41.77,59.66)" id="img-36cbdd61-62">
                <path d="M-0.26,-17.55 L0.26,-17.55 0.26,17.55 -0.26,17.55  z" class="primitive"/>
              </g>
              <g transform="translate(42.24,64.05)" id="img-36cbdd61-63">
                <path d="M-0.26,-13.17 L0.26,-13.17 0.26,13.17 -0.26,13.17  z" class="primitive"/>
              </g>
              <g transform="translate(42.71,61.42)" id="img-36cbdd61-64">
                <path d="M-0.26,-15.8 L0.26,-15.8 0.26,15.8 -0.26,15.8  z" class="primitive"/>
              </g>
              <g transform="translate(43.17,61.42)" id="img-36cbdd61-65">
                <path d="M-0.26,-15.8 L0.26,-15.8 0.26,15.8 -0.26,15.8  z" class="primitive"/>
              </g>
              <g transform="translate(43.64,60.54)" id="img-36cbdd61-66">
                <path d="M-0.26,-16.68 L0.26,-16.68 0.26,16.68 -0.26,16.68  z" class="primitive"/>
              </g>
              <g transform="translate(44.11,63.17)" id="img-36cbdd61-67">
                <path d="M-0.26,-14.04 L0.26,-14.04 0.26,14.04 -0.26,14.04  z" class="primitive"/>
              </g>
              <g transform="translate(44.57,61.42)" id="img-36cbdd61-68">
                <path d="M-0.26,-15.8 L0.26,-15.8 0.26,15.8 -0.26,15.8  z" class="primitive"/>
              </g>
              <g transform="translate(45.04,59.66)" id="img-36cbdd61-69">
                <path d="M-0.26,-17.55 L0.26,-17.55 0.26,17.55 -0.26,17.55  z" class="primitive"/>
              </g>
              <g transform="translate(45.51,57.03)" id="img-36cbdd61-70">
                <path d="M-0.26,-20.19 L0.26,-20.19 0.26,20.19 -0.26,20.19  z" class="primitive"/>
              </g>
              <g transform="translate(45.97,54.39)" id="img-36cbdd61-71">
                <path d="M-0.26,-22.82 L0.26,-22.82 0.26,22.82 -0.26,22.82  z" class="primitive"/>
              </g>
              <g transform="translate(46.44,54.39)" id="img-36cbdd61-72">
                <path d="M-0.26,-22.82 L0.26,-22.82 0.26,22.82 -0.26,22.82  z" class="primitive"/>
              </g>
              <g transform="translate(46.91,61.42)" id="img-36cbdd61-73">
                <path d="M-0.26,-15.8 L0.26,-15.8 0.26,15.8 -0.26,15.8  z" class="primitive"/>
              </g>
              <g transform="translate(47.38,54.39)" id="img-36cbdd61-74">
                <path d="M-0.26,-22.82 L0.26,-22.82 0.26,22.82 -0.26,22.82  z" class="primitive"/>
              </g>
              <g transform="translate(47.84,57.9)" id="img-36cbdd61-75">
                <path d="M-0.26,-19.31 L0.26,-19.31 0.26,19.31 -0.26,19.31  z" class="primitive"/>
              </g>
              <g transform="translate(48.31,57.03)" id="img-36cbdd61-76">
                <path d="M-0.26,-20.19 L0.26,-20.19 0.26,20.19 -0.26,20.19  z" class="primitive"/>
              </g>
              <g transform="translate(48.78,57.9)" id="img-36cbdd61-77">
                <path d="M-0.26,-19.31 L0.26,-19.31 0.26,19.31 -0.26,19.31  z" class="primitive"/>
              </g>
              <g transform="translate(49.24,55.27)" id="img-36cbdd61-78">
                <path d="M-0.26,-21.94 L0.26,-21.94 0.26,21.94 -0.26,21.94  z" class="primitive"/>
              </g>
              <g transform="translate(49.71,57.9)" id="img-36cbdd61-79">
                <path d="M-0.26,-19.31 L0.26,-19.31 0.26,19.31 -0.26,19.31  z" class="primitive"/>
              </g>
              <g transform="translate(50.18,57.03)" id="img-36cbdd61-80">
                <path d="M-0.26,-20.19 L0.26,-20.19 0.26,20.19 -0.26,20.19  z" class="primitive"/>
              </g>
              <g transform="translate(50.65,50.01)" id="img-36cbdd61-81">
                <path d="M-0.26,-27.21 L0.26,-27.21 0.26,27.21 -0.26,27.21  z" class="primitive"/>
              </g>
              <g transform="translate(51.11,55.27)" id="img-36cbdd61-82">
                <path d="M-0.26,-21.94 L0.26,-21.94 0.26,21.94 -0.26,21.94  z" class="primitive"/>
              </g>
              <g transform="translate(51.58,63.17)" id="img-36cbdd61-83">
                <path d="M-0.26,-14.04 L0.26,-14.04 0.26,14.04 -0.26,14.04  z" class="primitive"/>
              </g>
              <g transform="translate(52.05,57.03)" id="img-36cbdd61-84">
                <path d="M-0.26,-20.19 L0.26,-20.19 0.26,20.19 -0.26,20.19  z" class="primitive"/>
              </g>
              <g transform="translate(52.51,56.15)" id="img-36cbdd61-85">
                <path d="M-0.26,-21.06 L0.26,-21.06 0.26,21.06 -0.26,21.06  z" class="primitive"/>
              </g>
              <g transform="translate(52.98,55.27)" id="img-36cbdd61-86">
                <path d="M-0.26,-21.94 L0.26,-21.94 0.26,21.94 -0.26,21.94  z" class="primitive"/>
              </g>
              <g transform="translate(53.45,50.01)" id="img-36cbdd61-87">
                <path d="M-0.26,-27.21 L0.26,-27.21 0.26,27.21 -0.26,27.21  z" class="primitive"/>
              </g>
              <g transform="translate(53.91,55.27)" id="img-36cbdd61-88">
                <path d="M-0.26,-21.94 L0.26,-21.94 0.26,21.94 -0.26,21.94  z" class="primitive"/>
              </g>
              <g transform="translate(54.38,58.78)" id="img-36cbdd61-89">
                <path d="M-0.26,-18.43 L0.26,-18.43 0.26,18.43 -0.26,18.43  z" class="primitive"/>
              </g>
              <g transform="translate(54.85,59.66)" id="img-36cbdd61-90">
                <path d="M-0.26,-17.55 L0.26,-17.55 0.26,17.55 -0.26,17.55  z" class="primitive"/>
              </g>
              <g transform="translate(55.32,60.54)" id="img-36cbdd61-91">
                <path d="M-0.26,-16.68 L0.26,-16.68 0.26,16.68 -0.26,16.68  z" class="primitive"/>
              </g>
              <g transform="translate(55.78,61.42)" id="img-36cbdd61-92">
                <path d="M-0.26,-15.8 L0.26,-15.8 0.26,15.8 -0.26,15.8  z" class="primitive"/>
              </g>
              <g transform="translate(56.25,64.05)" id="img-36cbdd61-93">
                <path d="M-0.26,-13.17 L0.26,-13.17 0.26,13.17 -0.26,13.17  z" class="primitive"/>
              </g>
              <g transform="translate(56.72,65.8)" id="img-36cbdd61-94">
                <path d="M-0.26,-11.41 L0.26,-11.41 0.26,11.41 -0.26,11.41  z" class="primitive"/>
              </g>
              <g transform="translate(57.18,64.93)" id="img-36cbdd61-95">
                <path d="M-0.26,-12.29 L0.26,-12.29 0.26,12.29 -0.26,12.29  z" class="primitive"/>
              </g>
              <g transform="translate(57.65,68.44)" id="img-36cbdd61-96">
                <path d="M-0.26,-8.78 L0.26,-8.78 0.26,8.78 -0.26,8.78  z" class="primitive"/>
              </g>
              <g transform="translate(58.12,64.93)" id="img-36cbdd61-97">
                <path d="M-0.26,-12.29 L0.26,-12.29 0.26,12.29 -0.26,12.29  z" class="primitive"/>
              </g>
              <g transform="translate(58.59,68.44)" id="img-36cbdd61-98">
                <path d="M-0.26,-8.78 L0.26,-8.78 0.26,8.78 -0.26,8.78  z" class="primitive"/>
              </g>
              <g transform="translate(59.05,64.93)" id="img-36cbdd61-99">
                <path d="M-0.26,-12.29 L0.26,-12.29 0.26,12.29 -0.26,12.29  z" class="primitive"/>
              </g>
              <g transform="translate(59.52,70.19)" id="img-36cbdd61-100">
                <path d="M-0.26,-7.02 L0.26,-7.02 0.26,7.02 -0.26,7.02  z" class="primitive"/>
              </g>
              <g transform="translate(59.99,69.31)" id="img-36cbdd61-101">
                <path d="M-0.26,-7.9 L0.26,-7.9 0.26,7.9 -0.26,7.9  z" class="primitive"/>
              </g>
              <g transform="translate(60.45,70.19)" id="img-36cbdd61-102">
                <path d="M-0.26,-7.02 L0.26,-7.02 0.26,7.02 -0.26,7.02  z" class="primitive"/>
              </g>
              <g transform="translate(60.92,72.82)" id="img-36cbdd61-103">
                <path d="M-0.26,-4.39 L0.26,-4.39 0.26,4.39 -0.26,4.39  z" class="primitive"/>
              </g>
              <g transform="translate(61.39,74.58)" id="img-36cbdd61-104">
                <path d="M-0.26,-2.63 L0.26,-2.63 0.26,2.63 -0.26,2.63  z" class="primitive"/>
              </g>
              <g transform="translate(61.86,73.7)" id="img-36cbdd61-105">
                <path d="M-0.26,-3.51 L0.26,-3.51 0.26,3.51 -0.26,3.51  z" class="primitive"/>
              </g>
              <g transform="translate(62.32,72.82)" id="img-36cbdd61-106">
                <path d="M-0.26,-4.39 L0.26,-4.39 0.26,4.39 -0.26,4.39  z" class="primitive"/>
              </g>
              <g transform="translate(62.79,74.58)" id="img-36cbdd61-107">
                <path d="M-0.26,-2.63 L0.26,-2.63 0.26,2.63 -0.26,2.63  z" class="primitive"/>
              </g>
              <g transform="translate(63.26,69.31)" id="img-36cbdd61-108">
                <path d="M-0.26,-7.9 L0.26,-7.9 0.26,7.9 -0.26,7.9  z" class="primitive"/>
              </g>
              <g transform="translate(63.72,74.58)" id="img-36cbdd61-109">
                <path d="M-0.26,-2.63 L0.26,-2.63 0.26,2.63 -0.26,2.63  z" class="primitive"/>
              </g>
              <g transform="translate(64.19,75.46)" id="img-36cbdd61-110">
                <path d="M-0.26,-1.76 L0.26,-1.76 0.26,1.76 -0.26,1.76  z" class="primitive"/>
              </g>
              <g transform="translate(64.66,75.46)" id="img-36cbdd61-111">
                <path d="M-0.26,-1.76 L0.26,-1.76 0.26,1.76 -0.26,1.76  z" class="primitive"/>
              </g>
              <g transform="translate(65.12,75.46)" id="img-36cbdd61-112">
                <path d="M-0.26,-1.76 L0.26,-1.76 0.26,1.76 -0.26,1.76  z" class="primitive"/>
              </g>
              <g transform="translate(65.59,74.58)" id="img-36cbdd61-113">
                <path d="M-0.26,-2.63 L0.26,-2.63 0.26,2.63 -0.26,2.63  z" class="primitive"/>
              </g>
              <g transform="translate(66.06,73.7)" id="img-36cbdd61-114">
                <path d="M-0.26,-3.51 L0.26,-3.51 0.26,3.51 -0.26,3.51  z" class="primitive"/>
              </g>
              <g transform="translate(66.53,74.58)" id="img-36cbdd61-115">
                <path d="M-0.26,-2.63 L0.26,-2.63 0.26,2.63 -0.26,2.63  z" class="primitive"/>
              </g>
              <g transform="translate(66.99,76.34)" id="img-36cbdd61-116">
                <path d="M-0.26,-0.88 L0.26,-0.88 0.26,0.88 -0.26,0.88  z" class="primitive"/>
              </g>
              <g transform="translate(67.46,76.34)" id="img-36cbdd61-117">
                <path d="M-0.26,-0.88 L0.26,-0.88 0.26,0.88 -0.26,0.88  z" class="primitive"/>
              </g>
              <g transform="translate(67.93,75.46)" id="img-36cbdd61-118">
                <path d="M-0.26,-1.76 L0.26,-1.76 0.26,1.76 -0.26,1.76  z" class="primitive"/>
              </g>
              <g transform="translate(68.39,76.34)" id="img-36cbdd61-119">
                <path d="M-0.26,-0.88 L0.26,-0.88 0.26,0.88 -0.26,0.88  z" class="primitive"/>
              </g>
              <g transform="translate(68.86,76.34)" id="img-36cbdd61-120">
                <path d="M-0.26,-0.88 L0.26,-0.88 0.26,0.88 -0.26,0.88  z" class="primitive"/>
              </g>
              <g transform="translate(69.33,77.22)" id="img-36cbdd61-121">
                <path d="M-0.26,-0 L0.26,-0 0.26,0 -0.26,0  z" class="primitive"/>
              </g>
              <g transform="translate(69.8,76.34)" id="img-36cbdd61-122">
                <path d="M-0.26,-0.88 L0.26,-0.88 0.26,0.88 -0.26,0.88  z" class="primitive"/>
              </g>
              <g transform="translate(70.26,77.22)" id="img-36cbdd61-123">
                <path d="M-0.26,-0 L0.26,-0 0.26,0 -0.26,0  z" class="primitive"/>
              </g>
              <g transform="translate(70.73,77.22)" id="img-36cbdd61-124">
                <path d="M-0.26,-0 L0.26,-0 0.26,0 -0.26,0  z" class="primitive"/>
              </g>
              <g transform="translate(71.2,77.22)" id="img-36cbdd61-125">
                <path d="M-0.26,-0 L0.26,-0 0.26,0 -0.26,0  z" class="primitive"/>
              </g>
              <g transform="translate(71.66,77.22)" id="img-36cbdd61-126">
                <path d="M-0.26,-0 L0.26,-0 0.26,0 -0.26,0  z" class="primitive"/>
              </g>
              <g transform="translate(72.13,77.22)" id="img-36cbdd61-127">
                <path d="M-0.26,-0 L0.26,-0 0.26,0 -0.26,0  z" class="primitive"/>
              </g>
              <g transform="translate(72.6,77.22)" id="img-36cbdd61-128">
                <path d="M-0.26,-0 L0.26,-0 0.26,0 -0.26,0  z" class="primitive"/>
              </g>
              <g transform="translate(73.06,77.22)" id="img-36cbdd61-129">
                <path d="M-0.26,-0 L0.26,-0 0.26,0 -0.26,0  z" class="primitive"/>
              </g>
              <g transform="translate(73.53,76.34)" id="img-36cbdd61-130">
                <path d="M-0.26,-0.88 L0.26,-0.88 0.26,0.88 -0.26,0.88  z" class="primitive"/>
              </g>
            </g>
          </g>
        </g>
      </g>
    </g>
  </g>
  <g class="guide ylabels" font-size="2.82" font-family="'PT Sans Caption','Helvetica Neue','Helvetica',sans-serif" fill="#6C606B" id="img-36cbdd61-131">
    <g transform="translate(16.96,77.21)" id="img-36cbdd61-132">
      <g class="primitive">
        <text text-anchor="end" dy="0.35em">0</text>
      </g>
    </g>
    <g transform="translate(16.96,59.66)" id="img-36cbdd61-133">
      <g class="primitive">
        <text text-anchor="end" dy="0.35em">10</text>
      </g>
    </g>
    <g transform="translate(16.96,42.11)" id="img-36cbdd61-134">
      <g class="primitive">
        <text text-anchor="end" dy="0.35em">20</text>
      </g>
    </g>
    <g transform="translate(16.96,24.55)" id="img-36cbdd61-135">
      <g class="primitive">
        <text text-anchor="end" dy="0.35em">30</text>
      </g>
    </g>
    <g transform="translate(16.96,7)" id="img-36cbdd61-136">
      <g class="primitive">
        <text text-anchor="end" dy="0.35em">40</text>
      </g>
    </g>
  </g>
  <g font-size="3.88" font-family="'PT Sans','Helvetica Neue','Helvetica',sans-serif" fill="#564A55" stroke="#000000" stroke-opacity="0.000" id="img-36cbdd61-137">
    <g transform="translate(8.81,40.11)" id="img-36cbdd61-138">
      <g class="primitive">
        <text text-anchor="middle" dy="0.35em" transform="rotate(-90,0, 2)">frequency</text>
      </g>
    </g>
  </g>
</g>
<defs>
  <clipPath id="img-36cbdd61-11">
    <path d="M17.96,5 L82.97,5 82.97,79.21 17.96,79.21 " />
  </clipPath>
</defs>
</svg>
