<?xml version="1.0" encoding="UTF-8"?>
<svg xmlns="http://www.w3.org/2000/svg"
     xmlns:xlink="http://www.w3.org/1999/xlink"
     xmlns:gadfly="http://www.gadflyjl.org/ns"
     version="1.2"
     width="141.42mm" height="100mm" viewBox="0 0 141.42 100"
     stroke="none"
     fill="#000000"
     stroke-width="0.3"
     font-size="3.88"
>
<defs>
  <marker id="arrow" markerWidth="15" markerHeight="7" refX="5" refY="3.5" orient="auto" markerUnits="strokeWidth">
    <path d="M0,0 L15,3.5 L0,7 z" stroke="context-stroke" fill="context-stroke"/>
  </marker>
</defs>
<g class="plotroot xscalable yscalable" id="img-86b40575-1">
  <g class="guide xlabels" font-size="2.82" font-family="'PT Sans Caption','Helvetica Neue','Helvetica',sans-serif" fill="#6C606B" id="img-86b40575-2">
    <g transform="translate(19.96,80.21)">
      <g class="primitive">
        <text text-anchor="end" dy="0.35em" transform="rotate(-90,0, 0)">2.00×10⁴</text>
      </g>
    </g>
    <g transform="translate(32.18,80.21)">
      <g class="primitive">
        <text text-anchor="end" dy="0.35em" transform="rotate(-90,0, 0)">2.50×10⁴</text>
      </g>
    </g>
    <g transform="translate(44.39,80.21)">
      <g class="primitive">
        <text text-anchor="end" dy="0.35em" transform="rotate(-90,0, 0)">3.00×10⁴</text>
      </g>
    </g>
    <g transform="translate(56.61,80.21)">
      <g class="primitive">
        <text text-anchor="end" dy="0.35em" transform="rotate(-90,0, 0)">3.50×10⁴</text>
      </g>
    </g>
    <g transform="translate(68.83,80.21)">
      <g class="primitive">
        <text text-anchor="end" dy="0.35em" transform="rotate(-90,0, 0)">4.00×10⁴</text>
      </g>
    </g>
    <g transform="translate(81.05,80.21)">
      <g class="primitive">
        <text text-anchor="end" dy="0.35em" transform="rotate(-90,0, 0)">4.50×10⁴</text>
      </g>
    </g>
  </g>
  <g class="guide colorkey" id="img-86b40575-3">
    <g class="color_noncoding_noncoding_noncoding_3-path" id="img-86b40575-4">
      <g fill="#4C404B" font-size="2.82" font-family="'PT Sans','Helvetica Neue','Helvetica',sans-serif" id="img-86b40575-5">
        <g transform="translate(86.86,43.92)" id="img-86b40575-6">
          <g class="primitive">
            <text dy="0.35em">noncoding_noncoding_noncoding_3-path</text>
          </g>
        </g>
      </g>
      <g fill-opacity="1" fill="#00BFFF" stroke="#FFFFFF" id="img-86b40575-7">
        <g transform="translate(84.95,43.92)" id="img-86b40575-8">
          <path d="M-0.91,-0.91 L0.91,-0.91 0.91,0.91 -0.91,0.91  z" class="primitive"/>
        </g>
      </g>
    </g>
    <g fill="#362A35" font-size="3.88" font-family="'PT Sans','Helvetica Neue','Helvetica',sans-serif" stroke="#000000" stroke-opacity="0.000" id="img-86b40575-9">
      <g transform="translate(84.05,40.1)" id="img-86b40575-10">
        <g class="primitive">
          <text dy="-0em">graphlet</text>
        </g>
      </g>
    </g>
  </g>
  <g clip-path="url(#img-86b40575-11)">
    <g id="img-86b40575-12">
      <g pointer-events="visible" stroke-width="0.3" fill="#000000" fill-opacity="0.000" stroke="#000000" stroke-opacity="0.000" class="guide background" id="img-86b40575-13">
        <g transform="translate(50.5,42.11)" id="img-86b40575-14">
          <path d="M-32.54,-37.11 L32.54,-37.11 32.54,37.11 -32.54,37.11  z" class="primitive"/>
        </g>
      </g>
      <g class="guide ygridlines xfixed" stroke-dasharray="0.5,0.5" stroke-width="0.2" stroke="#D0D0E0" id="img-86b40575-15">
        <g transform="translate(50.5,77.21)" id="img-86b40575-16">
          <path fill="none" d="M-32.54,0 L32.54,0 " class="primitive"/>
        </g>
        <g transform="translate(50.5,59.66)" id="img-86b40575-17">
          <path fill="none" d="M-32.54,0 L32.54,0 " class="primitive"/>
        </g>
        <g transform="translate(50.5,42.11)" id="img-86b40575-18">
          <path fill="none" d="M-32.54,0 L32.54,0 " class="primitive"/>
        </g>
        <g transform="translate(50.5,24.55)" id="img-86b40575-19">
          <path fill="none" d="M-32.54,0 L32.54,0 " class="primitive"/>
        </g>
        <g transform="translate(50.5,7)" id="img-86b40575-20">
          <path fill="none" d="M-32.54,0 L32.54,0 " class="primitive"/>
        </g>
      </g>
      <g class="guide xgridlines yfixed" stroke-dasharray="0.5,0.5" stroke-width="0.2" stroke="#D0D0E0" id="img-86b40575-21">
        <g transform="translate(19.96,42.11)" id="img-86b40575-22">
          <path fill="none" d="M0,-37.11 L0,37.11 " class="primitive"/>
        </g>
        <g transform="translate(32.18,42.11)" id="img-86b40575-23">
          <path fill="none" d="M0,-37.11 L0,37.11 " class="primitive"/>
        </g>
        <g transform="translate(44.39,42.11)" id="img-86b40575-24">
          <path fill="none" d="M0,-37.11 L0,37.11 " class="primitive"/>
        </g>
        <g transform="translate(56.61,42.11)" id="img-86b40575-25">
          <path fill="none" d="M0,-37.11 L0,37.11 " class="primitive"/>
        </g>
        <g transform="translate(68.83,42.11)" id="img-86b40575-26">
          <path fill="none" d="M0,-37.11 L0,37.11 " class="primitive"/>
        </g>
        <g transform="translate(81.05,42.11)" id="img-86b40575-27">
          <path fill="none" d="M0,-37.11 L0,37.11 " class="primitive"/>
        </g>
      </g>
      <g class="plotpanel" id="img-86b40575-28">
        <metadata>
          <boundingbox value="17.95833333333333mm 5.0mm 65.08968957064283mm 74.21333333333334mm"/>
          <unitbox value="19181.531280459676 41.13938473224459 26636.937439080648 -42.27876946448917"/>
        </metadata>
        <g shape-rendering="crispEdges" stroke-width="0.3" id="img-86b40575-29">
          <g stroke="#000000" stroke-opacity="0.000" class="geometry" id="img-86b40575-30">
            <g fill="#00BFFF" id="img-86b40575-31">
              <g transform="translate(27.06,76.34)" id="img-86b40575-32">
                <path d="M-0.25,-0.88 L0.25,-0.88 0.25,0.88 -0.25,0.88  z" class="primitive"/>
              </g>
              <g transform="translate(27.51,77.22)" id="img-86b40575-33">
                <path d="M-0.25,-0 L0.25,-0 0.25,0 -0.25,0  z" class="primitive"/>
              </g>
              <g transform="translate(27.95,77.22)" id="img-86b40575-34">
                <path d="M-0.25,-0 L0.25,-0 0.25,0 -0.25,0  z" class="primitive"/>
              </g>
              <g transform="translate(28.4,77.22)" id="img-86b40575-35">
                <path d="M-0.25,-0 L0.25,-0 0.25,0 -0.25,0  z" class="primitive"/>
              </g>
              <g transform="translate(28.85,77.22)" id="img-86b40575-36">
                <path d="M-0.25,-0 L0.25,-0 0.25,0 -0.25,0  z" class="primitive"/>
              </g>
              <g transform="translate(29.3,77.22)" id="img-86b40575-37">
                <path d="M-0.25,-0 L0.25,-0 0.25,0 -0.25,0  z" class="primitive"/>
              </g>
              <g transform="translate(29.75,77.22)" id="img-86b40575-38">
                <path d="M-0.25,-0 L0.25,-0 0.25,0 -0.25,0  z" class="primitive"/>
              </g>
              <g transform="translate(30.2,77.22)" id="img-86b40575-39">
                <path d="M-0.25,-0 L0.25,-0 0.25,0 -0.25,0  z" class="primitive"/>
              </g>
              <g transform="translate(30.65,77.22)" id="img-86b40575-40">
                <path d="M-0.25,-0 L0.25,-0 0.25,0 -0.25,0  z" class="primitive"/>
              </g>
              <g transform="translate(31.1,76.34)" id="img-86b40575-41">
                <path d="M-0.25,-0.88 L0.25,-0.88 0.25,0.88 -0.25,0.88  z" class="primitive"/>
              </g>
              <g transform="translate(31.54,77.22)" id="img-86b40575-42">
                <path d="M-0.25,-0 L0.25,-0 0.25,0 -0.25,0  z" class="primitive"/>
              </g>
              <g transform="translate(31.99,77.22)" id="img-86b40575-43">
                <path d="M-0.25,-0 L0.25,-0 0.25,0 -0.25,0  z" class="primitive"/>
              </g>
              <g transform="translate(32.44,76.34)" id="img-86b40575-44">
                <path d="M-0.25,-0.88 L0.25,-0.88 0.25,0.88 -0.25,0.88  z" class="primitive"/>
              </g>
              <g transform="translate(32.89,77.22)" id="img-86b40575-45">
                <path d="M-0.25,-0 L0.25,-0 0.25,0 -0.25,0  z" class="primitive"/>
              </g>
              <g transform="translate(33.34,77.22)" id="img-86b40575-46">
                <path d="M-0.25,-0 L0.25,-0 0.25,0 -0.25,0  z" class="primitive"/>
              </g>
              <g transform="translate(33.79,77.22)" id="img-86b40575-47">
                <path d="M-0.25,-0 L0.25,-0 0.25,0 -0.25,0  z" class="primitive"/>
              </g>
              <g transform="translate(34.24,76.34)" id="img-86b40575-48">
                <path d="M-0.25,-0.88 L0.25,-0.88 0.25,0.88 -0.25,0.88  z" class="primitive"/>
              </g>
              <g transform="translate(34.69,76.34)" id="img-86b40575-49">
                <path d="M-0.25,-0.88 L0.25,-0.88 0.25,0.88 -0.25,0.88  z" class="primitive"/>
              </g>
              <g transform="translate(35.13,76.34)" id="img-86b40575-50">
                <path d="M-0.25,-0.88 L0.25,-0.88 0.25,0.88 -0.25,0.88  z" class="primitive"/>
              </g>
              <g transform="translate(35.58,76.34)" id="img-86b40575-51">
                <path d="M-0.25,-0.88 L0.25,-0.88 0.25,0.88 -0.25,0.88  z" class="primitive"/>
              </g>
              <g transform="translate(36.03,76.34)" id="img-86b40575-52">
                <path d="M-0.25,-0.88 L0.25,-0.88 0.25,0.88 -0.25,0.88  z" class="primitive"/>
              </g>
              <g transform="translate(36.48,76.34)" id="img-86b40575-53">
                <path d="M-0.25,-0.88 L0.25,-0.88 0.25,0.88 -0.25,0.88  z" class="primitive"/>
              </g>
              <g transform="translate(36.93,75.46)" id="img-86b40575-54">
                <path d="M-0.25,-1.76 L0.25,-1.76 0.25,1.76 -0.25,1.76  z" class="primitive"/>
              </g>
              <g transform="translate(37.38,76.34)" id="img-86b40575-55">
                <path d="M-0.25,-0.88 L0.25,-0.88 0.25,0.88 -0.25,0.88  z" class="primitive"/>
              </g>
              <g transform="translate(37.83,73.7)" id="img-86b40575-56">
                <path d="M-0.25,-3.51 L0.25,-3.51 0.25,3.51 -0.25,3.51  z" class="primitive"/>
              </g>
              <g transform="translate(38.28,75.46)" id="img-86b40575-57">
                <path d="M-0.25,-1.76 L0.25,-1.76 0.25,1.76 -0.25,1.76  z" class="primitive"/>
              </g>
              <g transform="translate(38.72,75.46)" id="img-86b40575-58">
                <path d="M-0.25,-1.76 L0.25,-1.76 0.25,1.76 -0.25,1.76  z" class="primitive"/>
              </g>
              <g transform="translate(39.17,69.31)" id="img-86b40575-59">
                <path d="M-0.25,-7.9 L0.25,-7.9 0.25,7.9 -0.25,7.9  z" class="primitive"/>
              </g>
              <g transform="translate(39.62,74.58)" id="img-86b40575-60">
                <path d="M-0.25,-2.63 L0.25,-2.63 0.25,2.63 -0.25,2.63  z" class="primitive"/>
              </g>
              <g transform="translate(40.07,71.07)" id="img-86b40575-61">
                <path d="M-0.25,-6.14 L0.25,-6.14 0.25,6.14 -0.25,6.14  z" class="primitive"/>
              </g>
              <g transform="translate(40.52,75.46)" id="img-86b40575-62">
                <path d="M-0.25,-1.76 L0.25,-1.76 0.25,1.76 -0.25,1.76  z" class="primitive"/>
              </g>
              <g transform="translate(40.97,73.7)" id="img-86b40575-63">
                <path d="M-0.25,-3.51 L0.25,-3.51 0.25,3.51 -0.25,3.51  z" class="primitive"/>
              </g>
              <g transform="translate(41.42,71.07)" id="img-86b40575-64">
                <path d="M-0.25,-6.14 L0.25,-6.14 0.25,6.14 -0.25,6.14  z" class="primitive"/>
              </g>
              <g transform="translate(41.86,71.95)" id="img-86b40575-65">
                <path d="M-0.25,-5.27 L0.25,-5.27 0.25,5.27 -0.25,5.27  z" class="primitive"/>
              </g>
              <g transform="translate(42.31,71.07)" id="img-86b40575-66">
                <path d="M-0.25,-6.14 L0.25,-6.14 0.25,6.14 -0.25,6.14  z" class="primitive"/>
              </g>
              <g transform="translate(42.76,65.8)" id="img-86b40575-67">
                <path d="M-0.25,-11.41 L0.25,-11.41 0.25,11.41 -0.25,11.41  z" class="primitive"/>
              </g>
              <g transform="translate(43.21,69.31)" id="img-86b40575-68">
                <path d="M-0.25,-7.9 L0.25,-7.9 0.25,7.9 -0.25,7.9  z" class="primitive"/>
              </g>
              <g transform="translate(43.66,61.42)" id="img-86b40575-69">
                <path d="M-0.25,-15.8 L0.25,-15.8 0.25,15.8 -0.25,15.8  z" class="primitive"/>
              </g>
              <g transform="translate(44.11,63.17)" id="img-86b40575-70">
                <path d="M-0.25,-14.04 L0.25,-14.04 0.25,14.04 -0.25,14.04  z" class="primitive"/>
              </g>
              <g transform="translate(44.56,64.05)" id="img-86b40575-71">
                <path d="M-0.25,-13.17 L0.25,-13.17 0.25,13.17 -0.25,13.17  z" class="primitive"/>
              </g>
              <g transform="translate(45.01,62.29)" id="img-86b40575-72">
                <path d="M-0.25,-14.92 L0.25,-14.92 0.25,14.92 -0.25,14.92  z" class="primitive"/>
              </g>
              <g transform="translate(45.45,59.66)" id="img-86b40575-73">
                <path d="M-0.25,-17.55 L0.25,-17.55 0.25,17.55 -0.25,17.55  z" class="primitive"/>
              </g>
              <g transform="translate(45.9,62.29)" id="img-86b40575-74">
                <path d="M-0.25,-14.92 L0.25,-14.92 0.25,14.92 -0.25,14.92  z" class="primitive"/>
              </g>
              <g transform="translate(46.35,61.42)" id="img-86b40575-75">
                <path d="M-0.25,-15.8 L0.25,-15.8 0.25,15.8 -0.25,15.8  z" class="primitive"/>
              </g>
              <g transform="translate(46.8,60.54)" id="img-86b40575-76">
                <path d="M-0.25,-16.68 L0.25,-16.68 0.25,16.68 -0.25,16.68  z" class="primitive"/>
              </g>
              <g transform="translate(47.25,50.88)" id="img-86b40575-77">
                <path d="M-0.25,-26.33 L0.25,-26.33 0.25,26.33 -0.25,26.33  z" class="primitive"/>
              </g>
              <g transform="translate(47.7,54.39)" id="img-86b40575-78">
                <path d="M-0.25,-22.82 L0.25,-22.82 0.25,22.82 -0.25,22.82  z" class="primitive"/>
              </g>
              <g transform="translate(48.15,57.03)" id="img-86b40575-79">
                <path d="M-0.25,-20.19 L0.25,-20.19 0.25,20.19 -0.25,20.19  z" class="primitive"/>
              </g>
              <g transform="translate(48.6,56.15)" id="img-86b40575-80">
                <path d="M-0.25,-21.06 L0.25,-21.06 0.25,21.06 -0.25,21.06  z" class="primitive"/>
              </g>
              <g transform="translate(49.04,49.13)" id="img-86b40575-81">
                <path d="M-0.25,-28.09 L0.25,-28.09 0.25,28.09 -0.25,28.09  z" class="primitive"/>
              </g>
              <g transform="translate(49.49,61.42)" id="img-86b40575-82">
                <path d="M-0.25,-15.8 L0.25,-15.8 0.25,15.8 -0.25,15.8  z" class="primitive"/>
              </g>
              <g transform="translate(49.94,57.03)" id="img-86b40575-83">
                <path d="M-0.25,-20.19 L0.25,-20.19 0.25,20.19 -0.25,20.19  z" class="primitive"/>
              </g>
              <g transform="translate(50.39,52.64)" id="img-86b40575-84">
                <path d="M-0.25,-24.57 L0.25,-24.57 0.25,24.57 -0.25,24.57  z" class="primitive"/>
              </g>
              <g transform="translate(50.84,64.05)" id="img-86b40575-85">
                <path d="M-0.25,-13.17 L0.25,-13.17 0.25,13.17 -0.25,13.17  z" class="primitive"/>
              </g>
              <g transform="translate(51.29,50.88)" id="img-86b40575-86">
                <path d="M-0.25,-26.33 L0.25,-26.33 0.25,26.33 -0.25,26.33  z" class="primitive"/>
              </g>
              <g transform="translate(51.74,53.52)" id="img-86b40575-87">
                <path d="M-0.25,-23.7 L0.25,-23.7 0.25,23.7 -0.25,23.7  z" class="primitive"/>
              </g>
              <g transform="translate(52.19,56.15)" id="img-86b40575-88">
                <path d="M-0.25,-21.06 L0.25,-21.06 0.25,21.06 -0.25,21.06  z" class="primitive"/>
              </g>
              <g transform="translate(52.63,57.9)" id="img-86b40575-89">
                <path d="M-0.25,-19.31 L0.25,-19.31 0.25,19.31 -0.25,19.31  z" class="primitive"/>
              </g>
              <g transform="translate(53.08,51.76)" id="img-86b40575-90">
                <path d="M-0.25,-25.45 L0.25,-25.45 0.25,25.45 -0.25,25.45  z" class="primitive"/>
              </g>
              <g transform="translate(53.53,53.52)" id="img-86b40575-91">
                <path d="M-0.25,-23.7 L0.25,-23.7 0.25,23.7 -0.25,23.7  z" class="primitive"/>
              </g>
              <g transform="translate(53.98,53.52)" id="img-86b40575-92">
                <path d="M-0.25,-23.7 L0.25,-23.7 0.25,23.7 -0.25,23.7  z" class="primitive"/>
              </g>
              <g transform="translate(54.43,60.54)" id="img-86b40575-93">
                <path d="M-0.25,-16.68 L0.25,-16.68 0.25,16.68 -0.25,16.68  z" class="primitive"/>
              </g>
              <g transform="translate(54.88,57.03)" id="img-86b40575-94">
                <path d="M-0.25,-20.19 L0.25,-20.19 0.25,20.19 -0.25,20.19  z" class="primitive"/>
              </g>
              <g transform="translate(55.33,60.54)" id="img-86b40575-95">
                <path d="M-0.25,-16.68 L0.25,-16.68 0.25,16.68 -0.25,16.68  z" class="primitive"/>
              </g>
              <g transform="translate(55.78,62.29)" id="img-86b40575-96">
                <path d="M-0.25,-14.92 L0.25,-14.92 0.25,14.92 -0.25,14.92  z" class="primitive"/>
              </g>
              <g transform="translate(56.22,62.29)" id="img-86b40575-97">
                <path d="M-0.25,-14.92 L0.25,-14.92 0.25,14.92 -0.25,14.92  z" class="primitive"/>
              </g>
              <g transform="translate(56.67,58.78)" id="img-86b40575-98">
                <path d="M-0.25,-18.43 L0.25,-18.43 0.25,18.43 -0.25,18.43  z" class="primitive"/>
              </g>
              <g transform="translate(57.12,54.39)" id="img-86b40575-99">
                <path d="M-0.25,-22.82 L0.25,-22.82 0.25,22.82 -0.25,22.82  z" class="primitive"/>
              </g>
              <g transform="translate(57.57,60.54)" id="img-86b40575-100">
                <path d="M-0.25,-16.68 L0.25,-16.68 0.25,16.68 -0.25,16.68  z" class="primitive"/>
              </g>
              <g transform="translate(58.02,64.93)" id="img-86b40575-101">
                <path d="M-0.25,-12.29 L0.25,-12.29 0.25,12.29 -0.25,12.29  z" class="primitive"/>
              </g>
              <g transform="translate(58.47,63.17)" id="img-86b40575-102">
                <path d="M-0.25,-14.04 L0.25,-14.04 0.25,14.04 -0.25,14.04  z" class="primitive"/>
              </g>
              <g transform="translate(58.92,64.05)" id="img-86b40575-103">
                <path d="M-0.25,-13.17 L0.25,-13.17 0.25,13.17 -0.25,13.17  z" class="primitive"/>
              </g>
              <g transform="translate(59.37,64.93)" id="img-86b40575-104">
                <path d="M-0.25,-12.29 L0.25,-12.29 0.25,12.29 -0.25,12.29  z" class="primitive"/>
              </g>
              <g transform="translate(59.81,67.56)" id="img-86b40575-105">
                <path d="M-0.25,-9.65 L0.25,-9.65 0.25,9.65 -0.25,9.65  z" class="primitive"/>
              </g>
              <g transform="translate(60.26,64.05)" id="img-86b40575-106">
                <path d="M-0.25,-13.17 L0.25,-13.17 0.25,13.17 -0.25,13.17  z" class="primitive"/>
              </g>
              <g transform="translate(60.71,61.42)" id="img-86b40575-107">
                <path d="M-0.25,-15.8 L0.25,-15.8 0.25,15.8 -0.25,15.8  z" class="primitive"/>
              </g>
              <g transform="translate(61.16,66.68)" id="img-86b40575-108">
                <path d="M-0.25,-10.53 L0.25,-10.53 0.25,10.53 -0.25,10.53  z" class="primitive"/>
              </g>
              <g transform="translate(61.61,64.05)" id="img-86b40575-109">
                <path d="M-0.25,-13.17 L0.25,-13.17 0.25,13.17 -0.25,13.17  z" class="primitive"/>
              </g>
              <g transform="translate(62.06,68.44)" id="img-86b40575-110">
                <path d="M-0.25,-8.78 L0.25,-8.78 0.25,8.78 -0.25,8.78  z" class="primitive"/>
              </g>
              <g transform="translate(62.51,71.07)" id="img-86b40575-111">
                <path d="M-0.25,-6.14 L0.25,-6.14 0.25,6.14 -0.25,6.14  z" class="primitive"/>
              </g>
              <g transform="translate(62.96,71.07)" id="img-86b40575-112">
                <path d="M-0.25,-6.14 L0.25,-6.14 0.25,6.14 -0.25,6.14  z" class="primitive"/>
              </g>
              <g transform="translate(63.4,71.95)" id="img-86b40575-113">
                <path d="M-0.25,-5.27 L0.25,-5.27 0.25,5.27 -0.25,5.27  z" class="primitive"/>
              </g>
              <g transform="translate(63.85,71.95)" id="img-86b40575-114">
                <path d="M-0.25,-5.27 L0.25,-5.27 0.25,5.27 -0.25,5.27  z" class="primitive"/>
              </g>
              <g transform="translate(64.3,72.82)" id="img-86b40575-115">
                <path d="M-0.25,-4.39 L0.25,-4.39 0.25,4.39 -0.25,4.39  z" class="primitive"/>
              </g>
              <g transform="translate(64.75,72.82)" id="img-86b40575-116">
                <path d="M-0.25,-4.39 L0.25,-4.39 0.25,4.39 -0.25,4.39  z" class="primitive"/>
              </g>
              <g transform="translate(65.2,74.58)" id="img-86b40575-117">
                <path d="M-0.25,-2.63 L0.25,-2.63 0.25,2.63 -0.25,2.63  z" class="primitive"/>
              </g>
              <g transform="translate(65.65,71.07)" id="img-86b40575-118">
                <path d="M-0.25,-6.14 L0.25,-6.14 0.25,6.14 -0.25,6.14  z" class="primitive"/>
              </g>
              <g transform="translate(66.1,73.7)" id="img-86b40575-119">
                <path d="M-0.25,-3.51 L0.25,-3.51 0.25,3.51 -0.25,3.51  z" class="primitive"/>
              </g>
              <g transform="translate(66.55,73.7)" id="img-86b40575-120">
                <path d="M-0.25,-3.51 L0.25,-3.51 0.25,3.51 -0.25,3.51  z" class="primitive"/>
              </g>
              <g transform="translate(66.99,76.34)" id="img-86b40575-121">
                <path d="M-0.25,-0.88 L0.25,-0.88 0.25,0.88 -0.25,0.88  z" class="primitive"/>
              </g>
              <g transform="translate(67.44,74.58)" id="img-86b40575-122">
                <path d="M-0.25,-2.63 L0.25,-2.63 0.25,2.63 -0.25,2.63  z" class="primitive"/>
              </g>
              <g transform="translate(67.89,76.34)" id="img-86b40575-123">
                <path d="M-0.25,-0.88 L0.25,-0.88 0.25,0.88 -0.25,0.88  z" class="primitive"/>
              </g>
              <g transform="translate(68.34,76.34)" id="img-86b40575-124">
                <path d="M-0.25,-0.88 L0.25,-0.88 0.25,0.88 -0.25,0.88  z" class="primitive"/>
              </g>
              <g transform="translate(68.79,75.46)" id="img-86b40575-125">
                <path d="M-0.25,-1.76 L0.25,-1.76 0.25,1.76 -0.25,1.76  z" class="primitive"/>
              </g>
              <g transform="translate(69.24,75.46)" id="img-86b40575-126">
                <path d="M-0.25,-1.76 L0.25,-1.76 0.25,1.76 -0.25,1.76  z" class="primitive"/>
              </g>
              <g transform="translate(69.69,75.46)" id="img-86b40575-127">
                <path d="M-0.25,-1.76 L0.25,-1.76 0.25,1.76 -0.25,1.76  z" class="primitive"/>
              </g>
              <g transform="translate(70.14,77.22)" id="img-86b40575-128">
                <path d="M-0.25,-0 L0.25,-0 0.25,0 -0.25,0  z" class="primitive"/>
              </g>
              <g transform="translate(70.58,77.22)" id="img-86b40575-129">
                <path d="M-0.25,-0 L0.25,-0 0.25,0 -0.25,0  z" class="primitive"/>
              </g>
              <g transform="translate(71.03,77.22)" id="img-86b40575-130">
                <path d="M-0.25,-0 L0.25,-0 0.25,0 -0.25,0  z" class="primitive"/>
              </g>
              <g transform="translate(71.48,76.34)" id="img-86b40575-131">
                <path d="M-0.25,-0.88 L0.25,-0.88 0.25,0.88 -0.25,0.88  z" class="primitive"/>
              </g>
            </g>
          </g>
        </g>
      </g>
    </g>
  </g>
  <g class="guide ylabels" font-size="2.82" font-family="'PT Sans Caption','Helvetica Neue','Helvetica',sans-serif" fill="#6C606B" id="img-86b40575-132">
    <g transform="translate(16.96,77.21)" id="img-86b40575-133">
      <g class="primitive">
        <text text-anchor="end" dy="0.35em">0</text>
      </g>
    </g>
    <g transform="translate(16.96,59.66)" id="img-86b40575-134">
      <g class="primitive">
        <text text-anchor="end" dy="0.35em">10</text>
      </g>
    </g>
    <g transform="translate(16.96,42.11)" id="img-86b40575-135">
      <g class="primitive">
        <text text-anchor="end" dy="0.35em">20</text>
      </g>
    </g>
    <g transform="translate(16.96,24.55)" id="img-86b40575-136">
      <g class="primitive">
        <text text-anchor="end" dy="0.35em">30</text>
      </g>
    </g>
    <g transform="translate(16.96,7)" id="img-86b40575-137">
      <g class="primitive">
        <text text-anchor="end" dy="0.35em">40</text>
      </g>
    </g>
  </g>
  <g font-size="3.88" font-family="'PT Sans','Helvetica Neue','Helvetica',sans-serif" fill="#564A55" stroke="#000000" stroke-opacity="0.000" id="img-86b40575-138">
    <g transform="translate(8.81,40.11)" id="img-86b40575-139">
      <g class="primitive">
        <text text-anchor="middle" dy="0.35em" transform="rotate(-90,0, 2)">frequency</text>
      </g>
    </g>
  </g>
</g>
<defs>
  <clipPath id="img-86b40575-11">
    <path d="M17.96,5 L83.05,5 83.05,79.21 17.96,79.21 " />
  </clipPath>
</defs>
</svg>
