<?xml version="1.0" encoding="UTF-8"?>
<svg xmlns="http://www.w3.org/2000/svg"
     xmlns:xlink="http://www.w3.org/1999/xlink"
     xmlns:gadfly="http://www.gadflyjl.org/ns"
     version="1.2"
     width="141.42mm" height="100mm" viewBox="0 0 141.42 100"
     stroke="none"
     fill="#000000"
     stroke-width="0.3"
     font-size="3.88"
>
<defs>
  <marker id="arrow" markerWidth="15" markerHeight="7" refX="5" refY="3.5" orient="auto" markerUnits="strokeWidth">
    <path d="M0,0 L15,3.5 L0,7 z" stroke="context-stroke" fill="context-stroke"/>
  </marker>
</defs>
<g class="plotroot xscalable yscalable" id="img-6ab3f140-1">
  <g class="guide xlabels" font-size="2.82" font-family="'PT Sans Caption','Helvetica Neue','Helvetica',sans-serif" fill="#6C606B" id="img-6ab3f140-2">
    <g transform="translate(19.96,80.21)">
      <g class="primitive">
        <text text-anchor="end" dy="0.35em" transform="rotate(-90,0, 0)">8.00×10³</text>
      </g>
    </g>
    <g transform="translate(32.73,80.21)">
      <g class="primitive">
        <text text-anchor="end" dy="0.35em" transform="rotate(-90,0, 0)">9.00×10³</text>
      </g>
    </g>
    <g transform="translate(45.5,80.21)">
      <g class="primitive">
        <text text-anchor="end" dy="0.35em" transform="rotate(-90,0, 0)">1.00×10⁴</text>
      </g>
    </g>
    <g transform="translate(58.26,80.21)">
      <g class="primitive">
        <text text-anchor="end" dy="0.35em" transform="rotate(-90,0, 0)">1.10×10⁴</text>
      </g>
    </g>
    <g transform="translate(71.03,80.21)">
      <g class="primitive">
        <text text-anchor="end" dy="0.35em" transform="rotate(-90,0, 0)">1.20×10⁴</text>
      </g>
    </g>
    <g transform="translate(83.8,80.21)">
      <g class="primitive">
        <text text-anchor="end" dy="0.35em" transform="rotate(-90,0, 0)">1.30×10⁴</text>
      </g>
    </g>
  </g>
  <g class="guide colorkey" id="img-6ab3f140-3">
    <g class="color_noncoding_noncoding_noncoding_3-tri" id="img-6ab3f140-4">
      <g fill="#4C404B" font-size="2.82" font-family="'PT Sans','Helvetica Neue','Helvetica',sans-serif" id="img-6ab3f140-5">
        <g transform="translate(89.61,43.92)" id="img-6ab3f140-6">
          <g class="primitive">
            <text dy="0.35em">noncoding_noncoding_noncoding_3-tri</text>
          </g>
        </g>
      </g>
      <g fill-opacity="1" fill="#00BFFF" stroke="#FFFFFF" id="img-6ab3f140-7">
        <g transform="translate(87.71,43.92)" id="img-6ab3f140-8">
          <path d="M-0.91,-0.91 L0.91,-0.91 0.91,0.91 -0.91,0.91  z" class="primitive"/>
        </g>
      </g>
    </g>
    <g fill="#362A35" font-size="3.88" font-family="'PT Sans','Helvetica Neue','Helvetica',sans-serif" stroke="#000000" stroke-opacity="0.000" id="img-6ab3f140-9">
      <g transform="translate(86.8,40.1)" id="img-6ab3f140-10">
        <g class="primitive">
          <text dy="-0em">graphlet</text>
        </g>
      </g>
    </g>
  </g>
  <g clip-path="url(#img-6ab3f140-11)">
    <g id="img-6ab3f140-12">
      <g pointer-events="visible" stroke-width="0.3" fill="#000000" fill-opacity="0.000" stroke="#000000" stroke-opacity="0.000" class="guide background" id="img-6ab3f140-13">
        <g transform="translate(51.88,42.11)" id="img-6ab3f140-14">
          <path d="M-33.92,-37.11 L33.92,-37.11 33.92,37.11 -33.92,37.11  z" class="primitive"/>
        </g>
      </g>
      <g class="guide ygridlines xfixed" stroke-dasharray="0.5,0.5" stroke-width="0.2" stroke="#D0D0E0" id="img-6ab3f140-15">
        <g transform="translate(51.88,77.21)" id="img-6ab3f140-16">
          <path fill="none" d="M-33.92,0 L33.92,0 " class="primitive"/>
        </g>
        <g transform="translate(51.88,59.66)" id="img-6ab3f140-17">
          <path fill="none" d="M-33.92,0 L33.92,0 " class="primitive"/>
        </g>
        <g transform="translate(51.88,42.11)" id="img-6ab3f140-18">
          <path fill="none" d="M-33.92,0 L33.92,0 " class="primitive"/>
        </g>
        <g transform="translate(51.88,24.55)" id="img-6ab3f140-19">
          <path fill="none" d="M-33.92,0 L33.92,0 " class="primitive"/>
        </g>
        <g transform="translate(51.88,7)" id="img-6ab3f140-20">
          <path fill="none" d="M-33.92,0 L33.92,0 " class="primitive"/>
        </g>
      </g>
      <g class="guide xgridlines yfixed" stroke-dasharray="0.5,0.5" stroke-width="0.2" stroke="#D0D0E0" id="img-6ab3f140-21">
        <g transform="translate(19.96,42.11)" id="img-6ab3f140-22">
          <path fill="none" d="M0,-37.11 L0,37.11 " class="primitive"/>
        </g>
        <g transform="translate(32.73,42.11)" id="img-6ab3f140-23">
          <path fill="none" d="M0,-37.11 L0,37.11 " class="primitive"/>
        </g>
        <g transform="translate(45.5,42.11)" id="img-6ab3f140-24">
          <path fill="none" d="M0,-37.11 L0,37.11 " class="primitive"/>
        </g>
        <g transform="translate(58.26,42.11)" id="img-6ab3f140-25">
          <path fill="none" d="M0,-37.11 L0,37.11 " class="primitive"/>
        </g>
        <g transform="translate(71.03,42.11)" id="img-6ab3f140-26">
          <path fill="none" d="M0,-37.11 L0,37.11 " class="primitive"/>
        </g>
        <g transform="translate(83.8,42.11)" id="img-6ab3f140-27">
          <path fill="none" d="M0,-37.11 L0,37.11 " class="primitive"/>
        </g>
      </g>
      <g class="plotpanel" id="img-6ab3f140-28">
        <metadata>
          <boundingbox value="17.95833333333333mm 5.0mm 67.84302290397619mm 74.21333333333334mm"/>
          <unitbox value="7843.365812814963 41.13938473224459 5313.268374370074 -42.27876946448917"/>
        </metadata>
        <g shape-rendering="crispEdges" stroke-width="0.3" id="img-6ab3f140-29">
          <g stroke="#000000" stroke-opacity="0.000" class="geometry" id="img-6ab3f140-30">
            <g fill="#00BFFF" id="img-6ab3f140-31">
              <g transform="translate(23.07,76.34)" id="img-6ab3f140-32">
                <path d="M-0.28,-0.88 L0.28,-0.88 0.28,0.88 -0.28,0.88  z" class="primitive"/>
              </g>
              <g transform="translate(23.58,77.22)" id="img-6ab3f140-33">
                <path d="M-0.28,-0 L0.28,-0 0.28,0 -0.28,0  z" class="primitive"/>
              </g>
              <g transform="translate(24.09,77.22)" id="img-6ab3f140-34">
                <path d="M-0.28,-0 L0.28,-0 0.28,0 -0.28,0  z" class="primitive"/>
              </g>
              <g transform="translate(24.59,77.22)" id="img-6ab3f140-35">
                <path d="M-0.28,-0 L0.28,-0 0.28,0 -0.28,0  z" class="primitive"/>
              </g>
              <g transform="translate(25.1,75.46)" id="img-6ab3f140-36">
                <path d="M-0.28,-1.76 L0.28,-1.76 0.28,1.76 -0.28,1.76  z" class="primitive"/>
              </g>
              <g transform="translate(25.61,77.22)" id="img-6ab3f140-37">
                <path d="M-0.28,-0 L0.28,-0 0.28,0 -0.28,0  z" class="primitive"/>
              </g>
              <g transform="translate(26.12,73.7)" id="img-6ab3f140-38">
                <path d="M-0.28,-3.51 L0.28,-3.51 0.28,3.51 -0.28,3.51  z" class="primitive"/>
              </g>
              <g transform="translate(26.62,74.58)" id="img-6ab3f140-39">
                <path d="M-0.28,-2.63 L0.28,-2.63 0.28,2.63 -0.28,2.63  z" class="primitive"/>
              </g>
              <g transform="translate(27.13,74.58)" id="img-6ab3f140-40">
                <path d="M-0.28,-2.63 L0.28,-2.63 0.28,2.63 -0.28,2.63  z" class="primitive"/>
              </g>
              <g transform="translate(27.64,74.58)" id="img-6ab3f140-41">
                <path d="M-0.28,-2.63 L0.28,-2.63 0.28,2.63 -0.28,2.63  z" class="primitive"/>
              </g>
              <g transform="translate(28.15,72.82)" id="img-6ab3f140-42">
                <path d="M-0.28,-4.39 L0.28,-4.39 0.28,4.39 -0.28,4.39  z" class="primitive"/>
              </g>
              <g transform="translate(28.65,69.31)" id="img-6ab3f140-43">
                <path d="M-0.28,-7.9 L0.28,-7.9 0.28,7.9 -0.28,7.9  z" class="primitive"/>
              </g>
              <g transform="translate(29.16,71.95)" id="img-6ab3f140-44">
                <path d="M-0.28,-5.27 L0.28,-5.27 0.28,5.27 -0.28,5.27  z" class="primitive"/>
              </g>
              <g transform="translate(29.67,73.7)" id="img-6ab3f140-45">
                <path d="M-0.28,-3.51 L0.28,-3.51 0.28,3.51 -0.28,3.51  z" class="primitive"/>
              </g>
              <g transform="translate(30.18,70.19)" id="img-6ab3f140-46">
                <path d="M-0.28,-7.02 L0.28,-7.02 0.28,7.02 -0.28,7.02  z" class="primitive"/>
              </g>
              <g transform="translate(30.68,71.07)" id="img-6ab3f140-47">
                <path d="M-0.28,-6.14 L0.28,-6.14 0.28,6.14 -0.28,6.14  z" class="primitive"/>
              </g>
              <g transform="translate(31.19,73.7)" id="img-6ab3f140-48">
                <path d="M-0.28,-3.51 L0.28,-3.51 0.28,3.51 -0.28,3.51  z" class="primitive"/>
              </g>
              <g transform="translate(31.7,72.82)" id="img-6ab3f140-49">
                <path d="M-0.28,-4.39 L0.28,-4.39 0.28,4.39 -0.28,4.39  z" class="primitive"/>
              </g>
              <g transform="translate(32.21,67.56)" id="img-6ab3f140-50">
                <path d="M-0.28,-9.65 L0.28,-9.65 0.28,9.65 -0.28,9.65  z" class="primitive"/>
              </g>
              <g transform="translate(32.71,66.68)" id="img-6ab3f140-51">
                <path d="M-0.28,-10.53 L0.28,-10.53 0.28,10.53 -0.28,10.53  z" class="primitive"/>
              </g>
              <g transform="translate(33.22,72.82)" id="img-6ab3f140-52">
                <path d="M-0.28,-4.39 L0.28,-4.39 0.28,4.39 -0.28,4.39  z" class="primitive"/>
              </g>
              <g transform="translate(33.73,72.82)" id="img-6ab3f140-53">
                <path d="M-0.28,-4.39 L0.28,-4.39 0.28,4.39 -0.28,4.39  z" class="primitive"/>
              </g>
              <g transform="translate(34.24,66.68)" id="img-6ab3f140-54">
                <path d="M-0.28,-10.53 L0.28,-10.53 0.28,10.53 -0.28,10.53  z" class="primitive"/>
              </g>
              <g transform="translate(34.74,64.93)" id="img-6ab3f140-55">
                <path d="M-0.28,-12.29 L0.28,-12.29 0.28,12.29 -0.28,12.29  z" class="primitive"/>
              </g>
              <g transform="translate(35.25,64.05)" id="img-6ab3f140-56">
                <path d="M-0.28,-13.17 L0.28,-13.17 0.28,13.17 -0.28,13.17  z" class="primitive"/>
              </g>
              <g transform="translate(35.76,60.54)" id="img-6ab3f140-57">
                <path d="M-0.28,-16.68 L0.28,-16.68 0.28,16.68 -0.28,16.68  z" class="primitive"/>
              </g>
              <g transform="translate(36.27,56.15)" id="img-6ab3f140-58">
                <path d="M-0.28,-21.06 L0.28,-21.06 0.28,21.06 -0.28,21.06  z" class="primitive"/>
              </g>
              <g transform="translate(36.77,60.54)" id="img-6ab3f140-59">
                <path d="M-0.28,-16.68 L0.28,-16.68 0.28,16.68 -0.28,16.68  z" class="primitive"/>
              </g>
              <g transform="translate(37.28,58.78)" id="img-6ab3f140-60">
                <path d="M-0.28,-18.43 L0.28,-18.43 0.28,18.43 -0.28,18.43  z" class="primitive"/>
              </g>
              <g transform="translate(37.79,60.54)" id="img-6ab3f140-61">
                <path d="M-0.28,-16.68 L0.28,-16.68 0.28,16.68 -0.28,16.68  z" class="primitive"/>
              </g>
              <g transform="translate(38.29,67.56)" id="img-6ab3f140-62">
                <path d="M-0.28,-9.65 L0.28,-9.65 0.28,9.65 -0.28,9.65  z" class="primitive"/>
              </g>
              <g transform="translate(38.8,60.54)" id="img-6ab3f140-63">
                <path d="M-0.28,-16.68 L0.28,-16.68 0.28,16.68 -0.28,16.68  z" class="primitive"/>
              </g>
              <g transform="translate(39.31,60.54)" id="img-6ab3f140-64">
                <path d="M-0.28,-16.68 L0.28,-16.68 0.28,16.68 -0.28,16.68  z" class="primitive"/>
              </g>
              <g transform="translate(39.82,56.15)" id="img-6ab3f140-65">
                <path d="M-0.28,-21.06 L0.28,-21.06 0.28,21.06 -0.28,21.06  z" class="primitive"/>
              </g>
              <g transform="translate(40.32,62.29)" id="img-6ab3f140-66">
                <path d="M-0.28,-14.92 L0.28,-14.92 0.28,14.92 -0.28,14.92  z" class="primitive"/>
              </g>
              <g transform="translate(40.83,55.27)" id="img-6ab3f140-67">
                <path d="M-0.28,-21.94 L0.28,-21.94 0.28,21.94 -0.28,21.94  z" class="primitive"/>
              </g>
              <g transform="translate(41.34,62.29)" id="img-6ab3f140-68">
                <path d="M-0.28,-14.92 L0.28,-14.92 0.28,14.92 -0.28,14.92  z" class="primitive"/>
              </g>
              <g transform="translate(41.85,59.66)" id="img-6ab3f140-69">
                <path d="M-0.28,-17.55 L0.28,-17.55 0.28,17.55 -0.28,17.55  z" class="primitive"/>
              </g>
              <g transform="translate(42.35,58.78)" id="img-6ab3f140-70">
                <path d="M-0.28,-18.43 L0.28,-18.43 0.28,18.43 -0.28,18.43  z" class="primitive"/>
              </g>
              <g transform="translate(42.86,52.64)" id="img-6ab3f140-71">
                <path d="M-0.28,-24.57 L0.28,-24.57 0.28,24.57 -0.28,24.57  z" class="primitive"/>
              </g>
              <g transform="translate(43.37,57.9)" id="img-6ab3f140-72">
                <path d="M-0.28,-19.31 L0.28,-19.31 0.28,19.31 -0.28,19.31  z" class="primitive"/>
              </g>
              <g transform="translate(43.88,60.54)" id="img-6ab3f140-73">
                <path d="M-0.28,-16.68 L0.28,-16.68 0.28,16.68 -0.28,16.68  z" class="primitive"/>
              </g>
              <g transform="translate(44.38,60.54)" id="img-6ab3f140-74">
                <path d="M-0.28,-16.68 L0.28,-16.68 0.28,16.68 -0.28,16.68  z" class="primitive"/>
              </g>
              <g transform="translate(44.89,43.86)" id="img-6ab3f140-75">
                <path d="M-0.28,-33.35 L0.28,-33.35 0.28,33.35 -0.28,33.35  z" class="primitive"/>
              </g>
              <g transform="translate(45.4,52.64)" id="img-6ab3f140-76">
                <path d="M-0.28,-24.57 L0.28,-24.57 0.28,24.57 -0.28,24.57  z" class="primitive"/>
              </g>
              <g transform="translate(45.91,52.64)" id="img-6ab3f140-77">
                <path d="M-0.28,-24.57 L0.28,-24.57 0.28,24.57 -0.28,24.57  z" class="primitive"/>
              </g>
              <g transform="translate(46.41,66.68)" id="img-6ab3f140-78">
                <path d="M-0.28,-10.53 L0.28,-10.53 0.28,10.53 -0.28,10.53  z" class="primitive"/>
              </g>
              <g transform="translate(46.92,52.64)" id="img-6ab3f140-79">
                <path d="M-0.28,-24.57 L0.28,-24.57 0.28,24.57 -0.28,24.57  z" class="primitive"/>
              </g>
              <g transform="translate(47.43,64.05)" id="img-6ab3f140-80">
                <path d="M-0.28,-13.17 L0.28,-13.17 0.28,13.17 -0.28,13.17  z" class="primitive"/>
              </g>
              <g transform="translate(47.94,59.66)" id="img-6ab3f140-81">
                <path d="M-0.28,-17.55 L0.28,-17.55 0.28,17.55 -0.28,17.55  z" class="primitive"/>
              </g>
              <g transform="translate(48.44,60.54)" id="img-6ab3f140-82">
                <path d="M-0.28,-16.68 L0.28,-16.68 0.28,16.68 -0.28,16.68  z" class="primitive"/>
              </g>
              <g transform="translate(48.95,63.17)" id="img-6ab3f140-83">
                <path d="M-0.28,-14.04 L0.28,-14.04 0.28,14.04 -0.28,14.04  z" class="primitive"/>
              </g>
              <g transform="translate(49.46,62.29)" id="img-6ab3f140-84">
                <path d="M-0.28,-14.92 L0.28,-14.92 0.28,14.92 -0.28,14.92  z" class="primitive"/>
              </g>
              <g transform="translate(49.97,67.56)" id="img-6ab3f140-85">
                <path d="M-0.28,-9.65 L0.28,-9.65 0.28,9.65 -0.28,9.65  z" class="primitive"/>
              </g>
              <g transform="translate(50.47,63.17)" id="img-6ab3f140-86">
                <path d="M-0.28,-14.04 L0.28,-14.04 0.28,14.04 -0.28,14.04  z" class="primitive"/>
              </g>
              <g transform="translate(50.98,60.54)" id="img-6ab3f140-87">
                <path d="M-0.28,-16.68 L0.28,-16.68 0.28,16.68 -0.28,16.68  z" class="primitive"/>
              </g>
              <g transform="translate(51.49,66.68)" id="img-6ab3f140-88">
                <path d="M-0.28,-10.53 L0.28,-10.53 0.28,10.53 -0.28,10.53  z" class="primitive"/>
              </g>
              <g transform="translate(52,62.29)" id="img-6ab3f140-89">
                <path d="M-0.28,-14.92 L0.28,-14.92 0.28,14.92 -0.28,14.92  z" class="primitive"/>
              </g>
              <g transform="translate(52.5,63.17)" id="img-6ab3f140-90">
                <path d="M-0.28,-14.04 L0.28,-14.04 0.28,14.04 -0.28,14.04  z" class="primitive"/>
              </g>
              <g transform="translate(53.01,60.54)" id="img-6ab3f140-91">
                <path d="M-0.28,-16.68 L0.28,-16.68 0.28,16.68 -0.28,16.68  z" class="primitive"/>
              </g>
              <g transform="translate(53.52,69.31)" id="img-6ab3f140-92">
                <path d="M-0.28,-7.9 L0.28,-7.9 0.28,7.9 -0.28,7.9  z" class="primitive"/>
              </g>
              <g transform="translate(54.03,64.05)" id="img-6ab3f140-93">
                <path d="M-0.28,-13.17 L0.28,-13.17 0.28,13.17 -0.28,13.17  z" class="primitive"/>
              </g>
              <g transform="translate(54.53,63.17)" id="img-6ab3f140-94">
                <path d="M-0.28,-14.04 L0.28,-14.04 0.28,14.04 -0.28,14.04  z" class="primitive"/>
              </g>
              <g transform="translate(55.04,64.05)" id="img-6ab3f140-95">
                <path d="M-0.28,-13.17 L0.28,-13.17 0.28,13.17 -0.28,13.17  z" class="primitive"/>
              </g>
              <g transform="translate(55.55,71.07)" id="img-6ab3f140-96">
                <path d="M-0.28,-6.14 L0.28,-6.14 0.28,6.14 -0.28,6.14  z" class="primitive"/>
              </g>
              <g transform="translate(56.05,72.82)" id="img-6ab3f140-97">
                <path d="M-0.28,-4.39 L0.28,-4.39 0.28,4.39 -0.28,4.39  z" class="primitive"/>
              </g>
              <g transform="translate(56.56,69.31)" id="img-6ab3f140-98">
                <path d="M-0.28,-7.9 L0.28,-7.9 0.28,7.9 -0.28,7.9  z" class="primitive"/>
              </g>
              <g transform="translate(57.07,71.95)" id="img-6ab3f140-99">
                <path d="M-0.28,-5.27 L0.28,-5.27 0.28,5.27 -0.28,5.27  z" class="primitive"/>
              </g>
              <g transform="translate(57.58,70.19)" id="img-6ab3f140-100">
                <path d="M-0.28,-7.02 L0.28,-7.02 0.28,7.02 -0.28,7.02  z" class="primitive"/>
              </g>
              <g transform="translate(58.08,71.07)" id="img-6ab3f140-101">
                <path d="M-0.28,-6.14 L0.28,-6.14 0.28,6.14 -0.28,6.14  z" class="primitive"/>
              </g>
              <g transform="translate(58.59,68.44)" id="img-6ab3f140-102">
                <path d="M-0.28,-8.78 L0.28,-8.78 0.28,8.78 -0.28,8.78  z" class="primitive"/>
              </g>
              <g transform="translate(59.1,77.22)" id="img-6ab3f140-103">
                <path d="M-0.28,-0 L0.28,-0 0.28,0 -0.28,0  z" class="primitive"/>
              </g>
              <g transform="translate(59.61,71.95)" id="img-6ab3f140-104">
                <path d="M-0.28,-5.27 L0.28,-5.27 0.28,5.27 -0.28,5.27  z" class="primitive"/>
              </g>
              <g transform="translate(60.11,73.7)" id="img-6ab3f140-105">
                <path d="M-0.28,-3.51 L0.28,-3.51 0.28,3.51 -0.28,3.51  z" class="primitive"/>
              </g>
              <g transform="translate(60.62,70.19)" id="img-6ab3f140-106">
                <path d="M-0.28,-7.02 L0.28,-7.02 0.28,7.02 -0.28,7.02  z" class="primitive"/>
              </g>
              <g transform="translate(61.13,71.95)" id="img-6ab3f140-107">
                <path d="M-0.28,-5.27 L0.28,-5.27 0.28,5.27 -0.28,5.27  z" class="primitive"/>
              </g>
              <g transform="translate(61.64,74.58)" id="img-6ab3f140-108">
                <path d="M-0.28,-2.63 L0.28,-2.63 0.28,2.63 -0.28,2.63  z" class="primitive"/>
              </g>
              <g transform="translate(62.14,75.46)" id="img-6ab3f140-109">
                <path d="M-0.28,-1.76 L0.28,-1.76 0.28,1.76 -0.28,1.76  z" class="primitive"/>
              </g>
              <g transform="translate(62.65,75.46)" id="img-6ab3f140-110">
                <path d="M-0.28,-1.76 L0.28,-1.76 0.28,1.76 -0.28,1.76  z" class="primitive"/>
              </g>
              <g transform="translate(63.16,73.7)" id="img-6ab3f140-111">
                <path d="M-0.28,-3.51 L0.28,-3.51 0.28,3.51 -0.28,3.51  z" class="primitive"/>
              </g>
              <g transform="translate(63.67,76.34)" id="img-6ab3f140-112">
                <path d="M-0.28,-0.88 L0.28,-0.88 0.28,0.88 -0.28,0.88  z" class="primitive"/>
              </g>
              <g transform="translate(64.17,73.7)" id="img-6ab3f140-113">
                <path d="M-0.28,-3.51 L0.28,-3.51 0.28,3.51 -0.28,3.51  z" class="primitive"/>
              </g>
              <g transform="translate(64.68,76.34)" id="img-6ab3f140-114">
                <path d="M-0.28,-0.88 L0.28,-0.88 0.28,0.88 -0.28,0.88  z" class="primitive"/>
              </g>
              <g transform="translate(65.19,75.46)" id="img-6ab3f140-115">
                <path d="M-0.28,-1.76 L0.28,-1.76 0.28,1.76 -0.28,1.76  z" class="primitive"/>
              </g>
              <g transform="translate(65.7,76.34)" id="img-6ab3f140-116">
                <path d="M-0.28,-0.88 L0.28,-0.88 0.28,0.88 -0.28,0.88  z" class="primitive"/>
              </g>
              <g transform="translate(66.2,74.58)" id="img-6ab3f140-117">
                <path d="M-0.28,-2.63 L0.28,-2.63 0.28,2.63 -0.28,2.63  z" class="primitive"/>
              </g>
              <g transform="translate(66.71,73.7)" id="img-6ab3f140-118">
                <path d="M-0.28,-3.51 L0.28,-3.51 0.28,3.51 -0.28,3.51  z" class="primitive"/>
              </g>
              <g transform="translate(67.22,76.34)" id="img-6ab3f140-119">
                <path d="M-0.28,-0.88 L0.28,-0.88 0.28,0.88 -0.28,0.88  z" class="primitive"/>
              </g>
              <g transform="translate(67.73,75.46)" id="img-6ab3f140-120">
                <path d="M-0.28,-1.76 L0.28,-1.76 0.28,1.76 -0.28,1.76  z" class="primitive"/>
              </g>
              <g transform="translate(68.23,77.22)" id="img-6ab3f140-121">
                <path d="M-0.28,-0 L0.28,-0 0.28,0 -0.28,0  z" class="primitive"/>
              </g>
              <g transform="translate(68.74,76.34)" id="img-6ab3f140-122">
                <path d="M-0.28,-0.88 L0.28,-0.88 0.28,0.88 -0.28,0.88  z" class="primitive"/>
              </g>
              <g transform="translate(69.25,75.46)" id="img-6ab3f140-123">
                <path d="M-0.28,-1.76 L0.28,-1.76 0.28,1.76 -0.28,1.76  z" class="primitive"/>
              </g>
              <g transform="translate(69.76,76.34)" id="img-6ab3f140-124">
                <path d="M-0.28,-0.88 L0.28,-0.88 0.28,0.88 -0.28,0.88  z" class="primitive"/>
              </g>
              <g transform="translate(70.26,76.34)" id="img-6ab3f140-125">
                <path d="M-0.28,-0.88 L0.28,-0.88 0.28,0.88 -0.28,0.88  z" class="primitive"/>
              </g>
              <g transform="translate(70.77,77.22)" id="img-6ab3f140-126">
                <path d="M-0.28,-0 L0.28,-0 0.28,0 -0.28,0  z" class="primitive"/>
              </g>
              <g transform="translate(71.28,77.22)" id="img-6ab3f140-127">
                <path d="M-0.28,-0 L0.28,-0 0.28,0 -0.28,0  z" class="primitive"/>
              </g>
              <g transform="translate(71.78,76.34)" id="img-6ab3f140-128">
                <path d="M-0.28,-0.88 L0.28,-0.88 0.28,0.88 -0.28,0.88  z" class="primitive"/>
              </g>
              <g transform="translate(72.29,77.22)" id="img-6ab3f140-129">
                <path d="M-0.28,-0 L0.28,-0 0.28,0 -0.28,0  z" class="primitive"/>
              </g>
              <g transform="translate(72.8,77.22)" id="img-6ab3f140-130">
                <path d="M-0.28,-0 L0.28,-0 0.28,0 -0.28,0  z" class="primitive"/>
              </g>
              <g transform="translate(73.31,76.34)" id="img-6ab3f140-131">
                <path d="M-0.28,-0.88 L0.28,-0.88 0.28,0.88 -0.28,0.88  z" class="primitive"/>
              </g>
            </g>
          </g>
        </g>
      </g>
    </g>
  </g>
  <g class="guide ylabels" font-size="2.82" font-family="'PT Sans Caption','Helvetica Neue','Helvetica',sans-serif" fill="#6C606B" id="img-6ab3f140-132">
    <g transform="translate(16.96,77.21)" id="img-6ab3f140-133">
      <g class="primitive">
        <text text-anchor="end" dy="0.35em">0</text>
      </g>
    </g>
    <g transform="translate(16.96,59.66)" id="img-6ab3f140-134">
      <g class="primitive">
        <text text-anchor="end" dy="0.35em">10</text>
      </g>
    </g>
    <g transform="translate(16.96,42.11)" id="img-6ab3f140-135">
      <g class="primitive">
        <text text-anchor="end" dy="0.35em">20</text>
      </g>
    </g>
    <g transform="translate(16.96,24.55)" id="img-6ab3f140-136">
      <g class="primitive">
        <text text-anchor="end" dy="0.35em">30</text>
      </g>
    </g>
    <g transform="translate(16.96,7)" id="img-6ab3f140-137">
      <g class="primitive">
        <text text-anchor="end" dy="0.35em">40</text>
      </g>
    </g>
  </g>
  <g font-size="3.88" font-family="'PT Sans','Helvetica Neue','Helvetica',sans-serif" fill="#564A55" stroke="#000000" stroke-opacity="0.000" id="img-6ab3f140-138">
    <g transform="translate(8.81,40.11)" id="img-6ab3f140-139">
      <g class="primitive">
        <text text-anchor="middle" dy="0.35em" transform="rotate(-90,0, 2)">frequency</text>
      </g>
    </g>
  </g>
</g>
<defs>
  <clipPath id="img-6ab3f140-11">
    <path d="M17.96,5 L85.8,5 85.8,79.21 17.96,79.21 " />
  </clipPath>
</defs>
</svg>
