<?xml version="1.0" encoding="UTF-8"?>
<svg xmlns="http://www.w3.org/2000/svg"
     xmlns:xlink="http://www.w3.org/1999/xlink"
     xmlns:gadfly="http://www.gadflyjl.org/ns"
     version="1.2"
     width="140mm" height="80mm" viewBox="0 0 140 80"
     stroke="none"
     fill="#000000"
     stroke-width="0.3"
     font-size="3.88"
>
<defs>
  <marker id="arrow" markerWidth="15" markerHeight="7" refX="5" refY="3.5" orient="auto" markerUnits="strokeWidth">
    <path d="M0,0 L15,3.5 L0,7 z" stroke="context-stroke" fill="context-stroke"/>
  </marker>
</defs>
<g class="plotroot xscalable yscalable" id="img-00c65792-1">
  <g class="guide xlabels" font-size="2.82" font-family="'PT Sans Caption','Helvetica Neue','Helvetica',sans-serif" fill="#6C606B" id="img-00c65792-2">
    <g transform="translate(19.96,61.89)">
      <g class="primitive">
        <text text-anchor="end" dy="0.35em" transform="rotate(-90,0, 0)">0</text>
      </g>
    </g>
    <g transform="translate(31.07,61.89)">
      <g class="primitive">
        <text text-anchor="end" dy="0.35em" transform="rotate(-90,0, 0)">2.0×10³</text>
      </g>
    </g>
    <g transform="translate(42.17,61.89)">
      <g class="primitive">
        <text text-anchor="end" dy="0.35em" transform="rotate(-90,0, 0)">4.0×10³</text>
      </g>
    </g>
    <g transform="translate(53.28,61.89)">
      <g class="primitive">
        <text text-anchor="end" dy="0.35em" transform="rotate(-90,0, 0)">6.0×10³</text>
      </g>
    </g>
    <g transform="translate(64.39,61.89)">
      <g class="primitive">
        <text text-anchor="end" dy="0.35em" transform="rotate(-90,0, 0)">8.0×10³</text>
      </g>
    </g>
  </g>
  <g class="guide colorkey" id="img-00c65792-3">
    <g class="color_noncoding_noncoding_noncoding_noncoding_4-chord" id="img-00c65792-4">
      <g fill="#4C404B" font-size="2.82" font-family="'PT Sans','Helvetica Neue','Helvetica',sans-serif" id="img-00c65792-5">
        <g transform="translate(70.2,34.76)" id="img-00c65792-6">
          <g class="primitive">
            <text dy="0.35em">noncoding_noncoding_noncoding_noncoding_4-chord</text>
          </g>
        </g>
      </g>
      <g fill-opacity="1" fill="#00BFFF" stroke="#FFFFFF" id="img-00c65792-7">
        <g transform="translate(68.29,34.76)" id="img-00c65792-8">
          <path d="M-0.91,-0.91 L 0.91 -0.91 0.91 0.91 -0.91 0.91 z" class="primitive"/>
        </g>
      </g>
    </g>
    <g fill="#362A35" font-size="3.88" font-family="'PT Sans','Helvetica Neue','Helvetica',sans-serif" stroke="#000000" stroke-opacity="0.000" id="img-00c65792-9">
      <g transform="translate(67.39,30.94)" id="img-00c65792-10">
        <g class="primitive">
          <text dy="-0em">graphlet</text>
        </g>
      </g>
    </g>
  </g>
  <g clip-path="url(#img-00c65792-11)">
    <g id="img-00c65792-12">
      <g pointer-events="visible" stroke-width="0.3" fill="#000000" fill-opacity="0.000" stroke="#000000" stroke-opacity="0.000" class="guide background" id="img-00c65792-13">
        <g transform="translate(42.17,32.94)" id="img-00c65792-14">
          <path d="M-24.21,-27.94 L 24.21 -27.94 24.21 27.94 -24.21 27.94 z" class="primitive"/>
        </g>
      </g>
      <g class="guide ygridlines xfixed" stroke-dasharray="0.5,0.5" stroke-width="0.2" stroke="#D0D0E0" id="img-00c65792-15">
        <g transform="translate(42.17,58.89)" id="img-00c65792-16">
          <path fill="none" d="M-24.21,0 L 24.21 0" class="primitive"/>
        </g>
        <g transform="translate(42.17,45.92)" id="img-00c65792-17">
          <path fill="none" d="M-24.21,0 L 24.21 0" class="primitive"/>
        </g>
        <g transform="translate(42.17,32.94)" id="img-00c65792-18">
          <path fill="none" d="M-24.21,0 L 24.21 0" class="primitive"/>
        </g>
        <g transform="translate(42.17,19.97)" id="img-00c65792-19">
          <path fill="none" d="M-24.21,0 L 24.21 0" class="primitive"/>
        </g>
        <g transform="translate(42.17,7)" id="img-00c65792-20">
          <path fill="none" d="M-24.21,0 L 24.21 0" class="primitive"/>
        </g>
      </g>
      <g class="guide xgridlines yfixed" stroke-dasharray="0.5,0.5" stroke-width="0.2" stroke="#D0D0E0" id="img-00c65792-21">
        <g transform="translate(19.96,32.94)" id="img-00c65792-22">
          <path fill="none" d="M0,-27.94 L 0 27.94" class="primitive"/>
        </g>
        <g transform="translate(31.07,32.94)" id="img-00c65792-23">
          <path fill="none" d="M0,-27.94 L 0 27.94" class="primitive"/>
        </g>
        <g transform="translate(42.17,32.94)" id="img-00c65792-24">
          <path fill="none" d="M0,-27.94 L 0 27.94" class="primitive"/>
        </g>
        <g transform="translate(53.28,32.94)" id="img-00c65792-25">
          <path fill="none" d="M0,-27.94 L 0 27.94" class="primitive"/>
        </g>
        <g transform="translate(64.39,32.94)" id="img-00c65792-26">
          <path fill="none" d="M0,-27.94 L 0 27.94" class="primitive"/>
        </g>
      </g>
      <g class="plotpanel" id="img-00c65792-27">
        <metadata>
          <boundingbox value="17.95833333333333mm 5.0mm 48.428333333333335mm 55.88666666666667mm"/>
          <unitbox value="-360.1305473234048 41.54182191956829 8720.26109464681 -43.083643839136585"/>
        </metadata>
        <g shape-rendering="crispEdges" stroke-width="0.3" id="img-00c65792-28">
          <g stroke="#000000" stroke-opacity="0.000" class="geometry" id="img-00c65792-29">
            <g fill="#00BFFF" id="img-00c65792-30">
              <g transform="translate(31.27,58.24)" id="img-00c65792-31">
                <path d="M-0.18,-0.65 L 0.18 -0.65 0.18 0.65 -0.18 0.65 z" class="primitive"/>
              </g>
              <g transform="translate(31.57,58.89)" id="img-00c65792-32">
                <path d="M-0.18,-0 L 0.18 -0 0.18 0 -0.18 0 z" class="primitive"/>
              </g>
              <g transform="translate(31.87,58.89)" id="img-00c65792-33">
                <path d="M-0.18,-0 L 0.18 -0 0.18 0 -0.18 0 z" class="primitive"/>
              </g>
              <g transform="translate(32.17,58.24)" id="img-00c65792-34">
                <path d="M-0.18,-0.65 L 0.18 -0.65 0.18 0.65 -0.18 0.65 z" class="primitive"/>
              </g>
              <g transform="translate(32.47,58.89)" id="img-00c65792-35">
                <path d="M-0.18,-0 L 0.18 -0 0.18 0 -0.18 0 z" class="primitive"/>
              </g>
              <g transform="translate(32.77,58.24)" id="img-00c65792-36">
                <path d="M-0.18,-0.65 L 0.18 -0.65 0.18 0.65 -0.18 0.65 z" class="primitive"/>
              </g>
              <g transform="translate(33.07,58.24)" id="img-00c65792-37">
                <path d="M-0.18,-0.65 L 0.18 -0.65 0.18 0.65 -0.18 0.65 z" class="primitive"/>
              </g>
              <g transform="translate(33.37,57.59)" id="img-00c65792-38">
                <path d="M-0.18,-1.3 L 0.18 -1.3 0.18 1.3 -0.18 1.3 z" class="primitive"/>
              </g>
              <g transform="translate(33.67,58.24)" id="img-00c65792-39">
                <path d="M-0.18,-0.65 L 0.18 -0.65 0.18 0.65 -0.18 0.65 z" class="primitive"/>
              </g>
              <g transform="translate(33.98,58.89)" id="img-00c65792-40">
                <path d="M-0.18,-0 L 0.18 -0 0.18 0 -0.18 0 z" class="primitive"/>
              </g>
              <g transform="translate(34.28,55.64)" id="img-00c65792-41">
                <path d="M-0.18,-3.24 L 0.18 -3.24 0.18 3.24 -0.18 3.24 z" class="primitive"/>
              </g>
              <g transform="translate(34.58,56.29)" id="img-00c65792-42">
                <path d="M-0.18,-2.59 L 0.18 -2.59 0.18 2.59 -0.18 2.59 z" class="primitive"/>
              </g>
              <g transform="translate(34.88,56.29)" id="img-00c65792-43">
                <path d="M-0.18,-2.59 L 0.18 -2.59 0.18 2.59 -0.18 2.59 z" class="primitive"/>
              </g>
              <g transform="translate(35.18,57.59)" id="img-00c65792-44">
                <path d="M-0.18,-1.3 L 0.18 -1.3 0.18 1.3 -0.18 1.3 z" class="primitive"/>
              </g>
              <g transform="translate(35.48,54.35)" id="img-00c65792-45">
                <path d="M-0.18,-4.54 L 0.18 -4.54 0.18 4.54 -0.18 4.54 z" class="primitive"/>
              </g>
              <g transform="translate(35.78,55.64)" id="img-00c65792-46">
                <path d="M-0.18,-3.24 L 0.18 -3.24 0.18 3.24 -0.18 3.24 z" class="primitive"/>
              </g>
              <g transform="translate(36.08,55.64)" id="img-00c65792-47">
                <path d="M-0.18,-3.24 L 0.18 -3.24 0.18 3.24 -0.18 3.24 z" class="primitive"/>
              </g>
              <g transform="translate(36.38,55.64)" id="img-00c65792-48">
                <path d="M-0.18,-3.24 L 0.18 -3.24 0.18 3.24 -0.18 3.24 z" class="primitive"/>
              </g>
              <g transform="translate(36.68,51.1)" id="img-00c65792-49">
                <path d="M-0.18,-7.78 L 0.18 -7.78 0.18 7.78 -0.18 7.78 z" class="primitive"/>
              </g>
              <g transform="translate(36.99,53.05)" id="img-00c65792-50">
                <path d="M-0.18,-5.84 L 0.18 -5.84 0.18 5.84 -0.18 5.84 z" class="primitive"/>
              </g>
              <g transform="translate(37.29,53.7)" id="img-00c65792-51">
                <path d="M-0.18,-5.19 L 0.18 -5.19 0.18 5.19 -0.18 5.19 z" class="primitive"/>
              </g>
              <g transform="translate(37.59,51.1)" id="img-00c65792-52">
                <path d="M-0.18,-7.78 L 0.18 -7.78 0.18 7.78 -0.18 7.78 z" class="primitive"/>
              </g>
              <g transform="translate(37.89,53.05)" id="img-00c65792-53">
                <path d="M-0.18,-5.84 L 0.18 -5.84 0.18 5.84 -0.18 5.84 z" class="primitive"/>
              </g>
              <g transform="translate(38.19,53.7)" id="img-00c65792-54">
                <path d="M-0.18,-5.19 L 0.18 -5.19 0.18 5.19 -0.18 5.19 z" class="primitive"/>
              </g>
              <g transform="translate(38.49,54.35)" id="img-00c65792-55">
                <path d="M-0.18,-4.54 L 0.18 -4.54 0.18 4.54 -0.18 4.54 z" class="primitive"/>
              </g>
              <g transform="translate(38.79,55.64)" id="img-00c65792-56">
                <path d="M-0.18,-3.24 L 0.18 -3.24 0.18 3.24 -0.18 3.24 z" class="primitive"/>
              </g>
              <g transform="translate(39.09,45.92)" id="img-00c65792-57">
                <path d="M-0.18,-12.97 L 0.18 -12.97 0.18 12.97 -0.18 12.97 z" class="primitive"/>
              </g>
              <g transform="translate(39.39,46.56)" id="img-00c65792-58">
                <path d="M-0.18,-12.32 L 0.18 -12.32 0.18 12.32 -0.18 12.32 z" class="primitive"/>
              </g>
              <g transform="translate(39.7,45.92)" id="img-00c65792-59">
                <path d="M-0.18,-12.97 L 0.18 -12.97 0.18 12.97 -0.18 12.97 z" class="primitive"/>
              </g>
              <g transform="translate(40,47.86)" id="img-00c65792-60">
                <path d="M-0.18,-11.03 L 0.18 -11.03 0.18 11.03 -0.18 11.03 z" class="primitive"/>
              </g>
              <g transform="translate(40.3,44.62)" id="img-00c65792-61">
                <path d="M-0.18,-14.27 L 0.18 -14.27 0.18 14.27 -0.18 14.27 z" class="primitive"/>
              </g>
              <g transform="translate(40.6,46.56)" id="img-00c65792-62">
                <path d="M-0.18,-12.32 L 0.18 -12.32 0.18 12.32 -0.18 12.32 z" class="primitive"/>
              </g>
              <g transform="translate(40.9,45.92)" id="img-00c65792-63">
                <path d="M-0.18,-12.97 L 0.18 -12.97 0.18 12.97 -0.18 12.97 z" class="primitive"/>
              </g>
              <g transform="translate(41.2,48.51)" id="img-00c65792-64">
                <path d="M-0.18,-10.38 L 0.18 -10.38 0.18 10.38 -0.18 10.38 z" class="primitive"/>
              </g>
              <g transform="translate(41.5,41.37)" id="img-00c65792-65">
                <path d="M-0.18,-17.51 L 0.18 -17.51 0.18 17.51 -0.18 17.51 z" class="primitive"/>
              </g>
              <g transform="translate(41.8,44.62)" id="img-00c65792-66">
                <path d="M-0.18,-14.27 L 0.18 -14.27 0.18 14.27 -0.18 14.27 z" class="primitive"/>
              </g>
              <g transform="translate(42.1,46.56)" id="img-00c65792-67">
                <path d="M-0.18,-12.32 L 0.18 -12.32 0.18 12.32 -0.18 12.32 z" class="primitive"/>
              </g>
              <g transform="translate(42.41,48.51)" id="img-00c65792-68">
                <path d="M-0.18,-10.38 L 0.18 -10.38 0.18 10.38 -0.18 10.38 z" class="primitive"/>
              </g>
              <g transform="translate(42.71,43.32)" id="img-00c65792-69">
                <path d="M-0.18,-15.57 L 0.18 -15.57 0.18 15.57 -0.18 15.57 z" class="primitive"/>
              </g>
              <g transform="translate(43.01,39.43)" id="img-00c65792-70">
                <path d="M-0.18,-19.46 L 0.18 -19.46 0.18 19.46 -0.18 19.46 z" class="primitive"/>
              </g>
              <g transform="translate(43.31,37.48)" id="img-00c65792-71">
                <path d="M-0.18,-21.4 L 0.18 -21.4 0.18 21.4 -0.18 21.4 z" class="primitive"/>
              </g>
              <g transform="translate(43.61,45.92)" id="img-00c65792-72">
                <path d="M-0.18,-12.97 L 0.18 -12.97 0.18 12.97 -0.18 12.97 z" class="primitive"/>
              </g>
              <g transform="translate(43.91,41.37)" id="img-00c65792-73">
                <path d="M-0.18,-17.51 L 0.18 -17.51 0.18 17.51 -0.18 17.51 z" class="primitive"/>
              </g>
              <g transform="translate(44.21,40.73)" id="img-00c65792-74">
                <path d="M-0.18,-18.16 L 0.18 -18.16 0.18 18.16 -0.18 18.16 z" class="primitive"/>
              </g>
              <g transform="translate(44.51,41.37)" id="img-00c65792-75">
                <path d="M-0.18,-17.51 L 0.18 -17.51 0.18 17.51 -0.18 17.51 z" class="primitive"/>
              </g>
              <g transform="translate(44.81,36.19)" id="img-00c65792-76">
                <path d="M-0.18,-22.7 L 0.18 -22.7 0.18 22.7 -0.18 22.7 z" class="primitive"/>
              </g>
              <g transform="translate(45.11,40.08)" id="img-00c65792-77">
                <path d="M-0.18,-18.81 L 0.18 -18.81 0.18 18.81 -0.18 18.81 z" class="primitive"/>
              </g>
              <g transform="translate(45.42,41.37)" id="img-00c65792-78">
                <path d="M-0.18,-17.51 L 0.18 -17.51 0.18 17.51 -0.18 17.51 z" class="primitive"/>
              </g>
              <g transform="translate(45.72,42.67)" id="img-00c65792-79">
                <path d="M-0.18,-16.21 L 0.18 -16.21 0.18 16.21 -0.18 16.21 z" class="primitive"/>
              </g>
              <g transform="translate(46.02,43.97)" id="img-00c65792-80">
                <path d="M-0.18,-14.92 L 0.18 -14.92 0.18 14.92 -0.18 14.92 z" class="primitive"/>
              </g>
              <g transform="translate(46.32,46.56)" id="img-00c65792-81">
                <path d="M-0.18,-12.32 L 0.18 -12.32 0.18 12.32 -0.18 12.32 z" class="primitive"/>
              </g>
              <g transform="translate(46.62,49.81)" id="img-00c65792-82">
                <path d="M-0.18,-9.08 L 0.18 -9.08 0.18 9.08 -0.18 9.08 z" class="primitive"/>
              </g>
              <g transform="translate(46.92,51.1)" id="img-00c65792-83">
                <path d="M-0.18,-7.78 L 0.18 -7.78 0.18 7.78 -0.18 7.78 z" class="primitive"/>
              </g>
              <g transform="translate(47.22,43.97)" id="img-00c65792-84">
                <path d="M-0.18,-14.92 L 0.18 -14.92 0.18 14.92 -0.18 14.92 z" class="primitive"/>
              </g>
              <g transform="translate(47.52,46.56)" id="img-00c65792-85">
                <path d="M-0.18,-12.32 L 0.18 -12.32 0.18 12.32 -0.18 12.32 z" class="primitive"/>
              </g>
              <g transform="translate(47.82,54.35)" id="img-00c65792-86">
                <path d="M-0.18,-4.54 L 0.18 -4.54 0.18 4.54 -0.18 4.54 z" class="primitive"/>
              </g>
              <g transform="translate(48.13,45.92)" id="img-00c65792-87">
                <path d="M-0.18,-12.97 L 0.18 -12.97 0.18 12.97 -0.18 12.97 z" class="primitive"/>
              </g>
              <g transform="translate(48.43,50.46)" id="img-00c65792-88">
                <path d="M-0.18,-8.43 L 0.18 -8.43 0.18 8.43 -0.18 8.43 z" class="primitive"/>
              </g>
              <g transform="translate(48.73,49.81)" id="img-00c65792-89">
                <path d="M-0.18,-9.08 L 0.18 -9.08 0.18 9.08 -0.18 9.08 z" class="primitive"/>
              </g>
              <g transform="translate(49.03,45.92)" id="img-00c65792-90">
                <path d="M-0.18,-12.97 L 0.18 -12.97 0.18 12.97 -0.18 12.97 z" class="primitive"/>
              </g>
              <g transform="translate(49.33,54.35)" id="img-00c65792-91">
                <path d="M-0.18,-4.54 L 0.18 -4.54 0.18 4.54 -0.18 4.54 z" class="primitive"/>
              </g>
              <g transform="translate(49.63,49.81)" id="img-00c65792-92">
                <path d="M-0.18,-9.08 L 0.18 -9.08 0.18 9.08 -0.18 9.08 z" class="primitive"/>
              </g>
              <g transform="translate(49.93,56.94)" id="img-00c65792-93">
                <path d="M-0.18,-1.95 L 0.18 -1.95 0.18 1.95 -0.18 1.95 z" class="primitive"/>
              </g>
              <g transform="translate(50.23,53.7)" id="img-00c65792-94">
                <path d="M-0.18,-5.19 L 0.18 -5.19 0.18 5.19 -0.18 5.19 z" class="primitive"/>
              </g>
              <g transform="translate(50.53,53.7)" id="img-00c65792-95">
                <path d="M-0.18,-5.19 L 0.18 -5.19 0.18 5.19 -0.18 5.19 z" class="primitive"/>
              </g>
              <g transform="translate(50.83,51.1)" id="img-00c65792-96">
                <path d="M-0.18,-7.78 L 0.18 -7.78 0.18 7.78 -0.18 7.78 z" class="primitive"/>
              </g>
              <g transform="translate(51.14,53.05)" id="img-00c65792-97">
                <path d="M-0.18,-5.84 L 0.18 -5.84 0.18 5.84 -0.18 5.84 z" class="primitive"/>
              </g>
              <g transform="translate(51.44,52.4)" id="img-00c65792-98">
                <path d="M-0.18,-6.49 L 0.18 -6.49 0.18 6.49 -0.18 6.49 z" class="primitive"/>
              </g>
              <g transform="translate(51.74,53.05)" id="img-00c65792-99">
                <path d="M-0.18,-5.84 L 0.18 -5.84 0.18 5.84 -0.18 5.84 z" class="primitive"/>
              </g>
              <g transform="translate(52.04,53.7)" id="img-00c65792-100">
                <path d="M-0.18,-5.19 L 0.18 -5.19 0.18 5.19 -0.18 5.19 z" class="primitive"/>
              </g>
              <g transform="translate(52.34,56.94)" id="img-00c65792-101">
                <path d="M-0.18,-1.95 L 0.18 -1.95 0.18 1.95 -0.18 1.95 z" class="primitive"/>
              </g>
              <g transform="translate(52.64,55)" id="img-00c65792-102">
                <path d="M-0.18,-3.89 L 0.18 -3.89 0.18 3.89 -0.18 3.89 z" class="primitive"/>
              </g>
              <g transform="translate(52.94,55.64)" id="img-00c65792-103">
                <path d="M-0.18,-3.24 L 0.18 -3.24 0.18 3.24 -0.18 3.24 z" class="primitive"/>
              </g>
              <g transform="translate(53.24,57.59)" id="img-00c65792-104">
                <path d="M-0.18,-1.3 L 0.18 -1.3 0.18 1.3 -0.18 1.3 z" class="primitive"/>
              </g>
              <g transform="translate(53.54,55)" id="img-00c65792-105">
                <path d="M-0.18,-3.89 L 0.18 -3.89 0.18 3.89 -0.18 3.89 z" class="primitive"/>
              </g>
              <g transform="translate(53.85,55)" id="img-00c65792-106">
                <path d="M-0.18,-3.89 L 0.18 -3.89 0.18 3.89 -0.18 3.89 z" class="primitive"/>
              </g>
              <g transform="translate(54.15,55.64)" id="img-00c65792-107">
                <path d="M-0.18,-3.24 L 0.18 -3.24 0.18 3.24 -0.18 3.24 z" class="primitive"/>
              </g>
              <g transform="translate(54.45,55)" id="img-00c65792-108">
                <path d="M-0.18,-3.89 L 0.18 -3.89 0.18 3.89 -0.18 3.89 z" class="primitive"/>
              </g>
              <g transform="translate(54.75,58.24)" id="img-00c65792-109">
                <path d="M-0.18,-0.65 L 0.18 -0.65 0.18 0.65 -0.18 0.65 z" class="primitive"/>
              </g>
              <g transform="translate(55.05,56.94)" id="img-00c65792-110">
                <path d="M-0.18,-1.95 L 0.18 -1.95 0.18 1.95 -0.18 1.95 z" class="primitive"/>
              </g>
              <g transform="translate(55.35,58.24)" id="img-00c65792-111">
                <path d="M-0.18,-0.65 L 0.18 -0.65 0.18 0.65 -0.18 0.65 z" class="primitive"/>
              </g>
              <g transform="translate(55.65,56.29)" id="img-00c65792-112">
                <path d="M-0.18,-2.59 L 0.18 -2.59 0.18 2.59 -0.18 2.59 z" class="primitive"/>
              </g>
              <g transform="translate(55.95,56.94)" id="img-00c65792-113">
                <path d="M-0.18,-1.95 L 0.18 -1.95 0.18 1.95 -0.18 1.95 z" class="primitive"/>
              </g>
              <g transform="translate(56.25,56.94)" id="img-00c65792-114">
                <path d="M-0.18,-1.95 L 0.18 -1.95 0.18 1.95 -0.18 1.95 z" class="primitive"/>
              </g>
              <g transform="translate(56.55,56.94)" id="img-00c65792-115">
                <path d="M-0.18,-1.95 L 0.18 -1.95 0.18 1.95 -0.18 1.95 z" class="primitive"/>
              </g>
              <g transform="translate(56.86,56.29)" id="img-00c65792-116">
                <path d="M-0.18,-2.59 L 0.18 -2.59 0.18 2.59 -0.18 2.59 z" class="primitive"/>
              </g>
              <g transform="translate(57.16,58.89)" id="img-00c65792-117">
                <path d="M-0.18,-0 L 0.18 -0 0.18 0 -0.18 0 z" class="primitive"/>
              </g>
              <g transform="translate(57.46,57.59)" id="img-00c65792-118">
                <path d="M-0.18,-1.3 L 0.18 -1.3 0.18 1.3 -0.18 1.3 z" class="primitive"/>
              </g>
              <g transform="translate(57.76,58.89)" id="img-00c65792-119">
                <path d="M-0.18,-0 L 0.18 -0 0.18 0 -0.18 0 z" class="primitive"/>
              </g>
              <g transform="translate(58.06,57.59)" id="img-00c65792-120">
                <path d="M-0.18,-1.3 L 0.18 -1.3 0.18 1.3 -0.18 1.3 z" class="primitive"/>
              </g>
              <g transform="translate(58.36,57.59)" id="img-00c65792-121">
                <path d="M-0.18,-1.3 L 0.18 -1.3 0.18 1.3 -0.18 1.3 z" class="primitive"/>
              </g>
              <g transform="translate(58.66,58.89)" id="img-00c65792-122">
                <path d="M-0.18,-0 L 0.18 -0 0.18 0 -0.18 0 z" class="primitive"/>
              </g>
              <g transform="translate(58.96,58.24)" id="img-00c65792-123">
                <path d="M-0.18,-0.65 L 0.18 -0.65 0.18 0.65 -0.18 0.65 z" class="primitive"/>
              </g>
              <g transform="translate(59.26,58.89)" id="img-00c65792-124">
                <path d="M-0.18,-0 L 0.18 -0 0.18 0 -0.18 0 z" class="primitive"/>
              </g>
              <g transform="translate(59.57,58.89)" id="img-00c65792-125">
                <path d="M-0.18,-0 L 0.18 -0 0.18 0 -0.18 0 z" class="primitive"/>
              </g>
              <g transform="translate(59.87,58.24)" id="img-00c65792-126">
                <path d="M-0.18,-0.65 L 0.18 -0.65 0.18 0.65 -0.18 0.65 z" class="primitive"/>
              </g>
              <g transform="translate(60.17,58.89)" id="img-00c65792-127">
                <path d="M-0.18,-0 L 0.18 -0 0.18 0 -0.18 0 z" class="primitive"/>
              </g>
              <g transform="translate(60.47,58.24)" id="img-00c65792-128">
                <path d="M-0.18,-0.65 L 0.18 -0.65 0.18 0.65 -0.18 0.65 z" class="primitive"/>
              </g>
              <g transform="translate(60.77,58.89)" id="img-00c65792-129">
                <path d="M-0.18,-0 L 0.18 -0 0.18 0 -0.18 0 z" class="primitive"/>
              </g>
              <g transform="translate(61.07,57.59)" id="img-00c65792-130">
                <path d="M-0.18,-1.3 L 0.18 -1.3 0.18 1.3 -0.18 1.3 z" class="primitive"/>
              </g>
            </g>
          </g>
        </g>
      </g>
    </g>
  </g>
  <g class="guide ylabels" font-size="2.82" font-family="'PT Sans Caption','Helvetica Neue','Helvetica',sans-serif" fill="#6C606B" id="img-00c65792-131">
    <g transform="translate(16.96,58.89)" id="img-00c65792-132">
      <g class="primitive">
        <text text-anchor="end" dy="0.35em">0</text>
      </g>
    </g>
    <g transform="translate(16.96,45.92)" id="img-00c65792-133">
      <g class="primitive">
        <text text-anchor="end" dy="0.35em">10</text>
      </g>
    </g>
    <g transform="translate(16.96,32.94)" id="img-00c65792-134">
      <g class="primitive">
        <text text-anchor="end" dy="0.35em">20</text>
      </g>
    </g>
    <g transform="translate(16.96,19.97)" id="img-00c65792-135">
      <g class="primitive">
        <text text-anchor="end" dy="0.35em">30</text>
      </g>
    </g>
    <g transform="translate(16.96,7)" id="img-00c65792-136">
      <g class="primitive">
        <text text-anchor="end" dy="0.35em">40</text>
      </g>
    </g>
  </g>
  <g font-size="3.88" font-family="'PT Sans','Helvetica Neue','Helvetica',sans-serif" fill="#564A55" stroke="#000000" stroke-opacity="0.000" id="img-00c65792-137">
    <g transform="translate(8.81,30.94)" id="img-00c65792-138">
      <g class="primitive">
        <text text-anchor="middle" dy="0.35em" transform="rotate(-90,0, 2)">frequency</text>
      </g>
    </g>
  </g>
</g>
<defs>
  <clipPath id="img-00c65792-11">
    <path d="M17.96,5 L 66.39 5 66.39 60.89 17.96 60.89" />
  </clipPath>
</defs>
</svg>
