<?xml version="1.0" encoding="UTF-8"?>
<svg xmlns="http://www.w3.org/2000/svg"
     xmlns:xlink="http://www.w3.org/1999/xlink"
     xmlns:gadfly="http://www.gadflyjl.org/ns"
     version="1.2"
     width="141.42mm" height="100mm" viewBox="0 0 141.42 100"
     stroke="none"
     fill="#000000"
     stroke-width="0.3"
     font-size="3.88"
>
<defs>
  <marker id="arrow" markerWidth="15" markerHeight="7" refX="5" refY="3.5" orient="auto" markerUnits="strokeWidth">
    <path d="M0,0 L15,3.5 L0,7 z" stroke="context-stroke" fill="context-stroke"/>
  </marker>
</defs>
<g class="plotroot xscalable yscalable" id="img-726f48f3-1">
  <g class="guide xlabels" font-size="2.82" font-family="'PT Sans Caption','Helvetica Neue','Helvetica',sans-serif" fill="#6C606B" id="img-726f48f3-2">
    <g transform="translate(19.96,81.89)">
      <g class="primitive">
        <text text-anchor="end" dy="0.35em" transform="rotate(-90,0, 0)">7.0×10⁴</text>
      </g>
    </g>
    <g transform="translate(33.14,81.89)">
      <g class="primitive">
        <text text-anchor="end" dy="0.35em" transform="rotate(-90,0, 0)">8.0×10⁴</text>
      </g>
    </g>
    <g transform="translate(46.33,81.89)">
      <g class="primitive">
        <text text-anchor="end" dy="0.35em" transform="rotate(-90,0, 0)">9.0×10⁴</text>
      </g>
    </g>
    <g transform="translate(59.52,81.89)">
      <g class="primitive">
        <text text-anchor="end" dy="0.35em" transform="rotate(-90,0, 0)">1.0×10⁵</text>
      </g>
    </g>
    <g transform="translate(72.7,81.89)">
      <g class="primitive">
        <text text-anchor="end" dy="0.35em" transform="rotate(-90,0, 0)">1.1×10⁵</text>
      </g>
    </g>
  </g>
  <g class="guide colorkey" id="img-726f48f3-3">
    <g class="color_noncoding_noncoding_coding_noncoding_4-star" id="img-726f48f3-4">
      <g fill="#4C404B" font-size="2.82" font-family="'PT Sans','Helvetica Neue','Helvetica',sans-serif" id="img-726f48f3-5">
        <g transform="translate(78.51,44.76)" id="img-726f48f3-6">
          <g class="primitive">
            <text dy="0.35em">noncoding_noncoding_coding_noncoding_4-star</text>
          </g>
        </g>
      </g>
      <g fill-opacity="1" fill="#00BFFF" stroke="#FFFFFF" id="img-726f48f3-7">
        <g transform="translate(76.61,44.76)" id="img-726f48f3-8">
          <path d="M-0.91,-0.91 L 0.91 -0.91 0.91 0.91 -0.91 0.91 z" class="primitive"/>
        </g>
      </g>
    </g>
    <g fill="#362A35" font-size="3.88" font-family="'PT Sans','Helvetica Neue','Helvetica',sans-serif" stroke="#000000" stroke-opacity="0.000" id="img-726f48f3-9">
      <g transform="translate(75.7,40.94)" id="img-726f48f3-10">
        <g class="primitive">
          <text dy="-0em">graphlet</text>
        </g>
      </g>
    </g>
  </g>
  <g clip-path="url(#img-726f48f3-11)">
    <g id="img-726f48f3-12">
      <g pointer-events="visible" stroke-width="0.3" fill="#000000" fill-opacity="0.000" stroke="#000000" stroke-opacity="0.000" class="guide background" id="img-726f48f3-13">
        <g transform="translate(46.33,42.94)" id="img-726f48f3-14">
          <path d="M-28.37,-37.94 L 28.37 -37.94 28.37 37.94 -28.37 37.94 z" class="primitive"/>
        </g>
      </g>
      <g class="guide ygridlines xfixed" stroke-dasharray="0.5,0.5" stroke-width="0.2" stroke="#D0D0E0" id="img-726f48f3-15">
        <g transform="translate(46.33,78.89)" id="img-726f48f3-16">
          <path fill="none" d="M-28.37,0 L 28.37 0" class="primitive"/>
        </g>
        <g transform="translate(46.33,64.51)" id="img-726f48f3-17">
          <path fill="none" d="M-28.37,0 L 28.37 0" class="primitive"/>
        </g>
        <g transform="translate(46.33,50.13)" id="img-726f48f3-18">
          <path fill="none" d="M-28.37,0 L 28.37 0" class="primitive"/>
        </g>
        <g transform="translate(46.33,35.75)" id="img-726f48f3-19">
          <path fill="none" d="M-28.37,0 L 28.37 0" class="primitive"/>
        </g>
        <g transform="translate(46.33,21.38)" id="img-726f48f3-20">
          <path fill="none" d="M-28.37,0 L 28.37 0" class="primitive"/>
        </g>
        <g transform="translate(46.33,7)" id="img-726f48f3-21">
          <path fill="none" d="M-28.37,0 L 28.37 0" class="primitive"/>
        </g>
      </g>
      <g class="guide xgridlines yfixed" stroke-dasharray="0.5,0.5" stroke-width="0.2" stroke="#D0D0E0" id="img-726f48f3-22">
        <g transform="translate(19.96,42.94)" id="img-726f48f3-23">
          <path fill="none" d="M0,-37.94 L 0 37.94" class="primitive"/>
        </g>
        <g transform="translate(33.14,42.94)" id="img-726f48f3-24">
          <path fill="none" d="M0,-37.94 L 0 37.94" class="primitive"/>
        </g>
        <g transform="translate(46.33,42.94)" id="img-726f48f3-25">
          <path fill="none" d="M0,-37.94 L 0 37.94" class="primitive"/>
        </g>
        <g transform="translate(59.52,42.94)" id="img-726f48f3-26">
          <path fill="none" d="M0,-37.94 L 0 37.94" class="primitive"/>
        </g>
        <g transform="translate(72.7,42.94)" id="img-726f48f3-27">
          <path fill="none" d="M0,-37.94 L 0 37.94" class="primitive"/>
        </g>
      </g>
      <g class="plotpanel" id="img-726f48f3-28">
        <metadata>
          <boundingbox value="17.958333333333336mm 5.0mm 56.743022903976176mm 75.88666666666667mm"/>
          <unitbox value="68483.21170089838 51.39107854956877 43033.576598203246 -52.78215709913753"/>
        </metadata>
        <g shape-rendering="crispEdges" stroke-width="0.3" id="img-726f48f3-29">
          <g stroke="#000000" stroke-opacity="0.000" class="geometry" id="img-726f48f3-30">
            <g fill="#00BFFF" id="img-726f48f3-31">
              <g transform="translate(21.06,78.17)" id="img-726f48f3-32">
                <path d="M-0.28,-0.72 L 0.28 -0.72 0.28 0.72 -0.28 0.72 z" class="primitive"/>
              </g>
              <g transform="translate(21.56,78.89)" id="img-726f48f3-33">
                <path d="M-0.28,-0 L 0.28 -0 0.28 0 -0.28 0 z" class="primitive"/>
              </g>
              <g transform="translate(22.06,78.89)" id="img-726f48f3-34">
                <path d="M-0.28,-0 L 0.28 -0 0.28 0 -0.28 0 z" class="primitive"/>
              </g>
              <g transform="translate(22.56,78.89)" id="img-726f48f3-35">
                <path d="M-0.28,-0 L 0.28 -0 0.28 0 -0.28 0 z" class="primitive"/>
              </g>
              <g transform="translate(23.06,76.73)" id="img-726f48f3-36">
                <path d="M-0.28,-2.16 L 0.28 -2.16 0.28 2.16 -0.28 2.16 z" class="primitive"/>
              </g>
              <g transform="translate(23.56,78.17)" id="img-726f48f3-37">
                <path d="M-0.28,-0.72 L 0.28 -0.72 0.28 0.72 -0.28 0.72 z" class="primitive"/>
              </g>
              <g transform="translate(24.07,76.73)" id="img-726f48f3-38">
                <path d="M-0.28,-2.16 L 0.28 -2.16 0.28 2.16 -0.28 2.16 z" class="primitive"/>
              </g>
              <g transform="translate(24.57,77.45)" id="img-726f48f3-39">
                <path d="M-0.28,-1.44 L 0.28 -1.44 0.28 1.44 -0.28 1.44 z" class="primitive"/>
              </g>
              <g transform="translate(25.07,76.01)" id="img-726f48f3-40">
                <path d="M-0.28,-2.88 L 0.28 -2.88 0.28 2.88 -0.28 2.88 z" class="primitive"/>
              </g>
              <g transform="translate(25.57,77.45)" id="img-726f48f3-41">
                <path d="M-0.28,-1.44 L 0.28 -1.44 0.28 1.44 -0.28 1.44 z" class="primitive"/>
              </g>
              <g transform="translate(26.07,75.29)" id="img-726f48f3-42">
                <path d="M-0.28,-3.59 L 0.28 -3.59 0.28 3.59 -0.28 3.59 z" class="primitive"/>
              </g>
              <g transform="translate(26.57,77.45)" id="img-726f48f3-43">
                <path d="M-0.28,-1.44 L 0.28 -1.44 0.28 1.44 -0.28 1.44 z" class="primitive"/>
              </g>
              <g transform="translate(27.08,76.01)" id="img-726f48f3-44">
                <path d="M-0.28,-2.88 L 0.28 -2.88 0.28 2.88 -0.28 2.88 z" class="primitive"/>
              </g>
              <g transform="translate(27.58,75.29)" id="img-726f48f3-45">
                <path d="M-0.28,-3.59 L 0.28 -3.59 0.28 3.59 -0.28 3.59 z" class="primitive"/>
              </g>
              <g transform="translate(28.08,75.29)" id="img-726f48f3-46">
                <path d="M-0.28,-3.59 L 0.28 -3.59 0.28 3.59 -0.28 3.59 z" class="primitive"/>
              </g>
              <g transform="translate(28.58,71.7)" id="img-726f48f3-47">
                <path d="M-0.28,-7.19 L 0.28 -7.19 0.28 7.19 -0.28 7.19 z" class="primitive"/>
              </g>
              <g transform="translate(29.08,70.98)" id="img-726f48f3-48">
                <path d="M-0.28,-7.91 L 0.28 -7.91 0.28 7.91 -0.28 7.91 z" class="primitive"/>
              </g>
              <g transform="translate(29.58,76.01)" id="img-726f48f3-49">
                <path d="M-0.28,-2.88 L 0.28 -2.88 0.28 2.88 -0.28 2.88 z" class="primitive"/>
              </g>
              <g transform="translate(30.09,73.14)" id="img-726f48f3-50">
                <path d="M-0.28,-5.75 L 0.28 -5.75 0.28 5.75 -0.28 5.75 z" class="primitive"/>
              </g>
              <g transform="translate(30.59,73.14)" id="img-726f48f3-51">
                <path d="M-0.28,-5.75 L 0.28 -5.75 0.28 5.75 -0.28 5.75 z" class="primitive"/>
              </g>
              <g transform="translate(31.09,66.67)" id="img-726f48f3-52">
                <path d="M-0.28,-12.22 L 0.28 -12.22 0.28 12.22 -0.28 12.22 z" class="primitive"/>
              </g>
              <g transform="translate(31.59,70.98)" id="img-726f48f3-53">
                <path d="M-0.28,-7.91 L 0.28 -7.91 0.28 7.91 -0.28 7.91 z" class="primitive"/>
              </g>
              <g transform="translate(32.09,68.82)" id="img-726f48f3-54">
                <path d="M-0.28,-10.06 L 0.28 -10.06 0.28 10.06 -0.28 10.06 z" class="primitive"/>
              </g>
              <g transform="translate(32.59,70.26)" id="img-726f48f3-55">
                <path d="M-0.28,-8.63 L 0.28 -8.63 0.28 8.63 -0.28 8.63 z" class="primitive"/>
              </g>
              <g transform="translate(33.1,67.38)" id="img-726f48f3-56">
                <path d="M-0.28,-11.5 L 0.28 -11.5 0.28 11.5 -0.28 11.5 z" class="primitive"/>
              </g>
              <g transform="translate(33.6,67.38)" id="img-726f48f3-57">
                <path d="M-0.28,-11.5 L 0.28 -11.5 0.28 11.5 -0.28 11.5 z" class="primitive"/>
              </g>
              <g transform="translate(34.1,65.95)" id="img-726f48f3-58">
                <path d="M-0.28,-12.94 L 0.28 -12.94 0.28 12.94 -0.28 12.94 z" class="primitive"/>
              </g>
              <g transform="translate(34.6,68.82)" id="img-726f48f3-59">
                <path d="M-0.28,-10.06 L 0.28 -10.06 0.28 10.06 -0.28 10.06 z" class="primitive"/>
              </g>
              <g transform="translate(35.1,63.79)" id="img-726f48f3-60">
                <path d="M-0.28,-15.1 L 0.28 -15.1 0.28 15.1 -0.28 15.1 z" class="primitive"/>
              </g>
              <g transform="translate(35.6,60.2)" id="img-726f48f3-61">
                <path d="M-0.28,-18.69 L 0.28 -18.69 0.28 18.69 -0.28 18.69 z" class="primitive"/>
              </g>
              <g transform="translate(36.1,65.95)" id="img-726f48f3-62">
                <path d="M-0.28,-12.94 L 0.28 -12.94 0.28 12.94 -0.28 12.94 z" class="primitive"/>
              </g>
              <g transform="translate(36.61,62.35)" id="img-726f48f3-63">
                <path d="M-0.28,-16.53 L 0.28 -16.53 0.28 16.53 -0.28 16.53 z" class="primitive"/>
              </g>
              <g transform="translate(37.11,57.32)" id="img-726f48f3-64">
                <path d="M-0.28,-21.57 L 0.28 -21.57 0.28 21.57 -0.28 21.57 z" class="primitive"/>
              </g>
              <g transform="translate(37.61,61.63)" id="img-726f48f3-65">
                <path d="M-0.28,-17.25 L 0.28 -17.25 0.28 17.25 -0.28 17.25 z" class="primitive"/>
              </g>
              <g transform="translate(38.11,59.48)" id="img-726f48f3-66">
                <path d="M-0.28,-19.41 L 0.28 -19.41 0.28 19.41 -0.28 19.41 z" class="primitive"/>
              </g>
              <g transform="translate(38.61,65.23)" id="img-726f48f3-67">
                <path d="M-0.28,-13.66 L 0.28 -13.66 0.28 13.66 -0.28 13.66 z" class="primitive"/>
              </g>
              <g transform="translate(39.11,58.04)" id="img-726f48f3-68">
                <path d="M-0.28,-20.85 L 0.28 -20.85 0.28 20.85 -0.28 20.85 z" class="primitive"/>
              </g>
              <g transform="translate(39.62,56.6)" id="img-726f48f3-69">
                <path d="M-0.28,-22.28 L 0.28 -22.28 0.28 22.28 -0.28 22.28 z" class="primitive"/>
              </g>
              <g transform="translate(40.12,57.32)" id="img-726f48f3-70">
                <path d="M-0.28,-21.57 L 0.28 -21.57 0.28 21.57 -0.28 21.57 z" class="primitive"/>
              </g>
              <g transform="translate(40.62,58.76)" id="img-726f48f3-71">
                <path d="M-0.28,-20.13 L 0.28 -20.13 0.28 20.13 -0.28 20.13 z" class="primitive"/>
              </g>
              <g transform="translate(41.12,58.76)" id="img-726f48f3-72">
                <path d="M-0.28,-20.13 L 0.28 -20.13 0.28 20.13 -0.28 20.13 z" class="primitive"/>
              </g>
              <g transform="translate(41.62,62.35)" id="img-726f48f3-73">
                <path d="M-0.28,-16.53 L 0.28 -16.53 0.28 16.53 -0.28 16.53 z" class="primitive"/>
              </g>
              <g transform="translate(42.12,59.48)" id="img-726f48f3-74">
                <path d="M-0.28,-19.41 L 0.28 -19.41 0.28 19.41 -0.28 19.41 z" class="primitive"/>
              </g>
              <g transform="translate(42.63,65.95)" id="img-726f48f3-75">
                <path d="M-0.28,-12.94 L 0.28 -12.94 0.28 12.94 -0.28 12.94 z" class="primitive"/>
              </g>
              <g transform="translate(43.13,60.2)" id="img-726f48f3-76">
                <path d="M-0.28,-18.69 L 0.28 -18.69 0.28 18.69 -0.28 18.69 z" class="primitive"/>
              </g>
              <g transform="translate(43.63,54.45)" id="img-726f48f3-77">
                <path d="M-0.28,-24.44 L 0.28 -24.44 0.28 24.44 -0.28 24.44 z" class="primitive"/>
              </g>
              <g transform="translate(44.13,49.41)" id="img-726f48f3-78">
                <path d="M-0.28,-29.47 L 0.28 -29.47 0.28 29.47 -0.28 29.47 z" class="primitive"/>
              </g>
              <g transform="translate(44.63,59.48)" id="img-726f48f3-79">
                <path d="M-0.28,-19.41 L 0.28 -19.41 0.28 19.41 -0.28 19.41 z" class="primitive"/>
              </g>
              <g transform="translate(45.13,68.1)" id="img-726f48f3-80">
                <path d="M-0.28,-10.78 L 0.28 -10.78 0.28 10.78 -0.28 10.78 z" class="primitive"/>
              </g>
              <g transform="translate(45.64,67.38)" id="img-726f48f3-81">
                <path d="M-0.28,-11.5 L 0.28 -11.5 0.28 11.5 -0.28 11.5 z" class="primitive"/>
              </g>
              <g transform="translate(46.14,59.48)" id="img-726f48f3-82">
                <path d="M-0.28,-19.41 L 0.28 -19.41 0.28 19.41 -0.28 19.41 z" class="primitive"/>
              </g>
              <g transform="translate(46.64,64.51)" id="img-726f48f3-83">
                <path d="M-0.28,-14.38 L 0.28 -14.38 0.28 14.38 -0.28 14.38 z" class="primitive"/>
              </g>
              <g transform="translate(47.14,61.63)" id="img-726f48f3-84">
                <path d="M-0.28,-17.25 L 0.28 -17.25 0.28 17.25 -0.28 17.25 z" class="primitive"/>
              </g>
              <g transform="translate(47.64,64.51)" id="img-726f48f3-85">
                <path d="M-0.28,-14.38 L 0.28 -14.38 0.28 14.38 -0.28 14.38 z" class="primitive"/>
              </g>
              <g transform="translate(48.14,68.82)" id="img-726f48f3-86">
                <path d="M-0.28,-10.06 L 0.28 -10.06 0.28 10.06 -0.28 10.06 z" class="primitive"/>
              </g>
              <g transform="translate(48.64,68.1)" id="img-726f48f3-87">
                <path d="M-0.28,-10.78 L 0.28 -10.78 0.28 10.78 -0.28 10.78 z" class="primitive"/>
              </g>
              <g transform="translate(49.15,69.54)" id="img-726f48f3-88">
                <path d="M-0.28,-9.35 L 0.28 -9.35 0.28 9.35 -0.28 9.35 z" class="primitive"/>
              </g>
              <g transform="translate(49.65,71.7)" id="img-726f48f3-89">
                <path d="M-0.28,-7.19 L 0.28 -7.19 0.28 7.19 -0.28 7.19 z" class="primitive"/>
              </g>
              <g transform="translate(50.15,71.7)" id="img-726f48f3-90">
                <path d="M-0.28,-7.19 L 0.28 -7.19 0.28 7.19 -0.28 7.19 z" class="primitive"/>
              </g>
              <g transform="translate(50.65,71.7)" id="img-726f48f3-91">
                <path d="M-0.28,-7.19 L 0.28 -7.19 0.28 7.19 -0.28 7.19 z" class="primitive"/>
              </g>
              <g transform="translate(51.15,69.54)" id="img-726f48f3-92">
                <path d="M-0.28,-9.35 L 0.28 -9.35 0.28 9.35 -0.28 9.35 z" class="primitive"/>
              </g>
              <g transform="translate(51.65,72.42)" id="img-726f48f3-93">
                <path d="M-0.28,-6.47 L 0.28 -6.47 0.28 6.47 -0.28 6.47 z" class="primitive"/>
              </g>
              <g transform="translate(52.16,73.14)" id="img-726f48f3-94">
                <path d="M-0.28,-5.75 L 0.28 -5.75 0.28 5.75 -0.28 5.75 z" class="primitive"/>
              </g>
              <g transform="translate(52.66,75.29)" id="img-726f48f3-95">
                <path d="M-0.28,-3.59 L 0.28 -3.59 0.28 3.59 -0.28 3.59 z" class="primitive"/>
              </g>
              <g transform="translate(53.16,76.01)" id="img-726f48f3-96">
                <path d="M-0.28,-2.88 L 0.28 -2.88 0.28 2.88 -0.28 2.88 z" class="primitive"/>
              </g>
              <g transform="translate(53.66,77.45)" id="img-726f48f3-97">
                <path d="M-0.28,-1.44 L 0.28 -1.44 0.28 1.44 -0.28 1.44 z" class="primitive"/>
              </g>
              <g transform="translate(54.16,76.73)" id="img-726f48f3-98">
                <path d="M-0.28,-2.16 L 0.28 -2.16 0.28 2.16 -0.28 2.16 z" class="primitive"/>
              </g>
              <g transform="translate(54.66,76.01)" id="img-726f48f3-99">
                <path d="M-0.28,-2.88 L 0.28 -2.88 0.28 2.88 -0.28 2.88 z" class="primitive"/>
              </g>
              <g transform="translate(55.17,76.73)" id="img-726f48f3-100">
                <path d="M-0.28,-2.16 L 0.28 -2.16 0.28 2.16 -0.28 2.16 z" class="primitive"/>
              </g>
              <g transform="translate(55.67,78.17)" id="img-726f48f3-101">
                <path d="M-0.28,-0.72 L 0.28 -0.72 0.28 0.72 -0.28 0.72 z" class="primitive"/>
              </g>
              <g transform="translate(56.17,76.73)" id="img-726f48f3-102">
                <path d="M-0.28,-2.16 L 0.28 -2.16 0.28 2.16 -0.28 2.16 z" class="primitive"/>
              </g>
              <g transform="translate(56.67,78.17)" id="img-726f48f3-103">
                <path d="M-0.28,-0.72 L 0.28 -0.72 0.28 0.72 -0.28 0.72 z" class="primitive"/>
              </g>
              <g transform="translate(57.17,75.29)" id="img-726f48f3-104">
                <path d="M-0.28,-3.59 L 0.28 -3.59 0.28 3.59 -0.28 3.59 z" class="primitive"/>
              </g>
              <g transform="translate(57.67,78.17)" id="img-726f48f3-105">
                <path d="M-0.28,-0.72 L 0.28 -0.72 0.28 0.72 -0.28 0.72 z" class="primitive"/>
              </g>
              <g transform="translate(58.18,75.29)" id="img-726f48f3-106">
                <path d="M-0.28,-3.59 L 0.28 -3.59 0.28 3.59 -0.28 3.59 z" class="primitive"/>
              </g>
              <g transform="translate(58.68,78.89)" id="img-726f48f3-107">
                <path d="M-0.28,-0 L 0.28 -0 0.28 0 -0.28 0 z" class="primitive"/>
              </g>
              <g transform="translate(59.18,76.01)" id="img-726f48f3-108">
                <path d="M-0.28,-2.88 L 0.28 -2.88 0.28 2.88 -0.28 2.88 z" class="primitive"/>
              </g>
              <g transform="translate(59.68,78.89)" id="img-726f48f3-109">
                <path d="M-0.28,-0 L 0.28 -0 0.28 0 -0.28 0 z" class="primitive"/>
              </g>
              <g transform="translate(60.18,78.17)" id="img-726f48f3-110">
                <path d="M-0.28,-0.72 L 0.28 -0.72 0.28 0.72 -0.28 0.72 z" class="primitive"/>
              </g>
              <g transform="translate(60.68,77.45)" id="img-726f48f3-111">
                <path d="M-0.28,-1.44 L 0.28 -1.44 0.28 1.44 -0.28 1.44 z" class="primitive"/>
              </g>
              <g transform="translate(61.18,78.17)" id="img-726f48f3-112">
                <path d="M-0.28,-0.72 L 0.28 -0.72 0.28 0.72 -0.28 0.72 z" class="primitive"/>
              </g>
              <g transform="translate(61.69,78.89)" id="img-726f48f3-113">
                <path d="M-0.28,-0 L 0.28 -0 0.28 0 -0.28 0 z" class="primitive"/>
              </g>
              <g transform="translate(62.19,78.89)" id="img-726f48f3-114">
                <path d="M-0.28,-0 L 0.28 -0 0.28 0 -0.28 0 z" class="primitive"/>
              </g>
              <g transform="translate(62.69,78.89)" id="img-726f48f3-115">
                <path d="M-0.28,-0 L 0.28 -0 0.28 0 -0.28 0 z" class="primitive"/>
              </g>
              <g transform="translate(63.19,78.89)" id="img-726f48f3-116">
                <path d="M-0.28,-0 L 0.28 -0 0.28 0 -0.28 0 z" class="primitive"/>
              </g>
              <g transform="translate(63.69,77.45)" id="img-726f48f3-117">
                <path d="M-0.28,-1.44 L 0.28 -1.44 0.28 1.44 -0.28 1.44 z" class="primitive"/>
              </g>
              <g transform="translate(64.19,78.89)" id="img-726f48f3-118">
                <path d="M-0.28,-0 L 0.28 -0 0.28 0 -0.28 0 z" class="primitive"/>
              </g>
              <g transform="translate(64.7,78.89)" id="img-726f48f3-119">
                <path d="M-0.28,-0 L 0.28 -0 0.28 0 -0.28 0 z" class="primitive"/>
              </g>
              <g transform="translate(65.2,78.89)" id="img-726f48f3-120">
                <path d="M-0.28,-0 L 0.28 -0 0.28 0 -0.28 0 z" class="primitive"/>
              </g>
              <g transform="translate(65.7,78.89)" id="img-726f48f3-121">
                <path d="M-0.28,-0 L 0.28 -0 0.28 0 -0.28 0 z" class="primitive"/>
              </g>
              <g transform="translate(66.2,78.89)" id="img-726f48f3-122">
                <path d="M-0.28,-0 L 0.28 -0 0.28 0 -0.28 0 z" class="primitive"/>
              </g>
              <g transform="translate(66.7,78.17)" id="img-726f48f3-123">
                <path d="M-0.28,-0.72 L 0.28 -0.72 0.28 0.72 -0.28 0.72 z" class="primitive"/>
              </g>
              <g transform="translate(67.2,78.17)" id="img-726f48f3-124">
                <path d="M-0.28,-0.72 L 0.28 -0.72 0.28 0.72 -0.28 0.72 z" class="primitive"/>
              </g>
              <g transform="translate(67.71,78.89)" id="img-726f48f3-125">
                <path d="M-0.28,-0 L 0.28 -0 0.28 0 -0.28 0 z" class="primitive"/>
              </g>
              <g transform="translate(68.21,78.89)" id="img-726f48f3-126">
                <path d="M-0.28,-0 L 0.28 -0 0.28 0 -0.28 0 z" class="primitive"/>
              </g>
              <g transform="translate(68.71,78.89)" id="img-726f48f3-127">
                <path d="M-0.28,-0 L 0.28 -0 0.28 0 -0.28 0 z" class="primitive"/>
              </g>
              <g transform="translate(69.21,78.89)" id="img-726f48f3-128">
                <path d="M-0.28,-0 L 0.28 -0 0.28 0 -0.28 0 z" class="primitive"/>
              </g>
              <g transform="translate(69.71,78.89)" id="img-726f48f3-129">
                <path d="M-0.28,-0 L 0.28 -0 0.28 0 -0.28 0 z" class="primitive"/>
              </g>
              <g transform="translate(70.21,78.89)" id="img-726f48f3-130">
                <path d="M-0.28,-0 L 0.28 -0 0.28 0 -0.28 0 z" class="primitive"/>
              </g>
              <g transform="translate(70.72,78.17)" id="img-726f48f3-131">
                <path d="M-0.28,-0.72 L 0.28 -0.72 0.28 0.72 -0.28 0.72 z" class="primitive"/>
              </g>
            </g>
          </g>
        </g>
      </g>
    </g>
  </g>
  <g class="guide ylabels" font-size="2.82" font-family="'PT Sans Caption','Helvetica Neue','Helvetica',sans-serif" fill="#6C606B" id="img-726f48f3-132">
    <g transform="translate(16.96,78.89)" id="img-726f48f3-133">
      <g class="primitive">
        <text text-anchor="end" dy="0.35em">0</text>
      </g>
    </g>
    <g transform="translate(16.96,64.51)" id="img-726f48f3-134">
      <g class="primitive">
        <text text-anchor="end" dy="0.35em">10</text>
      </g>
    </g>
    <g transform="translate(16.96,50.13)" id="img-726f48f3-135">
      <g class="primitive">
        <text text-anchor="end" dy="0.35em">20</text>
      </g>
    </g>
    <g transform="translate(16.96,35.75)" id="img-726f48f3-136">
      <g class="primitive">
        <text text-anchor="end" dy="0.35em">30</text>
      </g>
    </g>
    <g transform="translate(16.96,21.38)" id="img-726f48f3-137">
      <g class="primitive">
        <text text-anchor="end" dy="0.35em">40</text>
      </g>
    </g>
    <g transform="translate(16.96,7)" id="img-726f48f3-138">
      <g class="primitive">
        <text text-anchor="end" dy="0.35em">50</text>
      </g>
    </g>
  </g>
  <g font-size="3.88" font-family="'PT Sans','Helvetica Neue','Helvetica',sans-serif" fill="#564A55" stroke="#000000" stroke-opacity="0.000" id="img-726f48f3-139">
    <g transform="translate(8.81,40.94)" id="img-726f48f3-140">
      <g class="primitive">
        <text text-anchor="middle" dy="0.35em" transform="rotate(-90,0, 2)">frequency</text>
      </g>
    </g>
  </g>
</g>
<defs>
  <clipPath id="img-726f48f3-11">
    <path d="M17.96,5 L 74.7 5 74.7 80.89 17.96 80.89" />
  </clipPath>
</defs>
</svg>
