<?xml version="1.0" encoding="UTF-8"?>
<svg xmlns="http://www.w3.org/2000/svg"
     xmlns:xlink="http://www.w3.org/1999/xlink"
     xmlns:gadfly="http://www.gadflyjl.org/ns"
     version="1.2"
     width="141.42mm" height="100mm" viewBox="0 0 141.42 100"
     stroke="none"
     fill="#000000"
     stroke-width="0.3"
     font-size="3.88"
>
<defs>
  <marker id="arrow" markerWidth="15" markerHeight="7" refX="5" refY="3.5" orient="auto" markerUnits="strokeWidth">
    <path d="M0,0 L15,3.5 L0,7 z" stroke="context-stroke" fill="context-stroke"/>
  </marker>
</defs>
<g class="plotroot xscalable yscalable" id="img-6bf1a161-1">
  <g class="guide xlabels" font-size="2.82" font-family="'PT Sans Caption','Helvetica Neue','Helvetica',sans-serif" fill="#6C606B" id="img-6bf1a161-2">
    <g transform="translate(19.96,80.21)">
      <g class="primitive">
        <text text-anchor="end" dy="0.35em" transform="rotate(-90,0, 0)">3.00×10⁵</text>
      </g>
    </g>
    <g transform="translate(33.29,80.21)">
      <g class="primitive">
        <text text-anchor="end" dy="0.35em" transform="rotate(-90,0, 0)">4.00×10⁵</text>
      </g>
    </g>
    <g transform="translate(46.61,80.21)">
      <g class="primitive">
        <text text-anchor="end" dy="0.35em" transform="rotate(-90,0, 0)">5.00×10⁵</text>
      </g>
    </g>
    <g transform="translate(59.94,80.21)">
      <g class="primitive">
        <text text-anchor="end" dy="0.35em" transform="rotate(-90,0, 0)">6.00×10⁵</text>
      </g>
    </g>
    <g transform="translate(73.27,80.21)">
      <g class="primitive">
        <text text-anchor="end" dy="0.35em" transform="rotate(-90,0, 0)">7.00×10⁵</text>
      </g>
    </g>
  </g>
  <g class="guide colorkey" id="img-6bf1a161-3">
    <g class="color_noncoding_noncoding_noncoding_coding_4-tail" id="img-6bf1a161-4">
      <g fill="#4C404B" font-size="2.82" font-family="'PT Sans','Helvetica Neue','Helvetica',sans-serif" id="img-6bf1a161-5">
        <g transform="translate(79.08,43.92)" id="img-6bf1a161-6">
          <g class="primitive">
            <text dy="0.35em">noncoding_noncoding_noncoding_coding_4-tail</text>
          </g>
        </g>
      </g>
      <g fill-opacity="1" fill="#00BFFF" stroke="#FFFFFF" id="img-6bf1a161-7">
        <g transform="translate(77.17,43.92)" id="img-6bf1a161-8">
          <path d="M-0.91,-0.91 L0.91,-0.91 0.91,0.91 -0.91,0.91  z" class="primitive"/>
        </g>
      </g>
    </g>
    <g fill="#362A35" font-size="3.88" font-family="'PT Sans','Helvetica Neue','Helvetica',sans-serif" stroke="#000000" stroke-opacity="0.000" id="img-6bf1a161-9">
      <g transform="translate(76.27,40.1)" id="img-6bf1a161-10">
        <g class="primitive">
          <text dy="-0em">graphlet</text>
        </g>
      </g>
    </g>
  </g>
  <g clip-path="url(#img-6bf1a161-11)">
    <g id="img-6bf1a161-12">
      <g pointer-events="visible" stroke-width="0.3" fill="#000000" fill-opacity="0.000" stroke="#000000" stroke-opacity="0.000" class="guide background" id="img-6bf1a161-13">
        <g transform="translate(46.61,42.11)" id="img-6bf1a161-14">
          <path d="M-28.65,-37.11 L28.65,-37.11 28.65,37.11 -28.65,37.11  z" class="primitive"/>
        </g>
      </g>
      <g class="guide ygridlines xfixed" stroke-dasharray="0.5,0.5" stroke-width="0.2" stroke="#D0D0E0" id="img-6bf1a161-15">
        <g transform="translate(46.61,77.21)" id="img-6bf1a161-16">
          <path fill="none" d="M-28.65,0 L28.65,0 " class="primitive"/>
        </g>
        <g transform="translate(46.61,59.66)" id="img-6bf1a161-17">
          <path fill="none" d="M-28.65,0 L28.65,0 " class="primitive"/>
        </g>
        <g transform="translate(46.61,42.11)" id="img-6bf1a161-18">
          <path fill="none" d="M-28.65,0 L28.65,0 " class="primitive"/>
        </g>
        <g transform="translate(46.61,24.55)" id="img-6bf1a161-19">
          <path fill="none" d="M-28.65,0 L28.65,0 " class="primitive"/>
        </g>
        <g transform="translate(46.61,7)" id="img-6bf1a161-20">
          <path fill="none" d="M-28.65,0 L28.65,0 " class="primitive"/>
        </g>
      </g>
      <g class="guide xgridlines yfixed" stroke-dasharray="0.5,0.5" stroke-width="0.2" stroke="#D0D0E0" id="img-6bf1a161-21">
        <g transform="translate(19.96,42.11)" id="img-6bf1a161-22">
          <path fill="none" d="M0,-37.11 L0,37.11 " class="primitive"/>
        </g>
        <g transform="translate(33.29,42.11)" id="img-6bf1a161-23">
          <path fill="none" d="M0,-37.11 L0,37.11 " class="primitive"/>
        </g>
        <g transform="translate(46.61,42.11)" id="img-6bf1a161-24">
          <path fill="none" d="M0,-37.11 L0,37.11 " class="primitive"/>
        </g>
        <g transform="translate(59.94,42.11)" id="img-6bf1a161-25">
          <path fill="none" d="M0,-37.11 L0,37.11 " class="primitive"/>
        </g>
        <g transform="translate(73.27,42.11)" id="img-6bf1a161-26">
          <path fill="none" d="M0,-37.11 L0,37.11 " class="primitive"/>
        </g>
      </g>
      <g class="plotpanel" id="img-6bf1a161-27">
        <metadata>
          <boundingbox value="17.958333333333336mm 5.0mm 57.30968957064284mm 74.21333333333334mm"/>
          <unitbox value="284993.34724243917 41.13938473224459 430013.30551512167 -42.27876946448917"/>
        </metadata>
        <g shape-rendering="crispEdges" stroke-width="0.3" id="img-6bf1a161-28">
          <g stroke="#000000" stroke-opacity="0.000" class="geometry" id="img-6bf1a161-29">
            <g fill="#00BFFF" id="img-6bf1a161-30">
              <g transform="translate(26.86,76.34)" id="img-6bf1a161-31">
                <path d="M-0.22,-0.88 L0.22,-0.88 0.22,0.88 -0.22,0.88  z" class="primitive"/>
              </g>
              <g transform="translate(27.26,77.22)" id="img-6bf1a161-32">
                <path d="M-0.22,-0 L0.22,-0 0.22,0 -0.22,0  z" class="primitive"/>
              </g>
              <g transform="translate(27.65,77.22)" id="img-6bf1a161-33">
                <path d="M-0.22,-0 L0.22,-0 0.22,0 -0.22,0  z" class="primitive"/>
              </g>
              <g transform="translate(28.04,77.22)" id="img-6bf1a161-34">
                <path d="M-0.22,-0 L0.22,-0 0.22,0 -0.22,0  z" class="primitive"/>
              </g>
              <g transform="translate(28.43,77.22)" id="img-6bf1a161-35">
                <path d="M-0.22,-0 L0.22,-0 0.22,0 -0.22,0  z" class="primitive"/>
              </g>
              <g transform="translate(28.83,77.22)" id="img-6bf1a161-36">
                <path d="M-0.22,-0 L0.22,-0 0.22,0 -0.22,0  z" class="primitive"/>
              </g>
              <g transform="translate(29.22,77.22)" id="img-6bf1a161-37">
                <path d="M-0.22,-0 L0.22,-0 0.22,0 -0.22,0  z" class="primitive"/>
              </g>
              <g transform="translate(29.61,77.22)" id="img-6bf1a161-38">
                <path d="M-0.22,-0 L0.22,-0 0.22,0 -0.22,0  z" class="primitive"/>
              </g>
              <g transform="translate(30,77.22)" id="img-6bf1a161-39">
                <path d="M-0.22,-0 L0.22,-0 0.22,0 -0.22,0  z" class="primitive"/>
              </g>
              <g transform="translate(30.4,77.22)" id="img-6bf1a161-40">
                <path d="M-0.22,-0 L0.22,-0 0.22,0 -0.22,0  z" class="primitive"/>
              </g>
              <g transform="translate(30.79,77.22)" id="img-6bf1a161-41">
                <path d="M-0.22,-0 L0.22,-0 0.22,0 -0.22,0  z" class="primitive"/>
              </g>
              <g transform="translate(31.18,77.22)" id="img-6bf1a161-42">
                <path d="M-0.22,-0 L0.22,-0 0.22,0 -0.22,0  z" class="primitive"/>
              </g>
              <g transform="translate(31.57,76.34)" id="img-6bf1a161-43">
                <path d="M-0.22,-0.88 L0.22,-0.88 0.22,0.88 -0.22,0.88  z" class="primitive"/>
              </g>
              <g transform="translate(31.97,77.22)" id="img-6bf1a161-44">
                <path d="M-0.22,-0 L0.22,-0 0.22,0 -0.22,0  z" class="primitive"/>
              </g>
              <g transform="translate(32.36,77.22)" id="img-6bf1a161-45">
                <path d="M-0.22,-0 L0.22,-0 0.22,0 -0.22,0  z" class="primitive"/>
              </g>
              <g transform="translate(32.75,77.22)" id="img-6bf1a161-46">
                <path d="M-0.22,-0 L0.22,-0 0.22,0 -0.22,0  z" class="primitive"/>
              </g>
              <g transform="translate(33.14,77.22)" id="img-6bf1a161-47">
                <path d="M-0.22,-0 L0.22,-0 0.22,0 -0.22,0  z" class="primitive"/>
              </g>
              <g transform="translate(33.53,76.34)" id="img-6bf1a161-48">
                <path d="M-0.22,-0.88 L0.22,-0.88 0.22,0.88 -0.22,0.88  z" class="primitive"/>
              </g>
              <g transform="translate(33.93,76.34)" id="img-6bf1a161-49">
                <path d="M-0.22,-0.88 L0.22,-0.88 0.22,0.88 -0.22,0.88  z" class="primitive"/>
              </g>
              <g transform="translate(34.32,76.34)" id="img-6bf1a161-50">
                <path d="M-0.22,-0.88 L0.22,-0.88 0.22,0.88 -0.22,0.88  z" class="primitive"/>
              </g>
              <g transform="translate(34.71,76.34)" id="img-6bf1a161-51">
                <path d="M-0.22,-0.88 L0.22,-0.88 0.22,0.88 -0.22,0.88  z" class="primitive"/>
              </g>
              <g transform="translate(35.1,77.22)" id="img-6bf1a161-52">
                <path d="M-0.22,-0 L0.22,-0 0.22,0 -0.22,0  z" class="primitive"/>
              </g>
              <g transform="translate(35.5,76.34)" id="img-6bf1a161-53">
                <path d="M-0.22,-0.88 L0.22,-0.88 0.22,0.88 -0.22,0.88  z" class="primitive"/>
              </g>
              <g transform="translate(35.89,73.7)" id="img-6bf1a161-54">
                <path d="M-0.22,-3.51 L0.22,-3.51 0.22,3.51 -0.22,3.51  z" class="primitive"/>
              </g>
              <g transform="translate(36.28,75.46)" id="img-6bf1a161-55">
                <path d="M-0.22,-1.76 L0.22,-1.76 0.22,1.76 -0.22,1.76  z" class="primitive"/>
              </g>
              <g transform="translate(36.67,69.31)" id="img-6bf1a161-56">
                <path d="M-0.22,-7.9 L0.22,-7.9 0.22,7.9 -0.22,7.9  z" class="primitive"/>
              </g>
              <g transform="translate(37.07,73.7)" id="img-6bf1a161-57">
                <path d="M-0.22,-3.51 L0.22,-3.51 0.22,3.51 -0.22,3.51  z" class="primitive"/>
              </g>
              <g transform="translate(37.46,75.46)" id="img-6bf1a161-58">
                <path d="M-0.22,-1.76 L0.22,-1.76 0.22,1.76 -0.22,1.76  z" class="primitive"/>
              </g>
              <g transform="translate(37.85,72.82)" id="img-6bf1a161-59">
                <path d="M-0.22,-4.39 L0.22,-4.39 0.22,4.39 -0.22,4.39  z" class="primitive"/>
              </g>
              <g transform="translate(38.24,70.19)" id="img-6bf1a161-60">
                <path d="M-0.22,-7.02 L0.22,-7.02 0.22,7.02 -0.22,7.02  z" class="primitive"/>
              </g>
              <g transform="translate(38.64,70.19)" id="img-6bf1a161-61">
                <path d="M-0.22,-7.02 L0.22,-7.02 0.22,7.02 -0.22,7.02  z" class="primitive"/>
              </g>
              <g transform="translate(39.03,64.93)" id="img-6bf1a161-62">
                <path d="M-0.22,-12.29 L0.22,-12.29 0.22,12.29 -0.22,12.29  z" class="primitive"/>
              </g>
              <g transform="translate(39.42,58.78)" id="img-6bf1a161-63">
                <path d="M-0.22,-18.43 L0.22,-18.43 0.22,18.43 -0.22,18.43  z" class="primitive"/>
              </g>
              <g transform="translate(39.81,70.19)" id="img-6bf1a161-64">
                <path d="M-0.22,-7.02 L0.22,-7.02 0.22,7.02 -0.22,7.02  z" class="primitive"/>
              </g>
              <g transform="translate(40.21,61.42)" id="img-6bf1a161-65">
                <path d="M-0.22,-15.8 L0.22,-15.8 0.22,15.8 -0.22,15.8  z" class="primitive"/>
              </g>
              <g transform="translate(40.6,61.42)" id="img-6bf1a161-66">
                <path d="M-0.22,-15.8 L0.22,-15.8 0.22,15.8 -0.22,15.8  z" class="primitive"/>
              </g>
              <g transform="translate(40.99,64.93)" id="img-6bf1a161-67">
                <path d="M-0.22,-12.29 L0.22,-12.29 0.22,12.29 -0.22,12.29  z" class="primitive"/>
              </g>
              <g transform="translate(41.38,68.44)" id="img-6bf1a161-68">
                <path d="M-0.22,-8.78 L0.22,-8.78 0.22,8.78 -0.22,8.78  z" class="primitive"/>
              </g>
              <g transform="translate(41.77,62.29)" id="img-6bf1a161-69">
                <path d="M-0.22,-14.92 L0.22,-14.92 0.22,14.92 -0.22,14.92  z" class="primitive"/>
              </g>
              <g transform="translate(42.17,60.54)" id="img-6bf1a161-70">
                <path d="M-0.22,-16.68 L0.22,-16.68 0.22,16.68 -0.22,16.68  z" class="primitive"/>
              </g>
              <g transform="translate(42.56,57.03)" id="img-6bf1a161-71">
                <path d="M-0.22,-20.19 L0.22,-20.19 0.22,20.19 -0.22,20.19  z" class="primitive"/>
              </g>
              <g transform="translate(42.95,58.78)" id="img-6bf1a161-72">
                <path d="M-0.22,-18.43 L0.22,-18.43 0.22,18.43 -0.22,18.43  z" class="primitive"/>
              </g>
              <g transform="translate(43.34,52.64)" id="img-6bf1a161-73">
                <path d="M-0.22,-24.57 L0.22,-24.57 0.22,24.57 -0.22,24.57  z" class="primitive"/>
              </g>
              <g transform="translate(43.74,51.76)" id="img-6bf1a161-74">
                <path d="M-0.22,-25.45 L0.22,-25.45 0.22,25.45 -0.22,25.45  z" class="primitive"/>
              </g>
              <g transform="translate(44.13,55.27)" id="img-6bf1a161-75">
                <path d="M-0.22,-21.94 L0.22,-21.94 0.22,21.94 -0.22,21.94  z" class="primitive"/>
              </g>
              <g transform="translate(44.52,53.52)" id="img-6bf1a161-76">
                <path d="M-0.22,-23.7 L0.22,-23.7 0.22,23.7 -0.22,23.7  z" class="primitive"/>
              </g>
              <g transform="translate(44.91,50.88)" id="img-6bf1a161-77">
                <path d="M-0.22,-26.33 L0.22,-26.33 0.22,26.33 -0.22,26.33  z" class="primitive"/>
              </g>
              <g transform="translate(45.31,62.29)" id="img-6bf1a161-78">
                <path d="M-0.22,-14.92 L0.22,-14.92 0.22,14.92 -0.22,14.92  z" class="primitive"/>
              </g>
              <g transform="translate(45.7,57.9)" id="img-6bf1a161-79">
                <path d="M-0.22,-19.31 L0.22,-19.31 0.22,19.31 -0.22,19.31  z" class="primitive"/>
              </g>
              <g transform="translate(46.09,49.13)" id="img-6bf1a161-80">
                <path d="M-0.22,-28.09 L0.22,-28.09 0.22,28.09 -0.22,28.09  z" class="primitive"/>
              </g>
              <g transform="translate(46.48,49.13)" id="img-6bf1a161-81">
                <path d="M-0.22,-28.09 L0.22,-28.09 0.22,28.09 -0.22,28.09  z" class="primitive"/>
              </g>
              <g transform="translate(46.88,50.01)" id="img-6bf1a161-82">
                <path d="M-0.22,-27.21 L0.22,-27.21 0.22,27.21 -0.22,27.21  z" class="primitive"/>
              </g>
              <g transform="translate(47.27,50.88)" id="img-6bf1a161-83">
                <path d="M-0.22,-26.33 L0.22,-26.33 0.22,26.33 -0.22,26.33  z" class="primitive"/>
              </g>
              <g transform="translate(47.66,58.78)" id="img-6bf1a161-84">
                <path d="M-0.22,-18.43 L0.22,-18.43 0.22,18.43 -0.22,18.43  z" class="primitive"/>
              </g>
              <g transform="translate(48.05,57.9)" id="img-6bf1a161-85">
                <path d="M-0.22,-19.31 L0.22,-19.31 0.22,19.31 -0.22,19.31  z" class="primitive"/>
              </g>
              <g transform="translate(48.45,46.5)" id="img-6bf1a161-86">
                <path d="M-0.22,-30.72 L0.22,-30.72 0.22,30.72 -0.22,30.72  z" class="primitive"/>
              </g>
              <g transform="translate(48.84,62.29)" id="img-6bf1a161-87">
                <path d="M-0.22,-14.92 L0.22,-14.92 0.22,14.92 -0.22,14.92  z" class="primitive"/>
              </g>
              <g transform="translate(49.23,60.54)" id="img-6bf1a161-88">
                <path d="M-0.22,-16.68 L0.22,-16.68 0.22,16.68 -0.22,16.68  z" class="primitive"/>
              </g>
              <g transform="translate(49.62,56.15)" id="img-6bf1a161-89">
                <path d="M-0.22,-21.06 L0.22,-21.06 0.22,21.06 -0.22,21.06  z" class="primitive"/>
              </g>
              <g transform="translate(50.01,59.66)" id="img-6bf1a161-90">
                <path d="M-0.22,-17.55 L0.22,-17.55 0.22,17.55 -0.22,17.55  z" class="primitive"/>
              </g>
              <g transform="translate(50.41,61.42)" id="img-6bf1a161-91">
                <path d="M-0.22,-15.8 L0.22,-15.8 0.22,15.8 -0.22,15.8  z" class="primitive"/>
              </g>
              <g transform="translate(50.8,50.01)" id="img-6bf1a161-92">
                <path d="M-0.22,-27.21 L0.22,-27.21 0.22,27.21 -0.22,27.21  z" class="primitive"/>
              </g>
              <g transform="translate(51.19,60.54)" id="img-6bf1a161-93">
                <path d="M-0.22,-16.68 L0.22,-16.68 0.22,16.68 -0.22,16.68  z" class="primitive"/>
              </g>
              <g transform="translate(51.58,57.03)" id="img-6bf1a161-94">
                <path d="M-0.22,-20.19 L0.22,-20.19 0.22,20.19 -0.22,20.19  z" class="primitive"/>
              </g>
              <g transform="translate(51.98,61.42)" id="img-6bf1a161-95">
                <path d="M-0.22,-15.8 L0.22,-15.8 0.22,15.8 -0.22,15.8  z" class="primitive"/>
              </g>
              <g transform="translate(52.37,58.78)" id="img-6bf1a161-96">
                <path d="M-0.22,-18.43 L0.22,-18.43 0.22,18.43 -0.22,18.43  z" class="primitive"/>
              </g>
              <g transform="translate(52.76,64.05)" id="img-6bf1a161-97">
                <path d="M-0.22,-13.17 L0.22,-13.17 0.22,13.17 -0.22,13.17  z" class="primitive"/>
              </g>
              <g transform="translate(53.15,59.66)" id="img-6bf1a161-98">
                <path d="M-0.22,-17.55 L0.22,-17.55 0.22,17.55 -0.22,17.55  z" class="primitive"/>
              </g>
              <g transform="translate(53.55,71.07)" id="img-6bf1a161-99">
                <path d="M-0.22,-6.14 L0.22,-6.14 0.22,6.14 -0.22,6.14  z" class="primitive"/>
              </g>
              <g transform="translate(53.94,67.56)" id="img-6bf1a161-100">
                <path d="M-0.22,-9.65 L0.22,-9.65 0.22,9.65 -0.22,9.65  z" class="primitive"/>
              </g>
              <g transform="translate(54.33,67.56)" id="img-6bf1a161-101">
                <path d="M-0.22,-9.65 L0.22,-9.65 0.22,9.65 -0.22,9.65  z" class="primitive"/>
              </g>
              <g transform="translate(54.72,63.17)" id="img-6bf1a161-102">
                <path d="M-0.22,-14.04 L0.22,-14.04 0.22,14.04 -0.22,14.04  z" class="primitive"/>
              </g>
              <g transform="translate(55.12,70.19)" id="img-6bf1a161-103">
                <path d="M-0.22,-7.02 L0.22,-7.02 0.22,7.02 -0.22,7.02  z" class="primitive"/>
              </g>
              <g transform="translate(55.51,65.8)" id="img-6bf1a161-104">
                <path d="M-0.22,-11.41 L0.22,-11.41 0.22,11.41 -0.22,11.41  z" class="primitive"/>
              </g>
              <g transform="translate(55.9,71.95)" id="img-6bf1a161-105">
                <path d="M-0.22,-5.27 L0.22,-5.27 0.22,5.27 -0.22,5.27  z" class="primitive"/>
              </g>
              <g transform="translate(56.29,70.19)" id="img-6bf1a161-106">
                <path d="M-0.22,-7.02 L0.22,-7.02 0.22,7.02 -0.22,7.02  z" class="primitive"/>
              </g>
              <g transform="translate(56.69,68.44)" id="img-6bf1a161-107">
                <path d="M-0.22,-8.78 L0.22,-8.78 0.22,8.78 -0.22,8.78  z" class="primitive"/>
              </g>
              <g transform="translate(57.08,71.07)" id="img-6bf1a161-108">
                <path d="M-0.22,-6.14 L0.22,-6.14 0.22,6.14 -0.22,6.14  z" class="primitive"/>
              </g>
              <g transform="translate(57.47,71.95)" id="img-6bf1a161-109">
                <path d="M-0.22,-5.27 L0.22,-5.27 0.22,5.27 -0.22,5.27  z" class="primitive"/>
              </g>
              <g transform="translate(57.86,72.82)" id="img-6bf1a161-110">
                <path d="M-0.22,-4.39 L0.22,-4.39 0.22,4.39 -0.22,4.39  z" class="primitive"/>
              </g>
              <g transform="translate(58.25,73.7)" id="img-6bf1a161-111">
                <path d="M-0.22,-3.51 L0.22,-3.51 0.22,3.51 -0.22,3.51  z" class="primitive"/>
              </g>
              <g transform="translate(58.65,72.82)" id="img-6bf1a161-112">
                <path d="M-0.22,-4.39 L0.22,-4.39 0.22,4.39 -0.22,4.39  z" class="primitive"/>
              </g>
              <g transform="translate(59.04,74.58)" id="img-6bf1a161-113">
                <path d="M-0.22,-2.63 L0.22,-2.63 0.22,2.63 -0.22,2.63  z" class="primitive"/>
              </g>
              <g transform="translate(59.43,74.58)" id="img-6bf1a161-114">
                <path d="M-0.22,-2.63 L0.22,-2.63 0.22,2.63 -0.22,2.63  z" class="primitive"/>
              </g>
              <g transform="translate(59.82,71.95)" id="img-6bf1a161-115">
                <path d="M-0.22,-5.27 L0.22,-5.27 0.22,5.27 -0.22,5.27  z" class="primitive"/>
              </g>
              <g transform="translate(60.22,77.22)" id="img-6bf1a161-116">
                <path d="M-0.22,-0 L0.22,-0 0.22,0 -0.22,0  z" class="primitive"/>
              </g>
              <g transform="translate(60.61,74.58)" id="img-6bf1a161-117">
                <path d="M-0.22,-2.63 L0.22,-2.63 0.22,2.63 -0.22,2.63  z" class="primitive"/>
              </g>
              <g transform="translate(61,76.34)" id="img-6bf1a161-118">
                <path d="M-0.22,-0.88 L0.22,-0.88 0.22,0.88 -0.22,0.88  z" class="primitive"/>
              </g>
              <g transform="translate(61.39,75.46)" id="img-6bf1a161-119">
                <path d="M-0.22,-1.76 L0.22,-1.76 0.22,1.76 -0.22,1.76  z" class="primitive"/>
              </g>
              <g transform="translate(61.79,76.34)" id="img-6bf1a161-120">
                <path d="M-0.22,-0.88 L0.22,-0.88 0.22,0.88 -0.22,0.88  z" class="primitive"/>
              </g>
              <g transform="translate(62.18,77.22)" id="img-6bf1a161-121">
                <path d="M-0.22,-0 L0.22,-0 0.22,0 -0.22,0  z" class="primitive"/>
              </g>
              <g transform="translate(62.57,77.22)" id="img-6bf1a161-122">
                <path d="M-0.22,-0 L0.22,-0 0.22,0 -0.22,0  z" class="primitive"/>
              </g>
              <g transform="translate(62.96,76.34)" id="img-6bf1a161-123">
                <path d="M-0.22,-0.88 L0.22,-0.88 0.22,0.88 -0.22,0.88  z" class="primitive"/>
              </g>
              <g transform="translate(63.36,75.46)" id="img-6bf1a161-124">
                <path d="M-0.22,-1.76 L0.22,-1.76 0.22,1.76 -0.22,1.76  z" class="primitive"/>
              </g>
              <g transform="translate(63.75,76.34)" id="img-6bf1a161-125">
                <path d="M-0.22,-0.88 L0.22,-0.88 0.22,0.88 -0.22,0.88  z" class="primitive"/>
              </g>
              <g transform="translate(64.14,76.34)" id="img-6bf1a161-126">
                <path d="M-0.22,-0.88 L0.22,-0.88 0.22,0.88 -0.22,0.88  z" class="primitive"/>
              </g>
              <g transform="translate(64.53,77.22)" id="img-6bf1a161-127">
                <path d="M-0.22,-0 L0.22,-0 0.22,0 -0.22,0  z" class="primitive"/>
              </g>
              <g transform="translate(64.93,77.22)" id="img-6bf1a161-128">
                <path d="M-0.22,-0 L0.22,-0 0.22,0 -0.22,0  z" class="primitive"/>
              </g>
              <g transform="translate(65.32,77.22)" id="img-6bf1a161-129">
                <path d="M-0.22,-0 L0.22,-0 0.22,0 -0.22,0  z" class="primitive"/>
              </g>
              <g transform="translate(65.71,76.34)" id="img-6bf1a161-130">
                <path d="M-0.22,-0.88 L0.22,-0.88 0.22,0.88 -0.22,0.88  z" class="primitive"/>
              </g>
            </g>
          </g>
        </g>
      </g>
    </g>
  </g>
  <g class="guide ylabels" font-size="2.82" font-family="'PT Sans Caption','Helvetica Neue','Helvetica',sans-serif" fill="#6C606B" id="img-6bf1a161-131">
    <g transform="translate(16.96,77.21)" id="img-6bf1a161-132">
      <g class="primitive">
        <text text-anchor="end" dy="0.35em">0</text>
      </g>
    </g>
    <g transform="translate(16.96,59.66)" id="img-6bf1a161-133">
      <g class="primitive">
        <text text-anchor="end" dy="0.35em">10</text>
      </g>
    </g>
    <g transform="translate(16.96,42.11)" id="img-6bf1a161-134">
      <g class="primitive">
        <text text-anchor="end" dy="0.35em">20</text>
      </g>
    </g>
    <g transform="translate(16.96,24.55)" id="img-6bf1a161-135">
      <g class="primitive">
        <text text-anchor="end" dy="0.35em">30</text>
      </g>
    </g>
    <g transform="translate(16.96,7)" id="img-6bf1a161-136">
      <g class="primitive">
        <text text-anchor="end" dy="0.35em">40</text>
      </g>
    </g>
  </g>
  <g font-size="3.88" font-family="'PT Sans','Helvetica Neue','Helvetica',sans-serif" fill="#564A55" stroke="#000000" stroke-opacity="0.000" id="img-6bf1a161-137">
    <g transform="translate(8.81,40.11)" id="img-6bf1a161-138">
      <g class="primitive">
        <text text-anchor="middle" dy="0.35em" transform="rotate(-90,0, 2)">frequency</text>
      </g>
    </g>
  </g>
</g>
<defs>
  <clipPath id="img-6bf1a161-11">
    <path d="M17.96,5 L75.27,5 75.27,79.21 17.96,79.21 " />
  </clipPath>
</defs>
</svg>
