<?xml version="1.0" encoding="UTF-8"?>
<svg xmlns="http://www.w3.org/2000/svg"
     xmlns:xlink="http://www.w3.org/1999/xlink"
     xmlns:gadfly="http://www.gadflyjl.org/ns"
     version="1.2"
     width="141.42mm" height="100mm" viewBox="0 0 141.42 100"
     stroke="none"
     fill="#000000"
     stroke-width="0.3"
     font-size="3.88"
>
<defs>
  <marker id="arrow" markerWidth="15" markerHeight="7" refX="5" refY="3.5" orient="auto" markerUnits="strokeWidth">
    <path d="M0,0 L15,3.5 L0,7 z" stroke="context-stroke" fill="context-stroke"/>
  </marker>
</defs>
<g class="plotroot xscalable yscalable" id="img-0a4eed91-1">
  <g class="guide xlabels" font-size="2.82" font-family="'PT Sans Caption','Helvetica Neue','Helvetica',sans-serif" fill="#6C606B" id="img-0a4eed91-2">
    <g transform="translate(19.96,80.21)">
      <g class="primitive">
        <text text-anchor="end" dy="0.35em" transform="rotate(-90,0, 0)">3.00×10⁴</text>
      </g>
    </g>
    <g transform="translate(35.92,80.21)">
      <g class="primitive">
        <text text-anchor="end" dy="0.35em" transform="rotate(-90,0, 0)">3.50×10⁴</text>
      </g>
    </g>
    <g transform="translate(51.88,80.21)">
      <g class="primitive">
        <text text-anchor="end" dy="0.35em" transform="rotate(-90,0, 0)">4.00×10⁴</text>
      </g>
    </g>
    <g transform="translate(67.84,80.21)">
      <g class="primitive">
        <text text-anchor="end" dy="0.35em" transform="rotate(-90,0, 0)">4.50×10⁴</text>
      </g>
    </g>
    <g transform="translate(83.8,80.21)">
      <g class="primitive">
        <text text-anchor="end" dy="0.35em" transform="rotate(-90,0, 0)">5.00×10⁴</text>
      </g>
    </g>
  </g>
  <g class="guide colorkey" id="img-0a4eed91-3">
    <g class="color_noncoding_noncoding_noncoding_3-tri" id="img-0a4eed91-4">
      <g fill="#4C404B" font-size="2.82" font-family="'PT Sans','Helvetica Neue','Helvetica',sans-serif" id="img-0a4eed91-5">
        <g transform="translate(89.61,43.92)" id="img-0a4eed91-6">
          <g class="primitive">
            <text dy="0.35em">noncoding_noncoding_noncoding_3-tri</text>
          </g>
        </g>
      </g>
      <g fill-opacity="1" fill="#00BFFF" stroke="#FFFFFF" id="img-0a4eed91-7">
        <g transform="translate(87.71,43.92)" id="img-0a4eed91-8">
          <path d="M-0.91,-0.91 L0.91,-0.91 0.91,0.91 -0.91,0.91  z" class="primitive"/>
        </g>
      </g>
    </g>
    <g fill="#362A35" font-size="3.88" font-family="'PT Sans','Helvetica Neue','Helvetica',sans-serif" stroke="#000000" stroke-opacity="0.000" id="img-0a4eed91-9">
      <g transform="translate(86.8,40.1)" id="img-0a4eed91-10">
        <g class="primitive">
          <text dy="-0em">graphlet</text>
        </g>
      </g>
    </g>
  </g>
  <g clip-path="url(#img-0a4eed91-11)">
    <g id="img-0a4eed91-12">
      <g pointer-events="visible" stroke-width="0.3" fill="#000000" fill-opacity="0.000" stroke="#000000" stroke-opacity="0.000" class="guide background" id="img-0a4eed91-13">
        <g transform="translate(51.88,42.11)" id="img-0a4eed91-14">
          <path d="M-33.92,-37.11 L33.92,-37.11 33.92,37.11 -33.92,37.11  z" class="primitive"/>
        </g>
      </g>
      <g class="guide ygridlines xfixed" stroke-dasharray="0.5,0.5" stroke-width="0.2" stroke="#D0D0E0" id="img-0a4eed91-15">
        <g transform="translate(51.88,77.21)" id="img-0a4eed91-16">
          <path fill="none" d="M-33.92,0 L33.92,0 " class="primitive"/>
        </g>
        <g transform="translate(51.88,59.66)" id="img-0a4eed91-17">
          <path fill="none" d="M-33.92,0 L33.92,0 " class="primitive"/>
        </g>
        <g transform="translate(51.88,42.11)" id="img-0a4eed91-18">
          <path fill="none" d="M-33.92,0 L33.92,0 " class="primitive"/>
        </g>
        <g transform="translate(51.88,24.55)" id="img-0a4eed91-19">
          <path fill="none" d="M-33.92,0 L33.92,0 " class="primitive"/>
        </g>
        <g transform="translate(51.88,7)" id="img-0a4eed91-20">
          <path fill="none" d="M-33.92,0 L33.92,0 " class="primitive"/>
        </g>
      </g>
      <g class="guide xgridlines yfixed" stroke-dasharray="0.5,0.5" stroke-width="0.2" stroke="#D0D0E0" id="img-0a4eed91-21">
        <g transform="translate(19.96,42.11)" id="img-0a4eed91-22">
          <path fill="none" d="M0,-37.11 L0,37.11 " class="primitive"/>
        </g>
        <g transform="translate(35.92,42.11)" id="img-0a4eed91-23">
          <path fill="none" d="M0,-37.11 L0,37.11 " class="primitive"/>
        </g>
        <g transform="translate(51.88,42.11)" id="img-0a4eed91-24">
          <path fill="none" d="M0,-37.11 L0,37.11 " class="primitive"/>
        </g>
        <g transform="translate(67.84,42.11)" id="img-0a4eed91-25">
          <path fill="none" d="M0,-37.11 L0,37.11 " class="primitive"/>
        </g>
        <g transform="translate(83.8,42.11)" id="img-0a4eed91-26">
          <path fill="none" d="M0,-37.11 L0,37.11 " class="primitive"/>
        </g>
      </g>
      <g class="plotpanel" id="img-0a4eed91-27">
        <metadata>
          <boundingbox value="17.95833333333333mm 5.0mm 67.84302290397619mm 74.21333333333334mm"/>
          <unitbox value="29373.46325125985 41.13938473224459 21253.073497480294 -42.27876946448917"/>
        </metadata>
        <g shape-rendering="crispEdges" stroke-width="0.3" id="img-0a4eed91-28">
          <g stroke="#000000" stroke-opacity="0.000" class="geometry" id="img-0a4eed91-29">
            <g fill="#00BFFF" id="img-0a4eed91-30">
              <g transform="translate(31.77,76.34)" id="img-0a4eed91-31">
                <path d="M-0.23,-0.88 L0.23,-0.88 0.23,0.88 -0.23,0.88  z" class="primitive"/>
              </g>
              <g transform="translate(32.18,77.22)" id="img-0a4eed91-32">
                <path d="M-0.23,-0 L0.23,-0 0.23,0 -0.23,0  z" class="primitive"/>
              </g>
              <g transform="translate(32.59,76.34)" id="img-0a4eed91-33">
                <path d="M-0.23,-0.88 L0.23,-0.88 0.23,0.88 -0.23,0.88  z" class="primitive"/>
              </g>
              <g transform="translate(32.99,77.22)" id="img-0a4eed91-34">
                <path d="M-0.23,-0 L0.23,-0 0.23,0 -0.23,0  z" class="primitive"/>
              </g>
              <g transform="translate(33.4,76.34)" id="img-0a4eed91-35">
                <path d="M-0.23,-0.88 L0.23,-0.88 0.23,0.88 -0.23,0.88  z" class="primitive"/>
              </g>
              <g transform="translate(33.8,75.46)" id="img-0a4eed91-36">
                <path d="M-0.23,-1.76 L0.23,-1.76 0.23,1.76 -0.23,1.76  z" class="primitive"/>
              </g>
              <g transform="translate(34.21,75.46)" id="img-0a4eed91-37">
                <path d="M-0.23,-1.76 L0.23,-1.76 0.23,1.76 -0.23,1.76  z" class="primitive"/>
              </g>
              <g transform="translate(34.61,76.34)" id="img-0a4eed91-38">
                <path d="M-0.23,-0.88 L0.23,-0.88 0.23,0.88 -0.23,0.88  z" class="primitive"/>
              </g>
              <g transform="translate(35.02,75.46)" id="img-0a4eed91-39">
                <path d="M-0.23,-1.76 L0.23,-1.76 0.23,1.76 -0.23,1.76  z" class="primitive"/>
              </g>
              <g transform="translate(35.43,72.82)" id="img-0a4eed91-40">
                <path d="M-0.23,-4.39 L0.23,-4.39 0.23,4.39 -0.23,4.39  z" class="primitive"/>
              </g>
              <g transform="translate(35.83,77.22)" id="img-0a4eed91-41">
                <path d="M-0.23,-0 L0.23,-0 0.23,0 -0.23,0  z" class="primitive"/>
              </g>
              <g transform="translate(36.24,76.34)" id="img-0a4eed91-42">
                <path d="M-0.23,-0.88 L0.23,-0.88 0.23,0.88 -0.23,0.88  z" class="primitive"/>
              </g>
              <g transform="translate(36.64,75.46)" id="img-0a4eed91-43">
                <path d="M-0.23,-1.76 L0.23,-1.76 0.23,1.76 -0.23,1.76  z" class="primitive"/>
              </g>
              <g transform="translate(37.05,71.95)" id="img-0a4eed91-44">
                <path d="M-0.23,-5.27 L0.23,-5.27 0.23,5.27 -0.23,5.27  z" class="primitive"/>
              </g>
              <g transform="translate(37.46,71.07)" id="img-0a4eed91-45">
                <path d="M-0.23,-6.14 L0.23,-6.14 0.23,6.14 -0.23,6.14  z" class="primitive"/>
              </g>
              <g transform="translate(37.86,73.7)" id="img-0a4eed91-46">
                <path d="M-0.23,-3.51 L0.23,-3.51 0.23,3.51 -0.23,3.51  z" class="primitive"/>
              </g>
              <g transform="translate(38.27,72.82)" id="img-0a4eed91-47">
                <path d="M-0.23,-4.39 L0.23,-4.39 0.23,4.39 -0.23,4.39  z" class="primitive"/>
              </g>
              <g transform="translate(38.67,71.95)" id="img-0a4eed91-48">
                <path d="M-0.23,-5.27 L0.23,-5.27 0.23,5.27 -0.23,5.27  z" class="primitive"/>
              </g>
              <g transform="translate(39.08,71.07)" id="img-0a4eed91-49">
                <path d="M-0.23,-6.14 L0.23,-6.14 0.23,6.14 -0.23,6.14  z" class="primitive"/>
              </g>
              <g transform="translate(39.48,70.19)" id="img-0a4eed91-50">
                <path d="M-0.23,-7.02 L0.23,-7.02 0.23,7.02 -0.23,7.02  z" class="primitive"/>
              </g>
              <g transform="translate(39.89,70.19)" id="img-0a4eed91-51">
                <path d="M-0.23,-7.02 L0.23,-7.02 0.23,7.02 -0.23,7.02  z" class="primitive"/>
              </g>
              <g transform="translate(40.3,69.31)" id="img-0a4eed91-52">
                <path d="M-0.23,-7.9 L0.23,-7.9 0.23,7.9 -0.23,7.9  z" class="primitive"/>
              </g>
              <g transform="translate(40.7,70.19)" id="img-0a4eed91-53">
                <path d="M-0.23,-7.02 L0.23,-7.02 0.23,7.02 -0.23,7.02  z" class="primitive"/>
              </g>
              <g transform="translate(41.11,66.68)" id="img-0a4eed91-54">
                <path d="M-0.23,-10.53 L0.23,-10.53 0.23,10.53 -0.23,10.53  z" class="primitive"/>
              </g>
              <g transform="translate(41.51,62.29)" id="img-0a4eed91-55">
                <path d="M-0.23,-14.92 L0.23,-14.92 0.23,14.92 -0.23,14.92  z" class="primitive"/>
              </g>
              <g transform="translate(41.92,65.8)" id="img-0a4eed91-56">
                <path d="M-0.23,-11.41 L0.23,-11.41 0.23,11.41 -0.23,11.41  z" class="primitive"/>
              </g>
              <g transform="translate(42.32,58.78)" id="img-0a4eed91-57">
                <path d="M-0.23,-18.43 L0.23,-18.43 0.23,18.43 -0.23,18.43  z" class="primitive"/>
              </g>
              <g transform="translate(42.73,68.44)" id="img-0a4eed91-58">
                <path d="M-0.23,-8.78 L0.23,-8.78 0.23,8.78 -0.23,8.78  z" class="primitive"/>
              </g>
              <g transform="translate(43.14,64.05)" id="img-0a4eed91-59">
                <path d="M-0.23,-13.17 L0.23,-13.17 0.23,13.17 -0.23,13.17  z" class="primitive"/>
              </g>
              <g transform="translate(43.54,64.93)" id="img-0a4eed91-60">
                <path d="M-0.23,-12.29 L0.23,-12.29 0.23,12.29 -0.23,12.29  z" class="primitive"/>
              </g>
              <g transform="translate(43.95,61.42)" id="img-0a4eed91-61">
                <path d="M-0.23,-15.8 L0.23,-15.8 0.23,15.8 -0.23,15.8  z" class="primitive"/>
              </g>
              <g transform="translate(44.35,62.29)" id="img-0a4eed91-62">
                <path d="M-0.23,-14.92 L0.23,-14.92 0.23,14.92 -0.23,14.92  z" class="primitive"/>
              </g>
              <g transform="translate(44.76,53.52)" id="img-0a4eed91-63">
                <path d="M-0.23,-23.7 L0.23,-23.7 0.23,23.7 -0.23,23.7  z" class="primitive"/>
              </g>
              <g transform="translate(45.17,54.39)" id="img-0a4eed91-64">
                <path d="M-0.23,-22.82 L0.23,-22.82 0.23,22.82 -0.23,22.82  z" class="primitive"/>
              </g>
              <g transform="translate(45.57,57.03)" id="img-0a4eed91-65">
                <path d="M-0.23,-20.19 L0.23,-20.19 0.23,20.19 -0.23,20.19  z" class="primitive"/>
              </g>
              <g transform="translate(45.98,61.42)" id="img-0a4eed91-66">
                <path d="M-0.23,-15.8 L0.23,-15.8 0.23,15.8 -0.23,15.8  z" class="primitive"/>
              </g>
              <g transform="translate(46.38,54.39)" id="img-0a4eed91-67">
                <path d="M-0.23,-22.82 L0.23,-22.82 0.23,22.82 -0.23,22.82  z" class="primitive"/>
              </g>
              <g transform="translate(46.79,56.15)" id="img-0a4eed91-68">
                <path d="M-0.23,-21.06 L0.23,-21.06 0.23,21.06 -0.23,21.06  z" class="primitive"/>
              </g>
              <g transform="translate(47.19,52.64)" id="img-0a4eed91-69">
                <path d="M-0.23,-24.57 L0.23,-24.57 0.23,24.57 -0.23,24.57  z" class="primitive"/>
              </g>
              <g transform="translate(47.6,50.01)" id="img-0a4eed91-70">
                <path d="M-0.23,-27.21 L0.23,-27.21 0.23,27.21 -0.23,27.21  z" class="primitive"/>
              </g>
              <g transform="translate(48.01,48.25)" id="img-0a4eed91-71">
                <path d="M-0.23,-28.96 L0.23,-28.96 0.23,28.96 -0.23,28.96  z" class="primitive"/>
              </g>
              <g transform="translate(48.41,54.39)" id="img-0a4eed91-72">
                <path d="M-0.23,-22.82 L0.23,-22.82 0.23,22.82 -0.23,22.82  z" class="primitive"/>
              </g>
              <g transform="translate(48.82,55.27)" id="img-0a4eed91-73">
                <path d="M-0.23,-21.94 L0.23,-21.94 0.23,21.94 -0.23,21.94  z" class="primitive"/>
              </g>
              <g transform="translate(49.22,46.5)" id="img-0a4eed91-74">
                <path d="M-0.23,-30.72 L0.23,-30.72 0.23,30.72 -0.23,30.72  z" class="primitive"/>
              </g>
              <g transform="translate(49.63,55.27)" id="img-0a4eed91-75">
                <path d="M-0.23,-21.94 L0.23,-21.94 0.23,21.94 -0.23,21.94  z" class="primitive"/>
              </g>
              <g transform="translate(50.03,54.39)" id="img-0a4eed91-76">
                <path d="M-0.23,-22.82 L0.23,-22.82 0.23,22.82 -0.23,22.82  z" class="primitive"/>
              </g>
              <g transform="translate(50.44,55.27)" id="img-0a4eed91-77">
                <path d="M-0.23,-21.94 L0.23,-21.94 0.23,21.94 -0.23,21.94  z" class="primitive"/>
              </g>
              <g transform="translate(50.85,57.9)" id="img-0a4eed91-78">
                <path d="M-0.23,-19.31 L0.23,-19.31 0.23,19.31 -0.23,19.31  z" class="primitive"/>
              </g>
              <g transform="translate(51.25,59.66)" id="img-0a4eed91-79">
                <path d="M-0.23,-17.55 L0.23,-17.55 0.23,17.55 -0.23,17.55  z" class="primitive"/>
              </g>
              <g transform="translate(51.66,60.54)" id="img-0a4eed91-80">
                <path d="M-0.23,-16.68 L0.23,-16.68 0.23,16.68 -0.23,16.68  z" class="primitive"/>
              </g>
              <g transform="translate(52.06,54.39)" id="img-0a4eed91-81">
                <path d="M-0.23,-22.82 L0.23,-22.82 0.23,22.82 -0.23,22.82  z" class="primitive"/>
              </g>
              <g transform="translate(52.47,63.17)" id="img-0a4eed91-82">
                <path d="M-0.23,-14.04 L0.23,-14.04 0.23,14.04 -0.23,14.04  z" class="primitive"/>
              </g>
              <g transform="translate(52.88,56.15)" id="img-0a4eed91-83">
                <path d="M-0.23,-21.06 L0.23,-21.06 0.23,21.06 -0.23,21.06  z" class="primitive"/>
              </g>
              <g transform="translate(53.28,63.17)" id="img-0a4eed91-84">
                <path d="M-0.23,-14.04 L0.23,-14.04 0.23,14.04 -0.23,14.04  z" class="primitive"/>
              </g>
              <g transform="translate(53.69,64.93)" id="img-0a4eed91-85">
                <path d="M-0.23,-12.29 L0.23,-12.29 0.23,12.29 -0.23,12.29  z" class="primitive"/>
              </g>
              <g transform="translate(54.09,61.42)" id="img-0a4eed91-86">
                <path d="M-0.23,-15.8 L0.23,-15.8 0.23,15.8 -0.23,15.8  z" class="primitive"/>
              </g>
              <g transform="translate(54.5,61.42)" id="img-0a4eed91-87">
                <path d="M-0.23,-15.8 L0.23,-15.8 0.23,15.8 -0.23,15.8  z" class="primitive"/>
              </g>
              <g transform="translate(54.9,67.56)" id="img-0a4eed91-88">
                <path d="M-0.23,-9.65 L0.23,-9.65 0.23,9.65 -0.23,9.65  z" class="primitive"/>
              </g>
              <g transform="translate(55.31,67.56)" id="img-0a4eed91-89">
                <path d="M-0.23,-9.65 L0.23,-9.65 0.23,9.65 -0.23,9.65  z" class="primitive"/>
              </g>
              <g transform="translate(55.72,64.93)" id="img-0a4eed91-90">
                <path d="M-0.23,-12.29 L0.23,-12.29 0.23,12.29 -0.23,12.29  z" class="primitive"/>
              </g>
              <g transform="translate(56.12,65.8)" id="img-0a4eed91-91">
                <path d="M-0.23,-11.41 L0.23,-11.41 0.23,11.41 -0.23,11.41  z" class="primitive"/>
              </g>
              <g transform="translate(56.53,62.29)" id="img-0a4eed91-92">
                <path d="M-0.23,-14.92 L0.23,-14.92 0.23,14.92 -0.23,14.92  z" class="primitive"/>
              </g>
              <g transform="translate(56.93,66.68)" id="img-0a4eed91-93">
                <path d="M-0.23,-10.53 L0.23,-10.53 0.23,10.53 -0.23,10.53  z" class="primitive"/>
              </g>
              <g transform="translate(57.34,64.93)" id="img-0a4eed91-94">
                <path d="M-0.23,-12.29 L0.23,-12.29 0.23,12.29 -0.23,12.29  z" class="primitive"/>
              </g>
              <g transform="translate(57.74,70.19)" id="img-0a4eed91-95">
                <path d="M-0.23,-7.02 L0.23,-7.02 0.23,7.02 -0.23,7.02  z" class="primitive"/>
              </g>
              <g transform="translate(58.15,71.07)" id="img-0a4eed91-96">
                <path d="M-0.23,-6.14 L0.23,-6.14 0.23,6.14 -0.23,6.14  z" class="primitive"/>
              </g>
              <g transform="translate(58.56,68.44)" id="img-0a4eed91-97">
                <path d="M-0.23,-8.78 L0.23,-8.78 0.23,8.78 -0.23,8.78  z" class="primitive"/>
              </g>
              <g transform="translate(58.96,71.95)" id="img-0a4eed91-98">
                <path d="M-0.23,-5.27 L0.23,-5.27 0.23,5.27 -0.23,5.27  z" class="primitive"/>
              </g>
              <g transform="translate(59.37,73.7)" id="img-0a4eed91-99">
                <path d="M-0.23,-3.51 L0.23,-3.51 0.23,3.51 -0.23,3.51  z" class="primitive"/>
              </g>
              <g transform="translate(59.77,74.58)" id="img-0a4eed91-100">
                <path d="M-0.23,-2.63 L0.23,-2.63 0.23,2.63 -0.23,2.63  z" class="primitive"/>
              </g>
              <g transform="translate(60.18,74.58)" id="img-0a4eed91-101">
                <path d="M-0.23,-2.63 L0.23,-2.63 0.23,2.63 -0.23,2.63  z" class="primitive"/>
              </g>
              <g transform="translate(60.59,70.19)" id="img-0a4eed91-102">
                <path d="M-0.23,-7.02 L0.23,-7.02 0.23,7.02 -0.23,7.02  z" class="primitive"/>
              </g>
              <g transform="translate(60.99,72.82)" id="img-0a4eed91-103">
                <path d="M-0.23,-4.39 L0.23,-4.39 0.23,4.39 -0.23,4.39  z" class="primitive"/>
              </g>
              <g transform="translate(61.4,74.58)" id="img-0a4eed91-104">
                <path d="M-0.23,-2.63 L0.23,-2.63 0.23,2.63 -0.23,2.63  z" class="primitive"/>
              </g>
              <g transform="translate(61.8,75.46)" id="img-0a4eed91-105">
                <path d="M-0.23,-1.76 L0.23,-1.76 0.23,1.76 -0.23,1.76  z" class="primitive"/>
              </g>
              <g transform="translate(62.21,75.46)" id="img-0a4eed91-106">
                <path d="M-0.23,-1.76 L0.23,-1.76 0.23,1.76 -0.23,1.76  z" class="primitive"/>
              </g>
              <g transform="translate(62.61,77.22)" id="img-0a4eed91-107">
                <path d="M-0.23,-0 L0.23,-0 0.23,0 -0.23,0  z" class="primitive"/>
              </g>
              <g transform="translate(63.02,74.58)" id="img-0a4eed91-108">
                <path d="M-0.23,-2.63 L0.23,-2.63 0.23,2.63 -0.23,2.63  z" class="primitive"/>
              </g>
              <g transform="translate(63.43,69.31)" id="img-0a4eed91-109">
                <path d="M-0.23,-7.9 L0.23,-7.9 0.23,7.9 -0.23,7.9  z" class="primitive"/>
              </g>
              <g transform="translate(63.83,75.46)" id="img-0a4eed91-110">
                <path d="M-0.23,-1.76 L0.23,-1.76 0.23,1.76 -0.23,1.76  z" class="primitive"/>
              </g>
              <g transform="translate(64.24,75.46)" id="img-0a4eed91-111">
                <path d="M-0.23,-1.76 L0.23,-1.76 0.23,1.76 -0.23,1.76  z" class="primitive"/>
              </g>
              <g transform="translate(64.64,73.7)" id="img-0a4eed91-112">
                <path d="M-0.23,-3.51 L0.23,-3.51 0.23,3.51 -0.23,3.51  z" class="primitive"/>
              </g>
              <g transform="translate(65.05,73.7)" id="img-0a4eed91-113">
                <path d="M-0.23,-3.51 L0.23,-3.51 0.23,3.51 -0.23,3.51  z" class="primitive"/>
              </g>
              <g transform="translate(65.45,72.82)" id="img-0a4eed91-114">
                <path d="M-0.23,-4.39 L0.23,-4.39 0.23,4.39 -0.23,4.39  z" class="primitive"/>
              </g>
              <g transform="translate(65.86,76.34)" id="img-0a4eed91-115">
                <path d="M-0.23,-0.88 L0.23,-0.88 0.23,0.88 -0.23,0.88  z" class="primitive"/>
              </g>
              <g transform="translate(66.27,75.46)" id="img-0a4eed91-116">
                <path d="M-0.23,-1.76 L0.23,-1.76 0.23,1.76 -0.23,1.76  z" class="primitive"/>
              </g>
              <g transform="translate(66.67,77.22)" id="img-0a4eed91-117">
                <path d="M-0.23,-0 L0.23,-0 0.23,0 -0.23,0  z" class="primitive"/>
              </g>
              <g transform="translate(67.08,77.22)" id="img-0a4eed91-118">
                <path d="M-0.23,-0 L0.23,-0 0.23,0 -0.23,0  z" class="primitive"/>
              </g>
              <g transform="translate(67.48,77.22)" id="img-0a4eed91-119">
                <path d="M-0.23,-0 L0.23,-0 0.23,0 -0.23,0  z" class="primitive"/>
              </g>
              <g transform="translate(67.89,77.22)" id="img-0a4eed91-120">
                <path d="M-0.23,-0 L0.23,-0 0.23,0 -0.23,0  z" class="primitive"/>
              </g>
              <g transform="translate(68.3,77.22)" id="img-0a4eed91-121">
                <path d="M-0.23,-0 L0.23,-0 0.23,0 -0.23,0  z" class="primitive"/>
              </g>
              <g transform="translate(68.7,77.22)" id="img-0a4eed91-122">
                <path d="M-0.23,-0 L0.23,-0 0.23,0 -0.23,0  z" class="primitive"/>
              </g>
              <g transform="translate(69.11,77.22)" id="img-0a4eed91-123">
                <path d="M-0.23,-0 L0.23,-0 0.23,0 -0.23,0  z" class="primitive"/>
              </g>
              <g transform="translate(69.51,77.22)" id="img-0a4eed91-124">
                <path d="M-0.23,-0 L0.23,-0 0.23,0 -0.23,0  z" class="primitive"/>
              </g>
              <g transform="translate(69.92,77.22)" id="img-0a4eed91-125">
                <path d="M-0.23,-0 L0.23,-0 0.23,0 -0.23,0  z" class="primitive"/>
              </g>
              <g transform="translate(70.32,77.22)" id="img-0a4eed91-126">
                <path d="M-0.23,-0 L0.23,-0 0.23,0 -0.23,0  z" class="primitive"/>
              </g>
              <g transform="translate(70.73,77.22)" id="img-0a4eed91-127">
                <path d="M-0.23,-0 L0.23,-0 0.23,0 -0.23,0  z" class="primitive"/>
              </g>
              <g transform="translate(71.14,77.22)" id="img-0a4eed91-128">
                <path d="M-0.23,-0 L0.23,-0 0.23,0 -0.23,0  z" class="primitive"/>
              </g>
              <g transform="translate(71.54,77.22)" id="img-0a4eed91-129">
                <path d="M-0.23,-0 L0.23,-0 0.23,0 -0.23,0  z" class="primitive"/>
              </g>
              <g transform="translate(71.95,76.34)" id="img-0a4eed91-130">
                <path d="M-0.23,-0.88 L0.23,-0.88 0.23,0.88 -0.23,0.88  z" class="primitive"/>
              </g>
            </g>
          </g>
        </g>
      </g>
    </g>
  </g>
  <g class="guide ylabels" font-size="2.82" font-family="'PT Sans Caption','Helvetica Neue','Helvetica',sans-serif" fill="#6C606B" id="img-0a4eed91-131">
    <g transform="translate(16.96,77.21)" id="img-0a4eed91-132">
      <g class="primitive">
        <text text-anchor="end" dy="0.35em">0</text>
      </g>
    </g>
    <g transform="translate(16.96,59.66)" id="img-0a4eed91-133">
      <g class="primitive">
        <text text-anchor="end" dy="0.35em">10</text>
      </g>
    </g>
    <g transform="translate(16.96,42.11)" id="img-0a4eed91-134">
      <g class="primitive">
        <text text-anchor="end" dy="0.35em">20</text>
      </g>
    </g>
    <g transform="translate(16.96,24.55)" id="img-0a4eed91-135">
      <g class="primitive">
        <text text-anchor="end" dy="0.35em">30</text>
      </g>
    </g>
    <g transform="translate(16.96,7)" id="img-0a4eed91-136">
      <g class="primitive">
        <text text-anchor="end" dy="0.35em">40</text>
      </g>
    </g>
  </g>
  <g font-size="3.88" font-family="'PT Sans','Helvetica Neue','Helvetica',sans-serif" fill="#564A55" stroke="#000000" stroke-opacity="0.000" id="img-0a4eed91-137">
    <g transform="translate(8.81,40.11)" id="img-0a4eed91-138">
      <g class="primitive">
        <text text-anchor="middle" dy="0.35em" transform="rotate(-90,0, 2)">frequency</text>
      </g>
    </g>
  </g>
</g>
<defs>
  <clipPath id="img-0a4eed91-11">
    <path d="M17.96,5 L85.8,5 85.8,79.21 17.96,79.21 " />
  </clipPath>
</defs>
</svg>
