<?xml version="1.0" encoding="UTF-8"?>
<svg xmlns="http://www.w3.org/2000/svg"
     xmlns:xlink="http://www.w3.org/1999/xlink"
     xmlns:gadfly="http://www.gadflyjl.org/ns"
     version="1.2"
     width="140mm" height="80mm" viewBox="0 0 140 80"
     stroke="none"
     fill="#000000"
     stroke-width="0.3"
     font-size="3.88"
>
<defs>
  <marker id="arrow" markerWidth="15" markerHeight="7" refX="5" refY="3.5" orient="auto" markerUnits="strokeWidth">
    <path d="M0,0 L15,3.5 L0,7 z" stroke="context-stroke" fill="context-stroke"/>
  </marker>
</defs>
<g class="plotroot xscalable yscalable" id="img-65e4fa9e-1">
  <g class="guide xlabels" font-size="2.82" font-family="'PT Sans Caption','Helvetica Neue','Helvetica',sans-serif" fill="#6C606B" id="img-65e4fa9e-2">
    <g transform="translate(19.96,71.33)">
      <g class="primitive">
        <text text-anchor="middle" dy="0.6em">12.95</text>
      </g>
    </g>
    <g transform="translate(31.25,71.33)">
      <g class="primitive">
        <text text-anchor="middle" dy="0.6em">13.00</text>
      </g>
    </g>
    <g transform="translate(42.55,71.33)">
      <g class="primitive">
        <text text-anchor="middle" dy="0.6em">13.05</text>
      </g>
    </g>
    <g transform="translate(53.85,71.33)">
      <g class="primitive">
        <text text-anchor="middle" dy="0.6em">13.10</text>
      </g>
    </g>
    <g transform="translate(65.14,71.33)">
      <g class="primitive">
        <text text-anchor="middle" dy="0.6em">13.15</text>
      </g>
    </g>
    <g transform="translate(76.44,71.33)">
      <g class="primitive">
        <text text-anchor="middle" dy="0.6em">13.20</text>
      </g>
    </g>
  </g>
  <g class="guide colorkey" id="img-65e4fa9e-3">
    <g class="color_noncoding_noncoding_coding_coding_4-tail" id="img-65e4fa9e-4">
      <g fill="#4C404B" font-size="2.82" font-family="'PT Sans','Helvetica Neue','Helvetica',sans-serif" id="img-65e4fa9e-5">
        <g transform="translate(82.25,39.48)" id="img-65e4fa9e-6">
          <g class="primitive">
            <text dy="0.35em">noncoding_noncoding_coding_coding_4-tail</text>
          </g>
        </g>
      </g>
      <g fill-opacity="1" fill="#00BFFF" stroke="#FFFFFF" id="img-65e4fa9e-7">
        <g transform="translate(80.35,39.48)" id="img-65e4fa9e-8">
          <path d="M-0.91,-0.91 L 0.91 -0.91 0.91 0.91 -0.91 0.91 z" class="primitive"/>
        </g>
      </g>
    </g>
    <g fill="#362A35" font-size="3.88" font-family="'PT Sans','Helvetica Neue','Helvetica',sans-serif" stroke="#000000" stroke-opacity="0.000" id="img-65e4fa9e-9">
      <g transform="translate(79.44,35.66)" id="img-65e4fa9e-10">
        <g class="primitive">
          <text dy="-0em">graphlet</text>
        </g>
      </g>
    </g>
  </g>
  <g clip-path="url(#img-65e4fa9e-11)">
    <g id="img-65e4fa9e-12">
      <g pointer-events="visible" stroke-width="0.3" fill="#000000" fill-opacity="0.000" stroke="#000000" stroke-opacity="0.000" class="guide background" id="img-65e4fa9e-13">
        <g transform="translate(48.2,37.66)" id="img-65e4fa9e-14">
          <path d="M-30.24,-32.66 L 30.24 -32.66 30.24 32.66 -30.24 32.66 z" class="primitive"/>
        </g>
      </g>
      <g class="guide ygridlines xfixed" stroke-dasharray="0.5,0.5" stroke-width="0.2" stroke="#D0D0E0" id="img-65e4fa9e-15">
        <g transform="translate(48.2,68.33)" id="img-65e4fa9e-16">
          <path fill="none" d="M-30.24,0 L 30.24 0" class="primitive"/>
        </g>
        <g transform="translate(48.2,53)" id="img-65e4fa9e-17">
          <path fill="none" d="M-30.24,0 L 30.24 0" class="primitive"/>
        </g>
        <g transform="translate(48.2,37.66)" id="img-65e4fa9e-18">
          <path fill="none" d="M-30.24,0 L 30.24 0" class="primitive"/>
        </g>
        <g transform="translate(48.2,22.33)" id="img-65e4fa9e-19">
          <path fill="none" d="M-30.24,0 L 30.24 0" class="primitive"/>
        </g>
        <g transform="translate(48.2,7)" id="img-65e4fa9e-20">
          <path fill="none" d="M-30.24,0 L 30.24 0" class="primitive"/>
        </g>
      </g>
      <g class="guide xgridlines yfixed" stroke-dasharray="0.5,0.5" stroke-width="0.2" stroke="#D0D0E0" id="img-65e4fa9e-21">
        <g transform="translate(19.96,37.66)" id="img-65e4fa9e-22">
          <path fill="none" d="M0,-32.66 L 0 32.66" class="primitive"/>
        </g>
        <g transform="translate(31.25,37.66)" id="img-65e4fa9e-23">
          <path fill="none" d="M0,-32.66 L 0 32.66" class="primitive"/>
        </g>
        <g transform="translate(42.55,37.66)" id="img-65e4fa9e-24">
          <path fill="none" d="M0,-32.66 L 0 32.66" class="primitive"/>
        </g>
        <g transform="translate(53.85,37.66)" id="img-65e4fa9e-25">
          <path fill="none" d="M0,-32.66 L 0 32.66" class="primitive"/>
        </g>
        <g transform="translate(65.14,37.66)" id="img-65e4fa9e-26">
          <path fill="none" d="M0,-32.66 L 0 32.66" class="primitive"/>
        </g>
        <g transform="translate(76.44,37.66)" id="img-65e4fa9e-27">
          <path fill="none" d="M0,-32.66 L 0 32.66" class="primitive"/>
        </g>
      </g>
      <g class="plotpanel" id="img-65e4fa9e-28">
        <metadata>
          <boundingbox value="17.95833333333333mm 5.0mm 60.48166666666667mm 65.32666666666667mm"/>
          <unitbox value="12.941147570007969 41.30448961843679 0.2677048599840656 -42.60897923687358"/>
        </metadata>
        <g shape-rendering="crispEdges" stroke-width="0.3" id="img-65e4fa9e-29">
          <g stroke="#000000" stroke-opacity="0.000" class="geometry" id="img-65e4fa9e-30">
            <g fill="#00BFFF" id="img-65e4fa9e-31">
              <g transform="translate(25.15,67.56)" id="img-65e4fa9e-32">
                <path d="M-0.26,-0.77 L 0.26 -0.77 0.26 0.77 -0.26 0.77 z" class="primitive"/>
              </g>
              <g transform="translate(25.63,68.33)" id="img-65e4fa9e-33">
                <path d="M-0.26,-0 L 0.26 -0 0.26 0 -0.26 0 z" class="primitive"/>
              </g>
              <g transform="translate(26.1,68.33)" id="img-65e4fa9e-34">
                <path d="M-0.26,-0 L 0.26 -0 0.26 0 -0.26 0 z" class="primitive"/>
              </g>
              <g transform="translate(26.57,68.33)" id="img-65e4fa9e-35">
                <path d="M-0.26,-0 L 0.26 -0 0.26 0 -0.26 0 z" class="primitive"/>
              </g>
              <g transform="translate(27.04,67.56)" id="img-65e4fa9e-36">
                <path d="M-0.26,-0.77 L 0.26 -0.77 0.26 0.77 -0.26 0.77 z" class="primitive"/>
              </g>
              <g transform="translate(27.51,67.56)" id="img-65e4fa9e-37">
                <path d="M-0.26,-0.77 L 0.26 -0.77 0.26 0.77 -0.26 0.77 z" class="primitive"/>
              </g>
              <g transform="translate(27.98,67.56)" id="img-65e4fa9e-38">
                <path d="M-0.26,-0.77 L 0.26 -0.77 0.26 0.77 -0.26 0.77 z" class="primitive"/>
              </g>
              <g transform="translate(28.46,68.33)" id="img-65e4fa9e-39">
                <path d="M-0.26,-0 L 0.26 -0 0.26 0 -0.26 0 z" class="primitive"/>
              </g>
              <g transform="translate(28.93,66.03)" id="img-65e4fa9e-40">
                <path d="M-0.26,-2.3 L 0.26 -2.3 0.26 2.3 -0.26 2.3 z" class="primitive"/>
              </g>
              <g transform="translate(29.4,66.79)" id="img-65e4fa9e-41">
                <path d="M-0.26,-1.53 L 0.26 -1.53 0.26 1.53 -0.26 1.53 z" class="primitive"/>
              </g>
              <g transform="translate(29.87,65.26)" id="img-65e4fa9e-42">
                <path d="M-0.26,-3.07 L 0.26 -3.07 0.26 3.07 -0.26 3.07 z" class="primitive"/>
              </g>
              <g transform="translate(30.34,68.33)" id="img-65e4fa9e-43">
                <path d="M-0.26,-0 L 0.26 -0 0.26 0 -0.26 0 z" class="primitive"/>
              </g>
              <g transform="translate(30.81,67.56)" id="img-65e4fa9e-44">
                <path d="M-0.26,-0.77 L 0.26 -0.77 0.26 0.77 -0.26 0.77 z" class="primitive"/>
              </g>
              <g transform="translate(31.28,66.79)" id="img-65e4fa9e-45">
                <path d="M-0.26,-1.53 L 0.26 -1.53 0.26 1.53 -0.26 1.53 z" class="primitive"/>
              </g>
              <g transform="translate(31.76,66.03)" id="img-65e4fa9e-46">
                <path d="M-0.26,-2.3 L 0.26 -2.3 0.26 2.3 -0.26 2.3 z" class="primitive"/>
              </g>
              <g transform="translate(32.23,66.03)" id="img-65e4fa9e-47">
                <path d="M-0.26,-2.3 L 0.26 -2.3 0.26 2.3 -0.26 2.3 z" class="primitive"/>
              </g>
              <g transform="translate(32.7,64.49)" id="img-65e4fa9e-48">
                <path d="M-0.26,-3.83 L 0.26 -3.83 0.26 3.83 -0.26 3.83 z" class="primitive"/>
              </g>
              <g transform="translate(33.17,64.49)" id="img-65e4fa9e-49">
                <path d="M-0.26,-3.83 L 0.26 -3.83 0.26 3.83 -0.26 3.83 z" class="primitive"/>
              </g>
              <g transform="translate(33.64,63.73)" id="img-65e4fa9e-50">
                <path d="M-0.26,-4.6 L 0.26 -4.6 0.26 4.6 -0.26 4.6 z" class="primitive"/>
              </g>
              <g transform="translate(34.11,64.49)" id="img-65e4fa9e-51">
                <path d="M-0.26,-3.83 L 0.26 -3.83 0.26 3.83 -0.26 3.83 z" class="primitive"/>
              </g>
              <g transform="translate(34.58,67.56)" id="img-65e4fa9e-52">
                <path d="M-0.26,-0.77 L 0.26 -0.77 0.26 0.77 -0.26 0.77 z" class="primitive"/>
              </g>
              <g transform="translate(35.06,60.66)" id="img-65e4fa9e-53">
                <path d="M-0.26,-7.67 L 0.26 -7.67 0.26 7.67 -0.26 7.67 z" class="primitive"/>
              </g>
              <g transform="translate(35.53,64.49)" id="img-65e4fa9e-54">
                <path d="M-0.26,-3.83 L 0.26 -3.83 0.26 3.83 -0.26 3.83 z" class="primitive"/>
              </g>
              <g transform="translate(36,67.56)" id="img-65e4fa9e-55">
                <path d="M-0.26,-0.77 L 0.26 -0.77 0.26 0.77 -0.26 0.77 z" class="primitive"/>
              </g>
              <g transform="translate(36.47,63.73)" id="img-65e4fa9e-56">
                <path d="M-0.26,-4.6 L 0.26 -4.6 0.26 4.6 -0.26 4.6 z" class="primitive"/>
              </g>
              <g transform="translate(36.94,58.36)" id="img-65e4fa9e-57">
                <path d="M-0.26,-9.97 L 0.26 -9.97 0.26 9.97 -0.26 9.97 z" class="primitive"/>
              </g>
              <g transform="translate(37.41,63.73)" id="img-65e4fa9e-58">
                <path d="M-0.26,-4.6 L 0.26 -4.6 0.26 4.6 -0.26 4.6 z" class="primitive"/>
              </g>
              <g transform="translate(37.89,61.43)" id="img-65e4fa9e-59">
                <path d="M-0.26,-6.9 L 0.26 -6.9 0.26 6.9 -0.26 6.9 z" class="primitive"/>
              </g>
              <g transform="translate(38.36,63.73)" id="img-65e4fa9e-60">
                <path d="M-0.26,-4.6 L 0.26 -4.6 0.26 4.6 -0.26 4.6 z" class="primitive"/>
              </g>
              <g transform="translate(38.83,55.29)" id="img-65e4fa9e-61">
                <path d="M-0.26,-13.03 L 0.26 -13.03 0.26 13.03 -0.26 13.03 z" class="primitive"/>
              </g>
              <g transform="translate(39.3,59.13)" id="img-65e4fa9e-62">
                <path d="M-0.26,-9.2 L 0.26 -9.2 0.26 9.2 -0.26 9.2 z" class="primitive"/>
              </g>
              <g transform="translate(39.77,59.89)" id="img-65e4fa9e-63">
                <path d="M-0.26,-8.43 L 0.26 -8.43 0.26 8.43 -0.26 8.43 z" class="primitive"/>
              </g>
              <g transform="translate(40.24,56.83)" id="img-65e4fa9e-64">
                <path d="M-0.26,-11.5 L 0.26 -11.5 0.26 11.5 -0.26 11.5 z" class="primitive"/>
              </g>
              <g transform="translate(40.71,58.36)" id="img-65e4fa9e-65">
                <path d="M-0.26,-9.97 L 0.26 -9.97 0.26 9.97 -0.26 9.97 z" class="primitive"/>
              </g>
              <g transform="translate(41.19,59.13)" id="img-65e4fa9e-66">
                <path d="M-0.26,-9.2 L 0.26 -9.2 0.26 9.2 -0.26 9.2 z" class="primitive"/>
              </g>
              <g transform="translate(41.66,58.36)" id="img-65e4fa9e-67">
                <path d="M-0.26,-9.97 L 0.26 -9.97 0.26 9.97 -0.26 9.97 z" class="primitive"/>
              </g>
              <g transform="translate(42.13,63.73)" id="img-65e4fa9e-68">
                <path d="M-0.26,-4.6 L 0.26 -4.6 0.26 4.6 -0.26 4.6 z" class="primitive"/>
              </g>
              <g transform="translate(42.6,53.76)" id="img-65e4fa9e-69">
                <path d="M-0.26,-14.57 L 0.26 -14.57 0.26 14.57 -0.26 14.57 z" class="primitive"/>
              </g>
              <g transform="translate(43.07,51.46)" id="img-65e4fa9e-70">
                <path d="M-0.26,-16.86 L 0.26 -16.86 0.26 16.86 -0.26 16.86 z" class="primitive"/>
              </g>
              <g transform="translate(43.54,56.06)" id="img-65e4fa9e-71">
                <path d="M-0.26,-12.27 L 0.26 -12.27 0.26 12.27 -0.26 12.27 z" class="primitive"/>
              </g>
              <g transform="translate(44.02,58.36)" id="img-65e4fa9e-72">
                <path d="M-0.26,-9.97 L 0.26 -9.97 0.26 9.97 -0.26 9.97 z" class="primitive"/>
              </g>
              <g transform="translate(44.49,47.63)" id="img-65e4fa9e-73">
                <path d="M-0.26,-20.7 L 0.26 -20.7 0.26 20.7 -0.26 20.7 z" class="primitive"/>
              </g>
              <g transform="translate(44.96,52.23)" id="img-65e4fa9e-74">
                <path d="M-0.26,-16.1 L 0.26 -16.1 0.26 16.1 -0.26 16.1 z" class="primitive"/>
              </g>
              <g transform="translate(45.43,46.1)" id="img-65e4fa9e-75">
                <path d="M-0.26,-22.23 L 0.26 -22.23 0.26 22.23 -0.26 22.23 z" class="primitive"/>
              </g>
              <g transform="translate(45.9,52.23)" id="img-65e4fa9e-76">
                <path d="M-0.26,-16.1 L 0.26 -16.1 0.26 16.1 -0.26 16.1 z" class="primitive"/>
              </g>
              <g transform="translate(46.37,52.23)" id="img-65e4fa9e-77">
                <path d="M-0.26,-16.1 L 0.26 -16.1 0.26 16.1 -0.26 16.1 z" class="primitive"/>
              </g>
              <g transform="translate(46.84,56.83)" id="img-65e4fa9e-78">
                <path d="M-0.26,-11.5 L 0.26 -11.5 0.26 11.5 -0.26 11.5 z" class="primitive"/>
              </g>
              <g transform="translate(47.32,49.93)" id="img-65e4fa9e-79">
                <path d="M-0.26,-18.4 L 0.26 -18.4 0.26 18.4 -0.26 18.4 z" class="primitive"/>
              </g>
              <g transform="translate(47.79,45.33)" id="img-65e4fa9e-80">
                <path d="M-0.26,-23 L 0.26 -23 0.26 23 -0.26 23 z" class="primitive"/>
              </g>
              <g transform="translate(48.26,52.23)" id="img-65e4fa9e-81">
                <path d="M-0.26,-16.1 L 0.26 -16.1 0.26 16.1 -0.26 16.1 z" class="primitive"/>
              </g>
              <g transform="translate(48.73,50.7)" id="img-65e4fa9e-82">
                <path d="M-0.26,-17.63 L 0.26 -17.63 0.26 17.63 -0.26 17.63 z" class="primitive"/>
              </g>
              <g transform="translate(49.2,49.93)" id="img-65e4fa9e-83">
                <path d="M-0.26,-18.4 L 0.26 -18.4 0.26 18.4 -0.26 18.4 z" class="primitive"/>
              </g>
              <g transform="translate(49.67,54.53)" id="img-65e4fa9e-84">
                <path d="M-0.26,-13.8 L 0.26 -13.8 0.26 13.8 -0.26 13.8 z" class="primitive"/>
              </g>
              <g transform="translate(50.14,49.93)" id="img-65e4fa9e-85">
                <path d="M-0.26,-18.4 L 0.26 -18.4 0.26 18.4 -0.26 18.4 z" class="primitive"/>
              </g>
              <g transform="translate(50.62,44.56)" id="img-65e4fa9e-86">
                <path d="M-0.26,-23.76 L 0.26 -23.76 0.26 23.76 -0.26 23.76 z" class="primitive"/>
              </g>
              <g transform="translate(51.09,49.16)" id="img-65e4fa9e-87">
                <path d="M-0.26,-19.16 L 0.26 -19.16 0.26 19.16 -0.26 19.16 z" class="primitive"/>
              </g>
              <g transform="translate(51.56,53)" id="img-65e4fa9e-88">
                <path d="M-0.26,-15.33 L 0.26 -15.33 0.26 15.33 -0.26 15.33 z" class="primitive"/>
              </g>
              <g transform="translate(52.03,54.53)" id="img-65e4fa9e-89">
                <path d="M-0.26,-13.8 L 0.26 -13.8 0.26 13.8 -0.26 13.8 z" class="primitive"/>
              </g>
              <g transform="translate(52.5,50.7)" id="img-65e4fa9e-90">
                <path d="M-0.26,-17.63 L 0.26 -17.63 0.26 17.63 -0.26 17.63 z" class="primitive"/>
              </g>
              <g transform="translate(52.97,56.06)" id="img-65e4fa9e-91">
                <path d="M-0.26,-12.27 L 0.26 -12.27 0.26 12.27 -0.26 12.27 z" class="primitive"/>
              </g>
              <g transform="translate(53.45,46.1)" id="img-65e4fa9e-92">
                <path d="M-0.26,-22.23 L 0.26 -22.23 0.26 22.23 -0.26 22.23 z" class="primitive"/>
              </g>
              <g transform="translate(53.92,52.23)" id="img-65e4fa9e-93">
                <path d="M-0.26,-16.1 L 0.26 -16.1 0.26 16.1 -0.26 16.1 z" class="primitive"/>
              </g>
              <g transform="translate(54.39,59.13)" id="img-65e4fa9e-94">
                <path d="M-0.26,-9.2 L 0.26 -9.2 0.26 9.2 -0.26 9.2 z" class="primitive"/>
              </g>
              <g transform="translate(54.86,52.23)" id="img-65e4fa9e-95">
                <path d="M-0.26,-16.1 L 0.26 -16.1 0.26 16.1 -0.26 16.1 z" class="primitive"/>
              </g>
              <g transform="translate(55.33,57.59)" id="img-65e4fa9e-96">
                <path d="M-0.26,-10.73 L 0.26 -10.73 0.26 10.73 -0.26 10.73 z" class="primitive"/>
              </g>
              <g transform="translate(55.8,59.89)" id="img-65e4fa9e-97">
                <path d="M-0.26,-8.43 L 0.26 -8.43 0.26 8.43 -0.26 8.43 z" class="primitive"/>
              </g>
              <g transform="translate(56.27,57.59)" id="img-65e4fa9e-98">
                <path d="M-0.26,-10.73 L 0.26 -10.73 0.26 10.73 -0.26 10.73 z" class="primitive"/>
              </g>
              <g transform="translate(56.75,53)" id="img-65e4fa9e-99">
                <path d="M-0.26,-15.33 L 0.26 -15.33 0.26 15.33 -0.26 15.33 z" class="primitive"/>
              </g>
              <g transform="translate(57.22,56.83)" id="img-65e4fa9e-100">
                <path d="M-0.26,-11.5 L 0.26 -11.5 0.26 11.5 -0.26 11.5 z" class="primitive"/>
              </g>
              <g transform="translate(57.69,62.19)" id="img-65e4fa9e-101">
                <path d="M-0.26,-6.13 L 0.26 -6.13 0.26 6.13 -0.26 6.13 z" class="primitive"/>
              </g>
              <g transform="translate(58.16,56.06)" id="img-65e4fa9e-102">
                <path d="M-0.26,-12.27 L 0.26 -12.27 0.26 12.27 -0.26 12.27 z" class="primitive"/>
              </g>
              <g transform="translate(58.63,62.96)" id="img-65e4fa9e-103">
                <path d="M-0.26,-5.37 L 0.26 -5.37 0.26 5.37 -0.26 5.37 z" class="primitive"/>
              </g>
              <g transform="translate(59.1,59.13)" id="img-65e4fa9e-104">
                <path d="M-0.26,-9.2 L 0.26 -9.2 0.26 9.2 -0.26 9.2 z" class="primitive"/>
              </g>
              <g transform="translate(59.58,59.89)" id="img-65e4fa9e-105">
                <path d="M-0.26,-8.43 L 0.26 -8.43 0.26 8.43 -0.26 8.43 z" class="primitive"/>
              </g>
              <g transform="translate(60.05,61.43)" id="img-65e4fa9e-106">
                <path d="M-0.26,-6.9 L 0.26 -6.9 0.26 6.9 -0.26 6.9 z" class="primitive"/>
              </g>
              <g transform="translate(60.52,61.43)" id="img-65e4fa9e-107">
                <path d="M-0.26,-6.9 L 0.26 -6.9 0.26 6.9 -0.26 6.9 z" class="primitive"/>
              </g>
              <g transform="translate(60.99,62.19)" id="img-65e4fa9e-108">
                <path d="M-0.26,-6.13 L 0.26 -6.13 0.26 6.13 -0.26 6.13 z" class="primitive"/>
              </g>
              <g transform="translate(61.46,65.26)" id="img-65e4fa9e-109">
                <path d="M-0.26,-3.07 L 0.26 -3.07 0.26 3.07 -0.26 3.07 z" class="primitive"/>
              </g>
              <g transform="translate(61.93,63.73)" id="img-65e4fa9e-110">
                <path d="M-0.26,-4.6 L 0.26 -4.6 0.26 4.6 -0.26 4.6 z" class="primitive"/>
              </g>
              <g transform="translate(62.4,66.03)" id="img-65e4fa9e-111">
                <path d="M-0.26,-2.3 L 0.26 -2.3 0.26 2.3 -0.26 2.3 z" class="primitive"/>
              </g>
              <g transform="translate(62.88,64.49)" id="img-65e4fa9e-112">
                <path d="M-0.26,-3.83 L 0.26 -3.83 0.26 3.83 -0.26 3.83 z" class="primitive"/>
              </g>
              <g transform="translate(63.35,61.43)" id="img-65e4fa9e-113">
                <path d="M-0.26,-6.9 L 0.26 -6.9 0.26 6.9 -0.26 6.9 z" class="primitive"/>
              </g>
              <g transform="translate(63.82,62.96)" id="img-65e4fa9e-114">
                <path d="M-0.26,-5.37 L 0.26 -5.37 0.26 5.37 -0.26 5.37 z" class="primitive"/>
              </g>
              <g transform="translate(64.29,64.49)" id="img-65e4fa9e-115">
                <path d="M-0.26,-3.83 L 0.26 -3.83 0.26 3.83 -0.26 3.83 z" class="primitive"/>
              </g>
              <g transform="translate(64.76,64.49)" id="img-65e4fa9e-116">
                <path d="M-0.26,-3.83 L 0.26 -3.83 0.26 3.83 -0.26 3.83 z" class="primitive"/>
              </g>
              <g transform="translate(65.23,66.03)" id="img-65e4fa9e-117">
                <path d="M-0.26,-2.3 L 0.26 -2.3 0.26 2.3 -0.26 2.3 z" class="primitive"/>
              </g>
              <g transform="translate(65.7,67.56)" id="img-65e4fa9e-118">
                <path d="M-0.26,-0.77 L 0.26 -0.77 0.26 0.77 -0.26 0.77 z" class="primitive"/>
              </g>
              <g transform="translate(66.18,67.56)" id="img-65e4fa9e-119">
                <path d="M-0.26,-0.77 L 0.26 -0.77 0.26 0.77 -0.26 0.77 z" class="primitive"/>
              </g>
              <g transform="translate(66.65,67.56)" id="img-65e4fa9e-120">
                <path d="M-0.26,-0.77 L 0.26 -0.77 0.26 0.77 -0.26 0.77 z" class="primitive"/>
              </g>
              <g transform="translate(67.12,67.56)" id="img-65e4fa9e-121">
                <path d="M-0.26,-0.77 L 0.26 -0.77 0.26 0.77 -0.26 0.77 z" class="primitive"/>
              </g>
              <g transform="translate(67.59,68.33)" id="img-65e4fa9e-122">
                <path d="M-0.26,-0 L 0.26 -0 0.26 0 -0.26 0 z" class="primitive"/>
              </g>
              <g transform="translate(68.06,66.79)" id="img-65e4fa9e-123">
                <path d="M-0.26,-1.53 L 0.26 -1.53 0.26 1.53 -0.26 1.53 z" class="primitive"/>
              </g>
              <g transform="translate(68.53,67.56)" id="img-65e4fa9e-124">
                <path d="M-0.26,-0.77 L 0.26 -0.77 0.26 0.77 -0.26 0.77 z" class="primitive"/>
              </g>
              <g transform="translate(69.01,66.79)" id="img-65e4fa9e-125">
                <path d="M-0.26,-1.53 L 0.26 -1.53 0.26 1.53 -0.26 1.53 z" class="primitive"/>
              </g>
              <g transform="translate(69.48,66.03)" id="img-65e4fa9e-126">
                <path d="M-0.26,-2.3 L 0.26 -2.3 0.26 2.3 -0.26 2.3 z" class="primitive"/>
              </g>
              <g transform="translate(69.95,68.33)" id="img-65e4fa9e-127">
                <path d="M-0.26,-0 L 0.26 -0 0.26 0 -0.26 0 z" class="primitive"/>
              </g>
              <g transform="translate(70.42,68.33)" id="img-65e4fa9e-128">
                <path d="M-0.26,-0 L 0.26 -0 0.26 0 -0.26 0 z" class="primitive"/>
              </g>
              <g transform="translate(70.89,67.56)" id="img-65e4fa9e-129">
                <path d="M-0.26,-0.77 L 0.26 -0.77 0.26 0.77 -0.26 0.77 z" class="primitive"/>
              </g>
              <g transform="translate(71.36,67.56)" id="img-65e4fa9e-130">
                <path d="M-0.26,-0.77 L 0.26 -0.77 0.26 0.77 -0.26 0.77 z" class="primitive"/>
              </g>
              <g transform="translate(71.83,66.79)" id="img-65e4fa9e-131">
                <path d="M-0.26,-1.53 L 0.26 -1.53 0.26 1.53 -0.26 1.53 z" class="primitive"/>
              </g>
            </g>
          </g>
        </g>
      </g>
    </g>
  </g>
  <g class="guide ylabels" font-size="2.82" font-family="'PT Sans Caption','Helvetica Neue','Helvetica',sans-serif" fill="#6C606B" id="img-65e4fa9e-132">
    <g transform="translate(16.96,68.33)" id="img-65e4fa9e-133">
      <g class="primitive">
        <text text-anchor="end" dy="0.35em">0</text>
      </g>
    </g>
    <g transform="translate(16.96,53)" id="img-65e4fa9e-134">
      <g class="primitive">
        <text text-anchor="end" dy="0.35em">10</text>
      </g>
    </g>
    <g transform="translate(16.96,37.66)" id="img-65e4fa9e-135">
      <g class="primitive">
        <text text-anchor="end" dy="0.35em">20</text>
      </g>
    </g>
    <g transform="translate(16.96,22.33)" id="img-65e4fa9e-136">
      <g class="primitive">
        <text text-anchor="end" dy="0.35em">30</text>
      </g>
    </g>
    <g transform="translate(16.96,7)" id="img-65e4fa9e-137">
      <g class="primitive">
        <text text-anchor="end" dy="0.35em">40</text>
      </g>
    </g>
  </g>
  <g font-size="3.88" font-family="'PT Sans','Helvetica Neue','Helvetica',sans-serif" fill="#564A55" stroke="#000000" stroke-opacity="0.000" id="img-65e4fa9e-138">
    <g transform="translate(8.81,35.66)" id="img-65e4fa9e-139">
      <g class="primitive">
        <text text-anchor="middle" dy="0.35em" transform="rotate(-90,0, 2)">frequency</text>
      </g>
    </g>
  </g>
</g>
<defs>
  <clipPath id="img-65e4fa9e-11">
    <path d="M17.96,5 L 78.44 5 78.44 70.33 17.96 70.33" />
  </clipPath>
</defs>
</svg>
