<?xml version="1.0" encoding="UTF-8"?>
<svg xmlns="http://www.w3.org/2000/svg"
     xmlns:xlink="http://www.w3.org/1999/xlink"
     xmlns:gadfly="http://www.gadflyjl.org/ns"
     version="1.2"
     width="141.42mm" height="100mm" viewBox="0 0 141.42 100"
     stroke="none"
     fill="#000000"
     stroke-width="0.3"
     font-size="3.88"
>
<defs>
  <marker id="arrow" markerWidth="15" markerHeight="7" refX="5" refY="3.5" orient="auto" markerUnits="strokeWidth">
    <path d="M0,0 L15,3.5 L0,7 z" stroke="context-stroke" fill="context-stroke"/>
  </marker>
</defs>
<g class="plotroot xscalable yscalable" id="img-1c9bf333-1">
  <g class="guide xlabels" font-size="2.82" font-family="'PT Sans Caption','Helvetica Neue','Helvetica',sans-serif" fill="#6C606B" id="img-1c9bf333-2">
    <g transform="translate(21.63,91.33)">
      <g class="primitive">
        <text text-anchor="middle" dy="0.6em">0</text>
      </g>
    </g>
    <g transform="translate(28.99,91.33)">
      <g class="primitive">
        <text text-anchor="middle" dy="0.6em">1</text>
      </g>
    </g>
    <g transform="translate(36.36,91.33)">
      <g class="primitive">
        <text text-anchor="middle" dy="0.6em">2</text>
      </g>
    </g>
    <g transform="translate(43.72,91.33)">
      <g class="primitive">
        <text text-anchor="middle" dy="0.6em">3</text>
      </g>
    </g>
    <g transform="translate(51.08,91.33)">
      <g class="primitive">
        <text text-anchor="middle" dy="0.6em">4</text>
      </g>
    </g>
    <g transform="translate(58.45,91.33)">
      <g class="primitive">
        <text text-anchor="middle" dy="0.6em">5</text>
      </g>
    </g>
    <g transform="translate(65.81,91.33)">
      <g class="primitive">
        <text text-anchor="middle" dy="0.6em">6</text>
      </g>
    </g>
  </g>
  <g class="guide colorkey" id="img-1c9bf333-3">
    <g class="color_noncoding_noncoding_noncoding_noncoding_4-chord" id="img-1c9bf333-4">
      <g fill="#4C404B" font-size="2.82" font-family="'PT Sans','Helvetica Neue','Helvetica',sans-serif" id="img-1c9bf333-5">
        <g transform="translate(71.62,49.48)" id="img-1c9bf333-6">
          <g class="primitive">
            <text dy="0.35em">noncoding_noncoding_noncoding_noncoding_4-chord</text>
          </g>
        </g>
      </g>
      <g fill-opacity="1" fill="#00BFFF" stroke="#FFFFFF" id="img-1c9bf333-7">
        <g transform="translate(69.71,49.48)" id="img-1c9bf333-8">
          <path d="M-0.91,-0.91 L 0.91 -0.91 0.91 0.91 -0.91 0.91 z" class="primitive"/>
        </g>
      </g>
    </g>
    <g fill="#362A35" font-size="3.88" font-family="'PT Sans','Helvetica Neue','Helvetica',sans-serif" stroke="#000000" stroke-opacity="0.000" id="img-1c9bf333-9">
      <g transform="translate(68.81,45.66)" id="img-1c9bf333-10">
        <g class="primitive">
          <text dy="-0em">graphlet</text>
        </g>
      </g>
    </g>
  </g>
  <g clip-path="url(#img-1c9bf333-11)">
    <g id="img-1c9bf333-12">
      <g pointer-events="visible" stroke-width="0.3" fill="#000000" fill-opacity="0.000" stroke="#000000" stroke-opacity="0.000" class="guide background" id="img-1c9bf333-13">
        <g transform="translate(43.72,47.66)" id="img-1c9bf333-14">
          <path d="M-24.09,-42.66 L 24.09 -42.66 24.09 42.66 -24.09 42.66 z" class="primitive"/>
        </g>
      </g>
      <g class="guide ygridlines xfixed" stroke-dasharray="0.5,0.5" stroke-width="0.2" stroke="#D0D0E0" id="img-1c9bf333-15">
        <g transform="translate(43.72,88.33)" id="img-1c9bf333-16">
          <path fill="none" d="M-24.09,0 L 24.09 0" class="primitive"/>
        </g>
        <g transform="translate(43.72,61.22)" id="img-1c9bf333-17">
          <path fill="none" d="M-24.09,0 L 24.09 0" class="primitive"/>
        </g>
        <g transform="translate(43.72,34.11)" id="img-1c9bf333-18">
          <path fill="none" d="M-24.09,0 L 24.09 0" class="primitive"/>
        </g>
        <g transform="translate(43.72,7)" id="img-1c9bf333-19">
          <path fill="none" d="M-24.09,0 L 24.09 0" class="primitive"/>
        </g>
      </g>
      <g class="guide xgridlines yfixed" stroke-dasharray="0.5,0.5" stroke-width="0.2" stroke="#D0D0E0" id="img-1c9bf333-20">
        <g transform="translate(21.63,47.66)" id="img-1c9bf333-21">
          <path fill="none" d="M0,-42.66 L 0 42.66" class="primitive"/>
        </g>
        <g transform="translate(28.99,47.66)" id="img-1c9bf333-22">
          <path fill="none" d="M0,-42.66 L 0 42.66" class="primitive"/>
        </g>
        <g transform="translate(36.36,47.66)" id="img-1c9bf333-23">
          <path fill="none" d="M0,-42.66 L 0 42.66" class="primitive"/>
        </g>
        <g transform="translate(43.72,47.66)" id="img-1c9bf333-24">
          <path fill="none" d="M0,-42.66 L 0 42.66" class="primitive"/>
        </g>
        <g transform="translate(51.08,47.66)" id="img-1c9bf333-25">
          <path fill="none" d="M0,-42.66 L 0 42.66" class="primitive"/>
        </g>
        <g transform="translate(58.45,47.66)" id="img-1c9bf333-26">
          <path fill="none" d="M0,-42.66 L 0 42.66" class="primitive"/>
        </g>
        <g transform="translate(65.81,47.66)" id="img-1c9bf333-27">
          <path fill="none" d="M0,-42.66 L 0 42.66" class="primitive"/>
        </g>
      </g>
      <g class="plotpanel" id="img-1c9bf333-28">
        <metadata>
          <boundingbox value="19.631666666666668mm 5.0mm 48.17635623730952mm 85.32666666666667mm"/>
          <unitbox value="-0.2716385193821236 153.68882695302895 6.543277038764247 -157.37765390605787"/>
        </metadata>
        <g shape-rendering="crispEdges" stroke-width="0.3" id="img-1c9bf333-29">
          <g stroke="#000000" stroke-opacity="0.000" class="geometry" id="img-1c9bf333-30">
            <g fill="#00BFFF" id="img-1c9bf333-31">
              <g transform="translate(21.84,50.1)" id="img-1c9bf333-32">
                <path d="M-0.24,-38.22 L 0.24 -38.22 0.24 38.22 -0.24 38.22 z" class="primitive"/>
              </g>
              <g transform="translate(22.26,88.33)" id="img-1c9bf333-33">
                <path d="M-0.24,-0 L 0.24 -0 0.24 0 -0.24 0 z" class="primitive"/>
              </g>
              <g transform="translate(22.68,88.33)" id="img-1c9bf333-34">
                <path d="M-0.24,-0 L 0.24 -0 0.24 0 -0.24 0 z" class="primitive"/>
              </g>
              <g transform="translate(23.1,88.33)" id="img-1c9bf333-35">
                <path d="M-0.24,-0 L 0.24 -0 0.24 0 -0.24 0 z" class="primitive"/>
              </g>
              <g transform="translate(23.53,88.33)" id="img-1c9bf333-36">
                <path d="M-0.24,-0 L 0.24 -0 0.24 0 -0.24 0 z" class="primitive"/>
              </g>
              <g transform="translate(23.95,88.33)" id="img-1c9bf333-37">
                <path d="M-0.24,-0 L 0.24 -0 0.24 0 -0.24 0 z" class="primitive"/>
              </g>
              <g transform="translate(24.37,88.33)" id="img-1c9bf333-38">
                <path d="M-0.24,-0 L 0.24 -0 0.24 0 -0.24 0 z" class="primitive"/>
              </g>
              <g transform="translate(24.79,88.33)" id="img-1c9bf333-39">
                <path d="M-0.24,-0 L 0.24 -0 0.24 0 -0.24 0 z" class="primitive"/>
              </g>
              <g transform="translate(25.21,88.33)" id="img-1c9bf333-40">
                <path d="M-0.24,-0 L 0.24 -0 0.24 0 -0.24 0 z" class="primitive"/>
              </g>
              <g transform="translate(25.63,88.33)" id="img-1c9bf333-41">
                <path d="M-0.24,-0 L 0.24 -0 0.24 0 -0.24 0 z" class="primitive"/>
              </g>
              <g transform="translate(26.05,88.33)" id="img-1c9bf333-42">
                <path d="M-0.24,-0 L 0.24 -0 0.24 0 -0.24 0 z" class="primitive"/>
              </g>
              <g transform="translate(26.47,88.33)" id="img-1c9bf333-43">
                <path d="M-0.24,-0 L 0.24 -0 0.24 0 -0.24 0 z" class="primitive"/>
              </g>
              <g transform="translate(26.89,76.13)" id="img-1c9bf333-44">
                <path d="M-0.24,-12.2 L 0.24 -12.2 0.24 12.2 -0.24 12.2 z" class="primitive"/>
              </g>
              <g transform="translate(27.31,88.33)" id="img-1c9bf333-45">
                <path d="M-0.24,-0 L 0.24 -0 0.24 0 -0.24 0 z" class="primitive"/>
              </g>
              <g transform="translate(27.73,88.33)" id="img-1c9bf333-46">
                <path d="M-0.24,-0 L 0.24 -0 0.24 0 -0.24 0 z" class="primitive"/>
              </g>
              <g transform="translate(28.15,88.33)" id="img-1c9bf333-47">
                <path d="M-0.24,-0 L 0.24 -0 0.24 0 -0.24 0 z" class="primitive"/>
              </g>
              <g transform="translate(28.58,88.33)" id="img-1c9bf333-48">
                <path d="M-0.24,-0 L 0.24 -0 0.24 0 -0.24 0 z" class="primitive"/>
              </g>
              <g transform="translate(29,88.33)" id="img-1c9bf333-49">
                <path d="M-0.24,-0 L 0.24 -0 0.24 0 -0.24 0 z" class="primitive"/>
              </g>
              <g transform="translate(29.42,88.33)" id="img-1c9bf333-50">
                <path d="M-0.24,-0 L 0.24 -0 0.24 0 -0.24 0 z" class="primitive"/>
              </g>
              <g transform="translate(29.84,74.77)" id="img-1c9bf333-51">
                <path d="M-0.24,-13.55 L 0.24 -13.55 0.24 13.55 -0.24 13.55 z" class="primitive"/>
              </g>
              <g transform="translate(30.26,88.33)" id="img-1c9bf333-52">
                <path d="M-0.24,-0 L 0.24 -0 0.24 0 -0.24 0 z" class="primitive"/>
              </g>
              <g transform="translate(30.68,88.33)" id="img-1c9bf333-53">
                <path d="M-0.24,-0 L 0.24 -0 0.24 0 -0.24 0 z" class="primitive"/>
              </g>
              <g transform="translate(31.1,88.33)" id="img-1c9bf333-54">
                <path d="M-0.24,-0 L 0.24 -0 0.24 0 -0.24 0 z" class="primitive"/>
              </g>
              <g transform="translate(31.52,88.33)" id="img-1c9bf333-55">
                <path d="M-0.24,-0 L 0.24 -0 0.24 0 -0.24 0 z" class="primitive"/>
              </g>
              <g transform="translate(31.94,83.72)" id="img-1c9bf333-56">
                <path d="M-0.24,-4.61 L 0.24 -4.61 0.24 4.61 -0.24 4.61 z" class="primitive"/>
              </g>
              <g transform="translate(32.36,88.33)" id="img-1c9bf333-57">
                <path d="M-0.24,-0 L 0.24 -0 0.24 0 -0.24 0 z" class="primitive"/>
              </g>
              <g transform="translate(32.78,88.33)" id="img-1c9bf333-58">
                <path d="M-0.24,-0 L 0.24 -0 0.24 0 -0.24 0 z" class="primitive"/>
              </g>
              <g transform="translate(33.2,88.33)" id="img-1c9bf333-59">
                <path d="M-0.24,-0 L 0.24 -0 0.24 0 -0.24 0 z" class="primitive"/>
              </g>
              <g transform="translate(33.63,85.62)" id="img-1c9bf333-60">
                <path d="M-0.24,-2.71 L 0.24 -2.71 0.24 2.71 -0.24 2.71 z" class="primitive"/>
              </g>
              <g transform="translate(34.05,88.33)" id="img-1c9bf333-61">
                <path d="M-0.24,-0 L 0.24 -0 0.24 0 -0.24 0 z" class="primitive"/>
              </g>
              <g transform="translate(34.47,88.33)" id="img-1c9bf333-62">
                <path d="M-0.24,-0 L 0.24 -0 0.24 0 -0.24 0 z" class="primitive"/>
              </g>
              <g transform="translate(34.89,83.72)" id="img-1c9bf333-63">
                <path d="M-0.24,-4.61 L 0.24 -4.61 0.24 4.61 -0.24 4.61 z" class="primitive"/>
              </g>
              <g transform="translate(35.31,88.33)" id="img-1c9bf333-64">
                <path d="M-0.24,-0 L 0.24 -0 0.24 0 -0.24 0 z" class="primitive"/>
              </g>
              <g transform="translate(35.73,88.33)" id="img-1c9bf333-65">
                <path d="M-0.24,-0 L 0.24 -0 0.24 0 -0.24 0 z" class="primitive"/>
              </g>
              <g transform="translate(36.15,86.43)" id="img-1c9bf333-66">
                <path d="M-0.24,-1.9 L 0.24 -1.9 0.24 1.9 -0.24 1.9 z" class="primitive"/>
              </g>
              <g transform="translate(36.57,88.33)" id="img-1c9bf333-67">
                <path d="M-0.24,-0 L 0.24 -0 0.24 0 -0.24 0 z" class="primitive"/>
              </g>
              <g transform="translate(36.99,87.51)" id="img-1c9bf333-68">
                <path d="M-0.24,-0.81 L 0.24 -0.81 0.24 0.81 -0.24 0.81 z" class="primitive"/>
              </g>
              <g transform="translate(37.41,88.33)" id="img-1c9bf333-69">
                <path d="M-0.24,-0 L 0.24 -0 0.24 0 -0.24 0 z" class="primitive"/>
              </g>
              <g transform="translate(37.83,87.24)" id="img-1c9bf333-70">
                <path d="M-0.24,-1.08 L 0.24 -1.08 0.24 1.08 -0.24 1.08 z" class="primitive"/>
              </g>
              <g transform="translate(38.25,88.33)" id="img-1c9bf333-71">
                <path d="M-0.24,-0 L 0.24 -0 0.24 0 -0.24 0 z" class="primitive"/>
              </g>
              <g transform="translate(38.68,87.24)" id="img-1c9bf333-72">
                <path d="M-0.24,-1.08 L 0.24 -1.08 0.24 1.08 -0.24 1.08 z" class="primitive"/>
              </g>
              <g transform="translate(39.1,87.24)" id="img-1c9bf333-73">
                <path d="M-0.24,-1.08 L 0.24 -1.08 0.24 1.08 -0.24 1.08 z" class="primitive"/>
              </g>
              <g transform="translate(39.52,88.33)" id="img-1c9bf333-74">
                <path d="M-0.24,-0 L 0.24 -0 0.24 0 -0.24 0 z" class="primitive"/>
              </g>
              <g transform="translate(39.94,87.78)" id="img-1c9bf333-75">
                <path d="M-0.24,-0.54 L 0.24 -0.54 0.24 0.54 -0.24 0.54 z" class="primitive"/>
              </g>
              <g transform="translate(40.36,87.78)" id="img-1c9bf333-76">
                <path d="M-0.24,-0.54 L 0.24 -0.54 0.24 0.54 -0.24 0.54 z" class="primitive"/>
              </g>
              <g transform="translate(40.78,88.33)" id="img-1c9bf333-77">
                <path d="M-0.24,-0 L 0.24 -0 0.24 0 -0.24 0 z" class="primitive"/>
              </g>
              <g transform="translate(41.2,87.78)" id="img-1c9bf333-78">
                <path d="M-0.24,-0.54 L 0.24 -0.54 0.24 0.54 -0.24 0.54 z" class="primitive"/>
              </g>
              <g transform="translate(41.62,87.24)" id="img-1c9bf333-79">
                <path d="M-0.24,-1.08 L 0.24 -1.08 0.24 1.08 -0.24 1.08 z" class="primitive"/>
              </g>
              <g transform="translate(42.04,88.06)" id="img-1c9bf333-80">
                <path d="M-0.24,-0.27 L 0.24 -0.27 0.24 0.27 -0.24 0.27 z" class="primitive"/>
              </g>
              <g transform="translate(42.46,88.06)" id="img-1c9bf333-81">
                <path d="M-0.24,-0.27 L 0.24 -0.27 0.24 0.27 -0.24 0.27 z" class="primitive"/>
              </g>
              <g transform="translate(42.88,87.78)" id="img-1c9bf333-82">
                <path d="M-0.24,-0.54 L 0.24 -0.54 0.24 0.54 -0.24 0.54 z" class="primitive"/>
              </g>
              <g transform="translate(43.31,88.33)" id="img-1c9bf333-83">
                <path d="M-0.24,-0 L 0.24 -0 0.24 0 -0.24 0 z" class="primitive"/>
              </g>
              <g transform="translate(43.73,88.33)" id="img-1c9bf333-84">
                <path d="M-0.24,-0 L 0.24 -0 0.24 0 -0.24 0 z" class="primitive"/>
              </g>
              <g transform="translate(44.15,88.06)" id="img-1c9bf333-85">
                <path d="M-0.24,-0.27 L 0.24 -0.27 0.24 0.27 -0.24 0.27 z" class="primitive"/>
              </g>
              <g transform="translate(44.57,88.33)" id="img-1c9bf333-86">
                <path d="M-0.24,-0 L 0.24 -0 0.24 0 -0.24 0 z" class="primitive"/>
              </g>
              <g transform="translate(44.99,88.33)" id="img-1c9bf333-87">
                <path d="M-0.24,-0 L 0.24 -0 0.24 0 -0.24 0 z" class="primitive"/>
              </g>
              <g transform="translate(45.41,88.33)" id="img-1c9bf333-88">
                <path d="M-0.24,-0 L 0.24 -0 0.24 0 -0.24 0 z" class="primitive"/>
              </g>
              <g transform="translate(45.83,88.33)" id="img-1c9bf333-89">
                <path d="M-0.24,-0 L 0.24 -0 0.24 0 -0.24 0 z" class="primitive"/>
              </g>
              <g transform="translate(46.25,88.33)" id="img-1c9bf333-90">
                <path d="M-0.24,-0 L 0.24 -0 0.24 0 -0.24 0 z" class="primitive"/>
              </g>
              <g transform="translate(46.67,88.33)" id="img-1c9bf333-91">
                <path d="M-0.24,-0 L 0.24 -0 0.24 0 -0.24 0 z" class="primitive"/>
              </g>
              <g transform="translate(47.09,88.06)" id="img-1c9bf333-92">
                <path d="M-0.24,-0.27 L 0.24 -0.27 0.24 0.27 -0.24 0.27 z" class="primitive"/>
              </g>
              <g transform="translate(47.51,88.33)" id="img-1c9bf333-93">
                <path d="M-0.24,-0 L 0.24 -0 0.24 0 -0.24 0 z" class="primitive"/>
              </g>
              <g transform="translate(47.93,88.33)" id="img-1c9bf333-94">
                <path d="M-0.24,-0 L 0.24 -0 0.24 0 -0.24 0 z" class="primitive"/>
              </g>
              <g transform="translate(48.36,88.33)" id="img-1c9bf333-95">
                <path d="M-0.24,-0 L 0.24 -0 0.24 0 -0.24 0 z" class="primitive"/>
              </g>
              <g transform="translate(48.78,88.33)" id="img-1c9bf333-96">
                <path d="M-0.24,-0 L 0.24 -0 0.24 0 -0.24 0 z" class="primitive"/>
              </g>
              <g transform="translate(49.2,88.33)" id="img-1c9bf333-97">
                <path d="M-0.24,-0 L 0.24 -0 0.24 0 -0.24 0 z" class="primitive"/>
              </g>
              <g transform="translate(49.62,88.33)" id="img-1c9bf333-98">
                <path d="M-0.24,-0 L 0.24 -0 0.24 0 -0.24 0 z" class="primitive"/>
              </g>
              <g transform="translate(50.04,88.33)" id="img-1c9bf333-99">
                <path d="M-0.24,-0 L 0.24 -0 0.24 0 -0.24 0 z" class="primitive"/>
              </g>
              <g transform="translate(50.46,88.33)" id="img-1c9bf333-100">
                <path d="M-0.24,-0 L 0.24 -0 0.24 0 -0.24 0 z" class="primitive"/>
              </g>
              <g transform="translate(50.88,88.33)" id="img-1c9bf333-101">
                <path d="M-0.24,-0 L 0.24 -0 0.24 0 -0.24 0 z" class="primitive"/>
              </g>
              <g transform="translate(51.3,88.33)" id="img-1c9bf333-102">
                <path d="M-0.24,-0 L 0.24 -0 0.24 0 -0.24 0 z" class="primitive"/>
              </g>
              <g transform="translate(51.72,88.33)" id="img-1c9bf333-103">
                <path d="M-0.24,-0 L 0.24 -0 0.24 0 -0.24 0 z" class="primitive"/>
              </g>
              <g transform="translate(52.14,88.33)" id="img-1c9bf333-104">
                <path d="M-0.24,-0 L 0.24 -0 0.24 0 -0.24 0 z" class="primitive"/>
              </g>
              <g transform="translate(52.56,88.33)" id="img-1c9bf333-105">
                <path d="M-0.24,-0 L 0.24 -0 0.24 0 -0.24 0 z" class="primitive"/>
              </g>
              <g transform="translate(52.98,88.33)" id="img-1c9bf333-106">
                <path d="M-0.24,-0 L 0.24 -0 0.24 0 -0.24 0 z" class="primitive"/>
              </g>
              <g transform="translate(53.41,88.33)" id="img-1c9bf333-107">
                <path d="M-0.24,-0 L 0.24 -0 0.24 0 -0.24 0 z" class="primitive"/>
              </g>
              <g transform="translate(53.83,88.33)" id="img-1c9bf333-108">
                <path d="M-0.24,-0 L 0.24 -0 0.24 0 -0.24 0 z" class="primitive"/>
              </g>
              <g transform="translate(54.25,88.33)" id="img-1c9bf333-109">
                <path d="M-0.24,-0 L 0.24 -0 0.24 0 -0.24 0 z" class="primitive"/>
              </g>
              <g transform="translate(54.67,88.33)" id="img-1c9bf333-110">
                <path d="M-0.24,-0 L 0.24 -0 0.24 0 -0.24 0 z" class="primitive"/>
              </g>
              <g transform="translate(55.09,88.33)" id="img-1c9bf333-111">
                <path d="M-0.24,-0 L 0.24 -0 0.24 0 -0.24 0 z" class="primitive"/>
              </g>
              <g transform="translate(55.51,88.33)" id="img-1c9bf333-112">
                <path d="M-0.24,-0 L 0.24 -0 0.24 0 -0.24 0 z" class="primitive"/>
              </g>
              <g transform="translate(55.93,88.33)" id="img-1c9bf333-113">
                <path d="M-0.24,-0 L 0.24 -0 0.24 0 -0.24 0 z" class="primitive"/>
              </g>
              <g transform="translate(56.35,88.33)" id="img-1c9bf333-114">
                <path d="M-0.24,-0 L 0.24 -0 0.24 0 -0.24 0 z" class="primitive"/>
              </g>
              <g transform="translate(56.77,88.33)" id="img-1c9bf333-115">
                <path d="M-0.24,-0 L 0.24 -0 0.24 0 -0.24 0 z" class="primitive"/>
              </g>
              <g transform="translate(57.19,88.33)" id="img-1c9bf333-116">
                <path d="M-0.24,-0 L 0.24 -0 0.24 0 -0.24 0 z" class="primitive"/>
              </g>
              <g transform="translate(57.61,88.33)" id="img-1c9bf333-117">
                <path d="M-0.24,-0 L 0.24 -0 0.24 0 -0.24 0 z" class="primitive"/>
              </g>
              <g transform="translate(58.03,88.33)" id="img-1c9bf333-118">
                <path d="M-0.24,-0 L 0.24 -0 0.24 0 -0.24 0 z" class="primitive"/>
              </g>
              <g transform="translate(58.46,88.33)" id="img-1c9bf333-119">
                <path d="M-0.24,-0 L 0.24 -0 0.24 0 -0.24 0 z" class="primitive"/>
              </g>
              <g transform="translate(58.88,88.33)" id="img-1c9bf333-120">
                <path d="M-0.24,-0 L 0.24 -0 0.24 0 -0.24 0 z" class="primitive"/>
              </g>
              <g transform="translate(59.3,88.33)" id="img-1c9bf333-121">
                <path d="M-0.24,-0 L 0.24 -0 0.24 0 -0.24 0 z" class="primitive"/>
              </g>
              <g transform="translate(59.72,88.33)" id="img-1c9bf333-122">
                <path d="M-0.24,-0 L 0.24 -0 0.24 0 -0.24 0 z" class="primitive"/>
              </g>
              <g transform="translate(60.14,88.33)" id="img-1c9bf333-123">
                <path d="M-0.24,-0 L 0.24 -0 0.24 0 -0.24 0 z" class="primitive"/>
              </g>
              <g transform="translate(60.56,88.33)" id="img-1c9bf333-124">
                <path d="M-0.24,-0 L 0.24 -0 0.24 0 -0.24 0 z" class="primitive"/>
              </g>
              <g transform="translate(60.98,88.33)" id="img-1c9bf333-125">
                <path d="M-0.24,-0 L 0.24 -0 0.24 0 -0.24 0 z" class="primitive"/>
              </g>
              <g transform="translate(61.4,88.33)" id="img-1c9bf333-126">
                <path d="M-0.24,-0 L 0.24 -0 0.24 0 -0.24 0 z" class="primitive"/>
              </g>
              <g transform="translate(61.82,88.33)" id="img-1c9bf333-127">
                <path d="M-0.24,-0 L 0.24 -0 0.24 0 -0.24 0 z" class="primitive"/>
              </g>
              <g transform="translate(62.24,88.33)" id="img-1c9bf333-128">
                <path d="M-0.24,-0 L 0.24 -0 0.24 0 -0.24 0 z" class="primitive"/>
              </g>
              <g transform="translate(62.66,88.33)" id="img-1c9bf333-129">
                <path d="M-0.24,-0 L 0.24 -0 0.24 0 -0.24 0 z" class="primitive"/>
              </g>
              <g transform="translate(63.08,88.33)" id="img-1c9bf333-130">
                <path d="M-0.24,-0 L 0.24 -0 0.24 0 -0.24 0 z" class="primitive"/>
              </g>
              <g transform="translate(63.51,88.33)" id="img-1c9bf333-131">
                <path d="M-0.24,-0 L 0.24 -0 0.24 0 -0.24 0 z" class="primitive"/>
              </g>
            </g>
          </g>
        </g>
      </g>
    </g>
  </g>
  <g class="guide ylabels" font-size="2.82" font-family="'PT Sans Caption','Helvetica Neue','Helvetica',sans-serif" fill="#6C606B" id="img-1c9bf333-132">
    <g transform="translate(18.63,88.33)" id="img-1c9bf333-133">
      <g class="primitive">
        <text text-anchor="end" dy="0.35em">0</text>
      </g>
    </g>
    <g transform="translate(18.63,61.22)" id="img-1c9bf333-134">
      <g class="primitive">
        <text text-anchor="end" dy="0.35em">50</text>
      </g>
    </g>
    <g transform="translate(18.63,34.11)" id="img-1c9bf333-135">
      <g class="primitive">
        <text text-anchor="end" dy="0.35em">100</text>
      </g>
    </g>
    <g transform="translate(18.63,7)" id="img-1c9bf333-136">
      <g class="primitive">
        <text text-anchor="end" dy="0.35em">150</text>
      </g>
    </g>
  </g>
  <g font-size="3.88" font-family="'PT Sans','Helvetica Neue','Helvetica',sans-serif" fill="#564A55" stroke="#000000" stroke-opacity="0.000" id="img-1c9bf333-137">
    <g transform="translate(8.81,45.66)" id="img-1c9bf333-138">
      <g class="primitive">
        <text text-anchor="middle" dy="0.35em" transform="rotate(-90,0, 2)">frequency</text>
      </g>
    </g>
  </g>
</g>
<defs>
  <clipPath id="img-1c9bf333-11">
    <path d="M19.63,5 L 67.81 5 67.81 90.33 19.63 90.33" />
  </clipPath>
</defs>
</svg>
