<?xml version="1.0" encoding="UTF-8"?>
<svg xmlns="http://www.w3.org/2000/svg"
     xmlns:xlink="http://www.w3.org/1999/xlink"
     xmlns:gadfly="http://www.gadflyjl.org/ns"
     version="1.2"
     width="140mm" height="80mm" viewBox="0 0 140 80"
     stroke="none"
     fill="#000000"
     stroke-width="0.3"
     font-size="3.88"
>
<defs>
  <marker id="arrow" markerWidth="15" markerHeight="7" refX="5" refY="3.5" orient="auto" markerUnits="strokeWidth">
    <path d="M0,0 L15,3.5 L0,7 z" stroke="context-stroke" fill="context-stroke"/>
  </marker>
</defs>
<g class="plotroot xscalable yscalable" id="img-54a19b4a-1">
  <g class="guide xlabels" font-size="2.82" font-family="'PT Sans Caption','Helvetica Neue','Helvetica',sans-serif" fill="#6C606B" id="img-54a19b4a-2">
    <g transform="translate(19.96,71.33)">
      <g class="primitive">
        <text text-anchor="middle" dy="0.6em">7.5</text>
      </g>
    </g>
    <g transform="translate(34.77,71.33)">
      <g class="primitive">
        <text text-anchor="middle" dy="0.6em">8.0</text>
      </g>
    </g>
    <g transform="translate(49.58,71.33)">
      <g class="primitive">
        <text text-anchor="middle" dy="0.6em">8.5</text>
      </g>
    </g>
    <g transform="translate(64.39,71.33)">
      <g class="primitive">
        <text text-anchor="middle" dy="0.6em">9.0</text>
      </g>
    </g>
  </g>
  <g class="guide colorkey" id="img-54a19b4a-3">
    <g class="color_noncoding_noncoding_noncoding_noncoding_4-chord" id="img-54a19b4a-4">
      <g fill="#4C404B" font-size="2.82" font-family="'PT Sans','Helvetica Neue','Helvetica',sans-serif" id="img-54a19b4a-5">
        <g transform="translate(70.2,39.48)" id="img-54a19b4a-6">
          <g class="primitive">
            <text dy="0.35em">noncoding_noncoding_noncoding_noncoding_4-chord</text>
          </g>
        </g>
      </g>
      <g fill-opacity="1" fill="#00BFFF" stroke="#FFFFFF" id="img-54a19b4a-7">
        <g transform="translate(68.29,39.48)" id="img-54a19b4a-8">
          <path d="M-0.91,-0.91 L 0.91 -0.91 0.91 0.91 -0.91 0.91 z" class="primitive"/>
        </g>
      </g>
    </g>
    <g fill="#362A35" font-size="3.88" font-family="'PT Sans','Helvetica Neue','Helvetica',sans-serif" stroke="#000000" stroke-opacity="0.000" id="img-54a19b4a-9">
      <g transform="translate(67.39,35.66)" id="img-54a19b4a-10">
        <g class="primitive">
          <text dy="-0em">graphlet</text>
        </g>
      </g>
    </g>
  </g>
  <g clip-path="url(#img-54a19b4a-11)">
    <g id="img-54a19b4a-12">
      <g pointer-events="visible" stroke-width="0.3" fill="#000000" fill-opacity="0.000" stroke="#000000" stroke-opacity="0.000" class="guide background" id="img-54a19b4a-13">
        <g transform="translate(42.17,37.66)" id="img-54a19b4a-14">
          <path d="M-24.21,-32.66 L 24.21 -32.66 24.21 32.66 -24.21 32.66 z" class="primitive"/>
        </g>
      </g>
      <g class="guide ygridlines xfixed" stroke-dasharray="0.5,0.5" stroke-width="0.2" stroke="#D0D0E0" id="img-54a19b4a-15">
        <g transform="translate(42.17,68.33)" id="img-54a19b4a-16">
          <path fill="none" d="M-24.21,0 L 24.21 0" class="primitive"/>
        </g>
        <g transform="translate(42.17,53)" id="img-54a19b4a-17">
          <path fill="none" d="M-24.21,0 L 24.21 0" class="primitive"/>
        </g>
        <g transform="translate(42.17,37.66)" id="img-54a19b4a-18">
          <path fill="none" d="M-24.21,0 L 24.21 0" class="primitive"/>
        </g>
        <g transform="translate(42.17,22.33)" id="img-54a19b4a-19">
          <path fill="none" d="M-24.21,0 L 24.21 0" class="primitive"/>
        </g>
        <g transform="translate(42.17,7)" id="img-54a19b4a-20">
          <path fill="none" d="M-24.21,0 L 24.21 0" class="primitive"/>
        </g>
      </g>
      <g class="guide xgridlines yfixed" stroke-dasharray="0.5,0.5" stroke-width="0.2" stroke="#D0D0E0" id="img-54a19b4a-21">
        <g transform="translate(19.96,37.66)" id="img-54a19b4a-22">
          <path fill="none" d="M0,-32.66 L 0 32.66" class="primitive"/>
        </g>
        <g transform="translate(34.77,37.66)" id="img-54a19b4a-23">
          <path fill="none" d="M0,-32.66 L 0 32.66" class="primitive"/>
        </g>
        <g transform="translate(49.58,37.66)" id="img-54a19b4a-24">
          <path fill="none" d="M0,-32.66 L 0 32.66" class="primitive"/>
        </g>
        <g transform="translate(64.39,37.66)" id="img-54a19b4a-25">
          <path fill="none" d="M0,-32.66 L 0 32.66" class="primitive"/>
        </g>
      </g>
      <g class="plotpanel" id="img-54a19b4a-26">
        <metadata>
          <boundingbox value="17.95833333333333mm 5.0mm 48.42833333333333mm 65.32666666666667mm"/>
          <unitbox value="7.432475522376862 41.30448961843679 1.635048955246277 -42.60897923687358"/>
        </metadata>
        <g shape-rendering="crispEdges" stroke-width="0.3" id="img-54a19b4a-27">
          <g stroke="#000000" stroke-opacity="0.000" class="geometry" id="img-54a19b4a-28">
            <g fill="#00BFFF" id="img-54a19b4a-29">
              <g transform="translate(23.27,67.56)" id="img-54a19b4a-30">
                <path d="M-0.22,-0.77 L 0.22 -0.77 0.22 0.77 -0.22 0.77 z" class="primitive"/>
              </g>
              <g transform="translate(23.66,68.33)" id="img-54a19b4a-31">
                <path d="M-0.22,-0 L 0.22 -0 0.22 0 -0.22 0 z" class="primitive"/>
              </g>
              <g transform="translate(24.05,68.33)" id="img-54a19b4a-32">
                <path d="M-0.22,-0 L 0.22 -0 0.22 0 -0.22 0 z" class="primitive"/>
              </g>
              <g transform="translate(24.44,68.33)" id="img-54a19b4a-33">
                <path d="M-0.22,-0 L 0.22 -0 0.22 0 -0.22 0 z" class="primitive"/>
              </g>
              <g transform="translate(24.82,68.33)" id="img-54a19b4a-34">
                <path d="M-0.22,-0 L 0.22 -0 0.22 0 -0.22 0 z" class="primitive"/>
              </g>
              <g transform="translate(25.21,68.33)" id="img-54a19b4a-35">
                <path d="M-0.22,-0 L 0.22 -0 0.22 0 -0.22 0 z" class="primitive"/>
              </g>
              <g transform="translate(25.6,67.56)" id="img-54a19b4a-36">
                <path d="M-0.22,-0.77 L 0.22 -0.77 0.22 0.77 -0.22 0.77 z" class="primitive"/>
              </g>
              <g transform="translate(25.99,68.33)" id="img-54a19b4a-37">
                <path d="M-0.22,-0 L 0.22 -0 0.22 0 -0.22 0 z" class="primitive"/>
              </g>
              <g transform="translate(26.37,68.33)" id="img-54a19b4a-38">
                <path d="M-0.22,-0 L 0.22 -0 0.22 0 -0.22 0 z" class="primitive"/>
              </g>
              <g transform="translate(26.76,68.33)" id="img-54a19b4a-39">
                <path d="M-0.22,-0 L 0.22 -0 0.22 0 -0.22 0 z" class="primitive"/>
              </g>
              <g transform="translate(27.15,67.56)" id="img-54a19b4a-40">
                <path d="M-0.22,-0.77 L 0.22 -0.77 0.22 0.77 -0.22 0.77 z" class="primitive"/>
              </g>
              <g transform="translate(27.53,68.33)" id="img-54a19b4a-41">
                <path d="M-0.22,-0 L 0.22 -0 0.22 0 -0.22 0 z" class="primitive"/>
              </g>
              <g transform="translate(27.92,67.56)" id="img-54a19b4a-42">
                <path d="M-0.22,-0.77 L 0.22 -0.77 0.22 0.77 -0.22 0.77 z" class="primitive"/>
              </g>
              <g transform="translate(28.31,68.33)" id="img-54a19b4a-43">
                <path d="M-0.22,-0 L 0.22 -0 0.22 0 -0.22 0 z" class="primitive"/>
              </g>
              <g transform="translate(28.7,66.79)" id="img-54a19b4a-44">
                <path d="M-0.22,-1.53 L 0.22 -1.53 0.22 1.53 -0.22 1.53 z" class="primitive"/>
              </g>
              <g transform="translate(29.08,67.56)" id="img-54a19b4a-45">
                <path d="M-0.22,-0.77 L 0.22 -0.77 0.22 0.77 -0.22 0.77 z" class="primitive"/>
              </g>
              <g transform="translate(29.47,68.33)" id="img-54a19b4a-46">
                <path d="M-0.22,-0 L 0.22 -0 0.22 0 -0.22 0 z" class="primitive"/>
              </g>
              <g transform="translate(29.86,68.33)" id="img-54a19b4a-47">
                <path d="M-0.22,-0 L 0.22 -0 0.22 0 -0.22 0 z" class="primitive"/>
              </g>
              <g transform="translate(30.25,66.03)" id="img-54a19b4a-48">
                <path d="M-0.22,-2.3 L 0.22 -2.3 0.22 2.3 -0.22 2.3 z" class="primitive"/>
              </g>
              <g transform="translate(30.63,66.03)" id="img-54a19b4a-49">
                <path d="M-0.22,-2.3 L 0.22 -2.3 0.22 2.3 -0.22 2.3 z" class="primitive"/>
              </g>
              <g transform="translate(31.02,66.03)" id="img-54a19b4a-50">
                <path d="M-0.22,-2.3 L 0.22 -2.3 0.22 2.3 -0.22 2.3 z" class="primitive"/>
              </g>
              <g transform="translate(31.41,66.03)" id="img-54a19b4a-51">
                <path d="M-0.22,-2.3 L 0.22 -2.3 0.22 2.3 -0.22 2.3 z" class="primitive"/>
              </g>
              <g transform="translate(31.8,67.56)" id="img-54a19b4a-52">
                <path d="M-0.22,-0.77 L 0.22 -0.77 0.22 0.77 -0.22 0.77 z" class="primitive"/>
              </g>
              <g transform="translate(32.18,67.56)" id="img-54a19b4a-53">
                <path d="M-0.22,-0.77 L 0.22 -0.77 0.22 0.77 -0.22 0.77 z" class="primitive"/>
              </g>
              <g transform="translate(32.57,66.03)" id="img-54a19b4a-54">
                <path d="M-0.22,-2.3 L 0.22 -2.3 0.22 2.3 -0.22 2.3 z" class="primitive"/>
              </g>
              <g transform="translate(32.96,64.49)" id="img-54a19b4a-55">
                <path d="M-0.22,-3.83 L 0.22 -3.83 0.22 3.83 -0.22 3.83 z" class="primitive"/>
              </g>
              <g transform="translate(33.35,65.26)" id="img-54a19b4a-56">
                <path d="M-0.22,-3.07 L 0.22 -3.07 0.22 3.07 -0.22 3.07 z" class="primitive"/>
              </g>
              <g transform="translate(33.73,66.03)" id="img-54a19b4a-57">
                <path d="M-0.22,-2.3 L 0.22 -2.3 0.22 2.3 -0.22 2.3 z" class="primitive"/>
              </g>
              <g transform="translate(34.12,66.03)" id="img-54a19b4a-58">
                <path d="M-0.22,-2.3 L 0.22 -2.3 0.22 2.3 -0.22 2.3 z" class="primitive"/>
              </g>
              <g transform="translate(34.51,66.03)" id="img-54a19b4a-59">
                <path d="M-0.22,-2.3 L 0.22 -2.3 0.22 2.3 -0.22 2.3 z" class="primitive"/>
              </g>
              <g transform="translate(34.9,63.73)" id="img-54a19b4a-60">
                <path d="M-0.22,-4.6 L 0.22 -4.6 0.22 4.6 -0.22 4.6 z" class="primitive"/>
              </g>
              <g transform="translate(35.28,59.13)" id="img-54a19b4a-61">
                <path d="M-0.22,-9.2 L 0.22 -9.2 0.22 9.2 -0.22 9.2 z" class="primitive"/>
              </g>
              <g transform="translate(35.67,64.49)" id="img-54a19b4a-62">
                <path d="M-0.22,-3.83 L 0.22 -3.83 0.22 3.83 -0.22 3.83 z" class="primitive"/>
              </g>
              <g transform="translate(36.06,64.49)" id="img-54a19b4a-63">
                <path d="M-0.22,-3.83 L 0.22 -3.83 0.22 3.83 -0.22 3.83 z" class="primitive"/>
              </g>
              <g transform="translate(36.44,62.19)" id="img-54a19b4a-64">
                <path d="M-0.22,-6.13 L 0.22 -6.13 0.22 6.13 -0.22 6.13 z" class="primitive"/>
              </g>
              <g transform="translate(36.83,62.19)" id="img-54a19b4a-65">
                <path d="M-0.22,-6.13 L 0.22 -6.13 0.22 6.13 -0.22 6.13 z" class="primitive"/>
              </g>
              <g transform="translate(37.22,62.19)" id="img-54a19b4a-66">
                <path d="M-0.22,-6.13 L 0.22 -6.13 0.22 6.13 -0.22 6.13 z" class="primitive"/>
              </g>
              <g transform="translate(37.61,62.96)" id="img-54a19b4a-67">
                <path d="M-0.22,-5.37 L 0.22 -5.37 0.22 5.37 -0.22 5.37 z" class="primitive"/>
              </g>
              <g transform="translate(37.99,63.73)" id="img-54a19b4a-68">
                <path d="M-0.22,-4.6 L 0.22 -4.6 0.22 4.6 -0.22 4.6 z" class="primitive"/>
              </g>
              <g transform="translate(38.38,65.26)" id="img-54a19b4a-69">
                <path d="M-0.22,-3.07 L 0.22 -3.07 0.22 3.07 -0.22 3.07 z" class="primitive"/>
              </g>
              <g transform="translate(38.77,61.43)" id="img-54a19b4a-70">
                <path d="M-0.22,-6.9 L 0.22 -6.9 0.22 6.9 -0.22 6.9 z" class="primitive"/>
              </g>
              <g transform="translate(39.16,55.29)" id="img-54a19b4a-71">
                <path d="M-0.22,-13.03 L 0.22 -13.03 0.22 13.03 -0.22 13.03 z" class="primitive"/>
              </g>
              <g transform="translate(39.54,56.06)" id="img-54a19b4a-72">
                <path d="M-0.22,-12.27 L 0.22 -12.27 0.22 12.27 -0.22 12.27 z" class="primitive"/>
              </g>
              <g transform="translate(39.93,55.29)" id="img-54a19b4a-73">
                <path d="M-0.22,-13.03 L 0.22 -13.03 0.22 13.03 -0.22 13.03 z" class="primitive"/>
              </g>
              <g transform="translate(40.32,54.53)" id="img-54a19b4a-74">
                <path d="M-0.22,-13.8 L 0.22 -13.8 0.22 13.8 -0.22 13.8 z" class="primitive"/>
              </g>
              <g transform="translate(40.71,59.13)" id="img-54a19b4a-75">
                <path d="M-0.22,-9.2 L 0.22 -9.2 0.22 9.2 -0.22 9.2 z" class="primitive"/>
              </g>
              <g transform="translate(41.09,56.06)" id="img-54a19b4a-76">
                <path d="M-0.22,-12.27 L 0.22 -12.27 0.22 12.27 -0.22 12.27 z" class="primitive"/>
              </g>
              <g transform="translate(41.48,50.7)" id="img-54a19b4a-77">
                <path d="M-0.22,-17.63 L 0.22 -17.63 0.22 17.63 -0.22 17.63 z" class="primitive"/>
              </g>
              <g transform="translate(41.87,55.29)" id="img-54a19b4a-78">
                <path d="M-0.22,-13.03 L 0.22 -13.03 0.22 13.03 -0.22 13.03 z" class="primitive"/>
              </g>
              <g transform="translate(42.26,54.53)" id="img-54a19b4a-79">
                <path d="M-0.22,-13.8 L 0.22 -13.8 0.22 13.8 -0.22 13.8 z" class="primitive"/>
              </g>
              <g transform="translate(42.64,50.7)" id="img-54a19b4a-80">
                <path d="M-0.22,-17.63 L 0.22 -17.63 0.22 17.63 -0.22 17.63 z" class="primitive"/>
              </g>
              <g transform="translate(43.03,52.23)" id="img-54a19b4a-81">
                <path d="M-0.22,-16.1 L 0.22 -16.1 0.22 16.1 -0.22 16.1 z" class="primitive"/>
              </g>
              <g transform="translate(43.42,53)" id="img-54a19b4a-82">
                <path d="M-0.22,-15.33 L 0.22 -15.33 0.22 15.33 -0.22 15.33 z" class="primitive"/>
              </g>
              <g transform="translate(43.8,56.06)" id="img-54a19b4a-83">
                <path d="M-0.22,-12.27 L 0.22 -12.27 0.22 12.27 -0.22 12.27 z" class="primitive"/>
              </g>
              <g transform="translate(44.19,52.23)" id="img-54a19b4a-84">
                <path d="M-0.22,-16.1 L 0.22 -16.1 0.22 16.1 -0.22 16.1 z" class="primitive"/>
              </g>
              <g transform="translate(44.58,45.33)" id="img-54a19b4a-85">
                <path d="M-0.22,-23 L 0.22 -23 0.22 23 -0.22 23 z" class="primitive"/>
              </g>
              <g transform="translate(44.97,42.26)" id="img-54a19b4a-86">
                <path d="M-0.22,-26.06 L 0.22 -26.06 0.22 26.06 -0.22 26.06 z" class="primitive"/>
              </g>
              <g transform="translate(45.35,50.7)" id="img-54a19b4a-87">
                <path d="M-0.22,-17.63 L 0.22 -17.63 0.22 17.63 -0.22 17.63 z" class="primitive"/>
              </g>
              <g transform="translate(45.74,49.16)" id="img-54a19b4a-88">
                <path d="M-0.22,-19.16 L 0.22 -19.16 0.22 19.16 -0.22 19.16 z" class="primitive"/>
              </g>
              <g transform="translate(46.13,44.56)" id="img-54a19b4a-89">
                <path d="M-0.22,-23.76 L 0.22 -23.76 0.22 23.76 -0.22 23.76 z" class="primitive"/>
              </g>
              <g transform="translate(46.52,46.1)" id="img-54a19b4a-90">
                <path d="M-0.22,-22.23 L 0.22 -22.23 0.22 22.23 -0.22 22.23 z" class="primitive"/>
              </g>
              <g transform="translate(46.9,40.73)" id="img-54a19b4a-91">
                <path d="M-0.22,-27.6 L 0.22 -27.6 0.22 27.6 -0.22 27.6 z" class="primitive"/>
              </g>
              <g transform="translate(47.29,41.5)" id="img-54a19b4a-92">
                <path d="M-0.22,-26.83 L 0.22 -26.83 0.22 26.83 -0.22 26.83 z" class="primitive"/>
              </g>
              <g transform="translate(47.68,46.86)" id="img-54a19b4a-93">
                <path d="M-0.22,-21.46 L 0.22 -21.46 0.22 21.46 -0.22 21.46 z" class="primitive"/>
              </g>
              <g transform="translate(48.07,49.16)" id="img-54a19b4a-94">
                <path d="M-0.22,-19.16 L 0.22 -19.16 0.22 19.16 -0.22 19.16 z" class="primitive"/>
              </g>
              <g transform="translate(48.45,51.46)" id="img-54a19b4a-95">
                <path d="M-0.22,-16.86 L 0.22 -16.86 0.22 16.86 -0.22 16.86 z" class="primitive"/>
              </g>
              <g transform="translate(48.84,53.76)" id="img-54a19b4a-96">
                <path d="M-0.22,-14.57 L 0.22 -14.57 0.22 14.57 -0.22 14.57 z" class="primitive"/>
              </g>
              <g transform="translate(49.23,57.59)" id="img-54a19b4a-97">
                <path d="M-0.22,-10.73 L 0.22 -10.73 0.22 10.73 -0.22 10.73 z" class="primitive"/>
              </g>
              <g transform="translate(49.62,47.63)" id="img-54a19b4a-98">
                <path d="M-0.22,-20.7 L 0.22 -20.7 0.22 20.7 -0.22 20.7 z" class="primitive"/>
              </g>
              <g transform="translate(50,55.29)" id="img-54a19b4a-99">
                <path d="M-0.22,-13.03 L 0.22 -13.03 0.22 13.03 -0.22 13.03 z" class="primitive"/>
              </g>
              <g transform="translate(50.39,53.76)" id="img-54a19b4a-100">
                <path d="M-0.22,-14.57 L 0.22 -14.57 0.22 14.57 -0.22 14.57 z" class="primitive"/>
              </g>
              <g transform="translate(50.78,55.29)" id="img-54a19b4a-101">
                <path d="M-0.22,-13.03 L 0.22 -13.03 0.22 13.03 -0.22 13.03 z" class="primitive"/>
              </g>
              <g transform="translate(51.17,52.23)" id="img-54a19b4a-102">
                <path d="M-0.22,-16.1 L 0.22 -16.1 0.22 16.1 -0.22 16.1 z" class="primitive"/>
              </g>
              <g transform="translate(51.55,55.29)" id="img-54a19b4a-103">
                <path d="M-0.22,-13.03 L 0.22 -13.03 0.22 13.03 -0.22 13.03 z" class="primitive"/>
              </g>
              <g transform="translate(51.94,59.13)" id="img-54a19b4a-104">
                <path d="M-0.22,-9.2 L 0.22 -9.2 0.22 9.2 -0.22 9.2 z" class="primitive"/>
              </g>
              <g transform="translate(52.33,62.19)" id="img-54a19b4a-105">
                <path d="M-0.22,-6.13 L 0.22 -6.13 0.22 6.13 -0.22 6.13 z" class="primitive"/>
              </g>
              <g transform="translate(52.71,59.13)" id="img-54a19b4a-106">
                <path d="M-0.22,-9.2 L 0.22 -9.2 0.22 9.2 -0.22 9.2 z" class="primitive"/>
              </g>
              <g transform="translate(53.1,59.13)" id="img-54a19b4a-107">
                <path d="M-0.22,-9.2 L 0.22 -9.2 0.22 9.2 -0.22 9.2 z" class="primitive"/>
              </g>
              <g transform="translate(53.49,58.36)" id="img-54a19b4a-108">
                <path d="M-0.22,-9.97 L 0.22 -9.97 0.22 9.97 -0.22 9.97 z" class="primitive"/>
              </g>
              <g transform="translate(53.88,58.36)" id="img-54a19b4a-109">
                <path d="M-0.22,-9.97 L 0.22 -9.97 0.22 9.97 -0.22 9.97 z" class="primitive"/>
              </g>
              <g transform="translate(54.26,59.13)" id="img-54a19b4a-110">
                <path d="M-0.22,-9.2 L 0.22 -9.2 0.22 9.2 -0.22 9.2 z" class="primitive"/>
              </g>
              <g transform="translate(54.65,63.73)" id="img-54a19b4a-111">
                <path d="M-0.22,-4.6 L 0.22 -4.6 0.22 4.6 -0.22 4.6 z" class="primitive"/>
              </g>
              <g transform="translate(55.04,62.19)" id="img-54a19b4a-112">
                <path d="M-0.22,-6.13 L 0.22 -6.13 0.22 6.13 -0.22 6.13 z" class="primitive"/>
              </g>
              <g transform="translate(55.43,64.49)" id="img-54a19b4a-113">
                <path d="M-0.22,-3.83 L 0.22 -3.83 0.22 3.83 -0.22 3.83 z" class="primitive"/>
              </g>
              <g transform="translate(55.81,59.89)" id="img-54a19b4a-114">
                <path d="M-0.22,-8.43 L 0.22 -8.43 0.22 8.43 -0.22 8.43 z" class="primitive"/>
              </g>
              <g transform="translate(56.2,64.49)" id="img-54a19b4a-115">
                <path d="M-0.22,-3.83 L 0.22 -3.83 0.22 3.83 -0.22 3.83 z" class="primitive"/>
              </g>
              <g transform="translate(56.59,62.96)" id="img-54a19b4a-116">
                <path d="M-0.22,-5.37 L 0.22 -5.37 0.22 5.37 -0.22 5.37 z" class="primitive"/>
              </g>
              <g transform="translate(56.98,65.26)" id="img-54a19b4a-117">
                <path d="M-0.22,-3.07 L 0.22 -3.07 0.22 3.07 -0.22 3.07 z" class="primitive"/>
              </g>
              <g transform="translate(57.36,66.79)" id="img-54a19b4a-118">
                <path d="M-0.22,-1.53 L 0.22 -1.53 0.22 1.53 -0.22 1.53 z" class="primitive"/>
              </g>
              <g transform="translate(57.75,64.49)" id="img-54a19b4a-119">
                <path d="M-0.22,-3.83 L 0.22 -3.83 0.22 3.83 -0.22 3.83 z" class="primitive"/>
              </g>
              <g transform="translate(58.14,63.73)" id="img-54a19b4a-120">
                <path d="M-0.22,-4.6 L 0.22 -4.6 0.22 4.6 -0.22 4.6 z" class="primitive"/>
              </g>
              <g transform="translate(58.53,65.26)" id="img-54a19b4a-121">
                <path d="M-0.22,-3.07 L 0.22 -3.07 0.22 3.07 -0.22 3.07 z" class="primitive"/>
              </g>
              <g transform="translate(58.91,66.79)" id="img-54a19b4a-122">
                <path d="M-0.22,-1.53 L 0.22 -1.53 0.22 1.53 -0.22 1.53 z" class="primitive"/>
              </g>
              <g transform="translate(59.3,67.56)" id="img-54a19b4a-123">
                <path d="M-0.22,-0.77 L 0.22 -0.77 0.22 0.77 -0.22 0.77 z" class="primitive"/>
              </g>
              <g transform="translate(59.69,66.03)" id="img-54a19b4a-124">
                <path d="M-0.22,-2.3 L 0.22 -2.3 0.22 2.3 -0.22 2.3 z" class="primitive"/>
              </g>
              <g transform="translate(60.07,67.56)" id="img-54a19b4a-125">
                <path d="M-0.22,-0.77 L 0.22 -0.77 0.22 0.77 -0.22 0.77 z" class="primitive"/>
              </g>
              <g transform="translate(60.46,68.33)" id="img-54a19b4a-126">
                <path d="M-0.22,-0 L 0.22 -0 0.22 0 -0.22 0 z" class="primitive"/>
              </g>
              <g transform="translate(60.85,67.56)" id="img-54a19b4a-127">
                <path d="M-0.22,-0.77 L 0.22 -0.77 0.22 0.77 -0.22 0.77 z" class="primitive"/>
              </g>
              <g transform="translate(61.24,67.56)" id="img-54a19b4a-128">
                <path d="M-0.22,-0.77 L 0.22 -0.77 0.22 0.77 -0.22 0.77 z" class="primitive"/>
              </g>
              <g transform="translate(61.62,66.79)" id="img-54a19b4a-129">
                <path d="M-0.22,-1.53 L 0.22 -1.53 0.22 1.53 -0.22 1.53 z" class="primitive"/>
              </g>
            </g>
          </g>
        </g>
      </g>
    </g>
  </g>
  <g class="guide ylabels" font-size="2.82" font-family="'PT Sans Caption','Helvetica Neue','Helvetica',sans-serif" fill="#6C606B" id="img-54a19b4a-130">
    <g transform="translate(16.96,68.33)" id="img-54a19b4a-131">
      <g class="primitive">
        <text text-anchor="end" dy="0.35em">0</text>
      </g>
    </g>
    <g transform="translate(16.96,53)" id="img-54a19b4a-132">
      <g class="primitive">
        <text text-anchor="end" dy="0.35em">10</text>
      </g>
    </g>
    <g transform="translate(16.96,37.66)" id="img-54a19b4a-133">
      <g class="primitive">
        <text text-anchor="end" dy="0.35em">20</text>
      </g>
    </g>
    <g transform="translate(16.96,22.33)" id="img-54a19b4a-134">
      <g class="primitive">
        <text text-anchor="end" dy="0.35em">30</text>
      </g>
    </g>
    <g transform="translate(16.96,7)" id="img-54a19b4a-135">
      <g class="primitive">
        <text text-anchor="end" dy="0.35em">40</text>
      </g>
    </g>
  </g>
  <g font-size="3.88" font-family="'PT Sans','Helvetica Neue','Helvetica',sans-serif" fill="#564A55" stroke="#000000" stroke-opacity="0.000" id="img-54a19b4a-136">
    <g transform="translate(8.81,35.66)" id="img-54a19b4a-137">
      <g class="primitive">
        <text text-anchor="middle" dy="0.35em" transform="rotate(-90,0, 2)">frequency</text>
      </g>
    </g>
  </g>
</g>
<defs>
  <clipPath id="img-54a19b4a-11">
    <path d="M17.96,5 L 66.39 5 66.39 70.33 17.96 70.33" />
  </clipPath>
</defs>
</svg>
