<?xml version="1.0" encoding="UTF-8"?>
<svg xmlns="http://www.w3.org/2000/svg"
     xmlns:xlink="http://www.w3.org/1999/xlink"
     xmlns:gadfly="http://www.gadflyjl.org/ns"
     version="1.2"
     width="141.42mm" height="100mm" viewBox="0 0 141.42 100"
     stroke="none"
     fill="#000000"
     stroke-width="0.3"
     font-size="3.88"
>
<defs>
  <marker id="arrow" markerWidth="15" markerHeight="7" refX="5" refY="3.5" orient="auto" markerUnits="strokeWidth">
    <path d="M0,0 L15,3.5 L0,7 z" stroke="context-stroke" fill="context-stroke"/>
  </marker>
</defs>
<g class="plotroot xscalable yscalable" id="img-ad6441a7-1">
  <g class="guide xlabels" font-size="2.82" font-family="'PT Sans Caption','Helvetica Neue','Helvetica',sans-serif" fill="#6C606B" id="img-ad6441a7-2">
    <g transform="translate(19.96,91.33)">
      <g class="primitive">
        <text text-anchor="middle" dy="0.6em">12.8</text>
      </g>
    </g>
    <g transform="translate(32.91,91.33)">
      <g class="primitive">
        <text text-anchor="middle" dy="0.6em">13.0</text>
      </g>
    </g>
    <g transform="translate(45.87,91.33)">
      <g class="primitive">
        <text text-anchor="middle" dy="0.6em">13.2</text>
      </g>
    </g>
    <g transform="translate(58.83,91.33)">
      <g class="primitive">
        <text text-anchor="middle" dy="0.6em">13.4</text>
      </g>
    </g>
    <g transform="translate(71.78,91.33)">
      <g class="primitive">
        <text text-anchor="middle" dy="0.6em">13.6</text>
      </g>
    </g>
  </g>
  <g class="guide colorkey" id="img-ad6441a7-3">
    <g class="color_noncoding_coding_noncoding_noncoding_4-path" id="img-ad6441a7-4">
      <g fill="#4C404B" font-size="2.82" font-family="'PT Sans','Helvetica Neue','Helvetica',sans-serif" id="img-ad6441a7-5">
        <g transform="translate(77.59,49.48)" id="img-ad6441a7-6">
          <g class="primitive">
            <text dy="0.35em">noncoding_coding_noncoding_noncoding_4-path</text>
          </g>
        </g>
      </g>
      <g fill-opacity="1" fill="#00BFFF" stroke="#FFFFFF" id="img-ad6441a7-7">
        <g transform="translate(75.69,49.48)" id="img-ad6441a7-8">
          <path d="M-0.91,-0.91 L 0.91 -0.91 0.91 0.91 -0.91 0.91 z" class="primitive"/>
        </g>
      </g>
    </g>
    <g fill="#362A35" font-size="3.88" font-family="'PT Sans','Helvetica Neue','Helvetica',sans-serif" stroke="#000000" stroke-opacity="0.000" id="img-ad6441a7-9">
      <g transform="translate(74.78,45.66)" id="img-ad6441a7-10">
        <g class="primitive">
          <text dy="-0em">graphlet</text>
        </g>
      </g>
    </g>
  </g>
  <g clip-path="url(#img-ad6441a7-11)">
    <g id="img-ad6441a7-12">
      <g pointer-events="visible" stroke-width="0.3" fill="#000000" fill-opacity="0.000" stroke="#000000" stroke-opacity="0.000" class="guide background" id="img-ad6441a7-13">
        <g transform="translate(45.87,47.66)" id="img-ad6441a7-14">
          <path d="M-27.91,-42.66 L 27.91 -42.66 27.91 42.66 -27.91 42.66 z" class="primitive"/>
        </g>
      </g>
      <g class="guide ygridlines xfixed" stroke-dasharray="0.5,0.5" stroke-width="0.2" stroke="#D0D0E0" id="img-ad6441a7-15">
        <g transform="translate(45.87,88.33)" id="img-ad6441a7-16">
          <path fill="none" d="M-27.91,0 L 27.91 0" class="primitive"/>
        </g>
        <g transform="translate(45.87,68)" id="img-ad6441a7-17">
          <path fill="none" d="M-27.91,0 L 27.91 0" class="primitive"/>
        </g>
        <g transform="translate(45.87,47.66)" id="img-ad6441a7-18">
          <path fill="none" d="M-27.91,0 L 27.91 0" class="primitive"/>
        </g>
        <g transform="translate(45.87,27.33)" id="img-ad6441a7-19">
          <path fill="none" d="M-27.91,0 L 27.91 0" class="primitive"/>
        </g>
        <g transform="translate(45.87,7)" id="img-ad6441a7-20">
          <path fill="none" d="M-27.91,0 L 27.91 0" class="primitive"/>
        </g>
      </g>
      <g class="guide xgridlines yfixed" stroke-dasharray="0.5,0.5" stroke-width="0.2" stroke="#D0D0E0" id="img-ad6441a7-21">
        <g transform="translate(19.96,47.66)" id="img-ad6441a7-22">
          <path fill="none" d="M0,-42.66 L 0 42.66" class="primitive"/>
        </g>
        <g transform="translate(32.91,47.66)" id="img-ad6441a7-23">
          <path fill="none" d="M0,-42.66 L 0 42.66" class="primitive"/>
        </g>
        <g transform="translate(45.87,47.66)" id="img-ad6441a7-24">
          <path fill="none" d="M0,-42.66 L 0 42.66" class="primitive"/>
        </g>
        <g transform="translate(58.83,47.66)" id="img-ad6441a7-25">
          <path fill="none" d="M0,-42.66 L 0 42.66" class="primitive"/>
        </g>
        <g transform="translate(71.78,47.66)" id="img-ad6441a7-26">
          <path fill="none" d="M0,-42.66 L 0 42.66" class="primitive"/>
        </g>
      </g>
      <g class="plotpanel" id="img-ad6441a7-27">
        <metadata>
          <boundingbox value="17.95833333333333mm 5.0mm 55.82302290397617mm 85.32666666666667mm"/>
          <unitbox value="12.769125691433233 40.98368718747438 0.8617486171335349 -41.96737437494876"/>
        </metadata>
        <g shape-rendering="crispEdges" stroke-width="0.3" id="img-ad6441a7-28">
          <g stroke="#000000" stroke-opacity="0.000" class="geometry" id="img-ad6441a7-29">
            <g fill="#00BFFF" id="img-ad6441a7-30">
              <g transform="translate(24.71,87.31)" id="img-ad6441a7-31">
                <path d="M-0.2,-1.02 L 0.2 -1.02 0.2 1.02 -0.2 1.02 z" class="primitive"/>
              </g>
              <g transform="translate(25.07,88.33)" id="img-ad6441a7-32">
                <path d="M-0.2,-0 L 0.2 -0 0.2 0 -0.2 0 z" class="primitive"/>
              </g>
              <g transform="translate(25.42,88.33)" id="img-ad6441a7-33">
                <path d="M-0.2,-0 L 0.2 -0 0.2 0 -0.2 0 z" class="primitive"/>
              </g>
              <g transform="translate(25.78,87.31)" id="img-ad6441a7-34">
                <path d="M-0.2,-1.02 L 0.2 -1.02 0.2 1.02 -0.2 1.02 z" class="primitive"/>
              </g>
              <g transform="translate(26.14,86.29)" id="img-ad6441a7-35">
                <path d="M-0.2,-2.03 L 0.2 -2.03 0.2 2.03 -0.2 2.03 z" class="primitive"/>
              </g>
              <g transform="translate(26.49,88.33)" id="img-ad6441a7-36">
                <path d="M-0.2,-0 L 0.2 -0 0.2 0 -0.2 0 z" class="primitive"/>
              </g>
              <g transform="translate(26.85,87.31)" id="img-ad6441a7-37">
                <path d="M-0.2,-1.02 L 0.2 -1.02 0.2 1.02 -0.2 1.02 z" class="primitive"/>
              </g>
              <g transform="translate(27.21,87.31)" id="img-ad6441a7-38">
                <path d="M-0.2,-1.02 L 0.2 -1.02 0.2 1.02 -0.2 1.02 z" class="primitive"/>
              </g>
              <g transform="translate(27.56,88.33)" id="img-ad6441a7-39">
                <path d="M-0.2,-0 L 0.2 -0 0.2 0 -0.2 0 z" class="primitive"/>
              </g>
              <g transform="translate(27.92,88.33)" id="img-ad6441a7-40">
                <path d="M-0.2,-0 L 0.2 -0 0.2 0 -0.2 0 z" class="primitive"/>
              </g>
              <g transform="translate(28.28,87.31)" id="img-ad6441a7-41">
                <path d="M-0.2,-1.02 L 0.2 -1.02 0.2 1.02 -0.2 1.02 z" class="primitive"/>
              </g>
              <g transform="translate(28.63,85.28)" id="img-ad6441a7-42">
                <path d="M-0.2,-3.05 L 0.2 -3.05 0.2 3.05 -0.2 3.05 z" class="primitive"/>
              </g>
              <g transform="translate(28.99,88.33)" id="img-ad6441a7-43">
                <path d="M-0.2,-0 L 0.2 -0 0.2 0 -0.2 0 z" class="primitive"/>
              </g>
              <g transform="translate(29.35,88.33)" id="img-ad6441a7-44">
                <path d="M-0.2,-0 L 0.2 -0 0.2 0 -0.2 0 z" class="primitive"/>
              </g>
              <g transform="translate(29.71,87.31)" id="img-ad6441a7-45">
                <path d="M-0.2,-1.02 L 0.2 -1.02 0.2 1.02 -0.2 1.02 z" class="primitive"/>
              </g>
              <g transform="translate(30.06,87.31)" id="img-ad6441a7-46">
                <path d="M-0.2,-1.02 L 0.2 -1.02 0.2 1.02 -0.2 1.02 z" class="primitive"/>
              </g>
              <g transform="translate(30.42,87.31)" id="img-ad6441a7-47">
                <path d="M-0.2,-1.02 L 0.2 -1.02 0.2 1.02 -0.2 1.02 z" class="primitive"/>
              </g>
              <g transform="translate(30.78,85.28)" id="img-ad6441a7-48">
                <path d="M-0.2,-3.05 L 0.2 -3.05 0.2 3.05 -0.2 3.05 z" class="primitive"/>
              </g>
              <g transform="translate(31.13,81.21)" id="img-ad6441a7-49">
                <path d="M-0.2,-7.12 L 0.2 -7.12 0.2 7.12 -0.2 7.12 z" class="primitive"/>
              </g>
              <g transform="translate(31.49,86.29)" id="img-ad6441a7-50">
                <path d="M-0.2,-2.03 L 0.2 -2.03 0.2 2.03 -0.2 2.03 z" class="primitive"/>
              </g>
              <g transform="translate(31.85,84.26)" id="img-ad6441a7-51">
                <path d="M-0.2,-4.07 L 0.2 -4.07 0.2 4.07 -0.2 4.07 z" class="primitive"/>
              </g>
              <g transform="translate(32.2,79.18)" id="img-ad6441a7-52">
                <path d="M-0.2,-9.15 L 0.2 -9.15 0.2 9.15 -0.2 9.15 z" class="primitive"/>
              </g>
              <g transform="translate(32.56,84.26)" id="img-ad6441a7-53">
                <path d="M-0.2,-4.07 L 0.2 -4.07 0.2 4.07 -0.2 4.07 z" class="primitive"/>
              </g>
              <g transform="translate(32.92,83.24)" id="img-ad6441a7-54">
                <path d="M-0.2,-5.08 L 0.2 -5.08 0.2 5.08 -0.2 5.08 z" class="primitive"/>
              </g>
              <g transform="translate(33.28,84.26)" id="img-ad6441a7-55">
                <path d="M-0.2,-4.07 L 0.2 -4.07 0.2 4.07 -0.2 4.07 z" class="primitive"/>
              </g>
              <g transform="translate(33.63,78.16)" id="img-ad6441a7-56">
                <path d="M-0.2,-10.17 L 0.2 -10.17 0.2 10.17 -0.2 10.17 z" class="primitive"/>
              </g>
              <g transform="translate(33.99,83.24)" id="img-ad6441a7-57">
                <path d="M-0.2,-5.08 L 0.2 -5.08 0.2 5.08 -0.2 5.08 z" class="primitive"/>
              </g>
              <g transform="translate(34.35,78.16)" id="img-ad6441a7-58">
                <path d="M-0.2,-10.17 L 0.2 -10.17 0.2 10.17 -0.2 10.17 z" class="primitive"/>
              </g>
              <g transform="translate(34.7,82.23)" id="img-ad6441a7-59">
                <path d="M-0.2,-6.1 L 0.2 -6.1 0.2 6.1 -0.2 6.1 z" class="primitive"/>
              </g>
              <g transform="translate(35.06,81.21)" id="img-ad6441a7-60">
                <path d="M-0.2,-7.12 L 0.2 -7.12 0.2 7.12 -0.2 7.12 z" class="primitive"/>
              </g>
              <g transform="translate(35.42,78.16)" id="img-ad6441a7-61">
                <path d="M-0.2,-10.17 L 0.2 -10.17 0.2 10.17 -0.2 10.17 z" class="primitive"/>
              </g>
              <g transform="translate(35.77,79.18)" id="img-ad6441a7-62">
                <path d="M-0.2,-9.15 L 0.2 -9.15 0.2 9.15 -0.2 9.15 z" class="primitive"/>
              </g>
              <g transform="translate(36.13,82.23)" id="img-ad6441a7-63">
                <path d="M-0.2,-6.1 L 0.2 -6.1 0.2 6.1 -0.2 6.1 z" class="primitive"/>
              </g>
              <g transform="translate(36.49,75.11)" id="img-ad6441a7-64">
                <path d="M-0.2,-13.22 L 0.2 -13.22 0.2 13.22 -0.2 13.22 z" class="primitive"/>
              </g>
              <g transform="translate(36.84,72.06)" id="img-ad6441a7-65">
                <path d="M-0.2,-16.27 L 0.2 -16.27 0.2 16.27 -0.2 16.27 z" class="primitive"/>
              </g>
              <g transform="translate(37.2,66.98)" id="img-ad6441a7-66">
                <path d="M-0.2,-21.35 L 0.2 -21.35 0.2 21.35 -0.2 21.35 z" class="primitive"/>
              </g>
              <g transform="translate(37.56,72.06)" id="img-ad6441a7-67">
                <path d="M-0.2,-16.27 L 0.2 -16.27 0.2 16.27 -0.2 16.27 z" class="primitive"/>
              </g>
              <g transform="translate(37.92,74.09)" id="img-ad6441a7-68">
                <path d="M-0.2,-14.23 L 0.2 -14.23 0.2 14.23 -0.2 14.23 z" class="primitive"/>
              </g>
              <g transform="translate(38.27,73.08)" id="img-ad6441a7-69">
                <path d="M-0.2,-15.25 L 0.2 -15.25 0.2 15.25 -0.2 15.25 z" class="primitive"/>
              </g>
              <g transform="translate(38.63,63.93)" id="img-ad6441a7-70">
                <path d="M-0.2,-24.4 L 0.2 -24.4 0.2 24.4 -0.2 24.4 z" class="primitive"/>
              </g>
              <g transform="translate(38.99,62.91)" id="img-ad6441a7-71">
                <path d="M-0.2,-25.41 L 0.2 -25.41 0.2 25.41 -0.2 25.41 z" class="primitive"/>
              </g>
              <g transform="translate(39.34,65.96)" id="img-ad6441a7-72">
                <path d="M-0.2,-22.36 L 0.2 -22.36 0.2 22.36 -0.2 22.36 z" class="primitive"/>
              </g>
              <g transform="translate(39.7,69.01)" id="img-ad6441a7-73">
                <path d="M-0.2,-19.32 L 0.2 -19.32 0.2 19.32 -0.2 19.32 z" class="primitive"/>
              </g>
              <g transform="translate(40.06,61.9)" id="img-ad6441a7-74">
                <path d="M-0.2,-26.43 L 0.2 -26.43 0.2 26.43 -0.2 26.43 z" class="primitive"/>
              </g>
              <g transform="translate(40.41,64.95)" id="img-ad6441a7-75">
                <path d="M-0.2,-23.38 L 0.2 -23.38 0.2 23.38 -0.2 23.38 z" class="primitive"/>
              </g>
              <g transform="translate(40.77,61.9)" id="img-ad6441a7-76">
                <path d="M-0.2,-26.43 L 0.2 -26.43 0.2 26.43 -0.2 26.43 z" class="primitive"/>
              </g>
              <g transform="translate(41.13,63.93)" id="img-ad6441a7-77">
                <path d="M-0.2,-24.4 L 0.2 -24.4 0.2 24.4 -0.2 24.4 z" class="primitive"/>
              </g>
              <g transform="translate(41.48,60.88)" id="img-ad6441a7-78">
                <path d="M-0.2,-27.45 L 0.2 -27.45 0.2 27.45 -0.2 27.45 z" class="primitive"/>
              </g>
              <g transform="translate(41.84,66.98)" id="img-ad6441a7-79">
                <path d="M-0.2,-21.35 L 0.2 -21.35 0.2 21.35 -0.2 21.35 z" class="primitive"/>
              </g>
              <g transform="translate(42.2,55.8)" id="img-ad6441a7-80">
                <path d="M-0.2,-32.53 L 0.2 -32.53 0.2 32.53 -0.2 32.53 z" class="primitive"/>
              </g>
              <g transform="translate(42.56,51.73)" id="img-ad6441a7-81">
                <path d="M-0.2,-36.6 L 0.2 -36.6 0.2 36.6 -0.2 36.6 z" class="primitive"/>
              </g>
              <g transform="translate(42.91,58.85)" id="img-ad6441a7-82">
                <path d="M-0.2,-29.48 L 0.2 -29.48 0.2 29.48 -0.2 29.48 z" class="primitive"/>
              </g>
              <g transform="translate(43.27,63.93)" id="img-ad6441a7-83">
                <path d="M-0.2,-24.4 L 0.2 -24.4 0.2 24.4 -0.2 24.4 z" class="primitive"/>
              </g>
              <g transform="translate(43.63,59.86)" id="img-ad6441a7-84">
                <path d="M-0.2,-28.46 L 0.2 -28.46 0.2 28.46 -0.2 28.46 z" class="primitive"/>
              </g>
              <g transform="translate(43.98,56.81)" id="img-ad6441a7-85">
                <path d="M-0.2,-31.51 L 0.2 -31.51 0.2 31.51 -0.2 31.51 z" class="primitive"/>
              </g>
              <g transform="translate(44.34,70.03)" id="img-ad6441a7-86">
                <path d="M-0.2,-18.3 L 0.2 -18.3 0.2 18.3 -0.2 18.3 z" class="primitive"/>
              </g>
              <g transform="translate(44.7,65.96)" id="img-ad6441a7-87">
                <path d="M-0.2,-22.36 L 0.2 -22.36 0.2 22.36 -0.2 22.36 z" class="primitive"/>
              </g>
              <g transform="translate(45.05,66.98)" id="img-ad6441a7-88">
                <path d="M-0.2,-21.35 L 0.2 -21.35 0.2 21.35 -0.2 21.35 z" class="primitive"/>
              </g>
              <g transform="translate(45.41,62.91)" id="img-ad6441a7-89">
                <path d="M-0.2,-25.41 L 0.2 -25.41 0.2 25.41 -0.2 25.41 z" class="primitive"/>
              </g>
              <g transform="translate(45.77,65.96)" id="img-ad6441a7-90">
                <path d="M-0.2,-22.36 L 0.2 -22.36 0.2 22.36 -0.2 22.36 z" class="primitive"/>
              </g>
              <g transform="translate(46.13,62.91)" id="img-ad6441a7-91">
                <path d="M-0.2,-25.41 L 0.2 -25.41 0.2 25.41 -0.2 25.41 z" class="primitive"/>
              </g>
              <g transform="translate(46.48,74.09)" id="img-ad6441a7-92">
                <path d="M-0.2,-14.23 L 0.2 -14.23 0.2 14.23 -0.2 14.23 z" class="primitive"/>
              </g>
              <g transform="translate(46.84,66.98)" id="img-ad6441a7-93">
                <path d="M-0.2,-21.35 L 0.2 -21.35 0.2 21.35 -0.2 21.35 z" class="primitive"/>
              </g>
              <g transform="translate(47.2,64.95)" id="img-ad6441a7-94">
                <path d="M-0.2,-23.38 L 0.2 -23.38 0.2 23.38 -0.2 23.38 z" class="primitive"/>
              </g>
              <g transform="translate(47.55,70.03)" id="img-ad6441a7-95">
                <path d="M-0.2,-18.3 L 0.2 -18.3 0.2 18.3 -0.2 18.3 z" class="primitive"/>
              </g>
              <g transform="translate(47.91,77.14)" id="img-ad6441a7-96">
                <path d="M-0.2,-11.18 L 0.2 -11.18 0.2 11.18 -0.2 11.18 z" class="primitive"/>
              </g>
              <g transform="translate(48.27,64.95)" id="img-ad6441a7-97">
                <path d="M-0.2,-23.38 L 0.2 -23.38 0.2 23.38 -0.2 23.38 z" class="primitive"/>
              </g>
              <g transform="translate(48.62,66.98)" id="img-ad6441a7-98">
                <path d="M-0.2,-21.35 L 0.2 -21.35 0.2 21.35 -0.2 21.35 z" class="primitive"/>
              </g>
              <g transform="translate(48.98,77.14)" id="img-ad6441a7-99">
                <path d="M-0.2,-11.18 L 0.2 -11.18 0.2 11.18 -0.2 11.18 z" class="primitive"/>
              </g>
              <g transform="translate(49.34,72.06)" id="img-ad6441a7-100">
                <path d="M-0.2,-16.27 L 0.2 -16.27 0.2 16.27 -0.2 16.27 z" class="primitive"/>
              </g>
              <g transform="translate(49.69,80.19)" id="img-ad6441a7-101">
                <path d="M-0.2,-8.13 L 0.2 -8.13 0.2 8.13 -0.2 8.13 z" class="primitive"/>
              </g>
              <g transform="translate(50.05,79.18)" id="img-ad6441a7-102">
                <path d="M-0.2,-9.15 L 0.2 -9.15 0.2 9.15 -0.2 9.15 z" class="primitive"/>
              </g>
              <g transform="translate(50.41,78.16)" id="img-ad6441a7-103">
                <path d="M-0.2,-10.17 L 0.2 -10.17 0.2 10.17 -0.2 10.17 z" class="primitive"/>
              </g>
              <g transform="translate(50.77,83.24)" id="img-ad6441a7-104">
                <path d="M-0.2,-5.08 L 0.2 -5.08 0.2 5.08 -0.2 5.08 z" class="primitive"/>
              </g>
              <g transform="translate(51.12,80.19)" id="img-ad6441a7-105">
                <path d="M-0.2,-8.13 L 0.2 -8.13 0.2 8.13 -0.2 8.13 z" class="primitive"/>
              </g>
              <g transform="translate(51.48,85.28)" id="img-ad6441a7-106">
                <path d="M-0.2,-3.05 L 0.2 -3.05 0.2 3.05 -0.2 3.05 z" class="primitive"/>
              </g>
              <g transform="translate(51.84,82.23)" id="img-ad6441a7-107">
                <path d="M-0.2,-6.1 L 0.2 -6.1 0.2 6.1 -0.2 6.1 z" class="primitive"/>
              </g>
              <g transform="translate(52.19,86.29)" id="img-ad6441a7-108">
                <path d="M-0.2,-2.03 L 0.2 -2.03 0.2 2.03 -0.2 2.03 z" class="primitive"/>
              </g>
              <g transform="translate(52.55,80.19)" id="img-ad6441a7-109">
                <path d="M-0.2,-8.13 L 0.2 -8.13 0.2 8.13 -0.2 8.13 z" class="primitive"/>
              </g>
              <g transform="translate(52.91,87.31)" id="img-ad6441a7-110">
                <path d="M-0.2,-1.02 L 0.2 -1.02 0.2 1.02 -0.2 1.02 z" class="primitive"/>
              </g>
              <g transform="translate(53.26,79.18)" id="img-ad6441a7-111">
                <path d="M-0.2,-9.15 L 0.2 -9.15 0.2 9.15 -0.2 9.15 z" class="primitive"/>
              </g>
              <g transform="translate(53.62,85.28)" id="img-ad6441a7-112">
                <path d="M-0.2,-3.05 L 0.2 -3.05 0.2 3.05 -0.2 3.05 z" class="primitive"/>
              </g>
              <g transform="translate(53.98,86.29)" id="img-ad6441a7-113">
                <path d="M-0.2,-2.03 L 0.2 -2.03 0.2 2.03 -0.2 2.03 z" class="primitive"/>
              </g>
              <g transform="translate(54.34,86.29)" id="img-ad6441a7-114">
                <path d="M-0.2,-2.03 L 0.2 -2.03 0.2 2.03 -0.2 2.03 z" class="primitive"/>
              </g>
              <g transform="translate(54.69,87.31)" id="img-ad6441a7-115">
                <path d="M-0.2,-1.02 L 0.2 -1.02 0.2 1.02 -0.2 1.02 z" class="primitive"/>
              </g>
              <g transform="translate(55.05,86.29)" id="img-ad6441a7-116">
                <path d="M-0.2,-2.03 L 0.2 -2.03 0.2 2.03 -0.2 2.03 z" class="primitive"/>
              </g>
              <g transform="translate(55.41,87.31)" id="img-ad6441a7-117">
                <path d="M-0.2,-1.02 L 0.2 -1.02 0.2 1.02 -0.2 1.02 z" class="primitive"/>
              </g>
              <g transform="translate(55.76,87.31)" id="img-ad6441a7-118">
                <path d="M-0.2,-1.02 L 0.2 -1.02 0.2 1.02 -0.2 1.02 z" class="primitive"/>
              </g>
              <g transform="translate(56.12,88.33)" id="img-ad6441a7-119">
                <path d="M-0.2,-0 L 0.2 -0 0.2 0 -0.2 0 z" class="primitive"/>
              </g>
              <g transform="translate(56.48,88.33)" id="img-ad6441a7-120">
                <path d="M-0.2,-0 L 0.2 -0 0.2 0 -0.2 0 z" class="primitive"/>
              </g>
              <g transform="translate(56.83,87.31)" id="img-ad6441a7-121">
                <path d="M-0.2,-1.02 L 0.2 -1.02 0.2 1.02 -0.2 1.02 z" class="primitive"/>
              </g>
              <g transform="translate(57.19,88.33)" id="img-ad6441a7-122">
                <path d="M-0.2,-0 L 0.2 -0 0.2 0 -0.2 0 z" class="primitive"/>
              </g>
              <g transform="translate(57.55,88.33)" id="img-ad6441a7-123">
                <path d="M-0.2,-0 L 0.2 -0 0.2 0 -0.2 0 z" class="primitive"/>
              </g>
              <g transform="translate(57.9,88.33)" id="img-ad6441a7-124">
                <path d="M-0.2,-0 L 0.2 -0 0.2 0 -0.2 0 z" class="primitive"/>
              </g>
              <g transform="translate(58.26,88.33)" id="img-ad6441a7-125">
                <path d="M-0.2,-0 L 0.2 -0 0.2 0 -0.2 0 z" class="primitive"/>
              </g>
              <g transform="translate(58.62,88.33)" id="img-ad6441a7-126">
                <path d="M-0.2,-0 L 0.2 -0 0.2 0 -0.2 0 z" class="primitive"/>
              </g>
              <g transform="translate(58.98,88.33)" id="img-ad6441a7-127">
                <path d="M-0.2,-0 L 0.2 -0 0.2 0 -0.2 0 z" class="primitive"/>
              </g>
              <g transform="translate(59.33,88.33)" id="img-ad6441a7-128">
                <path d="M-0.2,-0 L 0.2 -0 0.2 0 -0.2 0 z" class="primitive"/>
              </g>
              <g transform="translate(59.69,88.33)" id="img-ad6441a7-129">
                <path d="M-0.2,-0 L 0.2 -0 0.2 0 -0.2 0 z" class="primitive"/>
              </g>
              <g transform="translate(60.05,87.31)" id="img-ad6441a7-130">
                <path d="M-0.2,-1.02 L 0.2 -1.02 0.2 1.02 -0.2 1.02 z" class="primitive"/>
              </g>
            </g>
          </g>
        </g>
      </g>
    </g>
  </g>
  <g class="guide ylabels" font-size="2.82" font-family="'PT Sans Caption','Helvetica Neue','Helvetica',sans-serif" fill="#6C606B" id="img-ad6441a7-131">
    <g transform="translate(16.96,88.33)" id="img-ad6441a7-132">
      <g class="primitive">
        <text text-anchor="end" dy="0.35em">0</text>
      </g>
    </g>
    <g transform="translate(16.96,68)" id="img-ad6441a7-133">
      <g class="primitive">
        <text text-anchor="end" dy="0.35em">10</text>
      </g>
    </g>
    <g transform="translate(16.96,47.66)" id="img-ad6441a7-134">
      <g class="primitive">
        <text text-anchor="end" dy="0.35em">20</text>
      </g>
    </g>
    <g transform="translate(16.96,27.33)" id="img-ad6441a7-135">
      <g class="primitive">
        <text text-anchor="end" dy="0.35em">30</text>
      </g>
    </g>
    <g transform="translate(16.96,7)" id="img-ad6441a7-136">
      <g class="primitive">
        <text text-anchor="end" dy="0.35em">40</text>
      </g>
    </g>
  </g>
  <g font-size="3.88" font-family="'PT Sans','Helvetica Neue','Helvetica',sans-serif" fill="#564A55" stroke="#000000" stroke-opacity="0.000" id="img-ad6441a7-137">
    <g transform="translate(8.81,45.66)" id="img-ad6441a7-138">
      <g class="primitive">
        <text text-anchor="middle" dy="0.35em" transform="rotate(-90,0, 2)">frequency</text>
      </g>
    </g>
  </g>
</g>
<defs>
  <clipPath id="img-ad6441a7-11">
    <path d="M17.96,5 L 73.78 5 73.78 90.33 17.96 90.33" />
  </clipPath>
</defs>
</svg>
