<?xml version="1.0" encoding="UTF-8"?>
<svg xmlns="http://www.w3.org/2000/svg"
     xmlns:xlink="http://www.w3.org/1999/xlink"
     xmlns:gadfly="http://www.gadflyjl.org/ns"
     version="1.2"
     width="141.42mm" height="100mm" viewBox="0 0 141.42 100"
     stroke="none"
     fill="#000000"
     stroke-width="0.3"
     font-size="3.88"
>
<defs>
  <marker id="arrow" markerWidth="15" markerHeight="7" refX="5" refY="3.5" orient="auto" markerUnits="strokeWidth">
    <path d="M0,0 L15,3.5 L0,7 z" stroke="context-stroke" fill="context-stroke"/>
  </marker>
</defs>
<g class="plotroot xscalable yscalable" id="img-bbf882b2-1">
  <g class="guide xlabels" font-size="2.82" font-family="'PT Sans Caption','Helvetica Neue','Helvetica',sans-serif" fill="#6C606B" id="img-bbf882b2-2">
    <g transform="translate(19.96,91.33)">
      <g class="primitive">
        <text text-anchor="middle" dy="0.6em">0</text>
      </g>
    </g>
    <g transform="translate(31.29,91.33)">
      <g class="primitive">
        <text text-anchor="middle" dy="0.6em">2</text>
      </g>
    </g>
    <g transform="translate(42.63,91.33)">
      <g class="primitive">
        <text text-anchor="middle" dy="0.6em">4</text>
      </g>
    </g>
    <g transform="translate(53.96,91.33)">
      <g class="primitive">
        <text text-anchor="middle" dy="0.6em">6</text>
      </g>
    </g>
    <g transform="translate(65.29,91.33)">
      <g class="primitive">
        <text text-anchor="middle" dy="0.6em">8</text>
      </g>
    </g>
  </g>
  <g class="guide colorkey" id="img-bbf882b2-3">
    <g class="color_noncoding_noncoding_noncoding_noncoding_4-clique" id="img-bbf882b2-4">
      <g fill="#4C404B" font-size="2.82" font-family="'PT Sans','Helvetica Neue','Helvetica',sans-serif" id="img-bbf882b2-5">
        <g transform="translate(71.11,49.48)" id="img-bbf882b2-6">
          <g class="primitive">
            <text dy="0.35em">noncoding_noncoding_noncoding_noncoding_4-clique</text>
          </g>
        </g>
      </g>
      <g fill-opacity="1" fill="#00BFFF" stroke="#FFFFFF" id="img-bbf882b2-7">
        <g transform="translate(69.2,49.48)" id="img-bbf882b2-8">
          <path d="M-0.91,-0.91 L 0.91 -0.91 0.91 0.91 -0.91 0.91 z" class="primitive"/>
        </g>
      </g>
    </g>
    <g fill="#362A35" font-size="3.88" font-family="'PT Sans','Helvetica Neue','Helvetica',sans-serif" stroke="#000000" stroke-opacity="0.000" id="img-bbf882b2-9">
      <g transform="translate(68.29,45.66)" id="img-bbf882b2-10">
        <g class="primitive">
          <text dy="-0em">graphlet</text>
        </g>
      </g>
    </g>
  </g>
  <g clip-path="url(#img-bbf882b2-11)">
    <g id="img-bbf882b2-12">
      <g pointer-events="visible" stroke-width="0.3" fill="#000000" fill-opacity="0.000" stroke="#000000" stroke-opacity="0.000" class="guide background" id="img-bbf882b2-13">
        <g transform="translate(42.63,47.66)" id="img-bbf882b2-14">
          <path d="M-24.67,-42.66 L 24.67 -42.66 24.67 42.66 -24.67 42.66 z" class="primitive"/>
        </g>
      </g>
      <g class="guide ygridlines xfixed" stroke-dasharray="0.5,0.5" stroke-width="0.2" stroke="#D0D0E0" id="img-bbf882b2-15">
        <g transform="translate(42.63,88.33)" id="img-bbf882b2-16">
          <path fill="none" d="M-24.67,0 L 24.67 0" class="primitive"/>
        </g>
        <g transform="translate(42.63,72.06)" id="img-bbf882b2-17">
          <path fill="none" d="M-24.67,0 L 24.67 0" class="primitive"/>
        </g>
        <g transform="translate(42.63,55.8)" id="img-bbf882b2-18">
          <path fill="none" d="M-24.67,0 L 24.67 0" class="primitive"/>
        </g>
        <g transform="translate(42.63,39.53)" id="img-bbf882b2-19">
          <path fill="none" d="M-24.67,0 L 24.67 0" class="primitive"/>
        </g>
        <g transform="translate(42.63,23.27)" id="img-bbf882b2-20">
          <path fill="none" d="M-24.67,0 L 24.67 0" class="primitive"/>
        </g>
        <g transform="translate(42.63,7)" id="img-bbf882b2-21">
          <path fill="none" d="M-24.67,0 L 24.67 0" class="primitive"/>
        </g>
      </g>
      <g class="guide xgridlines yfixed" stroke-dasharray="0.5,0.5" stroke-width="0.2" stroke="#D0D0E0" id="img-bbf882b2-22">
        <g transform="translate(19.96,47.66)" id="img-bbf882b2-23">
          <path fill="none" d="M0,-42.66 L 0 42.66" class="primitive"/>
        </g>
        <g transform="translate(31.29,47.66)" id="img-bbf882b2-24">
          <path fill="none" d="M0,-42.66 L 0 42.66" class="primitive"/>
        </g>
        <g transform="translate(42.63,47.66)" id="img-bbf882b2-25">
          <path fill="none" d="M0,-42.66 L 0 42.66" class="primitive"/>
        </g>
        <g transform="translate(53.96,47.66)" id="img-bbf882b2-26">
          <path fill="none" d="M0,-42.66 L 0 42.66" class="primitive"/>
        </g>
        <g transform="translate(65.29,47.66)" id="img-bbf882b2-27">
          <path fill="none" d="M0,-42.66 L 0 42.66" class="primitive"/>
        </g>
      </g>
      <g class="plotpanel" id="img-bbf882b2-28">
        <metadata>
          <boundingbox value="17.95833333333333mm 5.0mm 49.33635623730951mm 85.32666666666667mm"/>
          <unitbox value="-0.3529176433202811 25.61480449217149 8.705835286640562 -26.229608984342978"/>
        </metadata>
        <g shape-rendering="crispEdges" stroke-width="0.3" id="img-bbf882b2-29">
          <g stroke="#000000" stroke-opacity="0.000" class="geometry" id="img-bbf882b2-30">
            <g fill="#00BFFF" id="img-bbf882b2-31">
              <g transform="translate(20.14,52.54)" id="img-bbf882b2-32">
                <path d="M-0.21,-35.78 L 0.21 -35.78 0.21 35.78 -0.21 35.78 z" class="primitive"/>
              </g>
              <g transform="translate(20.51,88.33)" id="img-bbf882b2-33">
                <path d="M-0.21,-0 L 0.21 -0 0.21 0 -0.21 0 z" class="primitive"/>
              </g>
              <g transform="translate(20.87,88.33)" id="img-bbf882b2-34">
                <path d="M-0.21,-0 L 0.21 -0 0.21 0 -0.21 0 z" class="primitive"/>
              </g>
              <g transform="translate(21.24,88.33)" id="img-bbf882b2-35">
                <path d="M-0.21,-0 L 0.21 -0 0.21 0 -0.21 0 z" class="primitive"/>
              </g>
              <g transform="translate(21.6,88.33)" id="img-bbf882b2-36">
                <path d="M-0.21,-0 L 0.21 -0 0.21 0 -0.21 0 z" class="primitive"/>
              </g>
              <g transform="translate(21.97,88.33)" id="img-bbf882b2-37">
                <path d="M-0.21,-0 L 0.21 -0 0.21 0 -0.21 0 z" class="primitive"/>
              </g>
              <g transform="translate(22.34,88.33)" id="img-bbf882b2-38">
                <path d="M-0.21,-0 L 0.21 -0 0.21 0 -0.21 0 z" class="primitive"/>
              </g>
              <g transform="translate(22.7,88.33)" id="img-bbf882b2-39">
                <path d="M-0.21,-0 L 0.21 -0 0.21 0 -0.21 0 z" class="primitive"/>
              </g>
              <g transform="translate(23.07,88.33)" id="img-bbf882b2-40">
                <path d="M-0.21,-0 L 0.21 -0 0.21 0 -0.21 0 z" class="primitive"/>
              </g>
              <g transform="translate(23.43,88.33)" id="img-bbf882b2-41">
                <path d="M-0.21,-0 L 0.21 -0 0.21 0 -0.21 0 z" class="primitive"/>
              </g>
              <g transform="translate(23.8,63.93)" id="img-bbf882b2-42">
                <path d="M-0.21,-24.4 L 0.21 -24.4 0.21 24.4 -0.21 24.4 z" class="primitive"/>
              </g>
              <g transform="translate(24.16,88.33)" id="img-bbf882b2-43">
                <path d="M-0.21,-0 L 0.21 -0 0.21 0 -0.21 0 z" class="primitive"/>
              </g>
              <g transform="translate(24.53,88.33)" id="img-bbf882b2-44">
                <path d="M-0.21,-0 L 0.21 -0 0.21 0 -0.21 0 z" class="primitive"/>
              </g>
              <g transform="translate(24.9,88.33)" id="img-bbf882b2-45">
                <path d="M-0.21,-0 L 0.21 -0 0.21 0 -0.21 0 z" class="primitive"/>
              </g>
              <g transform="translate(25.26,88.33)" id="img-bbf882b2-46">
                <path d="M-0.21,-0 L 0.21 -0 0.21 0 -0.21 0 z" class="primitive"/>
              </g>
              <g transform="translate(25.63,88.33)" id="img-bbf882b2-47">
                <path d="M-0.21,-0 L 0.21 -0 0.21 0 -0.21 0 z" class="primitive"/>
              </g>
              <g transform="translate(25.99,88.33)" id="img-bbf882b2-48">
                <path d="M-0.21,-0 L 0.21 -0 0.21 0 -0.21 0 z" class="primitive"/>
              </g>
              <g transform="translate(26.36,85.07)" id="img-bbf882b2-49">
                <path d="M-0.21,-3.25 L 0.21 -3.25 0.21 3.25 -0.21 3.25 z" class="primitive"/>
              </g>
              <g transform="translate(26.72,88.33)" id="img-bbf882b2-50">
                <path d="M-0.21,-0 L 0.21 -0 0.21 0 -0.21 0 z" class="primitive"/>
              </g>
              <g transform="translate(27.09,88.33)" id="img-bbf882b2-51">
                <path d="M-0.21,-0 L 0.21 -0 0.21 0 -0.21 0 z" class="primitive"/>
              </g>
              <g transform="translate(27.46,88.33)" id="img-bbf882b2-52">
                <path d="M-0.21,-0 L 0.21 -0 0.21 0 -0.21 0 z" class="primitive"/>
              </g>
              <g transform="translate(27.82,85.07)" id="img-bbf882b2-53">
                <path d="M-0.21,-3.25 L 0.21 -3.25 0.21 3.25 -0.21 3.25 z" class="primitive"/>
              </g>
              <g transform="translate(28.19,88.33)" id="img-bbf882b2-54">
                <path d="M-0.21,-0 L 0.21 -0 0.21 0 -0.21 0 z" class="primitive"/>
              </g>
              <g transform="translate(28.55,88.33)" id="img-bbf882b2-55">
                <path d="M-0.21,-0 L 0.21 -0 0.21 0 -0.21 0 z" class="primitive"/>
              </g>
              <g transform="translate(28.92,67.18)" id="img-bbf882b2-56">
                <path d="M-0.21,-21.14 L 0.21 -21.14 0.21 21.14 -0.21 21.14 z" class="primitive"/>
              </g>
              <g transform="translate(29.28,88.33)" id="img-bbf882b2-57">
                <path d="M-0.21,-0 L 0.21 -0 0.21 0 -0.21 0 z" class="primitive"/>
              </g>
              <g transform="translate(29.65,88.33)" id="img-bbf882b2-58">
                <path d="M-0.21,-0 L 0.21 -0 0.21 0 -0.21 0 z" class="primitive"/>
              </g>
              <g transform="translate(30.02,80.19)" id="img-bbf882b2-59">
                <path d="M-0.21,-8.13 L 0.21 -8.13 0.21 8.13 -0.21 8.13 z" class="primitive"/>
              </g>
              <g transform="translate(30.38,88.33)" id="img-bbf882b2-60">
                <path d="M-0.21,-0 L 0.21 -0 0.21 0 -0.21 0 z" class="primitive"/>
              </g>
              <g transform="translate(30.75,88.33)" id="img-bbf882b2-61">
                <path d="M-0.21,-0 L 0.21 -0 0.21 0 -0.21 0 z" class="primitive"/>
              </g>
              <g transform="translate(31.11,81.82)" id="img-bbf882b2-62">
                <path d="M-0.21,-6.51 L 0.21 -6.51 0.21 6.51 -0.21 6.51 z" class="primitive"/>
              </g>
              <g transform="translate(31.48,88.33)" id="img-bbf882b2-63">
                <path d="M-0.21,-0 L 0.21 -0 0.21 0 -0.21 0 z" class="primitive"/>
              </g>
              <g transform="translate(31.84,88.33)" id="img-bbf882b2-64">
                <path d="M-0.21,-0 L 0.21 -0 0.21 0 -0.21 0 z" class="primitive"/>
              </g>
              <g transform="translate(32.21,88.33)" id="img-bbf882b2-65">
                <path d="M-0.21,-0 L 0.21 -0 0.21 0 -0.21 0 z" class="primitive"/>
              </g>
              <g transform="translate(32.58,88.33)" id="img-bbf882b2-66">
                <path d="M-0.21,-0 L 0.21 -0 0.21 0 -0.21 0 z" class="primitive"/>
              </g>
              <g transform="translate(32.94,88.33)" id="img-bbf882b2-67">
                <path d="M-0.21,-0 L 0.21 -0 0.21 0 -0.21 0 z" class="primitive"/>
              </g>
              <g transform="translate(33.31,88.33)" id="img-bbf882b2-68">
                <path d="M-0.21,-0 L 0.21 -0 0.21 0 -0.21 0 z" class="primitive"/>
              </g>
              <g transform="translate(33.67,86.7)" id="img-bbf882b2-69">
                <path d="M-0.21,-1.63 L 0.21 -1.63 0.21 1.63 -0.21 1.63 z" class="primitive"/>
              </g>
              <g transform="translate(34.04,86.7)" id="img-bbf882b2-70">
                <path d="M-0.21,-1.63 L 0.21 -1.63 0.21 1.63 -0.21 1.63 z" class="primitive"/>
              </g>
              <g transform="translate(34.41,88.33)" id="img-bbf882b2-71">
                <path d="M-0.21,-0 L 0.21 -0 0.21 0 -0.21 0 z" class="primitive"/>
              </g>
              <g transform="translate(34.77,88.33)" id="img-bbf882b2-72">
                <path d="M-0.21,-0 L 0.21 -0 0.21 0 -0.21 0 z" class="primitive"/>
              </g>
              <g transform="translate(35.14,83.45)" id="img-bbf882b2-73">
                <path d="M-0.21,-4.88 L 0.21 -4.88 0.21 4.88 -0.21 4.88 z" class="primitive"/>
              </g>
              <g transform="translate(35.5,85.07)" id="img-bbf882b2-74">
                <path d="M-0.21,-3.25 L 0.21 -3.25 0.21 3.25 -0.21 3.25 z" class="primitive"/>
              </g>
              <g transform="translate(35.87,88.33)" id="img-bbf882b2-75">
                <path d="M-0.21,-0 L 0.21 -0 0.21 0 -0.21 0 z" class="primitive"/>
              </g>
              <g transform="translate(36.23,88.33)" id="img-bbf882b2-76">
                <path d="M-0.21,-0 L 0.21 -0 0.21 0 -0.21 0 z" class="primitive"/>
              </g>
              <g transform="translate(36.6,88.33)" id="img-bbf882b2-77">
                <path d="M-0.21,-0 L 0.21 -0 0.21 0 -0.21 0 z" class="primitive"/>
              </g>
              <g transform="translate(36.97,86.7)" id="img-bbf882b2-78">
                <path d="M-0.21,-1.63 L 0.21 -1.63 0.21 1.63 -0.21 1.63 z" class="primitive"/>
              </g>
              <g transform="translate(37.33,88.33)" id="img-bbf882b2-79">
                <path d="M-0.21,-0 L 0.21 -0 0.21 0 -0.21 0 z" class="primitive"/>
              </g>
              <g transform="translate(37.7,88.33)" id="img-bbf882b2-80">
                <path d="M-0.21,-0 L 0.21 -0 0.21 0 -0.21 0 z" class="primitive"/>
              </g>
              <g transform="translate(38.06,88.33)" id="img-bbf882b2-81">
                <path d="M-0.21,-0 L 0.21 -0 0.21 0 -0.21 0 z" class="primitive"/>
              </g>
              <g transform="translate(38.43,88.33)" id="img-bbf882b2-82">
                <path d="M-0.21,-0 L 0.21 -0 0.21 0 -0.21 0 z" class="primitive"/>
              </g>
              <g transform="translate(38.79,88.33)" id="img-bbf882b2-83">
                <path d="M-0.21,-0 L 0.21 -0 0.21 0 -0.21 0 z" class="primitive"/>
              </g>
              <g transform="translate(39.16,88.33)" id="img-bbf882b2-84">
                <path d="M-0.21,-0 L 0.21 -0 0.21 0 -0.21 0 z" class="primitive"/>
              </g>
              <g transform="translate(39.53,86.7)" id="img-bbf882b2-85">
                <path d="M-0.21,-1.63 L 0.21 -1.63 0.21 1.63 -0.21 1.63 z" class="primitive"/>
              </g>
              <g transform="translate(39.89,88.33)" id="img-bbf882b2-86">
                <path d="M-0.21,-0 L 0.21 -0 0.21 0 -0.21 0 z" class="primitive"/>
              </g>
              <g transform="translate(40.26,85.07)" id="img-bbf882b2-87">
                <path d="M-0.21,-3.25 L 0.21 -3.25 0.21 3.25 -0.21 3.25 z" class="primitive"/>
              </g>
              <g transform="translate(40.62,88.33)" id="img-bbf882b2-88">
                <path d="M-0.21,-0 L 0.21 -0 0.21 0 -0.21 0 z" class="primitive"/>
              </g>
              <g transform="translate(40.99,88.33)" id="img-bbf882b2-89">
                <path d="M-0.21,-0 L 0.21 -0 0.21 0 -0.21 0 z" class="primitive"/>
              </g>
              <g transform="translate(41.35,88.33)" id="img-bbf882b2-90">
                <path d="M-0.21,-0 L 0.21 -0 0.21 0 -0.21 0 z" class="primitive"/>
              </g>
              <g transform="translate(41.72,88.33)" id="img-bbf882b2-91">
                <path d="M-0.21,-0 L 0.21 -0 0.21 0 -0.21 0 z" class="primitive"/>
              </g>
              <g transform="translate(42.09,88.33)" id="img-bbf882b2-92">
                <path d="M-0.21,-0 L 0.21 -0 0.21 0 -0.21 0 z" class="primitive"/>
              </g>
              <g transform="translate(42.45,88.33)" id="img-bbf882b2-93">
                <path d="M-0.21,-0 L 0.21 -0 0.21 0 -0.21 0 z" class="primitive"/>
              </g>
              <g transform="translate(42.82,88.33)" id="img-bbf882b2-94">
                <path d="M-0.21,-0 L 0.21 -0 0.21 0 -0.21 0 z" class="primitive"/>
              </g>
              <g transform="translate(43.18,88.33)" id="img-bbf882b2-95">
                <path d="M-0.21,-0 L 0.21 -0 0.21 0 -0.21 0 z" class="primitive"/>
              </g>
              <g transform="translate(43.55,88.33)" id="img-bbf882b2-96">
                <path d="M-0.21,-0 L 0.21 -0 0.21 0 -0.21 0 z" class="primitive"/>
              </g>
              <g transform="translate(43.91,88.33)" id="img-bbf882b2-97">
                <path d="M-0.21,-0 L 0.21 -0 0.21 0 -0.21 0 z" class="primitive"/>
              </g>
              <g transform="translate(44.28,86.7)" id="img-bbf882b2-98">
                <path d="M-0.21,-1.63 L 0.21 -1.63 0.21 1.63 -0.21 1.63 z" class="primitive"/>
              </g>
              <g transform="translate(44.65,88.33)" id="img-bbf882b2-99">
                <path d="M-0.21,-0 L 0.21 -0 0.21 0 -0.21 0 z" class="primitive"/>
              </g>
              <g transform="translate(45.01,88.33)" id="img-bbf882b2-100">
                <path d="M-0.21,-0 L 0.21 -0 0.21 0 -0.21 0 z" class="primitive"/>
              </g>
              <g transform="translate(45.38,88.33)" id="img-bbf882b2-101">
                <path d="M-0.21,-0 L 0.21 -0 0.21 0 -0.21 0 z" class="primitive"/>
              </g>
              <g transform="translate(45.74,88.33)" id="img-bbf882b2-102">
                <path d="M-0.21,-0 L 0.21 -0 0.21 0 -0.21 0 z" class="primitive"/>
              </g>
              <g transform="translate(46.11,88.33)" id="img-bbf882b2-103">
                <path d="M-0.21,-0 L 0.21 -0 0.21 0 -0.21 0 z" class="primitive"/>
              </g>
              <g transform="translate(46.47,88.33)" id="img-bbf882b2-104">
                <path d="M-0.21,-0 L 0.21 -0 0.21 0 -0.21 0 z" class="primitive"/>
              </g>
              <g transform="translate(46.84,88.33)" id="img-bbf882b2-105">
                <path d="M-0.21,-0 L 0.21 -0 0.21 0 -0.21 0 z" class="primitive"/>
              </g>
              <g transform="translate(47.21,88.33)" id="img-bbf882b2-106">
                <path d="M-0.21,-0 L 0.21 -0 0.21 0 -0.21 0 z" class="primitive"/>
              </g>
              <g transform="translate(47.57,88.33)" id="img-bbf882b2-107">
                <path d="M-0.21,-0 L 0.21 -0 0.21 0 -0.21 0 z" class="primitive"/>
              </g>
              <g transform="translate(47.94,88.33)" id="img-bbf882b2-108">
                <path d="M-0.21,-0 L 0.21 -0 0.21 0 -0.21 0 z" class="primitive"/>
              </g>
              <g transform="translate(48.3,88.33)" id="img-bbf882b2-109">
                <path d="M-0.21,-0 L 0.21 -0 0.21 0 -0.21 0 z" class="primitive"/>
              </g>
              <g transform="translate(48.67,88.33)" id="img-bbf882b2-110">
                <path d="M-0.21,-0 L 0.21 -0 0.21 0 -0.21 0 z" class="primitive"/>
              </g>
              <g transform="translate(49.03,88.33)" id="img-bbf882b2-111">
                <path d="M-0.21,-0 L 0.21 -0 0.21 0 -0.21 0 z" class="primitive"/>
              </g>
              <g transform="translate(49.4,88.33)" id="img-bbf882b2-112">
                <path d="M-0.21,-0 L 0.21 -0 0.21 0 -0.21 0 z" class="primitive"/>
              </g>
              <g transform="translate(49.77,88.33)" id="img-bbf882b2-113">
                <path d="M-0.21,-0 L 0.21 -0 0.21 0 -0.21 0 z" class="primitive"/>
              </g>
              <g transform="translate(50.13,88.33)" id="img-bbf882b2-114">
                <path d="M-0.21,-0 L 0.21 -0 0.21 0 -0.21 0 z" class="primitive"/>
              </g>
              <g transform="translate(50.5,88.33)" id="img-bbf882b2-115">
                <path d="M-0.21,-0 L 0.21 -0 0.21 0 -0.21 0 z" class="primitive"/>
              </g>
              <g transform="translate(50.86,88.33)" id="img-bbf882b2-116">
                <path d="M-0.21,-0 L 0.21 -0 0.21 0 -0.21 0 z" class="primitive"/>
              </g>
              <g transform="translate(51.23,88.33)" id="img-bbf882b2-117">
                <path d="M-0.21,-0 L 0.21 -0 0.21 0 -0.21 0 z" class="primitive"/>
              </g>
              <g transform="translate(51.6,88.33)" id="img-bbf882b2-118">
                <path d="M-0.21,-0 L 0.21 -0 0.21 0 -0.21 0 z" class="primitive"/>
              </g>
              <g transform="translate(51.96,88.33)" id="img-bbf882b2-119">
                <path d="M-0.21,-0 L 0.21 -0 0.21 0 -0.21 0 z" class="primitive"/>
              </g>
              <g transform="translate(52.33,88.33)" id="img-bbf882b2-120">
                <path d="M-0.21,-0 L 0.21 -0 0.21 0 -0.21 0 z" class="primitive"/>
              </g>
              <g transform="translate(52.69,88.33)" id="img-bbf882b2-121">
                <path d="M-0.21,-0 L 0.21 -0 0.21 0 -0.21 0 z" class="primitive"/>
              </g>
              <g transform="translate(53.06,88.33)" id="img-bbf882b2-122">
                <path d="M-0.21,-0 L 0.21 -0 0.21 0 -0.21 0 z" class="primitive"/>
              </g>
              <g transform="translate(53.42,88.33)" id="img-bbf882b2-123">
                <path d="M-0.21,-0 L 0.21 -0 0.21 0 -0.21 0 z" class="primitive"/>
              </g>
              <g transform="translate(53.79,88.33)" id="img-bbf882b2-124">
                <path d="M-0.21,-0 L 0.21 -0 0.21 0 -0.21 0 z" class="primitive"/>
              </g>
              <g transform="translate(54.16,88.33)" id="img-bbf882b2-125">
                <path d="M-0.21,-0 L 0.21 -0 0.21 0 -0.21 0 z" class="primitive"/>
              </g>
              <g transform="translate(54.52,88.33)" id="img-bbf882b2-126">
                <path d="M-0.21,-0 L 0.21 -0 0.21 0 -0.21 0 z" class="primitive"/>
              </g>
              <g transform="translate(54.89,88.33)" id="img-bbf882b2-127">
                <path d="M-0.21,-0 L 0.21 -0 0.21 0 -0.21 0 z" class="primitive"/>
              </g>
              <g transform="translate(55.25,88.33)" id="img-bbf882b2-128">
                <path d="M-0.21,-0 L 0.21 -0 0.21 0 -0.21 0 z" class="primitive"/>
              </g>
              <g transform="translate(55.62,88.33)" id="img-bbf882b2-129">
                <path d="M-0.21,-0 L 0.21 -0 0.21 0 -0.21 0 z" class="primitive"/>
              </g>
              <g transform="translate(55.98,88.33)" id="img-bbf882b2-130">
                <path d="M-0.21,-0 L 0.21 -0 0.21 0 -0.21 0 z" class="primitive"/>
              </g>
              <g transform="translate(56.35,88.33)" id="img-bbf882b2-131">
                <path d="M-0.21,-0 L 0.21 -0 0.21 0 -0.21 0 z" class="primitive"/>
              </g>
            </g>
          </g>
        </g>
      </g>
    </g>
  </g>
  <g class="guide ylabels" font-size="2.82" font-family="'PT Sans Caption','Helvetica Neue','Helvetica',sans-serif" fill="#6C606B" id="img-bbf882b2-132">
    <g transform="translate(16.96,88.33)" id="img-bbf882b2-133">
      <g class="primitive">
        <text text-anchor="end" dy="0.35em">0</text>
      </g>
    </g>
    <g transform="translate(16.96,72.06)" id="img-bbf882b2-134">
      <g class="primitive">
        <text text-anchor="end" dy="0.35em">5</text>
      </g>
    </g>
    <g transform="translate(16.96,55.8)" id="img-bbf882b2-135">
      <g class="primitive">
        <text text-anchor="end" dy="0.35em">10</text>
      </g>
    </g>
    <g transform="translate(16.96,39.53)" id="img-bbf882b2-136">
      <g class="primitive">
        <text text-anchor="end" dy="0.35em">15</text>
      </g>
    </g>
    <g transform="translate(16.96,23.27)" id="img-bbf882b2-137">
      <g class="primitive">
        <text text-anchor="end" dy="0.35em">20</text>
      </g>
    </g>
    <g transform="translate(16.96,7)" id="img-bbf882b2-138">
      <g class="primitive">
        <text text-anchor="end" dy="0.35em">25</text>
      </g>
    </g>
  </g>
  <g font-size="3.88" font-family="'PT Sans','Helvetica Neue','Helvetica',sans-serif" fill="#564A55" stroke="#000000" stroke-opacity="0.000" id="img-bbf882b2-139">
    <g transform="translate(8.81,45.66)" id="img-bbf882b2-140">
      <g class="primitive">
        <text text-anchor="middle" dy="0.35em" transform="rotate(-90,0, 2)">frequency</text>
      </g>
    </g>
  </g>
</g>
<defs>
  <clipPath id="img-bbf882b2-11">
    <path d="M17.96,5 L 67.29 5 67.29 90.33 17.96 90.33" />
  </clipPath>
</defs>
</svg>
