<?xml version="1.0" encoding="UTF-8"?>
<svg xmlns="http://www.w3.org/2000/svg"
     xmlns:xlink="http://www.w3.org/1999/xlink"
     xmlns:gadfly="http://www.gadflyjl.org/ns"
     version="1.2"
     width="141.42mm" height="100mm" viewBox="0 0 141.42 100"
     stroke="none"
     fill="#000000"
     stroke-width="0.3"
     font-size="3.88"
>
<defs>
  <marker id="arrow" markerWidth="15" markerHeight="7" refX="5" refY="3.5" orient="auto" markerUnits="strokeWidth">
    <path d="M0,0 L15,3.5 L0,7 z" stroke="context-stroke" fill="context-stroke"/>
  </marker>
</defs>
<g class="plotroot xscalable yscalable" id="img-b580bbcf-1">
  <g class="guide xlabels" font-size="2.82" font-family="'PT Sans Caption','Helvetica Neue','Helvetica',sans-serif" fill="#6C606B" id="img-b580bbcf-2">
    <g transform="translate(18.28,91.33)">
      <g class="primitive">
        <text text-anchor="middle" dy="0.6em">8.0</text>
      </g>
    </g>
    <g transform="translate(38.14,91.33)">
      <g class="primitive">
        <text text-anchor="middle" dy="0.6em">8.5</text>
      </g>
    </g>
    <g transform="translate(58,91.33)">
      <g class="primitive">
        <text text-anchor="middle" dy="0.6em">9.0</text>
      </g>
    </g>
    <g transform="translate(77.86,91.33)">
      <g class="primitive">
        <text text-anchor="middle" dy="0.6em">9.5</text>
      </g>
    </g>
  </g>
  <g class="guide colorkey" id="img-b580bbcf-3">
    <g class="color_noncoding_noncoding_coding_coding_4-tail" id="img-b580bbcf-4">
      <g fill="#4C404B" font-size="2.82" font-family="'PT Sans','Helvetica Neue','Helvetica',sans-serif" id="img-b580bbcf-5">
        <g transform="translate(83.67,49.48)" id="img-b580bbcf-6">
          <g class="primitive">
            <text dy="0.35em">noncoding_noncoding_coding_coding_4-tail</text>
          </g>
        </g>
      </g>
      <g fill-opacity="1" fill="#00BFFF" stroke="#FFFFFF" id="img-b580bbcf-7">
        <g transform="translate(81.77,49.48)" id="img-b580bbcf-8">
          <path d="M-0.91,-0.91 L 0.91 -0.91 0.91 0.91 -0.91 0.91 z" class="primitive"/>
        </g>
      </g>
    </g>
    <g fill="#362A35" font-size="3.88" font-family="'PT Sans','Helvetica Neue','Helvetica',sans-serif" stroke="#000000" stroke-opacity="0.000" id="img-b580bbcf-9">
      <g transform="translate(80.86,45.66)" id="img-b580bbcf-10">
        <g class="primitive">
          <text dy="-0em">graphlet</text>
        </g>
      </g>
    </g>
  </g>
  <g clip-path="url(#img-b580bbcf-11)">
    <g id="img-b580bbcf-12">
      <g pointer-events="visible" stroke-width="0.3" fill="#000000" fill-opacity="0.000" stroke="#000000" stroke-opacity="0.000" class="guide background" id="img-b580bbcf-13">
        <g transform="translate(48.07,47.66)" id="img-b580bbcf-14">
          <path d="M-31.79,-42.66 L 31.79 -42.66 31.79 42.66 -31.79 42.66 z" class="primitive"/>
        </g>
      </g>
      <g class="guide ygridlines xfixed" stroke-dasharray="0.5,0.5" stroke-width="0.2" stroke="#D0D0E0" id="img-b580bbcf-15">
        <g transform="translate(48.07,88.33)" id="img-b580bbcf-16">
          <path fill="none" d="M-31.79,0 L 31.79 0" class="primitive"/>
        </g>
        <g transform="translate(48.07,72.06)" id="img-b580bbcf-17">
          <path fill="none" d="M-31.79,0 L 31.79 0" class="primitive"/>
        </g>
        <g transform="translate(48.07,55.8)" id="img-b580bbcf-18">
          <path fill="none" d="M-31.79,0 L 31.79 0" class="primitive"/>
        </g>
        <g transform="translate(48.07,39.53)" id="img-b580bbcf-19">
          <path fill="none" d="M-31.79,0 L 31.79 0" class="primitive"/>
        </g>
        <g transform="translate(48.07,23.27)" id="img-b580bbcf-20">
          <path fill="none" d="M-31.79,0 L 31.79 0" class="primitive"/>
        </g>
        <g transform="translate(48.07,7)" id="img-b580bbcf-21">
          <path fill="none" d="M-31.79,0 L 31.79 0" class="primitive"/>
        </g>
      </g>
      <g class="guide xgridlines yfixed" stroke-dasharray="0.5,0.5" stroke-width="0.2" stroke="#D0D0E0" id="img-b580bbcf-22">
        <g transform="translate(18.28,47.66)" id="img-b580bbcf-23">
          <path fill="none" d="M0,-42.66 L 0 42.66" class="primitive"/>
        </g>
        <g transform="translate(38.14,47.66)" id="img-b580bbcf-24">
          <path fill="none" d="M0,-42.66 L 0 42.66" class="primitive"/>
        </g>
        <g transform="translate(58,47.66)" id="img-b580bbcf-25">
          <path fill="none" d="M0,-42.66 L 0 42.66" class="primitive"/>
        </g>
        <g transform="translate(77.86,47.66)" id="img-b580bbcf-26">
          <path fill="none" d="M0,-42.66 L 0 42.66" class="primitive"/>
        </g>
      </g>
      <g class="plotpanel" id="img-b580bbcf-27">
        <metadata>
          <boundingbox value="16.284999999999997mm 5.0mm 63.57635623730951mm 85.32666666666667mm"/>
          <unitbox value="7.949644453110725 5.122960898434298 1.6007110937785503 -5.245921796868595"/>
        </metadata>
        <g shape-rendering="crispEdges" stroke-width="0.3" id="img-b580bbcf-28">
          <g stroke="#000000" stroke-opacity="0.000" class="geometry" id="img-b580bbcf-29">
            <g fill="#00BFFF" id="img-b580bbcf-30">
              <g transform="translate(19.47,80.19)" id="img-b580bbcf-31">
                <path d="M-0.3,-8.13 L 0.3 -8.13 0.3 8.13 -0.3 8.13 z" class="primitive"/>
              </g>
              <g transform="translate(20.01,88.33)" id="img-b580bbcf-32">
                <path d="M-0.3,-0 L 0.3 -0 0.3 0 -0.3 0 z" class="primitive"/>
              </g>
              <g transform="translate(20.56,88.33)" id="img-b580bbcf-33">
                <path d="M-0.3,-0 L 0.3 -0 0.3 0 -0.3 0 z" class="primitive"/>
              </g>
              <g transform="translate(21.1,88.33)" id="img-b580bbcf-34">
                <path d="M-0.3,-0 L 0.3 -0 0.3 0 -0.3 0 z" class="primitive"/>
              </g>
              <g transform="translate(21.65,88.33)" id="img-b580bbcf-35">
                <path d="M-0.3,-0 L 0.3 -0 0.3 0 -0.3 0 z" class="primitive"/>
              </g>
              <g transform="translate(22.19,88.33)" id="img-b580bbcf-36">
                <path d="M-0.3,-0 L 0.3 -0 0.3 0 -0.3 0 z" class="primitive"/>
              </g>
              <g transform="translate(22.74,88.33)" id="img-b580bbcf-37">
                <path d="M-0.3,-0 L 0.3 -0 0.3 0 -0.3 0 z" class="primitive"/>
              </g>
              <g transform="translate(23.29,88.33)" id="img-b580bbcf-38">
                <path d="M-0.3,-0 L 0.3 -0 0.3 0 -0.3 0 z" class="primitive"/>
              </g>
              <g transform="translate(23.83,88.33)" id="img-b580bbcf-39">
                <path d="M-0.3,-0 L 0.3 -0 0.3 0 -0.3 0 z" class="primitive"/>
              </g>
              <g transform="translate(24.38,88.33)" id="img-b580bbcf-40">
                <path d="M-0.3,-0 L 0.3 -0 0.3 0 -0.3 0 z" class="primitive"/>
              </g>
              <g transform="translate(24.92,80.19)" id="img-b580bbcf-41">
                <path d="M-0.3,-8.13 L 0.3 -8.13 0.3 8.13 -0.3 8.13 z" class="primitive"/>
              </g>
              <g transform="translate(25.47,88.33)" id="img-b580bbcf-42">
                <path d="M-0.3,-0 L 0.3 -0 0.3 0 -0.3 0 z" class="primitive"/>
              </g>
              <g transform="translate(26.01,88.33)" id="img-b580bbcf-43">
                <path d="M-0.3,-0 L 0.3 -0 0.3 0 -0.3 0 z" class="primitive"/>
              </g>
              <g transform="translate(26.56,88.33)" id="img-b580bbcf-44">
                <path d="M-0.3,-0 L 0.3 -0 0.3 0 -0.3 0 z" class="primitive"/>
              </g>
              <g transform="translate(27.1,88.33)" id="img-b580bbcf-45">
                <path d="M-0.3,-0 L 0.3 -0 0.3 0 -0.3 0 z" class="primitive"/>
              </g>
              <g transform="translate(27.65,88.33)" id="img-b580bbcf-46">
                <path d="M-0.3,-0 L 0.3 -0 0.3 0 -0.3 0 z" class="primitive"/>
              </g>
              <g transform="translate(28.2,88.33)" id="img-b580bbcf-47">
                <path d="M-0.3,-0 L 0.3 -0 0.3 0 -0.3 0 z" class="primitive"/>
              </g>
              <g transform="translate(28.74,88.33)" id="img-b580bbcf-48">
                <path d="M-0.3,-0 L 0.3 -0 0.3 0 -0.3 0 z" class="primitive"/>
              </g>
              <g transform="translate(29.29,88.33)" id="img-b580bbcf-49">
                <path d="M-0.3,-0 L 0.3 -0 0.3 0 -0.3 0 z" class="primitive"/>
              </g>
              <g transform="translate(29.83,88.33)" id="img-b580bbcf-50">
                <path d="M-0.3,-0 L 0.3 -0 0.3 0 -0.3 0 z" class="primitive"/>
              </g>
              <g transform="translate(30.38,88.33)" id="img-b580bbcf-51">
                <path d="M-0.3,-0 L 0.3 -0 0.3 0 -0.3 0 z" class="primitive"/>
              </g>
              <g transform="translate(30.92,88.33)" id="img-b580bbcf-52">
                <path d="M-0.3,-0 L 0.3 -0 0.3 0 -0.3 0 z" class="primitive"/>
              </g>
              <g transform="translate(31.47,88.33)" id="img-b580bbcf-53">
                <path d="M-0.3,-0 L 0.3 -0 0.3 0 -0.3 0 z" class="primitive"/>
              </g>
              <g transform="translate(32.01,88.33)" id="img-b580bbcf-54">
                <path d="M-0.3,-0 L 0.3 -0 0.3 0 -0.3 0 z" class="primitive"/>
              </g>
              <g transform="translate(32.56,72.06)" id="img-b580bbcf-55">
                <path d="M-0.3,-16.27 L 0.3 -16.27 0.3 16.27 -0.3 16.27 z" class="primitive"/>
              </g>
              <g transform="translate(33.11,88.33)" id="img-b580bbcf-56">
                <path d="M-0.3,-0 L 0.3 -0 0.3 0 -0.3 0 z" class="primitive"/>
              </g>
              <g transform="translate(33.65,88.33)" id="img-b580bbcf-57">
                <path d="M-0.3,-0 L 0.3 -0 0.3 0 -0.3 0 z" class="primitive"/>
              </g>
              <g transform="translate(34.2,88.33)" id="img-b580bbcf-58">
                <path d="M-0.3,-0 L 0.3 -0 0.3 0 -0.3 0 z" class="primitive"/>
              </g>
              <g transform="translate(34.74,88.33)" id="img-b580bbcf-59">
                <path d="M-0.3,-0 L 0.3 -0 0.3 0 -0.3 0 z" class="primitive"/>
              </g>
              <g transform="translate(35.29,88.33)" id="img-b580bbcf-60">
                <path d="M-0.3,-0 L 0.3 -0 0.3 0 -0.3 0 z" class="primitive"/>
              </g>
              <g transform="translate(35.83,80.19)" id="img-b580bbcf-61">
                <path d="M-0.3,-8.13 L 0.3 -8.13 0.3 8.13 -0.3 8.13 z" class="primitive"/>
              </g>
              <g transform="translate(36.38,80.19)" id="img-b580bbcf-62">
                <path d="M-0.3,-8.13 L 0.3 -8.13 0.3 8.13 -0.3 8.13 z" class="primitive"/>
              </g>
              <g transform="translate(36.92,80.19)" id="img-b580bbcf-63">
                <path d="M-0.3,-8.13 L 0.3 -8.13 0.3 8.13 -0.3 8.13 z" class="primitive"/>
              </g>
              <g transform="translate(37.47,80.19)" id="img-b580bbcf-64">
                <path d="M-0.3,-8.13 L 0.3 -8.13 0.3 8.13 -0.3 8.13 z" class="primitive"/>
              </g>
              <g transform="translate(38.02,88.33)" id="img-b580bbcf-65">
                <path d="M-0.3,-0 L 0.3 -0 0.3 0 -0.3 0 z" class="primitive"/>
              </g>
              <g transform="translate(38.56,63.93)" id="img-b580bbcf-66">
                <path d="M-0.3,-24.4 L 0.3 -24.4 0.3 24.4 -0.3 24.4 z" class="primitive"/>
              </g>
              <g transform="translate(39.11,88.33)" id="img-b580bbcf-67">
                <path d="M-0.3,-0 L 0.3 -0 0.3 0 -0.3 0 z" class="primitive"/>
              </g>
              <g transform="translate(39.65,80.19)" id="img-b580bbcf-68">
                <path d="M-0.3,-8.13 L 0.3 -8.13 0.3 8.13 -0.3 8.13 z" class="primitive"/>
              </g>
              <g transform="translate(40.2,88.33)" id="img-b580bbcf-69">
                <path d="M-0.3,-0 L 0.3 -0 0.3 0 -0.3 0 z" class="primitive"/>
              </g>
              <g transform="translate(40.74,63.93)" id="img-b580bbcf-70">
                <path d="M-0.3,-24.4 L 0.3 -24.4 0.3 24.4 -0.3 24.4 z" class="primitive"/>
              </g>
              <g transform="translate(41.29,72.06)" id="img-b580bbcf-71">
                <path d="M-0.3,-16.27 L 0.3 -16.27 0.3 16.27 -0.3 16.27 z" class="primitive"/>
              </g>
              <g transform="translate(41.83,80.19)" id="img-b580bbcf-72">
                <path d="M-0.3,-8.13 L 0.3 -8.13 0.3 8.13 -0.3 8.13 z" class="primitive"/>
              </g>
              <g transform="translate(42.38,80.19)" id="img-b580bbcf-73">
                <path d="M-0.3,-8.13 L 0.3 -8.13 0.3 8.13 -0.3 8.13 z" class="primitive"/>
              </g>
              <g transform="translate(42.93,80.19)" id="img-b580bbcf-74">
                <path d="M-0.3,-8.13 L 0.3 -8.13 0.3 8.13 -0.3 8.13 z" class="primitive"/>
              </g>
              <g transform="translate(43.47,55.8)" id="img-b580bbcf-75">
                <path d="M-0.3,-32.53 L 0.3 -32.53 0.3 32.53 -0.3 32.53 z" class="primitive"/>
              </g>
              <g transform="translate(44.02,63.93)" id="img-b580bbcf-76">
                <path d="M-0.3,-24.4 L 0.3 -24.4 0.3 24.4 -0.3 24.4 z" class="primitive"/>
              </g>
              <g transform="translate(44.56,88.33)" id="img-b580bbcf-77">
                <path d="M-0.3,-0 L 0.3 -0 0.3 0 -0.3 0 z" class="primitive"/>
              </g>
              <g transform="translate(45.11,80.19)" id="img-b580bbcf-78">
                <path d="M-0.3,-8.13 L 0.3 -8.13 0.3 8.13 -0.3 8.13 z" class="primitive"/>
              </g>
              <g transform="translate(45.65,55.8)" id="img-b580bbcf-79">
                <path d="M-0.3,-32.53 L 0.3 -32.53 0.3 32.53 -0.3 32.53 z" class="primitive"/>
              </g>
              <g transform="translate(46.2,80.19)" id="img-b580bbcf-80">
                <path d="M-0.3,-8.13 L 0.3 -8.13 0.3 8.13 -0.3 8.13 z" class="primitive"/>
              </g>
              <g transform="translate(46.74,72.06)" id="img-b580bbcf-81">
                <path d="M-0.3,-16.27 L 0.3 -16.27 0.3 16.27 -0.3 16.27 z" class="primitive"/>
              </g>
              <g transform="translate(47.29,72.06)" id="img-b580bbcf-82">
                <path d="M-0.3,-16.27 L 0.3 -16.27 0.3 16.27 -0.3 16.27 z" class="primitive"/>
              </g>
              <g transform="translate(47.84,63.93)" id="img-b580bbcf-83">
                <path d="M-0.3,-24.4 L 0.3 -24.4 0.3 24.4 -0.3 24.4 z" class="primitive"/>
              </g>
              <g transform="translate(48.38,72.06)" id="img-b580bbcf-84">
                <path d="M-0.3,-16.27 L 0.3 -16.27 0.3 16.27 -0.3 16.27 z" class="primitive"/>
              </g>
              <g transform="translate(48.93,72.06)" id="img-b580bbcf-85">
                <path d="M-0.3,-16.27 L 0.3 -16.27 0.3 16.27 -0.3 16.27 z" class="primitive"/>
              </g>
              <g transform="translate(49.47,72.06)" id="img-b580bbcf-86">
                <path d="M-0.3,-16.27 L 0.3 -16.27 0.3 16.27 -0.3 16.27 z" class="primitive"/>
              </g>
              <g transform="translate(50.02,47.66)" id="img-b580bbcf-87">
                <path d="M-0.3,-40.66 L 0.3 -40.66 0.3 40.66 -0.3 40.66 z" class="primitive"/>
              </g>
              <g transform="translate(50.56,80.19)" id="img-b580bbcf-88">
                <path d="M-0.3,-8.13 L 0.3 -8.13 0.3 8.13 -0.3 8.13 z" class="primitive"/>
              </g>
              <g transform="translate(51.11,63.93)" id="img-b580bbcf-89">
                <path d="M-0.3,-24.4 L 0.3 -24.4 0.3 24.4 -0.3 24.4 z" class="primitive"/>
              </g>
              <g transform="translate(51.65,63.93)" id="img-b580bbcf-90">
                <path d="M-0.3,-24.4 L 0.3 -24.4 0.3 24.4 -0.3 24.4 z" class="primitive"/>
              </g>
              <g transform="translate(52.2,63.93)" id="img-b580bbcf-91">
                <path d="M-0.3,-24.4 L 0.3 -24.4 0.3 24.4 -0.3 24.4 z" class="primitive"/>
              </g>
              <g transform="translate(52.75,63.93)" id="img-b580bbcf-92">
                <path d="M-0.3,-24.4 L 0.3 -24.4 0.3 24.4 -0.3 24.4 z" class="primitive"/>
              </g>
              <g transform="translate(53.29,72.06)" id="img-b580bbcf-93">
                <path d="M-0.3,-16.27 L 0.3 -16.27 0.3 16.27 -0.3 16.27 z" class="primitive"/>
              </g>
              <g transform="translate(53.84,72.06)" id="img-b580bbcf-94">
                <path d="M-0.3,-16.27 L 0.3 -16.27 0.3 16.27 -0.3 16.27 z" class="primitive"/>
              </g>
              <g transform="translate(54.38,72.06)" id="img-b580bbcf-95">
                <path d="M-0.3,-16.27 L 0.3 -16.27 0.3 16.27 -0.3 16.27 z" class="primitive"/>
              </g>
              <g transform="translate(54.93,80.19)" id="img-b580bbcf-96">
                <path d="M-0.3,-8.13 L 0.3 -8.13 0.3 8.13 -0.3 8.13 z" class="primitive"/>
              </g>
              <g transform="translate(55.47,80.19)" id="img-b580bbcf-97">
                <path d="M-0.3,-8.13 L 0.3 -8.13 0.3 8.13 -0.3 8.13 z" class="primitive"/>
              </g>
              <g transform="translate(56.02,63.93)" id="img-b580bbcf-98">
                <path d="M-0.3,-24.4 L 0.3 -24.4 0.3 24.4 -0.3 24.4 z" class="primitive"/>
              </g>
              <g transform="translate(56.56,72.06)" id="img-b580bbcf-99">
                <path d="M-0.3,-16.27 L 0.3 -16.27 0.3 16.27 -0.3 16.27 z" class="primitive"/>
              </g>
              <g transform="translate(57.11,72.06)" id="img-b580bbcf-100">
                <path d="M-0.3,-16.27 L 0.3 -16.27 0.3 16.27 -0.3 16.27 z" class="primitive"/>
              </g>
              <g transform="translate(57.66,80.19)" id="img-b580bbcf-101">
                <path d="M-0.3,-8.13 L 0.3 -8.13 0.3 8.13 -0.3 8.13 z" class="primitive"/>
              </g>
              <g transform="translate(58.2,72.06)" id="img-b580bbcf-102">
                <path d="M-0.3,-16.27 L 0.3 -16.27 0.3 16.27 -0.3 16.27 z" class="primitive"/>
              </g>
              <g transform="translate(58.75,88.33)" id="img-b580bbcf-103">
                <path d="M-0.3,-0 L 0.3 -0 0.3 0 -0.3 0 z" class="primitive"/>
              </g>
              <g transform="translate(59.29,72.06)" id="img-b580bbcf-104">
                <path d="M-0.3,-16.27 L 0.3 -16.27 0.3 16.27 -0.3 16.27 z" class="primitive"/>
              </g>
              <g transform="translate(59.84,80.19)" id="img-b580bbcf-105">
                <path d="M-0.3,-8.13 L 0.3 -8.13 0.3 8.13 -0.3 8.13 z" class="primitive"/>
              </g>
              <g transform="translate(60.38,80.19)" id="img-b580bbcf-106">
                <path d="M-0.3,-8.13 L 0.3 -8.13 0.3 8.13 -0.3 8.13 z" class="primitive"/>
              </g>
              <g transform="translate(60.93,80.19)" id="img-b580bbcf-107">
                <path d="M-0.3,-8.13 L 0.3 -8.13 0.3 8.13 -0.3 8.13 z" class="primitive"/>
              </g>
              <g transform="translate(61.47,88.33)" id="img-b580bbcf-108">
                <path d="M-0.3,-0 L 0.3 -0 0.3 0 -0.3 0 z" class="primitive"/>
              </g>
              <g transform="translate(62.02,88.33)" id="img-b580bbcf-109">
                <path d="M-0.3,-0 L 0.3 -0 0.3 0 -0.3 0 z" class="primitive"/>
              </g>
              <g transform="translate(62.57,72.06)" id="img-b580bbcf-110">
                <path d="M-0.3,-16.27 L 0.3 -16.27 0.3 16.27 -0.3 16.27 z" class="primitive"/>
              </g>
              <g transform="translate(63.11,80.19)" id="img-b580bbcf-111">
                <path d="M-0.3,-8.13 L 0.3 -8.13 0.3 8.13 -0.3 8.13 z" class="primitive"/>
              </g>
              <g transform="translate(63.66,80.19)" id="img-b580bbcf-112">
                <path d="M-0.3,-8.13 L 0.3 -8.13 0.3 8.13 -0.3 8.13 z" class="primitive"/>
              </g>
              <g transform="translate(64.2,88.33)" id="img-b580bbcf-113">
                <path d="M-0.3,-0 L 0.3 -0 0.3 0 -0.3 0 z" class="primitive"/>
              </g>
              <g transform="translate(64.75,72.06)" id="img-b580bbcf-114">
                <path d="M-0.3,-16.27 L 0.3 -16.27 0.3 16.27 -0.3 16.27 z" class="primitive"/>
              </g>
              <g transform="translate(65.29,63.93)" id="img-b580bbcf-115">
                <path d="M-0.3,-24.4 L 0.3 -24.4 0.3 24.4 -0.3 24.4 z" class="primitive"/>
              </g>
              <g transform="translate(65.84,88.33)" id="img-b580bbcf-116">
                <path d="M-0.3,-0 L 0.3 -0 0.3 0 -0.3 0 z" class="primitive"/>
              </g>
              <g transform="translate(66.38,80.19)" id="img-b580bbcf-117">
                <path d="M-0.3,-8.13 L 0.3 -8.13 0.3 8.13 -0.3 8.13 z" class="primitive"/>
              </g>
              <g transform="translate(66.93,88.33)" id="img-b580bbcf-118">
                <path d="M-0.3,-0 L 0.3 -0 0.3 0 -0.3 0 z" class="primitive"/>
              </g>
              <g transform="translate(67.48,80.19)" id="img-b580bbcf-119">
                <path d="M-0.3,-8.13 L 0.3 -8.13 0.3 8.13 -0.3 8.13 z" class="primitive"/>
              </g>
              <g transform="translate(68.02,88.33)" id="img-b580bbcf-120">
                <path d="M-0.3,-0 L 0.3 -0 0.3 0 -0.3 0 z" class="primitive"/>
              </g>
              <g transform="translate(68.57,88.33)" id="img-b580bbcf-121">
                <path d="M-0.3,-0 L 0.3 -0 0.3 0 -0.3 0 z" class="primitive"/>
              </g>
              <g transform="translate(69.11,88.33)" id="img-b580bbcf-122">
                <path d="M-0.3,-0 L 0.3 -0 0.3 0 -0.3 0 z" class="primitive"/>
              </g>
              <g transform="translate(69.66,80.19)" id="img-b580bbcf-123">
                <path d="M-0.3,-8.13 L 0.3 -8.13 0.3 8.13 -0.3 8.13 z" class="primitive"/>
              </g>
              <g transform="translate(70.2,88.33)" id="img-b580bbcf-124">
                <path d="M-0.3,-0 L 0.3 -0 0.3 0 -0.3 0 z" class="primitive"/>
              </g>
              <g transform="translate(70.75,88.33)" id="img-b580bbcf-125">
                <path d="M-0.3,-0 L 0.3 -0 0.3 0 -0.3 0 z" class="primitive"/>
              </g>
              <g transform="translate(71.29,88.33)" id="img-b580bbcf-126">
                <path d="M-0.3,-0 L 0.3 -0 0.3 0 -0.3 0 z" class="primitive"/>
              </g>
              <g transform="translate(71.84,88.33)" id="img-b580bbcf-127">
                <path d="M-0.3,-0 L 0.3 -0 0.3 0 -0.3 0 z" class="primitive"/>
              </g>
              <g transform="translate(72.39,88.33)" id="img-b580bbcf-128">
                <path d="M-0.3,-0 L 0.3 -0 0.3 0 -0.3 0 z" class="primitive"/>
              </g>
              <g transform="translate(72.93,88.33)" id="img-b580bbcf-129">
                <path d="M-0.3,-0 L 0.3 -0 0.3 0 -0.3 0 z" class="primitive"/>
              </g>
              <g transform="translate(73.48,80.19)" id="img-b580bbcf-130">
                <path d="M-0.3,-8.13 L 0.3 -8.13 0.3 8.13 -0.3 8.13 z" class="primitive"/>
              </g>
            </g>
          </g>
        </g>
      </g>
    </g>
  </g>
  <g class="guide ylabels" font-size="2.82" font-family="'PT Sans Caption','Helvetica Neue','Helvetica',sans-serif" fill="#6C606B" id="img-b580bbcf-131">
    <g transform="translate(15.28,88.33)" id="img-b580bbcf-132">
      <g class="primitive">
        <text text-anchor="end" dy="0.35em">0</text>
      </g>
    </g>
    <g transform="translate(15.28,72.06)" id="img-b580bbcf-133">
      <g class="primitive">
        <text text-anchor="end" dy="0.35em">1</text>
      </g>
    </g>
    <g transform="translate(15.28,55.8)" id="img-b580bbcf-134">
      <g class="primitive">
        <text text-anchor="end" dy="0.35em">2</text>
      </g>
    </g>
    <g transform="translate(15.28,39.53)" id="img-b580bbcf-135">
      <g class="primitive">
        <text text-anchor="end" dy="0.35em">3</text>
      </g>
    </g>
    <g transform="translate(15.28,23.27)" id="img-b580bbcf-136">
      <g class="primitive">
        <text text-anchor="end" dy="0.35em">4</text>
      </g>
    </g>
    <g transform="translate(15.28,7)" id="img-b580bbcf-137">
      <g class="primitive">
        <text text-anchor="end" dy="0.35em">5</text>
      </g>
    </g>
  </g>
  <g font-size="3.88" font-family="'PT Sans','Helvetica Neue','Helvetica',sans-serif" fill="#564A55" stroke="#000000" stroke-opacity="0.000" id="img-b580bbcf-138">
    <g transform="translate(8.81,45.66)" id="img-b580bbcf-139">
      <g class="primitive">
        <text text-anchor="middle" dy="0.35em" transform="rotate(-90,0, 2)">frequency</text>
      </g>
    </g>
  </g>
</g>
<defs>
  <clipPath id="img-b580bbcf-11">
    <path d="M16.28,5 L 79.86 5 79.86 90.33 16.28 90.33" />
  </clipPath>
</defs>
</svg>
