<?xml version="1.0" encoding="UTF-8"?>
<svg xmlns="http://www.w3.org/2000/svg"
     xmlns:xlink="http://www.w3.org/1999/xlink"
     xmlns:gadfly="http://www.gadflyjl.org/ns"
     version="1.2"
     width="141.42mm" height="100mm" viewBox="0 0 141.42 100"
     stroke="none"
     fill="#000000"
     stroke-width="0.3"
     font-size="3.88"
>
<defs>
  <marker id="arrow" markerWidth="15" markerHeight="7" refX="5" refY="3.5" orient="auto" markerUnits="strokeWidth">
    <path d="M0,0 L15,3.5 L0,7 z" stroke="context-stroke" fill="context-stroke"/>
  </marker>
</defs>
<g class="plotroot xscalable yscalable" id="img-8a624863-1">
  <g class="guide xlabels" font-size="2.82" font-family="'PT Sans Caption','Helvetica Neue','Helvetica',sans-serif" fill="#6C606B" id="img-8a624863-2">
    <g transform="translate(19.96,91.33)">
      <g class="primitive">
        <text text-anchor="middle" dy="0.6em">11.7</text>
      </g>
    </g>
    <g transform="translate(26.62,91.33)">
      <g class="primitive">
        <text text-anchor="middle" dy="0.6em">11.8</text>
      </g>
    </g>
    <g transform="translate(33.29,91.33)">
      <g class="primitive">
        <text text-anchor="middle" dy="0.6em">11.9</text>
      </g>
    </g>
    <g transform="translate(39.95,91.33)">
      <g class="primitive">
        <text text-anchor="middle" dy="0.6em">12.0</text>
      </g>
    </g>
    <g transform="translate(46.61,91.33)">
      <g class="primitive">
        <text text-anchor="middle" dy="0.6em">12.1</text>
      </g>
    </g>
    <g transform="translate(53.28,91.33)">
      <g class="primitive">
        <text text-anchor="middle" dy="0.6em">12.2</text>
      </g>
    </g>
    <g transform="translate(59.94,91.33)">
      <g class="primitive">
        <text text-anchor="middle" dy="0.6em">12.3</text>
      </g>
    </g>
    <g transform="translate(66.6,91.33)">
      <g class="primitive">
        <text text-anchor="middle" dy="0.6em">12.4</text>
      </g>
    </g>
    <g transform="translate(73.27,91.33)">
      <g class="primitive">
        <text text-anchor="middle" dy="0.6em">12.5</text>
      </g>
    </g>
  </g>
  <g class="guide colorkey" id="img-8a624863-3">
    <g class="color_noncoding_noncoding_noncoding_coding_4-tail" id="img-8a624863-4">
      <g fill="#4C404B" font-size="2.82" font-family="'PT Sans','Helvetica Neue','Helvetica',sans-serif" id="img-8a624863-5">
        <g transform="translate(79.08,49.48)" id="img-8a624863-6">
          <g class="primitive">
            <text dy="0.35em">noncoding_noncoding_noncoding_coding_4-tail</text>
          </g>
        </g>
      </g>
      <g fill-opacity="1" fill="#00BFFF" stroke="#FFFFFF" id="img-8a624863-7">
        <g transform="translate(77.17,49.48)" id="img-8a624863-8">
          <path d="M-0.91,-0.91 L 0.91 -0.91 0.91 0.91 -0.91 0.91 z" class="primitive"/>
        </g>
      </g>
    </g>
    <g fill="#362A35" font-size="3.88" font-family="'PT Sans','Helvetica Neue','Helvetica',sans-serif" stroke="#000000" stroke-opacity="0.000" id="img-8a624863-9">
      <g transform="translate(76.27,45.66)" id="img-8a624863-10">
        <g class="primitive">
          <text dy="-0em">graphlet</text>
        </g>
      </g>
    </g>
  </g>
  <g clip-path="url(#img-8a624863-11)">
    <g id="img-8a624863-12">
      <g pointer-events="visible" stroke-width="0.3" fill="#000000" fill-opacity="0.000" stroke="#000000" stroke-opacity="0.000" class="guide background" id="img-8a624863-13">
        <g transform="translate(46.61,47.66)" id="img-8a624863-14">
          <path d="M-28.65,-42.66 L 28.65 -42.66 28.65 42.66 -28.65 42.66 z" class="primitive"/>
        </g>
      </g>
      <g class="guide ygridlines xfixed" stroke-dasharray="0.5,0.5" stroke-width="0.2" stroke="#D0D0E0" id="img-8a624863-15">
        <g transform="translate(46.61,88.33)" id="img-8a624863-16">
          <path fill="none" d="M-28.65,0 L 28.65 0" class="primitive"/>
        </g>
        <g transform="translate(46.61,68)" id="img-8a624863-17">
          <path fill="none" d="M-28.65,0 L 28.65 0" class="primitive"/>
        </g>
        <g transform="translate(46.61,47.66)" id="img-8a624863-18">
          <path fill="none" d="M-28.65,0 L 28.65 0" class="primitive"/>
        </g>
        <g transform="translate(46.61,27.33)" id="img-8a624863-19">
          <path fill="none" d="M-28.65,0 L 28.65 0" class="primitive"/>
        </g>
        <g transform="translate(46.61,7)" id="img-8a624863-20">
          <path fill="none" d="M-28.65,0 L 28.65 0" class="primitive"/>
        </g>
      </g>
      <g class="guide xgridlines yfixed" stroke-dasharray="0.5,0.5" stroke-width="0.2" stroke="#D0D0E0" id="img-8a624863-21">
        <g transform="translate(19.96,47.66)" id="img-8a624863-22">
          <path fill="none" d="M0,-42.66 L 0 42.66" class="primitive"/>
        </g>
        <g transform="translate(26.62,47.66)" id="img-8a624863-23">
          <path fill="none" d="M0,-42.66 L 0 42.66" class="primitive"/>
        </g>
        <g transform="translate(33.29,47.66)" id="img-8a624863-24">
          <path fill="none" d="M0,-42.66 L 0 42.66" class="primitive"/>
        </g>
        <g transform="translate(39.95,47.66)" id="img-8a624863-25">
          <path fill="none" d="M0,-42.66 L 0 42.66" class="primitive"/>
        </g>
        <g transform="translate(46.61,47.66)" id="img-8a624863-26">
          <path fill="none" d="M0,-42.66 L 0 42.66" class="primitive"/>
        </g>
        <g transform="translate(53.28,47.66)" id="img-8a624863-27">
          <path fill="none" d="M0,-42.66 L 0 42.66" class="primitive"/>
        </g>
        <g transform="translate(59.94,47.66)" id="img-8a624863-28">
          <path fill="none" d="M0,-42.66 L 0 42.66" class="primitive"/>
        </g>
        <g transform="translate(66.6,47.66)" id="img-8a624863-29">
          <path fill="none" d="M0,-42.66 L 0 42.66" class="primitive"/>
        </g>
        <g transform="translate(73.27,47.66)" id="img-8a624863-30">
          <path fill="none" d="M0,-42.66 L 0 42.66" class="primitive"/>
        </g>
      </g>
      <g class="plotpanel" id="img-8a624863-31">
        <metadata>
          <boundingbox value="17.95833333333333mm 5.0mm 57.309689570642846mm 85.32666666666667mm"/>
          <unitbox value="11.66998669448488 40.98368718747438 0.8600266110302421 -41.96737437494876"/>
        </metadata>
        <g shape-rendering="crispEdges" stroke-width="0.3" id="img-8a624863-32">
          <g stroke="#000000" stroke-opacity="0.000" class="geometry" id="img-8a624863-33">
            <g fill="#00BFFF" id="img-8a624863-34">
              <g transform="translate(23.5,87.31)" id="img-8a624863-35">
                <path d="M-0.25,-1.02 L 0.25 -1.02 0.25 1.02 -0.25 1.02 z" class="primitive"/>
              </g>
              <g transform="translate(23.95,88.33)" id="img-8a624863-36">
                <path d="M-0.25,-0 L 0.25 -0 0.25 0 -0.25 0 z" class="primitive"/>
              </g>
              <g transform="translate(24.41,88.33)" id="img-8a624863-37">
                <path d="M-0.25,-0 L 0.25 -0 0.25 0 -0.25 0 z" class="primitive"/>
              </g>
              <g transform="translate(24.87,88.33)" id="img-8a624863-38">
                <path d="M-0.25,-0 L 0.25 -0 0.25 0 -0.25 0 z" class="primitive"/>
              </g>
              <g transform="translate(25.32,88.33)" id="img-8a624863-39">
                <path d="M-0.25,-0 L 0.25 -0 0.25 0 -0.25 0 z" class="primitive"/>
              </g>
              <g transform="translate(25.78,88.33)" id="img-8a624863-40">
                <path d="M-0.25,-0 L 0.25 -0 0.25 0 -0.25 0 z" class="primitive"/>
              </g>
              <g transform="translate(26.24,87.31)" id="img-8a624863-41">
                <path d="M-0.25,-1.02 L 0.25 -1.02 0.25 1.02 -0.25 1.02 z" class="primitive"/>
              </g>
              <g transform="translate(26.69,88.33)" id="img-8a624863-42">
                <path d="M-0.25,-0 L 0.25 -0 0.25 0 -0.25 0 z" class="primitive"/>
              </g>
              <g transform="translate(27.15,88.33)" id="img-8a624863-43">
                <path d="M-0.25,-0 L 0.25 -0 0.25 0 -0.25 0 z" class="primitive"/>
              </g>
              <g transform="translate(27.6,88.33)" id="img-8a624863-44">
                <path d="M-0.25,-0 L 0.25 -0 0.25 0 -0.25 0 z" class="primitive"/>
              </g>
              <g transform="translate(28.06,88.33)" id="img-8a624863-45">
                <path d="M-0.25,-0 L 0.25 -0 0.25 0 -0.25 0 z" class="primitive"/>
              </g>
              <g transform="translate(28.52,87.31)" id="img-8a624863-46">
                <path d="M-0.25,-1.02 L 0.25 -1.02 0.25 1.02 -0.25 1.02 z" class="primitive"/>
              </g>
              <g transform="translate(28.97,88.33)" id="img-8a624863-47">
                <path d="M-0.25,-0 L 0.25 -0 0.25 0 -0.25 0 z" class="primitive"/>
              </g>
              <g transform="translate(29.43,87.31)" id="img-8a624863-48">
                <path d="M-0.25,-1.02 L 0.25 -1.02 0.25 1.02 -0.25 1.02 z" class="primitive"/>
              </g>
              <g transform="translate(29.88,87.31)" id="img-8a624863-49">
                <path d="M-0.25,-1.02 L 0.25 -1.02 0.25 1.02 -0.25 1.02 z" class="primitive"/>
              </g>
              <g transform="translate(30.34,87.31)" id="img-8a624863-50">
                <path d="M-0.25,-1.02 L 0.25 -1.02 0.25 1.02 -0.25 1.02 z" class="primitive"/>
              </g>
              <g transform="translate(30.8,87.31)" id="img-8a624863-51">
                <path d="M-0.25,-1.02 L 0.25 -1.02 0.25 1.02 -0.25 1.02 z" class="primitive"/>
              </g>
              <g transform="translate(31.25,88.33)" id="img-8a624863-52">
                <path d="M-0.25,-0 L 0.25 -0 0.25 0 -0.25 0 z" class="primitive"/>
              </g>
              <g transform="translate(31.71,87.31)" id="img-8a624863-53">
                <path d="M-0.25,-1.02 L 0.25 -1.02 0.25 1.02 -0.25 1.02 z" class="primitive"/>
              </g>
              <g transform="translate(32.17,87.31)" id="img-8a624863-54">
                <path d="M-0.25,-1.02 L 0.25 -1.02 0.25 1.02 -0.25 1.02 z" class="primitive"/>
              </g>
              <g transform="translate(32.62,84.26)" id="img-8a624863-55">
                <path d="M-0.25,-4.07 L 0.25 -4.07 0.25 4.07 -0.25 4.07 z" class="primitive"/>
              </g>
              <g transform="translate(33.08,85.28)" id="img-8a624863-56">
                <path d="M-0.25,-3.05 L 0.25 -3.05 0.25 3.05 -0.25 3.05 z" class="primitive"/>
              </g>
              <g transform="translate(33.53,87.31)" id="img-8a624863-57">
                <path d="M-0.25,-1.02 L 0.25 -1.02 0.25 1.02 -0.25 1.02 z" class="primitive"/>
              </g>
              <g transform="translate(33.99,87.31)" id="img-8a624863-58">
                <path d="M-0.25,-1.02 L 0.25 -1.02 0.25 1.02 -0.25 1.02 z" class="primitive"/>
              </g>
              <g transform="translate(34.45,83.24)" id="img-8a624863-59">
                <path d="M-0.25,-5.08 L 0.25 -5.08 0.25 5.08 -0.25 5.08 z" class="primitive"/>
              </g>
              <g transform="translate(34.9,85.28)" id="img-8a624863-60">
                <path d="M-0.25,-3.05 L 0.25 -3.05 0.25 3.05 -0.25 3.05 z" class="primitive"/>
              </g>
              <g transform="translate(35.36,83.24)" id="img-8a624863-61">
                <path d="M-0.25,-5.08 L 0.25 -5.08 0.25 5.08 -0.25 5.08 z" class="primitive"/>
              </g>
              <g transform="translate(35.82,87.31)" id="img-8a624863-62">
                <path d="M-0.25,-1.02 L 0.25 -1.02 0.25 1.02 -0.25 1.02 z" class="primitive"/>
              </g>
              <g transform="translate(36.27,85.28)" id="img-8a624863-63">
                <path d="M-0.25,-3.05 L 0.25 -3.05 0.25 3.05 -0.25 3.05 z" class="primitive"/>
              </g>
              <g transform="translate(36.73,82.23)" id="img-8a624863-64">
                <path d="M-0.25,-6.1 L 0.25 -6.1 0.25 6.1 -0.25 6.1 z" class="primitive"/>
              </g>
              <g transform="translate(37.18,86.29)" id="img-8a624863-65">
                <path d="M-0.25,-2.03 L 0.25 -2.03 0.25 2.03 -0.25 2.03 z" class="primitive"/>
              </g>
              <g transform="translate(37.64,81.21)" id="img-8a624863-66">
                <path d="M-0.25,-7.12 L 0.25 -7.12 0.25 7.12 -0.25 7.12 z" class="primitive"/>
              </g>
              <g transform="translate(38.1,83.24)" id="img-8a624863-67">
                <path d="M-0.25,-5.08 L 0.25 -5.08 0.25 5.08 -0.25 5.08 z" class="primitive"/>
              </g>
              <g transform="translate(38.55,84.26)" id="img-8a624863-68">
                <path d="M-0.25,-4.07 L 0.25 -4.07 0.25 4.07 -0.25 4.07 z" class="primitive"/>
              </g>
              <g transform="translate(39.01,79.18)" id="img-8a624863-69">
                <path d="M-0.25,-9.15 L 0.25 -9.15 0.25 9.15 -0.25 9.15 z" class="primitive"/>
              </g>
              <g transform="translate(39.46,79.18)" id="img-8a624863-70">
                <path d="M-0.25,-9.15 L 0.25 -9.15 0.25 9.15 -0.25 9.15 z" class="primitive"/>
              </g>
              <g transform="translate(39.92,79.18)" id="img-8a624863-71">
                <path d="M-0.25,-9.15 L 0.25 -9.15 0.25 9.15 -0.25 9.15 z" class="primitive"/>
              </g>
              <g transform="translate(40.38,77.14)" id="img-8a624863-72">
                <path d="M-0.25,-11.18 L 0.25 -11.18 0.25 11.18 -0.25 11.18 z" class="primitive"/>
              </g>
              <g transform="translate(40.83,78.16)" id="img-8a624863-73">
                <path d="M-0.25,-10.17 L 0.25 -10.17 0.25 10.17 -0.25 10.17 z" class="primitive"/>
              </g>
              <g transform="translate(41.29,73.08)" id="img-8a624863-74">
                <path d="M-0.25,-15.25 L 0.25 -15.25 0.25 15.25 -0.25 15.25 z" class="primitive"/>
              </g>
              <g transform="translate(41.75,72.06)" id="img-8a624863-75">
                <path d="M-0.25,-16.27 L 0.25 -16.27 0.25 16.27 -0.25 16.27 z" class="primitive"/>
              </g>
              <g transform="translate(42.2,75.11)" id="img-8a624863-76">
                <path d="M-0.25,-13.22 L 0.25 -13.22 0.25 13.22 -0.25 13.22 z" class="primitive"/>
              </g>
              <g transform="translate(42.66,73.08)" id="img-8a624863-77">
                <path d="M-0.25,-15.25 L 0.25 -15.25 0.25 15.25 -0.25 15.25 z" class="primitive"/>
              </g>
              <g transform="translate(43.11,73.08)" id="img-8a624863-78">
                <path d="M-0.25,-15.25 L 0.25 -15.25 0.25 15.25 -0.25 15.25 z" class="primitive"/>
              </g>
              <g transform="translate(43.57,70.03)" id="img-8a624863-79">
                <path d="M-0.25,-18.3 L 0.25 -18.3 0.25 18.3 -0.25 18.3 z" class="primitive"/>
              </g>
              <g transform="translate(44.03,63.93)" id="img-8a624863-80">
                <path d="M-0.25,-24.4 L 0.25 -24.4 0.25 24.4 -0.25 24.4 z" class="primitive"/>
              </g>
              <g transform="translate(44.48,68)" id="img-8a624863-81">
                <path d="M-0.25,-20.33 L 0.25 -20.33 0.25 20.33 -0.25 20.33 z" class="primitive"/>
              </g>
              <g transform="translate(44.94,70.03)" id="img-8a624863-82">
                <path d="M-0.25,-18.3 L 0.25 -18.3 0.25 18.3 -0.25 18.3 z" class="primitive"/>
              </g>
              <g transform="translate(45.4,62.91)" id="img-8a624863-83">
                <path d="M-0.25,-25.41 L 0.25 -25.41 0.25 25.41 -0.25 25.41 z" class="primitive"/>
              </g>
              <g transform="translate(45.85,64.95)" id="img-8a624863-84">
                <path d="M-0.25,-23.38 L 0.25 -23.38 0.25 23.38 -0.25 23.38 z" class="primitive"/>
              </g>
              <g transform="translate(46.31,65.96)" id="img-8a624863-85">
                <path d="M-0.25,-22.36 L 0.25 -22.36 0.25 22.36 -0.25 22.36 z" class="primitive"/>
              </g>
              <g transform="translate(46.76,56.81)" id="img-8a624863-86">
                <path d="M-0.25,-31.51 L 0.25 -31.51 0.25 31.51 -0.25 31.51 z" class="primitive"/>
              </g>
              <g transform="translate(47.22,62.91)" id="img-8a624863-87">
                <path d="M-0.25,-25.41 L 0.25 -25.41 0.25 25.41 -0.25 25.41 z" class="primitive"/>
              </g>
              <g transform="translate(47.68,74.09)" id="img-8a624863-88">
                <path d="M-0.25,-14.23 L 0.25 -14.23 0.25 14.23 -0.25 14.23 z" class="primitive"/>
              </g>
              <g transform="translate(48.13,62.91)" id="img-8a624863-89">
                <path d="M-0.25,-25.41 L 0.25 -25.41 0.25 25.41 -0.25 25.41 z" class="primitive"/>
              </g>
              <g transform="translate(48.59,56.81)" id="img-8a624863-90">
                <path d="M-0.25,-31.51 L 0.25 -31.51 0.25 31.51 -0.25 31.51 z" class="primitive"/>
              </g>
              <g transform="translate(49.05,58.85)" id="img-8a624863-91">
                <path d="M-0.25,-29.48 L 0.25 -29.48 0.25 29.48 -0.25 29.48 z" class="primitive"/>
              </g>
              <g transform="translate(49.5,60.88)" id="img-8a624863-92">
                <path d="M-0.25,-27.45 L 0.25 -27.45 0.25 27.45 -0.25 27.45 z" class="primitive"/>
              </g>
              <g transform="translate(49.96,63.93)" id="img-8a624863-93">
                <path d="M-0.25,-24.4 L 0.25 -24.4 0.25 24.4 -0.25 24.4 z" class="primitive"/>
              </g>
              <g transform="translate(50.41,68)" id="img-8a624863-94">
                <path d="M-0.25,-20.33 L 0.25 -20.33 0.25 20.33 -0.25 20.33 z" class="primitive"/>
              </g>
              <g transform="translate(50.87,61.9)" id="img-8a624863-95">
                <path d="M-0.25,-26.43 L 0.25 -26.43 0.25 26.43 -0.25 26.43 z" class="primitive"/>
              </g>
              <g transform="translate(51.33,70.03)" id="img-8a624863-96">
                <path d="M-0.25,-18.3 L 0.25 -18.3 0.25 18.3 -0.25 18.3 z" class="primitive"/>
              </g>
              <g transform="translate(51.78,65.96)" id="img-8a624863-97">
                <path d="M-0.25,-22.36 L 0.25 -22.36 0.25 22.36 -0.25 22.36 z" class="primitive"/>
              </g>
              <g transform="translate(52.24,60.88)" id="img-8a624863-98">
                <path d="M-0.25,-27.45 L 0.25 -27.45 0.25 27.45 -0.25 27.45 z" class="primitive"/>
              </g>
              <g transform="translate(52.69,55.8)" id="img-8a624863-99">
                <path d="M-0.25,-32.53 L 0.25 -32.53 0.25 32.53 -0.25 32.53 z" class="primitive"/>
              </g>
              <g transform="translate(53.15,58.85)" id="img-8a624863-100">
                <path d="M-0.25,-29.48 L 0.25 -29.48 0.25 29.48 -0.25 29.48 z" class="primitive"/>
              </g>
              <g transform="translate(53.61,68)" id="img-8a624863-101">
                <path d="M-0.25,-20.33 L 0.25 -20.33 0.25 20.33 -0.25 20.33 z" class="primitive"/>
              </g>
              <g transform="translate(54.06,58.85)" id="img-8a624863-102">
                <path d="M-0.25,-29.48 L 0.25 -29.48 0.25 29.48 -0.25 29.48 z" class="primitive"/>
              </g>
              <g transform="translate(54.52,69.01)" id="img-8a624863-103">
                <path d="M-0.25,-19.32 L 0.25 -19.32 0.25 19.32 -0.25 19.32 z" class="primitive"/>
              </g>
              <g transform="translate(54.98,66.98)" id="img-8a624863-104">
                <path d="M-0.25,-21.35 L 0.25 -21.35 0.25 21.35 -0.25 21.35 z" class="primitive"/>
              </g>
              <g transform="translate(55.43,63.93)" id="img-8a624863-105">
                <path d="M-0.25,-24.4 L 0.25 -24.4 0.25 24.4 -0.25 24.4 z" class="primitive"/>
              </g>
              <g transform="translate(55.89,70.03)" id="img-8a624863-106">
                <path d="M-0.25,-18.3 L 0.25 -18.3 0.25 18.3 -0.25 18.3 z" class="primitive"/>
              </g>
              <g transform="translate(56.34,80.19)" id="img-8a624863-107">
                <path d="M-0.25,-8.13 L 0.25 -8.13 0.25 8.13 -0.25 8.13 z" class="primitive"/>
              </g>
              <g transform="translate(56.8,70.03)" id="img-8a624863-108">
                <path d="M-0.25,-18.3 L 0.25 -18.3 0.25 18.3 -0.25 18.3 z" class="primitive"/>
              </g>
              <g transform="translate(57.26,70.03)" id="img-8a624863-109">
                <path d="M-0.25,-18.3 L 0.25 -18.3 0.25 18.3 -0.25 18.3 z" class="primitive"/>
              </g>
              <g transform="translate(57.71,76.13)" id="img-8a624863-110">
                <path d="M-0.25,-12.2 L 0.25 -12.2 0.25 12.2 -0.25 12.2 z" class="primitive"/>
              </g>
              <g transform="translate(58.17,81.21)" id="img-8a624863-111">
                <path d="M-0.25,-7.12 L 0.25 -7.12 0.25 7.12 -0.25 7.12 z" class="primitive"/>
              </g>
              <g transform="translate(58.63,78.16)" id="img-8a624863-112">
                <path d="M-0.25,-10.17 L 0.25 -10.17 0.25 10.17 -0.25 10.17 z" class="primitive"/>
              </g>
              <g transform="translate(59.08,78.16)" id="img-8a624863-113">
                <path d="M-0.25,-10.17 L 0.25 -10.17 0.25 10.17 -0.25 10.17 z" class="primitive"/>
              </g>
              <g transform="translate(59.54,79.18)" id="img-8a624863-114">
                <path d="M-0.25,-9.15 L 0.25 -9.15 0.25 9.15 -0.25 9.15 z" class="primitive"/>
              </g>
              <g transform="translate(59.99,82.23)" id="img-8a624863-115">
                <path d="M-0.25,-6.1 L 0.25 -6.1 0.25 6.1 -0.25 6.1 z" class="primitive"/>
              </g>
              <g transform="translate(60.45,79.18)" id="img-8a624863-116">
                <path d="M-0.25,-9.15 L 0.25 -9.15 0.25 9.15 -0.25 9.15 z" class="primitive"/>
              </g>
              <g transform="translate(60.91,77.14)" id="img-8a624863-117">
                <path d="M-0.25,-11.18 L 0.25 -11.18 0.25 11.18 -0.25 11.18 z" class="primitive"/>
              </g>
              <g transform="translate(61.36,80.19)" id="img-8a624863-118">
                <path d="M-0.25,-8.13 L 0.25 -8.13 0.25 8.13 -0.25 8.13 z" class="primitive"/>
              </g>
              <g transform="translate(61.82,83.24)" id="img-8a624863-119">
                <path d="M-0.25,-5.08 L 0.25 -5.08 0.25 5.08 -0.25 5.08 z" class="primitive"/>
              </g>
              <g transform="translate(62.27,82.23)" id="img-8a624863-120">
                <path d="M-0.25,-6.1 L 0.25 -6.1 0.25 6.1 -0.25 6.1 z" class="primitive"/>
              </g>
              <g transform="translate(62.73,87.31)" id="img-8a624863-121">
                <path d="M-0.25,-1.02 L 0.25 -1.02 0.25 1.02 -0.25 1.02 z" class="primitive"/>
              </g>
              <g transform="translate(63.19,85.28)" id="img-8a624863-122">
                <path d="M-0.25,-3.05 L 0.25 -3.05 0.25 3.05 -0.25 3.05 z" class="primitive"/>
              </g>
              <g transform="translate(63.64,85.28)" id="img-8a624863-123">
                <path d="M-0.25,-3.05 L 0.25 -3.05 0.25 3.05 -0.25 3.05 z" class="primitive"/>
              </g>
              <g transform="translate(64.1,84.26)" id="img-8a624863-124">
                <path d="M-0.25,-4.07 L 0.25 -4.07 0.25 4.07 -0.25 4.07 z" class="primitive"/>
              </g>
              <g transform="translate(64.56,85.28)" id="img-8a624863-125">
                <path d="M-0.25,-3.05 L 0.25 -3.05 0.25 3.05 -0.25 3.05 z" class="primitive"/>
              </g>
              <g transform="translate(65.01,87.31)" id="img-8a624863-126">
                <path d="M-0.25,-1.02 L 0.25 -1.02 0.25 1.02 -0.25 1.02 z" class="primitive"/>
              </g>
              <g transform="translate(65.47,85.28)" id="img-8a624863-127">
                <path d="M-0.25,-3.05 L 0.25 -3.05 0.25 3.05 -0.25 3.05 z" class="primitive"/>
              </g>
              <g transform="translate(65.92,88.33)" id="img-8a624863-128">
                <path d="M-0.25,-0 L 0.25 -0 0.25 0 -0.25 0 z" class="primitive"/>
              </g>
              <g transform="translate(66.38,88.33)" id="img-8a624863-129">
                <path d="M-0.25,-0 L 0.25 -0 0.25 0 -0.25 0 z" class="primitive"/>
              </g>
              <g transform="translate(66.84,87.31)" id="img-8a624863-130">
                <path d="M-0.25,-1.02 L 0.25 -1.02 0.25 1.02 -0.25 1.02 z" class="primitive"/>
              </g>
              <g transform="translate(67.29,88.33)" id="img-8a624863-131">
                <path d="M-0.25,-0 L 0.25 -0 0.25 0 -0.25 0 z" class="primitive"/>
              </g>
              <g transform="translate(67.75,87.31)" id="img-8a624863-132">
                <path d="M-0.25,-1.02 L 0.25 -1.02 0.25 1.02 -0.25 1.02 z" class="primitive"/>
              </g>
              <g transform="translate(68.21,88.33)" id="img-8a624863-133">
                <path d="M-0.25,-0 L 0.25 -0 0.25 0 -0.25 0 z" class="primitive"/>
              </g>
              <g transform="translate(68.66,87.31)" id="img-8a624863-134">
                <path d="M-0.25,-1.02 L 0.25 -1.02 0.25 1.02 -0.25 1.02 z" class="primitive"/>
              </g>
            </g>
          </g>
        </g>
      </g>
    </g>
  </g>
  <g class="guide ylabels" font-size="2.82" font-family="'PT Sans Caption','Helvetica Neue','Helvetica',sans-serif" fill="#6C606B" id="img-8a624863-135">
    <g transform="translate(16.96,88.33)" id="img-8a624863-136">
      <g class="primitive">
        <text text-anchor="end" dy="0.35em">0</text>
      </g>
    </g>
    <g transform="translate(16.96,68)" id="img-8a624863-137">
      <g class="primitive">
        <text text-anchor="end" dy="0.35em">10</text>
      </g>
    </g>
    <g transform="translate(16.96,47.66)" id="img-8a624863-138">
      <g class="primitive">
        <text text-anchor="end" dy="0.35em">20</text>
      </g>
    </g>
    <g transform="translate(16.96,27.33)" id="img-8a624863-139">
      <g class="primitive">
        <text text-anchor="end" dy="0.35em">30</text>
      </g>
    </g>
    <g transform="translate(16.96,7)" id="img-8a624863-140">
      <g class="primitive">
        <text text-anchor="end" dy="0.35em">40</text>
      </g>
    </g>
  </g>
  <g font-size="3.88" font-family="'PT Sans','Helvetica Neue','Helvetica',sans-serif" fill="#564A55" stroke="#000000" stroke-opacity="0.000" id="img-8a624863-141">
    <g transform="translate(8.81,45.66)" id="img-8a624863-142">
      <g class="primitive">
        <text text-anchor="middle" dy="0.35em" transform="rotate(-90,0, 2)">frequency</text>
      </g>
    </g>
  </g>
</g>
<defs>
  <clipPath id="img-8a624863-11">
    <path d="M17.96,5 L 75.27 5 75.27 90.33 17.96 90.33" />
  </clipPath>
</defs>
</svg>
