<?xml version="1.0" encoding="UTF-8"?>
<svg xmlns="http://www.w3.org/2000/svg"
     xmlns:xlink="http://www.w3.org/1999/xlink"
     xmlns:gadfly="http://www.gadflyjl.org/ns"
     version="1.2"
     width="141.42mm" height="100mm" viewBox="0 0 141.42 100"
     stroke="none"
     fill="#000000"
     stroke-width="0.3"
     font-size="3.88"
>
<defs>
  <marker id="arrow" markerWidth="15" markerHeight="7" refX="5" refY="3.5" orient="auto" markerUnits="strokeWidth">
    <path d="M0,0 L15,3.5 L0,7 z" stroke="context-stroke" fill="context-stroke"/>
  </marker>
</defs>
<g class="plotroot xscalable yscalable" id="img-4f9069ea-1">
  <g class="guide xlabels" font-size="2.82" font-family="'PT Sans Caption','Helvetica Neue','Helvetica',sans-serif" fill="#6C606B" id="img-4f9069ea-2">
    <g transform="translate(18.29,91.33)">
      <g class="primitive">
        <text text-anchor="middle" dy="0.6em">8.50</text>
      </g>
    </g>
    <g transform="translate(31.76,91.33)">
      <g class="primitive">
        <text text-anchor="middle" dy="0.6em">8.55</text>
      </g>
    </g>
    <g transform="translate(45.23,91.33)">
      <g class="primitive">
        <text text-anchor="middle" dy="0.6em">8.60</text>
      </g>
    </g>
    <g transform="translate(58.7,91.33)">
      <g class="primitive">
        <text text-anchor="middle" dy="0.6em">8.65</text>
      </g>
    </g>
    <g transform="translate(72.17,91.33)">
      <g class="primitive">
        <text text-anchor="middle" dy="0.6em">8.70</text>
      </g>
    </g>
    <g transform="translate(85.64,91.33)">
      <g class="primitive">
        <text text-anchor="middle" dy="0.6em">8.75</text>
      </g>
    </g>
  </g>
  <g class="guide colorkey" id="img-4f9069ea-3">
    <g class="color_coding_noncoding_noncoding_3-path" id="img-4f9069ea-4">
      <g fill="#4C404B" font-size="2.82" font-family="'PT Sans','Helvetica Neue','Helvetica',sans-serif" id="img-4f9069ea-5">
        <g transform="translate(91.45,49.48)" id="img-4f9069ea-6">
          <g class="primitive">
            <text dy="0.35em">coding_noncoding_noncoding_3-path</text>
          </g>
        </g>
      </g>
      <g fill-opacity="1" fill="#00BFFF" stroke="#FFFFFF" id="img-4f9069ea-7">
        <g transform="translate(89.55,49.48)" id="img-4f9069ea-8">
          <path d="M-0.91,-0.91 L 0.91 -0.91 0.91 0.91 -0.91 0.91 z" class="primitive"/>
        </g>
      </g>
    </g>
    <g fill="#362A35" font-size="3.88" font-family="'PT Sans','Helvetica Neue','Helvetica',sans-serif" stroke="#000000" stroke-opacity="0.000" id="img-4f9069ea-9">
      <g transform="translate(88.64,45.66)" id="img-4f9069ea-10">
        <g class="primitive">
          <text dy="-0em">graphlet</text>
        </g>
      </g>
    </g>
  </g>
  <g clip-path="url(#img-4f9069ea-11)">
    <g id="img-4f9069ea-12">
      <g pointer-events="visible" stroke-width="0.3" fill="#000000" fill-opacity="0.000" stroke="#000000" stroke-opacity="0.000" class="guide background" id="img-4f9069ea-13">
        <g transform="translate(51.96,47.66)" id="img-4f9069ea-14">
          <path d="M-35.68,-42.66 L 35.68 -42.66 35.68 42.66 -35.68 42.66 z" class="primitive"/>
        </g>
      </g>
      <g class="guide ygridlines xfixed" stroke-dasharray="0.5,0.5" stroke-width="0.2" stroke="#D0D0E0" id="img-4f9069ea-15">
        <g transform="translate(51.96,88.33)" id="img-4f9069ea-16">
          <path fill="none" d="M-35.68,0 L 35.68 0" class="primitive"/>
        </g>
        <g transform="translate(51.96,72.06)" id="img-4f9069ea-17">
          <path fill="none" d="M-35.68,0 L 35.68 0" class="primitive"/>
        </g>
        <g transform="translate(51.96,55.8)" id="img-4f9069ea-18">
          <path fill="none" d="M-35.68,0 L 35.68 0" class="primitive"/>
        </g>
        <g transform="translate(51.96,39.53)" id="img-4f9069ea-19">
          <path fill="none" d="M-35.68,0 L 35.68 0" class="primitive"/>
        </g>
        <g transform="translate(51.96,23.27)" id="img-4f9069ea-20">
          <path fill="none" d="M-35.68,0 L 35.68 0" class="primitive"/>
        </g>
        <g transform="translate(51.96,7)" id="img-4f9069ea-21">
          <path fill="none" d="M-35.68,0 L 35.68 0" class="primitive"/>
        </g>
      </g>
      <g class="guide xgridlines yfixed" stroke-dasharray="0.5,0.5" stroke-width="0.2" stroke="#D0D0E0" id="img-4f9069ea-22">
        <g transform="translate(18.29,47.66)" id="img-4f9069ea-23">
          <path fill="none" d="M0,-42.66 L 0 42.66" class="primitive"/>
        </g>
        <g transform="translate(31.76,47.66)" id="img-4f9069ea-24">
          <path fill="none" d="M0,-42.66 L 0 42.66" class="primitive"/>
        </g>
        <g transform="translate(45.23,47.66)" id="img-4f9069ea-25">
          <path fill="none" d="M0,-42.66 L 0 42.66" class="primitive"/>
        </g>
        <g transform="translate(58.7,47.66)" id="img-4f9069ea-26">
          <path fill="none" d="M0,-42.66 L 0 42.66" class="primitive"/>
        </g>
        <g transform="translate(72.17,47.66)" id="img-4f9069ea-27">
          <path fill="none" d="M0,-42.66 L 0 42.66" class="primitive"/>
        </g>
        <g transform="translate(85.64,47.66)" id="img-4f9069ea-28">
          <path fill="none" d="M0,-42.66 L 0 42.66" class="primitive"/>
        </g>
      </g>
      <g class="plotpanel" id="img-4f9069ea-29">
        <metadata>
          <boundingbox value="16.284999999999997mm 5.0mm 71.35635623730948mm 85.32666666666667mm"/>
          <unitbox value="8.492576795599833 5.122960898434298 0.26484640880033367 -5.245921796868595"/>
        </metadata>
        <g shape-rendering="crispEdges" stroke-width="0.3" id="img-4f9069ea-30">
          <g stroke="#000000" stroke-opacity="0.000" class="geometry" id="img-4f9069ea-31">
            <g fill="#00BFFF" id="img-4f9069ea-32">
              <g transform="translate(19.72,80.19)" id="img-4f9069ea-33">
                <path d="M-0.29,-8.13 L 0.29 -8.13 0.29 8.13 -0.29 8.13 z" class="primitive"/>
              </g>
              <g transform="translate(20.25,88.33)" id="img-4f9069ea-34">
                <path d="M-0.29,-0 L 0.29 -0 0.29 0 -0.29 0 z" class="primitive"/>
              </g>
              <g transform="translate(20.79,88.33)" id="img-4f9069ea-35">
                <path d="M-0.29,-0 L 0.29 -0 0.29 0 -0.29 0 z" class="primitive"/>
              </g>
              <g transform="translate(21.33,88.33)" id="img-4f9069ea-36">
                <path d="M-0.29,-0 L 0.29 -0 0.29 0 -0.29 0 z" class="primitive"/>
              </g>
              <g transform="translate(21.87,88.33)" id="img-4f9069ea-37">
                <path d="M-0.29,-0 L 0.29 -0 0.29 0 -0.29 0 z" class="primitive"/>
              </g>
              <g transform="translate(22.41,88.33)" id="img-4f9069ea-38">
                <path d="M-0.29,-0 L 0.29 -0 0.29 0 -0.29 0 z" class="primitive"/>
              </g>
              <g transform="translate(22.95,88.33)" id="img-4f9069ea-39">
                <path d="M-0.29,-0 L 0.29 -0 0.29 0 -0.29 0 z" class="primitive"/>
              </g>
              <g transform="translate(23.49,88.33)" id="img-4f9069ea-40">
                <path d="M-0.29,-0 L 0.29 -0 0.29 0 -0.29 0 z" class="primitive"/>
              </g>
              <g transform="translate(24.03,88.33)" id="img-4f9069ea-41">
                <path d="M-0.29,-0 L 0.29 -0 0.29 0 -0.29 0 z" class="primitive"/>
              </g>
              <g transform="translate(24.57,88.33)" id="img-4f9069ea-42">
                <path d="M-0.29,-0 L 0.29 -0 0.29 0 -0.29 0 z" class="primitive"/>
              </g>
              <g transform="translate(25.11,88.33)" id="img-4f9069ea-43">
                <path d="M-0.29,-0 L 0.29 -0 0.29 0 -0.29 0 z" class="primitive"/>
              </g>
              <g transform="translate(25.64,88.33)" id="img-4f9069ea-44">
                <path d="M-0.29,-0 L 0.29 -0 0.29 0 -0.29 0 z" class="primitive"/>
              </g>
              <g transform="translate(26.18,88.33)" id="img-4f9069ea-45">
                <path d="M-0.29,-0 L 0.29 -0 0.29 0 -0.29 0 z" class="primitive"/>
              </g>
              <g transform="translate(26.72,88.33)" id="img-4f9069ea-46">
                <path d="M-0.29,-0 L 0.29 -0 0.29 0 -0.29 0 z" class="primitive"/>
              </g>
              <g transform="translate(27.26,88.33)" id="img-4f9069ea-47">
                <path d="M-0.29,-0 L 0.29 -0 0.29 0 -0.29 0 z" class="primitive"/>
              </g>
              <g transform="translate(27.8,72.06)" id="img-4f9069ea-48">
                <path d="M-0.29,-16.27 L 0.29 -16.27 0.29 16.27 -0.29 16.27 z" class="primitive"/>
              </g>
              <g transform="translate(28.34,88.33)" id="img-4f9069ea-49">
                <path d="M-0.29,-0 L 0.29 -0 0.29 0 -0.29 0 z" class="primitive"/>
              </g>
              <g transform="translate(28.88,80.19)" id="img-4f9069ea-50">
                <path d="M-0.29,-8.13 L 0.29 -8.13 0.29 8.13 -0.29 8.13 z" class="primitive"/>
              </g>
              <g transform="translate(29.42,88.33)" id="img-4f9069ea-51">
                <path d="M-0.29,-0 L 0.29 -0 0.29 0 -0.29 0 z" class="primitive"/>
              </g>
              <g transform="translate(29.96,88.33)" id="img-4f9069ea-52">
                <path d="M-0.29,-0 L 0.29 -0 0.29 0 -0.29 0 z" class="primitive"/>
              </g>
              <g transform="translate(30.49,80.19)" id="img-4f9069ea-53">
                <path d="M-0.29,-8.13 L 0.29 -8.13 0.29 8.13 -0.29 8.13 z" class="primitive"/>
              </g>
              <g transform="translate(31.03,88.33)" id="img-4f9069ea-54">
                <path d="M-0.29,-0 L 0.29 -0 0.29 0 -0.29 0 z" class="primitive"/>
              </g>
              <g transform="translate(31.57,80.19)" id="img-4f9069ea-55">
                <path d="M-0.29,-8.13 L 0.29 -8.13 0.29 8.13 -0.29 8.13 z" class="primitive"/>
              </g>
              <g transform="translate(32.11,88.33)" id="img-4f9069ea-56">
                <path d="M-0.29,-0 L 0.29 -0 0.29 0 -0.29 0 z" class="primitive"/>
              </g>
              <g transform="translate(32.65,72.06)" id="img-4f9069ea-57">
                <path d="M-0.29,-16.27 L 0.29 -16.27 0.29 16.27 -0.29 16.27 z" class="primitive"/>
              </g>
              <g transform="translate(33.19,88.33)" id="img-4f9069ea-58">
                <path d="M-0.29,-0 L 0.29 -0 0.29 0 -0.29 0 z" class="primitive"/>
              </g>
              <g transform="translate(33.73,80.19)" id="img-4f9069ea-59">
                <path d="M-0.29,-8.13 L 0.29 -8.13 0.29 8.13 -0.29 8.13 z" class="primitive"/>
              </g>
              <g transform="translate(34.27,80.19)" id="img-4f9069ea-60">
                <path d="M-0.29,-8.13 L 0.29 -8.13 0.29 8.13 -0.29 8.13 z" class="primitive"/>
              </g>
              <g transform="translate(34.81,88.33)" id="img-4f9069ea-61">
                <path d="M-0.29,-0 L 0.29 -0 0.29 0 -0.29 0 z" class="primitive"/>
              </g>
              <g transform="translate(35.34,80.19)" id="img-4f9069ea-62">
                <path d="M-0.29,-8.13 L 0.29 -8.13 0.29 8.13 -0.29 8.13 z" class="primitive"/>
              </g>
              <g transform="translate(35.88,72.06)" id="img-4f9069ea-63">
                <path d="M-0.29,-16.27 L 0.29 -16.27 0.29 16.27 -0.29 16.27 z" class="primitive"/>
              </g>
              <g transform="translate(36.42,63.93)" id="img-4f9069ea-64">
                <path d="M-0.29,-24.4 L 0.29 -24.4 0.29 24.4 -0.29 24.4 z" class="primitive"/>
              </g>
              <g transform="translate(36.96,88.33)" id="img-4f9069ea-65">
                <path d="M-0.29,-0 L 0.29 -0 0.29 0 -0.29 0 z" class="primitive"/>
              </g>
              <g transform="translate(37.5,72.06)" id="img-4f9069ea-66">
                <path d="M-0.29,-16.27 L 0.29 -16.27 0.29 16.27 -0.29 16.27 z" class="primitive"/>
              </g>
              <g transform="translate(38.04,55.8)" id="img-4f9069ea-67">
                <path d="M-0.29,-32.53 L 0.29 -32.53 0.29 32.53 -0.29 32.53 z" class="primitive"/>
              </g>
              <g transform="translate(38.58,55.8)" id="img-4f9069ea-68">
                <path d="M-0.29,-32.53 L 0.29 -32.53 0.29 32.53 -0.29 32.53 z" class="primitive"/>
              </g>
              <g transform="translate(39.12,80.19)" id="img-4f9069ea-69">
                <path d="M-0.29,-8.13 L 0.29 -8.13 0.29 8.13 -0.29 8.13 z" class="primitive"/>
              </g>
              <g transform="translate(39.66,63.93)" id="img-4f9069ea-70">
                <path d="M-0.29,-24.4 L 0.29 -24.4 0.29 24.4 -0.29 24.4 z" class="primitive"/>
              </g>
              <g transform="translate(40.19,80.19)" id="img-4f9069ea-71">
                <path d="M-0.29,-8.13 L 0.29 -8.13 0.29 8.13 -0.29 8.13 z" class="primitive"/>
              </g>
              <g transform="translate(40.73,63.93)" id="img-4f9069ea-72">
                <path d="M-0.29,-24.4 L 0.29 -24.4 0.29 24.4 -0.29 24.4 z" class="primitive"/>
              </g>
              <g transform="translate(41.27,72.06)" id="img-4f9069ea-73">
                <path d="M-0.29,-16.27 L 0.29 -16.27 0.29 16.27 -0.29 16.27 z" class="primitive"/>
              </g>
              <g transform="translate(41.81,63.93)" id="img-4f9069ea-74">
                <path d="M-0.29,-24.4 L 0.29 -24.4 0.29 24.4 -0.29 24.4 z" class="primitive"/>
              </g>
              <g transform="translate(42.35,88.33)" id="img-4f9069ea-75">
                <path d="M-0.29,-0 L 0.29 -0 0.29 0 -0.29 0 z" class="primitive"/>
              </g>
              <g transform="translate(42.89,47.66)" id="img-4f9069ea-76">
                <path d="M-0.29,-40.66 L 0.29 -40.66 0.29 40.66 -0.29 40.66 z" class="primitive"/>
              </g>
              <g transform="translate(43.43,72.06)" id="img-4f9069ea-77">
                <path d="M-0.29,-16.27 L 0.29 -16.27 0.29 16.27 -0.29 16.27 z" class="primitive"/>
              </g>
              <g transform="translate(43.97,63.93)" id="img-4f9069ea-78">
                <path d="M-0.29,-24.4 L 0.29 -24.4 0.29 24.4 -0.29 24.4 z" class="primitive"/>
              </g>
              <g transform="translate(44.51,80.19)" id="img-4f9069ea-79">
                <path d="M-0.29,-8.13 L 0.29 -8.13 0.29 8.13 -0.29 8.13 z" class="primitive"/>
              </g>
              <g transform="translate(45.05,80.19)" id="img-4f9069ea-80">
                <path d="M-0.29,-8.13 L 0.29 -8.13 0.29 8.13 -0.29 8.13 z" class="primitive"/>
              </g>
              <g transform="translate(45.58,80.19)" id="img-4f9069ea-81">
                <path d="M-0.29,-8.13 L 0.29 -8.13 0.29 8.13 -0.29 8.13 z" class="primitive"/>
              </g>
              <g transform="translate(46.12,55.8)" id="img-4f9069ea-82">
                <path d="M-0.29,-32.53 L 0.29 -32.53 0.29 32.53 -0.29 32.53 z" class="primitive"/>
              </g>
              <g transform="translate(46.66,72.06)" id="img-4f9069ea-83">
                <path d="M-0.29,-16.27 L 0.29 -16.27 0.29 16.27 -0.29 16.27 z" class="primitive"/>
              </g>
              <g transform="translate(47.2,63.93)" id="img-4f9069ea-84">
                <path d="M-0.29,-24.4 L 0.29 -24.4 0.29 24.4 -0.29 24.4 z" class="primitive"/>
              </g>
              <g transform="translate(47.74,80.19)" id="img-4f9069ea-85">
                <path d="M-0.29,-8.13 L 0.29 -8.13 0.29 8.13 -0.29 8.13 z" class="primitive"/>
              </g>
              <g transform="translate(48.28,80.19)" id="img-4f9069ea-86">
                <path d="M-0.29,-8.13 L 0.29 -8.13 0.29 8.13 -0.29 8.13 z" class="primitive"/>
              </g>
              <g transform="translate(48.82,72.06)" id="img-4f9069ea-87">
                <path d="M-0.29,-16.27 L 0.29 -16.27 0.29 16.27 -0.29 16.27 z" class="primitive"/>
              </g>
              <g transform="translate(49.36,47.66)" id="img-4f9069ea-88">
                <path d="M-0.29,-40.66 L 0.29 -40.66 0.29 40.66 -0.29 40.66 z" class="primitive"/>
              </g>
              <g transform="translate(49.9,72.06)" id="img-4f9069ea-89">
                <path d="M-0.29,-16.27 L 0.29 -16.27 0.29 16.27 -0.29 16.27 z" class="primitive"/>
              </g>
              <g transform="translate(50.43,80.19)" id="img-4f9069ea-90">
                <path d="M-0.29,-8.13 L 0.29 -8.13 0.29 8.13 -0.29 8.13 z" class="primitive"/>
              </g>
              <g transform="translate(50.97,63.93)" id="img-4f9069ea-91">
                <path d="M-0.29,-24.4 L 0.29 -24.4 0.29 24.4 -0.29 24.4 z" class="primitive"/>
              </g>
              <g transform="translate(51.51,80.19)" id="img-4f9069ea-92">
                <path d="M-0.29,-8.13 L 0.29 -8.13 0.29 8.13 -0.29 8.13 z" class="primitive"/>
              </g>
              <g transform="translate(52.05,80.19)" id="img-4f9069ea-93">
                <path d="M-0.29,-8.13 L 0.29 -8.13 0.29 8.13 -0.29 8.13 z" class="primitive"/>
              </g>
              <g transform="translate(52.59,88.33)" id="img-4f9069ea-94">
                <path d="M-0.29,-0 L 0.29 -0 0.29 0 -0.29 0 z" class="primitive"/>
              </g>
              <g transform="translate(53.13,63.93)" id="img-4f9069ea-95">
                <path d="M-0.29,-24.4 L 0.29 -24.4 0.29 24.4 -0.29 24.4 z" class="primitive"/>
              </g>
              <g transform="translate(53.67,80.19)" id="img-4f9069ea-96">
                <path d="M-0.29,-8.13 L 0.29 -8.13 0.29 8.13 -0.29 8.13 z" class="primitive"/>
              </g>
              <g transform="translate(54.21,63.93)" id="img-4f9069ea-97">
                <path d="M-0.29,-24.4 L 0.29 -24.4 0.29 24.4 -0.29 24.4 z" class="primitive"/>
              </g>
              <g transform="translate(54.75,63.93)" id="img-4f9069ea-98">
                <path d="M-0.29,-24.4 L 0.29 -24.4 0.29 24.4 -0.29 24.4 z" class="primitive"/>
              </g>
              <g transform="translate(55.28,80.19)" id="img-4f9069ea-99">
                <path d="M-0.29,-8.13 L 0.29 -8.13 0.29 8.13 -0.29 8.13 z" class="primitive"/>
              </g>
              <g transform="translate(55.82,72.06)" id="img-4f9069ea-100">
                <path d="M-0.29,-16.27 L 0.29 -16.27 0.29 16.27 -0.29 16.27 z" class="primitive"/>
              </g>
              <g transform="translate(56.36,80.19)" id="img-4f9069ea-101">
                <path d="M-0.29,-8.13 L 0.29 -8.13 0.29 8.13 -0.29 8.13 z" class="primitive"/>
              </g>
              <g transform="translate(56.9,80.19)" id="img-4f9069ea-102">
                <path d="M-0.29,-8.13 L 0.29 -8.13 0.29 8.13 -0.29 8.13 z" class="primitive"/>
              </g>
              <g transform="translate(57.44,88.33)" id="img-4f9069ea-103">
                <path d="M-0.29,-0 L 0.29 -0 0.29 0 -0.29 0 z" class="primitive"/>
              </g>
              <g transform="translate(57.98,72.06)" id="img-4f9069ea-104">
                <path d="M-0.29,-16.27 L 0.29 -16.27 0.29 16.27 -0.29 16.27 z" class="primitive"/>
              </g>
              <g transform="translate(58.52,88.33)" id="img-4f9069ea-105">
                <path d="M-0.29,-0 L 0.29 -0 0.29 0 -0.29 0 z" class="primitive"/>
              </g>
              <g transform="translate(59.06,88.33)" id="img-4f9069ea-106">
                <path d="M-0.29,-0 L 0.29 -0 0.29 0 -0.29 0 z" class="primitive"/>
              </g>
              <g transform="translate(59.6,88.33)" id="img-4f9069ea-107">
                <path d="M-0.29,-0 L 0.29 -0 0.29 0 -0.29 0 z" class="primitive"/>
              </g>
              <g transform="translate(60.13,88.33)" id="img-4f9069ea-108">
                <path d="M-0.29,-0 L 0.29 -0 0.29 0 -0.29 0 z" class="primitive"/>
              </g>
              <g transform="translate(60.67,88.33)" id="img-4f9069ea-109">
                <path d="M-0.29,-0 L 0.29 -0 0.29 0 -0.29 0 z" class="primitive"/>
              </g>
              <g transform="translate(61.21,88.33)" id="img-4f9069ea-110">
                <path d="M-0.29,-0 L 0.29 -0 0.29 0 -0.29 0 z" class="primitive"/>
              </g>
              <g transform="translate(61.75,88.33)" id="img-4f9069ea-111">
                <path d="M-0.29,-0 L 0.29 -0 0.29 0 -0.29 0 z" class="primitive"/>
              </g>
              <g transform="translate(62.29,88.33)" id="img-4f9069ea-112">
                <path d="M-0.29,-0 L 0.29 -0 0.29 0 -0.29 0 z" class="primitive"/>
              </g>
              <g transform="translate(62.83,72.06)" id="img-4f9069ea-113">
                <path d="M-0.29,-16.27 L 0.29 -16.27 0.29 16.27 -0.29 16.27 z" class="primitive"/>
              </g>
              <g transform="translate(63.37,88.33)" id="img-4f9069ea-114">
                <path d="M-0.29,-0 L 0.29 -0 0.29 0 -0.29 0 z" class="primitive"/>
              </g>
              <g transform="translate(63.91,88.33)" id="img-4f9069ea-115">
                <path d="M-0.29,-0 L 0.29 -0 0.29 0 -0.29 0 z" class="primitive"/>
              </g>
              <g transform="translate(64.45,80.19)" id="img-4f9069ea-116">
                <path d="M-0.29,-8.13 L 0.29 -8.13 0.29 8.13 -0.29 8.13 z" class="primitive"/>
              </g>
              <g transform="translate(64.99,88.33)" id="img-4f9069ea-117">
                <path d="M-0.29,-0 L 0.29 -0 0.29 0 -0.29 0 z" class="primitive"/>
              </g>
              <g transform="translate(65.52,88.33)" id="img-4f9069ea-118">
                <path d="M-0.29,-0 L 0.29 -0 0.29 0 -0.29 0 z" class="primitive"/>
              </g>
              <g transform="translate(66.06,88.33)" id="img-4f9069ea-119">
                <path d="M-0.29,-0 L 0.29 -0 0.29 0 -0.29 0 z" class="primitive"/>
              </g>
              <g transform="translate(66.6,88.33)" id="img-4f9069ea-120">
                <path d="M-0.29,-0 L 0.29 -0 0.29 0 -0.29 0 z" class="primitive"/>
              </g>
              <g transform="translate(67.14,80.19)" id="img-4f9069ea-121">
                <path d="M-0.29,-8.13 L 0.29 -8.13 0.29 8.13 -0.29 8.13 z" class="primitive"/>
              </g>
              <g transform="translate(67.68,88.33)" id="img-4f9069ea-122">
                <path d="M-0.29,-0 L 0.29 -0 0.29 0 -0.29 0 z" class="primitive"/>
              </g>
              <g transform="translate(68.22,88.33)" id="img-4f9069ea-123">
                <path d="M-0.29,-0 L 0.29 -0 0.29 0 -0.29 0 z" class="primitive"/>
              </g>
              <g transform="translate(68.76,88.33)" id="img-4f9069ea-124">
                <path d="M-0.29,-0 L 0.29 -0 0.29 0 -0.29 0 z" class="primitive"/>
              </g>
              <g transform="translate(69.3,88.33)" id="img-4f9069ea-125">
                <path d="M-0.29,-0 L 0.29 -0 0.29 0 -0.29 0 z" class="primitive"/>
              </g>
              <g transform="translate(69.84,88.33)" id="img-4f9069ea-126">
                <path d="M-0.29,-0 L 0.29 -0 0.29 0 -0.29 0 z" class="primitive"/>
              </g>
              <g transform="translate(70.37,88.33)" id="img-4f9069ea-127">
                <path d="M-0.29,-0 L 0.29 -0 0.29 0 -0.29 0 z" class="primitive"/>
              </g>
              <g transform="translate(70.91,88.33)" id="img-4f9069ea-128">
                <path d="M-0.29,-0 L 0.29 -0 0.29 0 -0.29 0 z" class="primitive"/>
              </g>
              <g transform="translate(71.45,88.33)" id="img-4f9069ea-129">
                <path d="M-0.29,-0 L 0.29 -0 0.29 0 -0.29 0 z" class="primitive"/>
              </g>
              <g transform="translate(71.99,88.33)" id="img-4f9069ea-130">
                <path d="M-0.29,-0 L 0.29 -0 0.29 0 -0.29 0 z" class="primitive"/>
              </g>
              <g transform="translate(72.53,88.33)" id="img-4f9069ea-131">
                <path d="M-0.29,-0 L 0.29 -0 0.29 0 -0.29 0 z" class="primitive"/>
              </g>
              <g transform="translate(73.07,80.19)" id="img-4f9069ea-132">
                <path d="M-0.29,-8.13 L 0.29 -8.13 0.29 8.13 -0.29 8.13 z" class="primitive"/>
              </g>
            </g>
          </g>
        </g>
      </g>
    </g>
  </g>
  <g class="guide ylabels" font-size="2.82" font-family="'PT Sans Caption','Helvetica Neue','Helvetica',sans-serif" fill="#6C606B" id="img-4f9069ea-133">
    <g transform="translate(15.28,88.33)" id="img-4f9069ea-134">
      <g class="primitive">
        <text text-anchor="end" dy="0.35em">0</text>
      </g>
    </g>
    <g transform="translate(15.28,72.06)" id="img-4f9069ea-135">
      <g class="primitive">
        <text text-anchor="end" dy="0.35em">1</text>
      </g>
    </g>
    <g transform="translate(15.28,55.8)" id="img-4f9069ea-136">
      <g class="primitive">
        <text text-anchor="end" dy="0.35em">2</text>
      </g>
    </g>
    <g transform="translate(15.28,39.53)" id="img-4f9069ea-137">
      <g class="primitive">
        <text text-anchor="end" dy="0.35em">3</text>
      </g>
    </g>
    <g transform="translate(15.28,23.27)" id="img-4f9069ea-138">
      <g class="primitive">
        <text text-anchor="end" dy="0.35em">4</text>
      </g>
    </g>
    <g transform="translate(15.28,7)" id="img-4f9069ea-139">
      <g class="primitive">
        <text text-anchor="end" dy="0.35em">5</text>
      </g>
    </g>
  </g>
  <g font-size="3.88" font-family="'PT Sans','Helvetica Neue','Helvetica',sans-serif" fill="#564A55" stroke="#000000" stroke-opacity="0.000" id="img-4f9069ea-140">
    <g transform="translate(8.81,45.66)" id="img-4f9069ea-141">
      <g class="primitive">
        <text text-anchor="middle" dy="0.35em" transform="rotate(-90,0, 2)">frequency</text>
      </g>
    </g>
  </g>
</g>
<defs>
  <clipPath id="img-4f9069ea-11">
    <path d="M16.28,5 L 87.64 5 87.64 90.33 16.28 90.33" />
  </clipPath>
</defs>
</svg>
