<?xml version="1.0" encoding="UTF-8"?>
<svg xmlns="http://www.w3.org/2000/svg"
     xmlns:xlink="http://www.w3.org/1999/xlink"
     xmlns:gadfly="http://www.gadflyjl.org/ns"
     version="1.2"
     width="141.42mm" height="100mm" viewBox="0 0 141.42 100"
     stroke="none"
     fill="#000000"
     stroke-width="0.3"
     font-size="3.88"
>
<defs>
  <marker id="arrow" markerWidth="15" markerHeight="7" refX="5" refY="3.5" orient="auto" markerUnits="strokeWidth">
    <path d="M0,0 L15,3.5 L0,7 z" stroke="context-stroke" fill="context-stroke"/>
  </marker>
</defs>
<g class="plotroot xscalable yscalable" id="img-23c9d319-1">
  <g class="guide xlabels" font-size="2.82" font-family="'PT Sans Caption','Helvetica Neue','Helvetica',sans-serif" fill="#6C606B" id="img-23c9d319-2">
    <g transform="translate(18.28,91.33)">
      <g class="primitive">
        <text text-anchor="middle" dy="0.6em">9.94</text>
      </g>
    </g>
    <g transform="translate(30.28,91.33)">
      <g class="primitive">
        <text text-anchor="middle" dy="0.6em">9.95</text>
      </g>
    </g>
    <g transform="translate(42.27,91.33)">
      <g class="primitive">
        <text text-anchor="middle" dy="0.6em">9.96</text>
      </g>
    </g>
    <g transform="translate(54.26,91.33)">
      <g class="primitive">
        <text text-anchor="middle" dy="0.6em">9.97</text>
      </g>
    </g>
    <g transform="translate(66.25,91.33)">
      <g class="primitive">
        <text text-anchor="middle" dy="0.6em">9.98</text>
      </g>
    </g>
    <g transform="translate(78.24,91.33)">
      <g class="primitive">
        <text text-anchor="middle" dy="0.6em">9.99</text>
      </g>
    </g>
    <g transform="translate(90.23,91.33)">
      <g class="primitive">
        <text text-anchor="middle" dy="0.6em">10.00</text>
      </g>
    </g>
  </g>
  <g class="guide colorkey" id="img-23c9d319-3">
    <g class="color_coding_coding_noncoding_3-path" id="img-23c9d319-4">
      <g fill="#4C404B" font-size="2.82" font-family="'PT Sans','Helvetica Neue','Helvetica',sans-serif" id="img-23c9d319-5">
        <g transform="translate(96.05,49.48)" id="img-23c9d319-6">
          <g class="primitive">
            <text dy="0.35em">coding_coding_noncoding_3-path</text>
          </g>
        </g>
      </g>
      <g fill-opacity="1" fill="#00BFFF" stroke="#FFFFFF" id="img-23c9d319-7">
        <g transform="translate(94.14,49.48)" id="img-23c9d319-8">
          <path d="M-0.91,-0.91 L 0.91 -0.91 0.91 0.91 -0.91 0.91 z" class="primitive"/>
        </g>
      </g>
    </g>
    <g fill="#362A35" font-size="3.88" font-family="'PT Sans','Helvetica Neue','Helvetica',sans-serif" stroke="#000000" stroke-opacity="0.000" id="img-23c9d319-9">
      <g transform="translate(93.23,45.66)" id="img-23c9d319-10">
        <g class="primitive">
          <text dy="-0em">graphlet</text>
        </g>
      </g>
    </g>
  </g>
  <g clip-path="url(#img-23c9d319-11)">
    <g id="img-23c9d319-12">
      <g pointer-events="visible" stroke-width="0.3" fill="#000000" fill-opacity="0.000" stroke="#000000" stroke-opacity="0.000" class="guide background" id="img-23c9d319-13">
        <g transform="translate(54.26,47.66)" id="img-23c9d319-14">
          <path d="M-37.97,-42.66 L 37.97 -42.66 37.97 42.66 -37.97 42.66 z" class="primitive"/>
        </g>
      </g>
      <g class="guide ygridlines xfixed" stroke-dasharray="0.5,0.5" stroke-width="0.2" stroke="#D0D0E0" id="img-23c9d319-15">
        <g transform="translate(54.26,88.33)" id="img-23c9d319-16">
          <path fill="none" d="M-37.97,0 L 37.97 0" class="primitive"/>
        </g>
        <g transform="translate(54.26,74.77)" id="img-23c9d319-17">
          <path fill="none" d="M-37.97,0 L 37.97 0" class="primitive"/>
        </g>
        <g transform="translate(54.26,61.22)" id="img-23c9d319-18">
          <path fill="none" d="M-37.97,0 L 37.97 0" class="primitive"/>
        </g>
        <g transform="translate(54.26,47.66)" id="img-23c9d319-19">
          <path fill="none" d="M-37.97,0 L 37.97 0" class="primitive"/>
        </g>
        <g transform="translate(54.26,34.11)" id="img-23c9d319-20">
          <path fill="none" d="M-37.97,0 L 37.97 0" class="primitive"/>
        </g>
        <g transform="translate(54.26,20.55)" id="img-23c9d319-21">
          <path fill="none" d="M-37.97,0 L 37.97 0" class="primitive"/>
        </g>
        <g transform="translate(54.26,7)" id="img-23c9d319-22">
          <path fill="none" d="M-37.97,0 L 37.97 0" class="primitive"/>
        </g>
      </g>
      <g class="guide xgridlines yfixed" stroke-dasharray="0.5,0.5" stroke-width="0.2" stroke="#D0D0E0" id="img-23c9d319-23">
        <g transform="translate(18.28,47.66)" id="img-23c9d319-24">
          <path fill="none" d="M0,-42.66 L 0 42.66" class="primitive"/>
        </g>
        <g transform="translate(30.28,47.66)" id="img-23c9d319-25">
          <path fill="none" d="M0,-42.66 L 0 42.66" class="primitive"/>
        </g>
        <g transform="translate(42.27,47.66)" id="img-23c9d319-26">
          <path fill="none" d="M0,-42.66 L 0 42.66" class="primitive"/>
        </g>
        <g transform="translate(54.26,47.66)" id="img-23c9d319-27">
          <path fill="none" d="M0,-42.66 L 0 42.66" class="primitive"/>
        </g>
        <g transform="translate(66.25,47.66)" id="img-23c9d319-28">
          <path fill="none" d="M0,-42.66 L 0 42.66" class="primitive"/>
        </g>
        <g transform="translate(78.24,47.66)" id="img-23c9d319-29">
          <path fill="none" d="M0,-42.66 L 0 42.66" class="primitive"/>
        </g>
        <g transform="translate(90.23,47.66)" id="img-23c9d319-30">
          <path fill="none" d="M0,-42.66 L 0 42.66" class="primitive"/>
        </g>
      </g>
      <g class="plotpanel" id="img-23c9d319-31">
        <metadata>
          <boundingbox value="16.284999999999997mm 5.0mm 75.94968957064285mm 85.32666666666667mm"/>
          <unitbox value="9.938332167925726 6.147553078121158 0.0633356641485492 -6.295106156242315"/>
        </metadata>
        <g shape-rendering="crispEdges" stroke-width="0.3" id="img-23c9d319-32">
          <g stroke="#000000" stroke-opacity="0.000" class="geometry" id="img-23c9d319-33">
            <g fill="#00BFFF" id="img-23c9d319-34">
              <g transform="translate(26.56,81.55)" id="img-23c9d319-35">
                <path d="M-0.34,-6.78 L 0.34 -6.78 0.34 6.78 -0.34 6.78 z" class="primitive"/>
              </g>
              <g transform="translate(27.18,88.33)" id="img-23c9d319-36">
                <path d="M-0.34,-0 L 0.34 -0 0.34 0 -0.34 0 z" class="primitive"/>
              </g>
              <g transform="translate(27.81,88.33)" id="img-23c9d319-37">
                <path d="M-0.34,-0 L 0.34 -0 0.34 0 -0.34 0 z" class="primitive"/>
              </g>
              <g transform="translate(28.43,88.33)" id="img-23c9d319-38">
                <path d="M-0.34,-0 L 0.34 -0 0.34 0 -0.34 0 z" class="primitive"/>
              </g>
              <g transform="translate(29.05,88.33)" id="img-23c9d319-39">
                <path d="M-0.34,-0 L 0.34 -0 0.34 0 -0.34 0 z" class="primitive"/>
              </g>
              <g transform="translate(29.68,88.33)" id="img-23c9d319-40">
                <path d="M-0.34,-0 L 0.34 -0 0.34 0 -0.34 0 z" class="primitive"/>
              </g>
              <g transform="translate(30.3,88.33)" id="img-23c9d319-41">
                <path d="M-0.34,-0 L 0.34 -0 0.34 0 -0.34 0 z" class="primitive"/>
              </g>
              <g transform="translate(30.92,88.33)" id="img-23c9d319-42">
                <path d="M-0.34,-0 L 0.34 -0 0.34 0 -0.34 0 z" class="primitive"/>
              </g>
              <g transform="translate(31.54,88.33)" id="img-23c9d319-43">
                <path d="M-0.34,-0 L 0.34 -0 0.34 0 -0.34 0 z" class="primitive"/>
              </g>
              <g transform="translate(32.17,88.33)" id="img-23c9d319-44">
                <path d="M-0.34,-0 L 0.34 -0 0.34 0 -0.34 0 z" class="primitive"/>
              </g>
              <g transform="translate(32.79,88.33)" id="img-23c9d319-45">
                <path d="M-0.34,-0 L 0.34 -0 0.34 0 -0.34 0 z" class="primitive"/>
              </g>
              <g transform="translate(33.41,81.55)" id="img-23c9d319-46">
                <path d="M-0.34,-6.78 L 0.34 -6.78 0.34 6.78 -0.34 6.78 z" class="primitive"/>
              </g>
              <g transform="translate(34.03,81.55)" id="img-23c9d319-47">
                <path d="M-0.34,-6.78 L 0.34 -6.78 0.34 6.78 -0.34 6.78 z" class="primitive"/>
              </g>
              <g transform="translate(34.66,81.55)" id="img-23c9d319-48">
                <path d="M-0.34,-6.78 L 0.34 -6.78 0.34 6.78 -0.34 6.78 z" class="primitive"/>
              </g>
              <g transform="translate(35.28,88.33)" id="img-23c9d319-49">
                <path d="M-0.34,-0 L 0.34 -0 0.34 0 -0.34 0 z" class="primitive"/>
              </g>
              <g transform="translate(35.9,88.33)" id="img-23c9d319-50">
                <path d="M-0.34,-0 L 0.34 -0 0.34 0 -0.34 0 z" class="primitive"/>
              </g>
              <g transform="translate(36.53,88.33)" id="img-23c9d319-51">
                <path d="M-0.34,-0 L 0.34 -0 0.34 0 -0.34 0 z" class="primitive"/>
              </g>
              <g transform="translate(37.15,88.33)" id="img-23c9d319-52">
                <path d="M-0.34,-0 L 0.34 -0 0.34 0 -0.34 0 z" class="primitive"/>
              </g>
              <g transform="translate(37.77,88.33)" id="img-23c9d319-53">
                <path d="M-0.34,-0 L 0.34 -0 0.34 0 -0.34 0 z" class="primitive"/>
              </g>
              <g transform="translate(38.39,88.33)" id="img-23c9d319-54">
                <path d="M-0.34,-0 L 0.34 -0 0.34 0 -0.34 0 z" class="primitive"/>
              </g>
              <g transform="translate(39.02,88.33)" id="img-23c9d319-55">
                <path d="M-0.34,-0 L 0.34 -0 0.34 0 -0.34 0 z" class="primitive"/>
              </g>
              <g transform="translate(39.64,68)" id="img-23c9d319-56">
                <path d="M-0.34,-20.33 L 0.34 -20.33 0.34 20.33 -0.34 20.33 z" class="primitive"/>
              </g>
              <g transform="translate(40.26,88.33)" id="img-23c9d319-57">
                <path d="M-0.34,-0 L 0.34 -0 0.34 0 -0.34 0 z" class="primitive"/>
              </g>
              <g transform="translate(40.88,81.55)" id="img-23c9d319-58">
                <path d="M-0.34,-6.78 L 0.34 -6.78 0.34 6.78 -0.34 6.78 z" class="primitive"/>
              </g>
              <g transform="translate(41.51,81.55)" id="img-23c9d319-59">
                <path d="M-0.34,-6.78 L 0.34 -6.78 0.34 6.78 -0.34 6.78 z" class="primitive"/>
              </g>
              <g transform="translate(42.13,81.55)" id="img-23c9d319-60">
                <path d="M-0.34,-6.78 L 0.34 -6.78 0.34 6.78 -0.34 6.78 z" class="primitive"/>
              </g>
              <g transform="translate(42.75,81.55)" id="img-23c9d319-61">
                <path d="M-0.34,-6.78 L 0.34 -6.78 0.34 6.78 -0.34 6.78 z" class="primitive"/>
              </g>
              <g transform="translate(43.37,88.33)" id="img-23c9d319-62">
                <path d="M-0.34,-0 L 0.34 -0 0.34 0 -0.34 0 z" class="primitive"/>
              </g>
              <g transform="translate(44,88.33)" id="img-23c9d319-63">
                <path d="M-0.34,-0 L 0.34 -0 0.34 0 -0.34 0 z" class="primitive"/>
              </g>
              <g transform="translate(44.62,81.55)" id="img-23c9d319-64">
                <path d="M-0.34,-6.78 L 0.34 -6.78 0.34 6.78 -0.34 6.78 z" class="primitive"/>
              </g>
              <g transform="translate(45.24,88.33)" id="img-23c9d319-65">
                <path d="M-0.34,-0 L 0.34 -0 0.34 0 -0.34 0 z" class="primitive"/>
              </g>
              <g transform="translate(45.87,81.55)" id="img-23c9d319-66">
                <path d="M-0.34,-6.78 L 0.34 -6.78 0.34 6.78 -0.34 6.78 z" class="primitive"/>
              </g>
              <g transform="translate(46.49,88.33)" id="img-23c9d319-67">
                <path d="M-0.34,-0 L 0.34 -0 0.34 0 -0.34 0 z" class="primitive"/>
              </g>
              <g transform="translate(47.11,81.55)" id="img-23c9d319-68">
                <path d="M-0.34,-6.78 L 0.34 -6.78 0.34 6.78 -0.34 6.78 z" class="primitive"/>
              </g>
              <g transform="translate(47.73,88.33)" id="img-23c9d319-69">
                <path d="M-0.34,-0 L 0.34 -0 0.34 0 -0.34 0 z" class="primitive"/>
              </g>
              <g transform="translate(48.36,81.55)" id="img-23c9d319-70">
                <path d="M-0.34,-6.78 L 0.34 -6.78 0.34 6.78 -0.34 6.78 z" class="primitive"/>
              </g>
              <g transform="translate(48.98,88.33)" id="img-23c9d319-71">
                <path d="M-0.34,-0 L 0.34 -0 0.34 0 -0.34 0 z" class="primitive"/>
              </g>
              <g transform="translate(49.6,81.55)" id="img-23c9d319-72">
                <path d="M-0.34,-6.78 L 0.34 -6.78 0.34 6.78 -0.34 6.78 z" class="primitive"/>
              </g>
              <g transform="translate(50.22,88.33)" id="img-23c9d319-73">
                <path d="M-0.34,-0 L 0.34 -0 0.34 0 -0.34 0 z" class="primitive"/>
              </g>
              <g transform="translate(50.85,88.33)" id="img-23c9d319-74">
                <path d="M-0.34,-0 L 0.34 -0 0.34 0 -0.34 0 z" class="primitive"/>
              </g>
              <g transform="translate(51.47,81.55)" id="img-23c9d319-75">
                <path d="M-0.34,-6.78 L 0.34 -6.78 0.34 6.78 -0.34 6.78 z" class="primitive"/>
              </g>
              <g transform="translate(52.09,74.77)" id="img-23c9d319-76">
                <path d="M-0.34,-13.55 L 0.34 -13.55 0.34 13.55 -0.34 13.55 z" class="primitive"/>
              </g>
              <g transform="translate(52.72,88.33)" id="img-23c9d319-77">
                <path d="M-0.34,-0 L 0.34 -0 0.34 0 -0.34 0 z" class="primitive"/>
              </g>
              <g transform="translate(53.34,74.77)" id="img-23c9d319-78">
                <path d="M-0.34,-13.55 L 0.34 -13.55 0.34 13.55 -0.34 13.55 z" class="primitive"/>
              </g>
              <g transform="translate(53.96,74.77)" id="img-23c9d319-79">
                <path d="M-0.34,-13.55 L 0.34 -13.55 0.34 13.55 -0.34 13.55 z" class="primitive"/>
              </g>
              <g transform="translate(54.58,81.55)" id="img-23c9d319-80">
                <path d="M-0.34,-6.78 L 0.34 -6.78 0.34 6.78 -0.34 6.78 z" class="primitive"/>
              </g>
              <g transform="translate(55.21,74.77)" id="img-23c9d319-81">
                <path d="M-0.34,-13.55 L 0.34 -13.55 0.34 13.55 -0.34 13.55 z" class="primitive"/>
              </g>
              <g transform="translate(55.83,74.77)" id="img-23c9d319-82">
                <path d="M-0.34,-13.55 L 0.34 -13.55 0.34 13.55 -0.34 13.55 z" class="primitive"/>
              </g>
              <g transform="translate(56.45,68)" id="img-23c9d319-83">
                <path d="M-0.34,-20.33 L 0.34 -20.33 0.34 20.33 -0.34 20.33 z" class="primitive"/>
              </g>
              <g transform="translate(57.07,68)" id="img-23c9d319-84">
                <path d="M-0.34,-20.33 L 0.34 -20.33 0.34 20.33 -0.34 20.33 z" class="primitive"/>
              </g>
              <g transform="translate(57.7,88.33)" id="img-23c9d319-85">
                <path d="M-0.34,-0 L 0.34 -0 0.34 0 -0.34 0 z" class="primitive"/>
              </g>
              <g transform="translate(58.32,68)" id="img-23c9d319-86">
                <path d="M-0.34,-20.33 L 0.34 -20.33 0.34 20.33 -0.34 20.33 z" class="primitive"/>
              </g>
              <g transform="translate(58.94,81.55)" id="img-23c9d319-87">
                <path d="M-0.34,-6.78 L 0.34 -6.78 0.34 6.78 -0.34 6.78 z" class="primitive"/>
              </g>
              <g transform="translate(59.57,81.55)" id="img-23c9d319-88">
                <path d="M-0.34,-6.78 L 0.34 -6.78 0.34 6.78 -0.34 6.78 z" class="primitive"/>
              </g>
              <g transform="translate(60.19,81.55)" id="img-23c9d319-89">
                <path d="M-0.34,-6.78 L 0.34 -6.78 0.34 6.78 -0.34 6.78 z" class="primitive"/>
              </g>
              <g transform="translate(60.81,68)" id="img-23c9d319-90">
                <path d="M-0.34,-20.33 L 0.34 -20.33 0.34 20.33 -0.34 20.33 z" class="primitive"/>
              </g>
              <g transform="translate(61.43,68)" id="img-23c9d319-91">
                <path d="M-0.34,-20.33 L 0.34 -20.33 0.34 20.33 -0.34 20.33 z" class="primitive"/>
              </g>
              <g transform="translate(62.06,61.22)" id="img-23c9d319-92">
                <path d="M-0.34,-27.11 L 0.34 -27.11 0.34 27.11 -0.34 27.11 z" class="primitive"/>
              </g>
              <g transform="translate(62.68,68)" id="img-23c9d319-93">
                <path d="M-0.34,-20.33 L 0.34 -20.33 0.34 20.33 -0.34 20.33 z" class="primitive"/>
              </g>
              <g transform="translate(63.3,81.55)" id="img-23c9d319-94">
                <path d="M-0.34,-6.78 L 0.34 -6.78 0.34 6.78 -0.34 6.78 z" class="primitive"/>
              </g>
              <g transform="translate(63.92,68)" id="img-23c9d319-95">
                <path d="M-0.34,-20.33 L 0.34 -20.33 0.34 20.33 -0.34 20.33 z" class="primitive"/>
              </g>
              <g transform="translate(64.55,74.77)" id="img-23c9d319-96">
                <path d="M-0.34,-13.55 L 0.34 -13.55 0.34 13.55 -0.34 13.55 z" class="primitive"/>
              </g>
              <g transform="translate(65.17,74.77)" id="img-23c9d319-97">
                <path d="M-0.34,-13.55 L 0.34 -13.55 0.34 13.55 -0.34 13.55 z" class="primitive"/>
              </g>
              <g transform="translate(65.79,74.77)" id="img-23c9d319-98">
                <path d="M-0.34,-13.55 L 0.34 -13.55 0.34 13.55 -0.34 13.55 z" class="primitive"/>
              </g>
              <g transform="translate(66.41,74.77)" id="img-23c9d319-99">
                <path d="M-0.34,-13.55 L 0.34 -13.55 0.34 13.55 -0.34 13.55 z" class="primitive"/>
              </g>
              <g transform="translate(67.04,88.33)" id="img-23c9d319-100">
                <path d="M-0.34,-0 L 0.34 -0 0.34 0 -0.34 0 z" class="primitive"/>
              </g>
              <g transform="translate(67.66,88.33)" id="img-23c9d319-101">
                <path d="M-0.34,-0 L 0.34 -0 0.34 0 -0.34 0 z" class="primitive"/>
              </g>
              <g transform="translate(68.28,81.55)" id="img-23c9d319-102">
                <path d="M-0.34,-6.78 L 0.34 -6.78 0.34 6.78 -0.34 6.78 z" class="primitive"/>
              </g>
              <g transform="translate(68.91,74.77)" id="img-23c9d319-103">
                <path d="M-0.34,-13.55 L 0.34 -13.55 0.34 13.55 -0.34 13.55 z" class="primitive"/>
              </g>
              <g transform="translate(69.53,88.33)" id="img-23c9d319-104">
                <path d="M-0.34,-0 L 0.34 -0 0.34 0 -0.34 0 z" class="primitive"/>
              </g>
              <g transform="translate(70.15,74.77)" id="img-23c9d319-105">
                <path d="M-0.34,-13.55 L 0.34 -13.55 0.34 13.55 -0.34 13.55 z" class="primitive"/>
              </g>
              <g transform="translate(70.77,74.77)" id="img-23c9d319-106">
                <path d="M-0.34,-13.55 L 0.34 -13.55 0.34 13.55 -0.34 13.55 z" class="primitive"/>
              </g>
              <g transform="translate(71.4,74.77)" id="img-23c9d319-107">
                <path d="M-0.34,-13.55 L 0.34 -13.55 0.34 13.55 -0.34 13.55 z" class="primitive"/>
              </g>
              <g transform="translate(72.02,81.55)" id="img-23c9d319-108">
                <path d="M-0.34,-6.78 L 0.34 -6.78 0.34 6.78 -0.34 6.78 z" class="primitive"/>
              </g>
              <g transform="translate(72.64,74.77)" id="img-23c9d319-109">
                <path d="M-0.34,-13.55 L 0.34 -13.55 0.34 13.55 -0.34 13.55 z" class="primitive"/>
              </g>
              <g transform="translate(73.26,54.44)" id="img-23c9d319-110">
                <path d="M-0.34,-33.89 L 0.34 -33.89 0.34 33.89 -0.34 33.89 z" class="primitive"/>
              </g>
              <g transform="translate(73.89,88.33)" id="img-23c9d319-111">
                <path d="M-0.34,-0 L 0.34 -0 0.34 0 -0.34 0 z" class="primitive"/>
              </g>
              <g transform="translate(74.51,47.66)" id="img-23c9d319-112">
                <path d="M-0.34,-40.66 L 0.34 -40.66 0.34 40.66 -0.34 40.66 z" class="primitive"/>
              </g>
              <g transform="translate(75.13,88.33)" id="img-23c9d319-113">
                <path d="M-0.34,-0 L 0.34 -0 0.34 0 -0.34 0 z" class="primitive"/>
              </g>
              <g transform="translate(75.76,81.55)" id="img-23c9d319-114">
                <path d="M-0.34,-6.78 L 0.34 -6.78 0.34 6.78 -0.34 6.78 z" class="primitive"/>
              </g>
              <g transform="translate(76.38,74.77)" id="img-23c9d319-115">
                <path d="M-0.34,-13.55 L 0.34 -13.55 0.34 13.55 -0.34 13.55 z" class="primitive"/>
              </g>
              <g transform="translate(77,81.55)" id="img-23c9d319-116">
                <path d="M-0.34,-6.78 L 0.34 -6.78 0.34 6.78 -0.34 6.78 z" class="primitive"/>
              </g>
              <g transform="translate(77.62,81.55)" id="img-23c9d319-117">
                <path d="M-0.34,-6.78 L 0.34 -6.78 0.34 6.78 -0.34 6.78 z" class="primitive"/>
              </g>
              <g transform="translate(78.25,88.33)" id="img-23c9d319-118">
                <path d="M-0.34,-0 L 0.34 -0 0.34 0 -0.34 0 z" class="primitive"/>
              </g>
              <g transform="translate(78.87,88.33)" id="img-23c9d319-119">
                <path d="M-0.34,-0 L 0.34 -0 0.34 0 -0.34 0 z" class="primitive"/>
              </g>
              <g transform="translate(79.49,74.77)" id="img-23c9d319-120">
                <path d="M-0.34,-13.55 L 0.34 -13.55 0.34 13.55 -0.34 13.55 z" class="primitive"/>
              </g>
              <g transform="translate(80.11,88.33)" id="img-23c9d319-121">
                <path d="M-0.34,-0 L 0.34 -0 0.34 0 -0.34 0 z" class="primitive"/>
              </g>
              <g transform="translate(80.74,81.55)" id="img-23c9d319-122">
                <path d="M-0.34,-6.78 L 0.34 -6.78 0.34 6.78 -0.34 6.78 z" class="primitive"/>
              </g>
              <g transform="translate(81.36,81.55)" id="img-23c9d319-123">
                <path d="M-0.34,-6.78 L 0.34 -6.78 0.34 6.78 -0.34 6.78 z" class="primitive"/>
              </g>
              <g transform="translate(81.98,88.33)" id="img-23c9d319-124">
                <path d="M-0.34,-0 L 0.34 -0 0.34 0 -0.34 0 z" class="primitive"/>
              </g>
              <g transform="translate(82.6,88.33)" id="img-23c9d319-125">
                <path d="M-0.34,-0 L 0.34 -0 0.34 0 -0.34 0 z" class="primitive"/>
              </g>
              <g transform="translate(83.23,81.55)" id="img-23c9d319-126">
                <path d="M-0.34,-6.78 L 0.34 -6.78 0.34 6.78 -0.34 6.78 z" class="primitive"/>
              </g>
              <g transform="translate(83.85,88.33)" id="img-23c9d319-127">
                <path d="M-0.34,-0 L 0.34 -0 0.34 0 -0.34 0 z" class="primitive"/>
              </g>
              <g transform="translate(84.47,88.33)" id="img-23c9d319-128">
                <path d="M-0.34,-0 L 0.34 -0 0.34 0 -0.34 0 z" class="primitive"/>
              </g>
              <g transform="translate(85.1,88.33)" id="img-23c9d319-129">
                <path d="M-0.34,-0 L 0.34 -0 0.34 0 -0.34 0 z" class="primitive"/>
              </g>
              <g transform="translate(85.72,88.33)" id="img-23c9d319-130">
                <path d="M-0.34,-0 L 0.34 -0 0.34 0 -0.34 0 z" class="primitive"/>
              </g>
              <g transform="translate(86.34,88.33)" id="img-23c9d319-131">
                <path d="M-0.34,-0 L 0.34 -0 0.34 0 -0.34 0 z" class="primitive"/>
              </g>
              <g transform="translate(86.96,81.55)" id="img-23c9d319-132">
                <path d="M-0.34,-6.78 L 0.34 -6.78 0.34 6.78 -0.34 6.78 z" class="primitive"/>
              </g>
              <g transform="translate(87.59,88.33)" id="img-23c9d319-133">
                <path d="M-0.34,-0 L 0.34 -0 0.34 0 -0.34 0 z" class="primitive"/>
              </g>
              <g transform="translate(88.21,81.55)" id="img-23c9d319-134">
                <path d="M-0.34,-6.78 L 0.34 -6.78 0.34 6.78 -0.34 6.78 z" class="primitive"/>
              </g>
            </g>
          </g>
        </g>
      </g>
    </g>
  </g>
  <g class="guide ylabels" font-size="2.82" font-family="'PT Sans Caption','Helvetica Neue','Helvetica',sans-serif" fill="#6C606B" id="img-23c9d319-135">
    <g transform="translate(15.28,88.33)" id="img-23c9d319-136">
      <g class="primitive">
        <text text-anchor="end" dy="0.35em">0</text>
      </g>
    </g>
    <g transform="translate(15.28,74.77)" id="img-23c9d319-137">
      <g class="primitive">
        <text text-anchor="end" dy="0.35em">1</text>
      </g>
    </g>
    <g transform="translate(15.28,61.22)" id="img-23c9d319-138">
      <g class="primitive">
        <text text-anchor="end" dy="0.35em">2</text>
      </g>
    </g>
    <g transform="translate(15.28,47.66)" id="img-23c9d319-139">
      <g class="primitive">
        <text text-anchor="end" dy="0.35em">3</text>
      </g>
    </g>
    <g transform="translate(15.28,34.11)" id="img-23c9d319-140">
      <g class="primitive">
        <text text-anchor="end" dy="0.35em">4</text>
      </g>
    </g>
    <g transform="translate(15.28,20.55)" id="img-23c9d319-141">
      <g class="primitive">
        <text text-anchor="end" dy="0.35em">5</text>
      </g>
    </g>
    <g transform="translate(15.28,7)" id="img-23c9d319-142">
      <g class="primitive">
        <text text-anchor="end" dy="0.35em">6</text>
      </g>
    </g>
  </g>
  <g font-size="3.88" font-family="'PT Sans','Helvetica Neue','Helvetica',sans-serif" fill="#564A55" stroke="#000000" stroke-opacity="0.000" id="img-23c9d319-143">
    <g transform="translate(8.81,45.66)" id="img-23c9d319-144">
      <g class="primitive">
        <text text-anchor="middle" dy="0.35em" transform="rotate(-90,0, 2)">frequency</text>
      </g>
    </g>
  </g>
</g>
<defs>
  <clipPath id="img-23c9d319-11">
    <path d="M16.28,5 L 92.23 5 92.23 90.33 16.28 90.33" />
  </clipPath>
</defs>
</svg>
