<?xml version="1.0" encoding="UTF-8"?>
<svg xmlns="http://www.w3.org/2000/svg"
     xmlns:xlink="http://www.w3.org/1999/xlink"
     xmlns:gadfly="http://www.gadflyjl.org/ns"
     version="1.2"
     width="141.42mm" height="100mm" viewBox="0 0 141.42 100"
     stroke="none"
     fill="#000000"
     stroke-width="0.3"
     font-size="3.88"
>
<defs>
  <marker id="arrow" markerWidth="15" markerHeight="7" refX="5" refY="3.5" orient="auto" markerUnits="strokeWidth">
    <path d="M0,0 L15,3.5 L0,7 z" stroke="context-stroke" fill="context-stroke"/>
  </marker>
</defs>
<g class="plotroot xscalable yscalable" id="img-b7cd86fd-1">
  <g class="guide xlabels" font-size="2.82" font-family="'PT Sans Caption','Helvetica Neue','Helvetica',sans-serif" fill="#6C606B" id="img-b7cd86fd-2">
    <g transform="translate(18.29,91.33)">
      <g class="primitive">
        <text text-anchor="middle" dy="0.6em">9.00</text>
      </g>
    </g>
    <g transform="translate(39.67,91.33)">
      <g class="primitive">
        <text text-anchor="middle" dy="0.6em">9.05</text>
      </g>
    </g>
    <g transform="translate(61.06,91.33)">
      <g class="primitive">
        <text text-anchor="middle" dy="0.6em">9.10</text>
      </g>
    </g>
    <g transform="translate(82.45,91.33)">
      <g class="primitive">
        <text text-anchor="middle" dy="0.6em">9.15</text>
      </g>
    </g>
  </g>
  <g class="guide colorkey" id="img-b7cd86fd-3">
    <g class="color_coding_coding_coding_noncoding_4-tail" id="img-b7cd86fd-4">
      <g fill="#4C404B" font-size="2.82" font-family="'PT Sans','Helvetica Neue','Helvetica',sans-serif" id="img-b7cd86fd-5">
        <g transform="translate(88.27,49.48)" id="img-b7cd86fd-6">
          <g class="primitive">
            <text dy="0.35em">coding_coding_coding_noncoding_4-tail</text>
          </g>
        </g>
      </g>
      <g fill-opacity="1" fill="#00BFFF" stroke="#FFFFFF" id="img-b7cd86fd-7">
        <g transform="translate(86.36,49.48)" id="img-b7cd86fd-8">
          <path d="M-0.91,-0.91 L 0.91 -0.91 0.91 0.91 -0.91 0.91 z" class="primitive"/>
        </g>
      </g>
    </g>
    <g fill="#362A35" font-size="3.88" font-family="'PT Sans','Helvetica Neue','Helvetica',sans-serif" stroke="#000000" stroke-opacity="0.000" id="img-b7cd86fd-9">
      <g transform="translate(85.45,45.66)" id="img-b7cd86fd-10">
        <g class="primitive">
          <text dy="-0em">graphlet</text>
        </g>
      </g>
    </g>
  </g>
  <g clip-path="url(#img-b7cd86fd-11)">
    <g id="img-b7cd86fd-12">
      <g pointer-events="visible" stroke-width="0.3" fill="#000000" fill-opacity="0.000" stroke="#000000" stroke-opacity="0.000" class="guide background" id="img-b7cd86fd-13">
        <g transform="translate(50.37,47.66)" id="img-b7cd86fd-14">
          <path d="M-34.08,-42.66 L 34.08 -42.66 34.08 42.66 -34.08 42.66 z" class="primitive"/>
        </g>
      </g>
      <g class="guide ygridlines xfixed" stroke-dasharray="0.5,0.5" stroke-width="0.2" stroke="#D0D0E0" id="img-b7cd86fd-15">
        <g transform="translate(50.37,88.33)" id="img-b7cd86fd-16">
          <path fill="none" d="M-34.08,0 L 34.08 0" class="primitive"/>
        </g>
        <g transform="translate(50.37,74.77)" id="img-b7cd86fd-17">
          <path fill="none" d="M-34.08,0 L 34.08 0" class="primitive"/>
        </g>
        <g transform="translate(50.37,61.22)" id="img-b7cd86fd-18">
          <path fill="none" d="M-34.08,0 L 34.08 0" class="primitive"/>
        </g>
        <g transform="translate(50.37,47.66)" id="img-b7cd86fd-19">
          <path fill="none" d="M-34.08,0 L 34.08 0" class="primitive"/>
        </g>
        <g transform="translate(50.37,34.11)" id="img-b7cd86fd-20">
          <path fill="none" d="M-34.08,0 L 34.08 0" class="primitive"/>
        </g>
        <g transform="translate(50.37,20.55)" id="img-b7cd86fd-21">
          <path fill="none" d="M-34.08,0 L 34.08 0" class="primitive"/>
        </g>
        <g transform="translate(50.37,7)" id="img-b7cd86fd-22">
          <path fill="none" d="M-34.08,0 L 34.08 0" class="primitive"/>
        </g>
      </g>
      <g class="guide xgridlines yfixed" stroke-dasharray="0.5,0.5" stroke-width="0.2" stroke="#D0D0E0" id="img-b7cd86fd-23">
        <g transform="translate(18.29,47.66)" id="img-b7cd86fd-24">
          <path fill="none" d="M0,-42.66 L 0 42.66" class="primitive"/>
        </g>
        <g transform="translate(39.67,47.66)" id="img-b7cd86fd-25">
          <path fill="none" d="M0,-42.66 L 0 42.66" class="primitive"/>
        </g>
        <g transform="translate(61.06,47.66)" id="img-b7cd86fd-26">
          <path fill="none" d="M0,-42.66 L 0 42.66" class="primitive"/>
        </g>
        <g transform="translate(82.45,47.66)" id="img-b7cd86fd-27">
          <path fill="none" d="M0,-42.66 L 0 42.66" class="primitive"/>
        </g>
      </g>
      <g class="plotpanel" id="img-b7cd86fd-28">
        <metadata>
          <boundingbox value="16.284999999999997mm 5.0mm 68.16968957064284mm 85.32666666666667mm"/>
          <unitbox value="8.995324895569741 6.147553078121158 0.1593502088605166 -6.295106156242315"/>
        </metadata>
        <g shape-rendering="crispEdges" stroke-width="0.3" id="img-b7cd86fd-29">
          <g stroke="#000000" stroke-opacity="0.000" class="geometry" id="img-b7cd86fd-30">
            <g fill="#00BFFF" id="img-b7cd86fd-31">
              <g transform="translate(28.46,81.55)" id="img-b7cd86fd-32">
                <path d="M-0.29,-6.78 L 0.29 -6.78 0.29 6.78 -0.29 6.78 z" class="primitive"/>
              </g>
              <g transform="translate(28.98,88.33)" id="img-b7cd86fd-33">
                <path d="M-0.29,-0 L 0.29 -0 0.29 0 -0.29 0 z" class="primitive"/>
              </g>
              <g transform="translate(29.51,88.33)" id="img-b7cd86fd-34">
                <path d="M-0.29,-0 L 0.29 -0 0.29 0 -0.29 0 z" class="primitive"/>
              </g>
              <g transform="translate(30.04,88.33)" id="img-b7cd86fd-35">
                <path d="M-0.29,-0 L 0.29 -0 0.29 0 -0.29 0 z" class="primitive"/>
              </g>
              <g transform="translate(30.56,81.55)" id="img-b7cd86fd-36">
                <path d="M-0.29,-6.78 L 0.29 -6.78 0.29 6.78 -0.29 6.78 z" class="primitive"/>
              </g>
              <g transform="translate(31.09,88.33)" id="img-b7cd86fd-37">
                <path d="M-0.29,-0 L 0.29 -0 0.29 0 -0.29 0 z" class="primitive"/>
              </g>
              <g transform="translate(31.61,88.33)" id="img-b7cd86fd-38">
                <path d="M-0.29,-0 L 0.29 -0 0.29 0 -0.29 0 z" class="primitive"/>
              </g>
              <g transform="translate(32.14,88.33)" id="img-b7cd86fd-39">
                <path d="M-0.29,-0 L 0.29 -0 0.29 0 -0.29 0 z" class="primitive"/>
              </g>
              <g transform="translate(32.66,81.55)" id="img-b7cd86fd-40">
                <path d="M-0.29,-6.78 L 0.29 -6.78 0.29 6.78 -0.29 6.78 z" class="primitive"/>
              </g>
              <g transform="translate(33.19,88.33)" id="img-b7cd86fd-41">
                <path d="M-0.29,-0 L 0.29 -0 0.29 0 -0.29 0 z" class="primitive"/>
              </g>
              <g transform="translate(33.71,88.33)" id="img-b7cd86fd-42">
                <path d="M-0.29,-0 L 0.29 -0 0.29 0 -0.29 0 z" class="primitive"/>
              </g>
              <g transform="translate(34.24,81.55)" id="img-b7cd86fd-43">
                <path d="M-0.29,-6.78 L 0.29 -6.78 0.29 6.78 -0.29 6.78 z" class="primitive"/>
              </g>
              <g transform="translate(34.77,88.33)" id="img-b7cd86fd-44">
                <path d="M-0.29,-0 L 0.29 -0 0.29 0 -0.29 0 z" class="primitive"/>
              </g>
              <g transform="translate(35.29,81.55)" id="img-b7cd86fd-45">
                <path d="M-0.29,-6.78 L 0.29 -6.78 0.29 6.78 -0.29 6.78 z" class="primitive"/>
              </g>
              <g transform="translate(35.82,88.33)" id="img-b7cd86fd-46">
                <path d="M-0.29,-0 L 0.29 -0 0.29 0 -0.29 0 z" class="primitive"/>
              </g>
              <g transform="translate(36.34,81.55)" id="img-b7cd86fd-47">
                <path d="M-0.29,-6.78 L 0.29 -6.78 0.29 6.78 -0.29 6.78 z" class="primitive"/>
              </g>
              <g transform="translate(36.87,88.33)" id="img-b7cd86fd-48">
                <path d="M-0.29,-0 L 0.29 -0 0.29 0 -0.29 0 z" class="primitive"/>
              </g>
              <g transform="translate(37.39,81.55)" id="img-b7cd86fd-49">
                <path d="M-0.29,-6.78 L 0.29 -6.78 0.29 6.78 -0.29 6.78 z" class="primitive"/>
              </g>
              <g transform="translate(37.92,88.33)" id="img-b7cd86fd-50">
                <path d="M-0.29,-0 L 0.29 -0 0.29 0 -0.29 0 z" class="primitive"/>
              </g>
              <g transform="translate(38.44,88.33)" id="img-b7cd86fd-51">
                <path d="M-0.29,-0 L 0.29 -0 0.29 0 -0.29 0 z" class="primitive"/>
              </g>
              <g transform="translate(38.97,74.77)" id="img-b7cd86fd-52">
                <path d="M-0.29,-13.55 L 0.29 -13.55 0.29 13.55 -0.29 13.55 z" class="primitive"/>
              </g>
              <g transform="translate(39.5,81.55)" id="img-b7cd86fd-53">
                <path d="M-0.29,-6.78 L 0.29 -6.78 0.29 6.78 -0.29 6.78 z" class="primitive"/>
              </g>
              <g transform="translate(40.02,88.33)" id="img-b7cd86fd-54">
                <path d="M-0.29,-0 L 0.29 -0 0.29 0 -0.29 0 z" class="primitive"/>
              </g>
              <g transform="translate(40.55,68)" id="img-b7cd86fd-55">
                <path d="M-0.29,-20.33 L 0.29 -20.33 0.29 20.33 -0.29 20.33 z" class="primitive"/>
              </g>
              <g transform="translate(41.07,88.33)" id="img-b7cd86fd-56">
                <path d="M-0.29,-0 L 0.29 -0 0.29 0 -0.29 0 z" class="primitive"/>
              </g>
              <g transform="translate(41.6,74.77)" id="img-b7cd86fd-57">
                <path d="M-0.29,-13.55 L 0.29 -13.55 0.29 13.55 -0.29 13.55 z" class="primitive"/>
              </g>
              <g transform="translate(42.12,81.55)" id="img-b7cd86fd-58">
                <path d="M-0.29,-6.78 L 0.29 -6.78 0.29 6.78 -0.29 6.78 z" class="primitive"/>
              </g>
              <g transform="translate(42.65,68)" id="img-b7cd86fd-59">
                <path d="M-0.29,-20.33 L 0.29 -20.33 0.29 20.33 -0.29 20.33 z" class="primitive"/>
              </g>
              <g transform="translate(43.17,74.77)" id="img-b7cd86fd-60">
                <path d="M-0.29,-13.55 L 0.29 -13.55 0.29 13.55 -0.29 13.55 z" class="primitive"/>
              </g>
              <g transform="translate(43.7,74.77)" id="img-b7cd86fd-61">
                <path d="M-0.29,-13.55 L 0.29 -13.55 0.29 13.55 -0.29 13.55 z" class="primitive"/>
              </g>
              <g transform="translate(44.23,74.77)" id="img-b7cd86fd-62">
                <path d="M-0.29,-13.55 L 0.29 -13.55 0.29 13.55 -0.29 13.55 z" class="primitive"/>
              </g>
              <g transform="translate(44.75,81.55)" id="img-b7cd86fd-63">
                <path d="M-0.29,-6.78 L 0.29 -6.78 0.29 6.78 -0.29 6.78 z" class="primitive"/>
              </g>
              <g transform="translate(45.28,88.33)" id="img-b7cd86fd-64">
                <path d="M-0.29,-0 L 0.29 -0 0.29 0 -0.29 0 z" class="primitive"/>
              </g>
              <g transform="translate(45.8,81.55)" id="img-b7cd86fd-65">
                <path d="M-0.29,-6.78 L 0.29 -6.78 0.29 6.78 -0.29 6.78 z" class="primitive"/>
              </g>
              <g transform="translate(46.33,81.55)" id="img-b7cd86fd-66">
                <path d="M-0.29,-6.78 L 0.29 -6.78 0.29 6.78 -0.29 6.78 z" class="primitive"/>
              </g>
              <g transform="translate(46.85,61.22)" id="img-b7cd86fd-67">
                <path d="M-0.29,-27.11 L 0.29 -27.11 0.29 27.11 -0.29 27.11 z" class="primitive"/>
              </g>
              <g transform="translate(47.38,88.33)" id="img-b7cd86fd-68">
                <path d="M-0.29,-0 L 0.29 -0 0.29 0 -0.29 0 z" class="primitive"/>
              </g>
              <g transform="translate(47.91,68)" id="img-b7cd86fd-69">
                <path d="M-0.29,-20.33 L 0.29 -20.33 0.29 20.33 -0.29 20.33 z" class="primitive"/>
              </g>
              <g transform="translate(48.43,88.33)" id="img-b7cd86fd-70">
                <path d="M-0.29,-0 L 0.29 -0 0.29 0 -0.29 0 z" class="primitive"/>
              </g>
              <g transform="translate(48.96,74.77)" id="img-b7cd86fd-71">
                <path d="M-0.29,-13.55 L 0.29 -13.55 0.29 13.55 -0.29 13.55 z" class="primitive"/>
              </g>
              <g transform="translate(49.48,81.55)" id="img-b7cd86fd-72">
                <path d="M-0.29,-6.78 L 0.29 -6.78 0.29 6.78 -0.29 6.78 z" class="primitive"/>
              </g>
              <g transform="translate(50.01,81.55)" id="img-b7cd86fd-73">
                <path d="M-0.29,-6.78 L 0.29 -6.78 0.29 6.78 -0.29 6.78 z" class="primitive"/>
              </g>
              <g transform="translate(50.53,81.55)" id="img-b7cd86fd-74">
                <path d="M-0.29,-6.78 L 0.29 -6.78 0.29 6.78 -0.29 6.78 z" class="primitive"/>
              </g>
              <g transform="translate(51.06,68)" id="img-b7cd86fd-75">
                <path d="M-0.29,-20.33 L 0.29 -20.33 0.29 20.33 -0.29 20.33 z" class="primitive"/>
              </g>
              <g transform="translate(51.58,81.55)" id="img-b7cd86fd-76">
                <path d="M-0.29,-6.78 L 0.29 -6.78 0.29 6.78 -0.29 6.78 z" class="primitive"/>
              </g>
              <g transform="translate(52.11,68)" id="img-b7cd86fd-77">
                <path d="M-0.29,-20.33 L 0.29 -20.33 0.29 20.33 -0.29 20.33 z" class="primitive"/>
              </g>
              <g transform="translate(52.64,47.66)" id="img-b7cd86fd-78">
                <path d="M-0.29,-40.66 L 0.29 -40.66 0.29 40.66 -0.29 40.66 z" class="primitive"/>
              </g>
              <g transform="translate(53.16,68)" id="img-b7cd86fd-79">
                <path d="M-0.29,-20.33 L 0.29 -20.33 0.29 20.33 -0.29 20.33 z" class="primitive"/>
              </g>
              <g transform="translate(53.69,74.77)" id="img-b7cd86fd-80">
                <path d="M-0.29,-13.55 L 0.29 -13.55 0.29 13.55 -0.29 13.55 z" class="primitive"/>
              </g>
              <g transform="translate(54.21,68)" id="img-b7cd86fd-81">
                <path d="M-0.29,-20.33 L 0.29 -20.33 0.29 20.33 -0.29 20.33 z" class="primitive"/>
              </g>
              <g transform="translate(54.74,88.33)" id="img-b7cd86fd-82">
                <path d="M-0.29,-0 L 0.29 -0 0.29 0 -0.29 0 z" class="primitive"/>
              </g>
              <g transform="translate(55.26,81.55)" id="img-b7cd86fd-83">
                <path d="M-0.29,-6.78 L 0.29 -6.78 0.29 6.78 -0.29 6.78 z" class="primitive"/>
              </g>
              <g transform="translate(55.79,81.55)" id="img-b7cd86fd-84">
                <path d="M-0.29,-6.78 L 0.29 -6.78 0.29 6.78 -0.29 6.78 z" class="primitive"/>
              </g>
              <g transform="translate(56.31,81.55)" id="img-b7cd86fd-85">
                <path d="M-0.29,-6.78 L 0.29 -6.78 0.29 6.78 -0.29 6.78 z" class="primitive"/>
              </g>
              <g transform="translate(56.84,74.77)" id="img-b7cd86fd-86">
                <path d="M-0.29,-13.55 L 0.29 -13.55 0.29 13.55 -0.29 13.55 z" class="primitive"/>
              </g>
              <g transform="translate(57.37,68)" id="img-b7cd86fd-87">
                <path d="M-0.29,-20.33 L 0.29 -20.33 0.29 20.33 -0.29 20.33 z" class="primitive"/>
              </g>
              <g transform="translate(57.89,88.33)" id="img-b7cd86fd-88">
                <path d="M-0.29,-0 L 0.29 -0 0.29 0 -0.29 0 z" class="primitive"/>
              </g>
              <g transform="translate(58.42,81.55)" id="img-b7cd86fd-89">
                <path d="M-0.29,-6.78 L 0.29 -6.78 0.29 6.78 -0.29 6.78 z" class="primitive"/>
              </g>
              <g transform="translate(58.94,74.77)" id="img-b7cd86fd-90">
                <path d="M-0.29,-13.55 L 0.29 -13.55 0.29 13.55 -0.29 13.55 z" class="primitive"/>
              </g>
              <g transform="translate(59.47,88.33)" id="img-b7cd86fd-91">
                <path d="M-0.29,-0 L 0.29 -0 0.29 0 -0.29 0 z" class="primitive"/>
              </g>
              <g transform="translate(59.99,74.77)" id="img-b7cd86fd-92">
                <path d="M-0.29,-13.55 L 0.29 -13.55 0.29 13.55 -0.29 13.55 z" class="primitive"/>
              </g>
              <g transform="translate(60.52,88.33)" id="img-b7cd86fd-93">
                <path d="M-0.29,-0 L 0.29 -0 0.29 0 -0.29 0 z" class="primitive"/>
              </g>
              <g transform="translate(61.04,61.22)" id="img-b7cd86fd-94">
                <path d="M-0.29,-27.11 L 0.29 -27.11 0.29 27.11 -0.29 27.11 z" class="primitive"/>
              </g>
              <g transform="translate(61.57,74.77)" id="img-b7cd86fd-95">
                <path d="M-0.29,-13.55 L 0.29 -13.55 0.29 13.55 -0.29 13.55 z" class="primitive"/>
              </g>
              <g transform="translate(62.1,74.77)" id="img-b7cd86fd-96">
                <path d="M-0.29,-13.55 L 0.29 -13.55 0.29 13.55 -0.29 13.55 z" class="primitive"/>
              </g>
              <g transform="translate(62.62,88.33)" id="img-b7cd86fd-97">
                <path d="M-0.29,-0 L 0.29 -0 0.29 0 -0.29 0 z" class="primitive"/>
              </g>
              <g transform="translate(63.15,88.33)" id="img-b7cd86fd-98">
                <path d="M-0.29,-0 L 0.29 -0 0.29 0 -0.29 0 z" class="primitive"/>
              </g>
              <g transform="translate(63.67,81.55)" id="img-b7cd86fd-99">
                <path d="M-0.29,-6.78 L 0.29 -6.78 0.29 6.78 -0.29 6.78 z" class="primitive"/>
              </g>
              <g transform="translate(64.2,88.33)" id="img-b7cd86fd-100">
                <path d="M-0.29,-0 L 0.29 -0 0.29 0 -0.29 0 z" class="primitive"/>
              </g>
              <g transform="translate(64.72,81.55)" id="img-b7cd86fd-101">
                <path d="M-0.29,-6.78 L 0.29 -6.78 0.29 6.78 -0.29 6.78 z" class="primitive"/>
              </g>
              <g transform="translate(65.25,74.77)" id="img-b7cd86fd-102">
                <path d="M-0.29,-13.55 L 0.29 -13.55 0.29 13.55 -0.29 13.55 z" class="primitive"/>
              </g>
              <g transform="translate(65.77,81.55)" id="img-b7cd86fd-103">
                <path d="M-0.29,-6.78 L 0.29 -6.78 0.29 6.78 -0.29 6.78 z" class="primitive"/>
              </g>
              <g transform="translate(66.3,74.77)" id="img-b7cd86fd-104">
                <path d="M-0.29,-13.55 L 0.29 -13.55 0.29 13.55 -0.29 13.55 z" class="primitive"/>
              </g>
              <g transform="translate(66.83,81.55)" id="img-b7cd86fd-105">
                <path d="M-0.29,-6.78 L 0.29 -6.78 0.29 6.78 -0.29 6.78 z" class="primitive"/>
              </g>
              <g transform="translate(67.35,81.55)" id="img-b7cd86fd-106">
                <path d="M-0.29,-6.78 L 0.29 -6.78 0.29 6.78 -0.29 6.78 z" class="primitive"/>
              </g>
              <g transform="translate(67.88,81.55)" id="img-b7cd86fd-107">
                <path d="M-0.29,-6.78 L 0.29 -6.78 0.29 6.78 -0.29 6.78 z" class="primitive"/>
              </g>
              <g transform="translate(68.4,74.77)" id="img-b7cd86fd-108">
                <path d="M-0.29,-13.55 L 0.29 -13.55 0.29 13.55 -0.29 13.55 z" class="primitive"/>
              </g>
              <g transform="translate(68.93,74.77)" id="img-b7cd86fd-109">
                <path d="M-0.29,-13.55 L 0.29 -13.55 0.29 13.55 -0.29 13.55 z" class="primitive"/>
              </g>
              <g transform="translate(69.45,81.55)" id="img-b7cd86fd-110">
                <path d="M-0.29,-6.78 L 0.29 -6.78 0.29 6.78 -0.29 6.78 z" class="primitive"/>
              </g>
              <g transform="translate(69.98,81.55)" id="img-b7cd86fd-111">
                <path d="M-0.29,-6.78 L 0.29 -6.78 0.29 6.78 -0.29 6.78 z" class="primitive"/>
              </g>
              <g transform="translate(70.5,88.33)" id="img-b7cd86fd-112">
                <path d="M-0.29,-0 L 0.29 -0 0.29 0 -0.29 0 z" class="primitive"/>
              </g>
              <g transform="translate(71.03,88.33)" id="img-b7cd86fd-113">
                <path d="M-0.29,-0 L 0.29 -0 0.29 0 -0.29 0 z" class="primitive"/>
              </g>
              <g transform="translate(71.56,88.33)" id="img-b7cd86fd-114">
                <path d="M-0.29,-0 L 0.29 -0 0.29 0 -0.29 0 z" class="primitive"/>
              </g>
              <g transform="translate(72.08,88.33)" id="img-b7cd86fd-115">
                <path d="M-0.29,-0 L 0.29 -0 0.29 0 -0.29 0 z" class="primitive"/>
              </g>
              <g transform="translate(72.61,88.33)" id="img-b7cd86fd-116">
                <path d="M-0.29,-0 L 0.29 -0 0.29 0 -0.29 0 z" class="primitive"/>
              </g>
              <g transform="translate(73.13,88.33)" id="img-b7cd86fd-117">
                <path d="M-0.29,-0 L 0.29 -0 0.29 0 -0.29 0 z" class="primitive"/>
              </g>
              <g transform="translate(73.66,88.33)" id="img-b7cd86fd-118">
                <path d="M-0.29,-0 L 0.29 -0 0.29 0 -0.29 0 z" class="primitive"/>
              </g>
              <g transform="translate(74.18,88.33)" id="img-b7cd86fd-119">
                <path d="M-0.29,-0 L 0.29 -0 0.29 0 -0.29 0 z" class="primitive"/>
              </g>
              <g transform="translate(74.71,88.33)" id="img-b7cd86fd-120">
                <path d="M-0.29,-0 L 0.29 -0 0.29 0 -0.29 0 z" class="primitive"/>
              </g>
              <g transform="translate(75.24,88.33)" id="img-b7cd86fd-121">
                <path d="M-0.29,-0 L 0.29 -0 0.29 0 -0.29 0 z" class="primitive"/>
              </g>
              <g transform="translate(75.76,81.55)" id="img-b7cd86fd-122">
                <path d="M-0.29,-6.78 L 0.29 -6.78 0.29 6.78 -0.29 6.78 z" class="primitive"/>
              </g>
              <g transform="translate(76.29,88.33)" id="img-b7cd86fd-123">
                <path d="M-0.29,-0 L 0.29 -0 0.29 0 -0.29 0 z" class="primitive"/>
              </g>
              <g transform="translate(76.81,81.55)" id="img-b7cd86fd-124">
                <path d="M-0.29,-6.78 L 0.29 -6.78 0.29 6.78 -0.29 6.78 z" class="primitive"/>
              </g>
              <g transform="translate(77.34,88.33)" id="img-b7cd86fd-125">
                <path d="M-0.29,-0 L 0.29 -0 0.29 0 -0.29 0 z" class="primitive"/>
              </g>
              <g transform="translate(77.86,88.33)" id="img-b7cd86fd-126">
                <path d="M-0.29,-0 L 0.29 -0 0.29 0 -0.29 0 z" class="primitive"/>
              </g>
              <g transform="translate(78.39,88.33)" id="img-b7cd86fd-127">
                <path d="M-0.29,-0 L 0.29 -0 0.29 0 -0.29 0 z" class="primitive"/>
              </g>
              <g transform="translate(78.91,88.33)" id="img-b7cd86fd-128">
                <path d="M-0.29,-0 L 0.29 -0 0.29 0 -0.29 0 z" class="primitive"/>
              </g>
              <g transform="translate(79.44,88.33)" id="img-b7cd86fd-129">
                <path d="M-0.29,-0 L 0.29 -0 0.29 0 -0.29 0 z" class="primitive"/>
              </g>
              <g transform="translate(79.97,88.33)" id="img-b7cd86fd-130">
                <path d="M-0.29,-0 L 0.29 -0 0.29 0 -0.29 0 z" class="primitive"/>
              </g>
              <g transform="translate(80.49,88.33)" id="img-b7cd86fd-131">
                <path d="M-0.29,-0 L 0.29 -0 0.29 0 -0.29 0 z" class="primitive"/>
              </g>
            </g>
          </g>
        </g>
      </g>
    </g>
  </g>
  <g class="guide ylabels" font-size="2.82" font-family="'PT Sans Caption','Helvetica Neue','Helvetica',sans-serif" fill="#6C606B" id="img-b7cd86fd-132">
    <g transform="translate(15.28,88.33)" id="img-b7cd86fd-133">
      <g class="primitive">
        <text text-anchor="end" dy="0.35em">0</text>
      </g>
    </g>
    <g transform="translate(15.28,74.77)" id="img-b7cd86fd-134">
      <g class="primitive">
        <text text-anchor="end" dy="0.35em">1</text>
      </g>
    </g>
    <g transform="translate(15.28,61.22)" id="img-b7cd86fd-135">
      <g class="primitive">
        <text text-anchor="end" dy="0.35em">2</text>
      </g>
    </g>
    <g transform="translate(15.28,47.66)" id="img-b7cd86fd-136">
      <g class="primitive">
        <text text-anchor="end" dy="0.35em">3</text>
      </g>
    </g>
    <g transform="translate(15.28,34.11)" id="img-b7cd86fd-137">
      <g class="primitive">
        <text text-anchor="end" dy="0.35em">4</text>
      </g>
    </g>
    <g transform="translate(15.28,20.55)" id="img-b7cd86fd-138">
      <g class="primitive">
        <text text-anchor="end" dy="0.35em">5</text>
      </g>
    </g>
    <g transform="translate(15.28,7)" id="img-b7cd86fd-139">
      <g class="primitive">
        <text text-anchor="end" dy="0.35em">6</text>
      </g>
    </g>
  </g>
  <g font-size="3.88" font-family="'PT Sans','Helvetica Neue','Helvetica',sans-serif" fill="#564A55" stroke="#000000" stroke-opacity="0.000" id="img-b7cd86fd-140">
    <g transform="translate(8.81,45.66)" id="img-b7cd86fd-141">
      <g class="primitive">
        <text text-anchor="middle" dy="0.35em" transform="rotate(-90,0, 2)">frequency</text>
      </g>
    </g>
  </g>
</g>
<defs>
  <clipPath id="img-b7cd86fd-11">
    <path d="M16.28,5 L 84.45 5 84.45 90.33 16.28 90.33" />
  </clipPath>
</defs>
</svg>
