<?xml version="1.0" encoding="UTF-8"?>
<svg xmlns="http://www.w3.org/2000/svg"
     xmlns:xlink="http://www.w3.org/1999/xlink"
     xmlns:gadfly="http://www.gadflyjl.org/ns"
     version="1.2"
     width="141.42mm" height="100mm" viewBox="0 0 141.42 100"
     stroke="none"
     fill="#000000"
     stroke-width="0.3"
     font-size="3.88"
>
<defs>
  <marker id="arrow" markerWidth="15" markerHeight="7" refX="5" refY="3.5" orient="auto" markerUnits="strokeWidth">
    <path d="M0,0 L15,3.5 L0,7 z" stroke="context-stroke" fill="context-stroke"/>
  </marker>
</defs>
<g class="plotroot xscalable yscalable" id="img-8152b94d-1">
  <g class="guide xlabels" font-size="2.82" font-family="'PT Sans Caption','Helvetica Neue','Helvetica',sans-serif" fill="#6C606B" id="img-8152b94d-2">
    <g transform="translate(18.28,91.33)">
      <g class="primitive">
        <text text-anchor="middle" dy="0.6em">3.5</text>
      </g>
    </g>
    <g transform="translate(40.12,91.33)">
      <g class="primitive">
        <text text-anchor="middle" dy="0.6em">4.0</text>
      </g>
    </g>
    <g transform="translate(61.96,91.33)">
      <g class="primitive">
        <text text-anchor="middle" dy="0.6em">4.5</text>
      </g>
    </g>
    <g transform="translate(83.8,91.33)">
      <g class="primitive">
        <text text-anchor="middle" dy="0.6em">5.0</text>
      </g>
    </g>
  </g>
  <g class="guide colorkey" id="img-8152b94d-3">
    <g class="color_noncoding_noncoding_noncoding_3-tri" id="img-8152b94d-4">
      <g fill="#4C404B" font-size="2.82" font-family="'PT Sans','Helvetica Neue','Helvetica',sans-serif" id="img-8152b94d-5">
        <g transform="translate(89.61,49.48)" id="img-8152b94d-6">
          <g class="primitive">
            <text dy="0.35em">noncoding_noncoding_noncoding_3-tri</text>
          </g>
        </g>
      </g>
      <g fill-opacity="1" fill="#00BFFF" stroke="#FFFFFF" id="img-8152b94d-7">
        <g transform="translate(87.71,49.48)" id="img-8152b94d-8">
          <path d="M-0.91,-0.91 L 0.91 -0.91 0.91 0.91 -0.91 0.91 z" class="primitive"/>
        </g>
      </g>
    </g>
    <g fill="#362A35" font-size="3.88" font-family="'PT Sans','Helvetica Neue','Helvetica',sans-serif" stroke="#000000" stroke-opacity="0.000" id="img-8152b94d-9">
      <g transform="translate(86.8,45.66)" id="img-8152b94d-10">
        <g class="primitive">
          <text dy="-0em">graphlet</text>
        </g>
      </g>
    </g>
  </g>
  <g clip-path="url(#img-8152b94d-11)">
    <g id="img-8152b94d-12">
      <g pointer-events="visible" stroke-width="0.3" fill="#000000" fill-opacity="0.000" stroke="#000000" stroke-opacity="0.000" class="guide background" id="img-8152b94d-13">
        <g transform="translate(51.04,47.66)" id="img-8152b94d-14">
          <path d="M-34.76,-42.66 L 34.76 -42.66 34.76 42.66 -34.76 42.66 z" class="primitive"/>
        </g>
      </g>
      <g class="guide ygridlines xfixed" stroke-dasharray="0.5,0.5" stroke-width="0.2" stroke="#D0D0E0" id="img-8152b94d-15">
        <g transform="translate(51.04,88.33)" id="img-8152b94d-16">
          <path fill="none" d="M-34.76,0 L 34.76 0" class="primitive"/>
        </g>
        <g transform="translate(51.04,74.77)" id="img-8152b94d-17">
          <path fill="none" d="M-34.76,0 L 34.76 0" class="primitive"/>
        </g>
        <g transform="translate(51.04,61.22)" id="img-8152b94d-18">
          <path fill="none" d="M-34.76,0 L 34.76 0" class="primitive"/>
        </g>
        <g transform="translate(51.04,47.66)" id="img-8152b94d-19">
          <path fill="none" d="M-34.76,0 L 34.76 0" class="primitive"/>
        </g>
        <g transform="translate(51.04,34.11)" id="img-8152b94d-20">
          <path fill="none" d="M-34.76,0 L 34.76 0" class="primitive"/>
        </g>
        <g transform="translate(51.04,20.55)" id="img-8152b94d-21">
          <path fill="none" d="M-34.76,0 L 34.76 0" class="primitive"/>
        </g>
        <g transform="translate(51.04,7)" id="img-8152b94d-22">
          <path fill="none" d="M-34.76,0 L 34.76 0" class="primitive"/>
        </g>
      </g>
      <g class="guide xgridlines yfixed" stroke-dasharray="0.5,0.5" stroke-width="0.2" stroke="#D0D0E0" id="img-8152b94d-23">
        <g transform="translate(18.28,47.66)" id="img-8152b94d-24">
          <path fill="none" d="M0,-42.66 L 0 42.66" class="primitive"/>
        </g>
        <g transform="translate(40.12,47.66)" id="img-8152b94d-25">
          <path fill="none" d="M0,-42.66 L 0 42.66" class="primitive"/>
        </g>
        <g transform="translate(61.96,47.66)" id="img-8152b94d-26">
          <path fill="none" d="M0,-42.66 L 0 42.66" class="primitive"/>
        </g>
        <g transform="translate(83.8,47.66)" id="img-8152b94d-27">
          <path fill="none" d="M0,-42.66 L 0 42.66" class="primitive"/>
        </g>
      </g>
      <g class="plotpanel" id="img-8152b94d-28">
        <metadata>
          <boundingbox value="16.284999999999997mm 5.0mm 69.51635623730951mm 85.32666666666667mm"/>
          <unitbox value="3.454209907688798 6.147553078121158 1.591580184622404 -6.295106156242315"/>
        </metadata>
        <g shape-rendering="crispEdges" stroke-width="0.3" id="img-8152b94d-29">
          <g stroke="#000000" stroke-opacity="0.000" class="geometry" id="img-8152b94d-30">
            <g fill="#00BFFF" id="img-8152b94d-31">
              <g transform="translate(37.35,81.55)" id="img-8152b94d-32">
                <path d="M-0.23,-6.78 L 0.23 -6.78 0.23 6.78 -0.23 6.78 z" class="primitive"/>
              </g>
              <g transform="translate(37.76,88.33)" id="img-8152b94d-33">
                <path d="M-0.23,-0 L 0.23 -0 0.23 0 -0.23 0 z" class="primitive"/>
              </g>
              <g transform="translate(38.16,88.33)" id="img-8152b94d-34">
                <path d="M-0.23,-0 L 0.23 -0 0.23 0 -0.23 0 z" class="primitive"/>
              </g>
              <g transform="translate(38.57,88.33)" id="img-8152b94d-35">
                <path d="M-0.23,-0 L 0.23 -0 0.23 0 -0.23 0 z" class="primitive"/>
              </g>
              <g transform="translate(38.97,88.33)" id="img-8152b94d-36">
                <path d="M-0.23,-0 L 0.23 -0 0.23 0 -0.23 0 z" class="primitive"/>
              </g>
              <g transform="translate(39.38,88.33)" id="img-8152b94d-37">
                <path d="M-0.23,-0 L 0.23 -0 0.23 0 -0.23 0 z" class="primitive"/>
              </g>
              <g transform="translate(39.79,81.55)" id="img-8152b94d-38">
                <path d="M-0.23,-6.78 L 0.23 -6.78 0.23 6.78 -0.23 6.78 z" class="primitive"/>
              </g>
              <g transform="translate(40.19,88.33)" id="img-8152b94d-39">
                <path d="M-0.23,-0 L 0.23 -0 0.23 0 -0.23 0 z" class="primitive"/>
              </g>
              <g transform="translate(40.6,88.33)" id="img-8152b94d-40">
                <path d="M-0.23,-0 L 0.23 -0 0.23 0 -0.23 0 z" class="primitive"/>
              </g>
              <g transform="translate(41.01,88.33)" id="img-8152b94d-41">
                <path d="M-0.23,-0 L 0.23 -0 0.23 0 -0.23 0 z" class="primitive"/>
              </g>
              <g transform="translate(41.41,88.33)" id="img-8152b94d-42">
                <path d="M-0.23,-0 L 0.23 -0 0.23 0 -0.23 0 z" class="primitive"/>
              </g>
              <g transform="translate(41.82,88.33)" id="img-8152b94d-43">
                <path d="M-0.23,-0 L 0.23 -0 0.23 0 -0.23 0 z" class="primitive"/>
              </g>
              <g transform="translate(42.22,88.33)" id="img-8152b94d-44">
                <path d="M-0.23,-0 L 0.23 -0 0.23 0 -0.23 0 z" class="primitive"/>
              </g>
              <g transform="translate(42.63,88.33)" id="img-8152b94d-45">
                <path d="M-0.23,-0 L 0.23 -0 0.23 0 -0.23 0 z" class="primitive"/>
              </g>
              <g transform="translate(43.04,88.33)" id="img-8152b94d-46">
                <path d="M-0.23,-0 L 0.23 -0 0.23 0 -0.23 0 z" class="primitive"/>
              </g>
              <g transform="translate(43.44,88.33)" id="img-8152b94d-47">
                <path d="M-0.23,-0 L 0.23 -0 0.23 0 -0.23 0 z" class="primitive"/>
              </g>
              <g transform="translate(43.85,88.33)" id="img-8152b94d-48">
                <path d="M-0.23,-0 L 0.23 -0 0.23 0 -0.23 0 z" class="primitive"/>
              </g>
              <g transform="translate(44.26,88.33)" id="img-8152b94d-49">
                <path d="M-0.23,-0 L 0.23 -0 0.23 0 -0.23 0 z" class="primitive"/>
              </g>
              <g transform="translate(44.66,88.33)" id="img-8152b94d-50">
                <path d="M-0.23,-0 L 0.23 -0 0.23 0 -0.23 0 z" class="primitive"/>
              </g>
              <g transform="translate(45.07,88.33)" id="img-8152b94d-51">
                <path d="M-0.23,-0 L 0.23 -0 0.23 0 -0.23 0 z" class="primitive"/>
              </g>
              <g transform="translate(45.48,81.55)" id="img-8152b94d-52">
                <path d="M-0.23,-6.78 L 0.23 -6.78 0.23 6.78 -0.23 6.78 z" class="primitive"/>
              </g>
              <g transform="translate(45.88,88.33)" id="img-8152b94d-53">
                <path d="M-0.23,-0 L 0.23 -0 0.23 0 -0.23 0 z" class="primitive"/>
              </g>
              <g transform="translate(46.29,81.55)" id="img-8152b94d-54">
                <path d="M-0.23,-6.78 L 0.23 -6.78 0.23 6.78 -0.23 6.78 z" class="primitive"/>
              </g>
              <g transform="translate(46.69,88.33)" id="img-8152b94d-55">
                <path d="M-0.23,-0 L 0.23 -0 0.23 0 -0.23 0 z" class="primitive"/>
              </g>
              <g transform="translate(47.1,68)" id="img-8152b94d-56">
                <path d="M-0.23,-20.33 L 0.23 -20.33 0.23 20.33 -0.23 20.33 z" class="primitive"/>
              </g>
              <g transform="translate(47.51,88.33)" id="img-8152b94d-57">
                <path d="M-0.23,-0 L 0.23 -0 0.23 0 -0.23 0 z" class="primitive"/>
              </g>
              <g transform="translate(47.91,81.55)" id="img-8152b94d-58">
                <path d="M-0.23,-6.78 L 0.23 -6.78 0.23 6.78 -0.23 6.78 z" class="primitive"/>
              </g>
              <g transform="translate(48.32,74.77)" id="img-8152b94d-59">
                <path d="M-0.23,-13.55 L 0.23 -13.55 0.23 13.55 -0.23 13.55 z" class="primitive"/>
              </g>
              <g transform="translate(48.73,88.33)" id="img-8152b94d-60">
                <path d="M-0.23,-0 L 0.23 -0 0.23 0 -0.23 0 z" class="primitive"/>
              </g>
              <g transform="translate(49.13,88.33)" id="img-8152b94d-61">
                <path d="M-0.23,-0 L 0.23 -0 0.23 0 -0.23 0 z" class="primitive"/>
              </g>
              <g transform="translate(49.54,81.55)" id="img-8152b94d-62">
                <path d="M-0.23,-6.78 L 0.23 -6.78 0.23 6.78 -0.23 6.78 z" class="primitive"/>
              </g>
              <g transform="translate(49.94,88.33)" id="img-8152b94d-63">
                <path d="M-0.23,-0 L 0.23 -0 0.23 0 -0.23 0 z" class="primitive"/>
              </g>
              <g transform="translate(50.35,88.33)" id="img-8152b94d-64">
                <path d="M-0.23,-0 L 0.23 -0 0.23 0 -0.23 0 z" class="primitive"/>
              </g>
              <g transform="translate(50.76,88.33)" id="img-8152b94d-65">
                <path d="M-0.23,-0 L 0.23 -0 0.23 0 -0.23 0 z" class="primitive"/>
              </g>
              <g transform="translate(51.16,61.22)" id="img-8152b94d-66">
                <path d="M-0.23,-27.11 L 0.23 -27.11 0.23 27.11 -0.23 27.11 z" class="primitive"/>
              </g>
              <g transform="translate(51.57,74.77)" id="img-8152b94d-67">
                <path d="M-0.23,-13.55 L 0.23 -13.55 0.23 13.55 -0.23 13.55 z" class="primitive"/>
              </g>
              <g transform="translate(51.98,88.33)" id="img-8152b94d-68">
                <path d="M-0.23,-0 L 0.23 -0 0.23 0 -0.23 0 z" class="primitive"/>
              </g>
              <g transform="translate(52.38,88.33)" id="img-8152b94d-69">
                <path d="M-0.23,-0 L 0.23 -0 0.23 0 -0.23 0 z" class="primitive"/>
              </g>
              <g transform="translate(52.79,68)" id="img-8152b94d-70">
                <path d="M-0.23,-20.33 L 0.23 -20.33 0.23 20.33 -0.23 20.33 z" class="primitive"/>
              </g>
              <g transform="translate(53.2,88.33)" id="img-8152b94d-71">
                <path d="M-0.23,-0 L 0.23 -0 0.23 0 -0.23 0 z" class="primitive"/>
              </g>
              <g transform="translate(53.6,81.55)" id="img-8152b94d-72">
                <path d="M-0.23,-6.78 L 0.23 -6.78 0.23 6.78 -0.23 6.78 z" class="primitive"/>
              </g>
              <g transform="translate(54.01,81.55)" id="img-8152b94d-73">
                <path d="M-0.23,-6.78 L 0.23 -6.78 0.23 6.78 -0.23 6.78 z" class="primitive"/>
              </g>
              <g transform="translate(54.41,68)" id="img-8152b94d-74">
                <path d="M-0.23,-20.33 L 0.23 -20.33 0.23 20.33 -0.23 20.33 z" class="primitive"/>
              </g>
              <g transform="translate(54.82,88.33)" id="img-8152b94d-75">
                <path d="M-0.23,-0 L 0.23 -0 0.23 0 -0.23 0 z" class="primitive"/>
              </g>
              <g transform="translate(55.23,47.66)" id="img-8152b94d-76">
                <path d="M-0.23,-40.66 L 0.23 -40.66 0.23 40.66 -0.23 40.66 z" class="primitive"/>
              </g>
              <g transform="translate(55.63,81.55)" id="img-8152b94d-77">
                <path d="M-0.23,-6.78 L 0.23 -6.78 0.23 6.78 -0.23 6.78 z" class="primitive"/>
              </g>
              <g transform="translate(56.04,88.33)" id="img-8152b94d-78">
                <path d="M-0.23,-0 L 0.23 -0 0.23 0 -0.23 0 z" class="primitive"/>
              </g>
              <g transform="translate(56.45,81.55)" id="img-8152b94d-79">
                <path d="M-0.23,-6.78 L 0.23 -6.78 0.23 6.78 -0.23 6.78 z" class="primitive"/>
              </g>
              <g transform="translate(56.85,88.33)" id="img-8152b94d-80">
                <path d="M-0.23,-0 L 0.23 -0 0.23 0 -0.23 0 z" class="primitive"/>
              </g>
              <g transform="translate(57.26,68)" id="img-8152b94d-81">
                <path d="M-0.23,-20.33 L 0.23 -20.33 0.23 20.33 -0.23 20.33 z" class="primitive"/>
              </g>
              <g transform="translate(57.66,88.33)" id="img-8152b94d-82">
                <path d="M-0.23,-0 L 0.23 -0 0.23 0 -0.23 0 z" class="primitive"/>
              </g>
              <g transform="translate(58.07,47.66)" id="img-8152b94d-83">
                <path d="M-0.23,-40.66 L 0.23 -40.66 0.23 40.66 -0.23 40.66 z" class="primitive"/>
              </g>
              <g transform="translate(58.48,81.55)" id="img-8152b94d-84">
                <path d="M-0.23,-6.78 L 0.23 -6.78 0.23 6.78 -0.23 6.78 z" class="primitive"/>
              </g>
              <g transform="translate(58.88,81.55)" id="img-8152b94d-85">
                <path d="M-0.23,-6.78 L 0.23 -6.78 0.23 6.78 -0.23 6.78 z" class="primitive"/>
              </g>
              <g transform="translate(59.29,54.44)" id="img-8152b94d-86">
                <path d="M-0.23,-33.89 L 0.23 -33.89 0.23 33.89 -0.23 33.89 z" class="primitive"/>
              </g>
              <g transform="translate(59.7,88.33)" id="img-8152b94d-87">
                <path d="M-0.23,-0 L 0.23 -0 0.23 0 -0.23 0 z" class="primitive"/>
              </g>
              <g transform="translate(60.1,54.44)" id="img-8152b94d-88">
                <path d="M-0.23,-33.89 L 0.23 -33.89 0.23 33.89 -0.23 33.89 z" class="primitive"/>
              </g>
              <g transform="translate(60.51,74.77)" id="img-8152b94d-89">
                <path d="M-0.23,-13.55 L 0.23 -13.55 0.23 13.55 -0.23 13.55 z" class="primitive"/>
              </g>
              <g transform="translate(60.91,54.44)" id="img-8152b94d-90">
                <path d="M-0.23,-33.89 L 0.23 -33.89 0.23 33.89 -0.23 33.89 z" class="primitive"/>
              </g>
              <g transform="translate(61.32,88.33)" id="img-8152b94d-91">
                <path d="M-0.23,-0 L 0.23 -0 0.23 0 -0.23 0 z" class="primitive"/>
              </g>
              <g transform="translate(61.73,88.33)" id="img-8152b94d-92">
                <path d="M-0.23,-0 L 0.23 -0 0.23 0 -0.23 0 z" class="primitive"/>
              </g>
              <g transform="translate(62.13,88.33)" id="img-8152b94d-93">
                <path d="M-0.23,-0 L 0.23 -0 0.23 0 -0.23 0 z" class="primitive"/>
              </g>
              <g transform="translate(62.54,61.22)" id="img-8152b94d-94">
                <path d="M-0.23,-27.11 L 0.23 -27.11 0.23 27.11 -0.23 27.11 z" class="primitive"/>
              </g>
              <g transform="translate(62.95,61.22)" id="img-8152b94d-95">
                <path d="M-0.23,-27.11 L 0.23 -27.11 0.23 27.11 -0.23 27.11 z" class="primitive"/>
              </g>
              <g transform="translate(63.35,54.44)" id="img-8152b94d-96">
                <path d="M-0.23,-33.89 L 0.23 -33.89 0.23 33.89 -0.23 33.89 z" class="primitive"/>
              </g>
              <g transform="translate(63.76,81.55)" id="img-8152b94d-97">
                <path d="M-0.23,-6.78 L 0.23 -6.78 0.23 6.78 -0.23 6.78 z" class="primitive"/>
              </g>
              <g transform="translate(64.17,61.22)" id="img-8152b94d-98">
                <path d="M-0.23,-27.11 L 0.23 -27.11 0.23 27.11 -0.23 27.11 z" class="primitive"/>
              </g>
              <g transform="translate(64.57,74.77)" id="img-8152b94d-99">
                <path d="M-0.23,-13.55 L 0.23 -13.55 0.23 13.55 -0.23 13.55 z" class="primitive"/>
              </g>
              <g transform="translate(64.98,88.33)" id="img-8152b94d-100">
                <path d="M-0.23,-0 L 0.23 -0 0.23 0 -0.23 0 z" class="primitive"/>
              </g>
              <g transform="translate(65.38,81.55)" id="img-8152b94d-101">
                <path d="M-0.23,-6.78 L 0.23 -6.78 0.23 6.78 -0.23 6.78 z" class="primitive"/>
              </g>
              <g transform="translate(65.79,68)" id="img-8152b94d-102">
                <path d="M-0.23,-20.33 L 0.23 -20.33 0.23 20.33 -0.23 20.33 z" class="primitive"/>
              </g>
              <g transform="translate(66.2,88.33)" id="img-8152b94d-103">
                <path d="M-0.23,-0 L 0.23 -0 0.23 0 -0.23 0 z" class="primitive"/>
              </g>
              <g transform="translate(66.6,61.22)" id="img-8152b94d-104">
                <path d="M-0.23,-27.11 L 0.23 -27.11 0.23 27.11 -0.23 27.11 z" class="primitive"/>
              </g>
              <g transform="translate(67.01,81.55)" id="img-8152b94d-105">
                <path d="M-0.23,-6.78 L 0.23 -6.78 0.23 6.78 -0.23 6.78 z" class="primitive"/>
              </g>
              <g transform="translate(67.42,81.55)" id="img-8152b94d-106">
                <path d="M-0.23,-6.78 L 0.23 -6.78 0.23 6.78 -0.23 6.78 z" class="primitive"/>
              </g>
              <g transform="translate(67.82,74.77)" id="img-8152b94d-107">
                <path d="M-0.23,-13.55 L 0.23 -13.55 0.23 13.55 -0.23 13.55 z" class="primitive"/>
              </g>
              <g transform="translate(68.23,88.33)" id="img-8152b94d-108">
                <path d="M-0.23,-0 L 0.23 -0 0.23 0 -0.23 0 z" class="primitive"/>
              </g>
              <g transform="translate(68.63,81.55)" id="img-8152b94d-109">
                <path d="M-0.23,-6.78 L 0.23 -6.78 0.23 6.78 -0.23 6.78 z" class="primitive"/>
              </g>
              <g transform="translate(69.04,88.33)" id="img-8152b94d-110">
                <path d="M-0.23,-0 L 0.23 -0 0.23 0 -0.23 0 z" class="primitive"/>
              </g>
              <g transform="translate(69.45,81.55)" id="img-8152b94d-111">
                <path d="M-0.23,-6.78 L 0.23 -6.78 0.23 6.78 -0.23 6.78 z" class="primitive"/>
              </g>
              <g transform="translate(69.85,81.55)" id="img-8152b94d-112">
                <path d="M-0.23,-6.78 L 0.23 -6.78 0.23 6.78 -0.23 6.78 z" class="primitive"/>
              </g>
              <g transform="translate(70.26,88.33)" id="img-8152b94d-113">
                <path d="M-0.23,-0 L 0.23 -0 0.23 0 -0.23 0 z" class="primitive"/>
              </g>
              <g transform="translate(70.67,88.33)" id="img-8152b94d-114">
                <path d="M-0.23,-0 L 0.23 -0 0.23 0 -0.23 0 z" class="primitive"/>
              </g>
              <g transform="translate(71.07,81.55)" id="img-8152b94d-115">
                <path d="M-0.23,-6.78 L 0.23 -6.78 0.23 6.78 -0.23 6.78 z" class="primitive"/>
              </g>
              <g transform="translate(71.48,88.33)" id="img-8152b94d-116">
                <path d="M-0.23,-0 L 0.23 -0 0.23 0 -0.23 0 z" class="primitive"/>
              </g>
              <g transform="translate(71.89,88.33)" id="img-8152b94d-117">
                <path d="M-0.23,-0 L 0.23 -0 0.23 0 -0.23 0 z" class="primitive"/>
              </g>
              <g transform="translate(72.29,88.33)" id="img-8152b94d-118">
                <path d="M-0.23,-0 L 0.23 -0 0.23 0 -0.23 0 z" class="primitive"/>
              </g>
              <g transform="translate(72.7,88.33)" id="img-8152b94d-119">
                <path d="M-0.23,-0 L 0.23 -0 0.23 0 -0.23 0 z" class="primitive"/>
              </g>
              <g transform="translate(73.1,88.33)" id="img-8152b94d-120">
                <path d="M-0.23,-0 L 0.23 -0 0.23 0 -0.23 0 z" class="primitive"/>
              </g>
              <g transform="translate(73.51,88.33)" id="img-8152b94d-121">
                <path d="M-0.23,-0 L 0.23 -0 0.23 0 -0.23 0 z" class="primitive"/>
              </g>
              <g transform="translate(73.92,88.33)" id="img-8152b94d-122">
                <path d="M-0.23,-0 L 0.23 -0 0.23 0 -0.23 0 z" class="primitive"/>
              </g>
              <g transform="translate(74.32,88.33)" id="img-8152b94d-123">
                <path d="M-0.23,-0 L 0.23 -0 0.23 0 -0.23 0 z" class="primitive"/>
              </g>
              <g transform="translate(74.73,74.77)" id="img-8152b94d-124">
                <path d="M-0.23,-13.55 L 0.23 -13.55 0.23 13.55 -0.23 13.55 z" class="primitive"/>
              </g>
              <g transform="translate(75.14,88.33)" id="img-8152b94d-125">
                <path d="M-0.23,-0 L 0.23 -0 0.23 0 -0.23 0 z" class="primitive"/>
              </g>
              <g transform="translate(75.54,88.33)" id="img-8152b94d-126">
                <path d="M-0.23,-0 L 0.23 -0 0.23 0 -0.23 0 z" class="primitive"/>
              </g>
              <g transform="translate(75.95,88.33)" id="img-8152b94d-127">
                <path d="M-0.23,-0 L 0.23 -0 0.23 0 -0.23 0 z" class="primitive"/>
              </g>
              <g transform="translate(76.35,88.33)" id="img-8152b94d-128">
                <path d="M-0.23,-0 L 0.23 -0 0.23 0 -0.23 0 z" class="primitive"/>
              </g>
              <g transform="translate(76.76,81.55)" id="img-8152b94d-129">
                <path d="M-0.23,-6.78 L 0.23 -6.78 0.23 6.78 -0.23 6.78 z" class="primitive"/>
              </g>
              <g transform="translate(77.17,88.33)" id="img-8152b94d-130">
                <path d="M-0.23,-0 L 0.23 -0 0.23 0 -0.23 0 z" class="primitive"/>
              </g>
              <g transform="translate(77.57,88.33)" id="img-8152b94d-131">
                <path d="M-0.23,-0 L 0.23 -0 0.23 0 -0.23 0 z" class="primitive"/>
              </g>
            </g>
          </g>
        </g>
      </g>
    </g>
  </g>
  <g class="guide ylabels" font-size="2.82" font-family="'PT Sans Caption','Helvetica Neue','Helvetica',sans-serif" fill="#6C606B" id="img-8152b94d-132">
    <g transform="translate(15.28,88.33)" id="img-8152b94d-133">
      <g class="primitive">
        <text text-anchor="end" dy="0.35em">0</text>
      </g>
    </g>
    <g transform="translate(15.28,74.77)" id="img-8152b94d-134">
      <g class="primitive">
        <text text-anchor="end" dy="0.35em">1</text>
      </g>
    </g>
    <g transform="translate(15.28,61.22)" id="img-8152b94d-135">
      <g class="primitive">
        <text text-anchor="end" dy="0.35em">2</text>
      </g>
    </g>
    <g transform="translate(15.28,47.66)" id="img-8152b94d-136">
      <g class="primitive">
        <text text-anchor="end" dy="0.35em">3</text>
      </g>
    </g>
    <g transform="translate(15.28,34.11)" id="img-8152b94d-137">
      <g class="primitive">
        <text text-anchor="end" dy="0.35em">4</text>
      </g>
    </g>
    <g transform="translate(15.28,20.55)" id="img-8152b94d-138">
      <g class="primitive">
        <text text-anchor="end" dy="0.35em">5</text>
      </g>
    </g>
    <g transform="translate(15.28,7)" id="img-8152b94d-139">
      <g class="primitive">
        <text text-anchor="end" dy="0.35em">6</text>
      </g>
    </g>
  </g>
  <g font-size="3.88" font-family="'PT Sans','Helvetica Neue','Helvetica',sans-serif" fill="#564A55" stroke="#000000" stroke-opacity="0.000" id="img-8152b94d-140">
    <g transform="translate(8.81,45.66)" id="img-8152b94d-141">
      <g class="primitive">
        <text text-anchor="middle" dy="0.35em" transform="rotate(-90,0, 2)">frequency</text>
      </g>
    </g>
  </g>
</g>
<defs>
  <clipPath id="img-8152b94d-11">
    <path d="M16.28,5 L 85.8 5 85.8 90.33 16.28 90.33" />
  </clipPath>
</defs>
</svg>
