<?xml version="1.0" encoding="UTF-8"?>
<svg xmlns="http://www.w3.org/2000/svg"
     xmlns:xlink="http://www.w3.org/1999/xlink"
     xmlns:gadfly="http://www.gadflyjl.org/ns"
     version="1.2"
     width="141.42mm" height="100mm" viewBox="0 0 141.42 100"
     stroke="none"
     fill="#000000"
     stroke-width="0.3"
     font-size="3.88"
>
<defs>
  <marker id="arrow" markerWidth="15" markerHeight="7" refX="5" refY="3.5" orient="auto" markerUnits="strokeWidth">
    <path d="M0,0 L15,3.5 L0,7 z" stroke="context-stroke" fill="context-stroke"/>
  </marker>
</defs>
<g class="plotroot xscalable yscalable" id="img-fd3fb1e1-1">
  <g class="guide xlabels" font-size="2.82" font-family="'PT Sans Caption','Helvetica Neue','Helvetica',sans-serif" fill="#6C606B" id="img-fd3fb1e1-2">
    <g transform="translate(19.96,91.33)">
      <g class="primitive">
        <text text-anchor="middle" dy="0.6em">14.90</text>
      </g>
    </g>
    <g transform="translate(35.21,91.33)">
      <g class="primitive">
        <text text-anchor="middle" dy="0.6em">14.95</text>
      </g>
    </g>
    <g transform="translate(50.46,91.33)">
      <g class="primitive">
        <text text-anchor="middle" dy="0.6em">15.00</text>
      </g>
    </g>
    <g transform="translate(65.72,91.33)">
      <g class="primitive">
        <text text-anchor="middle" dy="0.6em">15.05</text>
      </g>
    </g>
    <g transform="translate(80.97,91.33)">
      <g class="primitive">
        <text text-anchor="middle" dy="0.6em">15.10</text>
      </g>
    </g>
  </g>
  <g class="guide colorkey" id="img-fd3fb1e1-3">
    <g class="color_coding_coding_noncoding_coding_4-path" id="img-fd3fb1e1-4">
      <g fill="#4C404B" font-size="2.82" font-family="'PT Sans','Helvetica Neue','Helvetica',sans-serif" id="img-fd3fb1e1-5">
        <g transform="translate(86.78,49.48)" id="img-fd3fb1e1-6">
          <g class="primitive">
            <text dy="0.35em">coding_coding_noncoding_coding_4-path</text>
          </g>
        </g>
      </g>
      <g fill-opacity="1" fill="#00BFFF" stroke="#FFFFFF" id="img-fd3fb1e1-7">
        <g transform="translate(84.87,49.48)" id="img-fd3fb1e1-8">
          <path d="M-0.91,-0.91 L 0.91 -0.91 0.91 0.91 -0.91 0.91 z" class="primitive"/>
        </g>
      </g>
    </g>
    <g fill="#362A35" font-size="3.88" font-family="'PT Sans','Helvetica Neue','Helvetica',sans-serif" stroke="#000000" stroke-opacity="0.000" id="img-fd3fb1e1-9">
      <g transform="translate(83.97,45.66)" id="img-fd3fb1e1-10">
        <g class="primitive">
          <text dy="-0em">graphlet</text>
        </g>
      </g>
    </g>
  </g>
  <g clip-path="url(#img-fd3fb1e1-11)">
    <g id="img-fd3fb1e1-12">
      <g pointer-events="visible" stroke-width="0.3" fill="#000000" fill-opacity="0.000" stroke="#000000" stroke-opacity="0.000" class="guide background" id="img-fd3fb1e1-13">
        <g transform="translate(50.46,47.66)" id="img-fd3fb1e1-14">
          <path d="M-32.5,-42.66 L 32.5 -42.66 32.5 42.66 -32.5 42.66 z" class="primitive"/>
        </g>
      </g>
      <g class="guide ygridlines xfixed" stroke-dasharray="0.5,0.5" stroke-width="0.2" stroke="#D0D0E0" id="img-fd3fb1e1-15">
        <g transform="translate(50.46,88.33)" id="img-fd3fb1e1-16">
          <path fill="none" d="M-32.5,0 L 32.5 0" class="primitive"/>
        </g>
        <g transform="translate(50.46,68)" id="img-fd3fb1e1-17">
          <path fill="none" d="M-32.5,0 L 32.5 0" class="primitive"/>
        </g>
        <g transform="translate(50.46,47.66)" id="img-fd3fb1e1-18">
          <path fill="none" d="M-32.5,0 L 32.5 0" class="primitive"/>
        </g>
        <g transform="translate(50.46,27.33)" id="img-fd3fb1e1-19">
          <path fill="none" d="M-32.5,0 L 32.5 0" class="primitive"/>
        </g>
        <g transform="translate(50.46,7)" id="img-fd3fb1e1-20">
          <path fill="none" d="M-32.5,0 L 32.5 0" class="primitive"/>
        </g>
      </g>
      <g class="guide xgridlines yfixed" stroke-dasharray="0.5,0.5" stroke-width="0.2" stroke="#D0D0E0" id="img-fd3fb1e1-21">
        <g transform="translate(19.96,47.66)" id="img-fd3fb1e1-22">
          <path fill="none" d="M0,-42.66 L 0 42.66" class="primitive"/>
        </g>
        <g transform="translate(35.21,47.66)" id="img-fd3fb1e1-23">
          <path fill="none" d="M0,-42.66 L 0 42.66" class="primitive"/>
        </g>
        <g transform="translate(50.46,47.66)" id="img-fd3fb1e1-24">
          <path fill="none" d="M0,-42.66 L 0 42.66" class="primitive"/>
        </g>
        <g transform="translate(65.72,47.66)" id="img-fd3fb1e1-25">
          <path fill="none" d="M0,-42.66 L 0 42.66" class="primitive"/>
        </g>
        <g transform="translate(80.97,47.66)" id="img-fd3fb1e1-26">
          <path fill="none" d="M0,-42.66 L 0 42.66" class="primitive"/>
        </g>
      </g>
      <g class="plotpanel" id="img-fd3fb1e1-27">
        <metadata>
          <boundingbox value="17.95833333333333mm 5.0mm 65.00968957064285mm 85.32666666666667mm"/>
          <unitbox value="14.893443664394706 40.98368718747438 0.2131126712105911 -41.96737437494876"/>
        </metadata>
        <g shape-rendering="crispEdges" stroke-width="0.3" id="img-fd3fb1e1-28">
          <g stroke="#000000" stroke-opacity="0.000" class="geometry" id="img-fd3fb1e1-29">
            <g fill="#00BFFF" id="img-fd3fb1e1-30">
              <g transform="translate(25.6,87.31)" id="img-fd3fb1e1-31">
                <path d="M-0.25,-1.02 L 0.25 -1.02 0.25 1.02 -0.25 1.02 z" class="primitive"/>
              </g>
              <g transform="translate(26.06,88.33)" id="img-fd3fb1e1-32">
                <path d="M-0.25,-0 L 0.25 -0 0.25 0 -0.25 0 z" class="primitive"/>
              </g>
              <g transform="translate(26.51,88.33)" id="img-fd3fb1e1-33">
                <path d="M-0.25,-0 L 0.25 -0 0.25 0 -0.25 0 z" class="primitive"/>
              </g>
              <g transform="translate(26.96,88.33)" id="img-fd3fb1e1-34">
                <path d="M-0.25,-0 L 0.25 -0 0.25 0 -0.25 0 z" class="primitive"/>
              </g>
              <g transform="translate(27.41,88.33)" id="img-fd3fb1e1-35">
                <path d="M-0.25,-0 L 0.25 -0 0.25 0 -0.25 0 z" class="primitive"/>
              </g>
              <g transform="translate(27.86,88.33)" id="img-fd3fb1e1-36">
                <path d="M-0.25,-0 L 0.25 -0 0.25 0 -0.25 0 z" class="primitive"/>
              </g>
              <g transform="translate(28.31,88.33)" id="img-fd3fb1e1-37">
                <path d="M-0.25,-0 L 0.25 -0 0.25 0 -0.25 0 z" class="primitive"/>
              </g>
              <g transform="translate(28.76,88.33)" id="img-fd3fb1e1-38">
                <path d="M-0.25,-0 L 0.25 -0 0.25 0 -0.25 0 z" class="primitive"/>
              </g>
              <g transform="translate(29.21,87.31)" id="img-fd3fb1e1-39">
                <path d="M-0.25,-1.02 L 0.25 -1.02 0.25 1.02 -0.25 1.02 z" class="primitive"/>
              </g>
              <g transform="translate(29.66,88.33)" id="img-fd3fb1e1-40">
                <path d="M-0.25,-0 L 0.25 -0 0.25 0 -0.25 0 z" class="primitive"/>
              </g>
              <g transform="translate(30.11,88.33)" id="img-fd3fb1e1-41">
                <path d="M-0.25,-0 L 0.25 -0 0.25 0 -0.25 0 z" class="primitive"/>
              </g>
              <g transform="translate(30.56,88.33)" id="img-fd3fb1e1-42">
                <path d="M-0.25,-0 L 0.25 -0 0.25 0 -0.25 0 z" class="primitive"/>
              </g>
              <g transform="translate(31.01,88.33)" id="img-fd3fb1e1-43">
                <path d="M-0.25,-0 L 0.25 -0 0.25 0 -0.25 0 z" class="primitive"/>
              </g>
              <g transform="translate(31.46,88.33)" id="img-fd3fb1e1-44">
                <path d="M-0.25,-0 L 0.25 -0 0.25 0 -0.25 0 z" class="primitive"/>
              </g>
              <g transform="translate(31.91,88.33)" id="img-fd3fb1e1-45">
                <path d="M-0.25,-0 L 0.25 -0 0.25 0 -0.25 0 z" class="primitive"/>
              </g>
              <g transform="translate(32.36,88.33)" id="img-fd3fb1e1-46">
                <path d="M-0.25,-0 L 0.25 -0 0.25 0 -0.25 0 z" class="primitive"/>
              </g>
              <g transform="translate(32.81,86.29)" id="img-fd3fb1e1-47">
                <path d="M-0.25,-2.03 L 0.25 -2.03 0.25 2.03 -0.25 2.03 z" class="primitive"/>
              </g>
              <g transform="translate(33.26,85.28)" id="img-fd3fb1e1-48">
                <path d="M-0.25,-3.05 L 0.25 -3.05 0.25 3.05 -0.25 3.05 z" class="primitive"/>
              </g>
              <g transform="translate(33.72,87.31)" id="img-fd3fb1e1-49">
                <path d="M-0.25,-1.02 L 0.25 -1.02 0.25 1.02 -0.25 1.02 z" class="primitive"/>
              </g>
              <g transform="translate(34.17,88.33)" id="img-fd3fb1e1-50">
                <path d="M-0.25,-0 L 0.25 -0 0.25 0 -0.25 0 z" class="primitive"/>
              </g>
              <g transform="translate(34.62,88.33)" id="img-fd3fb1e1-51">
                <path d="M-0.25,-0 L 0.25 -0 0.25 0 -0.25 0 z" class="primitive"/>
              </g>
              <g transform="translate(35.07,86.29)" id="img-fd3fb1e1-52">
                <path d="M-0.25,-2.03 L 0.25 -2.03 0.25 2.03 -0.25 2.03 z" class="primitive"/>
              </g>
              <g transform="translate(35.52,87.31)" id="img-fd3fb1e1-53">
                <path d="M-0.25,-1.02 L 0.25 -1.02 0.25 1.02 -0.25 1.02 z" class="primitive"/>
              </g>
              <g transform="translate(35.97,88.33)" id="img-fd3fb1e1-54">
                <path d="M-0.25,-0 L 0.25 -0 0.25 0 -0.25 0 z" class="primitive"/>
              </g>
              <g transform="translate(36.42,87.31)" id="img-fd3fb1e1-55">
                <path d="M-0.25,-1.02 L 0.25 -1.02 0.25 1.02 -0.25 1.02 z" class="primitive"/>
              </g>
              <g transform="translate(36.87,84.26)" id="img-fd3fb1e1-56">
                <path d="M-0.25,-4.07 L 0.25 -4.07 0.25 4.07 -0.25 4.07 z" class="primitive"/>
              </g>
              <g transform="translate(37.32,87.31)" id="img-fd3fb1e1-57">
                <path d="M-0.25,-1.02 L 0.25 -1.02 0.25 1.02 -0.25 1.02 z" class="primitive"/>
              </g>
              <g transform="translate(37.77,85.28)" id="img-fd3fb1e1-58">
                <path d="M-0.25,-3.05 L 0.25 -3.05 0.25 3.05 -0.25 3.05 z" class="primitive"/>
              </g>
              <g transform="translate(38.22,87.31)" id="img-fd3fb1e1-59">
                <path d="M-0.25,-1.02 L 0.25 -1.02 0.25 1.02 -0.25 1.02 z" class="primitive"/>
              </g>
              <g transform="translate(38.67,88.33)" id="img-fd3fb1e1-60">
                <path d="M-0.25,-0 L 0.25 -0 0.25 0 -0.25 0 z" class="primitive"/>
              </g>
              <g transform="translate(39.12,84.26)" id="img-fd3fb1e1-61">
                <path d="M-0.25,-4.07 L 0.25 -4.07 0.25 4.07 -0.25 4.07 z" class="primitive"/>
              </g>
              <g transform="translate(39.57,83.24)" id="img-fd3fb1e1-62">
                <path d="M-0.25,-5.08 L 0.25 -5.08 0.25 5.08 -0.25 5.08 z" class="primitive"/>
              </g>
              <g transform="translate(40.02,87.31)" id="img-fd3fb1e1-63">
                <path d="M-0.25,-1.02 L 0.25 -1.02 0.25 1.02 -0.25 1.02 z" class="primitive"/>
              </g>
              <g transform="translate(40.47,81.21)" id="img-fd3fb1e1-64">
                <path d="M-0.25,-7.12 L 0.25 -7.12 0.25 7.12 -0.25 7.12 z" class="primitive"/>
              </g>
              <g transform="translate(40.93,84.26)" id="img-fd3fb1e1-65">
                <path d="M-0.25,-4.07 L 0.25 -4.07 0.25 4.07 -0.25 4.07 z" class="primitive"/>
              </g>
              <g transform="translate(41.38,81.21)" id="img-fd3fb1e1-66">
                <path d="M-0.25,-7.12 L 0.25 -7.12 0.25 7.12 -0.25 7.12 z" class="primitive"/>
              </g>
              <g transform="translate(41.83,83.24)" id="img-fd3fb1e1-67">
                <path d="M-0.25,-5.08 L 0.25 -5.08 0.25 5.08 -0.25 5.08 z" class="primitive"/>
              </g>
              <g transform="translate(42.28,80.19)" id="img-fd3fb1e1-68">
                <path d="M-0.25,-8.13 L 0.25 -8.13 0.25 8.13 -0.25 8.13 z" class="primitive"/>
              </g>
              <g transform="translate(42.73,85.28)" id="img-fd3fb1e1-69">
                <path d="M-0.25,-3.05 L 0.25 -3.05 0.25 3.05 -0.25 3.05 z" class="primitive"/>
              </g>
              <g transform="translate(43.18,83.24)" id="img-fd3fb1e1-70">
                <path d="M-0.25,-5.08 L 0.25 -5.08 0.25 5.08 -0.25 5.08 z" class="primitive"/>
              </g>
              <g transform="translate(43.63,84.26)" id="img-fd3fb1e1-71">
                <path d="M-0.25,-4.07 L 0.25 -4.07 0.25 4.07 -0.25 4.07 z" class="primitive"/>
              </g>
              <g transform="translate(44.08,82.23)" id="img-fd3fb1e1-72">
                <path d="M-0.25,-6.1 L 0.25 -6.1 0.25 6.1 -0.25 6.1 z" class="primitive"/>
              </g>
              <g transform="translate(44.53,80.19)" id="img-fd3fb1e1-73">
                <path d="M-0.25,-8.13 L 0.25 -8.13 0.25 8.13 -0.25 8.13 z" class="primitive"/>
              </g>
              <g transform="translate(44.98,72.06)" id="img-fd3fb1e1-74">
                <path d="M-0.25,-16.27 L 0.25 -16.27 0.25 16.27 -0.25 16.27 z" class="primitive"/>
              </g>
              <g transform="translate(45.43,78.16)" id="img-fd3fb1e1-75">
                <path d="M-0.25,-10.17 L 0.25 -10.17 0.25 10.17 -0.25 10.17 z" class="primitive"/>
              </g>
              <g transform="translate(45.88,69.01)" id="img-fd3fb1e1-76">
                <path d="M-0.25,-19.32 L 0.25 -19.32 0.25 19.32 -0.25 19.32 z" class="primitive"/>
              </g>
              <g transform="translate(46.33,75.11)" id="img-fd3fb1e1-77">
                <path d="M-0.25,-13.22 L 0.25 -13.22 0.25 13.22 -0.25 13.22 z" class="primitive"/>
              </g>
              <g transform="translate(46.78,73.08)" id="img-fd3fb1e1-78">
                <path d="M-0.25,-15.25 L 0.25 -15.25 0.25 15.25 -0.25 15.25 z" class="primitive"/>
              </g>
              <g transform="translate(47.23,68)" id="img-fd3fb1e1-79">
                <path d="M-0.25,-20.33 L 0.25 -20.33 0.25 20.33 -0.25 20.33 z" class="primitive"/>
              </g>
              <g transform="translate(47.68,73.08)" id="img-fd3fb1e1-80">
                <path d="M-0.25,-15.25 L 0.25 -15.25 0.25 15.25 -0.25 15.25 z" class="primitive"/>
              </g>
              <g transform="translate(48.14,77.14)" id="img-fd3fb1e1-81">
                <path d="M-0.25,-11.18 L 0.25 -11.18 0.25 11.18 -0.25 11.18 z" class="primitive"/>
              </g>
              <g transform="translate(48.59,66.98)" id="img-fd3fb1e1-82">
                <path d="M-0.25,-21.35 L 0.25 -21.35 0.25 21.35 -0.25 21.35 z" class="primitive"/>
              </g>
              <g transform="translate(49.04,70.03)" id="img-fd3fb1e1-83">
                <path d="M-0.25,-18.3 L 0.25 -18.3 0.25 18.3 -0.25 18.3 z" class="primitive"/>
              </g>
              <g transform="translate(49.49,66.98)" id="img-fd3fb1e1-84">
                <path d="M-0.25,-21.35 L 0.25 -21.35 0.25 21.35 -0.25 21.35 z" class="primitive"/>
              </g>
              <g transform="translate(49.94,68)" id="img-fd3fb1e1-85">
                <path d="M-0.25,-20.33 L 0.25 -20.33 0.25 20.33 -0.25 20.33 z" class="primitive"/>
              </g>
              <g transform="translate(50.39,59.86)" id="img-fd3fb1e1-86">
                <path d="M-0.25,-28.46 L 0.25 -28.46 0.25 28.46 -0.25 28.46 z" class="primitive"/>
              </g>
              <g transform="translate(50.84,61.9)" id="img-fd3fb1e1-87">
                <path d="M-0.25,-26.43 L 0.25 -26.43 0.25 26.43 -0.25 26.43 z" class="primitive"/>
              </g>
              <g transform="translate(51.29,62.91)" id="img-fd3fb1e1-88">
                <path d="M-0.25,-25.41 L 0.25 -25.41 0.25 25.41 -0.25 25.41 z" class="primitive"/>
              </g>
              <g transform="translate(51.74,53.76)" id="img-fd3fb1e1-89">
                <path d="M-0.25,-34.56 L 0.25 -34.56 0.25 34.56 -0.25 34.56 z" class="primitive"/>
              </g>
              <g transform="translate(52.19,56.81)" id="img-fd3fb1e1-90">
                <path d="M-0.25,-31.51 L 0.25 -31.51 0.25 31.51 -0.25 31.51 z" class="primitive"/>
              </g>
              <g transform="translate(52.64,62.91)" id="img-fd3fb1e1-91">
                <path d="M-0.25,-25.41 L 0.25 -25.41 0.25 25.41 -0.25 25.41 z" class="primitive"/>
              </g>
              <g transform="translate(53.09,64.95)" id="img-fd3fb1e1-92">
                <path d="M-0.25,-23.38 L 0.25 -23.38 0.25 23.38 -0.25 23.38 z" class="primitive"/>
              </g>
              <g transform="translate(53.54,58.85)" id="img-fd3fb1e1-93">
                <path d="M-0.25,-29.48 L 0.25 -29.48 0.25 29.48 -0.25 29.48 z" class="primitive"/>
              </g>
              <g transform="translate(53.99,63.93)" id="img-fd3fb1e1-94">
                <path d="M-0.25,-24.4 L 0.25 -24.4 0.25 24.4 -0.25 24.4 z" class="primitive"/>
              </g>
              <g transform="translate(54.44,64.95)" id="img-fd3fb1e1-95">
                <path d="M-0.25,-23.38 L 0.25 -23.38 0.25 23.38 -0.25 23.38 z" class="primitive"/>
              </g>
              <g transform="translate(54.89,50.71)" id="img-fd3fb1e1-96">
                <path d="M-0.25,-37.61 L 0.25 -37.61 0.25 37.61 -0.25 37.61 z" class="primitive"/>
              </g>
              <g transform="translate(55.34,64.95)" id="img-fd3fb1e1-97">
                <path d="M-0.25,-23.38 L 0.25 -23.38 0.25 23.38 -0.25 23.38 z" class="primitive"/>
              </g>
              <g transform="translate(55.8,65.96)" id="img-fd3fb1e1-98">
                <path d="M-0.25,-22.36 L 0.25 -22.36 0.25 22.36 -0.25 22.36 z" class="primitive"/>
              </g>
              <g transform="translate(56.25,52.75)" id="img-fd3fb1e1-99">
                <path d="M-0.25,-35.58 L 0.25 -35.58 0.25 35.58 -0.25 35.58 z" class="primitive"/>
              </g>
              <g transform="translate(56.7,63.93)" id="img-fd3fb1e1-100">
                <path d="M-0.25,-24.4 L 0.25 -24.4 0.25 24.4 -0.25 24.4 z" class="primitive"/>
              </g>
              <g transform="translate(57.15,77.14)" id="img-fd3fb1e1-101">
                <path d="M-0.25,-11.18 L 0.25 -11.18 0.25 11.18 -0.25 11.18 z" class="primitive"/>
              </g>
              <g transform="translate(57.6,65.96)" id="img-fd3fb1e1-102">
                <path d="M-0.25,-22.36 L 0.25 -22.36 0.25 22.36 -0.25 22.36 z" class="primitive"/>
              </g>
              <g transform="translate(58.05,60.88)" id="img-fd3fb1e1-103">
                <path d="M-0.25,-27.45 L 0.25 -27.45 0.25 27.45 -0.25 27.45 z" class="primitive"/>
              </g>
              <g transform="translate(58.5,64.95)" id="img-fd3fb1e1-104">
                <path d="M-0.25,-23.38 L 0.25 -23.38 0.25 23.38 -0.25 23.38 z" class="primitive"/>
              </g>
              <g transform="translate(58.95,61.9)" id="img-fd3fb1e1-105">
                <path d="M-0.25,-26.43 L 0.25 -26.43 0.25 26.43 -0.25 26.43 z" class="primitive"/>
              </g>
              <g transform="translate(59.4,66.98)" id="img-fd3fb1e1-106">
                <path d="M-0.25,-21.35 L 0.25 -21.35 0.25 21.35 -0.25 21.35 z" class="primitive"/>
              </g>
              <g transform="translate(59.85,62.91)" id="img-fd3fb1e1-107">
                <path d="M-0.25,-25.41 L 0.25 -25.41 0.25 25.41 -0.25 25.41 z" class="primitive"/>
              </g>
              <g transform="translate(60.3,65.96)" id="img-fd3fb1e1-108">
                <path d="M-0.25,-22.36 L 0.25 -22.36 0.25 22.36 -0.25 22.36 z" class="primitive"/>
              </g>
              <g transform="translate(60.75,72.06)" id="img-fd3fb1e1-109">
                <path d="M-0.25,-16.27 L 0.25 -16.27 0.25 16.27 -0.25 16.27 z" class="primitive"/>
              </g>
              <g transform="translate(61.2,75.11)" id="img-fd3fb1e1-110">
                <path d="M-0.25,-13.22 L 0.25 -13.22 0.25 13.22 -0.25 13.22 z" class="primitive"/>
              </g>
              <g transform="translate(61.65,80.19)" id="img-fd3fb1e1-111">
                <path d="M-0.25,-8.13 L 0.25 -8.13 0.25 8.13 -0.25 8.13 z" class="primitive"/>
              </g>
              <g transform="translate(62.1,76.13)" id="img-fd3fb1e1-112">
                <path d="M-0.25,-12.2 L 0.25 -12.2 0.25 12.2 -0.25 12.2 z" class="primitive"/>
              </g>
              <g transform="translate(62.55,79.18)" id="img-fd3fb1e1-113">
                <path d="M-0.25,-9.15 L 0.25 -9.15 0.25 9.15 -0.25 9.15 z" class="primitive"/>
              </g>
              <g transform="translate(63.01,76.13)" id="img-fd3fb1e1-114">
                <path d="M-0.25,-12.2 L 0.25 -12.2 0.25 12.2 -0.25 12.2 z" class="primitive"/>
              </g>
              <g transform="translate(63.46,78.16)" id="img-fd3fb1e1-115">
                <path d="M-0.25,-10.17 L 0.25 -10.17 0.25 10.17 -0.25 10.17 z" class="primitive"/>
              </g>
              <g transform="translate(63.91,82.23)" id="img-fd3fb1e1-116">
                <path d="M-0.25,-6.1 L 0.25 -6.1 0.25 6.1 -0.25 6.1 z" class="primitive"/>
              </g>
              <g transform="translate(64.36,84.26)" id="img-fd3fb1e1-117">
                <path d="M-0.25,-4.07 L 0.25 -4.07 0.25 4.07 -0.25 4.07 z" class="primitive"/>
              </g>
              <g transform="translate(64.81,78.16)" id="img-fd3fb1e1-118">
                <path d="M-0.25,-10.17 L 0.25 -10.17 0.25 10.17 -0.25 10.17 z" class="primitive"/>
              </g>
              <g transform="translate(65.26,83.24)" id="img-fd3fb1e1-119">
                <path d="M-0.25,-5.08 L 0.25 -5.08 0.25 5.08 -0.25 5.08 z" class="primitive"/>
              </g>
              <g transform="translate(65.71,86.29)" id="img-fd3fb1e1-120">
                <path d="M-0.25,-2.03 L 0.25 -2.03 0.25 2.03 -0.25 2.03 z" class="primitive"/>
              </g>
              <g transform="translate(66.16,83.24)" id="img-fd3fb1e1-121">
                <path d="M-0.25,-5.08 L 0.25 -5.08 0.25 5.08 -0.25 5.08 z" class="primitive"/>
              </g>
              <g transform="translate(66.61,85.28)" id="img-fd3fb1e1-122">
                <path d="M-0.25,-3.05 L 0.25 -3.05 0.25 3.05 -0.25 3.05 z" class="primitive"/>
              </g>
              <g transform="translate(67.06,87.31)" id="img-fd3fb1e1-123">
                <path d="M-0.25,-1.02 L 0.25 -1.02 0.25 1.02 -0.25 1.02 z" class="primitive"/>
              </g>
              <g transform="translate(67.51,86.29)" id="img-fd3fb1e1-124">
                <path d="M-0.25,-2.03 L 0.25 -2.03 0.25 2.03 -0.25 2.03 z" class="primitive"/>
              </g>
              <g transform="translate(67.96,86.29)" id="img-fd3fb1e1-125">
                <path d="M-0.25,-2.03 L 0.25 -2.03 0.25 2.03 -0.25 2.03 z" class="primitive"/>
              </g>
              <g transform="translate(68.41,87.31)" id="img-fd3fb1e1-126">
                <path d="M-0.25,-1.02 L 0.25 -1.02 0.25 1.02 -0.25 1.02 z" class="primitive"/>
              </g>
              <g transform="translate(68.86,86.29)" id="img-fd3fb1e1-127">
                <path d="M-0.25,-2.03 L 0.25 -2.03 0.25 2.03 -0.25 2.03 z" class="primitive"/>
              </g>
              <g transform="translate(69.31,88.33)" id="img-fd3fb1e1-128">
                <path d="M-0.25,-0 L 0.25 -0 0.25 0 -0.25 0 z" class="primitive"/>
              </g>
              <g transform="translate(69.76,85.28)" id="img-fd3fb1e1-129">
                <path d="M-0.25,-3.05 L 0.25 -3.05 0.25 3.05 -0.25 3.05 z" class="primitive"/>
              </g>
              <g transform="translate(70.22,87.31)" id="img-fd3fb1e1-130">
                <path d="M-0.25,-1.02 L 0.25 -1.02 0.25 1.02 -0.25 1.02 z" class="primitive"/>
              </g>
            </g>
          </g>
        </g>
      </g>
    </g>
  </g>
  <g class="guide ylabels" font-size="2.82" font-family="'PT Sans Caption','Helvetica Neue','Helvetica',sans-serif" fill="#6C606B" id="img-fd3fb1e1-131">
    <g transform="translate(16.96,88.33)" id="img-fd3fb1e1-132">
      <g class="primitive">
        <text text-anchor="end" dy="0.35em">0</text>
      </g>
    </g>
    <g transform="translate(16.96,68)" id="img-fd3fb1e1-133">
      <g class="primitive">
        <text text-anchor="end" dy="0.35em">10</text>
      </g>
    </g>
    <g transform="translate(16.96,47.66)" id="img-fd3fb1e1-134">
      <g class="primitive">
        <text text-anchor="end" dy="0.35em">20</text>
      </g>
    </g>
    <g transform="translate(16.96,27.33)" id="img-fd3fb1e1-135">
      <g class="primitive">
        <text text-anchor="end" dy="0.35em">30</text>
      </g>
    </g>
    <g transform="translate(16.96,7)" id="img-fd3fb1e1-136">
      <g class="primitive">
        <text text-anchor="end" dy="0.35em">40</text>
      </g>
    </g>
  </g>
  <g font-size="3.88" font-family="'PT Sans','Helvetica Neue','Helvetica',sans-serif" fill="#564A55" stroke="#000000" stroke-opacity="0.000" id="img-fd3fb1e1-137">
    <g transform="translate(8.81,45.66)" id="img-fd3fb1e1-138">
      <g class="primitive">
        <text text-anchor="middle" dy="0.35em" transform="rotate(-90,0, 2)">frequency</text>
      </g>
    </g>
  </g>
</g>
<defs>
  <clipPath id="img-fd3fb1e1-11">
    <path d="M17.96,5 L 82.97 5 82.97 90.33 17.96 90.33" />
  </clipPath>
</defs>
</svg>
