<?xml version="1.0" encoding="UTF-8"?>
<svg xmlns="http://www.w3.org/2000/svg"
     xmlns:xlink="http://www.w3.org/1999/xlink"
     xmlns:gadfly="http://www.gadflyjl.org/ns"
     version="1.2"
     width="141.42mm" height="100mm" viewBox="0 0 141.42 100"
     stroke="none"
     fill="#000000"
     stroke-width="0.3"
     font-size="3.88"
>
<defs>
  <marker id="arrow" markerWidth="15" markerHeight="7" refX="5" refY="3.5" orient="auto" markerUnits="strokeWidth">
    <path d="M0,0 L15,3.5 L0,7 z" stroke="context-stroke" fill="context-stroke"/>
  </marker>
</defs>
<g class="plotroot xscalable yscalable" id="img-620db56b-1">
  <g class="guide xlabels" font-size="2.82" font-family="'PT Sans Caption','Helvetica Neue','Helvetica',sans-serif" fill="#6C606B" id="img-620db56b-2">
    <g transform="translate(18.29,91.33)">
      <g class="primitive">
        <text text-anchor="middle" dy="0.6em">16.8</text>
      </g>
    </g>
    <g transform="translate(34.33,91.33)">
      <g class="primitive">
        <text text-anchor="middle" dy="0.6em">17.0</text>
      </g>
    </g>
    <g transform="translate(50.37,91.33)">
      <g class="primitive">
        <text text-anchor="middle" dy="0.6em">17.2</text>
      </g>
    </g>
    <g transform="translate(66.41,91.33)">
      <g class="primitive">
        <text text-anchor="middle" dy="0.6em">17.4</text>
      </g>
    </g>
    <g transform="translate(82.45,91.33)">
      <g class="primitive">
        <text text-anchor="middle" dy="0.6em">17.6</text>
      </g>
    </g>
  </g>
  <g class="guide colorkey" id="img-620db56b-3">
    <g class="color_coding_coding_coding_noncoding_4-tail" id="img-620db56b-4">
      <g fill="#4C404B" font-size="2.82" font-family="'PT Sans','Helvetica Neue','Helvetica',sans-serif" id="img-620db56b-5">
        <g transform="translate(88.27,49.48)" id="img-620db56b-6">
          <g class="primitive">
            <text dy="0.35em">coding_coding_coding_noncoding_4-tail</text>
          </g>
        </g>
      </g>
      <g fill-opacity="1" fill="#00BFFF" stroke="#FFFFFF" id="img-620db56b-7">
        <g transform="translate(86.36,49.48)" id="img-620db56b-8">
          <path d="M-0.91,-0.91 L 0.91 -0.91 0.91 0.91 -0.91 0.91 z" class="primitive"/>
        </g>
      </g>
    </g>
    <g fill="#362A35" font-size="3.88" font-family="'PT Sans','Helvetica Neue','Helvetica',sans-serif" stroke="#000000" stroke-opacity="0.000" id="img-620db56b-9">
      <g transform="translate(85.45,45.66)" id="img-620db56b-10">
        <g class="primitive">
          <text dy="-0em">graphlet</text>
        </g>
      </g>
    </g>
  </g>
  <g clip-path="url(#img-620db56b-11)">
    <g id="img-620db56b-12">
      <g pointer-events="visible" stroke-width="0.3" fill="#000000" fill-opacity="0.000" stroke="#000000" stroke-opacity="0.000" class="guide background" id="img-620db56b-13">
        <g transform="translate(50.37,47.66)" id="img-620db56b-14">
          <path d="M-34.08,-42.66 L 34.08 -42.66 34.08 42.66 -34.08 42.66 z" class="primitive"/>
        </g>
      </g>
      <g class="guide ygridlines xfixed" stroke-dasharray="0.5,0.5" stroke-width="0.2" stroke="#D0D0E0" id="img-620db56b-15">
        <g transform="translate(50.37,88.33)" id="img-620db56b-16">
          <path fill="none" d="M-34.08,0 L 34.08 0" class="primitive"/>
        </g>
        <g transform="translate(50.37,68)" id="img-620db56b-17">
          <path fill="none" d="M-34.08,0 L 34.08 0" class="primitive"/>
        </g>
        <g transform="translate(50.37,47.66)" id="img-620db56b-18">
          <path fill="none" d="M-34.08,0 L 34.08 0" class="primitive"/>
        </g>
        <g transform="translate(50.37,27.33)" id="img-620db56b-19">
          <path fill="none" d="M-34.08,0 L 34.08 0" class="primitive"/>
        </g>
        <g transform="translate(50.37,7)" id="img-620db56b-20">
          <path fill="none" d="M-34.08,0 L 34.08 0" class="primitive"/>
        </g>
      </g>
      <g class="guide xgridlines yfixed" stroke-dasharray="0.5,0.5" stroke-width="0.2" stroke="#D0D0E0" id="img-620db56b-21">
        <g transform="translate(18.29,47.66)" id="img-620db56b-22">
          <path fill="none" d="M0,-42.66 L 0 42.66" class="primitive"/>
        </g>
        <g transform="translate(34.33,47.66)" id="img-620db56b-23">
          <path fill="none" d="M0,-42.66 L 0 42.66" class="primitive"/>
        </g>
        <g transform="translate(50.37,47.66)" id="img-620db56b-24">
          <path fill="none" d="M0,-42.66 L 0 42.66" class="primitive"/>
        </g>
        <g transform="translate(66.41,47.66)" id="img-620db56b-25">
          <path fill="none" d="M0,-42.66 L 0 42.66" class="primitive"/>
        </g>
        <g transform="translate(82.45,47.66)" id="img-620db56b-26">
          <path fill="none" d="M0,-42.66 L 0 42.66" class="primitive"/>
        </g>
      </g>
      <g class="plotpanel" id="img-620db56b-27">
        <metadata>
          <boundingbox value="16.284999999999997mm 5.0mm 68.16968957064284mm 85.32666666666667mm"/>
          <unitbox value="16.77506610970529 4.098368718747438 0.8498677805894206 -4.1967374374948765"/>
        </metadata>
        <g shape-rendering="crispEdges" stroke-width="0.3" id="img-620db56b-28">
          <g stroke="#000000" stroke-opacity="0.000" class="geometry" id="img-620db56b-29">
            <g fill="#00BFFF" id="img-620db56b-30">
              <g transform="translate(29.55,78.16)" id="img-620db56b-31">
                <path d="M-0.26,-10.17 L 0.26 -10.17 0.26 10.17 -0.26 10.17 z" class="primitive"/>
              </g>
              <g transform="translate(30.03,88.33)" id="img-620db56b-32">
                <path d="M-0.26,-0 L 0.26 -0 0.26 0 -0.26 0 z" class="primitive"/>
              </g>
              <g transform="translate(30.51,88.33)" id="img-620db56b-33">
                <path d="M-0.26,-0 L 0.26 -0 0.26 0 -0.26 0 z" class="primitive"/>
              </g>
              <g transform="translate(30.99,88.33)" id="img-620db56b-34">
                <path d="M-0.26,-0 L 0.26 -0 0.26 0 -0.26 0 z" class="primitive"/>
              </g>
              <g transform="translate(31.46,88.33)" id="img-620db56b-35">
                <path d="M-0.26,-0 L 0.26 -0 0.26 0 -0.26 0 z" class="primitive"/>
              </g>
              <g transform="translate(31.94,88.33)" id="img-620db56b-36">
                <path d="M-0.26,-0 L 0.26 -0 0.26 0 -0.26 0 z" class="primitive"/>
              </g>
              <g transform="translate(32.42,88.33)" id="img-620db56b-37">
                <path d="M-0.26,-0 L 0.26 -0 0.26 0 -0.26 0 z" class="primitive"/>
              </g>
              <g transform="translate(32.9,88.33)" id="img-620db56b-38">
                <path d="M-0.26,-0 L 0.26 -0 0.26 0 -0.26 0 z" class="primitive"/>
              </g>
              <g transform="translate(33.37,88.33)" id="img-620db56b-39">
                <path d="M-0.26,-0 L 0.26 -0 0.26 0 -0.26 0 z" class="primitive"/>
              </g>
              <g transform="translate(33.85,88.33)" id="img-620db56b-40">
                <path d="M-0.26,-0 L 0.26 -0 0.26 0 -0.26 0 z" class="primitive"/>
              </g>
              <g transform="translate(34.33,88.33)" id="img-620db56b-41">
                <path d="M-0.26,-0 L 0.26 -0 0.26 0 -0.26 0 z" class="primitive"/>
              </g>
              <g transform="translate(34.81,78.16)" id="img-620db56b-42">
                <path d="M-0.26,-10.17 L 0.26 -10.17 0.26 10.17 -0.26 10.17 z" class="primitive"/>
              </g>
              <g transform="translate(35.29,78.16)" id="img-620db56b-43">
                <path d="M-0.26,-10.17 L 0.26 -10.17 0.26 10.17 -0.26 10.17 z" class="primitive"/>
              </g>
              <g transform="translate(35.76,88.33)" id="img-620db56b-44">
                <path d="M-0.26,-0 L 0.26 -0 0.26 0 -0.26 0 z" class="primitive"/>
              </g>
              <g transform="translate(36.24,88.33)" id="img-620db56b-45">
                <path d="M-0.26,-0 L 0.26 -0 0.26 0 -0.26 0 z" class="primitive"/>
              </g>
              <g transform="translate(36.72,88.33)" id="img-620db56b-46">
                <path d="M-0.26,-0 L 0.26 -0 0.26 0 -0.26 0 z" class="primitive"/>
              </g>
              <g transform="translate(37.2,78.16)" id="img-620db56b-47">
                <path d="M-0.26,-10.17 L 0.26 -10.17 0.26 10.17 -0.26 10.17 z" class="primitive"/>
              </g>
              <g transform="translate(37.68,88.33)" id="img-620db56b-48">
                <path d="M-0.26,-0 L 0.26 -0 0.26 0 -0.26 0 z" class="primitive"/>
              </g>
              <g transform="translate(38.15,78.16)" id="img-620db56b-49">
                <path d="M-0.26,-10.17 L 0.26 -10.17 0.26 10.17 -0.26 10.17 z" class="primitive"/>
              </g>
              <g transform="translate(38.63,88.33)" id="img-620db56b-50">
                <path d="M-0.26,-0 L 0.26 -0 0.26 0 -0.26 0 z" class="primitive"/>
              </g>
              <g transform="translate(39.11,78.16)" id="img-620db56b-51">
                <path d="M-0.26,-10.17 L 0.26 -10.17 0.26 10.17 -0.26 10.17 z" class="primitive"/>
              </g>
              <g transform="translate(39.59,88.33)" id="img-620db56b-52">
                <path d="M-0.26,-0 L 0.26 -0 0.26 0 -0.26 0 z" class="primitive"/>
              </g>
              <g transform="translate(40.07,78.16)" id="img-620db56b-53">
                <path d="M-0.26,-10.17 L 0.26 -10.17 0.26 10.17 -0.26 10.17 z" class="primitive"/>
              </g>
              <g transform="translate(40.54,88.33)" id="img-620db56b-54">
                <path d="M-0.26,-0 L 0.26 -0 0.26 0 -0.26 0 z" class="primitive"/>
              </g>
              <g transform="translate(41.02,78.16)" id="img-620db56b-55">
                <path d="M-0.26,-10.17 L 0.26 -10.17 0.26 10.17 -0.26 10.17 z" class="primitive"/>
              </g>
              <g transform="translate(41.5,78.16)" id="img-620db56b-56">
                <path d="M-0.26,-10.17 L 0.26 -10.17 0.26 10.17 -0.26 10.17 z" class="primitive"/>
              </g>
              <g transform="translate(41.98,78.16)" id="img-620db56b-57">
                <path d="M-0.26,-10.17 L 0.26 -10.17 0.26 10.17 -0.26 10.17 z" class="primitive"/>
              </g>
              <g transform="translate(42.46,78.16)" id="img-620db56b-58">
                <path d="M-0.26,-10.17 L 0.26 -10.17 0.26 10.17 -0.26 10.17 z" class="primitive"/>
              </g>
              <g transform="translate(42.93,78.16)" id="img-620db56b-59">
                <path d="M-0.26,-10.17 L 0.26 -10.17 0.26 10.17 -0.26 10.17 z" class="primitive"/>
              </g>
              <g transform="translate(43.41,78.16)" id="img-620db56b-60">
                <path d="M-0.26,-10.17 L 0.26 -10.17 0.26 10.17 -0.26 10.17 z" class="primitive"/>
              </g>
              <g transform="translate(43.89,68)" id="img-620db56b-61">
                <path d="M-0.26,-20.33 L 0.26 -20.33 0.26 20.33 -0.26 20.33 z" class="primitive"/>
              </g>
              <g transform="translate(44.37,88.33)" id="img-620db56b-62">
                <path d="M-0.26,-0 L 0.26 -0 0.26 0 -0.26 0 z" class="primitive"/>
              </g>
              <g transform="translate(44.85,78.16)" id="img-620db56b-63">
                <path d="M-0.26,-10.17 L 0.26 -10.17 0.26 10.17 -0.26 10.17 z" class="primitive"/>
              </g>
              <g transform="translate(45.32,88.33)" id="img-620db56b-64">
                <path d="M-0.26,-0 L 0.26 -0 0.26 0 -0.26 0 z" class="primitive"/>
              </g>
              <g transform="translate(45.8,78.16)" id="img-620db56b-65">
                <path d="M-0.26,-10.17 L 0.26 -10.17 0.26 10.17 -0.26 10.17 z" class="primitive"/>
              </g>
              <g transform="translate(46.28,57.83)" id="img-620db56b-66">
                <path d="M-0.26,-30.5 L 0.26 -30.5 0.26 30.5 -0.26 30.5 z" class="primitive"/>
              </g>
              <g transform="translate(46.76,88.33)" id="img-620db56b-67">
                <path d="M-0.26,-0 L 0.26 -0 0.26 0 -0.26 0 z" class="primitive"/>
              </g>
              <g transform="translate(47.23,68)" id="img-620db56b-68">
                <path d="M-0.26,-20.33 L 0.26 -20.33 0.26 20.33 -0.26 20.33 z" class="primitive"/>
              </g>
              <g transform="translate(47.71,68)" id="img-620db56b-69">
                <path d="M-0.26,-20.33 L 0.26 -20.33 0.26 20.33 -0.26 20.33 z" class="primitive"/>
              </g>
              <g transform="translate(48.19,78.16)" id="img-620db56b-70">
                <path d="M-0.26,-10.17 L 0.26 -10.17 0.26 10.17 -0.26 10.17 z" class="primitive"/>
              </g>
              <g transform="translate(48.67,68)" id="img-620db56b-71">
                <path d="M-0.26,-20.33 L 0.26 -20.33 0.26 20.33 -0.26 20.33 z" class="primitive"/>
              </g>
              <g transform="translate(49.15,78.16)" id="img-620db56b-72">
                <path d="M-0.26,-10.17 L 0.26 -10.17 0.26 10.17 -0.26 10.17 z" class="primitive"/>
              </g>
              <g transform="translate(49.62,68)" id="img-620db56b-73">
                <path d="M-0.26,-20.33 L 0.26 -20.33 0.26 20.33 -0.26 20.33 z" class="primitive"/>
              </g>
              <g transform="translate(50.1,57.83)" id="img-620db56b-74">
                <path d="M-0.26,-30.5 L 0.26 -30.5 0.26 30.5 -0.26 30.5 z" class="primitive"/>
              </g>
              <g transform="translate(50.58,68)" id="img-620db56b-75">
                <path d="M-0.26,-20.33 L 0.26 -20.33 0.26 20.33 -0.26 20.33 z" class="primitive"/>
              </g>
              <g transform="translate(51.06,68)" id="img-620db56b-76">
                <path d="M-0.26,-20.33 L 0.26 -20.33 0.26 20.33 -0.26 20.33 z" class="primitive"/>
              </g>
              <g transform="translate(51.54,47.66)" id="img-620db56b-77">
                <path d="M-0.26,-40.66 L 0.26 -40.66 0.26 40.66 -0.26 40.66 z" class="primitive"/>
              </g>
              <g transform="translate(52.01,47.66)" id="img-620db56b-78">
                <path d="M-0.26,-40.66 L 0.26 -40.66 0.26 40.66 -0.26 40.66 z" class="primitive"/>
              </g>
              <g transform="translate(52.49,68)" id="img-620db56b-79">
                <path d="M-0.26,-20.33 L 0.26 -20.33 0.26 20.33 -0.26 20.33 z" class="primitive"/>
              </g>
              <g transform="translate(52.97,78.16)" id="img-620db56b-80">
                <path d="M-0.26,-10.17 L 0.26 -10.17 0.26 10.17 -0.26 10.17 z" class="primitive"/>
              </g>
              <g transform="translate(53.45,88.33)" id="img-620db56b-81">
                <path d="M-0.26,-0 L 0.26 -0 0.26 0 -0.26 0 z" class="primitive"/>
              </g>
              <g transform="translate(53.93,68)" id="img-620db56b-82">
                <path d="M-0.26,-20.33 L 0.26 -20.33 0.26 20.33 -0.26 20.33 z" class="primitive"/>
              </g>
              <g transform="translate(54.4,78.16)" id="img-620db56b-83">
                <path d="M-0.26,-10.17 L 0.26 -10.17 0.26 10.17 -0.26 10.17 z" class="primitive"/>
              </g>
              <g transform="translate(54.88,78.16)" id="img-620db56b-84">
                <path d="M-0.26,-10.17 L 0.26 -10.17 0.26 10.17 -0.26 10.17 z" class="primitive"/>
              </g>
              <g transform="translate(55.36,88.33)" id="img-620db56b-85">
                <path d="M-0.26,-0 L 0.26 -0 0.26 0 -0.26 0 z" class="primitive"/>
              </g>
              <g transform="translate(55.84,57.83)" id="img-620db56b-86">
                <path d="M-0.26,-30.5 L 0.26 -30.5 0.26 30.5 -0.26 30.5 z" class="primitive"/>
              </g>
              <g transform="translate(56.32,78.16)" id="img-620db56b-87">
                <path d="M-0.26,-10.17 L 0.26 -10.17 0.26 10.17 -0.26 10.17 z" class="primitive"/>
              </g>
              <g transform="translate(56.79,68)" id="img-620db56b-88">
                <path d="M-0.26,-20.33 L 0.26 -20.33 0.26 20.33 -0.26 20.33 z" class="primitive"/>
              </g>
              <g transform="translate(57.27,68)" id="img-620db56b-89">
                <path d="M-0.26,-20.33 L 0.26 -20.33 0.26 20.33 -0.26 20.33 z" class="primitive"/>
              </g>
              <g transform="translate(57.75,57.83)" id="img-620db56b-90">
                <path d="M-0.26,-30.5 L 0.26 -30.5 0.26 30.5 -0.26 30.5 z" class="primitive"/>
              </g>
              <g transform="translate(58.23,78.16)" id="img-620db56b-91">
                <path d="M-0.26,-10.17 L 0.26 -10.17 0.26 10.17 -0.26 10.17 z" class="primitive"/>
              </g>
              <g transform="translate(58.7,78.16)" id="img-620db56b-92">
                <path d="M-0.26,-10.17 L 0.26 -10.17 0.26 10.17 -0.26 10.17 z" class="primitive"/>
              </g>
              <g transform="translate(59.18,68)" id="img-620db56b-93">
                <path d="M-0.26,-20.33 L 0.26 -20.33 0.26 20.33 -0.26 20.33 z" class="primitive"/>
              </g>
              <g transform="translate(59.66,88.33)" id="img-620db56b-94">
                <path d="M-0.26,-0 L 0.26 -0 0.26 0 -0.26 0 z" class="primitive"/>
              </g>
              <g transform="translate(60.14,68)" id="img-620db56b-95">
                <path d="M-0.26,-20.33 L 0.26 -20.33 0.26 20.33 -0.26 20.33 z" class="primitive"/>
              </g>
              <g transform="translate(60.62,78.16)" id="img-620db56b-96">
                <path d="M-0.26,-10.17 L 0.26 -10.17 0.26 10.17 -0.26 10.17 z" class="primitive"/>
              </g>
              <g transform="translate(61.09,47.66)" id="img-620db56b-97">
                <path d="M-0.26,-40.66 L 0.26 -40.66 0.26 40.66 -0.26 40.66 z" class="primitive"/>
              </g>
              <g transform="translate(61.57,68)" id="img-620db56b-98">
                <path d="M-0.26,-20.33 L 0.26 -20.33 0.26 20.33 -0.26 20.33 z" class="primitive"/>
              </g>
              <g transform="translate(62.05,78.16)" id="img-620db56b-99">
                <path d="M-0.26,-10.17 L 0.26 -10.17 0.26 10.17 -0.26 10.17 z" class="primitive"/>
              </g>
              <g transform="translate(62.53,78.16)" id="img-620db56b-100">
                <path d="M-0.26,-10.17 L 0.26 -10.17 0.26 10.17 -0.26 10.17 z" class="primitive"/>
              </g>
              <g transform="translate(63.01,78.16)" id="img-620db56b-101">
                <path d="M-0.26,-10.17 L 0.26 -10.17 0.26 10.17 -0.26 10.17 z" class="primitive"/>
              </g>
              <g transform="translate(63.48,78.16)" id="img-620db56b-102">
                <path d="M-0.26,-10.17 L 0.26 -10.17 0.26 10.17 -0.26 10.17 z" class="primitive"/>
              </g>
              <g transform="translate(63.96,78.16)" id="img-620db56b-103">
                <path d="M-0.26,-10.17 L 0.26 -10.17 0.26 10.17 -0.26 10.17 z" class="primitive"/>
              </g>
              <g transform="translate(64.44,47.66)" id="img-620db56b-104">
                <path d="M-0.26,-40.66 L 0.26 -40.66 0.26 40.66 -0.26 40.66 z" class="primitive"/>
              </g>
              <g transform="translate(64.92,78.16)" id="img-620db56b-105">
                <path d="M-0.26,-10.17 L 0.26 -10.17 0.26 10.17 -0.26 10.17 z" class="primitive"/>
              </g>
              <g transform="translate(65.4,68)" id="img-620db56b-106">
                <path d="M-0.26,-20.33 L 0.26 -20.33 0.26 20.33 -0.26 20.33 z" class="primitive"/>
              </g>
              <g transform="translate(65.87,88.33)" id="img-620db56b-107">
                <path d="M-0.26,-0 L 0.26 -0 0.26 0 -0.26 0 z" class="primitive"/>
              </g>
              <g transform="translate(66.35,88.33)" id="img-620db56b-108">
                <path d="M-0.26,-0 L 0.26 -0 0.26 0 -0.26 0 z" class="primitive"/>
              </g>
              <g transform="translate(66.83,78.16)" id="img-620db56b-109">
                <path d="M-0.26,-10.17 L 0.26 -10.17 0.26 10.17 -0.26 10.17 z" class="primitive"/>
              </g>
              <g transform="translate(67.31,88.33)" id="img-620db56b-110">
                <path d="M-0.26,-0 L 0.26 -0 0.26 0 -0.26 0 z" class="primitive"/>
              </g>
              <g transform="translate(67.79,88.33)" id="img-620db56b-111">
                <path d="M-0.26,-0 L 0.26 -0 0.26 0 -0.26 0 z" class="primitive"/>
              </g>
              <g transform="translate(68.26,88.33)" id="img-620db56b-112">
                <path d="M-0.26,-0 L 0.26 -0 0.26 0 -0.26 0 z" class="primitive"/>
              </g>
              <g transform="translate(68.74,78.16)" id="img-620db56b-113">
                <path d="M-0.26,-10.17 L 0.26 -10.17 0.26 10.17 -0.26 10.17 z" class="primitive"/>
              </g>
              <g transform="translate(69.22,88.33)" id="img-620db56b-114">
                <path d="M-0.26,-0 L 0.26 -0 0.26 0 -0.26 0 z" class="primitive"/>
              </g>
              <g transform="translate(69.7,78.16)" id="img-620db56b-115">
                <path d="M-0.26,-10.17 L 0.26 -10.17 0.26 10.17 -0.26 10.17 z" class="primitive"/>
              </g>
              <g transform="translate(70.18,88.33)" id="img-620db56b-116">
                <path d="M-0.26,-0 L 0.26 -0 0.26 0 -0.26 0 z" class="primitive"/>
              </g>
              <g transform="translate(70.65,88.33)" id="img-620db56b-117">
                <path d="M-0.26,-0 L 0.26 -0 0.26 0 -0.26 0 z" class="primitive"/>
              </g>
              <g transform="translate(71.13,68)" id="img-620db56b-118">
                <path d="M-0.26,-20.33 L 0.26 -20.33 0.26 20.33 -0.26 20.33 z" class="primitive"/>
              </g>
              <g transform="translate(71.61,78.16)" id="img-620db56b-119">
                <path d="M-0.26,-10.17 L 0.26 -10.17 0.26 10.17 -0.26 10.17 z" class="primitive"/>
              </g>
              <g transform="translate(72.09,88.33)" id="img-620db56b-120">
                <path d="M-0.26,-0 L 0.26 -0 0.26 0 -0.26 0 z" class="primitive"/>
              </g>
              <g transform="translate(72.56,78.16)" id="img-620db56b-121">
                <path d="M-0.26,-10.17 L 0.26 -10.17 0.26 10.17 -0.26 10.17 z" class="primitive"/>
              </g>
              <g transform="translate(73.04,78.16)" id="img-620db56b-122">
                <path d="M-0.26,-10.17 L 0.26 -10.17 0.26 10.17 -0.26 10.17 z" class="primitive"/>
              </g>
              <g transform="translate(73.52,78.16)" id="img-620db56b-123">
                <path d="M-0.26,-10.17 L 0.26 -10.17 0.26 10.17 -0.26 10.17 z" class="primitive"/>
              </g>
              <g transform="translate(74,78.16)" id="img-620db56b-124">
                <path d="M-0.26,-10.17 L 0.26 -10.17 0.26 10.17 -0.26 10.17 z" class="primitive"/>
              </g>
              <g transform="translate(74.48,88.33)" id="img-620db56b-125">
                <path d="M-0.26,-0 L 0.26 -0 0.26 0 -0.26 0 z" class="primitive"/>
              </g>
              <g transform="translate(74.95,88.33)" id="img-620db56b-126">
                <path d="M-0.26,-0 L 0.26 -0 0.26 0 -0.26 0 z" class="primitive"/>
              </g>
              <g transform="translate(75.43,78.16)" id="img-620db56b-127">
                <path d="M-0.26,-10.17 L 0.26 -10.17 0.26 10.17 -0.26 10.17 z" class="primitive"/>
              </g>
              <g transform="translate(75.91,88.33)" id="img-620db56b-128">
                <path d="M-0.26,-0 L 0.26 -0 0.26 0 -0.26 0 z" class="primitive"/>
              </g>
              <g transform="translate(76.39,88.33)" id="img-620db56b-129">
                <path d="M-0.26,-0 L 0.26 -0 0.26 0 -0.26 0 z" class="primitive"/>
              </g>
              <g transform="translate(76.87,78.16)" id="img-620db56b-130">
                <path d="M-0.26,-10.17 L 0.26 -10.17 0.26 10.17 -0.26 10.17 z" class="primitive"/>
              </g>
            </g>
          </g>
        </g>
      </g>
    </g>
  </g>
  <g class="guide ylabels" font-size="2.82" font-family="'PT Sans Caption','Helvetica Neue','Helvetica',sans-serif" fill="#6C606B" id="img-620db56b-131">
    <g transform="translate(15.28,88.33)" id="img-620db56b-132">
      <g class="primitive">
        <text text-anchor="end" dy="0.35em">0</text>
      </g>
    </g>
    <g transform="translate(15.28,68)" id="img-620db56b-133">
      <g class="primitive">
        <text text-anchor="end" dy="0.35em">1</text>
      </g>
    </g>
    <g transform="translate(15.28,47.66)" id="img-620db56b-134">
      <g class="primitive">
        <text text-anchor="end" dy="0.35em">2</text>
      </g>
    </g>
    <g transform="translate(15.28,27.33)" id="img-620db56b-135">
      <g class="primitive">
        <text text-anchor="end" dy="0.35em">3</text>
      </g>
    </g>
    <g transform="translate(15.28,7)" id="img-620db56b-136">
      <g class="primitive">
        <text text-anchor="end" dy="0.35em">4</text>
      </g>
    </g>
  </g>
  <g font-size="3.88" font-family="'PT Sans','Helvetica Neue','Helvetica',sans-serif" fill="#564A55" stroke="#000000" stroke-opacity="0.000" id="img-620db56b-137">
    <g transform="translate(8.81,45.66)" id="img-620db56b-138">
      <g class="primitive">
        <text text-anchor="middle" dy="0.35em" transform="rotate(-90,0, 2)">frequency</text>
      </g>
    </g>
  </g>
</g>
<defs>
  <clipPath id="img-620db56b-11">
    <path d="M16.28,5 L 84.45 5 84.45 90.33 16.28 90.33" />
  </clipPath>
</defs>
</svg>
