<?xml version="1.0" encoding="UTF-8"?>
<svg xmlns="http://www.w3.org/2000/svg"
     xmlns:xlink="http://www.w3.org/1999/xlink"
     xmlns:gadfly="http://www.gadflyjl.org/ns"
     version="1.2"
     width="141.42mm" height="100mm" viewBox="0 0 141.42 100"
     stroke="none"
     fill="#000000"
     stroke-width="0.3"
     font-size="3.88"
>
<defs>
  <marker id="arrow" markerWidth="15" markerHeight="7" refX="5" refY="3.5" orient="auto" markerUnits="strokeWidth">
    <path d="M0,0 L15,3.5 L0,7 z" stroke="context-stroke" fill="context-stroke"/>
  </marker>
</defs>
<g class="plotroot xscalable yscalable" id="img-623f6cbf-1">
  <g class="guide xlabels" font-size="2.82" font-family="'PT Sans Caption','Helvetica Neue','Helvetica',sans-serif" fill="#6C606B" id="img-623f6cbf-2">
    <g transform="translate(19.96,91.33)">
      <g class="primitive">
        <text text-anchor="middle" dy="0.6em">12.8</text>
      </g>
    </g>
    <g transform="translate(35.44,91.33)">
      <g class="primitive">
        <text text-anchor="middle" dy="0.6em">13.0</text>
      </g>
    </g>
    <g transform="translate(50.92,91.33)">
      <g class="primitive">
        <text text-anchor="middle" dy="0.6em">13.2</text>
      </g>
    </g>
    <g transform="translate(66.41,91.33)">
      <g class="primitive">
        <text text-anchor="middle" dy="0.6em">13.4</text>
      </g>
    </g>
    <g transform="translate(81.89,91.33)">
      <g class="primitive">
        <text text-anchor="middle" dy="0.6em">13.6</text>
      </g>
    </g>
  </g>
  <g class="guide colorkey" id="img-623f6cbf-3">
    <g class="color_coding_coding_noncoding_coding_4-star" id="img-623f6cbf-4">
      <g fill="#4C404B" font-size="2.82" font-family="'PT Sans','Helvetica Neue','Helvetica',sans-serif" id="img-623f6cbf-5">
        <g transform="translate(87.7,49.48)" id="img-623f6cbf-6">
          <g class="primitive">
            <text dy="0.35em">coding_coding_noncoding_coding_4-star</text>
          </g>
        </g>
      </g>
      <g fill-opacity="1" fill="#00BFFF" stroke="#FFFFFF" id="img-623f6cbf-7">
        <g transform="translate(85.79,49.48)" id="img-623f6cbf-8">
          <path d="M-0.91,-0.91 L 0.91 -0.91 0.91 0.91 -0.91 0.91 z" class="primitive"/>
        </g>
      </g>
    </g>
    <g fill="#362A35" font-size="3.88" font-family="'PT Sans','Helvetica Neue','Helvetica',sans-serif" stroke="#000000" stroke-opacity="0.000" id="img-623f6cbf-9">
      <g transform="translate(84.89,45.66)" id="img-623f6cbf-10">
        <g class="primitive">
          <text dy="-0em">graphlet</text>
        </g>
      </g>
    </g>
  </g>
  <g clip-path="url(#img-623f6cbf-11)">
    <g id="img-623f6cbf-12">
      <g pointer-events="visible" stroke-width="0.3" fill="#000000" fill-opacity="0.000" stroke="#000000" stroke-opacity="0.000" class="guide background" id="img-623f6cbf-13">
        <g transform="translate(50.92,47.66)" id="img-623f6cbf-14">
          <path d="M-32.96,-42.66 L 32.96 -42.66 32.96 42.66 -32.96 42.66 z" class="primitive"/>
        </g>
      </g>
      <g class="guide ygridlines xfixed" stroke-dasharray="0.5,0.5" stroke-width="0.2" stroke="#D0D0E0" id="img-623f6cbf-15">
        <g transform="translate(50.92,88.33)" id="img-623f6cbf-16">
          <path fill="none" d="M-32.96,0 L 32.96 0" class="primitive"/>
        </g>
        <g transform="translate(50.92,68)" id="img-623f6cbf-17">
          <path fill="none" d="M-32.96,0 L 32.96 0" class="primitive"/>
        </g>
        <g transform="translate(50.92,47.66)" id="img-623f6cbf-18">
          <path fill="none" d="M-32.96,0 L 32.96 0" class="primitive"/>
        </g>
        <g transform="translate(50.92,27.33)" id="img-623f6cbf-19">
          <path fill="none" d="M-32.96,0 L 32.96 0" class="primitive"/>
        </g>
        <g transform="translate(50.92,7)" id="img-623f6cbf-20">
          <path fill="none" d="M-32.96,0 L 32.96 0" class="primitive"/>
        </g>
      </g>
      <g class="guide xgridlines yfixed" stroke-dasharray="0.5,0.5" stroke-width="0.2" stroke="#D0D0E0" id="img-623f6cbf-21">
        <g transform="translate(19.96,47.66)" id="img-623f6cbf-22">
          <path fill="none" d="M0,-42.66 L 0 42.66" class="primitive"/>
        </g>
        <g transform="translate(35.44,47.66)" id="img-623f6cbf-23">
          <path fill="none" d="M0,-42.66 L 0 42.66" class="primitive"/>
        </g>
        <g transform="translate(50.92,47.66)" id="img-623f6cbf-24">
          <path fill="none" d="M0,-42.66 L 0 42.66" class="primitive"/>
        </g>
        <g transform="translate(66.41,47.66)" id="img-623f6cbf-25">
          <path fill="none" d="M0,-42.66 L 0 42.66" class="primitive"/>
        </g>
        <g transform="translate(81.89,47.66)" id="img-623f6cbf-26">
          <path fill="none" d="M0,-42.66 L 0 42.66" class="primitive"/>
        </g>
      </g>
      <g class="plotpanel" id="img-623f6cbf-27">
        <metadata>
          <boundingbox value="17.95833333333333mm 5.0mm 65.92968957064284mm 85.32666666666667mm"/>
          <unitbox value="12.774164249633856 40.98368718747438 0.8516715007322914 -41.96737437494876"/>
        </metadata>
        <g shape-rendering="crispEdges" stroke-width="0.3" id="img-623f6cbf-28">
          <g stroke="#000000" stroke-opacity="0.000" class="geometry" id="img-623f6cbf-29">
            <g fill="#00BFFF" id="img-623f6cbf-30">
              <g transform="translate(27.52,86.29)" id="img-623f6cbf-31">
                <path d="M-0.27,-2.03 L 0.27 -2.03 0.27 2.03 -0.27 2.03 z" class="primitive"/>
              </g>
              <g transform="translate(28,88.33)" id="img-623f6cbf-32">
                <path d="M-0.27,-0 L 0.27 -0 0.27 0 -0.27 0 z" class="primitive"/>
              </g>
              <g transform="translate(28.48,88.33)" id="img-623f6cbf-33">
                <path d="M-0.27,-0 L 0.27 -0 0.27 0 -0.27 0 z" class="primitive"/>
              </g>
              <g transform="translate(28.96,88.33)" id="img-623f6cbf-34">
                <path d="M-0.27,-0 L 0.27 -0 0.27 0 -0.27 0 z" class="primitive"/>
              </g>
              <g transform="translate(29.44,86.29)" id="img-623f6cbf-35">
                <path d="M-0.27,-2.03 L 0.27 -2.03 0.27 2.03 -0.27 2.03 z" class="primitive"/>
              </g>
              <g transform="translate(29.92,88.33)" id="img-623f6cbf-36">
                <path d="M-0.27,-0 L 0.27 -0 0.27 0 -0.27 0 z" class="primitive"/>
              </g>
              <g transform="translate(30.41,87.31)" id="img-623f6cbf-37">
                <path d="M-0.27,-1.02 L 0.27 -1.02 0.27 1.02 -0.27 1.02 z" class="primitive"/>
              </g>
              <g transform="translate(30.89,87.31)" id="img-623f6cbf-38">
                <path d="M-0.27,-1.02 L 0.27 -1.02 0.27 1.02 -0.27 1.02 z" class="primitive"/>
              </g>
              <g transform="translate(31.37,88.33)" id="img-623f6cbf-39">
                <path d="M-0.27,-0 L 0.27 -0 0.27 0 -0.27 0 z" class="primitive"/>
              </g>
              <g transform="translate(31.85,88.33)" id="img-623f6cbf-40">
                <path d="M-0.27,-0 L 0.27 -0 0.27 0 -0.27 0 z" class="primitive"/>
              </g>
              <g transform="translate(32.33,88.33)" id="img-623f6cbf-41">
                <path d="M-0.27,-0 L 0.27 -0 0.27 0 -0.27 0 z" class="primitive"/>
              </g>
              <g transform="translate(32.81,88.33)" id="img-623f6cbf-42">
                <path d="M-0.27,-0 L 0.27 -0 0.27 0 -0.27 0 z" class="primitive"/>
              </g>
              <g transform="translate(33.29,88.33)" id="img-623f6cbf-43">
                <path d="M-0.27,-0 L 0.27 -0 0.27 0 -0.27 0 z" class="primitive"/>
              </g>
              <g transform="translate(33.77,88.33)" id="img-623f6cbf-44">
                <path d="M-0.27,-0 L 0.27 -0 0.27 0 -0.27 0 z" class="primitive"/>
              </g>
              <g transform="translate(34.25,88.33)" id="img-623f6cbf-45">
                <path d="M-0.27,-0 L 0.27 -0 0.27 0 -0.27 0 z" class="primitive"/>
              </g>
              <g transform="translate(34.73,85.28)" id="img-623f6cbf-46">
                <path d="M-0.27,-3.05 L 0.27 -3.05 0.27 3.05 -0.27 3.05 z" class="primitive"/>
              </g>
              <g transform="translate(35.21,86.29)" id="img-623f6cbf-47">
                <path d="M-0.27,-2.03 L 0.27 -2.03 0.27 2.03 -0.27 2.03 z" class="primitive"/>
              </g>
              <g transform="translate(35.7,88.33)" id="img-623f6cbf-48">
                <path d="M-0.27,-0 L 0.27 -0 0.27 0 -0.27 0 z" class="primitive"/>
              </g>
              <g transform="translate(36.18,82.23)" id="img-623f6cbf-49">
                <path d="M-0.27,-6.1 L 0.27 -6.1 0.27 6.1 -0.27 6.1 z" class="primitive"/>
              </g>
              <g transform="translate(36.66,86.29)" id="img-623f6cbf-50">
                <path d="M-0.27,-2.03 L 0.27 -2.03 0.27 2.03 -0.27 2.03 z" class="primitive"/>
              </g>
              <g transform="translate(37.14,86.29)" id="img-623f6cbf-51">
                <path d="M-0.27,-2.03 L 0.27 -2.03 0.27 2.03 -0.27 2.03 z" class="primitive"/>
              </g>
              <g transform="translate(37.62,85.28)" id="img-623f6cbf-52">
                <path d="M-0.27,-3.05 L 0.27 -3.05 0.27 3.05 -0.27 3.05 z" class="primitive"/>
              </g>
              <g transform="translate(38.1,85.28)" id="img-623f6cbf-53">
                <path d="M-0.27,-3.05 L 0.27 -3.05 0.27 3.05 -0.27 3.05 z" class="primitive"/>
              </g>
              <g transform="translate(38.58,86.29)" id="img-623f6cbf-54">
                <path d="M-0.27,-2.03 L 0.27 -2.03 0.27 2.03 -0.27 2.03 z" class="primitive"/>
              </g>
              <g transform="translate(39.06,88.33)" id="img-623f6cbf-55">
                <path d="M-0.27,-0 L 0.27 -0 0.27 0 -0.27 0 z" class="primitive"/>
              </g>
              <g transform="translate(39.54,81.21)" id="img-623f6cbf-56">
                <path d="M-0.27,-7.12 L 0.27 -7.12 0.27 7.12 -0.27 7.12 z" class="primitive"/>
              </g>
              <g transform="translate(40.02,83.24)" id="img-623f6cbf-57">
                <path d="M-0.27,-5.08 L 0.27 -5.08 0.27 5.08 -0.27 5.08 z" class="primitive"/>
              </g>
              <g transform="translate(40.51,79.18)" id="img-623f6cbf-58">
                <path d="M-0.27,-9.15 L 0.27 -9.15 0.27 9.15 -0.27 9.15 z" class="primitive"/>
              </g>
              <g transform="translate(40.99,84.26)" id="img-623f6cbf-59">
                <path d="M-0.27,-4.07 L 0.27 -4.07 0.27 4.07 -0.27 4.07 z" class="primitive"/>
              </g>
              <g transform="translate(41.47,85.28)" id="img-623f6cbf-60">
                <path d="M-0.27,-3.05 L 0.27 -3.05 0.27 3.05 -0.27 3.05 z" class="primitive"/>
              </g>
              <g transform="translate(41.95,76.13)" id="img-623f6cbf-61">
                <path d="M-0.27,-12.2 L 0.27 -12.2 0.27 12.2 -0.27 12.2 z" class="primitive"/>
              </g>
              <g transform="translate(42.43,84.26)" id="img-623f6cbf-62">
                <path d="M-0.27,-4.07 L 0.27 -4.07 0.27 4.07 -0.27 4.07 z" class="primitive"/>
              </g>
              <g transform="translate(42.91,72.06)" id="img-623f6cbf-63">
                <path d="M-0.27,-16.27 L 0.27 -16.27 0.27 16.27 -0.27 16.27 z" class="primitive"/>
              </g>
              <g transform="translate(43.39,80.19)" id="img-623f6cbf-64">
                <path d="M-0.27,-8.13 L 0.27 -8.13 0.27 8.13 -0.27 8.13 z" class="primitive"/>
              </g>
              <g transform="translate(43.87,78.16)" id="img-623f6cbf-65">
                <path d="M-0.27,-10.17 L 0.27 -10.17 0.27 10.17 -0.27 10.17 z" class="primitive"/>
              </g>
              <g transform="translate(44.35,73.08)" id="img-623f6cbf-66">
                <path d="M-0.27,-15.25 L 0.27 -15.25 0.27 15.25 -0.27 15.25 z" class="primitive"/>
              </g>
              <g transform="translate(44.83,78.16)" id="img-623f6cbf-67">
                <path d="M-0.27,-10.17 L 0.27 -10.17 0.27 10.17 -0.27 10.17 z" class="primitive"/>
              </g>
              <g transform="translate(45.31,69.01)" id="img-623f6cbf-68">
                <path d="M-0.27,-19.32 L 0.27 -19.32 0.27 19.32 -0.27 19.32 z" class="primitive"/>
              </g>
              <g transform="translate(45.8,75.11)" id="img-623f6cbf-69">
                <path d="M-0.27,-13.22 L 0.27 -13.22 0.27 13.22 -0.27 13.22 z" class="primitive"/>
              </g>
              <g transform="translate(46.28,69.01)" id="img-623f6cbf-70">
                <path d="M-0.27,-19.32 L 0.27 -19.32 0.27 19.32 -0.27 19.32 z" class="primitive"/>
              </g>
              <g transform="translate(46.76,71.04)" id="img-623f6cbf-71">
                <path d="M-0.27,-17.28 L 0.27 -17.28 0.27 17.28 -0.27 17.28 z" class="primitive"/>
              </g>
              <g transform="translate(47.24,72.06)" id="img-623f6cbf-72">
                <path d="M-0.27,-16.27 L 0.27 -16.27 0.27 16.27 -0.27 16.27 z" class="primitive"/>
              </g>
              <g transform="translate(47.72,68)" id="img-623f6cbf-73">
                <path d="M-0.27,-20.33 L 0.27 -20.33 0.27 20.33 -0.27 20.33 z" class="primitive"/>
              </g>
              <g transform="translate(48.2,69.01)" id="img-623f6cbf-74">
                <path d="M-0.27,-19.32 L 0.27 -19.32 0.27 19.32 -0.27 19.32 z" class="primitive"/>
              </g>
              <g transform="translate(48.68,61.9)" id="img-623f6cbf-75">
                <path d="M-0.27,-26.43 L 0.27 -26.43 0.27 26.43 -0.27 26.43 z" class="primitive"/>
              </g>
              <g transform="translate(49.16,70.03)" id="img-623f6cbf-76">
                <path d="M-0.27,-18.3 L 0.27 -18.3 0.27 18.3 -0.27 18.3 z" class="primitive"/>
              </g>
              <g transform="translate(49.64,57.83)" id="img-623f6cbf-77">
                <path d="M-0.27,-30.5 L 0.27 -30.5 0.27 30.5 -0.27 30.5 z" class="primitive"/>
              </g>
              <g transform="translate(50.12,59.86)" id="img-623f6cbf-78">
                <path d="M-0.27,-28.46 L 0.27 -28.46 0.27 28.46 -0.27 28.46 z" class="primitive"/>
              </g>
              <g transform="translate(50.61,61.9)" id="img-623f6cbf-79">
                <path d="M-0.27,-26.43 L 0.27 -26.43 0.27 26.43 -0.27 26.43 z" class="primitive"/>
              </g>
              <g transform="translate(51.09,55.8)" id="img-623f6cbf-80">
                <path d="M-0.27,-32.53 L 0.27 -32.53 0.27 32.53 -0.27 32.53 z" class="primitive"/>
              </g>
              <g transform="translate(51.57,53.76)" id="img-623f6cbf-81">
                <path d="M-0.27,-34.56 L 0.27 -34.56 0.27 34.56 -0.27 34.56 z" class="primitive"/>
              </g>
              <g transform="translate(52.05,63.93)" id="img-623f6cbf-82">
                <path d="M-0.27,-24.4 L 0.27 -24.4 0.27 24.4 -0.27 24.4 z" class="primitive"/>
              </g>
              <g transform="translate(52.53,69.01)" id="img-623f6cbf-83">
                <path d="M-0.27,-19.32 L 0.27 -19.32 0.27 19.32 -0.27 19.32 z" class="primitive"/>
              </g>
              <g transform="translate(53.01,58.85)" id="img-623f6cbf-84">
                <path d="M-0.27,-29.48 L 0.27 -29.48 0.27 29.48 -0.27 29.48 z" class="primitive"/>
              </g>
              <g transform="translate(53.49,63.93)" id="img-623f6cbf-85">
                <path d="M-0.27,-24.4 L 0.27 -24.4 0.27 24.4 -0.27 24.4 z" class="primitive"/>
              </g>
              <g transform="translate(53.97,59.86)" id="img-623f6cbf-86">
                <path d="M-0.27,-28.46 L 0.27 -28.46 0.27 28.46 -0.27 28.46 z" class="primitive"/>
              </g>
              <g transform="translate(54.45,60.88)" id="img-623f6cbf-87">
                <path d="M-0.27,-27.45 L 0.27 -27.45 0.27 27.45 -0.27 27.45 z" class="primitive"/>
              </g>
              <g transform="translate(54.93,56.81)" id="img-623f6cbf-88">
                <path d="M-0.27,-31.51 L 0.27 -31.51 0.27 31.51 -0.27 31.51 z" class="primitive"/>
              </g>
              <g transform="translate(55.42,66.98)" id="img-623f6cbf-89">
                <path d="M-0.27,-21.35 L 0.27 -21.35 0.27 21.35 -0.27 21.35 z" class="primitive"/>
              </g>
              <g transform="translate(55.9,56.81)" id="img-623f6cbf-90">
                <path d="M-0.27,-31.51 L 0.27 -31.51 0.27 31.51 -0.27 31.51 z" class="primitive"/>
              </g>
              <g transform="translate(56.38,59.86)" id="img-623f6cbf-91">
                <path d="M-0.27,-28.46 L 0.27 -28.46 0.27 28.46 -0.27 28.46 z" class="primitive"/>
              </g>
              <g transform="translate(56.86,62.91)" id="img-623f6cbf-92">
                <path d="M-0.27,-25.41 L 0.27 -25.41 0.27 25.41 -0.27 25.41 z" class="primitive"/>
              </g>
              <g transform="translate(57.34,64.95)" id="img-623f6cbf-93">
                <path d="M-0.27,-23.38 L 0.27 -23.38 0.27 23.38 -0.27 23.38 z" class="primitive"/>
              </g>
              <g transform="translate(57.82,65.96)" id="img-623f6cbf-94">
                <path d="M-0.27,-22.36 L 0.27 -22.36 0.27 22.36 -0.27 22.36 z" class="primitive"/>
              </g>
              <g transform="translate(58.3,69.01)" id="img-623f6cbf-95">
                <path d="M-0.27,-19.32 L 0.27 -19.32 0.27 19.32 -0.27 19.32 z" class="primitive"/>
              </g>
              <g transform="translate(58.78,68)" id="img-623f6cbf-96">
                <path d="M-0.27,-20.33 L 0.27 -20.33 0.27 20.33 -0.27 20.33 z" class="primitive"/>
              </g>
              <g transform="translate(59.26,68)" id="img-623f6cbf-97">
                <path d="M-0.27,-20.33 L 0.27 -20.33 0.27 20.33 -0.27 20.33 z" class="primitive"/>
              </g>
              <g transform="translate(59.74,76.13)" id="img-623f6cbf-98">
                <path d="M-0.27,-12.2 L 0.27 -12.2 0.27 12.2 -0.27 12.2 z" class="primitive"/>
              </g>
              <g transform="translate(60.22,68)" id="img-623f6cbf-99">
                <path d="M-0.27,-20.33 L 0.27 -20.33 0.27 20.33 -0.27 20.33 z" class="primitive"/>
              </g>
              <g transform="translate(60.71,66.98)" id="img-623f6cbf-100">
                <path d="M-0.27,-21.35 L 0.27 -21.35 0.27 21.35 -0.27 21.35 z" class="primitive"/>
              </g>
              <g transform="translate(61.19,75.11)" id="img-623f6cbf-101">
                <path d="M-0.27,-13.22 L 0.27 -13.22 0.27 13.22 -0.27 13.22 z" class="primitive"/>
              </g>
              <g transform="translate(61.67,75.11)" id="img-623f6cbf-102">
                <path d="M-0.27,-13.22 L 0.27 -13.22 0.27 13.22 -0.27 13.22 z" class="primitive"/>
              </g>
              <g transform="translate(62.15,83.24)" id="img-623f6cbf-103">
                <path d="M-0.27,-5.08 L 0.27 -5.08 0.27 5.08 -0.27 5.08 z" class="primitive"/>
              </g>
              <g transform="translate(62.63,79.18)" id="img-623f6cbf-104">
                <path d="M-0.27,-9.15 L 0.27 -9.15 0.27 9.15 -0.27 9.15 z" class="primitive"/>
              </g>
              <g transform="translate(63.11,80.19)" id="img-623f6cbf-105">
                <path d="M-0.27,-8.13 L 0.27 -8.13 0.27 8.13 -0.27 8.13 z" class="primitive"/>
              </g>
              <g transform="translate(63.59,82.23)" id="img-623f6cbf-106">
                <path d="M-0.27,-6.1 L 0.27 -6.1 0.27 6.1 -0.27 6.1 z" class="primitive"/>
              </g>
              <g transform="translate(64.07,77.14)" id="img-623f6cbf-107">
                <path d="M-0.27,-11.18 L 0.27 -11.18 0.27 11.18 -0.27 11.18 z" class="primitive"/>
              </g>
              <g transform="translate(64.55,82.23)" id="img-623f6cbf-108">
                <path d="M-0.27,-6.1 L 0.27 -6.1 0.27 6.1 -0.27 6.1 z" class="primitive"/>
              </g>
              <g transform="translate(65.03,87.31)" id="img-623f6cbf-109">
                <path d="M-0.27,-1.02 L 0.27 -1.02 0.27 1.02 -0.27 1.02 z" class="primitive"/>
              </g>
              <g transform="translate(65.52,84.26)" id="img-623f6cbf-110">
                <path d="M-0.27,-4.07 L 0.27 -4.07 0.27 4.07 -0.27 4.07 z" class="primitive"/>
              </g>
              <g transform="translate(66,84.26)" id="img-623f6cbf-111">
                <path d="M-0.27,-4.07 L 0.27 -4.07 0.27 4.07 -0.27 4.07 z" class="primitive"/>
              </g>
              <g transform="translate(66.48,84.26)" id="img-623f6cbf-112">
                <path d="M-0.27,-4.07 L 0.27 -4.07 0.27 4.07 -0.27 4.07 z" class="primitive"/>
              </g>
              <g transform="translate(66.96,83.24)" id="img-623f6cbf-113">
                <path d="M-0.27,-5.08 L 0.27 -5.08 0.27 5.08 -0.27 5.08 z" class="primitive"/>
              </g>
              <g transform="translate(67.44,87.31)" id="img-623f6cbf-114">
                <path d="M-0.27,-1.02 L 0.27 -1.02 0.27 1.02 -0.27 1.02 z" class="primitive"/>
              </g>
              <g transform="translate(67.92,84.26)" id="img-623f6cbf-115">
                <path d="M-0.27,-4.07 L 0.27 -4.07 0.27 4.07 -0.27 4.07 z" class="primitive"/>
              </g>
              <g transform="translate(68.4,88.33)" id="img-623f6cbf-116">
                <path d="M-0.27,-0 L 0.27 -0 0.27 0 -0.27 0 z" class="primitive"/>
              </g>
              <g transform="translate(68.88,86.29)" id="img-623f6cbf-117">
                <path d="M-0.27,-2.03 L 0.27 -2.03 0.27 2.03 -0.27 2.03 z" class="primitive"/>
              </g>
              <g transform="translate(69.36,85.28)" id="img-623f6cbf-118">
                <path d="M-0.27,-3.05 L 0.27 -3.05 0.27 3.05 -0.27 3.05 z" class="primitive"/>
              </g>
              <g transform="translate(69.84,87.31)" id="img-623f6cbf-119">
                <path d="M-0.27,-1.02 L 0.27 -1.02 0.27 1.02 -0.27 1.02 z" class="primitive"/>
              </g>
              <g transform="translate(70.32,86.29)" id="img-623f6cbf-120">
                <path d="M-0.27,-2.03 L 0.27 -2.03 0.27 2.03 -0.27 2.03 z" class="primitive"/>
              </g>
              <g transform="translate(70.81,87.31)" id="img-623f6cbf-121">
                <path d="M-0.27,-1.02 L 0.27 -1.02 0.27 1.02 -0.27 1.02 z" class="primitive"/>
              </g>
              <g transform="translate(71.29,88.33)" id="img-623f6cbf-122">
                <path d="M-0.27,-0 L 0.27 -0 0.27 0 -0.27 0 z" class="primitive"/>
              </g>
              <g transform="translate(71.77,87.31)" id="img-623f6cbf-123">
                <path d="M-0.27,-1.02 L 0.27 -1.02 0.27 1.02 -0.27 1.02 z" class="primitive"/>
              </g>
              <g transform="translate(72.25,87.31)" id="img-623f6cbf-124">
                <path d="M-0.27,-1.02 L 0.27 -1.02 0.27 1.02 -0.27 1.02 z" class="primitive"/>
              </g>
              <g transform="translate(72.73,88.33)" id="img-623f6cbf-125">
                <path d="M-0.27,-0 L 0.27 -0 0.27 0 -0.27 0 z" class="primitive"/>
              </g>
              <g transform="translate(73.21,88.33)" id="img-623f6cbf-126">
                <path d="M-0.27,-0 L 0.27 -0 0.27 0 -0.27 0 z" class="primitive"/>
              </g>
              <g transform="translate(73.69,87.31)" id="img-623f6cbf-127">
                <path d="M-0.27,-1.02 L 0.27 -1.02 0.27 1.02 -0.27 1.02 z" class="primitive"/>
              </g>
              <g transform="translate(74.17,88.33)" id="img-623f6cbf-128">
                <path d="M-0.27,-0 L 0.27 -0 0.27 0 -0.27 0 z" class="primitive"/>
              </g>
              <g transform="translate(74.65,88.33)" id="img-623f6cbf-129">
                <path d="M-0.27,-0 L 0.27 -0 0.27 0 -0.27 0 z" class="primitive"/>
              </g>
              <g transform="translate(75.13,87.31)" id="img-623f6cbf-130">
                <path d="M-0.27,-1.02 L 0.27 -1.02 0.27 1.02 -0.27 1.02 z" class="primitive"/>
              </g>
            </g>
          </g>
        </g>
      </g>
    </g>
  </g>
  <g class="guide ylabels" font-size="2.82" font-family="'PT Sans Caption','Helvetica Neue','Helvetica',sans-serif" fill="#6C606B" id="img-623f6cbf-131">
    <g transform="translate(16.96,88.33)" id="img-623f6cbf-132">
      <g class="primitive">
        <text text-anchor="end" dy="0.35em">0</text>
      </g>
    </g>
    <g transform="translate(16.96,68)" id="img-623f6cbf-133">
      <g class="primitive">
        <text text-anchor="end" dy="0.35em">10</text>
      </g>
    </g>
    <g transform="translate(16.96,47.66)" id="img-623f6cbf-134">
      <g class="primitive">
        <text text-anchor="end" dy="0.35em">20</text>
      </g>
    </g>
    <g transform="translate(16.96,27.33)" id="img-623f6cbf-135">
      <g class="primitive">
        <text text-anchor="end" dy="0.35em">30</text>
      </g>
    </g>
    <g transform="translate(16.96,7)" id="img-623f6cbf-136">
      <g class="primitive">
        <text text-anchor="end" dy="0.35em">40</text>
      </g>
    </g>
  </g>
  <g font-size="3.88" font-family="'PT Sans','Helvetica Neue','Helvetica',sans-serif" fill="#564A55" stroke="#000000" stroke-opacity="0.000" id="img-623f6cbf-137">
    <g transform="translate(8.81,45.66)" id="img-623f6cbf-138">
      <g class="primitive">
        <text text-anchor="middle" dy="0.35em" transform="rotate(-90,0, 2)">frequency</text>
      </g>
    </g>
  </g>
</g>
<defs>
  <clipPath id="img-623f6cbf-11">
    <path d="M17.96,5 L 83.89 5 83.89 90.33 17.96 90.33" />
  </clipPath>
</defs>
</svg>
