<?xml version="1.0" encoding="UTF-8"?>
<svg xmlns="http://www.w3.org/2000/svg"
     xmlns:xlink="http://www.w3.org/1999/xlink"
     xmlns:gadfly="http://www.gadflyjl.org/ns"
     version="1.2"
     width="141.42mm" height="100mm" viewBox="0 0 141.42 100"
     stroke="none"
     fill="#000000"
     stroke-width="0.3"
     font-size="3.88"
>
<defs>
  <marker id="arrow" markerWidth="15" markerHeight="7" refX="5" refY="3.5" orient="auto" markerUnits="strokeWidth">
    <path d="M0,0 L15,3.5 L0,7 z" stroke="context-stroke" fill="context-stroke"/>
  </marker>
</defs>
<g class="plotroot xscalable yscalable" id="img-7caa98e7-1">
  <g class="guide xlabels" font-size="2.82" font-family="'PT Sans Caption','Helvetica Neue','Helvetica',sans-serif" fill="#6C606B" id="img-7caa98e7-2">
    <g transform="translate(19.96,91.33)">
      <g class="primitive">
        <text text-anchor="middle" dy="0.6em">14.60</text>
      </g>
    </g>
    <g transform="translate(35.58,91.33)">
      <g class="primitive">
        <text text-anchor="middle" dy="0.6em">14.65</text>
      </g>
    </g>
    <g transform="translate(51.21,91.33)">
      <g class="primitive">
        <text text-anchor="middle" dy="0.6em">14.70</text>
      </g>
    </g>
    <g transform="translate(66.83,91.33)">
      <g class="primitive">
        <text text-anchor="middle" dy="0.6em">14.75</text>
      </g>
    </g>
    <g transform="translate(82.45,91.33)">
      <g class="primitive">
        <text text-anchor="middle" dy="0.6em">14.80</text>
      </g>
    </g>
  </g>
  <g class="guide colorkey" id="img-7caa98e7-3">
    <g class="color_coding_noncoding_coding_coding_4-tail" id="img-7caa98e7-4">
      <g fill="#4C404B" font-size="2.82" font-family="'PT Sans','Helvetica Neue','Helvetica',sans-serif" id="img-7caa98e7-5">
        <g transform="translate(88.27,49.48)" id="img-7caa98e7-6">
          <g class="primitive">
            <text dy="0.35em">coding_noncoding_coding_coding_4-tail</text>
          </g>
        </g>
      </g>
      <g fill-opacity="1" fill="#00BFFF" stroke="#FFFFFF" id="img-7caa98e7-7">
        <g transform="translate(86.36,49.48)" id="img-7caa98e7-8">
          <path d="M-0.91,-0.91 L 0.91 -0.91 0.91 0.91 -0.91 0.91 z" class="primitive"/>
        </g>
      </g>
    </g>
    <g fill="#362A35" font-size="3.88" font-family="'PT Sans','Helvetica Neue','Helvetica',sans-serif" stroke="#000000" stroke-opacity="0.000" id="img-7caa98e7-9">
      <g transform="translate(85.45,45.66)" id="img-7caa98e7-10">
        <g class="primitive">
          <text dy="-0em">graphlet</text>
        </g>
      </g>
    </g>
  </g>
  <g clip-path="url(#img-7caa98e7-11)">
    <g id="img-7caa98e7-12">
      <g pointer-events="visible" stroke-width="0.3" fill="#000000" fill-opacity="0.000" stroke="#000000" stroke-opacity="0.000" class="guide background" id="img-7caa98e7-13">
        <g transform="translate(51.21,47.66)" id="img-7caa98e7-14">
          <path d="M-33.25,-42.66 L 33.25 -42.66 33.25 42.66 -33.25 42.66 z" class="primitive"/>
        </g>
      </g>
      <g class="guide ygridlines xfixed" stroke-dasharray="0.5,0.5" stroke-width="0.2" stroke="#D0D0E0" id="img-7caa98e7-15">
        <g transform="translate(51.21,88.33)" id="img-7caa98e7-16">
          <path fill="none" d="M-33.25,0 L 33.25 0" class="primitive"/>
        </g>
        <g transform="translate(51.21,68)" id="img-7caa98e7-17">
          <path fill="none" d="M-33.25,0 L 33.25 0" class="primitive"/>
        </g>
        <g transform="translate(51.21,47.66)" id="img-7caa98e7-18">
          <path fill="none" d="M-33.25,0 L 33.25 0" class="primitive"/>
        </g>
        <g transform="translate(51.21,27.33)" id="img-7caa98e7-19">
          <path fill="none" d="M-33.25,0 L 33.25 0" class="primitive"/>
        </g>
        <g transform="translate(51.21,7)" id="img-7caa98e7-20">
          <path fill="none" d="M-33.25,0 L 33.25 0" class="primitive"/>
        </g>
      </g>
      <g class="guide xgridlines yfixed" stroke-dasharray="0.5,0.5" stroke-width="0.2" stroke="#D0D0E0" id="img-7caa98e7-21">
        <g transform="translate(19.96,47.66)" id="img-7caa98e7-22">
          <path fill="none" d="M0,-42.66 L 0 42.66" class="primitive"/>
        </g>
        <g transform="translate(35.58,47.66)" id="img-7caa98e7-23">
          <path fill="none" d="M0,-42.66 L 0 42.66" class="primitive"/>
        </g>
        <g transform="translate(51.21,47.66)" id="img-7caa98e7-24">
          <path fill="none" d="M0,-42.66 L 0 42.66" class="primitive"/>
        </g>
        <g transform="translate(66.83,47.66)" id="img-7caa98e7-25">
          <path fill="none" d="M0,-42.66 L 0 42.66" class="primitive"/>
        </g>
        <g transform="translate(82.45,47.66)" id="img-7caa98e7-26">
          <path fill="none" d="M0,-42.66 L 0 42.66" class="primitive"/>
        </g>
      </g>
      <g class="plotpanel" id="img-7caa98e7-27">
        <metadata>
          <boundingbox value="17.95833333333333mm 5.0mm 66.49635623730953mm 85.32666666666667mm"/>
          <unitbox value="14.593599626856948 40.98368718747438 0.21280074628610687 -41.96737437494876"/>
        </metadata>
        <g shape-rendering="crispEdges" stroke-width="0.3" id="img-7caa98e7-28">
          <g stroke="#000000" stroke-opacity="0.000" class="geometry" id="img-7caa98e7-29">
            <g fill="#00BFFF" id="img-7caa98e7-30">
              <g transform="translate(25.08,87.31)" id="img-7caa98e7-31">
                <path d="M-0.31,-1.02 L 0.31 -1.02 0.31 1.02 -0.31 1.02 z" class="primitive"/>
              </g>
              <g transform="translate(25.65,88.33)" id="img-7caa98e7-32">
                <path d="M-0.31,-0 L 0.31 -0 0.31 0 -0.31 0 z" class="primitive"/>
              </g>
              <g transform="translate(26.22,88.33)" id="img-7caa98e7-33">
                <path d="M-0.31,-0 L 0.31 -0 0.31 0 -0.31 0 z" class="primitive"/>
              </g>
              <g transform="translate(26.79,88.33)" id="img-7caa98e7-34">
                <path d="M-0.31,-0 L 0.31 -0 0.31 0 -0.31 0 z" class="primitive"/>
              </g>
              <g transform="translate(27.36,86.29)" id="img-7caa98e7-35">
                <path d="M-0.31,-2.03 L 0.31 -2.03 0.31 2.03 -0.31 2.03 z" class="primitive"/>
              </g>
              <g transform="translate(27.93,88.33)" id="img-7caa98e7-36">
                <path d="M-0.31,-0 L 0.31 -0 0.31 0 -0.31 0 z" class="primitive"/>
              </g>
              <g transform="translate(28.5,88.33)" id="img-7caa98e7-37">
                <path d="M-0.31,-0 L 0.31 -0 0.31 0 -0.31 0 z" class="primitive"/>
              </g>
              <g transform="translate(29.07,87.31)" id="img-7caa98e7-38">
                <path d="M-0.31,-1.02 L 0.31 -1.02 0.31 1.02 -0.31 1.02 z" class="primitive"/>
              </g>
              <g transform="translate(29.64,87.31)" id="img-7caa98e7-39">
                <path d="M-0.31,-1.02 L 0.31 -1.02 0.31 1.02 -0.31 1.02 z" class="primitive"/>
              </g>
              <g transform="translate(30.21,87.31)" id="img-7caa98e7-40">
                <path d="M-0.31,-1.02 L 0.31 -1.02 0.31 1.02 -0.31 1.02 z" class="primitive"/>
              </g>
              <g transform="translate(30.77,88.33)" id="img-7caa98e7-41">
                <path d="M-0.31,-0 L 0.31 -0 0.31 0 -0.31 0 z" class="primitive"/>
              </g>
              <g transform="translate(31.34,87.31)" id="img-7caa98e7-42">
                <path d="M-0.31,-1.02 L 0.31 -1.02 0.31 1.02 -0.31 1.02 z" class="primitive"/>
              </g>
              <g transform="translate(31.91,87.31)" id="img-7caa98e7-43">
                <path d="M-0.31,-1.02 L 0.31 -1.02 0.31 1.02 -0.31 1.02 z" class="primitive"/>
              </g>
              <g transform="translate(32.48,84.26)" id="img-7caa98e7-44">
                <path d="M-0.31,-4.07 L 0.31 -4.07 0.31 4.07 -0.31 4.07 z" class="primitive"/>
              </g>
              <g transform="translate(33.05,83.24)" id="img-7caa98e7-45">
                <path d="M-0.31,-5.08 L 0.31 -5.08 0.31 5.08 -0.31 5.08 z" class="primitive"/>
              </g>
              <g transform="translate(33.62,87.31)" id="img-7caa98e7-46">
                <path d="M-0.31,-1.02 L 0.31 -1.02 0.31 1.02 -0.31 1.02 z" class="primitive"/>
              </g>
              <g transform="translate(34.19,84.26)" id="img-7caa98e7-47">
                <path d="M-0.31,-4.07 L 0.31 -4.07 0.31 4.07 -0.31 4.07 z" class="primitive"/>
              </g>
              <g transform="translate(34.76,86.29)" id="img-7caa98e7-48">
                <path d="M-0.31,-2.03 L 0.31 -2.03 0.31 2.03 -0.31 2.03 z" class="primitive"/>
              </g>
              <g transform="translate(35.33,83.24)" id="img-7caa98e7-49">
                <path d="M-0.31,-5.08 L 0.31 -5.08 0.31 5.08 -0.31 5.08 z" class="primitive"/>
              </g>
              <g transform="translate(35.9,79.18)" id="img-7caa98e7-50">
                <path d="M-0.31,-9.15 L 0.31 -9.15 0.31 9.15 -0.31 9.15 z" class="primitive"/>
              </g>
              <g transform="translate(36.47,80.19)" id="img-7caa98e7-51">
                <path d="M-0.31,-8.13 L 0.31 -8.13 0.31 8.13 -0.31 8.13 z" class="primitive"/>
              </g>
              <g transform="translate(37.04,84.26)" id="img-7caa98e7-52">
                <path d="M-0.31,-4.07 L 0.31 -4.07 0.31 4.07 -0.31 4.07 z" class="primitive"/>
              </g>
              <g transform="translate(37.61,81.21)" id="img-7caa98e7-53">
                <path d="M-0.31,-7.12 L 0.31 -7.12 0.31 7.12 -0.31 7.12 z" class="primitive"/>
              </g>
              <g transform="translate(38.18,83.24)" id="img-7caa98e7-54">
                <path d="M-0.31,-5.08 L 0.31 -5.08 0.31 5.08 -0.31 5.08 z" class="primitive"/>
              </g>
              <g transform="translate(38.75,81.21)" id="img-7caa98e7-55">
                <path d="M-0.31,-7.12 L 0.31 -7.12 0.31 7.12 -0.31 7.12 z" class="primitive"/>
              </g>
              <g transform="translate(39.32,82.23)" id="img-7caa98e7-56">
                <path d="M-0.31,-6.1 L 0.31 -6.1 0.31 6.1 -0.31 6.1 z" class="primitive"/>
              </g>
              <g transform="translate(39.89,74.09)" id="img-7caa98e7-57">
                <path d="M-0.31,-14.23 L 0.31 -14.23 0.31 14.23 -0.31 14.23 z" class="primitive"/>
              </g>
              <g transform="translate(40.46,81.21)" id="img-7caa98e7-58">
                <path d="M-0.31,-7.12 L 0.31 -7.12 0.31 7.12 -0.31 7.12 z" class="primitive"/>
              </g>
              <g transform="translate(41.03,78.16)" id="img-7caa98e7-59">
                <path d="M-0.31,-10.17 L 0.31 -10.17 0.31 10.17 -0.31 10.17 z" class="primitive"/>
              </g>
              <g transform="translate(41.6,75.11)" id="img-7caa98e7-60">
                <path d="M-0.31,-13.22 L 0.31 -13.22 0.31 13.22 -0.31 13.22 z" class="primitive"/>
              </g>
              <g transform="translate(42.17,71.04)" id="img-7caa98e7-61">
                <path d="M-0.31,-17.28 L 0.31 -17.28 0.31 17.28 -0.31 17.28 z" class="primitive"/>
              </g>
              <g transform="translate(42.74,72.06)" id="img-7caa98e7-62">
                <path d="M-0.31,-16.27 L 0.31 -16.27 0.31 16.27 -0.31 16.27 z" class="primitive"/>
              </g>
              <g transform="translate(43.31,66.98)" id="img-7caa98e7-63">
                <path d="M-0.31,-21.35 L 0.31 -21.35 0.31 21.35 -0.31 21.35 z" class="primitive"/>
              </g>
              <g transform="translate(43.88,65.96)" id="img-7caa98e7-64">
                <path d="M-0.31,-22.36 L 0.31 -22.36 0.31 22.36 -0.31 22.36 z" class="primitive"/>
              </g>
              <g transform="translate(44.44,72.06)" id="img-7caa98e7-65">
                <path d="M-0.31,-16.27 L 0.31 -16.27 0.31 16.27 -0.31 16.27 z" class="primitive"/>
              </g>
              <g transform="translate(45.01,68)" id="img-7caa98e7-66">
                <path d="M-0.31,-20.33 L 0.31 -20.33 0.31 20.33 -0.31 20.33 z" class="primitive"/>
              </g>
              <g transform="translate(45.58,63.93)" id="img-7caa98e7-67">
                <path d="M-0.31,-24.4 L 0.31 -24.4 0.31 24.4 -0.31 24.4 z" class="primitive"/>
              </g>
              <g transform="translate(46.15,71.04)" id="img-7caa98e7-68">
                <path d="M-0.31,-17.28 L 0.31 -17.28 0.31 17.28 -0.31 17.28 z" class="primitive"/>
              </g>
              <g transform="translate(46.72,63.93)" id="img-7caa98e7-69">
                <path d="M-0.31,-24.4 L 0.31 -24.4 0.31 24.4 -0.31 24.4 z" class="primitive"/>
              </g>
              <g transform="translate(47.29,64.95)" id="img-7caa98e7-70">
                <path d="M-0.31,-23.38 L 0.31 -23.38 0.31 23.38 -0.31 23.38 z" class="primitive"/>
              </g>
              <g transform="translate(47.86,62.91)" id="img-7caa98e7-71">
                <path d="M-0.31,-25.41 L 0.31 -25.41 0.31 25.41 -0.31 25.41 z" class="primitive"/>
              </g>
              <g transform="translate(48.43,58.85)" id="img-7caa98e7-72">
                <path d="M-0.31,-29.48 L 0.31 -29.48 0.31 29.48 -0.31 29.48 z" class="primitive"/>
              </g>
              <g transform="translate(49,63.93)" id="img-7caa98e7-73">
                <path d="M-0.31,-24.4 L 0.31 -24.4 0.31 24.4 -0.31 24.4 z" class="primitive"/>
              </g>
              <g transform="translate(49.57,62.91)" id="img-7caa98e7-74">
                <path d="M-0.31,-25.41 L 0.31 -25.41 0.31 25.41 -0.31 25.41 z" class="primitive"/>
              </g>
              <g transform="translate(50.14,48.68)" id="img-7caa98e7-75">
                <path d="M-0.31,-39.65 L 0.31 -39.65 0.31 39.65 -0.31 39.65 z" class="primitive"/>
              </g>
              <g transform="translate(50.71,59.86)" id="img-7caa98e7-76">
                <path d="M-0.31,-28.46 L 0.31 -28.46 0.31 28.46 -0.31 28.46 z" class="primitive"/>
              </g>
              <g transform="translate(51.28,68)" id="img-7caa98e7-77">
                <path d="M-0.31,-20.33 L 0.31 -20.33 0.31 20.33 -0.31 20.33 z" class="primitive"/>
              </g>
              <g transform="translate(51.85,57.83)" id="img-7caa98e7-78">
                <path d="M-0.31,-30.5 L 0.31 -30.5 0.31 30.5 -0.31 30.5 z" class="primitive"/>
              </g>
              <g transform="translate(52.42,69.01)" id="img-7caa98e7-79">
                <path d="M-0.31,-19.32 L 0.31 -19.32 0.31 19.32 -0.31 19.32 z" class="primitive"/>
              </g>
              <g transform="translate(52.99,55.8)" id="img-7caa98e7-80">
                <path d="M-0.31,-32.53 L 0.31 -32.53 0.31 32.53 -0.31 32.53 z" class="primitive"/>
              </g>
              <g transform="translate(53.56,57.83)" id="img-7caa98e7-81">
                <path d="M-0.31,-30.5 L 0.31 -30.5 0.31 30.5 -0.31 30.5 z" class="primitive"/>
              </g>
              <g transform="translate(54.13,56.81)" id="img-7caa98e7-82">
                <path d="M-0.31,-31.51 L 0.31 -31.51 0.31 31.51 -0.31 31.51 z" class="primitive"/>
              </g>
              <g transform="translate(54.7,61.9)" id="img-7caa98e7-83">
                <path d="M-0.31,-26.43 L 0.31 -26.43 0.31 26.43 -0.31 26.43 z" class="primitive"/>
              </g>
              <g transform="translate(55.27,66.98)" id="img-7caa98e7-84">
                <path d="M-0.31,-21.35 L 0.31 -21.35 0.31 21.35 -0.31 21.35 z" class="primitive"/>
              </g>
              <g transform="translate(55.84,55.8)" id="img-7caa98e7-85">
                <path d="M-0.31,-32.53 L 0.31 -32.53 0.31 32.53 -0.31 32.53 z" class="primitive"/>
              </g>
              <g transform="translate(56.41,71.04)" id="img-7caa98e7-86">
                <path d="M-0.31,-17.28 L 0.31 -17.28 0.31 17.28 -0.31 17.28 z" class="primitive"/>
              </g>
              <g transform="translate(56.98,60.88)" id="img-7caa98e7-87">
                <path d="M-0.31,-27.45 L 0.31 -27.45 0.31 27.45 -0.31 27.45 z" class="primitive"/>
              </g>
              <g transform="translate(57.55,72.06)" id="img-7caa98e7-88">
                <path d="M-0.31,-16.27 L 0.31 -16.27 0.31 16.27 -0.31 16.27 z" class="primitive"/>
              </g>
              <g transform="translate(58.11,61.9)" id="img-7caa98e7-89">
                <path d="M-0.31,-26.43 L 0.31 -26.43 0.31 26.43 -0.31 26.43 z" class="primitive"/>
              </g>
              <g transform="translate(58.68,74.09)" id="img-7caa98e7-90">
                <path d="M-0.31,-14.23 L 0.31 -14.23 0.31 14.23 -0.31 14.23 z" class="primitive"/>
              </g>
              <g transform="translate(59.25,59.86)" id="img-7caa98e7-91">
                <path d="M-0.31,-28.46 L 0.31 -28.46 0.31 28.46 -0.31 28.46 z" class="primitive"/>
              </g>
              <g transform="translate(59.82,76.13)" id="img-7caa98e7-92">
                <path d="M-0.31,-12.2 L 0.31 -12.2 0.31 12.2 -0.31 12.2 z" class="primitive"/>
              </g>
              <g transform="translate(60.39,75.11)" id="img-7caa98e7-93">
                <path d="M-0.31,-13.22 L 0.31 -13.22 0.31 13.22 -0.31 13.22 z" class="primitive"/>
              </g>
              <g transform="translate(60.96,77.14)" id="img-7caa98e7-94">
                <path d="M-0.31,-11.18 L 0.31 -11.18 0.31 11.18 -0.31 11.18 z" class="primitive"/>
              </g>
              <g transform="translate(61.53,76.13)" id="img-7caa98e7-95">
                <path d="M-0.31,-12.2 L 0.31 -12.2 0.31 12.2 -0.31 12.2 z" class="primitive"/>
              </g>
              <g transform="translate(62.1,77.14)" id="img-7caa98e7-96">
                <path d="M-0.31,-11.18 L 0.31 -11.18 0.31 11.18 -0.31 11.18 z" class="primitive"/>
              </g>
              <g transform="translate(62.67,76.13)" id="img-7caa98e7-97">
                <path d="M-0.31,-12.2 L 0.31 -12.2 0.31 12.2 -0.31 12.2 z" class="primitive"/>
              </g>
              <g transform="translate(63.24,80.19)" id="img-7caa98e7-98">
                <path d="M-0.31,-8.13 L 0.31 -8.13 0.31 8.13 -0.31 8.13 z" class="primitive"/>
              </g>
              <g transform="translate(63.81,81.21)" id="img-7caa98e7-99">
                <path d="M-0.31,-7.12 L 0.31 -7.12 0.31 7.12 -0.31 7.12 z" class="primitive"/>
              </g>
              <g transform="translate(64.38,80.19)" id="img-7caa98e7-100">
                <path d="M-0.31,-8.13 L 0.31 -8.13 0.31 8.13 -0.31 8.13 z" class="primitive"/>
              </g>
              <g transform="translate(64.95,80.19)" id="img-7caa98e7-101">
                <path d="M-0.31,-8.13 L 0.31 -8.13 0.31 8.13 -0.31 8.13 z" class="primitive"/>
              </g>
              <g transform="translate(65.52,81.21)" id="img-7caa98e7-102">
                <path d="M-0.31,-7.12 L 0.31 -7.12 0.31 7.12 -0.31 7.12 z" class="primitive"/>
              </g>
              <g transform="translate(66.09,83.24)" id="img-7caa98e7-103">
                <path d="M-0.31,-5.08 L 0.31 -5.08 0.31 5.08 -0.31 5.08 z" class="primitive"/>
              </g>
              <g transform="translate(66.66,85.28)" id="img-7caa98e7-104">
                <path d="M-0.31,-3.05 L 0.31 -3.05 0.31 3.05 -0.31 3.05 z" class="primitive"/>
              </g>
              <g transform="translate(67.23,84.26)" id="img-7caa98e7-105">
                <path d="M-0.31,-4.07 L 0.31 -4.07 0.31 4.07 -0.31 4.07 z" class="primitive"/>
              </g>
              <g transform="translate(67.8,83.24)" id="img-7caa98e7-106">
                <path d="M-0.31,-5.08 L 0.31 -5.08 0.31 5.08 -0.31 5.08 z" class="primitive"/>
              </g>
              <g transform="translate(68.37,86.29)" id="img-7caa98e7-107">
                <path d="M-0.31,-2.03 L 0.31 -2.03 0.31 2.03 -0.31 2.03 z" class="primitive"/>
              </g>
              <g transform="translate(68.94,85.28)" id="img-7caa98e7-108">
                <path d="M-0.31,-3.05 L 0.31 -3.05 0.31 3.05 -0.31 3.05 z" class="primitive"/>
              </g>
              <g transform="translate(69.51,88.33)" id="img-7caa98e7-109">
                <path d="M-0.31,-0 L 0.31 -0 0.31 0 -0.31 0 z" class="primitive"/>
              </g>
              <g transform="translate(70.08,86.29)" id="img-7caa98e7-110">
                <path d="M-0.31,-2.03 L 0.31 -2.03 0.31 2.03 -0.31 2.03 z" class="primitive"/>
              </g>
              <g transform="translate(70.65,86.29)" id="img-7caa98e7-111">
                <path d="M-0.31,-2.03 L 0.31 -2.03 0.31 2.03 -0.31 2.03 z" class="primitive"/>
              </g>
              <g transform="translate(71.21,88.33)" id="img-7caa98e7-112">
                <path d="M-0.31,-0 L 0.31 -0 0.31 0 -0.31 0 z" class="primitive"/>
              </g>
              <g transform="translate(71.78,86.29)" id="img-7caa98e7-113">
                <path d="M-0.31,-2.03 L 0.31 -2.03 0.31 2.03 -0.31 2.03 z" class="primitive"/>
              </g>
              <g transform="translate(72.35,88.33)" id="img-7caa98e7-114">
                <path d="M-0.31,-0 L 0.31 -0 0.31 0 -0.31 0 z" class="primitive"/>
              </g>
              <g transform="translate(72.92,87.31)" id="img-7caa98e7-115">
                <path d="M-0.31,-1.02 L 0.31 -1.02 0.31 1.02 -0.31 1.02 z" class="primitive"/>
              </g>
              <g transform="translate(73.49,88.33)" id="img-7caa98e7-116">
                <path d="M-0.31,-0 L 0.31 -0 0.31 0 -0.31 0 z" class="primitive"/>
              </g>
              <g transform="translate(74.06,88.33)" id="img-7caa98e7-117">
                <path d="M-0.31,-0 L 0.31 -0 0.31 0 -0.31 0 z" class="primitive"/>
              </g>
              <g transform="translate(74.63,88.33)" id="img-7caa98e7-118">
                <path d="M-0.31,-0 L 0.31 -0 0.31 0 -0.31 0 z" class="primitive"/>
              </g>
              <g transform="translate(75.2,87.31)" id="img-7caa98e7-119">
                <path d="M-0.31,-1.02 L 0.31 -1.02 0.31 1.02 -0.31 1.02 z" class="primitive"/>
              </g>
              <g transform="translate(75.77,88.33)" id="img-7caa98e7-120">
                <path d="M-0.31,-0 L 0.31 -0 0.31 0 -0.31 0 z" class="primitive"/>
              </g>
              <g transform="translate(76.34,87.31)" id="img-7caa98e7-121">
                <path d="M-0.31,-1.02 L 0.31 -1.02 0.31 1.02 -0.31 1.02 z" class="primitive"/>
              </g>
              <g transform="translate(76.91,88.33)" id="img-7caa98e7-122">
                <path d="M-0.31,-0 L 0.31 -0 0.31 0 -0.31 0 z" class="primitive"/>
              </g>
              <g transform="translate(77.48,88.33)" id="img-7caa98e7-123">
                <path d="M-0.31,-0 L 0.31 -0 0.31 0 -0.31 0 z" class="primitive"/>
              </g>
              <g transform="translate(78.05,88.33)" id="img-7caa98e7-124">
                <path d="M-0.31,-0 L 0.31 -0 0.31 0 -0.31 0 z" class="primitive"/>
              </g>
              <g transform="translate(78.62,88.33)" id="img-7caa98e7-125">
                <path d="M-0.31,-0 L 0.31 -0 0.31 0 -0.31 0 z" class="primitive"/>
              </g>
              <g transform="translate(79.19,88.33)" id="img-7caa98e7-126">
                <path d="M-0.31,-0 L 0.31 -0 0.31 0 -0.31 0 z" class="primitive"/>
              </g>
              <g transform="translate(79.76,88.33)" id="img-7caa98e7-127">
                <path d="M-0.31,-0 L 0.31 -0 0.31 0 -0.31 0 z" class="primitive"/>
              </g>
              <g transform="translate(80.33,87.31)" id="img-7caa98e7-128">
                <path d="M-0.31,-1.02 L 0.31 -1.02 0.31 1.02 -0.31 1.02 z" class="primitive"/>
              </g>
              <g transform="translate(80.9,88.33)" id="img-7caa98e7-129">
                <path d="M-0.31,-0 L 0.31 -0 0.31 0 -0.31 0 z" class="primitive"/>
              </g>
              <g transform="translate(81.47,87.31)" id="img-7caa98e7-130">
                <path d="M-0.31,-1.02 L 0.31 -1.02 0.31 1.02 -0.31 1.02 z" class="primitive"/>
              </g>
            </g>
          </g>
        </g>
      </g>
    </g>
  </g>
  <g class="guide ylabels" font-size="2.82" font-family="'PT Sans Caption','Helvetica Neue','Helvetica',sans-serif" fill="#6C606B" id="img-7caa98e7-131">
    <g transform="translate(16.96,88.33)" id="img-7caa98e7-132">
      <g class="primitive">
        <text text-anchor="end" dy="0.35em">0</text>
      </g>
    </g>
    <g transform="translate(16.96,68)" id="img-7caa98e7-133">
      <g class="primitive">
        <text text-anchor="end" dy="0.35em">10</text>
      </g>
    </g>
    <g transform="translate(16.96,47.66)" id="img-7caa98e7-134">
      <g class="primitive">
        <text text-anchor="end" dy="0.35em">20</text>
      </g>
    </g>
    <g transform="translate(16.96,27.33)" id="img-7caa98e7-135">
      <g class="primitive">
        <text text-anchor="end" dy="0.35em">30</text>
      </g>
    </g>
    <g transform="translate(16.96,7)" id="img-7caa98e7-136">
      <g class="primitive">
        <text text-anchor="end" dy="0.35em">40</text>
      </g>
    </g>
  </g>
  <g font-size="3.88" font-family="'PT Sans','Helvetica Neue','Helvetica',sans-serif" fill="#564A55" stroke="#000000" stroke-opacity="0.000" id="img-7caa98e7-137">
    <g transform="translate(8.81,45.66)" id="img-7caa98e7-138">
      <g class="primitive">
        <text text-anchor="middle" dy="0.35em" transform="rotate(-90,0, 2)">frequency</text>
      </g>
    </g>
  </g>
</g>
<defs>
  <clipPath id="img-7caa98e7-11">
    <path d="M17.96,5 L 84.45 5 84.45 90.33 17.96 90.33" />
  </clipPath>
</defs>
</svg>
