<?xml version="1.0" encoding="UTF-8"?>
<svg xmlns="http://www.w3.org/2000/svg"
     xmlns:xlink="http://www.w3.org/1999/xlink"
     xmlns:gadfly="http://www.gadflyjl.org/ns"
     version="1.2"
     width="141.42mm" height="100mm" viewBox="0 0 141.42 100"
     stroke="none"
     fill="#000000"
     stroke-width="0.3"
     font-size="3.88"
>
<defs>
  <marker id="arrow" markerWidth="15" markerHeight="7" refX="5" refY="3.5" orient="auto" markerUnits="strokeWidth">
    <path d="M0,0 L15,3.5 L0,7 z" stroke="context-stroke" fill="context-stroke"/>
  </marker>
</defs>
<g class="plotroot xscalable yscalable" id="img-12fc4185-1">
  <g class="guide xlabels" font-size="2.82" font-family="'PT Sans Caption','Helvetica Neue','Helvetica',sans-serif" fill="#6C606B" id="img-12fc4185-2">
    <g transform="translate(19.96,80.21)">
      <g class="primitive">
        <text text-anchor="end" dy="0.35em" transform="rotate(-90,0, 0)">5.50×10⁵</text>
      </g>
    </g>
    <g transform="translate(31.43,80.21)">
      <g class="primitive">
        <text text-anchor="end" dy="0.35em" transform="rotate(-90,0, 0)">6.00×10⁵</text>
      </g>
    </g>
    <g transform="translate(42.89,80.21)">
      <g class="primitive">
        <text text-anchor="end" dy="0.35em" transform="rotate(-90,0, 0)">6.50×10⁵</text>
      </g>
    </g>
    <g transform="translate(54.36,80.21)">
      <g class="primitive">
        <text text-anchor="end" dy="0.35em" transform="rotate(-90,0, 0)">7.00×10⁵</text>
      </g>
    </g>
    <g transform="translate(65.83,80.21)">
      <g class="primitive">
        <text text-anchor="end" dy="0.35em" transform="rotate(-90,0, 0)">7.50×10⁵</text>
      </g>
    </g>
    <g transform="translate(77.29,80.21)">
      <g class="primitive">
        <text text-anchor="end" dy="0.35em" transform="rotate(-90,0, 0)">8.00×10⁵</text>
      </g>
    </g>
  </g>
  <g class="guide colorkey" id="img-12fc4185-3">
    <g class="color_coding_noncoding_coding_noncoding_4-star" id="img-12fc4185-4">
      <g fill="#4C404B" font-size="2.82" font-family="'PT Sans','Helvetica Neue','Helvetica',sans-serif" id="img-12fc4185-5">
        <g transform="translate(83.11,43.92)" id="img-12fc4185-6">
          <g class="primitive">
            <text dy="0.35em">coding_noncoding_coding_noncoding_4-star</text>
          </g>
        </g>
      </g>
      <g fill-opacity="1" fill="#00BFFF" stroke="#FFFFFF" id="img-12fc4185-7">
        <g transform="translate(81.2,43.92)" id="img-12fc4185-8">
          <path d="M-0.91,-0.91 L 0.91 -0.91 0.91 0.91 -0.91 0.91 z" class="primitive"/>
        </g>
      </g>
    </g>
    <g fill="#362A35" font-size="3.88" font-family="'PT Sans','Helvetica Neue','Helvetica',sans-serif" stroke="#000000" stroke-opacity="0.000" id="img-12fc4185-9">
      <g transform="translate(80.29,40.1)" id="img-12fc4185-10">
        <g class="primitive">
          <text dy="-0em">graphlet</text>
        </g>
      </g>
    </g>
  </g>
  <g clip-path="url(#img-12fc4185-11)">
    <g id="img-12fc4185-12">
      <g pointer-events="visible" stroke-width="0.3" fill="#000000" fill-opacity="0.000" stroke="#000000" stroke-opacity="0.000" class="guide background" id="img-12fc4185-13">
        <g transform="translate(48.63,42.11)" id="img-12fc4185-14">
          <path d="M-30.67,-37.11 L 30.67 -37.11 30.67 37.11 -30.67 37.11 z" class="primitive"/>
        </g>
      </g>
      <g class="guide ygridlines xfixed" stroke-dasharray="0.5,0.5" stroke-width="0.2" stroke="#D0D0E0" id="img-12fc4185-15">
        <g transform="translate(48.63,77.21)" id="img-12fc4185-16">
          <path fill="none" d="M-30.67,0 L 30.67 0" class="primitive"/>
        </g>
        <g transform="translate(48.63,59.66)" id="img-12fc4185-17">
          <path fill="none" d="M-30.67,0 L 30.67 0" class="primitive"/>
        </g>
        <g transform="translate(48.63,42.11)" id="img-12fc4185-18">
          <path fill="none" d="M-30.67,0 L 30.67 0" class="primitive"/>
        </g>
        <g transform="translate(48.63,24.55)" id="img-12fc4185-19">
          <path fill="none" d="M-30.67,0 L 30.67 0" class="primitive"/>
        </g>
        <g transform="translate(48.63,7)" id="img-12fc4185-20">
          <path fill="none" d="M-30.67,0 L 30.67 0" class="primitive"/>
        </g>
      </g>
      <g class="guide xgridlines yfixed" stroke-dasharray="0.5,0.5" stroke-width="0.2" stroke="#D0D0E0" id="img-12fc4185-21">
        <g transform="translate(19.96,42.11)" id="img-12fc4185-22">
          <path fill="none" d="M0,-37.11 L 0 37.11" class="primitive"/>
        </g>
        <g transform="translate(31.43,42.11)" id="img-12fc4185-23">
          <path fill="none" d="M0,-37.11 L 0 37.11" class="primitive"/>
        </g>
        <g transform="translate(42.89,42.11)" id="img-12fc4185-24">
          <path fill="none" d="M0,-37.11 L 0 37.11" class="primitive"/>
        </g>
        <g transform="translate(54.36,42.11)" id="img-12fc4185-25">
          <path fill="none" d="M0,-37.11 L 0 37.11" class="primitive"/>
        </g>
        <g transform="translate(65.83,42.11)" id="img-12fc4185-26">
          <path fill="none" d="M0,-37.11 L 0 37.11" class="primitive"/>
        </g>
        <g transform="translate(77.29,42.11)" id="img-12fc4185-27">
          <path fill="none" d="M0,-37.11 L 0 37.11" class="primitive"/>
        </g>
      </g>
      <g class="plotpanel" id="img-12fc4185-28">
        <metadata>
          <boundingbox value="17.958333333333336mm 5.0mm 61.33635623730951mm 74.21333333333334mm"/>
          <unitbox value="541279.5295548509 41.13938473224459 267440.9408902983 -42.27876946448917"/>
        </metadata>
        <g shape-rendering="crispEdges" stroke-width="0.3" id="img-12fc4185-29">
          <g stroke="#000000" stroke-opacity="0.000" class="geometry" id="img-12fc4185-30">
            <g fill="#00BFFF" id="img-12fc4185-31">
              <g transform="translate(24.69,76.34)" id="img-12fc4185-32">
                <path d="M-0.24,-0.88 L 0.24 -0.88 0.24 0.88 -0.24 0.88 z" class="primitive"/>
              </g>
              <g transform="translate(25.12,77.22)" id="img-12fc4185-33">
                <path d="M-0.24,-0 L 0.24 -0 0.24 0 -0.24 0 z" class="primitive"/>
              </g>
              <g transform="translate(25.54,77.22)" id="img-12fc4185-34">
                <path d="M-0.24,-0 L 0.24 -0 0.24 0 -0.24 0 z" class="primitive"/>
              </g>
              <g transform="translate(25.96,77.22)" id="img-12fc4185-35">
                <path d="M-0.24,-0 L 0.24 -0 0.24 0 -0.24 0 z" class="primitive"/>
              </g>
              <g transform="translate(26.39,77.22)" id="img-12fc4185-36">
                <path d="M-0.24,-0 L 0.24 -0 0.24 0 -0.24 0 z" class="primitive"/>
              </g>
              <g transform="translate(26.81,76.34)" id="img-12fc4185-37">
                <path d="M-0.24,-0.88 L 0.24 -0.88 0.24 0.88 -0.24 0.88 z" class="primitive"/>
              </g>
              <g transform="translate(27.23,77.22)" id="img-12fc4185-38">
                <path d="M-0.24,-0 L 0.24 -0 0.24 0 -0.24 0 z" class="primitive"/>
              </g>
              <g transform="translate(27.66,76.34)" id="img-12fc4185-39">
                <path d="M-0.24,-0.88 L 0.24 -0.88 0.24 0.88 -0.24 0.88 z" class="primitive"/>
              </g>
              <g transform="translate(28.08,76.34)" id="img-12fc4185-40">
                <path d="M-0.24,-0.88 L 0.24 -0.88 0.24 0.88 -0.24 0.88 z" class="primitive"/>
              </g>
              <g transform="translate(28.5,77.22)" id="img-12fc4185-41">
                <path d="M-0.24,-0 L 0.24 -0 0.24 0 -0.24 0 z" class="primitive"/>
              </g>
              <g transform="translate(28.93,77.22)" id="img-12fc4185-42">
                <path d="M-0.24,-0 L 0.24 -0 0.24 0 -0.24 0 z" class="primitive"/>
              </g>
              <g transform="translate(29.35,75.46)" id="img-12fc4185-43">
                <path d="M-0.24,-1.76 L 0.24 -1.76 0.24 1.76 -0.24 1.76 z" class="primitive"/>
              </g>
              <g transform="translate(29.77,77.22)" id="img-12fc4185-44">
                <path d="M-0.24,-0 L 0.24 -0 0.24 0 -0.24 0 z" class="primitive"/>
              </g>
              <g transform="translate(30.2,73.7)" id="img-12fc4185-45">
                <path d="M-0.24,-3.51 L 0.24 -3.51 0.24 3.51 -0.24 3.51 z" class="primitive"/>
              </g>
              <g transform="translate(30.62,75.46)" id="img-12fc4185-46">
                <path d="M-0.24,-1.76 L 0.24 -1.76 0.24 1.76 -0.24 1.76 z" class="primitive"/>
              </g>
              <g transform="translate(31.04,75.46)" id="img-12fc4185-47">
                <path d="M-0.24,-1.76 L 0.24 -1.76 0.24 1.76 -0.24 1.76 z" class="primitive"/>
              </g>
              <g transform="translate(31.46,73.7)" id="img-12fc4185-48">
                <path d="M-0.24,-3.51 L 0.24 -3.51 0.24 3.51 -0.24 3.51 z" class="primitive"/>
              </g>
              <g transform="translate(31.89,75.46)" id="img-12fc4185-49">
                <path d="M-0.24,-1.76 L 0.24 -1.76 0.24 1.76 -0.24 1.76 z" class="primitive"/>
              </g>
              <g transform="translate(32.31,73.7)" id="img-12fc4185-50">
                <path d="M-0.24,-3.51 L 0.24 -3.51 0.24 3.51 -0.24 3.51 z" class="primitive"/>
              </g>
              <g transform="translate(32.73,71.95)" id="img-12fc4185-51">
                <path d="M-0.24,-5.27 L 0.24 -5.27 0.24 5.27 -0.24 5.27 z" class="primitive"/>
              </g>
              <g transform="translate(33.16,71.07)" id="img-12fc4185-52">
                <path d="M-0.24,-6.14 L 0.24 -6.14 0.24 6.14 -0.24 6.14 z" class="primitive"/>
              </g>
              <g transform="translate(33.58,71.95)" id="img-12fc4185-53">
                <path d="M-0.24,-5.27 L 0.24 -5.27 0.24 5.27 -0.24 5.27 z" class="primitive"/>
              </g>
              <g transform="translate(34,71.95)" id="img-12fc4185-54">
                <path d="M-0.24,-5.27 L 0.24 -5.27 0.24 5.27 -0.24 5.27 z" class="primitive"/>
              </g>
              <g transform="translate(34.43,69.31)" id="img-12fc4185-55">
                <path d="M-0.24,-7.9 L 0.24 -7.9 0.24 7.9 -0.24 7.9 z" class="primitive"/>
              </g>
              <g transform="translate(34.85,69.31)" id="img-12fc4185-56">
                <path d="M-0.24,-7.9 L 0.24 -7.9 0.24 7.9 -0.24 7.9 z" class="primitive"/>
              </g>
              <g transform="translate(35.27,62.29)" id="img-12fc4185-57">
                <path d="M-0.24,-14.92 L 0.24 -14.92 0.24 14.92 -0.24 14.92 z" class="primitive"/>
              </g>
              <g transform="translate(35.7,67.56)" id="img-12fc4185-58">
                <path d="M-0.24,-9.65 L 0.24 -9.65 0.24 9.65 -0.24 9.65 z" class="primitive"/>
              </g>
              <g transform="translate(36.12,64.93)" id="img-12fc4185-59">
                <path d="M-0.24,-12.29 L 0.24 -12.29 0.24 12.29 -0.24 12.29 z" class="primitive"/>
              </g>
              <g transform="translate(36.54,67.56)" id="img-12fc4185-60">
                <path d="M-0.24,-9.65 L 0.24 -9.65 0.24 9.65 -0.24 9.65 z" class="primitive"/>
              </g>
              <g transform="translate(36.97,69.31)" id="img-12fc4185-61">
                <path d="M-0.24,-7.9 L 0.24 -7.9 0.24 7.9 -0.24 7.9 z" class="primitive"/>
              </g>
              <g transform="translate(37.39,60.54)" id="img-12fc4185-62">
                <path d="M-0.24,-16.68 L 0.24 -16.68 0.24 16.68 -0.24 16.68 z" class="primitive"/>
              </g>
              <g transform="translate(37.81,60.54)" id="img-12fc4185-63">
                <path d="M-0.24,-16.68 L 0.24 -16.68 0.24 16.68 -0.24 16.68 z" class="primitive"/>
              </g>
              <g transform="translate(38.24,58.78)" id="img-12fc4185-64">
                <path d="M-0.24,-18.43 L 0.24 -18.43 0.24 18.43 -0.24 18.43 z" class="primitive"/>
              </g>
              <g transform="translate(38.66,62.29)" id="img-12fc4185-65">
                <path d="M-0.24,-14.92 L 0.24 -14.92 0.24 14.92 -0.24 14.92 z" class="primitive"/>
              </g>
              <g transform="translate(39.08,57.9)" id="img-12fc4185-66">
                <path d="M-0.24,-19.31 L 0.24 -19.31 0.24 19.31 -0.24 19.31 z" class="primitive"/>
              </g>
              <g transform="translate(39.51,61.42)" id="img-12fc4185-67">
                <path d="M-0.24,-15.8 L 0.24 -15.8 0.24 15.8 -0.24 15.8 z" class="primitive"/>
              </g>
              <g transform="translate(39.93,54.39)" id="img-12fc4185-68">
                <path d="M-0.24,-22.82 L 0.24 -22.82 0.24 22.82 -0.24 22.82 z" class="primitive"/>
              </g>
              <g transform="translate(40.35,53.52)" id="img-12fc4185-69">
                <path d="M-0.24,-23.7 L 0.24 -23.7 0.24 23.7 -0.24 23.7 z" class="primitive"/>
              </g>
              <g transform="translate(40.78,57.9)" id="img-12fc4185-70">
                <path d="M-0.24,-19.31 L 0.24 -19.31 0.24 19.31 -0.24 19.31 z" class="primitive"/>
              </g>
              <g transform="translate(41.2,54.39)" id="img-12fc4185-71">
                <path d="M-0.24,-22.82 L 0.24 -22.82 0.24 22.82 -0.24 22.82 z" class="primitive"/>
              </g>
              <g transform="translate(41.62,58.78)" id="img-12fc4185-72">
                <path d="M-0.24,-18.43 L 0.24 -18.43 0.24 18.43 -0.24 18.43 z" class="primitive"/>
              </g>
              <g transform="translate(42.05,47.37)" id="img-12fc4185-73">
                <path d="M-0.24,-29.84 L 0.24 -29.84 0.24 29.84 -0.24 29.84 z" class="primitive"/>
              </g>
              <g transform="translate(42.47,53.52)" id="img-12fc4185-74">
                <path d="M-0.24,-23.7 L 0.24 -23.7 0.24 23.7 -0.24 23.7 z" class="primitive"/>
              </g>
              <g transform="translate(42.89,57.9)" id="img-12fc4185-75">
                <path d="M-0.24,-19.31 L 0.24 -19.31 0.24 19.31 -0.24 19.31 z" class="primitive"/>
              </g>
              <g transform="translate(43.32,53.52)" id="img-12fc4185-76">
                <path d="M-0.24,-23.7 L 0.24 -23.7 0.24 23.7 -0.24 23.7 z" class="primitive"/>
              </g>
              <g transform="translate(43.74,45.62)" id="img-12fc4185-77">
                <path d="M-0.24,-31.6 L 0.24 -31.6 0.24 31.6 -0.24 31.6 z" class="primitive"/>
              </g>
              <g transform="translate(44.16,48.25)" id="img-12fc4185-78">
                <path d="M-0.24,-28.96 L 0.24 -28.96 0.24 28.96 -0.24 28.96 z" class="primitive"/>
              </g>
              <g transform="translate(44.59,56.15)" id="img-12fc4185-79">
                <path d="M-0.24,-21.06 L 0.24 -21.06 0.24 21.06 -0.24 21.06 z" class="primitive"/>
              </g>
              <g transform="translate(45.01,63.17)" id="img-12fc4185-80">
                <path d="M-0.24,-14.04 L 0.24 -14.04 0.24 14.04 -0.24 14.04 z" class="primitive"/>
              </g>
              <g transform="translate(45.43,46.5)" id="img-12fc4185-81">
                <path d="M-0.24,-30.72 L 0.24 -30.72 0.24 30.72 -0.24 30.72 z" class="primitive"/>
              </g>
              <g transform="translate(45.86,54.39)" id="img-12fc4185-82">
                <path d="M-0.24,-22.82 L 0.24 -22.82 0.24 22.82 -0.24 22.82 z" class="primitive"/>
              </g>
              <g transform="translate(46.28,51.76)" id="img-12fc4185-83">
                <path d="M-0.24,-25.45 L 0.24 -25.45 0.24 25.45 -0.24 25.45 z" class="primitive"/>
              </g>
              <g transform="translate(46.7,54.39)" id="img-12fc4185-84">
                <path d="M-0.24,-22.82 L 0.24 -22.82 0.24 22.82 -0.24 22.82 z" class="primitive"/>
              </g>
              <g transform="translate(47.13,56.15)" id="img-12fc4185-85">
                <path d="M-0.24,-21.06 L 0.24 -21.06 0.24 21.06 -0.24 21.06 z" class="primitive"/>
              </g>
              <g transform="translate(47.55,54.39)" id="img-12fc4185-86">
                <path d="M-0.24,-22.82 L 0.24 -22.82 0.24 22.82 -0.24 22.82 z" class="primitive"/>
              </g>
              <g transform="translate(47.97,58.78)" id="img-12fc4185-87">
                <path d="M-0.24,-18.43 L 0.24 -18.43 0.24 18.43 -0.24 18.43 z" class="primitive"/>
              </g>
              <g transform="translate(48.4,59.66)" id="img-12fc4185-88">
                <path d="M-0.24,-17.55 L 0.24 -17.55 0.24 17.55 -0.24 17.55 z" class="primitive"/>
              </g>
              <g transform="translate(48.82,60.54)" id="img-12fc4185-89">
                <path d="M-0.24,-16.68 L 0.24 -16.68 0.24 16.68 -0.24 16.68 z" class="primitive"/>
              </g>
              <g transform="translate(49.24,53.52)" id="img-12fc4185-90">
                <path d="M-0.24,-23.7 L 0.24 -23.7 0.24 23.7 -0.24 23.7 z" class="primitive"/>
              </g>
              <g transform="translate(49.67,67.56)" id="img-12fc4185-91">
                <path d="M-0.24,-9.65 L 0.24 -9.65 0.24 9.65 -0.24 9.65 z" class="primitive"/>
              </g>
              <g transform="translate(50.09,64.93)" id="img-12fc4185-92">
                <path d="M-0.24,-12.29 L 0.24 -12.29 0.24 12.29 -0.24 12.29 z" class="primitive"/>
              </g>
              <g transform="translate(50.51,61.42)" id="img-12fc4185-93">
                <path d="M-0.24,-15.8 L 0.24 -15.8 0.24 15.8 -0.24 15.8 z" class="primitive"/>
              </g>
              <g transform="translate(50.94,64.93)" id="img-12fc4185-94">
                <path d="M-0.24,-12.29 L 0.24 -12.29 0.24 12.29 -0.24 12.29 z" class="primitive"/>
              </g>
              <g transform="translate(51.36,67.56)" id="img-12fc4185-95">
                <path d="M-0.24,-9.65 L 0.24 -9.65 0.24 9.65 -0.24 9.65 z" class="primitive"/>
              </g>
              <g transform="translate(51.78,64.05)" id="img-12fc4185-96">
                <path d="M-0.24,-13.17 L 0.24 -13.17 0.24 13.17 -0.24 13.17 z" class="primitive"/>
              </g>
              <g transform="translate(52.21,70.19)" id="img-12fc4185-97">
                <path d="M-0.24,-7.02 L 0.24 -7.02 0.24 7.02 -0.24 7.02 z" class="primitive"/>
              </g>
              <g transform="translate(52.63,71.07)" id="img-12fc4185-98">
                <path d="M-0.24,-6.14 L 0.24 -6.14 0.24 6.14 -0.24 6.14 z" class="primitive"/>
              </g>
              <g transform="translate(53.05,71.07)" id="img-12fc4185-99">
                <path d="M-0.24,-6.14 L 0.24 -6.14 0.24 6.14 -0.24 6.14 z" class="primitive"/>
              </g>
              <g transform="translate(53.48,72.82)" id="img-12fc4185-100">
                <path d="M-0.24,-4.39 L 0.24 -4.39 0.24 4.39 -0.24 4.39 z" class="primitive"/>
              </g>
              <g transform="translate(53.9,71.07)" id="img-12fc4185-101">
                <path d="M-0.24,-6.14 L 0.24 -6.14 0.24 6.14 -0.24 6.14 z" class="primitive"/>
              </g>
              <g transform="translate(54.32,73.7)" id="img-12fc4185-102">
                <path d="M-0.24,-3.51 L 0.24 -3.51 0.24 3.51 -0.24 3.51 z" class="primitive"/>
              </g>
              <g transform="translate(54.75,75.46)" id="img-12fc4185-103">
                <path d="M-0.24,-1.76 L 0.24 -1.76 0.24 1.76 -0.24 1.76 z" class="primitive"/>
              </g>
              <g transform="translate(55.17,74.58)" id="img-12fc4185-104">
                <path d="M-0.24,-2.63 L 0.24 -2.63 0.24 2.63 -0.24 2.63 z" class="primitive"/>
              </g>
              <g transform="translate(55.59,72.82)" id="img-12fc4185-105">
                <path d="M-0.24,-4.39 L 0.24 -4.39 0.24 4.39 -0.24 4.39 z" class="primitive"/>
              </g>
              <g transform="translate(56.01,76.34)" id="img-12fc4185-106">
                <path d="M-0.24,-0.88 L 0.24 -0.88 0.24 0.88 -0.24 0.88 z" class="primitive"/>
              </g>
              <g transform="translate(56.44,73.7)" id="img-12fc4185-107">
                <path d="M-0.24,-3.51 L 0.24 -3.51 0.24 3.51 -0.24 3.51 z" class="primitive"/>
              </g>
              <g transform="translate(56.86,75.46)" id="img-12fc4185-108">
                <path d="M-0.24,-1.76 L 0.24 -1.76 0.24 1.76 -0.24 1.76 z" class="primitive"/>
              </g>
              <g transform="translate(57.28,73.7)" id="img-12fc4185-109">
                <path d="M-0.24,-3.51 L 0.24 -3.51 0.24 3.51 -0.24 3.51 z" class="primitive"/>
              </g>
              <g transform="translate(57.71,74.58)" id="img-12fc4185-110">
                <path d="M-0.24,-2.63 L 0.24 -2.63 0.24 2.63 -0.24 2.63 z" class="primitive"/>
              </g>
              <g transform="translate(58.13,76.34)" id="img-12fc4185-111">
                <path d="M-0.24,-0.88 L 0.24 -0.88 0.24 0.88 -0.24 0.88 z" class="primitive"/>
              </g>
              <g transform="translate(58.55,76.34)" id="img-12fc4185-112">
                <path d="M-0.24,-0.88 L 0.24 -0.88 0.24 0.88 -0.24 0.88 z" class="primitive"/>
              </g>
              <g transform="translate(58.98,77.22)" id="img-12fc4185-113">
                <path d="M-0.24,-0 L 0.24 -0 0.24 0 -0.24 0 z" class="primitive"/>
              </g>
              <g transform="translate(59.4,76.34)" id="img-12fc4185-114">
                <path d="M-0.24,-0.88 L 0.24 -0.88 0.24 0.88 -0.24 0.88 z" class="primitive"/>
              </g>
              <g transform="translate(59.82,73.7)" id="img-12fc4185-115">
                <path d="M-0.24,-3.51 L 0.24 -3.51 0.24 3.51 -0.24 3.51 z" class="primitive"/>
              </g>
              <g transform="translate(60.25,77.22)" id="img-12fc4185-116">
                <path d="M-0.24,-0 L 0.24 -0 0.24 0 -0.24 0 z" class="primitive"/>
              </g>
              <g transform="translate(60.67,75.46)" id="img-12fc4185-117">
                <path d="M-0.24,-1.76 L 0.24 -1.76 0.24 1.76 -0.24 1.76 z" class="primitive"/>
              </g>
              <g transform="translate(61.09,75.46)" id="img-12fc4185-118">
                <path d="M-0.24,-1.76 L 0.24 -1.76 0.24 1.76 -0.24 1.76 z" class="primitive"/>
              </g>
              <g transform="translate(61.52,77.22)" id="img-12fc4185-119">
                <path d="M-0.24,-0 L 0.24 -0 0.24 0 -0.24 0 z" class="primitive"/>
              </g>
              <g transform="translate(61.94,75.46)" id="img-12fc4185-120">
                <path d="M-0.24,-1.76 L 0.24 -1.76 0.24 1.76 -0.24 1.76 z" class="primitive"/>
              </g>
              <g transform="translate(62.36,77.22)" id="img-12fc4185-121">
                <path d="M-0.24,-0 L 0.24 -0 0.24 0 -0.24 0 z" class="primitive"/>
              </g>
              <g transform="translate(62.79,77.22)" id="img-12fc4185-122">
                <path d="M-0.24,-0 L 0.24 -0 0.24 0 -0.24 0 z" class="primitive"/>
              </g>
              <g transform="translate(63.21,77.22)" id="img-12fc4185-123">
                <path d="M-0.24,-0 L 0.24 -0 0.24 0 -0.24 0 z" class="primitive"/>
              </g>
              <g transform="translate(63.63,75.46)" id="img-12fc4185-124">
                <path d="M-0.24,-1.76 L 0.24 -1.76 0.24 1.76 -0.24 1.76 z" class="primitive"/>
              </g>
              <g transform="translate(64.06,77.22)" id="img-12fc4185-125">
                <path d="M-0.24,-0 L 0.24 -0 0.24 0 -0.24 0 z" class="primitive"/>
              </g>
              <g transform="translate(64.48,77.22)" id="img-12fc4185-126">
                <path d="M-0.24,-0 L 0.24 -0 0.24 0 -0.24 0 z" class="primitive"/>
              </g>
              <g transform="translate(64.9,77.22)" id="img-12fc4185-127">
                <path d="M-0.24,-0 L 0.24 -0 0.24 0 -0.24 0 z" class="primitive"/>
              </g>
              <g transform="translate(65.33,77.22)" id="img-12fc4185-128">
                <path d="M-0.24,-0 L 0.24 -0 0.24 0 -0.24 0 z" class="primitive"/>
              </g>
              <g transform="translate(65.75,77.22)" id="img-12fc4185-129">
                <path d="M-0.24,-0 L 0.24 -0 0.24 0 -0.24 0 z" class="primitive"/>
              </g>
              <g transform="translate(66.17,77.22)" id="img-12fc4185-130">
                <path d="M-0.24,-0 L 0.24 -0 0.24 0 -0.24 0 z" class="primitive"/>
              </g>
              <g transform="translate(66.6,76.34)" id="img-12fc4185-131">
                <path d="M-0.24,-0.88 L 0.24 -0.88 0.24 0.88 -0.24 0.88 z" class="primitive"/>
              </g>
            </g>
          </g>
        </g>
      </g>
    </g>
  </g>
  <g class="guide ylabels" font-size="2.82" font-family="'PT Sans Caption','Helvetica Neue','Helvetica',sans-serif" fill="#6C606B" id="img-12fc4185-132">
    <g transform="translate(16.96,77.21)" id="img-12fc4185-133">
      <g class="primitive">
        <text text-anchor="end" dy="0.35em">0</text>
      </g>
    </g>
    <g transform="translate(16.96,59.66)" id="img-12fc4185-134">
      <g class="primitive">
        <text text-anchor="end" dy="0.35em">10</text>
      </g>
    </g>
    <g transform="translate(16.96,42.11)" id="img-12fc4185-135">
      <g class="primitive">
        <text text-anchor="end" dy="0.35em">20</text>
      </g>
    </g>
    <g transform="translate(16.96,24.55)" id="img-12fc4185-136">
      <g class="primitive">
        <text text-anchor="end" dy="0.35em">30</text>
      </g>
    </g>
    <g transform="translate(16.96,7)" id="img-12fc4185-137">
      <g class="primitive">
        <text text-anchor="end" dy="0.35em">40</text>
      </g>
    </g>
  </g>
  <g font-size="3.88" font-family="'PT Sans','Helvetica Neue','Helvetica',sans-serif" fill="#564A55" stroke="#000000" stroke-opacity="0.000" id="img-12fc4185-138">
    <g transform="translate(8.81,40.11)" id="img-12fc4185-139">
      <g class="primitive">
        <text text-anchor="middle" dy="0.35em" transform="rotate(-90,0, 2)">frequency</text>
      </g>
    </g>
  </g>
</g>
<defs>
  <clipPath id="img-12fc4185-11">
    <path d="M17.96,5 L 79.29 5 79.29 79.21 17.96 79.21" />
  </clipPath>
</defs>
</svg>
