<?xml version="1.0" encoding="UTF-8"?>
<svg xmlns="http://www.w3.org/2000/svg"
     xmlns:xlink="http://www.w3.org/1999/xlink"
     xmlns:gadfly="http://www.gadflyjl.org/ns"
     version="1.2"
     width="141.42mm" height="100mm" viewBox="0 0 141.42 100"
     stroke="none"
     fill="#000000"
     stroke-width="0.3"
     font-size="3.88"
>
<defs>
  <marker id="arrow" markerWidth="15" markerHeight="7" refX="5" refY="3.5" orient="auto" markerUnits="strokeWidth">
    <path d="M0,0 L15,3.5 L0,7 z" stroke="context-stroke" fill="context-stroke"/>
  </marker>
</defs>
<g class="plotroot xscalable yscalable" id="img-623b2ce3-1">
  <g class="guide xlabels" font-size="2.82" font-family="'PT Sans Caption','Helvetica Neue','Helvetica',sans-serif" fill="#6C606B" id="img-623b2ce3-2">
    <g transform="translate(19.96,81.89)">
      <g class="primitive">
        <text text-anchor="end" dy="0.35em" transform="rotate(-90,0, 0)">1.5×10⁴</text>
      </g>
    </g>
    <g transform="translate(32.57,81.89)">
      <g class="primitive">
        <text text-anchor="end" dy="0.35em" transform="rotate(-90,0, 0)">2.0×10⁴</text>
      </g>
    </g>
    <g transform="translate(45.18,81.89)">
      <g class="primitive">
        <text text-anchor="end" dy="0.35em" transform="rotate(-90,0, 0)">2.5×10⁴</text>
      </g>
    </g>
    <g transform="translate(57.79,81.89)">
      <g class="primitive">
        <text text-anchor="end" dy="0.35em" transform="rotate(-90,0, 0)">3.0×10⁴</text>
      </g>
    </g>
    <g transform="translate(70.4,81.89)">
      <g class="primitive">
        <text text-anchor="end" dy="0.35em" transform="rotate(-90,0, 0)">3.5×10⁴</text>
      </g>
    </g>
  </g>
  <g class="guide colorkey" id="img-623b2ce3-3">
    <g class="color_coding_noncoding_noncoding_noncoding_4-chord" id="img-623b2ce3-4">
      <g fill="#4C404B" font-size="2.82" font-family="'PT Sans','Helvetica Neue','Helvetica',sans-serif" id="img-623b2ce3-5">
        <g transform="translate(76.21,44.76)" id="img-623b2ce3-6">
          <g class="primitive">
            <text dy="0.35em">coding_noncoding_noncoding_noncoding_4-chord</text>
          </g>
        </g>
      </g>
      <g fill-opacity="1" fill="#00BFFF" stroke="#FFFFFF" id="img-623b2ce3-7">
        <g transform="translate(74.31,44.76)" id="img-623b2ce3-8">
          <path d="M-0.91,-0.91 L 0.91 -0.91 0.91 0.91 -0.91 0.91 z" class="primitive"/>
        </g>
      </g>
    </g>
    <g fill="#362A35" font-size="3.88" font-family="'PT Sans','Helvetica Neue','Helvetica',sans-serif" stroke="#000000" stroke-opacity="0.000" id="img-623b2ce3-9">
      <g transform="translate(73.4,40.94)" id="img-623b2ce3-10">
        <g class="primitive">
          <text dy="-0em">graphlet</text>
        </g>
      </g>
    </g>
  </g>
  <g clip-path="url(#img-623b2ce3-11)">
    <g id="img-623b2ce3-12">
      <g pointer-events="visible" stroke-width="0.3" fill="#000000" fill-opacity="0.000" stroke="#000000" stroke-opacity="0.000" class="guide background" id="img-623b2ce3-13">
        <g transform="translate(45.18,42.94)" id="img-623b2ce3-14">
          <path d="M-27.22,-37.94 L 27.22 -37.94 27.22 37.94 -27.22 37.94 z" class="primitive"/>
        </g>
      </g>
      <g class="guide ygridlines xfixed" stroke-dasharray="0.5,0.5" stroke-width="0.2" stroke="#D0D0E0" id="img-623b2ce3-15">
        <g transform="translate(45.18,78.89)" id="img-623b2ce3-16">
          <path fill="none" d="M-27.22,0 L 27.22 0" class="primitive"/>
        </g>
        <g transform="translate(45.18,60.92)" id="img-623b2ce3-17">
          <path fill="none" d="M-27.22,0 L 27.22 0" class="primitive"/>
        </g>
        <g transform="translate(45.18,42.94)" id="img-623b2ce3-18">
          <path fill="none" d="M-27.22,0 L 27.22 0" class="primitive"/>
        </g>
        <g transform="translate(45.18,24.97)" id="img-623b2ce3-19">
          <path fill="none" d="M-27.22,0 L 27.22 0" class="primitive"/>
        </g>
        <g transform="translate(45.18,7)" id="img-623b2ce3-20">
          <path fill="none" d="M-27.22,0 L 27.22 0" class="primitive"/>
        </g>
      </g>
      <g class="guide xgridlines yfixed" stroke-dasharray="0.5,0.5" stroke-width="0.2" stroke="#D0D0E0" id="img-623b2ce3-21">
        <g transform="translate(19.96,42.94)" id="img-623b2ce3-22">
          <path fill="none" d="M0,-37.94 L 0 37.94" class="primitive"/>
        </g>
        <g transform="translate(32.57,42.94)" id="img-623b2ce3-23">
          <path fill="none" d="M0,-37.94 L 0 37.94" class="primitive"/>
        </g>
        <g transform="translate(45.18,42.94)" id="img-623b2ce3-24">
          <path fill="none" d="M0,-37.94 L 0 37.94" class="primitive"/>
        </g>
        <g transform="translate(57.79,42.94)" id="img-623b2ce3-25">
          <path fill="none" d="M0,-37.94 L 0 37.94" class="primitive"/>
        </g>
        <g transform="translate(70.4,42.94)" id="img-623b2ce3-26">
          <path fill="none" d="M0,-37.94 L 0 37.94" class="primitive"/>
        </g>
      </g>
      <g class="plotpanel" id="img-623b2ce3-27">
        <metadata>
          <boundingbox value="17.958333333333336mm 5.0mm 54.443022903976164mm 75.88666666666667mm"/>
          <unitbox value="14207.026111893721 41.112862839655016 21585.947776212557 -42.225725679310024"/>
        </metadata>
        <g shape-rendering="crispEdges" stroke-width="0.3" id="img-623b2ce3-28">
          <g stroke="#000000" stroke-opacity="0.000" class="geometry" id="img-623b2ce3-29">
            <g fill="#00BFFF" id="img-623b2ce3-30">
              <g transform="translate(21.86,76.19)" id="img-623b2ce3-31">
                <path d="M-0.22,-2.7 L 0.22 -2.7 0.22 2.7 -0.22 2.7 z" class="primitive"/>
              </g>
              <g transform="translate(22.25,78.89)" id="img-623b2ce3-32">
                <path d="M-0.22,-0 L 0.22 -0 0.22 0 -0.22 0 z" class="primitive"/>
              </g>
              <g transform="translate(22.63,78.89)" id="img-623b2ce3-33">
                <path d="M-0.22,-0 L 0.22 -0 0.22 0 -0.22 0 z" class="primitive"/>
              </g>
              <g transform="translate(23.01,77.99)" id="img-623b2ce3-34">
                <path d="M-0.22,-0.9 L 0.22 -0.9 0.22 0.9 -0.22 0.9 z" class="primitive"/>
              </g>
              <g transform="translate(23.4,77.99)" id="img-623b2ce3-35">
                <path d="M-0.22,-0.9 L 0.22 -0.9 0.22 0.9 -0.22 0.9 z" class="primitive"/>
              </g>
              <g transform="translate(23.78,78.89)" id="img-623b2ce3-36">
                <path d="M-0.22,-0 L 0.22 -0 0.22 0 -0.22 0 z" class="primitive"/>
              </g>
              <g transform="translate(24.16,77.99)" id="img-623b2ce3-37">
                <path d="M-0.22,-0.9 L 0.22 -0.9 0.22 0.9 -0.22 0.9 z" class="primitive"/>
              </g>
              <g transform="translate(24.54,77.99)" id="img-623b2ce3-38">
                <path d="M-0.22,-0.9 L 0.22 -0.9 0.22 0.9 -0.22 0.9 z" class="primitive"/>
              </g>
              <g transform="translate(24.93,77.99)" id="img-623b2ce3-39">
                <path d="M-0.22,-0.9 L 0.22 -0.9 0.22 0.9 -0.22 0.9 z" class="primitive"/>
              </g>
              <g transform="translate(25.31,77.09)" id="img-623b2ce3-40">
                <path d="M-0.22,-1.8 L 0.22 -1.8 0.22 1.8 -0.22 1.8 z" class="primitive"/>
              </g>
              <g transform="translate(25.69,75.29)" id="img-623b2ce3-41">
                <path d="M-0.22,-3.59 L 0.22 -3.59 0.22 3.59 -0.22 3.59 z" class="primitive"/>
              </g>
              <g transform="translate(26.07,77.09)" id="img-623b2ce3-42">
                <path d="M-0.22,-1.8 L 0.22 -1.8 0.22 1.8 -0.22 1.8 z" class="primitive"/>
              </g>
              <g transform="translate(26.46,73.5)" id="img-623b2ce3-43">
                <path d="M-0.22,-5.39 L 0.22 -5.39 0.22 5.39 -0.22 5.39 z" class="primitive"/>
              </g>
              <g transform="translate(26.84,71.7)" id="img-623b2ce3-44">
                <path d="M-0.22,-7.19 L 0.22 -7.19 0.22 7.19 -0.22 7.19 z" class="primitive"/>
              </g>
              <g transform="translate(27.22,76.19)" id="img-623b2ce3-45">
                <path d="M-0.22,-2.7 L 0.22 -2.7 0.22 2.7 -0.22 2.7 z" class="primitive"/>
              </g>
              <g transform="translate(27.61,74.39)" id="img-623b2ce3-46">
                <path d="M-0.22,-4.49 L 0.22 -4.49 0.22 4.49 -0.22 4.49 z" class="primitive"/>
              </g>
              <g transform="translate(27.99,73.5)" id="img-623b2ce3-47">
                <path d="M-0.22,-5.39 L 0.22 -5.39 0.22 5.39 -0.22 5.39 z" class="primitive"/>
              </g>
              <g transform="translate(28.37,72.6)" id="img-623b2ce3-48">
                <path d="M-0.22,-6.29 L 0.22 -6.29 0.22 6.29 -0.22 6.29 z" class="primitive"/>
              </g>
              <g transform="translate(28.75,74.39)" id="img-623b2ce3-49">
                <path d="M-0.22,-4.49 L 0.22 -4.49 0.22 4.49 -0.22 4.49 z" class="primitive"/>
              </g>
              <g transform="translate(29.14,74.39)" id="img-623b2ce3-50">
                <path d="M-0.22,-4.49 L 0.22 -4.49 0.22 4.49 -0.22 4.49 z" class="primitive"/>
              </g>
              <g transform="translate(29.52,72.6)" id="img-623b2ce3-51">
                <path d="M-0.22,-6.29 L 0.22 -6.29 0.22 6.29 -0.22 6.29 z" class="primitive"/>
              </g>
              <g transform="translate(29.9,71.7)" id="img-623b2ce3-52">
                <path d="M-0.22,-7.19 L 0.22 -7.19 0.22 7.19 -0.22 7.19 z" class="primitive"/>
              </g>
              <g transform="translate(30.28,67.21)" id="img-623b2ce3-53">
                <path d="M-0.22,-11.68 L 0.22 -11.68 0.22 11.68 -0.22 11.68 z" class="primitive"/>
              </g>
              <g transform="translate(30.67,67.21)" id="img-623b2ce3-54">
                <path d="M-0.22,-11.68 L 0.22 -11.68 0.22 11.68 -0.22 11.68 z" class="primitive"/>
              </g>
              <g transform="translate(31.05,69)" id="img-623b2ce3-55">
                <path d="M-0.22,-9.88 L 0.22 -9.88 0.22 9.88 -0.22 9.88 z" class="primitive"/>
              </g>
              <g transform="translate(31.43,68.1)" id="img-623b2ce3-56">
                <path d="M-0.22,-10.78 L 0.22 -10.78 0.22 10.78 -0.22 10.78 z" class="primitive"/>
              </g>
              <g transform="translate(31.82,68.1)" id="img-623b2ce3-57">
                <path d="M-0.22,-10.78 L 0.22 -10.78 0.22 10.78 -0.22 10.78 z" class="primitive"/>
              </g>
              <g transform="translate(32.2,57.32)" id="img-623b2ce3-58">
                <path d="M-0.22,-21.57 L 0.22 -21.57 0.22 21.57 -0.22 21.57 z" class="primitive"/>
              </g>
              <g transform="translate(32.58,60.92)" id="img-623b2ce3-59">
                <path d="M-0.22,-17.97 L 0.22 -17.97 0.22 17.97 -0.22 17.97 z" class="primitive"/>
              </g>
              <g transform="translate(32.96,59.12)" id="img-623b2ce3-60">
                <path d="M-0.22,-19.77 L 0.22 -19.77 0.22 19.77 -0.22 19.77 z" class="primitive"/>
              </g>
              <g transform="translate(33.35,60.92)" id="img-623b2ce3-61">
                <path d="M-0.22,-17.97 L 0.22 -17.97 0.22 17.97 -0.22 17.97 z" class="primitive"/>
              </g>
              <g transform="translate(33.73,64.51)" id="img-623b2ce3-62">
                <path d="M-0.22,-14.38 L 0.22 -14.38 0.22 14.38 -0.22 14.38 z" class="primitive"/>
              </g>
              <g transform="translate(34.11,67.21)" id="img-623b2ce3-63">
                <path d="M-0.22,-11.68 L 0.22 -11.68 0.22 11.68 -0.22 11.68 z" class="primitive"/>
              </g>
              <g transform="translate(34.49,60.02)" id="img-623b2ce3-64">
                <path d="M-0.22,-18.87 L 0.22 -18.87 0.22 18.87 -0.22 18.87 z" class="primitive"/>
              </g>
              <g transform="translate(34.88,63.61)" id="img-623b2ce3-65">
                <path d="M-0.22,-15.28 L 0.22 -15.28 0.22 15.28 -0.22 15.28 z" class="primitive"/>
              </g>
              <g transform="translate(35.26,64.51)" id="img-623b2ce3-66">
                <path d="M-0.22,-14.38 L 0.22 -14.38 0.22 14.38 -0.22 14.38 z" class="primitive"/>
              </g>
              <g transform="translate(35.64,59.12)" id="img-623b2ce3-67">
                <path d="M-0.22,-19.77 L 0.22 -19.77 0.22 19.77 -0.22 19.77 z" class="primitive"/>
              </g>
              <g transform="translate(36.03,59.12)" id="img-623b2ce3-68">
                <path d="M-0.22,-19.77 L 0.22 -19.77 0.22 19.77 -0.22 19.77 z" class="primitive"/>
              </g>
              <g transform="translate(36.41,60.92)" id="img-623b2ce3-69">
                <path d="M-0.22,-17.97 L 0.22 -17.97 0.22 17.97 -0.22 17.97 z" class="primitive"/>
              </g>
              <g transform="translate(36.79,63.61)" id="img-623b2ce3-70">
                <path d="M-0.22,-15.28 L 0.22 -15.28 0.22 15.28 -0.22 15.28 z" class="primitive"/>
              </g>
              <g transform="translate(37.17,55.52)" id="img-623b2ce3-71">
                <path d="M-0.22,-23.36 L 0.22 -23.36 0.22 23.36 -0.22 23.36 z" class="primitive"/>
              </g>
              <g transform="translate(37.56,58.22)" id="img-623b2ce3-72">
                <path d="M-0.22,-20.67 L 0.22 -20.67 0.22 20.67 -0.22 20.67 z" class="primitive"/>
              </g>
              <g transform="translate(37.94,59.12)" id="img-623b2ce3-73">
                <path d="M-0.22,-19.77 L 0.22 -19.77 0.22 19.77 -0.22 19.77 z" class="primitive"/>
              </g>
              <g transform="translate(38.32,51.03)" id="img-623b2ce3-74">
                <path d="M-0.22,-27.86 L 0.22 -27.86 0.22 27.86 -0.22 27.86 z" class="primitive"/>
              </g>
              <g transform="translate(38.7,47.44)" id="img-623b2ce3-75">
                <path d="M-0.22,-31.45 L 0.22 -31.45 0.22 31.45 -0.22 31.45 z" class="primitive"/>
              </g>
              <g transform="translate(39.09,55.52)" id="img-623b2ce3-76">
                <path d="M-0.22,-23.36 L 0.22 -23.36 0.22 23.36 -0.22 23.36 z" class="primitive"/>
              </g>
              <g transform="translate(39.47,64.51)" id="img-623b2ce3-77">
                <path d="M-0.22,-14.38 L 0.22 -14.38 0.22 14.38 -0.22 14.38 z" class="primitive"/>
              </g>
              <g transform="translate(39.85,51.03)" id="img-623b2ce3-78">
                <path d="M-0.22,-27.86 L 0.22 -27.86 0.22 27.86 -0.22 27.86 z" class="primitive"/>
              </g>
              <g transform="translate(40.23,51.93)" id="img-623b2ce3-79">
                <path d="M-0.22,-26.96 L 0.22 -26.96 0.22 26.96 -0.22 26.96 z" class="primitive"/>
              </g>
              <g transform="translate(40.62,61.81)" id="img-623b2ce3-80">
                <path d="M-0.22,-17.07 L 0.22 -17.07 0.22 17.07 -0.22 17.07 z" class="primitive"/>
              </g>
              <g transform="translate(41,59.12)" id="img-623b2ce3-81">
                <path d="M-0.22,-19.77 L 0.22 -19.77 0.22 19.77 -0.22 19.77 z" class="primitive"/>
              </g>
              <g transform="translate(41.38,63.61)" id="img-623b2ce3-82">
                <path d="M-0.22,-15.28 L 0.22 -15.28 0.22 15.28 -0.22 15.28 z" class="primitive"/>
              </g>
              <g transform="translate(41.77,54.62)" id="img-623b2ce3-83">
                <path d="M-0.22,-24.26 L 0.22 -24.26 0.22 24.26 -0.22 24.26 z" class="primitive"/>
              </g>
              <g transform="translate(42.15,60.02)" id="img-623b2ce3-84">
                <path d="M-0.22,-18.87 L 0.22 -18.87 0.22 18.87 -0.22 18.87 z" class="primitive"/>
              </g>
              <g transform="translate(42.53,62.71)" id="img-623b2ce3-85">
                <path d="M-0.22,-16.17 L 0.22 -16.17 0.22 16.17 -0.22 16.17 z" class="primitive"/>
              </g>
              <g transform="translate(42.91,55.52)" id="img-623b2ce3-86">
                <path d="M-0.22,-23.36 L 0.22 -23.36 0.22 23.36 -0.22 23.36 z" class="primitive"/>
              </g>
              <g transform="translate(43.3,66.31)" id="img-623b2ce3-87">
                <path d="M-0.22,-12.58 L 0.22 -12.58 0.22 12.58 -0.22 12.58 z" class="primitive"/>
              </g>
              <g transform="translate(43.68,63.61)" id="img-623b2ce3-88">
                <path d="M-0.22,-15.28 L 0.22 -15.28 0.22 15.28 -0.22 15.28 z" class="primitive"/>
              </g>
              <g transform="translate(44.06,67.21)" id="img-623b2ce3-89">
                <path d="M-0.22,-11.68 L 0.22 -11.68 0.22 11.68 -0.22 11.68 z" class="primitive"/>
              </g>
              <g transform="translate(44.44,71.7)" id="img-623b2ce3-90">
                <path d="M-0.22,-7.19 L 0.22 -7.19 0.22 7.19 -0.22 7.19 z" class="primitive"/>
              </g>
              <g transform="translate(44.83,69.9)" id="img-623b2ce3-91">
                <path d="M-0.22,-8.99 L 0.22 -8.99 0.22 8.99 -0.22 8.99 z" class="primitive"/>
              </g>
              <g transform="translate(45.21,69)" id="img-623b2ce3-92">
                <path d="M-0.22,-9.88 L 0.22 -9.88 0.22 9.88 -0.22 9.88 z" class="primitive"/>
              </g>
              <g transform="translate(45.59,68.1)" id="img-623b2ce3-93">
                <path d="M-0.22,-10.78 L 0.22 -10.78 0.22 10.78 -0.22 10.78 z" class="primitive"/>
              </g>
              <g transform="translate(45.98,67.21)" id="img-623b2ce3-94">
                <path d="M-0.22,-11.68 L 0.22 -11.68 0.22 11.68 -0.22 11.68 z" class="primitive"/>
              </g>
              <g transform="translate(46.36,70.8)" id="img-623b2ce3-95">
                <path d="M-0.22,-8.09 L 0.22 -8.09 0.22 8.09 -0.22 8.09 z" class="primitive"/>
              </g>
              <g transform="translate(46.74,69)" id="img-623b2ce3-96">
                <path d="M-0.22,-9.88 L 0.22 -9.88 0.22 9.88 -0.22 9.88 z" class="primitive"/>
              </g>
              <g transform="translate(47.12,70.8)" id="img-623b2ce3-97">
                <path d="M-0.22,-8.09 L 0.22 -8.09 0.22 8.09 -0.22 8.09 z" class="primitive"/>
              </g>
              <g transform="translate(47.51,70.8)" id="img-623b2ce3-98">
                <path d="M-0.22,-8.09 L 0.22 -8.09 0.22 8.09 -0.22 8.09 z" class="primitive"/>
              </g>
              <g transform="translate(47.89,75.29)" id="img-623b2ce3-99">
                <path d="M-0.22,-3.59 L 0.22 -3.59 0.22 3.59 -0.22 3.59 z" class="primitive"/>
              </g>
              <g transform="translate(48.27,68.1)" id="img-623b2ce3-100">
                <path d="M-0.22,-10.78 L 0.22 -10.78 0.22 10.78 -0.22 10.78 z" class="primitive"/>
              </g>
              <g transform="translate(48.65,73.5)" id="img-623b2ce3-101">
                <path d="M-0.22,-5.39 L 0.22 -5.39 0.22 5.39 -0.22 5.39 z" class="primitive"/>
              </g>
              <g transform="translate(49.04,73.5)" id="img-623b2ce3-102">
                <path d="M-0.22,-5.39 L 0.22 -5.39 0.22 5.39 -0.22 5.39 z" class="primitive"/>
              </g>
              <g transform="translate(49.42,76.19)" id="img-623b2ce3-103">
                <path d="M-0.22,-2.7 L 0.22 -2.7 0.22 2.7 -0.22 2.7 z" class="primitive"/>
              </g>
              <g transform="translate(49.8,73.5)" id="img-623b2ce3-104">
                <path d="M-0.22,-5.39 L 0.22 -5.39 0.22 5.39 -0.22 5.39 z" class="primitive"/>
              </g>
              <g transform="translate(50.19,70.8)" id="img-623b2ce3-105">
                <path d="M-0.22,-8.09 L 0.22 -8.09 0.22 8.09 -0.22 8.09 z" class="primitive"/>
              </g>
              <g transform="translate(50.57,76.19)" id="img-623b2ce3-106">
                <path d="M-0.22,-2.7 L 0.22 -2.7 0.22 2.7 -0.22 2.7 z" class="primitive"/>
              </g>
              <g transform="translate(50.95,75.29)" id="img-623b2ce3-107">
                <path d="M-0.22,-3.59 L 0.22 -3.59 0.22 3.59 -0.22 3.59 z" class="primitive"/>
              </g>
              <g transform="translate(51.33,75.29)" id="img-623b2ce3-108">
                <path d="M-0.22,-3.59 L 0.22 -3.59 0.22 3.59 -0.22 3.59 z" class="primitive"/>
              </g>
              <g transform="translate(51.72,74.39)" id="img-623b2ce3-109">
                <path d="M-0.22,-4.49 L 0.22 -4.49 0.22 4.49 -0.22 4.49 z" class="primitive"/>
              </g>
              <g transform="translate(52.1,74.39)" id="img-623b2ce3-110">
                <path d="M-0.22,-4.49 L 0.22 -4.49 0.22 4.49 -0.22 4.49 z" class="primitive"/>
              </g>
              <g transform="translate(52.48,77.09)" id="img-623b2ce3-111">
                <path d="M-0.22,-1.8 L 0.22 -1.8 0.22 1.8 -0.22 1.8 z" class="primitive"/>
              </g>
              <g transform="translate(52.86,77.99)" id="img-623b2ce3-112">
                <path d="M-0.22,-0.9 L 0.22 -0.9 0.22 0.9 -0.22 0.9 z" class="primitive"/>
              </g>
              <g transform="translate(53.25,77.09)" id="img-623b2ce3-113">
                <path d="M-0.22,-1.8 L 0.22 -1.8 0.22 1.8 -0.22 1.8 z" class="primitive"/>
              </g>
              <g transform="translate(53.63,78.89)" id="img-623b2ce3-114">
                <path d="M-0.22,-0 L 0.22 -0 0.22 0 -0.22 0 z" class="primitive"/>
              </g>
              <g transform="translate(54.01,76.19)" id="img-623b2ce3-115">
                <path d="M-0.22,-2.7 L 0.22 -2.7 0.22 2.7 -0.22 2.7 z" class="primitive"/>
              </g>
              <g transform="translate(54.4,77.99)" id="img-623b2ce3-116">
                <path d="M-0.22,-0.9 L 0.22 -0.9 0.22 0.9 -0.22 0.9 z" class="primitive"/>
              </g>
              <g transform="translate(54.78,77.99)" id="img-623b2ce3-117">
                <path d="M-0.22,-0.9 L 0.22 -0.9 0.22 0.9 -0.22 0.9 z" class="primitive"/>
              </g>
              <g transform="translate(55.16,77.99)" id="img-623b2ce3-118">
                <path d="M-0.22,-0.9 L 0.22 -0.9 0.22 0.9 -0.22 0.9 z" class="primitive"/>
              </g>
              <g transform="translate(55.54,77.99)" id="img-623b2ce3-119">
                <path d="M-0.22,-0.9 L 0.22 -0.9 0.22 0.9 -0.22 0.9 z" class="primitive"/>
              </g>
              <g transform="translate(55.93,78.89)" id="img-623b2ce3-120">
                <path d="M-0.22,-0 L 0.22 -0 0.22 0 -0.22 0 z" class="primitive"/>
              </g>
              <g transform="translate(56.31,78.89)" id="img-623b2ce3-121">
                <path d="M-0.22,-0 L 0.22 -0 0.22 0 -0.22 0 z" class="primitive"/>
              </g>
              <g transform="translate(56.69,77.99)" id="img-623b2ce3-122">
                <path d="M-0.22,-0.9 L 0.22 -0.9 0.22 0.9 -0.22 0.9 z" class="primitive"/>
              </g>
              <g transform="translate(57.07,77.09)" id="img-623b2ce3-123">
                <path d="M-0.22,-1.8 L 0.22 -1.8 0.22 1.8 -0.22 1.8 z" class="primitive"/>
              </g>
              <g transform="translate(57.46,77.99)" id="img-623b2ce3-124">
                <path d="M-0.22,-0.9 L 0.22 -0.9 0.22 0.9 -0.22 0.9 z" class="primitive"/>
              </g>
              <g transform="translate(57.84,77.99)" id="img-623b2ce3-125">
                <path d="M-0.22,-0.9 L 0.22 -0.9 0.22 0.9 -0.22 0.9 z" class="primitive"/>
              </g>
              <g transform="translate(58.22,78.89)" id="img-623b2ce3-126">
                <path d="M-0.22,-0 L 0.22 -0 0.22 0 -0.22 0 z" class="primitive"/>
              </g>
              <g transform="translate(58.61,78.89)" id="img-623b2ce3-127">
                <path d="M-0.22,-0 L 0.22 -0 0.22 0 -0.22 0 z" class="primitive"/>
              </g>
              <g transform="translate(58.99,78.89)" id="img-623b2ce3-128">
                <path d="M-0.22,-0 L 0.22 -0 0.22 0 -0.22 0 z" class="primitive"/>
              </g>
              <g transform="translate(59.37,77.09)" id="img-623b2ce3-129">
                <path d="M-0.22,-1.8 L 0.22 -1.8 0.22 1.8 -0.22 1.8 z" class="primitive"/>
              </g>
              <g transform="translate(59.75,77.99)" id="img-623b2ce3-130">
                <path d="M-0.22,-0.9 L 0.22 -0.9 0.22 0.9 -0.22 0.9 z" class="primitive"/>
              </g>
            </g>
          </g>
        </g>
      </g>
    </g>
  </g>
  <g class="guide ylabels" font-size="2.82" font-family="'PT Sans Caption','Helvetica Neue','Helvetica',sans-serif" fill="#6C606B" id="img-623b2ce3-131">
    <g transform="translate(16.96,78.89)" id="img-623b2ce3-132">
      <g class="primitive">
        <text text-anchor="end" dy="0.35em">0</text>
      </g>
    </g>
    <g transform="translate(16.96,60.92)" id="img-623b2ce3-133">
      <g class="primitive">
        <text text-anchor="end" dy="0.35em">10</text>
      </g>
    </g>
    <g transform="translate(16.96,42.94)" id="img-623b2ce3-134">
      <g class="primitive">
        <text text-anchor="end" dy="0.35em">20</text>
      </g>
    </g>
    <g transform="translate(16.96,24.97)" id="img-623b2ce3-135">
      <g class="primitive">
        <text text-anchor="end" dy="0.35em">30</text>
      </g>
    </g>
    <g transform="translate(16.96,7)" id="img-623b2ce3-136">
      <g class="primitive">
        <text text-anchor="end" dy="0.35em">40</text>
      </g>
    </g>
  </g>
  <g font-size="3.88" font-family="'PT Sans','Helvetica Neue','Helvetica',sans-serif" fill="#564A55" stroke="#000000" stroke-opacity="0.000" id="img-623b2ce3-137">
    <g transform="translate(8.81,40.94)" id="img-623b2ce3-138">
      <g class="primitive">
        <text text-anchor="middle" dy="0.35em" transform="rotate(-90,0, 2)">frequency</text>
      </g>
    </g>
  </g>
</g>
<defs>
  <clipPath id="img-623b2ce3-11">
    <path d="M17.96,5 L 72.4 5 72.4 80.89 17.96 80.89" />
  </clipPath>
</defs>
</svg>
