<?xml version="1.0" encoding="UTF-8"?>
<svg xmlns="http://www.w3.org/2000/svg"
     xmlns:xlink="http://www.w3.org/1999/xlink"
     xmlns:gadfly="http://www.gadflyjl.org/ns"
     version="1.2"
     width="141.42mm" height="100mm" viewBox="0 0 141.42 100"
     stroke="none"
     fill="#000000"
     stroke-width="0.3"
     font-size="3.88"
>
<defs>
  <marker id="arrow" markerWidth="15" markerHeight="7" refX="5" refY="3.5" orient="auto" markerUnits="strokeWidth">
    <path d="M0,0 L15,3.5 L0,7 z" stroke="context-stroke" fill="context-stroke"/>
  </marker>
</defs>
<g class="plotroot xscalable yscalable" id="img-47f531d8-1">
  <g class="guide xlabels" font-size="2.82" font-family="'PT Sans Caption','Helvetica Neue','Helvetica',sans-serif" fill="#6C606B" id="img-47f531d8-2">
    <g transform="translate(19.96,91.33)">
      <g class="primitive">
        <text text-anchor="middle" dy="0.6em">13.9</text>
      </g>
    </g>
    <g transform="translate(33.26,91.33)">
      <g class="primitive">
        <text text-anchor="middle" dy="0.6em">14.0</text>
      </g>
    </g>
    <g transform="translate(46.57,91.33)">
      <g class="primitive">
        <text text-anchor="middle" dy="0.6em">14.1</text>
      </g>
    </g>
    <g transform="translate(59.87,91.33)">
      <g class="primitive">
        <text text-anchor="middle" dy="0.6em">14.2</text>
      </g>
    </g>
    <g transform="translate(73.18,91.33)">
      <g class="primitive">
        <text text-anchor="middle" dy="0.6em">14.3</text>
      </g>
    </g>
    <g transform="translate(86.48,91.33)">
      <g class="primitive">
        <text text-anchor="middle" dy="0.6em">14.4</text>
      </g>
    </g>
  </g>
  <g class="guide colorkey" id="img-47f531d8-3">
    <g class="color_coding_coding_coding_coding_4-star" id="img-47f531d8-4">
      <g fill="#4C404B" font-size="2.82" font-family="'PT Sans','Helvetica Neue','Helvetica',sans-serif" id="img-47f531d8-5">
        <g transform="translate(92.29,49.48)" id="img-47f531d8-6">
          <g class="primitive">
            <text dy="0.35em">coding_coding_coding_coding_4-star</text>
          </g>
        </g>
      </g>
      <g fill-opacity="1" fill="#00BFFF" stroke="#FFFFFF" id="img-47f531d8-7">
        <g transform="translate(90.39,49.48)" id="img-47f531d8-8">
          <path d="M-0.91,-0.91 L 0.91 -0.91 0.91 0.91 -0.91 0.91 z" class="primitive"/>
        </g>
      </g>
    </g>
    <g fill="#362A35" font-size="3.88" font-family="'PT Sans','Helvetica Neue','Helvetica',sans-serif" stroke="#000000" stroke-opacity="0.000" id="img-47f531d8-9">
      <g transform="translate(89.48,45.66)" id="img-47f531d8-10">
        <g class="primitive">
          <text dy="-0em">graphlet</text>
        </g>
      </g>
    </g>
  </g>
  <g clip-path="url(#img-47f531d8-11)">
    <g id="img-47f531d8-12">
      <g pointer-events="visible" stroke-width="0.3" fill="#000000" fill-opacity="0.000" stroke="#000000" stroke-opacity="0.000" class="guide background" id="img-47f531d8-13">
        <g transform="translate(53.22,47.66)" id="img-47f531d8-14">
          <path d="M-35.26,-42.66 L 35.26 -42.66 35.26 42.66 -35.26 42.66 z" class="primitive"/>
        </g>
      </g>
      <g class="guide ygridlines xfixed" stroke-dasharray="0.5,0.5" stroke-width="0.2" stroke="#D0D0E0" id="img-47f531d8-15">
        <g transform="translate(53.22,88.33)" id="img-47f531d8-16">
          <path fill="none" d="M-35.26,0 L 35.26 0" class="primitive"/>
        </g>
        <g transform="translate(53.22,68)" id="img-47f531d8-17">
          <path fill="none" d="M-35.26,0 L 35.26 0" class="primitive"/>
        </g>
        <g transform="translate(53.22,47.66)" id="img-47f531d8-18">
          <path fill="none" d="M-35.26,0 L 35.26 0" class="primitive"/>
        </g>
        <g transform="translate(53.22,27.33)" id="img-47f531d8-19">
          <path fill="none" d="M-35.26,0 L 35.26 0" class="primitive"/>
        </g>
        <g transform="translate(53.22,7)" id="img-47f531d8-20">
          <path fill="none" d="M-35.26,0 L 35.26 0" class="primitive"/>
        </g>
      </g>
      <g class="guide xgridlines yfixed" stroke-dasharray="0.5,0.5" stroke-width="0.2" stroke="#D0D0E0" id="img-47f531d8-21">
        <g transform="translate(19.96,47.66)" id="img-47f531d8-22">
          <path fill="none" d="M0,-42.66 L 0 42.66" class="primitive"/>
        </g>
        <g transform="translate(33.26,47.66)" id="img-47f531d8-23">
          <path fill="none" d="M0,-42.66 L 0 42.66" class="primitive"/>
        </g>
        <g transform="translate(46.57,47.66)" id="img-47f531d8-24">
          <path fill="none" d="M0,-42.66 L 0 42.66" class="primitive"/>
        </g>
        <g transform="translate(59.87,47.66)" id="img-47f531d8-25">
          <path fill="none" d="M0,-42.66 L 0 42.66" class="primitive"/>
        </g>
        <g transform="translate(73.18,47.66)" id="img-47f531d8-26">
          <path fill="none" d="M0,-42.66 L 0 42.66" class="primitive"/>
        </g>
        <g transform="translate(86.48,47.66)" id="img-47f531d8-27">
          <path fill="none" d="M0,-42.66 L 0 42.66" class="primitive"/>
        </g>
      </g>
      <g class="plotpanel" id="img-47f531d8-28">
        <metadata>
          <boundingbox value="17.95833333333333mm 5.0mm 70.52302290397617mm 85.32666666666667mm"/>
          <unitbox value="13.884967610364859 40.98368718747438 0.5300647792702826 -41.96737437494876"/>
        </metadata>
        <g shape-rendering="crispEdges" stroke-width="0.3" id="img-47f531d8-29">
          <g stroke="#000000" stroke-opacity="0.000" class="geometry" id="img-47f531d8-30">
            <g fill="#00BFFF" id="img-47f531d8-31">
              <g transform="translate(22.93,87.31)" id="img-47f531d8-32">
                <path d="M-0.28,-1.02 L 0.28 -1.02 0.28 1.02 -0.28 1.02 z" class="primitive"/>
              </g>
              <g transform="translate(23.44,88.33)" id="img-47f531d8-33">
                <path d="M-0.28,-0 L 0.28 -0 0.28 0 -0.28 0 z" class="primitive"/>
              </g>
              <g transform="translate(23.95,88.33)" id="img-47f531d8-34">
                <path d="M-0.28,-0 L 0.28 -0 0.28 0 -0.28 0 z" class="primitive"/>
              </g>
              <g transform="translate(24.46,88.33)" id="img-47f531d8-35">
                <path d="M-0.28,-0 L 0.28 -0 0.28 0 -0.28 0 z" class="primitive"/>
              </g>
              <g transform="translate(24.97,88.33)" id="img-47f531d8-36">
                <path d="M-0.28,-0 L 0.28 -0 0.28 0 -0.28 0 z" class="primitive"/>
              </g>
              <g transform="translate(25.47,88.33)" id="img-47f531d8-37">
                <path d="M-0.28,-0 L 0.28 -0 0.28 0 -0.28 0 z" class="primitive"/>
              </g>
              <g transform="translate(25.98,88.33)" id="img-47f531d8-38">
                <path d="M-0.28,-0 L 0.28 -0 0.28 0 -0.28 0 z" class="primitive"/>
              </g>
              <g transform="translate(26.49,88.33)" id="img-47f531d8-39">
                <path d="M-0.28,-0 L 0.28 -0 0.28 0 -0.28 0 z" class="primitive"/>
              </g>
              <g transform="translate(27,88.33)" id="img-47f531d8-40">
                <path d="M-0.28,-0 L 0.28 -0 0.28 0 -0.28 0 z" class="primitive"/>
              </g>
              <g transform="translate(27.51,88.33)" id="img-47f531d8-41">
                <path d="M-0.28,-0 L 0.28 -0 0.28 0 -0.28 0 z" class="primitive"/>
              </g>
              <g transform="translate(28.02,88.33)" id="img-47f531d8-42">
                <path d="M-0.28,-0 L 0.28 -0 0.28 0 -0.28 0 z" class="primitive"/>
              </g>
              <g transform="translate(28.52,88.33)" id="img-47f531d8-43">
                <path d="M-0.28,-0 L 0.28 -0 0.28 0 -0.28 0 z" class="primitive"/>
              </g>
              <g transform="translate(29.03,88.33)" id="img-47f531d8-44">
                <path d="M-0.28,-0 L 0.28 -0 0.28 0 -0.28 0 z" class="primitive"/>
              </g>
              <g transform="translate(29.54,88.33)" id="img-47f531d8-45">
                <path d="M-0.28,-0 L 0.28 -0 0.28 0 -0.28 0 z" class="primitive"/>
              </g>
              <g transform="translate(30.05,88.33)" id="img-47f531d8-46">
                <path d="M-0.28,-0 L 0.28 -0 0.28 0 -0.28 0 z" class="primitive"/>
              </g>
              <g transform="translate(30.56,88.33)" id="img-47f531d8-47">
                <path d="M-0.28,-0 L 0.28 -0 0.28 0 -0.28 0 z" class="primitive"/>
              </g>
              <g transform="translate(31.06,86.29)" id="img-47f531d8-48">
                <path d="M-0.28,-2.03 L 0.28 -2.03 0.28 2.03 -0.28 2.03 z" class="primitive"/>
              </g>
              <g transform="translate(31.57,88.33)" id="img-47f531d8-49">
                <path d="M-0.28,-0 L 0.28 -0 0.28 0 -0.28 0 z" class="primitive"/>
              </g>
              <g transform="translate(32.08,88.33)" id="img-47f531d8-50">
                <path d="M-0.28,-0 L 0.28 -0 0.28 0 -0.28 0 z" class="primitive"/>
              </g>
              <g transform="translate(32.59,88.33)" id="img-47f531d8-51">
                <path d="M-0.28,-0 L 0.28 -0 0.28 0 -0.28 0 z" class="primitive"/>
              </g>
              <g transform="translate(33.1,87.31)" id="img-47f531d8-52">
                <path d="M-0.28,-1.02 L 0.28 -1.02 0.28 1.02 -0.28 1.02 z" class="primitive"/>
              </g>
              <g transform="translate(33.6,88.33)" id="img-47f531d8-53">
                <path d="M-0.28,-0 L 0.28 -0 0.28 0 -0.28 0 z" class="primitive"/>
              </g>
              <g transform="translate(34.11,88.33)" id="img-47f531d8-54">
                <path d="M-0.28,-0 L 0.28 -0 0.28 0 -0.28 0 z" class="primitive"/>
              </g>
              <g transform="translate(34.62,87.31)" id="img-47f531d8-55">
                <path d="M-0.28,-1.02 L 0.28 -1.02 0.28 1.02 -0.28 1.02 z" class="primitive"/>
              </g>
              <g transform="translate(35.13,85.28)" id="img-47f531d8-56">
                <path d="M-0.28,-3.05 L 0.28 -3.05 0.28 3.05 -0.28 3.05 z" class="primitive"/>
              </g>
              <g transform="translate(35.64,86.29)" id="img-47f531d8-57">
                <path d="M-0.28,-2.03 L 0.28 -2.03 0.28 2.03 -0.28 2.03 z" class="primitive"/>
              </g>
              <g transform="translate(36.15,86.29)" id="img-47f531d8-58">
                <path d="M-0.28,-2.03 L 0.28 -2.03 0.28 2.03 -0.28 2.03 z" class="primitive"/>
              </g>
              <g transform="translate(36.65,83.24)" id="img-47f531d8-59">
                <path d="M-0.28,-5.08 L 0.28 -5.08 0.28 5.08 -0.28 5.08 z" class="primitive"/>
              </g>
              <g transform="translate(37.16,88.33)" id="img-47f531d8-60">
                <path d="M-0.28,-0 L 0.28 -0 0.28 0 -0.28 0 z" class="primitive"/>
              </g>
              <g transform="translate(37.67,86.29)" id="img-47f531d8-61">
                <path d="M-0.28,-2.03 L 0.28 -2.03 0.28 2.03 -0.28 2.03 z" class="primitive"/>
              </g>
              <g transform="translate(38.18,82.23)" id="img-47f531d8-62">
                <path d="M-0.28,-6.1 L 0.28 -6.1 0.28 6.1 -0.28 6.1 z" class="primitive"/>
              </g>
              <g transform="translate(38.69,84.26)" id="img-47f531d8-63">
                <path d="M-0.28,-4.07 L 0.28 -4.07 0.28 4.07 -0.28 4.07 z" class="primitive"/>
              </g>
              <g transform="translate(39.19,84.26)" id="img-47f531d8-64">
                <path d="M-0.28,-4.07 L 0.28 -4.07 0.28 4.07 -0.28 4.07 z" class="primitive"/>
              </g>
              <g transform="translate(39.7,84.26)" id="img-47f531d8-65">
                <path d="M-0.28,-4.07 L 0.28 -4.07 0.28 4.07 -0.28 4.07 z" class="primitive"/>
              </g>
              <g transform="translate(40.21,82.23)" id="img-47f531d8-66">
                <path d="M-0.28,-6.1 L 0.28 -6.1 0.28 6.1 -0.28 6.1 z" class="primitive"/>
              </g>
              <g transform="translate(40.72,79.18)" id="img-47f531d8-67">
                <path d="M-0.28,-9.15 L 0.28 -9.15 0.28 9.15 -0.28 9.15 z" class="primitive"/>
              </g>
              <g transform="translate(41.23,82.23)" id="img-47f531d8-68">
                <path d="M-0.28,-6.1 L 0.28 -6.1 0.28 6.1 -0.28 6.1 z" class="primitive"/>
              </g>
              <g transform="translate(41.73,83.24)" id="img-47f531d8-69">
                <path d="M-0.28,-5.08 L 0.28 -5.08 0.28 5.08 -0.28 5.08 z" class="primitive"/>
              </g>
              <g transform="translate(42.24,81.21)" id="img-47f531d8-70">
                <path d="M-0.28,-7.12 L 0.28 -7.12 0.28 7.12 -0.28 7.12 z" class="primitive"/>
              </g>
              <g transform="translate(42.75,81.21)" id="img-47f531d8-71">
                <path d="M-0.28,-7.12 L 0.28 -7.12 0.28 7.12 -0.28 7.12 z" class="primitive"/>
              </g>
              <g transform="translate(43.26,74.09)" id="img-47f531d8-72">
                <path d="M-0.28,-14.23 L 0.28 -14.23 0.28 14.23 -0.28 14.23 z" class="primitive"/>
              </g>
              <g transform="translate(43.77,73.08)" id="img-47f531d8-73">
                <path d="M-0.28,-15.25 L 0.28 -15.25 0.28 15.25 -0.28 15.25 z" class="primitive"/>
              </g>
              <g transform="translate(44.28,69.01)" id="img-47f531d8-74">
                <path d="M-0.28,-19.32 L 0.28 -19.32 0.28 19.32 -0.28 19.32 z" class="primitive"/>
              </g>
              <g transform="translate(44.78,70.03)" id="img-47f531d8-75">
                <path d="M-0.28,-18.3 L 0.28 -18.3 0.28 18.3 -0.28 18.3 z" class="primitive"/>
              </g>
              <g transform="translate(45.29,71.04)" id="img-47f531d8-76">
                <path d="M-0.28,-17.28 L 0.28 -17.28 0.28 17.28 -0.28 17.28 z" class="primitive"/>
              </g>
              <g transform="translate(45.8,71.04)" id="img-47f531d8-77">
                <path d="M-0.28,-17.28 L 0.28 -17.28 0.28 17.28 -0.28 17.28 z" class="primitive"/>
              </g>
              <g transform="translate(46.31,68)" id="img-47f531d8-78">
                <path d="M-0.28,-20.33 L 0.28 -20.33 0.28 20.33 -0.28 20.33 z" class="primitive"/>
              </g>
              <g transform="translate(46.82,73.08)" id="img-47f531d8-79">
                <path d="M-0.28,-15.25 L 0.28 -15.25 0.28 15.25 -0.28 15.25 z" class="primitive"/>
              </g>
              <g transform="translate(47.32,70.03)" id="img-47f531d8-80">
                <path d="M-0.28,-18.3 L 0.28 -18.3 0.28 18.3 -0.28 18.3 z" class="primitive"/>
              </g>
              <g transform="translate(47.83,59.86)" id="img-47f531d8-81">
                <path d="M-0.28,-28.46 L 0.28 -28.46 0.28 28.46 -0.28 28.46 z" class="primitive"/>
              </g>
              <g transform="translate(48.34,66.98)" id="img-47f531d8-82">
                <path d="M-0.28,-21.35 L 0.28 -21.35 0.28 21.35 -0.28 21.35 z" class="primitive"/>
              </g>
              <g transform="translate(48.85,55.8)" id="img-47f531d8-83">
                <path d="M-0.28,-32.53 L 0.28 -32.53 0.28 32.53 -0.28 32.53 z" class="primitive"/>
              </g>
              <g transform="translate(49.36,66.98)" id="img-47f531d8-84">
                <path d="M-0.28,-21.35 L 0.28 -21.35 0.28 21.35 -0.28 21.35 z" class="primitive"/>
              </g>
              <g transform="translate(49.86,62.91)" id="img-47f531d8-85">
                <path d="M-0.28,-25.41 L 0.28 -25.41 0.28 25.41 -0.28 25.41 z" class="primitive"/>
              </g>
              <g transform="translate(50.37,62.91)" id="img-47f531d8-86">
                <path d="M-0.28,-25.41 L 0.28 -25.41 0.28 25.41 -0.28 25.41 z" class="primitive"/>
              </g>
              <g transform="translate(50.88,59.86)" id="img-47f531d8-87">
                <path d="M-0.28,-28.46 L 0.28 -28.46 0.28 28.46 -0.28 28.46 z" class="primitive"/>
              </g>
              <g transform="translate(51.39,61.9)" id="img-47f531d8-88">
                <path d="M-0.28,-26.43 L 0.28 -26.43 0.28 26.43 -0.28 26.43 z" class="primitive"/>
              </g>
              <g transform="translate(51.9,65.96)" id="img-47f531d8-89">
                <path d="M-0.28,-22.36 L 0.28 -22.36 0.28 22.36 -0.28 22.36 z" class="primitive"/>
              </g>
              <g transform="translate(52.41,59.86)" id="img-47f531d8-90">
                <path d="M-0.28,-28.46 L 0.28 -28.46 0.28 28.46 -0.28 28.46 z" class="primitive"/>
              </g>
              <g transform="translate(52.91,57.83)" id="img-47f531d8-91">
                <path d="M-0.28,-30.5 L 0.28 -30.5 0.28 30.5 -0.28 30.5 z" class="primitive"/>
              </g>
              <g transform="translate(53.42,47.66)" id="img-47f531d8-92">
                <path d="M-0.28,-40.66 L 0.28 -40.66 0.28 40.66 -0.28 40.66 z" class="primitive"/>
              </g>
              <g transform="translate(53.93,55.8)" id="img-47f531d8-93">
                <path d="M-0.28,-32.53 L 0.28 -32.53 0.28 32.53 -0.28 32.53 z" class="primitive"/>
              </g>
              <g transform="translate(54.44,55.8)" id="img-47f531d8-94">
                <path d="M-0.28,-32.53 L 0.28 -32.53 0.28 32.53 -0.28 32.53 z" class="primitive"/>
              </g>
              <g transform="translate(54.95,62.91)" id="img-47f531d8-95">
                <path d="M-0.28,-25.41 L 0.28 -25.41 0.28 25.41 -0.28 25.41 z" class="primitive"/>
              </g>
              <g transform="translate(55.45,56.81)" id="img-47f531d8-96">
                <path d="M-0.28,-31.51 L 0.28 -31.51 0.28 31.51 -0.28 31.51 z" class="primitive"/>
              </g>
              <g transform="translate(55.96,52.75)" id="img-47f531d8-97">
                <path d="M-0.28,-35.58 L 0.28 -35.58 0.28 35.58 -0.28 35.58 z" class="primitive"/>
              </g>
              <g transform="translate(56.47,64.95)" id="img-47f531d8-98">
                <path d="M-0.28,-23.38 L 0.28 -23.38 0.28 23.38 -0.28 23.38 z" class="primitive"/>
              </g>
              <g transform="translate(56.98,68)" id="img-47f531d8-99">
                <path d="M-0.28,-20.33 L 0.28 -20.33 0.28 20.33 -0.28 20.33 z" class="primitive"/>
              </g>
              <g transform="translate(57.49,68)" id="img-47f531d8-100">
                <path d="M-0.28,-20.33 L 0.28 -20.33 0.28 20.33 -0.28 20.33 z" class="primitive"/>
              </g>
              <g transform="translate(57.99,68)" id="img-47f531d8-101">
                <path d="M-0.28,-20.33 L 0.28 -20.33 0.28 20.33 -0.28 20.33 z" class="primitive"/>
              </g>
              <g transform="translate(58.5,70.03)" id="img-47f531d8-102">
                <path d="M-0.28,-18.3 L 0.28 -18.3 0.28 18.3 -0.28 18.3 z" class="primitive"/>
              </g>
              <g transform="translate(59.01,66.98)" id="img-47f531d8-103">
                <path d="M-0.28,-21.35 L 0.28 -21.35 0.28 21.35 -0.28 21.35 z" class="primitive"/>
              </g>
              <g transform="translate(59.52,72.06)" id="img-47f531d8-104">
                <path d="M-0.28,-16.27 L 0.28 -16.27 0.28 16.27 -0.28 16.27 z" class="primitive"/>
              </g>
              <g transform="translate(60.03,68)" id="img-47f531d8-105">
                <path d="M-0.28,-20.33 L 0.28 -20.33 0.28 20.33 -0.28 20.33 z" class="primitive"/>
              </g>
              <g transform="translate(60.54,74.09)" id="img-47f531d8-106">
                <path d="M-0.28,-14.23 L 0.28 -14.23 0.28 14.23 -0.28 14.23 z" class="primitive"/>
              </g>
              <g transform="translate(61.04,75.11)" id="img-47f531d8-107">
                <path d="M-0.28,-13.22 L 0.28 -13.22 0.28 13.22 -0.28 13.22 z" class="primitive"/>
              </g>
              <g transform="translate(61.55,80.19)" id="img-47f531d8-108">
                <path d="M-0.28,-8.13 L 0.28 -8.13 0.28 8.13 -0.28 8.13 z" class="primitive"/>
              </g>
              <g transform="translate(62.06,78.16)" id="img-47f531d8-109">
                <path d="M-0.28,-10.17 L 0.28 -10.17 0.28 10.17 -0.28 10.17 z" class="primitive"/>
              </g>
              <g transform="translate(62.57,75.11)" id="img-47f531d8-110">
                <path d="M-0.28,-13.22 L 0.28 -13.22 0.28 13.22 -0.28 13.22 z" class="primitive"/>
              </g>
              <g transform="translate(63.08,75.11)" id="img-47f531d8-111">
                <path d="M-0.28,-13.22 L 0.28 -13.22 0.28 13.22 -0.28 13.22 z" class="primitive"/>
              </g>
              <g transform="translate(63.58,77.14)" id="img-47f531d8-112">
                <path d="M-0.28,-11.18 L 0.28 -11.18 0.28 11.18 -0.28 11.18 z" class="primitive"/>
              </g>
              <g transform="translate(64.09,82.23)" id="img-47f531d8-113">
                <path d="M-0.28,-6.1 L 0.28 -6.1 0.28 6.1 -0.28 6.1 z" class="primitive"/>
              </g>
              <g transform="translate(64.6,78.16)" id="img-47f531d8-114">
                <path d="M-0.28,-10.17 L 0.28 -10.17 0.28 10.17 -0.28 10.17 z" class="primitive"/>
              </g>
              <g transform="translate(65.11,85.28)" id="img-47f531d8-115">
                <path d="M-0.28,-3.05 L 0.28 -3.05 0.28 3.05 -0.28 3.05 z" class="primitive"/>
              </g>
              <g transform="translate(65.62,83.24)" id="img-47f531d8-116">
                <path d="M-0.28,-5.08 L 0.28 -5.08 0.28 5.08 -0.28 5.08 z" class="primitive"/>
              </g>
              <g transform="translate(66.13,80.19)" id="img-47f531d8-117">
                <path d="M-0.28,-8.13 L 0.28 -8.13 0.28 8.13 -0.28 8.13 z" class="primitive"/>
              </g>
              <g transform="translate(66.63,87.31)" id="img-47f531d8-118">
                <path d="M-0.28,-1.02 L 0.28 -1.02 0.28 1.02 -0.28 1.02 z" class="primitive"/>
              </g>
              <g transform="translate(67.14,82.23)" id="img-47f531d8-119">
                <path d="M-0.28,-6.1 L 0.28 -6.1 0.28 6.1 -0.28 6.1 z" class="primitive"/>
              </g>
              <g transform="translate(67.65,85.28)" id="img-47f531d8-120">
                <path d="M-0.28,-3.05 L 0.28 -3.05 0.28 3.05 -0.28 3.05 z" class="primitive"/>
              </g>
              <g transform="translate(68.16,87.31)" id="img-47f531d8-121">
                <path d="M-0.28,-1.02 L 0.28 -1.02 0.28 1.02 -0.28 1.02 z" class="primitive"/>
              </g>
              <g transform="translate(68.67,88.33)" id="img-47f531d8-122">
                <path d="M-0.28,-0 L 0.28 -0 0.28 0 -0.28 0 z" class="primitive"/>
              </g>
              <g transform="translate(69.17,87.31)" id="img-47f531d8-123">
                <path d="M-0.28,-1.02 L 0.28 -1.02 0.28 1.02 -0.28 1.02 z" class="primitive"/>
              </g>
              <g transform="translate(69.68,88.33)" id="img-47f531d8-124">
                <path d="M-0.28,-0 L 0.28 -0 0.28 0 -0.28 0 z" class="primitive"/>
              </g>
              <g transform="translate(70.19,87.31)" id="img-47f531d8-125">
                <path d="M-0.28,-1.02 L 0.28 -1.02 0.28 1.02 -0.28 1.02 z" class="primitive"/>
              </g>
              <g transform="translate(70.7,86.29)" id="img-47f531d8-126">
                <path d="M-0.28,-2.03 L 0.28 -2.03 0.28 2.03 -0.28 2.03 z" class="primitive"/>
              </g>
              <g transform="translate(71.21,88.33)" id="img-47f531d8-127">
                <path d="M-0.28,-0 L 0.28 -0 0.28 0 -0.28 0 z" class="primitive"/>
              </g>
              <g transform="translate(71.71,88.33)" id="img-47f531d8-128">
                <path d="M-0.28,-0 L 0.28 -0 0.28 0 -0.28 0 z" class="primitive"/>
              </g>
              <g transform="translate(72.22,88.33)" id="img-47f531d8-129">
                <path d="M-0.28,-0 L 0.28 -0 0.28 0 -0.28 0 z" class="primitive"/>
              </g>
              <g transform="translate(72.73,87.31)" id="img-47f531d8-130">
                <path d="M-0.28,-1.02 L 0.28 -1.02 0.28 1.02 -0.28 1.02 z" class="primitive"/>
              </g>
              <g transform="translate(73.24,87.31)" id="img-47f531d8-131">
                <path d="M-0.28,-1.02 L 0.28 -1.02 0.28 1.02 -0.28 1.02 z" class="primitive"/>
              </g>
            </g>
          </g>
        </g>
      </g>
    </g>
  </g>
  <g class="guide ylabels" font-size="2.82" font-family="'PT Sans Caption','Helvetica Neue','Helvetica',sans-serif" fill="#6C606B" id="img-47f531d8-132">
    <g transform="translate(16.96,88.33)" id="img-47f531d8-133">
      <g class="primitive">
        <text text-anchor="end" dy="0.35em">0</text>
      </g>
    </g>
    <g transform="translate(16.96,68)" id="img-47f531d8-134">
      <g class="primitive">
        <text text-anchor="end" dy="0.35em">10</text>
      </g>
    </g>
    <g transform="translate(16.96,47.66)" id="img-47f531d8-135">
      <g class="primitive">
        <text text-anchor="end" dy="0.35em">20</text>
      </g>
    </g>
    <g transform="translate(16.96,27.33)" id="img-47f531d8-136">
      <g class="primitive">
        <text text-anchor="end" dy="0.35em">30</text>
      </g>
    </g>
    <g transform="translate(16.96,7)" id="img-47f531d8-137">
      <g class="primitive">
        <text text-anchor="end" dy="0.35em">40</text>
      </g>
    </g>
  </g>
  <g font-size="3.88" font-family="'PT Sans','Helvetica Neue','Helvetica',sans-serif" fill="#564A55" stroke="#000000" stroke-opacity="0.000" id="img-47f531d8-138">
    <g transform="translate(8.81,45.66)" id="img-47f531d8-139">
      <g class="primitive">
        <text text-anchor="middle" dy="0.35em" transform="rotate(-90,0, 2)">frequency</text>
      </g>
    </g>
  </g>
</g>
<defs>
  <clipPath id="img-47f531d8-11">
    <path d="M17.96,5 L 88.48 5 88.48 90.33 17.96 90.33" />
  </clipPath>
</defs>
</svg>
