<?xml version="1.0" encoding="UTF-8"?>
<svg xmlns="http://www.w3.org/2000/svg"
     xmlns:xlink="http://www.w3.org/1999/xlink"
     xmlns:gadfly="http://www.gadflyjl.org/ns"
     version="1.2"
     width="141.42mm" height="100mm" viewBox="0 0 141.42 100"
     stroke="none"
     fill="#000000"
     stroke-width="0.3"
     font-size="3.88"
>
<defs>
  <marker id="arrow" markerWidth="15" markerHeight="7" refX="5" refY="3.5" orient="auto" markerUnits="strokeWidth">
    <path d="M0,0 L15,3.5 L0,7 z" stroke="context-stroke" fill="context-stroke"/>
  </marker>
</defs>
<g class="plotroot xscalable yscalable" id="img-5543ed0a-1">
  <g class="guide xlabels" font-size="2.82" font-family="'PT Sans Caption','Helvetica Neue','Helvetica',sans-serif" fill="#6C606B" id="img-5543ed0a-2">
    <g transform="translate(19.96,91.33)">
      <g class="primitive">
        <text text-anchor="middle" dy="0.6em">12.8</text>
      </g>
    </g>
    <g transform="translate(31.54,91.33)">
      <g class="primitive">
        <text text-anchor="middle" dy="0.6em">12.9</text>
      </g>
    </g>
    <g transform="translate(43.12,91.33)">
      <g class="primitive">
        <text text-anchor="middle" dy="0.6em">13.0</text>
      </g>
    </g>
    <g transform="translate(54.7,91.33)">
      <g class="primitive">
        <text text-anchor="middle" dy="0.6em">13.1</text>
      </g>
    </g>
    <g transform="translate(66.28,91.33)">
      <g class="primitive">
        <text text-anchor="middle" dy="0.6em">13.2</text>
      </g>
    </g>
    <g transform="translate(77.86,91.33)">
      <g class="primitive">
        <text text-anchor="middle" dy="0.6em">13.3</text>
      </g>
    </g>
  </g>
  <g class="guide colorkey" id="img-5543ed0a-3">
    <g class="color_coding_coding_noncoding_noncoding_4-tail" id="img-5543ed0a-4">
      <g fill="#4C404B" font-size="2.82" font-family="'PT Sans','Helvetica Neue','Helvetica',sans-serif" id="img-5543ed0a-5">
        <g transform="translate(83.67,49.48)" id="img-5543ed0a-6">
          <g class="primitive">
            <text dy="0.35em">coding_coding_noncoding_noncoding_4-tail</text>
          </g>
        </g>
      </g>
      <g fill-opacity="1" fill="#00BFFF" stroke="#FFFFFF" id="img-5543ed0a-7">
        <g transform="translate(81.77,49.48)" id="img-5543ed0a-8">
          <path d="M-0.91,-0.91 L 0.91 -0.91 0.91 0.91 -0.91 0.91 z" class="primitive"/>
        </g>
      </g>
    </g>
    <g fill="#362A35" font-size="3.88" font-family="'PT Sans','Helvetica Neue','Helvetica',sans-serif" stroke="#000000" stroke-opacity="0.000" id="img-5543ed0a-9">
      <g transform="translate(80.86,45.66)" id="img-5543ed0a-10">
        <g class="primitive">
          <text dy="-0em">graphlet</text>
        </g>
      </g>
    </g>
  </g>
  <g clip-path="url(#img-5543ed0a-11)">
    <g id="img-5543ed0a-12">
      <g pointer-events="visible" stroke-width="0.3" fill="#000000" fill-opacity="0.000" stroke="#000000" stroke-opacity="0.000" class="guide background" id="img-5543ed0a-13">
        <g transform="translate(48.91,47.66)" id="img-5543ed0a-14">
          <path d="M-30.95,-42.66 L 30.95 -42.66 30.95 42.66 -30.95 42.66 z" class="primitive"/>
        </g>
      </g>
      <g class="guide ygridlines xfixed" stroke-dasharray="0.5,0.5" stroke-width="0.2" stroke="#D0D0E0" id="img-5543ed0a-15">
        <g transform="translate(48.91,88.33)" id="img-5543ed0a-16">
          <path fill="none" d="M-30.95,0 L 30.95 0" class="primitive"/>
        </g>
        <g transform="translate(48.91,68)" id="img-5543ed0a-17">
          <path fill="none" d="M-30.95,0 L 30.95 0" class="primitive"/>
        </g>
        <g transform="translate(48.91,47.66)" id="img-5543ed0a-18">
          <path fill="none" d="M-30.95,0 L 30.95 0" class="primitive"/>
        </g>
        <g transform="translate(48.91,27.33)" id="img-5543ed0a-19">
          <path fill="none" d="M-30.95,0 L 30.95 0" class="primitive"/>
        </g>
        <g transform="translate(48.91,7)" id="img-5543ed0a-20">
          <path fill="none" d="M-30.95,0 L 30.95 0" class="primitive"/>
        </g>
      </g>
      <g class="guide xgridlines yfixed" stroke-dasharray="0.5,0.5" stroke-width="0.2" stroke="#D0D0E0" id="img-5543ed0a-21">
        <g transform="translate(19.96,47.66)" id="img-5543ed0a-22">
          <path fill="none" d="M0,-42.66 L 0 42.66" class="primitive"/>
        </g>
        <g transform="translate(31.54,47.66)" id="img-5543ed0a-23">
          <path fill="none" d="M0,-42.66 L 0 42.66" class="primitive"/>
        </g>
        <g transform="translate(43.12,47.66)" id="img-5543ed0a-24">
          <path fill="none" d="M0,-42.66 L 0 42.66" class="primitive"/>
        </g>
        <g transform="translate(54.7,47.66)" id="img-5543ed0a-25">
          <path fill="none" d="M0,-42.66 L 0 42.66" class="primitive"/>
        </g>
        <g transform="translate(66.28,47.66)" id="img-5543ed0a-26">
          <path fill="none" d="M0,-42.66 L 0 42.66" class="primitive"/>
        </g>
        <g transform="translate(77.86,47.66)" id="img-5543ed0a-27">
          <path fill="none" d="M0,-42.66 L 0 42.66" class="primitive"/>
        </g>
      </g>
      <g class="plotpanel" id="img-5543ed0a-28">
        <metadata>
          <boundingbox value="17.958333333333336mm 5.0mm 61.90302290397617mm 85.32666666666667mm"/>
          <unitbox value="12.782729744496098 40.98368718747438 0.5345405110078054 -41.96737437494876"/>
        </metadata>
        <g shape-rendering="crispEdges" stroke-width="0.3" id="img-5543ed0a-29">
          <g stroke="#000000" stroke-opacity="0.000" class="geometry" id="img-5543ed0a-30">
            <g fill="#00BFFF" id="img-5543ed0a-31">
              <g transform="translate(22.23,85.28)" id="img-5543ed0a-32">
                <path d="M-0.3,-3.05 L 0.3 -3.05 0.3 3.05 -0.3 3.05 z" class="primitive"/>
              </g>
              <g transform="translate(22.78,88.33)" id="img-5543ed0a-33">
                <path d="M-0.3,-0 L 0.3 -0 0.3 0 -0.3 0 z" class="primitive"/>
              </g>
              <g transform="translate(23.33,88.33)" id="img-5543ed0a-34">
                <path d="M-0.3,-0 L 0.3 -0 0.3 0 -0.3 0 z" class="primitive"/>
              </g>
              <g transform="translate(23.88,88.33)" id="img-5543ed0a-35">
                <path d="M-0.3,-0 L 0.3 -0 0.3 0 -0.3 0 z" class="primitive"/>
              </g>
              <g transform="translate(24.43,88.33)" id="img-5543ed0a-36">
                <path d="M-0.3,-0 L 0.3 -0 0.3 0 -0.3 0 z" class="primitive"/>
              </g>
              <g transform="translate(24.99,88.33)" id="img-5543ed0a-37">
                <path d="M-0.3,-0 L 0.3 -0 0.3 0 -0.3 0 z" class="primitive"/>
              </g>
              <g transform="translate(25.54,88.33)" id="img-5543ed0a-38">
                <path d="M-0.3,-0 L 0.3 -0 0.3 0 -0.3 0 z" class="primitive"/>
              </g>
              <g transform="translate(26.09,87.31)" id="img-5543ed0a-39">
                <path d="M-0.3,-1.02 L 0.3 -1.02 0.3 1.02 -0.3 1.02 z" class="primitive"/>
              </g>
              <g transform="translate(26.64,88.33)" id="img-5543ed0a-40">
                <path d="M-0.3,-0 L 0.3 -0 0.3 0 -0.3 0 z" class="primitive"/>
              </g>
              <g transform="translate(27.19,88.33)" id="img-5543ed0a-41">
                <path d="M-0.3,-0 L 0.3 -0 0.3 0 -0.3 0 z" class="primitive"/>
              </g>
              <g transform="translate(27.74,87.31)" id="img-5543ed0a-42">
                <path d="M-0.3,-1.02 L 0.3 -1.02 0.3 1.02 -0.3 1.02 z" class="primitive"/>
              </g>
              <g transform="translate(28.3,88.33)" id="img-5543ed0a-43">
                <path d="M-0.3,-0 L 0.3 -0 0.3 0 -0.3 0 z" class="primitive"/>
              </g>
              <g transform="translate(28.85,88.33)" id="img-5543ed0a-44">
                <path d="M-0.3,-0 L 0.3 -0 0.3 0 -0.3 0 z" class="primitive"/>
              </g>
              <g transform="translate(29.4,86.29)" id="img-5543ed0a-45">
                <path d="M-0.3,-2.03 L 0.3 -2.03 0.3 2.03 -0.3 2.03 z" class="primitive"/>
              </g>
              <g transform="translate(29.95,87.31)" id="img-5543ed0a-46">
                <path d="M-0.3,-1.02 L 0.3 -1.02 0.3 1.02 -0.3 1.02 z" class="primitive"/>
              </g>
              <g transform="translate(30.5,88.33)" id="img-5543ed0a-47">
                <path d="M-0.3,-0 L 0.3 -0 0.3 0 -0.3 0 z" class="primitive"/>
              </g>
              <g transform="translate(31.05,84.26)" id="img-5543ed0a-48">
                <path d="M-0.3,-4.07 L 0.3 -4.07 0.3 4.07 -0.3 4.07 z" class="primitive"/>
              </g>
              <g transform="translate(31.6,87.31)" id="img-5543ed0a-49">
                <path d="M-0.3,-1.02 L 0.3 -1.02 0.3 1.02 -0.3 1.02 z" class="primitive"/>
              </g>
              <g transform="translate(32.16,88.33)" id="img-5543ed0a-50">
                <path d="M-0.3,-0 L 0.3 -0 0.3 0 -0.3 0 z" class="primitive"/>
              </g>
              <g transform="translate(32.71,84.26)" id="img-5543ed0a-51">
                <path d="M-0.3,-4.07 L 0.3 -4.07 0.3 4.07 -0.3 4.07 z" class="primitive"/>
              </g>
              <g transform="translate(33.26,88.33)" id="img-5543ed0a-52">
                <path d="M-0.3,-0 L 0.3 -0 0.3 0 -0.3 0 z" class="primitive"/>
              </g>
              <g transform="translate(33.81,85.28)" id="img-5543ed0a-53">
                <path d="M-0.3,-3.05 L 0.3 -3.05 0.3 3.05 -0.3 3.05 z" class="primitive"/>
              </g>
              <g transform="translate(34.36,85.28)" id="img-5543ed0a-54">
                <path d="M-0.3,-3.05 L 0.3 -3.05 0.3 3.05 -0.3 3.05 z" class="primitive"/>
              </g>
              <g transform="translate(34.91,87.31)" id="img-5543ed0a-55">
                <path d="M-0.3,-1.02 L 0.3 -1.02 0.3 1.02 -0.3 1.02 z" class="primitive"/>
              </g>
              <g transform="translate(35.47,84.26)" id="img-5543ed0a-56">
                <path d="M-0.3,-4.07 L 0.3 -4.07 0.3 4.07 -0.3 4.07 z" class="primitive"/>
              </g>
              <g transform="translate(36.02,84.26)" id="img-5543ed0a-57">
                <path d="M-0.3,-4.07 L 0.3 -4.07 0.3 4.07 -0.3 4.07 z" class="primitive"/>
              </g>
              <g transform="translate(36.57,82.23)" id="img-5543ed0a-58">
                <path d="M-0.3,-6.1 L 0.3 -6.1 0.3 6.1 -0.3 6.1 z" class="primitive"/>
              </g>
              <g transform="translate(37.12,86.29)" id="img-5543ed0a-59">
                <path d="M-0.3,-2.03 L 0.3 -2.03 0.3 2.03 -0.3 2.03 z" class="primitive"/>
              </g>
              <g transform="translate(37.67,83.24)" id="img-5543ed0a-60">
                <path d="M-0.3,-5.08 L 0.3 -5.08 0.3 5.08 -0.3 5.08 z" class="primitive"/>
              </g>
              <g transform="translate(38.22,82.23)" id="img-5543ed0a-61">
                <path d="M-0.3,-6.1 L 0.3 -6.1 0.3 6.1 -0.3 6.1 z" class="primitive"/>
              </g>
              <g transform="translate(38.77,85.28)" id="img-5543ed0a-62">
                <path d="M-0.3,-3.05 L 0.3 -3.05 0.3 3.05 -0.3 3.05 z" class="primitive"/>
              </g>
              <g transform="translate(39.33,69.01)" id="img-5543ed0a-63">
                <path d="M-0.3,-19.32 L 0.3 -19.32 0.3 19.32 -0.3 19.32 z" class="primitive"/>
              </g>
              <g transform="translate(39.88,81.21)" id="img-5543ed0a-64">
                <path d="M-0.3,-7.12 L 0.3 -7.12 0.3 7.12 -0.3 7.12 z" class="primitive"/>
              </g>
              <g transform="translate(40.43,79.18)" id="img-5543ed0a-65">
                <path d="M-0.3,-9.15 L 0.3 -9.15 0.3 9.15 -0.3 9.15 z" class="primitive"/>
              </g>
              <g transform="translate(40.98,81.21)" id="img-5543ed0a-66">
                <path d="M-0.3,-7.12 L 0.3 -7.12 0.3 7.12 -0.3 7.12 z" class="primitive"/>
              </g>
              <g transform="translate(41.53,75.11)" id="img-5543ed0a-67">
                <path d="M-0.3,-13.22 L 0.3 -13.22 0.3 13.22 -0.3 13.22 z" class="primitive"/>
              </g>
              <g transform="translate(42.08,82.23)" id="img-5543ed0a-68">
                <path d="M-0.3,-6.1 L 0.3 -6.1 0.3 6.1 -0.3 6.1 z" class="primitive"/>
              </g>
              <g transform="translate(42.63,76.13)" id="img-5543ed0a-69">
                <path d="M-0.3,-12.2 L 0.3 -12.2 0.3 12.2 -0.3 12.2 z" class="primitive"/>
              </g>
              <g transform="translate(43.19,74.09)" id="img-5543ed0a-70">
                <path d="M-0.3,-14.23 L 0.3 -14.23 0.3 14.23 -0.3 14.23 z" class="primitive"/>
              </g>
              <g transform="translate(43.74,75.11)" id="img-5543ed0a-71">
                <path d="M-0.3,-13.22 L 0.3 -13.22 0.3 13.22 -0.3 13.22 z" class="primitive"/>
              </g>
              <g transform="translate(44.29,70.03)" id="img-5543ed0a-72">
                <path d="M-0.3,-18.3 L 0.3 -18.3 0.3 18.3 -0.3 18.3 z" class="primitive"/>
              </g>
              <g transform="translate(44.84,75.11)" id="img-5543ed0a-73">
                <path d="M-0.3,-13.22 L 0.3 -13.22 0.3 13.22 -0.3 13.22 z" class="primitive"/>
              </g>
              <g transform="translate(45.39,59.86)" id="img-5543ed0a-74">
                <path d="M-0.3,-28.46 L 0.3 -28.46 0.3 28.46 -0.3 28.46 z" class="primitive"/>
              </g>
              <g transform="translate(45.94,70.03)" id="img-5543ed0a-75">
                <path d="M-0.3,-18.3 L 0.3 -18.3 0.3 18.3 -0.3 18.3 z" class="primitive"/>
              </g>
              <g transform="translate(46.5,63.93)" id="img-5543ed0a-76">
                <path d="M-0.3,-24.4 L 0.3 -24.4 0.3 24.4 -0.3 24.4 z" class="primitive"/>
              </g>
              <g transform="translate(47.05,78.16)" id="img-5543ed0a-77">
                <path d="M-0.3,-10.17 L 0.3 -10.17 0.3 10.17 -0.3 10.17 z" class="primitive"/>
              </g>
              <g transform="translate(47.6,60.88)" id="img-5543ed0a-78">
                <path d="M-0.3,-27.45 L 0.3 -27.45 0.3 27.45 -0.3 27.45 z" class="primitive"/>
              </g>
              <g transform="translate(48.15,64.95)" id="img-5543ed0a-79">
                <path d="M-0.3,-23.38 L 0.3 -23.38 0.3 23.38 -0.3 23.38 z" class="primitive"/>
              </g>
              <g transform="translate(48.7,70.03)" id="img-5543ed0a-80">
                <path d="M-0.3,-18.3 L 0.3 -18.3 0.3 18.3 -0.3 18.3 z" class="primitive"/>
              </g>
              <g transform="translate(49.25,61.9)" id="img-5543ed0a-81">
                <path d="M-0.3,-26.43 L 0.3 -26.43 0.3 26.43 -0.3 26.43 z" class="primitive"/>
              </g>
              <g transform="translate(49.8,60.88)" id="img-5543ed0a-82">
                <path d="M-0.3,-27.45 L 0.3 -27.45 0.3 27.45 -0.3 27.45 z" class="primitive"/>
              </g>
              <g transform="translate(50.36,68)" id="img-5543ed0a-83">
                <path d="M-0.3,-20.33 L 0.3 -20.33 0.3 20.33 -0.3 20.33 z" class="primitive"/>
              </g>
              <g transform="translate(50.91,62.91)" id="img-5543ed0a-84">
                <path d="M-0.3,-25.41 L 0.3 -25.41 0.3 25.41 -0.3 25.41 z" class="primitive"/>
              </g>
              <g transform="translate(51.46,60.88)" id="img-5543ed0a-85">
                <path d="M-0.3,-27.45 L 0.3 -27.45 0.3 27.45 -0.3 27.45 z" class="primitive"/>
              </g>
              <g transform="translate(52.01,56.81)" id="img-5543ed0a-86">
                <path d="M-0.3,-31.51 L 0.3 -31.51 0.3 31.51 -0.3 31.51 z" class="primitive"/>
              </g>
              <g transform="translate(52.56,62.91)" id="img-5543ed0a-87">
                <path d="M-0.3,-25.41 L 0.3 -25.41 0.3 25.41 -0.3 25.41 z" class="primitive"/>
              </g>
              <g transform="translate(53.11,61.9)" id="img-5543ed0a-88">
                <path d="M-0.3,-26.43 L 0.3 -26.43 0.3 26.43 -0.3 26.43 z" class="primitive"/>
              </g>
              <g transform="translate(53.66,64.95)" id="img-5543ed0a-89">
                <path d="M-0.3,-23.38 L 0.3 -23.38 0.3 23.38 -0.3 23.38 z" class="primitive"/>
              </g>
              <g transform="translate(54.22,56.81)" id="img-5543ed0a-90">
                <path d="M-0.3,-31.51 L 0.3 -31.51 0.3 31.51 -0.3 31.51 z" class="primitive"/>
              </g>
              <g transform="translate(54.77,57.83)" id="img-5543ed0a-91">
                <path d="M-0.3,-30.5 L 0.3 -30.5 0.3 30.5 -0.3 30.5 z" class="primitive"/>
              </g>
              <g transform="translate(55.32,66.98)" id="img-5543ed0a-92">
                <path d="M-0.3,-21.35 L 0.3 -21.35 0.3 21.35 -0.3 21.35 z" class="primitive"/>
              </g>
              <g transform="translate(55.87,66.98)" id="img-5543ed0a-93">
                <path d="M-0.3,-21.35 L 0.3 -21.35 0.3 21.35 -0.3 21.35 z" class="primitive"/>
              </g>
              <g transform="translate(56.42,58.85)" id="img-5543ed0a-94">
                <path d="M-0.3,-29.48 L 0.3 -29.48 0.3 29.48 -0.3 29.48 z" class="primitive"/>
              </g>
              <g transform="translate(56.97,51.73)" id="img-5543ed0a-95">
                <path d="M-0.3,-36.6 L 0.3 -36.6 0.3 36.6 -0.3 36.6 z" class="primitive"/>
              </g>
              <g transform="translate(57.53,64.95)" id="img-5543ed0a-96">
                <path d="M-0.3,-23.38 L 0.3 -23.38 0.3 23.38 -0.3 23.38 z" class="primitive"/>
              </g>
              <g transform="translate(58.08,63.93)" id="img-5543ed0a-97">
                <path d="M-0.3,-24.4 L 0.3 -24.4 0.3 24.4 -0.3 24.4 z" class="primitive"/>
              </g>
              <g transform="translate(58.63,55.8)" id="img-5543ed0a-98">
                <path d="M-0.3,-32.53 L 0.3 -32.53 0.3 32.53 -0.3 32.53 z" class="primitive"/>
              </g>
              <g transform="translate(59.18,76.13)" id="img-5543ed0a-99">
                <path d="M-0.3,-12.2 L 0.3 -12.2 0.3 12.2 -0.3 12.2 z" class="primitive"/>
              </g>
              <g transform="translate(59.73,71.04)" id="img-5543ed0a-100">
                <path d="M-0.3,-17.28 L 0.3 -17.28 0.3 17.28 -0.3 17.28 z" class="primitive"/>
              </g>
              <g transform="translate(60.28,73.08)" id="img-5543ed0a-101">
                <path d="M-0.3,-15.25 L 0.3 -15.25 0.3 15.25 -0.3 15.25 z" class="primitive"/>
              </g>
              <g transform="translate(60.83,75.11)" id="img-5543ed0a-102">
                <path d="M-0.3,-13.22 L 0.3 -13.22 0.3 13.22 -0.3 13.22 z" class="primitive"/>
              </g>
              <g transform="translate(61.39,77.14)" id="img-5543ed0a-103">
                <path d="M-0.3,-11.18 L 0.3 -11.18 0.3 11.18 -0.3 11.18 z" class="primitive"/>
              </g>
              <g transform="translate(61.94,79.18)" id="img-5543ed0a-104">
                <path d="M-0.3,-9.15 L 0.3 -9.15 0.3 9.15 -0.3 9.15 z" class="primitive"/>
              </g>
              <g transform="translate(62.49,73.08)" id="img-5543ed0a-105">
                <path d="M-0.3,-15.25 L 0.3 -15.25 0.3 15.25 -0.3 15.25 z" class="primitive"/>
              </g>
              <g transform="translate(63.04,77.14)" id="img-5543ed0a-106">
                <path d="M-0.3,-11.18 L 0.3 -11.18 0.3 11.18 -0.3 11.18 z" class="primitive"/>
              </g>
              <g transform="translate(63.59,78.16)" id="img-5543ed0a-107">
                <path d="M-0.3,-10.17 L 0.3 -10.17 0.3 10.17 -0.3 10.17 z" class="primitive"/>
              </g>
              <g transform="translate(64.14,79.18)" id="img-5543ed0a-108">
                <path d="M-0.3,-9.15 L 0.3 -9.15 0.3 9.15 -0.3 9.15 z" class="primitive"/>
              </g>
              <g transform="translate(64.69,79.18)" id="img-5543ed0a-109">
                <path d="M-0.3,-9.15 L 0.3 -9.15 0.3 9.15 -0.3 9.15 z" class="primitive"/>
              </g>
              <g transform="translate(65.25,78.16)" id="img-5543ed0a-110">
                <path d="M-0.3,-10.17 L 0.3 -10.17 0.3 10.17 -0.3 10.17 z" class="primitive"/>
              </g>
              <g transform="translate(65.8,81.21)" id="img-5543ed0a-111">
                <path d="M-0.3,-7.12 L 0.3 -7.12 0.3 7.12 -0.3 7.12 z" class="primitive"/>
              </g>
              <g transform="translate(66.35,77.14)" id="img-5543ed0a-112">
                <path d="M-0.3,-11.18 L 0.3 -11.18 0.3 11.18 -0.3 11.18 z" class="primitive"/>
              </g>
              <g transform="translate(66.9,78.16)" id="img-5543ed0a-113">
                <path d="M-0.3,-10.17 L 0.3 -10.17 0.3 10.17 -0.3 10.17 z" class="primitive"/>
              </g>
              <g transform="translate(67.45,82.23)" id="img-5543ed0a-114">
                <path d="M-0.3,-6.1 L 0.3 -6.1 0.3 6.1 -0.3 6.1 z" class="primitive"/>
              </g>
              <g transform="translate(68,87.31)" id="img-5543ed0a-115">
                <path d="M-0.3,-1.02 L 0.3 -1.02 0.3 1.02 -0.3 1.02 z" class="primitive"/>
              </g>
              <g transform="translate(68.56,84.26)" id="img-5543ed0a-116">
                <path d="M-0.3,-4.07 L 0.3 -4.07 0.3 4.07 -0.3 4.07 z" class="primitive"/>
              </g>
              <g transform="translate(69.11,86.29)" id="img-5543ed0a-117">
                <path d="M-0.3,-2.03 L 0.3 -2.03 0.3 2.03 -0.3 2.03 z" class="primitive"/>
              </g>
              <g transform="translate(69.66,87.31)" id="img-5543ed0a-118">
                <path d="M-0.3,-1.02 L 0.3 -1.02 0.3 1.02 -0.3 1.02 z" class="primitive"/>
              </g>
              <g transform="translate(70.21,86.29)" id="img-5543ed0a-119">
                <path d="M-0.3,-2.03 L 0.3 -2.03 0.3 2.03 -0.3 2.03 z" class="primitive"/>
              </g>
              <g transform="translate(70.76,87.31)" id="img-5543ed0a-120">
                <path d="M-0.3,-1.02 L 0.3 -1.02 0.3 1.02 -0.3 1.02 z" class="primitive"/>
              </g>
              <g transform="translate(71.31,87.31)" id="img-5543ed0a-121">
                <path d="M-0.3,-1.02 L 0.3 -1.02 0.3 1.02 -0.3 1.02 z" class="primitive"/>
              </g>
              <g transform="translate(71.86,88.33)" id="img-5543ed0a-122">
                <path d="M-0.3,-0 L 0.3 -0 0.3 0 -0.3 0 z" class="primitive"/>
              </g>
              <g transform="translate(72.42,87.31)" id="img-5543ed0a-123">
                <path d="M-0.3,-1.02 L 0.3 -1.02 0.3 1.02 -0.3 1.02 z" class="primitive"/>
              </g>
              <g transform="translate(72.97,88.33)" id="img-5543ed0a-124">
                <path d="M-0.3,-0 L 0.3 -0 0.3 0 -0.3 0 z" class="primitive"/>
              </g>
              <g transform="translate(73.52,88.33)" id="img-5543ed0a-125">
                <path d="M-0.3,-0 L 0.3 -0 0.3 0 -0.3 0 z" class="primitive"/>
              </g>
              <g transform="translate(74.07,88.33)" id="img-5543ed0a-126">
                <path d="M-0.3,-0 L 0.3 -0 0.3 0 -0.3 0 z" class="primitive"/>
              </g>
              <g transform="translate(74.62,88.33)" id="img-5543ed0a-127">
                <path d="M-0.3,-0 L 0.3 -0 0.3 0 -0.3 0 z" class="primitive"/>
              </g>
              <g transform="translate(75.17,88.33)" id="img-5543ed0a-128">
                <path d="M-0.3,-0 L 0.3 -0 0.3 0 -0.3 0 z" class="primitive"/>
              </g>
              <g transform="translate(75.72,87.31)" id="img-5543ed0a-129">
                <path d="M-0.3,-1.02 L 0.3 -1.02 0.3 1.02 -0.3 1.02 z" class="primitive"/>
              </g>
              <g transform="translate(76.28,88.33)" id="img-5543ed0a-130">
                <path d="M-0.3,-0 L 0.3 -0 0.3 0 -0.3 0 z" class="primitive"/>
              </g>
              <g transform="translate(76.83,87.31)" id="img-5543ed0a-131">
                <path d="M-0.3,-1.02 L 0.3 -1.02 0.3 1.02 -0.3 1.02 z" class="primitive"/>
              </g>
            </g>
          </g>
        </g>
      </g>
    </g>
  </g>
  <g class="guide ylabels" font-size="2.82" font-family="'PT Sans Caption','Helvetica Neue','Helvetica',sans-serif" fill="#6C606B" id="img-5543ed0a-132">
    <g transform="translate(16.96,88.33)" id="img-5543ed0a-133">
      <g class="primitive">
        <text text-anchor="end" dy="0.35em">0</text>
      </g>
    </g>
    <g transform="translate(16.96,68)" id="img-5543ed0a-134">
      <g class="primitive">
        <text text-anchor="end" dy="0.35em">10</text>
      </g>
    </g>
    <g transform="translate(16.96,47.66)" id="img-5543ed0a-135">
      <g class="primitive">
        <text text-anchor="end" dy="0.35em">20</text>
      </g>
    </g>
    <g transform="translate(16.96,27.33)" id="img-5543ed0a-136">
      <g class="primitive">
        <text text-anchor="end" dy="0.35em">30</text>
      </g>
    </g>
    <g transform="translate(16.96,7)" id="img-5543ed0a-137">
      <g class="primitive">
        <text text-anchor="end" dy="0.35em">40</text>
      </g>
    </g>
  </g>
  <g font-size="3.88" font-family="'PT Sans','Helvetica Neue','Helvetica',sans-serif" fill="#564A55" stroke="#000000" stroke-opacity="0.000" id="img-5543ed0a-138">
    <g transform="translate(8.81,45.66)" id="img-5543ed0a-139">
      <g class="primitive">
        <text text-anchor="middle" dy="0.35em" transform="rotate(-90,0, 2)">frequency</text>
      </g>
    </g>
  </g>
</g>
<defs>
  <clipPath id="img-5543ed0a-11">
    <path d="M17.96,5 L 79.86 5 79.86 90.33 17.96 90.33" />
  </clipPath>
</defs>
</svg>
