<?xml version="1.0" encoding="UTF-8"?>
<svg xmlns="http://www.w3.org/2000/svg"
     xmlns:xlink="http://www.w3.org/1999/xlink"
     xmlns:gadfly="http://www.gadflyjl.org/ns"
     version="1.2"
     width="141.42mm" height="100mm" viewBox="0 0 141.42 100"
     stroke="none"
     fill="#000000"
     stroke-width="0.3"
     font-size="3.88"
>
<defs>
  <marker id="arrow" markerWidth="15" markerHeight="7" refX="5" refY="3.5" orient="auto" markerUnits="strokeWidth">
    <path d="M0,0 L15,3.5 L0,7 z" stroke="context-stroke" fill="context-stroke"/>
  </marker>
</defs>
<g class="plotroot xscalable yscalable" id="img-63b6c23f-1">
  <g class="guide xlabels" font-size="2.82" font-family="'PT Sans Caption','Helvetica Neue','Helvetica',sans-serif" fill="#6C606B" id="img-63b6c23f-2">
    <g transform="translate(19.96,91.33)">
      <g class="primitive">
        <text text-anchor="middle" dy="0.6em">10.5</text>
      </g>
    </g>
    <g transform="translate(31.36,91.33)">
      <g class="primitive">
        <text text-anchor="middle" dy="0.6em">10.6</text>
      </g>
    </g>
    <g transform="translate(42.77,91.33)">
      <g class="primitive">
        <text text-anchor="middle" dy="0.6em">10.7</text>
      </g>
    </g>
    <g transform="translate(54.18,91.33)">
      <g class="primitive">
        <text text-anchor="middle" dy="0.6em">10.8</text>
      </g>
    </g>
    <g transform="translate(65.58,91.33)">
      <g class="primitive">
        <text text-anchor="middle" dy="0.6em">10.9</text>
      </g>
    </g>
    <g transform="translate(76.99,91.33)">
      <g class="primitive">
        <text text-anchor="middle" dy="0.6em">11.0</text>
      </g>
    </g>
    <g transform="translate(88.39,91.33)">
      <g class="primitive">
        <text text-anchor="middle" dy="0.6em">11.1</text>
      </g>
    </g>
  </g>
  <g class="guide colorkey" id="img-63b6c23f-3">
    <g class="color_coding_noncoding_noncoding_3-tri" id="img-63b6c23f-4">
      <g fill="#4C404B" font-size="2.82" font-family="'PT Sans','Helvetica Neue','Helvetica',sans-serif" id="img-63b6c23f-5">
        <g transform="translate(94.21,49.48)" id="img-63b6c23f-6">
          <g class="primitive">
            <text dy="0.35em">coding_noncoding_noncoding_3-tri</text>
          </g>
        </g>
      </g>
      <g fill-opacity="1" fill="#00BFFF" stroke="#FFFFFF" id="img-63b6c23f-7">
        <g transform="translate(92.3,49.48)" id="img-63b6c23f-8">
          <path d="M-0.91,-0.91 L 0.91 -0.91 0.91 0.91 -0.91 0.91 z" class="primitive"/>
        </g>
      </g>
    </g>
    <g fill="#362A35" font-size="3.88" font-family="'PT Sans','Helvetica Neue','Helvetica',sans-serif" stroke="#000000" stroke-opacity="0.000" id="img-63b6c23f-9">
      <g transform="translate(91.39,45.66)" id="img-63b6c23f-10">
        <g class="primitive">
          <text dy="-0em">graphlet</text>
        </g>
      </g>
    </g>
  </g>
  <g clip-path="url(#img-63b6c23f-11)">
    <g id="img-63b6c23f-12">
      <g pointer-events="visible" stroke-width="0.3" fill="#000000" fill-opacity="0.000" stroke="#000000" stroke-opacity="0.000" class="guide background" id="img-63b6c23f-13">
        <g transform="translate(54.18,47.66)" id="img-63b6c23f-14">
          <path d="M-36.22,-42.66 L 36.22 -42.66 36.22 42.66 -36.22 42.66 z" class="primitive"/>
        </g>
      </g>
      <g class="guide ygridlines xfixed" stroke-dasharray="0.5,0.5" stroke-width="0.2" stroke="#D0D0E0" id="img-63b6c23f-15">
        <g transform="translate(54.18,88.33)" id="img-63b6c23f-16">
          <path fill="none" d="M-36.22,0 L 36.22 0" class="primitive"/>
        </g>
        <g transform="translate(54.18,68)" id="img-63b6c23f-17">
          <path fill="none" d="M-36.22,0 L 36.22 0" class="primitive"/>
        </g>
        <g transform="translate(54.18,47.66)" id="img-63b6c23f-18">
          <path fill="none" d="M-36.22,0 L 36.22 0" class="primitive"/>
        </g>
        <g transform="translate(54.18,27.33)" id="img-63b6c23f-19">
          <path fill="none" d="M-36.22,0 L 36.22 0" class="primitive"/>
        </g>
        <g transform="translate(54.18,7)" id="img-63b6c23f-20">
          <path fill="none" d="M-36.22,0 L 36.22 0" class="primitive"/>
        </g>
      </g>
      <g class="guide xgridlines yfixed" stroke-dasharray="0.5,0.5" stroke-width="0.2" stroke="#D0D0E0" id="img-63b6c23f-21">
        <g transform="translate(19.96,47.66)" id="img-63b6c23f-22">
          <path fill="none" d="M0,-42.66 L 0 42.66" class="primitive"/>
        </g>
        <g transform="translate(31.36,47.66)" id="img-63b6c23f-23">
          <path fill="none" d="M0,-42.66 L 0 42.66" class="primitive"/>
        </g>
        <g transform="translate(42.77,47.66)" id="img-63b6c23f-24">
          <path fill="none" d="M0,-42.66 L 0 42.66" class="primitive"/>
        </g>
        <g transform="translate(54.18,47.66)" id="img-63b6c23f-25">
          <path fill="none" d="M0,-42.66 L 0 42.66" class="primitive"/>
        </g>
        <g transform="translate(65.58,47.66)" id="img-63b6c23f-26">
          <path fill="none" d="M0,-42.66 L 0 42.66" class="primitive"/>
        </g>
        <g transform="translate(76.99,47.66)" id="img-63b6c23f-27">
          <path fill="none" d="M0,-42.66 L 0 42.66" class="primitive"/>
        </g>
        <g transform="translate(88.39,47.66)" id="img-63b6c23f-28">
          <path fill="none" d="M0,-42.66 L 0 42.66" class="primitive"/>
        </g>
      </g>
      <g class="plotpanel" id="img-63b6c23f-29">
        <metadata>
          <boundingbox value="17.95833333333333mm 5.0mm 72.43635623730951mm 85.32666666666667mm"/>
          <unitbox value="10.482465460378416 40.98368718747438 0.6350690792431712 -41.96737437494876"/>
        </metadata>
        <g shape-rendering="crispEdges" stroke-width="0.3" id="img-63b6c23f-30">
          <g stroke="#000000" stroke-opacity="0.000" class="geometry" id="img-63b6c23f-31">
            <g fill="#00BFFF" id="img-63b6c23f-32">
              <g transform="translate(25.7,87.31)" id="img-63b6c23f-33">
                <path d="M-0.33,-1.02 L 0.33 -1.02 0.33 1.02 -0.33 1.02 z" class="primitive"/>
              </g>
              <g transform="translate(26.3,88.33)" id="img-63b6c23f-34">
                <path d="M-0.33,-0 L 0.33 -0 0.33 0 -0.33 0 z" class="primitive"/>
              </g>
              <g transform="translate(26.9,88.33)" id="img-63b6c23f-35">
                <path d="M-0.33,-0 L 0.33 -0 0.33 0 -0.33 0 z" class="primitive"/>
              </g>
              <g transform="translate(27.51,88.33)" id="img-63b6c23f-36">
                <path d="M-0.33,-0 L 0.33 -0 0.33 0 -0.33 0 z" class="primitive"/>
              </g>
              <g transform="translate(28.11,88.33)" id="img-63b6c23f-37">
                <path d="M-0.33,-0 L 0.33 -0 0.33 0 -0.33 0 z" class="primitive"/>
              </g>
              <g transform="translate(28.72,87.31)" id="img-63b6c23f-38">
                <path d="M-0.33,-1.02 L 0.33 -1.02 0.33 1.02 -0.33 1.02 z" class="primitive"/>
              </g>
              <g transform="translate(29.32,88.33)" id="img-63b6c23f-39">
                <path d="M-0.33,-0 L 0.33 -0 0.33 0 -0.33 0 z" class="primitive"/>
              </g>
              <g transform="translate(29.93,88.33)" id="img-63b6c23f-40">
                <path d="M-0.33,-0 L 0.33 -0 0.33 0 -0.33 0 z" class="primitive"/>
              </g>
              <g transform="translate(30.53,87.31)" id="img-63b6c23f-41">
                <path d="M-0.33,-1.02 L 0.33 -1.02 0.33 1.02 -0.33 1.02 z" class="primitive"/>
              </g>
              <g transform="translate(31.14,88.33)" id="img-63b6c23f-42">
                <path d="M-0.33,-0 L 0.33 -0 0.33 0 -0.33 0 z" class="primitive"/>
              </g>
              <g transform="translate(31.74,88.33)" id="img-63b6c23f-43">
                <path d="M-0.33,-0 L 0.33 -0 0.33 0 -0.33 0 z" class="primitive"/>
              </g>
              <g transform="translate(32.34,87.31)" id="img-63b6c23f-44">
                <path d="M-0.33,-1.02 L 0.33 -1.02 0.33 1.02 -0.33 1.02 z" class="primitive"/>
              </g>
              <g transform="translate(32.95,88.33)" id="img-63b6c23f-45">
                <path d="M-0.33,-0 L 0.33 -0 0.33 0 -0.33 0 z" class="primitive"/>
              </g>
              <g transform="translate(33.55,87.31)" id="img-63b6c23f-46">
                <path d="M-0.33,-1.02 L 0.33 -1.02 0.33 1.02 -0.33 1.02 z" class="primitive"/>
              </g>
              <g transform="translate(34.16,88.33)" id="img-63b6c23f-47">
                <path d="M-0.33,-0 L 0.33 -0 0.33 0 -0.33 0 z" class="primitive"/>
              </g>
              <g transform="translate(34.76,86.29)" id="img-63b6c23f-48">
                <path d="M-0.33,-2.03 L 0.33 -2.03 0.33 2.03 -0.33 2.03 z" class="primitive"/>
              </g>
              <g transform="translate(35.37,87.31)" id="img-63b6c23f-49">
                <path d="M-0.33,-1.02 L 0.33 -1.02 0.33 1.02 -0.33 1.02 z" class="primitive"/>
              </g>
              <g transform="translate(35.97,88.33)" id="img-63b6c23f-50">
                <path d="M-0.33,-0 L 0.33 -0 0.33 0 -0.33 0 z" class="primitive"/>
              </g>
              <g transform="translate(36.58,87.31)" id="img-63b6c23f-51">
                <path d="M-0.33,-1.02 L 0.33 -1.02 0.33 1.02 -0.33 1.02 z" class="primitive"/>
              </g>
              <g transform="translate(37.18,88.33)" id="img-63b6c23f-52">
                <path d="M-0.33,-0 L 0.33 -0 0.33 0 -0.33 0 z" class="primitive"/>
              </g>
              <g transform="translate(37.78,84.26)" id="img-63b6c23f-53">
                <path d="M-0.33,-4.07 L 0.33 -4.07 0.33 4.07 -0.33 4.07 z" class="primitive"/>
              </g>
              <g transform="translate(38.39,87.31)" id="img-63b6c23f-54">
                <path d="M-0.33,-1.02 L 0.33 -1.02 0.33 1.02 -0.33 1.02 z" class="primitive"/>
              </g>
              <g transform="translate(38.99,85.28)" id="img-63b6c23f-55">
                <path d="M-0.33,-3.05 L 0.33 -3.05 0.33 3.05 -0.33 3.05 z" class="primitive"/>
              </g>
              <g transform="translate(39.6,84.26)" id="img-63b6c23f-56">
                <path d="M-0.33,-4.07 L 0.33 -4.07 0.33 4.07 -0.33 4.07 z" class="primitive"/>
              </g>
              <g transform="translate(40.2,86.29)" id="img-63b6c23f-57">
                <path d="M-0.33,-2.03 L 0.33 -2.03 0.33 2.03 -0.33 2.03 z" class="primitive"/>
              </g>
              <g transform="translate(40.81,85.28)" id="img-63b6c23f-58">
                <path d="M-0.33,-3.05 L 0.33 -3.05 0.33 3.05 -0.33 3.05 z" class="primitive"/>
              </g>
              <g transform="translate(41.41,85.28)" id="img-63b6c23f-59">
                <path d="M-0.33,-3.05 L 0.33 -3.05 0.33 3.05 -0.33 3.05 z" class="primitive"/>
              </g>
              <g transform="translate(42.02,85.28)" id="img-63b6c23f-60">
                <path d="M-0.33,-3.05 L 0.33 -3.05 0.33 3.05 -0.33 3.05 z" class="primitive"/>
              </g>
              <g transform="translate(42.62,85.28)" id="img-63b6c23f-61">
                <path d="M-0.33,-3.05 L 0.33 -3.05 0.33 3.05 -0.33 3.05 z" class="primitive"/>
              </g>
              <g transform="translate(43.22,80.19)" id="img-63b6c23f-62">
                <path d="M-0.33,-8.13 L 0.33 -8.13 0.33 8.13 -0.33 8.13 z" class="primitive"/>
              </g>
              <g transform="translate(43.83,80.19)" id="img-63b6c23f-63">
                <path d="M-0.33,-8.13 L 0.33 -8.13 0.33 8.13 -0.33 8.13 z" class="primitive"/>
              </g>
              <g transform="translate(44.43,79.18)" id="img-63b6c23f-64">
                <path d="M-0.33,-9.15 L 0.33 -9.15 0.33 9.15 -0.33 9.15 z" class="primitive"/>
              </g>
              <g transform="translate(45.04,80.19)" id="img-63b6c23f-65">
                <path d="M-0.33,-8.13 L 0.33 -8.13 0.33 8.13 -0.33 8.13 z" class="primitive"/>
              </g>
              <g transform="translate(45.64,77.14)" id="img-63b6c23f-66">
                <path d="M-0.33,-11.18 L 0.33 -11.18 0.33 11.18 -0.33 11.18 z" class="primitive"/>
              </g>
              <g transform="translate(46.25,74.09)" id="img-63b6c23f-67">
                <path d="M-0.33,-14.23 L 0.33 -14.23 0.33 14.23 -0.33 14.23 z" class="primitive"/>
              </g>
              <g transform="translate(46.85,71.04)" id="img-63b6c23f-68">
                <path d="M-0.33,-17.28 L 0.33 -17.28 0.33 17.28 -0.33 17.28 z" class="primitive"/>
              </g>
              <g transform="translate(47.46,71.04)" id="img-63b6c23f-69">
                <path d="M-0.33,-17.28 L 0.33 -17.28 0.33 17.28 -0.33 17.28 z" class="primitive"/>
              </g>
              <g transform="translate(48.06,76.13)" id="img-63b6c23f-70">
                <path d="M-0.33,-12.2 L 0.33 -12.2 0.33 12.2 -0.33 12.2 z" class="primitive"/>
              </g>
              <g transform="translate(48.66,73.08)" id="img-63b6c23f-71">
                <path d="M-0.33,-15.25 L 0.33 -15.25 0.33 15.25 -0.33 15.25 z" class="primitive"/>
              </g>
              <g transform="translate(49.27,72.06)" id="img-63b6c23f-72">
                <path d="M-0.33,-16.27 L 0.33 -16.27 0.33 16.27 -0.33 16.27 z" class="primitive"/>
              </g>
              <g transform="translate(49.87,68)" id="img-63b6c23f-73">
                <path d="M-0.33,-20.33 L 0.33 -20.33 0.33 20.33 -0.33 20.33 z" class="primitive"/>
              </g>
              <g transform="translate(50.48,65.96)" id="img-63b6c23f-74">
                <path d="M-0.33,-22.36 L 0.33 -22.36 0.33 22.36 -0.33 22.36 z" class="primitive"/>
              </g>
              <g transform="translate(51.08,68)" id="img-63b6c23f-75">
                <path d="M-0.33,-20.33 L 0.33 -20.33 0.33 20.33 -0.33 20.33 z" class="primitive"/>
              </g>
              <g transform="translate(51.69,70.03)" id="img-63b6c23f-76">
                <path d="M-0.33,-18.3 L 0.33 -18.3 0.33 18.3 -0.33 18.3 z" class="primitive"/>
              </g>
              <g transform="translate(52.29,69.01)" id="img-63b6c23f-77">
                <path d="M-0.33,-19.32 L 0.33 -19.32 0.33 19.32 -0.33 19.32 z" class="primitive"/>
              </g>
              <g transform="translate(52.89,70.03)" id="img-63b6c23f-78">
                <path d="M-0.33,-18.3 L 0.33 -18.3 0.33 18.3 -0.33 18.3 z" class="primitive"/>
              </g>
              <g transform="translate(53.5,54.78)" id="img-63b6c23f-79">
                <path d="M-0.33,-33.55 L 0.33 -33.55 0.33 33.55 -0.33 33.55 z" class="primitive"/>
              </g>
              <g transform="translate(54.1,58.85)" id="img-63b6c23f-80">
                <path d="M-0.33,-29.48 L 0.33 -29.48 0.33 29.48 -0.33 29.48 z" class="primitive"/>
              </g>
              <g transform="translate(54.71,58.85)" id="img-63b6c23f-81">
                <path d="M-0.33,-29.48 L 0.33 -29.48 0.33 29.48 -0.33 29.48 z" class="primitive"/>
              </g>
              <g transform="translate(55.31,65.96)" id="img-63b6c23f-82">
                <path d="M-0.33,-22.36 L 0.33 -22.36 0.33 22.36 -0.33 22.36 z" class="primitive"/>
              </g>
              <g transform="translate(55.92,71.04)" id="img-63b6c23f-83">
                <path d="M-0.33,-17.28 L 0.33 -17.28 0.33 17.28 -0.33 17.28 z" class="primitive"/>
              </g>
              <g transform="translate(56.52,69.01)" id="img-63b6c23f-84">
                <path d="M-0.33,-19.32 L 0.33 -19.32 0.33 19.32 -0.33 19.32 z" class="primitive"/>
              </g>
              <g transform="translate(57.13,58.85)" id="img-63b6c23f-85">
                <path d="M-0.33,-29.48 L 0.33 -29.48 0.33 29.48 -0.33 29.48 z" class="primitive"/>
              </g>
              <g transform="translate(57.73,60.88)" id="img-63b6c23f-86">
                <path d="M-0.33,-27.45 L 0.33 -27.45 0.33 27.45 -0.33 27.45 z" class="primitive"/>
              </g>
              <g transform="translate(58.33,65.96)" id="img-63b6c23f-87">
                <path d="M-0.33,-22.36 L 0.33 -22.36 0.33 22.36 -0.33 22.36 z" class="primitive"/>
              </g>
              <g transform="translate(58.94,59.86)" id="img-63b6c23f-88">
                <path d="M-0.33,-28.46 L 0.33 -28.46 0.33 28.46 -0.33 28.46 z" class="primitive"/>
              </g>
              <g transform="translate(59.54,55.8)" id="img-63b6c23f-89">
                <path d="M-0.33,-32.53 L 0.33 -32.53 0.33 32.53 -0.33 32.53 z" class="primitive"/>
              </g>
              <g transform="translate(60.15,64.95)" id="img-63b6c23f-90">
                <path d="M-0.33,-23.38 L 0.33 -23.38 0.33 23.38 -0.33 23.38 z" class="primitive"/>
              </g>
              <g transform="translate(60.75,72.06)" id="img-63b6c23f-91">
                <path d="M-0.33,-16.27 L 0.33 -16.27 0.33 16.27 -0.33 16.27 z" class="primitive"/>
              </g>
              <g transform="translate(61.36,63.93)" id="img-63b6c23f-92">
                <path d="M-0.33,-24.4 L 0.33 -24.4 0.33 24.4 -0.33 24.4 z" class="primitive"/>
              </g>
              <g transform="translate(61.96,57.83)" id="img-63b6c23f-93">
                <path d="M-0.33,-30.5 L 0.33 -30.5 0.33 30.5 -0.33 30.5 z" class="primitive"/>
              </g>
              <g transform="translate(62.57,70.03)" id="img-63b6c23f-94">
                <path d="M-0.33,-18.3 L 0.33 -18.3 0.33 18.3 -0.33 18.3 z" class="primitive"/>
              </g>
              <g transform="translate(63.17,66.98)" id="img-63b6c23f-95">
                <path d="M-0.33,-21.35 L 0.33 -21.35 0.33 21.35 -0.33 21.35 z" class="primitive"/>
              </g>
              <g transform="translate(63.77,62.91)" id="img-63b6c23f-96">
                <path d="M-0.33,-25.41 L 0.33 -25.41 0.33 25.41 -0.33 25.41 z" class="primitive"/>
              </g>
              <g transform="translate(64.38,64.95)" id="img-63b6c23f-97">
                <path d="M-0.33,-23.38 L 0.33 -23.38 0.33 23.38 -0.33 23.38 z" class="primitive"/>
              </g>
              <g transform="translate(64.98,73.08)" id="img-63b6c23f-98">
                <path d="M-0.33,-15.25 L 0.33 -15.25 0.33 15.25 -0.33 15.25 z" class="primitive"/>
              </g>
              <g transform="translate(65.59,65.96)" id="img-63b6c23f-99">
                <path d="M-0.33,-22.36 L 0.33 -22.36 0.33 22.36 -0.33 22.36 z" class="primitive"/>
              </g>
              <g transform="translate(66.19,70.03)" id="img-63b6c23f-100">
                <path d="M-0.33,-18.3 L 0.33 -18.3 0.33 18.3 -0.33 18.3 z" class="primitive"/>
              </g>
              <g transform="translate(66.8,63.93)" id="img-63b6c23f-101">
                <path d="M-0.33,-24.4 L 0.33 -24.4 0.33 24.4 -0.33 24.4 z" class="primitive"/>
              </g>
              <g transform="translate(67.4,74.09)" id="img-63b6c23f-102">
                <path d="M-0.33,-14.23 L 0.33 -14.23 0.33 14.23 -0.33 14.23 z" class="primitive"/>
              </g>
              <g transform="translate(68.01,68)" id="img-63b6c23f-103">
                <path d="M-0.33,-20.33 L 0.33 -20.33 0.33 20.33 -0.33 20.33 z" class="primitive"/>
              </g>
              <g transform="translate(68.61,75.11)" id="img-63b6c23f-104">
                <path d="M-0.33,-13.22 L 0.33 -13.22 0.33 13.22 -0.33 13.22 z" class="primitive"/>
              </g>
              <g transform="translate(69.21,73.08)" id="img-63b6c23f-105">
                <path d="M-0.33,-15.25 L 0.33 -15.25 0.33 15.25 -0.33 15.25 z" class="primitive"/>
              </g>
              <g transform="translate(69.82,78.16)" id="img-63b6c23f-106">
                <path d="M-0.33,-10.17 L 0.33 -10.17 0.33 10.17 -0.33 10.17 z" class="primitive"/>
              </g>
              <g transform="translate(70.42,78.16)" id="img-63b6c23f-107">
                <path d="M-0.33,-10.17 L 0.33 -10.17 0.33 10.17 -0.33 10.17 z" class="primitive"/>
              </g>
              <g transform="translate(71.03,76.13)" id="img-63b6c23f-108">
                <path d="M-0.33,-12.2 L 0.33 -12.2 0.33 12.2 -0.33 12.2 z" class="primitive"/>
              </g>
              <g transform="translate(71.63,77.14)" id="img-63b6c23f-109">
                <path d="M-0.33,-11.18 L 0.33 -11.18 0.33 11.18 -0.33 11.18 z" class="primitive"/>
              </g>
              <g transform="translate(72.24,84.26)" id="img-63b6c23f-110">
                <path d="M-0.33,-4.07 L 0.33 -4.07 0.33 4.07 -0.33 4.07 z" class="primitive"/>
              </g>
              <g transform="translate(72.84,81.21)" id="img-63b6c23f-111">
                <path d="M-0.33,-7.12 L 0.33 -7.12 0.33 7.12 -0.33 7.12 z" class="primitive"/>
              </g>
              <g transform="translate(73.44,82.23)" id="img-63b6c23f-112">
                <path d="M-0.33,-6.1 L 0.33 -6.1 0.33 6.1 -0.33 6.1 z" class="primitive"/>
              </g>
              <g transform="translate(74.05,83.24)" id="img-63b6c23f-113">
                <path d="M-0.33,-5.08 L 0.33 -5.08 0.33 5.08 -0.33 5.08 z" class="primitive"/>
              </g>
              <g transform="translate(74.65,84.26)" id="img-63b6c23f-114">
                <path d="M-0.33,-4.07 L 0.33 -4.07 0.33 4.07 -0.33 4.07 z" class="primitive"/>
              </g>
              <g transform="translate(75.26,85.28)" id="img-63b6c23f-115">
                <path d="M-0.33,-3.05 L 0.33 -3.05 0.33 3.05 -0.33 3.05 z" class="primitive"/>
              </g>
              <g transform="translate(75.86,82.23)" id="img-63b6c23f-116">
                <path d="M-0.33,-6.1 L 0.33 -6.1 0.33 6.1 -0.33 6.1 z" class="primitive"/>
              </g>
              <g transform="translate(76.47,82.23)" id="img-63b6c23f-117">
                <path d="M-0.33,-6.1 L 0.33 -6.1 0.33 6.1 -0.33 6.1 z" class="primitive"/>
              </g>
              <g transform="translate(77.07,84.26)" id="img-63b6c23f-118">
                <path d="M-0.33,-4.07 L 0.33 -4.07 0.33 4.07 -0.33 4.07 z" class="primitive"/>
              </g>
              <g transform="translate(77.68,84.26)" id="img-63b6c23f-119">
                <path d="M-0.33,-4.07 L 0.33 -4.07 0.33 4.07 -0.33 4.07 z" class="primitive"/>
              </g>
              <g transform="translate(78.28,86.29)" id="img-63b6c23f-120">
                <path d="M-0.33,-2.03 L 0.33 -2.03 0.33 2.03 -0.33 2.03 z" class="primitive"/>
              </g>
              <g transform="translate(78.88,83.24)" id="img-63b6c23f-121">
                <path d="M-0.33,-5.08 L 0.33 -5.08 0.33 5.08 -0.33 5.08 z" class="primitive"/>
              </g>
              <g transform="translate(79.49,87.31)" id="img-63b6c23f-122">
                <path d="M-0.33,-1.02 L 0.33 -1.02 0.33 1.02 -0.33 1.02 z" class="primitive"/>
              </g>
              <g transform="translate(80.09,88.33)" id="img-63b6c23f-123">
                <path d="M-0.33,-0 L 0.33 -0 0.33 0 -0.33 0 z" class="primitive"/>
              </g>
              <g transform="translate(80.7,87.31)" id="img-63b6c23f-124">
                <path d="M-0.33,-1.02 L 0.33 -1.02 0.33 1.02 -0.33 1.02 z" class="primitive"/>
              </g>
              <g transform="translate(81.3,87.31)" id="img-63b6c23f-125">
                <path d="M-0.33,-1.02 L 0.33 -1.02 0.33 1.02 -0.33 1.02 z" class="primitive"/>
              </g>
              <g transform="translate(81.91,88.33)" id="img-63b6c23f-126">
                <path d="M-0.33,-0 L 0.33 -0 0.33 0 -0.33 0 z" class="primitive"/>
              </g>
              <g transform="translate(82.51,88.33)" id="img-63b6c23f-127">
                <path d="M-0.33,-0 L 0.33 -0 0.33 0 -0.33 0 z" class="primitive"/>
              </g>
              <g transform="translate(83.12,87.31)" id="img-63b6c23f-128">
                <path d="M-0.33,-1.02 L 0.33 -1.02 0.33 1.02 -0.33 1.02 z" class="primitive"/>
              </g>
              <g transform="translate(83.72,88.33)" id="img-63b6c23f-129">
                <path d="M-0.33,-0 L 0.33 -0 0.33 0 -0.33 0 z" class="primitive"/>
              </g>
              <g transform="translate(84.32,88.33)" id="img-63b6c23f-130">
                <path d="M-0.33,-0 L 0.33 -0 0.33 0 -0.33 0 z" class="primitive"/>
              </g>
              <g transform="translate(84.93,88.33)" id="img-63b6c23f-131">
                <path d="M-0.33,-0 L 0.33 -0 0.33 0 -0.33 0 z" class="primitive"/>
              </g>
              <g transform="translate(85.53,86.29)" id="img-63b6c23f-132">
                <path d="M-0.33,-2.03 L 0.33 -2.03 0.33 2.03 -0.33 2.03 z" class="primitive"/>
              </g>
            </g>
          </g>
        </g>
      </g>
    </g>
  </g>
  <g class="guide ylabels" font-size="2.82" font-family="'PT Sans Caption','Helvetica Neue','Helvetica',sans-serif" fill="#6C606B" id="img-63b6c23f-133">
    <g transform="translate(16.96,88.33)" id="img-63b6c23f-134">
      <g class="primitive">
        <text text-anchor="end" dy="0.35em">0</text>
      </g>
    </g>
    <g transform="translate(16.96,68)" id="img-63b6c23f-135">
      <g class="primitive">
        <text text-anchor="end" dy="0.35em">10</text>
      </g>
    </g>
    <g transform="translate(16.96,47.66)" id="img-63b6c23f-136">
      <g class="primitive">
        <text text-anchor="end" dy="0.35em">20</text>
      </g>
    </g>
    <g transform="translate(16.96,27.33)" id="img-63b6c23f-137">
      <g class="primitive">
        <text text-anchor="end" dy="0.35em">30</text>
      </g>
    </g>
    <g transform="translate(16.96,7)" id="img-63b6c23f-138">
      <g class="primitive">
        <text text-anchor="end" dy="0.35em">40</text>
      </g>
    </g>
  </g>
  <g font-size="3.88" font-family="'PT Sans','Helvetica Neue','Helvetica',sans-serif" fill="#564A55" stroke="#000000" stroke-opacity="0.000" id="img-63b6c23f-139">
    <g transform="translate(8.81,45.66)" id="img-63b6c23f-140">
      <g class="primitive">
        <text text-anchor="middle" dy="0.35em" transform="rotate(-90,0, 2)">frequency</text>
      </g>
    </g>
  </g>
</g>
<defs>
  <clipPath id="img-63b6c23f-11">
    <path d="M17.96,5 L 90.39 5 90.39 90.33 17.96 90.33" />
  </clipPath>
</defs>
</svg>
