<?xml version="1.0" encoding="UTF-8"?>
<svg xmlns="http://www.w3.org/2000/svg"
     xmlns:xlink="http://www.w3.org/1999/xlink"
     xmlns:gadfly="http://www.gadflyjl.org/ns"
     version="1.2"
     width="141.42mm" height="100mm" viewBox="0 0 141.42 100"
     stroke="none"
     fill="#000000"
     stroke-width="0.3"
     font-size="3.88"
>
<defs>
  <marker id="arrow" markerWidth="15" markerHeight="7" refX="5" refY="3.5" orient="auto" markerUnits="strokeWidth">
    <path d="M0,0 L15,3.5 L0,7 z" stroke="context-stroke" fill="context-stroke"/>
  </marker>
</defs>
<g class="plotroot xscalable yscalable" id="img-d4809217-1">
  <g class="guide xlabels" font-size="2.82" font-family="'PT Sans Caption','Helvetica Neue','Helvetica',sans-serif" fill="#6C606B" id="img-d4809217-2">
    <g transform="translate(19.96,81.89)">
      <g class="primitive">
        <text text-anchor="end" dy="0.35em" transform="rotate(-90,0, 0)">3.0×10⁵</text>
      </g>
    </g>
    <g transform="translate(32.91,81.89)">
      <g class="primitive">
        <text text-anchor="end" dy="0.35em" transform="rotate(-90,0, 0)">4.0×10⁵</text>
      </g>
    </g>
    <g transform="translate(45.87,81.89)">
      <g class="primitive">
        <text text-anchor="end" dy="0.35em" transform="rotate(-90,0, 0)">5.0×10⁵</text>
      </g>
    </g>
    <g transform="translate(58.83,81.89)">
      <g class="primitive">
        <text text-anchor="end" dy="0.35em" transform="rotate(-90,0, 0)">6.0×10⁵</text>
      </g>
    </g>
    <g transform="translate(71.78,81.89)">
      <g class="primitive">
        <text text-anchor="end" dy="0.35em" transform="rotate(-90,0, 0)">7.0×10⁵</text>
      </g>
    </g>
  </g>
  <g class="guide colorkey" id="img-d4809217-3">
    <g class="color_noncoding_coding_noncoding_noncoding_4-path" id="img-d4809217-4">
      <g fill="#4C404B" font-size="2.82" font-family="'PT Sans','Helvetica Neue','Helvetica',sans-serif" id="img-d4809217-5">
        <g transform="translate(77.59,44.76)" id="img-d4809217-6">
          <g class="primitive">
            <text dy="0.35em">noncoding_coding_noncoding_noncoding_4-path</text>
          </g>
        </g>
      </g>
      <g fill-opacity="1" fill="#00BFFF" stroke="#FFFFFF" id="img-d4809217-7">
        <g transform="translate(75.69,44.76)" id="img-d4809217-8">
          <path d="M-0.91,-0.91 L 0.91 -0.91 0.91 0.91 -0.91 0.91 z" class="primitive"/>
        </g>
      </g>
    </g>
    <g fill="#362A35" font-size="3.88" font-family="'PT Sans','Helvetica Neue','Helvetica',sans-serif" stroke="#000000" stroke-opacity="0.000" id="img-d4809217-9">
      <g transform="translate(74.78,40.94)" id="img-d4809217-10">
        <g class="primitive">
          <text dy="-0em">graphlet</text>
        </g>
      </g>
    </g>
  </g>
  <g clip-path="url(#img-d4809217-11)">
    <g id="img-d4809217-12">
      <g pointer-events="visible" stroke-width="0.3" fill="#000000" fill-opacity="0.000" stroke="#000000" stroke-opacity="0.000" class="guide background" id="img-d4809217-13">
        <g transform="translate(45.87,42.94)" id="img-d4809217-14">
          <path d="M-27.91,-37.94 L 27.91 -37.94 27.91 37.94 -27.91 37.94 z" class="primitive"/>
        </g>
      </g>
      <g class="guide ygridlines xfixed" stroke-dasharray="0.5,0.5" stroke-width="0.2" stroke="#D0D0E0" id="img-d4809217-15">
        <g transform="translate(45.87,78.89)" id="img-d4809217-16">
          <path fill="none" d="M-27.91,0 L 27.91 0" class="primitive"/>
        </g>
        <g transform="translate(45.87,60.92)" id="img-d4809217-17">
          <path fill="none" d="M-27.91,0 L 27.91 0" class="primitive"/>
        </g>
        <g transform="translate(45.87,42.94)" id="img-d4809217-18">
          <path fill="none" d="M-27.91,0 L 27.91 0" class="primitive"/>
        </g>
        <g transform="translate(45.87,24.97)" id="img-d4809217-19">
          <path fill="none" d="M-27.91,0 L 27.91 0" class="primitive"/>
        </g>
        <g transform="translate(45.87,7)" id="img-d4809217-20">
          <path fill="none" d="M-27.91,0 L 27.91 0" class="primitive"/>
        </g>
      </g>
      <g class="guide xgridlines yfixed" stroke-dasharray="0.5,0.5" stroke-width="0.2" stroke="#D0D0E0" id="img-d4809217-21">
        <g transform="translate(19.96,42.94)" id="img-d4809217-22">
          <path fill="none" d="M0,-37.94 L 0 37.94" class="primitive"/>
        </g>
        <g transform="translate(32.91,42.94)" id="img-d4809217-23">
          <path fill="none" d="M0,-37.94 L 0 37.94" class="primitive"/>
        </g>
        <g transform="translate(45.87,42.94)" id="img-d4809217-24">
          <path fill="none" d="M0,-37.94 L 0 37.94" class="primitive"/>
        </g>
        <g transform="translate(58.83,42.94)" id="img-d4809217-25">
          <path fill="none" d="M0,-37.94 L 0 37.94" class="primitive"/>
        </g>
        <g transform="translate(71.78,42.94)" id="img-d4809217-26">
          <path fill="none" d="M0,-37.94 L 0 37.94" class="primitive"/>
        </g>
      </g>
      <g class="plotpanel" id="img-d4809217-27">
        <metadata>
          <boundingbox value="17.958333333333336mm 5.0mm 55.82302290397616mm 75.88666666666667mm"/>
          <unitbox value="284562.84571661643 41.112862839655016 430874.3085667671 -42.225725679310024"/>
        </metadata>
        <g shape-rendering="crispEdges" stroke-width="0.3" id="img-d4809217-28">
          <g stroke="#000000" stroke-opacity="0.000" class="geometry" id="img-d4809217-29">
            <g fill="#00BFFF" id="img-d4809217-30">
              <g transform="translate(31.64,77.99)" id="img-d4809217-31">
                <path d="M-0.21,-0.9 L 0.21 -0.9 0.21 0.9 -0.21 0.9 z" class="primitive"/>
              </g>
              <g transform="translate(32.01,78.89)" id="img-d4809217-32">
                <path d="M-0.21,-0 L 0.21 -0 0.21 0 -0.21 0 z" class="primitive"/>
              </g>
              <g transform="translate(32.38,77.99)" id="img-d4809217-33">
                <path d="M-0.21,-0.9 L 0.21 -0.9 0.21 0.9 -0.21 0.9 z" class="primitive"/>
              </g>
              <g transform="translate(32.75,77.09)" id="img-d4809217-34">
                <path d="M-0.21,-1.8 L 0.21 -1.8 0.21 1.8 -0.21 1.8 z" class="primitive"/>
              </g>
              <g transform="translate(33.12,77.99)" id="img-d4809217-35">
                <path d="M-0.21,-0.9 L 0.21 -0.9 0.21 0.9 -0.21 0.9 z" class="primitive"/>
              </g>
              <g transform="translate(33.49,77.99)" id="img-d4809217-36">
                <path d="M-0.21,-0.9 L 0.21 -0.9 0.21 0.9 -0.21 0.9 z" class="primitive"/>
              </g>
              <g transform="translate(33.86,78.89)" id="img-d4809217-37">
                <path d="M-0.21,-0 L 0.21 -0 0.21 0 -0.21 0 z" class="primitive"/>
              </g>
              <g transform="translate(34.23,78.89)" id="img-d4809217-38">
                <path d="M-0.21,-0 L 0.21 -0 0.21 0 -0.21 0 z" class="primitive"/>
              </g>
              <g transform="translate(34.6,76.19)" id="img-d4809217-39">
                <path d="M-0.21,-2.7 L 0.21 -2.7 0.21 2.7 -0.21 2.7 z" class="primitive"/>
              </g>
              <g transform="translate(34.97,77.99)" id="img-d4809217-40">
                <path d="M-0.21,-0.9 L 0.21 -0.9 0.21 0.9 -0.21 0.9 z" class="primitive"/>
              </g>
              <g transform="translate(35.34,77.99)" id="img-d4809217-41">
                <path d="M-0.21,-0.9 L 0.21 -0.9 0.21 0.9 -0.21 0.9 z" class="primitive"/>
              </g>
              <g transform="translate(35.71,77.99)" id="img-d4809217-42">
                <path d="M-0.21,-0.9 L 0.21 -0.9 0.21 0.9 -0.21 0.9 z" class="primitive"/>
              </g>
              <g transform="translate(36.08,77.99)" id="img-d4809217-43">
                <path d="M-0.21,-0.9 L 0.21 -0.9 0.21 0.9 -0.21 0.9 z" class="primitive"/>
              </g>
              <g transform="translate(36.45,77.99)" id="img-d4809217-44">
                <path d="M-0.21,-0.9 L 0.21 -0.9 0.21 0.9 -0.21 0.9 z" class="primitive"/>
              </g>
              <g transform="translate(36.82,71.7)" id="img-d4809217-45">
                <path d="M-0.21,-7.19 L 0.21 -7.19 0.21 7.19 -0.21 7.19 z" class="primitive"/>
              </g>
              <g transform="translate(37.19,76.19)" id="img-d4809217-46">
                <path d="M-0.21,-2.7 L 0.21 -2.7 0.21 2.7 -0.21 2.7 z" class="primitive"/>
              </g>
              <g transform="translate(37.56,73.5)" id="img-d4809217-47">
                <path d="M-0.21,-5.39 L 0.21 -5.39 0.21 5.39 -0.21 5.39 z" class="primitive"/>
              </g>
              <g transform="translate(37.93,69.9)" id="img-d4809217-48">
                <path d="M-0.21,-8.99 L 0.21 -8.99 0.21 8.99 -0.21 8.99 z" class="primitive"/>
              </g>
              <g transform="translate(38.3,74.39)" id="img-d4809217-49">
                <path d="M-0.21,-4.49 L 0.21 -4.49 0.21 4.49 -0.21 4.49 z" class="primitive"/>
              </g>
              <g transform="translate(38.67,75.29)" id="img-d4809217-50">
                <path d="M-0.21,-3.59 L 0.21 -3.59 0.21 3.59 -0.21 3.59 z" class="primitive"/>
              </g>
              <g transform="translate(39.04,68.1)" id="img-d4809217-51">
                <path d="M-0.21,-10.78 L 0.21 -10.78 0.21 10.78 -0.21 10.78 z" class="primitive"/>
              </g>
              <g transform="translate(39.41,70.8)" id="img-d4809217-52">
                <path d="M-0.21,-8.09 L 0.21 -8.09 0.21 8.09 -0.21 8.09 z" class="primitive"/>
              </g>
              <g transform="translate(39.78,71.7)" id="img-d4809217-53">
                <path d="M-0.21,-7.19 L 0.21 -7.19 0.21 7.19 -0.21 7.19 z" class="primitive"/>
              </g>
              <g transform="translate(40.15,71.7)" id="img-d4809217-54">
                <path d="M-0.21,-7.19 L 0.21 -7.19 0.21 7.19 -0.21 7.19 z" class="primitive"/>
              </g>
              <g transform="translate(40.52,71.7)" id="img-d4809217-55">
                <path d="M-0.21,-7.19 L 0.21 -7.19 0.21 7.19 -0.21 7.19 z" class="primitive"/>
              </g>
              <g transform="translate(40.89,71.7)" id="img-d4809217-56">
                <path d="M-0.21,-7.19 L 0.21 -7.19 0.21 7.19 -0.21 7.19 z" class="primitive"/>
              </g>
              <g transform="translate(41.26,70.8)" id="img-d4809217-57">
                <path d="M-0.21,-8.09 L 0.21 -8.09 0.21 8.09 -0.21 8.09 z" class="primitive"/>
              </g>
              <g transform="translate(41.63,65.41)" id="img-d4809217-58">
                <path d="M-0.21,-13.48 L 0.21 -13.48 0.21 13.48 -0.21 13.48 z" class="primitive"/>
              </g>
              <g transform="translate(42,63.61)" id="img-d4809217-59">
                <path d="M-0.21,-15.28 L 0.21 -15.28 0.21 15.28 -0.21 15.28 z" class="primitive"/>
              </g>
              <g transform="translate(42.37,57.32)" id="img-d4809217-60">
                <path d="M-0.21,-21.57 L 0.21 -21.57 0.21 21.57 -0.21 21.57 z" class="primitive"/>
              </g>
              <g transform="translate(42.74,64.51)" id="img-d4809217-61">
                <path d="M-0.21,-14.38 L 0.21 -14.38 0.21 14.38 -0.21 14.38 z" class="primitive"/>
              </g>
              <g transform="translate(43.11,67.21)" id="img-d4809217-62">
                <path d="M-0.21,-11.68 L 0.21 -11.68 0.21 11.68 -0.21 11.68 z" class="primitive"/>
              </g>
              <g transform="translate(43.48,58.22)" id="img-d4809217-63">
                <path d="M-0.21,-20.67 L 0.21 -20.67 0.21 20.67 -0.21 20.67 z" class="primitive"/>
              </g>
              <g transform="translate(43.85,59.12)" id="img-d4809217-64">
                <path d="M-0.21,-19.77 L 0.21 -19.77 0.21 19.77 -0.21 19.77 z" class="primitive"/>
              </g>
              <g transform="translate(44.22,55.52)" id="img-d4809217-65">
                <path d="M-0.21,-23.36 L 0.21 -23.36 0.21 23.36 -0.21 23.36 z" class="primitive"/>
              </g>
              <g transform="translate(44.59,57.32)" id="img-d4809217-66">
                <path d="M-0.21,-21.57 L 0.21 -21.57 0.21 21.57 -0.21 21.57 z" class="primitive"/>
              </g>
              <g transform="translate(44.96,60.92)" id="img-d4809217-67">
                <path d="M-0.21,-17.97 L 0.21 -17.97 0.21 17.97 -0.21 17.97 z" class="primitive"/>
              </g>
              <g transform="translate(45.33,55.52)" id="img-d4809217-68">
                <path d="M-0.21,-23.36 L 0.21 -23.36 0.21 23.36 -0.21 23.36 z" class="primitive"/>
              </g>
              <g transform="translate(45.7,51.93)" id="img-d4809217-69">
                <path d="M-0.21,-26.96 L 0.21 -26.96 0.21 26.96 -0.21 26.96 z" class="primitive"/>
              </g>
              <g transform="translate(46.07,54.62)" id="img-d4809217-70">
                <path d="M-0.21,-24.26 L 0.21 -24.26 0.21 24.26 -0.21 24.26 z" class="primitive"/>
              </g>
              <g transform="translate(46.44,53.73)" id="img-d4809217-71">
                <path d="M-0.21,-25.16 L 0.21 -25.16 0.21 25.16 -0.21 25.16 z" class="primitive"/>
              </g>
              <g transform="translate(46.81,60.92)" id="img-d4809217-72">
                <path d="M-0.21,-17.97 L 0.21 -17.97 0.21 17.97 -0.21 17.97 z" class="primitive"/>
              </g>
              <g transform="translate(47.18,51.03)" id="img-d4809217-73">
                <path d="M-0.21,-27.86 L 0.21 -27.86 0.21 27.86 -0.21 27.86 z" class="primitive"/>
              </g>
              <g transform="translate(47.55,51.93)" id="img-d4809217-74">
                <path d="M-0.21,-26.96 L 0.21 -26.96 0.21 26.96 -0.21 26.96 z" class="primitive"/>
              </g>
              <g transform="translate(47.92,48.33)" id="img-d4809217-75">
                <path d="M-0.21,-30.55 L 0.21 -30.55 0.21 30.55 -0.21 30.55 z" class="primitive"/>
              </g>
              <g transform="translate(48.29,55.52)" id="img-d4809217-76">
                <path d="M-0.21,-23.36 L 0.21 -23.36 0.21 23.36 -0.21 23.36 z" class="primitive"/>
              </g>
              <g transform="translate(48.66,53.73)" id="img-d4809217-77">
                <path d="M-0.21,-25.16 L 0.21 -25.16 0.21 25.16 -0.21 25.16 z" class="primitive"/>
              </g>
              <g transform="translate(49.03,51.93)" id="img-d4809217-78">
                <path d="M-0.21,-26.96 L 0.21 -26.96 0.21 26.96 -0.21 26.96 z" class="primitive"/>
              </g>
              <g transform="translate(49.4,62.71)" id="img-d4809217-79">
                <path d="M-0.21,-16.17 L 0.21 -16.17 0.21 16.17 -0.21 16.17 z" class="primitive"/>
              </g>
              <g transform="translate(49.77,61.81)" id="img-d4809217-80">
                <path d="M-0.21,-17.07 L 0.21 -17.07 0.21 17.07 -0.21 17.07 z" class="primitive"/>
              </g>
              <g transform="translate(50.14,58.22)" id="img-d4809217-81">
                <path d="M-0.21,-20.67 L 0.21 -20.67 0.21 20.67 -0.21 20.67 z" class="primitive"/>
              </g>
              <g transform="translate(50.51,60.92)" id="img-d4809217-82">
                <path d="M-0.21,-17.97 L 0.21 -17.97 0.21 17.97 -0.21 17.97 z" class="primitive"/>
              </g>
              <g transform="translate(50.88,57.32)" id="img-d4809217-83">
                <path d="M-0.21,-21.57 L 0.21 -21.57 0.21 21.57 -0.21 21.57 z" class="primitive"/>
              </g>
              <g transform="translate(51.25,54.62)" id="img-d4809217-84">
                <path d="M-0.21,-24.26 L 0.21 -24.26 0.21 24.26 -0.21 24.26 z" class="primitive"/>
              </g>
              <g transform="translate(51.62,65.41)" id="img-d4809217-85">
                <path d="M-0.21,-13.48 L 0.21 -13.48 0.21 13.48 -0.21 13.48 z" class="primitive"/>
              </g>
              <g transform="translate(51.99,63.61)" id="img-d4809217-86">
                <path d="M-0.21,-15.28 L 0.21 -15.28 0.21 15.28 -0.21 15.28 z" class="primitive"/>
              </g>
              <g transform="translate(52.36,60.92)" id="img-d4809217-87">
                <path d="M-0.21,-17.97 L 0.21 -17.97 0.21 17.97 -0.21 17.97 z" class="primitive"/>
              </g>
              <g transform="translate(52.73,60.92)" id="img-d4809217-88">
                <path d="M-0.21,-17.97 L 0.21 -17.97 0.21 17.97 -0.21 17.97 z" class="primitive"/>
              </g>
              <g transform="translate(53.1,66.31)" id="img-d4809217-89">
                <path d="M-0.21,-12.58 L 0.21 -12.58 0.21 12.58 -0.21 12.58 z" class="primitive"/>
              </g>
              <g transform="translate(53.47,65.41)" id="img-d4809217-90">
                <path d="M-0.21,-13.48 L 0.21 -13.48 0.21 13.48 -0.21 13.48 z" class="primitive"/>
              </g>
              <g transform="translate(53.85,60.92)" id="img-d4809217-91">
                <path d="M-0.21,-17.97 L 0.21 -17.97 0.21 17.97 -0.21 17.97 z" class="primitive"/>
              </g>
              <g transform="translate(54.22,63.61)" id="img-d4809217-92">
                <path d="M-0.21,-15.28 L 0.21 -15.28 0.21 15.28 -0.21 15.28 z" class="primitive"/>
              </g>
              <g transform="translate(54.59,69)" id="img-d4809217-93">
                <path d="M-0.21,-9.88 L 0.21 -9.88 0.21 9.88 -0.21 9.88 z" class="primitive"/>
              </g>
              <g transform="translate(54.96,65.41)" id="img-d4809217-94">
                <path d="M-0.21,-13.48 L 0.21 -13.48 0.21 13.48 -0.21 13.48 z" class="primitive"/>
              </g>
              <g transform="translate(55.33,71.7)" id="img-d4809217-95">
                <path d="M-0.21,-7.19 L 0.21 -7.19 0.21 7.19 -0.21 7.19 z" class="primitive"/>
              </g>
              <g transform="translate(55.7,72.6)" id="img-d4809217-96">
                <path d="M-0.21,-6.29 L 0.21 -6.29 0.21 6.29 -0.21 6.29 z" class="primitive"/>
              </g>
              <g transform="translate(56.07,70.8)" id="img-d4809217-97">
                <path d="M-0.21,-8.09 L 0.21 -8.09 0.21 8.09 -0.21 8.09 z" class="primitive"/>
              </g>
              <g transform="translate(56.44,73.5)" id="img-d4809217-98">
                <path d="M-0.21,-5.39 L 0.21 -5.39 0.21 5.39 -0.21 5.39 z" class="primitive"/>
              </g>
              <g transform="translate(56.81,71.7)" id="img-d4809217-99">
                <path d="M-0.21,-7.19 L 0.21 -7.19 0.21 7.19 -0.21 7.19 z" class="primitive"/>
              </g>
              <g transform="translate(57.18,77.09)" id="img-d4809217-100">
                <path d="M-0.21,-1.8 L 0.21 -1.8 0.21 1.8 -0.21 1.8 z" class="primitive"/>
              </g>
              <g transform="translate(57.55,75.29)" id="img-d4809217-101">
                <path d="M-0.21,-3.59 L 0.21 -3.59 0.21 3.59 -0.21 3.59 z" class="primitive"/>
              </g>
              <g transform="translate(57.92,74.39)" id="img-d4809217-102">
                <path d="M-0.21,-4.49 L 0.21 -4.49 0.21 4.49 -0.21 4.49 z" class="primitive"/>
              </g>
              <g transform="translate(58.29,77.09)" id="img-d4809217-103">
                <path d="M-0.21,-1.8 L 0.21 -1.8 0.21 1.8 -0.21 1.8 z" class="primitive"/>
              </g>
              <g transform="translate(58.66,72.6)" id="img-d4809217-104">
                <path d="M-0.21,-6.29 L 0.21 -6.29 0.21 6.29 -0.21 6.29 z" class="primitive"/>
              </g>
              <g transform="translate(59.03,77.09)" id="img-d4809217-105">
                <path d="M-0.21,-1.8 L 0.21 -1.8 0.21 1.8 -0.21 1.8 z" class="primitive"/>
              </g>
              <g transform="translate(59.4,74.39)" id="img-d4809217-106">
                <path d="M-0.21,-4.49 L 0.21 -4.49 0.21 4.49 -0.21 4.49 z" class="primitive"/>
              </g>
              <g transform="translate(59.77,73.5)" id="img-d4809217-107">
                <path d="M-0.21,-5.39 L 0.21 -5.39 0.21 5.39 -0.21 5.39 z" class="primitive"/>
              </g>
              <g transform="translate(60.14,77.09)" id="img-d4809217-108">
                <path d="M-0.21,-1.8 L 0.21 -1.8 0.21 1.8 -0.21 1.8 z" class="primitive"/>
              </g>
              <g transform="translate(60.51,77.99)" id="img-d4809217-109">
                <path d="M-0.21,-0.9 L 0.21 -0.9 0.21 0.9 -0.21 0.9 z" class="primitive"/>
              </g>
              <g transform="translate(60.88,77.09)" id="img-d4809217-110">
                <path d="M-0.21,-1.8 L 0.21 -1.8 0.21 1.8 -0.21 1.8 z" class="primitive"/>
              </g>
              <g transform="translate(61.25,78.89)" id="img-d4809217-111">
                <path d="M-0.21,-0 L 0.21 -0 0.21 0 -0.21 0 z" class="primitive"/>
              </g>
              <g transform="translate(61.62,77.09)" id="img-d4809217-112">
                <path d="M-0.21,-1.8 L 0.21 -1.8 0.21 1.8 -0.21 1.8 z" class="primitive"/>
              </g>
              <g transform="translate(61.99,77.99)" id="img-d4809217-113">
                <path d="M-0.21,-0.9 L 0.21 -0.9 0.21 0.9 -0.21 0.9 z" class="primitive"/>
              </g>
              <g transform="translate(62.36,77.09)" id="img-d4809217-114">
                <path d="M-0.21,-1.8 L 0.21 -1.8 0.21 1.8 -0.21 1.8 z" class="primitive"/>
              </g>
              <g transform="translate(62.73,78.89)" id="img-d4809217-115">
                <path d="M-0.21,-0 L 0.21 -0 0.21 0 -0.21 0 z" class="primitive"/>
              </g>
              <g transform="translate(63.1,78.89)" id="img-d4809217-116">
                <path d="M-0.21,-0 L 0.21 -0 0.21 0 -0.21 0 z" class="primitive"/>
              </g>
              <g transform="translate(63.47,78.89)" id="img-d4809217-117">
                <path d="M-0.21,-0 L 0.21 -0 0.21 0 -0.21 0 z" class="primitive"/>
              </g>
              <g transform="translate(63.84,78.89)" id="img-d4809217-118">
                <path d="M-0.21,-0 L 0.21 -0 0.21 0 -0.21 0 z" class="primitive"/>
              </g>
              <g transform="translate(64.21,77.99)" id="img-d4809217-119">
                <path d="M-0.21,-0.9 L 0.21 -0.9 0.21 0.9 -0.21 0.9 z" class="primitive"/>
              </g>
              <g transform="translate(64.58,78.89)" id="img-d4809217-120">
                <path d="M-0.21,-0 L 0.21 -0 0.21 0 -0.21 0 z" class="primitive"/>
              </g>
              <g transform="translate(64.95,78.89)" id="img-d4809217-121">
                <path d="M-0.21,-0 L 0.21 -0 0.21 0 -0.21 0 z" class="primitive"/>
              </g>
              <g transform="translate(65.32,78.89)" id="img-d4809217-122">
                <path d="M-0.21,-0 L 0.21 -0 0.21 0 -0.21 0 z" class="primitive"/>
              </g>
              <g transform="translate(65.69,78.89)" id="img-d4809217-123">
                <path d="M-0.21,-0 L 0.21 -0 0.21 0 -0.21 0 z" class="primitive"/>
              </g>
              <g transform="translate(66.06,78.89)" id="img-d4809217-124">
                <path d="M-0.21,-0 L 0.21 -0 0.21 0 -0.21 0 z" class="primitive"/>
              </g>
              <g transform="translate(66.43,78.89)" id="img-d4809217-125">
                <path d="M-0.21,-0 L 0.21 -0 0.21 0 -0.21 0 z" class="primitive"/>
              </g>
              <g transform="translate(66.8,78.89)" id="img-d4809217-126">
                <path d="M-0.21,-0 L 0.21 -0 0.21 0 -0.21 0 z" class="primitive"/>
              </g>
              <g transform="translate(67.17,78.89)" id="img-d4809217-127">
                <path d="M-0.21,-0 L 0.21 -0 0.21 0 -0.21 0 z" class="primitive"/>
              </g>
              <g transform="translate(67.54,78.89)" id="img-d4809217-128">
                <path d="M-0.21,-0 L 0.21 -0 0.21 0 -0.21 0 z" class="primitive"/>
              </g>
              <g transform="translate(67.91,78.89)" id="img-d4809217-129">
                <path d="M-0.21,-0 L 0.21 -0 0.21 0 -0.21 0 z" class="primitive"/>
              </g>
              <g transform="translate(68.28,77.99)" id="img-d4809217-130">
                <path d="M-0.21,-0.9 L 0.21 -0.9 0.21 0.9 -0.21 0.9 z" class="primitive"/>
              </g>
            </g>
          </g>
        </g>
      </g>
    </g>
  </g>
  <g class="guide ylabels" font-size="2.82" font-family="'PT Sans Caption','Helvetica Neue','Helvetica',sans-serif" fill="#6C606B" id="img-d4809217-131">
    <g transform="translate(16.96,78.89)" id="img-d4809217-132">
      <g class="primitive">
        <text text-anchor="end" dy="0.35em">0</text>
      </g>
    </g>
    <g transform="translate(16.96,60.92)" id="img-d4809217-133">
      <g class="primitive">
        <text text-anchor="end" dy="0.35em">10</text>
      </g>
    </g>
    <g transform="translate(16.96,42.94)" id="img-d4809217-134">
      <g class="primitive">
        <text text-anchor="end" dy="0.35em">20</text>
      </g>
    </g>
    <g transform="translate(16.96,24.97)" id="img-d4809217-135">
      <g class="primitive">
        <text text-anchor="end" dy="0.35em">30</text>
      </g>
    </g>
    <g transform="translate(16.96,7)" id="img-d4809217-136">
      <g class="primitive">
        <text text-anchor="end" dy="0.35em">40</text>
      </g>
    </g>
  </g>
  <g font-size="3.88" font-family="'PT Sans','Helvetica Neue','Helvetica',sans-serif" fill="#564A55" stroke="#000000" stroke-opacity="0.000" id="img-d4809217-137">
    <g transform="translate(8.81,40.94)" id="img-d4809217-138">
      <g class="primitive">
        <text text-anchor="middle" dy="0.35em" transform="rotate(-90,0, 2)">frequency</text>
      </g>
    </g>
  </g>
</g>
<defs>
  <clipPath id="img-d4809217-11">
    <path d="M17.96,5 L 73.78 5 73.78 80.89 17.96 80.89" />
  </clipPath>
</defs>
</svg>
