<?xml version="1.0" encoding="UTF-8"?>
<svg xmlns="http://www.w3.org/2000/svg"
     xmlns:xlink="http://www.w3.org/1999/xlink"
     xmlns:gadfly="http://www.gadflyjl.org/ns"
     version="1.2"
     width="141.42mm" height="100mm" viewBox="0 0 141.42 100"
     stroke="none"
     fill="#000000"
     stroke-width="0.3"
     font-size="3.88"
>
<defs>
  <marker id="arrow" markerWidth="15" markerHeight="7" refX="5" refY="3.5" orient="auto" markerUnits="strokeWidth">
    <path d="M0,0 L15,3.5 L0,7 z" stroke="context-stroke" fill="context-stroke"/>
  </marker>
</defs>
<g class="plotroot xscalable yscalable" id="img-a8f12427-1">
  <g class="guide xlabels" font-size="2.82" font-family="'PT Sans Caption','Helvetica Neue','Helvetica',sans-serif" fill="#6C606B" id="img-a8f12427-2">
    <g transform="translate(18.28,91.33)">
      <g class="primitive">
        <text text-anchor="middle" dy="0.6em">15.0</text>
      </g>
    </g>
    <g transform="translate(48.07,91.33)">
      <g class="primitive">
        <text text-anchor="middle" dy="0.6em">15.5</text>
      </g>
    </g>
    <g transform="translate(77.86,91.33)">
      <g class="primitive">
        <text text-anchor="middle" dy="0.6em">16.0</text>
      </g>
    </g>
  </g>
  <g class="guide colorkey" id="img-a8f12427-3">
    <g class="color_noncoding_noncoding_coding_coding_4-tail" id="img-a8f12427-4">
      <g fill="#4C404B" font-size="2.82" font-family="'PT Sans','Helvetica Neue','Helvetica',sans-serif" id="img-a8f12427-5">
        <g transform="translate(83.67,49.48)" id="img-a8f12427-6">
          <g class="primitive">
            <text dy="0.35em">noncoding_noncoding_coding_coding_4-tail</text>
          </g>
        </g>
      </g>
      <g fill-opacity="1" fill="#00BFFF" stroke="#FFFFFF" id="img-a8f12427-7">
        <g transform="translate(81.77,49.48)" id="img-a8f12427-8">
          <path d="M-0.91,-0.91 L 0.91 -0.91 0.91 0.91 -0.91 0.91 z" class="primitive"/>
        </g>
      </g>
    </g>
    <g fill="#362A35" font-size="3.88" font-family="'PT Sans','Helvetica Neue','Helvetica',sans-serif" stroke="#000000" stroke-opacity="0.000" id="img-a8f12427-9">
      <g transform="translate(80.86,45.66)" id="img-a8f12427-10">
        <g class="primitive">
          <text dy="-0em">graphlet</text>
        </g>
      </g>
    </g>
  </g>
  <g clip-path="url(#img-a8f12427-11)">
    <g id="img-a8f12427-12">
      <g pointer-events="visible" stroke-width="0.3" fill="#000000" fill-opacity="0.000" stroke="#000000" stroke-opacity="0.000" class="guide background" id="img-a8f12427-13">
        <g transform="translate(48.07,47.66)" id="img-a8f12427-14">
          <path d="M-31.79,-42.66 L 31.79 -42.66 31.79 42.66 -31.79 42.66 z" class="primitive"/>
        </g>
      </g>
      <g class="guide ygridlines xfixed" stroke-dasharray="0.5,0.5" stroke-width="0.2" stroke="#D0D0E0" id="img-a8f12427-15">
        <g transform="translate(48.07,88.33)" id="img-a8f12427-16">
          <path fill="none" d="M-31.79,0 L 31.79 0" class="primitive"/>
        </g>
        <g transform="translate(48.07,68)" id="img-a8f12427-17">
          <path fill="none" d="M-31.79,0 L 31.79 0" class="primitive"/>
        </g>
        <g transform="translate(48.07,47.66)" id="img-a8f12427-18">
          <path fill="none" d="M-31.79,0 L 31.79 0" class="primitive"/>
        </g>
        <g transform="translate(48.07,27.33)" id="img-a8f12427-19">
          <path fill="none" d="M-31.79,0 L 31.79 0" class="primitive"/>
        </g>
        <g transform="translate(48.07,7)" id="img-a8f12427-20">
          <path fill="none" d="M-31.79,0 L 31.79 0" class="primitive"/>
        </g>
      </g>
      <g class="guide xgridlines yfixed" stroke-dasharray="0.5,0.5" stroke-width="0.2" stroke="#D0D0E0" id="img-a8f12427-21">
        <g transform="translate(18.28,47.66)" id="img-a8f12427-22">
          <path fill="none" d="M0,-42.66 L 0 42.66" class="primitive"/>
        </g>
        <g transform="translate(48.07,47.66)" id="img-a8f12427-23">
          <path fill="none" d="M0,-42.66 L 0 42.66" class="primitive"/>
        </g>
        <g transform="translate(77.86,47.66)" id="img-a8f12427-24">
          <path fill="none" d="M0,-42.66 L 0 42.66" class="primitive"/>
        </g>
      </g>
      <g class="plotpanel" id="img-a8f12427-25">
        <metadata>
          <boundingbox value="16.284999999999997mm 5.0mm 63.57635623730951mm 85.32666666666667mm"/>
          <unitbox value="14.96642963540715 8.196737437494876 1.0671407291857002 -8.393474874989753"/>
        </metadata>
        <g shape-rendering="crispEdges" stroke-width="0.3" id="img-a8f12427-26">
          <g stroke="#000000" stroke-opacity="0.000" class="geometry" id="img-a8f12427-27">
            <g fill="#00BFFF" id="img-a8f12427-28">
              <g transform="translate(24.4,83.24)" id="img-a8f12427-29">
                <path d="M-0.26,-5.08 L 0.26 -5.08 0.26 5.08 -0.26 5.08 z" class="primitive"/>
              </g>
              <g transform="translate(24.87,88.33)" id="img-a8f12427-30">
                <path d="M-0.26,-0 L 0.26 -0 0.26 0 -0.26 0 z" class="primitive"/>
              </g>
              <g transform="translate(25.34,88.33)" id="img-a8f12427-31">
                <path d="M-0.26,-0 L 0.26 -0 0.26 0 -0.26 0 z" class="primitive"/>
              </g>
              <g transform="translate(25.81,88.33)" id="img-a8f12427-32">
                <path d="M-0.26,-0 L 0.26 -0 0.26 0 -0.26 0 z" class="primitive"/>
              </g>
              <g transform="translate(26.28,88.33)" id="img-a8f12427-33">
                <path d="M-0.26,-0 L 0.26 -0 0.26 0 -0.26 0 z" class="primitive"/>
              </g>
              <g transform="translate(26.74,88.33)" id="img-a8f12427-34">
                <path d="M-0.26,-0 L 0.26 -0 0.26 0 -0.26 0 z" class="primitive"/>
              </g>
              <g transform="translate(27.21,88.33)" id="img-a8f12427-35">
                <path d="M-0.26,-0 L 0.26 -0 0.26 0 -0.26 0 z" class="primitive"/>
              </g>
              <g transform="translate(27.68,83.24)" id="img-a8f12427-36">
                <path d="M-0.26,-5.08 L 0.26 -5.08 0.26 5.08 -0.26 5.08 z" class="primitive"/>
              </g>
              <g transform="translate(28.15,88.33)" id="img-a8f12427-37">
                <path d="M-0.26,-0 L 0.26 -0 0.26 0 -0.26 0 z" class="primitive"/>
              </g>
              <g transform="translate(28.62,88.33)" id="img-a8f12427-38">
                <path d="M-0.26,-0 L 0.26 -0 0.26 0 -0.26 0 z" class="primitive"/>
              </g>
              <g transform="translate(29.09,88.33)" id="img-a8f12427-39">
                <path d="M-0.26,-0 L 0.26 -0 0.26 0 -0.26 0 z" class="primitive"/>
              </g>
              <g transform="translate(29.56,88.33)" id="img-a8f12427-40">
                <path d="M-0.26,-0 L 0.26 -0 0.26 0 -0.26 0 z" class="primitive"/>
              </g>
              <g transform="translate(30.03,88.33)" id="img-a8f12427-41">
                <path d="M-0.26,-0 L 0.26 -0 0.26 0 -0.26 0 z" class="primitive"/>
              </g>
              <g transform="translate(30.49,88.33)" id="img-a8f12427-42">
                <path d="M-0.26,-0 L 0.26 -0 0.26 0 -0.26 0 z" class="primitive"/>
              </g>
              <g transform="translate(30.96,88.33)" id="img-a8f12427-43">
                <path d="M-0.26,-0 L 0.26 -0 0.26 0 -0.26 0 z" class="primitive"/>
              </g>
              <g transform="translate(31.43,88.33)" id="img-a8f12427-44">
                <path d="M-0.26,-0 L 0.26 -0 0.26 0 -0.26 0 z" class="primitive"/>
              </g>
              <g transform="translate(31.9,83.24)" id="img-a8f12427-45">
                <path d="M-0.26,-5.08 L 0.26 -5.08 0.26 5.08 -0.26 5.08 z" class="primitive"/>
              </g>
              <g transform="translate(32.37,83.24)" id="img-a8f12427-46">
                <path d="M-0.26,-5.08 L 0.26 -5.08 0.26 5.08 -0.26 5.08 z" class="primitive"/>
              </g>
              <g transform="translate(32.84,88.33)" id="img-a8f12427-47">
                <path d="M-0.26,-0 L 0.26 -0 0.26 0 -0.26 0 z" class="primitive"/>
              </g>
              <g transform="translate(33.31,88.33)" id="img-a8f12427-48">
                <path d="M-0.26,-0 L 0.26 -0 0.26 0 -0.26 0 z" class="primitive"/>
              </g>
              <g transform="translate(33.78,83.24)" id="img-a8f12427-49">
                <path d="M-0.26,-5.08 L 0.26 -5.08 0.26 5.08 -0.26 5.08 z" class="primitive"/>
              </g>
              <g transform="translate(34.24,88.33)" id="img-a8f12427-50">
                <path d="M-0.26,-0 L 0.26 -0 0.26 0 -0.26 0 z" class="primitive"/>
              </g>
              <g transform="translate(34.71,88.33)" id="img-a8f12427-51">
                <path d="M-0.26,-0 L 0.26 -0 0.26 0 -0.26 0 z" class="primitive"/>
              </g>
              <g transform="translate(35.18,83.24)" id="img-a8f12427-52">
                <path d="M-0.26,-5.08 L 0.26 -5.08 0.26 5.08 -0.26 5.08 z" class="primitive"/>
              </g>
              <g transform="translate(35.65,83.24)" id="img-a8f12427-53">
                <path d="M-0.26,-5.08 L 0.26 -5.08 0.26 5.08 -0.26 5.08 z" class="primitive"/>
              </g>
              <g transform="translate(36.12,88.33)" id="img-a8f12427-54">
                <path d="M-0.26,-0 L 0.26 -0 0.26 0 -0.26 0 z" class="primitive"/>
              </g>
              <g transform="translate(36.59,83.24)" id="img-a8f12427-55">
                <path d="M-0.26,-5.08 L 0.26 -5.08 0.26 5.08 -0.26 5.08 z" class="primitive"/>
              </g>
              <g transform="translate(37.06,88.33)" id="img-a8f12427-56">
                <path d="M-0.26,-0 L 0.26 -0 0.26 0 -0.26 0 z" class="primitive"/>
              </g>
              <g transform="translate(37.52,83.24)" id="img-a8f12427-57">
                <path d="M-0.26,-5.08 L 0.26 -5.08 0.26 5.08 -0.26 5.08 z" class="primitive"/>
              </g>
              <g transform="translate(37.99,88.33)" id="img-a8f12427-58">
                <path d="M-0.26,-0 L 0.26 -0 0.26 0 -0.26 0 z" class="primitive"/>
              </g>
              <g transform="translate(38.46,83.24)" id="img-a8f12427-59">
                <path d="M-0.26,-5.08 L 0.26 -5.08 0.26 5.08 -0.26 5.08 z" class="primitive"/>
              </g>
              <g transform="translate(38.93,88.33)" id="img-a8f12427-60">
                <path d="M-0.26,-0 L 0.26 -0 0.26 0 -0.26 0 z" class="primitive"/>
              </g>
              <g transform="translate(39.4,78.16)" id="img-a8f12427-61">
                <path d="M-0.26,-10.17 L 0.26 -10.17 0.26 10.17 -0.26 10.17 z" class="primitive"/>
              </g>
              <g transform="translate(39.87,88.33)" id="img-a8f12427-62">
                <path d="M-0.26,-0 L 0.26 -0 0.26 0 -0.26 0 z" class="primitive"/>
              </g>
              <g transform="translate(40.34,83.24)" id="img-a8f12427-63">
                <path d="M-0.26,-5.08 L 0.26 -5.08 0.26 5.08 -0.26 5.08 z" class="primitive"/>
              </g>
              <g transform="translate(40.81,88.33)" id="img-a8f12427-64">
                <path d="M-0.26,-0 L 0.26 -0 0.26 0 -0.26 0 z" class="primitive"/>
              </g>
              <g transform="translate(41.27,83.24)" id="img-a8f12427-65">
                <path d="M-0.26,-5.08 L 0.26 -5.08 0.26 5.08 -0.26 5.08 z" class="primitive"/>
              </g>
              <g transform="translate(41.74,88.33)" id="img-a8f12427-66">
                <path d="M-0.26,-0 L 0.26 -0 0.26 0 -0.26 0 z" class="primitive"/>
              </g>
              <g transform="translate(42.21,83.24)" id="img-a8f12427-67">
                <path d="M-0.26,-5.08 L 0.26 -5.08 0.26 5.08 -0.26 5.08 z" class="primitive"/>
              </g>
              <g transform="translate(42.68,78.16)" id="img-a8f12427-68">
                <path d="M-0.26,-10.17 L 0.26 -10.17 0.26 10.17 -0.26 10.17 z" class="primitive"/>
              </g>
              <g transform="translate(43.15,83.24)" id="img-a8f12427-69">
                <path d="M-0.26,-5.08 L 0.26 -5.08 0.26 5.08 -0.26 5.08 z" class="primitive"/>
              </g>
              <g transform="translate(43.62,78.16)" id="img-a8f12427-70">
                <path d="M-0.26,-10.17 L 0.26 -10.17 0.26 10.17 -0.26 10.17 z" class="primitive"/>
              </g>
              <g transform="translate(44.09,83.24)" id="img-a8f12427-71">
                <path d="M-0.26,-5.08 L 0.26 -5.08 0.26 5.08 -0.26 5.08 z" class="primitive"/>
              </g>
              <g transform="translate(44.56,83.24)" id="img-a8f12427-72">
                <path d="M-0.26,-5.08 L 0.26 -5.08 0.26 5.08 -0.26 5.08 z" class="primitive"/>
              </g>
              <g transform="translate(45.02,78.16)" id="img-a8f12427-73">
                <path d="M-0.26,-10.17 L 0.26 -10.17 0.26 10.17 -0.26 10.17 z" class="primitive"/>
              </g>
              <g transform="translate(45.49,73.08)" id="img-a8f12427-74">
                <path d="M-0.26,-15.25 L 0.26 -15.25 0.26 15.25 -0.26 15.25 z" class="primitive"/>
              </g>
              <g transform="translate(45.96,83.24)" id="img-a8f12427-75">
                <path d="M-0.26,-5.08 L 0.26 -5.08 0.26 5.08 -0.26 5.08 z" class="primitive"/>
              </g>
              <g transform="translate(46.43,83.24)" id="img-a8f12427-76">
                <path d="M-0.26,-5.08 L 0.26 -5.08 0.26 5.08 -0.26 5.08 z" class="primitive"/>
              </g>
              <g transform="translate(46.9,78.16)" id="img-a8f12427-77">
                <path d="M-0.26,-10.17 L 0.26 -10.17 0.26 10.17 -0.26 10.17 z" class="primitive"/>
              </g>
              <g transform="translate(47.37,73.08)" id="img-a8f12427-78">
                <path d="M-0.26,-15.25 L 0.26 -15.25 0.26 15.25 -0.26 15.25 z" class="primitive"/>
              </g>
              <g transform="translate(47.84,68)" id="img-a8f12427-79">
                <path d="M-0.26,-20.33 L 0.26 -20.33 0.26 20.33 -0.26 20.33 z" class="primitive"/>
              </g>
              <g transform="translate(48.31,78.16)" id="img-a8f12427-80">
                <path d="M-0.26,-10.17 L 0.26 -10.17 0.26 10.17 -0.26 10.17 z" class="primitive"/>
              </g>
              <g transform="translate(48.77,68)" id="img-a8f12427-81">
                <path d="M-0.26,-20.33 L 0.26 -20.33 0.26 20.33 -0.26 20.33 z" class="primitive"/>
              </g>
              <g transform="translate(49.24,73.08)" id="img-a8f12427-82">
                <path d="M-0.26,-15.25 L 0.26 -15.25 0.26 15.25 -0.26 15.25 z" class="primitive"/>
              </g>
              <g transform="translate(49.71,83.24)" id="img-a8f12427-83">
                <path d="M-0.26,-5.08 L 0.26 -5.08 0.26 5.08 -0.26 5.08 z" class="primitive"/>
              </g>
              <g transform="translate(50.18,83.24)" id="img-a8f12427-84">
                <path d="M-0.26,-5.08 L 0.26 -5.08 0.26 5.08 -0.26 5.08 z" class="primitive"/>
              </g>
              <g transform="translate(50.65,83.24)" id="img-a8f12427-85">
                <path d="M-0.26,-5.08 L 0.26 -5.08 0.26 5.08 -0.26 5.08 z" class="primitive"/>
              </g>
              <g transform="translate(51.12,88.33)" id="img-a8f12427-86">
                <path d="M-0.26,-0 L 0.26 -0 0.26 0 -0.26 0 z" class="primitive"/>
              </g>
              <g transform="translate(51.59,73.08)" id="img-a8f12427-87">
                <path d="M-0.26,-15.25 L 0.26 -15.25 0.26 15.25 -0.26 15.25 z" class="primitive"/>
              </g>
              <g transform="translate(52.06,78.16)" id="img-a8f12427-88">
                <path d="M-0.26,-10.17 L 0.26 -10.17 0.26 10.17 -0.26 10.17 z" class="primitive"/>
              </g>
              <g transform="translate(52.52,73.08)" id="img-a8f12427-89">
                <path d="M-0.26,-15.25 L 0.26 -15.25 0.26 15.25 -0.26 15.25 z" class="primitive"/>
              </g>
              <g transform="translate(52.99,78.16)" id="img-a8f12427-90">
                <path d="M-0.26,-10.17 L 0.26 -10.17 0.26 10.17 -0.26 10.17 z" class="primitive"/>
              </g>
              <g transform="translate(53.46,52.75)" id="img-a8f12427-91">
                <path d="M-0.26,-35.58 L 0.26 -35.58 0.26 35.58 -0.26 35.58 z" class="primitive"/>
              </g>
              <g transform="translate(53.93,88.33)" id="img-a8f12427-92">
                <path d="M-0.26,-0 L 0.26 -0 0.26 0 -0.26 0 z" class="primitive"/>
              </g>
              <g transform="translate(54.4,62.91)" id="img-a8f12427-93">
                <path d="M-0.26,-25.41 L 0.26 -25.41 0.26 25.41 -0.26 25.41 z" class="primitive"/>
              </g>
              <g transform="translate(54.87,78.16)" id="img-a8f12427-94">
                <path d="M-0.26,-10.17 L 0.26 -10.17 0.26 10.17 -0.26 10.17 z" class="primitive"/>
              </g>
              <g transform="translate(55.34,73.08)" id="img-a8f12427-95">
                <path d="M-0.26,-15.25 L 0.26 -15.25 0.26 15.25 -0.26 15.25 z" class="primitive"/>
              </g>
              <g transform="translate(55.81,73.08)" id="img-a8f12427-96">
                <path d="M-0.26,-15.25 L 0.26 -15.25 0.26 15.25 -0.26 15.25 z" class="primitive"/>
              </g>
              <g transform="translate(56.27,62.91)" id="img-a8f12427-97">
                <path d="M-0.26,-25.41 L 0.26 -25.41 0.26 25.41 -0.26 25.41 z" class="primitive"/>
              </g>
              <g transform="translate(56.74,88.33)" id="img-a8f12427-98">
                <path d="M-0.26,-0 L 0.26 -0 0.26 0 -0.26 0 z" class="primitive"/>
              </g>
              <g transform="translate(57.21,68)" id="img-a8f12427-99">
                <path d="M-0.26,-20.33 L 0.26 -20.33 0.26 20.33 -0.26 20.33 z" class="primitive"/>
              </g>
              <g transform="translate(57.68,73.08)" id="img-a8f12427-100">
                <path d="M-0.26,-15.25 L 0.26 -15.25 0.26 15.25 -0.26 15.25 z" class="primitive"/>
              </g>
              <g transform="translate(58.15,83.24)" id="img-a8f12427-101">
                <path d="M-0.26,-5.08 L 0.26 -5.08 0.26 5.08 -0.26 5.08 z" class="primitive"/>
              </g>
              <g transform="translate(58.62,83.24)" id="img-a8f12427-102">
                <path d="M-0.26,-5.08 L 0.26 -5.08 0.26 5.08 -0.26 5.08 z" class="primitive"/>
              </g>
              <g transform="translate(59.09,88.33)" id="img-a8f12427-103">
                <path d="M-0.26,-0 L 0.26 -0 0.26 0 -0.26 0 z" class="primitive"/>
              </g>
              <g transform="translate(59.56,73.08)" id="img-a8f12427-104">
                <path d="M-0.26,-15.25 L 0.26 -15.25 0.26 15.25 -0.26 15.25 z" class="primitive"/>
              </g>
              <g transform="translate(60.02,88.33)" id="img-a8f12427-105">
                <path d="M-0.26,-0 L 0.26 -0 0.26 0 -0.26 0 z" class="primitive"/>
              </g>
              <g transform="translate(60.49,83.24)" id="img-a8f12427-106">
                <path d="M-0.26,-5.08 L 0.26 -5.08 0.26 5.08 -0.26 5.08 z" class="primitive"/>
              </g>
              <g transform="translate(60.96,83.24)" id="img-a8f12427-107">
                <path d="M-0.26,-5.08 L 0.26 -5.08 0.26 5.08 -0.26 5.08 z" class="primitive"/>
              </g>
              <g transform="translate(61.43,88.33)" id="img-a8f12427-108">
                <path d="M-0.26,-0 L 0.26 -0 0.26 0 -0.26 0 z" class="primitive"/>
              </g>
              <g transform="translate(61.9,88.33)" id="img-a8f12427-109">
                <path d="M-0.26,-0 L 0.26 -0 0.26 0 -0.26 0 z" class="primitive"/>
              </g>
              <g transform="translate(62.37,88.33)" id="img-a8f12427-110">
                <path d="M-0.26,-0 L 0.26 -0 0.26 0 -0.26 0 z" class="primitive"/>
              </g>
              <g transform="translate(62.84,88.33)" id="img-a8f12427-111">
                <path d="M-0.26,-0 L 0.26 -0 0.26 0 -0.26 0 z" class="primitive"/>
              </g>
              <g transform="translate(63.31,88.33)" id="img-a8f12427-112">
                <path d="M-0.26,-0 L 0.26 -0 0.26 0 -0.26 0 z" class="primitive"/>
              </g>
              <g transform="translate(63.77,88.33)" id="img-a8f12427-113">
                <path d="M-0.26,-0 L 0.26 -0 0.26 0 -0.26 0 z" class="primitive"/>
              </g>
              <g transform="translate(64.24,88.33)" id="img-a8f12427-114">
                <path d="M-0.26,-0 L 0.26 -0 0.26 0 -0.26 0 z" class="primitive"/>
              </g>
              <g transform="translate(64.71,88.33)" id="img-a8f12427-115">
                <path d="M-0.26,-0 L 0.26 -0 0.26 0 -0.26 0 z" class="primitive"/>
              </g>
              <g transform="translate(65.18,88.33)" id="img-a8f12427-116">
                <path d="M-0.26,-0 L 0.26 -0 0.26 0 -0.26 0 z" class="primitive"/>
              </g>
              <g transform="translate(65.65,88.33)" id="img-a8f12427-117">
                <path d="M-0.26,-0 L 0.26 -0 0.26 0 -0.26 0 z" class="primitive"/>
              </g>
              <g transform="translate(66.12,88.33)" id="img-a8f12427-118">
                <path d="M-0.26,-0 L 0.26 -0 0.26 0 -0.26 0 z" class="primitive"/>
              </g>
              <g transform="translate(66.59,88.33)" id="img-a8f12427-119">
                <path d="M-0.26,-0 L 0.26 -0 0.26 0 -0.26 0 z" class="primitive"/>
              </g>
              <g transform="translate(67.06,88.33)" id="img-a8f12427-120">
                <path d="M-0.26,-0 L 0.26 -0 0.26 0 -0.26 0 z" class="primitive"/>
              </g>
              <g transform="translate(67.52,88.33)" id="img-a8f12427-121">
                <path d="M-0.26,-0 L 0.26 -0 0.26 0 -0.26 0 z" class="primitive"/>
              </g>
              <g transform="translate(67.99,88.33)" id="img-a8f12427-122">
                <path d="M-0.26,-0 L 0.26 -0 0.26 0 -0.26 0 z" class="primitive"/>
              </g>
              <g transform="translate(68.46,88.33)" id="img-a8f12427-123">
                <path d="M-0.26,-0 L 0.26 -0 0.26 0 -0.26 0 z" class="primitive"/>
              </g>
              <g transform="translate(68.93,88.33)" id="img-a8f12427-124">
                <path d="M-0.26,-0 L 0.26 -0 0.26 0 -0.26 0 z" class="primitive"/>
              </g>
              <g transform="translate(69.4,88.33)" id="img-a8f12427-125">
                <path d="M-0.26,-0 L 0.26 -0 0.26 0 -0.26 0 z" class="primitive"/>
              </g>
              <g transform="translate(69.87,88.33)" id="img-a8f12427-126">
                <path d="M-0.26,-0 L 0.26 -0 0.26 0 -0.26 0 z" class="primitive"/>
              </g>
              <g transform="translate(70.34,88.33)" id="img-a8f12427-127">
                <path d="M-0.26,-0 L 0.26 -0 0.26 0 -0.26 0 z" class="primitive"/>
              </g>
              <g transform="translate(70.81,83.24)" id="img-a8f12427-128">
                <path d="M-0.26,-5.08 L 0.26 -5.08 0.26 5.08 -0.26 5.08 z" class="primitive"/>
              </g>
            </g>
          </g>
        </g>
      </g>
    </g>
  </g>
  <g class="guide ylabels" font-size="2.82" font-family="'PT Sans Caption','Helvetica Neue','Helvetica',sans-serif" fill="#6C606B" id="img-a8f12427-129">
    <g transform="translate(15.28,88.33)" id="img-a8f12427-130">
      <g class="primitive">
        <text text-anchor="end" dy="0.35em">0</text>
      </g>
    </g>
    <g transform="translate(15.28,68)" id="img-a8f12427-131">
      <g class="primitive">
        <text text-anchor="end" dy="0.35em">2</text>
      </g>
    </g>
    <g transform="translate(15.28,47.66)" id="img-a8f12427-132">
      <g class="primitive">
        <text text-anchor="end" dy="0.35em">4</text>
      </g>
    </g>
    <g transform="translate(15.28,27.33)" id="img-a8f12427-133">
      <g class="primitive">
        <text text-anchor="end" dy="0.35em">6</text>
      </g>
    </g>
    <g transform="translate(15.28,7)" id="img-a8f12427-134">
      <g class="primitive">
        <text text-anchor="end" dy="0.35em">8</text>
      </g>
    </g>
  </g>
  <g font-size="3.88" font-family="'PT Sans','Helvetica Neue','Helvetica',sans-serif" fill="#564A55" stroke="#000000" stroke-opacity="0.000" id="img-a8f12427-135">
    <g transform="translate(8.81,45.66)" id="img-a8f12427-136">
      <g class="primitive">
        <text text-anchor="middle" dy="0.35em" transform="rotate(-90,0, 2)">frequency</text>
      </g>
    </g>
  </g>
</g>
<defs>
  <clipPath id="img-a8f12427-11">
    <path d="M16.28,5 L 79.86 5 79.86 90.33 16.28 90.33" />
  </clipPath>
</defs>
</svg>
