<?xml version="1.0" encoding="UTF-8"?>
<svg xmlns="http://www.w3.org/2000/svg"
     xmlns:xlink="http://www.w3.org/1999/xlink"
     xmlns:gadfly="http://www.gadflyjl.org/ns"
     version="1.2"
     width="141.42mm" height="100mm" viewBox="0 0 141.42 100"
     stroke="none"
     fill="#000000"
     stroke-width="0.3"
     font-size="3.88"
>
<defs>
  <marker id="arrow" markerWidth="15" markerHeight="7" refX="5" refY="3.5" orient="auto" markerUnits="strokeWidth">
    <path d="M0,0 L15,3.5 L0,7 z" stroke="context-stroke" fill="context-stroke"/>
  </marker>
</defs>
<g class="plotroot xscalable yscalable" id="img-07ac43de-1">
  <g font-size="3.88" font-family="'PT Sans','Helvetica Neue','Helvetica',sans-serif" fill="#564A55" stroke="#000000" stroke-opacity="0.000" id="img-07ac43de-2">
    <g transform="translate(73.38,88.39)">
      <g class="primitive">
        <text text-anchor="middle" dy="0.6em">degree</text>
      </g>
    </g>
  </g>
  <g class="guide xlabels" font-size="2.82" font-family="'PT Sans Caption','Helvetica Neue','Helvetica',sans-serif" fill="#6C606B" id="img-07ac43de-3">
    <g transform="translate(12.35,81.72)">
      <g class="primitive">
        <text text-anchor="middle" dy="0.6em">0</text>
      </g>
    </g>
    <g transform="translate(42.87,81.72)">
      <g class="primitive">
        <text text-anchor="middle" dy="0.6em">10</text>
      </g>
    </g>
    <g transform="translate(73.38,81.72)">
      <g class="primitive">
        <text text-anchor="middle" dy="0.6em">20</text>
      </g>
    </g>
    <g transform="translate(103.9,81.72)">
      <g class="primitive">
        <text text-anchor="middle" dy="0.6em">30</text>
      </g>
    </g>
    <g transform="translate(134.42,81.72)">
      <g class="primitive">
        <text text-anchor="middle" dy="0.6em">40</text>
      </g>
    </g>
  </g>
  <g clip-path="url(#img-07ac43de-4)">
    <g id="img-07ac43de-5">
      <g pointer-events="visible" stroke-width="0.3" fill="#000000" fill-opacity="0.000" stroke="#000000" stroke-opacity="0.000" class="guide background" id="img-07ac43de-6">
        <g transform="translate(73.38,45.66)" id="img-07ac43de-7">
          <path d="M-63.04,-35.05 L 63.04 -35.05 63.04 35.05 -63.04 35.05 z" class="primitive"/>
        </g>
      </g>
      <g class="guide ygridlines xfixed" stroke-dasharray="0.5,0.5" stroke-width="0.2" stroke="#D0D0E0" id="img-07ac43de-8">
        <g transform="translate(73.38,78.72)" id="img-07ac43de-9">
          <path fill="none" d="M-63.04,0 L 63.04 0" class="primitive"/>
        </g>
        <g transform="translate(73.38,62.19)" id="img-07ac43de-10">
          <path fill="none" d="M-63.04,0 L 63.04 0" class="primitive"/>
        </g>
        <g transform="translate(73.38,45.66)" id="img-07ac43de-11">
          <path fill="none" d="M-63.04,0 L 63.04 0" class="primitive"/>
        </g>
        <g transform="translate(73.38,29.14)" id="img-07ac43de-12">
          <path fill="none" d="M-63.04,0 L 63.04 0" class="primitive"/>
        </g>
        <g transform="translate(73.38,12.61)" id="img-07ac43de-13">
          <path fill="none" d="M-63.04,0 L 63.04 0" class="primitive"/>
        </g>
      </g>
      <g class="guide xgridlines yfixed" stroke-dasharray="0.5,0.5" stroke-width="0.2" stroke="#D0D0E0" id="img-07ac43de-14">
        <g transform="translate(12.35,45.66)" id="img-07ac43de-15">
          <path fill="none" d="M0,-35.05 L 0 35.05" class="primitive"/>
        </g>
        <g transform="translate(42.87,45.66)" id="img-07ac43de-16">
          <path fill="none" d="M0,-35.05 L 0 35.05" class="primitive"/>
        </g>
        <g transform="translate(73.38,45.66)" id="img-07ac43de-17">
          <path fill="none" d="M0,-35.05 L 0 35.05" class="primitive"/>
        </g>
        <g transform="translate(103.9,45.66)" id="img-07ac43de-18">
          <path fill="none" d="M0,-35.05 L 0 35.05" class="primitive"/>
        </g>
        <g transform="translate(134.42,45.66)" id="img-07ac43de-19">
          <path fill="none" d="M0,-35.05 L 0 35.05" class="primitive"/>
        </g>
      </g>
      <g class="plotpanel" id="img-07ac43de-20">
        <metadata>
          <boundingbox value="10.346666666666664mm 10.611666666666665mm 126.07468957064285mm 70.10333333333334mm"/>
          <unitbox value="-0.6553365016235013 82.42045282638294 41.310673003247004 -84.84090565276587"/>
        </metadata>
        <g shape-rendering="crispEdges" stroke-width="0.3" id="img-07ac43de-21">
          <g class="geometry" fill-opacity="1" stroke="#000000" stroke-opacity="0.000" fill="#00BFFF" id="img-07ac43de-22">
            <g transform="translate(16.92,52.27)" id="img-07ac43de-23">
              <path d="M-1.55,-26.44 L 1.55 -26.44 1.55 26.44 -1.55 26.44 z" class="primitive"/>
            </g>
            <g transform="translate(19.98,46.9)" id="img-07ac43de-24">
              <path d="M-1.55,-31.81 L 1.55 -31.81 1.55 31.81 -1.55 31.81 z" class="primitive"/>
            </g>
            <g transform="translate(23.03,46.08)" id="img-07ac43de-25">
              <path d="M-1.55,-32.64 L 1.55 -32.64 1.55 32.64 -1.55 32.64 z" class="primitive"/>
            </g>
            <g transform="translate(26.08,49.38)" id="img-07ac43de-26">
              <path d="M-1.55,-29.33 L 1.55 -29.33 1.55 29.33 -1.55 29.33 z" class="primitive"/>
            </g>
            <g transform="translate(29.13,51.86)" id="img-07ac43de-27">
              <path d="M-1.55,-26.85 L 1.55 -26.85 1.55 26.85 -1.55 26.85 z" class="primitive"/>
            </g>
            <g transform="translate(32.18,55.17)" id="img-07ac43de-28">
              <path d="M-1.55,-23.55 L 1.55 -23.55 1.55 23.55 -1.55 23.55 z" class="primitive"/>
            </g>
            <g transform="translate(35.24,62.6)" id="img-07ac43de-29">
              <path d="M-1.55,-16.11 L 1.55 -16.11 1.55 16.11 -1.55 16.11 z" class="primitive"/>
            </g>
            <g transform="translate(38.29,60.95)" id="img-07ac43de-30">
              <path d="M-1.55,-17.77 L 1.55 -17.77 1.55 17.77 -1.55 17.77 z" class="primitive"/>
            </g>
            <g transform="translate(41.34,60.12)" id="img-07ac43de-31">
              <path d="M-1.55,-18.59 L 1.55 -18.59 1.55 18.59 -1.55 18.59 z" class="primitive"/>
            </g>
            <g transform="translate(44.39,67.97)" id="img-07ac43de-32">
              <path d="M-1.55,-10.74 L 1.55 -10.74 1.55 10.74 -1.55 10.74 z" class="primitive"/>
            </g>
            <g transform="translate(47.44,60.54)" id="img-07ac43de-33">
              <path d="M-1.55,-18.18 L 1.55 -18.18 1.55 18.18 -1.55 18.18 z" class="primitive"/>
            </g>
            <g transform="translate(50.5,68.8)" id="img-07ac43de-34">
              <path d="M-1.55,-9.92 L 1.55 -9.92 1.55 9.92 -1.55 9.92 z" class="primitive"/>
            </g>
            <g transform="translate(53.55,66.32)" id="img-07ac43de-35">
              <path d="M-1.55,-12.39 L 1.55 -12.39 1.55 12.39 -1.55 12.39 z" class="primitive"/>
            </g>
            <g transform="translate(56.6,71.28)" id="img-07ac43de-36">
              <path d="M-1.55,-7.44 L 1.55 -7.44 1.55 7.44 -1.55 7.44 z" class="primitive"/>
            </g>
            <g transform="translate(59.65,64.25)" id="img-07ac43de-37">
              <path d="M-1.55,-14.46 L 1.55 -14.46 1.55 14.46 -1.55 14.46 z" class="primitive"/>
            </g>
            <g transform="translate(62.7,65.91)" id="img-07ac43de-38">
              <path d="M-1.55,-12.81 L 1.55 -12.81 1.55 12.81 -1.55 12.81 z" class="primitive"/>
            </g>
            <g transform="translate(65.75,68.8)" id="img-07ac43de-39">
              <path d="M-1.55,-9.92 L 1.55 -9.92 1.55 9.92 -1.55 9.92 z" class="primitive"/>
            </g>
            <g transform="translate(68.81,67.97)" id="img-07ac43de-40">
              <path d="M-1.55,-10.74 L 1.55 -10.74 1.55 10.74 -1.55 10.74 z" class="primitive"/>
            </g>
            <g transform="translate(71.86,71.69)" id="img-07ac43de-41">
              <path d="M-1.55,-7.02 L 1.55 -7.02 1.55 7.02 -1.55 7.02 z" class="primitive"/>
            </g>
            <g transform="translate(74.91,71.69)" id="img-07ac43de-42">
              <path d="M-1.55,-7.02 L 1.55 -7.02 1.55 7.02 -1.55 7.02 z" class="primitive"/>
            </g>
            <g transform="translate(77.96,71.69)" id="img-07ac43de-43">
              <path d="M-1.55,-7.02 L 1.55 -7.02 1.55 7.02 -1.55 7.02 z" class="primitive"/>
            </g>
            <g transform="translate(81.01,74.58)" id="img-07ac43de-44">
              <path d="M-1.55,-4.13 L 1.55 -4.13 1.55 4.13 -1.55 4.13 z" class="primitive"/>
            </g>
            <g transform="translate(84.07,75)" id="img-07ac43de-45">
              <path d="M-1.55,-3.72 L 1.55 -3.72 1.55 3.72 -1.55 3.72 z" class="primitive"/>
            </g>
            <g transform="translate(87.12,73.34)" id="img-07ac43de-46">
              <path d="M-1.55,-5.37 L 1.55 -5.37 1.55 5.37 -1.55 5.37 z" class="primitive"/>
            </g>
            <g transform="translate(90.17,76.24)" id="img-07ac43de-47">
              <path d="M-1.55,-2.48 L 1.55 -2.48 1.55 2.48 -1.55 2.48 z" class="primitive"/>
            </g>
            <g transform="translate(93.22,72.93)" id="img-07ac43de-48">
              <path d="M-1.55,-5.78 L 1.55 -5.78 1.55 5.78 -1.55 5.78 z" class="primitive"/>
            </g>
            <g transform="translate(96.27,77.06)" id="img-07ac43de-49">
              <path d="M-1.55,-1.65 L 1.55 -1.65 1.55 1.65 -1.55 1.65 z" class="primitive"/>
            </g>
            <g transform="translate(99.32,76.24)" id="img-07ac43de-50">
              <path d="M-1.55,-2.48 L 1.55 -2.48 1.55 2.48 -1.55 2.48 z" class="primitive"/>
            </g>
            <g transform="translate(102.38,75.41)" id="img-07ac43de-51">
              <path d="M-1.55,-3.31 L 1.55 -3.31 1.55 3.31 -1.55 3.31 z" class="primitive"/>
            </g>
            <g transform="translate(105.43,78.72)" id="img-07ac43de-52">
              <path d="M-1.55,-0 L 1.55 -0 1.55 0 -1.55 0 z" class="primitive"/>
            </g>
            <g transform="translate(108.48,78.72)" id="img-07ac43de-53">
              <path d="M-1.55,-0 L 1.55 -0 1.55 0 -1.55 0 z" class="primitive"/>
            </g>
            <g transform="translate(111.53,78.72)" id="img-07ac43de-54">
              <path d="M-1.55,-0 L 1.55 -0 1.55 0 -1.55 0 z" class="primitive"/>
            </g>
            <g transform="translate(114.58,78.72)" id="img-07ac43de-55">
              <path d="M-1.55,-0 L 1.55 -0 1.55 0 -1.55 0 z" class="primitive"/>
            </g>
            <g transform="translate(117.64,78.3)" id="img-07ac43de-56">
              <path d="M-1.55,-0.41 L 1.55 -0.41 1.55 0.41 -1.55 0.41 z" class="primitive"/>
            </g>
          </g>
        </g>
      </g>
    </g>
  </g>
  <g class="guide ylabels" font-size="2.82" font-family="'PT Sans Caption','Helvetica Neue','Helvetica',sans-serif" fill="#6C606B" id="img-07ac43de-57">
    <g transform="translate(9.35,78.72)" id="img-07ac43de-58">
      <g class="primitive">
        <text text-anchor="end" dy="0.35em">0</text>
      </g>
    </g>
    <g transform="translate(9.35,62.19)" id="img-07ac43de-59">
      <g class="primitive">
        <text text-anchor="end" dy="0.35em">20</text>
      </g>
    </g>
    <g transform="translate(9.35,45.66)" id="img-07ac43de-60">
      <g class="primitive">
        <text text-anchor="end" dy="0.35em">40</text>
      </g>
    </g>
    <g transform="translate(9.35,29.14)" id="img-07ac43de-61">
      <g class="primitive">
        <text text-anchor="end" dy="0.35em">60</text>
      </g>
    </g>
    <g transform="translate(9.35,12.61)" id="img-07ac43de-62">
      <g class="primitive">
        <text text-anchor="end" dy="0.35em">80</text>
      </g>
    </g>
  </g>
  <g font-size="3.88" font-family="'PT Sans','Helvetica Neue','Helvetica',sans-serif" fill="#564A55" stroke="#000000" stroke-opacity="0.000" id="img-07ac43de-63">
    <g transform="translate(73.38,5)" id="img-07ac43de-64">
      <g class="primitive">
        <text text-anchor="middle" dy="0.6em">Degree distribution</text>
      </g>
    </g>
  </g>
</g>
<defs>
  <clipPath id="img-07ac43de-4">
    <path d="M10.35,10.61 L 136.42 10.61 136.42 80.72 10.35 80.72" />
  </clipPath>
</defs>
</svg>
