<?xml version="1.0" encoding="UTF-8"?>
<svg xmlns="http://www.w3.org/2000/svg"
     xmlns:xlink="http://www.w3.org/1999/xlink"
     xmlns:gadfly="http://www.gadflyjl.org/ns"
     version="1.2"
     width="141.42mm" height="100mm" viewBox="0 0 141.42 100"
     stroke="none"
     fill="#000000"
     stroke-width="0.3"
     font-size="3.88"
>
<defs>
  <marker id="arrow" markerWidth="15" markerHeight="7" refX="5" refY="3.5" orient="auto" markerUnits="strokeWidth">
    <path d="M0,0 L15,3.5 L0,7 z" stroke="context-stroke" fill="context-stroke"/>
  </marker>
</defs>
<g class="plotroot xscalable yscalable" id="img-e800a49a-1">
  <g class="guide xlabels" font-size="2.82" font-family="'PT Sans Caption','Helvetica Neue','Helvetica',sans-serif" fill="#6C606B" id="img-e800a49a-2">
    <g transform="translate(19.96,91.33)">
      <g class="primitive">
        <text text-anchor="middle" dy="0.6em">5.0×10⁴</text>
      </g>
    </g>
    <g transform="translate(40.29,91.33)">
      <g class="primitive">
        <text text-anchor="middle" dy="0.6em">5.5×10⁴</text>
      </g>
    </g>
    <g transform="translate(60.63,91.33)">
      <g class="primitive">
        <text text-anchor="middle" dy="0.6em">6.0×10⁴</text>
      </g>
    </g>
    <g transform="translate(80.97,91.33)">
      <g class="primitive">
        <text text-anchor="middle" dy="0.6em">6.5×10⁴</text>
      </g>
    </g>
  </g>
  <g class="guide colorkey" id="img-e800a49a-3">
    <g class="color_coding_coding_coding_noncoding_4-path" id="img-e800a49a-4">
      <g fill="#4C404B" font-size="2.82" font-family="'PT Sans','Helvetica Neue','Helvetica',sans-serif" id="img-e800a49a-5">
        <g transform="translate(86.78,49.48)" id="img-e800a49a-6">
          <g class="primitive">
            <text dy="0.35em">coding_coding_coding_noncoding_4-path</text>
          </g>
        </g>
      </g>
      <g fill-opacity="1" fill="#00BFFF" stroke="#FFFFFF" id="img-e800a49a-7">
        <g transform="translate(84.87,49.48)" id="img-e800a49a-8">
          <path d="M-0.91,-0.91 L 0.91 -0.91 0.91 0.91 -0.91 0.91 z" class="primitive"/>
        </g>
      </g>
    </g>
    <g fill="#362A35" font-size="3.88" font-family="'PT Sans','Helvetica Neue','Helvetica',sans-serif" stroke="#000000" stroke-opacity="0.000" id="img-e800a49a-9">
      <g transform="translate(83.97,45.66)" id="img-e800a49a-10">
        <g class="primitive">
          <text dy="-0em">graphlet</text>
        </g>
      </g>
    </g>
  </g>
  <g clip-path="url(#img-e800a49a-11)">
    <g id="img-e800a49a-12">
      <g pointer-events="visible" stroke-width="0.3" fill="#000000" fill-opacity="0.000" stroke="#000000" stroke-opacity="0.000" class="guide background" id="img-e800a49a-13">
        <g transform="translate(50.46,47.66)" id="img-e800a49a-14">
          <path d="M-32.5,-42.66 L 32.5 -42.66 32.5 42.66 -32.5 42.66 z" class="primitive"/>
        </g>
      </g>
      <g class="guide ygridlines xfixed" stroke-dasharray="0.5,0.5" stroke-width="0.2" stroke="#D0D0E0" id="img-e800a49a-15">
        <g transform="translate(50.46,88.33)" id="img-e800a49a-16">
          <path fill="none" d="M-32.5,0 L 32.5 0" class="primitive"/>
        </g>
        <g transform="translate(50.46,72.06)" id="img-e800a49a-17">
          <path fill="none" d="M-32.5,0 L 32.5 0" class="primitive"/>
        </g>
        <g transform="translate(50.46,55.8)" id="img-e800a49a-18">
          <path fill="none" d="M-32.5,0 L 32.5 0" class="primitive"/>
        </g>
        <g transform="translate(50.46,39.53)" id="img-e800a49a-19">
          <path fill="none" d="M-32.5,0 L 32.5 0" class="primitive"/>
        </g>
        <g transform="translate(50.46,23.27)" id="img-e800a49a-20">
          <path fill="none" d="M-32.5,0 L 32.5 0" class="primitive"/>
        </g>
        <g transform="translate(50.46,7)" id="img-e800a49a-21">
          <path fill="none" d="M-32.5,0 L 32.5 0" class="primitive"/>
        </g>
      </g>
      <g class="guide xgridlines yfixed" stroke-dasharray="0.5,0.5" stroke-width="0.2" stroke="#D0D0E0" id="img-e800a49a-22">
        <g transform="translate(19.96,47.66)" id="img-e800a49a-23">
          <path fill="none" d="M0,-42.66 L 0 42.66" class="primitive"/>
        </g>
        <g transform="translate(40.29,47.66)" id="img-e800a49a-24">
          <path fill="none" d="M0,-42.66 L 0 42.66" class="primitive"/>
        </g>
        <g transform="translate(60.63,47.66)" id="img-e800a49a-25">
          <path fill="none" d="M0,-42.66 L 0 42.66" class="primitive"/>
        </g>
        <g transform="translate(80.97,47.66)" id="img-e800a49a-26">
          <path fill="none" d="M0,-42.66 L 0 42.66" class="primitive"/>
        </g>
      </g>
      <g class="plotpanel" id="img-e800a49a-27">
        <metadata>
          <boundingbox value="17.95833333333333mm 5.0mm 65.00968957064283mm 85.32666666666667mm"/>
          <unitbox value="49508.27482960287 51.22960898434298 15983.450340794247 -52.459217968685955"/>
        </metadata>
        <g shape-rendering="crispEdges" stroke-width="0.3" id="img-e800a49a-28">
          <g stroke="#000000" stroke-opacity="0.000" class="geometry" id="img-e800a49a-29">
            <g fill="#00BFFF" id="img-e800a49a-30">
              <g transform="translate(20.71,87.51)" id="img-e800a49a-31">
                <path d="M-0.28,-0.81 L 0.28 -0.81 0.28 0.81 -0.28 0.81 z" class="primitive"/>
              </g>
              <g transform="translate(21.22,87.51)" id="img-e800a49a-32">
                <path d="M-0.28,-0.81 L 0.28 -0.81 0.28 0.81 -0.28 0.81 z" class="primitive"/>
              </g>
              <g transform="translate(21.74,88.33)" id="img-e800a49a-33">
                <path d="M-0.28,-0 L 0.28 -0 0.28 0 -0.28 0 z" class="primitive"/>
              </g>
              <g transform="translate(22.25,88.33)" id="img-e800a49a-34">
                <path d="M-0.28,-0 L 0.28 -0 0.28 0 -0.28 0 z" class="primitive"/>
              </g>
              <g transform="translate(22.77,88.33)" id="img-e800a49a-35">
                <path d="M-0.28,-0 L 0.28 -0 0.28 0 -0.28 0 z" class="primitive"/>
              </g>
              <g transform="translate(23.28,88.33)" id="img-e800a49a-36">
                <path d="M-0.28,-0 L 0.28 -0 0.28 0 -0.28 0 z" class="primitive"/>
              </g>
              <g transform="translate(23.8,88.33)" id="img-e800a49a-37">
                <path d="M-0.28,-0 L 0.28 -0 0.28 0 -0.28 0 z" class="primitive"/>
              </g>
              <g transform="translate(24.31,88.33)" id="img-e800a49a-38">
                <path d="M-0.28,-0 L 0.28 -0 0.28 0 -0.28 0 z" class="primitive"/>
              </g>
              <g transform="translate(24.83,88.33)" id="img-e800a49a-39">
                <path d="M-0.28,-0 L 0.28 -0 0.28 0 -0.28 0 z" class="primitive"/>
              </g>
              <g transform="translate(25.34,87.51)" id="img-e800a49a-40">
                <path d="M-0.28,-0.81 L 0.28 -0.81 0.28 0.81 -0.28 0.81 z" class="primitive"/>
              </g>
              <g transform="translate(25.86,88.33)" id="img-e800a49a-41">
                <path d="M-0.28,-0 L 0.28 -0 0.28 0 -0.28 0 z" class="primitive"/>
              </g>
              <g transform="translate(26.37,87.51)" id="img-e800a49a-42">
                <path d="M-0.28,-0.81 L 0.28 -0.81 0.28 0.81 -0.28 0.81 z" class="primitive"/>
              </g>
              <g transform="translate(26.89,88.33)" id="img-e800a49a-43">
                <path d="M-0.28,-0 L 0.28 -0 0.28 0 -0.28 0 z" class="primitive"/>
              </g>
              <g transform="translate(27.4,87.51)" id="img-e800a49a-44">
                <path d="M-0.28,-0.81 L 0.28 -0.81 0.28 0.81 -0.28 0.81 z" class="primitive"/>
              </g>
              <g transform="translate(27.92,88.33)" id="img-e800a49a-45">
                <path d="M-0.28,-0 L 0.28 -0 0.28 0 -0.28 0 z" class="primitive"/>
              </g>
              <g transform="translate(28.43,87.51)" id="img-e800a49a-46">
                <path d="M-0.28,-0.81 L 0.28 -0.81 0.28 0.81 -0.28 0.81 z" class="primitive"/>
              </g>
              <g transform="translate(28.95,87.51)" id="img-e800a49a-47">
                <path d="M-0.28,-0.81 L 0.28 -0.81 0.28 0.81 -0.28 0.81 z" class="primitive"/>
              </g>
              <g transform="translate(29.46,88.33)" id="img-e800a49a-48">
                <path d="M-0.28,-0 L 0.28 -0 0.28 0 -0.28 0 z" class="primitive"/>
              </g>
              <g transform="translate(29.98,88.33)" id="img-e800a49a-49">
                <path d="M-0.28,-0 L 0.28 -0 0.28 0 -0.28 0 z" class="primitive"/>
              </g>
              <g transform="translate(30.49,86.7)" id="img-e800a49a-50">
                <path d="M-0.28,-1.63 L 0.28 -1.63 0.28 1.63 -0.28 1.63 z" class="primitive"/>
              </g>
              <g transform="translate(31.01,87.51)" id="img-e800a49a-51">
                <path d="M-0.28,-0.81 L 0.28 -0.81 0.28 0.81 -0.28 0.81 z" class="primitive"/>
              </g>
              <g transform="translate(31.52,87.51)" id="img-e800a49a-52">
                <path d="M-0.28,-0.81 L 0.28 -0.81 0.28 0.81 -0.28 0.81 z" class="primitive"/>
              </g>
              <g transform="translate(32.04,85.89)" id="img-e800a49a-53">
                <path d="M-0.28,-2.44 L 0.28 -2.44 0.28 2.44 -0.28 2.44 z" class="primitive"/>
              </g>
              <g transform="translate(32.55,88.33)" id="img-e800a49a-54">
                <path d="M-0.28,-0 L 0.28 -0 0.28 0 -0.28 0 z" class="primitive"/>
              </g>
              <g transform="translate(33.07,88.33)" id="img-e800a49a-55">
                <path d="M-0.28,-0 L 0.28 -0 0.28 0 -0.28 0 z" class="primitive"/>
              </g>
              <g transform="translate(33.58,85.89)" id="img-e800a49a-56">
                <path d="M-0.28,-2.44 L 0.28 -2.44 0.28 2.44 -0.28 2.44 z" class="primitive"/>
              </g>
              <g transform="translate(34.1,86.7)" id="img-e800a49a-57">
                <path d="M-0.28,-1.63 L 0.28 -1.63 0.28 1.63 -0.28 1.63 z" class="primitive"/>
              </g>
              <g transform="translate(34.61,85.89)" id="img-e800a49a-58">
                <path d="M-0.28,-2.44 L 0.28 -2.44 0.28 2.44 -0.28 2.44 z" class="primitive"/>
              </g>
              <g transform="translate(35.13,85.89)" id="img-e800a49a-59">
                <path d="M-0.28,-2.44 L 0.28 -2.44 0.28 2.44 -0.28 2.44 z" class="primitive"/>
              </g>
              <g transform="translate(35.64,87.51)" id="img-e800a49a-60">
                <path d="M-0.28,-0.81 L 0.28 -0.81 0.28 0.81 -0.28 0.81 z" class="primitive"/>
              </g>
              <g transform="translate(36.16,86.7)" id="img-e800a49a-61">
                <path d="M-0.28,-1.63 L 0.28 -1.63 0.28 1.63 -0.28 1.63 z" class="primitive"/>
              </g>
              <g transform="translate(36.67,85.07)" id="img-e800a49a-62">
                <path d="M-0.28,-3.25 L 0.28 -3.25 0.28 3.25 -0.28 3.25 z" class="primitive"/>
              </g>
              <g transform="translate(37.19,85.07)" id="img-e800a49a-63">
                <path d="M-0.28,-3.25 L 0.28 -3.25 0.28 3.25 -0.28 3.25 z" class="primitive"/>
              </g>
              <g transform="translate(37.7,84.26)" id="img-e800a49a-64">
                <path d="M-0.28,-4.07 L 0.28 -4.07 0.28 4.07 -0.28 4.07 z" class="primitive"/>
              </g>
              <g transform="translate(38.22,81.82)" id="img-e800a49a-65">
                <path d="M-0.28,-6.51 L 0.28 -6.51 0.28 6.51 -0.28 6.51 z" class="primitive"/>
              </g>
              <g transform="translate(38.73,81.82)" id="img-e800a49a-66">
                <path d="M-0.28,-6.51 L 0.28 -6.51 0.28 6.51 -0.28 6.51 z" class="primitive"/>
              </g>
              <g transform="translate(39.25,81.82)" id="img-e800a49a-67">
                <path d="M-0.28,-6.51 L 0.28 -6.51 0.28 6.51 -0.28 6.51 z" class="primitive"/>
              </g>
              <g transform="translate(39.76,80.19)" id="img-e800a49a-68">
                <path d="M-0.28,-8.13 L 0.28 -8.13 0.28 8.13 -0.28 8.13 z" class="primitive"/>
              </g>
              <g transform="translate(40.28,83.45)" id="img-e800a49a-69">
                <path d="M-0.28,-4.88 L 0.28 -4.88 0.28 4.88 -0.28 4.88 z" class="primitive"/>
              </g>
              <g transform="translate(40.79,81.01)" id="img-e800a49a-70">
                <path d="M-0.28,-7.32 L 0.28 -7.32 0.28 7.32 -0.28 7.32 z" class="primitive"/>
              </g>
              <g transform="translate(41.31,76.13)" id="img-e800a49a-71">
                <path d="M-0.28,-12.2 L 0.28 -12.2 0.28 12.2 -0.28 12.2 z" class="primitive"/>
              </g>
              <g transform="translate(41.82,81.01)" id="img-e800a49a-72">
                <path d="M-0.28,-7.32 L 0.28 -7.32 0.28 7.32 -0.28 7.32 z" class="primitive"/>
              </g>
              <g transform="translate(42.34,80.19)" id="img-e800a49a-73">
                <path d="M-0.28,-8.13 L 0.28 -8.13 0.28 8.13 -0.28 8.13 z" class="primitive"/>
              </g>
              <g transform="translate(42.85,71.25)" id="img-e800a49a-74">
                <path d="M-0.28,-17.08 L 0.28 -17.08 0.28 17.08 -0.28 17.08 z" class="primitive"/>
              </g>
              <g transform="translate(43.37,77.75)" id="img-e800a49a-75">
                <path d="M-0.28,-10.57 L 0.28 -10.57 0.28 10.57 -0.28 10.57 z" class="primitive"/>
              </g>
              <g transform="translate(43.88,73.69)" id="img-e800a49a-76">
                <path d="M-0.28,-14.64 L 0.28 -14.64 0.28 14.64 -0.28 14.64 z" class="primitive"/>
              </g>
              <g transform="translate(44.4,73.69)" id="img-e800a49a-77">
                <path d="M-0.28,-14.64 L 0.28 -14.64 0.28 14.64 -0.28 14.64 z" class="primitive"/>
              </g>
              <g transform="translate(44.91,68)" id="img-e800a49a-78">
                <path d="M-0.28,-20.33 L 0.28 -20.33 0.28 20.33 -0.28 20.33 z" class="primitive"/>
              </g>
              <g transform="translate(45.43,74.5)" id="img-e800a49a-79">
                <path d="M-0.28,-13.83 L 0.28 -13.83 0.28 13.83 -0.28 13.83 z" class="primitive"/>
              </g>
              <g transform="translate(45.94,71.25)" id="img-e800a49a-80">
                <path d="M-0.28,-17.08 L 0.28 -17.08 0.28 17.08 -0.28 17.08 z" class="primitive"/>
              </g>
              <g transform="translate(46.46,72.87)" id="img-e800a49a-81">
                <path d="M-0.28,-15.45 L 0.28 -15.45 0.28 15.45 -0.28 15.45 z" class="primitive"/>
              </g>
              <g transform="translate(46.97,68.81)" id="img-e800a49a-82">
                <path d="M-0.28,-19.52 L 0.28 -19.52 0.28 19.52 -0.28 19.52 z" class="primitive"/>
              </g>
              <g transform="translate(47.49,70.43)" id="img-e800a49a-83">
                <path d="M-0.28,-17.89 L 0.28 -17.89 0.28 17.89 -0.28 17.89 z" class="primitive"/>
              </g>
              <g transform="translate(48,67.18)" id="img-e800a49a-84">
                <path d="M-0.28,-21.14 L 0.28 -21.14 0.28 21.14 -0.28 21.14 z" class="primitive"/>
              </g>
              <g transform="translate(48.52,61.49)" id="img-e800a49a-85">
                <path d="M-0.28,-26.84 L 0.28 -26.84 0.28 26.84 -0.28 26.84 z" class="primitive"/>
              </g>
              <g transform="translate(49.03,76.13)" id="img-e800a49a-86">
                <path d="M-0.28,-12.2 L 0.28 -12.2 0.28 12.2 -0.28 12.2 z" class="primitive"/>
              </g>
              <g transform="translate(49.55,62.3)" id="img-e800a49a-87">
                <path d="M-0.28,-26.02 L 0.28 -26.02 0.28 26.02 -0.28 26.02 z" class="primitive"/>
              </g>
              <g transform="translate(50.06,55.8)" id="img-e800a49a-88">
                <path d="M-0.28,-32.53 L 0.28 -32.53 0.28 32.53 -0.28 32.53 z" class="primitive"/>
              </g>
              <g transform="translate(50.58,54.98)" id="img-e800a49a-89">
                <path d="M-0.28,-33.34 L 0.28 -33.34 0.28 33.34 -0.28 33.34 z" class="primitive"/>
              </g>
              <g transform="translate(51.09,63.93)" id="img-e800a49a-90">
                <path d="M-0.28,-24.4 L 0.28 -24.4 0.28 24.4 -0.28 24.4 z" class="primitive"/>
              </g>
              <g transform="translate(51.61,59.86)" id="img-e800a49a-91">
                <path d="M-0.28,-28.46 L 0.28 -28.46 0.28 28.46 -0.28 28.46 z" class="primitive"/>
              </g>
              <g transform="translate(52.12,72.06)" id="img-e800a49a-92">
                <path d="M-0.28,-16.27 L 0.28 -16.27 0.28 16.27 -0.28 16.27 z" class="primitive"/>
              </g>
              <g transform="translate(52.64,54.17)" id="img-e800a49a-93">
                <path d="M-0.28,-34.16 L 0.28 -34.16 0.28 34.16 -0.28 34.16 z" class="primitive"/>
              </g>
              <g transform="translate(53.15,60.68)" id="img-e800a49a-94">
                <path d="M-0.28,-27.65 L 0.28 -27.65 0.28 27.65 -0.28 27.65 z" class="primitive"/>
              </g>
              <g transform="translate(53.67,62.3)" id="img-e800a49a-95">
                <path d="M-0.28,-26.02 L 0.28 -26.02 0.28 26.02 -0.28 26.02 z" class="primitive"/>
              </g>
              <g transform="translate(54.18,66.37)" id="img-e800a49a-96">
                <path d="M-0.28,-21.96 L 0.28 -21.96 0.28 21.96 -0.28 21.96 z" class="primitive"/>
              </g>
              <g transform="translate(54.7,67.18)" id="img-e800a49a-97">
                <path d="M-0.28,-21.14 L 0.28 -21.14 0.28 21.14 -0.28 21.14 z" class="primitive"/>
              </g>
              <g transform="translate(55.21,71.25)" id="img-e800a49a-98">
                <path d="M-0.28,-17.08 L 0.28 -17.08 0.28 17.08 -0.28 17.08 z" class="primitive"/>
              </g>
              <g transform="translate(55.73,73.69)" id="img-e800a49a-99">
                <path d="M-0.28,-14.64 L 0.28 -14.64 0.28 14.64 -0.28 14.64 z" class="primitive"/>
              </g>
              <g transform="translate(56.24,68.81)" id="img-e800a49a-100">
                <path d="M-0.28,-19.52 L 0.28 -19.52 0.28 19.52 -0.28 19.52 z" class="primitive"/>
              </g>
              <g transform="translate(56.76,68.81)" id="img-e800a49a-101">
                <path d="M-0.28,-19.52 L 0.28 -19.52 0.28 19.52 -0.28 19.52 z" class="primitive"/>
              </g>
              <g transform="translate(57.27,75.31)" id="img-e800a49a-102">
                <path d="M-0.28,-13.01 L 0.28 -13.01 0.28 13.01 -0.28 13.01 z" class="primitive"/>
              </g>
              <g transform="translate(57.79,78.57)" id="img-e800a49a-103">
                <path d="M-0.28,-9.76 L 0.28 -9.76 0.28 9.76 -0.28 9.76 z" class="primitive"/>
              </g>
              <g transform="translate(58.3,76.94)" id="img-e800a49a-104">
                <path d="M-0.28,-11.39 L 0.28 -11.39 0.28 11.39 -0.28 11.39 z" class="primitive"/>
              </g>
              <g transform="translate(58.82,75.31)" id="img-e800a49a-105">
                <path d="M-0.28,-13.01 L 0.28 -13.01 0.28 13.01 -0.28 13.01 z" class="primitive"/>
              </g>
              <g transform="translate(59.33,78.57)" id="img-e800a49a-106">
                <path d="M-0.28,-9.76 L 0.28 -9.76 0.28 9.76 -0.28 9.76 z" class="primitive"/>
              </g>
              <g transform="translate(59.85,77.75)" id="img-e800a49a-107">
                <path d="M-0.28,-10.57 L 0.28 -10.57 0.28 10.57 -0.28 10.57 z" class="primitive"/>
              </g>
              <g transform="translate(60.36,80.19)" id="img-e800a49a-108">
                <path d="M-0.28,-8.13 L 0.28 -8.13 0.28 8.13 -0.28 8.13 z" class="primitive"/>
              </g>
              <g transform="translate(60.88,78.57)" id="img-e800a49a-109">
                <path d="M-0.28,-9.76 L 0.28 -9.76 0.28 9.76 -0.28 9.76 z" class="primitive"/>
              </g>
              <g transform="translate(61.39,81.01)" id="img-e800a49a-110">
                <path d="M-0.28,-7.32 L 0.28 -7.32 0.28 7.32 -0.28 7.32 z" class="primitive"/>
              </g>
              <g transform="translate(61.91,78.57)" id="img-e800a49a-111">
                <path d="M-0.28,-9.76 L 0.28 -9.76 0.28 9.76 -0.28 9.76 z" class="primitive"/>
              </g>
              <g transform="translate(62.42,83.45)" id="img-e800a49a-112">
                <path d="M-0.28,-4.88 L 0.28 -4.88 0.28 4.88 -0.28 4.88 z" class="primitive"/>
              </g>
              <g transform="translate(62.94,83.45)" id="img-e800a49a-113">
                <path d="M-0.28,-4.88 L 0.28 -4.88 0.28 4.88 -0.28 4.88 z" class="primitive"/>
              </g>
              <g transform="translate(63.45,85.07)" id="img-e800a49a-114">
                <path d="M-0.28,-3.25 L 0.28 -3.25 0.28 3.25 -0.28 3.25 z" class="primitive"/>
              </g>
              <g transform="translate(63.97,83.45)" id="img-e800a49a-115">
                <path d="M-0.28,-4.88 L 0.28 -4.88 0.28 4.88 -0.28 4.88 z" class="primitive"/>
              </g>
              <g transform="translate(64.48,85.89)" id="img-e800a49a-116">
                <path d="M-0.28,-2.44 L 0.28 -2.44 0.28 2.44 -0.28 2.44 z" class="primitive"/>
              </g>
              <g transform="translate(65,86.7)" id="img-e800a49a-117">
                <path d="M-0.28,-1.63 L 0.28 -1.63 0.28 1.63 -0.28 1.63 z" class="primitive"/>
              </g>
              <g transform="translate(65.51,86.7)" id="img-e800a49a-118">
                <path d="M-0.28,-1.63 L 0.28 -1.63 0.28 1.63 -0.28 1.63 z" class="primitive"/>
              </g>
              <g transform="translate(66.03,87.51)" id="img-e800a49a-119">
                <path d="M-0.28,-0.81 L 0.28 -0.81 0.28 0.81 -0.28 0.81 z" class="primitive"/>
              </g>
              <g transform="translate(66.54,88.33)" id="img-e800a49a-120">
                <path d="M-0.28,-0 L 0.28 -0 0.28 0 -0.28 0 z" class="primitive"/>
              </g>
              <g transform="translate(67.06,88.33)" id="img-e800a49a-121">
                <path d="M-0.28,-0 L 0.28 -0 0.28 0 -0.28 0 z" class="primitive"/>
              </g>
              <g transform="translate(67.57,88.33)" id="img-e800a49a-122">
                <path d="M-0.28,-0 L 0.28 -0 0.28 0 -0.28 0 z" class="primitive"/>
              </g>
              <g transform="translate(68.09,88.33)" id="img-e800a49a-123">
                <path d="M-0.28,-0 L 0.28 -0 0.28 0 -0.28 0 z" class="primitive"/>
              </g>
              <g transform="translate(68.6,87.51)" id="img-e800a49a-124">
                <path d="M-0.28,-0.81 L 0.28 -0.81 0.28 0.81 -0.28 0.81 z" class="primitive"/>
              </g>
              <g transform="translate(69.12,88.33)" id="img-e800a49a-125">
                <path d="M-0.28,-0 L 0.28 -0 0.28 0 -0.28 0 z" class="primitive"/>
              </g>
              <g transform="translate(69.63,88.33)" id="img-e800a49a-126">
                <path d="M-0.28,-0 L 0.28 -0 0.28 0 -0.28 0 z" class="primitive"/>
              </g>
              <g transform="translate(70.15,88.33)" id="img-e800a49a-127">
                <path d="M-0.28,-0 L 0.28 -0 0.28 0 -0.28 0 z" class="primitive"/>
              </g>
              <g transform="translate(70.66,88.33)" id="img-e800a49a-128">
                <path d="M-0.28,-0 L 0.28 -0 0.28 0 -0.28 0 z" class="primitive"/>
              </g>
              <g transform="translate(71.18,88.33)" id="img-e800a49a-129">
                <path d="M-0.28,-0 L 0.28 -0 0.28 0 -0.28 0 z" class="primitive"/>
              </g>
              <g transform="translate(71.69,87.51)" id="img-e800a49a-130">
                <path d="M-0.28,-0.81 L 0.28 -0.81 0.28 0.81 -0.28 0.81 z" class="primitive"/>
              </g>
            </g>
          </g>
        </g>
      </g>
    </g>
  </g>
  <g class="guide ylabels" font-size="2.82" font-family="'PT Sans Caption','Helvetica Neue','Helvetica',sans-serif" fill="#6C606B" id="img-e800a49a-131">
    <g transform="translate(16.96,88.33)" id="img-e800a49a-132">
      <g class="primitive">
        <text text-anchor="end" dy="0.35em">0</text>
      </g>
    </g>
    <g transform="translate(16.96,72.06)" id="img-e800a49a-133">
      <g class="primitive">
        <text text-anchor="end" dy="0.35em">10</text>
      </g>
    </g>
    <g transform="translate(16.96,55.8)" id="img-e800a49a-134">
      <g class="primitive">
        <text text-anchor="end" dy="0.35em">20</text>
      </g>
    </g>
    <g transform="translate(16.96,39.53)" id="img-e800a49a-135">
      <g class="primitive">
        <text text-anchor="end" dy="0.35em">30</text>
      </g>
    </g>
    <g transform="translate(16.96,23.27)" id="img-e800a49a-136">
      <g class="primitive">
        <text text-anchor="end" dy="0.35em">40</text>
      </g>
    </g>
    <g transform="translate(16.96,7)" id="img-e800a49a-137">
      <g class="primitive">
        <text text-anchor="end" dy="0.35em">50</text>
      </g>
    </g>
  </g>
  <g font-size="3.88" font-family="'PT Sans','Helvetica Neue','Helvetica',sans-serif" fill="#564A55" stroke="#000000" stroke-opacity="0.000" id="img-e800a49a-138">
    <g transform="translate(8.81,45.66)" id="img-e800a49a-139">
      <g class="primitive">
        <text text-anchor="middle" dy="0.35em" transform="rotate(-90,0, 2)">frequency</text>
      </g>
    </g>
  </g>
</g>
<defs>
  <clipPath id="img-e800a49a-11">
    <path d="M17.96,5 L 82.97 5 82.97 90.33 17.96 90.33" />
  </clipPath>
</defs>
</svg>
