<?xml version="1.0" encoding="UTF-8"?>
<svg xmlns="http://www.w3.org/2000/svg"
     xmlns:xlink="http://www.w3.org/1999/xlink"
     xmlns:gadfly="http://www.gadflyjl.org/ns"
     version="1.2"
     width="141.42mm" height="100mm" viewBox="0 0 141.42 100"
     stroke="none"
     fill="#000000"
     stroke-width="0.3"
     font-size="3.88"
>
<defs>
  <marker id="arrow" markerWidth="15" markerHeight="7" refX="5" refY="3.5" orient="auto" markerUnits="strokeWidth">
    <path d="M0,0 L15,3.5 L0,7 z" stroke="context-stroke" fill="context-stroke"/>
  </marker>
</defs>
<g class="plotroot xscalable yscalable" id="img-c2000009-1">
  <g class="guide xlabels" font-size="2.82" font-family="'PT Sans Caption','Helvetica Neue','Helvetica',sans-serif" fill="#6C606B" id="img-c2000009-2">
    <g transform="translate(18.29,91.33)">
      <g class="primitive">
        <text text-anchor="middle" dy="0.6em">4.5</text>
      </g>
    </g>
    <g transform="translate(31.31,91.33)">
      <g class="primitive">
        <text text-anchor="middle" dy="0.6em">5.0</text>
      </g>
    </g>
    <g transform="translate(44.34,91.33)">
      <g class="primitive">
        <text text-anchor="middle" dy="0.6em">5.5</text>
      </g>
    </g>
    <g transform="translate(57.37,91.33)">
      <g class="primitive">
        <text text-anchor="middle" dy="0.6em">6.0</text>
      </g>
    </g>
    <g transform="translate(70.4,91.33)">
      <g class="primitive">
        <text text-anchor="middle" dy="0.6em">6.5</text>
      </g>
    </g>
  </g>
  <g class="guide colorkey" id="img-c2000009-3">
    <g class="color_coding_noncoding_noncoding_noncoding_4-chord" id="img-c2000009-4">
      <g fill="#4C404B" font-size="2.82" font-family="'PT Sans','Helvetica Neue','Helvetica',sans-serif" id="img-c2000009-5">
        <g transform="translate(76.21,49.48)" id="img-c2000009-6">
          <g class="primitive">
            <text dy="0.35em">coding_noncoding_noncoding_noncoding_4-chord</text>
          </g>
        </g>
      </g>
      <g fill-opacity="1" fill="#00BFFF" stroke="#FFFFFF" id="img-c2000009-7">
        <g transform="translate(74.31,49.48)" id="img-c2000009-8">
          <path d="M-0.91,-0.91 L 0.91 -0.91 0.91 0.91 -0.91 0.91 z" class="primitive"/>
        </g>
      </g>
    </g>
    <g fill="#362A35" font-size="3.88" font-family="'PT Sans','Helvetica Neue','Helvetica',sans-serif" stroke="#000000" stroke-opacity="0.000" id="img-c2000009-9">
      <g transform="translate(73.4,45.66)" id="img-c2000009-10">
        <g class="primitive">
          <text dy="-0em">graphlet</text>
        </g>
      </g>
    </g>
  </g>
  <g clip-path="url(#img-c2000009-11)">
    <g id="img-c2000009-12">
      <g pointer-events="visible" stroke-width="0.3" fill="#000000" fill-opacity="0.000" stroke="#000000" stroke-opacity="0.000" class="guide background" id="img-c2000009-13">
        <g transform="translate(44.34,47.66)" id="img-c2000009-14">
          <path d="M-28.06,-42.66 L 28.06 -42.66 28.06 42.66 -28.06 42.66 z" class="primitive"/>
        </g>
      </g>
      <g class="guide ygridlines xfixed" stroke-dasharray="0.5,0.5" stroke-width="0.2" stroke="#D0D0E0" id="img-c2000009-15">
        <g transform="translate(44.34,88.33)" id="img-c2000009-16">
          <path fill="none" d="M-28.06,0 L 28.06 0" class="primitive"/>
        </g>
        <g transform="translate(44.34,74.77)" id="img-c2000009-17">
          <path fill="none" d="M-28.06,0 L 28.06 0" class="primitive"/>
        </g>
        <g transform="translate(44.34,61.22)" id="img-c2000009-18">
          <path fill="none" d="M-28.06,0 L 28.06 0" class="primitive"/>
        </g>
        <g transform="translate(44.34,47.66)" id="img-c2000009-19">
          <path fill="none" d="M-28.06,0 L 28.06 0" class="primitive"/>
        </g>
        <g transform="translate(44.34,34.11)" id="img-c2000009-20">
          <path fill="none" d="M-28.06,0 L 28.06 0" class="primitive"/>
        </g>
        <g transform="translate(44.34,20.55)" id="img-c2000009-21">
          <path fill="none" d="M-28.06,0 L 28.06 0" class="primitive"/>
        </g>
        <g transform="translate(44.34,7)" id="img-c2000009-22">
          <path fill="none" d="M-28.06,0 L 28.06 0" class="primitive"/>
        </g>
      </g>
      <g class="guide xgridlines yfixed" stroke-dasharray="0.5,0.5" stroke-width="0.2" stroke="#D0D0E0" id="img-c2000009-23">
        <g transform="translate(18.29,47.66)" id="img-c2000009-24">
          <path fill="none" d="M0,-42.66 L 0 42.66" class="primitive"/>
        </g>
        <g transform="translate(31.31,47.66)" id="img-c2000009-25">
          <path fill="none" d="M0,-42.66 L 0 42.66" class="primitive"/>
        </g>
        <g transform="translate(44.34,47.66)" id="img-c2000009-26">
          <path fill="none" d="M0,-42.66 L 0 42.66" class="primitive"/>
        </g>
        <g transform="translate(57.37,47.66)" id="img-c2000009-27">
          <path fill="none" d="M0,-42.66 L 0 42.66" class="primitive"/>
        </g>
        <g transform="translate(70.4,47.66)" id="img-c2000009-28">
          <path fill="none" d="M0,-42.66 L 0 42.66" class="primitive"/>
        </g>
      </g>
      <g class="plotpanel" id="img-c2000009-29">
        <metadata>
          <boundingbox value="16.285000000000004mm 5.0mm 56.116356237309496mm 85.32666666666667mm"/>
          <unitbox value="4.423248663398757 6.147553078121158 2.153502673202485 -6.295106156242315"/>
        </metadata>
        <g shape-rendering="crispEdges" stroke-width="0.3" id="img-c2000009-30">
          <g stroke="#000000" stroke-opacity="0.000" class="geometry" id="img-c2000009-31">
            <g fill="#00BFFF" id="img-c2000009-32">
              <g transform="translate(23.46,81.55)" id="img-c2000009-33">
                <path d="M-0.21,-6.78 L 0.21 -6.78 0.21 6.78 -0.21 6.78 z" class="primitive"/>
              </g>
              <g transform="translate(23.82,88.33)" id="img-c2000009-34">
                <path d="M-0.21,-0 L 0.21 -0 0.21 0 -0.21 0 z" class="primitive"/>
              </g>
              <g transform="translate(24.19,88.33)" id="img-c2000009-35">
                <path d="M-0.21,-0 L 0.21 -0 0.21 0 -0.21 0 z" class="primitive"/>
              </g>
              <g transform="translate(24.56,88.33)" id="img-c2000009-36">
                <path d="M-0.21,-0 L 0.21 -0 0.21 0 -0.21 0 z" class="primitive"/>
              </g>
              <g transform="translate(24.93,88.33)" id="img-c2000009-37">
                <path d="M-0.21,-0 L 0.21 -0 0.21 0 -0.21 0 z" class="primitive"/>
              </g>
              <g transform="translate(25.29,88.33)" id="img-c2000009-38">
                <path d="M-0.21,-0 L 0.21 -0 0.21 0 -0.21 0 z" class="primitive"/>
              </g>
              <g transform="translate(25.66,88.33)" id="img-c2000009-39">
                <path d="M-0.21,-0 L 0.21 -0 0.21 0 -0.21 0 z" class="primitive"/>
              </g>
              <g transform="translate(26.03,88.33)" id="img-c2000009-40">
                <path d="M-0.21,-0 L 0.21 -0 0.21 0 -0.21 0 z" class="primitive"/>
              </g>
              <g transform="translate(26.4,88.33)" id="img-c2000009-41">
                <path d="M-0.21,-0 L 0.21 -0 0.21 0 -0.21 0 z" class="primitive"/>
              </g>
              <g transform="translate(26.77,81.55)" id="img-c2000009-42">
                <path d="M-0.21,-6.78 L 0.21 -6.78 0.21 6.78 -0.21 6.78 z" class="primitive"/>
              </g>
              <g transform="translate(27.13,74.77)" id="img-c2000009-43">
                <path d="M-0.21,-13.55 L 0.21 -13.55 0.21 13.55 -0.21 13.55 z" class="primitive"/>
              </g>
              <g transform="translate(27.5,74.77)" id="img-c2000009-44">
                <path d="M-0.21,-13.55 L 0.21 -13.55 0.21 13.55 -0.21 13.55 z" class="primitive"/>
              </g>
              <g transform="translate(27.87,81.55)" id="img-c2000009-45">
                <path d="M-0.21,-6.78 L 0.21 -6.78 0.21 6.78 -0.21 6.78 z" class="primitive"/>
              </g>
              <g transform="translate(28.24,81.55)" id="img-c2000009-46">
                <path d="M-0.21,-6.78 L 0.21 -6.78 0.21 6.78 -0.21 6.78 z" class="primitive"/>
              </g>
              <g transform="translate(28.61,81.55)" id="img-c2000009-47">
                <path d="M-0.21,-6.78 L 0.21 -6.78 0.21 6.78 -0.21 6.78 z" class="primitive"/>
              </g>
              <g transform="translate(28.97,81.55)" id="img-c2000009-48">
                <path d="M-0.21,-6.78 L 0.21 -6.78 0.21 6.78 -0.21 6.78 z" class="primitive"/>
              </g>
              <g transform="translate(29.34,74.77)" id="img-c2000009-49">
                <path d="M-0.21,-13.55 L 0.21 -13.55 0.21 13.55 -0.21 13.55 z" class="primitive"/>
              </g>
              <g transform="translate(29.71,81.55)" id="img-c2000009-50">
                <path d="M-0.21,-6.78 L 0.21 -6.78 0.21 6.78 -0.21 6.78 z" class="primitive"/>
              </g>
              <g transform="translate(30.08,68)" id="img-c2000009-51">
                <path d="M-0.21,-20.33 L 0.21 -20.33 0.21 20.33 -0.21 20.33 z" class="primitive"/>
              </g>
              <g transform="translate(30.44,61.22)" id="img-c2000009-52">
                <path d="M-0.21,-27.11 L 0.21 -27.11 0.21 27.11 -0.21 27.11 z" class="primitive"/>
              </g>
              <g transform="translate(30.81,88.33)" id="img-c2000009-53">
                <path d="M-0.21,-0 L 0.21 -0 0.21 0 -0.21 0 z" class="primitive"/>
              </g>
              <g transform="translate(31.18,74.77)" id="img-c2000009-54">
                <path d="M-0.21,-13.55 L 0.21 -13.55 0.21 13.55 -0.21 13.55 z" class="primitive"/>
              </g>
              <g transform="translate(31.55,68)" id="img-c2000009-55">
                <path d="M-0.21,-20.33 L 0.21 -20.33 0.21 20.33 -0.21 20.33 z" class="primitive"/>
              </g>
              <g transform="translate(31.92,81.55)" id="img-c2000009-56">
                <path d="M-0.21,-6.78 L 0.21 -6.78 0.21 6.78 -0.21 6.78 z" class="primitive"/>
              </g>
              <g transform="translate(32.28,74.77)" id="img-c2000009-57">
                <path d="M-0.21,-13.55 L 0.21 -13.55 0.21 13.55 -0.21 13.55 z" class="primitive"/>
              </g>
              <g transform="translate(32.65,88.33)" id="img-c2000009-58">
                <path d="M-0.21,-0 L 0.21 -0 0.21 0 -0.21 0 z" class="primitive"/>
              </g>
              <g transform="translate(33.02,68)" id="img-c2000009-59">
                <path d="M-0.21,-20.33 L 0.21 -20.33 0.21 20.33 -0.21 20.33 z" class="primitive"/>
              </g>
              <g transform="translate(33.39,47.66)" id="img-c2000009-60">
                <path d="M-0.21,-40.66 L 0.21 -40.66 0.21 40.66 -0.21 40.66 z" class="primitive"/>
              </g>
              <g transform="translate(33.76,68)" id="img-c2000009-61">
                <path d="M-0.21,-20.33 L 0.21 -20.33 0.21 20.33 -0.21 20.33 z" class="primitive"/>
              </g>
              <g transform="translate(34.12,61.22)" id="img-c2000009-62">
                <path d="M-0.21,-27.11 L 0.21 -27.11 0.21 27.11 -0.21 27.11 z" class="primitive"/>
              </g>
              <g transform="translate(34.49,61.22)" id="img-c2000009-63">
                <path d="M-0.21,-27.11 L 0.21 -27.11 0.21 27.11 -0.21 27.11 z" class="primitive"/>
              </g>
              <g transform="translate(34.86,68)" id="img-c2000009-64">
                <path d="M-0.21,-20.33 L 0.21 -20.33 0.21 20.33 -0.21 20.33 z" class="primitive"/>
              </g>
              <g transform="translate(35.23,54.44)" id="img-c2000009-65">
                <path d="M-0.21,-33.89 L 0.21 -33.89 0.21 33.89 -0.21 33.89 z" class="primitive"/>
              </g>
              <g transform="translate(35.6,74.77)" id="img-c2000009-66">
                <path d="M-0.21,-13.55 L 0.21 -13.55 0.21 13.55 -0.21 13.55 z" class="primitive"/>
              </g>
              <g transform="translate(35.96,61.22)" id="img-c2000009-67">
                <path d="M-0.21,-27.11 L 0.21 -27.11 0.21 27.11 -0.21 27.11 z" class="primitive"/>
              </g>
              <g transform="translate(36.33,88.33)" id="img-c2000009-68">
                <path d="M-0.21,-0 L 0.21 -0 0.21 0 -0.21 0 z" class="primitive"/>
              </g>
              <g transform="translate(36.7,74.77)" id="img-c2000009-69">
                <path d="M-0.21,-13.55 L 0.21 -13.55 0.21 13.55 -0.21 13.55 z" class="primitive"/>
              </g>
              <g transform="translate(37.07,68)" id="img-c2000009-70">
                <path d="M-0.21,-20.33 L 0.21 -20.33 0.21 20.33 -0.21 20.33 z" class="primitive"/>
              </g>
              <g transform="translate(37.43,74.77)" id="img-c2000009-71">
                <path d="M-0.21,-13.55 L 0.21 -13.55 0.21 13.55 -0.21 13.55 z" class="primitive"/>
              </g>
              <g transform="translate(37.8,74.77)" id="img-c2000009-72">
                <path d="M-0.21,-13.55 L 0.21 -13.55 0.21 13.55 -0.21 13.55 z" class="primitive"/>
              </g>
              <g transform="translate(38.17,74.77)" id="img-c2000009-73">
                <path d="M-0.21,-13.55 L 0.21 -13.55 0.21 13.55 -0.21 13.55 z" class="primitive"/>
              </g>
              <g transform="translate(38.54,74.77)" id="img-c2000009-74">
                <path d="M-0.21,-13.55 L 0.21 -13.55 0.21 13.55 -0.21 13.55 z" class="primitive"/>
              </g>
              <g transform="translate(38.91,74.77)" id="img-c2000009-75">
                <path d="M-0.21,-13.55 L 0.21 -13.55 0.21 13.55 -0.21 13.55 z" class="primitive"/>
              </g>
              <g transform="translate(39.27,74.77)" id="img-c2000009-76">
                <path d="M-0.21,-13.55 L 0.21 -13.55 0.21 13.55 -0.21 13.55 z" class="primitive"/>
              </g>
              <g transform="translate(39.64,61.22)" id="img-c2000009-77">
                <path d="M-0.21,-27.11 L 0.21 -27.11 0.21 27.11 -0.21 27.11 z" class="primitive"/>
              </g>
              <g transform="translate(40.01,74.77)" id="img-c2000009-78">
                <path d="M-0.21,-13.55 L 0.21 -13.55 0.21 13.55 -0.21 13.55 z" class="primitive"/>
              </g>
              <g transform="translate(40.38,81.55)" id="img-c2000009-79">
                <path d="M-0.21,-6.78 L 0.21 -6.78 0.21 6.78 -0.21 6.78 z" class="primitive"/>
              </g>
              <g transform="translate(40.75,61.22)" id="img-c2000009-80">
                <path d="M-0.21,-27.11 L 0.21 -27.11 0.21 27.11 -0.21 27.11 z" class="primitive"/>
              </g>
              <g transform="translate(41.11,81.55)" id="img-c2000009-81">
                <path d="M-0.21,-6.78 L 0.21 -6.78 0.21 6.78 -0.21 6.78 z" class="primitive"/>
              </g>
              <g transform="translate(41.48,81.55)" id="img-c2000009-82">
                <path d="M-0.21,-6.78 L 0.21 -6.78 0.21 6.78 -0.21 6.78 z" class="primitive"/>
              </g>
              <g transform="translate(41.85,81.55)" id="img-c2000009-83">
                <path d="M-0.21,-6.78 L 0.21 -6.78 0.21 6.78 -0.21 6.78 z" class="primitive"/>
              </g>
              <g transform="translate(42.22,81.55)" id="img-c2000009-84">
                <path d="M-0.21,-6.78 L 0.21 -6.78 0.21 6.78 -0.21 6.78 z" class="primitive"/>
              </g>
              <g transform="translate(42.58,81.55)" id="img-c2000009-85">
                <path d="M-0.21,-6.78 L 0.21 -6.78 0.21 6.78 -0.21 6.78 z" class="primitive"/>
              </g>
              <g transform="translate(42.95,88.33)" id="img-c2000009-86">
                <path d="M-0.21,-0 L 0.21 -0 0.21 0 -0.21 0 z" class="primitive"/>
              </g>
              <g transform="translate(43.32,81.55)" id="img-c2000009-87">
                <path d="M-0.21,-6.78 L 0.21 -6.78 0.21 6.78 -0.21 6.78 z" class="primitive"/>
              </g>
              <g transform="translate(43.69,88.33)" id="img-c2000009-88">
                <path d="M-0.21,-0 L 0.21 -0 0.21 0 -0.21 0 z" class="primitive"/>
              </g>
              <g transform="translate(44.06,81.55)" id="img-c2000009-89">
                <path d="M-0.21,-6.78 L 0.21 -6.78 0.21 6.78 -0.21 6.78 z" class="primitive"/>
              </g>
              <g transform="translate(44.42,81.55)" id="img-c2000009-90">
                <path d="M-0.21,-6.78 L 0.21 -6.78 0.21 6.78 -0.21 6.78 z" class="primitive"/>
              </g>
              <g transform="translate(44.79,88.33)" id="img-c2000009-91">
                <path d="M-0.21,-0 L 0.21 -0 0.21 0 -0.21 0 z" class="primitive"/>
              </g>
              <g transform="translate(45.16,81.55)" id="img-c2000009-92">
                <path d="M-0.21,-6.78 L 0.21 -6.78 0.21 6.78 -0.21 6.78 z" class="primitive"/>
              </g>
              <g transform="translate(45.53,88.33)" id="img-c2000009-93">
                <path d="M-0.21,-0 L 0.21 -0 0.21 0 -0.21 0 z" class="primitive"/>
              </g>
              <g transform="translate(45.9,88.33)" id="img-c2000009-94">
                <path d="M-0.21,-0 L 0.21 -0 0.21 0 -0.21 0 z" class="primitive"/>
              </g>
              <g transform="translate(46.26,88.33)" id="img-c2000009-95">
                <path d="M-0.21,-0 L 0.21 -0 0.21 0 -0.21 0 z" class="primitive"/>
              </g>
              <g transform="translate(46.63,88.33)" id="img-c2000009-96">
                <path d="M-0.21,-0 L 0.21 -0 0.21 0 -0.21 0 z" class="primitive"/>
              </g>
              <g transform="translate(47,88.33)" id="img-c2000009-97">
                <path d="M-0.21,-0 L 0.21 -0 0.21 0 -0.21 0 z" class="primitive"/>
              </g>
              <g transform="translate(47.37,88.33)" id="img-c2000009-98">
                <path d="M-0.21,-0 L 0.21 -0 0.21 0 -0.21 0 z" class="primitive"/>
              </g>
              <g transform="translate(47.74,88.33)" id="img-c2000009-99">
                <path d="M-0.21,-0 L 0.21 -0 0.21 0 -0.21 0 z" class="primitive"/>
              </g>
              <g transform="translate(48.1,88.33)" id="img-c2000009-100">
                <path d="M-0.21,-0 L 0.21 -0 0.21 0 -0.21 0 z" class="primitive"/>
              </g>
              <g transform="translate(48.47,88.33)" id="img-c2000009-101">
                <path d="M-0.21,-0 L 0.21 -0 0.21 0 -0.21 0 z" class="primitive"/>
              </g>
              <g transform="translate(48.84,88.33)" id="img-c2000009-102">
                <path d="M-0.21,-0 L 0.21 -0 0.21 0 -0.21 0 z" class="primitive"/>
              </g>
              <g transform="translate(49.21,88.33)" id="img-c2000009-103">
                <path d="M-0.21,-0 L 0.21 -0 0.21 0 -0.21 0 z" class="primitive"/>
              </g>
              <g transform="translate(49.57,81.55)" id="img-c2000009-104">
                <path d="M-0.21,-6.78 L 0.21 -6.78 0.21 6.78 -0.21 6.78 z" class="primitive"/>
              </g>
              <g transform="translate(49.94,88.33)" id="img-c2000009-105">
                <path d="M-0.21,-0 L 0.21 -0 0.21 0 -0.21 0 z" class="primitive"/>
              </g>
              <g transform="translate(50.31,88.33)" id="img-c2000009-106">
                <path d="M-0.21,-0 L 0.21 -0 0.21 0 -0.21 0 z" class="primitive"/>
              </g>
              <g transform="translate(50.68,88.33)" id="img-c2000009-107">
                <path d="M-0.21,-0 L 0.21 -0 0.21 0 -0.21 0 z" class="primitive"/>
              </g>
              <g transform="translate(51.05,88.33)" id="img-c2000009-108">
                <path d="M-0.21,-0 L 0.21 -0 0.21 0 -0.21 0 z" class="primitive"/>
              </g>
              <g transform="translate(51.41,88.33)" id="img-c2000009-109">
                <path d="M-0.21,-0 L 0.21 -0 0.21 0 -0.21 0 z" class="primitive"/>
              </g>
              <g transform="translate(51.78,88.33)" id="img-c2000009-110">
                <path d="M-0.21,-0 L 0.21 -0 0.21 0 -0.21 0 z" class="primitive"/>
              </g>
              <g transform="translate(52.15,88.33)" id="img-c2000009-111">
                <path d="M-0.21,-0 L 0.21 -0 0.21 0 -0.21 0 z" class="primitive"/>
              </g>
              <g transform="translate(52.52,88.33)" id="img-c2000009-112">
                <path d="M-0.21,-0 L 0.21 -0 0.21 0 -0.21 0 z" class="primitive"/>
              </g>
              <g transform="translate(52.89,88.33)" id="img-c2000009-113">
                <path d="M-0.21,-0 L 0.21 -0 0.21 0 -0.21 0 z" class="primitive"/>
              </g>
              <g transform="translate(53.25,88.33)" id="img-c2000009-114">
                <path d="M-0.21,-0 L 0.21 -0 0.21 0 -0.21 0 z" class="primitive"/>
              </g>
              <g transform="translate(53.62,88.33)" id="img-c2000009-115">
                <path d="M-0.21,-0 L 0.21 -0 0.21 0 -0.21 0 z" class="primitive"/>
              </g>
              <g transform="translate(53.99,88.33)" id="img-c2000009-116">
                <path d="M-0.21,-0 L 0.21 -0 0.21 0 -0.21 0 z" class="primitive"/>
              </g>
              <g transform="translate(54.36,88.33)" id="img-c2000009-117">
                <path d="M-0.21,-0 L 0.21 -0 0.21 0 -0.21 0 z" class="primitive"/>
              </g>
              <g transform="translate(54.72,88.33)" id="img-c2000009-118">
                <path d="M-0.21,-0 L 0.21 -0 0.21 0 -0.21 0 z" class="primitive"/>
              </g>
              <g transform="translate(55.09,88.33)" id="img-c2000009-119">
                <path d="M-0.21,-0 L 0.21 -0 0.21 0 -0.21 0 z" class="primitive"/>
              </g>
              <g transform="translate(55.46,88.33)" id="img-c2000009-120">
                <path d="M-0.21,-0 L 0.21 -0 0.21 0 -0.21 0 z" class="primitive"/>
              </g>
              <g transform="translate(55.83,88.33)" id="img-c2000009-121">
                <path d="M-0.21,-0 L 0.21 -0 0.21 0 -0.21 0 z" class="primitive"/>
              </g>
              <g transform="translate(56.2,88.33)" id="img-c2000009-122">
                <path d="M-0.21,-0 L 0.21 -0 0.21 0 -0.21 0 z" class="primitive"/>
              </g>
              <g transform="translate(56.56,88.33)" id="img-c2000009-123">
                <path d="M-0.21,-0 L 0.21 -0 0.21 0 -0.21 0 z" class="primitive"/>
              </g>
              <g transform="translate(56.93,88.33)" id="img-c2000009-124">
                <path d="M-0.21,-0 L 0.21 -0 0.21 0 -0.21 0 z" class="primitive"/>
              </g>
              <g transform="translate(57.3,88.33)" id="img-c2000009-125">
                <path d="M-0.21,-0 L 0.21 -0 0.21 0 -0.21 0 z" class="primitive"/>
              </g>
              <g transform="translate(57.67,88.33)" id="img-c2000009-126">
                <path d="M-0.21,-0 L 0.21 -0 0.21 0 -0.21 0 z" class="primitive"/>
              </g>
              <g transform="translate(58.04,88.33)" id="img-c2000009-127">
                <path d="M-0.21,-0 L 0.21 -0 0.21 0 -0.21 0 z" class="primitive"/>
              </g>
              <g transform="translate(58.4,88.33)" id="img-c2000009-128">
                <path d="M-0.21,-0 L 0.21 -0 0.21 0 -0.21 0 z" class="primitive"/>
              </g>
              <g transform="translate(58.77,88.33)" id="img-c2000009-129">
                <path d="M-0.21,-0 L 0.21 -0 0.21 0 -0.21 0 z" class="primitive"/>
              </g>
              <g transform="translate(59.14,88.33)" id="img-c2000009-130">
                <path d="M-0.21,-0 L 0.21 -0 0.21 0 -0.21 0 z" class="primitive"/>
              </g>
              <g transform="translate(59.51,88.33)" id="img-c2000009-131">
                <path d="M-0.21,-0 L 0.21 -0 0.21 0 -0.21 0 z" class="primitive"/>
              </g>
              <g transform="translate(59.88,88.33)" id="img-c2000009-132">
                <path d="M-0.21,-0 L 0.21 -0 0.21 0 -0.21 0 z" class="primitive"/>
              </g>
            </g>
          </g>
        </g>
      </g>
    </g>
  </g>
  <g class="guide ylabels" font-size="2.82" font-family="'PT Sans Caption','Helvetica Neue','Helvetica',sans-serif" fill="#6C606B" id="img-c2000009-133">
    <g transform="translate(15.28,88.33)" id="img-c2000009-134">
      <g class="primitive">
        <text text-anchor="end" dy="0.35em">0</text>
      </g>
    </g>
    <g transform="translate(15.28,74.77)" id="img-c2000009-135">
      <g class="primitive">
        <text text-anchor="end" dy="0.35em">1</text>
      </g>
    </g>
    <g transform="translate(15.28,61.22)" id="img-c2000009-136">
      <g class="primitive">
        <text text-anchor="end" dy="0.35em">2</text>
      </g>
    </g>
    <g transform="translate(15.28,47.66)" id="img-c2000009-137">
      <g class="primitive">
        <text text-anchor="end" dy="0.35em">3</text>
      </g>
    </g>
    <g transform="translate(15.28,34.11)" id="img-c2000009-138">
      <g class="primitive">
        <text text-anchor="end" dy="0.35em">4</text>
      </g>
    </g>
    <g transform="translate(15.28,20.55)" id="img-c2000009-139">
      <g class="primitive">
        <text text-anchor="end" dy="0.35em">5</text>
      </g>
    </g>
    <g transform="translate(15.28,7)" id="img-c2000009-140">
      <g class="primitive">
        <text text-anchor="end" dy="0.35em">6</text>
      </g>
    </g>
  </g>
  <g font-size="3.88" font-family="'PT Sans','Helvetica Neue','Helvetica',sans-serif" fill="#564A55" stroke="#000000" stroke-opacity="0.000" id="img-c2000009-141">
    <g transform="translate(8.81,45.66)" id="img-c2000009-142">
      <g class="primitive">
        <text text-anchor="middle" dy="0.35em" transform="rotate(-90,0, 2)">frequency</text>
      </g>
    </g>
  </g>
</g>
<defs>
  <clipPath id="img-c2000009-11">
    <path d="M16.29,5 L 72.4 5 72.4 90.33 16.29 90.33" />
  </clipPath>
</defs>
</svg>
