<?xml version="1.0" encoding="UTF-8"?>
<svg xmlns="http://www.w3.org/2000/svg"
     xmlns:xlink="http://www.w3.org/1999/xlink"
     xmlns:gadfly="http://www.gadflyjl.org/ns"
     version="1.2"
     width="141.42mm" height="100mm" viewBox="0 0 141.42 100"
     stroke="none"
     fill="#000000"
     stroke-width="0.3"
     font-size="3.88"
>
<defs>
  <marker id="arrow" markerWidth="15" markerHeight="7" refX="5" refY="3.5" orient="auto" markerUnits="strokeWidth">
    <path d="M0,0 L15,3.5 L0,7 z" stroke="context-stroke" fill="context-stroke"/>
  </marker>
</defs>
<g class="plotroot xscalable yscalable" id="img-9fb4f921-1">
  <g class="guide xlabels" font-size="2.82" font-family="'PT Sans Caption','Helvetica Neue','Helvetica',sans-serif" fill="#6C606B" id="img-9fb4f921-2">
    <g transform="translate(19.96,91.33)">
      <g class="primitive">
        <text text-anchor="middle" dy="0.6em">0</text>
      </g>
    </g>
    <g transform="translate(34.43,91.33)">
      <g class="primitive">
        <text text-anchor="middle" dy="0.6em">2.0×10³</text>
      </g>
    </g>
    <g transform="translate(48.91,91.33)">
      <g class="primitive">
        <text text-anchor="middle" dy="0.6em">4.0×10³</text>
      </g>
    </g>
    <g transform="translate(63.39,91.33)">
      <g class="primitive">
        <text text-anchor="middle" dy="0.6em">6.0×10³</text>
      </g>
    </g>
    <g transform="translate(77.86,91.33)">
      <g class="primitive">
        <text text-anchor="middle" dy="0.6em">8.0×10³</text>
      </g>
    </g>
  </g>
  <g class="guide colorkey" id="img-9fb4f921-3">
    <g class="color_coding_coding_noncoding_noncoding_4-tail" id="img-9fb4f921-4">
      <g fill="#4C404B" font-size="2.82" font-family="'PT Sans','Helvetica Neue','Helvetica',sans-serif" id="img-9fb4f921-5">
        <g transform="translate(83.67,49.48)" id="img-9fb4f921-6">
          <g class="primitive">
            <text dy="0.35em">coding_coding_noncoding_noncoding_4-tail</text>
          </g>
        </g>
      </g>
      <g fill-opacity="1" fill="#00BFFF" stroke="#FFFFFF" id="img-9fb4f921-7">
        <g transform="translate(81.77,49.48)" id="img-9fb4f921-8">
          <path d="M-0.91,-0.91 L 0.91 -0.91 0.91 0.91 -0.91 0.91 z" class="primitive"/>
        </g>
      </g>
    </g>
    <g fill="#362A35" font-size="3.88" font-family="'PT Sans','Helvetica Neue','Helvetica',sans-serif" stroke="#000000" stroke-opacity="0.000" id="img-9fb4f921-9">
      <g transform="translate(80.86,45.66)" id="img-9fb4f921-10">
        <g class="primitive">
          <text dy="-0em">graphlet</text>
        </g>
      </g>
    </g>
  </g>
  <g clip-path="url(#img-9fb4f921-11)">
    <g id="img-9fb4f921-12">
      <g pointer-events="visible" stroke-width="0.3" fill="#000000" fill-opacity="0.000" stroke="#000000" stroke-opacity="0.000" class="guide background" id="img-9fb4f921-13">
        <g transform="translate(48.91,47.66)" id="img-9fb4f921-14">
          <path d="M-30.95,-42.66 L 30.95 -42.66 30.95 42.66 -30.95 42.66 z" class="primitive"/>
        </g>
      </g>
      <g class="guide ygridlines xfixed" stroke-dasharray="0.5,0.5" stroke-width="0.2" stroke="#D0D0E0" id="img-9fb4f921-15">
        <g transform="translate(48.91,88.33)" id="img-9fb4f921-16">
          <path fill="none" d="M-30.95,0 L 30.95 0" class="primitive"/>
        </g>
        <g transform="translate(48.91,68)" id="img-9fb4f921-17">
          <path fill="none" d="M-30.95,0 L 30.95 0" class="primitive"/>
        </g>
        <g transform="translate(48.91,47.66)" id="img-9fb4f921-18">
          <path fill="none" d="M-30.95,0 L 30.95 0" class="primitive"/>
        </g>
        <g transform="translate(48.91,27.33)" id="img-9fb4f921-19">
          <path fill="none" d="M-30.95,0 L 30.95 0" class="primitive"/>
        </g>
        <g transform="translate(48.91,7)" id="img-9fb4f921-20">
          <path fill="none" d="M-30.95,0 L 30.95 0" class="primitive"/>
        </g>
      </g>
      <g class="guide xgridlines yfixed" stroke-dasharray="0.5,0.5" stroke-width="0.2" stroke="#D0D0E0" id="img-9fb4f921-21">
        <g transform="translate(19.96,47.66)" id="img-9fb4f921-22">
          <path fill="none" d="M0,-42.66 L 0 42.66" class="primitive"/>
        </g>
        <g transform="translate(34.43,47.66)" id="img-9fb4f921-23">
          <path fill="none" d="M0,-42.66 L 0 42.66" class="primitive"/>
        </g>
        <g transform="translate(48.91,47.66)" id="img-9fb4f921-24">
          <path fill="none" d="M0,-42.66 L 0 42.66" class="primitive"/>
        </g>
        <g transform="translate(63.39,47.66)" id="img-9fb4f921-25">
          <path fill="none" d="M0,-42.66 L 0 42.66" class="primitive"/>
        </g>
        <g transform="translate(77.86,47.66)" id="img-9fb4f921-26">
          <path fill="none" d="M0,-42.66 L 0 42.66" class="primitive"/>
        </g>
      </g>
      <g class="plotpanel" id="img-9fb4f921-27">
        <metadata>
          <boundingbox value="17.95833333333333mm 5.0mm 61.90302290397619mm 85.32666666666667mm"/>
          <unitbox value="-276.3240880624435 40.98368718747438 8552.648176124887 -41.96737437494876"/>
        </metadata>
        <g shape-rendering="crispEdges" stroke-width="0.3" id="img-9fb4f921-28">
          <g stroke="#000000" stroke-opacity="0.000" class="geometry" id="img-9fb4f921-29">
            <g fill="#00BFFF" id="img-9fb4f921-30">
              <g transform="translate(32.71,87.31)" id="img-9fb4f921-31">
                <path d="M-0.19,-1.02 L 0.19 -1.02 0.19 1.02 -0.19 1.02 z" class="primitive"/>
              </g>
              <g transform="translate(33.04,88.33)" id="img-9fb4f921-32">
                <path d="M-0.19,-0 L 0.19 -0 0.19 0 -0.19 0 z" class="primitive"/>
              </g>
              <g transform="translate(33.38,88.33)" id="img-9fb4f921-33">
                <path d="M-0.19,-0 L 0.19 -0 0.19 0 -0.19 0 z" class="primitive"/>
              </g>
              <g transform="translate(33.71,88.33)" id="img-9fb4f921-34">
                <path d="M-0.19,-0 L 0.19 -0 0.19 0 -0.19 0 z" class="primitive"/>
              </g>
              <g transform="translate(34.05,88.33)" id="img-9fb4f921-35">
                <path d="M-0.19,-0 L 0.19 -0 0.19 0 -0.19 0 z" class="primitive"/>
              </g>
              <g transform="translate(34.38,88.33)" id="img-9fb4f921-36">
                <path d="M-0.19,-0 L 0.19 -0 0.19 0 -0.19 0 z" class="primitive"/>
              </g>
              <g transform="translate(34.72,88.33)" id="img-9fb4f921-37">
                <path d="M-0.19,-0 L 0.19 -0 0.19 0 -0.19 0 z" class="primitive"/>
              </g>
              <g transform="translate(35.05,88.33)" id="img-9fb4f921-38">
                <path d="M-0.19,-0 L 0.19 -0 0.19 0 -0.19 0 z" class="primitive"/>
              </g>
              <g transform="translate(35.39,88.33)" id="img-9fb4f921-39">
                <path d="M-0.19,-0 L 0.19 -0 0.19 0 -0.19 0 z" class="primitive"/>
              </g>
              <g transform="translate(35.72,88.33)" id="img-9fb4f921-40">
                <path d="M-0.19,-0 L 0.19 -0 0.19 0 -0.19 0 z" class="primitive"/>
              </g>
              <g transform="translate(36.06,87.31)" id="img-9fb4f921-41">
                <path d="M-0.19,-1.02 L 0.19 -1.02 0.19 1.02 -0.19 1.02 z" class="primitive"/>
              </g>
              <g transform="translate(36.39,87.31)" id="img-9fb4f921-42">
                <path d="M-0.19,-1.02 L 0.19 -1.02 0.19 1.02 -0.19 1.02 z" class="primitive"/>
              </g>
              <g transform="translate(36.73,88.33)" id="img-9fb4f921-43">
                <path d="M-0.19,-0 L 0.19 -0 0.19 0 -0.19 0 z" class="primitive"/>
              </g>
              <g transform="translate(37.06,88.33)" id="img-9fb4f921-44">
                <path d="M-0.19,-0 L 0.19 -0 0.19 0 -0.19 0 z" class="primitive"/>
              </g>
              <g transform="translate(37.4,88.33)" id="img-9fb4f921-45">
                <path d="M-0.19,-0 L 0.19 -0 0.19 0 -0.19 0 z" class="primitive"/>
              </g>
              <g transform="translate(37.73,87.31)" id="img-9fb4f921-46">
                <path d="M-0.19,-1.02 L 0.19 -1.02 0.19 1.02 -0.19 1.02 z" class="primitive"/>
              </g>
              <g transform="translate(38.07,85.28)" id="img-9fb4f921-47">
                <path d="M-0.19,-3.05 L 0.19 -3.05 0.19 3.05 -0.19 3.05 z" class="primitive"/>
              </g>
              <g transform="translate(38.4,87.31)" id="img-9fb4f921-48">
                <path d="M-0.19,-1.02 L 0.19 -1.02 0.19 1.02 -0.19 1.02 z" class="primitive"/>
              </g>
              <g transform="translate(38.74,86.29)" id="img-9fb4f921-49">
                <path d="M-0.19,-2.03 L 0.19 -2.03 0.19 2.03 -0.19 2.03 z" class="primitive"/>
              </g>
              <g transform="translate(39.08,85.28)" id="img-9fb4f921-50">
                <path d="M-0.19,-3.05 L 0.19 -3.05 0.19 3.05 -0.19 3.05 z" class="primitive"/>
              </g>
              <g transform="translate(39.41,84.26)" id="img-9fb4f921-51">
                <path d="M-0.19,-4.07 L 0.19 -4.07 0.19 4.07 -0.19 4.07 z" class="primitive"/>
              </g>
              <g transform="translate(39.75,83.24)" id="img-9fb4f921-52">
                <path d="M-0.19,-5.08 L 0.19 -5.08 0.19 5.08 -0.19 5.08 z" class="primitive"/>
              </g>
              <g transform="translate(40.08,84.26)" id="img-9fb4f921-53">
                <path d="M-0.19,-4.07 L 0.19 -4.07 0.19 4.07 -0.19 4.07 z" class="primitive"/>
              </g>
              <g transform="translate(40.42,84.26)" id="img-9fb4f921-54">
                <path d="M-0.19,-4.07 L 0.19 -4.07 0.19 4.07 -0.19 4.07 z" class="primitive"/>
              </g>
              <g transform="translate(40.75,84.26)" id="img-9fb4f921-55">
                <path d="M-0.19,-4.07 L 0.19 -4.07 0.19 4.07 -0.19 4.07 z" class="primitive"/>
              </g>
              <g transform="translate(41.09,76.13)" id="img-9fb4f921-56">
                <path d="M-0.19,-12.2 L 0.19 -12.2 0.19 12.2 -0.19 12.2 z" class="primitive"/>
              </g>
              <g transform="translate(41.42,84.26)" id="img-9fb4f921-57">
                <path d="M-0.19,-4.07 L 0.19 -4.07 0.19 4.07 -0.19 4.07 z" class="primitive"/>
              </g>
              <g transform="translate(41.76,78.16)" id="img-9fb4f921-58">
                <path d="M-0.19,-10.17 L 0.19 -10.17 0.19 10.17 -0.19 10.17 z" class="primitive"/>
              </g>
              <g transform="translate(42.09,80.19)" id="img-9fb4f921-59">
                <path d="M-0.19,-8.13 L 0.19 -8.13 0.19 8.13 -0.19 8.13 z" class="primitive"/>
              </g>
              <g transform="translate(42.43,80.19)" id="img-9fb4f921-60">
                <path d="M-0.19,-8.13 L 0.19 -8.13 0.19 8.13 -0.19 8.13 z" class="primitive"/>
              </g>
              <g transform="translate(42.76,76.13)" id="img-9fb4f921-61">
                <path d="M-0.19,-12.2 L 0.19 -12.2 0.19 12.2 -0.19 12.2 z" class="primitive"/>
              </g>
              <g transform="translate(43.1,72.06)" id="img-9fb4f921-62">
                <path d="M-0.19,-16.27 L 0.19 -16.27 0.19 16.27 -0.19 16.27 z" class="primitive"/>
              </g>
              <g transform="translate(43.43,71.04)" id="img-9fb4f921-63">
                <path d="M-0.19,-17.28 L 0.19 -17.28 0.19 17.28 -0.19 17.28 z" class="primitive"/>
              </g>
              <g transform="translate(43.77,76.13)" id="img-9fb4f921-64">
                <path d="M-0.19,-12.2 L 0.19 -12.2 0.19 12.2 -0.19 12.2 z" class="primitive"/>
              </g>
              <g transform="translate(44.1,77.14)" id="img-9fb4f921-65">
                <path d="M-0.19,-11.18 L 0.19 -11.18 0.19 11.18 -0.19 11.18 z" class="primitive"/>
              </g>
              <g transform="translate(44.44,72.06)" id="img-9fb4f921-66">
                <path d="M-0.19,-16.27 L 0.19 -16.27 0.19 16.27 -0.19 16.27 z" class="primitive"/>
              </g>
              <g transform="translate(44.77,74.09)" id="img-9fb4f921-67">
                <path d="M-0.19,-14.23 L 0.19 -14.23 0.19 14.23 -0.19 14.23 z" class="primitive"/>
              </g>
              <g transform="translate(45.11,66.98)" id="img-9fb4f921-68">
                <path d="M-0.19,-21.35 L 0.19 -21.35 0.19 21.35 -0.19 21.35 z" class="primitive"/>
              </g>
              <g transform="translate(45.45,68)" id="img-9fb4f921-69">
                <path d="M-0.19,-20.33 L 0.19 -20.33 0.19 20.33 -0.19 20.33 z" class="primitive"/>
              </g>
              <g transform="translate(45.78,54.78)" id="img-9fb4f921-70">
                <path d="M-0.19,-33.55 L 0.19 -33.55 0.19 33.55 -0.19 33.55 z" class="primitive"/>
              </g>
              <g transform="translate(46.12,62.91)" id="img-9fb4f921-71">
                <path d="M-0.19,-25.41 L 0.19 -25.41 0.19 25.41 -0.19 25.41 z" class="primitive"/>
              </g>
              <g transform="translate(46.45,60.88)" id="img-9fb4f921-72">
                <path d="M-0.19,-27.45 L 0.19 -27.45 0.19 27.45 -0.19 27.45 z" class="primitive"/>
              </g>
              <g transform="translate(46.79,69.01)" id="img-9fb4f921-73">
                <path d="M-0.19,-19.32 L 0.19 -19.32 0.19 19.32 -0.19 19.32 z" class="primitive"/>
              </g>
              <g transform="translate(47.12,69.01)" id="img-9fb4f921-74">
                <path d="M-0.19,-19.32 L 0.19 -19.32 0.19 19.32 -0.19 19.32 z" class="primitive"/>
              </g>
              <g transform="translate(47.46,71.04)" id="img-9fb4f921-75">
                <path d="M-0.19,-17.28 L 0.19 -17.28 0.19 17.28 -0.19 17.28 z" class="primitive"/>
              </g>
              <g transform="translate(47.79,60.88)" id="img-9fb4f921-76">
                <path d="M-0.19,-27.45 L 0.19 -27.45 0.19 27.45 -0.19 27.45 z" class="primitive"/>
              </g>
              <g transform="translate(48.13,50.71)" id="img-9fb4f921-77">
                <path d="M-0.19,-37.61 L 0.19 -37.61 0.19 37.61 -0.19 37.61 z" class="primitive"/>
              </g>
              <g transform="translate(48.46,59.86)" id="img-9fb4f921-78">
                <path d="M-0.19,-28.46 L 0.19 -28.46 0.19 28.46 -0.19 28.46 z" class="primitive"/>
              </g>
              <g transform="translate(48.8,58.85)" id="img-9fb4f921-79">
                <path d="M-0.19,-29.48 L 0.19 -29.48 0.19 29.48 -0.19 29.48 z" class="primitive"/>
              </g>
              <g transform="translate(49.13,66.98)" id="img-9fb4f921-80">
                <path d="M-0.19,-21.35 L 0.19 -21.35 0.19 21.35 -0.19 21.35 z" class="primitive"/>
              </g>
              <g transform="translate(49.47,58.85)" id="img-9fb4f921-81">
                <path d="M-0.19,-29.48 L 0.19 -29.48 0.19 29.48 -0.19 29.48 z" class="primitive"/>
              </g>
              <g transform="translate(49.8,72.06)" id="img-9fb4f921-82">
                <path d="M-0.19,-16.27 L 0.19 -16.27 0.19 16.27 -0.19 16.27 z" class="primitive"/>
              </g>
              <g transform="translate(50.14,64.95)" id="img-9fb4f921-83">
                <path d="M-0.19,-23.38 L 0.19 -23.38 0.19 23.38 -0.19 23.38 z" class="primitive"/>
              </g>
              <g transform="translate(50.47,61.9)" id="img-9fb4f921-84">
                <path d="M-0.19,-26.43 L 0.19 -26.43 0.19 26.43 -0.19 26.43 z" class="primitive"/>
              </g>
              <g transform="translate(50.81,62.91)" id="img-9fb4f921-85">
                <path d="M-0.19,-25.41 L 0.19 -25.41 0.19 25.41 -0.19 25.41 z" class="primitive"/>
              </g>
              <g transform="translate(51.14,60.88)" id="img-9fb4f921-86">
                <path d="M-0.19,-27.45 L 0.19 -27.45 0.19 27.45 -0.19 27.45 z" class="primitive"/>
              </g>
              <g transform="translate(51.48,57.83)" id="img-9fb4f921-87">
                <path d="M-0.19,-30.5 L 0.19 -30.5 0.19 30.5 -0.19 30.5 z" class="primitive"/>
              </g>
              <g transform="translate(51.82,66.98)" id="img-9fb4f921-88">
                <path d="M-0.19,-21.35 L 0.19 -21.35 0.19 21.35 -0.19 21.35 z" class="primitive"/>
              </g>
              <g transform="translate(52.15,68)" id="img-9fb4f921-89">
                <path d="M-0.19,-20.33 L 0.19 -20.33 0.19 20.33 -0.19 20.33 z" class="primitive"/>
              </g>
              <g transform="translate(52.49,65.96)" id="img-9fb4f921-90">
                <path d="M-0.19,-22.36 L 0.19 -22.36 0.19 22.36 -0.19 22.36 z" class="primitive"/>
              </g>
              <g transform="translate(52.82,66.98)" id="img-9fb4f921-91">
                <path d="M-0.19,-21.35 L 0.19 -21.35 0.19 21.35 -0.19 21.35 z" class="primitive"/>
              </g>
              <g transform="translate(53.16,73.08)" id="img-9fb4f921-92">
                <path d="M-0.19,-15.25 L 0.19 -15.25 0.19 15.25 -0.19 15.25 z" class="primitive"/>
              </g>
              <g transform="translate(53.49,74.09)" id="img-9fb4f921-93">
                <path d="M-0.19,-14.23 L 0.19 -14.23 0.19 14.23 -0.19 14.23 z" class="primitive"/>
              </g>
              <g transform="translate(53.83,75.11)" id="img-9fb4f921-94">
                <path d="M-0.19,-13.22 L 0.19 -13.22 0.19 13.22 -0.19 13.22 z" class="primitive"/>
              </g>
              <g transform="translate(54.16,69.01)" id="img-9fb4f921-95">
                <path d="M-0.19,-19.32 L 0.19 -19.32 0.19 19.32 -0.19 19.32 z" class="primitive"/>
              </g>
              <g transform="translate(54.5,74.09)" id="img-9fb4f921-96">
                <path d="M-0.19,-14.23 L 0.19 -14.23 0.19 14.23 -0.19 14.23 z" class="primitive"/>
              </g>
              <g transform="translate(54.83,74.09)" id="img-9fb4f921-97">
                <path d="M-0.19,-14.23 L 0.19 -14.23 0.19 14.23 -0.19 14.23 z" class="primitive"/>
              </g>
              <g transform="translate(55.17,79.18)" id="img-9fb4f921-98">
                <path d="M-0.19,-9.15 L 0.19 -9.15 0.19 9.15 -0.19 9.15 z" class="primitive"/>
              </g>
              <g transform="translate(55.5,79.18)" id="img-9fb4f921-99">
                <path d="M-0.19,-9.15 L 0.19 -9.15 0.19 9.15 -0.19 9.15 z" class="primitive"/>
              </g>
              <g transform="translate(55.84,76.13)" id="img-9fb4f921-100">
                <path d="M-0.19,-12.2 L 0.19 -12.2 0.19 12.2 -0.19 12.2 z" class="primitive"/>
              </g>
              <g transform="translate(56.17,76.13)" id="img-9fb4f921-101">
                <path d="M-0.19,-12.2 L 0.19 -12.2 0.19 12.2 -0.19 12.2 z" class="primitive"/>
              </g>
              <g transform="translate(56.51,75.11)" id="img-9fb4f921-102">
                <path d="M-0.19,-13.22 L 0.19 -13.22 0.19 13.22 -0.19 13.22 z" class="primitive"/>
              </g>
              <g transform="translate(56.84,79.18)" id="img-9fb4f921-103">
                <path d="M-0.19,-9.15 L 0.19 -9.15 0.19 9.15 -0.19 9.15 z" class="primitive"/>
              </g>
              <g transform="translate(57.18,78.16)" id="img-9fb4f921-104">
                <path d="M-0.19,-10.17 L 0.19 -10.17 0.19 10.17 -0.19 10.17 z" class="primitive"/>
              </g>
              <g transform="translate(57.51,79.18)" id="img-9fb4f921-105">
                <path d="M-0.19,-9.15 L 0.19 -9.15 0.19 9.15 -0.19 9.15 z" class="primitive"/>
              </g>
              <g transform="translate(57.85,73.08)" id="img-9fb4f921-106">
                <path d="M-0.19,-15.25 L 0.19 -15.25 0.19 15.25 -0.19 15.25 z" class="primitive"/>
              </g>
              <g transform="translate(58.19,82.23)" id="img-9fb4f921-107">
                <path d="M-0.19,-6.1 L 0.19 -6.1 0.19 6.1 -0.19 6.1 z" class="primitive"/>
              </g>
              <g transform="translate(58.52,81.21)" id="img-9fb4f921-108">
                <path d="M-0.19,-7.12 L 0.19 -7.12 0.19 7.12 -0.19 7.12 z" class="primitive"/>
              </g>
              <g transform="translate(58.86,85.28)" id="img-9fb4f921-109">
                <path d="M-0.19,-3.05 L 0.19 -3.05 0.19 3.05 -0.19 3.05 z" class="primitive"/>
              </g>
              <g transform="translate(59.19,82.23)" id="img-9fb4f921-110">
                <path d="M-0.19,-6.1 L 0.19 -6.1 0.19 6.1 -0.19 6.1 z" class="primitive"/>
              </g>
              <g transform="translate(59.53,83.24)" id="img-9fb4f921-111">
                <path d="M-0.19,-5.08 L 0.19 -5.08 0.19 5.08 -0.19 5.08 z" class="primitive"/>
              </g>
              <g transform="translate(59.86,86.29)" id="img-9fb4f921-112">
                <path d="M-0.19,-2.03 L 0.19 -2.03 0.19 2.03 -0.19 2.03 z" class="primitive"/>
              </g>
              <g transform="translate(60.2,85.28)" id="img-9fb4f921-113">
                <path d="M-0.19,-3.05 L 0.19 -3.05 0.19 3.05 -0.19 3.05 z" class="primitive"/>
              </g>
              <g transform="translate(60.53,86.29)" id="img-9fb4f921-114">
                <path d="M-0.19,-2.03 L 0.19 -2.03 0.19 2.03 -0.19 2.03 z" class="primitive"/>
              </g>
              <g transform="translate(60.87,84.26)" id="img-9fb4f921-115">
                <path d="M-0.19,-4.07 L 0.19 -4.07 0.19 4.07 -0.19 4.07 z" class="primitive"/>
              </g>
              <g transform="translate(61.2,87.31)" id="img-9fb4f921-116">
                <path d="M-0.19,-1.02 L 0.19 -1.02 0.19 1.02 -0.19 1.02 z" class="primitive"/>
              </g>
              <g transform="translate(61.54,87.31)" id="img-9fb4f921-117">
                <path d="M-0.19,-1.02 L 0.19 -1.02 0.19 1.02 -0.19 1.02 z" class="primitive"/>
              </g>
              <g transform="translate(61.87,86.29)" id="img-9fb4f921-118">
                <path d="M-0.19,-2.03 L 0.19 -2.03 0.19 2.03 -0.19 2.03 z" class="primitive"/>
              </g>
              <g transform="translate(62.21,86.29)" id="img-9fb4f921-119">
                <path d="M-0.19,-2.03 L 0.19 -2.03 0.19 2.03 -0.19 2.03 z" class="primitive"/>
              </g>
              <g transform="translate(62.54,87.31)" id="img-9fb4f921-120">
                <path d="M-0.19,-1.02 L 0.19 -1.02 0.19 1.02 -0.19 1.02 z" class="primitive"/>
              </g>
              <g transform="translate(62.88,86.29)" id="img-9fb4f921-121">
                <path d="M-0.19,-2.03 L 0.19 -2.03 0.19 2.03 -0.19 2.03 z" class="primitive"/>
              </g>
              <g transform="translate(63.21,87.31)" id="img-9fb4f921-122">
                <path d="M-0.19,-1.02 L 0.19 -1.02 0.19 1.02 -0.19 1.02 z" class="primitive"/>
              </g>
              <g transform="translate(63.55,87.31)" id="img-9fb4f921-123">
                <path d="M-0.19,-1.02 L 0.19 -1.02 0.19 1.02 -0.19 1.02 z" class="primitive"/>
              </g>
              <g transform="translate(63.88,88.33)" id="img-9fb4f921-124">
                <path d="M-0.19,-0 L 0.19 -0 0.19 0 -0.19 0 z" class="primitive"/>
              </g>
              <g transform="translate(64.22,87.31)" id="img-9fb4f921-125">
                <path d="M-0.19,-1.02 L 0.19 -1.02 0.19 1.02 -0.19 1.02 z" class="primitive"/>
              </g>
              <g transform="translate(64.55,86.29)" id="img-9fb4f921-126">
                <path d="M-0.19,-2.03 L 0.19 -2.03 0.19 2.03 -0.19 2.03 z" class="primitive"/>
              </g>
              <g transform="translate(64.89,88.33)" id="img-9fb4f921-127">
                <path d="M-0.19,-0 L 0.19 -0 0.19 0 -0.19 0 z" class="primitive"/>
              </g>
              <g transform="translate(65.23,85.28)" id="img-9fb4f921-128">
                <path d="M-0.19,-3.05 L 0.19 -3.05 0.19 3.05 -0.19 3.05 z" class="primitive"/>
              </g>
              <g transform="translate(65.56,88.33)" id="img-9fb4f921-129">
                <path d="M-0.19,-0 L 0.19 -0 0.19 0 -0.19 0 z" class="primitive"/>
              </g>
              <g transform="translate(65.9,87.31)" id="img-9fb4f921-130">
                <path d="M-0.19,-1.02 L 0.19 -1.02 0.19 1.02 -0.19 1.02 z" class="primitive"/>
              </g>
            </g>
          </g>
        </g>
      </g>
    </g>
  </g>
  <g class="guide ylabels" font-size="2.82" font-family="'PT Sans Caption','Helvetica Neue','Helvetica',sans-serif" fill="#6C606B" id="img-9fb4f921-131">
    <g transform="translate(16.96,88.33)" id="img-9fb4f921-132">
      <g class="primitive">
        <text text-anchor="end" dy="0.35em">0</text>
      </g>
    </g>
    <g transform="translate(16.96,68)" id="img-9fb4f921-133">
      <g class="primitive">
        <text text-anchor="end" dy="0.35em">10</text>
      </g>
    </g>
    <g transform="translate(16.96,47.66)" id="img-9fb4f921-134">
      <g class="primitive">
        <text text-anchor="end" dy="0.35em">20</text>
      </g>
    </g>
    <g transform="translate(16.96,27.33)" id="img-9fb4f921-135">
      <g class="primitive">
        <text text-anchor="end" dy="0.35em">30</text>
      </g>
    </g>
    <g transform="translate(16.96,7)" id="img-9fb4f921-136">
      <g class="primitive">
        <text text-anchor="end" dy="0.35em">40</text>
      </g>
    </g>
  </g>
  <g font-size="3.88" font-family="'PT Sans','Helvetica Neue','Helvetica',sans-serif" fill="#564A55" stroke="#000000" stroke-opacity="0.000" id="img-9fb4f921-137">
    <g transform="translate(8.81,45.66)" id="img-9fb4f921-138">
      <g class="primitive">
        <text text-anchor="middle" dy="0.35em" transform="rotate(-90,0, 2)">frequency</text>
      </g>
    </g>
  </g>
</g>
<defs>
  <clipPath id="img-9fb4f921-11">
    <path d="M17.96,5 L 79.86 5 79.86 90.33 17.96 90.33" />
  </clipPath>
</defs>
</svg>
