<?xml version="1.0" encoding="UTF-8"?>
<svg xmlns="http://www.w3.org/2000/svg"
     xmlns:xlink="http://www.w3.org/1999/xlink"
     xmlns:gadfly="http://www.gadflyjl.org/ns"
     version="1.2"
     width="141.42mm" height="100mm" viewBox="0 0 141.42 100"
     stroke="none"
     fill="#000000"
     stroke-width="0.3"
     font-size="3.88"
>
<defs>
  <marker id="arrow" markerWidth="15" markerHeight="7" refX="5" refY="3.5" orient="auto" markerUnits="strokeWidth">
    <path d="M0,0 L15,3.5 L0,7 z" stroke="context-stroke" fill="context-stroke"/>
  </marker>
</defs>
<g class="plotroot xscalable yscalable" id="img-ce5f3715-1">
  <g class="guide xlabels" font-size="2.82" font-family="'PT Sans Caption','Helvetica Neue','Helvetica',sans-serif" fill="#6C606B" id="img-ce5f3715-2">
    <g transform="translate(18.28,91.33)">
      <g class="primitive">
        <text text-anchor="middle" dy="0.6em">10.04</text>
      </g>
    </g>
    <g transform="translate(34.19,91.33)">
      <g class="primitive">
        <text text-anchor="middle" dy="0.6em">10.06</text>
      </g>
    </g>
    <g transform="translate(50.09,91.33)">
      <g class="primitive">
        <text text-anchor="middle" dy="0.6em">10.08</text>
      </g>
    </g>
    <g transform="translate(65.99,91.33)">
      <g class="primitive">
        <text text-anchor="middle" dy="0.6em">10.10</text>
      </g>
    </g>
    <g transform="translate(81.89,91.33)">
      <g class="primitive">
        <text text-anchor="middle" dy="0.6em">10.12</text>
      </g>
    </g>
  </g>
  <g class="guide colorkey" id="img-ce5f3715-3">
    <g class="color_coding_coding_coding_noncoding_4-star" id="img-ce5f3715-4">
      <g fill="#4C404B" font-size="2.82" font-family="'PT Sans','Helvetica Neue','Helvetica',sans-serif" id="img-ce5f3715-5">
        <g transform="translate(87.7,49.48)" id="img-ce5f3715-6">
          <g class="primitive">
            <text dy="0.35em">coding_coding_coding_noncoding_4-star</text>
          </g>
        </g>
      </g>
      <g fill-opacity="1" fill="#00BFFF" stroke="#FFFFFF" id="img-ce5f3715-7">
        <g transform="translate(85.79,49.48)" id="img-ce5f3715-8">
          <path d="M-0.91,-0.91 L 0.91 -0.91 0.91 0.91 -0.91 0.91 z" class="primitive"/>
        </g>
      </g>
    </g>
    <g fill="#362A35" font-size="3.88" font-family="'PT Sans','Helvetica Neue','Helvetica',sans-serif" stroke="#000000" stroke-opacity="0.000" id="img-ce5f3715-9">
      <g transform="translate(84.89,45.66)" id="img-ce5f3715-10">
        <g class="primitive">
          <text dy="-0em">graphlet</text>
        </g>
      </g>
    </g>
  </g>
  <g clip-path="url(#img-ce5f3715-11)">
    <g id="img-ce5f3715-12">
      <g pointer-events="visible" stroke-width="0.3" fill="#000000" fill-opacity="0.000" stroke="#000000" stroke-opacity="0.000" class="guide background" id="img-ce5f3715-13">
        <g transform="translate(50.09,47.66)" id="img-ce5f3715-14">
          <path d="M-33.8,-42.66 L 33.8 -42.66 33.8 42.66 -33.8 42.66 z" class="primitive"/>
        </g>
      </g>
      <g class="guide ygridlines xfixed" stroke-dasharray="0.5,0.5" stroke-width="0.2" stroke="#D0D0E0" id="img-ce5f3715-15">
        <g transform="translate(50.09,88.33)" id="img-ce5f3715-16">
          <path fill="none" d="M-33.8,0 L 33.8 0" class="primitive"/>
        </g>
        <g transform="translate(50.09,68)" id="img-ce5f3715-17">
          <path fill="none" d="M-33.8,0 L 33.8 0" class="primitive"/>
        </g>
        <g transform="translate(50.09,47.66)" id="img-ce5f3715-18">
          <path fill="none" d="M-33.8,0 L 33.8 0" class="primitive"/>
        </g>
        <g transform="translate(50.09,27.33)" id="img-ce5f3715-19">
          <path fill="none" d="M-33.8,0 L 33.8 0" class="primitive"/>
        </g>
        <g transform="translate(50.09,7)" id="img-ce5f3715-20">
          <path fill="none" d="M-33.8,0 L 33.8 0" class="primitive"/>
        </g>
      </g>
      <g class="guide xgridlines yfixed" stroke-dasharray="0.5,0.5" stroke-width="0.2" stroke="#D0D0E0" id="img-ce5f3715-21">
        <g transform="translate(18.28,47.66)" id="img-ce5f3715-22">
          <path fill="none" d="M0,-42.66 L 0 42.66" class="primitive"/>
        </g>
        <g transform="translate(34.19,47.66)" id="img-ce5f3715-23">
          <path fill="none" d="M0,-42.66 L 0 42.66" class="primitive"/>
        </g>
        <g transform="translate(50.09,47.66)" id="img-ce5f3715-24">
          <path fill="none" d="M0,-42.66 L 0 42.66" class="primitive"/>
        </g>
        <g transform="translate(65.99,47.66)" id="img-ce5f3715-25">
          <path fill="none" d="M0,-42.66 L 0 42.66" class="primitive"/>
        </g>
        <g transform="translate(81.89,47.66)" id="img-ce5f3715-26">
          <path fill="none" d="M0,-42.66 L 0 42.66" class="primitive"/>
        </g>
      </g>
      <g class="plotpanel" id="img-ce5f3715-27">
        <metadata>
          <boundingbox value="16.284999999999997mm 5.0mm 67.60302290397618mm 85.32666666666667mm"/>
          <unitbox value="10.037484396296046 4.098368718747438 0.0850312074079108 -4.1967374374948765"/>
        </metadata>
        <g shape-rendering="crispEdges" stroke-width="0.3" id="img-ce5f3715-28">
          <g stroke="#000000" stroke-opacity="0.000" class="geometry" id="img-ce5f3715-29">
            <g fill="#00BFFF" id="img-ce5f3715-30">
              <g transform="translate(23.16,78.16)" id="img-ce5f3715-31">
                <path d="M-0.24,-10.17 L 0.24 -10.17 0.24 10.17 -0.24 10.17 z" class="primitive"/>
              </g>
              <g transform="translate(23.59,88.33)" id="img-ce5f3715-32">
                <path d="M-0.24,-0 L 0.24 -0 0.24 0 -0.24 0 z" class="primitive"/>
              </g>
              <g transform="translate(24.02,88.33)" id="img-ce5f3715-33">
                <path d="M-0.24,-0 L 0.24 -0 0.24 0 -0.24 0 z" class="primitive"/>
              </g>
              <g transform="translate(24.46,88.33)" id="img-ce5f3715-34">
                <path d="M-0.24,-0 L 0.24 -0 0.24 0 -0.24 0 z" class="primitive"/>
              </g>
              <g transform="translate(24.89,88.33)" id="img-ce5f3715-35">
                <path d="M-0.24,-0 L 0.24 -0 0.24 0 -0.24 0 z" class="primitive"/>
              </g>
              <g transform="translate(25.32,88.33)" id="img-ce5f3715-36">
                <path d="M-0.24,-0 L 0.24 -0 0.24 0 -0.24 0 z" class="primitive"/>
              </g>
              <g transform="translate(25.75,78.16)" id="img-ce5f3715-37">
                <path d="M-0.24,-10.17 L 0.24 -10.17 0.24 10.17 -0.24 10.17 z" class="primitive"/>
              </g>
              <g transform="translate(26.19,68)" id="img-ce5f3715-38">
                <path d="M-0.24,-20.33 L 0.24 -20.33 0.24 20.33 -0.24 20.33 z" class="primitive"/>
              </g>
              <g transform="translate(26.62,88.33)" id="img-ce5f3715-39">
                <path d="M-0.24,-0 L 0.24 -0 0.24 0 -0.24 0 z" class="primitive"/>
              </g>
              <g transform="translate(27.05,88.33)" id="img-ce5f3715-40">
                <path d="M-0.24,-0 L 0.24 -0 0.24 0 -0.24 0 z" class="primitive"/>
              </g>
              <g transform="translate(27.49,88.33)" id="img-ce5f3715-41">
                <path d="M-0.24,-0 L 0.24 -0 0.24 0 -0.24 0 z" class="primitive"/>
              </g>
              <g transform="translate(27.92,88.33)" id="img-ce5f3715-42">
                <path d="M-0.24,-0 L 0.24 -0 0.24 0 -0.24 0 z" class="primitive"/>
              </g>
              <g transform="translate(28.35,88.33)" id="img-ce5f3715-43">
                <path d="M-0.24,-0 L 0.24 -0 0.24 0 -0.24 0 z" class="primitive"/>
              </g>
              <g transform="translate(28.79,88.33)" id="img-ce5f3715-44">
                <path d="M-0.24,-0 L 0.24 -0 0.24 0 -0.24 0 z" class="primitive"/>
              </g>
              <g transform="translate(29.22,88.33)" id="img-ce5f3715-45">
                <path d="M-0.24,-0 L 0.24 -0 0.24 0 -0.24 0 z" class="primitive"/>
              </g>
              <g transform="translate(29.65,88.33)" id="img-ce5f3715-46">
                <path d="M-0.24,-0 L 0.24 -0 0.24 0 -0.24 0 z" class="primitive"/>
              </g>
              <g transform="translate(30.09,68)" id="img-ce5f3715-47">
                <path d="M-0.24,-20.33 L 0.24 -20.33 0.24 20.33 -0.24 20.33 z" class="primitive"/>
              </g>
              <g transform="translate(30.52,68)" id="img-ce5f3715-48">
                <path d="M-0.24,-20.33 L 0.24 -20.33 0.24 20.33 -0.24 20.33 z" class="primitive"/>
              </g>
              <g transform="translate(30.95,68)" id="img-ce5f3715-49">
                <path d="M-0.24,-20.33 L 0.24 -20.33 0.24 20.33 -0.24 20.33 z" class="primitive"/>
              </g>
              <g transform="translate(31.38,68)" id="img-ce5f3715-50">
                <path d="M-0.24,-20.33 L 0.24 -20.33 0.24 20.33 -0.24 20.33 z" class="primitive"/>
              </g>
              <g transform="translate(31.82,78.16)" id="img-ce5f3715-51">
                <path d="M-0.24,-10.17 L 0.24 -10.17 0.24 10.17 -0.24 10.17 z" class="primitive"/>
              </g>
              <g transform="translate(32.25,78.16)" id="img-ce5f3715-52">
                <path d="M-0.24,-10.17 L 0.24 -10.17 0.24 10.17 -0.24 10.17 z" class="primitive"/>
              </g>
              <g transform="translate(32.68,88.33)" id="img-ce5f3715-53">
                <path d="M-0.24,-0 L 0.24 -0 0.24 0 -0.24 0 z" class="primitive"/>
              </g>
              <g transform="translate(33.12,88.33)" id="img-ce5f3715-54">
                <path d="M-0.24,-0 L 0.24 -0 0.24 0 -0.24 0 z" class="primitive"/>
              </g>
              <g transform="translate(33.55,57.83)" id="img-ce5f3715-55">
                <path d="M-0.24,-30.5 L 0.24 -30.5 0.24 30.5 -0.24 30.5 z" class="primitive"/>
              </g>
              <g transform="translate(33.98,88.33)" id="img-ce5f3715-56">
                <path d="M-0.24,-0 L 0.24 -0 0.24 0 -0.24 0 z" class="primitive"/>
              </g>
              <g transform="translate(34.42,88.33)" id="img-ce5f3715-57">
                <path d="M-0.24,-0 L 0.24 -0 0.24 0 -0.24 0 z" class="primitive"/>
              </g>
              <g transform="translate(34.85,88.33)" id="img-ce5f3715-58">
                <path d="M-0.24,-0 L 0.24 -0 0.24 0 -0.24 0 z" class="primitive"/>
              </g>
              <g transform="translate(35.28,78.16)" id="img-ce5f3715-59">
                <path d="M-0.24,-10.17 L 0.24 -10.17 0.24 10.17 -0.24 10.17 z" class="primitive"/>
              </g>
              <g transform="translate(35.72,88.33)" id="img-ce5f3715-60">
                <path d="M-0.24,-0 L 0.24 -0 0.24 0 -0.24 0 z" class="primitive"/>
              </g>
              <g transform="translate(36.15,78.16)" id="img-ce5f3715-61">
                <path d="M-0.24,-10.17 L 0.24 -10.17 0.24 10.17 -0.24 10.17 z" class="primitive"/>
              </g>
              <g transform="translate(36.58,78.16)" id="img-ce5f3715-62">
                <path d="M-0.24,-10.17 L 0.24 -10.17 0.24 10.17 -0.24 10.17 z" class="primitive"/>
              </g>
              <g transform="translate(37.02,68)" id="img-ce5f3715-63">
                <path d="M-0.24,-20.33 L 0.24 -20.33 0.24 20.33 -0.24 20.33 z" class="primitive"/>
              </g>
              <g transform="translate(37.45,78.16)" id="img-ce5f3715-64">
                <path d="M-0.24,-10.17 L 0.24 -10.17 0.24 10.17 -0.24 10.17 z" class="primitive"/>
              </g>
              <g transform="translate(37.88,88.33)" id="img-ce5f3715-65">
                <path d="M-0.24,-0 L 0.24 -0 0.24 0 -0.24 0 z" class="primitive"/>
              </g>
              <g transform="translate(38.31,57.83)" id="img-ce5f3715-66">
                <path d="M-0.24,-30.5 L 0.24 -30.5 0.24 30.5 -0.24 30.5 z" class="primitive"/>
              </g>
              <g transform="translate(38.75,57.83)" id="img-ce5f3715-67">
                <path d="M-0.24,-30.5 L 0.24 -30.5 0.24 30.5 -0.24 30.5 z" class="primitive"/>
              </g>
              <g transform="translate(39.18,57.83)" id="img-ce5f3715-68">
                <path d="M-0.24,-30.5 L 0.24 -30.5 0.24 30.5 -0.24 30.5 z" class="primitive"/>
              </g>
              <g transform="translate(39.61,47.66)" id="img-ce5f3715-69">
                <path d="M-0.24,-40.66 L 0.24 -40.66 0.24 40.66 -0.24 40.66 z" class="primitive"/>
              </g>
              <g transform="translate(40.05,78.16)" id="img-ce5f3715-70">
                <path d="M-0.24,-10.17 L 0.24 -10.17 0.24 10.17 -0.24 10.17 z" class="primitive"/>
              </g>
              <g transform="translate(40.48,78.16)" id="img-ce5f3715-71">
                <path d="M-0.24,-10.17 L 0.24 -10.17 0.24 10.17 -0.24 10.17 z" class="primitive"/>
              </g>
              <g transform="translate(40.91,47.66)" id="img-ce5f3715-72">
                <path d="M-0.24,-40.66 L 0.24 -40.66 0.24 40.66 -0.24 40.66 z" class="primitive"/>
              </g>
              <g transform="translate(41.35,88.33)" id="img-ce5f3715-73">
                <path d="M-0.24,-0 L 0.24 -0 0.24 0 -0.24 0 z" class="primitive"/>
              </g>
              <g transform="translate(41.78,78.16)" id="img-ce5f3715-74">
                <path d="M-0.24,-10.17 L 0.24 -10.17 0.24 10.17 -0.24 10.17 z" class="primitive"/>
              </g>
              <g transform="translate(42.21,78.16)" id="img-ce5f3715-75">
                <path d="M-0.24,-10.17 L 0.24 -10.17 0.24 10.17 -0.24 10.17 z" class="primitive"/>
              </g>
              <g transform="translate(42.65,57.83)" id="img-ce5f3715-76">
                <path d="M-0.24,-30.5 L 0.24 -30.5 0.24 30.5 -0.24 30.5 z" class="primitive"/>
              </g>
              <g transform="translate(43.08,57.83)" id="img-ce5f3715-77">
                <path d="M-0.24,-30.5 L 0.24 -30.5 0.24 30.5 -0.24 30.5 z" class="primitive"/>
              </g>
              <g transform="translate(43.51,78.16)" id="img-ce5f3715-78">
                <path d="M-0.24,-10.17 L 0.24 -10.17 0.24 10.17 -0.24 10.17 z" class="primitive"/>
              </g>
              <g transform="translate(43.94,78.16)" id="img-ce5f3715-79">
                <path d="M-0.24,-10.17 L 0.24 -10.17 0.24 10.17 -0.24 10.17 z" class="primitive"/>
              </g>
              <g transform="translate(44.38,68)" id="img-ce5f3715-80">
                <path d="M-0.24,-20.33 L 0.24 -20.33 0.24 20.33 -0.24 20.33 z" class="primitive"/>
              </g>
              <g transform="translate(44.81,68)" id="img-ce5f3715-81">
                <path d="M-0.24,-20.33 L 0.24 -20.33 0.24 20.33 -0.24 20.33 z" class="primitive"/>
              </g>
              <g transform="translate(45.24,47.66)" id="img-ce5f3715-82">
                <path d="M-0.24,-40.66 L 0.24 -40.66 0.24 40.66 -0.24 40.66 z" class="primitive"/>
              </g>
              <g transform="translate(45.68,78.16)" id="img-ce5f3715-83">
                <path d="M-0.24,-10.17 L 0.24 -10.17 0.24 10.17 -0.24 10.17 z" class="primitive"/>
              </g>
              <g transform="translate(46.11,68)" id="img-ce5f3715-84">
                <path d="M-0.24,-20.33 L 0.24 -20.33 0.24 20.33 -0.24 20.33 z" class="primitive"/>
              </g>
              <g transform="translate(46.54,68)" id="img-ce5f3715-85">
                <path d="M-0.24,-20.33 L 0.24 -20.33 0.24 20.33 -0.24 20.33 z" class="primitive"/>
              </g>
              <g transform="translate(46.98,88.33)" id="img-ce5f3715-86">
                <path d="M-0.24,-0 L 0.24 -0 0.24 0 -0.24 0 z" class="primitive"/>
              </g>
              <g transform="translate(47.41,57.83)" id="img-ce5f3715-87">
                <path d="M-0.24,-30.5 L 0.24 -30.5 0.24 30.5 -0.24 30.5 z" class="primitive"/>
              </g>
              <g transform="translate(47.84,78.16)" id="img-ce5f3715-88">
                <path d="M-0.24,-10.17 L 0.24 -10.17 0.24 10.17 -0.24 10.17 z" class="primitive"/>
              </g>
              <g transform="translate(48.28,88.33)" id="img-ce5f3715-89">
                <path d="M-0.24,-0 L 0.24 -0 0.24 0 -0.24 0 z" class="primitive"/>
              </g>
              <g transform="translate(48.71,88.33)" id="img-ce5f3715-90">
                <path d="M-0.24,-0 L 0.24 -0 0.24 0 -0.24 0 z" class="primitive"/>
              </g>
              <g transform="translate(49.14,68)" id="img-ce5f3715-91">
                <path d="M-0.24,-20.33 L 0.24 -20.33 0.24 20.33 -0.24 20.33 z" class="primitive"/>
              </g>
              <g transform="translate(49.57,68)" id="img-ce5f3715-92">
                <path d="M-0.24,-20.33 L 0.24 -20.33 0.24 20.33 -0.24 20.33 z" class="primitive"/>
              </g>
              <g transform="translate(50.01,57.83)" id="img-ce5f3715-93">
                <path d="M-0.24,-30.5 L 0.24 -30.5 0.24 30.5 -0.24 30.5 z" class="primitive"/>
              </g>
              <g transform="translate(50.44,78.16)" id="img-ce5f3715-94">
                <path d="M-0.24,-10.17 L 0.24 -10.17 0.24 10.17 -0.24 10.17 z" class="primitive"/>
              </g>
              <g transform="translate(50.87,68)" id="img-ce5f3715-95">
                <path d="M-0.24,-20.33 L 0.24 -20.33 0.24 20.33 -0.24 20.33 z" class="primitive"/>
              </g>
              <g transform="translate(51.31,78.16)" id="img-ce5f3715-96">
                <path d="M-0.24,-10.17 L 0.24 -10.17 0.24 10.17 -0.24 10.17 z" class="primitive"/>
              </g>
              <g transform="translate(51.74,88.33)" id="img-ce5f3715-97">
                <path d="M-0.24,-0 L 0.24 -0 0.24 0 -0.24 0 z" class="primitive"/>
              </g>
              <g transform="translate(52.17,78.16)" id="img-ce5f3715-98">
                <path d="M-0.24,-10.17 L 0.24 -10.17 0.24 10.17 -0.24 10.17 z" class="primitive"/>
              </g>
              <g transform="translate(52.61,78.16)" id="img-ce5f3715-99">
                <path d="M-0.24,-10.17 L 0.24 -10.17 0.24 10.17 -0.24 10.17 z" class="primitive"/>
              </g>
              <g transform="translate(53.04,78.16)" id="img-ce5f3715-100">
                <path d="M-0.24,-10.17 L 0.24 -10.17 0.24 10.17 -0.24 10.17 z" class="primitive"/>
              </g>
              <g transform="translate(53.47,88.33)" id="img-ce5f3715-101">
                <path d="M-0.24,-0 L 0.24 -0 0.24 0 -0.24 0 z" class="primitive"/>
              </g>
              <g transform="translate(53.91,78.16)" id="img-ce5f3715-102">
                <path d="M-0.24,-10.17 L 0.24 -10.17 0.24 10.17 -0.24 10.17 z" class="primitive"/>
              </g>
              <g transform="translate(54.34,57.83)" id="img-ce5f3715-103">
                <path d="M-0.24,-30.5 L 0.24 -30.5 0.24 30.5 -0.24 30.5 z" class="primitive"/>
              </g>
              <g transform="translate(54.77,88.33)" id="img-ce5f3715-104">
                <path d="M-0.24,-0 L 0.24 -0 0.24 0 -0.24 0 z" class="primitive"/>
              </g>
              <g transform="translate(55.2,68)" id="img-ce5f3715-105">
                <path d="M-0.24,-20.33 L 0.24 -20.33 0.24 20.33 -0.24 20.33 z" class="primitive"/>
              </g>
              <g transform="translate(55.64,78.16)" id="img-ce5f3715-106">
                <path d="M-0.24,-10.17 L 0.24 -10.17 0.24 10.17 -0.24 10.17 z" class="primitive"/>
              </g>
              <g transform="translate(56.07,88.33)" id="img-ce5f3715-107">
                <path d="M-0.24,-0 L 0.24 -0 0.24 0 -0.24 0 z" class="primitive"/>
              </g>
              <g transform="translate(56.5,78.16)" id="img-ce5f3715-108">
                <path d="M-0.24,-10.17 L 0.24 -10.17 0.24 10.17 -0.24 10.17 z" class="primitive"/>
              </g>
              <g transform="translate(56.94,88.33)" id="img-ce5f3715-109">
                <path d="M-0.24,-0 L 0.24 -0 0.24 0 -0.24 0 z" class="primitive"/>
              </g>
              <g transform="translate(57.37,78.16)" id="img-ce5f3715-110">
                <path d="M-0.24,-10.17 L 0.24 -10.17 0.24 10.17 -0.24 10.17 z" class="primitive"/>
              </g>
              <g transform="translate(57.8,47.66)" id="img-ce5f3715-111">
                <path d="M-0.24,-40.66 L 0.24 -40.66 0.24 40.66 -0.24 40.66 z" class="primitive"/>
              </g>
              <g transform="translate(58.24,88.33)" id="img-ce5f3715-112">
                <path d="M-0.24,-0 L 0.24 -0 0.24 0 -0.24 0 z" class="primitive"/>
              </g>
              <g transform="translate(58.67,78.16)" id="img-ce5f3715-113">
                <path d="M-0.24,-10.17 L 0.24 -10.17 0.24 10.17 -0.24 10.17 z" class="primitive"/>
              </g>
              <g transform="translate(59.1,88.33)" id="img-ce5f3715-114">
                <path d="M-0.24,-0 L 0.24 -0 0.24 0 -0.24 0 z" class="primitive"/>
              </g>
              <g transform="translate(59.54,88.33)" id="img-ce5f3715-115">
                <path d="M-0.24,-0 L 0.24 -0 0.24 0 -0.24 0 z" class="primitive"/>
              </g>
              <g transform="translate(59.97,88.33)" id="img-ce5f3715-116">
                <path d="M-0.24,-0 L 0.24 -0 0.24 0 -0.24 0 z" class="primitive"/>
              </g>
              <g transform="translate(60.4,88.33)" id="img-ce5f3715-117">
                <path d="M-0.24,-0 L 0.24 -0 0.24 0 -0.24 0 z" class="primitive"/>
              </g>
              <g transform="translate(60.83,88.33)" id="img-ce5f3715-118">
                <path d="M-0.24,-0 L 0.24 -0 0.24 0 -0.24 0 z" class="primitive"/>
              </g>
              <g transform="translate(61.27,88.33)" id="img-ce5f3715-119">
                <path d="M-0.24,-0 L 0.24 -0 0.24 0 -0.24 0 z" class="primitive"/>
              </g>
              <g transform="translate(61.7,88.33)" id="img-ce5f3715-120">
                <path d="M-0.24,-0 L 0.24 -0 0.24 0 -0.24 0 z" class="primitive"/>
              </g>
              <g transform="translate(62.13,88.33)" id="img-ce5f3715-121">
                <path d="M-0.24,-0 L 0.24 -0 0.24 0 -0.24 0 z" class="primitive"/>
              </g>
              <g transform="translate(62.57,78.16)" id="img-ce5f3715-122">
                <path d="M-0.24,-10.17 L 0.24 -10.17 0.24 10.17 -0.24 10.17 z" class="primitive"/>
              </g>
              <g transform="translate(63,88.33)" id="img-ce5f3715-123">
                <path d="M-0.24,-0 L 0.24 -0 0.24 0 -0.24 0 z" class="primitive"/>
              </g>
              <g transform="translate(63.43,78.16)" id="img-ce5f3715-124">
                <path d="M-0.24,-10.17 L 0.24 -10.17 0.24 10.17 -0.24 10.17 z" class="primitive"/>
              </g>
              <g transform="translate(63.87,88.33)" id="img-ce5f3715-125">
                <path d="M-0.24,-0 L 0.24 -0 0.24 0 -0.24 0 z" class="primitive"/>
              </g>
              <g transform="translate(64.3,88.33)" id="img-ce5f3715-126">
                <path d="M-0.24,-0 L 0.24 -0 0.24 0 -0.24 0 z" class="primitive"/>
              </g>
              <g transform="translate(64.73,88.33)" id="img-ce5f3715-127">
                <path d="M-0.24,-0 L 0.24 -0 0.24 0 -0.24 0 z" class="primitive"/>
              </g>
              <g transform="translate(65.17,88.33)" id="img-ce5f3715-128">
                <path d="M-0.24,-0 L 0.24 -0 0.24 0 -0.24 0 z" class="primitive"/>
              </g>
              <g transform="translate(65.6,88.33)" id="img-ce5f3715-129">
                <path d="M-0.24,-0 L 0.24 -0 0.24 0 -0.24 0 z" class="primitive"/>
              </g>
              <g transform="translate(66.03,78.16)" id="img-ce5f3715-130">
                <path d="M-0.24,-10.17 L 0.24 -10.17 0.24 10.17 -0.24 10.17 z" class="primitive"/>
              </g>
            </g>
          </g>
        </g>
      </g>
    </g>
  </g>
  <g class="guide ylabels" font-size="2.82" font-family="'PT Sans Caption','Helvetica Neue','Helvetica',sans-serif" fill="#6C606B" id="img-ce5f3715-131">
    <g transform="translate(15.28,88.33)" id="img-ce5f3715-132">
      <g class="primitive">
        <text text-anchor="end" dy="0.35em">0</text>
      </g>
    </g>
    <g transform="translate(15.28,68)" id="img-ce5f3715-133">
      <g class="primitive">
        <text text-anchor="end" dy="0.35em">1</text>
      </g>
    </g>
    <g transform="translate(15.28,47.66)" id="img-ce5f3715-134">
      <g class="primitive">
        <text text-anchor="end" dy="0.35em">2</text>
      </g>
    </g>
    <g transform="translate(15.28,27.33)" id="img-ce5f3715-135">
      <g class="primitive">
        <text text-anchor="end" dy="0.35em">3</text>
      </g>
    </g>
    <g transform="translate(15.28,7)" id="img-ce5f3715-136">
      <g class="primitive">
        <text text-anchor="end" dy="0.35em">4</text>
      </g>
    </g>
  </g>
  <g font-size="3.88" font-family="'PT Sans','Helvetica Neue','Helvetica',sans-serif" fill="#564A55" stroke="#000000" stroke-opacity="0.000" id="img-ce5f3715-137">
    <g transform="translate(8.81,45.66)" id="img-ce5f3715-138">
      <g class="primitive">
        <text text-anchor="middle" dy="0.35em" transform="rotate(-90,0, 2)">frequency</text>
      </g>
    </g>
  </g>
</g>
<defs>
  <clipPath id="img-ce5f3715-11">
    <path d="M16.28,5 L 83.89 5 83.89 90.33 16.28 90.33" />
  </clipPath>
</defs>
</svg>
