<?xml version="1.0" encoding="UTF-8"?>
<svg xmlns="http://www.w3.org/2000/svg"
     xmlns:xlink="http://www.w3.org/1999/xlink"
     xmlns:gadfly="http://www.gadflyjl.org/ns"
     version="1.2"
     width="141.42mm" height="100mm" viewBox="0 0 141.42 100"
     stroke="none"
     fill="#000000"
     stroke-width="0.3"
     font-size="3.88"
>
<defs>
  <marker id="arrow" markerWidth="15" markerHeight="7" refX="5" refY="3.5" orient="auto" markerUnits="strokeWidth">
    <path d="M0,0 L15,3.5 L0,7 z" stroke="context-stroke" fill="context-stroke"/>
  </marker>
</defs>
<g class="plotroot xscalable yscalable" id="img-1e1d11d7-1">
  <g class="guide xlabels" font-size="2.82" font-family="'PT Sans Caption','Helvetica Neue','Helvetica',sans-serif" fill="#6C606B" id="img-1e1d11d7-2">
    <g transform="translate(19.96,91.33)">
      <g class="primitive">
        <text text-anchor="middle" dy="0.6em">9.6</text>
      </g>
    </g>
    <g transform="translate(36.59,91.33)">
      <g class="primitive">
        <text text-anchor="middle" dy="0.6em">9.8</text>
      </g>
    </g>
    <g transform="translate(53.22,91.33)">
      <g class="primitive">
        <text text-anchor="middle" dy="0.6em">10.0</text>
      </g>
    </g>
    <g transform="translate(69.85,91.33)">
      <g class="primitive">
        <text text-anchor="middle" dy="0.6em">10.2</text>
      </g>
    </g>
    <g transform="translate(86.48,91.33)">
      <g class="primitive">
        <text text-anchor="middle" dy="0.6em">10.4</text>
      </g>
    </g>
  </g>
  <g class="guide colorkey" id="img-1e1d11d7-3">
    <g class="color_coding_coding_coding_coding_4-star" id="img-1e1d11d7-4">
      <g fill="#4C404B" font-size="2.82" font-family="'PT Sans','Helvetica Neue','Helvetica',sans-serif" id="img-1e1d11d7-5">
        <g transform="translate(92.29,49.48)" id="img-1e1d11d7-6">
          <g class="primitive">
            <text dy="0.35em">coding_coding_coding_coding_4-star</text>
          </g>
        </g>
      </g>
      <g fill-opacity="1" fill="#00BFFF" stroke="#FFFFFF" id="img-1e1d11d7-7">
        <g transform="translate(90.39,49.48)" id="img-1e1d11d7-8">
          <path d="M-0.91,-0.91 L 0.91 -0.91 0.91 0.91 -0.91 0.91 z" class="primitive"/>
        </g>
      </g>
    </g>
    <g fill="#362A35" font-size="3.88" font-family="'PT Sans','Helvetica Neue','Helvetica',sans-serif" stroke="#000000" stroke-opacity="0.000" id="img-1e1d11d7-9">
      <g transform="translate(89.48,45.66)" id="img-1e1d11d7-10">
        <g class="primitive">
          <text dy="-0em">graphlet</text>
        </g>
      </g>
    </g>
  </g>
  <g clip-path="url(#img-1e1d11d7-11)">
    <g id="img-1e1d11d7-12">
      <g pointer-events="visible" stroke-width="0.3" fill="#000000" fill-opacity="0.000" stroke="#000000" stroke-opacity="0.000" class="guide background" id="img-1e1d11d7-13">
        <g transform="translate(53.22,47.66)" id="img-1e1d11d7-14">
          <path d="M-35.26,-42.66 L 35.26 -42.66 35.26 42.66 -35.26 42.66 z" class="primitive"/>
        </g>
      </g>
      <g class="guide ygridlines xfixed" stroke-dasharray="0.5,0.5" stroke-width="0.2" stroke="#D0D0E0" id="img-1e1d11d7-15">
        <g transform="translate(53.22,88.33)" id="img-1e1d11d7-16">
          <path fill="none" d="M-35.26,0 L 35.26 0" class="primitive"/>
        </g>
        <g transform="translate(53.22,68)" id="img-1e1d11d7-17">
          <path fill="none" d="M-35.26,0 L 35.26 0" class="primitive"/>
        </g>
        <g transform="translate(53.22,47.66)" id="img-1e1d11d7-18">
          <path fill="none" d="M-35.26,0 L 35.26 0" class="primitive"/>
        </g>
        <g transform="translate(53.22,27.33)" id="img-1e1d11d7-19">
          <path fill="none" d="M-35.26,0 L 35.26 0" class="primitive"/>
        </g>
        <g transform="translate(53.22,7)" id="img-1e1d11d7-20">
          <path fill="none" d="M-35.26,0 L 35.26 0" class="primitive"/>
        </g>
      </g>
      <g class="guide xgridlines yfixed" stroke-dasharray="0.5,0.5" stroke-width="0.2" stroke="#D0D0E0" id="img-1e1d11d7-21">
        <g transform="translate(19.96,47.66)" id="img-1e1d11d7-22">
          <path fill="none" d="M0,-42.66 L 0 42.66" class="primitive"/>
        </g>
        <g transform="translate(36.59,47.66)" id="img-1e1d11d7-23">
          <path fill="none" d="M0,-42.66 L 0 42.66" class="primitive"/>
        </g>
        <g transform="translate(53.22,47.66)" id="img-1e1d11d7-24">
          <path fill="none" d="M0,-42.66 L 0 42.66" class="primitive"/>
        </g>
        <g transform="translate(69.85,47.66)" id="img-1e1d11d7-25">
          <path fill="none" d="M0,-42.66 L 0 42.66" class="primitive"/>
        </g>
        <g transform="translate(86.48,47.66)" id="img-1e1d11d7-26">
          <path fill="none" d="M0,-42.66 L 0 42.66" class="primitive"/>
        </g>
      </g>
      <g class="plotpanel" id="img-1e1d11d7-27">
        <metadata>
          <boundingbox value="17.95833333333333mm 5.0mm 70.52302290397617mm 85.32666666666667mm"/>
          <unitbox value="9.575948176583776 40.98368718747438 0.8481036468324511 -41.96737437494876"/>
        </metadata>
        <g shape-rendering="crispEdges" stroke-width="0.3" id="img-1e1d11d7-28">
          <g stroke="#000000" stroke-opacity="0.000" class="geometry" id="img-1e1d11d7-29">
            <g fill="#00BFFF" id="img-1e1d11d7-30">
              <g transform="translate(29.25,87.31)" id="img-1e1d11d7-31">
                <path d="M-0.3,-1.02 L 0.3 -1.02 0.3 1.02 -0.3 1.02 z" class="primitive"/>
              </g>
              <g transform="translate(29.79,88.33)" id="img-1e1d11d7-32">
                <path d="M-0.3,-0 L 0.3 -0 0.3 0 -0.3 0 z" class="primitive"/>
              </g>
              <g transform="translate(30.33,88.33)" id="img-1e1d11d7-33">
                <path d="M-0.3,-0 L 0.3 -0 0.3 0 -0.3 0 z" class="primitive"/>
              </g>
              <g transform="translate(30.87,87.31)" id="img-1e1d11d7-34">
                <path d="M-0.3,-1.02 L 0.3 -1.02 0.3 1.02 -0.3 1.02 z" class="primitive"/>
              </g>
              <g transform="translate(31.41,87.31)" id="img-1e1d11d7-35">
                <path d="M-0.3,-1.02 L 0.3 -1.02 0.3 1.02 -0.3 1.02 z" class="primitive"/>
              </g>
              <g transform="translate(31.96,88.33)" id="img-1e1d11d7-36">
                <path d="M-0.3,-0 L 0.3 -0 0.3 0 -0.3 0 z" class="primitive"/>
              </g>
              <g transform="translate(32.5,86.29)" id="img-1e1d11d7-37">
                <path d="M-0.3,-2.03 L 0.3 -2.03 0.3 2.03 -0.3 2.03 z" class="primitive"/>
              </g>
              <g transform="translate(33.04,88.33)" id="img-1e1d11d7-38">
                <path d="M-0.3,-0 L 0.3 -0 0.3 0 -0.3 0 z" class="primitive"/>
              </g>
              <g transform="translate(33.58,87.31)" id="img-1e1d11d7-39">
                <path d="M-0.3,-1.02 L 0.3 -1.02 0.3 1.02 -0.3 1.02 z" class="primitive"/>
              </g>
              <g transform="translate(34.12,87.31)" id="img-1e1d11d7-40">
                <path d="M-0.3,-1.02 L 0.3 -1.02 0.3 1.02 -0.3 1.02 z" class="primitive"/>
              </g>
              <g transform="translate(34.67,87.31)" id="img-1e1d11d7-41">
                <path d="M-0.3,-1.02 L 0.3 -1.02 0.3 1.02 -0.3 1.02 z" class="primitive"/>
              </g>
              <g transform="translate(35.21,88.33)" id="img-1e1d11d7-42">
                <path d="M-0.3,-0 L 0.3 -0 0.3 0 -0.3 0 z" class="primitive"/>
              </g>
              <g transform="translate(35.75,87.31)" id="img-1e1d11d7-43">
                <path d="M-0.3,-1.02 L 0.3 -1.02 0.3 1.02 -0.3 1.02 z" class="primitive"/>
              </g>
              <g transform="translate(36.29,88.33)" id="img-1e1d11d7-44">
                <path d="M-0.3,-0 L 0.3 -0 0.3 0 -0.3 0 z" class="primitive"/>
              </g>
              <g transform="translate(36.83,86.29)" id="img-1e1d11d7-45">
                <path d="M-0.3,-2.03 L 0.3 -2.03 0.3 2.03 -0.3 2.03 z" class="primitive"/>
              </g>
              <g transform="translate(37.37,85.28)" id="img-1e1d11d7-46">
                <path d="M-0.3,-3.05 L 0.3 -3.05 0.3 3.05 -0.3 3.05 z" class="primitive"/>
              </g>
              <g transform="translate(37.92,82.23)" id="img-1e1d11d7-47">
                <path d="M-0.3,-6.1 L 0.3 -6.1 0.3 6.1 -0.3 6.1 z" class="primitive"/>
              </g>
              <g transform="translate(38.46,85.28)" id="img-1e1d11d7-48">
                <path d="M-0.3,-3.05 L 0.3 -3.05 0.3 3.05 -0.3 3.05 z" class="primitive"/>
              </g>
              <g transform="translate(39,83.24)" id="img-1e1d11d7-49">
                <path d="M-0.3,-5.08 L 0.3 -5.08 0.3 5.08 -0.3 5.08 z" class="primitive"/>
              </g>
              <g transform="translate(39.54,82.23)" id="img-1e1d11d7-50">
                <path d="M-0.3,-6.1 L 0.3 -6.1 0.3 6.1 -0.3 6.1 z" class="primitive"/>
              </g>
              <g transform="translate(40.08,86.29)" id="img-1e1d11d7-51">
                <path d="M-0.3,-2.03 L 0.3 -2.03 0.3 2.03 -0.3 2.03 z" class="primitive"/>
              </g>
              <g transform="translate(40.63,83.24)" id="img-1e1d11d7-52">
                <path d="M-0.3,-5.08 L 0.3 -5.08 0.3 5.08 -0.3 5.08 z" class="primitive"/>
              </g>
              <g transform="translate(41.17,84.26)" id="img-1e1d11d7-53">
                <path d="M-0.3,-4.07 L 0.3 -4.07 0.3 4.07 -0.3 4.07 z" class="primitive"/>
              </g>
              <g transform="translate(41.71,83.24)" id="img-1e1d11d7-54">
                <path d="M-0.3,-5.08 L 0.3 -5.08 0.3 5.08 -0.3 5.08 z" class="primitive"/>
              </g>
              <g transform="translate(42.25,79.18)" id="img-1e1d11d7-55">
                <path d="M-0.3,-9.15 L 0.3 -9.15 0.3 9.15 -0.3 9.15 z" class="primitive"/>
              </g>
              <g transform="translate(42.79,81.21)" id="img-1e1d11d7-56">
                <path d="M-0.3,-7.12 L 0.3 -7.12 0.3 7.12 -0.3 7.12 z" class="primitive"/>
              </g>
              <g transform="translate(43.33,80.19)" id="img-1e1d11d7-57">
                <path d="M-0.3,-8.13 L 0.3 -8.13 0.3 8.13 -0.3 8.13 z" class="primitive"/>
              </g>
              <g transform="translate(43.88,78.16)" id="img-1e1d11d7-58">
                <path d="M-0.3,-10.17 L 0.3 -10.17 0.3 10.17 -0.3 10.17 z" class="primitive"/>
              </g>
              <g transform="translate(44.42,78.16)" id="img-1e1d11d7-59">
                <path d="M-0.3,-10.17 L 0.3 -10.17 0.3 10.17 -0.3 10.17 z" class="primitive"/>
              </g>
              <g transform="translate(44.96,79.18)" id="img-1e1d11d7-60">
                <path d="M-0.3,-9.15 L 0.3 -9.15 0.3 9.15 -0.3 9.15 z" class="primitive"/>
              </g>
              <g transform="translate(45.5,80.19)" id="img-1e1d11d7-61">
                <path d="M-0.3,-8.13 L 0.3 -8.13 0.3 8.13 -0.3 8.13 z" class="primitive"/>
              </g>
              <g transform="translate(46.04,74.09)" id="img-1e1d11d7-62">
                <path d="M-0.3,-14.23 L 0.3 -14.23 0.3 14.23 -0.3 14.23 z" class="primitive"/>
              </g>
              <g transform="translate(46.59,70.03)" id="img-1e1d11d7-63">
                <path d="M-0.3,-18.3 L 0.3 -18.3 0.3 18.3 -0.3 18.3 z" class="primitive"/>
              </g>
              <g transform="translate(47.13,76.13)" id="img-1e1d11d7-64">
                <path d="M-0.3,-12.2 L 0.3 -12.2 0.3 12.2 -0.3 12.2 z" class="primitive"/>
              </g>
              <g transform="translate(47.67,69.01)" id="img-1e1d11d7-65">
                <path d="M-0.3,-19.32 L 0.3 -19.32 0.3 19.32 -0.3 19.32 z" class="primitive"/>
              </g>
              <g transform="translate(48.21,75.11)" id="img-1e1d11d7-66">
                <path d="M-0.3,-13.22 L 0.3 -13.22 0.3 13.22 -0.3 13.22 z" class="primitive"/>
              </g>
              <g transform="translate(48.75,61.9)" id="img-1e1d11d7-67">
                <path d="M-0.3,-26.43 L 0.3 -26.43 0.3 26.43 -0.3 26.43 z" class="primitive"/>
              </g>
              <g transform="translate(49.29,73.08)" id="img-1e1d11d7-68">
                <path d="M-0.3,-15.25 L 0.3 -15.25 0.3 15.25 -0.3 15.25 z" class="primitive"/>
              </g>
              <g transform="translate(49.84,68)" id="img-1e1d11d7-69">
                <path d="M-0.3,-20.33 L 0.3 -20.33 0.3 20.33 -0.3 20.33 z" class="primitive"/>
              </g>
              <g transform="translate(50.38,62.91)" id="img-1e1d11d7-70">
                <path d="M-0.3,-25.41 L 0.3 -25.41 0.3 25.41 -0.3 25.41 z" class="primitive"/>
              </g>
              <g transform="translate(50.92,70.03)" id="img-1e1d11d7-71">
                <path d="M-0.3,-18.3 L 0.3 -18.3 0.3 18.3 -0.3 18.3 z" class="primitive"/>
              </g>
              <g transform="translate(51.46,64.95)" id="img-1e1d11d7-72">
                <path d="M-0.3,-23.38 L 0.3 -23.38 0.3 23.38 -0.3 23.38 z" class="primitive"/>
              </g>
              <g transform="translate(52,70.03)" id="img-1e1d11d7-73">
                <path d="M-0.3,-18.3 L 0.3 -18.3 0.3 18.3 -0.3 18.3 z" class="primitive"/>
              </g>
              <g transform="translate(52.55,57.83)" id="img-1e1d11d7-74">
                <path d="M-0.3,-30.5 L 0.3 -30.5 0.3 30.5 -0.3 30.5 z" class="primitive"/>
              </g>
              <g transform="translate(53.09,60.88)" id="img-1e1d11d7-75">
                <path d="M-0.3,-27.45 L 0.3 -27.45 0.3 27.45 -0.3 27.45 z" class="primitive"/>
              </g>
              <g transform="translate(53.63,55.8)" id="img-1e1d11d7-76">
                <path d="M-0.3,-32.53 L 0.3 -32.53 0.3 32.53 -0.3 32.53 z" class="primitive"/>
              </g>
              <g transform="translate(54.17,59.86)" id="img-1e1d11d7-77">
                <path d="M-0.3,-28.46 L 0.3 -28.46 0.3 28.46 -0.3 28.46 z" class="primitive"/>
              </g>
              <g transform="translate(54.71,60.88)" id="img-1e1d11d7-78">
                <path d="M-0.3,-27.45 L 0.3 -27.45 0.3 27.45 -0.3 27.45 z" class="primitive"/>
              </g>
              <g transform="translate(55.26,57.83)" id="img-1e1d11d7-79">
                <path d="M-0.3,-30.5 L 0.3 -30.5 0.3 30.5 -0.3 30.5 z" class="primitive"/>
              </g>
              <g transform="translate(55.8,53.76)" id="img-1e1d11d7-80">
                <path d="M-0.3,-34.56 L 0.3 -34.56 0.3 34.56 -0.3 34.56 z" class="primitive"/>
              </g>
              <g transform="translate(56.34,63.93)" id="img-1e1d11d7-81">
                <path d="M-0.3,-24.4 L 0.3 -24.4 0.3 24.4 -0.3 24.4 z" class="primitive"/>
              </g>
              <g transform="translate(56.88,62.91)" id="img-1e1d11d7-82">
                <path d="M-0.3,-25.41 L 0.3 -25.41 0.3 25.41 -0.3 25.41 z" class="primitive"/>
              </g>
              <g transform="translate(57.42,59.86)" id="img-1e1d11d7-83">
                <path d="M-0.3,-28.46 L 0.3 -28.46 0.3 28.46 -0.3 28.46 z" class="primitive"/>
              </g>
              <g transform="translate(57.96,70.03)" id="img-1e1d11d7-84">
                <path d="M-0.3,-18.3 L 0.3 -18.3 0.3 18.3 -0.3 18.3 z" class="primitive"/>
              </g>
              <g transform="translate(58.51,61.9)" id="img-1e1d11d7-85">
                <path d="M-0.3,-26.43 L 0.3 -26.43 0.3 26.43 -0.3 26.43 z" class="primitive"/>
              </g>
              <g transform="translate(59.05,61.9)" id="img-1e1d11d7-86">
                <path d="M-0.3,-26.43 L 0.3 -26.43 0.3 26.43 -0.3 26.43 z" class="primitive"/>
              </g>
              <g transform="translate(59.59,62.91)" id="img-1e1d11d7-87">
                <path d="M-0.3,-25.41 L 0.3 -25.41 0.3 25.41 -0.3 25.41 z" class="primitive"/>
              </g>
              <g transform="translate(60.13,68)" id="img-1e1d11d7-88">
                <path d="M-0.3,-20.33 L 0.3 -20.33 0.3 20.33 -0.3 20.33 z" class="primitive"/>
              </g>
              <g transform="translate(60.67,71.04)" id="img-1e1d11d7-89">
                <path d="M-0.3,-17.28 L 0.3 -17.28 0.3 17.28 -0.3 17.28 z" class="primitive"/>
              </g>
              <g transform="translate(61.22,64.95)" id="img-1e1d11d7-90">
                <path d="M-0.3,-23.38 L 0.3 -23.38 0.3 23.38 -0.3 23.38 z" class="primitive"/>
              </g>
              <g transform="translate(61.76,71.04)" id="img-1e1d11d7-91">
                <path d="M-0.3,-17.28 L 0.3 -17.28 0.3 17.28 -0.3 17.28 z" class="primitive"/>
              </g>
              <g transform="translate(62.3,71.04)" id="img-1e1d11d7-92">
                <path d="M-0.3,-17.28 L 0.3 -17.28 0.3 17.28 -0.3 17.28 z" class="primitive"/>
              </g>
              <g transform="translate(62.84,72.06)" id="img-1e1d11d7-93">
                <path d="M-0.3,-16.27 L 0.3 -16.27 0.3 16.27 -0.3 16.27 z" class="primitive"/>
              </g>
              <g transform="translate(63.38,64.95)" id="img-1e1d11d7-94">
                <path d="M-0.3,-23.38 L 0.3 -23.38 0.3 23.38 -0.3 23.38 z" class="primitive"/>
              </g>
              <g transform="translate(63.92,80.19)" id="img-1e1d11d7-95">
                <path d="M-0.3,-8.13 L 0.3 -8.13 0.3 8.13 -0.3 8.13 z" class="primitive"/>
              </g>
              <g transform="translate(64.47,75.11)" id="img-1e1d11d7-96">
                <path d="M-0.3,-13.22 L 0.3 -13.22 0.3 13.22 -0.3 13.22 z" class="primitive"/>
              </g>
              <g transform="translate(65.01,71.04)" id="img-1e1d11d7-97">
                <path d="M-0.3,-17.28 L 0.3 -17.28 0.3 17.28 -0.3 17.28 z" class="primitive"/>
              </g>
              <g transform="translate(65.55,82.23)" id="img-1e1d11d7-98">
                <path d="M-0.3,-6.1 L 0.3 -6.1 0.3 6.1 -0.3 6.1 z" class="primitive"/>
              </g>
              <g transform="translate(66.09,75.11)" id="img-1e1d11d7-99">
                <path d="M-0.3,-13.22 L 0.3 -13.22 0.3 13.22 -0.3 13.22 z" class="primitive"/>
              </g>
              <g transform="translate(66.63,75.11)" id="img-1e1d11d7-100">
                <path d="M-0.3,-13.22 L 0.3 -13.22 0.3 13.22 -0.3 13.22 z" class="primitive"/>
              </g>
              <g transform="translate(67.18,77.14)" id="img-1e1d11d7-101">
                <path d="M-0.3,-11.18 L 0.3 -11.18 0.3 11.18 -0.3 11.18 z" class="primitive"/>
              </g>
              <g transform="translate(67.72,78.16)" id="img-1e1d11d7-102">
                <path d="M-0.3,-10.17 L 0.3 -10.17 0.3 10.17 -0.3 10.17 z" class="primitive"/>
              </g>
              <g transform="translate(68.26,83.24)" id="img-1e1d11d7-103">
                <path d="M-0.3,-5.08 L 0.3 -5.08 0.3 5.08 -0.3 5.08 z" class="primitive"/>
              </g>
              <g transform="translate(68.8,85.28)" id="img-1e1d11d7-104">
                <path d="M-0.3,-3.05 L 0.3 -3.05 0.3 3.05 -0.3 3.05 z" class="primitive"/>
              </g>
              <g transform="translate(69.34,82.23)" id="img-1e1d11d7-105">
                <path d="M-0.3,-6.1 L 0.3 -6.1 0.3 6.1 -0.3 6.1 z" class="primitive"/>
              </g>
              <g transform="translate(69.88,81.21)" id="img-1e1d11d7-106">
                <path d="M-0.3,-7.12 L 0.3 -7.12 0.3 7.12 -0.3 7.12 z" class="primitive"/>
              </g>
              <g transform="translate(70.43,83.24)" id="img-1e1d11d7-107">
                <path d="M-0.3,-5.08 L 0.3 -5.08 0.3 5.08 -0.3 5.08 z" class="primitive"/>
              </g>
              <g transform="translate(70.97,84.26)" id="img-1e1d11d7-108">
                <path d="M-0.3,-4.07 L 0.3 -4.07 0.3 4.07 -0.3 4.07 z" class="primitive"/>
              </g>
              <g transform="translate(71.51,85.28)" id="img-1e1d11d7-109">
                <path d="M-0.3,-3.05 L 0.3 -3.05 0.3 3.05 -0.3 3.05 z" class="primitive"/>
              </g>
              <g transform="translate(72.05,84.26)" id="img-1e1d11d7-110">
                <path d="M-0.3,-4.07 L 0.3 -4.07 0.3 4.07 -0.3 4.07 z" class="primitive"/>
              </g>
              <g transform="translate(72.59,86.29)" id="img-1e1d11d7-111">
                <path d="M-0.3,-2.03 L 0.3 -2.03 0.3 2.03 -0.3 2.03 z" class="primitive"/>
              </g>
              <g transform="translate(73.14,84.26)" id="img-1e1d11d7-112">
                <path d="M-0.3,-4.07 L 0.3 -4.07 0.3 4.07 -0.3 4.07 z" class="primitive"/>
              </g>
              <g transform="translate(73.68,83.24)" id="img-1e1d11d7-113">
                <path d="M-0.3,-5.08 L 0.3 -5.08 0.3 5.08 -0.3 5.08 z" class="primitive"/>
              </g>
              <g transform="translate(74.22,85.28)" id="img-1e1d11d7-114">
                <path d="M-0.3,-3.05 L 0.3 -3.05 0.3 3.05 -0.3 3.05 z" class="primitive"/>
              </g>
              <g transform="translate(74.76,84.26)" id="img-1e1d11d7-115">
                <path d="M-0.3,-4.07 L 0.3 -4.07 0.3 4.07 -0.3 4.07 z" class="primitive"/>
              </g>
              <g transform="translate(75.3,88.33)" id="img-1e1d11d7-116">
                <path d="M-0.3,-0 L 0.3 -0 0.3 0 -0.3 0 z" class="primitive"/>
              </g>
              <g transform="translate(75.85,87.31)" id="img-1e1d11d7-117">
                <path d="M-0.3,-1.02 L 0.3 -1.02 0.3 1.02 -0.3 1.02 z" class="primitive"/>
              </g>
              <g transform="translate(76.39,87.31)" id="img-1e1d11d7-118">
                <path d="M-0.3,-1.02 L 0.3 -1.02 0.3 1.02 -0.3 1.02 z" class="primitive"/>
              </g>
              <g transform="translate(76.93,88.33)" id="img-1e1d11d7-119">
                <path d="M-0.3,-0 L 0.3 -0 0.3 0 -0.3 0 z" class="primitive"/>
              </g>
              <g transform="translate(77.47,87.31)" id="img-1e1d11d7-120">
                <path d="M-0.3,-1.02 L 0.3 -1.02 0.3 1.02 -0.3 1.02 z" class="primitive"/>
              </g>
              <g transform="translate(78.01,86.29)" id="img-1e1d11d7-121">
                <path d="M-0.3,-2.03 L 0.3 -2.03 0.3 2.03 -0.3 2.03 z" class="primitive"/>
              </g>
              <g transform="translate(78.55,88.33)" id="img-1e1d11d7-122">
                <path d="M-0.3,-0 L 0.3 -0 0.3 0 -0.3 0 z" class="primitive"/>
              </g>
              <g transform="translate(79.1,86.29)" id="img-1e1d11d7-123">
                <path d="M-0.3,-2.03 L 0.3 -2.03 0.3 2.03 -0.3 2.03 z" class="primitive"/>
              </g>
              <g transform="translate(79.64,88.33)" id="img-1e1d11d7-124">
                <path d="M-0.3,-0 L 0.3 -0 0.3 0 -0.3 0 z" class="primitive"/>
              </g>
              <g transform="translate(80.18,88.33)" id="img-1e1d11d7-125">
                <path d="M-0.3,-0 L 0.3 -0 0.3 0 -0.3 0 z" class="primitive"/>
              </g>
              <g transform="translate(80.72,88.33)" id="img-1e1d11d7-126">
                <path d="M-0.3,-0 L 0.3 -0 0.3 0 -0.3 0 z" class="primitive"/>
              </g>
              <g transform="translate(81.26,88.33)" id="img-1e1d11d7-127">
                <path d="M-0.3,-0 L 0.3 -0 0.3 0 -0.3 0 z" class="primitive"/>
              </g>
              <g transform="translate(81.81,87.31)" id="img-1e1d11d7-128">
                <path d="M-0.3,-1.02 L 0.3 -1.02 0.3 1.02 -0.3 1.02 z" class="primitive"/>
              </g>
              <g transform="translate(82.35,88.33)" id="img-1e1d11d7-129">
                <path d="M-0.3,-0 L 0.3 -0 0.3 0 -0.3 0 z" class="primitive"/>
              </g>
              <g transform="translate(82.89,87.31)" id="img-1e1d11d7-130">
                <path d="M-0.3,-1.02 L 0.3 -1.02 0.3 1.02 -0.3 1.02 z" class="primitive"/>
              </g>
            </g>
          </g>
        </g>
      </g>
    </g>
  </g>
  <g class="guide ylabels" font-size="2.82" font-family="'PT Sans Caption','Helvetica Neue','Helvetica',sans-serif" fill="#6C606B" id="img-1e1d11d7-131">
    <g transform="translate(16.96,88.33)" id="img-1e1d11d7-132">
      <g class="primitive">
        <text text-anchor="end" dy="0.35em">0</text>
      </g>
    </g>
    <g transform="translate(16.96,68)" id="img-1e1d11d7-133">
      <g class="primitive">
        <text text-anchor="end" dy="0.35em">10</text>
      </g>
    </g>
    <g transform="translate(16.96,47.66)" id="img-1e1d11d7-134">
      <g class="primitive">
        <text text-anchor="end" dy="0.35em">20</text>
      </g>
    </g>
    <g transform="translate(16.96,27.33)" id="img-1e1d11d7-135">
      <g class="primitive">
        <text text-anchor="end" dy="0.35em">30</text>
      </g>
    </g>
    <g transform="translate(16.96,7)" id="img-1e1d11d7-136">
      <g class="primitive">
        <text text-anchor="end" dy="0.35em">40</text>
      </g>
    </g>
  </g>
  <g font-size="3.88" font-family="'PT Sans','Helvetica Neue','Helvetica',sans-serif" fill="#564A55" stroke="#000000" stroke-opacity="0.000" id="img-1e1d11d7-137">
    <g transform="translate(8.81,45.66)" id="img-1e1d11d7-138">
      <g class="primitive">
        <text text-anchor="middle" dy="0.35em" transform="rotate(-90,0, 2)">frequency</text>
      </g>
    </g>
  </g>
</g>
<defs>
  <clipPath id="img-1e1d11d7-11">
    <path d="M17.96,5 L 88.48 5 88.48 90.33 17.96 90.33" />
  </clipPath>
</defs>
</svg>
