<?xml version="1.0" encoding="UTF-8"?>
<svg xmlns="http://www.w3.org/2000/svg"
     xmlns:xlink="http://www.w3.org/1999/xlink"
     xmlns:gadfly="http://www.gadflyjl.org/ns"
     version="1.2"
     width="141.42mm" height="100mm" viewBox="0 0 141.42 100"
     stroke="none"
     fill="#000000"
     stroke-width="0.3"
     font-size="3.88"
>
<defs>
  <marker id="arrow" markerWidth="15" markerHeight="7" refX="5" refY="3.5" orient="auto" markerUnits="strokeWidth">
    <path d="M0,0 L15,3.5 L0,7 z" stroke="context-stroke" fill="context-stroke"/>
  </marker>
</defs>
<g class="plotroot xscalable yscalable" id="img-5b0c45ed-1">
  <g class="guide xlabels" font-size="2.82" font-family="'PT Sans Caption','Helvetica Neue','Helvetica',sans-serif" fill="#6C606B" id="img-5b0c45ed-2">
    <g transform="translate(19.96,91.33)">
      <g class="primitive">
        <text text-anchor="middle" dy="0.6em">0</text>
      </g>
    </g>
    <g transform="translate(33.72,91.33)">
      <g class="primitive">
        <text text-anchor="middle" dy="0.6em">500</text>
      </g>
    </g>
    <g transform="translate(47.48,91.33)">
      <g class="primitive">
        <text text-anchor="middle" dy="0.6em">1000</text>
      </g>
    </g>
    <g transform="translate(61.24,91.33)">
      <g class="primitive">
        <text text-anchor="middle" dy="0.6em">1500</text>
      </g>
    </g>
    <g transform="translate(74.99,91.33)">
      <g class="primitive">
        <text text-anchor="middle" dy="0.6em">2000</text>
      </g>
    </g>
  </g>
  <g class="guide colorkey" id="img-5b0c45ed-3">
    <g class="color_coding_noncoding_noncoding_coding_4-chord" id="img-5b0c45ed-4">
      <g fill="#4C404B" font-size="2.82" font-family="'PT Sans','Helvetica Neue','Helvetica',sans-serif" id="img-5b0c45ed-5">
        <g transform="translate(80.81,49.48)" id="img-5b0c45ed-6">
          <g class="primitive">
            <text dy="0.35em">coding_noncoding_noncoding_coding_4-chord</text>
          </g>
        </g>
      </g>
      <g fill-opacity="1" fill="#00BFFF" stroke="#FFFFFF" id="img-5b0c45ed-7">
        <g transform="translate(78.9,49.48)" id="img-5b0c45ed-8">
          <path d="M-0.91,-0.91 L 0.91 -0.91 0.91 0.91 -0.91 0.91 z" class="primitive"/>
        </g>
      </g>
    </g>
    <g fill="#362A35" font-size="3.88" font-family="'PT Sans','Helvetica Neue','Helvetica',sans-serif" stroke="#000000" stroke-opacity="0.000" id="img-5b0c45ed-9">
      <g transform="translate(77.99,45.66)" id="img-5b0c45ed-10">
        <g class="primitive">
          <text dy="-0em">graphlet</text>
        </g>
      </g>
    </g>
  </g>
  <g clip-path="url(#img-5b0c45ed-11)">
    <g id="img-5b0c45ed-12">
      <g pointer-events="visible" stroke-width="0.3" fill="#000000" fill-opacity="0.000" stroke="#000000" stroke-opacity="0.000" class="guide background" id="img-5b0c45ed-13">
        <g transform="translate(47.48,47.66)" id="img-5b0c45ed-14">
          <path d="M-29.52,-42.66 L 29.52 -42.66 29.52 42.66 -29.52 42.66 z" class="primitive"/>
        </g>
      </g>
      <g class="guide ygridlines xfixed" stroke-dasharray="0.5,0.5" stroke-width="0.2" stroke="#D0D0E0" id="img-5b0c45ed-15">
        <g transform="translate(47.48,88.33)" id="img-5b0c45ed-16">
          <path fill="none" d="M-29.52,0 L 29.52 0" class="primitive"/>
        </g>
        <g transform="translate(47.48,61.22)" id="img-5b0c45ed-17">
          <path fill="none" d="M-29.52,0 L 29.52 0" class="primitive"/>
        </g>
        <g transform="translate(47.48,34.11)" id="img-5b0c45ed-18">
          <path fill="none" d="M-29.52,0 L 29.52 0" class="primitive"/>
        </g>
        <g transform="translate(47.48,7)" id="img-5b0c45ed-19">
          <path fill="none" d="M-29.52,0 L 29.52 0" class="primitive"/>
        </g>
      </g>
      <g class="guide xgridlines yfixed" stroke-dasharray="0.5,0.5" stroke-width="0.2" stroke="#D0D0E0" id="img-5b0c45ed-20">
        <g transform="translate(19.96,47.66)" id="img-5b0c45ed-21">
          <path fill="none" d="M0,-42.66 L 0 42.66" class="primitive"/>
        </g>
        <g transform="translate(33.72,47.66)" id="img-5b0c45ed-22">
          <path fill="none" d="M0,-42.66 L 0 42.66" class="primitive"/>
        </g>
        <g transform="translate(47.48,47.66)" id="img-5b0c45ed-23">
          <path fill="none" d="M0,-42.66 L 0 42.66" class="primitive"/>
        </g>
        <g transform="translate(61.24,47.66)" id="img-5b0c45ed-24">
          <path fill="none" d="M0,-42.66 L 0 42.66" class="primitive"/>
        </g>
        <g transform="translate(74.99,47.66)" id="img-5b0c45ed-25">
          <path fill="none" d="M0,-42.66 L 0 42.66" class="primitive"/>
        </g>
      </g>
      <g class="plotpanel" id="img-5b0c45ed-26">
        <metadata>
          <boundingbox value="17.958333333333336mm 5.0mm 59.0363562373095mm 85.32666666666667mm"/>
          <unitbox value="-72.67923012113172 30.737765390605787 2145.3584602422634 -31.475530781211575"/>
        </metadata>
        <g shape-rendering="crispEdges" stroke-width="0.3" id="img-5b0c45ed-27">
          <g stroke="#000000" stroke-opacity="0.000" class="geometry" id="img-5b0c45ed-28">
            <g fill="#00BFFF" id="img-5b0c45ed-29">
              <g transform="translate(32.42,86.97)" id="img-5b0c45ed-30">
                <path d="M-0.22,-1.36 L 0.22 -1.36 0.22 1.36 -0.22 1.36 z" class="primitive"/>
              </g>
              <g transform="translate(32.8,88.33)" id="img-5b0c45ed-31">
                <path d="M-0.22,-0 L 0.22 -0 0.22 0 -0.22 0 z" class="primitive"/>
              </g>
              <g transform="translate(33.18,88.33)" id="img-5b0c45ed-32">
                <path d="M-0.22,-0 L 0.22 -0 0.22 0 -0.22 0 z" class="primitive"/>
              </g>
              <g transform="translate(33.57,88.33)" id="img-5b0c45ed-33">
                <path d="M-0.22,-0 L 0.22 -0 0.22 0 -0.22 0 z" class="primitive"/>
              </g>
              <g transform="translate(33.95,86.97)" id="img-5b0c45ed-34">
                <path d="M-0.22,-1.36 L 0.22 -1.36 0.22 1.36 -0.22 1.36 z" class="primitive"/>
              </g>
              <g transform="translate(34.33,86.97)" id="img-5b0c45ed-35">
                <path d="M-0.22,-1.36 L 0.22 -1.36 0.22 1.36 -0.22 1.36 z" class="primitive"/>
              </g>
              <g transform="translate(34.71,88.33)" id="img-5b0c45ed-36">
                <path d="M-0.22,-0 L 0.22 -0 0.22 0 -0.22 0 z" class="primitive"/>
              </g>
              <g transform="translate(35.09,86.97)" id="img-5b0c45ed-37">
                <path d="M-0.22,-1.36 L 0.22 -1.36 0.22 1.36 -0.22 1.36 z" class="primitive"/>
              </g>
              <g transform="translate(35.47,88.33)" id="img-5b0c45ed-38">
                <path d="M-0.22,-0 L 0.22 -0 0.22 0 -0.22 0 z" class="primitive"/>
              </g>
              <g transform="translate(35.85,88.33)" id="img-5b0c45ed-39">
                <path d="M-0.22,-0 L 0.22 -0 0.22 0 -0.22 0 z" class="primitive"/>
              </g>
              <g transform="translate(36.23,82.9)" id="img-5b0c45ed-40">
                <path d="M-0.22,-5.42 L 0.22 -5.42 0.22 5.42 -0.22 5.42 z" class="primitive"/>
              </g>
              <g transform="translate(36.61,84.26)" id="img-5b0c45ed-41">
                <path d="M-0.22,-4.07 L 0.22 -4.07 0.22 4.07 -0.22 4.07 z" class="primitive"/>
              </g>
              <g transform="translate(37,80.19)" id="img-5b0c45ed-42">
                <path d="M-0.22,-8.13 L 0.22 -8.13 0.22 8.13 -0.22 8.13 z" class="primitive"/>
              </g>
              <g transform="translate(37.38,81.55)" id="img-5b0c45ed-43">
                <path d="M-0.22,-6.78 L 0.22 -6.78 0.22 6.78 -0.22 6.78 z" class="primitive"/>
              </g>
              <g transform="translate(37.76,81.55)" id="img-5b0c45ed-44">
                <path d="M-0.22,-6.78 L 0.22 -6.78 0.22 6.78 -0.22 6.78 z" class="primitive"/>
              </g>
              <g transform="translate(38.14,82.9)" id="img-5b0c45ed-45">
                <path d="M-0.22,-5.42 L 0.22 -5.42 0.22 5.42 -0.22 5.42 z" class="primitive"/>
              </g>
              <g transform="translate(38.52,80.19)" id="img-5b0c45ed-46">
                <path d="M-0.22,-8.13 L 0.22 -8.13 0.22 8.13 -0.22 8.13 z" class="primitive"/>
              </g>
              <g transform="translate(38.9,78.84)" id="img-5b0c45ed-47">
                <path d="M-0.22,-9.49 L 0.22 -9.49 0.22 9.49 -0.22 9.49 z" class="primitive"/>
              </g>
              <g transform="translate(39.28,81.55)" id="img-5b0c45ed-48">
                <path d="M-0.22,-6.78 L 0.22 -6.78 0.22 6.78 -0.22 6.78 z" class="primitive"/>
              </g>
              <g transform="translate(39.66,77.48)" id="img-5b0c45ed-49">
                <path d="M-0.22,-10.84 L 0.22 -10.84 0.22 10.84 -0.22 10.84 z" class="primitive"/>
              </g>
              <g transform="translate(40.04,77.48)" id="img-5b0c45ed-50">
                <path d="M-0.22,-10.84 L 0.22 -10.84 0.22 10.84 -0.22 10.84 z" class="primitive"/>
              </g>
              <g transform="translate(40.43,73.42)" id="img-5b0c45ed-51">
                <path d="M-0.22,-14.91 L 0.22 -14.91 0.22 14.91 -0.22 14.91 z" class="primitive"/>
              </g>
              <g transform="translate(40.81,78.84)" id="img-5b0c45ed-52">
                <path d="M-0.22,-9.49 L 0.22 -9.49 0.22 9.49 -0.22 9.49 z" class="primitive"/>
              </g>
              <g transform="translate(41.19,69.35)" id="img-5b0c45ed-53">
                <path d="M-0.22,-18.98 L 0.22 -18.98 0.22 18.98 -0.22 18.98 z" class="primitive"/>
              </g>
              <g transform="translate(41.57,76.13)" id="img-5b0c45ed-54">
                <path d="M-0.22,-12.2 L 0.22 -12.2 0.22 12.2 -0.22 12.2 z" class="primitive"/>
              </g>
              <g transform="translate(41.95,69.35)" id="img-5b0c45ed-55">
                <path d="M-0.22,-18.98 L 0.22 -18.98 0.22 18.98 -0.22 18.98 z" class="primitive"/>
              </g>
              <g transform="translate(42.33,74.77)" id="img-5b0c45ed-56">
                <path d="M-0.22,-13.55 L 0.22 -13.55 0.22 13.55 -0.22 13.55 z" class="primitive"/>
              </g>
              <g transform="translate(42.71,69.35)" id="img-5b0c45ed-57">
                <path d="M-0.22,-18.98 L 0.22 -18.98 0.22 18.98 -0.22 18.98 z" class="primitive"/>
              </g>
              <g transform="translate(43.09,68)" id="img-5b0c45ed-58">
                <path d="M-0.22,-20.33 L 0.22 -20.33 0.22 20.33 -0.22 20.33 z" class="primitive"/>
              </g>
              <g transform="translate(43.47,65.28)" id="img-5b0c45ed-59">
                <path d="M-0.22,-23.04 L 0.22 -23.04 0.22 23.04 -0.22 23.04 z" class="primitive"/>
              </g>
              <g transform="translate(43.86,59.86)" id="img-5b0c45ed-60">
                <path d="M-0.22,-28.46 L 0.22 -28.46 0.22 28.46 -0.22 28.46 z" class="primitive"/>
              </g>
              <g transform="translate(44.24,59.86)" id="img-5b0c45ed-61">
                <path d="M-0.22,-28.46 L 0.22 -28.46 0.22 28.46 -0.22 28.46 z" class="primitive"/>
              </g>
              <g transform="translate(44.62,66.64)" id="img-5b0c45ed-62">
                <path d="M-0.22,-21.69 L 0.22 -21.69 0.22 21.69 -0.22 21.69 z" class="primitive"/>
              </g>
              <g transform="translate(45,61.22)" id="img-5b0c45ed-63">
                <path d="M-0.22,-27.11 L 0.22 -27.11 0.22 27.11 -0.22 27.11 z" class="primitive"/>
              </g>
              <g transform="translate(45.38,51.73)" id="img-5b0c45ed-64">
                <path d="M-0.22,-36.6 L 0.22 -36.6 0.22 36.6 -0.22 36.6 z" class="primitive"/>
              </g>
              <g transform="translate(45.76,58.51)" id="img-5b0c45ed-65">
                <path d="M-0.22,-29.82 L 0.22 -29.82 0.22 29.82 -0.22 29.82 z" class="primitive"/>
              </g>
              <g transform="translate(46.14,50.37)" id="img-5b0c45ed-66">
                <path d="M-0.22,-37.95 L 0.22 -37.95 0.22 37.95 -0.22 37.95 z" class="primitive"/>
              </g>
              <g transform="translate(46.52,72.06)" id="img-5b0c45ed-67">
                <path d="M-0.22,-16.27 L 0.22 -16.27 0.22 16.27 -0.22 16.27 z" class="primitive"/>
              </g>
              <g transform="translate(46.9,63.93)" id="img-5b0c45ed-68">
                <path d="M-0.22,-24.4 L 0.22 -24.4 0.22 24.4 -0.22 24.4 z" class="primitive"/>
              </g>
              <g transform="translate(47.29,57.15)" id="img-5b0c45ed-69">
                <path d="M-0.22,-31.18 L 0.22 -31.18 0.22 31.18 -0.22 31.18 z" class="primitive"/>
              </g>
              <g transform="translate(47.67,49.02)" id="img-5b0c45ed-70">
                <path d="M-0.22,-39.31 L 0.22 -39.31 0.22 39.31 -0.22 39.31 z" class="primitive"/>
              </g>
              <g transform="translate(48.05,62.57)" id="img-5b0c45ed-71">
                <path d="M-0.22,-25.75 L 0.22 -25.75 0.22 25.75 -0.22 25.75 z" class="primitive"/>
              </g>
              <g transform="translate(48.43,49.02)" id="img-5b0c45ed-72">
                <path d="M-0.22,-39.31 L 0.22 -39.31 0.22 39.31 -0.22 39.31 z" class="primitive"/>
              </g>
              <g transform="translate(48.81,68)" id="img-5b0c45ed-73">
                <path d="M-0.22,-20.33 L 0.22 -20.33 0.22 20.33 -0.22 20.33 z" class="primitive"/>
              </g>
              <g transform="translate(49.19,62.57)" id="img-5b0c45ed-74">
                <path d="M-0.22,-25.75 L 0.22 -25.75 0.22 25.75 -0.22 25.75 z" class="primitive"/>
              </g>
              <g transform="translate(49.57,61.22)" id="img-5b0c45ed-75">
                <path d="M-0.22,-27.11 L 0.22 -27.11 0.22 27.11 -0.22 27.11 z" class="primitive"/>
              </g>
              <g transform="translate(49.95,68)" id="img-5b0c45ed-76">
                <path d="M-0.22,-20.33 L 0.22 -20.33 0.22 20.33 -0.22 20.33 z" class="primitive"/>
              </g>
              <g transform="translate(50.33,51.73)" id="img-5b0c45ed-77">
                <path d="M-0.22,-36.6 L 0.22 -36.6 0.22 36.6 -0.22 36.6 z" class="primitive"/>
              </g>
              <g transform="translate(50.72,55.8)" id="img-5b0c45ed-78">
                <path d="M-0.22,-32.53 L 0.22 -32.53 0.22 32.53 -0.22 32.53 z" class="primitive"/>
              </g>
              <g transform="translate(51.1,58.51)" id="img-5b0c45ed-79">
                <path d="M-0.22,-29.82 L 0.22 -29.82 0.22 29.82 -0.22 29.82 z" class="primitive"/>
              </g>
              <g transform="translate(51.48,54.44)" id="img-5b0c45ed-80">
                <path d="M-0.22,-33.89 L 0.22 -33.89 0.22 33.89 -0.22 33.89 z" class="primitive"/>
              </g>
              <g transform="translate(51.86,57.15)" id="img-5b0c45ed-81">
                <path d="M-0.22,-31.18 L 0.22 -31.18 0.22 31.18 -0.22 31.18 z" class="primitive"/>
              </g>
              <g transform="translate(52.24,47.66)" id="img-5b0c45ed-82">
                <path d="M-0.22,-40.66 L 0.22 -40.66 0.22 40.66 -0.22 40.66 z" class="primitive"/>
              </g>
              <g transform="translate(52.62,68)" id="img-5b0c45ed-83">
                <path d="M-0.22,-20.33 L 0.22 -20.33 0.22 20.33 -0.22 20.33 z" class="primitive"/>
              </g>
              <g transform="translate(53,65.28)" id="img-5b0c45ed-84">
                <path d="M-0.22,-23.04 L 0.22 -23.04 0.22 23.04 -0.22 23.04 z" class="primitive"/>
              </g>
              <g transform="translate(53.38,59.86)" id="img-5b0c45ed-85">
                <path d="M-0.22,-28.46 L 0.22 -28.46 0.22 28.46 -0.22 28.46 z" class="primitive"/>
              </g>
              <g transform="translate(53.77,65.28)" id="img-5b0c45ed-86">
                <path d="M-0.22,-23.04 L 0.22 -23.04 0.22 23.04 -0.22 23.04 z" class="primitive"/>
              </g>
              <g transform="translate(54.15,65.28)" id="img-5b0c45ed-87">
                <path d="M-0.22,-23.04 L 0.22 -23.04 0.22 23.04 -0.22 23.04 z" class="primitive"/>
              </g>
              <g transform="translate(54.53,59.86)" id="img-5b0c45ed-88">
                <path d="M-0.22,-28.46 L 0.22 -28.46 0.22 28.46 -0.22 28.46 z" class="primitive"/>
              </g>
              <g transform="translate(54.91,63.93)" id="img-5b0c45ed-89">
                <path d="M-0.22,-24.4 L 0.22 -24.4 0.22 24.4 -0.22 24.4 z" class="primitive"/>
              </g>
              <g transform="translate(55.29,70.71)" id="img-5b0c45ed-90">
                <path d="M-0.22,-17.62 L 0.22 -17.62 0.22 17.62 -0.22 17.62 z" class="primitive"/>
              </g>
              <g transform="translate(55.67,69.35)" id="img-5b0c45ed-91">
                <path d="M-0.22,-18.98 L 0.22 -18.98 0.22 18.98 -0.22 18.98 z" class="primitive"/>
              </g>
              <g transform="translate(56.05,70.71)" id="img-5b0c45ed-92">
                <path d="M-0.22,-17.62 L 0.22 -17.62 0.22 17.62 -0.22 17.62 z" class="primitive"/>
              </g>
              <g transform="translate(56.43,72.06)" id="img-5b0c45ed-93">
                <path d="M-0.22,-16.27 L 0.22 -16.27 0.22 16.27 -0.22 16.27 z" class="primitive"/>
              </g>
              <g transform="translate(56.81,66.64)" id="img-5b0c45ed-94">
                <path d="M-0.22,-21.69 L 0.22 -21.69 0.22 21.69 -0.22 21.69 z" class="primitive"/>
              </g>
              <g transform="translate(57.2,74.77)" id="img-5b0c45ed-95">
                <path d="M-0.22,-13.55 L 0.22 -13.55 0.22 13.55 -0.22 13.55 z" class="primitive"/>
              </g>
              <g transform="translate(57.58,77.48)" id="img-5b0c45ed-96">
                <path d="M-0.22,-10.84 L 0.22 -10.84 0.22 10.84 -0.22 10.84 z" class="primitive"/>
              </g>
              <g transform="translate(57.96,80.19)" id="img-5b0c45ed-97">
                <path d="M-0.22,-8.13 L 0.22 -8.13 0.22 8.13 -0.22 8.13 z" class="primitive"/>
              </g>
              <g transform="translate(58.34,73.42)" id="img-5b0c45ed-98">
                <path d="M-0.22,-14.91 L 0.22 -14.91 0.22 14.91 -0.22 14.91 z" class="primitive"/>
              </g>
              <g transform="translate(58.72,73.42)" id="img-5b0c45ed-99">
                <path d="M-0.22,-14.91 L 0.22 -14.91 0.22 14.91 -0.22 14.91 z" class="primitive"/>
              </g>
              <g transform="translate(59.1,76.13)" id="img-5b0c45ed-100">
                <path d="M-0.22,-12.2 L 0.22 -12.2 0.22 12.2 -0.22 12.2 z" class="primitive"/>
              </g>
              <g transform="translate(59.48,84.26)" id="img-5b0c45ed-101">
                <path d="M-0.22,-4.07 L 0.22 -4.07 0.22 4.07 -0.22 4.07 z" class="primitive"/>
              </g>
              <g transform="translate(59.86,77.48)" id="img-5b0c45ed-102">
                <path d="M-0.22,-10.84 L 0.22 -10.84 0.22 10.84 -0.22 10.84 z" class="primitive"/>
              </g>
              <g transform="translate(60.24,80.19)" id="img-5b0c45ed-103">
                <path d="M-0.22,-8.13 L 0.22 -8.13 0.22 8.13 -0.22 8.13 z" class="primitive"/>
              </g>
              <g transform="translate(60.63,73.42)" id="img-5b0c45ed-104">
                <path d="M-0.22,-14.91 L 0.22 -14.91 0.22 14.91 -0.22 14.91 z" class="primitive"/>
              </g>
              <g transform="translate(61.01,84.26)" id="img-5b0c45ed-105">
                <path d="M-0.22,-4.07 L 0.22 -4.07 0.22 4.07 -0.22 4.07 z" class="primitive"/>
              </g>
              <g transform="translate(61.39,84.26)" id="img-5b0c45ed-106">
                <path d="M-0.22,-4.07 L 0.22 -4.07 0.22 4.07 -0.22 4.07 z" class="primitive"/>
              </g>
              <g transform="translate(61.77,85.62)" id="img-5b0c45ed-107">
                <path d="M-0.22,-2.71 L 0.22 -2.71 0.22 2.71 -0.22 2.71 z" class="primitive"/>
              </g>
              <g transform="translate(62.15,85.62)" id="img-5b0c45ed-108">
                <path d="M-0.22,-2.71 L 0.22 -2.71 0.22 2.71 -0.22 2.71 z" class="primitive"/>
              </g>
              <g transform="translate(62.53,84.26)" id="img-5b0c45ed-109">
                <path d="M-0.22,-4.07 L 0.22 -4.07 0.22 4.07 -0.22 4.07 z" class="primitive"/>
              </g>
              <g transform="translate(62.91,84.26)" id="img-5b0c45ed-110">
                <path d="M-0.22,-4.07 L 0.22 -4.07 0.22 4.07 -0.22 4.07 z" class="primitive"/>
              </g>
              <g transform="translate(63.29,85.62)" id="img-5b0c45ed-111">
                <path d="M-0.22,-2.71 L 0.22 -2.71 0.22 2.71 -0.22 2.71 z" class="primitive"/>
              </g>
              <g transform="translate(63.67,85.62)" id="img-5b0c45ed-112">
                <path d="M-0.22,-2.71 L 0.22 -2.71 0.22 2.71 -0.22 2.71 z" class="primitive"/>
              </g>
              <g transform="translate(64.06,84.26)" id="img-5b0c45ed-113">
                <path d="M-0.22,-4.07 L 0.22 -4.07 0.22 4.07 -0.22 4.07 z" class="primitive"/>
              </g>
              <g transform="translate(64.44,84.26)" id="img-5b0c45ed-114">
                <path d="M-0.22,-4.07 L 0.22 -4.07 0.22 4.07 -0.22 4.07 z" class="primitive"/>
              </g>
              <g transform="translate(64.82,84.26)" id="img-5b0c45ed-115">
                <path d="M-0.22,-4.07 L 0.22 -4.07 0.22 4.07 -0.22 4.07 z" class="primitive"/>
              </g>
              <g transform="translate(65.2,88.33)" id="img-5b0c45ed-116">
                <path d="M-0.22,-0 L 0.22 -0 0.22 0 -0.22 0 z" class="primitive"/>
              </g>
              <g transform="translate(65.58,88.33)" id="img-5b0c45ed-117">
                <path d="M-0.22,-0 L 0.22 -0 0.22 0 -0.22 0 z" class="primitive"/>
              </g>
              <g transform="translate(65.96,85.62)" id="img-5b0c45ed-118">
                <path d="M-0.22,-2.71 L 0.22 -2.71 0.22 2.71 -0.22 2.71 z" class="primitive"/>
              </g>
              <g transform="translate(66.34,88.33)" id="img-5b0c45ed-119">
                <path d="M-0.22,-0 L 0.22 -0 0.22 0 -0.22 0 z" class="primitive"/>
              </g>
              <g transform="translate(66.72,84.26)" id="img-5b0c45ed-120">
                <path d="M-0.22,-4.07 L 0.22 -4.07 0.22 4.07 -0.22 4.07 z" class="primitive"/>
              </g>
              <g transform="translate(67.1,86.97)" id="img-5b0c45ed-121">
                <path d="M-0.22,-1.36 L 0.22 -1.36 0.22 1.36 -0.22 1.36 z" class="primitive"/>
              </g>
              <g transform="translate(67.49,82.9)" id="img-5b0c45ed-122">
                <path d="M-0.22,-5.42 L 0.22 -5.42 0.22 5.42 -0.22 5.42 z" class="primitive"/>
              </g>
              <g transform="translate(67.87,88.33)" id="img-5b0c45ed-123">
                <path d="M-0.22,-0 L 0.22 -0 0.22 0 -0.22 0 z" class="primitive"/>
              </g>
              <g transform="translate(68.25,88.33)" id="img-5b0c45ed-124">
                <path d="M-0.22,-0 L 0.22 -0 0.22 0 -0.22 0 z" class="primitive"/>
              </g>
              <g transform="translate(68.63,88.33)" id="img-5b0c45ed-125">
                <path d="M-0.22,-0 L 0.22 -0 0.22 0 -0.22 0 z" class="primitive"/>
              </g>
              <g transform="translate(69.01,88.33)" id="img-5b0c45ed-126">
                <path d="M-0.22,-0 L 0.22 -0 0.22 0 -0.22 0 z" class="primitive"/>
              </g>
              <g transform="translate(69.39,86.97)" id="img-5b0c45ed-127">
                <path d="M-0.22,-1.36 L 0.22 -1.36 0.22 1.36 -0.22 1.36 z" class="primitive"/>
              </g>
              <g transform="translate(69.77,88.33)" id="img-5b0c45ed-128">
                <path d="M-0.22,-0 L 0.22 -0 0.22 0 -0.22 0 z" class="primitive"/>
              </g>
              <g transform="translate(70.15,85.62)" id="img-5b0c45ed-129">
                <path d="M-0.22,-2.71 L 0.22 -2.71 0.22 2.71 -0.22 2.71 z" class="primitive"/>
              </g>
            </g>
          </g>
        </g>
      </g>
    </g>
  </g>
  <g class="guide ylabels" font-size="2.82" font-family="'PT Sans Caption','Helvetica Neue','Helvetica',sans-serif" fill="#6C606B" id="img-5b0c45ed-130">
    <g transform="translate(16.96,88.33)" id="img-5b0c45ed-131">
      <g class="primitive">
        <text text-anchor="end" dy="0.35em">0</text>
      </g>
    </g>
    <g transform="translate(16.96,61.22)" id="img-5b0c45ed-132">
      <g class="primitive">
        <text text-anchor="end" dy="0.35em">10</text>
      </g>
    </g>
    <g transform="translate(16.96,34.11)" id="img-5b0c45ed-133">
      <g class="primitive">
        <text text-anchor="end" dy="0.35em">20</text>
      </g>
    </g>
    <g transform="translate(16.96,7)" id="img-5b0c45ed-134">
      <g class="primitive">
        <text text-anchor="end" dy="0.35em">30</text>
      </g>
    </g>
  </g>
  <g font-size="3.88" font-family="'PT Sans','Helvetica Neue','Helvetica',sans-serif" fill="#564A55" stroke="#000000" stroke-opacity="0.000" id="img-5b0c45ed-135">
    <g transform="translate(8.81,45.66)" id="img-5b0c45ed-136">
      <g class="primitive">
        <text text-anchor="middle" dy="0.35em" transform="rotate(-90,0, 2)">frequency</text>
      </g>
    </g>
  </g>
</g>
<defs>
  <clipPath id="img-5b0c45ed-11">
    <path d="M17.96,5 L 76.99 5 76.99 90.33 17.96 90.33" />
  </clipPath>
</defs>
</svg>
