<?xml version="1.0" encoding="UTF-8"?>
<svg xmlns="http://www.w3.org/2000/svg"
     xmlns:xlink="http://www.w3.org/1999/xlink"
     xmlns:gadfly="http://www.gadflyjl.org/ns"
     version="1.2"
     width="141.42mm" height="100mm" viewBox="0 0 141.42 100"
     stroke="none"
     fill="#000000"
     stroke-width="0.3"
     font-size="3.88"
>
<defs>
  <marker id="arrow" markerWidth="15" markerHeight="7" refX="5" refY="3.5" orient="auto" markerUnits="strokeWidth">
    <path d="M0,0 L15,3.5 L0,7 z" stroke="context-stroke" fill="context-stroke"/>
  </marker>
</defs>
<g class="plotroot xscalable yscalable" id="img-0ef346ad-1">
  <g class="guide xlabels" font-size="2.82" font-family="'PT Sans Caption','Helvetica Neue','Helvetica',sans-serif" fill="#6C606B" id="img-0ef346ad-2">
    <g transform="translate(18.28,91.33)">
      <g class="primitive">
        <text text-anchor="middle" dy="0.6em">8.5</text>
      </g>
    </g>
    <g transform="translate(33.04,91.33)">
      <g class="primitive">
        <text text-anchor="middle" dy="0.6em">8.6</text>
      </g>
    </g>
    <g transform="translate(47.79,91.33)">
      <g class="primitive">
        <text text-anchor="middle" dy="0.6em">8.7</text>
      </g>
    </g>
    <g transform="translate(62.54,91.33)">
      <g class="primitive">
        <text text-anchor="middle" dy="0.6em">8.8</text>
      </g>
    </g>
    <g transform="translate(77.29,91.33)">
      <g class="primitive">
        <text text-anchor="middle" dy="0.6em">8.9</text>
      </g>
    </g>
  </g>
  <g class="guide colorkey" id="img-0ef346ad-3">
    <g class="color_coding_coding_noncoding_noncoding_4-star" id="img-0ef346ad-4">
      <g fill="#4C404B" font-size="2.82" font-family="'PT Sans','Helvetica Neue','Helvetica',sans-serif" id="img-0ef346ad-5">
        <g transform="translate(83.11,49.48)" id="img-0ef346ad-6">
          <g class="primitive">
            <text dy="0.35em">coding_coding_noncoding_noncoding_4-star</text>
          </g>
        </g>
      </g>
      <g fill-opacity="1" fill="#00BFFF" stroke="#FFFFFF" id="img-0ef346ad-7">
        <g transform="translate(81.2,49.48)" id="img-0ef346ad-8">
          <path d="M-0.91,-0.91 L 0.91 -0.91 0.91 0.91 -0.91 0.91 z" class="primitive"/>
        </g>
      </g>
    </g>
    <g fill="#362A35" font-size="3.88" font-family="'PT Sans','Helvetica Neue','Helvetica',sans-serif" stroke="#000000" stroke-opacity="0.000" id="img-0ef346ad-9">
      <g transform="translate(80.29,45.66)" id="img-0ef346ad-10">
        <g class="primitive">
          <text dy="-0em">graphlet</text>
        </g>
      </g>
    </g>
  </g>
  <g clip-path="url(#img-0ef346ad-11)">
    <g id="img-0ef346ad-12">
      <g pointer-events="visible" stroke-width="0.3" fill="#000000" fill-opacity="0.000" stroke="#000000" stroke-opacity="0.000" class="guide background" id="img-0ef346ad-13">
        <g transform="translate(47.79,47.66)" id="img-0ef346ad-14">
          <path d="M-31.5,-42.66 L 31.5 -42.66 31.5 42.66 -31.5 42.66 z" class="primitive"/>
        </g>
      </g>
      <g class="guide ygridlines xfixed" stroke-dasharray="0.5,0.5" stroke-width="0.2" stroke="#D0D0E0" id="img-0ef346ad-15">
        <g transform="translate(47.79,88.33)" id="img-0ef346ad-16">
          <path fill="none" d="M-31.5,0 L 31.5 0" class="primitive"/>
        </g>
        <g transform="translate(47.79,74.77)" id="img-0ef346ad-17">
          <path fill="none" d="M-31.5,0 L 31.5 0" class="primitive"/>
        </g>
        <g transform="translate(47.79,61.22)" id="img-0ef346ad-18">
          <path fill="none" d="M-31.5,0 L 31.5 0" class="primitive"/>
        </g>
        <g transform="translate(47.79,47.66)" id="img-0ef346ad-19">
          <path fill="none" d="M-31.5,0 L 31.5 0" class="primitive"/>
        </g>
        <g transform="translate(47.79,34.11)" id="img-0ef346ad-20">
          <path fill="none" d="M-31.5,0 L 31.5 0" class="primitive"/>
        </g>
        <g transform="translate(47.79,20.55)" id="img-0ef346ad-21">
          <path fill="none" d="M-31.5,0 L 31.5 0" class="primitive"/>
        </g>
        <g transform="translate(47.79,7)" id="img-0ef346ad-22">
          <path fill="none" d="M-31.5,0 L 31.5 0" class="primitive"/>
        </g>
      </g>
      <g class="guide xgridlines yfixed" stroke-dasharray="0.5,0.5" stroke-width="0.2" stroke="#D0D0E0" id="img-0ef346ad-23">
        <g transform="translate(18.28,47.66)" id="img-0ef346ad-24">
          <path fill="none" d="M0,-42.66 L 0 42.66" class="primitive"/>
        </g>
        <g transform="translate(33.04,47.66)" id="img-0ef346ad-25">
          <path fill="none" d="M0,-42.66 L 0 42.66" class="primitive"/>
        </g>
        <g transform="translate(47.79,47.66)" id="img-0ef346ad-26">
          <path fill="none" d="M0,-42.66 L 0 42.66" class="primitive"/>
        </g>
        <g transform="translate(62.54,47.66)" id="img-0ef346ad-27">
          <path fill="none" d="M0,-42.66 L 0 42.66" class="primitive"/>
        </g>
        <g transform="translate(77.29,47.66)" id="img-0ef346ad-28">
          <path fill="none" d="M0,-42.66 L 0 42.66" class="primitive"/>
        </g>
      </g>
      <g class="plotpanel" id="img-0ef346ad-29">
        <metadata>
          <boundingbox value="16.285000000000004mm 5.0mm 63.00968957064284mm 85.32666666666667mm"/>
          <unitbox value="8.486442904448053 6.147553078121158 0.42711419110389653 -6.295106156242315"/>
        </metadata>
        <g shape-rendering="crispEdges" stroke-width="0.3" id="img-0ef346ad-30">
          <g stroke="#000000" stroke-opacity="0.000" class="geometry" id="img-0ef346ad-31">
            <g fill="#00BFFF" id="img-0ef346ad-32">
              <g transform="translate(27.02,81.55)" id="img-0ef346ad-33">
                <path d="M-0.21,-6.78 L 0.21 -6.78 0.21 6.78 -0.21 6.78 z" class="primitive"/>
              </g>
              <g transform="translate(27.38,88.33)" id="img-0ef346ad-34">
                <path d="M-0.21,-0 L 0.21 -0 0.21 0 -0.21 0 z" class="primitive"/>
              </g>
              <g transform="translate(27.74,88.33)" id="img-0ef346ad-35">
                <path d="M-0.21,-0 L 0.21 -0 0.21 0 -0.21 0 z" class="primitive"/>
              </g>
              <g transform="translate(28.1,88.33)" id="img-0ef346ad-36">
                <path d="M-0.21,-0 L 0.21 -0 0.21 0 -0.21 0 z" class="primitive"/>
              </g>
              <g transform="translate(28.47,88.33)" id="img-0ef346ad-37">
                <path d="M-0.21,-0 L 0.21 -0 0.21 0 -0.21 0 z" class="primitive"/>
              </g>
              <g transform="translate(28.83,88.33)" id="img-0ef346ad-38">
                <path d="M-0.21,-0 L 0.21 -0 0.21 0 -0.21 0 z" class="primitive"/>
              </g>
              <g transform="translate(29.19,88.33)" id="img-0ef346ad-39">
                <path d="M-0.21,-0 L 0.21 -0 0.21 0 -0.21 0 z" class="primitive"/>
              </g>
              <g transform="translate(29.56,81.55)" id="img-0ef346ad-40">
                <path d="M-0.21,-6.78 L 0.21 -6.78 0.21 6.78 -0.21 6.78 z" class="primitive"/>
              </g>
              <g transform="translate(29.92,88.33)" id="img-0ef346ad-41">
                <path d="M-0.21,-0 L 0.21 -0 0.21 0 -0.21 0 z" class="primitive"/>
              </g>
              <g transform="translate(30.28,88.33)" id="img-0ef346ad-42">
                <path d="M-0.21,-0 L 0.21 -0 0.21 0 -0.21 0 z" class="primitive"/>
              </g>
              <g transform="translate(30.64,88.33)" id="img-0ef346ad-43">
                <path d="M-0.21,-0 L 0.21 -0 0.21 0 -0.21 0 z" class="primitive"/>
              </g>
              <g transform="translate(31.01,88.33)" id="img-0ef346ad-44">
                <path d="M-0.21,-0 L 0.21 -0 0.21 0 -0.21 0 z" class="primitive"/>
              </g>
              <g transform="translate(31.37,81.55)" id="img-0ef346ad-45">
                <path d="M-0.21,-6.78 L 0.21 -6.78 0.21 6.78 -0.21 6.78 z" class="primitive"/>
              </g>
              <g transform="translate(31.73,88.33)" id="img-0ef346ad-46">
                <path d="M-0.21,-0 L 0.21 -0 0.21 0 -0.21 0 z" class="primitive"/>
              </g>
              <g transform="translate(32.09,88.33)" id="img-0ef346ad-47">
                <path d="M-0.21,-0 L 0.21 -0 0.21 0 -0.21 0 z" class="primitive"/>
              </g>
              <g transform="translate(32.46,88.33)" id="img-0ef346ad-48">
                <path d="M-0.21,-0 L 0.21 -0 0.21 0 -0.21 0 z" class="primitive"/>
              </g>
              <g transform="translate(32.82,88.33)" id="img-0ef346ad-49">
                <path d="M-0.21,-0 L 0.21 -0 0.21 0 -0.21 0 z" class="primitive"/>
              </g>
              <g transform="translate(33.18,88.33)" id="img-0ef346ad-50">
                <path d="M-0.21,-0 L 0.21 -0 0.21 0 -0.21 0 z" class="primitive"/>
              </g>
              <g transform="translate(33.55,88.33)" id="img-0ef346ad-51">
                <path d="M-0.21,-0 L 0.21 -0 0.21 0 -0.21 0 z" class="primitive"/>
              </g>
              <g transform="translate(33.91,88.33)" id="img-0ef346ad-52">
                <path d="M-0.21,-0 L 0.21 -0 0.21 0 -0.21 0 z" class="primitive"/>
              </g>
              <g transform="translate(34.27,74.77)" id="img-0ef346ad-53">
                <path d="M-0.21,-13.55 L 0.21 -13.55 0.21 13.55 -0.21 13.55 z" class="primitive"/>
              </g>
              <g transform="translate(34.63,88.33)" id="img-0ef346ad-54">
                <path d="M-0.21,-0 L 0.21 -0 0.21 0 -0.21 0 z" class="primitive"/>
              </g>
              <g transform="translate(35,88.33)" id="img-0ef346ad-55">
                <path d="M-0.21,-0 L 0.21 -0 0.21 0 -0.21 0 z" class="primitive"/>
              </g>
              <g transform="translate(35.36,81.55)" id="img-0ef346ad-56">
                <path d="M-0.21,-6.78 L 0.21 -6.78 0.21 6.78 -0.21 6.78 z" class="primitive"/>
              </g>
              <g transform="translate(35.72,88.33)" id="img-0ef346ad-57">
                <path d="M-0.21,-0 L 0.21 -0 0.21 0 -0.21 0 z" class="primitive"/>
              </g>
              <g transform="translate(36.09,74.77)" id="img-0ef346ad-58">
                <path d="M-0.21,-13.55 L 0.21 -13.55 0.21 13.55 -0.21 13.55 z" class="primitive"/>
              </g>
              <g transform="translate(36.45,88.33)" id="img-0ef346ad-59">
                <path d="M-0.21,-0 L 0.21 -0 0.21 0 -0.21 0 z" class="primitive"/>
              </g>
              <g transform="translate(36.81,88.33)" id="img-0ef346ad-60">
                <path d="M-0.21,-0 L 0.21 -0 0.21 0 -0.21 0 z" class="primitive"/>
              </g>
              <g transform="translate(37.17,88.33)" id="img-0ef346ad-61">
                <path d="M-0.21,-0 L 0.21 -0 0.21 0 -0.21 0 z" class="primitive"/>
              </g>
              <g transform="translate(37.54,88.33)" id="img-0ef346ad-62">
                <path d="M-0.21,-0 L 0.21 -0 0.21 0 -0.21 0 z" class="primitive"/>
              </g>
              <g transform="translate(37.9,81.55)" id="img-0ef346ad-63">
                <path d="M-0.21,-6.78 L 0.21 -6.78 0.21 6.78 -0.21 6.78 z" class="primitive"/>
              </g>
              <g transform="translate(38.26,88.33)" id="img-0ef346ad-64">
                <path d="M-0.21,-0 L 0.21 -0 0.21 0 -0.21 0 z" class="primitive"/>
              </g>
              <g transform="translate(38.63,74.77)" id="img-0ef346ad-65">
                <path d="M-0.21,-13.55 L 0.21 -13.55 0.21 13.55 -0.21 13.55 z" class="primitive"/>
              </g>
              <g transform="translate(38.99,88.33)" id="img-0ef346ad-66">
                <path d="M-0.21,-0 L 0.21 -0 0.21 0 -0.21 0 z" class="primitive"/>
              </g>
              <g transform="translate(39.35,74.77)" id="img-0ef346ad-67">
                <path d="M-0.21,-13.55 L 0.21 -13.55 0.21 13.55 -0.21 13.55 z" class="primitive"/>
              </g>
              <g transform="translate(39.71,74.77)" id="img-0ef346ad-68">
                <path d="M-0.21,-13.55 L 0.21 -13.55 0.21 13.55 -0.21 13.55 z" class="primitive"/>
              </g>
              <g transform="translate(40.08,81.55)" id="img-0ef346ad-69">
                <path d="M-0.21,-6.78 L 0.21 -6.78 0.21 6.78 -0.21 6.78 z" class="primitive"/>
              </g>
              <g transform="translate(40.44,74.77)" id="img-0ef346ad-70">
                <path d="M-0.21,-13.55 L 0.21 -13.55 0.21 13.55 -0.21 13.55 z" class="primitive"/>
              </g>
              <g transform="translate(40.8,81.55)" id="img-0ef346ad-71">
                <path d="M-0.21,-6.78 L 0.21 -6.78 0.21 6.78 -0.21 6.78 z" class="primitive"/>
              </g>
              <g transform="translate(41.16,81.55)" id="img-0ef346ad-72">
                <path d="M-0.21,-6.78 L 0.21 -6.78 0.21 6.78 -0.21 6.78 z" class="primitive"/>
              </g>
              <g transform="translate(41.53,74.77)" id="img-0ef346ad-73">
                <path d="M-0.21,-13.55 L 0.21 -13.55 0.21 13.55 -0.21 13.55 z" class="primitive"/>
              </g>
              <g transform="translate(41.89,81.55)" id="img-0ef346ad-74">
                <path d="M-0.21,-6.78 L 0.21 -6.78 0.21 6.78 -0.21 6.78 z" class="primitive"/>
              </g>
              <g transform="translate(42.25,81.55)" id="img-0ef346ad-75">
                <path d="M-0.21,-6.78 L 0.21 -6.78 0.21 6.78 -0.21 6.78 z" class="primitive"/>
              </g>
              <g transform="translate(42.62,74.77)" id="img-0ef346ad-76">
                <path d="M-0.21,-13.55 L 0.21 -13.55 0.21 13.55 -0.21 13.55 z" class="primitive"/>
              </g>
              <g transform="translate(42.98,88.33)" id="img-0ef346ad-77">
                <path d="M-0.21,-0 L 0.21 -0 0.21 0 -0.21 0 z" class="primitive"/>
              </g>
              <g transform="translate(43.34,81.55)" id="img-0ef346ad-78">
                <path d="M-0.21,-6.78 L 0.21 -6.78 0.21 6.78 -0.21 6.78 z" class="primitive"/>
              </g>
              <g transform="translate(43.7,88.33)" id="img-0ef346ad-79">
                <path d="M-0.21,-0 L 0.21 -0 0.21 0 -0.21 0 z" class="primitive"/>
              </g>
              <g transform="translate(44.07,81.55)" id="img-0ef346ad-80">
                <path d="M-0.21,-6.78 L 0.21 -6.78 0.21 6.78 -0.21 6.78 z" class="primitive"/>
              </g>
              <g transform="translate(44.43,81.55)" id="img-0ef346ad-81">
                <path d="M-0.21,-6.78 L 0.21 -6.78 0.21 6.78 -0.21 6.78 z" class="primitive"/>
              </g>
              <g transform="translate(44.79,81.55)" id="img-0ef346ad-82">
                <path d="M-0.21,-6.78 L 0.21 -6.78 0.21 6.78 -0.21 6.78 z" class="primitive"/>
              </g>
              <g transform="translate(45.16,81.55)" id="img-0ef346ad-83">
                <path d="M-0.21,-6.78 L 0.21 -6.78 0.21 6.78 -0.21 6.78 z" class="primitive"/>
              </g>
              <g transform="translate(45.52,88.33)" id="img-0ef346ad-84">
                <path d="M-0.21,-0 L 0.21 -0 0.21 0 -0.21 0 z" class="primitive"/>
              </g>
              <g transform="translate(45.88,74.77)" id="img-0ef346ad-85">
                <path d="M-0.21,-13.55 L 0.21 -13.55 0.21 13.55 -0.21 13.55 z" class="primitive"/>
              </g>
              <g transform="translate(46.24,54.44)" id="img-0ef346ad-86">
                <path d="M-0.21,-33.89 L 0.21 -33.89 0.21 33.89 -0.21 33.89 z" class="primitive"/>
              </g>
              <g transform="translate(46.61,74.77)" id="img-0ef346ad-87">
                <path d="M-0.21,-13.55 L 0.21 -13.55 0.21 13.55 -0.21 13.55 z" class="primitive"/>
              </g>
              <g transform="translate(46.97,47.66)" id="img-0ef346ad-88">
                <path d="M-0.21,-40.66 L 0.21 -40.66 0.21 40.66 -0.21 40.66 z" class="primitive"/>
              </g>
              <g transform="translate(47.33,74.77)" id="img-0ef346ad-89">
                <path d="M-0.21,-13.55 L 0.21 -13.55 0.21 13.55 -0.21 13.55 z" class="primitive"/>
              </g>
              <g transform="translate(47.7,81.55)" id="img-0ef346ad-90">
                <path d="M-0.21,-6.78 L 0.21 -6.78 0.21 6.78 -0.21 6.78 z" class="primitive"/>
              </g>
              <g transform="translate(48.06,81.55)" id="img-0ef346ad-91">
                <path d="M-0.21,-6.78 L 0.21 -6.78 0.21 6.78 -0.21 6.78 z" class="primitive"/>
              </g>
              <g transform="translate(48.42,74.77)" id="img-0ef346ad-92">
                <path d="M-0.21,-13.55 L 0.21 -13.55 0.21 13.55 -0.21 13.55 z" class="primitive"/>
              </g>
              <g transform="translate(48.78,88.33)" id="img-0ef346ad-93">
                <path d="M-0.21,-0 L 0.21 -0 0.21 0 -0.21 0 z" class="primitive"/>
              </g>
              <g transform="translate(49.15,81.55)" id="img-0ef346ad-94">
                <path d="M-0.21,-6.78 L 0.21 -6.78 0.21 6.78 -0.21 6.78 z" class="primitive"/>
              </g>
              <g transform="translate(49.51,74.77)" id="img-0ef346ad-95">
                <path d="M-0.21,-13.55 L 0.21 -13.55 0.21 13.55 -0.21 13.55 z" class="primitive"/>
              </g>
              <g transform="translate(49.87,81.55)" id="img-0ef346ad-96">
                <path d="M-0.21,-6.78 L 0.21 -6.78 0.21 6.78 -0.21 6.78 z" class="primitive"/>
              </g>
              <g transform="translate(50.23,61.22)" id="img-0ef346ad-97">
                <path d="M-0.21,-27.11 L 0.21 -27.11 0.21 27.11 -0.21 27.11 z" class="primitive"/>
              </g>
              <g transform="translate(50.6,81.55)" id="img-0ef346ad-98">
                <path d="M-0.21,-6.78 L 0.21 -6.78 0.21 6.78 -0.21 6.78 z" class="primitive"/>
              </g>
              <g transform="translate(50.96,61.22)" id="img-0ef346ad-99">
                <path d="M-0.21,-27.11 L 0.21 -27.11 0.21 27.11 -0.21 27.11 z" class="primitive"/>
              </g>
              <g transform="translate(51.32,68)" id="img-0ef346ad-100">
                <path d="M-0.21,-20.33 L 0.21 -20.33 0.21 20.33 -0.21 20.33 z" class="primitive"/>
              </g>
              <g transform="translate(51.69,61.22)" id="img-0ef346ad-101">
                <path d="M-0.21,-27.11 L 0.21 -27.11 0.21 27.11 -0.21 27.11 z" class="primitive"/>
              </g>
              <g transform="translate(52.05,88.33)" id="img-0ef346ad-102">
                <path d="M-0.21,-0 L 0.21 -0 0.21 0 -0.21 0 z" class="primitive"/>
              </g>
              <g transform="translate(52.41,81.55)" id="img-0ef346ad-103">
                <path d="M-0.21,-6.78 L 0.21 -6.78 0.21 6.78 -0.21 6.78 z" class="primitive"/>
              </g>
              <g transform="translate(52.77,81.55)" id="img-0ef346ad-104">
                <path d="M-0.21,-6.78 L 0.21 -6.78 0.21 6.78 -0.21 6.78 z" class="primitive"/>
              </g>
              <g transform="translate(53.14,74.77)" id="img-0ef346ad-105">
                <path d="M-0.21,-13.55 L 0.21 -13.55 0.21 13.55 -0.21 13.55 z" class="primitive"/>
              </g>
              <g transform="translate(53.5,74.77)" id="img-0ef346ad-106">
                <path d="M-0.21,-13.55 L 0.21 -13.55 0.21 13.55 -0.21 13.55 z" class="primitive"/>
              </g>
              <g transform="translate(53.86,61.22)" id="img-0ef346ad-107">
                <path d="M-0.21,-27.11 L 0.21 -27.11 0.21 27.11 -0.21 27.11 z" class="primitive"/>
              </g>
              <g transform="translate(54.23,88.33)" id="img-0ef346ad-108">
                <path d="M-0.21,-0 L 0.21 -0 0.21 0 -0.21 0 z" class="primitive"/>
              </g>
              <g transform="translate(54.59,74.77)" id="img-0ef346ad-109">
                <path d="M-0.21,-13.55 L 0.21 -13.55 0.21 13.55 -0.21 13.55 z" class="primitive"/>
              </g>
              <g transform="translate(54.95,74.77)" id="img-0ef346ad-110">
                <path d="M-0.21,-13.55 L 0.21 -13.55 0.21 13.55 -0.21 13.55 z" class="primitive"/>
              </g>
              <g transform="translate(55.31,81.55)" id="img-0ef346ad-111">
                <path d="M-0.21,-6.78 L 0.21 -6.78 0.21 6.78 -0.21 6.78 z" class="primitive"/>
              </g>
              <g transform="translate(55.68,81.55)" id="img-0ef346ad-112">
                <path d="M-0.21,-6.78 L 0.21 -6.78 0.21 6.78 -0.21 6.78 z" class="primitive"/>
              </g>
              <g transform="translate(56.04,68)" id="img-0ef346ad-113">
                <path d="M-0.21,-20.33 L 0.21 -20.33 0.21 20.33 -0.21 20.33 z" class="primitive"/>
              </g>
              <g transform="translate(56.4,88.33)" id="img-0ef346ad-114">
                <path d="M-0.21,-0 L 0.21 -0 0.21 0 -0.21 0 z" class="primitive"/>
              </g>
              <g transform="translate(56.76,88.33)" id="img-0ef346ad-115">
                <path d="M-0.21,-0 L 0.21 -0 0.21 0 -0.21 0 z" class="primitive"/>
              </g>
              <g transform="translate(57.13,81.55)" id="img-0ef346ad-116">
                <path d="M-0.21,-6.78 L 0.21 -6.78 0.21 6.78 -0.21 6.78 z" class="primitive"/>
              </g>
              <g transform="translate(57.49,88.33)" id="img-0ef346ad-117">
                <path d="M-0.21,-0 L 0.21 -0 0.21 0 -0.21 0 z" class="primitive"/>
              </g>
              <g transform="translate(57.85,88.33)" id="img-0ef346ad-118">
                <path d="M-0.21,-0 L 0.21 -0 0.21 0 -0.21 0 z" class="primitive"/>
              </g>
              <g transform="translate(58.22,88.33)" id="img-0ef346ad-119">
                <path d="M-0.21,-0 L 0.21 -0 0.21 0 -0.21 0 z" class="primitive"/>
              </g>
              <g transform="translate(58.58,88.33)" id="img-0ef346ad-120">
                <path d="M-0.21,-0 L 0.21 -0 0.21 0 -0.21 0 z" class="primitive"/>
              </g>
              <g transform="translate(58.94,81.55)" id="img-0ef346ad-121">
                <path d="M-0.21,-6.78 L 0.21 -6.78 0.21 6.78 -0.21 6.78 z" class="primitive"/>
              </g>
              <g transform="translate(59.3,74.77)" id="img-0ef346ad-122">
                <path d="M-0.21,-13.55 L 0.21 -13.55 0.21 13.55 -0.21 13.55 z" class="primitive"/>
              </g>
              <g transform="translate(59.67,81.55)" id="img-0ef346ad-123">
                <path d="M-0.21,-6.78 L 0.21 -6.78 0.21 6.78 -0.21 6.78 z" class="primitive"/>
              </g>
              <g transform="translate(60.03,88.33)" id="img-0ef346ad-124">
                <path d="M-0.21,-0 L 0.21 -0 0.21 0 -0.21 0 z" class="primitive"/>
              </g>
              <g transform="translate(60.39,88.33)" id="img-0ef346ad-125">
                <path d="M-0.21,-0 L 0.21 -0 0.21 0 -0.21 0 z" class="primitive"/>
              </g>
              <g transform="translate(60.76,81.55)" id="img-0ef346ad-126">
                <path d="M-0.21,-6.78 L 0.21 -6.78 0.21 6.78 -0.21 6.78 z" class="primitive"/>
              </g>
              <g transform="translate(61.12,74.77)" id="img-0ef346ad-127">
                <path d="M-0.21,-13.55 L 0.21 -13.55 0.21 13.55 -0.21 13.55 z" class="primitive"/>
              </g>
              <g transform="translate(61.48,88.33)" id="img-0ef346ad-128">
                <path d="M-0.21,-0 L 0.21 -0 0.21 0 -0.21 0 z" class="primitive"/>
              </g>
              <g transform="translate(61.84,88.33)" id="img-0ef346ad-129">
                <path d="M-0.21,-0 L 0.21 -0 0.21 0 -0.21 0 z" class="primitive"/>
              </g>
              <g transform="translate(62.21,88.33)" id="img-0ef346ad-130">
                <path d="M-0.21,-0 L 0.21 -0 0.21 0 -0.21 0 z" class="primitive"/>
              </g>
              <g transform="translate(62.57,88.33)" id="img-0ef346ad-131">
                <path d="M-0.21,-0 L 0.21 -0 0.21 0 -0.21 0 z" class="primitive"/>
              </g>
              <g transform="translate(62.93,81.55)" id="img-0ef346ad-132">
                <path d="M-0.21,-6.78 L 0.21 -6.78 0.21 6.78 -0.21 6.78 z" class="primitive"/>
              </g>
            </g>
          </g>
        </g>
      </g>
    </g>
  </g>
  <g class="guide ylabels" font-size="2.82" font-family="'PT Sans Caption','Helvetica Neue','Helvetica',sans-serif" fill="#6C606B" id="img-0ef346ad-133">
    <g transform="translate(15.28,88.33)" id="img-0ef346ad-134">
      <g class="primitive">
        <text text-anchor="end" dy="0.35em">0</text>
      </g>
    </g>
    <g transform="translate(15.28,74.77)" id="img-0ef346ad-135">
      <g class="primitive">
        <text text-anchor="end" dy="0.35em">1</text>
      </g>
    </g>
    <g transform="translate(15.28,61.22)" id="img-0ef346ad-136">
      <g class="primitive">
        <text text-anchor="end" dy="0.35em">2</text>
      </g>
    </g>
    <g transform="translate(15.28,47.66)" id="img-0ef346ad-137">
      <g class="primitive">
        <text text-anchor="end" dy="0.35em">3</text>
      </g>
    </g>
    <g transform="translate(15.28,34.11)" id="img-0ef346ad-138">
      <g class="primitive">
        <text text-anchor="end" dy="0.35em">4</text>
      </g>
    </g>
    <g transform="translate(15.28,20.55)" id="img-0ef346ad-139">
      <g class="primitive">
        <text text-anchor="end" dy="0.35em">5</text>
      </g>
    </g>
    <g transform="translate(15.28,7)" id="img-0ef346ad-140">
      <g class="primitive">
        <text text-anchor="end" dy="0.35em">6</text>
      </g>
    </g>
  </g>
  <g font-size="3.88" font-family="'PT Sans','Helvetica Neue','Helvetica',sans-serif" fill="#564A55" stroke="#000000" stroke-opacity="0.000" id="img-0ef346ad-141">
    <g transform="translate(8.81,45.66)" id="img-0ef346ad-142">
      <g class="primitive">
        <text text-anchor="middle" dy="0.35em" transform="rotate(-90,0, 2)">frequency</text>
      </g>
    </g>
  </g>
</g>
<defs>
  <clipPath id="img-0ef346ad-11">
    <path d="M16.29,5 L 79.29 5 79.29 90.33 16.29 90.33" />
  </clipPath>
</defs>
</svg>
