<?xml version="1.0" encoding="UTF-8"?>
<svg xmlns="http://www.w3.org/2000/svg"
     xmlns:xlink="http://www.w3.org/1999/xlink"
     xmlns:gadfly="http://www.gadflyjl.org/ns"
     version="1.2"
     width="141.42mm" height="100mm" viewBox="0 0 141.42 100"
     stroke="none"
     fill="#000000"
     stroke-width="0.3"
     font-size="3.88"
>
<defs>
  <marker id="arrow" markerWidth="15" markerHeight="7" refX="5" refY="3.5" orient="auto" markerUnits="strokeWidth">
    <path d="M0,0 L15,3.5 L0,7 z" stroke="context-stroke" fill="context-stroke"/>
  </marker>
</defs>
<g class="plotroot xscalable yscalable" id="img-62be9f3a-1">
  <g class="guide xlabels" font-size="2.82" font-family="'PT Sans Caption','Helvetica Neue','Helvetica',sans-serif" fill="#6C606B" id="img-62be9f3a-2">
    <g transform="translate(19.96,91.33)">
      <g class="primitive">
        <text text-anchor="middle" dy="0.6em">4.0×10⁴</text>
      </g>
    </g>
    <g transform="translate(40.29,91.33)">
      <g class="primitive">
        <text text-anchor="middle" dy="0.6em">5.0×10⁴</text>
      </g>
    </g>
    <g transform="translate(60.63,91.33)">
      <g class="primitive">
        <text text-anchor="middle" dy="0.6em">6.0×10⁴</text>
      </g>
    </g>
    <g transform="translate(80.97,91.33)">
      <g class="primitive">
        <text text-anchor="middle" dy="0.6em">7.0×10⁴</text>
      </g>
    </g>
  </g>
  <g class="guide colorkey" id="img-62be9f3a-3">
    <g class="color_coding_coding_noncoding_coding_4-path" id="img-62be9f3a-4">
      <g fill="#4C404B" font-size="2.82" font-family="'PT Sans','Helvetica Neue','Helvetica',sans-serif" id="img-62be9f3a-5">
        <g transform="translate(86.78,49.48)" id="img-62be9f3a-6">
          <g class="primitive">
            <text dy="0.35em">coding_coding_noncoding_coding_4-path</text>
          </g>
        </g>
      </g>
      <g fill-opacity="1" fill="#00BFFF" stroke="#FFFFFF" id="img-62be9f3a-7">
        <g transform="translate(84.87,49.48)" id="img-62be9f3a-8">
          <path d="M-0.91,-0.91 L 0.91 -0.91 0.91 0.91 -0.91 0.91 z" class="primitive"/>
        </g>
      </g>
    </g>
    <g fill="#362A35" font-size="3.88" font-family="'PT Sans','Helvetica Neue','Helvetica',sans-serif" stroke="#000000" stroke-opacity="0.000" id="img-62be9f3a-9">
      <g transform="translate(83.97,45.66)" id="img-62be9f3a-10">
        <g class="primitive">
          <text dy="-0em">graphlet</text>
        </g>
      </g>
    </g>
  </g>
  <g clip-path="url(#img-62be9f3a-11)">
    <g id="img-62be9f3a-12">
      <g pointer-events="visible" stroke-width="0.3" fill="#000000" fill-opacity="0.000" stroke="#000000" stroke-opacity="0.000" class="guide background" id="img-62be9f3a-13">
        <g transform="translate(50.46,47.66)" id="img-62be9f3a-14">
          <path d="M-32.5,-42.66 L 32.5 -42.66 32.5 42.66 -32.5 42.66 z" class="primitive"/>
        </g>
      </g>
      <g class="guide ygridlines xfixed" stroke-dasharray="0.5,0.5" stroke-width="0.2" stroke="#D0D0E0" id="img-62be9f3a-15">
        <g transform="translate(50.46,88.33)" id="img-62be9f3a-16">
          <path fill="none" d="M-32.5,0 L 32.5 0" class="primitive"/>
        </g>
        <g transform="translate(50.46,68)" id="img-62be9f3a-17">
          <path fill="none" d="M-32.5,0 L 32.5 0" class="primitive"/>
        </g>
        <g transform="translate(50.46,47.66)" id="img-62be9f3a-18">
          <path fill="none" d="M-32.5,0 L 32.5 0" class="primitive"/>
        </g>
        <g transform="translate(50.46,27.33)" id="img-62be9f3a-19">
          <path fill="none" d="M-32.5,0 L 32.5 0" class="primitive"/>
        </g>
        <g transform="translate(50.46,7)" id="img-62be9f3a-20">
          <path fill="none" d="M-32.5,0 L 32.5 0" class="primitive"/>
        </g>
      </g>
      <g class="guide xgridlines yfixed" stroke-dasharray="0.5,0.5" stroke-width="0.2" stroke="#D0D0E0" id="img-62be9f3a-21">
        <g transform="translate(19.96,47.66)" id="img-62be9f3a-22">
          <path fill="none" d="M0,-42.66 L 0 42.66" class="primitive"/>
        </g>
        <g transform="translate(40.29,47.66)" id="img-62be9f3a-23">
          <path fill="none" d="M0,-42.66 L 0 42.66" class="primitive"/>
        </g>
        <g transform="translate(60.63,47.66)" id="img-62be9f3a-24">
          <path fill="none" d="M0,-42.66 L 0 42.66" class="primitive"/>
        </g>
        <g transform="translate(80.97,47.66)" id="img-62be9f3a-25">
          <path fill="none" d="M0,-42.66 L 0 42.66" class="primitive"/>
        </g>
      </g>
      <g class="plotpanel" id="img-62be9f3a-26">
        <metadata>
          <boundingbox value="17.95833333333333mm 5.0mm 65.00968957064283mm 85.32666666666667mm"/>
          <unitbox value="39016.54965920575 40.98368718747438 31966.900681588493 -41.96737437494876"/>
        </metadata>
        <g shape-rendering="crispEdges" stroke-width="0.3" id="img-62be9f3a-27">
          <g stroke="#000000" stroke-opacity="0.000" class="geometry" id="img-62be9f3a-28">
            <g fill="#00BFFF" id="img-62be9f3a-29">
              <g transform="translate(25.58,87.31)" id="img-62be9f3a-30">
                <path d="M-0.26,-1.02 L 0.26 -1.02 0.26 1.02 -0.26 1.02 z" class="primitive"/>
              </g>
              <g transform="translate(26.04,88.33)" id="img-62be9f3a-31">
                <path d="M-0.26,-0 L 0.26 -0 0.26 0 -0.26 0 z" class="primitive"/>
              </g>
              <g transform="translate(26.51,88.33)" id="img-62be9f3a-32">
                <path d="M-0.26,-0 L 0.26 -0 0.26 0 -0.26 0 z" class="primitive"/>
              </g>
              <g transform="translate(26.98,87.31)" id="img-62be9f3a-33">
                <path d="M-0.26,-1.02 L 0.26 -1.02 0.26 1.02 -0.26 1.02 z" class="primitive"/>
              </g>
              <g transform="translate(27.45,88.33)" id="img-62be9f3a-34">
                <path d="M-0.26,-0 L 0.26 -0 0.26 0 -0.26 0 z" class="primitive"/>
              </g>
              <g transform="translate(27.91,88.33)" id="img-62be9f3a-35">
                <path d="M-0.26,-0 L 0.26 -0 0.26 0 -0.26 0 z" class="primitive"/>
              </g>
              <g transform="translate(28.38,88.33)" id="img-62be9f3a-36">
                <path d="M-0.26,-0 L 0.26 -0 0.26 0 -0.26 0 z" class="primitive"/>
              </g>
              <g transform="translate(28.85,88.33)" id="img-62be9f3a-37">
                <path d="M-0.26,-0 L 0.26 -0 0.26 0 -0.26 0 z" class="primitive"/>
              </g>
              <g transform="translate(29.31,88.33)" id="img-62be9f3a-38">
                <path d="M-0.26,-0 L 0.26 -0 0.26 0 -0.26 0 z" class="primitive"/>
              </g>
              <g transform="translate(29.78,88.33)" id="img-62be9f3a-39">
                <path d="M-0.26,-0 L 0.26 -0 0.26 0 -0.26 0 z" class="primitive"/>
              </g>
              <g transform="translate(30.25,88.33)" id="img-62be9f3a-40">
                <path d="M-0.26,-0 L 0.26 -0 0.26 0 -0.26 0 z" class="primitive"/>
              </g>
              <g transform="translate(30.71,88.33)" id="img-62be9f3a-41">
                <path d="M-0.26,-0 L 0.26 -0 0.26 0 -0.26 0 z" class="primitive"/>
              </g>
              <g transform="translate(31.18,88.33)" id="img-62be9f3a-42">
                <path d="M-0.26,-0 L 0.26 -0 0.26 0 -0.26 0 z" class="primitive"/>
              </g>
              <g transform="translate(31.65,88.33)" id="img-62be9f3a-43">
                <path d="M-0.26,-0 L 0.26 -0 0.26 0 -0.26 0 z" class="primitive"/>
              </g>
              <g transform="translate(32.12,88.33)" id="img-62be9f3a-44">
                <path d="M-0.26,-0 L 0.26 -0 0.26 0 -0.26 0 z" class="primitive"/>
              </g>
              <g transform="translate(32.58,88.33)" id="img-62be9f3a-45">
                <path d="M-0.26,-0 L 0.26 -0 0.26 0 -0.26 0 z" class="primitive"/>
              </g>
              <g transform="translate(33.05,88.33)" id="img-62be9f3a-46">
                <path d="M-0.26,-0 L 0.26 -0 0.26 0 -0.26 0 z" class="primitive"/>
              </g>
              <g transform="translate(33.52,88.33)" id="img-62be9f3a-47">
                <path d="M-0.26,-0 L 0.26 -0 0.26 0 -0.26 0 z" class="primitive"/>
              </g>
              <g transform="translate(33.98,88.33)" id="img-62be9f3a-48">
                <path d="M-0.26,-0 L 0.26 -0 0.26 0 -0.26 0 z" class="primitive"/>
              </g>
              <g transform="translate(34.45,87.31)" id="img-62be9f3a-49">
                <path d="M-0.26,-1.02 L 0.26 -1.02 0.26 1.02 -0.26 1.02 z" class="primitive"/>
              </g>
              <g transform="translate(34.92,88.33)" id="img-62be9f3a-50">
                <path d="M-0.26,-0 L 0.26 -0 0.26 0 -0.26 0 z" class="primitive"/>
              </g>
              <g transform="translate(35.39,88.33)" id="img-62be9f3a-51">
                <path d="M-0.26,-0 L 0.26 -0 0.26 0 -0.26 0 z" class="primitive"/>
              </g>
              <g transform="translate(35.85,87.31)" id="img-62be9f3a-52">
                <path d="M-0.26,-1.02 L 0.26 -1.02 0.26 1.02 -0.26 1.02 z" class="primitive"/>
              </g>
              <g transform="translate(36.32,85.28)" id="img-62be9f3a-53">
                <path d="M-0.26,-3.05 L 0.26 -3.05 0.26 3.05 -0.26 3.05 z" class="primitive"/>
              </g>
              <g transform="translate(36.79,87.31)" id="img-62be9f3a-54">
                <path d="M-0.26,-1.02 L 0.26 -1.02 0.26 1.02 -0.26 1.02 z" class="primitive"/>
              </g>
              <g transform="translate(37.25,85.28)" id="img-62be9f3a-55">
                <path d="M-0.26,-3.05 L 0.26 -3.05 0.26 3.05 -0.26 3.05 z" class="primitive"/>
              </g>
              <g transform="translate(37.72,86.29)" id="img-62be9f3a-56">
                <path d="M-0.26,-2.03 L 0.26 -2.03 0.26 2.03 -0.26 2.03 z" class="primitive"/>
              </g>
              <g transform="translate(38.19,87.31)" id="img-62be9f3a-57">
                <path d="M-0.26,-1.02 L 0.26 -1.02 0.26 1.02 -0.26 1.02 z" class="primitive"/>
              </g>
              <g transform="translate(38.66,88.33)" id="img-62be9f3a-58">
                <path d="M-0.26,-0 L 0.26 -0 0.26 0 -0.26 0 z" class="primitive"/>
              </g>
              <g transform="translate(39.12,86.29)" id="img-62be9f3a-59">
                <path d="M-0.26,-2.03 L 0.26 -2.03 0.26 2.03 -0.26 2.03 z" class="primitive"/>
              </g>
              <g transform="translate(39.59,85.28)" id="img-62be9f3a-60">
                <path d="M-0.26,-3.05 L 0.26 -3.05 0.26 3.05 -0.26 3.05 z" class="primitive"/>
              </g>
              <g transform="translate(40.06,85.28)" id="img-62be9f3a-61">
                <path d="M-0.26,-3.05 L 0.26 -3.05 0.26 3.05 -0.26 3.05 z" class="primitive"/>
              </g>
              <g transform="translate(40.52,85.28)" id="img-62be9f3a-62">
                <path d="M-0.26,-3.05 L 0.26 -3.05 0.26 3.05 -0.26 3.05 z" class="primitive"/>
              </g>
              <g transform="translate(40.99,86.29)" id="img-62be9f3a-63">
                <path d="M-0.26,-2.03 L 0.26 -2.03 0.26 2.03 -0.26 2.03 z" class="primitive"/>
              </g>
              <g transform="translate(41.46,82.23)" id="img-62be9f3a-64">
                <path d="M-0.26,-6.1 L 0.26 -6.1 0.26 6.1 -0.26 6.1 z" class="primitive"/>
              </g>
              <g transform="translate(41.93,83.24)" id="img-62be9f3a-65">
                <path d="M-0.26,-5.08 L 0.26 -5.08 0.26 5.08 -0.26 5.08 z" class="primitive"/>
              </g>
              <g transform="translate(42.39,84.26)" id="img-62be9f3a-66">
                <path d="M-0.26,-4.07 L 0.26 -4.07 0.26 4.07 -0.26 4.07 z" class="primitive"/>
              </g>
              <g transform="translate(42.86,86.29)" id="img-62be9f3a-67">
                <path d="M-0.26,-2.03 L 0.26 -2.03 0.26 2.03 -0.26 2.03 z" class="primitive"/>
              </g>
              <g transform="translate(43.33,83.24)" id="img-62be9f3a-68">
                <path d="M-0.26,-5.08 L 0.26 -5.08 0.26 5.08 -0.26 5.08 z" class="primitive"/>
              </g>
              <g transform="translate(43.79,86.29)" id="img-62be9f3a-69">
                <path d="M-0.26,-2.03 L 0.26 -2.03 0.26 2.03 -0.26 2.03 z" class="primitive"/>
              </g>
              <g transform="translate(44.26,81.21)" id="img-62be9f3a-70">
                <path d="M-0.26,-7.12 L 0.26 -7.12 0.26 7.12 -0.26 7.12 z" class="primitive"/>
              </g>
              <g transform="translate(44.73,86.29)" id="img-62be9f3a-71">
                <path d="M-0.26,-2.03 L 0.26 -2.03 0.26 2.03 -0.26 2.03 z" class="primitive"/>
              </g>
              <g transform="translate(45.19,81.21)" id="img-62be9f3a-72">
                <path d="M-0.26,-7.12 L 0.26 -7.12 0.26 7.12 -0.26 7.12 z" class="primitive"/>
              </g>
              <g transform="translate(45.66,80.19)" id="img-62be9f3a-73">
                <path d="M-0.26,-8.13 L 0.26 -8.13 0.26 8.13 -0.26 8.13 z" class="primitive"/>
              </g>
              <g transform="translate(46.13,81.21)" id="img-62be9f3a-74">
                <path d="M-0.26,-7.12 L 0.26 -7.12 0.26 7.12 -0.26 7.12 z" class="primitive"/>
              </g>
              <g transform="translate(46.6,80.19)" id="img-62be9f3a-75">
                <path d="M-0.26,-8.13 L 0.26 -8.13 0.26 8.13 -0.26 8.13 z" class="primitive"/>
              </g>
              <g transform="translate(47.06,79.18)" id="img-62be9f3a-76">
                <path d="M-0.26,-9.15 L 0.26 -9.15 0.26 9.15 -0.26 9.15 z" class="primitive"/>
              </g>
              <g transform="translate(47.53,74.09)" id="img-62be9f3a-77">
                <path d="M-0.26,-14.23 L 0.26 -14.23 0.26 14.23 -0.26 14.23 z" class="primitive"/>
              </g>
              <g transform="translate(48,75.11)" id="img-62be9f3a-78">
                <path d="M-0.26,-13.22 L 0.26 -13.22 0.26 13.22 -0.26 13.22 z" class="primitive"/>
              </g>
              <g transform="translate(48.46,72.06)" id="img-62be9f3a-79">
                <path d="M-0.26,-16.27 L 0.26 -16.27 0.26 16.27 -0.26 16.27 z" class="primitive"/>
              </g>
              <g transform="translate(48.93,79.18)" id="img-62be9f3a-80">
                <path d="M-0.26,-9.15 L 0.26 -9.15 0.26 9.15 -0.26 9.15 z" class="primitive"/>
              </g>
              <g transform="translate(49.4,73.08)" id="img-62be9f3a-81">
                <path d="M-0.26,-15.25 L 0.26 -15.25 0.26 15.25 -0.26 15.25 z" class="primitive"/>
              </g>
              <g transform="translate(49.87,74.09)" id="img-62be9f3a-82">
                <path d="M-0.26,-14.23 L 0.26 -14.23 0.26 14.23 -0.26 14.23 z" class="primitive"/>
              </g>
              <g transform="translate(50.33,73.08)" id="img-62be9f3a-83">
                <path d="M-0.26,-15.25 L 0.26 -15.25 0.26 15.25 -0.26 15.25 z" class="primitive"/>
              </g>
              <g transform="translate(50.8,76.13)" id="img-62be9f3a-84">
                <path d="M-0.26,-12.2 L 0.26 -12.2 0.26 12.2 -0.26 12.2 z" class="primitive"/>
              </g>
              <g transform="translate(51.27,71.04)" id="img-62be9f3a-85">
                <path d="M-0.26,-17.28 L 0.26 -17.28 0.26 17.28 -0.26 17.28 z" class="primitive"/>
              </g>
              <g transform="translate(51.73,69.01)" id="img-62be9f3a-86">
                <path d="M-0.26,-19.32 L 0.26 -19.32 0.26 19.32 -0.26 19.32 z" class="primitive"/>
              </g>
              <g transform="translate(52.2,61.9)" id="img-62be9f3a-87">
                <path d="M-0.26,-26.43 L 0.26 -26.43 0.26 26.43 -0.26 26.43 z" class="primitive"/>
              </g>
              <g transform="translate(52.67,57.83)" id="img-62be9f3a-88">
                <path d="M-0.26,-30.5 L 0.26 -30.5 0.26 30.5 -0.26 30.5 z" class="primitive"/>
              </g>
              <g transform="translate(53.14,61.9)" id="img-62be9f3a-89">
                <path d="M-0.26,-26.43 L 0.26 -26.43 0.26 26.43 -0.26 26.43 z" class="primitive"/>
              </g>
              <g transform="translate(53.6,60.88)" id="img-62be9f3a-90">
                <path d="M-0.26,-27.45 L 0.26 -27.45 0.26 27.45 -0.26 27.45 z" class="primitive"/>
              </g>
              <g transform="translate(54.07,57.83)" id="img-62be9f3a-91">
                <path d="M-0.26,-30.5 L 0.26 -30.5 0.26 30.5 -0.26 30.5 z" class="primitive"/>
              </g>
              <g transform="translate(54.54,56.81)" id="img-62be9f3a-92">
                <path d="M-0.26,-31.51 L 0.26 -31.51 0.26 31.51 -0.26 31.51 z" class="primitive"/>
              </g>
              <g transform="translate(55,69.01)" id="img-62be9f3a-93">
                <path d="M-0.26,-19.32 L 0.26 -19.32 0.26 19.32 -0.26 19.32 z" class="primitive"/>
              </g>
              <g transform="translate(55.47,59.86)" id="img-62be9f3a-94">
                <path d="M-0.26,-28.46 L 0.26 -28.46 0.26 28.46 -0.26 28.46 z" class="primitive"/>
              </g>
              <g transform="translate(55.94,53.76)" id="img-62be9f3a-95">
                <path d="M-0.26,-34.56 L 0.26 -34.56 0.26 34.56 -0.26 34.56 z" class="primitive"/>
              </g>
              <g transform="translate(56.4,53.76)" id="img-62be9f3a-96">
                <path d="M-0.26,-34.56 L 0.26 -34.56 0.26 34.56 -0.26 34.56 z" class="primitive"/>
              </g>
              <g transform="translate(56.87,62.91)" id="img-62be9f3a-97">
                <path d="M-0.26,-25.41 L 0.26 -25.41 0.26 25.41 -0.26 25.41 z" class="primitive"/>
              </g>
              <g transform="translate(57.34,60.88)" id="img-62be9f3a-98">
                <path d="M-0.26,-27.45 L 0.26 -27.45 0.26 27.45 -0.26 27.45 z" class="primitive"/>
              </g>
              <g transform="translate(57.81,55.8)" id="img-62be9f3a-99">
                <path d="M-0.26,-32.53 L 0.26 -32.53 0.26 32.53 -0.26 32.53 z" class="primitive"/>
              </g>
              <g transform="translate(58.27,49.7)" id="img-62be9f3a-100">
                <path d="M-0.26,-38.63 L 0.26 -38.63 0.26 38.63 -0.26 38.63 z" class="primitive"/>
              </g>
              <g transform="translate(58.74,60.88)" id="img-62be9f3a-101">
                <path d="M-0.26,-27.45 L 0.26 -27.45 0.26 27.45 -0.26 27.45 z" class="primitive"/>
              </g>
              <g transform="translate(59.21,64.95)" id="img-62be9f3a-102">
                <path d="M-0.26,-23.38 L 0.26 -23.38 0.26 23.38 -0.26 23.38 z" class="primitive"/>
              </g>
              <g transform="translate(59.67,61.9)" id="img-62be9f3a-103">
                <path d="M-0.26,-26.43 L 0.26 -26.43 0.26 26.43 -0.26 26.43 z" class="primitive"/>
              </g>
              <g transform="translate(60.14,57.83)" id="img-62be9f3a-104">
                <path d="M-0.26,-30.5 L 0.26 -30.5 0.26 30.5 -0.26 30.5 z" class="primitive"/>
              </g>
              <g transform="translate(60.61,55.8)" id="img-62be9f3a-105">
                <path d="M-0.26,-32.53 L 0.26 -32.53 0.26 32.53 -0.26 32.53 z" class="primitive"/>
              </g>
              <g transform="translate(61.08,64.95)" id="img-62be9f3a-106">
                <path d="M-0.26,-23.38 L 0.26 -23.38 0.26 23.38 -0.26 23.38 z" class="primitive"/>
              </g>
              <g transform="translate(61.54,62.91)" id="img-62be9f3a-107">
                <path d="M-0.26,-25.41 L 0.26 -25.41 0.26 25.41 -0.26 25.41 z" class="primitive"/>
              </g>
              <g transform="translate(62.01,73.08)" id="img-62be9f3a-108">
                <path d="M-0.26,-15.25 L 0.26 -15.25 0.26 15.25 -0.26 15.25 z" class="primitive"/>
              </g>
              <g transform="translate(62.48,69.01)" id="img-62be9f3a-109">
                <path d="M-0.26,-19.32 L 0.26 -19.32 0.26 19.32 -0.26 19.32 z" class="primitive"/>
              </g>
              <g transform="translate(62.94,69.01)" id="img-62be9f3a-110">
                <path d="M-0.26,-19.32 L 0.26 -19.32 0.26 19.32 -0.26 19.32 z" class="primitive"/>
              </g>
              <g transform="translate(63.41,76.13)" id="img-62be9f3a-111">
                <path d="M-0.26,-12.2 L 0.26 -12.2 0.26 12.2 -0.26 12.2 z" class="primitive"/>
              </g>
              <g transform="translate(63.88,75.11)" id="img-62be9f3a-112">
                <path d="M-0.26,-13.22 L 0.26 -13.22 0.26 13.22 -0.26 13.22 z" class="primitive"/>
              </g>
              <g transform="translate(64.35,68)" id="img-62be9f3a-113">
                <path d="M-0.26,-20.33 L 0.26 -20.33 0.26 20.33 -0.26 20.33 z" class="primitive"/>
              </g>
              <g transform="translate(64.81,84.26)" id="img-62be9f3a-114">
                <path d="M-0.26,-4.07 L 0.26 -4.07 0.26 4.07 -0.26 4.07 z" class="primitive"/>
              </g>
              <g transform="translate(65.28,72.06)" id="img-62be9f3a-115">
                <path d="M-0.26,-16.27 L 0.26 -16.27 0.26 16.27 -0.26 16.27 z" class="primitive"/>
              </g>
              <g transform="translate(65.75,75.11)" id="img-62be9f3a-116">
                <path d="M-0.26,-13.22 L 0.26 -13.22 0.26 13.22 -0.26 13.22 z" class="primitive"/>
              </g>
              <g transform="translate(66.21,81.21)" id="img-62be9f3a-117">
                <path d="M-0.26,-7.12 L 0.26 -7.12 0.26 7.12 -0.26 7.12 z" class="primitive"/>
              </g>
              <g transform="translate(66.68,81.21)" id="img-62be9f3a-118">
                <path d="M-0.26,-7.12 L 0.26 -7.12 0.26 7.12 -0.26 7.12 z" class="primitive"/>
              </g>
              <g transform="translate(67.15,84.26)" id="img-62be9f3a-119">
                <path d="M-0.26,-4.07 L 0.26 -4.07 0.26 4.07 -0.26 4.07 z" class="primitive"/>
              </g>
              <g transform="translate(67.62,82.23)" id="img-62be9f3a-120">
                <path d="M-0.26,-6.1 L 0.26 -6.1 0.26 6.1 -0.26 6.1 z" class="primitive"/>
              </g>
              <g transform="translate(68.08,87.31)" id="img-62be9f3a-121">
                <path d="M-0.26,-1.02 L 0.26 -1.02 0.26 1.02 -0.26 1.02 z" class="primitive"/>
              </g>
              <g transform="translate(68.55,87.31)" id="img-62be9f3a-122">
                <path d="M-0.26,-1.02 L 0.26 -1.02 0.26 1.02 -0.26 1.02 z" class="primitive"/>
              </g>
              <g transform="translate(69.02,86.29)" id="img-62be9f3a-123">
                <path d="M-0.26,-2.03 L 0.26 -2.03 0.26 2.03 -0.26 2.03 z" class="primitive"/>
              </g>
              <g transform="translate(69.48,86.29)" id="img-62be9f3a-124">
                <path d="M-0.26,-2.03 L 0.26 -2.03 0.26 2.03 -0.26 2.03 z" class="primitive"/>
              </g>
              <g transform="translate(69.95,88.33)" id="img-62be9f3a-125">
                <path d="M-0.26,-0 L 0.26 -0 0.26 0 -0.26 0 z" class="primitive"/>
              </g>
              <g transform="translate(70.42,87.31)" id="img-62be9f3a-126">
                <path d="M-0.26,-1.02 L 0.26 -1.02 0.26 1.02 -0.26 1.02 z" class="primitive"/>
              </g>
              <g transform="translate(70.88,88.33)" id="img-62be9f3a-127">
                <path d="M-0.26,-0 L 0.26 -0 0.26 0 -0.26 0 z" class="primitive"/>
              </g>
              <g transform="translate(71.35,87.31)" id="img-62be9f3a-128">
                <path d="M-0.26,-1.02 L 0.26 -1.02 0.26 1.02 -0.26 1.02 z" class="primitive"/>
              </g>
              <g transform="translate(71.82,87.31)" id="img-62be9f3a-129">
                <path d="M-0.26,-1.02 L 0.26 -1.02 0.26 1.02 -0.26 1.02 z" class="primitive"/>
              </g>
            </g>
          </g>
        </g>
      </g>
    </g>
  </g>
  <g class="guide ylabels" font-size="2.82" font-family="'PT Sans Caption','Helvetica Neue','Helvetica',sans-serif" fill="#6C606B" id="img-62be9f3a-130">
    <g transform="translate(16.96,88.33)" id="img-62be9f3a-131">
      <g class="primitive">
        <text text-anchor="end" dy="0.35em">0</text>
      </g>
    </g>
    <g transform="translate(16.96,68)" id="img-62be9f3a-132">
      <g class="primitive">
        <text text-anchor="end" dy="0.35em">10</text>
      </g>
    </g>
    <g transform="translate(16.96,47.66)" id="img-62be9f3a-133">
      <g class="primitive">
        <text text-anchor="end" dy="0.35em">20</text>
      </g>
    </g>
    <g transform="translate(16.96,27.33)" id="img-62be9f3a-134">
      <g class="primitive">
        <text text-anchor="end" dy="0.35em">30</text>
      </g>
    </g>
    <g transform="translate(16.96,7)" id="img-62be9f3a-135">
      <g class="primitive">
        <text text-anchor="end" dy="0.35em">40</text>
      </g>
    </g>
  </g>
  <g font-size="3.88" font-family="'PT Sans','Helvetica Neue','Helvetica',sans-serif" fill="#564A55" stroke="#000000" stroke-opacity="0.000" id="img-62be9f3a-136">
    <g transform="translate(8.81,45.66)" id="img-62be9f3a-137">
      <g class="primitive">
        <text text-anchor="middle" dy="0.35em" transform="rotate(-90,0, 2)">frequency</text>
      </g>
    </g>
  </g>
</g>
<defs>
  <clipPath id="img-62be9f3a-11">
    <path d="M17.96,5 L 82.97 5 82.97 90.33 17.96 90.33" />
  </clipPath>
</defs>
</svg>
