<?xml version="1.0" encoding="UTF-8"?>
<svg xmlns="http://www.w3.org/2000/svg"
     xmlns:xlink="http://www.w3.org/1999/xlink"
     xmlns:gadfly="http://www.gadflyjl.org/ns"
     version="1.2"
     width="141.42mm" height="100mm" viewBox="0 0 141.42 100"
     stroke="none"
     fill="#000000"
     stroke-width="0.3"
     font-size="3.88"
>
<defs>
  <marker id="arrow" markerWidth="15" markerHeight="7" refX="5" refY="3.5" orient="auto" markerUnits="strokeWidth">
    <path d="M0,0 L15,3.5 L0,7 z" stroke="context-stroke" fill="context-stroke"/>
  </marker>
</defs>
<g class="plotroot xscalable yscalable" id="img-34f89859-1">
  <g class="guide xlabels" font-size="2.82" font-family="'PT Sans Caption','Helvetica Neue','Helvetica',sans-serif" fill="#6C606B" id="img-34f89859-2">
    <g transform="translate(18.28,91.33)">
      <g class="primitive">
        <text text-anchor="middle" dy="0.6em">7.5</text>
      </g>
    </g>
    <g transform="translate(33.18,91.33)">
      <g class="primitive">
        <text text-anchor="middle" dy="0.6em">7.6</text>
      </g>
    </g>
    <g transform="translate(48.07,91.33)">
      <g class="primitive">
        <text text-anchor="middle" dy="0.6em">7.7</text>
      </g>
    </g>
    <g transform="translate(62.97,91.33)">
      <g class="primitive">
        <text text-anchor="middle" dy="0.6em">7.8</text>
      </g>
    </g>
    <g transform="translate(77.86,91.33)">
      <g class="primitive">
        <text text-anchor="middle" dy="0.6em">7.9</text>
      </g>
    </g>
  </g>
  <g class="guide colorkey" id="img-34f89859-3">
    <g class="color_noncoding_noncoding_coding_coding_4-tail" id="img-34f89859-4">
      <g fill="#4C404B" font-size="2.82" font-family="'PT Sans','Helvetica Neue','Helvetica',sans-serif" id="img-34f89859-5">
        <g transform="translate(83.67,49.48)" id="img-34f89859-6">
          <g class="primitive">
            <text dy="0.35em">noncoding_noncoding_coding_coding_4-tail</text>
          </g>
        </g>
      </g>
      <g fill-opacity="1" fill="#00BFFF" stroke="#FFFFFF" id="img-34f89859-7">
        <g transform="translate(81.77,49.48)" id="img-34f89859-8">
          <path d="M-0.91,-0.91 L 0.91 -0.91 0.91 0.91 -0.91 0.91 z" class="primitive"/>
        </g>
      </g>
    </g>
    <g fill="#362A35" font-size="3.88" font-family="'PT Sans','Helvetica Neue','Helvetica',sans-serif" stroke="#000000" stroke-opacity="0.000" id="img-34f89859-9">
      <g transform="translate(80.86,45.66)" id="img-34f89859-10">
        <g class="primitive">
          <text dy="-0em">graphlet</text>
        </g>
      </g>
    </g>
  </g>
  <g clip-path="url(#img-34f89859-11)">
    <g id="img-34f89859-12">
      <g pointer-events="visible" stroke-width="0.3" fill="#000000" fill-opacity="0.000" stroke="#000000" stroke-opacity="0.000" class="guide background" id="img-34f89859-13">
        <g transform="translate(48.07,47.66)" id="img-34f89859-14">
          <path d="M-31.79,-42.66 L 31.79 -42.66 31.79 42.66 -31.79 42.66 z" class="primitive"/>
        </g>
      </g>
      <g class="guide ygridlines xfixed" stroke-dasharray="0.5,0.5" stroke-width="0.2" stroke="#D0D0E0" id="img-34f89859-15">
        <g transform="translate(48.07,88.33)" id="img-34f89859-16">
          <path fill="none" d="M-31.79,0 L 31.79 0" class="primitive"/>
        </g>
        <g transform="translate(48.07,74.77)" id="img-34f89859-17">
          <path fill="none" d="M-31.79,0 L 31.79 0" class="primitive"/>
        </g>
        <g transform="translate(48.07,61.22)" id="img-34f89859-18">
          <path fill="none" d="M-31.79,0 L 31.79 0" class="primitive"/>
        </g>
        <g transform="translate(48.07,47.66)" id="img-34f89859-19">
          <path fill="none" d="M-31.79,0 L 31.79 0" class="primitive"/>
        </g>
        <g transform="translate(48.07,34.11)" id="img-34f89859-20">
          <path fill="none" d="M-31.79,0 L 31.79 0" class="primitive"/>
        </g>
        <g transform="translate(48.07,20.55)" id="img-34f89859-21">
          <path fill="none" d="M-31.79,0 L 31.79 0" class="primitive"/>
        </g>
        <g transform="translate(48.07,7)" id="img-34f89859-22">
          <path fill="none" d="M-31.79,0 L 31.79 0" class="primitive"/>
        </g>
      </g>
      <g class="guide xgridlines yfixed" stroke-dasharray="0.5,0.5" stroke-width="0.2" stroke="#D0D0E0" id="img-34f89859-23">
        <g transform="translate(18.28,47.66)" id="img-34f89859-24">
          <path fill="none" d="M0,-42.66 L 0 42.66" class="primitive"/>
        </g>
        <g transform="translate(33.18,47.66)" id="img-34f89859-25">
          <path fill="none" d="M0,-42.66 L 0 42.66" class="primitive"/>
        </g>
        <g transform="translate(48.07,47.66)" id="img-34f89859-26">
          <path fill="none" d="M0,-42.66 L 0 42.66" class="primitive"/>
        </g>
        <g transform="translate(62.97,47.66)" id="img-34f89859-27">
          <path fill="none" d="M0,-42.66 L 0 42.66" class="primitive"/>
        </g>
        <g transform="translate(77.86,47.66)" id="img-34f89859-28">
          <path fill="none" d="M0,-42.66 L 0 42.66" class="primitive"/>
        </g>
      </g>
      <g class="plotpanel" id="img-34f89859-29">
        <metadata>
          <boundingbox value="16.285000000000004mm 5.0mm 63.57635623730952mm 85.32666666666667mm"/>
          <unitbox value="7.48657185416286 6.147553078121158 0.42685629167428046 -6.295106156242315"/>
        </metadata>
        <g shape-rendering="crispEdges" stroke-width="0.3" id="img-34f89859-30">
          <g stroke="#000000" stroke-opacity="0.000" class="geometry" id="img-34f89859-31">
            <g fill="#00BFFF" id="img-34f89859-32">
              <g transform="translate(26.74,81.55)" id="img-34f89859-33">
                <path d="M-0.23,-6.78 L 0.23 -6.78 0.23 6.78 -0.23 6.78 z" class="primitive"/>
              </g>
              <g transform="translate(27.14,88.33)" id="img-34f89859-34">
                <path d="M-0.23,-0 L 0.23 -0 0.23 0 -0.23 0 z" class="primitive"/>
              </g>
              <g transform="translate(27.54,88.33)" id="img-34f89859-35">
                <path d="M-0.23,-0 L 0.23 -0 0.23 0 -0.23 0 z" class="primitive"/>
              </g>
              <g transform="translate(27.94,88.33)" id="img-34f89859-36">
                <path d="M-0.23,-0 L 0.23 -0 0.23 0 -0.23 0 z" class="primitive"/>
              </g>
              <g transform="translate(28.35,88.33)" id="img-34f89859-37">
                <path d="M-0.23,-0 L 0.23 -0 0.23 0 -0.23 0 z" class="primitive"/>
              </g>
              <g transform="translate(28.75,81.55)" id="img-34f89859-38">
                <path d="M-0.23,-6.78 L 0.23 -6.78 0.23 6.78 -0.23 6.78 z" class="primitive"/>
              </g>
              <g transform="translate(29.15,81.55)" id="img-34f89859-39">
                <path d="M-0.23,-6.78 L 0.23 -6.78 0.23 6.78 -0.23 6.78 z" class="primitive"/>
              </g>
              <g transform="translate(29.56,81.55)" id="img-34f89859-40">
                <path d="M-0.23,-6.78 L 0.23 -6.78 0.23 6.78 -0.23 6.78 z" class="primitive"/>
              </g>
              <g transform="translate(29.96,88.33)" id="img-34f89859-41">
                <path d="M-0.23,-0 L 0.23 -0 0.23 0 -0.23 0 z" class="primitive"/>
              </g>
              <g transform="translate(30.36,88.33)" id="img-34f89859-42">
                <path d="M-0.23,-0 L 0.23 -0 0.23 0 -0.23 0 z" class="primitive"/>
              </g>
              <g transform="translate(30.77,81.55)" id="img-34f89859-43">
                <path d="M-0.23,-6.78 L 0.23 -6.78 0.23 6.78 -0.23 6.78 z" class="primitive"/>
              </g>
              <g transform="translate(31.17,81.55)" id="img-34f89859-44">
                <path d="M-0.23,-6.78 L 0.23 -6.78 0.23 6.78 -0.23 6.78 z" class="primitive"/>
              </g>
              <g transform="translate(31.57,88.33)" id="img-34f89859-45">
                <path d="M-0.23,-0 L 0.23 -0 0.23 0 -0.23 0 z" class="primitive"/>
              </g>
              <g transform="translate(31.98,88.33)" id="img-34f89859-46">
                <path d="M-0.23,-0 L 0.23 -0 0.23 0 -0.23 0 z" class="primitive"/>
              </g>
              <g transform="translate(32.38,88.33)" id="img-34f89859-47">
                <path d="M-0.23,-0 L 0.23 -0 0.23 0 -0.23 0 z" class="primitive"/>
              </g>
              <g transform="translate(32.78,88.33)" id="img-34f89859-48">
                <path d="M-0.23,-0 L 0.23 -0 0.23 0 -0.23 0 z" class="primitive"/>
              </g>
              <g transform="translate(33.19,88.33)" id="img-34f89859-49">
                <path d="M-0.23,-0 L 0.23 -0 0.23 0 -0.23 0 z" class="primitive"/>
              </g>
              <g transform="translate(33.59,88.33)" id="img-34f89859-50">
                <path d="M-0.23,-0 L 0.23 -0 0.23 0 -0.23 0 z" class="primitive"/>
              </g>
              <g transform="translate(33.99,88.33)" id="img-34f89859-51">
                <path d="M-0.23,-0 L 0.23 -0 0.23 0 -0.23 0 z" class="primitive"/>
              </g>
              <g transform="translate(34.39,81.55)" id="img-34f89859-52">
                <path d="M-0.23,-6.78 L 0.23 -6.78 0.23 6.78 -0.23 6.78 z" class="primitive"/>
              </g>
              <g transform="translate(34.8,88.33)" id="img-34f89859-53">
                <path d="M-0.23,-0 L 0.23 -0 0.23 0 -0.23 0 z" class="primitive"/>
              </g>
              <g transform="translate(35.2,88.33)" id="img-34f89859-54">
                <path d="M-0.23,-0 L 0.23 -0 0.23 0 -0.23 0 z" class="primitive"/>
              </g>
              <g transform="translate(35.6,81.55)" id="img-34f89859-55">
                <path d="M-0.23,-6.78 L 0.23 -6.78 0.23 6.78 -0.23 6.78 z" class="primitive"/>
              </g>
              <g transform="translate(36.01,81.55)" id="img-34f89859-56">
                <path d="M-0.23,-6.78 L 0.23 -6.78 0.23 6.78 -0.23 6.78 z" class="primitive"/>
              </g>
              <g transform="translate(36.41,74.77)" id="img-34f89859-57">
                <path d="M-0.23,-13.55 L 0.23 -13.55 0.23 13.55 -0.23 13.55 z" class="primitive"/>
              </g>
              <g transform="translate(36.81,74.77)" id="img-34f89859-58">
                <path d="M-0.23,-13.55 L 0.23 -13.55 0.23 13.55 -0.23 13.55 z" class="primitive"/>
              </g>
              <g transform="translate(37.22,88.33)" id="img-34f89859-59">
                <path d="M-0.23,-0 L 0.23 -0 0.23 0 -0.23 0 z" class="primitive"/>
              </g>
              <g transform="translate(37.62,74.77)" id="img-34f89859-60">
                <path d="M-0.23,-13.55 L 0.23 -13.55 0.23 13.55 -0.23 13.55 z" class="primitive"/>
              </g>
              <g transform="translate(38.02,81.55)" id="img-34f89859-61">
                <path d="M-0.23,-6.78 L 0.23 -6.78 0.23 6.78 -0.23 6.78 z" class="primitive"/>
              </g>
              <g transform="translate(38.43,61.22)" id="img-34f89859-62">
                <path d="M-0.23,-27.11 L 0.23 -27.11 0.23 27.11 -0.23 27.11 z" class="primitive"/>
              </g>
              <g transform="translate(38.83,81.55)" id="img-34f89859-63">
                <path d="M-0.23,-6.78 L 0.23 -6.78 0.23 6.78 -0.23 6.78 z" class="primitive"/>
              </g>
              <g transform="translate(39.23,88.33)" id="img-34f89859-64">
                <path d="M-0.23,-0 L 0.23 -0 0.23 0 -0.23 0 z" class="primitive"/>
              </g>
              <g transform="translate(39.64,81.55)" id="img-34f89859-65">
                <path d="M-0.23,-6.78 L 0.23 -6.78 0.23 6.78 -0.23 6.78 z" class="primitive"/>
              </g>
              <g transform="translate(40.04,68)" id="img-34f89859-66">
                <path d="M-0.23,-20.33 L 0.23 -20.33 0.23 20.33 -0.23 20.33 z" class="primitive"/>
              </g>
              <g transform="translate(40.44,88.33)" id="img-34f89859-67">
                <path d="M-0.23,-0 L 0.23 -0 0.23 0 -0.23 0 z" class="primitive"/>
              </g>
              <g transform="translate(40.84,88.33)" id="img-34f89859-68">
                <path d="M-0.23,-0 L 0.23 -0 0.23 0 -0.23 0 z" class="primitive"/>
              </g>
              <g transform="translate(41.25,74.77)" id="img-34f89859-69">
                <path d="M-0.23,-13.55 L 0.23 -13.55 0.23 13.55 -0.23 13.55 z" class="primitive"/>
              </g>
              <g transform="translate(41.65,88.33)" id="img-34f89859-70">
                <path d="M-0.23,-0 L 0.23 -0 0.23 0 -0.23 0 z" class="primitive"/>
              </g>
              <g transform="translate(42.05,81.55)" id="img-34f89859-71">
                <path d="M-0.23,-6.78 L 0.23 -6.78 0.23 6.78 -0.23 6.78 z" class="primitive"/>
              </g>
              <g transform="translate(42.46,74.77)" id="img-34f89859-72">
                <path d="M-0.23,-13.55 L 0.23 -13.55 0.23 13.55 -0.23 13.55 z" class="primitive"/>
              </g>
              <g transform="translate(42.86,74.77)" id="img-34f89859-73">
                <path d="M-0.23,-13.55 L 0.23 -13.55 0.23 13.55 -0.23 13.55 z" class="primitive"/>
              </g>
              <g transform="translate(43.26,81.55)" id="img-34f89859-74">
                <path d="M-0.23,-6.78 L 0.23 -6.78 0.23 6.78 -0.23 6.78 z" class="primitive"/>
              </g>
              <g transform="translate(43.67,88.33)" id="img-34f89859-75">
                <path d="M-0.23,-0 L 0.23 -0 0.23 0 -0.23 0 z" class="primitive"/>
              </g>
              <g transform="translate(44.07,54.44)" id="img-34f89859-76">
                <path d="M-0.23,-33.89 L 0.23 -33.89 0.23 33.89 -0.23 33.89 z" class="primitive"/>
              </g>
              <g transform="translate(44.47,81.55)" id="img-34f89859-77">
                <path d="M-0.23,-6.78 L 0.23 -6.78 0.23 6.78 -0.23 6.78 z" class="primitive"/>
              </g>
              <g transform="translate(44.88,68)" id="img-34f89859-78">
                <path d="M-0.23,-20.33 L 0.23 -20.33 0.23 20.33 -0.23 20.33 z" class="primitive"/>
              </g>
              <g transform="translate(45.28,81.55)" id="img-34f89859-79">
                <path d="M-0.23,-6.78 L 0.23 -6.78 0.23 6.78 -0.23 6.78 z" class="primitive"/>
              </g>
              <g transform="translate(45.68,54.44)" id="img-34f89859-80">
                <path d="M-0.23,-33.89 L 0.23 -33.89 0.23 33.89 -0.23 33.89 z" class="primitive"/>
              </g>
              <g transform="translate(46.09,81.55)" id="img-34f89859-81">
                <path d="M-0.23,-6.78 L 0.23 -6.78 0.23 6.78 -0.23 6.78 z" class="primitive"/>
              </g>
              <g transform="translate(46.49,74.77)" id="img-34f89859-82">
                <path d="M-0.23,-13.55 L 0.23 -13.55 0.23 13.55 -0.23 13.55 z" class="primitive"/>
              </g>
              <g transform="translate(46.89,88.33)" id="img-34f89859-83">
                <path d="M-0.23,-0 L 0.23 -0 0.23 0 -0.23 0 z" class="primitive"/>
              </g>
              <g transform="translate(47.29,54.44)" id="img-34f89859-84">
                <path d="M-0.23,-33.89 L 0.23 -33.89 0.23 33.89 -0.23 33.89 z" class="primitive"/>
              </g>
              <g transform="translate(47.7,88.33)" id="img-34f89859-85">
                <path d="M-0.23,-0 L 0.23 -0 0.23 0 -0.23 0 z" class="primitive"/>
              </g>
              <g transform="translate(48.1,81.55)" id="img-34f89859-86">
                <path d="M-0.23,-6.78 L 0.23 -6.78 0.23 6.78 -0.23 6.78 z" class="primitive"/>
              </g>
              <g transform="translate(48.5,81.55)" id="img-34f89859-87">
                <path d="M-0.23,-6.78 L 0.23 -6.78 0.23 6.78 -0.23 6.78 z" class="primitive"/>
              </g>
              <g transform="translate(48.91,68)" id="img-34f89859-88">
                <path d="M-0.23,-20.33 L 0.23 -20.33 0.23 20.33 -0.23 20.33 z" class="primitive"/>
              </g>
              <g transform="translate(49.31,88.33)" id="img-34f89859-89">
                <path d="M-0.23,-0 L 0.23 -0 0.23 0 -0.23 0 z" class="primitive"/>
              </g>
              <g transform="translate(49.71,47.66)" id="img-34f89859-90">
                <path d="M-0.23,-40.66 L 0.23 -40.66 0.23 40.66 -0.23 40.66 z" class="primitive"/>
              </g>
              <g transform="translate(50.12,81.55)" id="img-34f89859-91">
                <path d="M-0.23,-6.78 L 0.23 -6.78 0.23 6.78 -0.23 6.78 z" class="primitive"/>
              </g>
              <g transform="translate(50.52,88.33)" id="img-34f89859-92">
                <path d="M-0.23,-0 L 0.23 -0 0.23 0 -0.23 0 z" class="primitive"/>
              </g>
              <g transform="translate(50.92,81.55)" id="img-34f89859-93">
                <path d="M-0.23,-6.78 L 0.23 -6.78 0.23 6.78 -0.23 6.78 z" class="primitive"/>
              </g>
              <g transform="translate(51.33,74.77)" id="img-34f89859-94">
                <path d="M-0.23,-13.55 L 0.23 -13.55 0.23 13.55 -0.23 13.55 z" class="primitive"/>
              </g>
              <g transform="translate(51.73,68)" id="img-34f89859-95">
                <path d="M-0.23,-20.33 L 0.23 -20.33 0.23 20.33 -0.23 20.33 z" class="primitive"/>
              </g>
              <g transform="translate(52.13,81.55)" id="img-34f89859-96">
                <path d="M-0.23,-6.78 L 0.23 -6.78 0.23 6.78 -0.23 6.78 z" class="primitive"/>
              </g>
              <g transform="translate(52.54,81.55)" id="img-34f89859-97">
                <path d="M-0.23,-6.78 L 0.23 -6.78 0.23 6.78 -0.23 6.78 z" class="primitive"/>
              </g>
              <g transform="translate(52.94,74.77)" id="img-34f89859-98">
                <path d="M-0.23,-13.55 L 0.23 -13.55 0.23 13.55 -0.23 13.55 z" class="primitive"/>
              </g>
              <g transform="translate(53.34,68)" id="img-34f89859-99">
                <path d="M-0.23,-20.33 L 0.23 -20.33 0.23 20.33 -0.23 20.33 z" class="primitive"/>
              </g>
              <g transform="translate(53.74,74.77)" id="img-34f89859-100">
                <path d="M-0.23,-13.55 L 0.23 -13.55 0.23 13.55 -0.23 13.55 z" class="primitive"/>
              </g>
              <g transform="translate(54.15,74.77)" id="img-34f89859-101">
                <path d="M-0.23,-13.55 L 0.23 -13.55 0.23 13.55 -0.23 13.55 z" class="primitive"/>
              </g>
              <g transform="translate(54.55,81.55)" id="img-34f89859-102">
                <path d="M-0.23,-6.78 L 0.23 -6.78 0.23 6.78 -0.23 6.78 z" class="primitive"/>
              </g>
              <g transform="translate(54.95,81.55)" id="img-34f89859-103">
                <path d="M-0.23,-6.78 L 0.23 -6.78 0.23 6.78 -0.23 6.78 z" class="primitive"/>
              </g>
              <g transform="translate(55.36,88.33)" id="img-34f89859-104">
                <path d="M-0.23,-0 L 0.23 -0 0.23 0 -0.23 0 z" class="primitive"/>
              </g>
              <g transform="translate(55.76,88.33)" id="img-34f89859-105">
                <path d="M-0.23,-0 L 0.23 -0 0.23 0 -0.23 0 z" class="primitive"/>
              </g>
              <g transform="translate(56.16,81.55)" id="img-34f89859-106">
                <path d="M-0.23,-6.78 L 0.23 -6.78 0.23 6.78 -0.23 6.78 z" class="primitive"/>
              </g>
              <g transform="translate(56.57,81.55)" id="img-34f89859-107">
                <path d="M-0.23,-6.78 L 0.23 -6.78 0.23 6.78 -0.23 6.78 z" class="primitive"/>
              </g>
              <g transform="translate(56.97,88.33)" id="img-34f89859-108">
                <path d="M-0.23,-0 L 0.23 -0 0.23 0 -0.23 0 z" class="primitive"/>
              </g>
              <g transform="translate(57.37,74.77)" id="img-34f89859-109">
                <path d="M-0.23,-13.55 L 0.23 -13.55 0.23 13.55 -0.23 13.55 z" class="primitive"/>
              </g>
              <g transform="translate(57.78,74.77)" id="img-34f89859-110">
                <path d="M-0.23,-13.55 L 0.23 -13.55 0.23 13.55 -0.23 13.55 z" class="primitive"/>
              </g>
              <g transform="translate(58.18,88.33)" id="img-34f89859-111">
                <path d="M-0.23,-0 L 0.23 -0 0.23 0 -0.23 0 z" class="primitive"/>
              </g>
              <g transform="translate(58.58,88.33)" id="img-34f89859-112">
                <path d="M-0.23,-0 L 0.23 -0 0.23 0 -0.23 0 z" class="primitive"/>
              </g>
              <g transform="translate(58.99,88.33)" id="img-34f89859-113">
                <path d="M-0.23,-0 L 0.23 -0 0.23 0 -0.23 0 z" class="primitive"/>
              </g>
              <g transform="translate(59.39,81.55)" id="img-34f89859-114">
                <path d="M-0.23,-6.78 L 0.23 -6.78 0.23 6.78 -0.23 6.78 z" class="primitive"/>
              </g>
              <g transform="translate(59.79,81.55)" id="img-34f89859-115">
                <path d="M-0.23,-6.78 L 0.23 -6.78 0.23 6.78 -0.23 6.78 z" class="primitive"/>
              </g>
              <g transform="translate(60.19,88.33)" id="img-34f89859-116">
                <path d="M-0.23,-0 L 0.23 -0 0.23 0 -0.23 0 z" class="primitive"/>
              </g>
              <g transform="translate(60.6,81.55)" id="img-34f89859-117">
                <path d="M-0.23,-6.78 L 0.23 -6.78 0.23 6.78 -0.23 6.78 z" class="primitive"/>
              </g>
              <g transform="translate(61,88.33)" id="img-34f89859-118">
                <path d="M-0.23,-0 L 0.23 -0 0.23 0 -0.23 0 z" class="primitive"/>
              </g>
              <g transform="translate(61.4,88.33)" id="img-34f89859-119">
                <path d="M-0.23,-0 L 0.23 -0 0.23 0 -0.23 0 z" class="primitive"/>
              </g>
              <g transform="translate(61.81,81.55)" id="img-34f89859-120">
                <path d="M-0.23,-6.78 L 0.23 -6.78 0.23 6.78 -0.23 6.78 z" class="primitive"/>
              </g>
              <g transform="translate(62.21,88.33)" id="img-34f89859-121">
                <path d="M-0.23,-0 L 0.23 -0 0.23 0 -0.23 0 z" class="primitive"/>
              </g>
              <g transform="translate(62.61,88.33)" id="img-34f89859-122">
                <path d="M-0.23,-0 L 0.23 -0 0.23 0 -0.23 0 z" class="primitive"/>
              </g>
              <g transform="translate(63.02,81.55)" id="img-34f89859-123">
                <path d="M-0.23,-6.78 L 0.23 -6.78 0.23 6.78 -0.23 6.78 z" class="primitive"/>
              </g>
              <g transform="translate(63.42,88.33)" id="img-34f89859-124">
                <path d="M-0.23,-0 L 0.23 -0 0.23 0 -0.23 0 z" class="primitive"/>
              </g>
              <g transform="translate(63.82,88.33)" id="img-34f89859-125">
                <path d="M-0.23,-0 L 0.23 -0 0.23 0 -0.23 0 z" class="primitive"/>
              </g>
              <g transform="translate(64.23,88.33)" id="img-34f89859-126">
                <path d="M-0.23,-0 L 0.23 -0 0.23 0 -0.23 0 z" class="primitive"/>
              </g>
              <g transform="translate(64.63,88.33)" id="img-34f89859-127">
                <path d="M-0.23,-0 L 0.23 -0 0.23 0 -0.23 0 z" class="primitive"/>
              </g>
              <g transform="translate(65.03,88.33)" id="img-34f89859-128">
                <path d="M-0.23,-0 L 0.23 -0 0.23 0 -0.23 0 z" class="primitive"/>
              </g>
              <g transform="translate(65.44,88.33)" id="img-34f89859-129">
                <path d="M-0.23,-0 L 0.23 -0 0.23 0 -0.23 0 z" class="primitive"/>
              </g>
              <g transform="translate(65.84,88.33)" id="img-34f89859-130">
                <path d="M-0.23,-0 L 0.23 -0 0.23 0 -0.23 0 z" class="primitive"/>
              </g>
              <g transform="translate(66.24,88.33)" id="img-34f89859-131">
                <path d="M-0.23,-0 L 0.23 -0 0.23 0 -0.23 0 z" class="primitive"/>
              </g>
              <g transform="translate(66.64,74.77)" id="img-34f89859-132">
                <path d="M-0.23,-13.55 L 0.23 -13.55 0.23 13.55 -0.23 13.55 z" class="primitive"/>
              </g>
            </g>
          </g>
        </g>
      </g>
    </g>
  </g>
  <g class="guide ylabels" font-size="2.82" font-family="'PT Sans Caption','Helvetica Neue','Helvetica',sans-serif" fill="#6C606B" id="img-34f89859-133">
    <g transform="translate(15.28,88.33)" id="img-34f89859-134">
      <g class="primitive">
        <text text-anchor="end" dy="0.35em">0</text>
      </g>
    </g>
    <g transform="translate(15.28,74.77)" id="img-34f89859-135">
      <g class="primitive">
        <text text-anchor="end" dy="0.35em">1</text>
      </g>
    </g>
    <g transform="translate(15.28,61.22)" id="img-34f89859-136">
      <g class="primitive">
        <text text-anchor="end" dy="0.35em">2</text>
      </g>
    </g>
    <g transform="translate(15.28,47.66)" id="img-34f89859-137">
      <g class="primitive">
        <text text-anchor="end" dy="0.35em">3</text>
      </g>
    </g>
    <g transform="translate(15.28,34.11)" id="img-34f89859-138">
      <g class="primitive">
        <text text-anchor="end" dy="0.35em">4</text>
      </g>
    </g>
    <g transform="translate(15.28,20.55)" id="img-34f89859-139">
      <g class="primitive">
        <text text-anchor="end" dy="0.35em">5</text>
      </g>
    </g>
    <g transform="translate(15.28,7)" id="img-34f89859-140">
      <g class="primitive">
        <text text-anchor="end" dy="0.35em">6</text>
      </g>
    </g>
  </g>
  <g font-size="3.88" font-family="'PT Sans','Helvetica Neue','Helvetica',sans-serif" fill="#564A55" stroke="#000000" stroke-opacity="0.000" id="img-34f89859-141">
    <g transform="translate(8.81,45.66)" id="img-34f89859-142">
      <g class="primitive">
        <text text-anchor="middle" dy="0.35em" transform="rotate(-90,0, 2)">frequency</text>
      </g>
    </g>
  </g>
</g>
<defs>
  <clipPath id="img-34f89859-11">
    <path d="M16.29,5 L 79.86 5 79.86 90.33 16.29 90.33" />
  </clipPath>
</defs>
</svg>
