<?xml version="1.0" encoding="UTF-8"?>
<svg xmlns="http://www.w3.org/2000/svg"
     xmlns:xlink="http://www.w3.org/1999/xlink"
     xmlns:gadfly="http://www.gadflyjl.org/ns"
     version="1.2"
     width="141.42mm" height="100mm" viewBox="0 0 141.42 100"
     stroke="none"
     fill="#000000"
     stroke-width="0.3"
     font-size="3.88"
>
<defs>
  <marker id="arrow" markerWidth="15" markerHeight="7" refX="5" refY="3.5" orient="auto" markerUnits="strokeWidth">
    <path d="M0,0 L15,3.5 L0,7 z" stroke="context-stroke" fill="context-stroke"/>
  </marker>
</defs>
<g class="plotroot xscalable yscalable" id="img-88bf9711-1">
  <g class="guide xlabels" font-size="2.82" font-family="'PT Sans Caption','Helvetica Neue','Helvetica',sans-serif" fill="#6C606B" id="img-88bf9711-2">
    <g transform="translate(19.96,91.33)">
      <g class="primitive">
        <text text-anchor="middle" dy="0.6em">0</text>
      </g>
    </g>
    <g transform="translate(33.29,91.33)">
      <g class="primitive">
        <text text-anchor="middle" dy="0.6em">1×10³</text>
      </g>
    </g>
    <g transform="translate(46.61,91.33)">
      <g class="primitive">
        <text text-anchor="middle" dy="0.6em">2×10³</text>
      </g>
    </g>
    <g transform="translate(59.94,91.33)">
      <g class="primitive">
        <text text-anchor="middle" dy="0.6em">3×10³</text>
      </g>
    </g>
    <g transform="translate(73.27,91.33)">
      <g class="primitive">
        <text text-anchor="middle" dy="0.6em">4×10³</text>
      </g>
    </g>
  </g>
  <g class="guide colorkey" id="img-88bf9711-3">
    <g class="color_noncoding_noncoding_noncoding_coding_4-tail" id="img-88bf9711-4">
      <g fill="#4C404B" font-size="2.82" font-family="'PT Sans','Helvetica Neue','Helvetica',sans-serif" id="img-88bf9711-5">
        <g transform="translate(79.08,49.48)" id="img-88bf9711-6">
          <g class="primitive">
            <text dy="0.35em">noncoding_noncoding_noncoding_coding_4-tail</text>
          </g>
        </g>
      </g>
      <g fill-opacity="1" fill="#00BFFF" stroke="#FFFFFF" id="img-88bf9711-7">
        <g transform="translate(77.17,49.48)" id="img-88bf9711-8">
          <path d="M-0.91,-0.91 L 0.91 -0.91 0.91 0.91 -0.91 0.91 z" class="primitive"/>
        </g>
      </g>
    </g>
    <g fill="#362A35" font-size="3.88" font-family="'PT Sans','Helvetica Neue','Helvetica',sans-serif" stroke="#000000" stroke-opacity="0.000" id="img-88bf9711-9">
      <g transform="translate(76.27,45.66)" id="img-88bf9711-10">
        <g class="primitive">
          <text dy="-0em">graphlet</text>
        </g>
      </g>
    </g>
  </g>
  <g clip-path="url(#img-88bf9711-11)">
    <g id="img-88bf9711-12">
      <g pointer-events="visible" stroke-width="0.3" fill="#000000" fill-opacity="0.000" stroke="#000000" stroke-opacity="0.000" class="guide background" id="img-88bf9711-13">
        <g transform="translate(46.61,47.66)" id="img-88bf9711-14">
          <path d="M-28.65,-42.66 L 28.65 -42.66 28.65 42.66 -28.65 42.66 z" class="primitive"/>
        </g>
      </g>
      <g class="guide ygridlines xfixed" stroke-dasharray="0.5,0.5" stroke-width="0.2" stroke="#D0D0E0" id="img-88bf9711-15">
        <g transform="translate(46.61,88.33)" id="img-88bf9711-16">
          <path fill="none" d="M-28.65,0 L 28.65 0" class="primitive"/>
        </g>
        <g transform="translate(46.61,72.06)" id="img-88bf9711-17">
          <path fill="none" d="M-28.65,0 L 28.65 0" class="primitive"/>
        </g>
        <g transform="translate(46.61,55.8)" id="img-88bf9711-18">
          <path fill="none" d="M-28.65,0 L 28.65 0" class="primitive"/>
        </g>
        <g transform="translate(46.61,39.53)" id="img-88bf9711-19">
          <path fill="none" d="M-28.65,0 L 28.65 0" class="primitive"/>
        </g>
        <g transform="translate(46.61,23.27)" id="img-88bf9711-20">
          <path fill="none" d="M-28.65,0 L 28.65 0" class="primitive"/>
        </g>
        <g transform="translate(46.61,7)" id="img-88bf9711-21">
          <path fill="none" d="M-28.65,0 L 28.65 0" class="primitive"/>
        </g>
      </g>
      <g class="guide xgridlines yfixed" stroke-dasharray="0.5,0.5" stroke-width="0.2" stroke="#D0D0E0" id="img-88bf9711-22">
        <g transform="translate(19.96,47.66)" id="img-88bf9711-23">
          <path fill="none" d="M0,-42.66 L 0 42.66" class="primitive"/>
        </g>
        <g transform="translate(33.29,47.66)" id="img-88bf9711-24">
          <path fill="none" d="M0,-42.66 L 0 42.66" class="primitive"/>
        </g>
        <g transform="translate(46.61,47.66)" id="img-88bf9711-25">
          <path fill="none" d="M0,-42.66 L 0 42.66" class="primitive"/>
        </g>
        <g transform="translate(59.94,47.66)" id="img-88bf9711-26">
          <path fill="none" d="M0,-42.66 L 0 42.66" class="primitive"/>
        </g>
        <g transform="translate(73.27,47.66)" id="img-88bf9711-27">
          <path fill="none" d="M0,-42.66 L 0 42.66" class="primitive"/>
        </g>
      </g>
      <g class="plotpanel" id="img-88bf9711-28">
        <metadata>
          <boundingbox value="17.958333333333336mm 5.0mm 57.30968957064284mm 85.32666666666667mm"/>
          <unitbox value="-150.06652757560843 51.22960898434298 4300.1330551512165 -52.459217968685955"/>
        </metadata>
        <g shape-rendering="crispEdges" stroke-width="0.3" id="img-88bf9711-29">
          <g stroke="#000000" stroke-opacity="0.000" class="geometry" id="img-88bf9711-30">
            <g fill="#00BFFF" id="img-88bf9711-31">
              <g transform="translate(24,85.07)" id="img-88bf9711-32">
                <path d="M-0.23,-3.25 L 0.23 -3.25 0.23 3.25 -0.23 3.25 z" class="primitive"/>
              </g>
              <g transform="translate(24.4,86.7)" id="img-88bf9711-33">
                <path d="M-0.23,-1.63 L 0.23 -1.63 0.23 1.63 -0.23 1.63 z" class="primitive"/>
              </g>
              <g transform="translate(24.81,84.26)" id="img-88bf9711-34">
                <path d="M-0.23,-4.07 L 0.23 -4.07 0.23 4.07 -0.23 4.07 z" class="primitive"/>
              </g>
              <g transform="translate(25.21,83.45)" id="img-88bf9711-35">
                <path d="M-0.23,-4.88 L 0.23 -4.88 0.23 4.88 -0.23 4.88 z" class="primitive"/>
              </g>
              <g transform="translate(25.62,80.19)" id="img-88bf9711-36">
                <path d="M-0.23,-8.13 L 0.23 -8.13 0.23 8.13 -0.23 8.13 z" class="primitive"/>
              </g>
              <g transform="translate(26.02,76.13)" id="img-88bf9711-37">
                <path d="M-0.23,-12.2 L 0.23 -12.2 0.23 12.2 -0.23 12.2 z" class="primitive"/>
              </g>
              <g transform="translate(26.43,83.45)" id="img-88bf9711-38">
                <path d="M-0.23,-4.88 L 0.23 -4.88 0.23 4.88 -0.23 4.88 z" class="primitive"/>
              </g>
              <g transform="translate(26.83,73.69)" id="img-88bf9711-39">
                <path d="M-0.23,-14.64 L 0.23 -14.64 0.23 14.64 -0.23 14.64 z" class="primitive"/>
              </g>
              <g transform="translate(27.24,74.5)" id="img-88bf9711-40">
                <path d="M-0.23,-13.83 L 0.23 -13.83 0.23 13.83 -0.23 13.83 z" class="primitive"/>
              </g>
              <g transform="translate(27.64,67.18)" id="img-88bf9711-41">
                <path d="M-0.23,-21.14 L 0.23 -21.14 0.23 21.14 -0.23 21.14 z" class="primitive"/>
              </g>
              <g transform="translate(28.05,67.18)" id="img-88bf9711-42">
                <path d="M-0.23,-21.14 L 0.23 -21.14 0.23 21.14 -0.23 21.14 z" class="primitive"/>
              </g>
              <g transform="translate(28.45,64.74)" id="img-88bf9711-43">
                <path d="M-0.23,-23.58 L 0.23 -23.58 0.23 23.58 -0.23 23.58 z" class="primitive"/>
              </g>
              <g transform="translate(28.86,71.25)" id="img-88bf9711-44">
                <path d="M-0.23,-17.08 L 0.23 -17.08 0.23 17.08 -0.23 17.08 z" class="primitive"/>
              </g>
              <g transform="translate(29.26,59.05)" id="img-88bf9711-45">
                <path d="M-0.23,-29.28 L 0.23 -29.28 0.23 29.28 -0.23 29.28 z" class="primitive"/>
              </g>
              <g transform="translate(29.67,68.81)" id="img-88bf9711-46">
                <path d="M-0.23,-19.52 L 0.23 -19.52 0.23 19.52 -0.23 19.52 z" class="primitive"/>
              </g>
              <g transform="translate(30.07,60.68)" id="img-88bf9711-47">
                <path d="M-0.23,-27.65 L 0.23 -27.65 0.23 27.65 -0.23 27.65 z" class="primitive"/>
              </g>
              <g transform="translate(30.48,57.42)" id="img-88bf9711-48">
                <path d="M-0.23,-30.9 L 0.23 -30.9 0.23 30.9 -0.23 30.9 z" class="primitive"/>
              </g>
              <g transform="translate(30.88,59.86)" id="img-88bf9711-49">
                <path d="M-0.23,-28.46 L 0.23 -28.46 0.23 28.46 -0.23 28.46 z" class="primitive"/>
              </g>
              <g transform="translate(31.28,59.05)" id="img-88bf9711-50">
                <path d="M-0.23,-29.28 L 0.23 -29.28 0.23 29.28 -0.23 29.28 z" class="primitive"/>
              </g>
              <g transform="translate(31.69,64.74)" id="img-88bf9711-51">
                <path d="M-0.23,-23.58 L 0.23 -23.58 0.23 23.58 -0.23 23.58 z" class="primitive"/>
              </g>
              <g transform="translate(32.09,57.42)" id="img-88bf9711-52">
                <path d="M-0.23,-30.9 L 0.23 -30.9 0.23 30.9 -0.23 30.9 z" class="primitive"/>
              </g>
              <g transform="translate(32.5,56.61)" id="img-88bf9711-53">
                <path d="M-0.23,-31.72 L 0.23 -31.72 0.23 31.72 -0.23 31.72 z" class="primitive"/>
              </g>
              <g transform="translate(32.9,52.54)" id="img-88bf9711-54">
                <path d="M-0.23,-35.78 L 0.23 -35.78 0.23 35.78 -0.23 35.78 z" class="primitive"/>
              </g>
              <g transform="translate(33.31,72.06)" id="img-88bf9711-55">
                <path d="M-0.23,-16.27 L 0.23 -16.27 0.23 16.27 -0.23 16.27 z" class="primitive"/>
              </g>
              <g transform="translate(33.71,72.87)" id="img-88bf9711-56">
                <path d="M-0.23,-15.45 L 0.23 -15.45 0.23 15.45 -0.23 15.45 z" class="primitive"/>
              </g>
              <g transform="translate(34.12,63.93)" id="img-88bf9711-57">
                <path d="M-0.23,-24.4 L 0.23 -24.4 0.23 24.4 -0.23 24.4 z" class="primitive"/>
              </g>
              <g transform="translate(34.52,59.86)" id="img-88bf9711-58">
                <path d="M-0.23,-28.46 L 0.23 -28.46 0.23 28.46 -0.23 28.46 z" class="primitive"/>
              </g>
              <g transform="translate(34.93,65.56)" id="img-88bf9711-59">
                <path d="M-0.23,-22.77 L 0.23 -22.77 0.23 22.77 -0.23 22.77 z" class="primitive"/>
              </g>
              <g transform="translate(35.33,77.75)" id="img-88bf9711-60">
                <path d="M-0.23,-10.57 L 0.23 -10.57 0.23 10.57 -0.23 10.57 z" class="primitive"/>
              </g>
              <g transform="translate(35.74,69.62)" id="img-88bf9711-61">
                <path d="M-0.23,-18.71 L 0.23 -18.71 0.23 18.71 -0.23 18.71 z" class="primitive"/>
              </g>
              <g transform="translate(36.14,64.74)" id="img-88bf9711-62">
                <path d="M-0.23,-23.58 L 0.23 -23.58 0.23 23.58 -0.23 23.58 z" class="primitive"/>
              </g>
              <g transform="translate(36.55,76.13)" id="img-88bf9711-63">
                <path d="M-0.23,-12.2 L 0.23 -12.2 0.23 12.2 -0.23 12.2 z" class="primitive"/>
              </g>
              <g transform="translate(36.95,72.06)" id="img-88bf9711-64">
                <path d="M-0.23,-16.27 L 0.23 -16.27 0.23 16.27 -0.23 16.27 z" class="primitive"/>
              </g>
              <g transform="translate(37.36,71.25)" id="img-88bf9711-65">
                <path d="M-0.23,-17.08 L 0.23 -17.08 0.23 17.08 -0.23 17.08 z" class="primitive"/>
              </g>
              <g transform="translate(37.76,81.01)" id="img-88bf9711-66">
                <path d="M-0.23,-7.32 L 0.23 -7.32 0.23 7.32 -0.23 7.32 z" class="primitive"/>
              </g>
              <g transform="translate(38.17,73.69)" id="img-88bf9711-67">
                <path d="M-0.23,-14.64 L 0.23 -14.64 0.23 14.64 -0.23 14.64 z" class="primitive"/>
              </g>
              <g transform="translate(38.57,76.13)" id="img-88bf9711-68">
                <path d="M-0.23,-12.2 L 0.23 -12.2 0.23 12.2 -0.23 12.2 z" class="primitive"/>
              </g>
              <g transform="translate(38.97,80.19)" id="img-88bf9711-69">
                <path d="M-0.23,-8.13 L 0.23 -8.13 0.23 8.13 -0.23 8.13 z" class="primitive"/>
              </g>
              <g transform="translate(39.38,78.57)" id="img-88bf9711-70">
                <path d="M-0.23,-9.76 L 0.23 -9.76 0.23 9.76 -0.23 9.76 z" class="primitive"/>
              </g>
              <g transform="translate(39.78,78.57)" id="img-88bf9711-71">
                <path d="M-0.23,-9.76 L 0.23 -9.76 0.23 9.76 -0.23 9.76 z" class="primitive"/>
              </g>
              <g transform="translate(40.19,79.38)" id="img-88bf9711-72">
                <path d="M-0.23,-8.95 L 0.23 -8.95 0.23 8.95 -0.23 8.95 z" class="primitive"/>
              </g>
              <g transform="translate(40.59,80.19)" id="img-88bf9711-73">
                <path d="M-0.23,-8.13 L 0.23 -8.13 0.23 8.13 -0.23 8.13 z" class="primitive"/>
              </g>
              <g transform="translate(41,81.01)" id="img-88bf9711-74">
                <path d="M-0.23,-7.32 L 0.23 -7.32 0.23 7.32 -0.23 7.32 z" class="primitive"/>
              </g>
              <g transform="translate(41.4,81.01)" id="img-88bf9711-75">
                <path d="M-0.23,-7.32 L 0.23 -7.32 0.23 7.32 -0.23 7.32 z" class="primitive"/>
              </g>
              <g transform="translate(41.81,81.01)" id="img-88bf9711-76">
                <path d="M-0.23,-7.32 L 0.23 -7.32 0.23 7.32 -0.23 7.32 z" class="primitive"/>
              </g>
              <g transform="translate(42.21,84.26)" id="img-88bf9711-77">
                <path d="M-0.23,-4.07 L 0.23 -4.07 0.23 4.07 -0.23 4.07 z" class="primitive"/>
              </g>
              <g transform="translate(42.62,84.26)" id="img-88bf9711-78">
                <path d="M-0.23,-4.07 L 0.23 -4.07 0.23 4.07 -0.23 4.07 z" class="primitive"/>
              </g>
              <g transform="translate(43.02,85.07)" id="img-88bf9711-79">
                <path d="M-0.23,-3.25 L 0.23 -3.25 0.23 3.25 -0.23 3.25 z" class="primitive"/>
              </g>
              <g transform="translate(43.43,81.01)" id="img-88bf9711-80">
                <path d="M-0.23,-7.32 L 0.23 -7.32 0.23 7.32 -0.23 7.32 z" class="primitive"/>
              </g>
              <g transform="translate(43.83,83.45)" id="img-88bf9711-81">
                <path d="M-0.23,-4.88 L 0.23 -4.88 0.23 4.88 -0.23 4.88 z" class="primitive"/>
              </g>
              <g transform="translate(44.24,84.26)" id="img-88bf9711-82">
                <path d="M-0.23,-4.07 L 0.23 -4.07 0.23 4.07 -0.23 4.07 z" class="primitive"/>
              </g>
              <g transform="translate(44.64,82.63)" id="img-88bf9711-83">
                <path d="M-0.23,-5.69 L 0.23 -5.69 0.23 5.69 -0.23 5.69 z" class="primitive"/>
              </g>
              <g transform="translate(45.05,86.7)" id="img-88bf9711-84">
                <path d="M-0.23,-1.63 L 0.23 -1.63 0.23 1.63 -0.23 1.63 z" class="primitive"/>
              </g>
              <g transform="translate(45.45,85.89)" id="img-88bf9711-85">
                <path d="M-0.23,-2.44 L 0.23 -2.44 0.23 2.44 -0.23 2.44 z" class="primitive"/>
              </g>
              <g transform="translate(45.86,87.51)" id="img-88bf9711-86">
                <path d="M-0.23,-0.81 L 0.23 -0.81 0.23 0.81 -0.23 0.81 z" class="primitive"/>
              </g>
              <g transform="translate(46.26,85.07)" id="img-88bf9711-87">
                <path d="M-0.23,-3.25 L 0.23 -3.25 0.23 3.25 -0.23 3.25 z" class="primitive"/>
              </g>
              <g transform="translate(46.67,85.07)" id="img-88bf9711-88">
                <path d="M-0.23,-3.25 L 0.23 -3.25 0.23 3.25 -0.23 3.25 z" class="primitive"/>
              </g>
              <g transform="translate(47.07,85.89)" id="img-88bf9711-89">
                <path d="M-0.23,-2.44 L 0.23 -2.44 0.23 2.44 -0.23 2.44 z" class="primitive"/>
              </g>
              <g transform="translate(47.47,83.45)" id="img-88bf9711-90">
                <path d="M-0.23,-4.88 L 0.23 -4.88 0.23 4.88 -0.23 4.88 z" class="primitive"/>
              </g>
              <g transform="translate(47.88,85.89)" id="img-88bf9711-91">
                <path d="M-0.23,-2.44 L 0.23 -2.44 0.23 2.44 -0.23 2.44 z" class="primitive"/>
              </g>
              <g transform="translate(48.28,85.89)" id="img-88bf9711-92">
                <path d="M-0.23,-2.44 L 0.23 -2.44 0.23 2.44 -0.23 2.44 z" class="primitive"/>
              </g>
              <g transform="translate(48.69,88.33)" id="img-88bf9711-93">
                <path d="M-0.23,-0 L 0.23 -0 0.23 0 -0.23 0 z" class="primitive"/>
              </g>
              <g transform="translate(49.09,88.33)" id="img-88bf9711-94">
                <path d="M-0.23,-0 L 0.23 -0 0.23 0 -0.23 0 z" class="primitive"/>
              </g>
              <g transform="translate(49.5,87.51)" id="img-88bf9711-95">
                <path d="M-0.23,-0.81 L 0.23 -0.81 0.23 0.81 -0.23 0.81 z" class="primitive"/>
              </g>
              <g transform="translate(49.9,88.33)" id="img-88bf9711-96">
                <path d="M-0.23,-0 L 0.23 -0 0.23 0 -0.23 0 z" class="primitive"/>
              </g>
              <g transform="translate(50.31,87.51)" id="img-88bf9711-97">
                <path d="M-0.23,-0.81 L 0.23 -0.81 0.23 0.81 -0.23 0.81 z" class="primitive"/>
              </g>
              <g transform="translate(50.71,86.7)" id="img-88bf9711-98">
                <path d="M-0.23,-1.63 L 0.23 -1.63 0.23 1.63 -0.23 1.63 z" class="primitive"/>
              </g>
              <g transform="translate(51.12,88.33)" id="img-88bf9711-99">
                <path d="M-0.23,-0 L 0.23 -0 0.23 0 -0.23 0 z" class="primitive"/>
              </g>
              <g transform="translate(51.52,86.7)" id="img-88bf9711-100">
                <path d="M-0.23,-1.63 L 0.23 -1.63 0.23 1.63 -0.23 1.63 z" class="primitive"/>
              </g>
              <g transform="translate(51.93,87.51)" id="img-88bf9711-101">
                <path d="M-0.23,-0.81 L 0.23 -0.81 0.23 0.81 -0.23 0.81 z" class="primitive"/>
              </g>
              <g transform="translate(52.33,88.33)" id="img-88bf9711-102">
                <path d="M-0.23,-0 L 0.23 -0 0.23 0 -0.23 0 z" class="primitive"/>
              </g>
              <g transform="translate(52.74,88.33)" id="img-88bf9711-103">
                <path d="M-0.23,-0 L 0.23 -0 0.23 0 -0.23 0 z" class="primitive"/>
              </g>
              <g transform="translate(53.14,85.89)" id="img-88bf9711-104">
                <path d="M-0.23,-2.44 L 0.23 -2.44 0.23 2.44 -0.23 2.44 z" class="primitive"/>
              </g>
              <g transform="translate(53.55,88.33)" id="img-88bf9711-105">
                <path d="M-0.23,-0 L 0.23 -0 0.23 0 -0.23 0 z" class="primitive"/>
              </g>
              <g transform="translate(53.95,87.51)" id="img-88bf9711-106">
                <path d="M-0.23,-0.81 L 0.23 -0.81 0.23 0.81 -0.23 0.81 z" class="primitive"/>
              </g>
              <g transform="translate(54.36,87.51)" id="img-88bf9711-107">
                <path d="M-0.23,-0.81 L 0.23 -0.81 0.23 0.81 -0.23 0.81 z" class="primitive"/>
              </g>
              <g transform="translate(54.76,88.33)" id="img-88bf9711-108">
                <path d="M-0.23,-0 L 0.23 -0 0.23 0 -0.23 0 z" class="primitive"/>
              </g>
              <g transform="translate(55.17,88.33)" id="img-88bf9711-109">
                <path d="M-0.23,-0 L 0.23 -0 0.23 0 -0.23 0 z" class="primitive"/>
              </g>
              <g transform="translate(55.57,88.33)" id="img-88bf9711-110">
                <path d="M-0.23,-0 L 0.23 -0 0.23 0 -0.23 0 z" class="primitive"/>
              </g>
              <g transform="translate(55.97,87.51)" id="img-88bf9711-111">
                <path d="M-0.23,-0.81 L 0.23 -0.81 0.23 0.81 -0.23 0.81 z" class="primitive"/>
              </g>
              <g transform="translate(56.38,88.33)" id="img-88bf9711-112">
                <path d="M-0.23,-0 L 0.23 -0 0.23 0 -0.23 0 z" class="primitive"/>
              </g>
              <g transform="translate(56.78,88.33)" id="img-88bf9711-113">
                <path d="M-0.23,-0 L 0.23 -0 0.23 0 -0.23 0 z" class="primitive"/>
              </g>
              <g transform="translate(57.19,88.33)" id="img-88bf9711-114">
                <path d="M-0.23,-0 L 0.23 -0 0.23 0 -0.23 0 z" class="primitive"/>
              </g>
              <g transform="translate(57.59,87.51)" id="img-88bf9711-115">
                <path d="M-0.23,-0.81 L 0.23 -0.81 0.23 0.81 -0.23 0.81 z" class="primitive"/>
              </g>
              <g transform="translate(58,88.33)" id="img-88bf9711-116">
                <path d="M-0.23,-0 L 0.23 -0 0.23 0 -0.23 0 z" class="primitive"/>
              </g>
              <g transform="translate(58.4,88.33)" id="img-88bf9711-117">
                <path d="M-0.23,-0 L 0.23 -0 0.23 0 -0.23 0 z" class="primitive"/>
              </g>
              <g transform="translate(58.81,88.33)" id="img-88bf9711-118">
                <path d="M-0.23,-0 L 0.23 -0 0.23 0 -0.23 0 z" class="primitive"/>
              </g>
              <g transform="translate(59.21,88.33)" id="img-88bf9711-119">
                <path d="M-0.23,-0 L 0.23 -0 0.23 0 -0.23 0 z" class="primitive"/>
              </g>
              <g transform="translate(59.62,88.33)" id="img-88bf9711-120">
                <path d="M-0.23,-0 L 0.23 -0 0.23 0 -0.23 0 z" class="primitive"/>
              </g>
              <g transform="translate(60.02,88.33)" id="img-88bf9711-121">
                <path d="M-0.23,-0 L 0.23 -0 0.23 0 -0.23 0 z" class="primitive"/>
              </g>
              <g transform="translate(60.43,88.33)" id="img-88bf9711-122">
                <path d="M-0.23,-0 L 0.23 -0 0.23 0 -0.23 0 z" class="primitive"/>
              </g>
              <g transform="translate(60.83,88.33)" id="img-88bf9711-123">
                <path d="M-0.23,-0 L 0.23 -0 0.23 0 -0.23 0 z" class="primitive"/>
              </g>
              <g transform="translate(61.24,88.33)" id="img-88bf9711-124">
                <path d="M-0.23,-0 L 0.23 -0 0.23 0 -0.23 0 z" class="primitive"/>
              </g>
              <g transform="translate(61.64,88.33)" id="img-88bf9711-125">
                <path d="M-0.23,-0 L 0.23 -0 0.23 0 -0.23 0 z" class="primitive"/>
              </g>
              <g transform="translate(62.05,88.33)" id="img-88bf9711-126">
                <path d="M-0.23,-0 L 0.23 -0 0.23 0 -0.23 0 z" class="primitive"/>
              </g>
              <g transform="translate(62.45,88.33)" id="img-88bf9711-127">
                <path d="M-0.23,-0 L 0.23 -0 0.23 0 -0.23 0 z" class="primitive"/>
              </g>
              <g transform="translate(62.86,88.33)" id="img-88bf9711-128">
                <path d="M-0.23,-0 L 0.23 -0 0.23 0 -0.23 0 z" class="primitive"/>
              </g>
              <g transform="translate(63.26,88.33)" id="img-88bf9711-129">
                <path d="M-0.23,-0 L 0.23 -0 0.23 0 -0.23 0 z" class="primitive"/>
              </g>
              <g transform="translate(63.66,88.33)" id="img-88bf9711-130">
                <path d="M-0.23,-0 L 0.23 -0 0.23 0 -0.23 0 z" class="primitive"/>
              </g>
              <g transform="translate(64.07,87.51)" id="img-88bf9711-131">
                <path d="M-0.23,-0.81 L 0.23 -0.81 0.23 0.81 -0.23 0.81 z" class="primitive"/>
              </g>
            </g>
          </g>
        </g>
      </g>
    </g>
  </g>
  <g class="guide ylabels" font-size="2.82" font-family="'PT Sans Caption','Helvetica Neue','Helvetica',sans-serif" fill="#6C606B" id="img-88bf9711-132">
    <g transform="translate(16.96,88.33)" id="img-88bf9711-133">
      <g class="primitive">
        <text text-anchor="end" dy="0.35em">0</text>
      </g>
    </g>
    <g transform="translate(16.96,72.06)" id="img-88bf9711-134">
      <g class="primitive">
        <text text-anchor="end" dy="0.35em">10</text>
      </g>
    </g>
    <g transform="translate(16.96,55.8)" id="img-88bf9711-135">
      <g class="primitive">
        <text text-anchor="end" dy="0.35em">20</text>
      </g>
    </g>
    <g transform="translate(16.96,39.53)" id="img-88bf9711-136">
      <g class="primitive">
        <text text-anchor="end" dy="0.35em">30</text>
      </g>
    </g>
    <g transform="translate(16.96,23.27)" id="img-88bf9711-137">
      <g class="primitive">
        <text text-anchor="end" dy="0.35em">40</text>
      </g>
    </g>
    <g transform="translate(16.96,7)" id="img-88bf9711-138">
      <g class="primitive">
        <text text-anchor="end" dy="0.35em">50</text>
      </g>
    </g>
  </g>
  <g font-size="3.88" font-family="'PT Sans','Helvetica Neue','Helvetica',sans-serif" fill="#564A55" stroke="#000000" stroke-opacity="0.000" id="img-88bf9711-139">
    <g transform="translate(8.81,45.66)" id="img-88bf9711-140">
      <g class="primitive">
        <text text-anchor="middle" dy="0.35em" transform="rotate(-90,0, 2)">frequency</text>
      </g>
    </g>
  </g>
</g>
<defs>
  <clipPath id="img-88bf9711-11">
    <path d="M17.96,5 L 75.27 5 75.27 90.33 17.96 90.33" />
  </clipPath>
</defs>
</svg>
