<?xml version="1.0" encoding="UTF-8"?>
<svg xmlns="http://www.w3.org/2000/svg"
     xmlns:xlink="http://www.w3.org/1999/xlink"
     xmlns:gadfly="http://www.gadflyjl.org/ns"
     version="1.2"
     width="141.42mm" height="100mm" viewBox="0 0 141.42 100"
     stroke="none"
     fill="#000000"
     stroke-width="0.3"
     font-size="3.88"
>
<defs>
  <marker id="arrow" markerWidth="15" markerHeight="7" refX="5" refY="3.5" orient="auto" markerUnits="strokeWidth">
    <path d="M0,0 L15,3.5 L0,7 z" stroke="context-stroke" fill="context-stroke"/>
  </marker>
</defs>
<g class="plotroot xscalable yscalable" id="img-6c7d2a56-1">
  <g class="guide xlabels" font-size="2.82" font-family="'PT Sans Caption','Helvetica Neue','Helvetica',sans-serif" fill="#6C606B" id="img-6c7d2a56-2">
    <g transform="translate(21.63,91.33)">
      <g class="primitive">
        <text text-anchor="middle" dy="0.6em">0</text>
      </g>
    </g>
    <g transform="translate(28.99,91.33)">
      <g class="primitive">
        <text text-anchor="middle" dy="0.6em">100</text>
      </g>
    </g>
    <g transform="translate(36.36,91.33)">
      <g class="primitive">
        <text text-anchor="middle" dy="0.6em">200</text>
      </g>
    </g>
    <g transform="translate(43.72,91.33)">
      <g class="primitive">
        <text text-anchor="middle" dy="0.6em">300</text>
      </g>
    </g>
    <g transform="translate(51.08,91.33)">
      <g class="primitive">
        <text text-anchor="middle" dy="0.6em">400</text>
      </g>
    </g>
    <g transform="translate(58.45,91.33)">
      <g class="primitive">
        <text text-anchor="middle" dy="0.6em">500</text>
      </g>
    </g>
    <g transform="translate(65.81,91.33)">
      <g class="primitive">
        <text text-anchor="middle" dy="0.6em">600</text>
      </g>
    </g>
  </g>
  <g class="guide colorkey" id="img-6c7d2a56-3">
    <g class="color_noncoding_noncoding_noncoding_noncoding_4-chord" id="img-6c7d2a56-4">
      <g fill="#4C404B" font-size="2.82" font-family="'PT Sans','Helvetica Neue','Helvetica',sans-serif" id="img-6c7d2a56-5">
        <g transform="translate(71.62,49.48)" id="img-6c7d2a56-6">
          <g class="primitive">
            <text dy="0.35em">noncoding_noncoding_noncoding_noncoding_4-chord</text>
          </g>
        </g>
      </g>
      <g fill-opacity="1" fill="#00BFFF" stroke="#FFFFFF" id="img-6c7d2a56-7">
        <g transform="translate(69.71,49.48)" id="img-6c7d2a56-8">
          <path d="M-0.91,-0.91 L 0.91 -0.91 0.91 0.91 -0.91 0.91 z" class="primitive"/>
        </g>
      </g>
    </g>
    <g fill="#362A35" font-size="3.88" font-family="'PT Sans','Helvetica Neue','Helvetica',sans-serif" stroke="#000000" stroke-opacity="0.000" id="img-6c7d2a56-9">
      <g transform="translate(68.81,45.66)" id="img-6c7d2a56-10">
        <g class="primitive">
          <text dy="-0em">graphlet</text>
        </g>
      </g>
    </g>
  </g>
  <g clip-path="url(#img-6c7d2a56-11)">
    <g id="img-6c7d2a56-12">
      <g pointer-events="visible" stroke-width="0.3" fill="#000000" fill-opacity="0.000" stroke="#000000" stroke-opacity="0.000" class="guide background" id="img-6c7d2a56-13">
        <g transform="translate(43.72,47.66)" id="img-6c7d2a56-14">
          <path d="M-24.09,-42.66 L 24.09 -42.66 24.09 42.66 -24.09 42.66 z" class="primitive"/>
        </g>
      </g>
      <g class="guide ygridlines xfixed" stroke-dasharray="0.5,0.5" stroke-width="0.2" stroke="#D0D0E0" id="img-6c7d2a56-15">
        <g transform="translate(43.72,88.33)" id="img-6c7d2a56-16">
          <path fill="none" d="M-24.09,0 L 24.09 0" class="primitive"/>
        </g>
        <g transform="translate(43.72,47.66)" id="img-6c7d2a56-17">
          <path fill="none" d="M-24.09,0 L 24.09 0" class="primitive"/>
        </g>
        <g transform="translate(43.72,7)" id="img-6c7d2a56-18">
          <path fill="none" d="M-24.09,0 L 24.09 0" class="primitive"/>
        </g>
      </g>
      <g class="guide xgridlines yfixed" stroke-dasharray="0.5,0.5" stroke-width="0.2" stroke="#D0D0E0" id="img-6c7d2a56-19">
        <g transform="translate(21.63,47.66)" id="img-6c7d2a56-20">
          <path fill="none" d="M0,-42.66 L 0 42.66" class="primitive"/>
        </g>
        <g transform="translate(28.99,47.66)" id="img-6c7d2a56-21">
          <path fill="none" d="M0,-42.66 L 0 42.66" class="primitive"/>
        </g>
        <g transform="translate(36.36,47.66)" id="img-6c7d2a56-22">
          <path fill="none" d="M0,-42.66 L 0 42.66" class="primitive"/>
        </g>
        <g transform="translate(43.72,47.66)" id="img-6c7d2a56-23">
          <path fill="none" d="M0,-42.66 L 0 42.66" class="primitive"/>
        </g>
        <g transform="translate(51.08,47.66)" id="img-6c7d2a56-24">
          <path fill="none" d="M0,-42.66 L 0 42.66" class="primitive"/>
        </g>
        <g transform="translate(58.45,47.66)" id="img-6c7d2a56-25">
          <path fill="none" d="M0,-42.66 L 0 42.66" class="primitive"/>
        </g>
        <g transform="translate(65.81,47.66)" id="img-6c7d2a56-26">
          <path fill="none" d="M0,-42.66 L 0 42.66" class="primitive"/>
        </g>
      </g>
      <g class="plotpanel" id="img-6c7d2a56-27">
        <metadata>
          <boundingbox value="19.631666666666668mm 5.0mm 48.17635623730952mm 85.32666666666667mm"/>
          <unitbox value="-27.16385193821236 102.45921796868596 654.3277038764247 -104.91843593737191"/>
        </metadata>
        <g shape-rendering="crispEdges" stroke-width="0.3" id="img-6c7d2a56-28">
          <g stroke="#000000" stroke-opacity="0.000" class="geometry" id="img-6c7d2a56-29">
            <g fill="#00BFFF" id="img-6c7d2a56-30">
              <g transform="translate(22.12,85.89)" id="img-6c7d2a56-31">
                <path d="M-0.22,-2.44 L 0.22 -2.44 0.22 2.44 -0.22 2.44 z" class="primitive"/>
              </g>
              <g transform="translate(22.52,83.45)" id="img-6c7d2a56-32">
                <path d="M-0.22,-4.88 L 0.22 -4.88 0.22 4.88 -0.22 4.88 z" class="primitive"/>
              </g>
              <g transform="translate(22.91,78.57)" id="img-6c7d2a56-33">
                <path d="M-0.22,-9.76 L 0.22 -9.76 0.22 9.76 -0.22 9.76 z" class="primitive"/>
              </g>
              <g transform="translate(23.3,67.59)" id="img-6c7d2a56-34">
                <path d="M-0.22,-20.74 L 0.22 -20.74 0.22 20.74 -0.22 20.74 z" class="primitive"/>
              </g>
              <g transform="translate(23.7,68)" id="img-6c7d2a56-35">
                <path d="M-0.22,-20.33 L 0.22 -20.33 0.22 20.33 -0.22 20.33 z" class="primitive"/>
              </g>
              <g transform="translate(24.09,61.08)" id="img-6c7d2a56-36">
                <path d="M-0.22,-27.24 L 0.22 -27.24 0.22 27.24 -0.22 27.24 z" class="primitive"/>
              </g>
              <g transform="translate(24.48,61.08)" id="img-6c7d2a56-37">
                <path d="M-0.22,-27.24 L 0.22 -27.24 0.22 27.24 -0.22 27.24 z" class="primitive"/>
              </g>
              <g transform="translate(24.87,64.74)" id="img-6c7d2a56-38">
                <path d="M-0.22,-23.58 L 0.22 -23.58 0.22 23.58 -0.22 23.58 z" class="primitive"/>
              </g>
              <g transform="translate(25.27,50.92)" id="img-6c7d2a56-39">
                <path d="M-0.22,-37.41 L 0.22 -37.41 0.22 37.41 -0.22 37.41 z" class="primitive"/>
              </g>
              <g transform="translate(25.66,54.58)" id="img-6c7d2a56-40">
                <path d="M-0.22,-33.75 L 0.22 -33.75 0.22 33.75 -0.22 33.75 z" class="primitive"/>
              </g>
              <g transform="translate(26.05,65.56)" id="img-6c7d2a56-41">
                <path d="M-0.22,-22.77 L 0.22 -22.77 0.22 22.77 -0.22 22.77 z" class="primitive"/>
              </g>
              <g transform="translate(26.45,65.56)" id="img-6c7d2a56-42">
                <path d="M-0.22,-22.77 L 0.22 -22.77 0.22 22.77 -0.22 22.77 z" class="primitive"/>
              </g>
              <g transform="translate(26.84,72.47)" id="img-6c7d2a56-43">
                <path d="M-0.22,-15.86 L 0.22 -15.86 0.22 15.86 -0.22 15.86 z" class="primitive"/>
              </g>
              <g transform="translate(27.23,76.53)" id="img-6c7d2a56-44">
                <path d="M-0.22,-11.79 L 0.22 -11.79 0.22 11.79 -0.22 11.79 z" class="primitive"/>
              </g>
              <g transform="translate(27.63,74.09)" id="img-6c7d2a56-45">
                <path d="M-0.22,-14.23 L 0.22 -14.23 0.22 14.23 -0.22 14.23 z" class="primitive"/>
              </g>
              <g transform="translate(28.02,75.72)" id="img-6c7d2a56-46">
                <path d="M-0.22,-12.61 L 0.22 -12.61 0.22 12.61 -0.22 12.61 z" class="primitive"/>
              </g>
              <g transform="translate(28.41,77.35)" id="img-6c7d2a56-47">
                <path d="M-0.22,-10.98 L 0.22 -10.98 0.22 10.98 -0.22 10.98 z" class="primitive"/>
              </g>
              <g transform="translate(28.81,78.97)" id="img-6c7d2a56-48">
                <path d="M-0.22,-9.35 L 0.22 -9.35 0.22 9.35 -0.22 9.35 z" class="primitive"/>
              </g>
              <g transform="translate(29.2,80.19)" id="img-6c7d2a56-49">
                <path d="M-0.22,-8.13 L 0.22 -8.13 0.22 8.13 -0.22 8.13 z" class="primitive"/>
              </g>
              <g transform="translate(29.59,81.82)" id="img-6c7d2a56-50">
                <path d="M-0.22,-6.51 L 0.22 -6.51 0.22 6.51 -0.22 6.51 z" class="primitive"/>
              </g>
              <g transform="translate(29.99,83.04)" id="img-6c7d2a56-51">
                <path d="M-0.22,-5.29 L 0.22 -5.29 0.22 5.29 -0.22 5.29 z" class="primitive"/>
              </g>
              <g transform="translate(30.38,82.23)" id="img-6c7d2a56-52">
                <path d="M-0.22,-6.1 L 0.22 -6.1 0.22 6.1 -0.22 6.1 z" class="primitive"/>
              </g>
              <g transform="translate(30.77,81.01)" id="img-6c7d2a56-53">
                <path d="M-0.22,-7.32 L 0.22 -7.32 0.22 7.32 -0.22 7.32 z" class="primitive"/>
              </g>
              <g transform="translate(31.17,81.82)" id="img-6c7d2a56-54">
                <path d="M-0.22,-6.51 L 0.22 -6.51 0.22 6.51 -0.22 6.51 z" class="primitive"/>
              </g>
              <g transform="translate(31.56,83.85)" id="img-6c7d2a56-55">
                <path d="M-0.22,-4.47 L 0.22 -4.47 0.22 4.47 -0.22 4.47 z" class="primitive"/>
              </g>
              <g transform="translate(31.95,85.07)" id="img-6c7d2a56-56">
                <path d="M-0.22,-3.25 L 0.22 -3.25 0.22 3.25 -0.22 3.25 z" class="primitive"/>
              </g>
              <g transform="translate(32.35,83.45)" id="img-6c7d2a56-57">
                <path d="M-0.22,-4.88 L 0.22 -4.88 0.22 4.88 -0.22 4.88 z" class="primitive"/>
              </g>
              <g transform="translate(32.74,86.7)" id="img-6c7d2a56-58">
                <path d="M-0.22,-1.63 L 0.22 -1.63 0.22 1.63 -0.22 1.63 z" class="primitive"/>
              </g>
              <g transform="translate(33.13,85.89)" id="img-6c7d2a56-59">
                <path d="M-0.22,-2.44 L 0.22 -2.44 0.22 2.44 -0.22 2.44 z" class="primitive"/>
              </g>
              <g transform="translate(33.52,84.67)" id="img-6c7d2a56-60">
                <path d="M-0.22,-3.66 L 0.22 -3.66 0.22 3.66 -0.22 3.66 z" class="primitive"/>
              </g>
              <g transform="translate(33.92,86.29)" id="img-6c7d2a56-61">
                <path d="M-0.22,-2.03 L 0.22 -2.03 0.22 2.03 -0.22 2.03 z" class="primitive"/>
              </g>
              <g transform="translate(34.31,87.11)" id="img-6c7d2a56-62">
                <path d="M-0.22,-1.22 L 0.22 -1.22 0.22 1.22 -0.22 1.22 z" class="primitive"/>
              </g>
              <g transform="translate(34.7,85.48)" id="img-6c7d2a56-63">
                <path d="M-0.22,-2.85 L 0.22 -2.85 0.22 2.85 -0.22 2.85 z" class="primitive"/>
              </g>
              <g transform="translate(35.1,87.92)" id="img-6c7d2a56-64">
                <path d="M-0.22,-0.41 L 0.22 -0.41 0.22 0.41 -0.22 0.41 z" class="primitive"/>
              </g>
              <g transform="translate(35.49,87.11)" id="img-6c7d2a56-65">
                <path d="M-0.22,-1.22 L 0.22 -1.22 0.22 1.22 -0.22 1.22 z" class="primitive"/>
              </g>
              <g transform="translate(35.88,86.29)" id="img-6c7d2a56-66">
                <path d="M-0.22,-2.03 L 0.22 -2.03 0.22 2.03 -0.22 2.03 z" class="primitive"/>
              </g>
              <g transform="translate(36.28,87.11)" id="img-6c7d2a56-67">
                <path d="M-0.22,-1.22 L 0.22 -1.22 0.22 1.22 -0.22 1.22 z" class="primitive"/>
              </g>
              <g transform="translate(36.67,87.92)" id="img-6c7d2a56-68">
                <path d="M-0.22,-0.41 L 0.22 -0.41 0.22 0.41 -0.22 0.41 z" class="primitive"/>
              </g>
              <g transform="translate(37.06,88.33)" id="img-6c7d2a56-69">
                <path d="M-0.22,-0 L 0.22 -0 0.22 0 -0.22 0 z" class="primitive"/>
              </g>
              <g transform="translate(37.46,87.92)" id="img-6c7d2a56-70">
                <path d="M-0.22,-0.41 L 0.22 -0.41 0.22 0.41 -0.22 0.41 z" class="primitive"/>
              </g>
              <g transform="translate(37.85,87.92)" id="img-6c7d2a56-71">
                <path d="M-0.22,-0.41 L 0.22 -0.41 0.22 0.41 -0.22 0.41 z" class="primitive"/>
              </g>
              <g transform="translate(38.24,87.92)" id="img-6c7d2a56-72">
                <path d="M-0.22,-0.41 L 0.22 -0.41 0.22 0.41 -0.22 0.41 z" class="primitive"/>
              </g>
              <g transform="translate(38.64,86.7)" id="img-6c7d2a56-73">
                <path d="M-0.22,-1.63 L 0.22 -1.63 0.22 1.63 -0.22 1.63 z" class="primitive"/>
              </g>
              <g transform="translate(39.03,87.92)" id="img-6c7d2a56-74">
                <path d="M-0.22,-0.41 L 0.22 -0.41 0.22 0.41 -0.22 0.41 z" class="primitive"/>
              </g>
              <g transform="translate(39.42,88.33)" id="img-6c7d2a56-75">
                <path d="M-0.22,-0 L 0.22 -0 0.22 0 -0.22 0 z" class="primitive"/>
              </g>
              <g transform="translate(39.82,88.33)" id="img-6c7d2a56-76">
                <path d="M-0.22,-0 L 0.22 -0 0.22 0 -0.22 0 z" class="primitive"/>
              </g>
              <g transform="translate(40.21,87.51)" id="img-6c7d2a56-77">
                <path d="M-0.22,-0.81 L 0.22 -0.81 0.22 0.81 -0.22 0.81 z" class="primitive"/>
              </g>
              <g transform="translate(40.6,87.51)" id="img-6c7d2a56-78">
                <path d="M-0.22,-0.81 L 0.22 -0.81 0.22 0.81 -0.22 0.81 z" class="primitive"/>
              </g>
              <g transform="translate(40.99,88.33)" id="img-6c7d2a56-79">
                <path d="M-0.22,-0 L 0.22 -0 0.22 0 -0.22 0 z" class="primitive"/>
              </g>
              <g transform="translate(41.39,88.33)" id="img-6c7d2a56-80">
                <path d="M-0.22,-0 L 0.22 -0 0.22 0 -0.22 0 z" class="primitive"/>
              </g>
              <g transform="translate(41.78,88.33)" id="img-6c7d2a56-81">
                <path d="M-0.22,-0 L 0.22 -0 0.22 0 -0.22 0 z" class="primitive"/>
              </g>
              <g transform="translate(42.17,88.33)" id="img-6c7d2a56-82">
                <path d="M-0.22,-0 L 0.22 -0 0.22 0 -0.22 0 z" class="primitive"/>
              </g>
              <g transform="translate(42.57,87.92)" id="img-6c7d2a56-83">
                <path d="M-0.22,-0.41 L 0.22 -0.41 0.22 0.41 -0.22 0.41 z" class="primitive"/>
              </g>
              <g transform="translate(42.96,88.33)" id="img-6c7d2a56-84">
                <path d="M-0.22,-0 L 0.22 -0 0.22 0 -0.22 0 z" class="primitive"/>
              </g>
              <g transform="translate(43.35,87.11)" id="img-6c7d2a56-85">
                <path d="M-0.22,-1.22 L 0.22 -1.22 0.22 1.22 -0.22 1.22 z" class="primitive"/>
              </g>
              <g transform="translate(43.75,88.33)" id="img-6c7d2a56-86">
                <path d="M-0.22,-0 L 0.22 -0 0.22 0 -0.22 0 z" class="primitive"/>
              </g>
              <g transform="translate(44.14,88.33)" id="img-6c7d2a56-87">
                <path d="M-0.22,-0 L 0.22 -0 0.22 0 -0.22 0 z" class="primitive"/>
              </g>
              <g transform="translate(44.53,88.33)" id="img-6c7d2a56-88">
                <path d="M-0.22,-0 L 0.22 -0 0.22 0 -0.22 0 z" class="primitive"/>
              </g>
              <g transform="translate(44.93,88.33)" id="img-6c7d2a56-89">
                <path d="M-0.22,-0 L 0.22 -0 0.22 0 -0.22 0 z" class="primitive"/>
              </g>
              <g transform="translate(45.32,87.92)" id="img-6c7d2a56-90">
                <path d="M-0.22,-0.41 L 0.22 -0.41 0.22 0.41 -0.22 0.41 z" class="primitive"/>
              </g>
              <g transform="translate(45.71,88.33)" id="img-6c7d2a56-91">
                <path d="M-0.22,-0 L 0.22 -0 0.22 0 -0.22 0 z" class="primitive"/>
              </g>
              <g transform="translate(46.11,88.33)" id="img-6c7d2a56-92">
                <path d="M-0.22,-0 L 0.22 -0 0.22 0 -0.22 0 z" class="primitive"/>
              </g>
              <g transform="translate(46.5,88.33)" id="img-6c7d2a56-93">
                <path d="M-0.22,-0 L 0.22 -0 0.22 0 -0.22 0 z" class="primitive"/>
              </g>
              <g transform="translate(46.89,88.33)" id="img-6c7d2a56-94">
                <path d="M-0.22,-0 L 0.22 -0 0.22 0 -0.22 0 z" class="primitive"/>
              </g>
              <g transform="translate(47.29,88.33)" id="img-6c7d2a56-95">
                <path d="M-0.22,-0 L 0.22 -0 0.22 0 -0.22 0 z" class="primitive"/>
              </g>
              <g transform="translate(47.68,88.33)" id="img-6c7d2a56-96">
                <path d="M-0.22,-0 L 0.22 -0 0.22 0 -0.22 0 z" class="primitive"/>
              </g>
              <g transform="translate(48.07,88.33)" id="img-6c7d2a56-97">
                <path d="M-0.22,-0 L 0.22 -0 0.22 0 -0.22 0 z" class="primitive"/>
              </g>
              <g transform="translate(48.47,88.33)" id="img-6c7d2a56-98">
                <path d="M-0.22,-0 L 0.22 -0 0.22 0 -0.22 0 z" class="primitive"/>
              </g>
              <g transform="translate(48.86,88.33)" id="img-6c7d2a56-99">
                <path d="M-0.22,-0 L 0.22 -0 0.22 0 -0.22 0 z" class="primitive"/>
              </g>
              <g transform="translate(49.25,88.33)" id="img-6c7d2a56-100">
                <path d="M-0.22,-0 L 0.22 -0 0.22 0 -0.22 0 z" class="primitive"/>
              </g>
              <g transform="translate(49.64,88.33)" id="img-6c7d2a56-101">
                <path d="M-0.22,-0 L 0.22 -0 0.22 0 -0.22 0 z" class="primitive"/>
              </g>
              <g transform="translate(50.04,88.33)" id="img-6c7d2a56-102">
                <path d="M-0.22,-0 L 0.22 -0 0.22 0 -0.22 0 z" class="primitive"/>
              </g>
              <g transform="translate(50.43,88.33)" id="img-6c7d2a56-103">
                <path d="M-0.22,-0 L 0.22 -0 0.22 0 -0.22 0 z" class="primitive"/>
              </g>
              <g transform="translate(50.82,88.33)" id="img-6c7d2a56-104">
                <path d="M-0.22,-0 L 0.22 -0 0.22 0 -0.22 0 z" class="primitive"/>
              </g>
              <g transform="translate(51.22,88.33)" id="img-6c7d2a56-105">
                <path d="M-0.22,-0 L 0.22 -0 0.22 0 -0.22 0 z" class="primitive"/>
              </g>
              <g transform="translate(51.61,88.33)" id="img-6c7d2a56-106">
                <path d="M-0.22,-0 L 0.22 -0 0.22 0 -0.22 0 z" class="primitive"/>
              </g>
              <g transform="translate(52,88.33)" id="img-6c7d2a56-107">
                <path d="M-0.22,-0 L 0.22 -0 0.22 0 -0.22 0 z" class="primitive"/>
              </g>
              <g transform="translate(52.4,88.33)" id="img-6c7d2a56-108">
                <path d="M-0.22,-0 L 0.22 -0 0.22 0 -0.22 0 z" class="primitive"/>
              </g>
              <g transform="translate(52.79,88.33)" id="img-6c7d2a56-109">
                <path d="M-0.22,-0 L 0.22 -0 0.22 0 -0.22 0 z" class="primitive"/>
              </g>
              <g transform="translate(53.18,88.33)" id="img-6c7d2a56-110">
                <path d="M-0.22,-0 L 0.22 -0 0.22 0 -0.22 0 z" class="primitive"/>
              </g>
              <g transform="translate(53.58,88.33)" id="img-6c7d2a56-111">
                <path d="M-0.22,-0 L 0.22 -0 0.22 0 -0.22 0 z" class="primitive"/>
              </g>
              <g transform="translate(53.97,88.33)" id="img-6c7d2a56-112">
                <path d="M-0.22,-0 L 0.22 -0 0.22 0 -0.22 0 z" class="primitive"/>
              </g>
              <g transform="translate(54.36,88.33)" id="img-6c7d2a56-113">
                <path d="M-0.22,-0 L 0.22 -0 0.22 0 -0.22 0 z" class="primitive"/>
              </g>
              <g transform="translate(54.76,88.33)" id="img-6c7d2a56-114">
                <path d="M-0.22,-0 L 0.22 -0 0.22 0 -0.22 0 z" class="primitive"/>
              </g>
              <g transform="translate(55.15,88.33)" id="img-6c7d2a56-115">
                <path d="M-0.22,-0 L 0.22 -0 0.22 0 -0.22 0 z" class="primitive"/>
              </g>
              <g transform="translate(55.54,88.33)" id="img-6c7d2a56-116">
                <path d="M-0.22,-0 L 0.22 -0 0.22 0 -0.22 0 z" class="primitive"/>
              </g>
              <g transform="translate(55.94,88.33)" id="img-6c7d2a56-117">
                <path d="M-0.22,-0 L 0.22 -0 0.22 0 -0.22 0 z" class="primitive"/>
              </g>
              <g transform="translate(56.33,88.33)" id="img-6c7d2a56-118">
                <path d="M-0.22,-0 L 0.22 -0 0.22 0 -0.22 0 z" class="primitive"/>
              </g>
              <g transform="translate(56.72,88.33)" id="img-6c7d2a56-119">
                <path d="M-0.22,-0 L 0.22 -0 0.22 0 -0.22 0 z" class="primitive"/>
              </g>
              <g transform="translate(57.11,88.33)" id="img-6c7d2a56-120">
                <path d="M-0.22,-0 L 0.22 -0 0.22 0 -0.22 0 z" class="primitive"/>
              </g>
              <g transform="translate(57.51,88.33)" id="img-6c7d2a56-121">
                <path d="M-0.22,-0 L 0.22 -0 0.22 0 -0.22 0 z" class="primitive"/>
              </g>
              <g transform="translate(57.9,88.33)" id="img-6c7d2a56-122">
                <path d="M-0.22,-0 L 0.22 -0 0.22 0 -0.22 0 z" class="primitive"/>
              </g>
              <g transform="translate(58.29,88.33)" id="img-6c7d2a56-123">
                <path d="M-0.22,-0 L 0.22 -0 0.22 0 -0.22 0 z" class="primitive"/>
              </g>
              <g transform="translate(58.69,88.33)" id="img-6c7d2a56-124">
                <path d="M-0.22,-0 L 0.22 -0 0.22 0 -0.22 0 z" class="primitive"/>
              </g>
              <g transform="translate(59.08,88.33)" id="img-6c7d2a56-125">
                <path d="M-0.22,-0 L 0.22 -0 0.22 0 -0.22 0 z" class="primitive"/>
              </g>
              <g transform="translate(59.47,88.33)" id="img-6c7d2a56-126">
                <path d="M-0.22,-0 L 0.22 -0 0.22 0 -0.22 0 z" class="primitive"/>
              </g>
              <g transform="translate(59.87,88.33)" id="img-6c7d2a56-127">
                <path d="M-0.22,-0 L 0.22 -0 0.22 0 -0.22 0 z" class="primitive"/>
              </g>
              <g transform="translate(60.26,88.33)" id="img-6c7d2a56-128">
                <path d="M-0.22,-0 L 0.22 -0 0.22 0 -0.22 0 z" class="primitive"/>
              </g>
              <g transform="translate(60.65,88.33)" id="img-6c7d2a56-129">
                <path d="M-0.22,-0 L 0.22 -0 0.22 0 -0.22 0 z" class="primitive"/>
              </g>
              <g transform="translate(61.05,87.92)" id="img-6c7d2a56-130">
                <path d="M-0.22,-0.41 L 0.22 -0.41 0.22 0.41 -0.22 0.41 z" class="primitive"/>
              </g>
            </g>
          </g>
        </g>
      </g>
    </g>
  </g>
  <g class="guide ylabels" font-size="2.82" font-family="'PT Sans Caption','Helvetica Neue','Helvetica',sans-serif" fill="#6C606B" id="img-6c7d2a56-131">
    <g transform="translate(18.63,88.33)" id="img-6c7d2a56-132">
      <g class="primitive">
        <text text-anchor="end" dy="0.35em">0</text>
      </g>
    </g>
    <g transform="translate(18.63,47.66)" id="img-6c7d2a56-133">
      <g class="primitive">
        <text text-anchor="end" dy="0.35em">50</text>
      </g>
    </g>
    <g transform="translate(18.63,7)" id="img-6c7d2a56-134">
      <g class="primitive">
        <text text-anchor="end" dy="0.35em">100</text>
      </g>
    </g>
  </g>
  <g font-size="3.88" font-family="'PT Sans','Helvetica Neue','Helvetica',sans-serif" fill="#564A55" stroke="#000000" stroke-opacity="0.000" id="img-6c7d2a56-135">
    <g transform="translate(8.81,45.66)" id="img-6c7d2a56-136">
      <g class="primitive">
        <text text-anchor="middle" dy="0.35em" transform="rotate(-90,0, 2)">frequency</text>
      </g>
    </g>
  </g>
</g>
<defs>
  <clipPath id="img-6c7d2a56-11">
    <path d="M19.63,5 L 67.81 5 67.81 90.33 19.63 90.33" />
  </clipPath>
</defs>
</svg>
