<?xml version="1.0" encoding="UTF-8"?>
<svg xmlns="http://www.w3.org/2000/svg"
     xmlns:xlink="http://www.w3.org/1999/xlink"
     xmlns:gadfly="http://www.gadflyjl.org/ns"
     version="1.2"
     width="141.42mm" height="100mm" viewBox="0 0 141.42 100"
     stroke="none"
     fill="#000000"
     stroke-width="0.3"
     font-size="3.88"
>
<defs>
  <marker id="arrow" markerWidth="15" markerHeight="7" refX="5" refY="3.5" orient="auto" markerUnits="strokeWidth">
    <path d="M0,0 L15,3.5 L0,7 z" stroke="context-stroke" fill="context-stroke"/>
  </marker>
</defs>
<g class="plotroot xscalable yscalable" id="img-7e5bc131-1">
  <g class="guide xlabels" font-size="2.82" font-family="'PT Sans Caption','Helvetica Neue','Helvetica',sans-serif" fill="#6C606B" id="img-7e5bc131-2">
    <g transform="translate(18.29,91.33)">
      <g class="primitive">
        <text text-anchor="middle" dy="0.6em">4.25</text>
      </g>
    </g>
    <g transform="translate(30.74,91.33)">
      <g class="primitive">
        <text text-anchor="middle" dy="0.6em">4.50</text>
      </g>
    </g>
    <g transform="translate(43.2,91.33)">
      <g class="primitive">
        <text text-anchor="middle" dy="0.6em">4.75</text>
      </g>
    </g>
    <g transform="translate(55.65,91.33)">
      <g class="primitive">
        <text text-anchor="middle" dy="0.6em">5.00</text>
      </g>
    </g>
    <g transform="translate(68.11,91.33)">
      <g class="primitive">
        <text text-anchor="middle" dy="0.6em">5.25</text>
      </g>
    </g>
  </g>
  <g class="guide colorkey" id="img-7e5bc131-3">
    <g class="color_noncoding_noncoding_noncoding_noncoding_4-star" id="img-7e5bc131-4">
      <g fill="#4C404B" font-size="2.82" font-family="'PT Sans','Helvetica Neue','Helvetica',sans-serif" id="img-7e5bc131-5">
        <g transform="translate(73.92,49.48)" id="img-7e5bc131-6">
          <g class="primitive">
            <text dy="0.35em">noncoding_noncoding_noncoding_noncoding_4-star</text>
          </g>
        </g>
      </g>
      <g fill-opacity="1" fill="#00BFFF" stroke="#FFFFFF" id="img-7e5bc131-7">
        <g transform="translate(72.01,49.48)" id="img-7e5bc131-8">
          <path d="M-0.91,-0.91 L 0.91 -0.91 0.91 0.91 -0.91 0.91 z" class="primitive"/>
        </g>
      </g>
    </g>
    <g fill="#362A35" font-size="3.88" font-family="'PT Sans','Helvetica Neue','Helvetica',sans-serif" stroke="#000000" stroke-opacity="0.000" id="img-7e5bc131-9">
      <g transform="translate(71.11,45.66)" id="img-7e5bc131-10">
        <g class="primitive">
          <text dy="-0em">graphlet</text>
        </g>
      </g>
    </g>
  </g>
  <g clip-path="url(#img-7e5bc131-11)">
    <g id="img-7e5bc131-12">
      <g pointer-events="visible" stroke-width="0.3" fill="#000000" fill-opacity="0.000" stroke="#000000" stroke-opacity="0.000" class="guide background" id="img-7e5bc131-13">
        <g transform="translate(43.2,47.66)" id="img-7e5bc131-14">
          <path d="M-26.91,-42.66 L 26.91 -42.66 26.91 42.66 -26.91 42.66 z" class="primitive"/>
        </g>
      </g>
      <g class="guide ygridlines xfixed" stroke-dasharray="0.5,0.5" stroke-width="0.2" stroke="#D0D0E0" id="img-7e5bc131-15">
        <g transform="translate(43.2,88.33)" id="img-7e5bc131-16">
          <path fill="none" d="M-26.91,0 L 26.91 0" class="primitive"/>
        </g>
        <g transform="translate(43.2,72.06)" id="img-7e5bc131-17">
          <path fill="none" d="M-26.91,0 L 26.91 0" class="primitive"/>
        </g>
        <g transform="translate(43.2,55.8)" id="img-7e5bc131-18">
          <path fill="none" d="M-26.91,0 L 26.91 0" class="primitive"/>
        </g>
        <g transform="translate(43.2,39.53)" id="img-7e5bc131-19">
          <path fill="none" d="M-26.91,0 L 26.91 0" class="primitive"/>
        </g>
        <g transform="translate(43.2,23.27)" id="img-7e5bc131-20">
          <path fill="none" d="M-26.91,0 L 26.91 0" class="primitive"/>
        </g>
        <g transform="translate(43.2,7)" id="img-7e5bc131-21">
          <path fill="none" d="M-26.91,0 L 26.91 0" class="primitive"/>
        </g>
      </g>
      <g class="guide xgridlines yfixed" stroke-dasharray="0.5,0.5" stroke-width="0.2" stroke="#D0D0E0" id="img-7e5bc131-22">
        <g transform="translate(18.29,47.66)" id="img-7e5bc131-23">
          <path fill="none" d="M0,-42.66 L 0 42.66" class="primitive"/>
        </g>
        <g transform="translate(30.74,47.66)" id="img-7e5bc131-24">
          <path fill="none" d="M0,-42.66 L 0 42.66" class="primitive"/>
        </g>
        <g transform="translate(43.2,47.66)" id="img-7e5bc131-25">
          <path fill="none" d="M0,-42.66 L 0 42.66" class="primitive"/>
        </g>
        <g transform="translate(55.65,47.66)" id="img-7e5bc131-26">
          <path fill="none" d="M0,-42.66 L 0 42.66" class="primitive"/>
        </g>
        <g transform="translate(68.11,47.66)" id="img-7e5bc131-27">
          <path fill="none" d="M0,-42.66 L 0 42.66" class="primitive"/>
        </g>
      </g>
      <g class="plotpanel" id="img-7e5bc131-28">
        <metadata>
          <boundingbox value="16.284999999999997mm 5.0mm 53.82302290397618mm 85.32666666666667mm"/>
          <unitbox value="4.209857915408814 5.122960898434298 1.0802841691823717 -5.245921796868595"/>
        </metadata>
        <g shape-rendering="crispEdges" stroke-width="0.3" id="img-7e5bc131-29">
          <g stroke="#000000" stroke-opacity="0.000" class="geometry" id="img-7e5bc131-30">
            <g fill="#00BFFF" id="img-7e5bc131-31">
              <g transform="translate(24.44,80.19)" id="img-7e5bc131-32">
                <path d="M-0.23,-8.13 L 0.23 -8.13 0.23 8.13 -0.23 8.13 z" class="primitive"/>
              </g>
              <g transform="translate(24.86,88.33)" id="img-7e5bc131-33">
                <path d="M-0.23,-0 L 0.23 -0 0.23 0 -0.23 0 z" class="primitive"/>
              </g>
              <g transform="translate(25.28,88.33)" id="img-7e5bc131-34">
                <path d="M-0.23,-0 L 0.23 -0 0.23 0 -0.23 0 z" class="primitive"/>
              </g>
              <g transform="translate(25.69,88.33)" id="img-7e5bc131-35">
                <path d="M-0.23,-0 L 0.23 -0 0.23 0 -0.23 0 z" class="primitive"/>
              </g>
              <g transform="translate(26.11,88.33)" id="img-7e5bc131-36">
                <path d="M-0.23,-0 L 0.23 -0 0.23 0 -0.23 0 z" class="primitive"/>
              </g>
              <g transform="translate(26.52,88.33)" id="img-7e5bc131-37">
                <path d="M-0.23,-0 L 0.23 -0 0.23 0 -0.23 0 z" class="primitive"/>
              </g>
              <g transform="translate(26.94,88.33)" id="img-7e5bc131-38">
                <path d="M-0.23,-0 L 0.23 -0 0.23 0 -0.23 0 z" class="primitive"/>
              </g>
              <g transform="translate(27.35,88.33)" id="img-7e5bc131-39">
                <path d="M-0.23,-0 L 0.23 -0 0.23 0 -0.23 0 z" class="primitive"/>
              </g>
              <g transform="translate(27.77,80.19)" id="img-7e5bc131-40">
                <path d="M-0.23,-8.13 L 0.23 -8.13 0.23 8.13 -0.23 8.13 z" class="primitive"/>
              </g>
              <g transform="translate(28.19,88.33)" id="img-7e5bc131-41">
                <path d="M-0.23,-0 L 0.23 -0 0.23 0 -0.23 0 z" class="primitive"/>
              </g>
              <g transform="translate(28.6,80.19)" id="img-7e5bc131-42">
                <path d="M-0.23,-8.13 L 0.23 -8.13 0.23 8.13 -0.23 8.13 z" class="primitive"/>
              </g>
              <g transform="translate(29.02,80.19)" id="img-7e5bc131-43">
                <path d="M-0.23,-8.13 L 0.23 -8.13 0.23 8.13 -0.23 8.13 z" class="primitive"/>
              </g>
              <g transform="translate(29.43,88.33)" id="img-7e5bc131-44">
                <path d="M-0.23,-0 L 0.23 -0 0.23 0 -0.23 0 z" class="primitive"/>
              </g>
              <g transform="translate(29.85,88.33)" id="img-7e5bc131-45">
                <path d="M-0.23,-0 L 0.23 -0 0.23 0 -0.23 0 z" class="primitive"/>
              </g>
              <g transform="translate(30.27,88.33)" id="img-7e5bc131-46">
                <path d="M-0.23,-0 L 0.23 -0 0.23 0 -0.23 0 z" class="primitive"/>
              </g>
              <g transform="translate(30.68,88.33)" id="img-7e5bc131-47">
                <path d="M-0.23,-0 L 0.23 -0 0.23 0 -0.23 0 z" class="primitive"/>
              </g>
              <g transform="translate(31.1,72.06)" id="img-7e5bc131-48">
                <path d="M-0.23,-16.27 L 0.23 -16.27 0.23 16.27 -0.23 16.27 z" class="primitive"/>
              </g>
              <g transform="translate(31.51,88.33)" id="img-7e5bc131-49">
                <path d="M-0.23,-0 L 0.23 -0 0.23 0 -0.23 0 z" class="primitive"/>
              </g>
              <g transform="translate(31.93,88.33)" id="img-7e5bc131-50">
                <path d="M-0.23,-0 L 0.23 -0 0.23 0 -0.23 0 z" class="primitive"/>
              </g>
              <g transform="translate(32.34,88.33)" id="img-7e5bc131-51">
                <path d="M-0.23,-0 L 0.23 -0 0.23 0 -0.23 0 z" class="primitive"/>
              </g>
              <g transform="translate(32.76,88.33)" id="img-7e5bc131-52">
                <path d="M-0.23,-0 L 0.23 -0 0.23 0 -0.23 0 z" class="primitive"/>
              </g>
              <g transform="translate(33.18,88.33)" id="img-7e5bc131-53">
                <path d="M-0.23,-0 L 0.23 -0 0.23 0 -0.23 0 z" class="primitive"/>
              </g>
              <g transform="translate(33.59,72.06)" id="img-7e5bc131-54">
                <path d="M-0.23,-16.27 L 0.23 -16.27 0.23 16.27 -0.23 16.27 z" class="primitive"/>
              </g>
              <g transform="translate(34.01,88.33)" id="img-7e5bc131-55">
                <path d="M-0.23,-0 L 0.23 -0 0.23 0 -0.23 0 z" class="primitive"/>
              </g>
              <g transform="translate(34.42,80.19)" id="img-7e5bc131-56">
                <path d="M-0.23,-8.13 L 0.23 -8.13 0.23 8.13 -0.23 8.13 z" class="primitive"/>
              </g>
              <g transform="translate(34.84,80.19)" id="img-7e5bc131-57">
                <path d="M-0.23,-8.13 L 0.23 -8.13 0.23 8.13 -0.23 8.13 z" class="primitive"/>
              </g>
              <g transform="translate(35.26,88.33)" id="img-7e5bc131-58">
                <path d="M-0.23,-0 L 0.23 -0 0.23 0 -0.23 0 z" class="primitive"/>
              </g>
              <g transform="translate(35.67,88.33)" id="img-7e5bc131-59">
                <path d="M-0.23,-0 L 0.23 -0 0.23 0 -0.23 0 z" class="primitive"/>
              </g>
              <g transform="translate(36.09,72.06)" id="img-7e5bc131-60">
                <path d="M-0.23,-16.27 L 0.23 -16.27 0.23 16.27 -0.23 16.27 z" class="primitive"/>
              </g>
              <g transform="translate(36.5,80.19)" id="img-7e5bc131-61">
                <path d="M-0.23,-8.13 L 0.23 -8.13 0.23 8.13 -0.23 8.13 z" class="primitive"/>
              </g>
              <g transform="translate(36.92,80.19)" id="img-7e5bc131-62">
                <path d="M-0.23,-8.13 L 0.23 -8.13 0.23 8.13 -0.23 8.13 z" class="primitive"/>
              </g>
              <g transform="translate(37.33,88.33)" id="img-7e5bc131-63">
                <path d="M-0.23,-0 L 0.23 -0 0.23 0 -0.23 0 z" class="primitive"/>
              </g>
              <g transform="translate(37.75,63.93)" id="img-7e5bc131-64">
                <path d="M-0.23,-24.4 L 0.23 -24.4 0.23 24.4 -0.23 24.4 z" class="primitive"/>
              </g>
              <g transform="translate(38.17,88.33)" id="img-7e5bc131-65">
                <path d="M-0.23,-0 L 0.23 -0 0.23 0 -0.23 0 z" class="primitive"/>
              </g>
              <g transform="translate(38.58,88.33)" id="img-7e5bc131-66">
                <path d="M-0.23,-0 L 0.23 -0 0.23 0 -0.23 0 z" class="primitive"/>
              </g>
              <g transform="translate(39,88.33)" id="img-7e5bc131-67">
                <path d="M-0.23,-0 L 0.23 -0 0.23 0 -0.23 0 z" class="primitive"/>
              </g>
              <g transform="translate(39.41,88.33)" id="img-7e5bc131-68">
                <path d="M-0.23,-0 L 0.23 -0 0.23 0 -0.23 0 z" class="primitive"/>
              </g>
              <g transform="translate(39.83,72.06)" id="img-7e5bc131-69">
                <path d="M-0.23,-16.27 L 0.23 -16.27 0.23 16.27 -0.23 16.27 z" class="primitive"/>
              </g>
              <g transform="translate(40.24,72.06)" id="img-7e5bc131-70">
                <path d="M-0.23,-16.27 L 0.23 -16.27 0.23 16.27 -0.23 16.27 z" class="primitive"/>
              </g>
              <g transform="translate(40.66,72.06)" id="img-7e5bc131-71">
                <path d="M-0.23,-16.27 L 0.23 -16.27 0.23 16.27 -0.23 16.27 z" class="primitive"/>
              </g>
              <g transform="translate(41.08,72.06)" id="img-7e5bc131-72">
                <path d="M-0.23,-16.27 L 0.23 -16.27 0.23 16.27 -0.23 16.27 z" class="primitive"/>
              </g>
              <g transform="translate(41.49,88.33)" id="img-7e5bc131-73">
                <path d="M-0.23,-0 L 0.23 -0 0.23 0 -0.23 0 z" class="primitive"/>
              </g>
              <g transform="translate(41.91,80.19)" id="img-7e5bc131-74">
                <path d="M-0.23,-8.13 L 0.23 -8.13 0.23 8.13 -0.23 8.13 z" class="primitive"/>
              </g>
              <g transform="translate(42.32,72.06)" id="img-7e5bc131-75">
                <path d="M-0.23,-16.27 L 0.23 -16.27 0.23 16.27 -0.23 16.27 z" class="primitive"/>
              </g>
              <g transform="translate(42.74,80.19)" id="img-7e5bc131-76">
                <path d="M-0.23,-8.13 L 0.23 -8.13 0.23 8.13 -0.23 8.13 z" class="primitive"/>
              </g>
              <g transform="translate(43.16,88.33)" id="img-7e5bc131-77">
                <path d="M-0.23,-0 L 0.23 -0 0.23 0 -0.23 0 z" class="primitive"/>
              </g>
              <g transform="translate(43.57,72.06)" id="img-7e5bc131-78">
                <path d="M-0.23,-16.27 L 0.23 -16.27 0.23 16.27 -0.23 16.27 z" class="primitive"/>
              </g>
              <g transform="translate(43.99,80.19)" id="img-7e5bc131-79">
                <path d="M-0.23,-8.13 L 0.23 -8.13 0.23 8.13 -0.23 8.13 z" class="primitive"/>
              </g>
              <g transform="translate(44.4,80.19)" id="img-7e5bc131-80">
                <path d="M-0.23,-8.13 L 0.23 -8.13 0.23 8.13 -0.23 8.13 z" class="primitive"/>
              </g>
              <g transform="translate(44.82,80.19)" id="img-7e5bc131-81">
                <path d="M-0.23,-8.13 L 0.23 -8.13 0.23 8.13 -0.23 8.13 z" class="primitive"/>
              </g>
              <g transform="translate(45.23,80.19)" id="img-7e5bc131-82">
                <path d="M-0.23,-8.13 L 0.23 -8.13 0.23 8.13 -0.23 8.13 z" class="primitive"/>
              </g>
              <g transform="translate(45.65,63.93)" id="img-7e5bc131-83">
                <path d="M-0.23,-24.4 L 0.23 -24.4 0.23 24.4 -0.23 24.4 z" class="primitive"/>
              </g>
              <g transform="translate(46.07,72.06)" id="img-7e5bc131-84">
                <path d="M-0.23,-16.27 L 0.23 -16.27 0.23 16.27 -0.23 16.27 z" class="primitive"/>
              </g>
              <g transform="translate(46.48,63.93)" id="img-7e5bc131-85">
                <path d="M-0.23,-24.4 L 0.23 -24.4 0.23 24.4 -0.23 24.4 z" class="primitive"/>
              </g>
              <g transform="translate(46.9,63.93)" id="img-7e5bc131-86">
                <path d="M-0.23,-24.4 L 0.23 -24.4 0.23 24.4 -0.23 24.4 z" class="primitive"/>
              </g>
              <g transform="translate(47.31,72.06)" id="img-7e5bc131-87">
                <path d="M-0.23,-16.27 L 0.23 -16.27 0.23 16.27 -0.23 16.27 z" class="primitive"/>
              </g>
              <g transform="translate(47.73,80.19)" id="img-7e5bc131-88">
                <path d="M-0.23,-8.13 L 0.23 -8.13 0.23 8.13 -0.23 8.13 z" class="primitive"/>
              </g>
              <g transform="translate(48.14,63.93)" id="img-7e5bc131-89">
                <path d="M-0.23,-24.4 L 0.23 -24.4 0.23 24.4 -0.23 24.4 z" class="primitive"/>
              </g>
              <g transform="translate(48.56,80.19)" id="img-7e5bc131-90">
                <path d="M-0.23,-8.13 L 0.23 -8.13 0.23 8.13 -0.23 8.13 z" class="primitive"/>
              </g>
              <g transform="translate(48.98,80.19)" id="img-7e5bc131-91">
                <path d="M-0.23,-8.13 L 0.23 -8.13 0.23 8.13 -0.23 8.13 z" class="primitive"/>
              </g>
              <g transform="translate(49.39,72.06)" id="img-7e5bc131-92">
                <path d="M-0.23,-16.27 L 0.23 -16.27 0.23 16.27 -0.23 16.27 z" class="primitive"/>
              </g>
              <g transform="translate(49.81,80.19)" id="img-7e5bc131-93">
                <path d="M-0.23,-8.13 L 0.23 -8.13 0.23 8.13 -0.23 8.13 z" class="primitive"/>
              </g>
              <g transform="translate(50.22,80.19)" id="img-7e5bc131-94">
                <path d="M-0.23,-8.13 L 0.23 -8.13 0.23 8.13 -0.23 8.13 z" class="primitive"/>
              </g>
              <g transform="translate(50.64,88.33)" id="img-7e5bc131-95">
                <path d="M-0.23,-0 L 0.23 -0 0.23 0 -0.23 0 z" class="primitive"/>
              </g>
              <g transform="translate(51.06,80.19)" id="img-7e5bc131-96">
                <path d="M-0.23,-8.13 L 0.23 -8.13 0.23 8.13 -0.23 8.13 z" class="primitive"/>
              </g>
              <g transform="translate(51.47,63.93)" id="img-7e5bc131-97">
                <path d="M-0.23,-24.4 L 0.23 -24.4 0.23 24.4 -0.23 24.4 z" class="primitive"/>
              </g>
              <g transform="translate(51.89,80.19)" id="img-7e5bc131-98">
                <path d="M-0.23,-8.13 L 0.23 -8.13 0.23 8.13 -0.23 8.13 z" class="primitive"/>
              </g>
              <g transform="translate(52.3,55.8)" id="img-7e5bc131-99">
                <path d="M-0.23,-32.53 L 0.23 -32.53 0.23 32.53 -0.23 32.53 z" class="primitive"/>
              </g>
              <g transform="translate(52.72,72.06)" id="img-7e5bc131-100">
                <path d="M-0.23,-16.27 L 0.23 -16.27 0.23 16.27 -0.23 16.27 z" class="primitive"/>
              </g>
              <g transform="translate(53.13,72.06)" id="img-7e5bc131-101">
                <path d="M-0.23,-16.27 L 0.23 -16.27 0.23 16.27 -0.23 16.27 z" class="primitive"/>
              </g>
              <g transform="translate(53.55,88.33)" id="img-7e5bc131-102">
                <path d="M-0.23,-0 L 0.23 -0 0.23 0 -0.23 0 z" class="primitive"/>
              </g>
              <g transform="translate(53.97,88.33)" id="img-7e5bc131-103">
                <path d="M-0.23,-0 L 0.23 -0 0.23 0 -0.23 0 z" class="primitive"/>
              </g>
              <g transform="translate(54.38,80.19)" id="img-7e5bc131-104">
                <path d="M-0.23,-8.13 L 0.23 -8.13 0.23 8.13 -0.23 8.13 z" class="primitive"/>
              </g>
              <g transform="translate(54.8,80.19)" id="img-7e5bc131-105">
                <path d="M-0.23,-8.13 L 0.23 -8.13 0.23 8.13 -0.23 8.13 z" class="primitive"/>
              </g>
              <g transform="translate(55.21,88.33)" id="img-7e5bc131-106">
                <path d="M-0.23,-0 L 0.23 -0 0.23 0 -0.23 0 z" class="primitive"/>
              </g>
              <g transform="translate(55.63,80.19)" id="img-7e5bc131-107">
                <path d="M-0.23,-8.13 L 0.23 -8.13 0.23 8.13 -0.23 8.13 z" class="primitive"/>
              </g>
              <g transform="translate(56.05,80.19)" id="img-7e5bc131-108">
                <path d="M-0.23,-8.13 L 0.23 -8.13 0.23 8.13 -0.23 8.13 z" class="primitive"/>
              </g>
              <g transform="translate(56.46,80.19)" id="img-7e5bc131-109">
                <path d="M-0.23,-8.13 L 0.23 -8.13 0.23 8.13 -0.23 8.13 z" class="primitive"/>
              </g>
              <g transform="translate(56.88,80.19)" id="img-7e5bc131-110">
                <path d="M-0.23,-8.13 L 0.23 -8.13 0.23 8.13 -0.23 8.13 z" class="primitive"/>
              </g>
              <g transform="translate(57.29,55.8)" id="img-7e5bc131-111">
                <path d="M-0.23,-32.53 L 0.23 -32.53 0.23 32.53 -0.23 32.53 z" class="primitive"/>
              </g>
              <g transform="translate(57.71,88.33)" id="img-7e5bc131-112">
                <path d="M-0.23,-0 L 0.23 -0 0.23 0 -0.23 0 z" class="primitive"/>
              </g>
              <g transform="translate(58.12,88.33)" id="img-7e5bc131-113">
                <path d="M-0.23,-0 L 0.23 -0 0.23 0 -0.23 0 z" class="primitive"/>
              </g>
              <g transform="translate(58.54,88.33)" id="img-7e5bc131-114">
                <path d="M-0.23,-0 L 0.23 -0 0.23 0 -0.23 0 z" class="primitive"/>
              </g>
              <g transform="translate(58.96,47.66)" id="img-7e5bc131-115">
                <path d="M-0.23,-40.66 L 0.23 -40.66 0.23 40.66 -0.23 40.66 z" class="primitive"/>
              </g>
              <g transform="translate(59.37,72.06)" id="img-7e5bc131-116">
                <path d="M-0.23,-16.27 L 0.23 -16.27 0.23 16.27 -0.23 16.27 z" class="primitive"/>
              </g>
              <g transform="translate(59.79,80.19)" id="img-7e5bc131-117">
                <path d="M-0.23,-8.13 L 0.23 -8.13 0.23 8.13 -0.23 8.13 z" class="primitive"/>
              </g>
              <g transform="translate(60.2,63.93)" id="img-7e5bc131-118">
                <path d="M-0.23,-24.4 L 0.23 -24.4 0.23 24.4 -0.23 24.4 z" class="primitive"/>
              </g>
              <g transform="translate(60.62,80.19)" id="img-7e5bc131-119">
                <path d="M-0.23,-8.13 L 0.23 -8.13 0.23 8.13 -0.23 8.13 z" class="primitive"/>
              </g>
              <g transform="translate(61.03,80.19)" id="img-7e5bc131-120">
                <path d="M-0.23,-8.13 L 0.23 -8.13 0.23 8.13 -0.23 8.13 z" class="primitive"/>
              </g>
              <g transform="translate(61.45,88.33)" id="img-7e5bc131-121">
                <path d="M-0.23,-0 L 0.23 -0 0.23 0 -0.23 0 z" class="primitive"/>
              </g>
              <g transform="translate(61.87,88.33)" id="img-7e5bc131-122">
                <path d="M-0.23,-0 L 0.23 -0 0.23 0 -0.23 0 z" class="primitive"/>
              </g>
              <g transform="translate(62.28,80.19)" id="img-7e5bc131-123">
                <path d="M-0.23,-8.13 L 0.23 -8.13 0.23 8.13 -0.23 8.13 z" class="primitive"/>
              </g>
              <g transform="translate(62.7,80.19)" id="img-7e5bc131-124">
                <path d="M-0.23,-8.13 L 0.23 -8.13 0.23 8.13 -0.23 8.13 z" class="primitive"/>
              </g>
              <g transform="translate(63.11,80.19)" id="img-7e5bc131-125">
                <path d="M-0.23,-8.13 L 0.23 -8.13 0.23 8.13 -0.23 8.13 z" class="primitive"/>
              </g>
              <g transform="translate(63.53,88.33)" id="img-7e5bc131-126">
                <path d="M-0.23,-0 L 0.23 -0 0.23 0 -0.23 0 z" class="primitive"/>
              </g>
              <g transform="translate(63.95,80.19)" id="img-7e5bc131-127">
                <path d="M-0.23,-8.13 L 0.23 -8.13 0.23 8.13 -0.23 8.13 z" class="primitive"/>
              </g>
              <g transform="translate(64.36,88.33)" id="img-7e5bc131-128">
                <path d="M-0.23,-0 L 0.23 -0 0.23 0 -0.23 0 z" class="primitive"/>
              </g>
              <g transform="translate(64.78,88.33)" id="img-7e5bc131-129">
                <path d="M-0.23,-0 L 0.23 -0 0.23 0 -0.23 0 z" class="primitive"/>
              </g>
              <g transform="translate(65.19,88.33)" id="img-7e5bc131-130">
                <path d="M-0.23,-0 L 0.23 -0 0.23 0 -0.23 0 z" class="primitive"/>
              </g>
              <g transform="translate(65.61,72.06)" id="img-7e5bc131-131">
                <path d="M-0.23,-16.27 L 0.23 -16.27 0.23 16.27 -0.23 16.27 z" class="primitive"/>
              </g>
            </g>
          </g>
        </g>
      </g>
    </g>
  </g>
  <g class="guide ylabels" font-size="2.82" font-family="'PT Sans Caption','Helvetica Neue','Helvetica',sans-serif" fill="#6C606B" id="img-7e5bc131-132">
    <g transform="translate(15.28,88.33)" id="img-7e5bc131-133">
      <g class="primitive">
        <text text-anchor="end" dy="0.35em">0</text>
      </g>
    </g>
    <g transform="translate(15.28,72.06)" id="img-7e5bc131-134">
      <g class="primitive">
        <text text-anchor="end" dy="0.35em">1</text>
      </g>
    </g>
    <g transform="translate(15.28,55.8)" id="img-7e5bc131-135">
      <g class="primitive">
        <text text-anchor="end" dy="0.35em">2</text>
      </g>
    </g>
    <g transform="translate(15.28,39.53)" id="img-7e5bc131-136">
      <g class="primitive">
        <text text-anchor="end" dy="0.35em">3</text>
      </g>
    </g>
    <g transform="translate(15.28,23.27)" id="img-7e5bc131-137">
      <g class="primitive">
        <text text-anchor="end" dy="0.35em">4</text>
      </g>
    </g>
    <g transform="translate(15.28,7)" id="img-7e5bc131-138">
      <g class="primitive">
        <text text-anchor="end" dy="0.35em">5</text>
      </g>
    </g>
  </g>
  <g font-size="3.88" font-family="'PT Sans','Helvetica Neue','Helvetica',sans-serif" fill="#564A55" stroke="#000000" stroke-opacity="0.000" id="img-7e5bc131-139">
    <g transform="translate(8.81,45.66)" id="img-7e5bc131-140">
      <g class="primitive">
        <text text-anchor="middle" dy="0.35em" transform="rotate(-90,0, 2)">frequency</text>
      </g>
    </g>
  </g>
</g>
<defs>
  <clipPath id="img-7e5bc131-11">
    <path d="M16.28,5 L 70.11 5 70.11 90.33 16.28 90.33" />
  </clipPath>
</defs>
</svg>
