<?xml version="1.0" encoding="UTF-8"?>
<svg xmlns="http://www.w3.org/2000/svg"
     xmlns:xlink="http://www.w3.org/1999/xlink"
     xmlns:gadfly="http://www.gadflyjl.org/ns"
     version="1.2"
     width="141.42mm" height="100mm" viewBox="0 0 141.42 100"
     stroke="none"
     fill="#000000"
     stroke-width="0.3"
     font-size="3.88"
>
<defs>
  <marker id="arrow" markerWidth="15" markerHeight="7" refX="5" refY="3.5" orient="auto" markerUnits="strokeWidth">
    <path d="M0,0 L15,3.5 L0,7 z" stroke="context-stroke" fill="context-stroke"/>
  </marker>
</defs>
<g class="plotroot xscalable yscalable" id="img-b159c17c-1">
  <g class="guide xlabels" font-size="2.82" font-family="'PT Sans Caption','Helvetica Neue','Helvetica',sans-serif" fill="#6C606B" id="img-b159c17c-2">
    <g transform="translate(18.29,91.33)">
      <g class="primitive">
        <text text-anchor="middle" dy="0.6em">8.95</text>
      </g>
    </g>
    <g transform="translate(32.81,91.33)">
      <g class="primitive">
        <text text-anchor="middle" dy="0.6em">9.00</text>
      </g>
    </g>
    <g transform="translate(47.33,91.33)">
      <g class="primitive">
        <text text-anchor="middle" dy="0.6em">9.05</text>
      </g>
    </g>
    <g transform="translate(61.85,91.33)">
      <g class="primitive">
        <text text-anchor="middle" dy="0.6em">9.10</text>
      </g>
    </g>
    <g transform="translate(76.37,91.33)">
      <g class="primitive">
        <text text-anchor="middle" dy="0.6em">9.15</text>
      </g>
    </g>
  </g>
  <g class="guide colorkey" id="img-b159c17c-3">
    <g class="color_noncoding_coding_coding_noncoding_4-path" id="img-b159c17c-4">
      <g fill="#4C404B" font-size="2.82" font-family="'PT Sans','Helvetica Neue','Helvetica',sans-serif" id="img-b159c17c-5">
        <g transform="translate(82.19,49.48)" id="img-b159c17c-6">
          <g class="primitive">
            <text dy="0.35em">noncoding_coding_coding_noncoding_4-path</text>
          </g>
        </g>
      </g>
      <g fill-opacity="1" fill="#00BFFF" stroke="#FFFFFF" id="img-b159c17c-7">
        <g transform="translate(80.28,49.48)" id="img-b159c17c-8">
          <path d="M-0.91,-0.91 L 0.91 -0.91 0.91 0.91 -0.91 0.91 z" class="primitive"/>
        </g>
      </g>
    </g>
    <g fill="#362A35" font-size="3.88" font-family="'PT Sans','Helvetica Neue','Helvetica',sans-serif" stroke="#000000" stroke-opacity="0.000" id="img-b159c17c-9">
      <g transform="translate(79.37,45.66)" id="img-b159c17c-10">
        <g class="primitive">
          <text dy="-0em">graphlet</text>
        </g>
      </g>
    </g>
  </g>
  <g clip-path="url(#img-b159c17c-11)">
    <g id="img-b159c17c-12">
      <g pointer-events="visible" stroke-width="0.3" fill="#000000" fill-opacity="0.000" stroke="#000000" stroke-opacity="0.000" class="guide background" id="img-b159c17c-13">
        <g transform="translate(47.33,47.66)" id="img-b159c17c-14">
          <path d="M-31.04,-42.66 L 31.04 -42.66 31.04 42.66 -31.04 42.66 z" class="primitive"/>
        </g>
      </g>
      <g class="guide ygridlines xfixed" stroke-dasharray="0.5,0.5" stroke-width="0.2" stroke="#D0D0E0" id="img-b159c17c-15">
        <g transform="translate(47.33,88.33)" id="img-b159c17c-16">
          <path fill="none" d="M-31.04,0 L 31.04 0" class="primitive"/>
        </g>
        <g transform="translate(47.33,68)" id="img-b159c17c-17">
          <path fill="none" d="M-31.04,0 L 31.04 0" class="primitive"/>
        </g>
        <g transform="translate(47.33,47.66)" id="img-b159c17c-18">
          <path fill="none" d="M-31.04,0 L 31.04 0" class="primitive"/>
        </g>
        <g transform="translate(47.33,27.33)" id="img-b159c17c-19">
          <path fill="none" d="M-31.04,0 L 31.04 0" class="primitive"/>
        </g>
        <g transform="translate(47.33,7)" id="img-b159c17c-20">
          <path fill="none" d="M-31.04,0 L 31.04 0" class="primitive"/>
        </g>
      </g>
      <g class="guide xgridlines yfixed" stroke-dasharray="0.5,0.5" stroke-width="0.2" stroke="#D0D0E0" id="img-b159c17c-21">
        <g transform="translate(18.29,47.66)" id="img-b159c17c-22">
          <path fill="none" d="M0,-42.66 L 0 42.66" class="primitive"/>
        </g>
        <g transform="translate(32.81,47.66)" id="img-b159c17c-23">
          <path fill="none" d="M0,-42.66 L 0 42.66" class="primitive"/>
        </g>
        <g transform="translate(47.33,47.66)" id="img-b159c17c-24">
          <path fill="none" d="M0,-42.66 L 0 42.66" class="primitive"/>
        </g>
        <g transform="translate(61.85,47.66)" id="img-b159c17c-25">
          <path fill="none" d="M0,-42.66 L 0 42.66" class="primitive"/>
        </g>
        <g transform="translate(76.37,47.66)" id="img-b159c17c-26">
          <path fill="none" d="M0,-42.66 L 0 42.66" class="primitive"/>
        </g>
      </g>
      <g class="plotpanel" id="img-b159c17c-27">
        <metadata>
          <boundingbox value="16.284999999999997mm 5.0mm 62.08968957064283mm 85.32666666666667mm"/>
          <unitbox value="8.943114096443681 4.098368718747438 0.21377180711263874 -4.1967374374948765"/>
        </metadata>
        <g shape-rendering="crispEdges" stroke-width="0.3" id="img-b159c17c-28">
          <g stroke="#000000" stroke-opacity="0.000" class="geometry" id="img-b159c17c-29">
            <g fill="#00BFFF" id="img-b159c17c-30">
              <g transform="translate(22.34,78.16)" id="img-b159c17c-31">
                <path d="M-0.26,-10.17 L 0.26 -10.17 0.26 10.17 -0.26 10.17 z" class="primitive"/>
              </g>
              <g transform="translate(22.81,88.33)" id="img-b159c17c-32">
                <path d="M-0.26,-0 L 0.26 -0 0.26 0 -0.26 0 z" class="primitive"/>
              </g>
              <g transform="translate(23.28,88.33)" id="img-b159c17c-33">
                <path d="M-0.26,-0 L 0.26 -0 0.26 0 -0.26 0 z" class="primitive"/>
              </g>
              <g transform="translate(23.75,88.33)" id="img-b159c17c-34">
                <path d="M-0.26,-0 L 0.26 -0 0.26 0 -0.26 0 z" class="primitive"/>
              </g>
              <g transform="translate(24.22,88.33)" id="img-b159c17c-35">
                <path d="M-0.26,-0 L 0.26 -0 0.26 0 -0.26 0 z" class="primitive"/>
              </g>
              <g transform="translate(24.69,88.33)" id="img-b159c17c-36">
                <path d="M-0.26,-0 L 0.26 -0 0.26 0 -0.26 0 z" class="primitive"/>
              </g>
              <g transform="translate(25.16,88.33)" id="img-b159c17c-37">
                <path d="M-0.26,-0 L 0.26 -0 0.26 0 -0.26 0 z" class="primitive"/>
              </g>
              <g transform="translate(25.63,88.33)" id="img-b159c17c-38">
                <path d="M-0.26,-0 L 0.26 -0 0.26 0 -0.26 0 z" class="primitive"/>
              </g>
              <g transform="translate(26.1,88.33)" id="img-b159c17c-39">
                <path d="M-0.26,-0 L 0.26 -0 0.26 0 -0.26 0 z" class="primitive"/>
              </g>
              <g transform="translate(26.57,88.33)" id="img-b159c17c-40">
                <path d="M-0.26,-0 L 0.26 -0 0.26 0 -0.26 0 z" class="primitive"/>
              </g>
              <g transform="translate(27.04,78.16)" id="img-b159c17c-41">
                <path d="M-0.26,-10.17 L 0.26 -10.17 0.26 10.17 -0.26 10.17 z" class="primitive"/>
              </g>
              <g transform="translate(27.51,78.16)" id="img-b159c17c-42">
                <path d="M-0.26,-10.17 L 0.26 -10.17 0.26 10.17 -0.26 10.17 z" class="primitive"/>
              </g>
              <g transform="translate(27.98,88.33)" id="img-b159c17c-43">
                <path d="M-0.26,-0 L 0.26 -0 0.26 0 -0.26 0 z" class="primitive"/>
              </g>
              <g transform="translate(28.45,88.33)" id="img-b159c17c-44">
                <path d="M-0.26,-0 L 0.26 -0 0.26 0 -0.26 0 z" class="primitive"/>
              </g>
              <g transform="translate(28.92,88.33)" id="img-b159c17c-45">
                <path d="M-0.26,-0 L 0.26 -0 0.26 0 -0.26 0 z" class="primitive"/>
              </g>
              <g transform="translate(29.39,57.83)" id="img-b159c17c-46">
                <path d="M-0.26,-30.5 L 0.26 -30.5 0.26 30.5 -0.26 30.5 z" class="primitive"/>
              </g>
              <g transform="translate(29.86,88.33)" id="img-b159c17c-47">
                <path d="M-0.26,-0 L 0.26 -0 0.26 0 -0.26 0 z" class="primitive"/>
              </g>
              <g transform="translate(30.33,88.33)" id="img-b159c17c-48">
                <path d="M-0.26,-0 L 0.26 -0 0.26 0 -0.26 0 z" class="primitive"/>
              </g>
              <g transform="translate(30.8,88.33)" id="img-b159c17c-49">
                <path d="M-0.26,-0 L 0.26 -0 0.26 0 -0.26 0 z" class="primitive"/>
              </g>
              <g transform="translate(31.27,88.33)" id="img-b159c17c-50">
                <path d="M-0.26,-0 L 0.26 -0 0.26 0 -0.26 0 z" class="primitive"/>
              </g>
              <g transform="translate(31.74,68)" id="img-b159c17c-51">
                <path d="M-0.26,-20.33 L 0.26 -20.33 0.26 20.33 -0.26 20.33 z" class="primitive"/>
              </g>
              <g transform="translate(32.21,78.16)" id="img-b159c17c-52">
                <path d="M-0.26,-10.17 L 0.26 -10.17 0.26 10.17 -0.26 10.17 z" class="primitive"/>
              </g>
              <g transform="translate(32.68,88.33)" id="img-b159c17c-53">
                <path d="M-0.26,-0 L 0.26 -0 0.26 0 -0.26 0 z" class="primitive"/>
              </g>
              <g transform="translate(33.15,57.83)" id="img-b159c17c-54">
                <path d="M-0.26,-30.5 L 0.26 -30.5 0.26 30.5 -0.26 30.5 z" class="primitive"/>
              </g>
              <g transform="translate(33.62,88.33)" id="img-b159c17c-55">
                <path d="M-0.26,-0 L 0.26 -0 0.26 0 -0.26 0 z" class="primitive"/>
              </g>
              <g transform="translate(34.09,68)" id="img-b159c17c-56">
                <path d="M-0.26,-20.33 L 0.26 -20.33 0.26 20.33 -0.26 20.33 z" class="primitive"/>
              </g>
              <g transform="translate(34.56,57.83)" id="img-b159c17c-57">
                <path d="M-0.26,-30.5 L 0.26 -30.5 0.26 30.5 -0.26 30.5 z" class="primitive"/>
              </g>
              <g transform="translate(35.03,68)" id="img-b159c17c-58">
                <path d="M-0.26,-20.33 L 0.26 -20.33 0.26 20.33 -0.26 20.33 z" class="primitive"/>
              </g>
              <g transform="translate(35.5,88.33)" id="img-b159c17c-59">
                <path d="M-0.26,-0 L 0.26 -0 0.26 0 -0.26 0 z" class="primitive"/>
              </g>
              <g transform="translate(35.97,57.83)" id="img-b159c17c-60">
                <path d="M-0.26,-30.5 L 0.26 -30.5 0.26 30.5 -0.26 30.5 z" class="primitive"/>
              </g>
              <g transform="translate(36.44,78.16)" id="img-b159c17c-61">
                <path d="M-0.26,-10.17 L 0.26 -10.17 0.26 10.17 -0.26 10.17 z" class="primitive"/>
              </g>
              <g transform="translate(36.91,88.33)" id="img-b159c17c-62">
                <path d="M-0.26,-0 L 0.26 -0 0.26 0 -0.26 0 z" class="primitive"/>
              </g>
              <g transform="translate(37.38,78.16)" id="img-b159c17c-63">
                <path d="M-0.26,-10.17 L 0.26 -10.17 0.26 10.17 -0.26 10.17 z" class="primitive"/>
              </g>
              <g transform="translate(37.85,57.83)" id="img-b159c17c-64">
                <path d="M-0.26,-30.5 L 0.26 -30.5 0.26 30.5 -0.26 30.5 z" class="primitive"/>
              </g>
              <g transform="translate(38.32,88.33)" id="img-b159c17c-65">
                <path d="M-0.26,-0 L 0.26 -0 0.26 0 -0.26 0 z" class="primitive"/>
              </g>
              <g transform="translate(38.79,68)" id="img-b159c17c-66">
                <path d="M-0.26,-20.33 L 0.26 -20.33 0.26 20.33 -0.26 20.33 z" class="primitive"/>
              </g>
              <g transform="translate(39.26,47.66)" id="img-b159c17c-67">
                <path d="M-0.26,-40.66 L 0.26 -40.66 0.26 40.66 -0.26 40.66 z" class="primitive"/>
              </g>
              <g transform="translate(39.73,47.66)" id="img-b159c17c-68">
                <path d="M-0.26,-40.66 L 0.26 -40.66 0.26 40.66 -0.26 40.66 z" class="primitive"/>
              </g>
              <g transform="translate(40.2,78.16)" id="img-b159c17c-69">
                <path d="M-0.26,-10.17 L 0.26 -10.17 0.26 10.17 -0.26 10.17 z" class="primitive"/>
              </g>
              <g transform="translate(40.67,47.66)" id="img-b159c17c-70">
                <path d="M-0.26,-40.66 L 0.26 -40.66 0.26 40.66 -0.26 40.66 z" class="primitive"/>
              </g>
              <g transform="translate(41.14,88.33)" id="img-b159c17c-71">
                <path d="M-0.26,-0 L 0.26 -0 0.26 0 -0.26 0 z" class="primitive"/>
              </g>
              <g transform="translate(41.61,68)" id="img-b159c17c-72">
                <path d="M-0.26,-20.33 L 0.26 -20.33 0.26 20.33 -0.26 20.33 z" class="primitive"/>
              </g>
              <g transform="translate(42.09,68)" id="img-b159c17c-73">
                <path d="M-0.26,-20.33 L 0.26 -20.33 0.26 20.33 -0.26 20.33 z" class="primitive"/>
              </g>
              <g transform="translate(42.56,78.16)" id="img-b159c17c-74">
                <path d="M-0.26,-10.17 L 0.26 -10.17 0.26 10.17 -0.26 10.17 z" class="primitive"/>
              </g>
              <g transform="translate(43.03,57.83)" id="img-b159c17c-75">
                <path d="M-0.26,-30.5 L 0.26 -30.5 0.26 30.5 -0.26 30.5 z" class="primitive"/>
              </g>
              <g transform="translate(43.5,78.16)" id="img-b159c17c-76">
                <path d="M-0.26,-10.17 L 0.26 -10.17 0.26 10.17 -0.26 10.17 z" class="primitive"/>
              </g>
              <g transform="translate(43.97,57.83)" id="img-b159c17c-77">
                <path d="M-0.26,-30.5 L 0.26 -30.5 0.26 30.5 -0.26 30.5 z" class="primitive"/>
              </g>
              <g transform="translate(44.44,47.66)" id="img-b159c17c-78">
                <path d="M-0.26,-40.66 L 0.26 -40.66 0.26 40.66 -0.26 40.66 z" class="primitive"/>
              </g>
              <g transform="translate(44.91,88.33)" id="img-b159c17c-79">
                <path d="M-0.26,-0 L 0.26 -0 0.26 0 -0.26 0 z" class="primitive"/>
              </g>
              <g transform="translate(45.38,57.83)" id="img-b159c17c-80">
                <path d="M-0.26,-30.5 L 0.26 -30.5 0.26 30.5 -0.26 30.5 z" class="primitive"/>
              </g>
              <g transform="translate(45.85,57.83)" id="img-b159c17c-81">
                <path d="M-0.26,-30.5 L 0.26 -30.5 0.26 30.5 -0.26 30.5 z" class="primitive"/>
              </g>
              <g transform="translate(46.32,68)" id="img-b159c17c-82">
                <path d="M-0.26,-20.33 L 0.26 -20.33 0.26 20.33 -0.26 20.33 z" class="primitive"/>
              </g>
              <g transform="translate(46.79,88.33)" id="img-b159c17c-83">
                <path d="M-0.26,-0 L 0.26 -0 0.26 0 -0.26 0 z" class="primitive"/>
              </g>
              <g transform="translate(47.26,68)" id="img-b159c17c-84">
                <path d="M-0.26,-20.33 L 0.26 -20.33 0.26 20.33 -0.26 20.33 z" class="primitive"/>
              </g>
              <g transform="translate(47.73,78.16)" id="img-b159c17c-85">
                <path d="M-0.26,-10.17 L 0.26 -10.17 0.26 10.17 -0.26 10.17 z" class="primitive"/>
              </g>
              <g transform="translate(48.2,57.83)" id="img-b159c17c-86">
                <path d="M-0.26,-30.5 L 0.26 -30.5 0.26 30.5 -0.26 30.5 z" class="primitive"/>
              </g>
              <g transform="translate(48.67,47.66)" id="img-b159c17c-87">
                <path d="M-0.26,-40.66 L 0.26 -40.66 0.26 40.66 -0.26 40.66 z" class="primitive"/>
              </g>
              <g transform="translate(49.14,57.83)" id="img-b159c17c-88">
                <path d="M-0.26,-30.5 L 0.26 -30.5 0.26 30.5 -0.26 30.5 z" class="primitive"/>
              </g>
              <g transform="translate(49.61,78.16)" id="img-b159c17c-89">
                <path d="M-0.26,-10.17 L 0.26 -10.17 0.26 10.17 -0.26 10.17 z" class="primitive"/>
              </g>
              <g transform="translate(50.08,78.16)" id="img-b159c17c-90">
                <path d="M-0.26,-10.17 L 0.26 -10.17 0.26 10.17 -0.26 10.17 z" class="primitive"/>
              </g>
              <g transform="translate(50.55,78.16)" id="img-b159c17c-91">
                <path d="M-0.26,-10.17 L 0.26 -10.17 0.26 10.17 -0.26 10.17 z" class="primitive"/>
              </g>
              <g transform="translate(51.02,88.33)" id="img-b159c17c-92">
                <path d="M-0.26,-0 L 0.26 -0 0.26 0 -0.26 0 z" class="primitive"/>
              </g>
              <g transform="translate(51.49,78.16)" id="img-b159c17c-93">
                <path d="M-0.26,-10.17 L 0.26 -10.17 0.26 10.17 -0.26 10.17 z" class="primitive"/>
              </g>
              <g transform="translate(51.96,68)" id="img-b159c17c-94">
                <path d="M-0.26,-20.33 L 0.26 -20.33 0.26 20.33 -0.26 20.33 z" class="primitive"/>
              </g>
              <g transform="translate(52.43,88.33)" id="img-b159c17c-95">
                <path d="M-0.26,-0 L 0.26 -0 0.26 0 -0.26 0 z" class="primitive"/>
              </g>
              <g transform="translate(52.9,88.33)" id="img-b159c17c-96">
                <path d="M-0.26,-0 L 0.26 -0 0.26 0 -0.26 0 z" class="primitive"/>
              </g>
              <g transform="translate(53.37,68)" id="img-b159c17c-97">
                <path d="M-0.26,-20.33 L 0.26 -20.33 0.26 20.33 -0.26 20.33 z" class="primitive"/>
              </g>
              <g transform="translate(53.84,88.33)" id="img-b159c17c-98">
                <path d="M-0.26,-0 L 0.26 -0 0.26 0 -0.26 0 z" class="primitive"/>
              </g>
              <g transform="translate(54.31,78.16)" id="img-b159c17c-99">
                <path d="M-0.26,-10.17 L 0.26 -10.17 0.26 10.17 -0.26 10.17 z" class="primitive"/>
              </g>
              <g transform="translate(54.78,88.33)" id="img-b159c17c-100">
                <path d="M-0.26,-0 L 0.26 -0 0.26 0 -0.26 0 z" class="primitive"/>
              </g>
              <g transform="translate(55.25,78.16)" id="img-b159c17c-101">
                <path d="M-0.26,-10.17 L 0.26 -10.17 0.26 10.17 -0.26 10.17 z" class="primitive"/>
              </g>
              <g transform="translate(55.72,88.33)" id="img-b159c17c-102">
                <path d="M-0.26,-0 L 0.26 -0 0.26 0 -0.26 0 z" class="primitive"/>
              </g>
              <g transform="translate(56.19,88.33)" id="img-b159c17c-103">
                <path d="M-0.26,-0 L 0.26 -0 0.26 0 -0.26 0 z" class="primitive"/>
              </g>
              <g transform="translate(56.66,88.33)" id="img-b159c17c-104">
                <path d="M-0.26,-0 L 0.26 -0 0.26 0 -0.26 0 z" class="primitive"/>
              </g>
              <g transform="translate(57.13,57.83)" id="img-b159c17c-105">
                <path d="M-0.26,-30.5 L 0.26 -30.5 0.26 30.5 -0.26 30.5 z" class="primitive"/>
              </g>
              <g transform="translate(57.6,78.16)" id="img-b159c17c-106">
                <path d="M-0.26,-10.17 L 0.26 -10.17 0.26 10.17 -0.26 10.17 z" class="primitive"/>
              </g>
              <g transform="translate(58.07,88.33)" id="img-b159c17c-107">
                <path d="M-0.26,-0 L 0.26 -0 0.26 0 -0.26 0 z" class="primitive"/>
              </g>
              <g transform="translate(58.54,78.16)" id="img-b159c17c-108">
                <path d="M-0.26,-10.17 L 0.26 -10.17 0.26 10.17 -0.26 10.17 z" class="primitive"/>
              </g>
              <g transform="translate(59.01,78.16)" id="img-b159c17c-109">
                <path d="M-0.26,-10.17 L 0.26 -10.17 0.26 10.17 -0.26 10.17 z" class="primitive"/>
              </g>
              <g transform="translate(59.48,88.33)" id="img-b159c17c-110">
                <path d="M-0.26,-0 L 0.26 -0 0.26 0 -0.26 0 z" class="primitive"/>
              </g>
              <g transform="translate(59.95,88.33)" id="img-b159c17c-111">
                <path d="M-0.26,-0 L 0.26 -0 0.26 0 -0.26 0 z" class="primitive"/>
              </g>
              <g transform="translate(60.42,78.16)" id="img-b159c17c-112">
                <path d="M-0.26,-10.17 L 0.26 -10.17 0.26 10.17 -0.26 10.17 z" class="primitive"/>
              </g>
              <g transform="translate(60.89,78.16)" id="img-b159c17c-113">
                <path d="M-0.26,-10.17 L 0.26 -10.17 0.26 10.17 -0.26 10.17 z" class="primitive"/>
              </g>
              <g transform="translate(61.36,88.33)" id="img-b159c17c-114">
                <path d="M-0.26,-0 L 0.26 -0 0.26 0 -0.26 0 z" class="primitive"/>
              </g>
              <g transform="translate(61.83,88.33)" id="img-b159c17c-115">
                <path d="M-0.26,-0 L 0.26 -0 0.26 0 -0.26 0 z" class="primitive"/>
              </g>
              <g transform="translate(62.3,88.33)" id="img-b159c17c-116">
                <path d="M-0.26,-0 L 0.26 -0 0.26 0 -0.26 0 z" class="primitive"/>
              </g>
              <g transform="translate(62.77,88.33)" id="img-b159c17c-117">
                <path d="M-0.26,-0 L 0.26 -0 0.26 0 -0.26 0 z" class="primitive"/>
              </g>
              <g transform="translate(63.24,88.33)" id="img-b159c17c-118">
                <path d="M-0.26,-0 L 0.26 -0 0.26 0 -0.26 0 z" class="primitive"/>
              </g>
              <g transform="translate(63.71,88.33)" id="img-b159c17c-119">
                <path d="M-0.26,-0 L 0.26 -0 0.26 0 -0.26 0 z" class="primitive"/>
              </g>
              <g transform="translate(64.18,78.16)" id="img-b159c17c-120">
                <path d="M-0.26,-10.17 L 0.26 -10.17 0.26 10.17 -0.26 10.17 z" class="primitive"/>
              </g>
              <g transform="translate(64.65,88.33)" id="img-b159c17c-121">
                <path d="M-0.26,-0 L 0.26 -0 0.26 0 -0.26 0 z" class="primitive"/>
              </g>
              <g transform="translate(65.12,88.33)" id="img-b159c17c-122">
                <path d="M-0.26,-0 L 0.26 -0 0.26 0 -0.26 0 z" class="primitive"/>
              </g>
              <g transform="translate(65.59,78.16)" id="img-b159c17c-123">
                <path d="M-0.26,-10.17 L 0.26 -10.17 0.26 10.17 -0.26 10.17 z" class="primitive"/>
              </g>
              <g transform="translate(66.06,88.33)" id="img-b159c17c-124">
                <path d="M-0.26,-0 L 0.26 -0 0.26 0 -0.26 0 z" class="primitive"/>
              </g>
              <g transform="translate(66.53,88.33)" id="img-b159c17c-125">
                <path d="M-0.26,-0 L 0.26 -0 0.26 0 -0.26 0 z" class="primitive"/>
              </g>
              <g transform="translate(67,88.33)" id="img-b159c17c-126">
                <path d="M-0.26,-0 L 0.26 -0 0.26 0 -0.26 0 z" class="primitive"/>
              </g>
              <g transform="translate(67.47,78.16)" id="img-b159c17c-127">
                <path d="M-0.26,-10.17 L 0.26 -10.17 0.26 10.17 -0.26 10.17 z" class="primitive"/>
              </g>
              <g transform="translate(67.94,88.33)" id="img-b159c17c-128">
                <path d="M-0.26,-0 L 0.26 -0 0.26 0 -0.26 0 z" class="primitive"/>
              </g>
              <g transform="translate(68.41,88.33)" id="img-b159c17c-129">
                <path d="M-0.26,-0 L 0.26 -0 0.26 0 -0.26 0 z" class="primitive"/>
              </g>
              <g transform="translate(68.88,88.33)" id="img-b159c17c-130">
                <path d="M-0.26,-0 L 0.26 -0 0.26 0 -0.26 0 z" class="primitive"/>
              </g>
            </g>
          </g>
        </g>
      </g>
    </g>
  </g>
  <g class="guide ylabels" font-size="2.82" font-family="'PT Sans Caption','Helvetica Neue','Helvetica',sans-serif" fill="#6C606B" id="img-b159c17c-131">
    <g transform="translate(15.28,88.33)" id="img-b159c17c-132">
      <g class="primitive">
        <text text-anchor="end" dy="0.35em">0</text>
      </g>
    </g>
    <g transform="translate(15.28,68)" id="img-b159c17c-133">
      <g class="primitive">
        <text text-anchor="end" dy="0.35em">1</text>
      </g>
    </g>
    <g transform="translate(15.28,47.66)" id="img-b159c17c-134">
      <g class="primitive">
        <text text-anchor="end" dy="0.35em">2</text>
      </g>
    </g>
    <g transform="translate(15.28,27.33)" id="img-b159c17c-135">
      <g class="primitive">
        <text text-anchor="end" dy="0.35em">3</text>
      </g>
    </g>
    <g transform="translate(15.28,7)" id="img-b159c17c-136">
      <g class="primitive">
        <text text-anchor="end" dy="0.35em">4</text>
      </g>
    </g>
  </g>
  <g font-size="3.88" font-family="'PT Sans','Helvetica Neue','Helvetica',sans-serif" fill="#564A55" stroke="#000000" stroke-opacity="0.000" id="img-b159c17c-137">
    <g transform="translate(8.81,45.66)" id="img-b159c17c-138">
      <g class="primitive">
        <text text-anchor="middle" dy="0.35em" transform="rotate(-90,0, 2)">frequency</text>
      </g>
    </g>
  </g>
</g>
<defs>
  <clipPath id="img-b159c17c-11">
    <path d="M16.28,5 L 78.37 5 78.37 90.33 16.28 90.33" />
  </clipPath>
</defs>
</svg>
