<?xml version="1.0" encoding="UTF-8"?>
<svg xmlns="http://www.w3.org/2000/svg"
     xmlns:xlink="http://www.w3.org/1999/xlink"
     xmlns:gadfly="http://www.gadflyjl.org/ns"
     version="1.2"
     width="141.42mm" height="100mm" viewBox="0 0 141.42 100"
     stroke="none"
     fill="#000000"
     stroke-width="0.3"
     font-size="3.88"
>
<defs>
  <marker id="arrow" markerWidth="15" markerHeight="7" refX="5" refY="3.5" orient="auto" markerUnits="strokeWidth">
    <path d="M0,0 L15,3.5 L0,7 z" stroke="context-stroke" fill="context-stroke"/>
  </marker>
</defs>
<g class="plotroot xscalable yscalable" id="img-88ed14c2-1">
  <g class="guide xlabels" font-size="2.82" font-family="'PT Sans Caption','Helvetica Neue','Helvetica',sans-serif" fill="#6C606B" id="img-88ed14c2-2">
    <g transform="translate(19.96,91.33)">
      <g class="primitive">
        <text text-anchor="middle" dy="0.6em">4</text>
      </g>
    </g>
    <g transform="translate(31.77,91.33)">
      <g class="primitive">
        <text text-anchor="middle" dy="0.6em">5</text>
      </g>
    </g>
    <g transform="translate(43.57,91.33)">
      <g class="primitive">
        <text text-anchor="middle" dy="0.6em">6</text>
      </g>
    </g>
    <g transform="translate(55.38,91.33)">
      <g class="primitive">
        <text text-anchor="middle" dy="0.6em">7</text>
      </g>
    </g>
    <g transform="translate(67.19,91.33)">
      <g class="primitive">
        <text text-anchor="middle" dy="0.6em">8</text>
      </g>
    </g>
  </g>
  <g class="guide colorkey" id="img-88ed14c2-3">
    <g class="color_noncoding_noncoding_noncoding_noncoding_4-path" id="img-88ed14c2-4">
      <g fill="#4C404B" font-size="2.82" font-family="'PT Sans','Helvetica Neue','Helvetica',sans-serif" id="img-88ed14c2-5">
        <g transform="translate(73,49.48)" id="img-88ed14c2-6">
          <g class="primitive">
            <text dy="0.35em">noncoding_noncoding_noncoding_noncoding_4-path</text>
          </g>
        </g>
      </g>
      <g fill-opacity="1" fill="#00BFFF" stroke="#FFFFFF" id="img-88ed14c2-7">
        <g transform="translate(71.09,49.48)" id="img-88ed14c2-8">
          <path d="M-0.91,-0.91 L 0.91 -0.91 0.91 0.91 -0.91 0.91 z" class="primitive"/>
        </g>
      </g>
    </g>
    <g fill="#362A35" font-size="3.88" font-family="'PT Sans','Helvetica Neue','Helvetica',sans-serif" stroke="#000000" stroke-opacity="0.000" id="img-88ed14c2-9">
      <g transform="translate(70.19,45.66)" id="img-88ed14c2-10">
        <g class="primitive">
          <text dy="-0em">graphlet</text>
        </g>
      </g>
    </g>
  </g>
  <g clip-path="url(#img-88ed14c2-11)">
    <g id="img-88ed14c2-12">
      <g pointer-events="visible" stroke-width="0.3" fill="#000000" fill-opacity="0.000" stroke="#000000" stroke-opacity="0.000" class="guide background" id="img-88ed14c2-13">
        <g transform="translate(43.57,47.66)" id="img-88ed14c2-14">
          <path d="M-25.61,-42.66 L 25.61 -42.66 25.61 42.66 -25.61 42.66 z" class="primitive"/>
        </g>
      </g>
      <g class="guide ygridlines xfixed" stroke-dasharray="0.5,0.5" stroke-width="0.2" stroke="#D0D0E0" id="img-88ed14c2-15">
        <g transform="translate(43.57,88.33)" id="img-88ed14c2-16">
          <path fill="none" d="M-25.61,0 L 25.61 0" class="primitive"/>
        </g>
        <g transform="translate(43.57,68)" id="img-88ed14c2-17">
          <path fill="none" d="M-25.61,0 L 25.61 0" class="primitive"/>
        </g>
        <g transform="translate(43.57,47.66)" id="img-88ed14c2-18">
          <path fill="none" d="M-25.61,0 L 25.61 0" class="primitive"/>
        </g>
        <g transform="translate(43.57,27.33)" id="img-88ed14c2-19">
          <path fill="none" d="M-25.61,0 L 25.61 0" class="primitive"/>
        </g>
        <g transform="translate(43.57,7)" id="img-88ed14c2-20">
          <path fill="none" d="M-25.61,0 L 25.61 0" class="primitive"/>
        </g>
      </g>
      <g class="guide xgridlines yfixed" stroke-dasharray="0.5,0.5" stroke-width="0.2" stroke="#D0D0E0" id="img-88ed14c2-21">
        <g transform="translate(19.96,47.66)" id="img-88ed14c2-22">
          <path fill="none" d="M0,-42.66 L 0 42.66" class="primitive"/>
        </g>
        <g transform="translate(31.77,47.66)" id="img-88ed14c2-23">
          <path fill="none" d="M0,-42.66 L 0 42.66" class="primitive"/>
        </g>
        <g transform="translate(43.57,47.66)" id="img-88ed14c2-24">
          <path fill="none" d="M0,-42.66 L 0 42.66" class="primitive"/>
        </g>
        <g transform="translate(55.38,47.66)" id="img-88ed14c2-25">
          <path fill="none" d="M0,-42.66 L 0 42.66" class="primitive"/>
        </g>
        <g transform="translate(67.19,47.66)" id="img-88ed14c2-26">
          <path fill="none" d="M0,-42.66 L 0 42.66" class="primitive"/>
        </g>
      </g>
      <g class="plotpanel" id="img-88ed14c2-27">
        <metadata>
          <boundingbox value="17.958333333333336mm 5.0mm 51.22968957064284mm 85.32666666666667mm"/>
          <unitbox value="3.8306150204939593 40.98368718747438 4.338769959012081 -41.96737437494876"/>
        </metadata>
        <g shape-rendering="crispEdges" stroke-width="0.3" id="img-88ed14c2-28">
          <g stroke="#000000" stroke-opacity="0.000" class="geometry" id="img-88ed14c2-29">
            <g fill="#00BFFF" id="img-88ed14c2-30">
              <g transform="translate(27.63,87.31)" id="img-88ed14c2-31">
                <path d="M-0.2,-1.02 L 0.2 -1.02 0.2 1.02 -0.2 1.02 z" class="primitive"/>
              </g>
              <g transform="translate(27.97,88.33)" id="img-88ed14c2-32">
                <path d="M-0.2,-0 L 0.2 -0 0.2 0 -0.2 0 z" class="primitive"/>
              </g>
              <g transform="translate(28.32,87.31)" id="img-88ed14c2-33">
                <path d="M-0.2,-1.02 L 0.2 -1.02 0.2 1.02 -0.2 1.02 z" class="primitive"/>
              </g>
              <g transform="translate(28.66,88.33)" id="img-88ed14c2-34">
                <path d="M-0.2,-0 L 0.2 -0 0.2 0 -0.2 0 z" class="primitive"/>
              </g>
              <g transform="translate(29.01,87.31)" id="img-88ed14c2-35">
                <path d="M-0.2,-1.02 L 0.2 -1.02 0.2 1.02 -0.2 1.02 z" class="primitive"/>
              </g>
              <g transform="translate(29.35,88.33)" id="img-88ed14c2-36">
                <path d="M-0.2,-0 L 0.2 -0 0.2 0 -0.2 0 z" class="primitive"/>
              </g>
              <g transform="translate(29.7,88.33)" id="img-88ed14c2-37">
                <path d="M-0.2,-0 L 0.2 -0 0.2 0 -0.2 0 z" class="primitive"/>
              </g>
              <g transform="translate(30.05,88.33)" id="img-88ed14c2-38">
                <path d="M-0.2,-0 L 0.2 -0 0.2 0 -0.2 0 z" class="primitive"/>
              </g>
              <g transform="translate(30.39,85.28)" id="img-88ed14c2-39">
                <path d="M-0.2,-3.05 L 0.2 -3.05 0.2 3.05 -0.2 3.05 z" class="primitive"/>
              </g>
              <g transform="translate(30.74,87.31)" id="img-88ed14c2-40">
                <path d="M-0.2,-1.02 L 0.2 -1.02 0.2 1.02 -0.2 1.02 z" class="primitive"/>
              </g>
              <g transform="translate(31.08,86.29)" id="img-88ed14c2-41">
                <path d="M-0.2,-2.03 L 0.2 -2.03 0.2 2.03 -0.2 2.03 z" class="primitive"/>
              </g>
              <g transform="translate(31.43,86.29)" id="img-88ed14c2-42">
                <path d="M-0.2,-2.03 L 0.2 -2.03 0.2 2.03 -0.2 2.03 z" class="primitive"/>
              </g>
              <g transform="translate(31.78,86.29)" id="img-88ed14c2-43">
                <path d="M-0.2,-2.03 L 0.2 -2.03 0.2 2.03 -0.2 2.03 z" class="primitive"/>
              </g>
              <g transform="translate(32.12,87.31)" id="img-88ed14c2-44">
                <path d="M-0.2,-1.02 L 0.2 -1.02 0.2 1.02 -0.2 1.02 z" class="primitive"/>
              </g>
              <g transform="translate(32.47,87.31)" id="img-88ed14c2-45">
                <path d="M-0.2,-1.02 L 0.2 -1.02 0.2 1.02 -0.2 1.02 z" class="primitive"/>
              </g>
              <g transform="translate(32.81,86.29)" id="img-88ed14c2-46">
                <path d="M-0.2,-2.03 L 0.2 -2.03 0.2 2.03 -0.2 2.03 z" class="primitive"/>
              </g>
              <g transform="translate(33.16,87.31)" id="img-88ed14c2-47">
                <path d="M-0.2,-1.02 L 0.2 -1.02 0.2 1.02 -0.2 1.02 z" class="primitive"/>
              </g>
              <g transform="translate(33.51,87.31)" id="img-88ed14c2-48">
                <path d="M-0.2,-1.02 L 0.2 -1.02 0.2 1.02 -0.2 1.02 z" class="primitive"/>
              </g>
              <g transform="translate(33.85,85.28)" id="img-88ed14c2-49">
                <path d="M-0.2,-3.05 L 0.2 -3.05 0.2 3.05 -0.2 3.05 z" class="primitive"/>
              </g>
              <g transform="translate(34.2,84.26)" id="img-88ed14c2-50">
                <path d="M-0.2,-4.07 L 0.2 -4.07 0.2 4.07 -0.2 4.07 z" class="primitive"/>
              </g>
              <g transform="translate(34.54,85.28)" id="img-88ed14c2-51">
                <path d="M-0.2,-3.05 L 0.2 -3.05 0.2 3.05 -0.2 3.05 z" class="primitive"/>
              </g>
              <g transform="translate(34.89,85.28)" id="img-88ed14c2-52">
                <path d="M-0.2,-3.05 L 0.2 -3.05 0.2 3.05 -0.2 3.05 z" class="primitive"/>
              </g>
              <g transform="translate(35.23,82.23)" id="img-88ed14c2-53">
                <path d="M-0.2,-6.1 L 0.2 -6.1 0.2 6.1 -0.2 6.1 z" class="primitive"/>
              </g>
              <g transform="translate(35.58,76.13)" id="img-88ed14c2-54">
                <path d="M-0.2,-12.2 L 0.2 -12.2 0.2 12.2 -0.2 12.2 z" class="primitive"/>
              </g>
              <g transform="translate(35.93,81.21)" id="img-88ed14c2-55">
                <path d="M-0.2,-7.12 L 0.2 -7.12 0.2 7.12 -0.2 7.12 z" class="primitive"/>
              </g>
              <g transform="translate(36.27,81.21)" id="img-88ed14c2-56">
                <path d="M-0.2,-7.12 L 0.2 -7.12 0.2 7.12 -0.2 7.12 z" class="primitive"/>
              </g>
              <g transform="translate(36.62,76.13)" id="img-88ed14c2-57">
                <path d="M-0.2,-12.2 L 0.2 -12.2 0.2 12.2 -0.2 12.2 z" class="primitive"/>
              </g>
              <g transform="translate(36.96,76.13)" id="img-88ed14c2-58">
                <path d="M-0.2,-12.2 L 0.2 -12.2 0.2 12.2 -0.2 12.2 z" class="primitive"/>
              </g>
              <g transform="translate(37.31,74.09)" id="img-88ed14c2-59">
                <path d="M-0.2,-14.23 L 0.2 -14.23 0.2 14.23 -0.2 14.23 z" class="primitive"/>
              </g>
              <g transform="translate(37.66,76.13)" id="img-88ed14c2-60">
                <path d="M-0.2,-12.2 L 0.2 -12.2 0.2 12.2 -0.2 12.2 z" class="primitive"/>
              </g>
              <g transform="translate(38,74.09)" id="img-88ed14c2-61">
                <path d="M-0.2,-14.23 L 0.2 -14.23 0.2 14.23 -0.2 14.23 z" class="primitive"/>
              </g>
              <g transform="translate(38.35,70.03)" id="img-88ed14c2-62">
                <path d="M-0.2,-18.3 L 0.2 -18.3 0.2 18.3 -0.2 18.3 z" class="primitive"/>
              </g>
              <g transform="translate(38.69,72.06)" id="img-88ed14c2-63">
                <path d="M-0.2,-16.27 L 0.2 -16.27 0.2 16.27 -0.2 16.27 z" class="primitive"/>
              </g>
              <g transform="translate(39.04,72.06)" id="img-88ed14c2-64">
                <path d="M-0.2,-16.27 L 0.2 -16.27 0.2 16.27 -0.2 16.27 z" class="primitive"/>
              </g>
              <g transform="translate(39.38,65.96)" id="img-88ed14c2-65">
                <path d="M-0.2,-22.36 L 0.2 -22.36 0.2 22.36 -0.2 22.36 z" class="primitive"/>
              </g>
              <g transform="translate(39.73,76.13)" id="img-88ed14c2-66">
                <path d="M-0.2,-12.2 L 0.2 -12.2 0.2 12.2 -0.2 12.2 z" class="primitive"/>
              </g>
              <g transform="translate(40.08,69.01)" id="img-88ed14c2-67">
                <path d="M-0.2,-19.32 L 0.2 -19.32 0.2 19.32 -0.2 19.32 z" class="primitive"/>
              </g>
              <g transform="translate(40.42,60.88)" id="img-88ed14c2-68">
                <path d="M-0.2,-27.45 L 0.2 -27.45 0.2 27.45 -0.2 27.45 z" class="primitive"/>
              </g>
              <g transform="translate(40.77,62.91)" id="img-88ed14c2-69">
                <path d="M-0.2,-25.41 L 0.2 -25.41 0.2 25.41 -0.2 25.41 z" class="primitive"/>
              </g>
              <g transform="translate(41.11,66.98)" id="img-88ed14c2-70">
                <path d="M-0.2,-21.35 L 0.2 -21.35 0.2 21.35 -0.2 21.35 z" class="primitive"/>
              </g>
              <g transform="translate(41.46,73.08)" id="img-88ed14c2-71">
                <path d="M-0.2,-15.25 L 0.2 -15.25 0.2 15.25 -0.2 15.25 z" class="primitive"/>
              </g>
              <g transform="translate(41.81,69.01)" id="img-88ed14c2-72">
                <path d="M-0.2,-19.32 L 0.2 -19.32 0.2 19.32 -0.2 19.32 z" class="primitive"/>
              </g>
              <g transform="translate(42.15,60.88)" id="img-88ed14c2-73">
                <path d="M-0.2,-27.45 L 0.2 -27.45 0.2 27.45 -0.2 27.45 z" class="primitive"/>
              </g>
              <g transform="translate(42.5,64.95)" id="img-88ed14c2-74">
                <path d="M-0.2,-23.38 L 0.2 -23.38 0.2 23.38 -0.2 23.38 z" class="primitive"/>
              </g>
              <g transform="translate(42.84,65.96)" id="img-88ed14c2-75">
                <path d="M-0.2,-22.36 L 0.2 -22.36 0.2 22.36 -0.2 22.36 z" class="primitive"/>
              </g>
              <g transform="translate(43.19,55.8)" id="img-88ed14c2-76">
                <path d="M-0.2,-32.53 L 0.2 -32.53 0.2 32.53 -0.2 32.53 z" class="primitive"/>
              </g>
              <g transform="translate(43.53,60.88)" id="img-88ed14c2-77">
                <path d="M-0.2,-27.45 L 0.2 -27.45 0.2 27.45 -0.2 27.45 z" class="primitive"/>
              </g>
              <g transform="translate(43.88,71.04)" id="img-88ed14c2-78">
                <path d="M-0.2,-17.28 L 0.2 -17.28 0.2 17.28 -0.2 17.28 z" class="primitive"/>
              </g>
              <g transform="translate(44.23,65.96)" id="img-88ed14c2-79">
                <path d="M-0.2,-22.36 L 0.2 -22.36 0.2 22.36 -0.2 22.36 z" class="primitive"/>
              </g>
              <g transform="translate(44.57,57.83)" id="img-88ed14c2-80">
                <path d="M-0.2,-30.5 L 0.2 -30.5 0.2 30.5 -0.2 30.5 z" class="primitive"/>
              </g>
              <g transform="translate(44.92,60.88)" id="img-88ed14c2-81">
                <path d="M-0.2,-27.45 L 0.2 -27.45 0.2 27.45 -0.2 27.45 z" class="primitive"/>
              </g>
              <g transform="translate(45.26,74.09)" id="img-88ed14c2-82">
                <path d="M-0.2,-14.23 L 0.2 -14.23 0.2 14.23 -0.2 14.23 z" class="primitive"/>
              </g>
              <g transform="translate(45.61,63.93)" id="img-88ed14c2-83">
                <path d="M-0.2,-24.4 L 0.2 -24.4 0.2 24.4 -0.2 24.4 z" class="primitive"/>
              </g>
              <g transform="translate(45.96,57.83)" id="img-88ed14c2-84">
                <path d="M-0.2,-30.5 L 0.2 -30.5 0.2 30.5 -0.2 30.5 z" class="primitive"/>
              </g>
              <g transform="translate(46.3,61.9)" id="img-88ed14c2-85">
                <path d="M-0.2,-26.43 L 0.2 -26.43 0.2 26.43 -0.2 26.43 z" class="primitive"/>
              </g>
              <g transform="translate(46.65,63.93)" id="img-88ed14c2-86">
                <path d="M-0.2,-24.4 L 0.2 -24.4 0.2 24.4 -0.2 24.4 z" class="primitive"/>
              </g>
              <g transform="translate(46.99,69.01)" id="img-88ed14c2-87">
                <path d="M-0.2,-19.32 L 0.2 -19.32 0.2 19.32 -0.2 19.32 z" class="primitive"/>
              </g>
              <g transform="translate(47.34,54.78)" id="img-88ed14c2-88">
                <path d="M-0.2,-33.55 L 0.2 -33.55 0.2 33.55 -0.2 33.55 z" class="primitive"/>
              </g>
              <g transform="translate(47.68,71.04)" id="img-88ed14c2-89">
                <path d="M-0.2,-17.28 L 0.2 -17.28 0.2 17.28 -0.2 17.28 z" class="primitive"/>
              </g>
              <g transform="translate(48.03,66.98)" id="img-88ed14c2-90">
                <path d="M-0.2,-21.35 L 0.2 -21.35 0.2 21.35 -0.2 21.35 z" class="primitive"/>
              </g>
              <g transform="translate(48.38,71.04)" id="img-88ed14c2-91">
                <path d="M-0.2,-17.28 L 0.2 -17.28 0.2 17.28 -0.2 17.28 z" class="primitive"/>
              </g>
              <g transform="translate(48.72,72.06)" id="img-88ed14c2-92">
                <path d="M-0.2,-16.27 L 0.2 -16.27 0.2 16.27 -0.2 16.27 z" class="primitive"/>
              </g>
              <g transform="translate(49.07,72.06)" id="img-88ed14c2-93">
                <path d="M-0.2,-16.27 L 0.2 -16.27 0.2 16.27 -0.2 16.27 z" class="primitive"/>
              </g>
              <g transform="translate(49.41,73.08)" id="img-88ed14c2-94">
                <path d="M-0.2,-15.25 L 0.2 -15.25 0.2 15.25 -0.2 15.25 z" class="primitive"/>
              </g>
              <g transform="translate(49.76,77.14)" id="img-88ed14c2-95">
                <path d="M-0.2,-11.18 L 0.2 -11.18 0.2 11.18 -0.2 11.18 z" class="primitive"/>
              </g>
              <g transform="translate(50.11,77.14)" id="img-88ed14c2-96">
                <path d="M-0.2,-11.18 L 0.2 -11.18 0.2 11.18 -0.2 11.18 z" class="primitive"/>
              </g>
              <g transform="translate(50.45,75.11)" id="img-88ed14c2-97">
                <path d="M-0.2,-13.22 L 0.2 -13.22 0.2 13.22 -0.2 13.22 z" class="primitive"/>
              </g>
              <g transform="translate(50.8,74.09)" id="img-88ed14c2-98">
                <path d="M-0.2,-14.23 L 0.2 -14.23 0.2 14.23 -0.2 14.23 z" class="primitive"/>
              </g>
              <g transform="translate(51.14,74.09)" id="img-88ed14c2-99">
                <path d="M-0.2,-14.23 L 0.2 -14.23 0.2 14.23 -0.2 14.23 z" class="primitive"/>
              </g>
              <g transform="translate(51.49,79.18)" id="img-88ed14c2-100">
                <path d="M-0.2,-9.15 L 0.2 -9.15 0.2 9.15 -0.2 9.15 z" class="primitive"/>
              </g>
              <g transform="translate(51.83,77.14)" id="img-88ed14c2-101">
                <path d="M-0.2,-11.18 L 0.2 -11.18 0.2 11.18 -0.2 11.18 z" class="primitive"/>
              </g>
              <g transform="translate(52.18,75.11)" id="img-88ed14c2-102">
                <path d="M-0.2,-13.22 L 0.2 -13.22 0.2 13.22 -0.2 13.22 z" class="primitive"/>
              </g>
              <g transform="translate(52.53,78.16)" id="img-88ed14c2-103">
                <path d="M-0.2,-10.17 L 0.2 -10.17 0.2 10.17 -0.2 10.17 z" class="primitive"/>
              </g>
              <g transform="translate(52.87,84.26)" id="img-88ed14c2-104">
                <path d="M-0.2,-4.07 L 0.2 -4.07 0.2 4.07 -0.2 4.07 z" class="primitive"/>
              </g>
              <g transform="translate(53.22,79.18)" id="img-88ed14c2-105">
                <path d="M-0.2,-9.15 L 0.2 -9.15 0.2 9.15 -0.2 9.15 z" class="primitive"/>
              </g>
              <g transform="translate(53.56,80.19)" id="img-88ed14c2-106">
                <path d="M-0.2,-8.13 L 0.2 -8.13 0.2 8.13 -0.2 8.13 z" class="primitive"/>
              </g>
              <g transform="translate(53.91,85.28)" id="img-88ed14c2-107">
                <path d="M-0.2,-3.05 L 0.2 -3.05 0.2 3.05 -0.2 3.05 z" class="primitive"/>
              </g>
              <g transform="translate(54.26,81.21)" id="img-88ed14c2-108">
                <path d="M-0.2,-7.12 L 0.2 -7.12 0.2 7.12 -0.2 7.12 z" class="primitive"/>
              </g>
              <g transform="translate(54.6,83.24)" id="img-88ed14c2-109">
                <path d="M-0.2,-5.08 L 0.2 -5.08 0.2 5.08 -0.2 5.08 z" class="primitive"/>
              </g>
              <g transform="translate(54.95,87.31)" id="img-88ed14c2-110">
                <path d="M-0.2,-1.02 L 0.2 -1.02 0.2 1.02 -0.2 1.02 z" class="primitive"/>
              </g>
              <g transform="translate(55.29,85.28)" id="img-88ed14c2-111">
                <path d="M-0.2,-3.05 L 0.2 -3.05 0.2 3.05 -0.2 3.05 z" class="primitive"/>
              </g>
              <g transform="translate(55.64,85.28)" id="img-88ed14c2-112">
                <path d="M-0.2,-3.05 L 0.2 -3.05 0.2 3.05 -0.2 3.05 z" class="primitive"/>
              </g>
              <g transform="translate(55.98,85.28)" id="img-88ed14c2-113">
                <path d="M-0.2,-3.05 L 0.2 -3.05 0.2 3.05 -0.2 3.05 z" class="primitive"/>
              </g>
              <g transform="translate(56.33,87.31)" id="img-88ed14c2-114">
                <path d="M-0.2,-1.02 L 0.2 -1.02 0.2 1.02 -0.2 1.02 z" class="primitive"/>
              </g>
              <g transform="translate(56.68,88.33)" id="img-88ed14c2-115">
                <path d="M-0.2,-0 L 0.2 -0 0.2 0 -0.2 0 z" class="primitive"/>
              </g>
              <g transform="translate(57.02,87.31)" id="img-88ed14c2-116">
                <path d="M-0.2,-1.02 L 0.2 -1.02 0.2 1.02 -0.2 1.02 z" class="primitive"/>
              </g>
              <g transform="translate(57.37,86.29)" id="img-88ed14c2-117">
                <path d="M-0.2,-2.03 L 0.2 -2.03 0.2 2.03 -0.2 2.03 z" class="primitive"/>
              </g>
              <g transform="translate(57.71,87.31)" id="img-88ed14c2-118">
                <path d="M-0.2,-1.02 L 0.2 -1.02 0.2 1.02 -0.2 1.02 z" class="primitive"/>
              </g>
              <g transform="translate(58.06,86.29)" id="img-88ed14c2-119">
                <path d="M-0.2,-2.03 L 0.2 -2.03 0.2 2.03 -0.2 2.03 z" class="primitive"/>
              </g>
              <g transform="translate(58.41,88.33)" id="img-88ed14c2-120">
                <path d="M-0.2,-0 L 0.2 -0 0.2 0 -0.2 0 z" class="primitive"/>
              </g>
              <g transform="translate(58.75,88.33)" id="img-88ed14c2-121">
                <path d="M-0.2,-0 L 0.2 -0 0.2 0 -0.2 0 z" class="primitive"/>
              </g>
              <g transform="translate(59.1,87.31)" id="img-88ed14c2-122">
                <path d="M-0.2,-1.02 L 0.2 -1.02 0.2 1.02 -0.2 1.02 z" class="primitive"/>
              </g>
              <g transform="translate(59.44,88.33)" id="img-88ed14c2-123">
                <path d="M-0.2,-0 L 0.2 -0 0.2 0 -0.2 0 z" class="primitive"/>
              </g>
              <g transform="translate(59.79,88.33)" id="img-88ed14c2-124">
                <path d="M-0.2,-0 L 0.2 -0 0.2 0 -0.2 0 z" class="primitive"/>
              </g>
              <g transform="translate(60.13,88.33)" id="img-88ed14c2-125">
                <path d="M-0.2,-0 L 0.2 -0 0.2 0 -0.2 0 z" class="primitive"/>
              </g>
              <g transform="translate(60.48,88.33)" id="img-88ed14c2-126">
                <path d="M-0.2,-0 L 0.2 -0 0.2 0 -0.2 0 z" class="primitive"/>
              </g>
              <g transform="translate(60.83,88.33)" id="img-88ed14c2-127">
                <path d="M-0.2,-0 L 0.2 -0 0.2 0 -0.2 0 z" class="primitive"/>
              </g>
              <g transform="translate(61.17,87.31)" id="img-88ed14c2-128">
                <path d="M-0.2,-1.02 L 0.2 -1.02 0.2 1.02 -0.2 1.02 z" class="primitive"/>
              </g>
              <g transform="translate(61.52,88.33)" id="img-88ed14c2-129">
                <path d="M-0.2,-0 L 0.2 -0 0.2 0 -0.2 0 z" class="primitive"/>
              </g>
              <g transform="translate(61.86,86.29)" id="img-88ed14c2-130">
                <path d="M-0.2,-2.03 L 0.2 -2.03 0.2 2.03 -0.2 2.03 z" class="primitive"/>
              </g>
            </g>
          </g>
        </g>
      </g>
    </g>
  </g>
  <g class="guide ylabels" font-size="2.82" font-family="'PT Sans Caption','Helvetica Neue','Helvetica',sans-serif" fill="#6C606B" id="img-88ed14c2-131">
    <g transform="translate(16.96,88.33)" id="img-88ed14c2-132">
      <g class="primitive">
        <text text-anchor="end" dy="0.35em">0</text>
      </g>
    </g>
    <g transform="translate(16.96,68)" id="img-88ed14c2-133">
      <g class="primitive">
        <text text-anchor="end" dy="0.35em">10</text>
      </g>
    </g>
    <g transform="translate(16.96,47.66)" id="img-88ed14c2-134">
      <g class="primitive">
        <text text-anchor="end" dy="0.35em">20</text>
      </g>
    </g>
    <g transform="translate(16.96,27.33)" id="img-88ed14c2-135">
      <g class="primitive">
        <text text-anchor="end" dy="0.35em">30</text>
      </g>
    </g>
    <g transform="translate(16.96,7)" id="img-88ed14c2-136">
      <g class="primitive">
        <text text-anchor="end" dy="0.35em">40</text>
      </g>
    </g>
  </g>
  <g font-size="3.88" font-family="'PT Sans','Helvetica Neue','Helvetica',sans-serif" fill="#564A55" stroke="#000000" stroke-opacity="0.000" id="img-88ed14c2-137">
    <g transform="translate(8.81,45.66)" id="img-88ed14c2-138">
      <g class="primitive">
        <text text-anchor="middle" dy="0.35em" transform="rotate(-90,0, 2)">frequency</text>
      </g>
    </g>
  </g>
</g>
<defs>
  <clipPath id="img-88ed14c2-11">
    <path d="M17.96,5 L 69.19 5 69.19 90.33 17.96 90.33" />
  </clipPath>
</defs>
</svg>
