<?xml version="1.0" encoding="UTF-8"?>
<svg xmlns="http://www.w3.org/2000/svg"
     xmlns:xlink="http://www.w3.org/1999/xlink"
     xmlns:gadfly="http://www.gadflyjl.org/ns"
     version="1.2"
     width="141.42mm" height="100mm" viewBox="0 0 141.42 100"
     stroke="none"
     fill="#000000"
     stroke-width="0.3"
     font-size="3.88"
>
<defs>
  <marker id="arrow" markerWidth="15" markerHeight="7" refX="5" refY="3.5" orient="auto" markerUnits="strokeWidth">
    <path d="M0,0 L15,3.5 L0,7 z" stroke="context-stroke" fill="context-stroke"/>
  </marker>
</defs>
<g class="plotroot xscalable yscalable" id="img-77de7bb3-1">
  <g class="guide xlabels" font-size="2.82" font-family="'PT Sans Caption','Helvetica Neue','Helvetica',sans-serif" fill="#6C606B" id="img-77de7bb3-2">
    <g transform="translate(19.96,91.33)">
      <g class="primitive">
        <text text-anchor="middle" dy="0.6em">6.0</text>
      </g>
    </g>
    <g transform="translate(33.29,91.33)">
      <g class="primitive">
        <text text-anchor="middle" dy="0.6em">6.5</text>
      </g>
    </g>
    <g transform="translate(46.61,91.33)">
      <g class="primitive">
        <text text-anchor="middle" dy="0.6em">7.0</text>
      </g>
    </g>
    <g transform="translate(59.94,91.33)">
      <g class="primitive">
        <text text-anchor="middle" dy="0.6em">7.5</text>
      </g>
    </g>
    <g transform="translate(73.27,91.33)">
      <g class="primitive">
        <text text-anchor="middle" dy="0.6em">8.0</text>
      </g>
    </g>
  </g>
  <g class="guide colorkey" id="img-77de7bb3-3">
    <g class="color_noncoding_noncoding_coding_noncoding_4-tail" id="img-77de7bb3-4">
      <g fill="#4C404B" font-size="2.82" font-family="'PT Sans','Helvetica Neue','Helvetica',sans-serif" id="img-77de7bb3-5">
        <g transform="translate(79.08,49.48)" id="img-77de7bb3-6">
          <g class="primitive">
            <text dy="0.35em">noncoding_noncoding_coding_noncoding_4-tail</text>
          </g>
        </g>
      </g>
      <g fill-opacity="1" fill="#00BFFF" stroke="#FFFFFF" id="img-77de7bb3-7">
        <g transform="translate(77.17,49.48)" id="img-77de7bb3-8">
          <path d="M-0.91,-0.91 L 0.91 -0.91 0.91 0.91 -0.91 0.91 z" class="primitive"/>
        </g>
      </g>
    </g>
    <g fill="#362A35" font-size="3.88" font-family="'PT Sans','Helvetica Neue','Helvetica',sans-serif" stroke="#000000" stroke-opacity="0.000" id="img-77de7bb3-9">
      <g transform="translate(76.27,45.66)" id="img-77de7bb3-10">
        <g class="primitive">
          <text dy="-0em">graphlet</text>
        </g>
      </g>
    </g>
  </g>
  <g clip-path="url(#img-77de7bb3-11)">
    <g id="img-77de7bb3-12">
      <g pointer-events="visible" stroke-width="0.3" fill="#000000" fill-opacity="0.000" stroke="#000000" stroke-opacity="0.000" class="guide background" id="img-77de7bb3-13">
        <g transform="translate(46.61,47.66)" id="img-77de7bb3-14">
          <path d="M-28.65,-42.66 L 28.65 -42.66 28.65 42.66 -28.65 42.66 z" class="primitive"/>
        </g>
      </g>
      <g class="guide ygridlines xfixed" stroke-dasharray="0.5,0.5" stroke-width="0.2" stroke="#D0D0E0" id="img-77de7bb3-15">
        <g transform="translate(46.61,88.33)" id="img-77de7bb3-16">
          <path fill="none" d="M-28.65,0 L 28.65 0" class="primitive"/>
        </g>
        <g transform="translate(46.61,68)" id="img-77de7bb3-17">
          <path fill="none" d="M-28.65,0 L 28.65 0" class="primitive"/>
        </g>
        <g transform="translate(46.61,47.66)" id="img-77de7bb3-18">
          <path fill="none" d="M-28.65,0 L 28.65 0" class="primitive"/>
        </g>
        <g transform="translate(46.61,27.33)" id="img-77de7bb3-19">
          <path fill="none" d="M-28.65,0 L 28.65 0" class="primitive"/>
        </g>
        <g transform="translate(46.61,7)" id="img-77de7bb3-20">
          <path fill="none" d="M-28.65,0 L 28.65 0" class="primitive"/>
        </g>
      </g>
      <g class="guide xgridlines yfixed" stroke-dasharray="0.5,0.5" stroke-width="0.2" stroke="#D0D0E0" id="img-77de7bb3-21">
        <g transform="translate(19.96,47.66)" id="img-77de7bb3-22">
          <path fill="none" d="M0,-42.66 L 0 42.66" class="primitive"/>
        </g>
        <g transform="translate(33.29,47.66)" id="img-77de7bb3-23">
          <path fill="none" d="M0,-42.66 L 0 42.66" class="primitive"/>
        </g>
        <g transform="translate(46.61,47.66)" id="img-77de7bb3-24">
          <path fill="none" d="M0,-42.66 L 0 42.66" class="primitive"/>
        </g>
        <g transform="translate(59.94,47.66)" id="img-77de7bb3-25">
          <path fill="none" d="M0,-42.66 L 0 42.66" class="primitive"/>
        </g>
        <g transform="translate(73.27,47.66)" id="img-77de7bb3-26">
          <path fill="none" d="M0,-42.66 L 0 42.66" class="primitive"/>
        </g>
      </g>
      <g class="plotpanel" id="img-77de7bb3-27">
        <metadata>
          <boundingbox value="17.958333333333336mm 5.0mm 57.30968957064284mm 85.32666666666667mm"/>
          <unitbox value="5.924966736212196 40.98368718747438 2.1500665275756083 -41.96737437494876"/>
        </metadata>
        <g shape-rendering="crispEdges" stroke-width="0.3" id="img-77de7bb3-28">
          <g stroke="#000000" stroke-opacity="0.000" class="geometry" id="img-77de7bb3-29">
            <g fill="#00BFFF" id="img-77de7bb3-30">
              <g transform="translate(22.21,86.29)" id="img-77de7bb3-31">
                <path d="M-0.27,-2.03 L 0.27 -2.03 0.27 2.03 -0.27 2.03 z" class="primitive"/>
              </g>
              <g transform="translate(22.69,87.31)" id="img-77de7bb3-32">
                <path d="M-0.27,-1.02 L 0.27 -1.02 0.27 1.02 -0.27 1.02 z" class="primitive"/>
              </g>
              <g transform="translate(23.17,87.31)" id="img-77de7bb3-33">
                <path d="M-0.27,-1.02 L 0.27 -1.02 0.27 1.02 -0.27 1.02 z" class="primitive"/>
              </g>
              <g transform="translate(23.65,86.29)" id="img-77de7bb3-34">
                <path d="M-0.27,-2.03 L 0.27 -2.03 0.27 2.03 -0.27 2.03 z" class="primitive"/>
              </g>
              <g transform="translate(24.14,88.33)" id="img-77de7bb3-35">
                <path d="M-0.27,-0 L 0.27 -0 0.27 0 -0.27 0 z" class="primitive"/>
              </g>
              <g transform="translate(24.62,86.29)" id="img-77de7bb3-36">
                <path d="M-0.27,-2.03 L 0.27 -2.03 0.27 2.03 -0.27 2.03 z" class="primitive"/>
              </g>
              <g transform="translate(25.1,86.29)" id="img-77de7bb3-37">
                <path d="M-0.27,-2.03 L 0.27 -2.03 0.27 2.03 -0.27 2.03 z" class="primitive"/>
              </g>
              <g transform="translate(25.58,87.31)" id="img-77de7bb3-38">
                <path d="M-0.27,-1.02 L 0.27 -1.02 0.27 1.02 -0.27 1.02 z" class="primitive"/>
              </g>
              <g transform="translate(26.06,87.31)" id="img-77de7bb3-39">
                <path d="M-0.27,-1.02 L 0.27 -1.02 0.27 1.02 -0.27 1.02 z" class="primitive"/>
              </g>
              <g transform="translate(26.55,84.26)" id="img-77de7bb3-40">
                <path d="M-0.27,-4.07 L 0.27 -4.07 0.27 4.07 -0.27 4.07 z" class="primitive"/>
              </g>
              <g transform="translate(27.03,87.31)" id="img-77de7bb3-41">
                <path d="M-0.27,-1.02 L 0.27 -1.02 0.27 1.02 -0.27 1.02 z" class="primitive"/>
              </g>
              <g transform="translate(27.51,87.31)" id="img-77de7bb3-42">
                <path d="M-0.27,-1.02 L 0.27 -1.02 0.27 1.02 -0.27 1.02 z" class="primitive"/>
              </g>
              <g transform="translate(27.99,85.28)" id="img-77de7bb3-43">
                <path d="M-0.27,-3.05 L 0.27 -3.05 0.27 3.05 -0.27 3.05 z" class="primitive"/>
              </g>
              <g transform="translate(28.47,84.26)" id="img-77de7bb3-44">
                <path d="M-0.27,-4.07 L 0.27 -4.07 0.27 4.07 -0.27 4.07 z" class="primitive"/>
              </g>
              <g transform="translate(28.95,83.24)" id="img-77de7bb3-45">
                <path d="M-0.27,-5.08 L 0.27 -5.08 0.27 5.08 -0.27 5.08 z" class="primitive"/>
              </g>
              <g transform="translate(29.44,84.26)" id="img-77de7bb3-46">
                <path d="M-0.27,-4.07 L 0.27 -4.07 0.27 4.07 -0.27 4.07 z" class="primitive"/>
              </g>
              <g transform="translate(29.92,80.19)" id="img-77de7bb3-47">
                <path d="M-0.27,-8.13 L 0.27 -8.13 0.27 8.13 -0.27 8.13 z" class="primitive"/>
              </g>
              <g transform="translate(30.4,80.19)" id="img-77de7bb3-48">
                <path d="M-0.27,-8.13 L 0.27 -8.13 0.27 8.13 -0.27 8.13 z" class="primitive"/>
              </g>
              <g transform="translate(30.88,83.24)" id="img-77de7bb3-49">
                <path d="M-0.27,-5.08 L 0.27 -5.08 0.27 5.08 -0.27 5.08 z" class="primitive"/>
              </g>
              <g transform="translate(31.36,86.29)" id="img-77de7bb3-50">
                <path d="M-0.27,-2.03 L 0.27 -2.03 0.27 2.03 -0.27 2.03 z" class="primitive"/>
              </g>
              <g transform="translate(31.85,80.19)" id="img-77de7bb3-51">
                <path d="M-0.27,-8.13 L 0.27 -8.13 0.27 8.13 -0.27 8.13 z" class="primitive"/>
              </g>
              <g transform="translate(32.33,83.24)" id="img-77de7bb3-52">
                <path d="M-0.27,-5.08 L 0.27 -5.08 0.27 5.08 -0.27 5.08 z" class="primitive"/>
              </g>
              <g transform="translate(32.81,83.24)" id="img-77de7bb3-53">
                <path d="M-0.27,-5.08 L 0.27 -5.08 0.27 5.08 -0.27 5.08 z" class="primitive"/>
              </g>
              <g transform="translate(33.29,80.19)" id="img-77de7bb3-54">
                <path d="M-0.27,-8.13 L 0.27 -8.13 0.27 8.13 -0.27 8.13 z" class="primitive"/>
              </g>
              <g transform="translate(33.77,75.11)" id="img-77de7bb3-55">
                <path d="M-0.27,-13.22 L 0.27 -13.22 0.27 13.22 -0.27 13.22 z" class="primitive"/>
              </g>
              <g transform="translate(34.26,74.09)" id="img-77de7bb3-56">
                <path d="M-0.27,-14.23 L 0.27 -14.23 0.27 14.23 -0.27 14.23 z" class="primitive"/>
              </g>
              <g transform="translate(34.74,77.14)" id="img-77de7bb3-57">
                <path d="M-0.27,-11.18 L 0.27 -11.18 0.27 11.18 -0.27 11.18 z" class="primitive"/>
              </g>
              <g transform="translate(35.22,80.19)" id="img-77de7bb3-58">
                <path d="M-0.27,-8.13 L 0.27 -8.13 0.27 8.13 -0.27 8.13 z" class="primitive"/>
              </g>
              <g transform="translate(35.7,78.16)" id="img-77de7bb3-59">
                <path d="M-0.27,-10.17 L 0.27 -10.17 0.27 10.17 -0.27 10.17 z" class="primitive"/>
              </g>
              <g transform="translate(36.18,69.01)" id="img-77de7bb3-60">
                <path d="M-0.27,-19.32 L 0.27 -19.32 0.27 19.32 -0.27 19.32 z" class="primitive"/>
              </g>
              <g transform="translate(36.67,69.01)" id="img-77de7bb3-61">
                <path d="M-0.27,-19.32 L 0.27 -19.32 0.27 19.32 -0.27 19.32 z" class="primitive"/>
              </g>
              <g transform="translate(37.15,70.03)" id="img-77de7bb3-62">
                <path d="M-0.27,-18.3 L 0.27 -18.3 0.27 18.3 -0.27 18.3 z" class="primitive"/>
              </g>
              <g transform="translate(37.63,73.08)" id="img-77de7bb3-63">
                <path d="M-0.27,-15.25 L 0.27 -15.25 0.27 15.25 -0.27 15.25 z" class="primitive"/>
              </g>
              <g transform="translate(38.11,76.13)" id="img-77de7bb3-64">
                <path d="M-0.27,-12.2 L 0.27 -12.2 0.27 12.2 -0.27 12.2 z" class="primitive"/>
              </g>
              <g transform="translate(38.59,65.96)" id="img-77de7bb3-65">
                <path d="M-0.27,-22.36 L 0.27 -22.36 0.27 22.36 -0.27 22.36 z" class="primitive"/>
              </g>
              <g transform="translate(39.08,65.96)" id="img-77de7bb3-66">
                <path d="M-0.27,-22.36 L 0.27 -22.36 0.27 22.36 -0.27 22.36 z" class="primitive"/>
              </g>
              <g transform="translate(39.56,76.13)" id="img-77de7bb3-67">
                <path d="M-0.27,-12.2 L 0.27 -12.2 0.27 12.2 -0.27 12.2 z" class="primitive"/>
              </g>
              <g transform="translate(40.04,75.11)" id="img-77de7bb3-68">
                <path d="M-0.27,-13.22 L 0.27 -13.22 0.27 13.22 -0.27 13.22 z" class="primitive"/>
              </g>
              <g transform="translate(40.52,68)" id="img-77de7bb3-69">
                <path d="M-0.27,-20.33 L 0.27 -20.33 0.27 20.33 -0.27 20.33 z" class="primitive"/>
              </g>
              <g transform="translate(41,64.95)" id="img-77de7bb3-70">
                <path d="M-0.27,-23.38 L 0.27 -23.38 0.27 23.38 -0.27 23.38 z" class="primitive"/>
              </g>
              <g transform="translate(41.49,53.76)" id="img-77de7bb3-71">
                <path d="M-0.27,-34.56 L 0.27 -34.56 0.27 34.56 -0.27 34.56 z" class="primitive"/>
              </g>
              <g transform="translate(41.97,68)" id="img-77de7bb3-72">
                <path d="M-0.27,-20.33 L 0.27 -20.33 0.27 20.33 -0.27 20.33 z" class="primitive"/>
              </g>
              <g transform="translate(42.45,71.04)" id="img-77de7bb3-73">
                <path d="M-0.27,-17.28 L 0.27 -17.28 0.27 17.28 -0.27 17.28 z" class="primitive"/>
              </g>
              <g transform="translate(42.93,63.93)" id="img-77de7bb3-74">
                <path d="M-0.27,-24.4 L 0.27 -24.4 0.27 24.4 -0.27 24.4 z" class="primitive"/>
              </g>
              <g transform="translate(43.41,63.93)" id="img-77de7bb3-75">
                <path d="M-0.27,-24.4 L 0.27 -24.4 0.27 24.4 -0.27 24.4 z" class="primitive"/>
              </g>
              <g transform="translate(43.9,66.98)" id="img-77de7bb3-76">
                <path d="M-0.27,-21.35 L 0.27 -21.35 0.27 21.35 -0.27 21.35 z" class="primitive"/>
              </g>
              <g transform="translate(44.38,58.85)" id="img-77de7bb3-77">
                <path d="M-0.27,-29.48 L 0.27 -29.48 0.27 29.48 -0.27 29.48 z" class="primitive"/>
              </g>
              <g transform="translate(44.86,56.81)" id="img-77de7bb3-78">
                <path d="M-0.27,-31.51 L 0.27 -31.51 0.27 31.51 -0.27 31.51 z" class="primitive"/>
              </g>
              <g transform="translate(45.34,62.91)" id="img-77de7bb3-79">
                <path d="M-0.27,-25.41 L 0.27 -25.41 0.27 25.41 -0.27 25.41 z" class="primitive"/>
              </g>
              <g transform="translate(45.82,69.01)" id="img-77de7bb3-80">
                <path d="M-0.27,-19.32 L 0.27 -19.32 0.27 19.32 -0.27 19.32 z" class="primitive"/>
              </g>
              <g transform="translate(46.3,65.96)" id="img-77de7bb3-81">
                <path d="M-0.27,-22.36 L 0.27 -22.36 0.27 22.36 -0.27 22.36 z" class="primitive"/>
              </g>
              <g transform="translate(46.79,57.83)" id="img-77de7bb3-82">
                <path d="M-0.27,-30.5 L 0.27 -30.5 0.27 30.5 -0.27 30.5 z" class="primitive"/>
              </g>
              <g transform="translate(47.27,60.88)" id="img-77de7bb3-83">
                <path d="M-0.27,-27.45 L 0.27 -27.45 0.27 27.45 -0.27 27.45 z" class="primitive"/>
              </g>
              <g transform="translate(47.75,71.04)" id="img-77de7bb3-84">
                <path d="M-0.27,-17.28 L 0.27 -17.28 0.27 17.28 -0.27 17.28 z" class="primitive"/>
              </g>
              <g transform="translate(48.23,54.78)" id="img-77de7bb3-85">
                <path d="M-0.27,-33.55 L 0.27 -33.55 0.27 33.55 -0.27 33.55 z" class="primitive"/>
              </g>
              <g transform="translate(48.71,59.86)" id="img-77de7bb3-86">
                <path d="M-0.27,-28.46 L 0.27 -28.46 0.27 28.46 -0.27 28.46 z" class="primitive"/>
              </g>
              <g transform="translate(49.2,63.93)" id="img-77de7bb3-87">
                <path d="M-0.27,-24.4 L 0.27 -24.4 0.27 24.4 -0.27 24.4 z" class="primitive"/>
              </g>
              <g transform="translate(49.68,65.96)" id="img-77de7bb3-88">
                <path d="M-0.27,-22.36 L 0.27 -22.36 0.27 22.36 -0.27 22.36 z" class="primitive"/>
              </g>
              <g transform="translate(50.16,66.98)" id="img-77de7bb3-89">
                <path d="M-0.27,-21.35 L 0.27 -21.35 0.27 21.35 -0.27 21.35 z" class="primitive"/>
              </g>
              <g transform="translate(50.64,70.03)" id="img-77de7bb3-90">
                <path d="M-0.27,-18.3 L 0.27 -18.3 0.27 18.3 -0.27 18.3 z" class="primitive"/>
              </g>
              <g transform="translate(51.12,73.08)" id="img-77de7bb3-91">
                <path d="M-0.27,-15.25 L 0.27 -15.25 0.27 15.25 -0.27 15.25 z" class="primitive"/>
              </g>
              <g transform="translate(51.61,71.04)" id="img-77de7bb3-92">
                <path d="M-0.27,-17.28 L 0.27 -17.28 0.27 17.28 -0.27 17.28 z" class="primitive"/>
              </g>
              <g transform="translate(52.09,79.18)" id="img-77de7bb3-93">
                <path d="M-0.27,-9.15 L 0.27 -9.15 0.27 9.15 -0.27 9.15 z" class="primitive"/>
              </g>
              <g transform="translate(52.57,73.08)" id="img-77de7bb3-94">
                <path d="M-0.27,-15.25 L 0.27 -15.25 0.27 15.25 -0.27 15.25 z" class="primitive"/>
              </g>
              <g transform="translate(53.05,79.18)" id="img-77de7bb3-95">
                <path d="M-0.27,-9.15 L 0.27 -9.15 0.27 9.15 -0.27 9.15 z" class="primitive"/>
              </g>
              <g transform="translate(53.53,71.04)" id="img-77de7bb3-96">
                <path d="M-0.27,-17.28 L 0.27 -17.28 0.27 17.28 -0.27 17.28 z" class="primitive"/>
              </g>
              <g transform="translate(54.02,73.08)" id="img-77de7bb3-97">
                <path d="M-0.27,-15.25 L 0.27 -15.25 0.27 15.25 -0.27 15.25 z" class="primitive"/>
              </g>
              <g transform="translate(54.5,78.16)" id="img-77de7bb3-98">
                <path d="M-0.27,-10.17 L 0.27 -10.17 0.27 10.17 -0.27 10.17 z" class="primitive"/>
              </g>
              <g transform="translate(54.98,81.21)" id="img-77de7bb3-99">
                <path d="M-0.27,-7.12 L 0.27 -7.12 0.27 7.12 -0.27 7.12 z" class="primitive"/>
              </g>
              <g transform="translate(55.46,82.23)" id="img-77de7bb3-100">
                <path d="M-0.27,-6.1 L 0.27 -6.1 0.27 6.1 -0.27 6.1 z" class="primitive"/>
              </g>
              <g transform="translate(55.94,75.11)" id="img-77de7bb3-101">
                <path d="M-0.27,-13.22 L 0.27 -13.22 0.27 13.22 -0.27 13.22 z" class="primitive"/>
              </g>
              <g transform="translate(56.43,82.23)" id="img-77de7bb3-102">
                <path d="M-0.27,-6.1 L 0.27 -6.1 0.27 6.1 -0.27 6.1 z" class="primitive"/>
              </g>
              <g transform="translate(56.91,85.28)" id="img-77de7bb3-103">
                <path d="M-0.27,-3.05 L 0.27 -3.05 0.27 3.05 -0.27 3.05 z" class="primitive"/>
              </g>
              <g transform="translate(57.39,83.24)" id="img-77de7bb3-104">
                <path d="M-0.27,-5.08 L 0.27 -5.08 0.27 5.08 -0.27 5.08 z" class="primitive"/>
              </g>
              <g transform="translate(57.87,84.26)" id="img-77de7bb3-105">
                <path d="M-0.27,-4.07 L 0.27 -4.07 0.27 4.07 -0.27 4.07 z" class="primitive"/>
              </g>
              <g transform="translate(58.35,85.28)" id="img-77de7bb3-106">
                <path d="M-0.27,-3.05 L 0.27 -3.05 0.27 3.05 -0.27 3.05 z" class="primitive"/>
              </g>
              <g transform="translate(58.84,86.29)" id="img-77de7bb3-107">
                <path d="M-0.27,-2.03 L 0.27 -2.03 0.27 2.03 -0.27 2.03 z" class="primitive"/>
              </g>
              <g transform="translate(59.32,81.21)" id="img-77de7bb3-108">
                <path d="M-0.27,-7.12 L 0.27 -7.12 0.27 7.12 -0.27 7.12 z" class="primitive"/>
              </g>
              <g transform="translate(59.8,84.26)" id="img-77de7bb3-109">
                <path d="M-0.27,-4.07 L 0.27 -4.07 0.27 4.07 -0.27 4.07 z" class="primitive"/>
              </g>
              <g transform="translate(60.28,88.33)" id="img-77de7bb3-110">
                <path d="M-0.27,-0 L 0.27 -0 0.27 0 -0.27 0 z" class="primitive"/>
              </g>
              <g transform="translate(60.76,88.33)" id="img-77de7bb3-111">
                <path d="M-0.27,-0 L 0.27 -0 0.27 0 -0.27 0 z" class="primitive"/>
              </g>
              <g transform="translate(61.25,86.29)" id="img-77de7bb3-112">
                <path d="M-0.27,-2.03 L 0.27 -2.03 0.27 2.03 -0.27 2.03 z" class="primitive"/>
              </g>
              <g transform="translate(61.73,87.31)" id="img-77de7bb3-113">
                <path d="M-0.27,-1.02 L 0.27 -1.02 0.27 1.02 -0.27 1.02 z" class="primitive"/>
              </g>
              <g transform="translate(62.21,86.29)" id="img-77de7bb3-114">
                <path d="M-0.27,-2.03 L 0.27 -2.03 0.27 2.03 -0.27 2.03 z" class="primitive"/>
              </g>
              <g transform="translate(62.69,87.31)" id="img-77de7bb3-115">
                <path d="M-0.27,-1.02 L 0.27 -1.02 0.27 1.02 -0.27 1.02 z" class="primitive"/>
              </g>
              <g transform="translate(63.17,88.33)" id="img-77de7bb3-116">
                <path d="M-0.27,-0 L 0.27 -0 0.27 0 -0.27 0 z" class="primitive"/>
              </g>
              <g transform="translate(63.66,86.29)" id="img-77de7bb3-117">
                <path d="M-0.27,-2.03 L 0.27 -2.03 0.27 2.03 -0.27 2.03 z" class="primitive"/>
              </g>
              <g transform="translate(64.14,88.33)" id="img-77de7bb3-118">
                <path d="M-0.27,-0 L 0.27 -0 0.27 0 -0.27 0 z" class="primitive"/>
              </g>
              <g transform="translate(64.62,87.31)" id="img-77de7bb3-119">
                <path d="M-0.27,-1.02 L 0.27 -1.02 0.27 1.02 -0.27 1.02 z" class="primitive"/>
              </g>
              <g transform="translate(65.1,88.33)" id="img-77de7bb3-120">
                <path d="M-0.27,-0 L 0.27 -0 0.27 0 -0.27 0 z" class="primitive"/>
              </g>
              <g transform="translate(65.58,86.29)" id="img-77de7bb3-121">
                <path d="M-0.27,-2.03 L 0.27 -2.03 0.27 2.03 -0.27 2.03 z" class="primitive"/>
              </g>
              <g transform="translate(66.06,88.33)" id="img-77de7bb3-122">
                <path d="M-0.27,-0 L 0.27 -0 0.27 0 -0.27 0 z" class="primitive"/>
              </g>
              <g transform="translate(66.55,88.33)" id="img-77de7bb3-123">
                <path d="M-0.27,-0 L 0.27 -0 0.27 0 -0.27 0 z" class="primitive"/>
              </g>
              <g transform="translate(67.03,88.33)" id="img-77de7bb3-124">
                <path d="M-0.27,-0 L 0.27 -0 0.27 0 -0.27 0 z" class="primitive"/>
              </g>
              <g transform="translate(67.51,88.33)" id="img-77de7bb3-125">
                <path d="M-0.27,-0 L 0.27 -0 0.27 0 -0.27 0 z" class="primitive"/>
              </g>
              <g transform="translate(67.99,87.31)" id="img-77de7bb3-126">
                <path d="M-0.27,-1.02 L 0.27 -1.02 0.27 1.02 -0.27 1.02 z" class="primitive"/>
              </g>
              <g transform="translate(68.47,88.33)" id="img-77de7bb3-127">
                <path d="M-0.27,-0 L 0.27 -0 0.27 0 -0.27 0 z" class="primitive"/>
              </g>
              <g transform="translate(68.96,88.33)" id="img-77de7bb3-128">
                <path d="M-0.27,-0 L 0.27 -0 0.27 0 -0.27 0 z" class="primitive"/>
              </g>
              <g transform="translate(69.44,88.33)" id="img-77de7bb3-129">
                <path d="M-0.27,-0 L 0.27 -0 0.27 0 -0.27 0 z" class="primitive"/>
              </g>
              <g transform="translate(69.92,87.31)" id="img-77de7bb3-130">
                <path d="M-0.27,-1.02 L 0.27 -1.02 0.27 1.02 -0.27 1.02 z" class="primitive"/>
              </g>
            </g>
          </g>
        </g>
      </g>
    </g>
  </g>
  <g class="guide ylabels" font-size="2.82" font-family="'PT Sans Caption','Helvetica Neue','Helvetica',sans-serif" fill="#6C606B" id="img-77de7bb3-131">
    <g transform="translate(16.96,88.33)" id="img-77de7bb3-132">
      <g class="primitive">
        <text text-anchor="end" dy="0.35em">0</text>
      </g>
    </g>
    <g transform="translate(16.96,68)" id="img-77de7bb3-133">
      <g class="primitive">
        <text text-anchor="end" dy="0.35em">10</text>
      </g>
    </g>
    <g transform="translate(16.96,47.66)" id="img-77de7bb3-134">
      <g class="primitive">
        <text text-anchor="end" dy="0.35em">20</text>
      </g>
    </g>
    <g transform="translate(16.96,27.33)" id="img-77de7bb3-135">
      <g class="primitive">
        <text text-anchor="end" dy="0.35em">30</text>
      </g>
    </g>
    <g transform="translate(16.96,7)" id="img-77de7bb3-136">
      <g class="primitive">
        <text text-anchor="end" dy="0.35em">40</text>
      </g>
    </g>
  </g>
  <g font-size="3.88" font-family="'PT Sans','Helvetica Neue','Helvetica',sans-serif" fill="#564A55" stroke="#000000" stroke-opacity="0.000" id="img-77de7bb3-137">
    <g transform="translate(8.81,45.66)" id="img-77de7bb3-138">
      <g class="primitive">
        <text text-anchor="middle" dy="0.35em" transform="rotate(-90,0, 2)">frequency</text>
      </g>
    </g>
  </g>
</g>
<defs>
  <clipPath id="img-77de7bb3-11">
    <path d="M17.96,5 L 75.27 5 75.27 90.33 17.96 90.33" />
  </clipPath>
</defs>
</svg>
