<?xml version="1.0" encoding="UTF-8"?>
<svg xmlns="http://www.w3.org/2000/svg"
     xmlns:xlink="http://www.w3.org/1999/xlink"
     xmlns:gadfly="http://www.gadflyjl.org/ns"
     version="1.2"
     width="141.42mm" height="100mm" viewBox="0 0 141.42 100"
     stroke="none"
     fill="#000000"
     stroke-width="0.3"
     font-size="3.88"
>
<defs>
  <marker id="arrow" markerWidth="15" markerHeight="7" refX="5" refY="3.5" orient="auto" markerUnits="strokeWidth">
    <path d="M0,0 L15,3.5 L0,7 z" stroke="context-stroke" fill="context-stroke"/>
  </marker>
</defs>
<g class="plotroot xscalable yscalable" id="img-d9fedaad-1">
  <g font-size="3.88" font-family="'PT Sans','Helvetica Neue','Helvetica',sans-serif" fill="#564A55" stroke="#000000" stroke-opacity="0.000" id="img-d9fedaad-2">
    <g transform="translate(73.38,88.39)">
      <g class="primitive">
        <text text-anchor="middle" dy="0.6em">degree</text>
      </g>
    </g>
  </g>
  <g class="guide xlabels" font-size="2.82" font-family="'PT Sans Caption','Helvetica Neue','Helvetica',sans-serif" fill="#6C606B" id="img-d9fedaad-3">
    <g transform="translate(12.35,81.72)">
      <g class="primitive">
        <text text-anchor="middle" dy="0.6em">0</text>
      </g>
    </g>
    <g transform="translate(42.87,81.72)">
      <g class="primitive">
        <text text-anchor="middle" dy="0.6em">10</text>
      </g>
    </g>
    <g transform="translate(73.38,81.72)">
      <g class="primitive">
        <text text-anchor="middle" dy="0.6em">20</text>
      </g>
    </g>
    <g transform="translate(103.9,81.72)">
      <g class="primitive">
        <text text-anchor="middle" dy="0.6em">30</text>
      </g>
    </g>
    <g transform="translate(134.42,81.72)">
      <g class="primitive">
        <text text-anchor="middle" dy="0.6em">40</text>
      </g>
    </g>
  </g>
  <g clip-path="url(#img-d9fedaad-4)">
    <g id="img-d9fedaad-5">
      <g pointer-events="visible" stroke-width="0.3" fill="#000000" fill-opacity="0.000" stroke="#000000" stroke-opacity="0.000" class="guide background" id="img-d9fedaad-6">
        <g transform="translate(73.38,45.66)" id="img-d9fedaad-7">
          <path d="M-63.04,-35.05 L 63.04 -35.05 63.04 35.05 -63.04 35.05 z" class="primitive"/>
        </g>
      </g>
      <g class="guide ygridlines xfixed" stroke-dasharray="0.5,0.5" stroke-width="0.2" stroke="#D0D0E0" id="img-d9fedaad-8">
        <g transform="translate(73.38,78.72)" id="img-d9fedaad-9">
          <path fill="none" d="M-63.04,0 L 63.04 0" class="primitive"/>
        </g>
        <g transform="translate(73.38,67.7)" id="img-d9fedaad-10">
          <path fill="none" d="M-63.04,0 L 63.04 0" class="primitive"/>
        </g>
        <g transform="translate(73.38,56.68)" id="img-d9fedaad-11">
          <path fill="none" d="M-63.04,0 L 63.04 0" class="primitive"/>
        </g>
        <g transform="translate(73.38,45.66)" id="img-d9fedaad-12">
          <path fill="none" d="M-63.04,0 L 63.04 0" class="primitive"/>
        </g>
        <g transform="translate(73.38,34.65)" id="img-d9fedaad-13">
          <path fill="none" d="M-63.04,0 L 63.04 0" class="primitive"/>
        </g>
        <g transform="translate(73.38,23.63)" id="img-d9fedaad-14">
          <path fill="none" d="M-63.04,0 L 63.04 0" class="primitive"/>
        </g>
        <g transform="translate(73.38,12.61)" id="img-d9fedaad-15">
          <path fill="none" d="M-63.04,0 L 63.04 0" class="primitive"/>
        </g>
      </g>
      <g class="guide xgridlines yfixed" stroke-dasharray="0.5,0.5" stroke-width="0.2" stroke="#D0D0E0" id="img-d9fedaad-16">
        <g transform="translate(12.35,45.66)" id="img-d9fedaad-17">
          <path fill="none" d="M0,-35.05 L 0 35.05" class="primitive"/>
        </g>
        <g transform="translate(42.87,45.66)" id="img-d9fedaad-18">
          <path fill="none" d="M0,-35.05 L 0 35.05" class="primitive"/>
        </g>
        <g transform="translate(73.38,45.66)" id="img-d9fedaad-19">
          <path fill="none" d="M0,-35.05 L 0 35.05" class="primitive"/>
        </g>
        <g transform="translate(103.9,45.66)" id="img-d9fedaad-20">
          <path fill="none" d="M0,-35.05 L 0 35.05" class="primitive"/>
        </g>
        <g transform="translate(134.42,45.66)" id="img-d9fedaad-21">
          <path fill="none" d="M0,-35.05 L 0 35.05" class="primitive"/>
        </g>
      </g>
      <g class="plotpanel" id="img-d9fedaad-22">
        <metadata>
          <boundingbox value="10.346666666666664mm 10.611666666666665mm 126.07468957064285mm 70.10333333333334mm"/>
          <unitbox value="-0.6553365016235013 61.8153396197872 41.310673003247004 -63.6306792395744"/>
        </metadata>
        <g shape-rendering="crispEdges" stroke-width="0.3" id="img-d9fedaad-23">
          <g class="geometry" fill-opacity="1" stroke="#000000" stroke-opacity="0.000" fill="#00BFFF" id="img-d9fedaad-24">
            <g transform="translate(16.92,49.52)" id="img-d9fedaad-25">
              <path d="M-1.55,-29.2 L 1.55 -29.2 1.55 29.2 -1.55 29.2 z" class="primitive"/>
            </g>
            <g transform="translate(19.98,50.07)" id="img-d9fedaad-26">
              <path d="M-1.55,-28.64 L 1.55 -28.64 1.55 28.64 -1.55 28.64 z" class="primitive"/>
            </g>
            <g transform="translate(23.03,46.21)" id="img-d9fedaad-27">
              <path d="M-1.55,-32.5 L 1.55 -32.5 1.55 32.5 -1.55 32.5 z" class="primitive"/>
            </g>
            <g transform="translate(26.08,46.77)" id="img-d9fedaad-28">
              <path d="M-1.55,-31.95 L 1.55 -31.95 1.55 31.95 -1.55 31.95 z" class="primitive"/>
            </g>
            <g transform="translate(29.13,53.38)" id="img-d9fedaad-29">
              <path d="M-1.55,-25.34 L 1.55 -25.34 1.55 25.34 -1.55 25.34 z" class="primitive"/>
            </g>
            <g transform="translate(32.18,55.03)" id="img-d9fedaad-30">
              <path d="M-1.55,-23.69 L 1.55 -23.69 1.55 23.69 -1.55 23.69 z" class="primitive"/>
            </g>
            <g transform="translate(35.24,62.19)" id="img-d9fedaad-31">
              <path d="M-1.55,-16.53 L 1.55 -16.53 1.55 16.53 -1.55 16.53 z" class="primitive"/>
            </g>
            <g transform="translate(38.29,59.99)" id="img-d9fedaad-32">
              <path d="M-1.55,-18.73 L 1.55 -18.73 1.55 18.73 -1.55 18.73 z" class="primitive"/>
            </g>
            <g transform="translate(41.34,60.54)" id="img-d9fedaad-33">
              <path d="M-1.55,-18.18 L 1.55 -18.18 1.55 18.18 -1.55 18.18 z" class="primitive"/>
            </g>
            <g transform="translate(44.39,68.25)" id="img-d9fedaad-34">
              <path d="M-1.55,-10.47 L 1.55 -10.47 1.55 10.47 -1.55 10.47 z" class="primitive"/>
            </g>
            <g transform="translate(47.44,56.68)" id="img-d9fedaad-35">
              <path d="M-1.55,-22.03 L 1.55 -22.03 1.55 22.03 -1.55 22.03 z" class="primitive"/>
            </g>
            <g transform="translate(50.5,69.35)" id="img-d9fedaad-36">
              <path d="M-1.55,-9.36 L 1.55 -9.36 1.55 9.36 -1.55 9.36 z" class="primitive"/>
            </g>
            <g transform="translate(53.55,64.94)" id="img-d9fedaad-37">
              <path d="M-1.55,-13.77 L 1.55 -13.77 1.55 13.77 -1.55 13.77 z" class="primitive"/>
            </g>
            <g transform="translate(56.6,69.9)" id="img-d9fedaad-38">
              <path d="M-1.55,-8.81 L 1.55 -8.81 1.55 8.81 -1.55 8.81 z" class="primitive"/>
            </g>
            <g transform="translate(59.65,60.54)" id="img-d9fedaad-39">
              <path d="M-1.55,-18.18 L 1.55 -18.18 1.55 18.18 -1.55 18.18 z" class="primitive"/>
            </g>
            <g transform="translate(62.7,63.84)" id="img-d9fedaad-40">
              <path d="M-1.55,-14.87 L 1.55 -14.87 1.55 14.87 -1.55 14.87 z" class="primitive"/>
            </g>
            <g transform="translate(65.75,67.15)" id="img-d9fedaad-41">
              <path d="M-1.55,-11.57 L 1.55 -11.57 1.55 11.57 -1.55 11.57 z" class="primitive"/>
            </g>
            <g transform="translate(68.81,67.7)" id="img-d9fedaad-42">
              <path d="M-1.55,-11.02 L 1.55 -11.02 1.55 11.02 -1.55 11.02 z" class="primitive"/>
            </g>
            <g transform="translate(71.86,70.45)" id="img-d9fedaad-43">
              <path d="M-1.55,-8.26 L 1.55 -8.26 1.55 8.26 -1.55 8.26 z" class="primitive"/>
            </g>
            <g transform="translate(74.91,71.55)" id="img-d9fedaad-44">
              <path d="M-1.55,-7.16 L 1.55 -7.16 1.55 7.16 -1.55 7.16 z" class="primitive"/>
            </g>
            <g transform="translate(77.96,71)" id="img-d9fedaad-45">
              <path d="M-1.55,-7.71 L 1.55 -7.71 1.55 7.71 -1.55 7.71 z" class="primitive"/>
            </g>
            <g transform="translate(81.01,73.21)" id="img-d9fedaad-46">
              <path d="M-1.55,-5.51 L 1.55 -5.51 1.55 5.51 -1.55 5.51 z" class="primitive"/>
            </g>
            <g transform="translate(84.07,74.31)" id="img-d9fedaad-47">
              <path d="M-1.55,-4.41 L 1.55 -4.41 1.55 4.41 -1.55 4.41 z" class="primitive"/>
            </g>
            <g transform="translate(87.12,71.55)" id="img-d9fedaad-48">
              <path d="M-1.55,-7.16 L 1.55 -7.16 1.55 7.16 -1.55 7.16 z" class="primitive"/>
            </g>
            <g transform="translate(90.17,75.41)" id="img-d9fedaad-49">
              <path d="M-1.55,-3.31 L 1.55 -3.31 1.55 3.31 -1.55 3.31 z" class="primitive"/>
            </g>
            <g transform="translate(93.22,72.66)" id="img-d9fedaad-50">
              <path d="M-1.55,-6.06 L 1.55 -6.06 1.55 6.06 -1.55 6.06 z" class="primitive"/>
            </g>
            <g transform="translate(96.27,76.51)" id="img-d9fedaad-51">
              <path d="M-1.55,-2.2 L 1.55 -2.2 1.55 2.2 -1.55 2.2 z" class="primitive"/>
            </g>
            <g transform="translate(99.32,75.41)" id="img-d9fedaad-52">
              <path d="M-1.55,-3.31 L 1.55 -3.31 1.55 3.31 -1.55 3.31 z" class="primitive"/>
            </g>
            <g transform="translate(102.38,75.41)" id="img-d9fedaad-53">
              <path d="M-1.55,-3.31 L 1.55 -3.31 1.55 3.31 -1.55 3.31 z" class="primitive"/>
            </g>
            <g transform="translate(105.43,78.72)" id="img-d9fedaad-54">
              <path d="M-1.55,-0 L 1.55 -0 1.55 0 -1.55 0 z" class="primitive"/>
            </g>
            <g transform="translate(108.48,78.72)" id="img-d9fedaad-55">
              <path d="M-1.55,-0 L 1.55 -0 1.55 0 -1.55 0 z" class="primitive"/>
            </g>
            <g transform="translate(111.53,78.72)" id="img-d9fedaad-56">
              <path d="M-1.55,-0 L 1.55 -0 1.55 0 -1.55 0 z" class="primitive"/>
            </g>
            <g transform="translate(114.58,78.72)" id="img-d9fedaad-57">
              <path d="M-1.55,-0 L 1.55 -0 1.55 0 -1.55 0 z" class="primitive"/>
            </g>
            <g transform="translate(117.64,78.16)" id="img-d9fedaad-58">
              <path d="M-1.55,-0.55 L 1.55 -0.55 1.55 0.55 -1.55 0.55 z" class="primitive"/>
            </g>
          </g>
        </g>
      </g>
    </g>
  </g>
  <g class="guide ylabels" font-size="2.82" font-family="'PT Sans Caption','Helvetica Neue','Helvetica',sans-serif" fill="#6C606B" id="img-d9fedaad-59">
    <g transform="translate(9.35,78.72)" id="img-d9fedaad-60">
      <g class="primitive">
        <text text-anchor="end" dy="0.35em">0</text>
      </g>
    </g>
    <g transform="translate(9.35,67.7)" id="img-d9fedaad-61">
      <g class="primitive">
        <text text-anchor="end" dy="0.35em">10</text>
      </g>
    </g>
    <g transform="translate(9.35,56.68)" id="img-d9fedaad-62">
      <g class="primitive">
        <text text-anchor="end" dy="0.35em">20</text>
      </g>
    </g>
    <g transform="translate(9.35,45.66)" id="img-d9fedaad-63">
      <g class="primitive">
        <text text-anchor="end" dy="0.35em">30</text>
      </g>
    </g>
    <g transform="translate(9.35,34.65)" id="img-d9fedaad-64">
      <g class="primitive">
        <text text-anchor="end" dy="0.35em">40</text>
      </g>
    </g>
    <g transform="translate(9.35,23.63)" id="img-d9fedaad-65">
      <g class="primitive">
        <text text-anchor="end" dy="0.35em">50</text>
      </g>
    </g>
    <g transform="translate(9.35,12.61)" id="img-d9fedaad-66">
      <g class="primitive">
        <text text-anchor="end" dy="0.35em">60</text>
      </g>
    </g>
  </g>
  <g font-size="3.88" font-family="'PT Sans','Helvetica Neue','Helvetica',sans-serif" fill="#564A55" stroke="#000000" stroke-opacity="0.000" id="img-d9fedaad-67">
    <g transform="translate(73.38,5)" id="img-d9fedaad-68">
      <g class="primitive">
        <text text-anchor="middle" dy="0.6em">Degree distribution</text>
      </g>
    </g>
  </g>
</g>
<defs>
  <clipPath id="img-d9fedaad-4">
    <path d="M10.35,10.61 L 136.42 10.61 136.42 80.72 10.35 80.72" />
  </clipPath>
</defs>
</svg>
