<?xml version="1.0" encoding="UTF-8"?>
<svg xmlns="http://www.w3.org/2000/svg"
     xmlns:xlink="http://www.w3.org/1999/xlink"
     xmlns:gadfly="http://www.gadflyjl.org/ns"
     version="1.2"
     width="141.42mm" height="100mm" viewBox="0 0 141.42 100"
     stroke="none"
     fill="#000000"
     stroke-width="0.3"
     font-size="3.88"
>
<defs>
  <marker id="arrow" markerWidth="15" markerHeight="7" refX="5" refY="3.5" orient="auto" markerUnits="strokeWidth">
    <path d="M0,0 L15,3.5 L0,7 z" stroke="context-stroke" fill="context-stroke"/>
  </marker>
</defs>
<g class="plotroot xscalable yscalable" id="img-9bf480a6-1">
  <g class="guide xlabels" font-size="2.82" font-family="'PT Sans Caption','Helvetica Neue','Helvetica',sans-serif" fill="#6C606B" id="img-9bf480a6-2">
    <g transform="translate(18.28,91.33)">
      <g class="primitive">
        <text text-anchor="middle" dy="0.6em">17.2</text>
      </g>
    </g>
    <g transform="translate(28.5,91.33)">
      <g class="primitive">
        <text text-anchor="middle" dy="0.6em">17.3</text>
      </g>
    </g>
    <g transform="translate(38.72,91.33)">
      <g class="primitive">
        <text text-anchor="middle" dy="0.6em">17.4</text>
      </g>
    </g>
    <g transform="translate(48.94,91.33)">
      <g class="primitive">
        <text text-anchor="middle" dy="0.6em">17.5</text>
      </g>
    </g>
    <g transform="translate(59.15,91.33)">
      <g class="primitive">
        <text text-anchor="middle" dy="0.6em">17.6</text>
      </g>
    </g>
    <g transform="translate(69.37,91.33)">
      <g class="primitive">
        <text text-anchor="middle" dy="0.6em">17.7</text>
      </g>
    </g>
    <g transform="translate(79.59,91.33)">
      <g class="primitive">
        <text text-anchor="middle" dy="0.6em">17.8</text>
      </g>
    </g>
  </g>
  <g class="guide colorkey" id="img-9bf480a6-3">
    <g class="color_coding_coding_coding_noncoding_4-chord" id="img-9bf480a6-4">
      <g fill="#4C404B" font-size="2.82" font-family="'PT Sans','Helvetica Neue','Helvetica',sans-serif" id="img-9bf480a6-5">
        <g transform="translate(85.4,49.48)" id="img-9bf480a6-6">
          <g class="primitive">
            <text dy="0.35em">coding_coding_coding_noncoding_4-chord</text>
          </g>
        </g>
      </g>
      <g fill-opacity="1" fill="#00BFFF" stroke="#FFFFFF" id="img-9bf480a6-7">
        <g transform="translate(83.49,49.48)" id="img-9bf480a6-8">
          <path d="M-0.91,-0.91 L 0.91 -0.91 0.91 0.91 -0.91 0.91 z" class="primitive"/>
        </g>
      </g>
    </g>
    <g fill="#362A35" font-size="3.88" font-family="'PT Sans','Helvetica Neue','Helvetica',sans-serif" stroke="#000000" stroke-opacity="0.000" id="img-9bf480a6-9">
      <g transform="translate(82.59,45.66)" id="img-9bf480a6-10">
        <g class="primitive">
          <text dy="-0em">graphlet</text>
        </g>
      </g>
    </g>
  </g>
  <g clip-path="url(#img-9bf480a6-11)">
    <g id="img-9bf480a6-12">
      <g pointer-events="visible" stroke-width="0.3" fill="#000000" fill-opacity="0.000" stroke="#000000" stroke-opacity="0.000" class="guide background" id="img-9bf480a6-13">
        <g transform="translate(48.94,47.66)" id="img-9bf480a6-14">
          <path d="M-32.65,-42.66 L 32.65 -42.66 32.65 42.66 -32.65 42.66 z" class="primitive"/>
        </g>
      </g>
      <g class="guide ygridlines xfixed" stroke-dasharray="0.5,0.5" stroke-width="0.2" stroke="#D0D0E0" id="img-9bf480a6-15">
        <g transform="translate(48.94,88.33)" id="img-9bf480a6-16">
          <path fill="none" d="M-32.65,0 L 32.65 0" class="primitive"/>
        </g>
        <g transform="translate(48.94,72.06)" id="img-9bf480a6-17">
          <path fill="none" d="M-32.65,0 L 32.65 0" class="primitive"/>
        </g>
        <g transform="translate(48.94,55.8)" id="img-9bf480a6-18">
          <path fill="none" d="M-32.65,0 L 32.65 0" class="primitive"/>
        </g>
        <g transform="translate(48.94,39.53)" id="img-9bf480a6-19">
          <path fill="none" d="M-32.65,0 L 32.65 0" class="primitive"/>
        </g>
        <g transform="translate(48.94,23.27)" id="img-9bf480a6-20">
          <path fill="none" d="M-32.65,0 L 32.65 0" class="primitive"/>
        </g>
        <g transform="translate(48.94,7)" id="img-9bf480a6-21">
          <path fill="none" d="M-32.65,0 L 32.65 0" class="primitive"/>
        </g>
      </g>
      <g class="guide xgridlines yfixed" stroke-dasharray="0.5,0.5" stroke-width="0.2" stroke="#D0D0E0" id="img-9bf480a6-22">
        <g transform="translate(18.28,47.66)" id="img-9bf480a6-23">
          <path fill="none" d="M0,-42.66 L 0 42.66" class="primitive"/>
        </g>
        <g transform="translate(28.5,47.66)" id="img-9bf480a6-24">
          <path fill="none" d="M0,-42.66 L 0 42.66" class="primitive"/>
        </g>
        <g transform="translate(38.72,47.66)" id="img-9bf480a6-25">
          <path fill="none" d="M0,-42.66 L 0 42.66" class="primitive"/>
        </g>
        <g transform="translate(48.94,47.66)" id="img-9bf480a6-26">
          <path fill="none" d="M0,-42.66 L 0 42.66" class="primitive"/>
        </g>
        <g transform="translate(59.15,47.66)" id="img-9bf480a6-27">
          <path fill="none" d="M0,-42.66 L 0 42.66" class="primitive"/>
        </g>
        <g transform="translate(69.37,47.66)" id="img-9bf480a6-28">
          <path fill="none" d="M0,-42.66 L 0 42.66" class="primitive"/>
        </g>
        <g transform="translate(79.59,47.66)" id="img-9bf480a6-29">
          <path fill="none" d="M0,-42.66 L 0 42.66" class="primitive"/>
        </g>
      </g>
      <g class="plotpanel" id="img-9bf480a6-30">
        <metadata>
          <boundingbox value="16.284999999999997mm 5.0mm 65.30302290397618mm 85.32666666666667mm"/>
          <unitbox value="17.18042510885834 5.122960898434298 0.6391497822833208 -5.245921796868595"/>
        </metadata>
        <g shape-rendering="crispEdges" stroke-width="0.3" id="img-9bf480a6-31">
          <g stroke="#000000" stroke-opacity="0.000" class="geometry" id="img-9bf480a6-32">
            <g fill="#00BFFF" id="img-9bf480a6-33">
              <g transform="translate(25.78,72.06)" id="img-9bf480a6-34">
                <path d="M-0.25,-16.27 L 0.25 -16.27 0.25 16.27 -0.25 16.27 z" class="primitive"/>
              </g>
              <g transform="translate(26.23,88.33)" id="img-9bf480a6-35">
                <path d="M-0.25,-0 L 0.25 -0 0.25 0 -0.25 0 z" class="primitive"/>
              </g>
              <g transform="translate(26.68,80.19)" id="img-9bf480a6-36">
                <path d="M-0.25,-8.13 L 0.25 -8.13 0.25 8.13 -0.25 8.13 z" class="primitive"/>
              </g>
              <g transform="translate(27.13,80.19)" id="img-9bf480a6-37">
                <path d="M-0.25,-8.13 L 0.25 -8.13 0.25 8.13 -0.25 8.13 z" class="primitive"/>
              </g>
              <g transform="translate(27.58,88.33)" id="img-9bf480a6-38">
                <path d="M-0.25,-0 L 0.25 -0 0.25 0 -0.25 0 z" class="primitive"/>
              </g>
              <g transform="translate(28.03,88.33)" id="img-9bf480a6-39">
                <path d="M-0.25,-0 L 0.25 -0 0.25 0 -0.25 0 z" class="primitive"/>
              </g>
              <g transform="translate(28.48,88.33)" id="img-9bf480a6-40">
                <path d="M-0.25,-0 L 0.25 -0 0.25 0 -0.25 0 z" class="primitive"/>
              </g>
              <g transform="translate(28.92,88.33)" id="img-9bf480a6-41">
                <path d="M-0.25,-0 L 0.25 -0 0.25 0 -0.25 0 z" class="primitive"/>
              </g>
              <g transform="translate(29.37,88.33)" id="img-9bf480a6-42">
                <path d="M-0.25,-0 L 0.25 -0 0.25 0 -0.25 0 z" class="primitive"/>
              </g>
              <g transform="translate(29.82,88.33)" id="img-9bf480a6-43">
                <path d="M-0.25,-0 L 0.25 -0 0.25 0 -0.25 0 z" class="primitive"/>
              </g>
              <g transform="translate(30.27,88.33)" id="img-9bf480a6-44">
                <path d="M-0.25,-0 L 0.25 -0 0.25 0 -0.25 0 z" class="primitive"/>
              </g>
              <g transform="translate(30.72,88.33)" id="img-9bf480a6-45">
                <path d="M-0.25,-0 L 0.25 -0 0.25 0 -0.25 0 z" class="primitive"/>
              </g>
              <g transform="translate(31.17,80.19)" id="img-9bf480a6-46">
                <path d="M-0.25,-8.13 L 0.25 -8.13 0.25 8.13 -0.25 8.13 z" class="primitive"/>
              </g>
              <g transform="translate(31.61,88.33)" id="img-9bf480a6-47">
                <path d="M-0.25,-0 L 0.25 -0 0.25 0 -0.25 0 z" class="primitive"/>
              </g>
              <g transform="translate(32.06,80.19)" id="img-9bf480a6-48">
                <path d="M-0.25,-8.13 L 0.25 -8.13 0.25 8.13 -0.25 8.13 z" class="primitive"/>
              </g>
              <g transform="translate(32.51,88.33)" id="img-9bf480a6-49">
                <path d="M-0.25,-0 L 0.25 -0 0.25 0 -0.25 0 z" class="primitive"/>
              </g>
              <g transform="translate(32.96,88.33)" id="img-9bf480a6-50">
                <path d="M-0.25,-0 L 0.25 -0 0.25 0 -0.25 0 z" class="primitive"/>
              </g>
              <g transform="translate(33.41,88.33)" id="img-9bf480a6-51">
                <path d="M-0.25,-0 L 0.25 -0 0.25 0 -0.25 0 z" class="primitive"/>
              </g>
              <g transform="translate(33.86,80.19)" id="img-9bf480a6-52">
                <path d="M-0.25,-8.13 L 0.25 -8.13 0.25 8.13 -0.25 8.13 z" class="primitive"/>
              </g>
              <g transform="translate(34.31,72.06)" id="img-9bf480a6-53">
                <path d="M-0.25,-16.27 L 0.25 -16.27 0.25 16.27 -0.25 16.27 z" class="primitive"/>
              </g>
              <g transform="translate(34.75,63.93)" id="img-9bf480a6-54">
                <path d="M-0.25,-24.4 L 0.25 -24.4 0.25 24.4 -0.25 24.4 z" class="primitive"/>
              </g>
              <g transform="translate(35.2,88.33)" id="img-9bf480a6-55">
                <path d="M-0.25,-0 L 0.25 -0 0.25 0 -0.25 0 z" class="primitive"/>
              </g>
              <g transform="translate(35.65,80.19)" id="img-9bf480a6-56">
                <path d="M-0.25,-8.13 L 0.25 -8.13 0.25 8.13 -0.25 8.13 z" class="primitive"/>
              </g>
              <g transform="translate(36.1,88.33)" id="img-9bf480a6-57">
                <path d="M-0.25,-0 L 0.25 -0 0.25 0 -0.25 0 z" class="primitive"/>
              </g>
              <g transform="translate(36.55,80.19)" id="img-9bf480a6-58">
                <path d="M-0.25,-8.13 L 0.25 -8.13 0.25 8.13 -0.25 8.13 z" class="primitive"/>
              </g>
              <g transform="translate(37,80.19)" id="img-9bf480a6-59">
                <path d="M-0.25,-8.13 L 0.25 -8.13 0.25 8.13 -0.25 8.13 z" class="primitive"/>
              </g>
              <g transform="translate(37.45,88.33)" id="img-9bf480a6-60">
                <path d="M-0.25,-0 L 0.25 -0 0.25 0 -0.25 0 z" class="primitive"/>
              </g>
              <g transform="translate(37.89,88.33)" id="img-9bf480a6-61">
                <path d="M-0.25,-0 L 0.25 -0 0.25 0 -0.25 0 z" class="primitive"/>
              </g>
              <g transform="translate(38.34,80.19)" id="img-9bf480a6-62">
                <path d="M-0.25,-8.13 L 0.25 -8.13 0.25 8.13 -0.25 8.13 z" class="primitive"/>
              </g>
              <g transform="translate(38.79,72.06)" id="img-9bf480a6-63">
                <path d="M-0.25,-16.27 L 0.25 -16.27 0.25 16.27 -0.25 16.27 z" class="primitive"/>
              </g>
              <g transform="translate(39.24,88.33)" id="img-9bf480a6-64">
                <path d="M-0.25,-0 L 0.25 -0 0.25 0 -0.25 0 z" class="primitive"/>
              </g>
              <g transform="translate(39.69,88.33)" id="img-9bf480a6-65">
                <path d="M-0.25,-0 L 0.25 -0 0.25 0 -0.25 0 z" class="primitive"/>
              </g>
              <g transform="translate(40.14,72.06)" id="img-9bf480a6-66">
                <path d="M-0.25,-16.27 L 0.25 -16.27 0.25 16.27 -0.25 16.27 z" class="primitive"/>
              </g>
              <g transform="translate(40.59,72.06)" id="img-9bf480a6-67">
                <path d="M-0.25,-16.27 L 0.25 -16.27 0.25 16.27 -0.25 16.27 z" class="primitive"/>
              </g>
              <g transform="translate(41.03,63.93)" id="img-9bf480a6-68">
                <path d="M-0.25,-24.4 L 0.25 -24.4 0.25 24.4 -0.25 24.4 z" class="primitive"/>
              </g>
              <g transform="translate(41.48,63.93)" id="img-9bf480a6-69">
                <path d="M-0.25,-24.4 L 0.25 -24.4 0.25 24.4 -0.25 24.4 z" class="primitive"/>
              </g>
              <g transform="translate(41.93,80.19)" id="img-9bf480a6-70">
                <path d="M-0.25,-8.13 L 0.25 -8.13 0.25 8.13 -0.25 8.13 z" class="primitive"/>
              </g>
              <g transform="translate(42.38,88.33)" id="img-9bf480a6-71">
                <path d="M-0.25,-0 L 0.25 -0 0.25 0 -0.25 0 z" class="primitive"/>
              </g>
              <g transform="translate(42.83,80.19)" id="img-9bf480a6-72">
                <path d="M-0.25,-8.13 L 0.25 -8.13 0.25 8.13 -0.25 8.13 z" class="primitive"/>
              </g>
              <g transform="translate(43.28,80.19)" id="img-9bf480a6-73">
                <path d="M-0.25,-8.13 L 0.25 -8.13 0.25 8.13 -0.25 8.13 z" class="primitive"/>
              </g>
              <g transform="translate(43.72,80.19)" id="img-9bf480a6-74">
                <path d="M-0.25,-8.13 L 0.25 -8.13 0.25 8.13 -0.25 8.13 z" class="primitive"/>
              </g>
              <g transform="translate(44.17,72.06)" id="img-9bf480a6-75">
                <path d="M-0.25,-16.27 L 0.25 -16.27 0.25 16.27 -0.25 16.27 z" class="primitive"/>
              </g>
              <g transform="translate(44.62,88.33)" id="img-9bf480a6-76">
                <path d="M-0.25,-0 L 0.25 -0 0.25 0 -0.25 0 z" class="primitive"/>
              </g>
              <g transform="translate(45.07,63.93)" id="img-9bf480a6-77">
                <path d="M-0.25,-24.4 L 0.25 -24.4 0.25 24.4 -0.25 24.4 z" class="primitive"/>
              </g>
              <g transform="translate(45.52,72.06)" id="img-9bf480a6-78">
                <path d="M-0.25,-16.27 L 0.25 -16.27 0.25 16.27 -0.25 16.27 z" class="primitive"/>
              </g>
              <g transform="translate(45.97,80.19)" id="img-9bf480a6-79">
                <path d="M-0.25,-8.13 L 0.25 -8.13 0.25 8.13 -0.25 8.13 z" class="primitive"/>
              </g>
              <g transform="translate(46.42,63.93)" id="img-9bf480a6-80">
                <path d="M-0.25,-24.4 L 0.25 -24.4 0.25 24.4 -0.25 24.4 z" class="primitive"/>
              </g>
              <g transform="translate(46.86,72.06)" id="img-9bf480a6-81">
                <path d="M-0.25,-16.27 L 0.25 -16.27 0.25 16.27 -0.25 16.27 z" class="primitive"/>
              </g>
              <g transform="translate(47.31,88.33)" id="img-9bf480a6-82">
                <path d="M-0.25,-0 L 0.25 -0 0.25 0 -0.25 0 z" class="primitive"/>
              </g>
              <g transform="translate(47.76,80.19)" id="img-9bf480a6-83">
                <path d="M-0.25,-8.13 L 0.25 -8.13 0.25 8.13 -0.25 8.13 z" class="primitive"/>
              </g>
              <g transform="translate(48.21,80.19)" id="img-9bf480a6-84">
                <path d="M-0.25,-8.13 L 0.25 -8.13 0.25 8.13 -0.25 8.13 z" class="primitive"/>
              </g>
              <g transform="translate(48.66,80.19)" id="img-9bf480a6-85">
                <path d="M-0.25,-8.13 L 0.25 -8.13 0.25 8.13 -0.25 8.13 z" class="primitive"/>
              </g>
              <g transform="translate(49.11,72.06)" id="img-9bf480a6-86">
                <path d="M-0.25,-16.27 L 0.25 -16.27 0.25 16.27 -0.25 16.27 z" class="primitive"/>
              </g>
              <g transform="translate(49.56,72.06)" id="img-9bf480a6-87">
                <path d="M-0.25,-16.27 L 0.25 -16.27 0.25 16.27 -0.25 16.27 z" class="primitive"/>
              </g>
              <g transform="translate(50,63.93)" id="img-9bf480a6-88">
                <path d="M-0.25,-24.4 L 0.25 -24.4 0.25 24.4 -0.25 24.4 z" class="primitive"/>
              </g>
              <g transform="translate(50.45,88.33)" id="img-9bf480a6-89">
                <path d="M-0.25,-0 L 0.25 -0 0.25 0 -0.25 0 z" class="primitive"/>
              </g>
              <g transform="translate(50.9,72.06)" id="img-9bf480a6-90">
                <path d="M-0.25,-16.27 L 0.25 -16.27 0.25 16.27 -0.25 16.27 z" class="primitive"/>
              </g>
              <g transform="translate(51.35,80.19)" id="img-9bf480a6-91">
                <path d="M-0.25,-8.13 L 0.25 -8.13 0.25 8.13 -0.25 8.13 z" class="primitive"/>
              </g>
              <g transform="translate(51.8,88.33)" id="img-9bf480a6-92">
                <path d="M-0.25,-0 L 0.25 -0 0.25 0 -0.25 0 z" class="primitive"/>
              </g>
              <g transform="translate(52.25,80.19)" id="img-9bf480a6-93">
                <path d="M-0.25,-8.13 L 0.25 -8.13 0.25 8.13 -0.25 8.13 z" class="primitive"/>
              </g>
              <g transform="translate(52.7,72.06)" id="img-9bf480a6-94">
                <path d="M-0.25,-16.27 L 0.25 -16.27 0.25 16.27 -0.25 16.27 z" class="primitive"/>
              </g>
              <g transform="translate(53.14,88.33)" id="img-9bf480a6-95">
                <path d="M-0.25,-0 L 0.25 -0 0.25 0 -0.25 0 z" class="primitive"/>
              </g>
              <g transform="translate(53.59,72.06)" id="img-9bf480a6-96">
                <path d="M-0.25,-16.27 L 0.25 -16.27 0.25 16.27 -0.25 16.27 z" class="primitive"/>
              </g>
              <g transform="translate(54.04,88.33)" id="img-9bf480a6-97">
                <path d="M-0.25,-0 L 0.25 -0 0.25 0 -0.25 0 z" class="primitive"/>
              </g>
              <g transform="translate(54.49,47.66)" id="img-9bf480a6-98">
                <path d="M-0.25,-40.66 L 0.25 -40.66 0.25 40.66 -0.25 40.66 z" class="primitive"/>
              </g>
              <g transform="translate(54.94,72.06)" id="img-9bf480a6-99">
                <path d="M-0.25,-16.27 L 0.25 -16.27 0.25 16.27 -0.25 16.27 z" class="primitive"/>
              </g>
              <g transform="translate(55.39,72.06)" id="img-9bf480a6-100">
                <path d="M-0.25,-16.27 L 0.25 -16.27 0.25 16.27 -0.25 16.27 z" class="primitive"/>
              </g>
              <g transform="translate(55.84,63.93)" id="img-9bf480a6-101">
                <path d="M-0.25,-24.4 L 0.25 -24.4 0.25 24.4 -0.25 24.4 z" class="primitive"/>
              </g>
              <g transform="translate(56.28,80.19)" id="img-9bf480a6-102">
                <path d="M-0.25,-8.13 L 0.25 -8.13 0.25 8.13 -0.25 8.13 z" class="primitive"/>
              </g>
              <g transform="translate(56.73,72.06)" id="img-9bf480a6-103">
                <path d="M-0.25,-16.27 L 0.25 -16.27 0.25 16.27 -0.25 16.27 z" class="primitive"/>
              </g>
              <g transform="translate(57.18,80.19)" id="img-9bf480a6-104">
                <path d="M-0.25,-8.13 L 0.25 -8.13 0.25 8.13 -0.25 8.13 z" class="primitive"/>
              </g>
              <g transform="translate(57.63,80.19)" id="img-9bf480a6-105">
                <path d="M-0.25,-8.13 L 0.25 -8.13 0.25 8.13 -0.25 8.13 z" class="primitive"/>
              </g>
              <g transform="translate(58.08,80.19)" id="img-9bf480a6-106">
                <path d="M-0.25,-8.13 L 0.25 -8.13 0.25 8.13 -0.25 8.13 z" class="primitive"/>
              </g>
              <g transform="translate(58.53,63.93)" id="img-9bf480a6-107">
                <path d="M-0.25,-24.4 L 0.25 -24.4 0.25 24.4 -0.25 24.4 z" class="primitive"/>
              </g>
              <g transform="translate(58.97,88.33)" id="img-9bf480a6-108">
                <path d="M-0.25,-0 L 0.25 -0 0.25 0 -0.25 0 z" class="primitive"/>
              </g>
              <g transform="translate(59.42,88.33)" id="img-9bf480a6-109">
                <path d="M-0.25,-0 L 0.25 -0 0.25 0 -0.25 0 z" class="primitive"/>
              </g>
              <g transform="translate(59.87,72.06)" id="img-9bf480a6-110">
                <path d="M-0.25,-16.27 L 0.25 -16.27 0.25 16.27 -0.25 16.27 z" class="primitive"/>
              </g>
              <g transform="translate(60.32,80.19)" id="img-9bf480a6-111">
                <path d="M-0.25,-8.13 L 0.25 -8.13 0.25 8.13 -0.25 8.13 z" class="primitive"/>
              </g>
              <g transform="translate(60.77,88.33)" id="img-9bf480a6-112">
                <path d="M-0.25,-0 L 0.25 -0 0.25 0 -0.25 0 z" class="primitive"/>
              </g>
              <g transform="translate(61.22,55.8)" id="img-9bf480a6-113">
                <path d="M-0.25,-32.53 L 0.25 -32.53 0.25 32.53 -0.25 32.53 z" class="primitive"/>
              </g>
              <g transform="translate(61.67,88.33)" id="img-9bf480a6-114">
                <path d="M-0.25,-0 L 0.25 -0 0.25 0 -0.25 0 z" class="primitive"/>
              </g>
              <g transform="translate(62.11,80.19)" id="img-9bf480a6-115">
                <path d="M-0.25,-8.13 L 0.25 -8.13 0.25 8.13 -0.25 8.13 z" class="primitive"/>
              </g>
              <g transform="translate(62.56,80.19)" id="img-9bf480a6-116">
                <path d="M-0.25,-8.13 L 0.25 -8.13 0.25 8.13 -0.25 8.13 z" class="primitive"/>
              </g>
              <g transform="translate(63.01,80.19)" id="img-9bf480a6-117">
                <path d="M-0.25,-8.13 L 0.25 -8.13 0.25 8.13 -0.25 8.13 z" class="primitive"/>
              </g>
              <g transform="translate(63.46,88.33)" id="img-9bf480a6-118">
                <path d="M-0.25,-0 L 0.25 -0 0.25 0 -0.25 0 z" class="primitive"/>
              </g>
              <g transform="translate(63.91,80.19)" id="img-9bf480a6-119">
                <path d="M-0.25,-8.13 L 0.25 -8.13 0.25 8.13 -0.25 8.13 z" class="primitive"/>
              </g>
              <g transform="translate(64.36,80.19)" id="img-9bf480a6-120">
                <path d="M-0.25,-8.13 L 0.25 -8.13 0.25 8.13 -0.25 8.13 z" class="primitive"/>
              </g>
              <g transform="translate(64.81,88.33)" id="img-9bf480a6-121">
                <path d="M-0.25,-0 L 0.25 -0 0.25 0 -0.25 0 z" class="primitive"/>
              </g>
              <g transform="translate(65.25,80.19)" id="img-9bf480a6-122">
                <path d="M-0.25,-8.13 L 0.25 -8.13 0.25 8.13 -0.25 8.13 z" class="primitive"/>
              </g>
              <g transform="translate(65.7,88.33)" id="img-9bf480a6-123">
                <path d="M-0.25,-0 L 0.25 -0 0.25 0 -0.25 0 z" class="primitive"/>
              </g>
              <g transform="translate(66.15,88.33)" id="img-9bf480a6-124">
                <path d="M-0.25,-0 L 0.25 -0 0.25 0 -0.25 0 z" class="primitive"/>
              </g>
              <g transform="translate(66.6,80.19)" id="img-9bf480a6-125">
                <path d="M-0.25,-8.13 L 0.25 -8.13 0.25 8.13 -0.25 8.13 z" class="primitive"/>
              </g>
              <g transform="translate(67.05,88.33)" id="img-9bf480a6-126">
                <path d="M-0.25,-0 L 0.25 -0 0.25 0 -0.25 0 z" class="primitive"/>
              </g>
              <g transform="translate(67.5,88.33)" id="img-9bf480a6-127">
                <path d="M-0.25,-0 L 0.25 -0 0.25 0 -0.25 0 z" class="primitive"/>
              </g>
              <g transform="translate(67.95,88.33)" id="img-9bf480a6-128">
                <path d="M-0.25,-0 L 0.25 -0 0.25 0 -0.25 0 z" class="primitive"/>
              </g>
              <g transform="translate(68.39,88.33)" id="img-9bf480a6-129">
                <path d="M-0.25,-0 L 0.25 -0 0.25 0 -0.25 0 z" class="primitive"/>
              </g>
              <g transform="translate(68.84,88.33)" id="img-9bf480a6-130">
                <path d="M-0.25,-0 L 0.25 -0 0.25 0 -0.25 0 z" class="primitive"/>
              </g>
              <g transform="translate(69.29,88.33)" id="img-9bf480a6-131">
                <path d="M-0.25,-0 L 0.25 -0 0.25 0 -0.25 0 z" class="primitive"/>
              </g>
              <g transform="translate(69.74,80.19)" id="img-9bf480a6-132">
                <path d="M-0.25,-8.13 L 0.25 -8.13 0.25 8.13 -0.25 8.13 z" class="primitive"/>
              </g>
              <g transform="translate(70.19,80.19)" id="img-9bf480a6-133">
                <path d="M-0.25,-8.13 L 0.25 -8.13 0.25 8.13 -0.25 8.13 z" class="primitive"/>
              </g>
            </g>
          </g>
        </g>
      </g>
    </g>
  </g>
  <g class="guide ylabels" font-size="2.82" font-family="'PT Sans Caption','Helvetica Neue','Helvetica',sans-serif" fill="#6C606B" id="img-9bf480a6-134">
    <g transform="translate(15.28,88.33)" id="img-9bf480a6-135">
      <g class="primitive">
        <text text-anchor="end" dy="0.35em">0</text>
      </g>
    </g>
    <g transform="translate(15.28,72.06)" id="img-9bf480a6-136">
      <g class="primitive">
        <text text-anchor="end" dy="0.35em">1</text>
      </g>
    </g>
    <g transform="translate(15.28,55.8)" id="img-9bf480a6-137">
      <g class="primitive">
        <text text-anchor="end" dy="0.35em">2</text>
      </g>
    </g>
    <g transform="translate(15.28,39.53)" id="img-9bf480a6-138">
      <g class="primitive">
        <text text-anchor="end" dy="0.35em">3</text>
      </g>
    </g>
    <g transform="translate(15.28,23.27)" id="img-9bf480a6-139">
      <g class="primitive">
        <text text-anchor="end" dy="0.35em">4</text>
      </g>
    </g>
    <g transform="translate(15.28,7)" id="img-9bf480a6-140">
      <g class="primitive">
        <text text-anchor="end" dy="0.35em">5</text>
      </g>
    </g>
  </g>
  <g font-size="3.88" font-family="'PT Sans','Helvetica Neue','Helvetica',sans-serif" fill="#564A55" stroke="#000000" stroke-opacity="0.000" id="img-9bf480a6-141">
    <g transform="translate(8.81,45.66)" id="img-9bf480a6-142">
      <g class="primitive">
        <text text-anchor="middle" dy="0.35em" transform="rotate(-90,0, 2)">frequency</text>
      </g>
    </g>
  </g>
</g>
<defs>
  <clipPath id="img-9bf480a6-11">
    <path d="M16.28,5 L 81.59 5 81.59 90.33 16.28 90.33" />
  </clipPath>
</defs>
</svg>
