<?xml version="1.0" encoding="UTF-8"?>
<svg xmlns="http://www.w3.org/2000/svg"
     xmlns:xlink="http://www.w3.org/1999/xlink"
     xmlns:gadfly="http://www.gadflyjl.org/ns"
     version="1.2"
     width="141.42mm" height="100mm" viewBox="0 0 141.42 100"
     stroke="none"
     fill="#000000"
     stroke-width="0.3"
     font-size="3.88"
>
<defs>
  <marker id="arrow" markerWidth="15" markerHeight="7" refX="5" refY="3.5" orient="auto" markerUnits="strokeWidth">
    <path d="M0,0 L15,3.5 L0,7 z" stroke="context-stroke" fill="context-stroke"/>
  </marker>
</defs>
<g class="plotroot xscalable yscalable" id="img-d722be4a-1">
  <g class="guide xlabels" font-size="2.82" font-family="'PT Sans Caption','Helvetica Neue','Helvetica',sans-serif" fill="#6C606B" id="img-d722be4a-2">
    <g transform="translate(18.28,91.33)">
      <g class="primitive">
        <text text-anchor="middle" dy="0.6em">14.00</text>
      </g>
    </g>
    <g transform="translate(32.67,91.33)">
      <g class="primitive">
        <text text-anchor="middle" dy="0.6em">14.05</text>
      </g>
    </g>
    <g transform="translate(47.06,91.33)">
      <g class="primitive">
        <text text-anchor="middle" dy="0.6em">14.10</text>
      </g>
    </g>
    <g transform="translate(61.45,91.33)">
      <g class="primitive">
        <text text-anchor="middle" dy="0.6em">14.15</text>
      </g>
    </g>
    <g transform="translate(75.84,91.33)">
      <g class="primitive">
        <text text-anchor="middle" dy="0.6em">14.20</text>
      </g>
    </g>
    <g transform="translate(90.23,91.33)">
      <g class="primitive">
        <text text-anchor="middle" dy="0.6em">14.25</text>
      </g>
    </g>
  </g>
  <g class="guide colorkey" id="img-d722be4a-3">
    <g class="color_coding_coding_noncoding_3-path" id="img-d722be4a-4">
      <g fill="#4C404B" font-size="2.82" font-family="'PT Sans','Helvetica Neue','Helvetica',sans-serif" id="img-d722be4a-5">
        <g transform="translate(96.05,49.48)" id="img-d722be4a-6">
          <g class="primitive">
            <text dy="0.35em">coding_coding_noncoding_3-path</text>
          </g>
        </g>
      </g>
      <g fill-opacity="1" fill="#00BFFF" stroke="#FFFFFF" id="img-d722be4a-7">
        <g transform="translate(94.14,49.48)" id="img-d722be4a-8">
          <path d="M-0.91,-0.91 L 0.91 -0.91 0.91 0.91 -0.91 0.91 z" class="primitive"/>
        </g>
      </g>
    </g>
    <g fill="#362A35" font-size="3.88" font-family="'PT Sans','Helvetica Neue','Helvetica',sans-serif" stroke="#000000" stroke-opacity="0.000" id="img-d722be4a-9">
      <g transform="translate(93.23,45.66)" id="img-d722be4a-10">
        <g class="primitive">
          <text dy="-0em">graphlet</text>
        </g>
      </g>
    </g>
  </g>
  <g clip-path="url(#img-d722be4a-11)">
    <g id="img-d722be4a-12">
      <g pointer-events="visible" stroke-width="0.3" fill="#000000" fill-opacity="0.000" stroke="#000000" stroke-opacity="0.000" class="guide background" id="img-d722be4a-13">
        <g transform="translate(54.26,47.66)" id="img-d722be4a-14">
          <path d="M-37.97,-42.66 L 37.97 -42.66 37.97 42.66 -37.97 42.66 z" class="primitive"/>
        </g>
      </g>
      <g class="guide ygridlines xfixed" stroke-dasharray="0.5,0.5" stroke-width="0.2" stroke="#D0D0E0" id="img-d722be4a-15">
        <g transform="translate(54.26,88.33)" id="img-d722be4a-16">
          <path fill="none" d="M-37.97,0 L 37.97 0" class="primitive"/>
        </g>
        <g transform="translate(54.26,68)" id="img-d722be4a-17">
          <path fill="none" d="M-37.97,0 L 37.97 0" class="primitive"/>
        </g>
        <g transform="translate(54.26,47.66)" id="img-d722be4a-18">
          <path fill="none" d="M-37.97,0 L 37.97 0" class="primitive"/>
        </g>
        <g transform="translate(54.26,27.33)" id="img-d722be4a-19">
          <path fill="none" d="M-37.97,0 L 37.97 0" class="primitive"/>
        </g>
        <g transform="translate(54.26,7)" id="img-d722be4a-20">
          <path fill="none" d="M-37.97,0 L 37.97 0" class="primitive"/>
        </g>
      </g>
      <g class="guide xgridlines yfixed" stroke-dasharray="0.5,0.5" stroke-width="0.2" stroke="#D0D0E0" id="img-d722be4a-21">
        <g transform="translate(18.28,47.66)" id="img-d722be4a-22">
          <path fill="none" d="M0,-42.66 L 0 42.66" class="primitive"/>
        </g>
        <g transform="translate(32.67,47.66)" id="img-d722be4a-23">
          <path fill="none" d="M0,-42.66 L 0 42.66" class="primitive"/>
        </g>
        <g transform="translate(47.06,47.66)" id="img-d722be4a-24">
          <path fill="none" d="M0,-42.66 L 0 42.66" class="primitive"/>
        </g>
        <g transform="translate(61.45,47.66)" id="img-d722be4a-25">
          <path fill="none" d="M0,-42.66 L 0 42.66" class="primitive"/>
        </g>
        <g transform="translate(75.84,47.66)" id="img-d722be4a-26">
          <path fill="none" d="M0,-42.66 L 0 42.66" class="primitive"/>
        </g>
        <g transform="translate(90.23,47.66)" id="img-d722be4a-27">
          <path fill="none" d="M0,-42.66 L 0 42.66" class="primitive"/>
        </g>
      </g>
      <g class="plotpanel" id="img-d722be4a-28">
        <metadata>
          <boundingbox value="16.284999999999997mm 5.0mm 75.94968957064283mm 85.32666666666667mm"/>
          <unitbox value="13.993050699690524 4.098368718747438 0.2638986006189528 -4.1967374374948765"/>
        </metadata>
        <g shape-rendering="crispEdges" stroke-width="0.3" id="img-d722be4a-29">
          <g stroke="#000000" stroke-opacity="0.000" class="geometry" id="img-d722be4a-30">
            <g fill="#00BFFF" id="img-d722be4a-31">
              <g transform="translate(21.81,78.16)" id="img-d722be4a-32">
                <path d="M-0.35,-10.17 L 0.35 -10.17 0.35 10.17 -0.35 10.17 z" class="primitive"/>
              </g>
              <g transform="translate(22.46,88.33)" id="img-d722be4a-33">
                <path d="M-0.35,-0 L 0.35 -0 0.35 0 -0.35 0 z" class="primitive"/>
              </g>
              <g transform="translate(23.1,68)" id="img-d722be4a-34">
                <path d="M-0.35,-20.33 L 0.35 -20.33 0.35 20.33 -0.35 20.33 z" class="primitive"/>
              </g>
              <g transform="translate(23.75,88.33)" id="img-d722be4a-35">
                <path d="M-0.35,-0 L 0.35 -0 0.35 0 -0.35 0 z" class="primitive"/>
              </g>
              <g transform="translate(24.4,78.16)" id="img-d722be4a-36">
                <path d="M-0.35,-10.17 L 0.35 -10.17 0.35 10.17 -0.35 10.17 z" class="primitive"/>
              </g>
              <g transform="translate(25.04,88.33)" id="img-d722be4a-37">
                <path d="M-0.35,-0 L 0.35 -0 0.35 0 -0.35 0 z" class="primitive"/>
              </g>
              <g transform="translate(25.69,88.33)" id="img-d722be4a-38">
                <path d="M-0.35,-0 L 0.35 -0 0.35 0 -0.35 0 z" class="primitive"/>
              </g>
              <g transform="translate(26.33,88.33)" id="img-d722be4a-39">
                <path d="M-0.35,-0 L 0.35 -0 0.35 0 -0.35 0 z" class="primitive"/>
              </g>
              <g transform="translate(26.98,88.33)" id="img-d722be4a-40">
                <path d="M-0.35,-0 L 0.35 -0 0.35 0 -0.35 0 z" class="primitive"/>
              </g>
              <g transform="translate(27.63,78.16)" id="img-d722be4a-41">
                <path d="M-0.35,-10.17 L 0.35 -10.17 0.35 10.17 -0.35 10.17 z" class="primitive"/>
              </g>
              <g transform="translate(28.27,88.33)" id="img-d722be4a-42">
                <path d="M-0.35,-0 L 0.35 -0 0.35 0 -0.35 0 z" class="primitive"/>
              </g>
              <g transform="translate(28.92,88.33)" id="img-d722be4a-43">
                <path d="M-0.35,-0 L 0.35 -0 0.35 0 -0.35 0 z" class="primitive"/>
              </g>
              <g transform="translate(29.56,88.33)" id="img-d722be4a-44">
                <path d="M-0.35,-0 L 0.35 -0 0.35 0 -0.35 0 z" class="primitive"/>
              </g>
              <g transform="translate(30.21,78.16)" id="img-d722be4a-45">
                <path d="M-0.35,-10.17 L 0.35 -10.17 0.35 10.17 -0.35 10.17 z" class="primitive"/>
              </g>
              <g transform="translate(30.86,88.33)" id="img-d722be4a-46">
                <path d="M-0.35,-0 L 0.35 -0 0.35 0 -0.35 0 z" class="primitive"/>
              </g>
              <g transform="translate(31.5,88.33)" id="img-d722be4a-47">
                <path d="M-0.35,-0 L 0.35 -0 0.35 0 -0.35 0 z" class="primitive"/>
              </g>
              <g transform="translate(32.15,88.33)" id="img-d722be4a-48">
                <path d="M-0.35,-0 L 0.35 -0 0.35 0 -0.35 0 z" class="primitive"/>
              </g>
              <g transform="translate(32.79,88.33)" id="img-d722be4a-49">
                <path d="M-0.35,-0 L 0.35 -0 0.35 0 -0.35 0 z" class="primitive"/>
              </g>
              <g transform="translate(33.44,78.16)" id="img-d722be4a-50">
                <path d="M-0.35,-10.17 L 0.35 -10.17 0.35 10.17 -0.35 10.17 z" class="primitive"/>
              </g>
              <g transform="translate(34.09,88.33)" id="img-d722be4a-51">
                <path d="M-0.35,-0 L 0.35 -0 0.35 0 -0.35 0 z" class="primitive"/>
              </g>
              <g transform="translate(34.73,78.16)" id="img-d722be4a-52">
                <path d="M-0.35,-10.17 L 0.35 -10.17 0.35 10.17 -0.35 10.17 z" class="primitive"/>
              </g>
              <g transform="translate(35.38,78.16)" id="img-d722be4a-53">
                <path d="M-0.35,-10.17 L 0.35 -10.17 0.35 10.17 -0.35 10.17 z" class="primitive"/>
              </g>
              <g transform="translate(36.02,78.16)" id="img-d722be4a-54">
                <path d="M-0.35,-10.17 L 0.35 -10.17 0.35 10.17 -0.35 10.17 z" class="primitive"/>
              </g>
              <g transform="translate(36.67,78.16)" id="img-d722be4a-55">
                <path d="M-0.35,-10.17 L 0.35 -10.17 0.35 10.17 -0.35 10.17 z" class="primitive"/>
              </g>
              <g transform="translate(37.32,88.33)" id="img-d722be4a-56">
                <path d="M-0.35,-0 L 0.35 -0 0.35 0 -0.35 0 z" class="primitive"/>
              </g>
              <g transform="translate(37.96,78.16)" id="img-d722be4a-57">
                <path d="M-0.35,-10.17 L 0.35 -10.17 0.35 10.17 -0.35 10.17 z" class="primitive"/>
              </g>
              <g transform="translate(38.61,78.16)" id="img-d722be4a-58">
                <path d="M-0.35,-10.17 L 0.35 -10.17 0.35 10.17 -0.35 10.17 z" class="primitive"/>
              </g>
              <g transform="translate(39.25,88.33)" id="img-d722be4a-59">
                <path d="M-0.35,-0 L 0.35 -0 0.35 0 -0.35 0 z" class="primitive"/>
              </g>
              <g transform="translate(39.9,68)" id="img-d722be4a-60">
                <path d="M-0.35,-20.33 L 0.35 -20.33 0.35 20.33 -0.35 20.33 z" class="primitive"/>
              </g>
              <g transform="translate(40.55,88.33)" id="img-d722be4a-61">
                <path d="M-0.35,-0 L 0.35 -0 0.35 0 -0.35 0 z" class="primitive"/>
              </g>
              <g transform="translate(41.19,88.33)" id="img-d722be4a-62">
                <path d="M-0.35,-0 L 0.35 -0 0.35 0 -0.35 0 z" class="primitive"/>
              </g>
              <g transform="translate(41.84,57.83)" id="img-d722be4a-63">
                <path d="M-0.35,-30.5 L 0.35 -30.5 0.35 30.5 -0.35 30.5 z" class="primitive"/>
              </g>
              <g transform="translate(42.48,78.16)" id="img-d722be4a-64">
                <path d="M-0.35,-10.17 L 0.35 -10.17 0.35 10.17 -0.35 10.17 z" class="primitive"/>
              </g>
              <g transform="translate(43.13,78.16)" id="img-d722be4a-65">
                <path d="M-0.35,-10.17 L 0.35 -10.17 0.35 10.17 -0.35 10.17 z" class="primitive"/>
              </g>
              <g transform="translate(43.78,78.16)" id="img-d722be4a-66">
                <path d="M-0.35,-10.17 L 0.35 -10.17 0.35 10.17 -0.35 10.17 z" class="primitive"/>
              </g>
              <g transform="translate(44.42,88.33)" id="img-d722be4a-67">
                <path d="M-0.35,-0 L 0.35 -0 0.35 0 -0.35 0 z" class="primitive"/>
              </g>
              <g transform="translate(45.07,68)" id="img-d722be4a-68">
                <path d="M-0.35,-20.33 L 0.35 -20.33 0.35 20.33 -0.35 20.33 z" class="primitive"/>
              </g>
              <g transform="translate(45.71,78.16)" id="img-d722be4a-69">
                <path d="M-0.35,-10.17 L 0.35 -10.17 0.35 10.17 -0.35 10.17 z" class="primitive"/>
              </g>
              <g transform="translate(46.36,88.33)" id="img-d722be4a-70">
                <path d="M-0.35,-0 L 0.35 -0 0.35 0 -0.35 0 z" class="primitive"/>
              </g>
              <g transform="translate(47.01,78.16)" id="img-d722be4a-71">
                <path d="M-0.35,-10.17 L 0.35 -10.17 0.35 10.17 -0.35 10.17 z" class="primitive"/>
              </g>
              <g transform="translate(47.65,47.66)" id="img-d722be4a-72">
                <path d="M-0.35,-40.66 L 0.35 -40.66 0.35 40.66 -0.35 40.66 z" class="primitive"/>
              </g>
              <g transform="translate(48.3,88.33)" id="img-d722be4a-73">
                <path d="M-0.35,-0 L 0.35 -0 0.35 0 -0.35 0 z" class="primitive"/>
              </g>
              <g transform="translate(48.94,78.16)" id="img-d722be4a-74">
                <path d="M-0.35,-10.17 L 0.35 -10.17 0.35 10.17 -0.35 10.17 z" class="primitive"/>
              </g>
              <g transform="translate(49.59,57.83)" id="img-d722be4a-75">
                <path d="M-0.35,-30.5 L 0.35 -30.5 0.35 30.5 -0.35 30.5 z" class="primitive"/>
              </g>
              <g transform="translate(50.24,68)" id="img-d722be4a-76">
                <path d="M-0.35,-20.33 L 0.35 -20.33 0.35 20.33 -0.35 20.33 z" class="primitive"/>
              </g>
              <g transform="translate(50.88,68)" id="img-d722be4a-77">
                <path d="M-0.35,-20.33 L 0.35 -20.33 0.35 20.33 -0.35 20.33 z" class="primitive"/>
              </g>
              <g transform="translate(51.53,78.16)" id="img-d722be4a-78">
                <path d="M-0.35,-10.17 L 0.35 -10.17 0.35 10.17 -0.35 10.17 z" class="primitive"/>
              </g>
              <g transform="translate(52.17,78.16)" id="img-d722be4a-79">
                <path d="M-0.35,-10.17 L 0.35 -10.17 0.35 10.17 -0.35 10.17 z" class="primitive"/>
              </g>
              <g transform="translate(52.82,68)" id="img-d722be4a-80">
                <path d="M-0.35,-20.33 L 0.35 -20.33 0.35 20.33 -0.35 20.33 z" class="primitive"/>
              </g>
              <g transform="translate(53.47,68)" id="img-d722be4a-81">
                <path d="M-0.35,-20.33 L 0.35 -20.33 0.35 20.33 -0.35 20.33 z" class="primitive"/>
              </g>
              <g transform="translate(54.11,57.83)" id="img-d722be4a-82">
                <path d="M-0.35,-30.5 L 0.35 -30.5 0.35 30.5 -0.35 30.5 z" class="primitive"/>
              </g>
              <g transform="translate(54.76,78.16)" id="img-d722be4a-83">
                <path d="M-0.35,-10.17 L 0.35 -10.17 0.35 10.17 -0.35 10.17 z" class="primitive"/>
              </g>
              <g transform="translate(55.4,57.83)" id="img-d722be4a-84">
                <path d="M-0.35,-30.5 L 0.35 -30.5 0.35 30.5 -0.35 30.5 z" class="primitive"/>
              </g>
              <g transform="translate(56.05,88.33)" id="img-d722be4a-85">
                <path d="M-0.35,-0 L 0.35 -0 0.35 0 -0.35 0 z" class="primitive"/>
              </g>
              <g transform="translate(56.7,68)" id="img-d722be4a-86">
                <path d="M-0.35,-20.33 L 0.35 -20.33 0.35 20.33 -0.35 20.33 z" class="primitive"/>
              </g>
              <g transform="translate(57.34,68)" id="img-d722be4a-87">
                <path d="M-0.35,-20.33 L 0.35 -20.33 0.35 20.33 -0.35 20.33 z" class="primitive"/>
              </g>
              <g transform="translate(57.99,88.33)" id="img-d722be4a-88">
                <path d="M-0.35,-0 L 0.35 -0 0.35 0 -0.35 0 z" class="primitive"/>
              </g>
              <g transform="translate(58.63,57.83)" id="img-d722be4a-89">
                <path d="M-0.35,-30.5 L 0.35 -30.5 0.35 30.5 -0.35 30.5 z" class="primitive"/>
              </g>
              <g transform="translate(59.28,68)" id="img-d722be4a-90">
                <path d="M-0.35,-20.33 L 0.35 -20.33 0.35 20.33 -0.35 20.33 z" class="primitive"/>
              </g>
              <g transform="translate(59.93,57.83)" id="img-d722be4a-91">
                <path d="M-0.35,-30.5 L 0.35 -30.5 0.35 30.5 -0.35 30.5 z" class="primitive"/>
              </g>
              <g transform="translate(60.57,78.16)" id="img-d722be4a-92">
                <path d="M-0.35,-10.17 L 0.35 -10.17 0.35 10.17 -0.35 10.17 z" class="primitive"/>
              </g>
              <g transform="translate(61.22,78.16)" id="img-d722be4a-93">
                <path d="M-0.35,-10.17 L 0.35 -10.17 0.35 10.17 -0.35 10.17 z" class="primitive"/>
              </g>
              <g transform="translate(61.86,57.83)" id="img-d722be4a-94">
                <path d="M-0.35,-30.5 L 0.35 -30.5 0.35 30.5 -0.35 30.5 z" class="primitive"/>
              </g>
              <g transform="translate(62.51,88.33)" id="img-d722be4a-95">
                <path d="M-0.35,-0 L 0.35 -0 0.35 0 -0.35 0 z" class="primitive"/>
              </g>
              <g transform="translate(63.16,68)" id="img-d722be4a-96">
                <path d="M-0.35,-20.33 L 0.35 -20.33 0.35 20.33 -0.35 20.33 z" class="primitive"/>
              </g>
              <g transform="translate(63.8,88.33)" id="img-d722be4a-97">
                <path d="M-0.35,-0 L 0.35 -0 0.35 0 -0.35 0 z" class="primitive"/>
              </g>
              <g transform="translate(64.45,68)" id="img-d722be4a-98">
                <path d="M-0.35,-20.33 L 0.35 -20.33 0.35 20.33 -0.35 20.33 z" class="primitive"/>
              </g>
              <g transform="translate(65.09,57.83)" id="img-d722be4a-99">
                <path d="M-0.35,-30.5 L 0.35 -30.5 0.35 30.5 -0.35 30.5 z" class="primitive"/>
              </g>
              <g transform="translate(65.74,78.16)" id="img-d722be4a-100">
                <path d="M-0.35,-10.17 L 0.35 -10.17 0.35 10.17 -0.35 10.17 z" class="primitive"/>
              </g>
              <g transform="translate(66.39,68)" id="img-d722be4a-101">
                <path d="M-0.35,-20.33 L 0.35 -20.33 0.35 20.33 -0.35 20.33 z" class="primitive"/>
              </g>
              <g transform="translate(67.03,88.33)" id="img-d722be4a-102">
                <path d="M-0.35,-0 L 0.35 -0 0.35 0 -0.35 0 z" class="primitive"/>
              </g>
              <g transform="translate(67.68,88.33)" id="img-d722be4a-103">
                <path d="M-0.35,-0 L 0.35 -0 0.35 0 -0.35 0 z" class="primitive"/>
              </g>
              <g transform="translate(68.32,88.33)" id="img-d722be4a-104">
                <path d="M-0.35,-0 L 0.35 -0 0.35 0 -0.35 0 z" class="primitive"/>
              </g>
              <g transform="translate(68.97,78.16)" id="img-d722be4a-105">
                <path d="M-0.35,-10.17 L 0.35 -10.17 0.35 10.17 -0.35 10.17 z" class="primitive"/>
              </g>
              <g transform="translate(69.62,68)" id="img-d722be4a-106">
                <path d="M-0.35,-20.33 L 0.35 -20.33 0.35 20.33 -0.35 20.33 z" class="primitive"/>
              </g>
              <g transform="translate(70.26,78.16)" id="img-d722be4a-107">
                <path d="M-0.35,-10.17 L 0.35 -10.17 0.35 10.17 -0.35 10.17 z" class="primitive"/>
              </g>
              <g transform="translate(70.91,68)" id="img-d722be4a-108">
                <path d="M-0.35,-20.33 L 0.35 -20.33 0.35 20.33 -0.35 20.33 z" class="primitive"/>
              </g>
              <g transform="translate(71.55,47.66)" id="img-d722be4a-109">
                <path d="M-0.35,-40.66 L 0.35 -40.66 0.35 40.66 -0.35 40.66 z" class="primitive"/>
              </g>
              <g transform="translate(72.2,68)" id="img-d722be4a-110">
                <path d="M-0.35,-20.33 L 0.35 -20.33 0.35 20.33 -0.35 20.33 z" class="primitive"/>
              </g>
              <g transform="translate(72.85,88.33)" id="img-d722be4a-111">
                <path d="M-0.35,-0 L 0.35 -0 0.35 0 -0.35 0 z" class="primitive"/>
              </g>
              <g transform="translate(73.49,88.33)" id="img-d722be4a-112">
                <path d="M-0.35,-0 L 0.35 -0 0.35 0 -0.35 0 z" class="primitive"/>
              </g>
              <g transform="translate(74.14,88.33)" id="img-d722be4a-113">
                <path d="M-0.35,-0 L 0.35 -0 0.35 0 -0.35 0 z" class="primitive"/>
              </g>
              <g transform="translate(74.78,78.16)" id="img-d722be4a-114">
                <path d="M-0.35,-10.17 L 0.35 -10.17 0.35 10.17 -0.35 10.17 z" class="primitive"/>
              </g>
              <g transform="translate(75.43,88.33)" id="img-d722be4a-115">
                <path d="M-0.35,-0 L 0.35 -0 0.35 0 -0.35 0 z" class="primitive"/>
              </g>
              <g transform="translate(76.08,88.33)" id="img-d722be4a-116">
                <path d="M-0.35,-0 L 0.35 -0 0.35 0 -0.35 0 z" class="primitive"/>
              </g>
              <g transform="translate(76.72,68)" id="img-d722be4a-117">
                <path d="M-0.35,-20.33 L 0.35 -20.33 0.35 20.33 -0.35 20.33 z" class="primitive"/>
              </g>
              <g transform="translate(77.37,78.16)" id="img-d722be4a-118">
                <path d="M-0.35,-10.17 L 0.35 -10.17 0.35 10.17 -0.35 10.17 z" class="primitive"/>
              </g>
              <g transform="translate(78.01,57.83)" id="img-d722be4a-119">
                <path d="M-0.35,-30.5 L 0.35 -30.5 0.35 30.5 -0.35 30.5 z" class="primitive"/>
              </g>
              <g transform="translate(78.66,88.33)" id="img-d722be4a-120">
                <path d="M-0.35,-0 L 0.35 -0 0.35 0 -0.35 0 z" class="primitive"/>
              </g>
              <g transform="translate(79.31,78.16)" id="img-d722be4a-121">
                <path d="M-0.35,-10.17 L 0.35 -10.17 0.35 10.17 -0.35 10.17 z" class="primitive"/>
              </g>
              <g transform="translate(79.95,88.33)" id="img-d722be4a-122">
                <path d="M-0.35,-0 L 0.35 -0 0.35 0 -0.35 0 z" class="primitive"/>
              </g>
              <g transform="translate(80.6,88.33)" id="img-d722be4a-123">
                <path d="M-0.35,-0 L 0.35 -0 0.35 0 -0.35 0 z" class="primitive"/>
              </g>
              <g transform="translate(81.24,78.16)" id="img-d722be4a-124">
                <path d="M-0.35,-10.17 L 0.35 -10.17 0.35 10.17 -0.35 10.17 z" class="primitive"/>
              </g>
              <g transform="translate(81.89,88.33)" id="img-d722be4a-125">
                <path d="M-0.35,-0 L 0.35 -0 0.35 0 -0.35 0 z" class="primitive"/>
              </g>
              <g transform="translate(82.54,88.33)" id="img-d722be4a-126">
                <path d="M-0.35,-0 L 0.35 -0 0.35 0 -0.35 0 z" class="primitive"/>
              </g>
              <g transform="translate(83.18,78.16)" id="img-d722be4a-127">
                <path d="M-0.35,-10.17 L 0.35 -10.17 0.35 10.17 -0.35 10.17 z" class="primitive"/>
              </g>
              <g transform="translate(83.83,88.33)" id="img-d722be4a-128">
                <path d="M-0.35,-0 L 0.35 -0 0.35 0 -0.35 0 z" class="primitive"/>
              </g>
              <g transform="translate(84.47,88.33)" id="img-d722be4a-129">
                <path d="M-0.35,-0 L 0.35 -0 0.35 0 -0.35 0 z" class="primitive"/>
              </g>
              <g transform="translate(85.12,88.33)" id="img-d722be4a-130">
                <path d="M-0.35,-0 L 0.35 -0 0.35 0 -0.35 0 z" class="primitive"/>
              </g>
              <g transform="translate(85.77,78.16)" id="img-d722be4a-131">
                <path d="M-0.35,-10.17 L 0.35 -10.17 0.35 10.17 -0.35 10.17 z" class="primitive"/>
              </g>
            </g>
          </g>
        </g>
      </g>
    </g>
  </g>
  <g class="guide ylabels" font-size="2.82" font-family="'PT Sans Caption','Helvetica Neue','Helvetica',sans-serif" fill="#6C606B" id="img-d722be4a-132">
    <g transform="translate(15.28,88.33)" id="img-d722be4a-133">
      <g class="primitive">
        <text text-anchor="end" dy="0.35em">0</text>
      </g>
    </g>
    <g transform="translate(15.28,68)" id="img-d722be4a-134">
      <g class="primitive">
        <text text-anchor="end" dy="0.35em">1</text>
      </g>
    </g>
    <g transform="translate(15.28,47.66)" id="img-d722be4a-135">
      <g class="primitive">
        <text text-anchor="end" dy="0.35em">2</text>
      </g>
    </g>
    <g transform="translate(15.28,27.33)" id="img-d722be4a-136">
      <g class="primitive">
        <text text-anchor="end" dy="0.35em">3</text>
      </g>
    </g>
    <g transform="translate(15.28,7)" id="img-d722be4a-137">
      <g class="primitive">
        <text text-anchor="end" dy="0.35em">4</text>
      </g>
    </g>
  </g>
  <g font-size="3.88" font-family="'PT Sans','Helvetica Neue','Helvetica',sans-serif" fill="#564A55" stroke="#000000" stroke-opacity="0.000" id="img-d722be4a-138">
    <g transform="translate(8.81,45.66)" id="img-d722be4a-139">
      <g class="primitive">
        <text text-anchor="middle" dy="0.35em" transform="rotate(-90,0, 2)">frequency</text>
      </g>
    </g>
  </g>
</g>
<defs>
  <clipPath id="img-d722be4a-11">
    <path d="M16.28,5 L 92.23 5 92.23 90.33 16.28 90.33" />
  </clipPath>
</defs>
</svg>
