<?xml version="1.0" encoding="UTF-8"?>
<svg xmlns="http://www.w3.org/2000/svg"
     xmlns:xlink="http://www.w3.org/1999/xlink"
     xmlns:gadfly="http://www.gadflyjl.org/ns"
     version="1.2"
     width="141.42mm" height="100mm" viewBox="0 0 141.42 100"
     stroke="none"
     fill="#000000"
     stroke-width="0.3"
     font-size="3.88"
>
<defs>
  <marker id="arrow" markerWidth="15" markerHeight="7" refX="5" refY="3.5" orient="auto" markerUnits="strokeWidth">
    <path d="M0,0 L15,3.5 L0,7 z" stroke="context-stroke" fill="context-stroke"/>
  </marker>
</defs>
<g class="plotroot xscalable yscalable" id="img-634a9f4e-1">
  <g font-size="3.88" font-family="'PT Sans','Helvetica Neue','Helvetica',sans-serif" fill="#564A55" stroke="#000000" stroke-opacity="0.000" id="img-634a9f4e-2">
    <g transform="translate(69.26,88.39)">
      <g class="primitive">
        <text text-anchor="middle" dy="0.6em"> sum of expression (log2 adjusted)</text>
      </g>
    </g>
  </g>
  <g class="guide xlabels" font-size="2.82" font-family="'PT Sans Caption','Helvetica Neue','Helvetica',sans-serif" fill="#6C606B" id="img-634a9f4e-3">
    <g transform="translate(28.72,81.72)">
      <g class="primitive">
        <text text-anchor="middle" dy="0.6em">0</text>
      </g>
    </g>
    <g transform="translate(48.99,81.72)">
      <g class="primitive">
        <text text-anchor="middle" dy="0.6em">5</text>
      </g>
    </g>
    <g transform="translate(69.26,81.72)">
      <g class="primitive">
        <text text-anchor="middle" dy="0.6em">10</text>
      </g>
    </g>
    <g transform="translate(89.53,81.72)">
      <g class="primitive">
        <text text-anchor="middle" dy="0.6em">15</text>
      </g>
    </g>
    <g transform="translate(109.8,81.72)">
      <g class="primitive">
        <text text-anchor="middle" dy="0.6em">20</text>
      </g>
    </g>
  </g>
  <g class="guide colorkey" id="img-634a9f4e-4">
    <g fill="#4C404B" font-size="2.82" font-family="'PT Sans','Helvetica Neue','Helvetica',sans-serif" id="img-634a9f4e-5">
      <g transform="translate(115.61,42.86)" id="img-634a9f4e-6" class="color_coding">
        <g class="primitive">
          <text dy="0.35em">coding</text>
        </g>
      </g>
      <g transform="translate(115.61,46.48)" id="img-634a9f4e-7" class="color_noncoding">
        <g class="primitive">
          <text dy="0.35em">noncoding</text>
        </g>
      </g>
    </g>
    <g fill-opacity="1" id="img-634a9f4e-8">
      <g transform="translate(113.71,42.86)" id="img-634a9f4e-9" fill="#00BFFF" class="color_coding" stroke="#FFFFFF">
        <path d="M-0.91,-0.91 L 0.91 -0.91 0.91 0.91 -0.91 0.91 z" class="primitive"/>
      </g>
      <g transform="translate(113.71,46.48)" id="img-634a9f4e-10" fill="#D4CA3A" class="color_noncoding" stroke="#FFFFFF">
        <path d="M-0.91,-0.91 L 0.91 -0.91 0.91 0.91 -0.91 0.91 z" class="primitive"/>
      </g>
    </g>
    <g fill="#362A35" font-size="3.88" font-family="'PT Sans','Helvetica Neue','Helvetica',sans-serif" stroke="#000000" stroke-opacity="0.000" id="img-634a9f4e-11">
      <g transform="translate(112.8,39.04)" id="img-634a9f4e-12">
        <g class="primitive">
          <text dy="-0em">transcript_type</text>
        </g>
      </g>
    </g>
  </g>
  <g clip-path="url(#img-634a9f4e-13)">
    <g id="img-634a9f4e-14">
      <g pointer-events="visible" stroke-width="0.3" fill="#000000" fill-opacity="0.000" stroke="#000000" stroke-opacity="0.000" class="guide background" id="img-634a9f4e-15">
        <g transform="translate(69.26,42.86)" id="img-634a9f4e-16">
          <path d="M-42.54,-37.86 L 42.54 -37.86 42.54 37.86 -42.54 37.86 z" class="primitive"/>
        </g>
      </g>
      <g class="guide ygridlines xfixed" stroke-dasharray="0.5,0.5" stroke-width="0.2" stroke="#D0D0E0" id="img-634a9f4e-17">
        <g transform="translate(69.26,78.71)" id="img-634a9f4e-18">
          <path fill="none" d="M-42.54,0 L 42.54 0" class="primitive"/>
        </g>
        <g transform="translate(69.26,60.79)" id="img-634a9f4e-19">
          <path fill="none" d="M-42.54,0 L 42.54 0" class="primitive"/>
        </g>
        <g transform="translate(69.26,42.86)" id="img-634a9f4e-20">
          <path fill="none" d="M-42.54,0 L 42.54 0" class="primitive"/>
        </g>
        <g transform="translate(69.26,24.93)" id="img-634a9f4e-21">
          <path fill="none" d="M-42.54,0 L 42.54 0" class="primitive"/>
        </g>
        <g transform="translate(69.26,7)" id="img-634a9f4e-22">
          <path fill="none" d="M-42.54,0 L 42.54 0" class="primitive"/>
        </g>
      </g>
      <g class="guide xgridlines yfixed" stroke-dasharray="0.5,0.5" stroke-width="0.2" stroke="#D0D0E0" id="img-634a9f4e-23">
        <g transform="translate(28.72,42.86)" id="img-634a9f4e-24">
          <path fill="none" d="M0,-37.86 L 0 37.86" class="primitive"/>
        </g>
        <g transform="translate(48.99,42.86)" id="img-634a9f4e-25">
          <path fill="none" d="M0,-37.86 L 0 37.86" class="primitive"/>
        </g>
        <g transform="translate(69.26,42.86)" id="img-634a9f4e-26">
          <path fill="none" d="M0,-37.86 L 0 37.86" class="primitive"/>
        </g>
        <g transform="translate(89.53,42.86)" id="img-634a9f4e-27">
          <path fill="none" d="M0,-37.86 L 0 37.86" class="primitive"/>
        </g>
        <g transform="translate(109.8,42.86)" id="img-634a9f4e-28">
          <path fill="none" d="M0,-37.86 L 0 37.86" class="primitive"/>
        </g>
      </g>
      <g class="plotpanel" id="img-634a9f4e-29">
        <metadata>
          <boundingbox value="26.724999999999994mm 5.0mm 85.07468957064285mm 75.715mm"/>
          <unitbox value="-0.4933722251893026 20557.763368890748 20.98674445037861 -21115.5267377815"/>
        </metadata>
        <g shape-rendering="crispEdges" stroke-width="0.3" id="img-634a9f4e-30">
          <g stroke="#000000" stroke-opacity="0.000" class="geometry" id="img-634a9f4e-31">
            <g fill="#00BFFF" id="img-634a9f4e-32">
              <g transform="translate(29.08,78.58)" id="img-634a9f4e-33">
                <path d="M-0.38,-0.14 L 0.38 -0.14 0.38 0.14 -0.38 0.14 z" class="primitive"/>
              </g>
              <g transform="translate(29.8,78.6)" id="img-634a9f4e-34">
                <path d="M-0.38,-0.12 L 0.38 -0.12 0.38 0.12 -0.38 0.12 z" class="primitive"/>
              </g>
              <g transform="translate(30.51,78.54)" id="img-634a9f4e-35">
                <path d="M-0.38,-0.17 L 0.38 -0.17 0.38 0.17 -0.38 0.17 z" class="primitive"/>
              </g>
              <g transform="translate(31.22,78.58)" id="img-634a9f4e-36">
                <path d="M-0.38,-0.14 L 0.38 -0.14 0.38 0.14 -0.38 0.14 z" class="primitive"/>
              </g>
              <g transform="translate(31.93,78.51)" id="img-634a9f4e-37">
                <path d="M-0.38,-0.2 L 0.38 -0.2 0.38 0.2 -0.38 0.2 z" class="primitive"/>
              </g>
              <g transform="translate(32.64,78.48)" id="img-634a9f4e-38">
                <path d="M-0.38,-0.23 L 0.38 -0.23 0.38 0.23 -0.38 0.23 z" class="primitive"/>
              </g>
              <g transform="translate(33.35,78.36)" id="img-634a9f4e-39">
                <path d="M-0.38,-0.35 L 0.38 -0.35 0.38 0.35 -0.38 0.35 z" class="primitive"/>
              </g>
              <g transform="translate(34.06,78.34)" id="img-634a9f4e-40">
                <path d="M-0.38,-0.38 L 0.38 -0.38 0.38 0.38 -0.38 0.38 z" class="primitive"/>
              </g>
              <g transform="translate(34.77,78.16)" id="img-634a9f4e-41">
                <path d="M-0.38,-0.55 L 0.38 -0.55 0.38 0.55 -0.38 0.55 z" class="primitive"/>
              </g>
              <g transform="translate(35.48,78.11)" id="img-634a9f4e-42">
                <path d="M-0.38,-0.6 L 0.38 -0.6 0.38 0.6 -0.38 0.6 z" class="primitive"/>
              </g>
              <g transform="translate(36.19,77.84)" id="img-634a9f4e-43">
                <path d="M-0.38,-0.87 L 0.38 -0.87 0.38 0.87 -0.38 0.87 z" class="primitive"/>
              </g>
              <g transform="translate(36.9,77.67)" id="img-634a9f4e-44">
                <path d="M-0.38,-1.05 L 0.38 -1.05 0.38 1.05 -0.38 1.05 z" class="primitive"/>
              </g>
              <g transform="translate(37.61,77.24)" id="img-634a9f4e-45">
                <path d="M-0.38,-1.48 L 0.38 -1.48 0.38 1.48 -0.38 1.48 z" class="primitive"/>
              </g>
              <g transform="translate(38.32,76.75)" id="img-634a9f4e-46">
                <path d="M-0.38,-1.97 L 0.38 -1.97 0.38 1.97 -0.38 1.97 z" class="primitive"/>
              </g>
              <g transform="translate(39.03,76.13)" id="img-634a9f4e-47">
                <path d="M-0.38,-2.59 L 0.38 -2.59 0.38 2.59 -0.38 2.59 z" class="primitive"/>
              </g>
              <g transform="translate(39.74,75.26)" id="img-634a9f4e-48">
                <path d="M-0.38,-3.45 L 0.38 -3.45 0.38 3.45 -0.38 3.45 z" class="primitive"/>
              </g>
              <g transform="translate(40.45,74.08)" id="img-634a9f4e-49">
                <path d="M-0.38,-4.63 L 0.38 -4.63 0.38 4.63 -0.38 4.63 z" class="primitive"/>
              </g>
              <g transform="translate(41.16,72.59)" id="img-634a9f4e-50">
                <path d="M-0.38,-6.13 L 0.38 -6.13 0.38 6.13 -0.38 6.13 z" class="primitive"/>
              </g>
              <g transform="translate(41.88,71.15)" id="img-634a9f4e-51">
                <path d="M-0.38,-7.57 L 0.38 -7.57 0.38 7.57 -0.38 7.57 z" class="primitive"/>
              </g>
              <g transform="translate(42.59,68.61)" id="img-634a9f4e-52">
                <path d="M-0.38,-10.1 L 0.38 -10.1 0.38 10.1 -0.38 10.1 z" class="primitive"/>
              </g>
              <g transform="translate(43.3,66.11)" id="img-634a9f4e-53">
                <path d="M-0.38,-12.6 L 0.38 -12.6 0.38 12.6 -0.38 12.6 z" class="primitive"/>
              </g>
              <g transform="translate(44.01,63.77)" id="img-634a9f4e-54">
                <path d="M-0.38,-14.95 L 0.38 -14.95 0.38 14.95 -0.38 14.95 z" class="primitive"/>
              </g>
              <g transform="translate(44.72,60.52)" id="img-634a9f4e-55">
                <path d="M-0.38,-18.2 L 0.38 -18.2 0.38 18.2 -0.38 18.2 z" class="primitive"/>
              </g>
              <g transform="translate(45.43,57.65)" id="img-634a9f4e-56">
                <path d="M-0.38,-21.07 L 0.38 -21.07 0.38 21.07 -0.38 21.07 z" class="primitive"/>
              </g>
              <g transform="translate(46.14,55.13)" id="img-634a9f4e-57">
                <path d="M-0.38,-23.59 L 0.38 -23.59 0.38 23.59 -0.38 23.59 z" class="primitive"/>
              </g>
              <g transform="translate(46.85,53.03)" id="img-634a9f4e-58">
                <path d="M-0.38,-25.69 L 0.38 -25.69 0.38 25.69 -0.38 25.69 z" class="primitive"/>
              </g>
              <g transform="translate(47.56,51.32)" id="img-634a9f4e-59">
                <path d="M-0.38,-27.4 L 0.38 -27.4 0.38 27.4 -0.38 27.4 z" class="primitive"/>
              </g>
              <g transform="translate(48.27,51.14)" id="img-634a9f4e-60">
                <path d="M-0.38,-27.58 L 0.38 -27.58 0.38 27.58 -0.38 27.58 z" class="primitive"/>
              </g>
              <g transform="translate(48.98,50.55)" id="img-634a9f4e-61">
                <path d="M-0.38,-28.16 L 0.38 -28.16 0.38 28.16 -0.38 28.16 z" class="primitive"/>
              </g>
              <g transform="translate(49.69,52.47)" id="img-634a9f4e-62">
                <path d="M-0.38,-26.24 L 0.38 -26.24 0.38 26.24 -0.38 26.24 z" class="primitive"/>
              </g>
              <g transform="translate(50.4,54.29)" id="img-634a9f4e-63">
                <path d="M-0.38,-24.43 L 0.38 -24.43 0.38 24.43 -0.38 24.43 z" class="primitive"/>
              </g>
              <g transform="translate(51.11,56.81)" id="img-634a9f4e-64">
                <path d="M-0.38,-21.91 L 0.38 -21.91 0.38 21.91 -0.38 21.91 z" class="primitive"/>
              </g>
              <g transform="translate(51.82,59.82)" id="img-634a9f4e-65">
                <path d="M-0.38,-18.9 L 0.38 -18.9 0.38 18.9 -0.38 18.9 z" class="primitive"/>
              </g>
              <g transform="translate(52.53,62.78)" id="img-634a9f4e-66">
                <path d="M-0.38,-15.94 L 0.38 -15.94 0.38 15.94 -0.38 15.94 z" class="primitive"/>
              </g>
              <g transform="translate(53.24,65.37)" id="img-634a9f4e-67">
                <path d="M-0.38,-13.35 L 0.38 -13.35 0.38 13.35 -0.38 13.35 z" class="primitive"/>
              </g>
              <g transform="translate(53.95,68.03)" id="img-634a9f4e-68">
                <path d="M-0.38,-10.68 L 0.38 -10.68 0.38 10.68 -0.38 10.68 z" class="primitive"/>
              </g>
              <g transform="translate(54.67,70.38)" id="img-634a9f4e-69">
                <path d="M-0.38,-8.33 L 0.38 -8.33 0.38 8.33 -0.38 8.33 z" class="primitive"/>
              </g>
              <g transform="translate(55.38,72)" id="img-634a9f4e-70">
                <path d="M-0.38,-6.71 L 0.38 -6.71 0.38 6.71 -0.38 6.71 z" class="primitive"/>
              </g>
              <g transform="translate(56.09,73.55)" id="img-634a9f4e-71">
                <path d="M-0.38,-5.17 L 0.38 -5.17 0.38 5.17 -0.38 5.17 z" class="primitive"/>
              </g>
              <g transform="translate(56.8,74.91)" id="img-634a9f4e-72">
                <path d="M-0.38,-3.8 L 0.38 -3.8 0.38 3.8 -0.38 3.8 z" class="primitive"/>
              </g>
              <g transform="translate(57.51,75.72)" id="img-634a9f4e-73">
                <path d="M-0.38,-2.99 L 0.38 -2.99 0.38 2.99 -0.38 2.99 z" class="primitive"/>
              </g>
              <g transform="translate(58.22,76.45)" id="img-634a9f4e-74">
                <path d="M-0.38,-2.26 L 0.38 -2.26 0.38 2.26 -0.38 2.26 z" class="primitive"/>
              </g>
              <g transform="translate(58.93,76.86)" id="img-634a9f4e-75">
                <path d="M-0.38,-1.86 L 0.38 -1.86 0.38 1.86 -0.38 1.86 z" class="primitive"/>
              </g>
              <g transform="translate(59.64,77.36)" id="img-634a9f4e-76">
                <path d="M-0.38,-1.36 L 0.38 -1.36 0.38 1.36 -0.38 1.36 z" class="primitive"/>
              </g>
              <g transform="translate(60.35,77.75)" id="img-634a9f4e-77">
                <path d="M-0.38,-0.97 L 0.38 -0.97 0.38 0.97 -0.38 0.97 z" class="primitive"/>
              </g>
              <g transform="translate(61.06,77.85)" id="img-634a9f4e-78">
                <path d="M-0.38,-0.86 L 0.38 -0.86 0.38 0.86 -0.38 0.86 z" class="primitive"/>
              </g>
              <g transform="translate(61.77,78.02)" id="img-634a9f4e-79">
                <path d="M-0.38,-0.7 L 0.38 -0.7 0.38 0.7 -0.38 0.7 z" class="primitive"/>
              </g>
              <g transform="translate(62.48,78.2)" id="img-634a9f4e-80">
                <path d="M-0.38,-0.52 L 0.38 -0.52 0.38 0.52 -0.38 0.52 z" class="primitive"/>
              </g>
              <g transform="translate(63.19,78.26)" id="img-634a9f4e-81">
                <path d="M-0.38,-0.45 L 0.38 -0.45 0.38 0.45 -0.38 0.45 z" class="primitive"/>
              </g>
              <g transform="translate(63.9,78.34)" id="img-634a9f4e-82">
                <path d="M-0.38,-0.37 L 0.38 -0.37 0.38 0.37 -0.38 0.37 z" class="primitive"/>
              </g>
              <g transform="translate(64.61,78.44)" id="img-634a9f4e-83">
                <path d="M-0.38,-0.27 L 0.38 -0.27 0.38 0.27 -0.38 0.27 z" class="primitive"/>
              </g>
              <g transform="translate(65.32,78.48)" id="img-634a9f4e-84">
                <path d="M-0.38,-0.23 L 0.38 -0.23 0.38 0.23 -0.38 0.23 z" class="primitive"/>
              </g>
              <g transform="translate(66.03,78.47)" id="img-634a9f4e-85">
                <path d="M-0.38,-0.25 L 0.38 -0.25 0.38 0.25 -0.38 0.25 z" class="primitive"/>
              </g>
              <g transform="translate(66.75,78.51)" id="img-634a9f4e-86">
                <path d="M-0.38,-0.21 L 0.38 -0.21 0.38 0.21 -0.38 0.21 z" class="primitive"/>
              </g>
              <g transform="translate(67.46,78.55)" id="img-634a9f4e-87">
                <path d="M-0.38,-0.16 L 0.38 -0.16 0.38 0.16 -0.38 0.16 z" class="primitive"/>
              </g>
              <g transform="translate(68.17,78.57)" id="img-634a9f4e-88">
                <path d="M-0.38,-0.15 L 0.38 -0.15 0.38 0.15 -0.38 0.15 z" class="primitive"/>
              </g>
              <g transform="translate(68.88,78.59)" id="img-634a9f4e-89">
                <path d="M-0.38,-0.12 L 0.38 -0.12 0.38 0.12 -0.38 0.12 z" class="primitive"/>
              </g>
              <g transform="translate(69.59,78.6)" id="img-634a9f4e-90">
                <path d="M-0.38,-0.11 L 0.38 -0.11 0.38 0.11 -0.38 0.11 z" class="primitive"/>
              </g>
              <g transform="translate(70.3,78.62)" id="img-634a9f4e-91">
                <path d="M-0.38,-0.09 L 0.38 -0.09 0.38 0.09 -0.38 0.09 z" class="primitive"/>
              </g>
              <g transform="translate(71.01,78.66)" id="img-634a9f4e-92">
                <path d="M-0.38,-0.06 L 0.38 -0.06 0.38 0.06 -0.38 0.06 z" class="primitive"/>
              </g>
              <g transform="translate(71.72,78.65)" id="img-634a9f4e-93">
                <path d="M-0.38,-0.07 L 0.38 -0.07 0.38 0.07 -0.38 0.07 z" class="primitive"/>
              </g>
              <g transform="translate(72.43,78.65)" id="img-634a9f4e-94">
                <path d="M-0.38,-0.06 L 0.38 -0.06 0.38 0.06 -0.38 0.06 z" class="primitive"/>
              </g>
              <g transform="translate(73.14,78.66)" id="img-634a9f4e-95">
                <path d="M-0.38,-0.06 L 0.38 -0.06 0.38 0.06 -0.38 0.06 z" class="primitive"/>
              </g>
              <g transform="translate(73.85,78.66)" id="img-634a9f4e-96">
                <path d="M-0.38,-0.05 L 0.38 -0.05 0.38 0.05 -0.38 0.05 z" class="primitive"/>
              </g>
              <g transform="translate(74.56,78.68)" id="img-634a9f4e-97">
                <path d="M-0.38,-0.04 L 0.38 -0.04 0.38 0.04 -0.38 0.04 z" class="primitive"/>
              </g>
              <g transform="translate(75.27,78.7)" id="img-634a9f4e-98">
                <path d="M-0.38,-0.02 L 0.38 -0.02 0.38 0.02 -0.38 0.02 z" class="primitive"/>
              </g>
              <g transform="translate(75.98,78.68)" id="img-634a9f4e-99">
                <path d="M-0.38,-0.03 L 0.38 -0.03 0.38 0.03 -0.38 0.03 z" class="primitive"/>
              </g>
              <g transform="translate(76.69,78.69)" id="img-634a9f4e-100">
                <path d="M-0.38,-0.03 L 0.38 -0.03 0.38 0.03 -0.38 0.03 z" class="primitive"/>
              </g>
              <g transform="translate(77.4,78.69)" id="img-634a9f4e-101">
                <path d="M-0.38,-0.03 L 0.38 -0.03 0.38 0.03 -0.38 0.03 z" class="primitive"/>
              </g>
              <g transform="translate(78.11,78.71)" id="img-634a9f4e-102">
                <path d="M-0.38,-0.01 L 0.38 -0.01 0.38 0.01 -0.38 0.01 z" class="primitive"/>
              </g>
              <g transform="translate(78.83,78.71)" id="img-634a9f4e-103">
                <path d="M-0.38,-0.01 L 0.38 -0.01 0.38 0.01 -0.38 0.01 z" class="primitive"/>
              </g>
              <g transform="translate(79.54,78.7)" id="img-634a9f4e-104">
                <path d="M-0.38,-0.01 L 0.38 -0.01 0.38 0.01 -0.38 0.01 z" class="primitive"/>
              </g>
              <g transform="translate(80.25,78.71)" id="img-634a9f4e-105">
                <path d="M-0.38,-0.01 L 0.38 -0.01 0.38 0.01 -0.38 0.01 z" class="primitive"/>
              </g>
              <g transform="translate(80.96,78.71)" id="img-634a9f4e-106">
                <path d="M-0.38,-0.01 L 0.38 -0.01 0.38 0.01 -0.38 0.01 z" class="primitive"/>
              </g>
              <g transform="translate(81.67,78.71)" id="img-634a9f4e-107">
                <path d="M-0.38,-0.01 L 0.38 -0.01 0.38 0.01 -0.38 0.01 z" class="primitive"/>
              </g>
              <g transform="translate(82.38,78.71)" id="img-634a9f4e-108">
                <path d="M-0.38,-0.01 L 0.38 -0.01 0.38 0.01 -0.38 0.01 z" class="primitive"/>
              </g>
              <g transform="translate(83.09,78.72)" id="img-634a9f4e-109">
                <path d="M-0.38,-0 L 0.38 -0 0.38 0 -0.38 0 z" class="primitive"/>
              </g>
              <g transform="translate(83.8,78.72)" id="img-634a9f4e-110">
                <path d="M-0.38,-0 L 0.38 -0 0.38 0 -0.38 0 z" class="primitive"/>
              </g>
              <g transform="translate(84.51,78.71)" id="img-634a9f4e-111">
                <path d="M-0.38,-0 L 0.38 -0 0.38 0 -0.38 0 z" class="primitive"/>
              </g>
              <g transform="translate(85.22,78.72)" id="img-634a9f4e-112">
                <path d="M-0.38,-0 L 0.38 -0 0.38 0 -0.38 0 z" class="primitive"/>
              </g>
              <g transform="translate(85.93,78.71)" id="img-634a9f4e-113">
                <path d="M-0.38,-0.01 L 0.38 -0.01 0.38 0.01 -0.38 0.01 z" class="primitive"/>
              </g>
              <g transform="translate(86.64,78.71)" id="img-634a9f4e-114">
                <path d="M-0.38,-0.01 L 0.38 -0.01 0.38 0.01 -0.38 0.01 z" class="primitive"/>
              </g>
              <g transform="translate(87.35,78.72)" id="img-634a9f4e-115">
                <path d="M-0.38,-0 L 0.38 -0 0.38 0 -0.38 0 z" class="primitive"/>
              </g>
              <g transform="translate(88.06,78.71)" id="img-634a9f4e-116">
                <path d="M-0.38,-0.01 L 0.38 -0.01 0.38 0.01 -0.38 0.01 z" class="primitive"/>
              </g>
              <g transform="translate(88.77,78.71)" id="img-634a9f4e-117">
                <path d="M-0.38,-0 L 0.38 -0 0.38 0 -0.38 0 z" class="primitive"/>
              </g>
              <g transform="translate(89.48,78.72)" id="img-634a9f4e-118">
                <path d="M-0.38,-0 L 0.38 -0 0.38 0 -0.38 0 z" class="primitive"/>
              </g>
              <g transform="translate(90.19,78.71)" id="img-634a9f4e-119">
                <path d="M-0.38,-0 L 0.38 -0 0.38 0 -0.38 0 z" class="primitive"/>
              </g>
              <g transform="translate(90.91,78.71)" id="img-634a9f4e-120">
                <path d="M-0.38,-0 L 0.38 -0 0.38 0 -0.38 0 z" class="primitive"/>
              </g>
              <g transform="translate(91.62,78.72)" id="img-634a9f4e-121">
                <path d="M-0.38,-0 L 0.38 -0 0.38 0 -0.38 0 z" class="primitive"/>
              </g>
              <g transform="translate(92.33,78.71)" id="img-634a9f4e-122">
                <path d="M-0.38,-0 L 0.38 -0 0.38 0 -0.38 0 z" class="primitive"/>
              </g>
              <g transform="translate(93.04,78.71)" id="img-634a9f4e-123">
                <path d="M-0.38,-0.01 L 0.38 -0.01 0.38 0.01 -0.38 0.01 z" class="primitive"/>
              </g>
              <g transform="translate(93.75,78.72)" id="img-634a9f4e-124">
                <path d="M-0.38,-0 L 0.38 -0 0.38 0 -0.38 0 z" class="primitive"/>
              </g>
              <g transform="translate(94.46,78.72)" id="img-634a9f4e-125">
                <path d="M-0.38,-0 L 0.38 -0 0.38 0 -0.38 0 z" class="primitive"/>
              </g>
              <g transform="translate(95.17,78.72)" id="img-634a9f4e-126">
                <path d="M-0.38,-0 L 0.38 -0 0.38 0 -0.38 0 z" class="primitive"/>
              </g>
              <g transform="translate(95.88,78.71)" id="img-634a9f4e-127">
                <path d="M-0.38,-0 L 0.38 -0 0.38 0 -0.38 0 z" class="primitive"/>
              </g>
              <g transform="translate(96.59,78.72)" id="img-634a9f4e-128">
                <path d="M-0.38,-0 L 0.38 -0 0.38 0 -0.38 0 z" class="primitive"/>
              </g>
              <g transform="translate(97.3,78.72)" id="img-634a9f4e-129">
                <path d="M-0.38,-0 L 0.38 -0 0.38 0 -0.38 0 z" class="primitive"/>
              </g>
              <g transform="translate(98.01,78.72)" id="img-634a9f4e-130">
                <path d="M-0.38,-0 L 0.38 -0 0.38 0 -0.38 0 z" class="primitive"/>
              </g>
              <g transform="translate(98.72,78.72)" id="img-634a9f4e-131">
                <path d="M-0.38,-0 L 0.38 -0 0.38 0 -0.38 0 z" class="primitive"/>
              </g>
              <g transform="translate(99.43,78.72)" id="img-634a9f4e-132">
                <path d="M-0.38,-0 L 0.38 -0 0.38 0 -0.38 0 z" class="primitive"/>
              </g>
            </g>
            <g fill="#D4CA3A" id="img-634a9f4e-133">
              <g transform="translate(29.08,78.44)" id="img-634a9f4e-134">
                <path d="M-0.38,-0 L 0.38 -0 0.38 0 -0.38 0 z" class="primitive"/>
              </g>
              <g transform="translate(29.8,78.47)" id="img-634a9f4e-135">
                <path d="M-0.38,-0.01 L 0.38 -0.01 0.38 0.01 -0.38 0.01 z" class="primitive"/>
              </g>
              <g transform="translate(30.51,78.37)" id="img-634a9f4e-136">
                <path d="M-0.38,-0.01 L 0.38 -0.01 0.38 0.01 -0.38 0.01 z" class="primitive"/>
              </g>
              <g transform="translate(31.22,78.44)" id="img-634a9f4e-137">
                <path d="M-0.38,-0 L 0.38 -0 0.38 0 -0.38 0 z" class="primitive"/>
              </g>
              <g transform="translate(31.93,78.29)" id="img-634a9f4e-138">
                <path d="M-0.38,-0.01 L 0.38 -0.01 0.38 0.01 -0.38 0.01 z" class="primitive"/>
              </g>
              <g transform="translate(32.64,78.25)" id="img-634a9f4e-139">
                <path d="M-0.38,-0.01 L 0.38 -0.01 0.38 0.01 -0.38 0.01 z" class="primitive"/>
              </g>
              <g transform="translate(33.35,77.99)" id="img-634a9f4e-140">
                <path d="M-0.38,-0.01 L 0.38 -0.01 0.38 0.01 -0.38 0.01 z" class="primitive"/>
              </g>
              <g transform="translate(34.06,77.95)" id="img-634a9f4e-141">
                <path d="M-0.38,-0.01 L 0.38 -0.01 0.38 0.01 -0.38 0.01 z" class="primitive"/>
              </g>
              <g transform="translate(34.77,77.58)" id="img-634a9f4e-142">
                <path d="M-0.38,-0.03 L 0.38 -0.03 0.38 0.03 -0.38 0.03 z" class="primitive"/>
              </g>
              <g transform="translate(35.48,77.48)" id="img-634a9f4e-143">
                <path d="M-0.38,-0.03 L 0.38 -0.03 0.38 0.03 -0.38 0.03 z" class="primitive"/>
              </g>
              <g transform="translate(36.19,76.93)" id="img-634a9f4e-144">
                <path d="M-0.38,-0.04 L 0.38 -0.04 0.38 0.04 -0.38 0.04 z" class="primitive"/>
              </g>
              <g transform="translate(36.9,76.57)" id="img-634a9f4e-145">
                <path d="M-0.38,-0.06 L 0.38 -0.06 0.38 0.06 -0.38 0.06 z" class="primitive"/>
              </g>
              <g transform="translate(37.61,75.7)" id="img-634a9f4e-146">
                <path d="M-0.38,-0.07 L 0.38 -0.07 0.38 0.07 -0.38 0.07 z" class="primitive"/>
              </g>
              <g transform="translate(38.32,74.69)" id="img-634a9f4e-147">
                <path d="M-0.38,-0.08 L 0.38 -0.08 0.38 0.08 -0.38 0.08 z" class="primitive"/>
              </g>
              <g transform="translate(39.03,73.39)" id="img-634a9f4e-148">
                <path d="M-0.38,-0.15 L 0.38 -0.15 0.38 0.15 -0.38 0.15 z" class="primitive"/>
              </g>
              <g transform="translate(39.74,71.58)" id="img-634a9f4e-149">
                <path d="M-0.38,-0.23 L 0.38 -0.23 0.38 0.23 -0.38 0.23 z" class="primitive"/>
              </g>
              <g transform="translate(40.45,69.22)" id="img-634a9f4e-150">
                <path d="M-0.38,-0.23 L 0.38 -0.23 0.38 0.23 -0.38 0.23 z" class="primitive"/>
              </g>
              <g transform="translate(41.16,66.11)" id="img-634a9f4e-151">
                <path d="M-0.38,-0.35 L 0.38 -0.35 0.38 0.35 -0.38 0.35 z" class="primitive"/>
              </g>
              <g transform="translate(41.88,63.12)" id="img-634a9f4e-152">
                <path d="M-0.38,-0.47 L 0.38 -0.47 0.38 0.47 -0.38 0.47 z" class="primitive"/>
              </g>
              <g transform="translate(42.59,57.92)" id="img-634a9f4e-153">
                <path d="M-0.38,-0.59 L 0.38 -0.59 0.38 0.59 -0.38 0.59 z" class="primitive"/>
              </g>
              <g transform="translate(43.3,52.82)" id="img-634a9f4e-154">
                <path d="M-0.38,-0.69 L 0.38 -0.69 0.38 0.69 -0.38 0.69 z" class="primitive"/>
              </g>
              <g transform="translate(44.01,48.02)" id="img-634a9f4e-155">
                <path d="M-0.38,-0.8 L 0.38 -0.8 0.38 0.8 -0.38 0.8 z" class="primitive"/>
              </g>
              <g transform="translate(44.72,41.36)" id="img-634a9f4e-156">
                <path d="M-0.38,-0.96 L 0.38 -0.96 0.38 0.96 -0.38 0.96 z" class="primitive"/>
              </g>
              <g transform="translate(45.43,35.52)" id="img-634a9f4e-157">
                <path d="M-0.38,-1.06 L 0.38 -1.06 0.38 1.06 -0.38 1.06 z" class="primitive"/>
              </g>
              <g transform="translate(46.14,30.36)" id="img-634a9f4e-158">
                <path d="M-0.38,-1.18 L 0.38 -1.18 0.38 1.18 -0.38 1.18 z" class="primitive"/>
              </g>
              <g transform="translate(46.85,26.02)" id="img-634a9f4e-159">
                <path d="M-0.38,-1.32 L 0.38 -1.32 0.38 1.32 -0.38 1.32 z" class="primitive"/>
              </g>
              <g transform="translate(47.56,22.68)" id="img-634a9f4e-160">
                <path d="M-0.38,-1.24 L 0.38 -1.24 0.38 1.24 -0.38 1.24 z" class="primitive"/>
              </g>
              <g transform="translate(48.27,22.2)" id="img-634a9f4e-161">
                <path d="M-0.38,-1.36 L 0.38 -1.36 0.38 1.36 -0.38 1.36 z" class="primitive"/>
              </g>
              <g transform="translate(48.98,21.17)" id="img-634a9f4e-162">
                <path d="M-0.38,-1.22 L 0.38 -1.22 0.38 1.22 -0.38 1.22 z" class="primitive"/>
              </g>
              <g transform="translate(49.69,25.05)" id="img-634a9f4e-163">
                <path d="M-0.38,-1.18 L 0.38 -1.18 0.38 1.18 -0.38 1.18 z" class="primitive"/>
              </g>
              <g transform="translate(50.4,28.72)" id="img-634a9f4e-164">
                <path d="M-0.38,-1.13 L 0.38 -1.13 0.38 1.13 -0.38 1.13 z" class="primitive"/>
              </g>
              <g transform="translate(51.11,33.95)" id="img-634a9f4e-165">
                <path d="M-0.38,-0.96 L 0.38 -0.96 0.38 0.96 -0.38 0.96 z" class="primitive"/>
              </g>
              <g transform="translate(51.82,40.13)" id="img-634a9f4e-166">
                <path d="M-0.38,-0.8 L 0.38 -0.8 0.38 0.8 -0.38 0.8 z" class="primitive"/>
              </g>
              <g transform="translate(52.53,46.21)" id="img-634a9f4e-167">
                <path d="M-0.38,-0.63 L 0.38 -0.63 0.38 0.63 -0.38 0.63 z" class="primitive"/>
              </g>
              <g transform="translate(53.24,51.47)" id="img-634a9f4e-168">
                <path d="M-0.38,-0.55 L 0.38 -0.55 0.38 0.55 -0.38 0.55 z" class="primitive"/>
              </g>
              <g transform="translate(53.95,56.91)" id="img-634a9f4e-169">
                <path d="M-0.38,-0.44 L 0.38 -0.44 0.38 0.44 -0.38 0.44 z" class="primitive"/>
              </g>
              <g transform="translate(54.67,61.68)" id="img-634a9f4e-170">
                <path d="M-0.38,-0.37 L 0.38 -0.37 0.38 0.37 -0.38 0.37 z" class="primitive"/>
              </g>
              <g transform="translate(55.38,65.03)" id="img-634a9f4e-171">
                <path d="M-0.38,-0.26 L 0.38 -0.26 0.38 0.26 -0.38 0.26 z" class="primitive"/>
              </g>
              <g transform="translate(56.09,68.18)" id="img-634a9f4e-172">
                <path d="M-0.38,-0.2 L 0.38 -0.2 0.38 0.2 -0.38 0.2 z" class="primitive"/>
              </g>
              <g transform="translate(56.8,70.95)" id="img-634a9f4e-173">
                <path d="M-0.38,-0.16 L 0.38 -0.16 0.38 0.16 -0.38 0.16 z" class="primitive"/>
              </g>
              <g transform="translate(57.51,72.6)" id="img-634a9f4e-174">
                <path d="M-0.38,-0.13 L 0.38 -0.13 0.38 0.13 -0.38 0.13 z" class="primitive"/>
              </g>
              <g transform="translate(58.22,74.08)" id="img-634a9f4e-175">
                <path d="M-0.38,-0.1 L 0.38 -0.1 0.38 0.1 -0.38 0.1 z" class="primitive"/>
              </g>
              <g transform="translate(58.93,74.93)" id="img-634a9f4e-176">
                <path d="M-0.38,-0.06 L 0.38 -0.06 0.38 0.06 -0.38 0.06 z" class="primitive"/>
              </g>
              <g transform="translate(59.64,75.95)" id="img-634a9f4e-177">
                <path d="M-0.38,-0.05 L 0.38 -0.05 0.38 0.05 -0.38 0.05 z" class="primitive"/>
              </g>
              <g transform="translate(60.35,76.75)" id="img-634a9f4e-178">
                <path d="M-0.38,-0.03 L 0.38 -0.03 0.38 0.03 -0.38 0.03 z" class="primitive"/>
              </g>
              <g transform="translate(61.06,76.96)" id="img-634a9f4e-179">
                <path d="M-0.38,-0.03 L 0.38 -0.03 0.38 0.03 -0.38 0.03 z" class="primitive"/>
              </g>
              <g transform="translate(61.77,77.28)" id="img-634a9f4e-180">
                <path d="M-0.38,-0.04 L 0.38 -0.04 0.38 0.04 -0.38 0.04 z" class="primitive"/>
              </g>
              <g transform="translate(62.48,77.66)" id="img-634a9f4e-181">
                <path d="M-0.38,-0.02 L 0.38 -0.02 0.38 0.02 -0.38 0.02 z" class="primitive"/>
              </g>
              <g transform="translate(63.19,77.79)" id="img-634a9f4e-182">
                <path d="M-0.38,-0.02 L 0.38 -0.02 0.38 0.02 -0.38 0.02 z" class="primitive"/>
              </g>
              <g transform="translate(63.9,77.95)" id="img-634a9f4e-183">
                <path d="M-0.38,-0.02 L 0.38 -0.02 0.38 0.02 -0.38 0.02 z" class="primitive"/>
              </g>
              <g transform="translate(64.61,78.16)" id="img-634a9f4e-184">
                <path d="M-0.38,-0.01 L 0.38 -0.01 0.38 0.01 -0.38 0.01 z" class="primitive"/>
              </g>
              <g transform="translate(65.32,78.23)" id="img-634a9f4e-185">
                <path d="M-0.38,-0.01 L 0.38 -0.01 0.38 0.01 -0.38 0.01 z" class="primitive"/>
              </g>
              <g transform="translate(66.03,78.2)" id="img-634a9f4e-186">
                <path d="M-0.38,-0.01 L 0.38 -0.01 0.38 0.01 -0.38 0.01 z" class="primitive"/>
              </g>
              <g transform="translate(66.75,78.29)" id="img-634a9f4e-187">
                <path d="M-0.38,-0.01 L 0.38 -0.01 0.38 0.01 -0.38 0.01 z" class="primitive"/>
              </g>
              <g transform="translate(67.46,78.38)" id="img-634a9f4e-188">
                <path d="M-0.38,-0.01 L 0.38 -0.01 0.38 0.01 -0.38 0.01 z" class="primitive"/>
              </g>
              <g transform="translate(68.17,78.42)" id="img-634a9f4e-189">
                <path d="M-0.38,-0.01 L 0.38 -0.01 0.38 0.01 -0.38 0.01 z" class="primitive"/>
              </g>
              <g transform="translate(68.88,78.47)" id="img-634a9f4e-190">
                <path d="M-0.38,-0 L 0.38 -0 0.38 0 -0.38 0 z" class="primitive"/>
              </g>
              <g transform="translate(69.59,78.49)" id="img-634a9f4e-191">
                <path d="M-0.38,-0 L 0.38 -0 0.38 0 -0.38 0 z" class="primitive"/>
              </g>
              <g transform="translate(70.3,78.53)" id="img-634a9f4e-192">
                <path d="M-0.38,-0 L 0.38 -0 0.38 0 -0.38 0 z" class="primitive"/>
              </g>
              <g transform="translate(71.01,78.61)" id="img-634a9f4e-193">
                <path d="M-0.38,-0 L 0.38 -0 0.38 0 -0.38 0 z" class="primitive"/>
              </g>
              <g transform="translate(71.72,78.57)" id="img-634a9f4e-194">
                <path d="M-0.38,-0 L 0.38 -0 0.38 0 -0.38 0 z" class="primitive"/>
              </g>
              <g transform="translate(72.43,78.58)" id="img-634a9f4e-195">
                <path d="M-0.38,-0.01 L 0.38 -0.01 0.38 0.01 -0.38 0.01 z" class="primitive"/>
              </g>
              <g transform="translate(73.14,78.6)" id="img-634a9f4e-196">
                <path d="M-0.38,-0 L 0.38 -0 0.38 0 -0.38 0 z" class="primitive"/>
              </g>
              <g transform="translate(73.85,78.62)" id="img-634a9f4e-197">
                <path d="M-0.38,-0 L 0.38 -0 0.38 0 -0.38 0 z" class="primitive"/>
              </g>
              <g transform="translate(74.56,78.64)" id="img-634a9f4e-198">
                <path d="M-0.38,-0 L 0.38 -0 0.38 0 -0.38 0 z" class="primitive"/>
              </g>
              <g transform="translate(75.27,78.68)" id="img-634a9f4e-199">
                <path d="M-0.38,-0 L 0.38 -0 0.38 0 -0.38 0 z" class="primitive"/>
              </g>
              <g transform="translate(75.98,78.65)" id="img-634a9f4e-200">
                <path d="M-0.38,-0 L 0.38 -0 0.38 0 -0.38 0 z" class="primitive"/>
              </g>
              <g transform="translate(76.69,78.67)" id="img-634a9f4e-201">
                <path d="M-0.38,-0 L 0.38 -0 0.38 0 -0.38 0 z" class="primitive"/>
              </g>
              <g transform="translate(77.4,78.67)" id="img-634a9f4e-202">
                <path d="M-0.38,-0 L 0.38 -0 0.38 0 -0.38 0 z" class="primitive"/>
              </g>
              <g transform="translate(78.11,78.7)" id="img-634a9f4e-203">
                <path d="M-0.38,-0 L 0.38 -0 0.38 0 -0.38 0 z" class="primitive"/>
              </g>
              <g transform="translate(78.83,78.7)" id="img-634a9f4e-204">
                <path d="M-0.38,-0 L 0.38 -0 0.38 0 -0.38 0 z" class="primitive"/>
              </g>
              <g transform="translate(79.54,78.69)" id="img-634a9f4e-205">
                <path d="M-0.38,-0 L 0.38 -0 0.38 0 -0.38 0 z" class="primitive"/>
              </g>
              <g transform="translate(80.25,78.71)" id="img-634a9f4e-206">
                <path d="M-0.38,-0 L 0.38 -0 0.38 0 -0.38 0 z" class="primitive"/>
              </g>
              <g transform="translate(80.96,78.71)" id="img-634a9f4e-207">
                <path d="M-0.38,-0 L 0.38 -0 0.38 0 -0.38 0 z" class="primitive"/>
              </g>
              <g transform="translate(81.67,78.71)" id="img-634a9f4e-208">
                <path d="M-0.38,-0 L 0.38 -0 0.38 0 -0.38 0 z" class="primitive"/>
              </g>
              <g transform="translate(82.38,78.71)" id="img-634a9f4e-209">
                <path d="M-0.38,-0 L 0.38 -0 0.38 0 -0.38 0 z" class="primitive"/>
              </g>
              <g transform="translate(83.09,78.72)" id="img-634a9f4e-210">
                <path d="M-0.38,-0 L 0.38 -0 0.38 0 -0.38 0 z" class="primitive"/>
              </g>
              <g transform="translate(83.8,78.72)" id="img-634a9f4e-211">
                <path d="M-0.38,-0 L 0.38 -0 0.38 0 -0.38 0 z" class="primitive"/>
              </g>
              <g transform="translate(84.51,78.71)" id="img-634a9f4e-212">
                <path d="M-0.38,-0 L 0.38 -0 0.38 0 -0.38 0 z" class="primitive"/>
              </g>
              <g transform="translate(85.22,78.72)" id="img-634a9f4e-213">
                <path d="M-0.38,-0 L 0.38 -0 0.38 0 -0.38 0 z" class="primitive"/>
              </g>
              <g transform="translate(85.93,78.71)" id="img-634a9f4e-214">
                <path d="M-0.38,-0 L 0.38 -0 0.38 0 -0.38 0 z" class="primitive"/>
              </g>
              <g transform="translate(86.64,78.71)" id="img-634a9f4e-215">
                <path d="M-0.38,-0 L 0.38 -0 0.38 0 -0.38 0 z" class="primitive"/>
              </g>
              <g transform="translate(87.35,78.72)" id="img-634a9f4e-216">
                <path d="M-0.38,-0 L 0.38 -0 0.38 0 -0.38 0 z" class="primitive"/>
              </g>
              <g transform="translate(88.06,78.71)" id="img-634a9f4e-217">
                <path d="M-0.38,-0 L 0.38 -0 0.38 0 -0.38 0 z" class="primitive"/>
              </g>
              <g transform="translate(88.77,78.71)" id="img-634a9f4e-218">
                <path d="M-0.38,-0 L 0.38 -0 0.38 0 -0.38 0 z" class="primitive"/>
              </g>
              <g transform="translate(89.48,78.72)" id="img-634a9f4e-219">
                <path d="M-0.38,-0 L 0.38 -0 0.38 0 -0.38 0 z" class="primitive"/>
              </g>
              <g transform="translate(90.19,78.71)" id="img-634a9f4e-220">
                <path d="M-0.38,-0 L 0.38 -0 0.38 0 -0.38 0 z" class="primitive"/>
              </g>
              <g transform="translate(90.91,78.71)" id="img-634a9f4e-221">
                <path d="M-0.38,-0 L 0.38 -0 0.38 0 -0.38 0 z" class="primitive"/>
              </g>
              <g transform="translate(91.62,78.72)" id="img-634a9f4e-222">
                <path d="M-0.38,-0 L 0.38 -0 0.38 0 -0.38 0 z" class="primitive"/>
              </g>
              <g transform="translate(92.33,78.71)" id="img-634a9f4e-223">
                <path d="M-0.38,-0 L 0.38 -0 0.38 0 -0.38 0 z" class="primitive"/>
              </g>
              <g transform="translate(93.04,78.71)" id="img-634a9f4e-224">
                <path d="M-0.38,-0 L 0.38 -0 0.38 0 -0.38 0 z" class="primitive"/>
              </g>
              <g transform="translate(93.75,78.72)" id="img-634a9f4e-225">
                <path d="M-0.38,-0 L 0.38 -0 0.38 0 -0.38 0 z" class="primitive"/>
              </g>
              <g transform="translate(94.46,78.72)" id="img-634a9f4e-226">
                <path d="M-0.38,-0 L 0.38 -0 0.38 0 -0.38 0 z" class="primitive"/>
              </g>
              <g transform="translate(95.17,78.72)" id="img-634a9f4e-227">
                <path d="M-0.38,-0 L 0.38 -0 0.38 0 -0.38 0 z" class="primitive"/>
              </g>
              <g transform="translate(95.88,78.71)" id="img-634a9f4e-228">
                <path d="M-0.38,-0 L 0.38 -0 0.38 0 -0.38 0 z" class="primitive"/>
              </g>
              <g transform="translate(96.59,78.72)" id="img-634a9f4e-229">
                <path d="M-0.38,-0 L 0.38 -0 0.38 0 -0.38 0 z" class="primitive"/>
              </g>
              <g transform="translate(97.3,78.72)" id="img-634a9f4e-230">
                <path d="M-0.38,-0 L 0.38 -0 0.38 0 -0.38 0 z" class="primitive"/>
              </g>
              <g transform="translate(98.01,78.72)" id="img-634a9f4e-231">
                <path d="M-0.38,-0 L 0.38 -0 0.38 0 -0.38 0 z" class="primitive"/>
              </g>
              <g transform="translate(98.72,78.72)" id="img-634a9f4e-232">
                <path d="M-0.38,-0 L 0.38 -0 0.38 0 -0.38 0 z" class="primitive"/>
              </g>
              <g transform="translate(99.43,78.72)" id="img-634a9f4e-233">
                <path d="M-0.38,-0 L 0.38 -0 0.38 0 -0.38 0 z" class="primitive"/>
              </g>
            </g>
          </g>
        </g>
      </g>
    </g>
  </g>
  <g class="guide ylabels" font-size="2.82" font-family="'PT Sans Caption','Helvetica Neue','Helvetica',sans-serif" fill="#6C606B" id="img-634a9f4e-234">
    <g transform="translate(25.72,78.71)" id="img-634a9f4e-235">
      <g class="primitive">
        <text text-anchor="end" dy="0.35em">0</text>
      </g>
    </g>
    <g transform="translate(25.72,60.79)" id="img-634a9f4e-236">
      <g class="primitive">
        <text text-anchor="end" dy="0.35em">5.0×10³</text>
      </g>
    </g>
    <g transform="translate(25.72,42.86)" id="img-634a9f4e-237">
      <g class="primitive">
        <text text-anchor="end" dy="0.35em">1.0×10⁴</text>
      </g>
    </g>
    <g transform="translate(25.72,24.93)" id="img-634a9f4e-238">
      <g class="primitive">
        <text text-anchor="end" dy="0.35em">1.5×10⁴</text>
      </g>
    </g>
    <g transform="translate(25.72,7)" id="img-634a9f4e-239">
      <g class="primitive">
        <text text-anchor="end" dy="0.35em">2.0×10⁴</text>
      </g>
    </g>
  </g>
  <g font-size="3.88" font-family="'PT Sans','Helvetica Neue','Helvetica',sans-serif" fill="#564A55" stroke="#000000" stroke-opacity="0.000" id="img-634a9f4e-240">
    <g transform="translate(8.81,40.86)" id="img-634a9f4e-241">
      <g class="primitive">
        <text text-anchor="middle" dy="0.35em" transform="rotate(-90,0, 2)">frequency</text>
      </g>
    </g>
  </g>
</g>
<defs>
  <clipPath id="img-634a9f4e-13">
    <path d="M26.72,5 L 111.8 5 111.8 80.72 26.72 80.72" />
  </clipPath>
</defs>
</svg>
