<?xml version="1.0" encoding="UTF-8"?>
<svg xmlns="http://www.w3.org/2000/svg"
     xmlns:xlink="http://www.w3.org/1999/xlink"
     xmlns:gadfly="http://www.gadflyjl.org/ns"
     version="1.2"
     width="141.42mm" height="100mm" viewBox="0 0 141.42 100"
     stroke="none"
     fill="#000000"
     stroke-width="0.3"
     font-size="3.88"
>
<defs>
  <marker id="arrow" markerWidth="15" markerHeight="7" refX="5" refY="3.5" orient="auto" markerUnits="strokeWidth">
    <path d="M0,0 L15,3.5 L0,7 z" stroke="context-stroke" fill="context-stroke"/>
  </marker>
</defs>
<g class="plotroot xscalable yscalable" id="img-f95c425f-1">
  <g font-size="3.88" font-family="'PT Sans','Helvetica Neue','Helvetica',sans-serif" fill="#564A55" stroke="#000000" stroke-opacity="0.000" id="img-f95c425f-2">
    <g transform="translate(73.38,88.39)">
      <g class="primitive">
        <text text-anchor="middle" dy="0.6em">degree</text>
      </g>
    </g>
  </g>
  <g class="guide xlabels" font-size="2.82" font-family="'PT Sans Caption','Helvetica Neue','Helvetica',sans-serif" fill="#6C606B" id="img-f95c425f-3">
    <g transform="translate(12.35,81.72)">
      <g class="primitive">
        <text text-anchor="middle" dy="0.6em">0</text>
      </g>
    </g>
    <g transform="translate(36.76,81.72)">
      <g class="primitive">
        <text text-anchor="middle" dy="0.6em">20</text>
      </g>
    </g>
    <g transform="translate(61.18,81.72)">
      <g class="primitive">
        <text text-anchor="middle" dy="0.6em">40</text>
      </g>
    </g>
    <g transform="translate(85.59,81.72)">
      <g class="primitive">
        <text text-anchor="middle" dy="0.6em">60</text>
      </g>
    </g>
    <g transform="translate(110.01,81.72)">
      <g class="primitive">
        <text text-anchor="middle" dy="0.6em">80</text>
      </g>
    </g>
    <g transform="translate(134.42,81.72)">
      <g class="primitive">
        <text text-anchor="middle" dy="0.6em">100</text>
      </g>
    </g>
  </g>
  <g clip-path="url(#img-f95c425f-4)">
    <g id="img-f95c425f-5">
      <g pointer-events="visible" stroke-width="0.3" fill="#000000" fill-opacity="0.000" stroke="#000000" stroke-opacity="0.000" class="guide background" id="img-f95c425f-6">
        <g transform="translate(73.38,45.66)" id="img-f95c425f-7">
          <path d="M-63.04,-35.05 L63.04,-35.05 63.04,35.05 -63.04,35.05  z" class="primitive"/>
        </g>
      </g>
      <g class="guide ygridlines xfixed" stroke-dasharray="0.5,0.5" stroke-width="0.2" stroke="#D0D0E0" id="img-f95c425f-8">
        <g transform="translate(73.38,78.72)" id="img-f95c425f-9">
          <path fill="none" d="M-63.04,0 L63.04,0 " class="primitive"/>
        </g>
        <g transform="translate(73.38,62.19)" id="img-f95c425f-10">
          <path fill="none" d="M-63.04,0 L63.04,0 " class="primitive"/>
        </g>
        <g transform="translate(73.38,45.66)" id="img-f95c425f-11">
          <path fill="none" d="M-63.04,0 L63.04,0 " class="primitive"/>
        </g>
        <g transform="translate(73.38,29.14)" id="img-f95c425f-12">
          <path fill="none" d="M-63.04,0 L63.04,0 " class="primitive"/>
        </g>
        <g transform="translate(73.38,12.61)" id="img-f95c425f-13">
          <path fill="none" d="M-63.04,0 L63.04,0 " class="primitive"/>
        </g>
      </g>
      <g class="guide xgridlines yfixed" stroke-dasharray="0.5,0.5" stroke-width="0.2" stroke="#D0D0E0" id="img-f95c425f-14">
        <g transform="translate(12.35,45.66)" id="img-f95c425f-15">
          <path fill="none" d="M0,-35.05 L0,35.05 " class="primitive"/>
        </g>
        <g transform="translate(36.76,45.66)" id="img-f95c425f-16">
          <path fill="none" d="M0,-35.05 L0,35.05 " class="primitive"/>
        </g>
        <g transform="translate(61.18,45.66)" id="img-f95c425f-17">
          <path fill="none" d="M0,-35.05 L0,35.05 " class="primitive"/>
        </g>
        <g transform="translate(85.59,45.66)" id="img-f95c425f-18">
          <path fill="none" d="M0,-35.05 L0,35.05 " class="primitive"/>
        </g>
        <g transform="translate(110.01,45.66)" id="img-f95c425f-19">
          <path fill="none" d="M0,-35.05 L0,35.05 " class="primitive"/>
        </g>
        <g transform="translate(134.42,45.66)" id="img-f95c425f-20">
          <path fill="none" d="M0,-35.05 L0,35.05 " class="primitive"/>
        </g>
      </g>
      <g class="plotpanel" id="img-f95c425f-21">
        <metadata>
          <boundingbox value="10.346666666666664mm 10.611666666666665mm 126.07468957064285mm 70.10333333333334mm"/>
          <unitbox value="-1.6383412540587532 41.21022641319147 103.2766825081175 -42.420452826382935"/>
        </metadata>
        <g shape-rendering="crispEdges" stroke-width="0.3" id="img-f95c425f-22">
          <g class="geometry" fill-opacity="1" stroke="#000000" stroke-opacity="0.000" fill="#00BFFF" id="img-f95c425f-23">
            <g transform="translate(19.98,77.06)" id="img-f95c425f-24">
              <path d="M-0.33,-1.65 L0.33,-1.65 0.33,1.65 -0.33,1.65  z" class="primitive"/>
            </g>
            <g transform="translate(20.59,78.72)" id="img-f95c425f-25">
              <path d="M-0.33,-0 L0.33,-0 0.33,0 -0.33,0  z" class="primitive"/>
            </g>
            <g transform="translate(21.2,78.72)" id="img-f95c425f-26">
              <path d="M-0.33,-0 L0.33,-0 0.33,0 -0.33,0  z" class="primitive"/>
            </g>
            <g transform="translate(21.81,78.72)" id="img-f95c425f-27">
              <path d="M-0.33,-0 L0.33,-0 0.33,0 -0.33,0  z" class="primitive"/>
            </g>
            <g transform="translate(22.42,77.89)" id="img-f95c425f-28">
              <path d="M-0.33,-0.83 L0.33,-0.83 0.33,0.83 -0.33,0.83  z" class="primitive"/>
            </g>
            <g transform="translate(23.03,78.72)" id="img-f95c425f-29">
              <path d="M-0.33,-0 L0.33,-0 0.33,0 -0.33,0  z" class="primitive"/>
            </g>
            <g transform="translate(23.64,78.72)" id="img-f95c425f-30">
              <path d="M-0.33,-0 L0.33,-0 0.33,0 -0.33,0  z" class="primitive"/>
            </g>
            <g transform="translate(24.25,78.72)" id="img-f95c425f-31">
              <path d="M-0.33,-0 L0.33,-0 0.33,0 -0.33,0  z" class="primitive"/>
            </g>
            <g transform="translate(24.86,78.72)" id="img-f95c425f-32">
              <path d="M-0.33,-0 L0.33,-0 0.33,0 -0.33,0  z" class="primitive"/>
            </g>
            <g transform="translate(25.47,78.72)" id="img-f95c425f-33">
              <path d="M-0.33,-0 L0.33,-0 0.33,0 -0.33,0  z" class="primitive"/>
            </g>
            <g transform="translate(26.08,77.06)" id="img-f95c425f-34">
              <path d="M-0.33,-1.65 L0.33,-1.65 0.33,1.65 -0.33,1.65  z" class="primitive"/>
            </g>
            <g transform="translate(26.69,78.72)" id="img-f95c425f-35">
              <path d="M-0.33,-0 L0.33,-0 0.33,0 -0.33,0  z" class="primitive"/>
            </g>
            <g transform="translate(27.3,78.72)" id="img-f95c425f-36">
              <path d="M-0.33,-0 L0.33,-0 0.33,0 -0.33,0  z" class="primitive"/>
            </g>
            <g transform="translate(27.91,78.72)" id="img-f95c425f-37">
              <path d="M-0.33,-0 L0.33,-0 0.33,0 -0.33,0  z" class="primitive"/>
            </g>
            <g transform="translate(28.52,78.72)" id="img-f95c425f-38">
              <path d="M-0.33,-0 L0.33,-0 0.33,0 -0.33,0  z" class="primitive"/>
            </g>
            <g transform="translate(29.13,78.72)" id="img-f95c425f-39">
              <path d="M-0.33,-0 L0.33,-0 0.33,0 -0.33,0  z" class="primitive"/>
            </g>
            <g transform="translate(29.74,77.89)" id="img-f95c425f-40">
              <path d="M-0.33,-0.83 L0.33,-0.83 0.33,0.83 -0.33,0.83  z" class="primitive"/>
            </g>
            <g transform="translate(30.35,78.72)" id="img-f95c425f-41">
              <path d="M-0.33,-0 L0.33,-0 0.33,0 -0.33,0  z" class="primitive"/>
            </g>
            <g transform="translate(30.96,77.89)" id="img-f95c425f-42">
              <path d="M-0.33,-0.83 L0.33,-0.83 0.33,0.83 -0.33,0.83  z" class="primitive"/>
            </g>
            <g transform="translate(31.57,78.72)" id="img-f95c425f-43">
              <path d="M-0.33,-0 L0.33,-0 0.33,0 -0.33,0  z" class="primitive"/>
            </g>
            <g transform="translate(32.18,75.41)" id="img-f95c425f-44">
              <path d="M-0.33,-3.31 L0.33,-3.31 0.33,3.31 -0.33,3.31  z" class="primitive"/>
            </g>
            <g transform="translate(32.79,78.72)" id="img-f95c425f-45">
              <path d="M-0.33,-0 L0.33,-0 0.33,0 -0.33,0  z" class="primitive"/>
            </g>
            <g transform="translate(33.4,75.41)" id="img-f95c425f-46">
              <path d="M-0.33,-3.31 L0.33,-3.31 0.33,3.31 -0.33,3.31  z" class="primitive"/>
            </g>
            <g transform="translate(34.01,78.72)" id="img-f95c425f-47">
              <path d="M-0.33,-0 L0.33,-0 0.33,0 -0.33,0  z" class="primitive"/>
            </g>
            <g transform="translate(34.63,72.1)" id="img-f95c425f-48">
              <path d="M-0.33,-6.61 L0.33,-6.61 0.33,6.61 -0.33,6.61  z" class="primitive"/>
            </g>
            <g transform="translate(35.24,78.72)" id="img-f95c425f-49">
              <path d="M-0.33,-0 L0.33,-0 0.33,0 -0.33,0  z" class="primitive"/>
            </g>
            <g transform="translate(35.85,75.41)" id="img-f95c425f-50">
              <path d="M-0.33,-3.31 L0.33,-3.31 0.33,3.31 -0.33,3.31  z" class="primitive"/>
            </g>
            <g transform="translate(36.46,78.72)" id="img-f95c425f-51">
              <path d="M-0.33,-0 L0.33,-0 0.33,0 -0.33,0  z" class="primitive"/>
            </g>
            <g transform="translate(37.07,73.76)" id="img-f95c425f-52">
              <path d="M-0.33,-4.96 L0.33,-4.96 0.33,4.96 -0.33,4.96  z" class="primitive"/>
            </g>
            <g transform="translate(37.68,78.72)" id="img-f95c425f-53">
              <path d="M-0.33,-0 L0.33,-0 0.33,0 -0.33,0  z" class="primitive"/>
            </g>
            <g transform="translate(38.29,72.1)" id="img-f95c425f-54">
              <path d="M-0.33,-6.61 L0.33,-6.61 0.33,6.61 -0.33,6.61  z" class="primitive"/>
            </g>
            <g transform="translate(38.9,78.72)" id="img-f95c425f-55">
              <path d="M-0.33,-0 L0.33,-0 0.33,0 -0.33,0  z" class="primitive"/>
            </g>
            <g transform="translate(39.51,75.41)" id="img-f95c425f-56">
              <path d="M-0.33,-3.31 L0.33,-3.31 0.33,3.31 -0.33,3.31  z" class="primitive"/>
            </g>
            <g transform="translate(40.12,78.72)" id="img-f95c425f-57">
              <path d="M-0.33,-0 L0.33,-0 0.33,0 -0.33,0  z" class="primitive"/>
            </g>
            <g transform="translate(40.73,74.58)" id="img-f95c425f-58">
              <path d="M-0.33,-4.13 L0.33,-4.13 0.33,4.13 -0.33,4.13  z" class="primitive"/>
            </g>
            <g transform="translate(41.34,78.72)" id="img-f95c425f-59">
              <path d="M-0.33,-0 L0.33,-0 0.33,0 -0.33,0  z" class="primitive"/>
            </g>
            <g transform="translate(41.95,72.1)" id="img-f95c425f-60">
              <path d="M-0.33,-6.61 L0.33,-6.61 0.33,6.61 -0.33,6.61  z" class="primitive"/>
            </g>
            <g transform="translate(42.56,78.72)" id="img-f95c425f-61">
              <path d="M-0.33,-0 L0.33,-0 0.33,0 -0.33,0  z" class="primitive"/>
            </g>
            <g transform="translate(43.17,73.76)" id="img-f95c425f-62">
              <path d="M-0.33,-4.96 L0.33,-4.96 0.33,4.96 -0.33,4.96  z" class="primitive"/>
            </g>
            <g transform="translate(43.78,78.72)" id="img-f95c425f-63">
              <path d="M-0.33,-0 L0.33,-0 0.33,0 -0.33,0  z" class="primitive"/>
            </g>
            <g transform="translate(44.39,73.76)" id="img-f95c425f-64">
              <path d="M-0.33,-4.96 L0.33,-4.96 0.33,4.96 -0.33,4.96  z" class="primitive"/>
            </g>
            <g transform="translate(45,78.72)" id="img-f95c425f-65">
              <path d="M-0.33,-0 L0.33,-0 0.33,0 -0.33,0  z" class="primitive"/>
            </g>
            <g transform="translate(45.61,75.41)" id="img-f95c425f-66">
              <path d="M-0.33,-3.31 L0.33,-3.31 0.33,3.31 -0.33,3.31  z" class="primitive"/>
            </g>
            <g transform="translate(46.22,78.72)" id="img-f95c425f-67">
              <path d="M-0.33,-0 L0.33,-0 0.33,0 -0.33,0  z" class="primitive"/>
            </g>
            <g transform="translate(46.83,71.28)" id="img-f95c425f-68">
              <path d="M-0.33,-7.44 L0.33,-7.44 0.33,7.44 -0.33,7.44  z" class="primitive"/>
            </g>
            <g transform="translate(47.44,78.72)" id="img-f95c425f-69">
              <path d="M-0.33,-0 L0.33,-0 0.33,0 -0.33,0  z" class="primitive"/>
            </g>
            <g transform="translate(48.05,71.28)" id="img-f95c425f-70">
              <path d="M-0.33,-7.44 L0.33,-7.44 0.33,7.44 -0.33,7.44  z" class="primitive"/>
            </g>
            <g transform="translate(48.66,78.72)" id="img-f95c425f-71">
              <path d="M-0.33,-0 L0.33,-0 0.33,0 -0.33,0  z" class="primitive"/>
            </g>
            <g transform="translate(49.27,75.41)" id="img-f95c425f-72">
              <path d="M-0.33,-3.31 L0.33,-3.31 0.33,3.31 -0.33,3.31  z" class="primitive"/>
            </g>
            <g transform="translate(49.88,78.72)" id="img-f95c425f-73">
              <path d="M-0.33,-0 L0.33,-0 0.33,0 -0.33,0  z" class="primitive"/>
            </g>
            <g transform="translate(50.5,70.45)" id="img-f95c425f-74">
              <path d="M-0.33,-8.26 L0.33,-8.26 0.33,8.26 -0.33,8.26  z" class="primitive"/>
            </g>
            <g transform="translate(51.11,78.72)" id="img-f95c425f-75">
              <path d="M-0.33,-0 L0.33,-0 0.33,0 -0.33,0  z" class="primitive"/>
            </g>
            <g transform="translate(51.72,74.58)" id="img-f95c425f-76">
              <path d="M-0.33,-4.13 L0.33,-4.13 0.33,4.13 -0.33,4.13  z" class="primitive"/>
            </g>
            <g transform="translate(52.33,78.72)" id="img-f95c425f-77">
              <path d="M-0.33,-0 L0.33,-0 0.33,0 -0.33,0  z" class="primitive"/>
            </g>
            <g transform="translate(52.94,72.93)" id="img-f95c425f-78">
              <path d="M-0.33,-5.78 L0.33,-5.78 0.33,5.78 -0.33,5.78  z" class="primitive"/>
            </g>
            <g transform="translate(53.55,78.72)" id="img-f95c425f-79">
              <path d="M-0.33,-0 L0.33,-0 0.33,0 -0.33,0  z" class="primitive"/>
            </g>
            <g transform="translate(54.16,67.97)" id="img-f95c425f-80">
              <path d="M-0.33,-10.74 L0.33,-10.74 0.33,10.74 -0.33,10.74  z" class="primitive"/>
            </g>
            <g transform="translate(54.77,78.72)" id="img-f95c425f-81">
              <path d="M-0.33,-0 L0.33,-0 0.33,0 -0.33,0  z" class="primitive"/>
            </g>
            <g transform="translate(55.38,68.8)" id="img-f95c425f-82">
              <path d="M-0.33,-9.92 L0.33,-9.92 0.33,9.92 -0.33,9.92  z" class="primitive"/>
            </g>
            <g transform="translate(55.99,78.72)" id="img-f95c425f-83">
              <path d="M-0.33,-0 L0.33,-0 0.33,0 -0.33,0  z" class="primitive"/>
            </g>
            <g transform="translate(56.6,72.1)" id="img-f95c425f-84">
              <path d="M-0.33,-6.61 L0.33,-6.61 0.33,6.61 -0.33,6.61  z" class="primitive"/>
            </g>
            <g transform="translate(57.21,78.72)" id="img-f95c425f-85">
              <path d="M-0.33,-0 L0.33,-0 0.33,0 -0.33,0  z" class="primitive"/>
            </g>
            <g transform="translate(57.82,67.97)" id="img-f95c425f-86">
              <path d="M-0.33,-10.74 L0.33,-10.74 0.33,10.74 -0.33,10.74  z" class="primitive"/>
            </g>
            <g transform="translate(58.43,78.72)" id="img-f95c425f-87">
              <path d="M-0.33,-0 L0.33,-0 0.33,0 -0.33,0  z" class="primitive"/>
            </g>
            <g transform="translate(59.04,72.1)" id="img-f95c425f-88">
              <path d="M-0.33,-6.61 L0.33,-6.61 0.33,6.61 -0.33,6.61  z" class="primitive"/>
            </g>
            <g transform="translate(59.65,78.72)" id="img-f95c425f-89">
              <path d="M-0.33,-0 L0.33,-0 0.33,0 -0.33,0  z" class="primitive"/>
            </g>
            <g transform="translate(60.26,62.19)" id="img-f95c425f-90">
              <path d="M-0.33,-16.53 L0.33,-16.53 0.33,16.53 -0.33,16.53  z" class="primitive"/>
            </g>
            <g transform="translate(60.87,78.72)" id="img-f95c425f-91">
              <path d="M-0.33,-0 L0.33,-0 0.33,0 -0.33,0  z" class="primitive"/>
            </g>
            <g transform="translate(61.48,65.49)" id="img-f95c425f-92">
              <path d="M-0.33,-13.22 L0.33,-13.22 0.33,13.22 -0.33,13.22  z" class="primitive"/>
            </g>
            <g transform="translate(62.09,78.72)" id="img-f95c425f-93">
              <path d="M-0.33,-0 L0.33,-0 0.33,0 -0.33,0  z" class="primitive"/>
            </g>
            <g transform="translate(62.7,64.67)" id="img-f95c425f-94">
              <path d="M-0.33,-14.05 L0.33,-14.05 0.33,14.05 -0.33,14.05  z" class="primitive"/>
            </g>
            <g transform="translate(63.31,78.72)" id="img-f95c425f-95">
              <path d="M-0.33,-0 L0.33,-0 0.33,0 -0.33,0  z" class="primitive"/>
            </g>
            <g transform="translate(63.92,64.67)" id="img-f95c425f-96">
              <path d="M-0.33,-14.05 L0.33,-14.05 0.33,14.05 -0.33,14.05  z" class="primitive"/>
            </g>
            <g transform="translate(64.53,78.72)" id="img-f95c425f-97">
              <path d="M-0.33,-0 L0.33,-0 0.33,0 -0.33,0  z" class="primitive"/>
            </g>
            <g transform="translate(65.14,63.84)" id="img-f95c425f-98">
              <path d="M-0.33,-14.87 L0.33,-14.87 0.33,14.87 -0.33,14.87  z" class="primitive"/>
            </g>
            <g transform="translate(65.75,78.72)" id="img-f95c425f-99">
              <path d="M-0.33,-0 L0.33,-0 0.33,0 -0.33,0  z" class="primitive"/>
            </g>
            <g transform="translate(66.36,69.63)" id="img-f95c425f-100">
              <path d="M-0.33,-9.09 L0.33,-9.09 0.33,9.09 -0.33,9.09  z" class="primitive"/>
            </g>
            <g transform="translate(66.98,78.72)" id="img-f95c425f-101">
              <path d="M-0.33,-0 L0.33,-0 0.33,0 -0.33,0  z" class="primitive"/>
            </g>
            <g transform="translate(67.59,55.58)" id="img-f95c425f-102">
              <path d="M-0.33,-23.14 L0.33,-23.14 0.33,23.14 -0.33,23.14  z" class="primitive"/>
            </g>
            <g transform="translate(68.2,78.72)" id="img-f95c425f-103">
              <path d="M-0.33,-0 L0.33,-0 0.33,0 -0.33,0  z" class="primitive"/>
            </g>
            <g transform="translate(68.81,62.19)" id="img-f95c425f-104">
              <path d="M-0.33,-16.53 L0.33,-16.53 0.33,16.53 -0.33,16.53  z" class="primitive"/>
            </g>
            <g transform="translate(69.42,78.72)" id="img-f95c425f-105">
              <path d="M-0.33,-0 L0.33,-0 0.33,0 -0.33,0  z" class="primitive"/>
            </g>
            <g transform="translate(70.03,64.67)" id="img-f95c425f-106">
              <path d="M-0.33,-14.05 L0.33,-14.05 0.33,14.05 -0.33,14.05  z" class="primitive"/>
            </g>
            <g transform="translate(70.64,78.72)" id="img-f95c425f-107">
              <path d="M-0.33,-0 L0.33,-0 0.33,0 -0.33,0  z" class="primitive"/>
            </g>
            <g transform="translate(71.25,58.06)" id="img-f95c425f-108">
              <path d="M-0.33,-20.66 L0.33,-20.66 0.33,20.66 -0.33,20.66  z" class="primitive"/>
            </g>
            <g transform="translate(71.86,78.72)" id="img-f95c425f-109">
              <path d="M-0.33,-0 L0.33,-0 0.33,0 -0.33,0  z" class="primitive"/>
            </g>
            <g transform="translate(72.47,65.49)" id="img-f95c425f-110">
              <path d="M-0.33,-13.22 L0.33,-13.22 0.33,13.22 -0.33,13.22  z" class="primitive"/>
            </g>
            <g transform="translate(73.08,78.72)" id="img-f95c425f-111">
              <path d="M-0.33,-0 L0.33,-0 0.33,0 -0.33,0  z" class="primitive"/>
            </g>
            <g transform="translate(73.69,58.88)" id="img-f95c425f-112">
              <path d="M-0.33,-19.83 L0.33,-19.83 0.33,19.83 -0.33,19.83  z" class="primitive"/>
            </g>
            <g transform="translate(74.3,78.72)" id="img-f95c425f-113">
              <path d="M-0.33,-0 L0.33,-0 0.33,0 -0.33,0  z" class="primitive"/>
            </g>
            <g transform="translate(74.91,64.67)" id="img-f95c425f-114">
              <path d="M-0.33,-14.05 L0.33,-14.05 0.33,14.05 -0.33,14.05  z" class="primitive"/>
            </g>
            <g transform="translate(75.52,78.72)" id="img-f95c425f-115">
              <path d="M-0.33,-0 L0.33,-0 0.33,0 -0.33,0  z" class="primitive"/>
            </g>
            <g transform="translate(76.13,61.36)" id="img-f95c425f-116">
              <path d="M-0.33,-17.35 L0.33,-17.35 0.33,17.35 -0.33,17.35  z" class="primitive"/>
            </g>
            <g transform="translate(76.74,78.72)" id="img-f95c425f-117">
              <path d="M-0.33,-0 L0.33,-0 0.33,0 -0.33,0  z" class="primitive"/>
            </g>
            <g transform="translate(77.35,58.88)" id="img-f95c425f-118">
              <path d="M-0.33,-19.83 L0.33,-19.83 0.33,19.83 -0.33,19.83  z" class="primitive"/>
            </g>
            <g transform="translate(77.96,78.72)" id="img-f95c425f-119">
              <path d="M-0.33,-0 L0.33,-0 0.33,0 -0.33,0  z" class="primitive"/>
            </g>
            <g transform="translate(78.57,59.71)" id="img-f95c425f-120">
              <path d="M-0.33,-19 L0.33,-19 0.33,19 -0.33,19  z" class="primitive"/>
            </g>
            <g transform="translate(79.18,78.72)" id="img-f95c425f-121">
              <path d="M-0.33,-0 L0.33,-0 0.33,0 -0.33,0  z" class="primitive"/>
            </g>
            <g transform="translate(79.79,61.36)" id="img-f95c425f-122">
              <path d="M-0.33,-17.35 L0.33,-17.35 0.33,17.35 -0.33,17.35  z" class="primitive"/>
            </g>
            <g transform="translate(80.4,78.72)" id="img-f95c425f-123">
              <path d="M-0.33,-0 L0.33,-0 0.33,0 -0.33,0  z" class="primitive"/>
            </g>
            <g transform="translate(81.01,48.97)" id="img-f95c425f-124">
              <path d="M-0.33,-29.75 L0.33,-29.75 0.33,29.75 -0.33,29.75  z" class="primitive"/>
            </g>
            <g transform="translate(81.62,78.72)" id="img-f95c425f-125">
              <path d="M-0.33,-0 L0.33,-0 0.33,0 -0.33,0  z" class="primitive"/>
            </g>
            <g transform="translate(82.23,55.58)" id="img-f95c425f-126">
              <path d="M-0.33,-23.14 L0.33,-23.14 0.33,23.14 -0.33,23.14  z" class="primitive"/>
            </g>
            <g transform="translate(82.84,78.72)" id="img-f95c425f-127">
              <path d="M-0.33,-0 L0.33,-0 0.33,0 -0.33,0  z" class="primitive"/>
            </g>
            <g transform="translate(83.46,55.58)" id="img-f95c425f-128">
              <path d="M-0.33,-23.14 L0.33,-23.14 0.33,23.14 -0.33,23.14  z" class="primitive"/>
            </g>
            <g transform="translate(84.07,78.72)" id="img-f95c425f-129">
              <path d="M-0.33,-0 L0.33,-0 0.33,0 -0.33,0  z" class="primitive"/>
            </g>
            <g transform="translate(84.68,57.23)" id="img-f95c425f-130">
              <path d="M-0.33,-21.48 L0.33,-21.48 0.33,21.48 -0.33,21.48  z" class="primitive"/>
            </g>
            <g transform="translate(85.29,78.72)" id="img-f95c425f-131">
              <path d="M-0.33,-0 L0.33,-0 0.33,0 -0.33,0  z" class="primitive"/>
            </g>
            <g transform="translate(85.9,57.23)" id="img-f95c425f-132">
              <path d="M-0.33,-21.48 L0.33,-21.48 0.33,21.48 -0.33,21.48  z" class="primitive"/>
            </g>
            <g transform="translate(86.51,78.72)" id="img-f95c425f-133">
              <path d="M-0.33,-0 L0.33,-0 0.33,0 -0.33,0  z" class="primitive"/>
            </g>
            <g transform="translate(87.12,63.84)" id="img-f95c425f-134">
              <path d="M-0.33,-14.87 L0.33,-14.87 0.33,14.87 -0.33,14.87  z" class="primitive"/>
            </g>
            <g transform="translate(87.73,78.72)" id="img-f95c425f-135">
              <path d="M-0.33,-0 L0.33,-0 0.33,0 -0.33,0  z" class="primitive"/>
            </g>
            <g transform="translate(88.34,58.06)" id="img-f95c425f-136">
              <path d="M-0.33,-20.66 L0.33,-20.66 0.33,20.66 -0.33,20.66  z" class="primitive"/>
            </g>
            <g transform="translate(88.95,78.72)" id="img-f95c425f-137">
              <path d="M-0.33,-0 L0.33,-0 0.33,0 -0.33,0  z" class="primitive"/>
            </g>
            <g transform="translate(89.56,59.71)" id="img-f95c425f-138">
              <path d="M-0.33,-19 L0.33,-19 0.33,19 -0.33,19  z" class="primitive"/>
            </g>
            <g transform="translate(90.17,78.72)" id="img-f95c425f-139">
              <path d="M-0.33,-0 L0.33,-0 0.33,0 -0.33,0  z" class="primitive"/>
            </g>
            <g transform="translate(90.78,53.93)" id="img-f95c425f-140">
              <path d="M-0.33,-24.79 L0.33,-24.79 0.33,24.79 -0.33,24.79  z" class="primitive"/>
            </g>
            <g transform="translate(91.39,78.72)" id="img-f95c425f-141">
              <path d="M-0.33,-0 L0.33,-0 0.33,0 -0.33,0  z" class="primitive"/>
            </g>
            <g transform="translate(92,48.97)" id="img-f95c425f-142">
              <path d="M-0.33,-29.75 L0.33,-29.75 0.33,29.75 -0.33,29.75  z" class="primitive"/>
            </g>
            <g transform="translate(92.61,78.72)" id="img-f95c425f-143">
              <path d="M-0.33,-0 L0.33,-0 0.33,0 -0.33,0  z" class="primitive"/>
            </g>
            <g transform="translate(93.22,60.54)" id="img-f95c425f-144">
              <path d="M-0.33,-18.18 L0.33,-18.18 0.33,18.18 -0.33,18.18  z" class="primitive"/>
            </g>
            <g transform="translate(93.83,78.72)" id="img-f95c425f-145">
              <path d="M-0.33,-0 L0.33,-0 0.33,0 -0.33,0  z" class="primitive"/>
            </g>
            <g transform="translate(94.44,55.58)" id="img-f95c425f-146">
              <path d="M-0.33,-23.14 L0.33,-23.14 0.33,23.14 -0.33,23.14  z" class="primitive"/>
            </g>
            <g transform="translate(95.05,78.72)" id="img-f95c425f-147">
              <path d="M-0.33,-0 L0.33,-0 0.33,0 -0.33,0  z" class="primitive"/>
            </g>
            <g transform="translate(95.66,50.62)" id="img-f95c425f-148">
              <path d="M-0.33,-28.09 L0.33,-28.09 0.33,28.09 -0.33,28.09  z" class="primitive"/>
            </g>
            <g transform="translate(96.27,78.72)" id="img-f95c425f-149">
              <path d="M-0.33,-0 L0.33,-0 0.33,0 -0.33,0  z" class="primitive"/>
            </g>
            <g transform="translate(96.88,59.71)" id="img-f95c425f-150">
              <path d="M-0.33,-19 L0.33,-19 0.33,19 -0.33,19  z" class="primitive"/>
            </g>
            <g transform="translate(97.49,78.72)" id="img-f95c425f-151">
              <path d="M-0.33,-0 L0.33,-0 0.33,0 -0.33,0  z" class="primitive"/>
            </g>
            <g transform="translate(98.1,58.06)" id="img-f95c425f-152">
              <path d="M-0.33,-20.66 L0.33,-20.66 0.33,20.66 -0.33,20.66  z" class="primitive"/>
            </g>
            <g transform="translate(98.71,78.72)" id="img-f95c425f-153">
              <path d="M-0.33,-0 L0.33,-0 0.33,0 -0.33,0  z" class="primitive"/>
            </g>
            <g transform="translate(99.32,57.23)" id="img-f95c425f-154">
              <path d="M-0.33,-21.48 L0.33,-21.48 0.33,21.48 -0.33,21.48  z" class="primitive"/>
            </g>
            <g transform="translate(99.94,78.72)" id="img-f95c425f-155">
              <path d="M-0.33,-0 L0.33,-0 0.33,0 -0.33,0  z" class="primitive"/>
            </g>
            <g transform="translate(100.55,50.62)" id="img-f95c425f-156">
              <path d="M-0.33,-28.09 L0.33,-28.09 0.33,28.09 -0.33,28.09  z" class="primitive"/>
            </g>
            <g transform="translate(101.16,78.72)" id="img-f95c425f-157">
              <path d="M-0.33,-0 L0.33,-0 0.33,0 -0.33,0  z" class="primitive"/>
            </g>
            <g transform="translate(101.77,46.49)" id="img-f95c425f-158">
              <path d="M-0.33,-32.23 L0.33,-32.23 0.33,32.23 -0.33,32.23  z" class="primitive"/>
            </g>
            <g transform="translate(102.38,78.72)" id="img-f95c425f-159">
              <path d="M-0.33,-0 L0.33,-0 0.33,0 -0.33,0  z" class="primitive"/>
            </g>
            <g transform="translate(102.99,54.75)" id="img-f95c425f-160">
              <path d="M-0.33,-23.96 L0.33,-23.96 0.33,23.96 -0.33,23.96  z" class="primitive"/>
            </g>
            <g transform="translate(103.6,78.72)" id="img-f95c425f-161">
              <path d="M-0.33,-0 L0.33,-0 0.33,0 -0.33,0  z" class="primitive"/>
            </g>
            <g transform="translate(104.21,48.97)" id="img-f95c425f-162">
              <path d="M-0.33,-29.75 L0.33,-29.75 0.33,29.75 -0.33,29.75  z" class="primitive"/>
            </g>
            <g transform="translate(104.82,78.72)" id="img-f95c425f-163">
              <path d="M-0.33,-0 L0.33,-0 0.33,0 -0.33,0  z" class="primitive"/>
            </g>
            <g transform="translate(105.43,51.45)" id="img-f95c425f-164">
              <path d="M-0.33,-27.27 L0.33,-27.27 0.33,27.27 -0.33,27.27  z" class="primitive"/>
            </g>
            <g transform="translate(106.04,78.72)" id="img-f95c425f-165">
              <path d="M-0.33,-0 L0.33,-0 0.33,0 -0.33,0  z" class="primitive"/>
            </g>
            <g transform="translate(106.65,63.84)" id="img-f95c425f-166">
              <path d="M-0.33,-14.87 L0.33,-14.87 0.33,14.87 -0.33,14.87  z" class="primitive"/>
            </g>
            <g transform="translate(107.26,78.72)" id="img-f95c425f-167">
              <path d="M-0.33,-0 L0.33,-0 0.33,0 -0.33,0  z" class="primitive"/>
            </g>
            <g transform="translate(107.87,55.58)" id="img-f95c425f-168">
              <path d="M-0.33,-23.14 L0.33,-23.14 0.33,23.14 -0.33,23.14  z" class="primitive"/>
            </g>
            <g transform="translate(108.48,78.72)" id="img-f95c425f-169">
              <path d="M-0.33,-0 L0.33,-0 0.33,0 -0.33,0  z" class="primitive"/>
            </g>
            <g transform="translate(109.09,63.84)" id="img-f95c425f-170">
              <path d="M-0.33,-14.87 L0.33,-14.87 0.33,14.87 -0.33,14.87  z" class="primitive"/>
            </g>
            <g transform="translate(109.7,78.72)" id="img-f95c425f-171">
              <path d="M-0.33,-0 L0.33,-0 0.33,0 -0.33,0  z" class="primitive"/>
            </g>
            <g transform="translate(110.31,45.66)" id="img-f95c425f-172">
              <path d="M-0.33,-33.05 L0.33,-33.05 0.33,33.05 -0.33,33.05  z" class="primitive"/>
            </g>
            <g transform="translate(110.92,53.93)" id="img-f95c425f-173">
              <path d="M-0.33,-24.79 L0.33,-24.79 0.33,24.79 -0.33,24.79  z" class="primitive"/>
            </g>
          </g>
        </g>
      </g>
    </g>
  </g>
  <g class="guide ylabels" font-size="2.82" font-family="'PT Sans Caption','Helvetica Neue','Helvetica',sans-serif" fill="#6C606B" id="img-f95c425f-174">
    <g transform="translate(9.35,78.72)" id="img-f95c425f-175">
      <g class="primitive">
        <text text-anchor="end" dy="0.35em">0</text>
      </g>
    </g>
    <g transform="translate(9.35,62.19)" id="img-f95c425f-176">
      <g class="primitive">
        <text text-anchor="end" dy="0.35em">10</text>
      </g>
    </g>
    <g transform="translate(9.35,45.66)" id="img-f95c425f-177">
      <g class="primitive">
        <text text-anchor="end" dy="0.35em">20</text>
      </g>
    </g>
    <g transform="translate(9.35,29.14)" id="img-f95c425f-178">
      <g class="primitive">
        <text text-anchor="end" dy="0.35em">30</text>
      </g>
    </g>
    <g transform="translate(9.35,12.61)" id="img-f95c425f-179">
      <g class="primitive">
        <text text-anchor="end" dy="0.35em">40</text>
      </g>
    </g>
  </g>
  <g font-size="3.88" font-family="'PT Sans','Helvetica Neue','Helvetica',sans-serif" fill="#564A55" stroke="#000000" stroke-opacity="0.000" id="img-f95c425f-180">
    <g transform="translate(73.38,5)" id="img-f95c425f-181">
      <g class="primitive">
        <text text-anchor="middle" dy="0.6em">Degree distribution</text>
      </g>
    </g>
  </g>
</g>
<defs>
  <clipPath id="img-f95c425f-4">
    <path d="M10.35,10.61 L136.42,10.61 136.42,80.72 10.35,80.72 " />
  </clipPath>
</defs>
</svg>
