<?xml version="1.0" encoding="UTF-8"?>
<svg xmlns="http://www.w3.org/2000/svg"
     xmlns:xlink="http://www.w3.org/1999/xlink"
     xmlns:gadfly="http://www.gadflyjl.org/ns"
     version="1.2"
     width="140mm" height="80mm" viewBox="0 0 140 80"
     stroke="none"
     fill="#000000"
     stroke-width="0.3"
     font-size="3.88"
>
<defs>
  <marker id="arrow" markerWidth="15" markerHeight="7" refX="5" refY="3.5" orient="auto" markerUnits="strokeWidth">
    <path d="M0,0 L15,3.5 L0,7 z" stroke="context-stroke" fill="context-stroke"/>
  </marker>
</defs>
<g class="plotroot xscalable yscalable" id="img-b8c6eefa-1">
  <g font-size="3.88" font-family="'PT Sans','Helvetica Neue','Helvetica',sans-serif" fill="#564A55" stroke="#000000" stroke-opacity="0.000" id="img-b8c6eefa-2">
    <g transform="translate(72.67,68.39)">
      <g class="primitive">
        <text text-anchor="middle" dy="0.6em">degree</text>
      </g>
    </g>
  </g>
  <g class="guide xlabels" font-size="2.82" font-family="'PT Sans Caption','Helvetica Neue','Helvetica',sans-serif" fill="#6C606B" id="img-b8c6eefa-3">
    <g transform="translate(12.35,61.72)">
      <g class="primitive">
        <text text-anchor="middle" dy="0.6em">0</text>
      </g>
    </g>
    <g transform="translate(42.51,61.72)">
      <g class="primitive">
        <text text-anchor="middle" dy="0.6em">25</text>
      </g>
    </g>
    <g transform="translate(72.67,61.72)">
      <g class="primitive">
        <text text-anchor="middle" dy="0.6em">50</text>
      </g>
    </g>
    <g transform="translate(102.84,61.72)">
      <g class="primitive">
        <text text-anchor="middle" dy="0.6em">75</text>
      </g>
    </g>
    <g transform="translate(133,61.72)">
      <g class="primitive">
        <text text-anchor="middle" dy="0.6em">100</text>
      </g>
    </g>
  </g>
  <g clip-path="url(#img-b8c6eefa-4)">
    <g id="img-b8c6eefa-5">
      <g pointer-events="visible" stroke-width="0.3" fill="#000000" fill-opacity="0.000" stroke="#000000" stroke-opacity="0.000" class="guide background" id="img-b8c6eefa-6">
        <g transform="translate(72.67,35.66)" id="img-b8c6eefa-7">
          <path d="M-62.33,-25.05 L 62.33 -25.05 62.33 25.05 -62.33 25.05 z" class="primitive"/>
        </g>
      </g>
      <g class="guide ygridlines xfixed" stroke-dasharray="0.5,0.5" stroke-width="0.2" stroke="#D0D0E0" id="img-b8c6eefa-8">
        <g transform="translate(72.67,58.71)" id="img-b8c6eefa-9">
          <path fill="none" d="M-62.33,0 L 62.33 0" class="primitive"/>
        </g>
        <g transform="translate(72.67,51.03)" id="img-b8c6eefa-10">
          <path fill="none" d="M-62.33,0 L 62.33 0" class="primitive"/>
        </g>
        <g transform="translate(72.67,43.35)" id="img-b8c6eefa-11">
          <path fill="none" d="M-62.33,0 L 62.33 0" class="primitive"/>
        </g>
        <g transform="translate(72.67,35.66)" id="img-b8c6eefa-12">
          <path fill="none" d="M-62.33,0 L 62.33 0" class="primitive"/>
        </g>
        <g transform="translate(72.67,27.98)" id="img-b8c6eefa-13">
          <path fill="none" d="M-62.33,0 L 62.33 0" class="primitive"/>
        </g>
        <g transform="translate(72.67,20.3)" id="img-b8c6eefa-14">
          <path fill="none" d="M-62.33,0 L 62.33 0" class="primitive"/>
        </g>
        <g transform="translate(72.67,12.61)" id="img-b8c6eefa-15">
          <path fill="none" d="M-62.33,0 L 62.33 0" class="primitive"/>
        </g>
      </g>
      <g class="guide xgridlines yfixed" stroke-dasharray="0.5,0.5" stroke-width="0.2" stroke="#D0D0E0" id="img-b8c6eefa-16">
        <g transform="translate(12.35,35.66)" id="img-b8c6eefa-17">
          <path fill="none" d="M0,-25.05 L 0 25.05" class="primitive"/>
        </g>
        <g transform="translate(42.51,35.66)" id="img-b8c6eefa-18">
          <path fill="none" d="M0,-25.05 L 0 25.05" class="primitive"/>
        </g>
        <g transform="translate(72.67,35.66)" id="img-b8c6eefa-19">
          <path fill="none" d="M0,-25.05 L 0 25.05" class="primitive"/>
        </g>
        <g transform="translate(102.84,35.66)" id="img-b8c6eefa-20">
          <path fill="none" d="M0,-25.05 L 0 25.05" class="primitive"/>
        </g>
        <g transform="translate(133,35.66)" id="img-b8c6eefa-21">
          <path fill="none" d="M0,-25.05 L 0 25.05" class="primitive"/>
        </g>
      </g>
      <g class="plotpanel" id="img-b8c6eefa-22">
        <metadata>
          <boundingbox value="10.346666666666664mm 10.611666666666665mm 124.65333333333334mm 50.10333333333334mm"/>
          <unitbox value="-1.6576417283677753 62.60284867327019 103.31528345673556 -65.20569734654039"/>
        </metadata>
        <g shape-rendering="crispEdges" stroke-width="0.3" id="img-b8c6eefa-23">
          <g class="geometry" fill-opacity="1" stroke="#000000" stroke-opacity="0.000" fill="#00BFFF" id="img-b8c6eefa-24">
            <g transform="translate(18.7,57.95)" id="img-b8c6eefa-25">
              <path d="M-0.34,-0.77 L 0.34 -0.77 0.34 0.77 -0.34 0.77 z" class="primitive"/>
            </g>
            <g transform="translate(19.33,58.72)" id="img-b8c6eefa-26">
              <path d="M-0.34,-0 L 0.34 -0 0.34 0 -0.34 0 z" class="primitive"/>
            </g>
            <g transform="translate(19.97,58.72)" id="img-b8c6eefa-27">
              <path d="M-0.34,-0 L 0.34 -0 0.34 0 -0.34 0 z" class="primitive"/>
            </g>
            <g transform="translate(20.6,58.72)" id="img-b8c6eefa-28">
              <path d="M-0.34,-0 L 0.34 -0 0.34 0 -0.34 0 z" class="primitive"/>
            </g>
            <g transform="translate(21.24,58.72)" id="img-b8c6eefa-29">
              <path d="M-0.34,-0 L 0.34 -0 0.34 0 -0.34 0 z" class="primitive"/>
            </g>
            <g transform="translate(21.87,58.72)" id="img-b8c6eefa-30">
              <path d="M-0.34,-0 L 0.34 -0 0.34 0 -0.34 0 z" class="primitive"/>
            </g>
            <g transform="translate(22.51,58.72)" id="img-b8c6eefa-31">
              <path d="M-0.34,-0 L 0.34 -0 0.34 0 -0.34 0 z" class="primitive"/>
            </g>
            <g transform="translate(23.15,58.33)" id="img-b8c6eefa-32">
              <path d="M-0.34,-0.38 L 0.34 -0.38 0.34 0.38 -0.34 0.38 z" class="primitive"/>
            </g>
            <g transform="translate(23.78,58.72)" id="img-b8c6eefa-33">
              <path d="M-0.34,-0 L 0.34 -0 0.34 0 -0.34 0 z" class="primitive"/>
            </g>
            <g transform="translate(24.42,57.56)" id="img-b8c6eefa-34">
              <path d="M-0.34,-1.15 L 0.34 -1.15 0.34 1.15 -0.34 1.15 z" class="primitive"/>
            </g>
            <g transform="translate(25.05,58.72)" id="img-b8c6eefa-35">
              <path d="M-0.34,-0 L 0.34 -0 0.34 0 -0.34 0 z" class="primitive"/>
            </g>
            <g transform="translate(25.69,58.72)" id="img-b8c6eefa-36">
              <path d="M-0.34,-0 L 0.34 -0 0.34 0 -0.34 0 z" class="primitive"/>
            </g>
            <g transform="translate(26.32,58.72)" id="img-b8c6eefa-37">
              <path d="M-0.34,-0 L 0.34 -0 0.34 0 -0.34 0 z" class="primitive"/>
            </g>
            <g transform="translate(26.96,56.41)" id="img-b8c6eefa-38">
              <path d="M-0.34,-2.31 L 0.34 -2.31 0.34 2.31 -0.34 2.31 z" class="primitive"/>
            </g>
            <g transform="translate(27.59,58.72)" id="img-b8c6eefa-39">
              <path d="M-0.34,-0 L 0.34 -0 0.34 0 -0.34 0 z" class="primitive"/>
            </g>
            <g transform="translate(28.23,57.56)" id="img-b8c6eefa-40">
              <path d="M-0.34,-1.15 L 0.34 -1.15 0.34 1.15 -0.34 1.15 z" class="primitive"/>
            </g>
            <g transform="translate(28.86,58.72)" id="img-b8c6eefa-41">
              <path d="M-0.34,-0 L 0.34 -0 0.34 0 -0.34 0 z" class="primitive"/>
            </g>
            <g transform="translate(29.5,52.18)" id="img-b8c6eefa-42">
              <path d="M-0.34,-6.53 L 0.34 -6.53 0.34 6.53 -0.34 6.53 z" class="primitive"/>
            </g>
            <g transform="translate(30.13,54.49)" id="img-b8c6eefa-43">
              <path d="M-0.34,-4.23 L 0.34 -4.23 0.34 4.23 -0.34 4.23 z" class="primitive"/>
            </g>
            <g transform="translate(30.77,58.72)" id="img-b8c6eefa-44">
              <path d="M-0.34,-0 L 0.34 -0 0.34 0 -0.34 0 z" class="primitive"/>
            </g>
            <g transform="translate(31.41,55.26)" id="img-b8c6eefa-45">
              <path d="M-0.34,-3.46 L 0.34 -3.46 0.34 3.46 -0.34 3.46 z" class="primitive"/>
            </g>
            <g transform="translate(32.04,58.72)" id="img-b8c6eefa-46">
              <path d="M-0.34,-0 L 0.34 -0 0.34 0 -0.34 0 z" class="primitive"/>
            </g>
            <g transform="translate(32.68,48.73)" id="img-b8c6eefa-47">
              <path d="M-0.34,-9.99 L 0.34 -9.99 0.34 9.99 -0.34 9.99 z" class="primitive"/>
            </g>
            <g transform="translate(33.31,58.72)" id="img-b8c6eefa-48">
              <path d="M-0.34,-0 L 0.34 -0 0.34 0 -0.34 0 z" class="primitive"/>
            </g>
            <g transform="translate(33.95,57.56)" id="img-b8c6eefa-49">
              <path d="M-0.34,-1.15 L 0.34 -1.15 0.34 1.15 -0.34 1.15 z" class="primitive"/>
            </g>
            <g transform="translate(34.58,58.72)" id="img-b8c6eefa-50">
              <path d="M-0.34,-0 L 0.34 -0 0.34 0 -0.34 0 z" class="primitive"/>
            </g>
            <g transform="translate(35.22,46.8)" id="img-b8c6eefa-51">
              <path d="M-0.34,-11.91 L 0.34 -11.91 0.34 11.91 -0.34 11.91 z" class="primitive"/>
            </g>
            <g transform="translate(35.85,58.72)" id="img-b8c6eefa-52">
              <path d="M-0.34,-0 L 0.34 -0 0.34 0 -0.34 0 z" class="primitive"/>
            </g>
            <g transform="translate(36.49,46.8)" id="img-b8c6eefa-53">
              <path d="M-0.34,-11.91 L 0.34 -11.91 0.34 11.91 -0.34 11.91 z" class="primitive"/>
            </g>
            <g transform="translate(37.12,58.72)" id="img-b8c6eefa-54">
              <path d="M-0.34,-0 L 0.34 -0 0.34 0 -0.34 0 z" class="primitive"/>
            </g>
            <g transform="translate(37.76,51.8)" id="img-b8c6eefa-55">
              <path d="M-0.34,-6.92 L 0.34 -6.92 0.34 6.92 -0.34 6.92 z" class="primitive"/>
            </g>
            <g transform="translate(38.4,58.72)" id="img-b8c6eefa-56">
              <path d="M-0.34,-0 L 0.34 -0 0.34 0 -0.34 0 z" class="primitive"/>
            </g>
            <g transform="translate(39.03,35.66)" id="img-b8c6eefa-57">
              <path d="M-0.34,-23.05 L 0.34 -23.05 0.34 23.05 -0.34 23.05 z" class="primitive"/>
            </g>
            <g transform="translate(39.67,58.72)" id="img-b8c6eefa-58">
              <path d="M-0.34,-0 L 0.34 -0 0.34 0 -0.34 0 z" class="primitive"/>
            </g>
            <g transform="translate(40.3,41.43)" id="img-b8c6eefa-59">
              <path d="M-0.34,-17.29 L 0.34 -17.29 0.34 17.29 -0.34 17.29 z" class="primitive"/>
            </g>
            <g transform="translate(40.94,58.72)" id="img-b8c6eefa-60">
              <path d="M-0.34,-0 L 0.34 -0 0.34 0 -0.34 0 z" class="primitive"/>
            </g>
            <g transform="translate(41.57,39.51)" id="img-b8c6eefa-61">
              <path d="M-0.34,-19.21 L 0.34 -19.21 0.34 19.21 -0.34 19.21 z" class="primitive"/>
            </g>
            <g transform="translate(42.21,42.19)" id="img-b8c6eefa-62">
              <path d="M-0.34,-16.52 L 0.34 -16.52 0.34 16.52 -0.34 16.52 z" class="primitive"/>
            </g>
            <g transform="translate(42.84,58.72)" id="img-b8c6eefa-63">
              <path d="M-0.34,-0 L 0.34 -0 0.34 0 -0.34 0 z" class="primitive"/>
            </g>
            <g transform="translate(43.48,50.26)" id="img-b8c6eefa-64">
              <path d="M-0.34,-8.45 L 0.34 -8.45 0.34 8.45 -0.34 8.45 z" class="primitive"/>
            </g>
            <g transform="translate(44.11,58.72)" id="img-b8c6eefa-65">
              <path d="M-0.34,-0 L 0.34 -0 0.34 0 -0.34 0 z" class="primitive"/>
            </g>
            <g transform="translate(44.75,50.26)" id="img-b8c6eefa-66">
              <path d="M-0.34,-8.45 L 0.34 -8.45 0.34 8.45 -0.34 8.45 z" class="primitive"/>
            </g>
            <g transform="translate(45.39,58.72)" id="img-b8c6eefa-67">
              <path d="M-0.34,-0 L 0.34 -0 0.34 0 -0.34 0 z" class="primitive"/>
            </g>
            <g transform="translate(46.02,47.19)" id="img-b8c6eefa-68">
              <path d="M-0.34,-11.53 L 0.34 -11.53 0.34 11.53 -0.34 11.53 z" class="primitive"/>
            </g>
            <g transform="translate(46.66,58.72)" id="img-b8c6eefa-69">
              <path d="M-0.34,-0 L 0.34 -0 0.34 0 -0.34 0 z" class="primitive"/>
            </g>
            <g transform="translate(47.29,49.11)" id="img-b8c6eefa-70">
              <path d="M-0.34,-9.6 L 0.34 -9.6 0.34 9.6 -0.34 9.6 z" class="primitive"/>
            </g>
            <g transform="translate(47.93,58.72)" id="img-b8c6eefa-71">
              <path d="M-0.34,-0 L 0.34 -0 0.34 0 -0.34 0 z" class="primitive"/>
            </g>
            <g transform="translate(48.56,56.41)" id="img-b8c6eefa-72">
              <path d="M-0.34,-2.31 L 0.34 -2.31 0.34 2.31 -0.34 2.31 z" class="primitive"/>
            </g>
            <g transform="translate(49.2,58.72)" id="img-b8c6eefa-73">
              <path d="M-0.34,-0 L 0.34 -0 0.34 0 -0.34 0 z" class="primitive"/>
            </g>
            <g transform="translate(49.83,44.5)" id="img-b8c6eefa-74">
              <path d="M-0.34,-14.22 L 0.34 -14.22 0.34 14.22 -0.34 14.22 z" class="primitive"/>
            </g>
            <g transform="translate(50.47,58.72)" id="img-b8c6eefa-75">
              <path d="M-0.34,-0 L 0.34 -0 0.34 0 -0.34 0 z" class="primitive"/>
            </g>
            <g transform="translate(51.1,55.64)" id="img-b8c6eefa-76">
              <path d="M-0.34,-3.07 L 0.34 -3.07 0.34 3.07 -0.34 3.07 z" class="primitive"/>
            </g>
            <g transform="translate(51.74,58.72)" id="img-b8c6eefa-77">
              <path d="M-0.34,-0 L 0.34 -0 0.34 0 -0.34 0 z" class="primitive"/>
            </g>
            <g transform="translate(52.38,55.26)" id="img-b8c6eefa-78">
              <path d="M-0.34,-3.46 L 0.34 -3.46 0.34 3.46 -0.34 3.46 z" class="primitive"/>
            </g>
            <g transform="translate(53.01,58.72)" id="img-b8c6eefa-79">
              <path d="M-0.34,-0 L 0.34 -0 0.34 0 -0.34 0 z" class="primitive"/>
            </g>
            <g transform="translate(53.65,42.96)" id="img-b8c6eefa-80">
              <path d="M-0.34,-15.75 L 0.34 -15.75 0.34 15.75 -0.34 15.75 z" class="primitive"/>
            </g>
            <g transform="translate(54.28,54.87)" id="img-b8c6eefa-81">
              <path d="M-0.34,-3.84 L 0.34 -3.84 0.34 3.84 -0.34 3.84 z" class="primitive"/>
            </g>
            <g transform="translate(54.92,58.72)" id="img-b8c6eefa-82">
              <path d="M-0.34,-0 L 0.34 -0 0.34 0 -0.34 0 z" class="primitive"/>
            </g>
            <g transform="translate(55.55,47.96)" id="img-b8c6eefa-83">
              <path d="M-0.34,-10.76 L 0.34 -10.76 0.34 10.76 -0.34 10.76 z" class="primitive"/>
            </g>
            <g transform="translate(56.19,58.72)" id="img-b8c6eefa-84">
              <path d="M-0.34,-0 L 0.34 -0 0.34 0 -0.34 0 z" class="primitive"/>
            </g>
            <g transform="translate(56.82,54.49)" id="img-b8c6eefa-85">
              <path d="M-0.34,-4.23 L 0.34 -4.23 0.34 4.23 -0.34 4.23 z" class="primitive"/>
            </g>
            <g transform="translate(57.46,58.72)" id="img-b8c6eefa-86">
              <path d="M-0.34,-0 L 0.34 -0 0.34 0 -0.34 0 z" class="primitive"/>
            </g>
            <g transform="translate(58.09,53.34)" id="img-b8c6eefa-87">
              <path d="M-0.34,-5.38 L 0.34 -5.38 0.34 5.38 -0.34 5.38 z" class="primitive"/>
            </g>
            <g transform="translate(58.73,58.72)" id="img-b8c6eefa-88">
              <path d="M-0.34,-0 L 0.34 -0 0.34 0 -0.34 0 z" class="primitive"/>
            </g>
            <g transform="translate(59.37,52.57)" id="img-b8c6eefa-89">
              <path d="M-0.34,-6.15 L 0.34 -6.15 0.34 6.15 -0.34 6.15 z" class="primitive"/>
            </g>
            <g transform="translate(60,58.72)" id="img-b8c6eefa-90">
              <path d="M-0.34,-0 L 0.34 -0 0.34 0 -0.34 0 z" class="primitive"/>
            </g>
            <g transform="translate(60.64,47.19)" id="img-b8c6eefa-91">
              <path d="M-0.34,-11.53 L 0.34 -11.53 0.34 11.53 -0.34 11.53 z" class="primitive"/>
            </g>
            <g transform="translate(61.27,58.72)" id="img-b8c6eefa-92">
              <path d="M-0.34,-0 L 0.34 -0 0.34 0 -0.34 0 z" class="primitive"/>
            </g>
            <g transform="translate(61.91,52.57)" id="img-b8c6eefa-93">
              <path d="M-0.34,-6.15 L 0.34 -6.15 0.34 6.15 -0.34 6.15 z" class="primitive"/>
            </g>
            <g transform="translate(62.54,58.72)" id="img-b8c6eefa-94">
              <path d="M-0.34,-0 L 0.34 -0 0.34 0 -0.34 0 z" class="primitive"/>
            </g>
            <g transform="translate(63.18,57.95)" id="img-b8c6eefa-95">
              <path d="M-0.34,-0.77 L 0.34 -0.77 0.34 0.77 -0.34 0.77 z" class="primitive"/>
            </g>
            <g transform="translate(63.81,58.72)" id="img-b8c6eefa-96">
              <path d="M-0.34,-0 L 0.34 -0 0.34 0 -0.34 0 z" class="primitive"/>
            </g>
            <g transform="translate(64.45,55.64)" id="img-b8c6eefa-97">
              <path d="M-0.34,-3.07 L 0.34 -3.07 0.34 3.07 -0.34 3.07 z" class="primitive"/>
            </g>
            <g transform="translate(65.08,58.72)" id="img-b8c6eefa-98">
              <path d="M-0.34,-0 L 0.34 -0 0.34 0 -0.34 0 z" class="primitive"/>
            </g>
            <g transform="translate(65.72,55.64)" id="img-b8c6eefa-99">
              <path d="M-0.34,-3.07 L 0.34 -3.07 0.34 3.07 -0.34 3.07 z" class="primitive"/>
            </g>
            <g transform="translate(66.36,56.03)" id="img-b8c6eefa-100">
              <path d="M-0.34,-2.69 L 0.34 -2.69 0.34 2.69 -0.34 2.69 z" class="primitive"/>
            </g>
            <g transform="translate(66.99,58.72)" id="img-b8c6eefa-101">
              <path d="M-0.34,-0 L 0.34 -0 0.34 0 -0.34 0 z" class="primitive"/>
            </g>
            <g transform="translate(67.63,54.49)" id="img-b8c6eefa-102">
              <path d="M-0.34,-4.23 L 0.34 -4.23 0.34 4.23 -0.34 4.23 z" class="primitive"/>
            </g>
            <g transform="translate(68.26,58.72)" id="img-b8c6eefa-103">
              <path d="M-0.34,-0 L 0.34 -0 0.34 0 -0.34 0 z" class="primitive"/>
            </g>
            <g transform="translate(68.9,56.03)" id="img-b8c6eefa-104">
              <path d="M-0.34,-2.69 L 0.34 -2.69 0.34 2.69 -0.34 2.69 z" class="primitive"/>
            </g>
            <g transform="translate(69.53,58.72)" id="img-b8c6eefa-105">
              <path d="M-0.34,-0 L 0.34 -0 0.34 0 -0.34 0 z" class="primitive"/>
            </g>
            <g transform="translate(70.17,55.26)" id="img-b8c6eefa-106">
              <path d="M-0.34,-3.46 L 0.34 -3.46 0.34 3.46 -0.34 3.46 z" class="primitive"/>
            </g>
            <g transform="translate(70.8,58.72)" id="img-b8c6eefa-107">
              <path d="M-0.34,-0 L 0.34 -0 0.34 0 -0.34 0 z" class="primitive"/>
            </g>
            <g transform="translate(71.44,56.79)" id="img-b8c6eefa-108">
              <path d="M-0.34,-1.92 L 0.34 -1.92 0.34 1.92 -0.34 1.92 z" class="primitive"/>
            </g>
            <g transform="translate(72.07,58.72)" id="img-b8c6eefa-109">
              <path d="M-0.34,-0 L 0.34 -0 0.34 0 -0.34 0 z" class="primitive"/>
            </g>
            <g transform="translate(72.71,54.1)" id="img-b8c6eefa-110">
              <path d="M-0.34,-4.61 L 0.34 -4.61 0.34 4.61 -0.34 4.61 z" class="primitive"/>
            </g>
            <g transform="translate(73.34,58.72)" id="img-b8c6eefa-111">
              <path d="M-0.34,-0 L 0.34 -0 0.34 0 -0.34 0 z" class="primitive"/>
            </g>
            <g transform="translate(73.98,54.87)" id="img-b8c6eefa-112">
              <path d="M-0.34,-3.84 L 0.34 -3.84 0.34 3.84 -0.34 3.84 z" class="primitive"/>
            </g>
            <g transform="translate(74.62,58.72)" id="img-b8c6eefa-113">
              <path d="M-0.34,-0 L 0.34 -0 0.34 0 -0.34 0 z" class="primitive"/>
            </g>
            <g transform="translate(75.25,53.34)" id="img-b8c6eefa-114">
              <path d="M-0.34,-5.38 L 0.34 -5.38 0.34 5.38 -0.34 5.38 z" class="primitive"/>
            </g>
            <g transform="translate(75.89,58.72)" id="img-b8c6eefa-115">
              <path d="M-0.34,-0 L 0.34 -0 0.34 0 -0.34 0 z" class="primitive"/>
            </g>
            <g transform="translate(76.52,55.26)" id="img-b8c6eefa-116">
              <path d="M-0.34,-3.46 L 0.34 -3.46 0.34 3.46 -0.34 3.46 z" class="primitive"/>
            </g>
            <g transform="translate(77.16,58.72)" id="img-b8c6eefa-117">
              <path d="M-0.34,-0 L 0.34 -0 0.34 0 -0.34 0 z" class="primitive"/>
            </g>
            <g transform="translate(77.79,56.41)" id="img-b8c6eefa-118">
              <path d="M-0.34,-2.31 L 0.34 -2.31 0.34 2.31 -0.34 2.31 z" class="primitive"/>
            </g>
            <g transform="translate(78.43,54.1)" id="img-b8c6eefa-119">
              <path d="M-0.34,-4.61 L 0.34 -4.61 0.34 4.61 -0.34 4.61 z" class="primitive"/>
            </g>
            <g transform="translate(79.06,58.72)" id="img-b8c6eefa-120">
              <path d="M-0.34,-0 L 0.34 -0 0.34 0 -0.34 0 z" class="primitive"/>
            </g>
            <g transform="translate(79.7,56.79)" id="img-b8c6eefa-121">
              <path d="M-0.34,-1.92 L 0.34 -1.92 0.34 1.92 -0.34 1.92 z" class="primitive"/>
            </g>
            <g transform="translate(80.33,58.72)" id="img-b8c6eefa-122">
              <path d="M-0.34,-0 L 0.34 -0 0.34 0 -0.34 0 z" class="primitive"/>
            </g>
            <g transform="translate(80.97,54.87)" id="img-b8c6eefa-123">
              <path d="M-0.34,-3.84 L 0.34 -3.84 0.34 3.84 -0.34 3.84 z" class="primitive"/>
            </g>
            <g transform="translate(81.61,58.72)" id="img-b8c6eefa-124">
              <path d="M-0.34,-0 L 0.34 -0 0.34 0 -0.34 0 z" class="primitive"/>
            </g>
            <g transform="translate(82.24,55.64)" id="img-b8c6eefa-125">
              <path d="M-0.34,-3.07 L 0.34 -3.07 0.34 3.07 -0.34 3.07 z" class="primitive"/>
            </g>
            <g transform="translate(82.88,58.72)" id="img-b8c6eefa-126">
              <path d="M-0.34,-0 L 0.34 -0 0.34 0 -0.34 0 z" class="primitive"/>
            </g>
            <g transform="translate(83.51,56.41)" id="img-b8c6eefa-127">
              <path d="M-0.34,-2.31 L 0.34 -2.31 0.34 2.31 -0.34 2.31 z" class="primitive"/>
            </g>
            <g transform="translate(84.15,58.72)" id="img-b8c6eefa-128">
              <path d="M-0.34,-0 L 0.34 -0 0.34 0 -0.34 0 z" class="primitive"/>
            </g>
            <g transform="translate(84.78,56.79)" id="img-b8c6eefa-129">
              <path d="M-0.34,-1.92 L 0.34 -1.92 0.34 1.92 -0.34 1.92 z" class="primitive"/>
            </g>
            <g transform="translate(85.42,58.72)" id="img-b8c6eefa-130">
              <path d="M-0.34,-0 L 0.34 -0 0.34 0 -0.34 0 z" class="primitive"/>
            </g>
            <g transform="translate(86.05,55.26)" id="img-b8c6eefa-131">
              <path d="M-0.34,-3.46 L 0.34 -3.46 0.34 3.46 -0.34 3.46 z" class="primitive"/>
            </g>
            <g transform="translate(86.69,58.72)" id="img-b8c6eefa-132">
              <path d="M-0.34,-0 L 0.34 -0 0.34 0 -0.34 0 z" class="primitive"/>
            </g>
            <g transform="translate(87.32,54.87)" id="img-b8c6eefa-133">
              <path d="M-0.34,-3.84 L 0.34 -3.84 0.34 3.84 -0.34 3.84 z" class="primitive"/>
            </g>
            <g transform="translate(87.96,58.72)" id="img-b8c6eefa-134">
              <path d="M-0.34,-0 L 0.34 -0 0.34 0 -0.34 0 z" class="primitive"/>
            </g>
            <g transform="translate(88.6,55.26)" id="img-b8c6eefa-135">
              <path d="M-0.34,-3.46 L 0.34 -3.46 0.34 3.46 -0.34 3.46 z" class="primitive"/>
            </g>
            <g transform="translate(89.23,58.72)" id="img-b8c6eefa-136">
              <path d="M-0.34,-0 L 0.34 -0 0.34 0 -0.34 0 z" class="primitive"/>
            </g>
            <g transform="translate(89.87,56.03)" id="img-b8c6eefa-137">
              <path d="M-0.34,-2.69 L 0.34 -2.69 0.34 2.69 -0.34 2.69 z" class="primitive"/>
            </g>
            <g transform="translate(90.5,54.87)" id="img-b8c6eefa-138">
              <path d="M-0.34,-3.84 L 0.34 -3.84 0.34 3.84 -0.34 3.84 z" class="primitive"/>
            </g>
            <g transform="translate(91.14,58.72)" id="img-b8c6eefa-139">
              <path d="M-0.34,-0 L 0.34 -0 0.34 0 -0.34 0 z" class="primitive"/>
            </g>
            <g transform="translate(91.77,57.18)" id="img-b8c6eefa-140">
              <path d="M-0.34,-1.54 L 0.34 -1.54 0.34 1.54 -0.34 1.54 z" class="primitive"/>
            </g>
            <g transform="translate(92.41,58.72)" id="img-b8c6eefa-141">
              <path d="M-0.34,-0 L 0.34 -0 0.34 0 -0.34 0 z" class="primitive"/>
            </g>
            <g transform="translate(93.04,54.87)" id="img-b8c6eefa-142">
              <path d="M-0.34,-3.84 L 0.34 -3.84 0.34 3.84 -0.34 3.84 z" class="primitive"/>
            </g>
            <g transform="translate(93.68,58.72)" id="img-b8c6eefa-143">
              <path d="M-0.34,-0 L 0.34 -0 0.34 0 -0.34 0 z" class="primitive"/>
            </g>
            <g transform="translate(94.31,56.41)" id="img-b8c6eefa-144">
              <path d="M-0.34,-2.31 L 0.34 -2.31 0.34 2.31 -0.34 2.31 z" class="primitive"/>
            </g>
            <g transform="translate(94.95,58.72)" id="img-b8c6eefa-145">
              <path d="M-0.34,-0 L 0.34 -0 0.34 0 -0.34 0 z" class="primitive"/>
            </g>
            <g transform="translate(95.59,53.34)" id="img-b8c6eefa-146">
              <path d="M-0.34,-5.38 L 0.34 -5.38 0.34 5.38 -0.34 5.38 z" class="primitive"/>
            </g>
            <g transform="translate(96.22,58.72)" id="img-b8c6eefa-147">
              <path d="M-0.34,-0 L 0.34 -0 0.34 0 -0.34 0 z" class="primitive"/>
            </g>
            <g transform="translate(96.86,54.87)" id="img-b8c6eefa-148">
              <path d="M-0.34,-3.84 L 0.34 -3.84 0.34 3.84 -0.34 3.84 z" class="primitive"/>
            </g>
            <g transform="translate(97.49,58.72)" id="img-b8c6eefa-149">
              <path d="M-0.34,-0 L 0.34 -0 0.34 0 -0.34 0 z" class="primitive"/>
            </g>
            <g transform="translate(98.13,54.87)" id="img-b8c6eefa-150">
              <path d="M-0.34,-3.84 L 0.34 -3.84 0.34 3.84 -0.34 3.84 z" class="primitive"/>
            </g>
            <g transform="translate(98.76,58.72)" id="img-b8c6eefa-151">
              <path d="M-0.34,-0 L 0.34 -0 0.34 0 -0.34 0 z" class="primitive"/>
            </g>
            <g transform="translate(99.4,51.03)" id="img-b8c6eefa-152">
              <path d="M-0.34,-7.68 L 0.34 -7.68 0.34 7.68 -0.34 7.68 z" class="primitive"/>
            </g>
            <g transform="translate(100.03,58.72)" id="img-b8c6eefa-153">
              <path d="M-0.34,-0 L 0.34 -0 0.34 0 -0.34 0 z" class="primitive"/>
            </g>
            <g transform="translate(100.67,53.34)" id="img-b8c6eefa-154">
              <path d="M-0.34,-5.38 L 0.34 -5.38 0.34 5.38 -0.34 5.38 z" class="primitive"/>
            </g>
            <g transform="translate(101.3,58.72)" id="img-b8c6eefa-155">
              <path d="M-0.34,-0 L 0.34 -0 0.34 0 -0.34 0 z" class="primitive"/>
            </g>
            <g transform="translate(101.94,52.57)" id="img-b8c6eefa-156">
              <path d="M-0.34,-6.15 L 0.34 -6.15 0.34 6.15 -0.34 6.15 z" class="primitive"/>
            </g>
            <g transform="translate(102.58,52.57)" id="img-b8c6eefa-157">
              <path d="M-0.34,-6.15 L 0.34 -6.15 0.34 6.15 -0.34 6.15 z" class="primitive"/>
            </g>
            <g transform="translate(103.21,58.72)" id="img-b8c6eefa-158">
              <path d="M-0.34,-0 L 0.34 -0 0.34 0 -0.34 0 z" class="primitive"/>
            </g>
            <g transform="translate(103.85,50.26)" id="img-b8c6eefa-159">
              <path d="M-0.34,-8.45 L 0.34 -8.45 0.34 8.45 -0.34 8.45 z" class="primitive"/>
            </g>
            <g transform="translate(104.48,58.72)" id="img-b8c6eefa-160">
              <path d="M-0.34,-0 L 0.34 -0 0.34 0 -0.34 0 z" class="primitive"/>
            </g>
            <g transform="translate(105.12,57.18)" id="img-b8c6eefa-161">
              <path d="M-0.34,-1.54 L 0.34 -1.54 0.34 1.54 -0.34 1.54 z" class="primitive"/>
            </g>
            <g transform="translate(105.75,58.72)" id="img-b8c6eefa-162">
              <path d="M-0.34,-0 L 0.34 -0 0.34 0 -0.34 0 z" class="primitive"/>
            </g>
            <g transform="translate(106.39,57.56)" id="img-b8c6eefa-163">
              <path d="M-0.34,-1.15 L 0.34 -1.15 0.34 1.15 -0.34 1.15 z" class="primitive"/>
            </g>
            <g transform="translate(107.02,58.72)" id="img-b8c6eefa-164">
              <path d="M-0.34,-0 L 0.34 -0 0.34 0 -0.34 0 z" class="primitive"/>
            </g>
            <g transform="translate(107.66,56.41)" id="img-b8c6eefa-165">
              <path d="M-0.34,-2.31 L 0.34 -2.31 0.34 2.31 -0.34 2.31 z" class="primitive"/>
            </g>
            <g transform="translate(108.29,58.72)" id="img-b8c6eefa-166">
              <path d="M-0.34,-0 L 0.34 -0 0.34 0 -0.34 0 z" class="primitive"/>
            </g>
            <g transform="translate(108.93,58.33)" id="img-b8c6eefa-167">
              <path d="M-0.34,-0.38 L 0.34 -0.38 0.34 0.38 -0.34 0.38 z" class="primitive"/>
            </g>
            <g transform="translate(109.57,58.72)" id="img-b8c6eefa-168">
              <path d="M-0.34,-0 L 0.34 -0 0.34 0 -0.34 0 z" class="primitive"/>
            </g>
            <g transform="translate(110.2,57.18)" id="img-b8c6eefa-169">
              <path d="M-0.34,-1.54 L 0.34 -1.54 0.34 1.54 -0.34 1.54 z" class="primitive"/>
            </g>
            <g transform="translate(110.84,58.72)" id="img-b8c6eefa-170">
              <path d="M-0.34,-0 L 0.34 -0 0.34 0 -0.34 0 z" class="primitive"/>
            </g>
            <g transform="translate(111.47,36.05)" id="img-b8c6eefa-171">
              <path d="M-0.34,-22.67 L 0.34 -22.67 0.34 22.67 -0.34 22.67 z" class="primitive"/>
            </g>
            <g transform="translate(112.11,58.72)" id="img-b8c6eefa-172">
              <path d="M-0.34,-0 L 0.34 -0 0.34 0 -0.34 0 z" class="primitive"/>
            </g>
            <g transform="translate(112.74,58.33)" id="img-b8c6eefa-173">
              <path d="M-0.34,-0.38 L 0.34 -0.38 0.34 0.38 -0.34 0.38 z" class="primitive"/>
            </g>
            <g transform="translate(113.38,58.33)" id="img-b8c6eefa-174">
              <path d="M-0.34,-0.38 L 0.34 -0.38 0.34 0.38 -0.34 0.38 z" class="primitive"/>
            </g>
          </g>
        </g>
      </g>
    </g>
  </g>
  <g class="guide ylabels" font-size="2.82" font-family="'PT Sans Caption','Helvetica Neue','Helvetica',sans-serif" fill="#6C606B" id="img-b8c6eefa-175">
    <g transform="translate(9.35,58.71)" id="img-b8c6eefa-176">
      <g class="primitive">
        <text text-anchor="end" dy="0.35em">0</text>
      </g>
    </g>
    <g transform="translate(9.35,51.03)" id="img-b8c6eefa-177">
      <g class="primitive">
        <text text-anchor="end" dy="0.35em">10</text>
      </g>
    </g>
    <g transform="translate(9.35,43.35)" id="img-b8c6eefa-178">
      <g class="primitive">
        <text text-anchor="end" dy="0.35em">20</text>
      </g>
    </g>
    <g transform="translate(9.35,35.66)" id="img-b8c6eefa-179">
      <g class="primitive">
        <text text-anchor="end" dy="0.35em">30</text>
      </g>
    </g>
    <g transform="translate(9.35,27.98)" id="img-b8c6eefa-180">
      <g class="primitive">
        <text text-anchor="end" dy="0.35em">40</text>
      </g>
    </g>
    <g transform="translate(9.35,20.3)" id="img-b8c6eefa-181">
      <g class="primitive">
        <text text-anchor="end" dy="0.35em">50</text>
      </g>
    </g>
    <g transform="translate(9.35,12.61)" id="img-b8c6eefa-182">
      <g class="primitive">
        <text text-anchor="end" dy="0.35em">60</text>
      </g>
    </g>
  </g>
  <g font-size="3.88" font-family="'PT Sans','Helvetica Neue','Helvetica',sans-serif" fill="#564A55" stroke="#000000" stroke-opacity="0.000" id="img-b8c6eefa-183">
    <g transform="translate(72.67,5)" id="img-b8c6eefa-184">
      <g class="primitive">
        <text text-anchor="middle" dy="0.6em">Degree distribution</text>
      </g>
    </g>
  </g>
</g>
<defs>
  <clipPath id="img-b8c6eefa-4">
    <path d="M10.35,10.61 L 135 10.61 135 60.72 10.35 60.72" />
  </clipPath>
</defs>
</svg>
