<?xml version="1.0" encoding="UTF-8"?>
<svg xmlns="http://www.w3.org/2000/svg"
     xmlns:xlink="http://www.w3.org/1999/xlink"
     xmlns:gadfly="http://www.gadflyjl.org/ns"
     version="1.2"
     width="141.42mm" height="100mm" viewBox="0 0 141.42 100"
     stroke="none"
     fill="#000000"
     stroke-width="0.3"
     font-size="3.88"
>
<defs>
  <marker id="arrow" markerWidth="15" markerHeight="7" refX="5" refY="3.5" orient="auto" markerUnits="strokeWidth">
    <path d="M0,0 L15,3.5 L0,7 z" stroke="context-stroke" fill="context-stroke"/>
  </marker>
</defs>
<g class="plotroot xscalable yscalable" id="img-e27d3f81-1">
  <g font-size="3.88" font-family="'PT Sans','Helvetica Neue','Helvetica',sans-serif" fill="#564A55" stroke="#000000" stroke-opacity="0.000" id="img-e27d3f81-2">
    <g transform="translate(74.22,88.39)">
      <g class="primitive">
        <text text-anchor="middle" dy="0.6em">degree</text>
      </g>
    </g>
  </g>
  <g class="guide xlabels" font-size="2.82" font-family="'PT Sans Caption','Helvetica Neue','Helvetica',sans-serif" fill="#6C606B" id="img-e27d3f81-3">
    <g transform="translate(14.02,81.72)">
      <g class="primitive">
        <text text-anchor="middle" dy="0.6em">0</text>
      </g>
    </g>
    <g transform="translate(54.15,81.72)">
      <g class="primitive">
        <text text-anchor="middle" dy="0.6em">50</text>
      </g>
    </g>
    <g transform="translate(94.29,81.72)">
      <g class="primitive">
        <text text-anchor="middle" dy="0.6em">100</text>
      </g>
    </g>
    <g transform="translate(134.42,81.72)">
      <g class="primitive">
        <text text-anchor="middle" dy="0.6em">150</text>
      </g>
    </g>
  </g>
  <g clip-path="url(#img-e27d3f81-4)">
    <g id="img-e27d3f81-5">
      <g pointer-events="visible" stroke-width="0.3" fill="#000000" fill-opacity="0.000" stroke="#000000" stroke-opacity="0.000" class="guide background" id="img-e27d3f81-6">
        <g transform="translate(74.22,45.66)" id="img-e27d3f81-7">
          <path d="M-62.2,-35.05 L 62.2 -35.05 62.2 35.05 -62.2 35.05 z" class="primitive"/>
        </g>
      </g>
      <g class="guide ygridlines xfixed" stroke-dasharray="0.5,0.5" stroke-width="0.2" stroke="#D0D0E0" id="img-e27d3f81-8">
        <g transform="translate(74.22,78.72)" id="img-e27d3f81-9">
          <path fill="none" d="M-62.2,0 L 62.2 0" class="primitive"/>
        </g>
        <g transform="translate(74.22,56.68)" id="img-e27d3f81-10">
          <path fill="none" d="M-62.2,0 L 62.2 0" class="primitive"/>
        </g>
        <g transform="translate(74.22,34.65)" id="img-e27d3f81-11">
          <path fill="none" d="M-62.2,0 L 62.2 0" class="primitive"/>
        </g>
        <g transform="translate(74.22,12.61)" id="img-e27d3f81-12">
          <path fill="none" d="M-62.2,0 L 62.2 0" class="primitive"/>
        </g>
      </g>
      <g class="guide xgridlines yfixed" stroke-dasharray="0.5,0.5" stroke-width="0.2" stroke="#D0D0E0" id="img-e27d3f81-13">
        <g transform="translate(14.02,45.66)" id="img-e27d3f81-14">
          <path fill="none" d="M0,-35.05 L 0 35.05" class="primitive"/>
        </g>
        <g transform="translate(54.15,45.66)" id="img-e27d3f81-15">
          <path fill="none" d="M0,-35.05 L 0 35.05" class="primitive"/>
        </g>
        <g transform="translate(94.29,45.66)" id="img-e27d3f81-16">
          <path fill="none" d="M0,-35.05 L 0 35.05" class="primitive"/>
        </g>
        <g transform="translate(134.42,45.66)" id="img-e27d3f81-17">
          <path fill="none" d="M0,-35.05 L 0 35.05" class="primitive"/>
        </g>
      </g>
      <g class="plotpanel" id="img-e27d3f81-18">
        <metadata>
          <boundingbox value="12.02000000000001mm 10.611666666666665mm 124.4013562373095mm 70.10333333333334mm"/>
          <unitbox value="-2.4916662849603113 154.538349049468 154.9833325699206 -159.076698098936"/>
        </metadata>
        <g shape-rendering="crispEdges" stroke-width="0.3" id="img-e27d3f81-19">
          <g class="geometry" fill-opacity="1" stroke="#000000" stroke-opacity="0.000" fill="#00BFFF" id="img-e27d3f81-20">
            <g transform="translate(19.19,77.61)" id="img-e27d3f81-21">
              <path d="M-0.38,-1.1 L 0.38 -1.1 0.38 1.1 -0.38 1.1 z" class="primitive"/>
            </g>
            <g transform="translate(19.9,78.72)" id="img-e27d3f81-22">
              <path d="M-0.38,-0 L 0.38 -0 0.38 0 -0.38 0 z" class="primitive"/>
            </g>
            <g transform="translate(20.62,78.72)" id="img-e27d3f81-23">
              <path d="M-0.38,-0 L 0.38 -0 0.38 0 -0.38 0 z" class="primitive"/>
            </g>
            <g transform="translate(21.33,78.72)" id="img-e27d3f81-24">
              <path d="M-0.38,-0 L 0.38 -0 0.38 0 -0.38 0 z" class="primitive"/>
            </g>
            <g transform="translate(22.04,78.72)" id="img-e27d3f81-25">
              <path d="M-0.38,-0 L 0.38 -0 0.38 0 -0.38 0 z" class="primitive"/>
            </g>
            <g transform="translate(22.75,78.72)" id="img-e27d3f81-26">
              <path d="M-0.38,-0 L 0.38 -0 0.38 0 -0.38 0 z" class="primitive"/>
            </g>
            <g transform="translate(23.46,78.72)" id="img-e27d3f81-27">
              <path d="M-0.38,-0 L 0.38 -0 0.38 0 -0.38 0 z" class="primitive"/>
            </g>
            <g transform="translate(24.17,77.39)" id="img-e27d3f81-28">
              <path d="M-0.38,-1.32 L 0.38 -1.32 0.38 1.32 -0.38 1.32 z" class="primitive"/>
            </g>
            <g transform="translate(24.89,78.72)" id="img-e27d3f81-29">
              <path d="M-0.38,-0 L 0.38 -0 0.38 0 -0.38 0 z" class="primitive"/>
            </g>
            <g transform="translate(25.6,78.72)" id="img-e27d3f81-30">
              <path d="M-0.38,-0 L 0.38 -0 0.38 0 -0.38 0 z" class="primitive"/>
            </g>
            <g transform="translate(26.31,78.72)" id="img-e27d3f81-31">
              <path d="M-0.38,-0 L 0.38 -0 0.38 0 -0.38 0 z" class="primitive"/>
            </g>
            <g transform="translate(27.02,77.83)" id="img-e27d3f81-32">
              <path d="M-0.38,-0.88 L 0.38 -0.88 0.38 0.88 -0.38 0.88 z" class="primitive"/>
            </g>
            <g transform="translate(27.73,78.72)" id="img-e27d3f81-33">
              <path d="M-0.38,-0 L 0.38 -0 0.38 0 -0.38 0 z" class="primitive"/>
            </g>
            <g transform="translate(28.44,78.72)" id="img-e27d3f81-34">
              <path d="M-0.38,-0 L 0.38 -0 0.38 0 -0.38 0 z" class="primitive"/>
            </g>
            <g transform="translate(29.16,78.49)" id="img-e27d3f81-35">
              <path d="M-0.38,-0.22 L 0.38 -0.22 0.38 0.22 -0.38 0.22 z" class="primitive"/>
            </g>
            <g transform="translate(29.87,76.73)" id="img-e27d3f81-36">
              <path d="M-0.38,-1.98 L 0.38 -1.98 0.38 1.98 -0.38 1.98 z" class="primitive"/>
            </g>
            <g transform="translate(30.58,78.72)" id="img-e27d3f81-37">
              <path d="M-0.38,-0 L 0.38 -0 0.38 0 -0.38 0 z" class="primitive"/>
            </g>
            <g transform="translate(31.29,78.72)" id="img-e27d3f81-38">
              <path d="M-0.38,-0 L 0.38 -0 0.38 0 -0.38 0 z" class="primitive"/>
            </g>
            <g transform="translate(32,78.72)" id="img-e27d3f81-39">
              <path d="M-0.38,-0 L 0.38 -0 0.38 0 -0.38 0 z" class="primitive"/>
            </g>
            <g transform="translate(32.71,71.88)" id="img-e27d3f81-40">
              <path d="M-0.38,-6.83 L 0.38 -6.83 0.38 6.83 -0.38 6.83 z" class="primitive"/>
            </g>
            <g transform="translate(33.43,74.31)" id="img-e27d3f81-41">
              <path d="M-0.38,-4.41 L 0.38 -4.41 0.38 4.41 -0.38 4.41 z" class="primitive"/>
            </g>
            <g transform="translate(34.14,74.75)" id="img-e27d3f81-42">
              <path d="M-0.38,-3.97 L 0.38 -3.97 0.38 3.97 -0.38 3.97 z" class="primitive"/>
            </g>
            <g transform="translate(34.85,68.8)" id="img-e27d3f81-43">
              <path d="M-0.38,-9.92 L 0.38 -9.92 0.38 9.92 -0.38 9.92 z" class="primitive"/>
            </g>
            <g transform="translate(35.56,69.9)" id="img-e27d3f81-44">
              <path d="M-0.38,-8.81 L 0.38 -8.81 0.38 8.81 -0.38 8.81 z" class="primitive"/>
            </g>
            <g transform="translate(36.27,71.88)" id="img-e27d3f81-45">
              <path d="M-0.38,-6.83 L 0.38 -6.83 0.38 6.83 -0.38 6.83 z" class="primitive"/>
            </g>
            <g transform="translate(36.98,72.77)" id="img-e27d3f81-46">
              <path d="M-0.38,-5.95 L 0.38 -5.95 0.38 5.95 -0.38 5.95 z" class="primitive"/>
            </g>
            <g transform="translate(37.7,78.72)" id="img-e27d3f81-47">
              <path d="M-0.38,-0 L 0.38 -0 0.38 0 -0.38 0 z" class="primitive"/>
            </g>
            <g transform="translate(38.41,53.16)" id="img-e27d3f81-48">
              <path d="M-0.38,-25.56 L 0.38 -25.56 0.38 25.56 -0.38 25.56 z" class="primitive"/>
            </g>
            <g transform="translate(39.12,72.1)" id="img-e27d3f81-49">
              <path d="M-0.38,-6.61 L 0.38 -6.61 0.38 6.61 -0.38 6.61 z" class="primitive"/>
            </g>
            <g transform="translate(39.83,60.87)" id="img-e27d3f81-50">
              <path d="M-0.38,-17.85 L 0.38 -17.85 0.38 17.85 -0.38 17.85 z" class="primitive"/>
            </g>
            <g transform="translate(40.54,54.7)" id="img-e27d3f81-51">
              <path d="M-0.38,-24.02 L 0.38 -24.02 0.38 24.02 -0.38 24.02 z" class="primitive"/>
            </g>
            <g transform="translate(41.25,63.51)" id="img-e27d3f81-52">
              <path d="M-0.38,-15.2 L 0.38 -15.2 0.38 15.2 -0.38 15.2 z" class="primitive"/>
            </g>
            <g transform="translate(41.97,67.7)" id="img-e27d3f81-53">
              <path d="M-0.38,-11.02 L 0.38 -11.02 0.38 11.02 -0.38 11.02 z" class="primitive"/>
            </g>
            <g transform="translate(42.68,46.77)" id="img-e27d3f81-54">
              <path d="M-0.38,-31.95 L 0.38 -31.95 0.38 31.95 -0.38 31.95 z" class="primitive"/>
            </g>
            <g transform="translate(43.39,73.87)" id="img-e27d3f81-55">
              <path d="M-0.38,-4.85 L 0.38 -4.85 0.38 4.85 -0.38 4.85 z" class="primitive"/>
            </g>
            <g transform="translate(44.1,78.72)" id="img-e27d3f81-56">
              <path d="M-0.38,-0 L 0.38 -0 0.38 0 -0.38 0 z" class="primitive"/>
            </g>
            <g transform="translate(44.81,63.51)" id="img-e27d3f81-57">
              <path d="M-0.38,-15.2 L 0.38 -15.2 0.38 15.2 -0.38 15.2 z" class="primitive"/>
            </g>
            <g transform="translate(45.53,56.9)" id="img-e27d3f81-58">
              <path d="M-0.38,-21.81 L 0.38 -21.81 0.38 21.81 -0.38 21.81 z" class="primitive"/>
            </g>
            <g transform="translate(46.24,74.09)" id="img-e27d3f81-59">
              <path d="M-0.38,-4.63 L 0.38 -4.63 0.38 4.63 -0.38 4.63 z" class="primitive"/>
            </g>
            <g transform="translate(46.95,66.6)" id="img-e27d3f81-60">
              <path d="M-0.38,-12.12 L 0.38 -12.12 0.38 12.12 -0.38 12.12 z" class="primitive"/>
            </g>
            <g transform="translate(47.66,69.9)" id="img-e27d3f81-61">
              <path d="M-0.38,-8.81 L 0.38 -8.81 0.38 8.81 -0.38 8.81 z" class="primitive"/>
            </g>
            <g transform="translate(48.37,74.31)" id="img-e27d3f81-62">
              <path d="M-0.38,-4.41 L 0.38 -4.41 0.38 4.41 -0.38 4.41 z" class="primitive"/>
            </g>
            <g transform="translate(49.08,78.72)" id="img-e27d3f81-63">
              <path d="M-0.38,-0 L 0.38 -0 0.38 0 -0.38 0 z" class="primitive"/>
            </g>
            <g transform="translate(49.8,70.78)" id="img-e27d3f81-64">
              <path d="M-0.38,-7.93 L 0.38 -7.93 0.38 7.93 -0.38 7.93 z" class="primitive"/>
            </g>
            <g transform="translate(50.51,78.72)" id="img-e27d3f81-65">
              <path d="M-0.38,-0 L 0.38 -0 0.38 0 -0.38 0 z" class="primitive"/>
            </g>
            <g transform="translate(51.22,69.68)" id="img-e27d3f81-66">
              <path d="M-0.38,-9.03 L 0.38 -9.03 0.38 9.03 -0.38 9.03 z" class="primitive"/>
            </g>
            <g transform="translate(51.93,56.02)" id="img-e27d3f81-67">
              <path d="M-0.38,-22.7 L 0.38 -22.7 0.38 22.7 -0.38 22.7 z" class="primitive"/>
            </g>
            <g transform="translate(52.64,73.87)" id="img-e27d3f81-68">
              <path d="M-0.38,-4.85 L 0.38 -4.85 0.38 4.85 -0.38 4.85 z" class="primitive"/>
            </g>
            <g transform="translate(53.35,74.09)" id="img-e27d3f81-69">
              <path d="M-0.38,-4.63 L 0.38 -4.63 0.38 4.63 -0.38 4.63 z" class="primitive"/>
            </g>
            <g transform="translate(54.07,78.49)" id="img-e27d3f81-70">
              <path d="M-0.38,-0.22 L 0.38 -0.22 0.38 0.22 -0.38 0.22 z" class="primitive"/>
            </g>
            <g transform="translate(54.78,77.61)" id="img-e27d3f81-71">
              <path d="M-0.38,-1.1 L 0.38 -1.1 0.38 1.1 -0.38 1.1 z" class="primitive"/>
            </g>
            <g transform="translate(55.49,71.66)" id="img-e27d3f81-72">
              <path d="M-0.38,-7.05 L 0.38 -7.05 0.38 7.05 -0.38 7.05 z" class="primitive"/>
            </g>
            <g transform="translate(56.2,78.72)" id="img-e27d3f81-73">
              <path d="M-0.38,-0 L 0.38 -0 0.38 0 -0.38 0 z" class="primitive"/>
            </g>
            <g transform="translate(56.91,72.33)" id="img-e27d3f81-74">
              <path d="M-0.38,-6.39 L 0.38 -6.39 0.38 6.39 -0.38 6.39 z" class="primitive"/>
            </g>
            <g transform="translate(57.62,65.27)" id="img-e27d3f81-75">
              <path d="M-0.38,-13.44 L 0.38 -13.44 0.38 13.44 -0.38 13.44 z" class="primitive"/>
            </g>
            <g transform="translate(58.34,78.72)" id="img-e27d3f81-76">
              <path d="M-0.38,-0 L 0.38 -0 0.38 0 -0.38 0 z" class="primitive"/>
            </g>
            <g transform="translate(59.05,77.83)" id="img-e27d3f81-77">
              <path d="M-0.38,-0.88 L 0.38 -0.88 0.38 0.88 -0.38 0.88 z" class="primitive"/>
            </g>
            <g transform="translate(59.76,76.73)" id="img-e27d3f81-78">
              <path d="M-0.38,-1.98 L 0.38 -1.98 0.38 1.98 -0.38 1.98 z" class="primitive"/>
            </g>
            <g transform="translate(60.47,76.51)" id="img-e27d3f81-79">
              <path d="M-0.38,-2.2 L 0.38 -2.2 0.38 2.2 -0.38 2.2 z" class="primitive"/>
            </g>
            <g transform="translate(61.18,71.88)" id="img-e27d3f81-80">
              <path d="M-0.38,-6.83 L 0.38 -6.83 0.38 6.83 -0.38 6.83 z" class="primitive"/>
            </g>
            <g transform="translate(61.89,77.39)" id="img-e27d3f81-81">
              <path d="M-0.38,-1.32 L 0.38 -1.32 0.38 1.32 -0.38 1.32 z" class="primitive"/>
            </g>
            <g transform="translate(62.61,78.72)" id="img-e27d3f81-82">
              <path d="M-0.38,-0 L 0.38 -0 0.38 0 -0.38 0 z" class="primitive"/>
            </g>
            <g transform="translate(63.32,77.17)" id="img-e27d3f81-83">
              <path d="M-0.38,-1.54 L 0.38 -1.54 0.38 1.54 -0.38 1.54 z" class="primitive"/>
            </g>
            <g transform="translate(64.03,76.95)" id="img-e27d3f81-84">
              <path d="M-0.38,-1.76 L 0.38 -1.76 0.38 1.76 -0.38 1.76 z" class="primitive"/>
            </g>
            <g transform="translate(64.74,75.41)" id="img-e27d3f81-85">
              <path d="M-0.38,-3.31 L 0.38 -3.31 0.38 3.31 -0.38 3.31 z" class="primitive"/>
            </g>
            <g transform="translate(65.45,77.39)" id="img-e27d3f81-86">
              <path d="M-0.38,-1.32 L 0.38 -1.32 0.38 1.32 -0.38 1.32 z" class="primitive"/>
            </g>
            <g transform="translate(66.16,77.17)" id="img-e27d3f81-87">
              <path d="M-0.38,-1.54 L 0.38 -1.54 0.38 1.54 -0.38 1.54 z" class="primitive"/>
            </g>
            <g transform="translate(66.88,77.39)" id="img-e27d3f81-88">
              <path d="M-0.38,-1.32 L 0.38 -1.32 0.38 1.32 -0.38 1.32 z" class="primitive"/>
            </g>
            <g transform="translate(67.59,77.17)" id="img-e27d3f81-89">
              <path d="M-0.38,-1.54 L 0.38 -1.54 0.38 1.54 -0.38 1.54 z" class="primitive"/>
            </g>
            <g transform="translate(68.3,65.71)" id="img-e27d3f81-90">
              <path d="M-0.38,-13 L 0.38 -13 0.38 13 -0.38 13 z" class="primitive"/>
            </g>
            <g transform="translate(69.01,78.72)" id="img-e27d3f81-91">
              <path d="M-0.38,-0 L 0.38 -0 0.38 0 -0.38 0 z" class="primitive"/>
            </g>
            <g transform="translate(69.72,76.29)" id="img-e27d3f81-92">
              <path d="M-0.38,-2.42 L 0.38 -2.42 0.38 2.42 -0.38 2.42 z" class="primitive"/>
            </g>
            <g transform="translate(70.43,76.73)" id="img-e27d3f81-93">
              <path d="M-0.38,-1.98 L 0.38 -1.98 0.38 1.98 -0.38 1.98 z" class="primitive"/>
            </g>
            <g transform="translate(71.15,75.41)" id="img-e27d3f81-94">
              <path d="M-0.38,-3.31 L 0.38 -3.31 0.38 3.31 -0.38 3.31 z" class="primitive"/>
            </g>
            <g transform="translate(71.86,76.73)" id="img-e27d3f81-95">
              <path d="M-0.38,-1.98 L 0.38 -1.98 0.38 1.98 -0.38 1.98 z" class="primitive"/>
            </g>
            <g transform="translate(72.57,77.39)" id="img-e27d3f81-96">
              <path d="M-0.38,-1.32 L 0.38 -1.32 0.38 1.32 -0.38 1.32 z" class="primitive"/>
            </g>
            <g transform="translate(73.28,76.51)" id="img-e27d3f81-97">
              <path d="M-0.38,-2.2 L 0.38 -2.2 0.38 2.2 -0.38 2.2 z" class="primitive"/>
            </g>
            <g transform="translate(73.99,75.19)" id="img-e27d3f81-98">
              <path d="M-0.38,-3.53 L 0.38 -3.53 0.38 3.53 -0.38 3.53 z" class="primitive"/>
            </g>
            <g transform="translate(74.7,76.73)" id="img-e27d3f81-99">
              <path d="M-0.38,-1.98 L 0.38 -1.98 0.38 1.98 -0.38 1.98 z" class="primitive"/>
            </g>
            <g transform="translate(75.42,78.72)" id="img-e27d3f81-100">
              <path d="M-0.38,-0 L 0.38 -0 0.38 0 -0.38 0 z" class="primitive"/>
            </g>
            <g transform="translate(76.13,76.29)" id="img-e27d3f81-101">
              <path d="M-0.38,-2.42 L 0.38 -2.42 0.38 2.42 -0.38 2.42 z" class="primitive"/>
            </g>
            <g transform="translate(76.84,77.17)" id="img-e27d3f81-102">
              <path d="M-0.38,-1.54 L 0.38 -1.54 0.38 1.54 -0.38 1.54 z" class="primitive"/>
            </g>
            <g transform="translate(77.55,75.85)" id="img-e27d3f81-103">
              <path d="M-0.38,-2.86 L 0.38 -2.86 0.38 2.86 -0.38 2.86 z" class="primitive"/>
            </g>
            <g transform="translate(78.26,76.95)" id="img-e27d3f81-104">
              <path d="M-0.38,-1.76 L 0.38 -1.76 0.38 1.76 -0.38 1.76 z" class="primitive"/>
            </g>
            <g transform="translate(78.98,77.61)" id="img-e27d3f81-105">
              <path d="M-0.38,-1.1 L 0.38 -1.1 0.38 1.1 -0.38 1.1 z" class="primitive"/>
            </g>
            <g transform="translate(79.69,77.83)" id="img-e27d3f81-106">
              <path d="M-0.38,-0.88 L 0.38 -0.88 0.38 0.88 -0.38 0.88 z" class="primitive"/>
            </g>
            <g transform="translate(80.4,75.85)" id="img-e27d3f81-107">
              <path d="M-0.38,-2.86 L 0.38 -2.86 0.38 2.86 -0.38 2.86 z" class="primitive"/>
            </g>
            <g transform="translate(81.11,77.83)" id="img-e27d3f81-108">
              <path d="M-0.38,-0.88 L 0.38 -0.88 0.38 0.88 -0.38 0.88 z" class="primitive"/>
            </g>
            <g transform="translate(81.82,78.72)" id="img-e27d3f81-109">
              <path d="M-0.38,-0 L 0.38 -0 0.38 0 -0.38 0 z" class="primitive"/>
            </g>
            <g transform="translate(82.53,77.17)" id="img-e27d3f81-110">
              <path d="M-0.38,-1.54 L 0.38 -1.54 0.38 1.54 -0.38 1.54 z" class="primitive"/>
            </g>
            <g transform="translate(83.25,77.17)" id="img-e27d3f81-111">
              <path d="M-0.38,-1.54 L 0.38 -1.54 0.38 1.54 -0.38 1.54 z" class="primitive"/>
            </g>
            <g transform="translate(83.96,76.51)" id="img-e27d3f81-112">
              <path d="M-0.38,-2.2 L 0.38 -2.2 0.38 2.2 -0.38 2.2 z" class="primitive"/>
            </g>
            <g transform="translate(84.67,77.17)" id="img-e27d3f81-113">
              <path d="M-0.38,-1.54 L 0.38 -1.54 0.38 1.54 -0.38 1.54 z" class="primitive"/>
            </g>
            <g transform="translate(85.38,76.73)" id="img-e27d3f81-114">
              <path d="M-0.38,-1.98 L 0.38 -1.98 0.38 1.98 -0.38 1.98 z" class="primitive"/>
            </g>
            <g transform="translate(86.09,76.73)" id="img-e27d3f81-115">
              <path d="M-0.38,-1.98 L 0.38 -1.98 0.38 1.98 -0.38 1.98 z" class="primitive"/>
            </g>
            <g transform="translate(86.8,77.83)" id="img-e27d3f81-116">
              <path d="M-0.38,-0.88 L 0.38 -0.88 0.38 0.88 -0.38 0.88 z" class="primitive"/>
            </g>
            <g transform="translate(87.52,78.05)" id="img-e27d3f81-117">
              <path d="M-0.38,-0.66 L 0.38 -0.66 0.38 0.66 -0.38 0.66 z" class="primitive"/>
            </g>
            <g transform="translate(88.23,78.72)" id="img-e27d3f81-118">
              <path d="M-0.38,-0 L 0.38 -0 0.38 0 -0.38 0 z" class="primitive"/>
            </g>
            <g transform="translate(88.94,76.95)" id="img-e27d3f81-119">
              <path d="M-0.38,-1.76 L 0.38 -1.76 0.38 1.76 -0.38 1.76 z" class="primitive"/>
            </g>
            <g transform="translate(89.65,78.05)" id="img-e27d3f81-120">
              <path d="M-0.38,-0.66 L 0.38 -0.66 0.38 0.66 -0.38 0.66 z" class="primitive"/>
            </g>
            <g transform="translate(90.36,78.49)" id="img-e27d3f81-121">
              <path d="M-0.38,-0.22 L 0.38 -0.22 0.38 0.22 -0.38 0.22 z" class="primitive"/>
            </g>
            <g transform="translate(91.07,77.83)" id="img-e27d3f81-122">
              <path d="M-0.38,-0.88 L 0.38 -0.88 0.38 0.88 -0.38 0.88 z" class="primitive"/>
            </g>
            <g transform="translate(91.79,77.39)" id="img-e27d3f81-123">
              <path d="M-0.38,-1.32 L 0.38 -1.32 0.38 1.32 -0.38 1.32 z" class="primitive"/>
            </g>
            <g transform="translate(92.5,77.17)" id="img-e27d3f81-124">
              <path d="M-0.38,-1.54 L 0.38 -1.54 0.38 1.54 -0.38 1.54 z" class="primitive"/>
            </g>
            <g transform="translate(93.21,77.39)" id="img-e27d3f81-125">
              <path d="M-0.38,-1.32 L 0.38 -1.32 0.38 1.32 -0.38 1.32 z" class="primitive"/>
            </g>
            <g transform="translate(93.92,78.72)" id="img-e27d3f81-126">
              <path d="M-0.38,-0 L 0.38 -0 0.38 0 -0.38 0 z" class="primitive"/>
            </g>
            <g transform="translate(94.63,77.39)" id="img-e27d3f81-127">
              <path d="M-0.38,-1.32 L 0.38 -1.32 0.38 1.32 -0.38 1.32 z" class="primitive"/>
            </g>
            <g transform="translate(95.34,77.39)" id="img-e27d3f81-128">
              <path d="M-0.38,-1.32 L 0.38 -1.32 0.38 1.32 -0.38 1.32 z" class="primitive"/>
            </g>
            <g transform="translate(96.06,76.95)" id="img-e27d3f81-129">
              <path d="M-0.38,-1.76 L 0.38 -1.76 0.38 1.76 -0.38 1.76 z" class="primitive"/>
            </g>
            <g transform="translate(96.77,77.61)" id="img-e27d3f81-130">
              <path d="M-0.38,-1.1 L 0.38 -1.1 0.38 1.1 -0.38 1.1 z" class="primitive"/>
            </g>
            <g transform="translate(97.48,77.17)" id="img-e27d3f81-131">
              <path d="M-0.38,-1.54 L 0.38 -1.54 0.38 1.54 -0.38 1.54 z" class="primitive"/>
            </g>
            <g transform="translate(98.19,78.27)" id="img-e27d3f81-132">
              <path d="M-0.38,-0.44 L 0.38 -0.44 0.38 0.44 -0.38 0.44 z" class="primitive"/>
            </g>
            <g transform="translate(98.9,76.95)" id="img-e27d3f81-133">
              <path d="M-0.38,-1.76 L 0.38 -1.76 0.38 1.76 -0.38 1.76 z" class="primitive"/>
            </g>
            <g transform="translate(99.61,76.95)" id="img-e27d3f81-134">
              <path d="M-0.38,-1.76 L 0.38 -1.76 0.38 1.76 -0.38 1.76 z" class="primitive"/>
            </g>
            <g transform="translate(100.33,78.72)" id="img-e27d3f81-135">
              <path d="M-0.38,-0 L 0.38 -0 0.38 0 -0.38 0 z" class="primitive"/>
            </g>
            <g transform="translate(101.04,77.61)" id="img-e27d3f81-136">
              <path d="M-0.38,-1.1 L 0.38 -1.1 0.38 1.1 -0.38 1.1 z" class="primitive"/>
            </g>
            <g transform="translate(101.75,76.29)" id="img-e27d3f81-137">
              <path d="M-0.38,-2.42 L 0.38 -2.42 0.38 2.42 -0.38 2.42 z" class="primitive"/>
            </g>
            <g transform="translate(102.46,77.39)" id="img-e27d3f81-138">
              <path d="M-0.38,-1.32 L 0.38 -1.32 0.38 1.32 -0.38 1.32 z" class="primitive"/>
            </g>
            <g transform="translate(103.17,77.39)" id="img-e27d3f81-139">
              <path d="M-0.38,-1.32 L 0.38 -1.32 0.38 1.32 -0.38 1.32 z" class="primitive"/>
            </g>
            <g transform="translate(103.88,77.61)" id="img-e27d3f81-140">
              <path d="M-0.38,-1.1 L 0.38 -1.1 0.38 1.1 -0.38 1.1 z" class="primitive"/>
            </g>
            <g transform="translate(104.6,76.73)" id="img-e27d3f81-141">
              <path d="M-0.38,-1.98 L 0.38 -1.98 0.38 1.98 -0.38 1.98 z" class="primitive"/>
            </g>
            <g transform="translate(105.31,76.95)" id="img-e27d3f81-142">
              <path d="M-0.38,-1.76 L 0.38 -1.76 0.38 1.76 -0.38 1.76 z" class="primitive"/>
            </g>
            <g transform="translate(106.02,75.85)" id="img-e27d3f81-143">
              <path d="M-0.38,-2.86 L 0.38 -2.86 0.38 2.86 -0.38 2.86 z" class="primitive"/>
            </g>
            <g transform="translate(106.73,78.72)" id="img-e27d3f81-144">
              <path d="M-0.38,-0 L 0.38 -0 0.38 0 -0.38 0 z" class="primitive"/>
            </g>
            <g transform="translate(107.44,74.31)" id="img-e27d3f81-145">
              <path d="M-0.38,-4.41 L 0.38 -4.41 0.38 4.41 -0.38 4.41 z" class="primitive"/>
            </g>
            <g transform="translate(108.16,75.63)" id="img-e27d3f81-146">
              <path d="M-0.38,-3.08 L 0.38 -3.08 0.38 3.08 -0.38 3.08 z" class="primitive"/>
            </g>
            <g transform="translate(108.87,75.41)" id="img-e27d3f81-147">
              <path d="M-0.38,-3.31 L 0.38 -3.31 0.38 3.31 -0.38 3.31 z" class="primitive"/>
            </g>
            <g transform="translate(109.58,75.63)" id="img-e27d3f81-148">
              <path d="M-0.38,-3.08 L 0.38 -3.08 0.38 3.08 -0.38 3.08 z" class="primitive"/>
            </g>
            <g transform="translate(110.29,71.44)" id="img-e27d3f81-149">
              <path d="M-0.38,-7.27 L 0.38 -7.27 0.38 7.27 -0.38 7.27 z" class="primitive"/>
            </g>
            <g transform="translate(111,77.83)" id="img-e27d3f81-150">
              <path d="M-0.38,-0.88 L 0.38 -0.88 0.38 0.88 -0.38 0.88 z" class="primitive"/>
            </g>
            <g transform="translate(111.71,77.39)" id="img-e27d3f81-151">
              <path d="M-0.38,-1.32 L 0.38 -1.32 0.38 1.32 -0.38 1.32 z" class="primitive"/>
            </g>
            <g transform="translate(112.43,78.27)" id="img-e27d3f81-152">
              <path d="M-0.38,-0.44 L 0.38 -0.44 0.38 0.44 -0.38 0.44 z" class="primitive"/>
            </g>
            <g transform="translate(113.14,78.72)" id="img-e27d3f81-153">
              <path d="M-0.38,-0 L 0.38 -0 0.38 0 -0.38 0 z" class="primitive"/>
            </g>
            <g transform="translate(113.85,78.05)" id="img-e27d3f81-154">
              <path d="M-0.38,-0.66 L 0.38 -0.66 0.38 0.66 -0.38 0.66 z" class="primitive"/>
            </g>
            <g transform="translate(114.56,78.05)" id="img-e27d3f81-155">
              <path d="M-0.38,-0.66 L 0.38 -0.66 0.38 0.66 -0.38 0.66 z" class="primitive"/>
            </g>
            <g transform="translate(115.27,78.05)" id="img-e27d3f81-156">
              <path d="M-0.38,-0.66 L 0.38 -0.66 0.38 0.66 -0.38 0.66 z" class="primitive"/>
            </g>
            <g transform="translate(115.98,78.72)" id="img-e27d3f81-157">
              <path d="M-0.38,-0 L 0.38 -0 0.38 0 -0.38 0 z" class="primitive"/>
            </g>
            <g transform="translate(116.7,78.49)" id="img-e27d3f81-158">
              <path d="M-0.38,-0.22 L 0.38 -0.22 0.38 0.22 -0.38 0.22 z" class="primitive"/>
            </g>
            <g transform="translate(117.41,78.49)" id="img-e27d3f81-159">
              <path d="M-0.38,-0.22 L 0.38 -0.22 0.38 0.22 -0.38 0.22 z" class="primitive"/>
            </g>
            <g transform="translate(118.12,78.72)" id="img-e27d3f81-160">
              <path d="M-0.38,-0 L 0.38 -0 0.38 0 -0.38 0 z" class="primitive"/>
            </g>
            <g transform="translate(118.83,78.49)" id="img-e27d3f81-161">
              <path d="M-0.38,-0.22 L 0.38 -0.22 0.38 0.22 -0.38 0.22 z" class="primitive"/>
            </g>
            <g transform="translate(119.54,78.72)" id="img-e27d3f81-162">
              <path d="M-0.38,-0 L 0.38 -0 0.38 0 -0.38 0 z" class="primitive"/>
            </g>
            <g transform="translate(120.25,78.05)" id="img-e27d3f81-163">
              <path d="M-0.38,-0.66 L 0.38 -0.66 0.38 0.66 -0.38 0.66 z" class="primitive"/>
            </g>
            <g transform="translate(120.97,78.72)" id="img-e27d3f81-164">
              <path d="M-0.38,-0 L 0.38 -0 0.38 0 -0.38 0 z" class="primitive"/>
            </g>
            <g transform="translate(121.68,78.05)" id="img-e27d3f81-165">
              <path d="M-0.38,-0.66 L 0.38 -0.66 0.38 0.66 -0.38 0.66 z" class="primitive"/>
            </g>
            <g transform="translate(122.39,78.49)" id="img-e27d3f81-166">
              <path d="M-0.38,-0.22 L 0.38 -0.22 0.38 0.22 -0.38 0.22 z" class="primitive"/>
            </g>
            <g transform="translate(123.1,78.72)" id="img-e27d3f81-167">
              <path d="M-0.38,-0 L 0.38 -0 0.38 0 -0.38 0 z" class="primitive"/>
            </g>
            <g transform="translate(123.81,78.72)" id="img-e27d3f81-168">
              <path d="M-0.38,-0 L 0.38 -0 0.38 0 -0.38 0 z" class="primitive"/>
            </g>
            <g transform="translate(124.52,78.72)" id="img-e27d3f81-169">
              <path d="M-0.38,-0 L 0.38 -0 0.38 0 -0.38 0 z" class="primitive"/>
            </g>
            <g transform="translate(125.24,50.29)" id="img-e27d3f81-170">
              <path d="M-0.38,-28.42 L 0.38 -28.42 0.38 28.42 -0.38 28.42 z" class="primitive"/>
            </g>
          </g>
        </g>
      </g>
    </g>
  </g>
  <g class="guide ylabels" font-size="2.82" font-family="'PT Sans Caption','Helvetica Neue','Helvetica',sans-serif" fill="#6C606B" id="img-e27d3f81-171">
    <g transform="translate(11.02,78.72)" id="img-e27d3f81-172">
      <g class="primitive">
        <text text-anchor="end" dy="0.35em">0</text>
      </g>
    </g>
    <g transform="translate(11.02,56.68)" id="img-e27d3f81-173">
      <g class="primitive">
        <text text-anchor="end" dy="0.35em">50</text>
      </g>
    </g>
    <g transform="translate(11.02,34.65)" id="img-e27d3f81-174">
      <g class="primitive">
        <text text-anchor="end" dy="0.35em">100</text>
      </g>
    </g>
    <g transform="translate(11.02,12.61)" id="img-e27d3f81-175">
      <g class="primitive">
        <text text-anchor="end" dy="0.35em">150</text>
      </g>
    </g>
  </g>
  <g font-size="3.88" font-family="'PT Sans','Helvetica Neue','Helvetica',sans-serif" fill="#564A55" stroke="#000000" stroke-opacity="0.000" id="img-e27d3f81-176">
    <g transform="translate(74.22,5)" id="img-e27d3f81-177">
      <g class="primitive">
        <text text-anchor="middle" dy="0.6em">Degree distribution</text>
      </g>
    </g>
  </g>
</g>
<defs>
  <clipPath id="img-e27d3f81-4">
    <path d="M12.02,10.61 L 136.42 10.61 136.42 80.72 12.02 80.72" />
  </clipPath>
</defs>
</svg>
