<?xml version="1.0" encoding="UTF-8"?>
<svg xmlns="http://www.w3.org/2000/svg"
     xmlns:xlink="http://www.w3.org/1999/xlink"
     xmlns:gadfly="http://www.gadflyjl.org/ns"
     version="1.2"
     width="141.42mm" height="100mm" viewBox="0 0 141.42 100"
     stroke="none"
     fill="#000000"
     stroke-width="0.3"
     font-size="3.88"
>
<defs>
  <marker id="arrow" markerWidth="15" markerHeight="7" refX="5" refY="3.5" orient="auto" markerUnits="strokeWidth">
    <path d="M0,0 L15,3.5 L0,7 z" stroke="context-stroke" fill="context-stroke"/>
  </marker>
</defs>
<g class="plotroot xscalable yscalable" id="img-7ed5b5aa-1">
  <g class="guide xlabels" font-size="2.82" font-family="'PT Sans Caption','Helvetica Neue','Helvetica',sans-serif" fill="#6C606B" id="img-7ed5b5aa-2">
    <g transform="translate(19.96,78.54)">
      <g class="primitive">
        <text text-anchor="end" dy="0.35em" transform="rotate(-90,0, 0)">7.500×10⁶</text>
      </g>
    </g>
    <g transform="translate(39.07,78.54)">
      <g class="primitive">
        <text text-anchor="end" dy="0.35em" transform="rotate(-90,0, 0)">8.000×10⁶</text>
      </g>
    </g>
    <g transform="translate(58.18,78.54)">
      <g class="primitive">
        <text text-anchor="end" dy="0.35em" transform="rotate(-90,0, 0)">8.500×10⁶</text>
      </g>
    </g>
    <g transform="translate(77.29,78.54)">
      <g class="primitive">
        <text text-anchor="end" dy="0.35em" transform="rotate(-90,0, 0)">9.000×10⁶</text>
      </g>
    </g>
  </g>
  <g class="guide colorkey" id="img-7ed5b5aa-3">
    <g class="color_coding_noncoding_coding_noncoding_4-star" id="img-7ed5b5aa-4">
      <g fill="#4C404B" font-size="2.82" font-family="'PT Sans','Helvetica Neue','Helvetica',sans-serif" id="img-7ed5b5aa-5">
        <g transform="translate(83.11,43.08)" id="img-7ed5b5aa-6">
          <g class="primitive">
            <text dy="0.35em">coding_noncoding_coding_noncoding_4-star</text>
          </g>
        </g>
      </g>
      <g fill-opacity="1" fill="#00BFFF" stroke="#FFFFFF" id="img-7ed5b5aa-7">
        <g transform="translate(81.2,43.08)" id="img-7ed5b5aa-8">
          <path d="M-0.91,-0.91 L0.91,-0.91 0.91,0.91 -0.91,0.91  z" class="primitive"/>
        </g>
      </g>
    </g>
    <g fill="#362A35" font-size="3.88" font-family="'PT Sans','Helvetica Neue','Helvetica',sans-serif" stroke="#000000" stroke-opacity="0.000" id="img-7ed5b5aa-9">
      <g transform="translate(80.29,39.26)" id="img-7ed5b5aa-10">
        <g class="primitive">
          <text dy="-0em">graphlet</text>
        </g>
      </g>
    </g>
  </g>
  <g clip-path="url(#img-7ed5b5aa-11)">
    <g id="img-7ed5b5aa-12">
      <g pointer-events="visible" stroke-width="0.3" fill="#000000" fill-opacity="0.000" stroke="#000000" stroke-opacity="0.000" class="guide background" id="img-7ed5b5aa-13">
        <g transform="translate(48.63,41.27)" id="img-7ed5b5aa-14">
          <path d="M-30.67,-36.27 L30.67,-36.27 30.67,36.27 -30.67,36.27  z" class="primitive"/>
        </g>
      </g>
      <g class="guide ygridlines xfixed" stroke-dasharray="0.5,0.5" stroke-width="0.2" stroke="#D0D0E0" id="img-7ed5b5aa-15">
        <g transform="translate(48.63,75.54)" id="img-7ed5b5aa-16">
          <path fill="none" d="M-30.67,0 L30.67,0 " class="primitive"/>
        </g>
        <g transform="translate(48.63,58.41)" id="img-7ed5b5aa-17">
          <path fill="none" d="M-30.67,0 L30.67,0 " class="primitive"/>
        </g>
        <g transform="translate(48.63,41.27)" id="img-7ed5b5aa-18">
          <path fill="none" d="M-30.67,0 L30.67,0 " class="primitive"/>
        </g>
        <g transform="translate(48.63,24.14)" id="img-7ed5b5aa-19">
          <path fill="none" d="M-30.67,0 L30.67,0 " class="primitive"/>
        </g>
        <g transform="translate(48.63,7)" id="img-7ed5b5aa-20">
          <path fill="none" d="M-30.67,0 L30.67,0 " class="primitive"/>
        </g>
      </g>
      <g class="guide xgridlines yfixed" stroke-dasharray="0.5,0.5" stroke-width="0.2" stroke="#D0D0E0" id="img-7ed5b5aa-21">
        <g transform="translate(19.96,41.27)" id="img-7ed5b5aa-22">
          <path fill="none" d="M0,-36.27 L0,36.27 " class="primitive"/>
        </g>
        <g transform="translate(39.07,41.27)" id="img-7ed5b5aa-23">
          <path fill="none" d="M0,-36.27 L0,36.27 " class="primitive"/>
        </g>
        <g transform="translate(58.18,41.27)" id="img-7ed5b5aa-24">
          <path fill="none" d="M0,-36.27 L0,36.27 " class="primitive"/>
        </g>
        <g transform="translate(77.29,41.27)" id="img-7ed5b5aa-25">
          <path fill="none" d="M0,-36.27 L0,36.27 " class="primitive"/>
        </g>
      </g>
      <g class="plotpanel" id="img-7ed5b5aa-26">
        <metadata>
          <boundingbox value="17.958333333333336mm 5.0mm 61.33635623730951mm 72.54mm"/>
          <unitbox value="7.447677177329105e6 41.16720163408229 1.6046456453417898e6 -42.33440326816457"/>
        </metadata>
        <g shape-rendering="crispEdges" stroke-width="0.3" id="img-7ed5b5aa-27">
          <g stroke="#000000" stroke-opacity="0.000" class="geometry" id="img-7ed5b5aa-28">
            <g fill="#00BFFF" id="img-7ed5b5aa-29">
              <g transform="translate(24.87,74.68)" id="img-7ed5b5aa-30">
                <path d="M-0.22,-0.86 L0.22,-0.86 0.22,0.86 -0.22,0.86  z" class="primitive"/>
              </g>
              <g transform="translate(25.26,75.55)" id="img-7ed5b5aa-31">
                <path d="M-0.22,-0 L0.22,-0 0.22,0 -0.22,0  z" class="primitive"/>
              </g>
              <g transform="translate(25.66,75.55)" id="img-7ed5b5aa-32">
                <path d="M-0.22,-0 L0.22,-0 0.22,0 -0.22,0  z" class="primitive"/>
              </g>
              <g transform="translate(26.05,75.55)" id="img-7ed5b5aa-33">
                <path d="M-0.22,-0 L0.22,-0 0.22,0 -0.22,0  z" class="primitive"/>
              </g>
              <g transform="translate(26.44,74.68)" id="img-7ed5b5aa-34">
                <path d="M-0.22,-0.86 L0.22,-0.86 0.22,0.86 -0.22,0.86  z" class="primitive"/>
              </g>
              <g transform="translate(26.84,75.55)" id="img-7ed5b5aa-35">
                <path d="M-0.22,-0 L0.22,-0 0.22,0 -0.22,0  z" class="primitive"/>
              </g>
              <g transform="translate(27.23,75.55)" id="img-7ed5b5aa-36">
                <path d="M-0.22,-0 L0.22,-0 0.22,0 -0.22,0  z" class="primitive"/>
              </g>
              <g transform="translate(27.62,75.55)" id="img-7ed5b5aa-37">
                <path d="M-0.22,-0 L0.22,-0 0.22,0 -0.22,0  z" class="primitive"/>
              </g>
              <g transform="translate(28.02,75.55)" id="img-7ed5b5aa-38">
                <path d="M-0.22,-0 L0.22,-0 0.22,0 -0.22,0  z" class="primitive"/>
              </g>
              <g transform="translate(28.41,75.55)" id="img-7ed5b5aa-39">
                <path d="M-0.22,-0 L0.22,-0 0.22,0 -0.22,0  z" class="primitive"/>
              </g>
              <g transform="translate(28.81,73.83)" id="img-7ed5b5aa-40">
                <path d="M-0.22,-1.71 L0.22,-1.71 0.22,1.71 -0.22,1.71  z" class="primitive"/>
              </g>
              <g transform="translate(29.2,74.68)" id="img-7ed5b5aa-41">
                <path d="M-0.22,-0.86 L0.22,-0.86 0.22,0.86 -0.22,0.86  z" class="primitive"/>
              </g>
              <g transform="translate(29.59,74.68)" id="img-7ed5b5aa-42">
                <path d="M-0.22,-0.86 L0.22,-0.86 0.22,0.86 -0.22,0.86  z" class="primitive"/>
              </g>
              <g transform="translate(29.99,71.26)" id="img-7ed5b5aa-43">
                <path d="M-0.22,-4.28 L0.22,-4.28 0.22,4.28 -0.22,4.28  z" class="primitive"/>
              </g>
              <g transform="translate(30.38,72.11)" id="img-7ed5b5aa-44">
                <path d="M-0.22,-3.43 L0.22,-3.43 0.22,3.43 -0.22,3.43  z" class="primitive"/>
              </g>
              <g transform="translate(30.77,74.68)" id="img-7ed5b5aa-45">
                <path d="M-0.22,-0.86 L0.22,-0.86 0.22,0.86 -0.22,0.86  z" class="primitive"/>
              </g>
              <g transform="translate(31.17,72.97)" id="img-7ed5b5aa-46">
                <path d="M-0.22,-2.57 L0.22,-2.57 0.22,2.57 -0.22,2.57  z" class="primitive"/>
              </g>
              <g transform="translate(31.56,73.83)" id="img-7ed5b5aa-47">
                <path d="M-0.22,-1.71 L0.22,-1.71 0.22,1.71 -0.22,1.71  z" class="primitive"/>
              </g>
              <g transform="translate(31.95,71.26)" id="img-7ed5b5aa-48">
                <path d="M-0.22,-4.28 L0.22,-4.28 0.22,4.28 -0.22,4.28  z" class="primitive"/>
              </g>
              <g transform="translate(32.35,71.26)" id="img-7ed5b5aa-49">
                <path d="M-0.22,-4.28 L0.22,-4.28 0.22,4.28 -0.22,4.28  z" class="primitive"/>
              </g>
              <g transform="translate(32.74,72.97)" id="img-7ed5b5aa-50">
                <path d="M-0.22,-2.57 L0.22,-2.57 0.22,2.57 -0.22,2.57  z" class="primitive"/>
              </g>
              <g transform="translate(33.14,73.83)" id="img-7ed5b5aa-51">
                <path d="M-0.22,-1.71 L0.22,-1.71 0.22,1.71 -0.22,1.71  z" class="primitive"/>
              </g>
              <g transform="translate(33.53,71.26)" id="img-7ed5b5aa-52">
                <path d="M-0.22,-4.28 L0.22,-4.28 0.22,4.28 -0.22,4.28  z" class="primitive"/>
              </g>
              <g transform="translate(33.92,66.12)" id="img-7ed5b5aa-53">
                <path d="M-0.22,-9.42 L0.22,-9.42 0.22,9.42 -0.22,9.42  z" class="primitive"/>
              </g>
              <g transform="translate(34.32,72.11)" id="img-7ed5b5aa-54">
                <path d="M-0.22,-3.43 L0.22,-3.43 0.22,3.43 -0.22,3.43  z" class="primitive"/>
              </g>
              <g transform="translate(34.71,70.4)" id="img-7ed5b5aa-55">
                <path d="M-0.22,-5.14 L0.22,-5.14 0.22,5.14 -0.22,5.14  z" class="primitive"/>
              </g>
              <g transform="translate(35.1,66.12)" id="img-7ed5b5aa-56">
                <path d="M-0.22,-9.42 L0.22,-9.42 0.22,9.42 -0.22,9.42  z" class="primitive"/>
              </g>
              <g transform="translate(35.5,66.12)" id="img-7ed5b5aa-57">
                <path d="M-0.22,-9.42 L0.22,-9.42 0.22,9.42 -0.22,9.42  z" class="primitive"/>
              </g>
              <g transform="translate(35.89,72.11)" id="img-7ed5b5aa-58">
                <path d="M-0.22,-3.43 L0.22,-3.43 0.22,3.43 -0.22,3.43  z" class="primitive"/>
              </g>
              <g transform="translate(36.29,67.83)" id="img-7ed5b5aa-59">
                <path d="M-0.22,-7.71 L0.22,-7.71 0.22,7.71 -0.22,7.71  z" class="primitive"/>
              </g>
              <g transform="translate(36.68,64.4)" id="img-7ed5b5aa-60">
                <path d="M-0.22,-11.14 L0.22,-11.14 0.22,11.14 -0.22,11.14  z" class="primitive"/>
              </g>
              <g transform="translate(37.07,67.83)" id="img-7ed5b5aa-61">
                <path d="M-0.22,-7.71 L0.22,-7.71 0.22,7.71 -0.22,7.71  z" class="primitive"/>
              </g>
              <g transform="translate(37.47,63.55)" id="img-7ed5b5aa-62">
                <path d="M-0.22,-11.99 L0.22,-11.99 0.22,11.99 -0.22,11.99  z" class="primitive"/>
              </g>
              <g transform="translate(37.86,55.83)" id="img-7ed5b5aa-63">
                <path d="M-0.22,-19.71 L0.22,-19.71 0.22,19.71 -0.22,19.71  z" class="primitive"/>
              </g>
              <g transform="translate(38.25,65.26)" id="img-7ed5b5aa-64">
                <path d="M-0.22,-10.28 L0.22,-10.28 0.22,10.28 -0.22,10.28  z" class="primitive"/>
              </g>
              <g transform="translate(38.65,64.4)" id="img-7ed5b5aa-65">
                <path d="M-0.22,-11.14 L0.22,-11.14 0.22,11.14 -0.22,11.14  z" class="primitive"/>
              </g>
              <g transform="translate(39.04,65.26)" id="img-7ed5b5aa-66">
                <path d="M-0.22,-10.28 L0.22,-10.28 0.22,10.28 -0.22,10.28  z" class="primitive"/>
              </g>
              <g transform="translate(39.44,54.98)" id="img-7ed5b5aa-67">
                <path d="M-0.22,-20.56 L0.22,-20.56 0.22,20.56 -0.22,20.56  z" class="primitive"/>
              </g>
              <g transform="translate(39.83,58.41)" id="img-7ed5b5aa-68">
                <path d="M-0.22,-17.14 L0.22,-17.14 0.22,17.14 -0.22,17.14  z" class="primitive"/>
              </g>
              <g transform="translate(40.22,54.98)" id="img-7ed5b5aa-69">
                <path d="M-0.22,-20.56 L0.22,-20.56 0.22,20.56 -0.22,20.56  z" class="primitive"/>
              </g>
              <g transform="translate(40.62,57.55)" id="img-7ed5b5aa-70">
                <path d="M-0.22,-17.99 L0.22,-17.99 0.22,17.99 -0.22,17.99  z" class="primitive"/>
              </g>
              <g transform="translate(41.01,52.41)" id="img-7ed5b5aa-71">
                <path d="M-0.22,-23.13 L0.22,-23.13 0.22,23.13 -0.22,23.13  z" class="primitive"/>
              </g>
              <g transform="translate(41.4,55.83)" id="img-7ed5b5aa-72">
                <path d="M-0.22,-19.71 L0.22,-19.71 0.22,19.71 -0.22,19.71  z" class="primitive"/>
              </g>
              <g transform="translate(41.8,60.12)" id="img-7ed5b5aa-73">
                <path d="M-0.22,-15.42 L0.22,-15.42 0.22,15.42 -0.22,15.42  z" class="primitive"/>
              </g>
              <g transform="translate(42.19,58.41)" id="img-7ed5b5aa-74">
                <path d="M-0.22,-17.14 L0.22,-17.14 0.22,17.14 -0.22,17.14  z" class="primitive"/>
              </g>
              <g transform="translate(42.59,57.55)" id="img-7ed5b5aa-75">
                <path d="M-0.22,-17.99 L0.22,-17.99 0.22,17.99 -0.22,17.99  z" class="primitive"/>
              </g>
              <g transform="translate(42.98,55.83)" id="img-7ed5b5aa-76">
                <path d="M-0.22,-19.71 L0.22,-19.71 0.22,19.71 -0.22,19.71  z" class="primitive"/>
              </g>
              <g transform="translate(43.37,53.26)" id="img-7ed5b5aa-77">
                <path d="M-0.22,-22.28 L0.22,-22.28 0.22,22.28 -0.22,22.28  z" class="primitive"/>
              </g>
              <g transform="translate(43.77,65.26)" id="img-7ed5b5aa-78">
                <path d="M-0.22,-10.28 L0.22,-10.28 0.22,10.28 -0.22,10.28  z" class="primitive"/>
              </g>
              <g transform="translate(44.16,55.83)" id="img-7ed5b5aa-79">
                <path d="M-0.22,-19.71 L0.22,-19.71 0.22,19.71 -0.22,19.71  z" class="primitive"/>
              </g>
              <g transform="translate(44.55,56.69)" id="img-7ed5b5aa-80">
                <path d="M-0.22,-18.85 L0.22,-18.85 0.22,18.85 -0.22,18.85  z" class="primitive"/>
              </g>
              <g transform="translate(44.95,48.98)" id="img-7ed5b5aa-81">
                <path d="M-0.22,-26.56 L0.22,-26.56 0.22,26.56 -0.22,26.56  z" class="primitive"/>
              </g>
              <g transform="translate(45.34,51.55)" id="img-7ed5b5aa-82">
                <path d="M-0.22,-23.99 L0.22,-23.99 0.22,23.99 -0.22,23.99  z" class="primitive"/>
              </g>
              <g transform="translate(45.73,54.12)" id="img-7ed5b5aa-83">
                <path d="M-0.22,-21.42 L0.22,-21.42 0.22,21.42 -0.22,21.42  z" class="primitive"/>
              </g>
              <g transform="translate(46.13,55.83)" id="img-7ed5b5aa-84">
                <path d="M-0.22,-19.71 L0.22,-19.71 0.22,19.71 -0.22,19.71  z" class="primitive"/>
              </g>
              <g transform="translate(46.52,54.12)" id="img-7ed5b5aa-85">
                <path d="M-0.22,-21.42 L0.22,-21.42 0.22,21.42 -0.22,21.42  z" class="primitive"/>
              </g>
              <g transform="translate(46.92,54.98)" id="img-7ed5b5aa-86">
                <path d="M-0.22,-20.56 L0.22,-20.56 0.22,20.56 -0.22,20.56  z" class="primitive"/>
              </g>
              <g transform="translate(47.31,53.26)" id="img-7ed5b5aa-87">
                <path d="M-0.22,-22.28 L0.22,-22.28 0.22,22.28 -0.22,22.28  z" class="primitive"/>
              </g>
              <g transform="translate(47.7,57.55)" id="img-7ed5b5aa-88">
                <path d="M-0.22,-17.99 L0.22,-17.99 0.22,17.99 -0.22,17.99  z" class="primitive"/>
              </g>
              <g transform="translate(48.1,55.83)" id="img-7ed5b5aa-89">
                <path d="M-0.22,-19.71 L0.22,-19.71 0.22,19.71 -0.22,19.71  z" class="primitive"/>
              </g>
              <g transform="translate(48.49,58.41)" id="img-7ed5b5aa-90">
                <path d="M-0.22,-17.14 L0.22,-17.14 0.22,17.14 -0.22,17.14  z" class="primitive"/>
              </g>
              <g transform="translate(48.88,56.69)" id="img-7ed5b5aa-91">
                <path d="M-0.22,-18.85 L0.22,-18.85 0.22,18.85 -0.22,18.85  z" class="primitive"/>
              </g>
              <g transform="translate(49.28,61.83)" id="img-7ed5b5aa-92">
                <path d="M-0.22,-13.71 L0.22,-13.71 0.22,13.71 -0.22,13.71  z" class="primitive"/>
              </g>
              <g transform="translate(49.67,61.83)" id="img-7ed5b5aa-93">
                <path d="M-0.22,-13.71 L0.22,-13.71 0.22,13.71 -0.22,13.71  z" class="primitive"/>
              </g>
              <g transform="translate(50.07,59.26)" id="img-7ed5b5aa-94">
                <path d="M-0.22,-16.28 L0.22,-16.28 0.22,16.28 -0.22,16.28  z" class="primitive"/>
              </g>
              <g transform="translate(50.46,59.26)" id="img-7ed5b5aa-95">
                <path d="M-0.22,-16.28 L0.22,-16.28 0.22,16.28 -0.22,16.28  z" class="primitive"/>
              </g>
              <g transform="translate(50.85,66.12)" id="img-7ed5b5aa-96">
                <path d="M-0.22,-9.42 L0.22,-9.42 0.22,9.42 -0.22,9.42  z" class="primitive"/>
              </g>
              <g transform="translate(51.25,60.12)" id="img-7ed5b5aa-97">
                <path d="M-0.22,-15.42 L0.22,-15.42 0.22,15.42 -0.22,15.42  z" class="primitive"/>
              </g>
              <g transform="translate(51.64,67.83)" id="img-7ed5b5aa-98">
                <path d="M-0.22,-7.71 L0.22,-7.71 0.22,7.71 -0.22,7.71  z" class="primitive"/>
              </g>
              <g transform="translate(52.03,66.97)" id="img-7ed5b5aa-99">
                <path d="M-0.22,-8.57 L0.22,-8.57 0.22,8.57 -0.22,8.57  z" class="primitive"/>
              </g>
              <g transform="translate(52.43,66.12)" id="img-7ed5b5aa-100">
                <path d="M-0.22,-9.42 L0.22,-9.42 0.22,9.42 -0.22,9.42  z" class="primitive"/>
              </g>
              <g transform="translate(52.82,70.4)" id="img-7ed5b5aa-101">
                <path d="M-0.22,-5.14 L0.22,-5.14 0.22,5.14 -0.22,5.14  z" class="primitive"/>
              </g>
              <g transform="translate(53.22,68.69)" id="img-7ed5b5aa-102">
                <path d="M-0.22,-6.85 L0.22,-6.85 0.22,6.85 -0.22,6.85  z" class="primitive"/>
              </g>
              <g transform="translate(53.61,63.55)" id="img-7ed5b5aa-103">
                <path d="M-0.22,-11.99 L0.22,-11.99 0.22,11.99 -0.22,11.99  z" class="primitive"/>
              </g>
              <g transform="translate(54,67.83)" id="img-7ed5b5aa-104">
                <path d="M-0.22,-7.71 L0.22,-7.71 0.22,7.71 -0.22,7.71  z" class="primitive"/>
              </g>
              <g transform="translate(54.4,69.54)" id="img-7ed5b5aa-105">
                <path d="M-0.22,-6 L0.22,-6 0.22,6 -0.22,6  z" class="primitive"/>
              </g>
              <g transform="translate(54.79,67.83)" id="img-7ed5b5aa-106">
                <path d="M-0.22,-7.71 L0.22,-7.71 0.22,7.71 -0.22,7.71  z" class="primitive"/>
              </g>
              <g transform="translate(55.18,66.12)" id="img-7ed5b5aa-107">
                <path d="M-0.22,-9.42 L0.22,-9.42 0.22,9.42 -0.22,9.42  z" class="primitive"/>
              </g>
              <g transform="translate(55.58,68.69)" id="img-7ed5b5aa-108">
                <path d="M-0.22,-6.85 L0.22,-6.85 0.22,6.85 -0.22,6.85  z" class="primitive"/>
              </g>
              <g transform="translate(55.97,69.54)" id="img-7ed5b5aa-109">
                <path d="M-0.22,-6 L0.22,-6 0.22,6 -0.22,6  z" class="primitive"/>
              </g>
              <g transform="translate(56.37,72.97)" id="img-7ed5b5aa-110">
                <path d="M-0.22,-2.57 L0.22,-2.57 0.22,2.57 -0.22,2.57  z" class="primitive"/>
              </g>
              <g transform="translate(56.76,72.97)" id="img-7ed5b5aa-111">
                <path d="M-0.22,-2.57 L0.22,-2.57 0.22,2.57 -0.22,2.57  z" class="primitive"/>
              </g>
              <g transform="translate(57.15,73.83)" id="img-7ed5b5aa-112">
                <path d="M-0.22,-1.71 L0.22,-1.71 0.22,1.71 -0.22,1.71  z" class="primitive"/>
              </g>
              <g transform="translate(57.55,72.97)" id="img-7ed5b5aa-113">
                <path d="M-0.22,-2.57 L0.22,-2.57 0.22,2.57 -0.22,2.57  z" class="primitive"/>
              </g>
              <g transform="translate(57.94,75.55)" id="img-7ed5b5aa-114">
                <path d="M-0.22,-0 L0.22,-0 0.22,0 -0.22,0  z" class="primitive"/>
              </g>
              <g transform="translate(58.33,72.97)" id="img-7ed5b5aa-115">
                <path d="M-0.22,-2.57 L0.22,-2.57 0.22,2.57 -0.22,2.57  z" class="primitive"/>
              </g>
              <g transform="translate(58.73,73.83)" id="img-7ed5b5aa-116">
                <path d="M-0.22,-1.71 L0.22,-1.71 0.22,1.71 -0.22,1.71  z" class="primitive"/>
              </g>
              <g transform="translate(59.12,74.68)" id="img-7ed5b5aa-117">
                <path d="M-0.22,-0.86 L0.22,-0.86 0.22,0.86 -0.22,0.86  z" class="primitive"/>
              </g>
              <g transform="translate(59.51,75.55)" id="img-7ed5b5aa-118">
                <path d="M-0.22,-0 L0.22,-0 0.22,0 -0.22,0  z" class="primitive"/>
              </g>
              <g transform="translate(59.91,72.97)" id="img-7ed5b5aa-119">
                <path d="M-0.22,-2.57 L0.22,-2.57 0.22,2.57 -0.22,2.57  z" class="primitive"/>
              </g>
              <g transform="translate(60.3,74.68)" id="img-7ed5b5aa-120">
                <path d="M-0.22,-0.86 L0.22,-0.86 0.22,0.86 -0.22,0.86  z" class="primitive"/>
              </g>
              <g transform="translate(60.7,75.55)" id="img-7ed5b5aa-121">
                <path d="M-0.22,-0 L0.22,-0 0.22,0 -0.22,0  z" class="primitive"/>
              </g>
              <g transform="translate(61.09,74.68)" id="img-7ed5b5aa-122">
                <path d="M-0.22,-0.86 L0.22,-0.86 0.22,0.86 -0.22,0.86  z" class="primitive"/>
              </g>
              <g transform="translate(61.48,75.55)" id="img-7ed5b5aa-123">
                <path d="M-0.22,-0 L0.22,-0 0.22,0 -0.22,0  z" class="primitive"/>
              </g>
              <g transform="translate(61.88,74.68)" id="img-7ed5b5aa-124">
                <path d="M-0.22,-0.86 L0.22,-0.86 0.22,0.86 -0.22,0.86  z" class="primitive"/>
              </g>
              <g transform="translate(62.27,73.83)" id="img-7ed5b5aa-125">
                <path d="M-0.22,-1.71 L0.22,-1.71 0.22,1.71 -0.22,1.71  z" class="primitive"/>
              </g>
              <g transform="translate(62.66,75.55)" id="img-7ed5b5aa-126">
                <path d="M-0.22,-0 L0.22,-0 0.22,0 -0.22,0  z" class="primitive"/>
              </g>
              <g transform="translate(63.06,75.55)" id="img-7ed5b5aa-127">
                <path d="M-0.22,-0 L0.22,-0 0.22,0 -0.22,0  z" class="primitive"/>
              </g>
              <g transform="translate(63.45,75.55)" id="img-7ed5b5aa-128">
                <path d="M-0.22,-0 L0.22,-0 0.22,0 -0.22,0  z" class="primitive"/>
              </g>
              <g transform="translate(63.85,73.83)" id="img-7ed5b5aa-129">
                <path d="M-0.22,-1.71 L0.22,-1.71 0.22,1.71 -0.22,1.71  z" class="primitive"/>
              </g>
            </g>
          </g>
        </g>
      </g>
    </g>
  </g>
  <g class="guide ylabels" font-size="2.82" font-family="'PT Sans Caption','Helvetica Neue','Helvetica',sans-serif" fill="#6C606B" id="img-7ed5b5aa-130">
    <g transform="translate(16.96,75.54)" id="img-7ed5b5aa-131">
      <g class="primitive">
        <text text-anchor="end" dy="0.35em">0</text>
      </g>
    </g>
    <g transform="translate(16.96,58.41)" id="img-7ed5b5aa-132">
      <g class="primitive">
        <text text-anchor="end" dy="0.35em">10</text>
      </g>
    </g>
    <g transform="translate(16.96,41.27)" id="img-7ed5b5aa-133">
      <g class="primitive">
        <text text-anchor="end" dy="0.35em">20</text>
      </g>
    </g>
    <g transform="translate(16.96,24.14)" id="img-7ed5b5aa-134">
      <g class="primitive">
        <text text-anchor="end" dy="0.35em">30</text>
      </g>
    </g>
    <g transform="translate(16.96,7)" id="img-7ed5b5aa-135">
      <g class="primitive">
        <text text-anchor="end" dy="0.35em">40</text>
      </g>
    </g>
  </g>
  <g font-size="3.88" font-family="'PT Sans','Helvetica Neue','Helvetica',sans-serif" fill="#564A55" stroke="#000000" stroke-opacity="0.000" id="img-7ed5b5aa-136">
    <g transform="translate(8.81,39.27)" id="img-7ed5b5aa-137">
      <g class="primitive">
        <text text-anchor="middle" dy="0.35em" transform="rotate(-90,0, 2)">frequency</text>
      </g>
    </g>
  </g>
</g>
<defs>
  <clipPath id="img-7ed5b5aa-11">
    <path d="M17.96,5 L79.29,5 79.29,77.54 17.96,77.54 " />
  </clipPath>
</defs>
</svg>
