<?xml version="1.0" encoding="UTF-8"?>
<svg xmlns="http://www.w3.org/2000/svg"
     xmlns:xlink="http://www.w3.org/1999/xlink"
     xmlns:gadfly="http://www.gadflyjl.org/ns"
     version="1.2"
     width="141.42mm" height="100mm" viewBox="0 0 141.42 100"
     stroke="none"
     fill="#000000"
     stroke-width="0.3"
     font-size="3.88"
>
<defs>
  <marker id="arrow" markerWidth="15" markerHeight="7" refX="5" refY="3.5" orient="auto" markerUnits="strokeWidth">
    <path d="M0,0 L15,3.5 L0,7 z" stroke="context-stroke" fill="context-stroke"/>
  </marker>
</defs>
<g class="plotroot xscalable yscalable" id="img-48f900f7-1">
  <g class="guide xlabels" font-size="2.82" font-family="'PT Sans Caption','Helvetica Neue','Helvetica',sans-serif" fill="#6C606B" id="img-48f900f7-2">
    <g transform="translate(19.96,80.21)">
      <g class="primitive">
        <text text-anchor="end" dy="0.35em" transform="rotate(-90,0, 0)">4.00×10³</text>
      </g>
    </g>
    <g transform="translate(33.59,80.21)">
      <g class="primitive">
        <text text-anchor="end" dy="0.35em" transform="rotate(-90,0, 0)">5.00×10³</text>
      </g>
    </g>
    <g transform="translate(47.22,80.21)">
      <g class="primitive">
        <text text-anchor="end" dy="0.35em" transform="rotate(-90,0, 0)">6.00×10³</text>
      </g>
    </g>
    <g transform="translate(60.85,80.21)">
      <g class="primitive">
        <text text-anchor="end" dy="0.35em" transform="rotate(-90,0, 0)">7.00×10³</text>
      </g>
    </g>
    <g transform="translate(74.48,80.21)">
      <g class="primitive">
        <text text-anchor="end" dy="0.35em" transform="rotate(-90,0, 0)">8.00×10³</text>
      </g>
    </g>
  </g>
  <g class="guide colorkey" id="img-48f900f7-3">
    <g class="color_coding_coding_noncoding_noncoding_4-clique" id="img-48f900f7-4">
      <g fill="#4C404B" font-size="2.82" font-family="'PT Sans','Helvetica Neue','Helvetica',sans-serif" id="img-48f900f7-5">
        <g transform="translate(80.29,43.92)" id="img-48f900f7-6">
          <g class="primitive">
            <text dy="0.35em">coding_coding_noncoding_noncoding_4-clique</text>
          </g>
        </g>
      </g>
      <g fill-opacity="1" fill="#00BFFF" stroke="#FFFFFF" id="img-48f900f7-7">
        <g transform="translate(78.39,43.92)" id="img-48f900f7-8">
          <path d="M-0.91,-0.91 L0.91,-0.91 0.91,0.91 -0.91,0.91  z" class="primitive"/>
        </g>
      </g>
    </g>
    <g fill="#362A35" font-size="3.88" font-family="'PT Sans','Helvetica Neue','Helvetica',sans-serif" stroke="#000000" stroke-opacity="0.000" id="img-48f900f7-9">
      <g transform="translate(77.48,40.1)" id="img-48f900f7-10">
        <g class="primitive">
          <text dy="-0em">graphlet</text>
        </g>
      </g>
    </g>
  </g>
  <g clip-path="url(#img-48f900f7-11)">
    <g id="img-48f900f7-12">
      <g pointer-events="visible" stroke-width="0.3" fill="#000000" fill-opacity="0.000" stroke="#000000" stroke-opacity="0.000" class="guide background" id="img-48f900f7-13">
        <g transform="translate(47.22,42.11)" id="img-48f900f7-14">
          <path d="M-29.26,-37.11 L29.26,-37.11 29.26,37.11 -29.26,37.11  z" class="primitive"/>
        </g>
      </g>
      <g class="guide ygridlines xfixed" stroke-dasharray="0.5,0.5" stroke-width="0.2" stroke="#D0D0E0" id="img-48f900f7-15">
        <g transform="translate(47.22,77.21)" id="img-48f900f7-16">
          <path fill="none" d="M-29.26,0 L29.26,0 " class="primitive"/>
        </g>
        <g transform="translate(47.22,59.66)" id="img-48f900f7-17">
          <path fill="none" d="M-29.26,0 L29.26,0 " class="primitive"/>
        </g>
        <g transform="translate(47.22,42.11)" id="img-48f900f7-18">
          <path fill="none" d="M-29.26,0 L29.26,0 " class="primitive"/>
        </g>
        <g transform="translate(47.22,24.55)" id="img-48f900f7-19">
          <path fill="none" d="M-29.26,0 L29.26,0 " class="primitive"/>
        </g>
        <g transform="translate(47.22,7)" id="img-48f900f7-20">
          <path fill="none" d="M-29.26,0 L29.26,0 " class="primitive"/>
        </g>
      </g>
      <g class="guide xgridlines yfixed" stroke-dasharray="0.5,0.5" stroke-width="0.2" stroke="#D0D0E0" id="img-48f900f7-21">
        <g transform="translate(19.96,42.11)" id="img-48f900f7-22">
          <path fill="none" d="M0,-37.11 L0,37.11 " class="primitive"/>
        </g>
        <g transform="translate(33.59,42.11)" id="img-48f900f7-23">
          <path fill="none" d="M0,-37.11 L0,37.11 " class="primitive"/>
        </g>
        <g transform="translate(47.22,42.11)" id="img-48f900f7-24">
          <path fill="none" d="M0,-37.11 L0,37.11 " class="primitive"/>
        </g>
        <g transform="translate(60.85,42.11)" id="img-48f900f7-25">
          <path fill="none" d="M0,-37.11 L0,37.11 " class="primitive"/>
        </g>
        <g transform="translate(74.48,42.11)" id="img-48f900f7-26">
          <path fill="none" d="M0,-37.11 L0,37.11 " class="primitive"/>
        </g>
      </g>
      <g class="plotpanel" id="img-48f900f7-27">
        <metadata>
          <boundingbox value="17.958333333333336mm 5.0mm 58.52302290397618mm 74.21333333333334mm"/>
          <unitbox value="3853.2729923267593 41.13938473224459 4293.454015346482 -42.27876946448917"/>
        </metadata>
        <g shape-rendering="crispEdges" stroke-width="0.3" id="img-48f900f7-28">
          <g stroke="#000000" stroke-opacity="0.000" class="geometry" id="img-48f900f7-29">
            <g fill="#00BFFF" id="img-48f900f7-30">
              <g transform="translate(27.2,75.46)" id="img-48f900f7-31">
                <path d="M-0.21,-1.76 L0.21,-1.76 0.21,1.76 -0.21,1.76  z" class="primitive"/>
              </g>
              <g transform="translate(27.57,76.34)" id="img-48f900f7-32">
                <path d="M-0.21,-0.88 L0.21,-0.88 0.21,0.88 -0.21,0.88  z" class="primitive"/>
              </g>
              <g transform="translate(27.93,77.22)" id="img-48f900f7-33">
                <path d="M-0.21,-0 L0.21,-0 0.21,0 -0.21,0  z" class="primitive"/>
              </g>
              <g transform="translate(28.3,77.22)" id="img-48f900f7-34">
                <path d="M-0.21,-0 L0.21,-0 0.21,0 -0.21,0  z" class="primitive"/>
              </g>
              <g transform="translate(28.66,77.22)" id="img-48f900f7-35">
                <path d="M-0.21,-0 L0.21,-0 0.21,0 -0.21,0  z" class="primitive"/>
              </g>
              <g transform="translate(29.03,77.22)" id="img-48f900f7-36">
                <path d="M-0.21,-0 L0.21,-0 0.21,0 -0.21,0  z" class="primitive"/>
              </g>
              <g transform="translate(29.39,76.34)" id="img-48f900f7-37">
                <path d="M-0.21,-0.88 L0.21,-0.88 0.21,0.88 -0.21,0.88  z" class="primitive"/>
              </g>
              <g transform="translate(29.76,77.22)" id="img-48f900f7-38">
                <path d="M-0.21,-0 L0.21,-0 0.21,0 -0.21,0  z" class="primitive"/>
              </g>
              <g transform="translate(30.13,77.22)" id="img-48f900f7-39">
                <path d="M-0.21,-0 L0.21,-0 0.21,0 -0.21,0  z" class="primitive"/>
              </g>
              <g transform="translate(30.49,76.34)" id="img-48f900f7-40">
                <path d="M-0.21,-0.88 L0.21,-0.88 0.21,0.88 -0.21,0.88  z" class="primitive"/>
              </g>
              <g transform="translate(30.86,76.34)" id="img-48f900f7-41">
                <path d="M-0.21,-0.88 L0.21,-0.88 0.21,0.88 -0.21,0.88  z" class="primitive"/>
              </g>
              <g transform="translate(31.22,73.7)" id="img-48f900f7-42">
                <path d="M-0.21,-3.51 L0.21,-3.51 0.21,3.51 -0.21,3.51  z" class="primitive"/>
              </g>
              <g transform="translate(31.59,75.46)" id="img-48f900f7-43">
                <path d="M-0.21,-1.76 L0.21,-1.76 0.21,1.76 -0.21,1.76  z" class="primitive"/>
              </g>
              <g transform="translate(31.95,74.58)" id="img-48f900f7-44">
                <path d="M-0.21,-2.63 L0.21,-2.63 0.21,2.63 -0.21,2.63  z" class="primitive"/>
              </g>
              <g transform="translate(32.32,76.34)" id="img-48f900f7-45">
                <path d="M-0.21,-0.88 L0.21,-0.88 0.21,0.88 -0.21,0.88  z" class="primitive"/>
              </g>
              <g transform="translate(32.68,74.58)" id="img-48f900f7-46">
                <path d="M-0.21,-2.63 L0.21,-2.63 0.21,2.63 -0.21,2.63  z" class="primitive"/>
              </g>
              <g transform="translate(33.05,74.58)" id="img-48f900f7-47">
                <path d="M-0.21,-2.63 L0.21,-2.63 0.21,2.63 -0.21,2.63  z" class="primitive"/>
              </g>
              <g transform="translate(33.41,71.95)" id="img-48f900f7-48">
                <path d="M-0.21,-5.27 L0.21,-5.27 0.21,5.27 -0.21,5.27  z" class="primitive"/>
              </g>
              <g transform="translate(33.78,71.95)" id="img-48f900f7-49">
                <path d="M-0.21,-5.27 L0.21,-5.27 0.21,5.27 -0.21,5.27  z" class="primitive"/>
              </g>
              <g transform="translate(34.15,76.34)" id="img-48f900f7-50">
                <path d="M-0.21,-0.88 L0.21,-0.88 0.21,0.88 -0.21,0.88  z" class="primitive"/>
              </g>
              <g transform="translate(34.51,71.07)" id="img-48f900f7-51">
                <path d="M-0.21,-6.14 L0.21,-6.14 0.21,6.14 -0.21,6.14  z" class="primitive"/>
              </g>
              <g transform="translate(34.88,68.44)" id="img-48f900f7-52">
                <path d="M-0.21,-8.78 L0.21,-8.78 0.21,8.78 -0.21,8.78  z" class="primitive"/>
              </g>
              <g transform="translate(35.24,68.44)" id="img-48f900f7-53">
                <path d="M-0.21,-8.78 L0.21,-8.78 0.21,8.78 -0.21,8.78  z" class="primitive"/>
              </g>
              <g transform="translate(35.61,70.19)" id="img-48f900f7-54">
                <path d="M-0.21,-7.02 L0.21,-7.02 0.21,7.02 -0.21,7.02  z" class="primitive"/>
              </g>
              <g transform="translate(35.97,65.8)" id="img-48f900f7-55">
                <path d="M-0.21,-11.41 L0.21,-11.41 0.21,11.41 -0.21,11.41  z" class="primitive"/>
              </g>
              <g transform="translate(36.34,65.8)" id="img-48f900f7-56">
                <path d="M-0.21,-11.41 L0.21,-11.41 0.21,11.41 -0.21,11.41  z" class="primitive"/>
              </g>
              <g transform="translate(36.7,67.56)" id="img-48f900f7-57">
                <path d="M-0.21,-9.65 L0.21,-9.65 0.21,9.65 -0.21,9.65  z" class="primitive"/>
              </g>
              <g transform="translate(37.07,70.19)" id="img-48f900f7-58">
                <path d="M-0.21,-7.02 L0.21,-7.02 0.21,7.02 -0.21,7.02  z" class="primitive"/>
              </g>
              <g transform="translate(37.43,68.44)" id="img-48f900f7-59">
                <path d="M-0.21,-8.78 L0.21,-8.78 0.21,8.78 -0.21,8.78  z" class="primitive"/>
              </g>
              <g transform="translate(37.8,64.05)" id="img-48f900f7-60">
                <path d="M-0.21,-13.17 L0.21,-13.17 0.21,13.17 -0.21,13.17  z" class="primitive"/>
              </g>
              <g transform="translate(38.17,69.31)" id="img-48f900f7-61">
                <path d="M-0.21,-7.9 L0.21,-7.9 0.21,7.9 -0.21,7.9  z" class="primitive"/>
              </g>
              <g transform="translate(38.53,64.05)" id="img-48f900f7-62">
                <path d="M-0.21,-13.17 L0.21,-13.17 0.21,13.17 -0.21,13.17  z" class="primitive"/>
              </g>
              <g transform="translate(38.9,59.66)" id="img-48f900f7-63">
                <path d="M-0.21,-17.55 L0.21,-17.55 0.21,17.55 -0.21,17.55  z" class="primitive"/>
              </g>
              <g transform="translate(39.26,63.17)" id="img-48f900f7-64">
                <path d="M-0.21,-14.04 L0.21,-14.04 0.21,14.04 -0.21,14.04  z" class="primitive"/>
              </g>
              <g transform="translate(39.63,63.17)" id="img-48f900f7-65">
                <path d="M-0.21,-14.04 L0.21,-14.04 0.21,14.04 -0.21,14.04  z" class="primitive"/>
              </g>
              <g transform="translate(39.99,57.9)" id="img-48f900f7-66">
                <path d="M-0.21,-19.31 L0.21,-19.31 0.21,19.31 -0.21,19.31  z" class="primitive"/>
              </g>
              <g transform="translate(40.36,58.78)" id="img-48f900f7-67">
                <path d="M-0.21,-18.43 L0.21,-18.43 0.21,18.43 -0.21,18.43  z" class="primitive"/>
              </g>
              <g transform="translate(40.72,55.27)" id="img-48f900f7-68">
                <path d="M-0.21,-21.94 L0.21,-21.94 0.21,21.94 -0.21,21.94  z" class="primitive"/>
              </g>
              <g transform="translate(41.09,61.42)" id="img-48f900f7-69">
                <path d="M-0.21,-15.8 L0.21,-15.8 0.21,15.8 -0.21,15.8  z" class="primitive"/>
              </g>
              <g transform="translate(41.45,57.9)" id="img-48f900f7-70">
                <path d="M-0.21,-19.31 L0.21,-19.31 0.21,19.31 -0.21,19.31  z" class="primitive"/>
              </g>
              <g transform="translate(41.82,58.78)" id="img-48f900f7-71">
                <path d="M-0.21,-18.43 L0.21,-18.43 0.21,18.43 -0.21,18.43  z" class="primitive"/>
              </g>
              <g transform="translate(42.18,55.27)" id="img-48f900f7-72">
                <path d="M-0.21,-21.94 L0.21,-21.94 0.21,21.94 -0.21,21.94  z" class="primitive"/>
              </g>
              <g transform="translate(42.55,54.39)" id="img-48f900f7-73">
                <path d="M-0.21,-22.82 L0.21,-22.82 0.21,22.82 -0.21,22.82  z" class="primitive"/>
              </g>
              <g transform="translate(42.92,51.76)" id="img-48f900f7-74">
                <path d="M-0.21,-25.45 L0.21,-25.45 0.21,25.45 -0.21,25.45  z" class="primitive"/>
              </g>
              <g transform="translate(43.28,54.39)" id="img-48f900f7-75">
                <path d="M-0.21,-22.82 L0.21,-22.82 0.21,22.82 -0.21,22.82  z" class="primitive"/>
              </g>
              <g transform="translate(43.65,47.37)" id="img-48f900f7-76">
                <path d="M-0.21,-29.84 L0.21,-29.84 0.21,29.84 -0.21,29.84  z" class="primitive"/>
              </g>
              <g transform="translate(44.01,47.37)" id="img-48f900f7-77">
                <path d="M-0.21,-29.84 L0.21,-29.84 0.21,29.84 -0.21,29.84  z" class="primitive"/>
              </g>
              <g transform="translate(44.38,62.29)" id="img-48f900f7-78">
                <path d="M-0.21,-14.92 L0.21,-14.92 0.21,14.92 -0.21,14.92  z" class="primitive"/>
              </g>
              <g transform="translate(44.74,59.66)" id="img-48f900f7-79">
                <path d="M-0.21,-17.55 L0.21,-17.55 0.21,17.55 -0.21,17.55  z" class="primitive"/>
              </g>
              <g transform="translate(45.11,54.39)" id="img-48f900f7-80">
                <path d="M-0.21,-22.82 L0.21,-22.82 0.21,22.82 -0.21,22.82  z" class="primitive"/>
              </g>
              <g transform="translate(45.47,57.03)" id="img-48f900f7-81">
                <path d="M-0.21,-20.19 L0.21,-20.19 0.21,20.19 -0.21,20.19  z" class="primitive"/>
              </g>
              <g transform="translate(45.84,57.03)" id="img-48f900f7-82">
                <path d="M-0.21,-20.19 L0.21,-20.19 0.21,20.19 -0.21,20.19  z" class="primitive"/>
              </g>
              <g transform="translate(46.2,60.54)" id="img-48f900f7-83">
                <path d="M-0.21,-16.68 L0.21,-16.68 0.21,16.68 -0.21,16.68  z" class="primitive"/>
              </g>
              <g transform="translate(46.57,59.66)" id="img-48f900f7-84">
                <path d="M-0.21,-17.55 L0.21,-17.55 0.21,17.55 -0.21,17.55  z" class="primitive"/>
              </g>
              <g transform="translate(46.94,59.66)" id="img-48f900f7-85">
                <path d="M-0.21,-17.55 L0.21,-17.55 0.21,17.55 -0.21,17.55  z" class="primitive"/>
              </g>
              <g transform="translate(47.3,53.52)" id="img-48f900f7-86">
                <path d="M-0.21,-23.7 L0.21,-23.7 0.21,23.7 -0.21,23.7  z" class="primitive"/>
              </g>
              <g transform="translate(47.67,66.68)" id="img-48f900f7-87">
                <path d="M-0.21,-10.53 L0.21,-10.53 0.21,10.53 -0.21,10.53  z" class="primitive"/>
              </g>
              <g transform="translate(48.03,55.27)" id="img-48f900f7-88">
                <path d="M-0.21,-21.94 L0.21,-21.94 0.21,21.94 -0.21,21.94  z" class="primitive"/>
              </g>
              <g transform="translate(48.4,57.03)" id="img-48f900f7-89">
                <path d="M-0.21,-20.19 L0.21,-20.19 0.21,20.19 -0.21,20.19  z" class="primitive"/>
              </g>
              <g transform="translate(48.76,65.8)" id="img-48f900f7-90">
                <path d="M-0.21,-11.41 L0.21,-11.41 0.21,11.41 -0.21,11.41  z" class="primitive"/>
              </g>
              <g transform="translate(49.13,54.39)" id="img-48f900f7-91">
                <path d="M-0.21,-22.82 L0.21,-22.82 0.21,22.82 -0.21,22.82  z" class="primitive"/>
              </g>
              <g transform="translate(49.49,59.66)" id="img-48f900f7-92">
                <path d="M-0.21,-17.55 L0.21,-17.55 0.21,17.55 -0.21,17.55  z" class="primitive"/>
              </g>
              <g transform="translate(49.86,63.17)" id="img-48f900f7-93">
                <path d="M-0.21,-14.04 L0.21,-14.04 0.21,14.04 -0.21,14.04  z" class="primitive"/>
              </g>
              <g transform="translate(50.22,64.05)" id="img-48f900f7-94">
                <path d="M-0.21,-13.17 L0.21,-13.17 0.21,13.17 -0.21,13.17  z" class="primitive"/>
              </g>
              <g transform="translate(50.59,64.93)" id="img-48f900f7-95">
                <path d="M-0.21,-12.29 L0.21,-12.29 0.21,12.29 -0.21,12.29  z" class="primitive"/>
              </g>
              <g transform="translate(50.96,66.68)" id="img-48f900f7-96">
                <path d="M-0.21,-10.53 L0.21,-10.53 0.21,10.53 -0.21,10.53  z" class="primitive"/>
              </g>
              <g transform="translate(51.32,70.19)" id="img-48f900f7-97">
                <path d="M-0.21,-7.02 L0.21,-7.02 0.21,7.02 -0.21,7.02  z" class="primitive"/>
              </g>
              <g transform="translate(51.69,69.31)" id="img-48f900f7-98">
                <path d="M-0.21,-7.9 L0.21,-7.9 0.21,7.9 -0.21,7.9  z" class="primitive"/>
              </g>
              <g transform="translate(52.05,66.68)" id="img-48f900f7-99">
                <path d="M-0.21,-10.53 L0.21,-10.53 0.21,10.53 -0.21,10.53  z" class="primitive"/>
              </g>
              <g transform="translate(52.42,67.56)" id="img-48f900f7-100">
                <path d="M-0.21,-9.65 L0.21,-9.65 0.21,9.65 -0.21,9.65  z" class="primitive"/>
              </g>
              <g transform="translate(52.78,71.95)" id="img-48f900f7-101">
                <path d="M-0.21,-5.27 L0.21,-5.27 0.21,5.27 -0.21,5.27  z" class="primitive"/>
              </g>
              <g transform="translate(53.15,72.82)" id="img-48f900f7-102">
                <path d="M-0.21,-4.39 L0.21,-4.39 0.21,4.39 -0.21,4.39  z" class="primitive"/>
              </g>
              <g transform="translate(53.51,70.19)" id="img-48f900f7-103">
                <path d="M-0.21,-7.02 L0.21,-7.02 0.21,7.02 -0.21,7.02  z" class="primitive"/>
              </g>
              <g transform="translate(53.88,71.07)" id="img-48f900f7-104">
                <path d="M-0.21,-6.14 L0.21,-6.14 0.21,6.14 -0.21,6.14  z" class="primitive"/>
              </g>
              <g transform="translate(54.24,71.95)" id="img-48f900f7-105">
                <path d="M-0.21,-5.27 L0.21,-5.27 0.21,5.27 -0.21,5.27  z" class="primitive"/>
              </g>
              <g transform="translate(54.61,73.7)" id="img-48f900f7-106">
                <path d="M-0.21,-3.51 L0.21,-3.51 0.21,3.51 -0.21,3.51  z" class="primitive"/>
              </g>
              <g transform="translate(54.98,73.7)" id="img-48f900f7-107">
                <path d="M-0.21,-3.51 L0.21,-3.51 0.21,3.51 -0.21,3.51  z" class="primitive"/>
              </g>
              <g transform="translate(55.34,73.7)" id="img-48f900f7-108">
                <path d="M-0.21,-3.51 L0.21,-3.51 0.21,3.51 -0.21,3.51  z" class="primitive"/>
              </g>
              <g transform="translate(55.71,72.82)" id="img-48f900f7-109">
                <path d="M-0.21,-4.39 L0.21,-4.39 0.21,4.39 -0.21,4.39  z" class="primitive"/>
              </g>
              <g transform="translate(56.07,73.7)" id="img-48f900f7-110">
                <path d="M-0.21,-3.51 L0.21,-3.51 0.21,3.51 -0.21,3.51  z" class="primitive"/>
              </g>
              <g transform="translate(56.44,71.95)" id="img-48f900f7-111">
                <path d="M-0.21,-5.27 L0.21,-5.27 0.21,5.27 -0.21,5.27  z" class="primitive"/>
              </g>
              <g transform="translate(56.8,76.34)" id="img-48f900f7-112">
                <path d="M-0.21,-0.88 L0.21,-0.88 0.21,0.88 -0.21,0.88  z" class="primitive"/>
              </g>
              <g transform="translate(57.17,74.58)" id="img-48f900f7-113">
                <path d="M-0.21,-2.63 L0.21,-2.63 0.21,2.63 -0.21,2.63  z" class="primitive"/>
              </g>
              <g transform="translate(57.53,75.46)" id="img-48f900f7-114">
                <path d="M-0.21,-1.76 L0.21,-1.76 0.21,1.76 -0.21,1.76  z" class="primitive"/>
              </g>
              <g transform="translate(57.9,75.46)" id="img-48f900f7-115">
                <path d="M-0.21,-1.76 L0.21,-1.76 0.21,1.76 -0.21,1.76  z" class="primitive"/>
              </g>
              <g transform="translate(58.26,77.22)" id="img-48f900f7-116">
                <path d="M-0.21,-0 L0.21,-0 0.21,0 -0.21,0  z" class="primitive"/>
              </g>
              <g transform="translate(58.63,76.34)" id="img-48f900f7-117">
                <path d="M-0.21,-0.88 L0.21,-0.88 0.21,0.88 -0.21,0.88  z" class="primitive"/>
              </g>
              <g transform="translate(59,77.22)" id="img-48f900f7-118">
                <path d="M-0.21,-0 L0.21,-0 0.21,0 -0.21,0  z" class="primitive"/>
              </g>
              <g transform="translate(59.36,77.22)" id="img-48f900f7-119">
                <path d="M-0.21,-0 L0.21,-0 0.21,0 -0.21,0  z" class="primitive"/>
              </g>
              <g transform="translate(59.73,77.22)" id="img-48f900f7-120">
                <path d="M-0.21,-0 L0.21,-0 0.21,0 -0.21,0  z" class="primitive"/>
              </g>
              <g transform="translate(60.09,76.34)" id="img-48f900f7-121">
                <path d="M-0.21,-0.88 L0.21,-0.88 0.21,0.88 -0.21,0.88  z" class="primitive"/>
              </g>
              <g transform="translate(60.46,77.22)" id="img-48f900f7-122">
                <path d="M-0.21,-0 L0.21,-0 0.21,0 -0.21,0  z" class="primitive"/>
              </g>
              <g transform="translate(60.82,77.22)" id="img-48f900f7-123">
                <path d="M-0.21,-0 L0.21,-0 0.21,0 -0.21,0  z" class="primitive"/>
              </g>
              <g transform="translate(61.19,77.22)" id="img-48f900f7-124">
                <path d="M-0.21,-0 L0.21,-0 0.21,0 -0.21,0  z" class="primitive"/>
              </g>
              <g transform="translate(61.55,77.22)" id="img-48f900f7-125">
                <path d="M-0.21,-0 L0.21,-0 0.21,0 -0.21,0  z" class="primitive"/>
              </g>
              <g transform="translate(61.92,77.22)" id="img-48f900f7-126">
                <path d="M-0.21,-0 L0.21,-0 0.21,0 -0.21,0  z" class="primitive"/>
              </g>
              <g transform="translate(62.28,77.22)" id="img-48f900f7-127">
                <path d="M-0.21,-0 L0.21,-0 0.21,0 -0.21,0  z" class="primitive"/>
              </g>
              <g transform="translate(62.65,77.22)" id="img-48f900f7-128">
                <path d="M-0.21,-0 L0.21,-0 0.21,0 -0.21,0  z" class="primitive"/>
              </g>
              <g transform="translate(63.01,77.22)" id="img-48f900f7-129">
                <path d="M-0.21,-0 L0.21,-0 0.21,0 -0.21,0  z" class="primitive"/>
              </g>
              <g transform="translate(63.38,76.34)" id="img-48f900f7-130">
                <path d="M-0.21,-0.88 L0.21,-0.88 0.21,0.88 -0.21,0.88  z" class="primitive"/>
              </g>
            </g>
          </g>
        </g>
      </g>
    </g>
  </g>
  <g class="guide ylabels" font-size="2.82" font-family="'PT Sans Caption','Helvetica Neue','Helvetica',sans-serif" fill="#6C606B" id="img-48f900f7-131">
    <g transform="translate(16.96,77.21)" id="img-48f900f7-132">
      <g class="primitive">
        <text text-anchor="end" dy="0.35em">0</text>
      </g>
    </g>
    <g transform="translate(16.96,59.66)" id="img-48f900f7-133">
      <g class="primitive">
        <text text-anchor="end" dy="0.35em">10</text>
      </g>
    </g>
    <g transform="translate(16.96,42.11)" id="img-48f900f7-134">
      <g class="primitive">
        <text text-anchor="end" dy="0.35em">20</text>
      </g>
    </g>
    <g transform="translate(16.96,24.55)" id="img-48f900f7-135">
      <g class="primitive">
        <text text-anchor="end" dy="0.35em">30</text>
      </g>
    </g>
    <g transform="translate(16.96,7)" id="img-48f900f7-136">
      <g class="primitive">
        <text text-anchor="end" dy="0.35em">40</text>
      </g>
    </g>
  </g>
  <g font-size="3.88" font-family="'PT Sans','Helvetica Neue','Helvetica',sans-serif" fill="#564A55" stroke="#000000" stroke-opacity="0.000" id="img-48f900f7-137">
    <g transform="translate(8.81,40.11)" id="img-48f900f7-138">
      <g class="primitive">
        <text text-anchor="middle" dy="0.35em" transform="rotate(-90,0, 2)">frequency</text>
      </g>
    </g>
  </g>
</g>
<defs>
  <clipPath id="img-48f900f7-11">
    <path d="M17.96,5 L76.48,5 76.48,79.21 17.96,79.21 " />
  </clipPath>
</defs>
</svg>
