<?xml version="1.0" encoding="UTF-8"?>
<svg xmlns="http://www.w3.org/2000/svg"
     xmlns:xlink="http://www.w3.org/1999/xlink"
     xmlns:gadfly="http://www.gadflyjl.org/ns"
     version="1.2"
     width="141.42mm" height="100mm" viewBox="0 0 141.42 100"
     stroke="none"
     fill="#000000"
     stroke-width="0.3"
     font-size="3.88"
>
<defs>
  <marker id="arrow" markerWidth="15" markerHeight="7" refX="5" refY="3.5" orient="auto" markerUnits="strokeWidth">
    <path d="M0,0 L15,3.5 L0,7 z" stroke="context-stroke" fill="context-stroke"/>
  </marker>
</defs>
<g class="plotroot xscalable yscalable" id="img-5f7f78b4-1">
  <g class="guide xlabels" font-size="2.82" font-family="'PT Sans Caption','Helvetica Neue','Helvetica',sans-serif" fill="#6C606B" id="img-5f7f78b4-2">
    <g transform="translate(19.96,91.33)">
      <g class="primitive">
        <text text-anchor="middle" dy="0.6em">8.00×10⁶</text>
      </g>
    </g>
    <g transform="translate(36.36,91.33)">
      <g class="primitive">
        <text text-anchor="middle" dy="0.6em">9.00×10⁶</text>
      </g>
    </g>
    <g transform="translate(52.76,91.33)">
      <g class="primitive">
        <text text-anchor="middle" dy="0.6em">1.00×10⁷</text>
      </g>
    </g>
    <g transform="translate(69.16,91.33)">
      <g class="primitive">
        <text text-anchor="middle" dy="0.6em">1.10×10⁷</text>
      </g>
    </g>
    <g transform="translate(85.56,91.33)">
      <g class="primitive">
        <text text-anchor="middle" dy="0.6em">1.20×10⁷</text>
      </g>
    </g>
  </g>
  <g class="guide colorkey" id="img-5f7f78b4-3">
    <g class="color_coding_coding_coding_coding_4-path" id="img-5f7f78b4-4">
      <g fill="#4C404B" font-size="2.82" font-family="'PT Sans','Helvetica Neue','Helvetica',sans-serif" id="img-5f7f78b4-5">
        <g transform="translate(91.37,49.48)" id="img-5f7f78b4-6">
          <g class="primitive">
            <text dy="0.35em">coding_coding_coding_coding_4-path</text>
          </g>
        </g>
      </g>
      <g fill-opacity="1" fill="#00BFFF" stroke="#FFFFFF" id="img-5f7f78b4-7">
        <g transform="translate(89.47,49.48)" id="img-5f7f78b4-8">
          <path d="M-0.91,-0.91 L0.91,-0.91 0.91,0.91 -0.91,0.91  z" class="primitive"/>
        </g>
      </g>
    </g>
    <g fill="#362A35" font-size="3.88" font-family="'PT Sans','Helvetica Neue','Helvetica',sans-serif" stroke="#000000" stroke-opacity="0.000" id="img-5f7f78b4-9">
      <g transform="translate(88.56,45.66)" id="img-5f7f78b4-10">
        <g class="primitive">
          <text dy="-0em">graphlet</text>
        </g>
      </g>
    </g>
  </g>
  <g clip-path="url(#img-5f7f78b4-11)">
    <g id="img-5f7f78b4-12">
      <g pointer-events="visible" stroke-width="0.3" fill="#000000" fill-opacity="0.000" stroke="#000000" stroke-opacity="0.000" class="guide background" id="img-5f7f78b4-13">
        <g transform="translate(52.76,47.66)" id="img-5f7f78b4-14">
          <path d="M-34.8,-42.66 L34.8,-42.66 34.8,42.66 -34.8,42.66  z" class="primitive"/>
        </g>
      </g>
      <g class="guide ygridlines xfixed" stroke-dasharray="0.5,0.5" stroke-width="0.2" stroke="#D0D0E0" id="img-5f7f78b4-15">
        <g transform="translate(52.76,88.33)" id="img-5f7f78b4-16">
          <path fill="none" d="M-34.8,0 L34.8,0 " class="primitive"/>
        </g>
        <g transform="translate(52.76,72.06)" id="img-5f7f78b4-17">
          <path fill="none" d="M-34.8,0 L34.8,0 " class="primitive"/>
        </g>
        <g transform="translate(52.76,55.8)" id="img-5f7f78b4-18">
          <path fill="none" d="M-34.8,0 L34.8,0 " class="primitive"/>
        </g>
        <g transform="translate(52.76,39.53)" id="img-5f7f78b4-19">
          <path fill="none" d="M-34.8,0 L34.8,0 " class="primitive"/>
        </g>
        <g transform="translate(52.76,23.27)" id="img-5f7f78b4-20">
          <path fill="none" d="M-34.8,0 L34.8,0 " class="primitive"/>
        </g>
        <g transform="translate(52.76,7)" id="img-5f7f78b4-21">
          <path fill="none" d="M-34.8,0 L34.8,0 " class="primitive"/>
        </g>
      </g>
      <g class="guide xgridlines yfixed" stroke-dasharray="0.5,0.5" stroke-width="0.2" stroke="#D0D0E0" id="img-5f7f78b4-22">
        <g transform="translate(19.96,47.66)" id="img-5f7f78b4-23">
          <path fill="none" d="M0,-42.66 L0,42.66 " class="primitive"/>
        </g>
        <g transform="translate(36.36,47.66)" id="img-5f7f78b4-24">
          <path fill="none" d="M0,-42.66 L0,42.66 " class="primitive"/>
        </g>
        <g transform="translate(52.76,47.66)" id="img-5f7f78b4-25">
          <path fill="none" d="M0,-42.66 L0,42.66 " class="primitive"/>
        </g>
        <g transform="translate(69.16,47.66)" id="img-5f7f78b4-26">
          <path fill="none" d="M0,-42.66 L0,42.66 " class="primitive"/>
        </g>
        <g transform="translate(85.56,47.66)" id="img-5f7f78b4-27">
          <path fill="none" d="M0,-42.66 L0,42.66 " class="primitive"/>
        </g>
      </g>
      <g class="plotpanel" id="img-5f7f78b4-28">
        <metadata>
          <boundingbox value="17.95833333333333mm 5.0mm 69.60302290397617mm 85.32666666666667mm"/>
          <unitbox value="7.878054399845116e6 51.22960898434298 4.243891200309768e6 -52.459217968685955"/>
        </metadata>
        <g shape-rendering="crispEdges" stroke-width="0.3" id="img-5f7f78b4-29">
          <g stroke="#000000" stroke-opacity="0.000" class="geometry" id="img-5f7f78b4-30">
            <g fill="#00BFFF" id="img-5f7f78b4-31">
              <g transform="translate(29.51,86.7)" id="img-5f7f78b4-32">
                <path d="M-0.28,-1.63 L0.28,-1.63 0.28,1.63 -0.28,1.63  z" class="primitive"/>
              </g>
              <g transform="translate(30.02,87.51)" id="img-5f7f78b4-33">
                <path d="M-0.28,-0.81 L0.28,-0.81 0.28,0.81 -0.28,0.81  z" class="primitive"/>
              </g>
              <g transform="translate(30.54,86.7)" id="img-5f7f78b4-34">
                <path d="M-0.28,-1.63 L0.28,-1.63 0.28,1.63 -0.28,1.63  z" class="primitive"/>
              </g>
              <g transform="translate(31.06,88.33)" id="img-5f7f78b4-35">
                <path d="M-0.28,-0 L0.28,-0 0.28,0 -0.28,0  z" class="primitive"/>
              </g>
              <g transform="translate(31.58,86.7)" id="img-5f7f78b4-36">
                <path d="M-0.28,-1.63 L0.28,-1.63 0.28,1.63 -0.28,1.63  z" class="primitive"/>
              </g>
              <g transform="translate(32.1,84.26)" id="img-5f7f78b4-37">
                <path d="M-0.28,-4.07 L0.28,-4.07 0.28,4.07 -0.28,4.07  z" class="primitive"/>
              </g>
              <g transform="translate(32.62,84.26)" id="img-5f7f78b4-38">
                <path d="M-0.28,-4.07 L0.28,-4.07 0.28,4.07 -0.28,4.07  z" class="primitive"/>
              </g>
              <g transform="translate(33.14,87.51)" id="img-5f7f78b4-39">
                <path d="M-0.28,-0.81 L0.28,-0.81 0.28,0.81 -0.28,0.81  z" class="primitive"/>
              </g>
              <g transform="translate(33.66,85.07)" id="img-5f7f78b4-40">
                <path d="M-0.28,-3.25 L0.28,-3.25 0.28,3.25 -0.28,3.25  z" class="primitive"/>
              </g>
              <g transform="translate(34.18,84.26)" id="img-5f7f78b4-41">
                <path d="M-0.28,-4.07 L0.28,-4.07 0.28,4.07 -0.28,4.07  z" class="primitive"/>
              </g>
              <g transform="translate(34.7,81.82)" id="img-5f7f78b4-42">
                <path d="M-0.28,-6.51 L0.28,-6.51 0.28,6.51 -0.28,6.51  z" class="primitive"/>
              </g>
              <g transform="translate(35.21,79.38)" id="img-5f7f78b4-43">
                <path d="M-0.28,-8.95 L0.28,-8.95 0.28,8.95 -0.28,8.95  z" class="primitive"/>
              </g>
              <g transform="translate(35.73,84.26)" id="img-5f7f78b4-44">
                <path d="M-0.28,-4.07 L0.28,-4.07 0.28,4.07 -0.28,4.07  z" class="primitive"/>
              </g>
              <g transform="translate(36.25,83.45)" id="img-5f7f78b4-45">
                <path d="M-0.28,-4.88 L0.28,-4.88 0.28,4.88 -0.28,4.88  z" class="primitive"/>
              </g>
              <g transform="translate(36.77,84.26)" id="img-5f7f78b4-46">
                <path d="M-0.28,-4.07 L0.28,-4.07 0.28,4.07 -0.28,4.07  z" class="primitive"/>
              </g>
              <g transform="translate(37.29,84.26)" id="img-5f7f78b4-47">
                <path d="M-0.28,-4.07 L0.28,-4.07 0.28,4.07 -0.28,4.07  z" class="primitive"/>
              </g>
              <g transform="translate(37.81,84.26)" id="img-5f7f78b4-48">
                <path d="M-0.28,-4.07 L0.28,-4.07 0.28,4.07 -0.28,4.07  z" class="primitive"/>
              </g>
              <g transform="translate(38.33,79.38)" id="img-5f7f78b4-49">
                <path d="M-0.28,-8.95 L0.28,-8.95 0.28,8.95 -0.28,8.95  z" class="primitive"/>
              </g>
              <g transform="translate(38.85,79.38)" id="img-5f7f78b4-50">
                <path d="M-0.28,-8.95 L0.28,-8.95 0.28,8.95 -0.28,8.95  z" class="primitive"/>
              </g>
              <g transform="translate(39.37,82.63)" id="img-5f7f78b4-51">
                <path d="M-0.28,-5.69 L0.28,-5.69 0.28,5.69 -0.28,5.69  z" class="primitive"/>
              </g>
              <g transform="translate(39.89,80.19)" id="img-5f7f78b4-52">
                <path d="M-0.28,-8.13 L0.28,-8.13 0.28,8.13 -0.28,8.13  z" class="primitive"/>
              </g>
              <g transform="translate(40.4,76.13)" id="img-5f7f78b4-53">
                <path d="M-0.28,-12.2 L0.28,-12.2 0.28,12.2 -0.28,12.2  z" class="primitive"/>
              </g>
              <g transform="translate(40.92,76.94)" id="img-5f7f78b4-54">
                <path d="M-0.28,-11.39 L0.28,-11.39 0.28,11.39 -0.28,11.39  z" class="primitive"/>
              </g>
              <g transform="translate(41.44,78.57)" id="img-5f7f78b4-55">
                <path d="M-0.28,-9.76 L0.28,-9.76 0.28,9.76 -0.28,9.76  z" class="primitive"/>
              </g>
              <g transform="translate(41.96,73.69)" id="img-5f7f78b4-56">
                <path d="M-0.28,-14.64 L0.28,-14.64 0.28,14.64 -0.28,14.64  z" class="primitive"/>
              </g>
              <g transform="translate(42.48,75.31)" id="img-5f7f78b4-57">
                <path d="M-0.28,-13.01 L0.28,-13.01 0.28,13.01 -0.28,13.01  z" class="primitive"/>
              </g>
              <g transform="translate(43,71.25)" id="img-5f7f78b4-58">
                <path d="M-0.28,-17.08 L0.28,-17.08 0.28,17.08 -0.28,17.08  z" class="primitive"/>
              </g>
              <g transform="translate(43.52,76.94)" id="img-5f7f78b4-59">
                <path d="M-0.28,-11.39 L0.28,-11.39 0.28,11.39 -0.28,11.39  z" class="primitive"/>
              </g>
              <g transform="translate(44.04,75.31)" id="img-5f7f78b4-60">
                <path d="M-0.28,-13.01 L0.28,-13.01 0.28,13.01 -0.28,13.01  z" class="primitive"/>
              </g>
              <g transform="translate(44.56,71.25)" id="img-5f7f78b4-61">
                <path d="M-0.28,-17.08 L0.28,-17.08 0.28,17.08 -0.28,17.08  z" class="primitive"/>
              </g>
              <g transform="translate(45.07,69.62)" id="img-5f7f78b4-62">
                <path d="M-0.28,-18.71 L0.28,-18.71 0.28,18.71 -0.28,18.71  z" class="primitive"/>
              </g>
              <g transform="translate(45.59,72.87)" id="img-5f7f78b4-63">
                <path d="M-0.28,-15.45 L0.28,-15.45 0.28,15.45 -0.28,15.45  z" class="primitive"/>
              </g>
              <g transform="translate(46.11,69.62)" id="img-5f7f78b4-64">
                <path d="M-0.28,-18.71 L0.28,-18.71 0.28,18.71 -0.28,18.71  z" class="primitive"/>
              </g>
              <g transform="translate(46.63,68)" id="img-5f7f78b4-65">
                <path d="M-0.28,-20.33 L0.28,-20.33 0.28,20.33 -0.28,20.33  z" class="primitive"/>
              </g>
              <g transform="translate(47.15,70.43)" id="img-5f7f78b4-66">
                <path d="M-0.28,-17.89 L0.28,-17.89 0.28,17.89 -0.28,17.89  z" class="primitive"/>
              </g>
              <g transform="translate(47.67,70.43)" id="img-5f7f78b4-67">
                <path d="M-0.28,-17.89 L0.28,-17.89 0.28,17.89 -0.28,17.89  z" class="primitive"/>
              </g>
              <g transform="translate(48.19,70.43)" id="img-5f7f78b4-68">
                <path d="M-0.28,-17.89 L0.28,-17.89 0.28,17.89 -0.28,17.89  z" class="primitive"/>
              </g>
              <g transform="translate(48.71,72.06)" id="img-5f7f78b4-69">
                <path d="M-0.28,-16.27 L0.28,-16.27 0.28,16.27 -0.28,16.27  z" class="primitive"/>
              </g>
              <g transform="translate(49.23,74.5)" id="img-5f7f78b4-70">
                <path d="M-0.28,-13.83 L0.28,-13.83 0.28,13.83 -0.28,13.83  z" class="primitive"/>
              </g>
              <g transform="translate(49.75,68.81)" id="img-5f7f78b4-71">
                <path d="M-0.28,-19.52 L0.28,-19.52 0.28,19.52 -0.28,19.52  z" class="primitive"/>
              </g>
              <g transform="translate(50.26,69.62)" id="img-5f7f78b4-72">
                <path d="M-0.28,-18.71 L0.28,-18.71 0.28,18.71 -0.28,18.71  z" class="primitive"/>
              </g>
              <g transform="translate(50.78,63.93)" id="img-5f7f78b4-73">
                <path d="M-0.28,-24.4 L0.28,-24.4 0.28,24.4 -0.28,24.4  z" class="primitive"/>
              </g>
              <g transform="translate(51.3,52.54)" id="img-5f7f78b4-74">
                <path d="M-0.28,-35.78 L0.28,-35.78 0.28,35.78 -0.28,35.78  z" class="primitive"/>
              </g>
              <g transform="translate(51.82,74.5)" id="img-5f7f78b4-75">
                <path d="M-0.28,-13.83 L0.28,-13.83 0.28,13.83 -0.28,13.83  z" class="primitive"/>
              </g>
              <g transform="translate(52.34,72.06)" id="img-5f7f78b4-76">
                <path d="M-0.28,-16.27 L0.28,-16.27 0.28,16.27 -0.28,16.27  z" class="primitive"/>
              </g>
              <g transform="translate(52.86,59.86)" id="img-5f7f78b4-77">
                <path d="M-0.28,-28.46 L0.28,-28.46 0.28,28.46 -0.28,28.46  z" class="primitive"/>
              </g>
              <g transform="translate(53.38,71.25)" id="img-5f7f78b4-78">
                <path d="M-0.28,-17.08 L0.28,-17.08 0.28,17.08 -0.28,17.08  z" class="primitive"/>
              </g>
              <g transform="translate(53.9,68)" id="img-5f7f78b4-79">
                <path d="M-0.28,-20.33 L0.28,-20.33 0.28,20.33 -0.28,20.33  z" class="primitive"/>
              </g>
              <g transform="translate(54.42,76.13)" id="img-5f7f78b4-80">
                <path d="M-0.28,-12.2 L0.28,-12.2 0.28,12.2 -0.28,12.2  z" class="primitive"/>
              </g>
              <g transform="translate(54.94,72.87)" id="img-5f7f78b4-81">
                <path d="M-0.28,-15.45 L0.28,-15.45 0.28,15.45 -0.28,15.45  z" class="primitive"/>
              </g>
              <g transform="translate(55.45,73.69)" id="img-5f7f78b4-82">
                <path d="M-0.28,-14.64 L0.28,-14.64 0.28,14.64 -0.28,14.64  z" class="primitive"/>
              </g>
              <g transform="translate(55.97,76.94)" id="img-5f7f78b4-83">
                <path d="M-0.28,-11.39 L0.28,-11.39 0.28,11.39 -0.28,11.39  z" class="primitive"/>
              </g>
              <g transform="translate(56.49,74.5)" id="img-5f7f78b4-84">
                <path d="M-0.28,-13.83 L0.28,-13.83 0.28,13.83 -0.28,13.83  z" class="primitive"/>
              </g>
              <g transform="translate(57.01,80.19)" id="img-5f7f78b4-85">
                <path d="M-0.28,-8.13 L0.28,-8.13 0.28,8.13 -0.28,8.13  z" class="primitive"/>
              </g>
              <g transform="translate(57.53,77.75)" id="img-5f7f78b4-86">
                <path d="M-0.28,-10.57 L0.28,-10.57 0.28,10.57 -0.28,10.57  z" class="primitive"/>
              </g>
              <g transform="translate(58.05,77.75)" id="img-5f7f78b4-87">
                <path d="M-0.28,-10.57 L0.28,-10.57 0.28,10.57 -0.28,10.57  z" class="primitive"/>
              </g>
              <g transform="translate(58.57,77.75)" id="img-5f7f78b4-88">
                <path d="M-0.28,-10.57 L0.28,-10.57 0.28,10.57 -0.28,10.57  z" class="primitive"/>
              </g>
              <g transform="translate(59.09,77.75)" id="img-5f7f78b4-89">
                <path d="M-0.28,-10.57 L0.28,-10.57 0.28,10.57 -0.28,10.57  z" class="primitive"/>
              </g>
              <g transform="translate(59.61,71.25)" id="img-5f7f78b4-90">
                <path d="M-0.28,-17.08 L0.28,-17.08 0.28,17.08 -0.28,17.08  z" class="primitive"/>
              </g>
              <g transform="translate(60.13,75.31)" id="img-5f7f78b4-91">
                <path d="M-0.28,-13.01 L0.28,-13.01 0.28,13.01 -0.28,13.01  z" class="primitive"/>
              </g>
              <g transform="translate(60.64,74.5)" id="img-5f7f78b4-92">
                <path d="M-0.28,-13.83 L0.28,-13.83 0.28,13.83 -0.28,13.83  z" class="primitive"/>
              </g>
              <g transform="translate(61.16,82.63)" id="img-5f7f78b4-93">
                <path d="M-0.28,-5.69 L0.28,-5.69 0.28,5.69 -0.28,5.69  z" class="primitive"/>
              </g>
              <g transform="translate(61.68,76.13)" id="img-5f7f78b4-94">
                <path d="M-0.28,-12.2 L0.28,-12.2 0.28,12.2 -0.28,12.2  z" class="primitive"/>
              </g>
              <g transform="translate(62.2,81.82)" id="img-5f7f78b4-95">
                <path d="M-0.28,-6.51 L0.28,-6.51 0.28,6.51 -0.28,6.51  z" class="primitive"/>
              </g>
              <g transform="translate(62.72,81.82)" id="img-5f7f78b4-96">
                <path d="M-0.28,-6.51 L0.28,-6.51 0.28,6.51 -0.28,6.51  z" class="primitive"/>
              </g>
              <g transform="translate(63.24,81.82)" id="img-5f7f78b4-97">
                <path d="M-0.28,-6.51 L0.28,-6.51 0.28,6.51 -0.28,6.51  z" class="primitive"/>
              </g>
              <g transform="translate(63.76,80.19)" id="img-5f7f78b4-98">
                <path d="M-0.28,-8.13 L0.28,-8.13 0.28,8.13 -0.28,8.13  z" class="primitive"/>
              </g>
              <g transform="translate(64.28,81.82)" id="img-5f7f78b4-99">
                <path d="M-0.28,-6.51 L0.28,-6.51 0.28,6.51 -0.28,6.51  z" class="primitive"/>
              </g>
              <g transform="translate(64.8,84.26)" id="img-5f7f78b4-100">
                <path d="M-0.28,-4.07 L0.28,-4.07 0.28,4.07 -0.28,4.07  z" class="primitive"/>
              </g>
              <g transform="translate(65.32,85.07)" id="img-5f7f78b4-101">
                <path d="M-0.28,-3.25 L0.28,-3.25 0.28,3.25 -0.28,3.25  z" class="primitive"/>
              </g>
              <g transform="translate(65.83,86.7)" id="img-5f7f78b4-102">
                <path d="M-0.28,-1.63 L0.28,-1.63 0.28,1.63 -0.28,1.63  z" class="primitive"/>
              </g>
              <g transform="translate(66.35,86.7)" id="img-5f7f78b4-103">
                <path d="M-0.28,-1.63 L0.28,-1.63 0.28,1.63 -0.28,1.63  z" class="primitive"/>
              </g>
              <g transform="translate(66.87,86.7)" id="img-5f7f78b4-104">
                <path d="M-0.28,-1.63 L0.28,-1.63 0.28,1.63 -0.28,1.63  z" class="primitive"/>
              </g>
              <g transform="translate(67.39,83.45)" id="img-5f7f78b4-105">
                <path d="M-0.28,-4.88 L0.28,-4.88 0.28,4.88 -0.28,4.88  z" class="primitive"/>
              </g>
              <g transform="translate(67.91,86.7)" id="img-5f7f78b4-106">
                <path d="M-0.28,-1.63 L0.28,-1.63 0.28,1.63 -0.28,1.63  z" class="primitive"/>
              </g>
              <g transform="translate(68.43,85.89)" id="img-5f7f78b4-107">
                <path d="M-0.28,-2.44 L0.28,-2.44 0.28,2.44 -0.28,2.44  z" class="primitive"/>
              </g>
              <g transform="translate(68.95,85.89)" id="img-5f7f78b4-108">
                <path d="M-0.28,-2.44 L0.28,-2.44 0.28,2.44 -0.28,2.44  z" class="primitive"/>
              </g>
              <g transform="translate(69.47,86.7)" id="img-5f7f78b4-109">
                <path d="M-0.28,-1.63 L0.28,-1.63 0.28,1.63 -0.28,1.63  z" class="primitive"/>
              </g>
              <g transform="translate(69.99,86.7)" id="img-5f7f78b4-110">
                <path d="M-0.28,-1.63 L0.28,-1.63 0.28,1.63 -0.28,1.63  z" class="primitive"/>
              </g>
              <g transform="translate(70.51,87.51)" id="img-5f7f78b4-111">
                <path d="M-0.28,-0.81 L0.28,-0.81 0.28,0.81 -0.28,0.81  z" class="primitive"/>
              </g>
              <g transform="translate(71.02,87.51)" id="img-5f7f78b4-112">
                <path d="M-0.28,-0.81 L0.28,-0.81 0.28,0.81 -0.28,0.81  z" class="primitive"/>
              </g>
              <g transform="translate(71.54,87.51)" id="img-5f7f78b4-113">
                <path d="M-0.28,-0.81 L0.28,-0.81 0.28,0.81 -0.28,0.81  z" class="primitive"/>
              </g>
              <g transform="translate(72.06,86.7)" id="img-5f7f78b4-114">
                <path d="M-0.28,-1.63 L0.28,-1.63 0.28,1.63 -0.28,1.63  z" class="primitive"/>
              </g>
              <g transform="translate(72.58,87.51)" id="img-5f7f78b4-115">
                <path d="M-0.28,-0.81 L0.28,-0.81 0.28,0.81 -0.28,0.81  z" class="primitive"/>
              </g>
              <g transform="translate(73.1,85.89)" id="img-5f7f78b4-116">
                <path d="M-0.28,-2.44 L0.28,-2.44 0.28,2.44 -0.28,2.44  z" class="primitive"/>
              </g>
              <g transform="translate(73.62,88.33)" id="img-5f7f78b4-117">
                <path d="M-0.28,-0 L0.28,-0 0.28,0 -0.28,0  z" class="primitive"/>
              </g>
              <g transform="translate(74.14,86.7)" id="img-5f7f78b4-118">
                <path d="M-0.28,-1.63 L0.28,-1.63 0.28,1.63 -0.28,1.63  z" class="primitive"/>
              </g>
              <g transform="translate(74.66,88.33)" id="img-5f7f78b4-119">
                <path d="M-0.28,-0 L0.28,-0 0.28,0 -0.28,0  z" class="primitive"/>
              </g>
              <g transform="translate(75.18,87.51)" id="img-5f7f78b4-120">
                <path d="M-0.28,-0.81 L0.28,-0.81 0.28,0.81 -0.28,0.81  z" class="primitive"/>
              </g>
              <g transform="translate(75.7,88.33)" id="img-5f7f78b4-121">
                <path d="M-0.28,-0 L0.28,-0 0.28,0 -0.28,0  z" class="primitive"/>
              </g>
              <g transform="translate(76.21,88.33)" id="img-5f7f78b4-122">
                <path d="M-0.28,-0 L0.28,-0 0.28,0 -0.28,0  z" class="primitive"/>
              </g>
              <g transform="translate(76.73,88.33)" id="img-5f7f78b4-123">
                <path d="M-0.28,-0 L0.28,-0 0.28,0 -0.28,0  z" class="primitive"/>
              </g>
              <g transform="translate(77.25,88.33)" id="img-5f7f78b4-124">
                <path d="M-0.28,-0 L0.28,-0 0.28,0 -0.28,0  z" class="primitive"/>
              </g>
              <g transform="translate(77.77,88.33)" id="img-5f7f78b4-125">
                <path d="M-0.28,-0 L0.28,-0 0.28,0 -0.28,0  z" class="primitive"/>
              </g>
              <g transform="translate(78.29,88.33)" id="img-5f7f78b4-126">
                <path d="M-0.28,-0 L0.28,-0 0.28,0 -0.28,0  z" class="primitive"/>
              </g>
              <g transform="translate(78.81,87.51)" id="img-5f7f78b4-127">
                <path d="M-0.28,-0.81 L0.28,-0.81 0.28,0.81 -0.28,0.81  z" class="primitive"/>
              </g>
              <g transform="translate(79.33,88.33)" id="img-5f7f78b4-128">
                <path d="M-0.28,-0 L0.28,-0 0.28,0 -0.28,0  z" class="primitive"/>
              </g>
              <g transform="translate(79.85,88.33)" id="img-5f7f78b4-129">
                <path d="M-0.28,-0 L0.28,-0 0.28,0 -0.28,0  z" class="primitive"/>
              </g>
              <g transform="translate(80.37,88.33)" id="img-5f7f78b4-130">
                <path d="M-0.28,-0 L0.28,-0 0.28,0 -0.28,0  z" class="primitive"/>
              </g>
              <g transform="translate(80.89,87.51)" id="img-5f7f78b4-131">
                <path d="M-0.28,-0.81 L0.28,-0.81 0.28,0.81 -0.28,0.81  z" class="primitive"/>
              </g>
            </g>
          </g>
        </g>
      </g>
    </g>
  </g>
  <g class="guide ylabels" font-size="2.82" font-family="'PT Sans Caption','Helvetica Neue','Helvetica',sans-serif" fill="#6C606B" id="img-5f7f78b4-132">
    <g transform="translate(16.96,88.33)" id="img-5f7f78b4-133">
      <g class="primitive">
        <text text-anchor="end" dy="0.35em">0</text>
      </g>
    </g>
    <g transform="translate(16.96,72.06)" id="img-5f7f78b4-134">
      <g class="primitive">
        <text text-anchor="end" dy="0.35em">10</text>
      </g>
    </g>
    <g transform="translate(16.96,55.8)" id="img-5f7f78b4-135">
      <g class="primitive">
        <text text-anchor="end" dy="0.35em">20</text>
      </g>
    </g>
    <g transform="translate(16.96,39.53)" id="img-5f7f78b4-136">
      <g class="primitive">
        <text text-anchor="end" dy="0.35em">30</text>
      </g>
    </g>
    <g transform="translate(16.96,23.27)" id="img-5f7f78b4-137">
      <g class="primitive">
        <text text-anchor="end" dy="0.35em">40</text>
      </g>
    </g>
    <g transform="translate(16.96,7)" id="img-5f7f78b4-138">
      <g class="primitive">
        <text text-anchor="end" dy="0.35em">50</text>
      </g>
    </g>
  </g>
  <g font-size="3.88" font-family="'PT Sans','Helvetica Neue','Helvetica',sans-serif" fill="#564A55" stroke="#000000" stroke-opacity="0.000" id="img-5f7f78b4-139">
    <g transform="translate(8.81,45.66)" id="img-5f7f78b4-140">
      <g class="primitive">
        <text text-anchor="middle" dy="0.35em" transform="rotate(-90,0, 2)">frequency</text>
      </g>
    </g>
  </g>
</g>
<defs>
  <clipPath id="img-5f7f78b4-11">
    <path d="M17.96,5 L87.56,5 87.56,90.33 17.96,90.33 " />
  </clipPath>
</defs>
</svg>
