<?xml version="1.0" encoding="UTF-8"?>
<svg xmlns="http://www.w3.org/2000/svg"
     xmlns:xlink="http://www.w3.org/1999/xlink"
     xmlns:gadfly="http://www.gadflyjl.org/ns"
     version="1.2"
     width="141.42mm" height="100mm" viewBox="0 0 141.42 100"
     stroke="none"
     fill="#000000"
     stroke-width="0.3"
     font-size="3.88"
>
<defs>
  <marker id="arrow" markerWidth="15" markerHeight="7" refX="5" refY="3.5" orient="auto" markerUnits="strokeWidth">
    <path d="M0,0 L15,3.5 L0,7 z" stroke="context-stroke" fill="context-stroke"/>
  </marker>
</defs>
<g class="plotroot xscalable yscalable" id="img-b75e5de9-1">
  <g class="guide xlabels" font-size="2.82" font-family="'PT Sans Caption','Helvetica Neue','Helvetica',sans-serif" fill="#6C606B" id="img-b75e5de9-2">
    <g transform="translate(19.96,80.21)">
      <g class="primitive">
        <text text-anchor="end" dy="0.35em" transform="rotate(-90,0, 0)">1.80×10⁶</text>
      </g>
    </g>
    <g transform="translate(34.87,80.21)">
      <g class="primitive">
        <text text-anchor="end" dy="0.35em" transform="rotate(-90,0, 0)">2.00×10⁶</text>
      </g>
    </g>
    <g transform="translate(49.77,80.21)">
      <g class="primitive">
        <text text-anchor="end" dy="0.35em" transform="rotate(-90,0, 0)">2.20×10⁶</text>
      </g>
    </g>
    <g transform="translate(64.68,80.21)">
      <g class="primitive">
        <text text-anchor="end" dy="0.35em" transform="rotate(-90,0, 0)">2.40×10⁶</text>
      </g>
    </g>
    <g transform="translate(79.59,80.21)">
      <g class="primitive">
        <text text-anchor="end" dy="0.35em" transform="rotate(-90,0, 0)">2.60×10⁶</text>
      </g>
    </g>
  </g>
  <g class="guide colorkey" id="img-b75e5de9-3">
    <g class="color_coding_coding_noncoding_coding_4-chord" id="img-b75e5de9-4">
      <g fill="#4C404B" font-size="2.82" font-family="'PT Sans','Helvetica Neue','Helvetica',sans-serif" id="img-b75e5de9-5">
        <g transform="translate(85.4,43.92)" id="img-b75e5de9-6">
          <g class="primitive">
            <text dy="0.35em">coding_coding_noncoding_coding_4-chord</text>
          </g>
        </g>
      </g>
      <g fill-opacity="1" fill="#00BFFF" stroke="#FFFFFF" id="img-b75e5de9-7">
        <g transform="translate(83.49,43.92)" id="img-b75e5de9-8">
          <path d="M-0.91,-0.91 L0.91,-0.91 0.91,0.91 -0.91,0.91  z" class="primitive"/>
        </g>
      </g>
    </g>
    <g fill="#362A35" font-size="3.88" font-family="'PT Sans','Helvetica Neue','Helvetica',sans-serif" stroke="#000000" stroke-opacity="0.000" id="img-b75e5de9-9">
      <g transform="translate(82.59,40.1)" id="img-b75e5de9-10">
        <g class="primitive">
          <text dy="-0em">graphlet</text>
        </g>
      </g>
    </g>
  </g>
  <g clip-path="url(#img-b75e5de9-11)">
    <g id="img-b75e5de9-12">
      <g pointer-events="visible" stroke-width="0.3" fill="#000000" fill-opacity="0.000" stroke="#000000" stroke-opacity="0.000" class="guide background" id="img-b75e5de9-13">
        <g transform="translate(49.77,42.11)" id="img-b75e5de9-14">
          <path d="M-31.81,-37.11 L31.81,-37.11 31.81,37.11 -31.81,37.11  z" class="primitive"/>
        </g>
      </g>
      <g class="guide ygridlines xfixed" stroke-dasharray="0.5,0.5" stroke-width="0.2" stroke="#D0D0E0" id="img-b75e5de9-15">
        <g transform="translate(49.77,77.21)" id="img-b75e5de9-16">
          <path fill="none" d="M-31.81,0 L31.81,0 " class="primitive"/>
        </g>
        <g transform="translate(49.77,59.66)" id="img-b75e5de9-17">
          <path fill="none" d="M-31.81,0 L31.81,0 " class="primitive"/>
        </g>
        <g transform="translate(49.77,42.11)" id="img-b75e5de9-18">
          <path fill="none" d="M-31.81,0 L31.81,0 " class="primitive"/>
        </g>
        <g transform="translate(49.77,24.55)" id="img-b75e5de9-19">
          <path fill="none" d="M-31.81,0 L31.81,0 " class="primitive"/>
        </g>
        <g transform="translate(49.77,7)" id="img-b75e5de9-20">
          <path fill="none" d="M-31.81,0 L31.81,0 " class="primitive"/>
        </g>
      </g>
      <g class="guide xgridlines yfixed" stroke-dasharray="0.5,0.5" stroke-width="0.2" stroke="#D0D0E0" id="img-b75e5de9-21">
        <g transform="translate(19.96,42.11)" id="img-b75e5de9-22">
          <path fill="none" d="M0,-37.11 L0,37.11 " class="primitive"/>
        </g>
        <g transform="translate(34.87,42.11)" id="img-b75e5de9-23">
          <path fill="none" d="M0,-37.11 L0,37.11 " class="primitive"/>
        </g>
        <g transform="translate(49.77,42.11)" id="img-b75e5de9-24">
          <path fill="none" d="M0,-37.11 L0,37.11 " class="primitive"/>
        </g>
        <g transform="translate(64.68,42.11)" id="img-b75e5de9-25">
          <path fill="none" d="M0,-37.11 L0,37.11 " class="primitive"/>
        </g>
        <g transform="translate(79.59,42.11)" id="img-b75e5de9-26">
          <path fill="none" d="M0,-37.11 L0,37.11 " class="primitive"/>
        </g>
      </g>
      <g class="plotpanel" id="img-b75e5de9-27">
        <metadata>
          <boundingbox value="17.958333333333336mm 5.0mm 63.629689570642846mm 74.21333333333334mm"/>
          <unitbox value="1.7731677288357422e6 41.13938473224459 853664.5423285154 -42.27876946448917"/>
        </metadata>
        <g shape-rendering="crispEdges" stroke-width="0.3" id="img-b75e5de9-28">
          <g stroke="#000000" stroke-opacity="0.000" class="geometry" id="img-b75e5de9-29">
            <g fill="#00BFFF" id="img-b75e5de9-30">
              <g transform="translate(26.42,76.34)" id="img-b75e5de9-31">
                <path d="M-0.23,-0.88 L0.23,-0.88 0.23,0.88 -0.23,0.88  z" class="primitive"/>
              </g>
              <g transform="translate(26.84,77.22)" id="img-b75e5de9-32">
                <path d="M-0.23,-0 L0.23,-0 0.23,0 -0.23,0  z" class="primitive"/>
              </g>
              <g transform="translate(27.26,77.22)" id="img-b75e5de9-33">
                <path d="M-0.23,-0 L0.23,-0 0.23,0 -0.23,0  z" class="primitive"/>
              </g>
              <g transform="translate(27.68,77.22)" id="img-b75e5de9-34">
                <path d="M-0.23,-0 L0.23,-0 0.23,0 -0.23,0  z" class="primitive"/>
              </g>
              <g transform="translate(28.1,77.22)" id="img-b75e5de9-35">
                <path d="M-0.23,-0 L0.23,-0 0.23,0 -0.23,0  z" class="primitive"/>
              </g>
              <g transform="translate(28.52,77.22)" id="img-b75e5de9-36">
                <path d="M-0.23,-0 L0.23,-0 0.23,0 -0.23,0  z" class="primitive"/>
              </g>
              <g transform="translate(28.94,77.22)" id="img-b75e5de9-37">
                <path d="M-0.23,-0 L0.23,-0 0.23,0 -0.23,0  z" class="primitive"/>
              </g>
              <g transform="translate(29.36,76.34)" id="img-b75e5de9-38">
                <path d="M-0.23,-0.88 L0.23,-0.88 0.23,0.88 -0.23,0.88  z" class="primitive"/>
              </g>
              <g transform="translate(29.78,76.34)" id="img-b75e5de9-39">
                <path d="M-0.23,-0.88 L0.23,-0.88 0.23,0.88 -0.23,0.88  z" class="primitive"/>
              </g>
              <g transform="translate(30.2,74.58)" id="img-b75e5de9-40">
                <path d="M-0.23,-2.63 L0.23,-2.63 0.23,2.63 -0.23,2.63  z" class="primitive"/>
              </g>
              <g transform="translate(30.62,77.22)" id="img-b75e5de9-41">
                <path d="M-0.23,-0 L0.23,-0 0.23,0 -0.23,0  z" class="primitive"/>
              </g>
              <g transform="translate(31.04,71.95)" id="img-b75e5de9-42">
                <path d="M-0.23,-5.27 L0.23,-5.27 0.23,5.27 -0.23,5.27  z" class="primitive"/>
              </g>
              <g transform="translate(31.46,77.22)" id="img-b75e5de9-43">
                <path d="M-0.23,-0 L0.23,-0 0.23,0 -0.23,0  z" class="primitive"/>
              </g>
              <g transform="translate(31.88,77.22)" id="img-b75e5de9-44">
                <path d="M-0.23,-0 L0.23,-0 0.23,0 -0.23,0  z" class="primitive"/>
              </g>
              <g transform="translate(32.3,76.34)" id="img-b75e5de9-45">
                <path d="M-0.23,-0.88 L0.23,-0.88 0.23,0.88 -0.23,0.88  z" class="primitive"/>
              </g>
              <g transform="translate(32.72,77.22)" id="img-b75e5de9-46">
                <path d="M-0.23,-0 L0.23,-0 0.23,0 -0.23,0  z" class="primitive"/>
              </g>
              <g transform="translate(33.14,72.82)" id="img-b75e5de9-47">
                <path d="M-0.23,-4.39 L0.23,-4.39 0.23,4.39 -0.23,4.39  z" class="primitive"/>
              </g>
              <g transform="translate(33.56,74.58)" id="img-b75e5de9-48">
                <path d="M-0.23,-2.63 L0.23,-2.63 0.23,2.63 -0.23,2.63  z" class="primitive"/>
              </g>
              <g transform="translate(33.98,77.22)" id="img-b75e5de9-49">
                <path d="M-0.23,-0 L0.23,-0 0.23,0 -0.23,0  z" class="primitive"/>
              </g>
              <g transform="translate(34.4,75.46)" id="img-b75e5de9-50">
                <path d="M-0.23,-1.76 L0.23,-1.76 0.23,1.76 -0.23,1.76  z" class="primitive"/>
              </g>
              <g transform="translate(34.82,77.22)" id="img-b75e5de9-51">
                <path d="M-0.23,-0 L0.23,-0 0.23,0 -0.23,0  z" class="primitive"/>
              </g>
              <g transform="translate(35.24,75.46)" id="img-b75e5de9-52">
                <path d="M-0.23,-1.76 L0.23,-1.76 0.23,1.76 -0.23,1.76  z" class="primitive"/>
              </g>
              <g transform="translate(35.66,74.58)" id="img-b75e5de9-53">
                <path d="M-0.23,-2.63 L0.23,-2.63 0.23,2.63 -0.23,2.63  z" class="primitive"/>
              </g>
              <g transform="translate(36.08,71.07)" id="img-b75e5de9-54">
                <path d="M-0.23,-6.14 L0.23,-6.14 0.23,6.14 -0.23,6.14  z" class="primitive"/>
              </g>
              <g transform="translate(36.5,76.34)" id="img-b75e5de9-55">
                <path d="M-0.23,-0.88 L0.23,-0.88 0.23,0.88 -0.23,0.88  z" class="primitive"/>
              </g>
              <g transform="translate(36.92,73.7)" id="img-b75e5de9-56">
                <path d="M-0.23,-3.51 L0.23,-3.51 0.23,3.51 -0.23,3.51  z" class="primitive"/>
              </g>
              <g transform="translate(37.34,69.31)" id="img-b75e5de9-57">
                <path d="M-0.23,-7.9 L0.23,-7.9 0.23,7.9 -0.23,7.9  z" class="primitive"/>
              </g>
              <g transform="translate(37.76,70.19)" id="img-b75e5de9-58">
                <path d="M-0.23,-7.02 L0.23,-7.02 0.23,7.02 -0.23,7.02  z" class="primitive"/>
              </g>
              <g transform="translate(38.18,71.07)" id="img-b75e5de9-59">
                <path d="M-0.23,-6.14 L0.23,-6.14 0.23,6.14 -0.23,6.14  z" class="primitive"/>
              </g>
              <g transform="translate(38.6,67.56)" id="img-b75e5de9-60">
                <path d="M-0.23,-9.65 L0.23,-9.65 0.23,9.65 -0.23,9.65  z" class="primitive"/>
              </g>
              <g transform="translate(39.02,68.44)" id="img-b75e5de9-61">
                <path d="M-0.23,-8.78 L0.23,-8.78 0.23,8.78 -0.23,8.78  z" class="primitive"/>
              </g>
              <g transform="translate(39.44,71.95)" id="img-b75e5de9-62">
                <path d="M-0.23,-5.27 L0.23,-5.27 0.23,5.27 -0.23,5.27  z" class="primitive"/>
              </g>
              <g transform="translate(39.86,67.56)" id="img-b75e5de9-63">
                <path d="M-0.23,-9.65 L0.23,-9.65 0.23,9.65 -0.23,9.65  z" class="primitive"/>
              </g>
              <g transform="translate(40.28,64.05)" id="img-b75e5de9-64">
                <path d="M-0.23,-13.17 L0.23,-13.17 0.23,13.17 -0.23,13.17  z" class="primitive"/>
              </g>
              <g transform="translate(40.7,62.29)" id="img-b75e5de9-65">
                <path d="M-0.23,-14.92 L0.23,-14.92 0.23,14.92 -0.23,14.92  z" class="primitive"/>
              </g>
              <g transform="translate(41.12,70.19)" id="img-b75e5de9-66">
                <path d="M-0.23,-7.02 L0.23,-7.02 0.23,7.02 -0.23,7.02  z" class="primitive"/>
              </g>
              <g transform="translate(41.54,62.29)" id="img-b75e5de9-67">
                <path d="M-0.23,-14.92 L0.23,-14.92 0.23,14.92 -0.23,14.92  z" class="primitive"/>
              </g>
              <g transform="translate(41.96,56.15)" id="img-b75e5de9-68">
                <path d="M-0.23,-21.06 L0.23,-21.06 0.23,21.06 -0.23,21.06  z" class="primitive"/>
              </g>
              <g transform="translate(42.38,62.29)" id="img-b75e5de9-69">
                <path d="M-0.23,-14.92 L0.23,-14.92 0.23,14.92 -0.23,14.92  z" class="primitive"/>
              </g>
              <g transform="translate(42.8,63.17)" id="img-b75e5de9-70">
                <path d="M-0.23,-14.04 L0.23,-14.04 0.23,14.04 -0.23,14.04  z" class="primitive"/>
              </g>
              <g transform="translate(43.22,58.78)" id="img-b75e5de9-71">
                <path d="M-0.23,-18.43 L0.23,-18.43 0.23,18.43 -0.23,18.43  z" class="primitive"/>
              </g>
              <g transform="translate(43.64,64.05)" id="img-b75e5de9-72">
                <path d="M-0.23,-13.17 L0.23,-13.17 0.23,13.17 -0.23,13.17  z" class="primitive"/>
              </g>
              <g transform="translate(44.06,63.17)" id="img-b75e5de9-73">
                <path d="M-0.23,-14.04 L0.23,-14.04 0.23,14.04 -0.23,14.04  z" class="primitive"/>
              </g>
              <g transform="translate(44.48,62.29)" id="img-b75e5de9-74">
                <path d="M-0.23,-14.92 L0.23,-14.92 0.23,14.92 -0.23,14.92  z" class="primitive"/>
              </g>
              <g transform="translate(44.9,63.17)" id="img-b75e5de9-75">
                <path d="M-0.23,-14.04 L0.23,-14.04 0.23,14.04 -0.23,14.04  z" class="primitive"/>
              </g>
              <g transform="translate(45.32,51.76)" id="img-b75e5de9-76">
                <path d="M-0.23,-25.45 L0.23,-25.45 0.23,25.45 -0.23,25.45  z" class="primitive"/>
              </g>
              <g transform="translate(45.74,60.54)" id="img-b75e5de9-77">
                <path d="M-0.23,-16.68 L0.23,-16.68 0.23,16.68 -0.23,16.68  z" class="primitive"/>
              </g>
              <g transform="translate(46.16,57.03)" id="img-b75e5de9-78">
                <path d="M-0.23,-20.19 L0.23,-20.19 0.23,20.19 -0.23,20.19  z" class="primitive"/>
              </g>
              <g transform="translate(46.58,57.9)" id="img-b75e5de9-79">
                <path d="M-0.23,-19.31 L0.23,-19.31 0.23,19.31 -0.23,19.31  z" class="primitive"/>
              </g>
              <g transform="translate(47,46.5)" id="img-b75e5de9-80">
                <path d="M-0.23,-30.72 L0.23,-30.72 0.23,30.72 -0.23,30.72  z" class="primitive"/>
              </g>
              <g transform="translate(47.42,59.66)" id="img-b75e5de9-81">
                <path d="M-0.23,-17.55 L0.23,-17.55 0.23,17.55 -0.23,17.55  z" class="primitive"/>
              </g>
              <g transform="translate(47.84,54.39)" id="img-b75e5de9-82">
                <path d="M-0.23,-22.82 L0.23,-22.82 0.23,22.82 -0.23,22.82  z" class="primitive"/>
              </g>
              <g transform="translate(48.26,54.39)" id="img-b75e5de9-83">
                <path d="M-0.23,-22.82 L0.23,-22.82 0.23,22.82 -0.23,22.82  z" class="primitive"/>
              </g>
              <g transform="translate(48.68,57.9)" id="img-b75e5de9-84">
                <path d="M-0.23,-19.31 L0.23,-19.31 0.23,19.31 -0.23,19.31  z" class="primitive"/>
              </g>
              <g transform="translate(49.1,52.64)" id="img-b75e5de9-85">
                <path d="M-0.23,-24.57 L0.23,-24.57 0.23,24.57 -0.23,24.57  z" class="primitive"/>
              </g>
              <g transform="translate(49.52,50.01)" id="img-b75e5de9-86">
                <path d="M-0.23,-27.21 L0.23,-27.21 0.23,27.21 -0.23,27.21  z" class="primitive"/>
              </g>
              <g transform="translate(49.94,50.01)" id="img-b75e5de9-87">
                <path d="M-0.23,-27.21 L0.23,-27.21 0.23,27.21 -0.23,27.21  z" class="primitive"/>
              </g>
              <g transform="translate(50.36,54.39)" id="img-b75e5de9-88">
                <path d="M-0.23,-22.82 L0.23,-22.82 0.23,22.82 -0.23,22.82  z" class="primitive"/>
              </g>
              <g transform="translate(50.78,54.39)" id="img-b75e5de9-89">
                <path d="M-0.23,-22.82 L0.23,-22.82 0.23,22.82 -0.23,22.82  z" class="primitive"/>
              </g>
              <g transform="translate(51.2,58.78)" id="img-b75e5de9-90">
                <path d="M-0.23,-18.43 L0.23,-18.43 0.23,18.43 -0.23,18.43  z" class="primitive"/>
              </g>
              <g transform="translate(51.62,62.29)" id="img-b75e5de9-91">
                <path d="M-0.23,-14.92 L0.23,-14.92 0.23,14.92 -0.23,14.92  z" class="primitive"/>
              </g>
              <g transform="translate(52.04,56.15)" id="img-b75e5de9-92">
                <path d="M-0.23,-21.06 L0.23,-21.06 0.23,21.06 -0.23,21.06  z" class="primitive"/>
              </g>
              <g transform="translate(52.46,60.54)" id="img-b75e5de9-93">
                <path d="M-0.23,-16.68 L0.23,-16.68 0.23,16.68 -0.23,16.68  z" class="primitive"/>
              </g>
              <g transform="translate(52.88,59.66)" id="img-b75e5de9-94">
                <path d="M-0.23,-17.55 L0.23,-17.55 0.23,17.55 -0.23,17.55  z" class="primitive"/>
              </g>
              <g transform="translate(53.3,58.78)" id="img-b75e5de9-95">
                <path d="M-0.23,-18.43 L0.23,-18.43 0.23,18.43 -0.23,18.43  z" class="primitive"/>
              </g>
              <g transform="translate(53.72,62.29)" id="img-b75e5de9-96">
                <path d="M-0.23,-14.92 L0.23,-14.92 0.23,14.92 -0.23,14.92  z" class="primitive"/>
              </g>
              <g transform="translate(54.14,58.78)" id="img-b75e5de9-97">
                <path d="M-0.23,-18.43 L0.23,-18.43 0.23,18.43 -0.23,18.43  z" class="primitive"/>
              </g>
              <g transform="translate(54.56,61.42)" id="img-b75e5de9-98">
                <path d="M-0.23,-15.8 L0.23,-15.8 0.23,15.8 -0.23,15.8  z" class="primitive"/>
              </g>
              <g transform="translate(54.98,67.56)" id="img-b75e5de9-99">
                <path d="M-0.23,-9.65 L0.23,-9.65 0.23,9.65 -0.23,9.65  z" class="primitive"/>
              </g>
              <g transform="translate(55.4,66.68)" id="img-b75e5de9-100">
                <path d="M-0.23,-10.53 L0.23,-10.53 0.23,10.53 -0.23,10.53  z" class="primitive"/>
              </g>
              <g transform="translate(55.82,71.95)" id="img-b75e5de9-101">
                <path d="M-0.23,-5.27 L0.23,-5.27 0.23,5.27 -0.23,5.27  z" class="primitive"/>
              </g>
              <g transform="translate(56.24,71.07)" id="img-b75e5de9-102">
                <path d="M-0.23,-6.14 L0.23,-6.14 0.23,6.14 -0.23,6.14  z" class="primitive"/>
              </g>
              <g transform="translate(56.66,63.17)" id="img-b75e5de9-103">
                <path d="M-0.23,-14.04 L0.23,-14.04 0.23,14.04 -0.23,14.04  z" class="primitive"/>
              </g>
              <g transform="translate(57.08,66.68)" id="img-b75e5de9-104">
                <path d="M-0.23,-10.53 L0.23,-10.53 0.23,10.53 -0.23,10.53  z" class="primitive"/>
              </g>
              <g transform="translate(57.5,69.31)" id="img-b75e5de9-105">
                <path d="M-0.23,-7.9 L0.23,-7.9 0.23,7.9 -0.23,7.9  z" class="primitive"/>
              </g>
              <g transform="translate(57.92,70.19)" id="img-b75e5de9-106">
                <path d="M-0.23,-7.02 L0.23,-7.02 0.23,7.02 -0.23,7.02  z" class="primitive"/>
              </g>
              <g transform="translate(58.34,68.44)" id="img-b75e5de9-107">
                <path d="M-0.23,-8.78 L0.23,-8.78 0.23,8.78 -0.23,8.78  z" class="primitive"/>
              </g>
              <g transform="translate(58.76,71.07)" id="img-b75e5de9-108">
                <path d="M-0.23,-6.14 L0.23,-6.14 0.23,6.14 -0.23,6.14  z" class="primitive"/>
              </g>
              <g transform="translate(59.18,65.8)" id="img-b75e5de9-109">
                <path d="M-0.23,-11.41 L0.23,-11.41 0.23,11.41 -0.23,11.41  z" class="primitive"/>
              </g>
              <g transform="translate(59.6,71.07)" id="img-b75e5de9-110">
                <path d="M-0.23,-6.14 L0.23,-6.14 0.23,6.14 -0.23,6.14  z" class="primitive"/>
              </g>
              <g transform="translate(60.02,73.7)" id="img-b75e5de9-111">
                <path d="M-0.23,-3.51 L0.23,-3.51 0.23,3.51 -0.23,3.51  z" class="primitive"/>
              </g>
              <g transform="translate(60.44,71.95)" id="img-b75e5de9-112">
                <path d="M-0.23,-5.27 L0.23,-5.27 0.23,5.27 -0.23,5.27  z" class="primitive"/>
              </g>
              <g transform="translate(60.86,73.7)" id="img-b75e5de9-113">
                <path d="M-0.23,-3.51 L0.23,-3.51 0.23,3.51 -0.23,3.51  z" class="primitive"/>
              </g>
              <g transform="translate(61.28,76.34)" id="img-b75e5de9-114">
                <path d="M-0.23,-0.88 L0.23,-0.88 0.23,0.88 -0.23,0.88  z" class="primitive"/>
              </g>
              <g transform="translate(61.7,71.95)" id="img-b75e5de9-115">
                <path d="M-0.23,-5.27 L0.23,-5.27 0.23,5.27 -0.23,5.27  z" class="primitive"/>
              </g>
              <g transform="translate(62.12,73.7)" id="img-b75e5de9-116">
                <path d="M-0.23,-3.51 L0.23,-3.51 0.23,3.51 -0.23,3.51  z" class="primitive"/>
              </g>
              <g transform="translate(62.54,75.46)" id="img-b75e5de9-117">
                <path d="M-0.23,-1.76 L0.23,-1.76 0.23,1.76 -0.23,1.76  z" class="primitive"/>
              </g>
              <g transform="translate(62.96,76.34)" id="img-b75e5de9-118">
                <path d="M-0.23,-0.88 L0.23,-0.88 0.23,0.88 -0.23,0.88  z" class="primitive"/>
              </g>
              <g transform="translate(63.38,74.58)" id="img-b75e5de9-119">
                <path d="M-0.23,-2.63 L0.23,-2.63 0.23,2.63 -0.23,2.63  z" class="primitive"/>
              </g>
              <g transform="translate(63.8,77.22)" id="img-b75e5de9-120">
                <path d="M-0.23,-0 L0.23,-0 0.23,0 -0.23,0  z" class="primitive"/>
              </g>
              <g transform="translate(64.22,76.34)" id="img-b75e5de9-121">
                <path d="M-0.23,-0.88 L0.23,-0.88 0.23,0.88 -0.23,0.88  z" class="primitive"/>
              </g>
              <g transform="translate(64.64,76.34)" id="img-b75e5de9-122">
                <path d="M-0.23,-0.88 L0.23,-0.88 0.23,0.88 -0.23,0.88  z" class="primitive"/>
              </g>
              <g transform="translate(65.06,76.34)" id="img-b75e5de9-123">
                <path d="M-0.23,-0.88 L0.23,-0.88 0.23,0.88 -0.23,0.88  z" class="primitive"/>
              </g>
              <g transform="translate(65.48,75.46)" id="img-b75e5de9-124">
                <path d="M-0.23,-1.76 L0.23,-1.76 0.23,1.76 -0.23,1.76  z" class="primitive"/>
              </g>
              <g transform="translate(65.9,77.22)" id="img-b75e5de9-125">
                <path d="M-0.23,-0 L0.23,-0 0.23,0 -0.23,0  z" class="primitive"/>
              </g>
              <g transform="translate(66.32,77.22)" id="img-b75e5de9-126">
                <path d="M-0.23,-0 L0.23,-0 0.23,0 -0.23,0  z" class="primitive"/>
              </g>
              <g transform="translate(66.74,77.22)" id="img-b75e5de9-127">
                <path d="M-0.23,-0 L0.23,-0 0.23,0 -0.23,0  z" class="primitive"/>
              </g>
              <g transform="translate(67.16,76.34)" id="img-b75e5de9-128">
                <path d="M-0.23,-0.88 L0.23,-0.88 0.23,0.88 -0.23,0.88  z" class="primitive"/>
              </g>
              <g transform="translate(67.58,77.22)" id="img-b75e5de9-129">
                <path d="M-0.23,-0 L0.23,-0 0.23,0 -0.23,0  z" class="primitive"/>
              </g>
              <g transform="translate(68,75.46)" id="img-b75e5de9-130">
                <path d="M-0.23,-1.76 L0.23,-1.76 0.23,1.76 -0.23,1.76  z" class="primitive"/>
              </g>
            </g>
          </g>
        </g>
      </g>
    </g>
  </g>
  <g class="guide ylabels" font-size="2.82" font-family="'PT Sans Caption','Helvetica Neue','Helvetica',sans-serif" fill="#6C606B" id="img-b75e5de9-131">
    <g transform="translate(16.96,77.21)" id="img-b75e5de9-132">
      <g class="primitive">
        <text text-anchor="end" dy="0.35em">0</text>
      </g>
    </g>
    <g transform="translate(16.96,59.66)" id="img-b75e5de9-133">
      <g class="primitive">
        <text text-anchor="end" dy="0.35em">10</text>
      </g>
    </g>
    <g transform="translate(16.96,42.11)" id="img-b75e5de9-134">
      <g class="primitive">
        <text text-anchor="end" dy="0.35em">20</text>
      </g>
    </g>
    <g transform="translate(16.96,24.55)" id="img-b75e5de9-135">
      <g class="primitive">
        <text text-anchor="end" dy="0.35em">30</text>
      </g>
    </g>
    <g transform="translate(16.96,7)" id="img-b75e5de9-136">
      <g class="primitive">
        <text text-anchor="end" dy="0.35em">40</text>
      </g>
    </g>
  </g>
  <g font-size="3.88" font-family="'PT Sans','Helvetica Neue','Helvetica',sans-serif" fill="#564A55" stroke="#000000" stroke-opacity="0.000" id="img-b75e5de9-137">
    <g transform="translate(8.81,40.11)" id="img-b75e5de9-138">
      <g class="primitive">
        <text text-anchor="middle" dy="0.35em" transform="rotate(-90,0, 2)">frequency</text>
      </g>
    </g>
  </g>
</g>
<defs>
  <clipPath id="img-b75e5de9-11">
    <path d="M17.96,5 L81.59,5 81.59,79.21 17.96,79.21 " />
  </clipPath>
</defs>
</svg>
