<?xml version="1.0" encoding="UTF-8"?>
<svg xmlns="http://www.w3.org/2000/svg"
     xmlns:xlink="http://www.w3.org/1999/xlink"
     xmlns:gadfly="http://www.gadflyjl.org/ns"
     version="1.2"
     width="141.42mm" height="100mm" viewBox="0 0 141.42 100"
     stroke="none"
     fill="#000000"
     stroke-width="0.3"
     font-size="3.88"
>
<defs>
  <marker id="arrow" markerWidth="15" markerHeight="7" refX="5" refY="3.5" orient="auto" markerUnits="strokeWidth">
    <path d="M0,0 L15,3.5 L0,7 z" stroke="context-stroke" fill="context-stroke"/>
  </marker>
</defs>
<g class="plotroot xscalable yscalable" id="img-01a2268b-1">
  <g class="guide xlabels" font-size="2.82" font-family="'PT Sans Caption','Helvetica Neue','Helvetica',sans-serif" fill="#6C606B" id="img-01a2268b-2">
    <g transform="translate(19.96,91.33)">
      <g class="primitive">
        <text text-anchor="middle" dy="0.6em">1.20×10⁷</text>
      </g>
    </g>
    <g transform="translate(36.59,91.33)">
      <g class="primitive">
        <text text-anchor="middle" dy="0.6em">1.30×10⁷</text>
      </g>
    </g>
    <g transform="translate(53.22,91.33)">
      <g class="primitive">
        <text text-anchor="middle" dy="0.6em">1.40×10⁷</text>
      </g>
    </g>
    <g transform="translate(69.85,91.33)">
      <g class="primitive">
        <text text-anchor="middle" dy="0.6em">1.50×10⁷</text>
      </g>
    </g>
    <g transform="translate(86.48,91.33)">
      <g class="primitive">
        <text text-anchor="middle" dy="0.6em">1.60×10⁷</text>
      </g>
    </g>
  </g>
  <g class="guide colorkey" id="img-01a2268b-3">
    <g class="color_coding_coding_coding_coding_4-star" id="img-01a2268b-4">
      <g fill="#4C404B" font-size="2.82" font-family="'PT Sans','Helvetica Neue','Helvetica',sans-serif" id="img-01a2268b-5">
        <g transform="translate(92.29,49.48)" id="img-01a2268b-6">
          <g class="primitive">
            <text dy="0.35em">coding_coding_coding_coding_4-star</text>
          </g>
        </g>
      </g>
      <g fill-opacity="1" fill="#00BFFF" stroke="#FFFFFF" id="img-01a2268b-7">
        <g transform="translate(90.39,49.48)" id="img-01a2268b-8">
          <path d="M-0.91,-0.91 L0.91,-0.91 0.91,0.91 -0.91,0.91  z" class="primitive"/>
        </g>
      </g>
    </g>
    <g fill="#362A35" font-size="3.88" font-family="'PT Sans','Helvetica Neue','Helvetica',sans-serif" stroke="#000000" stroke-opacity="0.000" id="img-01a2268b-9">
      <g transform="translate(89.48,45.66)" id="img-01a2268b-10">
        <g class="primitive">
          <text dy="-0em">graphlet</text>
        </g>
      </g>
    </g>
  </g>
  <g clip-path="url(#img-01a2268b-11)">
    <g id="img-01a2268b-12">
      <g pointer-events="visible" stroke-width="0.3" fill="#000000" fill-opacity="0.000" stroke="#000000" stroke-opacity="0.000" class="guide background" id="img-01a2268b-13">
        <g transform="translate(53.22,47.66)" id="img-01a2268b-14">
          <path d="M-35.26,-42.66 L35.26,-42.66 35.26,42.66 -35.26,42.66  z" class="primitive"/>
        </g>
      </g>
      <g class="guide ygridlines xfixed" stroke-dasharray="0.5,0.5" stroke-width="0.2" stroke="#D0D0E0" id="img-01a2268b-15">
        <g transform="translate(53.22,88.33)" id="img-01a2268b-16">
          <path fill="none" d="M-35.26,0 L35.26,0 " class="primitive"/>
        </g>
        <g transform="translate(53.22,61.22)" id="img-01a2268b-17">
          <path fill="none" d="M-35.26,0 L35.26,0 " class="primitive"/>
        </g>
        <g transform="translate(53.22,34.11)" id="img-01a2268b-18">
          <path fill="none" d="M-35.26,0 L35.26,0 " class="primitive"/>
        </g>
        <g transform="translate(53.22,7)" id="img-01a2268b-19">
          <path fill="none" d="M-35.26,0 L35.26,0 " class="primitive"/>
        </g>
      </g>
      <g class="guide xgridlines yfixed" stroke-dasharray="0.5,0.5" stroke-width="0.2" stroke="#D0D0E0" id="img-01a2268b-20">
        <g transform="translate(19.96,47.66)" id="img-01a2268b-21">
          <path fill="none" d="M0,-42.66 L0,42.66 " class="primitive"/>
        </g>
        <g transform="translate(36.59,47.66)" id="img-01a2268b-22">
          <path fill="none" d="M0,-42.66 L0,42.66 " class="primitive"/>
        </g>
        <g transform="translate(53.22,47.66)" id="img-01a2268b-23">
          <path fill="none" d="M0,-42.66 L0,42.66 " class="primitive"/>
        </g>
        <g transform="translate(69.85,47.66)" id="img-01a2268b-24">
          <path fill="none" d="M0,-42.66 L0,42.66 " class="primitive"/>
        </g>
        <g transform="translate(86.48,47.66)" id="img-01a2268b-25">
          <path fill="none" d="M0,-42.66 L0,42.66 " class="primitive"/>
        </g>
      </g>
      <g class="plotpanel" id="img-01a2268b-26">
        <metadata>
          <boundingbox value="17.95833333333333mm 5.0mm 70.52302290397618mm 85.32666666666667mm"/>
          <unitbox value="1.187974088291887e7 30.737765390605787 4.240518234162261e6 -31.475530781211575"/>
        </metadata>
        <g shape-rendering="crispEdges" stroke-width="0.3" id="img-01a2268b-27">
          <g stroke="#000000" stroke-opacity="0.000" class="geometry" id="img-01a2268b-28">
            <g fill="#00BFFF" id="img-01a2268b-29">
              <g transform="translate(31.24,86.97)" id="img-01a2268b-30">
                <path d="M-0.29,-1.36 L0.29,-1.36 0.29,1.36 -0.29,1.36  z" class="primitive"/>
              </g>
              <g transform="translate(31.77,88.33)" id="img-01a2268b-31">
                <path d="M-0.29,-0 L0.29,-0 0.29,0 -0.29,0  z" class="primitive"/>
              </g>
              <g transform="translate(32.3,88.33)" id="img-01a2268b-32">
                <path d="M-0.29,-0 L0.29,-0 0.29,0 -0.29,0  z" class="primitive"/>
              </g>
              <g transform="translate(32.83,88.33)" id="img-01a2268b-33">
                <path d="M-0.29,-0 L0.29,-0 0.29,0 -0.29,0  z" class="primitive"/>
              </g>
              <g transform="translate(33.36,88.33)" id="img-01a2268b-34">
                <path d="M-0.29,-0 L0.29,-0 0.29,0 -0.29,0  z" class="primitive"/>
              </g>
              <g transform="translate(33.9,86.97)" id="img-01a2268b-35">
                <path d="M-0.29,-1.36 L0.29,-1.36 0.29,1.36 -0.29,1.36  z" class="primitive"/>
              </g>
              <g transform="translate(34.43,88.33)" id="img-01a2268b-36">
                <path d="M-0.29,-0 L0.29,-0 0.29,0 -0.29,0  z" class="primitive"/>
              </g>
              <g transform="translate(34.96,88.33)" id="img-01a2268b-37">
                <path d="M-0.29,-0 L0.29,-0 0.29,0 -0.29,0  z" class="primitive"/>
              </g>
              <g transform="translate(35.49,88.33)" id="img-01a2268b-38">
                <path d="M-0.29,-0 L0.29,-0 0.29,0 -0.29,0  z" class="primitive"/>
              </g>
              <g transform="translate(36.02,86.97)" id="img-01a2268b-39">
                <path d="M-0.29,-1.36 L0.29,-1.36 0.29,1.36 -0.29,1.36  z" class="primitive"/>
              </g>
              <g transform="translate(36.55,88.33)" id="img-01a2268b-40">
                <path d="M-0.29,-0 L0.29,-0 0.29,0 -0.29,0  z" class="primitive"/>
              </g>
              <g transform="translate(37.08,86.97)" id="img-01a2268b-41">
                <path d="M-0.29,-1.36 L0.29,-1.36 0.29,1.36 -0.29,1.36  z" class="primitive"/>
              </g>
              <g transform="translate(37.61,86.97)" id="img-01a2268b-42">
                <path d="M-0.29,-1.36 L0.29,-1.36 0.29,1.36 -0.29,1.36  z" class="primitive"/>
              </g>
              <g transform="translate(38.14,86.97)" id="img-01a2268b-43">
                <path d="M-0.29,-1.36 L0.29,-1.36 0.29,1.36 -0.29,1.36  z" class="primitive"/>
              </g>
              <g transform="translate(38.67,86.97)" id="img-01a2268b-44">
                <path d="M-0.29,-1.36 L0.29,-1.36 0.29,1.36 -0.29,1.36  z" class="primitive"/>
              </g>
              <g transform="translate(39.2,86.97)" id="img-01a2268b-45">
                <path d="M-0.29,-1.36 L0.29,-1.36 0.29,1.36 -0.29,1.36  z" class="primitive"/>
              </g>
              <g transform="translate(39.74,86.97)" id="img-01a2268b-46">
                <path d="M-0.29,-1.36 L0.29,-1.36 0.29,1.36 -0.29,1.36  z" class="primitive"/>
              </g>
              <g transform="translate(40.27,81.55)" id="img-01a2268b-47">
                <path d="M-0.29,-6.78 L0.29,-6.78 0.29,6.78 -0.29,6.78  z" class="primitive"/>
              </g>
              <g transform="translate(40.8,85.62)" id="img-01a2268b-48">
                <path d="M-0.29,-2.71 L0.29,-2.71 0.29,2.71 -0.29,2.71  z" class="primitive"/>
              </g>
              <g transform="translate(41.33,85.62)" id="img-01a2268b-49">
                <path d="M-0.29,-2.71 L0.29,-2.71 0.29,2.71 -0.29,2.71  z" class="primitive"/>
              </g>
              <g transform="translate(41.86,82.9)" id="img-01a2268b-50">
                <path d="M-0.29,-5.42 L0.29,-5.42 0.29,5.42 -0.29,5.42  z" class="primitive"/>
              </g>
              <g transform="translate(42.39,86.97)" id="img-01a2268b-51">
                <path d="M-0.29,-1.36 L0.29,-1.36 0.29,1.36 -0.29,1.36  z" class="primitive"/>
              </g>
              <g transform="translate(42.92,80.19)" id="img-01a2268b-52">
                <path d="M-0.29,-8.13 L0.29,-8.13 0.29,8.13 -0.29,8.13  z" class="primitive"/>
              </g>
              <g transform="translate(43.45,81.55)" id="img-01a2268b-53">
                <path d="M-0.29,-6.78 L0.29,-6.78 0.29,6.78 -0.29,6.78  z" class="primitive"/>
              </g>
              <g transform="translate(43.98,81.55)" id="img-01a2268b-54">
                <path d="M-0.29,-6.78 L0.29,-6.78 0.29,6.78 -0.29,6.78  z" class="primitive"/>
              </g>
              <g transform="translate(44.51,84.26)" id="img-01a2268b-55">
                <path d="M-0.29,-4.07 L0.29,-4.07 0.29,4.07 -0.29,4.07  z" class="primitive"/>
              </g>
              <g transform="translate(45.04,81.55)" id="img-01a2268b-56">
                <path d="M-0.29,-6.78 L0.29,-6.78 0.29,6.78 -0.29,6.78  z" class="primitive"/>
              </g>
              <g transform="translate(45.58,74.77)" id="img-01a2268b-57">
                <path d="M-0.29,-13.55 L0.29,-13.55 0.29,13.55 -0.29,13.55  z" class="primitive"/>
              </g>
              <g transform="translate(46.11,76.13)" id="img-01a2268b-58">
                <path d="M-0.29,-12.2 L0.29,-12.2 0.29,12.2 -0.29,12.2  z" class="primitive"/>
              </g>
              <g transform="translate(46.64,78.84)" id="img-01a2268b-59">
                <path d="M-0.29,-9.49 L0.29,-9.49 0.29,9.49 -0.29,9.49  z" class="primitive"/>
              </g>
              <g transform="translate(47.17,66.64)" id="img-01a2268b-60">
                <path d="M-0.29,-21.69 L0.29,-21.69 0.29,21.69 -0.29,21.69  z" class="primitive"/>
              </g>
              <g transform="translate(47.7,63.93)" id="img-01a2268b-61">
                <path d="M-0.29,-24.4 L0.29,-24.4 0.29,24.4 -0.29,24.4  z" class="primitive"/>
              </g>
              <g transform="translate(48.23,77.48)" id="img-01a2268b-62">
                <path d="M-0.29,-10.84 L0.29,-10.84 0.29,10.84 -0.29,10.84  z" class="primitive"/>
              </g>
              <g transform="translate(48.76,81.55)" id="img-01a2268b-63">
                <path d="M-0.29,-6.78 L0.29,-6.78 0.29,6.78 -0.29,6.78  z" class="primitive"/>
              </g>
              <g transform="translate(49.29,73.42)" id="img-01a2268b-64">
                <path d="M-0.29,-14.91 L0.29,-14.91 0.29,14.91 -0.29,14.91  z" class="primitive"/>
              </g>
              <g transform="translate(49.82,72.06)" id="img-01a2268b-65">
                <path d="M-0.29,-16.27 L0.29,-16.27 0.29,16.27 -0.29,16.27  z" class="primitive"/>
              </g>
              <g transform="translate(50.35,70.71)" id="img-01a2268b-66">
                <path d="M-0.29,-17.62 L0.29,-17.62 0.29,17.62 -0.29,17.62  z" class="primitive"/>
              </g>
              <g transform="translate(50.88,74.77)" id="img-01a2268b-67">
                <path d="M-0.29,-13.55 L0.29,-13.55 0.29,13.55 -0.29,13.55  z" class="primitive"/>
              </g>
              <g transform="translate(51.42,61.22)" id="img-01a2268b-68">
                <path d="M-0.29,-27.11 L0.29,-27.11 0.29,27.11 -0.29,27.11  z" class="primitive"/>
              </g>
              <g transform="translate(51.95,65.28)" id="img-01a2268b-69">
                <path d="M-0.29,-23.04 L0.29,-23.04 0.29,23.04 -0.29,23.04  z" class="primitive"/>
              </g>
              <g transform="translate(52.48,72.06)" id="img-01a2268b-70">
                <path d="M-0.29,-16.27 L0.29,-16.27 0.29,16.27 -0.29,16.27  z" class="primitive"/>
              </g>
              <g transform="translate(53.01,54.44)" id="img-01a2268b-71">
                <path d="M-0.29,-33.89 L0.29,-33.89 0.29,33.89 -0.29,33.89  z" class="primitive"/>
              </g>
              <g transform="translate(53.54,65.28)" id="img-01a2268b-72">
                <path d="M-0.29,-23.04 L0.29,-23.04 0.29,23.04 -0.29,23.04  z" class="primitive"/>
              </g>
              <g transform="translate(54.07,62.57)" id="img-01a2268b-73">
                <path d="M-0.29,-25.75 L0.29,-25.75 0.29,25.75 -0.29,25.75  z" class="primitive"/>
              </g>
              <g transform="translate(54.6,55.8)" id="img-01a2268b-74">
                <path d="M-0.29,-32.53 L0.29,-32.53 0.29,32.53 -0.29,32.53  z" class="primitive"/>
              </g>
              <g transform="translate(55.13,53.09)" id="img-01a2268b-75">
                <path d="M-0.29,-35.24 L0.29,-35.24 0.29,35.24 -0.29,35.24  z" class="primitive"/>
              </g>
              <g transform="translate(55.66,58.51)" id="img-01a2268b-76">
                <path d="M-0.29,-29.82 L0.29,-29.82 0.29,29.82 -0.29,29.82  z" class="primitive"/>
              </g>
              <g transform="translate(56.19,55.8)" id="img-01a2268b-77">
                <path d="M-0.29,-32.53 L0.29,-32.53 0.29,32.53 -0.29,32.53  z" class="primitive"/>
              </g>
              <g transform="translate(56.72,62.57)" id="img-01a2268b-78">
                <path d="M-0.29,-25.75 L0.29,-25.75 0.29,25.75 -0.29,25.75  z" class="primitive"/>
              </g>
              <g transform="translate(57.26,62.57)" id="img-01a2268b-79">
                <path d="M-0.29,-25.75 L0.29,-25.75 0.29,25.75 -0.29,25.75  z" class="primitive"/>
              </g>
              <g transform="translate(57.79,53.09)" id="img-01a2268b-80">
                <path d="M-0.29,-35.24 L0.29,-35.24 0.29,35.24 -0.29,35.24  z" class="primitive"/>
              </g>
              <g transform="translate(58.32,62.57)" id="img-01a2268b-81">
                <path d="M-0.29,-25.75 L0.29,-25.75 0.29,25.75 -0.29,25.75  z" class="primitive"/>
              </g>
              <g transform="translate(58.85,50.37)" id="img-01a2268b-82">
                <path d="M-0.29,-37.95 L0.29,-37.95 0.29,37.95 -0.29,37.95  z" class="primitive"/>
              </g>
              <g transform="translate(59.38,55.8)" id="img-01a2268b-83">
                <path d="M-0.29,-32.53 L0.29,-32.53 0.29,32.53 -0.29,32.53  z" class="primitive"/>
              </g>
              <g transform="translate(59.91,49.02)" id="img-01a2268b-84">
                <path d="M-0.29,-39.31 L0.29,-39.31 0.29,39.31 -0.29,39.31  z" class="primitive"/>
              </g>
              <g transform="translate(60.44,51.73)" id="img-01a2268b-85">
                <path d="M-0.29,-36.6 L0.29,-36.6 0.29,36.6 -0.29,36.6  z" class="primitive"/>
              </g>
              <g transform="translate(60.97,51.73)" id="img-01a2268b-86">
                <path d="M-0.29,-36.6 L0.29,-36.6 0.29,36.6 -0.29,36.6  z" class="primitive"/>
              </g>
              <g transform="translate(61.5,69.35)" id="img-01a2268b-87">
                <path d="M-0.29,-18.98 L0.29,-18.98 0.29,18.98 -0.29,18.98  z" class="primitive"/>
              </g>
              <g transform="translate(62.03,53.09)" id="img-01a2268b-88">
                <path d="M-0.29,-35.24 L0.29,-35.24 0.29,35.24 -0.29,35.24  z" class="primitive"/>
              </g>
              <g transform="translate(62.56,62.57)" id="img-01a2268b-89">
                <path d="M-0.29,-25.75 L0.29,-25.75 0.29,25.75 -0.29,25.75  z" class="primitive"/>
              </g>
              <g transform="translate(63.09,58.51)" id="img-01a2268b-90">
                <path d="M-0.29,-29.82 L0.29,-29.82 0.29,29.82 -0.29,29.82  z" class="primitive"/>
              </g>
              <g transform="translate(63.63,58.51)" id="img-01a2268b-91">
                <path d="M-0.29,-29.82 L0.29,-29.82 0.29,29.82 -0.29,29.82  z" class="primitive"/>
              </g>
              <g transform="translate(64.16,58.51)" id="img-01a2268b-92">
                <path d="M-0.29,-29.82 L0.29,-29.82 0.29,29.82 -0.29,29.82  z" class="primitive"/>
              </g>
              <g transform="translate(64.69,49.02)" id="img-01a2268b-93">
                <path d="M-0.29,-39.31 L0.29,-39.31 0.29,39.31 -0.29,39.31  z" class="primitive"/>
              </g>
              <g transform="translate(65.22,62.57)" id="img-01a2268b-94">
                <path d="M-0.29,-25.75 L0.29,-25.75 0.29,25.75 -0.29,25.75  z" class="primitive"/>
              </g>
              <g transform="translate(65.75,49.02)" id="img-01a2268b-95">
                <path d="M-0.29,-39.31 L0.29,-39.31 0.29,39.31 -0.29,39.31  z" class="primitive"/>
              </g>
              <g transform="translate(66.28,62.57)" id="img-01a2268b-96">
                <path d="M-0.29,-25.75 L0.29,-25.75 0.29,25.75 -0.29,25.75  z" class="primitive"/>
              </g>
              <g transform="translate(66.81,63.93)" id="img-01a2268b-97">
                <path d="M-0.29,-24.4 L0.29,-24.4 0.29,24.4 -0.29,24.4  z" class="primitive"/>
              </g>
              <g transform="translate(67.34,76.13)" id="img-01a2268b-98">
                <path d="M-0.29,-12.2 L0.29,-12.2 0.29,12.2 -0.29,12.2  z" class="primitive"/>
              </g>
              <g transform="translate(67.87,54.44)" id="img-01a2268b-99">
                <path d="M-0.29,-33.89 L0.29,-33.89 0.29,33.89 -0.29,33.89  z" class="primitive"/>
              </g>
              <g transform="translate(68.4,76.13)" id="img-01a2268b-100">
                <path d="M-0.29,-12.2 L0.29,-12.2 0.29,12.2 -0.29,12.2  z" class="primitive"/>
              </g>
              <g transform="translate(68.93,66.64)" id="img-01a2268b-101">
                <path d="M-0.29,-21.69 L0.29,-21.69 0.29,21.69 -0.29,21.69  z" class="primitive"/>
              </g>
              <g transform="translate(69.47,72.06)" id="img-01a2268b-102">
                <path d="M-0.29,-16.27 L0.29,-16.27 0.29,16.27 -0.29,16.27  z" class="primitive"/>
              </g>
              <g transform="translate(70,77.48)" id="img-01a2268b-103">
                <path d="M-0.29,-10.84 L0.29,-10.84 0.29,10.84 -0.29,10.84  z" class="primitive"/>
              </g>
              <g transform="translate(70.53,82.9)" id="img-01a2268b-104">
                <path d="M-0.29,-5.42 L0.29,-5.42 0.29,5.42 -0.29,5.42  z" class="primitive"/>
              </g>
              <g transform="translate(71.06,69.35)" id="img-01a2268b-105">
                <path d="M-0.29,-18.98 L0.29,-18.98 0.29,18.98 -0.29,18.98  z" class="primitive"/>
              </g>
              <g transform="translate(71.59,77.48)" id="img-01a2268b-106">
                <path d="M-0.29,-10.84 L0.29,-10.84 0.29,10.84 -0.29,10.84  z" class="primitive"/>
              </g>
              <g transform="translate(72.12,74.77)" id="img-01a2268b-107">
                <path d="M-0.29,-13.55 L0.29,-13.55 0.29,13.55 -0.29,13.55  z" class="primitive"/>
              </g>
              <g transform="translate(72.65,72.06)" id="img-01a2268b-108">
                <path d="M-0.29,-16.27 L0.29,-16.27 0.29,16.27 -0.29,16.27  z" class="primitive"/>
              </g>
              <g transform="translate(73.18,85.62)" id="img-01a2268b-109">
                <path d="M-0.29,-2.71 L0.29,-2.71 0.29,2.71 -0.29,2.71  z" class="primitive"/>
              </g>
              <g transform="translate(73.71,85.62)" id="img-01a2268b-110">
                <path d="M-0.29,-2.71 L0.29,-2.71 0.29,2.71 -0.29,2.71  z" class="primitive"/>
              </g>
              <g transform="translate(74.24,81.55)" id="img-01a2268b-111">
                <path d="M-0.29,-6.78 L0.29,-6.78 0.29,6.78 -0.29,6.78  z" class="primitive"/>
              </g>
              <g transform="translate(74.77,78.84)" id="img-01a2268b-112">
                <path d="M-0.29,-9.49 L0.29,-9.49 0.29,9.49 -0.29,9.49  z" class="primitive"/>
              </g>
              <g transform="translate(75.31,80.19)" id="img-01a2268b-113">
                <path d="M-0.29,-8.13 L0.29,-8.13 0.29,8.13 -0.29,8.13  z" class="primitive"/>
              </g>
              <g transform="translate(75.84,86.97)" id="img-01a2268b-114">
                <path d="M-0.29,-1.36 L0.29,-1.36 0.29,1.36 -0.29,1.36  z" class="primitive"/>
              </g>
              <g transform="translate(76.37,85.62)" id="img-01a2268b-115">
                <path d="M-0.29,-2.71 L0.29,-2.71 0.29,2.71 -0.29,2.71  z" class="primitive"/>
              </g>
              <g transform="translate(76.9,81.55)" id="img-01a2268b-116">
                <path d="M-0.29,-6.78 L0.29,-6.78 0.29,6.78 -0.29,6.78  z" class="primitive"/>
              </g>
              <g transform="translate(77.43,86.97)" id="img-01a2268b-117">
                <path d="M-0.29,-1.36 L0.29,-1.36 0.29,1.36 -0.29,1.36  z" class="primitive"/>
              </g>
              <g transform="translate(77.96,85.62)" id="img-01a2268b-118">
                <path d="M-0.29,-2.71 L0.29,-2.71 0.29,2.71 -0.29,2.71  z" class="primitive"/>
              </g>
              <g transform="translate(78.49,84.26)" id="img-01a2268b-119">
                <path d="M-0.29,-4.07 L0.29,-4.07 0.29,4.07 -0.29,4.07  z" class="primitive"/>
              </g>
              <g transform="translate(79.02,88.33)" id="img-01a2268b-120">
                <path d="M-0.29,-0 L0.29,-0 0.29,0 -0.29,0  z" class="primitive"/>
              </g>
              <g transform="translate(79.55,86.97)" id="img-01a2268b-121">
                <path d="M-0.29,-1.36 L0.29,-1.36 0.29,1.36 -0.29,1.36  z" class="primitive"/>
              </g>
              <g transform="translate(80.08,85.62)" id="img-01a2268b-122">
                <path d="M-0.29,-2.71 L0.29,-2.71 0.29,2.71 -0.29,2.71  z" class="primitive"/>
              </g>
              <g transform="translate(80.61,86.97)" id="img-01a2268b-123">
                <path d="M-0.29,-1.36 L0.29,-1.36 0.29,1.36 -0.29,1.36  z" class="primitive"/>
              </g>
              <g transform="translate(81.15,88.33)" id="img-01a2268b-124">
                <path d="M-0.29,-0 L0.29,-0 0.29,0 -0.29,0  z" class="primitive"/>
              </g>
              <g transform="translate(81.68,86.97)" id="img-01a2268b-125">
                <path d="M-0.29,-1.36 L0.29,-1.36 0.29,1.36 -0.29,1.36  z" class="primitive"/>
              </g>
              <g transform="translate(82.21,88.33)" id="img-01a2268b-126">
                <path d="M-0.29,-0 L0.29,-0 0.29,0 -0.29,0  z" class="primitive"/>
              </g>
              <g transform="translate(82.74,86.97)" id="img-01a2268b-127">
                <path d="M-0.29,-1.36 L0.29,-1.36 0.29,1.36 -0.29,1.36  z" class="primitive"/>
              </g>
              <g transform="translate(83.27,86.97)" id="img-01a2268b-128">
                <path d="M-0.29,-1.36 L0.29,-1.36 0.29,1.36 -0.29,1.36  z" class="primitive"/>
              </g>
              <g transform="translate(83.8,86.97)" id="img-01a2268b-129">
                <path d="M-0.29,-1.36 L0.29,-1.36 0.29,1.36 -0.29,1.36  z" class="primitive"/>
              </g>
            </g>
          </g>
        </g>
      </g>
    </g>
  </g>
  <g class="guide ylabels" font-size="2.82" font-family="'PT Sans Caption','Helvetica Neue','Helvetica',sans-serif" fill="#6C606B" id="img-01a2268b-130">
    <g transform="translate(16.96,88.33)" id="img-01a2268b-131">
      <g class="primitive">
        <text text-anchor="end" dy="0.35em">0</text>
      </g>
    </g>
    <g transform="translate(16.96,61.22)" id="img-01a2268b-132">
      <g class="primitive">
        <text text-anchor="end" dy="0.35em">10</text>
      </g>
    </g>
    <g transform="translate(16.96,34.11)" id="img-01a2268b-133">
      <g class="primitive">
        <text text-anchor="end" dy="0.35em">20</text>
      </g>
    </g>
    <g transform="translate(16.96,7)" id="img-01a2268b-134">
      <g class="primitive">
        <text text-anchor="end" dy="0.35em">30</text>
      </g>
    </g>
  </g>
  <g font-size="3.88" font-family="'PT Sans','Helvetica Neue','Helvetica',sans-serif" fill="#564A55" stroke="#000000" stroke-opacity="0.000" id="img-01a2268b-135">
    <g transform="translate(8.81,45.66)" id="img-01a2268b-136">
      <g class="primitive">
        <text text-anchor="middle" dy="0.35em" transform="rotate(-90,0, 2)">frequency</text>
      </g>
    </g>
  </g>
</g>
<defs>
  <clipPath id="img-01a2268b-11">
    <path d="M17.96,5 L88.48,5 88.48,90.33 17.96,90.33 " />
  </clipPath>
</defs>
</svg>
