<?xml version="1.0" encoding="UTF-8"?>
<svg xmlns="http://www.w3.org/2000/svg"
     xmlns:xlink="http://www.w3.org/1999/xlink"
     xmlns:gadfly="http://www.gadflyjl.org/ns"
     version="1.2"
     width="140mm" height="80mm" viewBox="0 0 140 80"
     stroke="none"
     fill="#000000"
     stroke-width="0.3"
     font-size="3.88"
>
<defs>
  <marker id="arrow" markerWidth="15" markerHeight="7" refX="5" refY="3.5" orient="auto" markerUnits="strokeWidth">
    <path d="M0,0 L15,3.5 L0,7 z" stroke="context-stroke" fill="context-stroke"/>
  </marker>
</defs>
<g class="plotroot xscalable yscalable" id="img-dd7918c9-1">
  <g class="guide xlabels" font-size="2.82" font-family="'PT Sans Caption','Helvetica Neue','Helvetica',sans-serif" fill="#6C606B" id="img-dd7918c9-2">
    <g transform="translate(19.96,71.33)">
      <g class="primitive">
        <text text-anchor="middle" dy="0.6em">11.2</text>
      </g>
    </g>
    <g transform="translate(33.73,71.33)">
      <g class="primitive">
        <text text-anchor="middle" dy="0.6em">11.3</text>
      </g>
    </g>
    <g transform="translate(47.5,71.33)">
      <g class="primitive">
        <text text-anchor="middle" dy="0.6em">11.4</text>
      </g>
    </g>
    <g transform="translate(61.27,71.33)">
      <g class="primitive">
        <text text-anchor="middle" dy="0.6em">11.5</text>
      </g>
    </g>
    <g transform="translate(75.04,71.33)">
      <g class="primitive">
        <text text-anchor="middle" dy="0.6em">11.6</text>
      </g>
    </g>
    <g transform="translate(88.81,71.33)">
      <g class="primitive">
        <text text-anchor="middle" dy="0.6em">11.7</text>
      </g>
    </g>
  </g>
  <g class="guide colorkey" id="img-dd7918c9-3">
    <g class="color_coding_noncoding_coding_3-path" id="img-dd7918c9-4">
      <g fill="#4C404B" font-size="2.82" font-family="'PT Sans','Helvetica Neue','Helvetica',sans-serif" id="img-dd7918c9-5">
        <g transform="translate(94.63,39.48)" id="img-dd7918c9-6">
          <g class="primitive">
            <text dy="0.35em">coding_noncoding_coding_3-path</text>
          </g>
        </g>
      </g>
      <g fill-opacity="1" fill="#00BFFF" stroke="#FFFFFF" id="img-dd7918c9-7">
        <g transform="translate(92.72,39.48)" id="img-dd7918c9-8">
          <path d="M-0.91,-0.91 L 0.91 -0.91 0.91 0.91 -0.91 0.91 z" class="primitive"/>
        </g>
      </g>
    </g>
    <g fill="#362A35" font-size="3.88" font-family="'PT Sans','Helvetica Neue','Helvetica',sans-serif" stroke="#000000" stroke-opacity="0.000" id="img-dd7918c9-9">
      <g transform="translate(91.81,35.66)" id="img-dd7918c9-10">
        <g class="primitive">
          <text dy="-0em">graphlet</text>
        </g>
      </g>
    </g>
  </g>
  <g clip-path="url(#img-dd7918c9-11)">
    <g id="img-dd7918c9-12">
      <g pointer-events="visible" stroke-width="0.3" fill="#000000" fill-opacity="0.000" stroke="#000000" stroke-opacity="0.000" class="guide background" id="img-dd7918c9-13">
        <g transform="translate(54.39,37.66)" id="img-dd7918c9-14">
          <path d="M-36.43,-32.66 L 36.43 -32.66 36.43 32.66 -36.43 32.66 z" class="primitive"/>
        </g>
      </g>
      <g class="guide ygridlines xfixed" stroke-dasharray="0.5,0.5" stroke-width="0.2" stroke="#D0D0E0" id="img-dd7918c9-15">
        <g transform="translate(54.39,68.33)" id="img-dd7918c9-16">
          <path fill="none" d="M-36.43,0 L 36.43 0" class="primitive"/>
        </g>
        <g transform="translate(54.39,53)" id="img-dd7918c9-17">
          <path fill="none" d="M-36.43,0 L 36.43 0" class="primitive"/>
        </g>
        <g transform="translate(54.39,37.66)" id="img-dd7918c9-18">
          <path fill="none" d="M-36.43,0 L 36.43 0" class="primitive"/>
        </g>
        <g transform="translate(54.39,22.33)" id="img-dd7918c9-19">
          <path fill="none" d="M-36.43,0 L 36.43 0" class="primitive"/>
        </g>
        <g transform="translate(54.39,7)" id="img-dd7918c9-20">
          <path fill="none" d="M-36.43,0 L 36.43 0" class="primitive"/>
        </g>
      </g>
      <g class="guide xgridlines yfixed" stroke-dasharray="0.5,0.5" stroke-width="0.2" stroke="#D0D0E0" id="img-dd7918c9-21">
        <g transform="translate(19.96,37.66)" id="img-dd7918c9-22">
          <path fill="none" d="M0,-32.66 L 0 32.66" class="primitive"/>
        </g>
        <g transform="translate(33.73,37.66)" id="img-dd7918c9-23">
          <path fill="none" d="M0,-32.66 L 0 32.66" class="primitive"/>
        </g>
        <g transform="translate(47.5,37.66)" id="img-dd7918c9-24">
          <path fill="none" d="M0,-32.66 L 0 32.66" class="primitive"/>
        </g>
        <g transform="translate(61.27,37.66)" id="img-dd7918c9-25">
          <path fill="none" d="M0,-32.66 L 0 32.66" class="primitive"/>
        </g>
        <g transform="translate(75.04,37.66)" id="img-dd7918c9-26">
          <path fill="none" d="M0,-32.66 L 0 32.66" class="primitive"/>
        </g>
        <g transform="translate(88.81,37.66)" id="img-dd7918c9-27">
          <path fill="none" d="M0,-32.66 L 0 32.66" class="primitive"/>
        </g>
      </g>
      <g class="plotpanel" id="img-dd7918c9-28">
        <metadata>
          <boundingbox value="17.95833333333333mm 5.0mm 72.85499999999999mm 65.32666666666667mm"/>
          <unitbox value="11.185476726454144 41.30448961843679 0.5290465470917145 -42.60897923687358"/>
        </metadata>
        <g shape-rendering="crispEdges" stroke-width="0.3" id="img-dd7918c9-29">
          <g stroke="#000000" stroke-opacity="0.000" class="geometry" id="img-dd7918c9-30">
            <g fill="#00BFFF" id="img-dd7918c9-31">
              <g transform="translate(33.55,67.56)" id="img-dd7918c9-32">
                <path d="M-0.27,-0.77 L 0.27 -0.77 0.27 0.77 -0.27 0.77 z" class="primitive"/>
              </g>
              <g transform="translate(34.05,67.56)" id="img-dd7918c9-33">
                <path d="M-0.27,-0.77 L 0.27 -0.77 0.27 0.77 -0.27 0.77 z" class="primitive"/>
              </g>
              <g transform="translate(34.55,67.56)" id="img-dd7918c9-34">
                <path d="M-0.27,-0.77 L 0.27 -0.77 0.27 0.77 -0.27 0.77 z" class="primitive"/>
              </g>
              <g transform="translate(35.05,66.79)" id="img-dd7918c9-35">
                <path d="M-0.27,-1.53 L 0.27 -1.53 0.27 1.53 -0.27 1.53 z" class="primitive"/>
              </g>
              <g transform="translate(35.55,68.33)" id="img-dd7918c9-36">
                <path d="M-0.27,-0 L 0.27 -0 0.27 0 -0.27 0 z" class="primitive"/>
              </g>
              <g transform="translate(36.05,67.56)" id="img-dd7918c9-37">
                <path d="M-0.27,-0.77 L 0.27 -0.77 0.27 0.77 -0.27 0.77 z" class="primitive"/>
              </g>
              <g transform="translate(36.55,66.79)" id="img-dd7918c9-38">
                <path d="M-0.27,-1.53 L 0.27 -1.53 0.27 1.53 -0.27 1.53 z" class="primitive"/>
              </g>
              <g transform="translate(37.05,66.79)" id="img-dd7918c9-39">
                <path d="M-0.27,-1.53 L 0.27 -1.53 0.27 1.53 -0.27 1.53 z" class="primitive"/>
              </g>
              <g transform="translate(37.55,68.33)" id="img-dd7918c9-40">
                <path d="M-0.27,-0 L 0.27 -0 0.27 0 -0.27 0 z" class="primitive"/>
              </g>
              <g transform="translate(38.05,68.33)" id="img-dd7918c9-41">
                <path d="M-0.27,-0 L 0.27 -0 0.27 0 -0.27 0 z" class="primitive"/>
              </g>
              <g transform="translate(38.54,66.03)" id="img-dd7918c9-42">
                <path d="M-0.27,-2.3 L 0.27 -2.3 0.27 2.3 -0.27 2.3 z" class="primitive"/>
              </g>
              <g transform="translate(39.04,68.33)" id="img-dd7918c9-43">
                <path d="M-0.27,-0 L 0.27 -0 0.27 0 -0.27 0 z" class="primitive"/>
              </g>
              <g transform="translate(39.54,66.03)" id="img-dd7918c9-44">
                <path d="M-0.27,-2.3 L 0.27 -2.3 0.27 2.3 -0.27 2.3 z" class="primitive"/>
              </g>
              <g transform="translate(40.04,68.33)" id="img-dd7918c9-45">
                <path d="M-0.27,-0 L 0.27 -0 0.27 0 -0.27 0 z" class="primitive"/>
              </g>
              <g transform="translate(40.54,68.33)" id="img-dd7918c9-46">
                <path d="M-0.27,-0 L 0.27 -0 0.27 0 -0.27 0 z" class="primitive"/>
              </g>
              <g transform="translate(41.04,66.03)" id="img-dd7918c9-47">
                <path d="M-0.27,-2.3 L 0.27 -2.3 0.27 2.3 -0.27 2.3 z" class="primitive"/>
              </g>
              <g transform="translate(41.54,66.79)" id="img-dd7918c9-48">
                <path d="M-0.27,-1.53 L 0.27 -1.53 0.27 1.53 -0.27 1.53 z" class="primitive"/>
              </g>
              <g transform="translate(42.04,67.56)" id="img-dd7918c9-49">
                <path d="M-0.27,-0.77 L 0.27 -0.77 0.27 0.77 -0.27 0.77 z" class="primitive"/>
              </g>
              <g transform="translate(42.54,64.49)" id="img-dd7918c9-50">
                <path d="M-0.27,-3.83 L 0.27 -3.83 0.27 3.83 -0.27 3.83 z" class="primitive"/>
              </g>
              <g transform="translate(43.04,64.49)" id="img-dd7918c9-51">
                <path d="M-0.27,-3.83 L 0.27 -3.83 0.27 3.83 -0.27 3.83 z" class="primitive"/>
              </g>
              <g transform="translate(43.53,62.96)" id="img-dd7918c9-52">
                <path d="M-0.27,-5.37 L 0.27 -5.37 0.27 5.37 -0.27 5.37 z" class="primitive"/>
              </g>
              <g transform="translate(44.03,62.96)" id="img-dd7918c9-53">
                <path d="M-0.27,-5.37 L 0.27 -5.37 0.27 5.37 -0.27 5.37 z" class="primitive"/>
              </g>
              <g transform="translate(44.53,62.19)" id="img-dd7918c9-54">
                <path d="M-0.27,-6.13 L 0.27 -6.13 0.27 6.13 -0.27 6.13 z" class="primitive"/>
              </g>
              <g transform="translate(45.03,63.73)" id="img-dd7918c9-55">
                <path d="M-0.27,-4.6 L 0.27 -4.6 0.27 4.6 -0.27 4.6 z" class="primitive"/>
              </g>
              <g transform="translate(45.53,61.43)" id="img-dd7918c9-56">
                <path d="M-0.27,-6.9 L 0.27 -6.9 0.27 6.9 -0.27 6.9 z" class="primitive"/>
              </g>
              <g transform="translate(46.03,58.36)" id="img-dd7918c9-57">
                <path d="M-0.27,-9.97 L 0.27 -9.97 0.27 9.97 -0.27 9.97 z" class="primitive"/>
              </g>
              <g transform="translate(46.53,64.49)" id="img-dd7918c9-58">
                <path d="M-0.27,-3.83 L 0.27 -3.83 0.27 3.83 -0.27 3.83 z" class="primitive"/>
              </g>
              <g transform="translate(47.03,62.96)" id="img-dd7918c9-59">
                <path d="M-0.27,-5.37 L 0.27 -5.37 0.27 5.37 -0.27 5.37 z" class="primitive"/>
              </g>
              <g transform="translate(47.53,56.83)" id="img-dd7918c9-60">
                <path d="M-0.27,-11.5 L 0.27 -11.5 0.27 11.5 -0.27 11.5 z" class="primitive"/>
              </g>
              <g transform="translate(48.02,58.36)" id="img-dd7918c9-61">
                <path d="M-0.27,-9.97 L 0.27 -9.97 0.27 9.97 -0.27 9.97 z" class="primitive"/>
              </g>
              <g transform="translate(48.52,64.49)" id="img-dd7918c9-62">
                <path d="M-0.27,-3.83 L 0.27 -3.83 0.27 3.83 -0.27 3.83 z" class="primitive"/>
              </g>
              <g transform="translate(49.02,55.29)" id="img-dd7918c9-63">
                <path d="M-0.27,-13.03 L 0.27 -13.03 0.27 13.03 -0.27 13.03 z" class="primitive"/>
              </g>
              <g transform="translate(49.52,56.83)" id="img-dd7918c9-64">
                <path d="M-0.27,-11.5 L 0.27 -11.5 0.27 11.5 -0.27 11.5 z" class="primitive"/>
              </g>
              <g transform="translate(50.02,49.93)" id="img-dd7918c9-65">
                <path d="M-0.27,-18.4 L 0.27 -18.4 0.27 18.4 -0.27 18.4 z" class="primitive"/>
              </g>
              <g transform="translate(50.52,57.59)" id="img-dd7918c9-66">
                <path d="M-0.27,-10.73 L 0.27 -10.73 0.27 10.73 -0.27 10.73 z" class="primitive"/>
              </g>
              <g transform="translate(51.02,56.83)" id="img-dd7918c9-67">
                <path d="M-0.27,-11.5 L 0.27 -11.5 0.27 11.5 -0.27 11.5 z" class="primitive"/>
              </g>
              <g transform="translate(51.52,55.29)" id="img-dd7918c9-68">
                <path d="M-0.27,-13.03 L 0.27 -13.03 0.27 13.03 -0.27 13.03 z" class="primitive"/>
              </g>
              <g transform="translate(52.02,52.23)" id="img-dd7918c9-69">
                <path d="M-0.27,-16.1 L 0.27 -16.1 0.27 16.1 -0.27 16.1 z" class="primitive"/>
              </g>
              <g transform="translate(52.52,52.23)" id="img-dd7918c9-70">
                <path d="M-0.27,-16.1 L 0.27 -16.1 0.27 16.1 -0.27 16.1 z" class="primitive"/>
              </g>
              <g transform="translate(53.01,53)" id="img-dd7918c9-71">
                <path d="M-0.27,-15.33 L 0.27 -15.33 0.27 15.33 -0.27 15.33 z" class="primitive"/>
              </g>
              <g transform="translate(53.51,55.29)" id="img-dd7918c9-72">
                <path d="M-0.27,-13.03 L 0.27 -13.03 0.27 13.03 -0.27 13.03 z" class="primitive"/>
              </g>
              <g transform="translate(54.01,51.46)" id="img-dd7918c9-73">
                <path d="M-0.27,-16.86 L 0.27 -16.86 0.27 16.86 -0.27 16.86 z" class="primitive"/>
              </g>
              <g transform="translate(54.51,43.8)" id="img-dd7918c9-74">
                <path d="M-0.27,-24.53 L 0.27 -24.53 0.27 24.53 -0.27 24.53 z" class="primitive"/>
              </g>
              <g transform="translate(55.01,44.56)" id="img-dd7918c9-75">
                <path d="M-0.27,-23.76 L 0.27 -23.76 0.27 23.76 -0.27 23.76 z" class="primitive"/>
              </g>
              <g transform="translate(55.51,46.1)" id="img-dd7918c9-76">
                <path d="M-0.27,-22.23 L 0.27 -22.23 0.27 22.23 -0.27 22.23 z" class="primitive"/>
              </g>
              <g transform="translate(56.01,49.16)" id="img-dd7918c9-77">
                <path d="M-0.27,-19.16 L 0.27 -19.16 0.27 19.16 -0.27 19.16 z" class="primitive"/>
              </g>
              <g transform="translate(56.51,43.03)" id="img-dd7918c9-78">
                <path d="M-0.27,-25.3 L 0.27 -25.3 0.27 25.3 -0.27 25.3 z" class="primitive"/>
              </g>
              <g transform="translate(57.01,45.33)" id="img-dd7918c9-79">
                <path d="M-0.27,-23 L 0.27 -23 0.27 23 -0.27 23 z" class="primitive"/>
              </g>
              <g transform="translate(57.51,43.03)" id="img-dd7918c9-80">
                <path d="M-0.27,-25.3 L 0.27 -25.3 0.27 25.3 -0.27 25.3 z" class="primitive"/>
              </g>
              <g transform="translate(58,47.63)" id="img-dd7918c9-81">
                <path d="M-0.27,-20.7 L 0.27 -20.7 0.27 20.7 -0.27 20.7 z" class="primitive"/>
              </g>
              <g transform="translate(58.5,43.03)" id="img-dd7918c9-82">
                <path d="M-0.27,-25.3 L 0.27 -25.3 0.27 25.3 -0.27 25.3 z" class="primitive"/>
              </g>
              <g transform="translate(59,47.63)" id="img-dd7918c9-83">
                <path d="M-0.27,-20.7 L 0.27 -20.7 0.27 20.7 -0.27 20.7 z" class="primitive"/>
              </g>
              <g transform="translate(59.5,54.53)" id="img-dd7918c9-84">
                <path d="M-0.27,-13.8 L 0.27 -13.8 0.27 13.8 -0.27 13.8 z" class="primitive"/>
              </g>
              <g transform="translate(60,49.93)" id="img-dd7918c9-85">
                <path d="M-0.27,-18.4 L 0.27 -18.4 0.27 18.4 -0.27 18.4 z" class="primitive"/>
              </g>
              <g transform="translate(60.5,42.26)" id="img-dd7918c9-86">
                <path d="M-0.27,-26.06 L 0.27 -26.06 0.27 26.06 -0.27 26.06 z" class="primitive"/>
              </g>
              <g transform="translate(61,46.86)" id="img-dd7918c9-87">
                <path d="M-0.27,-21.46 L 0.27 -21.46 0.27 21.46 -0.27 21.46 z" class="primitive"/>
              </g>
              <g transform="translate(61.5,55.29)" id="img-dd7918c9-88">
                <path d="M-0.27,-13.03 L 0.27 -13.03 0.27 13.03 -0.27 13.03 z" class="primitive"/>
              </g>
              <g transform="translate(62,47.63)" id="img-dd7918c9-89">
                <path d="M-0.27,-20.7 L 0.27 -20.7 0.27 20.7 -0.27 20.7 z" class="primitive"/>
              </g>
              <g transform="translate(62.5,49.16)" id="img-dd7918c9-90">
                <path d="M-0.27,-19.16 L 0.27 -19.16 0.27 19.16 -0.27 19.16 z" class="primitive"/>
              </g>
              <g transform="translate(62.99,52.23)" id="img-dd7918c9-91">
                <path d="M-0.27,-16.1 L 0.27 -16.1 0.27 16.1 -0.27 16.1 z" class="primitive"/>
              </g>
              <g transform="translate(63.49,53)" id="img-dd7918c9-92">
                <path d="M-0.27,-15.33 L 0.27 -15.33 0.27 15.33 -0.27 15.33 z" class="primitive"/>
              </g>
              <g transform="translate(63.99,58.36)" id="img-dd7918c9-93">
                <path d="M-0.27,-9.97 L 0.27 -9.97 0.27 9.97 -0.27 9.97 z" class="primitive"/>
              </g>
              <g transform="translate(64.49,57.59)" id="img-dd7918c9-94">
                <path d="M-0.27,-10.73 L 0.27 -10.73 0.27 10.73 -0.27 10.73 z" class="primitive"/>
              </g>
              <g transform="translate(64.99,58.36)" id="img-dd7918c9-95">
                <path d="M-0.27,-9.97 L 0.27 -9.97 0.27 9.97 -0.27 9.97 z" class="primitive"/>
              </g>
              <g transform="translate(65.49,59.89)" id="img-dd7918c9-96">
                <path d="M-0.27,-8.43 L 0.27 -8.43 0.27 8.43 -0.27 8.43 z" class="primitive"/>
              </g>
              <g transform="translate(65.99,56.83)" id="img-dd7918c9-97">
                <path d="M-0.27,-11.5 L 0.27 -11.5 0.27 11.5 -0.27 11.5 z" class="primitive"/>
              </g>
              <g transform="translate(66.49,63.73)" id="img-dd7918c9-98">
                <path d="M-0.27,-4.6 L 0.27 -4.6 0.27 4.6 -0.27 4.6 z" class="primitive"/>
              </g>
              <g transform="translate(66.99,59.13)" id="img-dd7918c9-99">
                <path d="M-0.27,-9.2 L 0.27 -9.2 0.27 9.2 -0.27 9.2 z" class="primitive"/>
              </g>
              <g transform="translate(67.48,60.66)" id="img-dd7918c9-100">
                <path d="M-0.27,-7.67 L 0.27 -7.67 0.27 7.67 -0.27 7.67 z" class="primitive"/>
              </g>
              <g transform="translate(67.98,63.73)" id="img-dd7918c9-101">
                <path d="M-0.27,-4.6 L 0.27 -4.6 0.27 4.6 -0.27 4.6 z" class="primitive"/>
              </g>
              <g transform="translate(68.48,63.73)" id="img-dd7918c9-102">
                <path d="M-0.27,-4.6 L 0.27 -4.6 0.27 4.6 -0.27 4.6 z" class="primitive"/>
              </g>
              <g transform="translate(68.98,62.19)" id="img-dd7918c9-103">
                <path d="M-0.27,-6.13 L 0.27 -6.13 0.27 6.13 -0.27 6.13 z" class="primitive"/>
              </g>
              <g transform="translate(69.48,62.96)" id="img-dd7918c9-104">
                <path d="M-0.27,-5.37 L 0.27 -5.37 0.27 5.37 -0.27 5.37 z" class="primitive"/>
              </g>
              <g transform="translate(69.98,64.49)" id="img-dd7918c9-105">
                <path d="M-0.27,-3.83 L 0.27 -3.83 0.27 3.83 -0.27 3.83 z" class="primitive"/>
              </g>
              <g transform="translate(70.48,63.73)" id="img-dd7918c9-106">
                <path d="M-0.27,-4.6 L 0.27 -4.6 0.27 4.6 -0.27 4.6 z" class="primitive"/>
              </g>
              <g transform="translate(70.98,64.49)" id="img-dd7918c9-107">
                <path d="M-0.27,-3.83 L 0.27 -3.83 0.27 3.83 -0.27 3.83 z" class="primitive"/>
              </g>
              <g transform="translate(71.48,66.79)" id="img-dd7918c9-108">
                <path d="M-0.27,-1.53 L 0.27 -1.53 0.27 1.53 -0.27 1.53 z" class="primitive"/>
              </g>
              <g transform="translate(71.98,65.26)" id="img-dd7918c9-109">
                <path d="M-0.27,-3.07 L 0.27 -3.07 0.27 3.07 -0.27 3.07 z" class="primitive"/>
              </g>
              <g transform="translate(72.47,68.33)" id="img-dd7918c9-110">
                <path d="M-0.27,-0 L 0.27 -0 0.27 0 -0.27 0 z" class="primitive"/>
              </g>
              <g transform="translate(72.97,66.79)" id="img-dd7918c9-111">
                <path d="M-0.27,-1.53 L 0.27 -1.53 0.27 1.53 -0.27 1.53 z" class="primitive"/>
              </g>
              <g transform="translate(73.47,67.56)" id="img-dd7918c9-112">
                <path d="M-0.27,-0.77 L 0.27 -0.77 0.27 0.77 -0.27 0.77 z" class="primitive"/>
              </g>
              <g transform="translate(73.97,66.79)" id="img-dd7918c9-113">
                <path d="M-0.27,-1.53 L 0.27 -1.53 0.27 1.53 -0.27 1.53 z" class="primitive"/>
              </g>
              <g transform="translate(74.47,65.26)" id="img-dd7918c9-114">
                <path d="M-0.27,-3.07 L 0.27 -3.07 0.27 3.07 -0.27 3.07 z" class="primitive"/>
              </g>
              <g transform="translate(74.97,67.56)" id="img-dd7918c9-115">
                <path d="M-0.27,-0.77 L 0.27 -0.77 0.27 0.77 -0.27 0.77 z" class="primitive"/>
              </g>
              <g transform="translate(75.47,68.33)" id="img-dd7918c9-116">
                <path d="M-0.27,-0 L 0.27 -0 0.27 0 -0.27 0 z" class="primitive"/>
              </g>
              <g transform="translate(75.97,68.33)" id="img-dd7918c9-117">
                <path d="M-0.27,-0 L 0.27 -0 0.27 0 -0.27 0 z" class="primitive"/>
              </g>
              <g transform="translate(76.47,68.33)" id="img-dd7918c9-118">
                <path d="M-0.27,-0 L 0.27 -0 0.27 0 -0.27 0 z" class="primitive"/>
              </g>
              <g transform="translate(76.97,68.33)" id="img-dd7918c9-119">
                <path d="M-0.27,-0 L 0.27 -0 0.27 0 -0.27 0 z" class="primitive"/>
              </g>
              <g transform="translate(77.46,67.56)" id="img-dd7918c9-120">
                <path d="M-0.27,-0.77 L 0.27 -0.77 0.27 0.77 -0.27 0.77 z" class="primitive"/>
              </g>
              <g transform="translate(77.96,68.33)" id="img-dd7918c9-121">
                <path d="M-0.27,-0 L 0.27 -0 0.27 0 -0.27 0 z" class="primitive"/>
              </g>
              <g transform="translate(78.46,68.33)" id="img-dd7918c9-122">
                <path d="M-0.27,-0 L 0.27 -0 0.27 0 -0.27 0 z" class="primitive"/>
              </g>
              <g transform="translate(78.96,67.56)" id="img-dd7918c9-123">
                <path d="M-0.27,-0.77 L 0.27 -0.77 0.27 0.77 -0.27 0.77 z" class="primitive"/>
              </g>
              <g transform="translate(79.46,68.33)" id="img-dd7918c9-124">
                <path d="M-0.27,-0 L 0.27 -0 0.27 0 -0.27 0 z" class="primitive"/>
              </g>
              <g transform="translate(79.96,68.33)" id="img-dd7918c9-125">
                <path d="M-0.27,-0 L 0.27 -0 0.27 0 -0.27 0 z" class="primitive"/>
              </g>
              <g transform="translate(80.46,68.33)" id="img-dd7918c9-126">
                <path d="M-0.27,-0 L 0.27 -0 0.27 0 -0.27 0 z" class="primitive"/>
              </g>
              <g transform="translate(80.96,68.33)" id="img-dd7918c9-127">
                <path d="M-0.27,-0 L 0.27 -0 0.27 0 -0.27 0 z" class="primitive"/>
              </g>
              <g transform="translate(81.46,68.33)" id="img-dd7918c9-128">
                <path d="M-0.27,-0 L 0.27 -0 0.27 0 -0.27 0 z" class="primitive"/>
              </g>
              <g transform="translate(81.96,68.33)" id="img-dd7918c9-129">
                <path d="M-0.27,-0 L 0.27 -0 0.27 0 -0.27 0 z" class="primitive"/>
              </g>
              <g transform="translate(82.45,68.33)" id="img-dd7918c9-130">
                <path d="M-0.27,-0 L 0.27 -0 0.27 0 -0.27 0 z" class="primitive"/>
              </g>
              <g transform="translate(82.95,67.56)" id="img-dd7918c9-131">
                <path d="M-0.27,-0.77 L 0.27 -0.77 0.27 0.77 -0.27 0.77 z" class="primitive"/>
              </g>
            </g>
          </g>
        </g>
      </g>
    </g>
  </g>
  <g class="guide ylabels" font-size="2.82" font-family="'PT Sans Caption','Helvetica Neue','Helvetica',sans-serif" fill="#6C606B" id="img-dd7918c9-132">
    <g transform="translate(16.96,68.33)" id="img-dd7918c9-133">
      <g class="primitive">
        <text text-anchor="end" dy="0.35em">0</text>
      </g>
    </g>
    <g transform="translate(16.96,53)" id="img-dd7918c9-134">
      <g class="primitive">
        <text text-anchor="end" dy="0.35em">10</text>
      </g>
    </g>
    <g transform="translate(16.96,37.66)" id="img-dd7918c9-135">
      <g class="primitive">
        <text text-anchor="end" dy="0.35em">20</text>
      </g>
    </g>
    <g transform="translate(16.96,22.33)" id="img-dd7918c9-136">
      <g class="primitive">
        <text text-anchor="end" dy="0.35em">30</text>
      </g>
    </g>
    <g transform="translate(16.96,7)" id="img-dd7918c9-137">
      <g class="primitive">
        <text text-anchor="end" dy="0.35em">40</text>
      </g>
    </g>
  </g>
  <g font-size="3.88" font-family="'PT Sans','Helvetica Neue','Helvetica',sans-serif" fill="#564A55" stroke="#000000" stroke-opacity="0.000" id="img-dd7918c9-138">
    <g transform="translate(8.81,35.66)" id="img-dd7918c9-139">
      <g class="primitive">
        <text text-anchor="middle" dy="0.35em" transform="rotate(-90,0, 2)">frequency</text>
      </g>
    </g>
  </g>
</g>
<defs>
  <clipPath id="img-dd7918c9-11">
    <path d="M17.96,5 L 90.81 5 90.81 70.33 17.96 70.33" />
  </clipPath>
</defs>
</svg>
