<?xml version="1.0" encoding="UTF-8"?>
<svg xmlns="http://www.w3.org/2000/svg"
     xmlns:xlink="http://www.w3.org/1999/xlink"
     xmlns:gadfly="http://www.gadflyjl.org/ns"
     version="1.2"
     width="141.42mm" height="100mm" viewBox="0 0 141.42 100"
     stroke="none"
     fill="#000000"
     stroke-width="0.3"
     font-size="3.88"
>
<defs>
  <marker id="arrow" markerWidth="15" markerHeight="7" refX="5" refY="3.5" orient="auto" markerUnits="strokeWidth">
    <path d="M0,0 L15,3.5 L0,7 z" stroke="context-stroke" fill="context-stroke"/>
  </marker>
</defs>
<g class="plotroot xscalable yscalable" id="img-0737bd6c-1">
  <g class="guide xlabels" font-size="2.82" font-family="'PT Sans Caption','Helvetica Neue','Helvetica',sans-serif" fill="#6C606B" id="img-0737bd6c-2">
    <g transform="translate(19.96,80.21)">
      <g class="primitive">
        <text text-anchor="end" dy="0.35em" transform="rotate(-90,0, 0)">4.00×10⁵</text>
      </g>
    </g>
    <g transform="translate(30.51,80.21)">
      <g class="primitive">
        <text text-anchor="end" dy="0.35em" transform="rotate(-90,0, 0)">5.00×10⁵</text>
      </g>
    </g>
    <g transform="translate(41.06,80.21)">
      <g class="primitive">
        <text text-anchor="end" dy="0.35em" transform="rotate(-90,0, 0)">6.00×10⁵</text>
      </g>
    </g>
    <g transform="translate(51.6,80.21)">
      <g class="primitive">
        <text text-anchor="end" dy="0.35em" transform="rotate(-90,0, 0)">7.00×10⁵</text>
      </g>
    </g>
    <g transform="translate(62.15,80.21)">
      <g class="primitive">
        <text text-anchor="end" dy="0.35em" transform="rotate(-90,0, 0)">8.00×10⁵</text>
      </g>
    </g>
    <g transform="translate(72.7,80.21)">
      <g class="primitive">
        <text text-anchor="end" dy="0.35em" transform="rotate(-90,0, 0)">9.00×10⁵</text>
      </g>
    </g>
  </g>
  <g class="guide colorkey" id="img-0737bd6c-3">
    <g class="color_coding_noncoding_noncoding_noncoding_4-star" id="img-0737bd6c-4">
      <g fill="#4C404B" font-size="2.82" font-family="'PT Sans','Helvetica Neue','Helvetica',sans-serif" id="img-0737bd6c-5">
        <g transform="translate(78.51,43.92)" id="img-0737bd6c-6">
          <g class="primitive">
            <text dy="0.35em">coding_noncoding_noncoding_noncoding_4-star</text>
          </g>
        </g>
      </g>
      <g fill-opacity="1" fill="#00BFFF" stroke="#FFFFFF" id="img-0737bd6c-7">
        <g transform="translate(76.61,43.92)" id="img-0737bd6c-8">
          <path d="M-0.91,-0.91 L0.91,-0.91 0.91,0.91 -0.91,0.91  z" class="primitive"/>
        </g>
      </g>
    </g>
    <g fill="#362A35" font-size="3.88" font-family="'PT Sans','Helvetica Neue','Helvetica',sans-serif" stroke="#000000" stroke-opacity="0.000" id="img-0737bd6c-9">
      <g transform="translate(75.7,40.1)" id="img-0737bd6c-10">
        <g class="primitive">
          <text dy="-0em">graphlet</text>
        </g>
      </g>
    </g>
  </g>
  <g clip-path="url(#img-0737bd6c-11)">
    <g id="img-0737bd6c-12">
      <g pointer-events="visible" stroke-width="0.3" fill="#000000" fill-opacity="0.000" stroke="#000000" stroke-opacity="0.000" class="guide background" id="img-0737bd6c-13">
        <g transform="translate(46.33,42.11)" id="img-0737bd6c-14">
          <path d="M-28.37,-37.11 L28.37,-37.11 28.37,37.11 -28.37,37.11  z" class="primitive"/>
        </g>
      </g>
      <g class="guide ygridlines xfixed" stroke-dasharray="0.5,0.5" stroke-width="0.2" stroke="#D0D0E0" id="img-0737bd6c-15">
        <g transform="translate(46.33,77.21)" id="img-0737bd6c-16">
          <path fill="none" d="M-28.37,0 L28.37,0 " class="primitive"/>
        </g>
        <g transform="translate(46.33,59.66)" id="img-0737bd6c-17">
          <path fill="none" d="M-28.37,0 L28.37,0 " class="primitive"/>
        </g>
        <g transform="translate(46.33,42.11)" id="img-0737bd6c-18">
          <path fill="none" d="M-28.37,0 L28.37,0 " class="primitive"/>
        </g>
        <g transform="translate(46.33,24.55)" id="img-0737bd6c-19">
          <path fill="none" d="M-28.37,0 L28.37,0 " class="primitive"/>
        </g>
        <g transform="translate(46.33,7)" id="img-0737bd6c-20">
          <path fill="none" d="M-28.37,0 L28.37,0 " class="primitive"/>
        </g>
      </g>
      <g class="guide xgridlines yfixed" stroke-dasharray="0.5,0.5" stroke-width="0.2" stroke="#D0D0E0" id="img-0737bd6c-21">
        <g transform="translate(19.96,42.11)" id="img-0737bd6c-22">
          <path fill="none" d="M0,-37.11 L0,37.11 " class="primitive"/>
        </g>
        <g transform="translate(30.51,42.11)" id="img-0737bd6c-23">
          <path fill="none" d="M0,-37.11 L0,37.11 " class="primitive"/>
        </g>
        <g transform="translate(41.06,42.11)" id="img-0737bd6c-24">
          <path fill="none" d="M0,-37.11 L0,37.11 " class="primitive"/>
        </g>
        <g transform="translate(51.6,42.11)" id="img-0737bd6c-25">
          <path fill="none" d="M0,-37.11 L0,37.11 " class="primitive"/>
        </g>
        <g transform="translate(62.15,42.11)" id="img-0737bd6c-26">
          <path fill="none" d="M0,-37.11 L0,37.11 " class="primitive"/>
        </g>
        <g transform="translate(72.7,42.11)" id="img-0737bd6c-27">
          <path fill="none" d="M0,-37.11 L0,37.11 " class="primitive"/>
        </g>
      </g>
      <g class="plotpanel" id="img-0737bd6c-28">
        <metadata>
          <boundingbox value="17.958333333333336mm 5.0mm 56.743022903976176mm 74.21333333333334mm"/>
          <unitbox value="381040.1462612297 41.13938473224459 537919.7074775406 -42.27876946448917"/>
        </metadata>
        <g shape-rendering="crispEdges" stroke-width="0.3" id="img-0737bd6c-29">
          <g stroke="#000000" stroke-opacity="0.000" class="geometry" id="img-0737bd6c-30">
            <g fill="#00BFFF" id="img-0737bd6c-31">
              <g transform="translate(30.12,75.46)" id="img-0737bd6c-32">
                <path d="M-0.22,-1.76 L0.22,-1.76 0.22,1.76 -0.22,1.76  z" class="primitive"/>
              </g>
              <g transform="translate(30.5,76.34)" id="img-0737bd6c-33">
                <path d="M-0.22,-0.88 L0.22,-0.88 0.22,0.88 -0.22,0.88  z" class="primitive"/>
              </g>
              <g transform="translate(30.89,77.22)" id="img-0737bd6c-34">
                <path d="M-0.22,-0 L0.22,-0 0.22,0 -0.22,0  z" class="primitive"/>
              </g>
              <g transform="translate(31.28,76.34)" id="img-0737bd6c-35">
                <path d="M-0.22,-0.88 L0.22,-0.88 0.22,0.88 -0.22,0.88  z" class="primitive"/>
              </g>
              <g transform="translate(31.67,77.22)" id="img-0737bd6c-36">
                <path d="M-0.22,-0 L0.22,-0 0.22,0 -0.22,0  z" class="primitive"/>
              </g>
              <g transform="translate(32.05,76.34)" id="img-0737bd6c-37">
                <path d="M-0.22,-0.88 L0.22,-0.88 0.22,0.88 -0.22,0.88  z" class="primitive"/>
              </g>
              <g transform="translate(32.44,76.34)" id="img-0737bd6c-38">
                <path d="M-0.22,-0.88 L0.22,-0.88 0.22,0.88 -0.22,0.88  z" class="primitive"/>
              </g>
              <g transform="translate(32.83,76.34)" id="img-0737bd6c-39">
                <path d="M-0.22,-0.88 L0.22,-0.88 0.22,0.88 -0.22,0.88  z" class="primitive"/>
              </g>
              <g transform="translate(33.22,77.22)" id="img-0737bd6c-40">
                <path d="M-0.22,-0 L0.22,-0 0.22,0 -0.22,0  z" class="primitive"/>
              </g>
              <g transform="translate(33.6,75.46)" id="img-0737bd6c-41">
                <path d="M-0.22,-1.76 L0.22,-1.76 0.22,1.76 -0.22,1.76  z" class="primitive"/>
              </g>
              <g transform="translate(33.99,77.22)" id="img-0737bd6c-42">
                <path d="M-0.22,-0 L0.22,-0 0.22,0 -0.22,0  z" class="primitive"/>
              </g>
              <g transform="translate(34.38,76.34)" id="img-0737bd6c-43">
                <path d="M-0.22,-0.88 L0.22,-0.88 0.22,0.88 -0.22,0.88  z" class="primitive"/>
              </g>
              <g transform="translate(34.77,77.22)" id="img-0737bd6c-44">
                <path d="M-0.22,-0 L0.22,-0 0.22,0 -0.22,0  z" class="primitive"/>
              </g>
              <g transform="translate(35.16,72.82)" id="img-0737bd6c-45">
                <path d="M-0.22,-4.39 L0.22,-4.39 0.22,4.39 -0.22,4.39  z" class="primitive"/>
              </g>
              <g transform="translate(35.54,73.7)" id="img-0737bd6c-46">
                <path d="M-0.22,-3.51 L0.22,-3.51 0.22,3.51 -0.22,3.51  z" class="primitive"/>
              </g>
              <g transform="translate(35.93,71.95)" id="img-0737bd6c-47">
                <path d="M-0.22,-5.27 L0.22,-5.27 0.22,5.27 -0.22,5.27  z" class="primitive"/>
              </g>
              <g transform="translate(36.32,77.22)" id="img-0737bd6c-48">
                <path d="M-0.22,-0 L0.22,-0 0.22,0 -0.22,0  z" class="primitive"/>
              </g>
              <g transform="translate(36.71,75.46)" id="img-0737bd6c-49">
                <path d="M-0.22,-1.76 L0.22,-1.76 0.22,1.76 -0.22,1.76  z" class="primitive"/>
              </g>
              <g transform="translate(37.09,72.82)" id="img-0737bd6c-50">
                <path d="M-0.22,-4.39 L0.22,-4.39 0.22,4.39 -0.22,4.39  z" class="primitive"/>
              </g>
              <g transform="translate(37.48,74.58)" id="img-0737bd6c-51">
                <path d="M-0.22,-2.63 L0.22,-2.63 0.22,2.63 -0.22,2.63  z" class="primitive"/>
              </g>
              <g transform="translate(37.87,70.19)" id="img-0737bd6c-52">
                <path d="M-0.22,-7.02 L0.22,-7.02 0.22,7.02 -0.22,7.02  z" class="primitive"/>
              </g>
              <g transform="translate(38.26,71.07)" id="img-0737bd6c-53">
                <path d="M-0.22,-6.14 L0.22,-6.14 0.22,6.14 -0.22,6.14  z" class="primitive"/>
              </g>
              <g transform="translate(38.64,73.7)" id="img-0737bd6c-54">
                <path d="M-0.22,-3.51 L0.22,-3.51 0.22,3.51 -0.22,3.51  z" class="primitive"/>
              </g>
              <g transform="translate(39.03,70.19)" id="img-0737bd6c-55">
                <path d="M-0.22,-7.02 L0.22,-7.02 0.22,7.02 -0.22,7.02  z" class="primitive"/>
              </g>
              <g transform="translate(39.42,73.7)" id="img-0737bd6c-56">
                <path d="M-0.22,-3.51 L0.22,-3.51 0.22,3.51 -0.22,3.51  z" class="primitive"/>
              </g>
              <g transform="translate(39.81,74.58)" id="img-0737bd6c-57">
                <path d="M-0.22,-2.63 L0.22,-2.63 0.22,2.63 -0.22,2.63  z" class="primitive"/>
              </g>
              <g transform="translate(40.2,69.31)" id="img-0737bd6c-58">
                <path d="M-0.22,-7.9 L0.22,-7.9 0.22,7.9 -0.22,7.9  z" class="primitive"/>
              </g>
              <g transform="translate(40.58,68.44)" id="img-0737bd6c-59">
                <path d="M-0.22,-8.78 L0.22,-8.78 0.22,8.78 -0.22,8.78  z" class="primitive"/>
              </g>
              <g transform="translate(40.97,70.19)" id="img-0737bd6c-60">
                <path d="M-0.22,-7.02 L0.22,-7.02 0.22,7.02 -0.22,7.02  z" class="primitive"/>
              </g>
              <g transform="translate(41.36,66.68)" id="img-0737bd6c-61">
                <path d="M-0.22,-10.53 L0.22,-10.53 0.22,10.53 -0.22,10.53  z" class="primitive"/>
              </g>
              <g transform="translate(41.75,71.07)" id="img-0737bd6c-62">
                <path d="M-0.22,-6.14 L0.22,-6.14 0.22,6.14 -0.22,6.14  z" class="primitive"/>
              </g>
              <g transform="translate(42.13,68.44)" id="img-0737bd6c-63">
                <path d="M-0.22,-8.78 L0.22,-8.78 0.22,8.78 -0.22,8.78  z" class="primitive"/>
              </g>
              <g transform="translate(42.52,66.68)" id="img-0737bd6c-64">
                <path d="M-0.22,-10.53 L0.22,-10.53 0.22,10.53 -0.22,10.53  z" class="primitive"/>
              </g>
              <g transform="translate(42.91,68.44)" id="img-0737bd6c-65">
                <path d="M-0.22,-8.78 L0.22,-8.78 0.22,8.78 -0.22,8.78  z" class="primitive"/>
              </g>
              <g transform="translate(43.3,64.05)" id="img-0737bd6c-66">
                <path d="M-0.22,-13.17 L0.22,-13.17 0.22,13.17 -0.22,13.17  z" class="primitive"/>
              </g>
              <g transform="translate(43.68,68.44)" id="img-0737bd6c-67">
                <path d="M-0.22,-8.78 L0.22,-8.78 0.22,8.78 -0.22,8.78  z" class="primitive"/>
              </g>
              <g transform="translate(44.07,63.17)" id="img-0737bd6c-68">
                <path d="M-0.22,-14.04 L0.22,-14.04 0.22,14.04 -0.22,14.04  z" class="primitive"/>
              </g>
              <g transform="translate(44.46,62.29)" id="img-0737bd6c-69">
                <path d="M-0.22,-14.92 L0.22,-14.92 0.22,14.92 -0.22,14.92  z" class="primitive"/>
              </g>
              <g transform="translate(44.85,58.78)" id="img-0737bd6c-70">
                <path d="M-0.22,-18.43 L0.22,-18.43 0.22,18.43 -0.22,18.43  z" class="primitive"/>
              </g>
              <g transform="translate(45.24,61.42)" id="img-0737bd6c-71">
                <path d="M-0.22,-15.8 L0.22,-15.8 0.22,15.8 -0.22,15.8  z" class="primitive"/>
              </g>
              <g transform="translate(45.62,57.03)" id="img-0737bd6c-72">
                <path d="M-0.22,-20.19 L0.22,-20.19 0.22,20.19 -0.22,20.19  z" class="primitive"/>
              </g>
              <g transform="translate(46.01,63.17)" id="img-0737bd6c-73">
                <path d="M-0.22,-14.04 L0.22,-14.04 0.22,14.04 -0.22,14.04  z" class="primitive"/>
              </g>
              <g transform="translate(46.4,59.66)" id="img-0737bd6c-74">
                <path d="M-0.22,-17.55 L0.22,-17.55 0.22,17.55 -0.22,17.55  z" class="primitive"/>
              </g>
              <g transform="translate(46.79,61.42)" id="img-0737bd6c-75">
                <path d="M-0.22,-15.8 L0.22,-15.8 0.22,15.8 -0.22,15.8  z" class="primitive"/>
              </g>
              <g transform="translate(47.17,61.42)" id="img-0737bd6c-76">
                <path d="M-0.22,-15.8 L0.22,-15.8 0.22,15.8 -0.22,15.8  z" class="primitive"/>
              </g>
              <g transform="translate(47.56,56.15)" id="img-0737bd6c-77">
                <path d="M-0.22,-21.06 L0.22,-21.06 0.22,21.06 -0.22,21.06  z" class="primitive"/>
              </g>
              <g transform="translate(47.95,56.15)" id="img-0737bd6c-78">
                <path d="M-0.22,-21.06 L0.22,-21.06 0.22,21.06 -0.22,21.06  z" class="primitive"/>
              </g>
              <g transform="translate(48.34,57.03)" id="img-0737bd6c-79">
                <path d="M-0.22,-20.19 L0.22,-20.19 0.22,20.19 -0.22,20.19  z" class="primitive"/>
              </g>
              <g transform="translate(48.72,48.25)" id="img-0737bd6c-80">
                <path d="M-0.22,-28.96 L0.22,-28.96 0.22,28.96 -0.22,28.96  z" class="primitive"/>
              </g>
              <g transform="translate(49.11,64.05)" id="img-0737bd6c-81">
                <path d="M-0.22,-13.17 L0.22,-13.17 0.22,13.17 -0.22,13.17  z" class="primitive"/>
              </g>
              <g transform="translate(49.5,54.39)" id="img-0737bd6c-82">
                <path d="M-0.22,-22.82 L0.22,-22.82 0.22,22.82 -0.22,22.82  z" class="primitive"/>
              </g>
              <g transform="translate(49.89,52.64)" id="img-0737bd6c-83">
                <path d="M-0.22,-24.57 L0.22,-24.57 0.22,24.57 -0.22,24.57  z" class="primitive"/>
              </g>
              <g transform="translate(50.28,52.64)" id="img-0737bd6c-84">
                <path d="M-0.22,-24.57 L0.22,-24.57 0.22,24.57 -0.22,24.57  z" class="primitive"/>
              </g>
              <g transform="translate(50.66,57.9)" id="img-0737bd6c-85">
                <path d="M-0.22,-19.31 L0.22,-19.31 0.22,19.31 -0.22,19.31  z" class="primitive"/>
              </g>
              <g transform="translate(51.05,57.03)" id="img-0737bd6c-86">
                <path d="M-0.22,-20.19 L0.22,-20.19 0.22,20.19 -0.22,20.19  z" class="primitive"/>
              </g>
              <g transform="translate(51.44,48.25)" id="img-0737bd6c-87">
                <path d="M-0.22,-28.96 L0.22,-28.96 0.22,28.96 -0.22,28.96  z" class="primitive"/>
              </g>
              <g transform="translate(51.83,61.42)" id="img-0737bd6c-88">
                <path d="M-0.22,-15.8 L0.22,-15.8 0.22,15.8 -0.22,15.8  z" class="primitive"/>
              </g>
              <g transform="translate(52.21,57.9)" id="img-0737bd6c-89">
                <path d="M-0.22,-19.31 L0.22,-19.31 0.22,19.31 -0.22,19.31  z" class="primitive"/>
              </g>
              <g transform="translate(52.6,62.29)" id="img-0737bd6c-90">
                <path d="M-0.22,-14.92 L0.22,-14.92 0.22,14.92 -0.22,14.92  z" class="primitive"/>
              </g>
              <g transform="translate(52.99,64.93)" id="img-0737bd6c-91">
                <path d="M-0.22,-12.29 L0.22,-12.29 0.22,12.29 -0.22,12.29  z" class="primitive"/>
              </g>
              <g transform="translate(53.38,60.54)" id="img-0737bd6c-92">
                <path d="M-0.22,-16.68 L0.22,-16.68 0.22,16.68 -0.22,16.68  z" class="primitive"/>
              </g>
              <g transform="translate(53.76,61.42)" id="img-0737bd6c-93">
                <path d="M-0.22,-15.8 L0.22,-15.8 0.22,15.8 -0.22,15.8  z" class="primitive"/>
              </g>
              <g transform="translate(54.15,58.78)" id="img-0737bd6c-94">
                <path d="M-0.22,-18.43 L0.22,-18.43 0.22,18.43 -0.22,18.43  z" class="primitive"/>
              </g>
              <g transform="translate(54.54,61.42)" id="img-0737bd6c-95">
                <path d="M-0.22,-15.8 L0.22,-15.8 0.22,15.8 -0.22,15.8  z" class="primitive"/>
              </g>
              <g transform="translate(54.93,61.42)" id="img-0737bd6c-96">
                <path d="M-0.22,-15.8 L0.22,-15.8 0.22,15.8 -0.22,15.8  z" class="primitive"/>
              </g>
              <g transform="translate(55.32,64.05)" id="img-0737bd6c-97">
                <path d="M-0.22,-13.17 L0.22,-13.17 0.22,13.17 -0.22,13.17  z" class="primitive"/>
              </g>
              <g transform="translate(55.7,65.8)" id="img-0737bd6c-98">
                <path d="M-0.22,-11.41 L0.22,-11.41 0.22,11.41 -0.22,11.41  z" class="primitive"/>
              </g>
              <g transform="translate(56.09,64.05)" id="img-0737bd6c-99">
                <path d="M-0.22,-13.17 L0.22,-13.17 0.22,13.17 -0.22,13.17  z" class="primitive"/>
              </g>
              <g transform="translate(56.48,59.66)" id="img-0737bd6c-100">
                <path d="M-0.22,-17.55 L0.22,-17.55 0.22,17.55 -0.22,17.55  z" class="primitive"/>
              </g>
              <g transform="translate(56.87,65.8)" id="img-0737bd6c-101">
                <path d="M-0.22,-11.41 L0.22,-11.41 0.22,11.41 -0.22,11.41  z" class="primitive"/>
              </g>
              <g transform="translate(57.25,66.68)" id="img-0737bd6c-102">
                <path d="M-0.22,-10.53 L0.22,-10.53 0.22,10.53 -0.22,10.53  z" class="primitive"/>
              </g>
              <g transform="translate(57.64,66.68)" id="img-0737bd6c-103">
                <path d="M-0.22,-10.53 L0.22,-10.53 0.22,10.53 -0.22,10.53  z" class="primitive"/>
              </g>
              <g transform="translate(58.03,67.56)" id="img-0737bd6c-104">
                <path d="M-0.22,-9.65 L0.22,-9.65 0.22,9.65 -0.22,9.65  z" class="primitive"/>
              </g>
              <g transform="translate(58.42,68.44)" id="img-0737bd6c-105">
                <path d="M-0.22,-8.78 L0.22,-8.78 0.22,8.78 -0.22,8.78  z" class="primitive"/>
              </g>
              <g transform="translate(58.8,68.44)" id="img-0737bd6c-106">
                <path d="M-0.22,-8.78 L0.22,-8.78 0.22,8.78 -0.22,8.78  z" class="primitive"/>
              </g>
              <g transform="translate(59.19,71.95)" id="img-0737bd6c-107">
                <path d="M-0.22,-5.27 L0.22,-5.27 0.22,5.27 -0.22,5.27  z" class="primitive"/>
              </g>
              <g transform="translate(59.58,70.19)" id="img-0737bd6c-108">
                <path d="M-0.22,-7.02 L0.22,-7.02 0.22,7.02 -0.22,7.02  z" class="primitive"/>
              </g>
              <g transform="translate(59.97,72.82)" id="img-0737bd6c-109">
                <path d="M-0.22,-4.39 L0.22,-4.39 0.22,4.39 -0.22,4.39  z" class="primitive"/>
              </g>
              <g transform="translate(60.36,69.31)" id="img-0737bd6c-110">
                <path d="M-0.22,-7.9 L0.22,-7.9 0.22,7.9 -0.22,7.9  z" class="primitive"/>
              </g>
              <g transform="translate(60.74,70.19)" id="img-0737bd6c-111">
                <path d="M-0.22,-7.02 L0.22,-7.02 0.22,7.02 -0.22,7.02  z" class="primitive"/>
              </g>
              <g transform="translate(61.13,73.7)" id="img-0737bd6c-112">
                <path d="M-0.22,-3.51 L0.22,-3.51 0.22,3.51 -0.22,3.51  z" class="primitive"/>
              </g>
              <g transform="translate(61.52,70.19)" id="img-0737bd6c-113">
                <path d="M-0.22,-7.02 L0.22,-7.02 0.22,7.02 -0.22,7.02  z" class="primitive"/>
              </g>
              <g transform="translate(61.91,74.58)" id="img-0737bd6c-114">
                <path d="M-0.22,-2.63 L0.22,-2.63 0.22,2.63 -0.22,2.63  z" class="primitive"/>
              </g>
              <g transform="translate(62.29,71.95)" id="img-0737bd6c-115">
                <path d="M-0.22,-5.27 L0.22,-5.27 0.22,5.27 -0.22,5.27  z" class="primitive"/>
              </g>
              <g transform="translate(62.68,74.58)" id="img-0737bd6c-116">
                <path d="M-0.22,-2.63 L0.22,-2.63 0.22,2.63 -0.22,2.63  z" class="primitive"/>
              </g>
              <g transform="translate(63.07,73.7)" id="img-0737bd6c-117">
                <path d="M-0.22,-3.51 L0.22,-3.51 0.22,3.51 -0.22,3.51  z" class="primitive"/>
              </g>
              <g transform="translate(63.46,73.7)" id="img-0737bd6c-118">
                <path d="M-0.22,-3.51 L0.22,-3.51 0.22,3.51 -0.22,3.51  z" class="primitive"/>
              </g>
              <g transform="translate(63.84,76.34)" id="img-0737bd6c-119">
                <path d="M-0.22,-0.88 L0.22,-0.88 0.22,0.88 -0.22,0.88  z" class="primitive"/>
              </g>
              <g transform="translate(64.23,74.58)" id="img-0737bd6c-120">
                <path d="M-0.22,-2.63 L0.22,-2.63 0.22,2.63 -0.22,2.63  z" class="primitive"/>
              </g>
              <g transform="translate(64.62,73.7)" id="img-0737bd6c-121">
                <path d="M-0.22,-3.51 L0.22,-3.51 0.22,3.51 -0.22,3.51  z" class="primitive"/>
              </g>
              <g transform="translate(65.01,74.58)" id="img-0737bd6c-122">
                <path d="M-0.22,-2.63 L0.22,-2.63 0.22,2.63 -0.22,2.63  z" class="primitive"/>
              </g>
              <g transform="translate(65.4,77.22)" id="img-0737bd6c-123">
                <path d="M-0.22,-0 L0.22,-0 0.22,0 -0.22,0  z" class="primitive"/>
              </g>
              <g transform="translate(65.78,76.34)" id="img-0737bd6c-124">
                <path d="M-0.22,-0.88 L0.22,-0.88 0.22,0.88 -0.22,0.88  z" class="primitive"/>
              </g>
              <g transform="translate(66.17,76.34)" id="img-0737bd6c-125">
                <path d="M-0.22,-0.88 L0.22,-0.88 0.22,0.88 -0.22,0.88  z" class="primitive"/>
              </g>
              <g transform="translate(66.56,77.22)" id="img-0737bd6c-126">
                <path d="M-0.22,-0 L0.22,-0 0.22,0 -0.22,0  z" class="primitive"/>
              </g>
              <g transform="translate(66.95,76.34)" id="img-0737bd6c-127">
                <path d="M-0.22,-0.88 L0.22,-0.88 0.22,0.88 -0.22,0.88  z" class="primitive"/>
              </g>
              <g transform="translate(67.33,76.34)" id="img-0737bd6c-128">
                <path d="M-0.22,-0.88 L0.22,-0.88 0.22,0.88 -0.22,0.88  z" class="primitive"/>
              </g>
              <g transform="translate(67.72,75.46)" id="img-0737bd6c-129">
                <path d="M-0.22,-1.76 L0.22,-1.76 0.22,1.76 -0.22,1.76  z" class="primitive"/>
              </g>
              <g transform="translate(68.11,77.22)" id="img-0737bd6c-130">
                <path d="M-0.22,-0 L0.22,-0 0.22,0 -0.22,0  z" class="primitive"/>
              </g>
              <g transform="translate(68.5,76.34)" id="img-0737bd6c-131">
                <path d="M-0.22,-0.88 L0.22,-0.88 0.22,0.88 -0.22,0.88  z" class="primitive"/>
              </g>
            </g>
          </g>
        </g>
      </g>
    </g>
  </g>
  <g class="guide ylabels" font-size="2.82" font-family="'PT Sans Caption','Helvetica Neue','Helvetica',sans-serif" fill="#6C606B" id="img-0737bd6c-132">
    <g transform="translate(16.96,77.21)" id="img-0737bd6c-133">
      <g class="primitive">
        <text text-anchor="end" dy="0.35em">0</text>
      </g>
    </g>
    <g transform="translate(16.96,59.66)" id="img-0737bd6c-134">
      <g class="primitive">
        <text text-anchor="end" dy="0.35em">10</text>
      </g>
    </g>
    <g transform="translate(16.96,42.11)" id="img-0737bd6c-135">
      <g class="primitive">
        <text text-anchor="end" dy="0.35em">20</text>
      </g>
    </g>
    <g transform="translate(16.96,24.55)" id="img-0737bd6c-136">
      <g class="primitive">
        <text text-anchor="end" dy="0.35em">30</text>
      </g>
    </g>
    <g transform="translate(16.96,7)" id="img-0737bd6c-137">
      <g class="primitive">
        <text text-anchor="end" dy="0.35em">40</text>
      </g>
    </g>
  </g>
  <g font-size="3.88" font-family="'PT Sans','Helvetica Neue','Helvetica',sans-serif" fill="#564A55" stroke="#000000" stroke-opacity="0.000" id="img-0737bd6c-138">
    <g transform="translate(8.81,40.11)" id="img-0737bd6c-139">
      <g class="primitive">
        <text text-anchor="middle" dy="0.35em" transform="rotate(-90,0, 2)">frequency</text>
      </g>
    </g>
  </g>
</g>
<defs>
  <clipPath id="img-0737bd6c-11">
    <path d="M17.96,5 L74.7,5 74.7,79.21 17.96,79.21 " />
  </clipPath>
</defs>
</svg>
