<?xml version="1.0" encoding="UTF-8"?>
<svg xmlns="http://www.w3.org/2000/svg"
     xmlns:xlink="http://www.w3.org/1999/xlink"
     xmlns:gadfly="http://www.gadflyjl.org/ns"
     version="1.2"
     width="141.42mm" height="100mm" viewBox="0 0 141.42 100"
     stroke="none"
     fill="#000000"
     stroke-width="0.3"
     font-size="3.88"
>
<defs>
  <marker id="arrow" markerWidth="15" markerHeight="7" refX="5" refY="3.5" orient="auto" markerUnits="strokeWidth">
    <path d="M0,0 L15,3.5 L0,7 z" stroke="context-stroke" fill="context-stroke"/>
  </marker>
</defs>
<g class="plotroot xscalable yscalable" id="img-34ae3d7e-1">
  <g class="guide xlabels" font-size="2.82" font-family="'PT Sans Caption','Helvetica Neue','Helvetica',sans-serif" fill="#6C606B" id="img-34ae3d7e-2">
    <g transform="translate(19.96,80.21)">
      <g class="primitive">
        <text text-anchor="end" dy="0.35em" transform="rotate(-90,0, 0)">1.60×10⁵</text>
      </g>
    </g>
    <g transform="translate(31.1,80.21)">
      <g class="primitive">
        <text text-anchor="end" dy="0.35em" transform="rotate(-90,0, 0)">1.70×10⁵</text>
      </g>
    </g>
    <g transform="translate(42.25,80.21)">
      <g class="primitive">
        <text text-anchor="end" dy="0.35em" transform="rotate(-90,0, 0)">1.80×10⁵</text>
      </g>
    </g>
    <g transform="translate(53.39,80.21)">
      <g class="primitive">
        <text text-anchor="end" dy="0.35em" transform="rotate(-90,0, 0)">1.90×10⁵</text>
      </g>
    </g>
    <g transform="translate(64.54,80.21)">
      <g class="primitive">
        <text text-anchor="end" dy="0.35em" transform="rotate(-90,0, 0)">2.00×10⁵</text>
      </g>
    </g>
    <g transform="translate(75.68,80.21)">
      <g class="primitive">
        <text text-anchor="end" dy="0.35em" transform="rotate(-90,0, 0)">2.10×10⁵</text>
      </g>
    </g>
  </g>
  <g class="guide colorkey" id="img-34ae3d7e-3">
    <g class="color_coding_coding_noncoding_noncoding_4-cycle" id="img-34ae3d7e-4">
      <g fill="#4C404B" font-size="2.82" font-family="'PT Sans','Helvetica Neue','Helvetica',sans-serif" id="img-34ae3d7e-5">
        <g transform="translate(81.49,43.92)" id="img-34ae3d7e-6">
          <g class="primitive">
            <text dy="0.35em">coding_coding_noncoding_noncoding_4-cycle</text>
          </g>
        </g>
      </g>
      <g fill-opacity="1" fill="#00BFFF" stroke="#FFFFFF" id="img-34ae3d7e-7">
        <g transform="translate(79.59,43.92)" id="img-34ae3d7e-8">
          <path d="M-0.91,-0.91 L0.91,-0.91 0.91,0.91 -0.91,0.91  z" class="primitive"/>
        </g>
      </g>
    </g>
    <g fill="#362A35" font-size="3.88" font-family="'PT Sans','Helvetica Neue','Helvetica',sans-serif" stroke="#000000" stroke-opacity="0.000" id="img-34ae3d7e-9">
      <g transform="translate(78.68,40.1)" id="img-34ae3d7e-10">
        <g class="primitive">
          <text dy="-0em">graphlet</text>
        </g>
      </g>
    </g>
  </g>
  <g clip-path="url(#img-34ae3d7e-11)">
    <g id="img-34ae3d7e-12">
      <g pointer-events="visible" stroke-width="0.3" fill="#000000" fill-opacity="0.000" stroke="#000000" stroke-opacity="0.000" class="guide background" id="img-34ae3d7e-13">
        <g transform="translate(47.82,42.11)" id="img-34ae3d7e-14">
          <path d="M-29.86,-37.11 L29.86,-37.11 29.86,37.11 -29.86,37.11  z" class="primitive"/>
        </g>
      </g>
      <g class="guide ygridlines xfixed" stroke-dasharray="0.5,0.5" stroke-width="0.2" stroke="#D0D0E0" id="img-34ae3d7e-15">
        <g transform="translate(47.82,77.21)" id="img-34ae3d7e-16">
          <path fill="none" d="M-29.86,0 L29.86,0 " class="primitive"/>
        </g>
        <g transform="translate(47.82,59.66)" id="img-34ae3d7e-17">
          <path fill="none" d="M-29.86,0 L29.86,0 " class="primitive"/>
        </g>
        <g transform="translate(47.82,42.11)" id="img-34ae3d7e-18">
          <path fill="none" d="M-29.86,0 L29.86,0 " class="primitive"/>
        </g>
        <g transform="translate(47.82,24.55)" id="img-34ae3d7e-19">
          <path fill="none" d="M-29.86,0 L29.86,0 " class="primitive"/>
        </g>
        <g transform="translate(47.82,7)" id="img-34ae3d7e-20">
          <path fill="none" d="M-29.86,0 L29.86,0 " class="primitive"/>
        </g>
      </g>
      <g class="guide xgridlines yfixed" stroke-dasharray="0.5,0.5" stroke-width="0.2" stroke="#D0D0E0" id="img-34ae3d7e-21">
        <g transform="translate(19.96,42.11)" id="img-34ae3d7e-22">
          <path fill="none" d="M0,-37.11 L0,37.11 " class="primitive"/>
        </g>
        <g transform="translate(31.1,42.11)" id="img-34ae3d7e-23">
          <path fill="none" d="M0,-37.11 L0,37.11 " class="primitive"/>
        </g>
        <g transform="translate(42.25,42.11)" id="img-34ae3d7e-24">
          <path fill="none" d="M0,-37.11 L0,37.11 " class="primitive"/>
        </g>
        <g transform="translate(53.39,42.11)" id="img-34ae3d7e-25">
          <path fill="none" d="M0,-37.11 L0,37.11 " class="primitive"/>
        </g>
        <g transform="translate(64.54,42.11)" id="img-34ae3d7e-26">
          <path fill="none" d="M0,-37.11 L0,37.11 " class="primitive"/>
        </g>
        <g transform="translate(75.68,42.11)" id="img-34ae3d7e-27">
          <path fill="none" d="M0,-37.11 L0,37.11 " class="primitive"/>
        </g>
      </g>
      <g class="plotpanel" id="img-34ae3d7e-28">
        <metadata>
          <boundingbox value="17.958333333333336mm 5.0mm 59.723022903976165mm 74.21333333333334mm"/>
          <unitbox value="158205.40963521803 41.13938473224459 53589.180729563916 -42.27876946448917"/>
        </metadata>
        <g shape-rendering="crispEdges" stroke-width="0.3" id="img-34ae3d7e-29">
          <g stroke="#000000" stroke-opacity="0.000" class="geometry" id="img-34ae3d7e-30">
            <g fill="#00BFFF" id="img-34ae3d7e-31">
              <g transform="translate(28.36,76.34)" id="img-34ae3d7e-32">
                <path d="M-0.22,-0.88 L0.22,-0.88 0.22,0.88 -0.22,0.88  z" class="primitive"/>
              </g>
              <g transform="translate(28.74,76.34)" id="img-34ae3d7e-33">
                <path d="M-0.22,-0.88 L0.22,-0.88 0.22,0.88 -0.22,0.88  z" class="primitive"/>
              </g>
              <g transform="translate(29.13,77.22)" id="img-34ae3d7e-34">
                <path d="M-0.22,-0 L0.22,-0 0.22,0 -0.22,0  z" class="primitive"/>
              </g>
              <g transform="translate(29.51,75.46)" id="img-34ae3d7e-35">
                <path d="M-0.22,-1.76 L0.22,-1.76 0.22,1.76 -0.22,1.76  z" class="primitive"/>
              </g>
              <g transform="translate(29.9,76.34)" id="img-34ae3d7e-36">
                <path d="M-0.22,-0.88 L0.22,-0.88 0.22,0.88 -0.22,0.88  z" class="primitive"/>
              </g>
              <g transform="translate(30.29,77.22)" id="img-34ae3d7e-37">
                <path d="M-0.22,-0 L0.22,-0 0.22,0 -0.22,0  z" class="primitive"/>
              </g>
              <g transform="translate(30.67,76.34)" id="img-34ae3d7e-38">
                <path d="M-0.22,-0.88 L0.22,-0.88 0.22,0.88 -0.22,0.88  z" class="primitive"/>
              </g>
              <g transform="translate(31.06,76.34)" id="img-34ae3d7e-39">
                <path d="M-0.22,-0.88 L0.22,-0.88 0.22,0.88 -0.22,0.88  z" class="primitive"/>
              </g>
              <g transform="translate(31.44,77.22)" id="img-34ae3d7e-40">
                <path d="M-0.22,-0 L0.22,-0 0.22,0 -0.22,0  z" class="primitive"/>
              </g>
              <g transform="translate(31.83,76.34)" id="img-34ae3d7e-41">
                <path d="M-0.22,-0.88 L0.22,-0.88 0.22,0.88 -0.22,0.88  z" class="primitive"/>
              </g>
              <g transform="translate(32.21,76.34)" id="img-34ae3d7e-42">
                <path d="M-0.22,-0.88 L0.22,-0.88 0.22,0.88 -0.22,0.88  z" class="primitive"/>
              </g>
              <g transform="translate(32.6,76.34)" id="img-34ae3d7e-43">
                <path d="M-0.22,-0.88 L0.22,-0.88 0.22,0.88 -0.22,0.88  z" class="primitive"/>
              </g>
              <g transform="translate(32.98,73.7)" id="img-34ae3d7e-44">
                <path d="M-0.22,-3.51 L0.22,-3.51 0.22,3.51 -0.22,3.51  z" class="primitive"/>
              </g>
              <g transform="translate(33.37,73.7)" id="img-34ae3d7e-45">
                <path d="M-0.22,-3.51 L0.22,-3.51 0.22,3.51 -0.22,3.51  z" class="primitive"/>
              </g>
              <g transform="translate(33.75,76.34)" id="img-34ae3d7e-46">
                <path d="M-0.22,-0.88 L0.22,-0.88 0.22,0.88 -0.22,0.88  z" class="primitive"/>
              </g>
              <g transform="translate(34.14,73.7)" id="img-34ae3d7e-47">
                <path d="M-0.22,-3.51 L0.22,-3.51 0.22,3.51 -0.22,3.51  z" class="primitive"/>
              </g>
              <g transform="translate(34.52,76.34)" id="img-34ae3d7e-48">
                <path d="M-0.22,-0.88 L0.22,-0.88 0.22,0.88 -0.22,0.88  z" class="primitive"/>
              </g>
              <g transform="translate(34.91,73.7)" id="img-34ae3d7e-49">
                <path d="M-0.22,-3.51 L0.22,-3.51 0.22,3.51 -0.22,3.51  z" class="primitive"/>
              </g>
              <g transform="translate(35.29,71.07)" id="img-34ae3d7e-50">
                <path d="M-0.22,-6.14 L0.22,-6.14 0.22,6.14 -0.22,6.14  z" class="primitive"/>
              </g>
              <g transform="translate(35.68,73.7)" id="img-34ae3d7e-51">
                <path d="M-0.22,-3.51 L0.22,-3.51 0.22,3.51 -0.22,3.51  z" class="primitive"/>
              </g>
              <g transform="translate(36.07,74.58)" id="img-34ae3d7e-52">
                <path d="M-0.22,-2.63 L0.22,-2.63 0.22,2.63 -0.22,2.63  z" class="primitive"/>
              </g>
              <g transform="translate(36.45,69.31)" id="img-34ae3d7e-53">
                <path d="M-0.22,-7.9 L0.22,-7.9 0.22,7.9 -0.22,7.9  z" class="primitive"/>
              </g>
              <g transform="translate(36.84,75.46)" id="img-34ae3d7e-54">
                <path d="M-0.22,-1.76 L0.22,-1.76 0.22,1.76 -0.22,1.76  z" class="primitive"/>
              </g>
              <g transform="translate(37.22,75.46)" id="img-34ae3d7e-55">
                <path d="M-0.22,-1.76 L0.22,-1.76 0.22,1.76 -0.22,1.76  z" class="primitive"/>
              </g>
              <g transform="translate(37.61,72.82)" id="img-34ae3d7e-56">
                <path d="M-0.22,-4.39 L0.22,-4.39 0.22,4.39 -0.22,4.39  z" class="primitive"/>
              </g>
              <g transform="translate(37.99,73.7)" id="img-34ae3d7e-57">
                <path d="M-0.22,-3.51 L0.22,-3.51 0.22,3.51 -0.22,3.51  z" class="primitive"/>
              </g>
              <g transform="translate(38.38,67.56)" id="img-34ae3d7e-58">
                <path d="M-0.22,-9.65 L0.22,-9.65 0.22,9.65 -0.22,9.65  z" class="primitive"/>
              </g>
              <g transform="translate(38.76,71.95)" id="img-34ae3d7e-59">
                <path d="M-0.22,-5.27 L0.22,-5.27 0.22,5.27 -0.22,5.27  z" class="primitive"/>
              </g>
              <g transform="translate(39.15,71.07)" id="img-34ae3d7e-60">
                <path d="M-0.22,-6.14 L0.22,-6.14 0.22,6.14 -0.22,6.14  z" class="primitive"/>
              </g>
              <g transform="translate(39.53,70.19)" id="img-34ae3d7e-61">
                <path d="M-0.22,-7.02 L0.22,-7.02 0.22,7.02 -0.22,7.02  z" class="primitive"/>
              </g>
              <g transform="translate(39.92,69.31)" id="img-34ae3d7e-62">
                <path d="M-0.22,-7.9 L0.22,-7.9 0.22,7.9 -0.22,7.9  z" class="primitive"/>
              </g>
              <g transform="translate(40.3,68.44)" id="img-34ae3d7e-63">
                <path d="M-0.22,-8.78 L0.22,-8.78 0.22,8.78 -0.22,8.78  z" class="primitive"/>
              </g>
              <g transform="translate(40.69,69.31)" id="img-34ae3d7e-64">
                <path d="M-0.22,-7.9 L0.22,-7.9 0.22,7.9 -0.22,7.9  z" class="primitive"/>
              </g>
              <g transform="translate(41.07,64.93)" id="img-34ae3d7e-65">
                <path d="M-0.22,-12.29 L0.22,-12.29 0.22,12.29 -0.22,12.29  z" class="primitive"/>
              </g>
              <g transform="translate(41.46,65.8)" id="img-34ae3d7e-66">
                <path d="M-0.22,-11.41 L0.22,-11.41 0.22,11.41 -0.22,11.41  z" class="primitive"/>
              </g>
              <g transform="translate(41.84,66.68)" id="img-34ae3d7e-67">
                <path d="M-0.22,-10.53 L0.22,-10.53 0.22,10.53 -0.22,10.53  z" class="primitive"/>
              </g>
              <g transform="translate(42.23,66.68)" id="img-34ae3d7e-68">
                <path d="M-0.22,-10.53 L0.22,-10.53 0.22,10.53 -0.22,10.53  z" class="primitive"/>
              </g>
              <g transform="translate(42.62,56.15)" id="img-34ae3d7e-69">
                <path d="M-0.22,-21.06 L0.22,-21.06 0.22,21.06 -0.22,21.06  z" class="primitive"/>
              </g>
              <g transform="translate(43,63.17)" id="img-34ae3d7e-70">
                <path d="M-0.22,-14.04 L0.22,-14.04 0.22,14.04 -0.22,14.04  z" class="primitive"/>
              </g>
              <g transform="translate(43.39,57.9)" id="img-34ae3d7e-71">
                <path d="M-0.22,-19.31 L0.22,-19.31 0.22,19.31 -0.22,19.31  z" class="primitive"/>
              </g>
              <g transform="translate(43.77,64.05)" id="img-34ae3d7e-72">
                <path d="M-0.22,-13.17 L0.22,-13.17 0.22,13.17 -0.22,13.17  z" class="primitive"/>
              </g>
              <g transform="translate(44.16,59.66)" id="img-34ae3d7e-73">
                <path d="M-0.22,-17.55 L0.22,-17.55 0.22,17.55 -0.22,17.55  z" class="primitive"/>
              </g>
              <g transform="translate(44.54,63.17)" id="img-34ae3d7e-74">
                <path d="M-0.22,-14.04 L0.22,-14.04 0.22,14.04 -0.22,14.04  z" class="primitive"/>
              </g>
              <g transform="translate(44.93,63.17)" id="img-34ae3d7e-75">
                <path d="M-0.22,-14.04 L0.22,-14.04 0.22,14.04 -0.22,14.04  z" class="primitive"/>
              </g>
              <g transform="translate(45.31,61.42)" id="img-34ae3d7e-76">
                <path d="M-0.22,-15.8 L0.22,-15.8 0.22,15.8 -0.22,15.8  z" class="primitive"/>
              </g>
              <g transform="translate(45.7,62.29)" id="img-34ae3d7e-77">
                <path d="M-0.22,-14.92 L0.22,-14.92 0.22,14.92 -0.22,14.92  z" class="primitive"/>
              </g>
              <g transform="translate(46.08,57.03)" id="img-34ae3d7e-78">
                <path d="M-0.22,-20.19 L0.22,-20.19 0.22,20.19 -0.22,20.19  z" class="primitive"/>
              </g>
              <g transform="translate(46.47,50.01)" id="img-34ae3d7e-79">
                <path d="M-0.22,-27.21 L0.22,-27.21 0.22,27.21 -0.22,27.21  z" class="primitive"/>
              </g>
              <g transform="translate(46.85,56.15)" id="img-34ae3d7e-80">
                <path d="M-0.22,-21.06 L0.22,-21.06 0.22,21.06 -0.22,21.06  z" class="primitive"/>
              </g>
              <g transform="translate(47.24,64.05)" id="img-34ae3d7e-81">
                <path d="M-0.22,-13.17 L0.22,-13.17 0.22,13.17 -0.22,13.17  z" class="primitive"/>
              </g>
              <g transform="translate(47.62,60.54)" id="img-34ae3d7e-82">
                <path d="M-0.22,-16.68 L0.22,-16.68 0.22,16.68 -0.22,16.68  z" class="primitive"/>
              </g>
              <g transform="translate(48.01,64.93)" id="img-34ae3d7e-83">
                <path d="M-0.22,-12.29 L0.22,-12.29 0.22,12.29 -0.22,12.29  z" class="primitive"/>
              </g>
              <g transform="translate(48.39,62.29)" id="img-34ae3d7e-84">
                <path d="M-0.22,-14.92 L0.22,-14.92 0.22,14.92 -0.22,14.92  z" class="primitive"/>
              </g>
              <g transform="translate(48.78,60.54)" id="img-34ae3d7e-85">
                <path d="M-0.22,-16.68 L0.22,-16.68 0.22,16.68 -0.22,16.68  z" class="primitive"/>
              </g>
              <g transform="translate(49.17,58.78)" id="img-34ae3d7e-86">
                <path d="M-0.22,-18.43 L0.22,-18.43 0.22,18.43 -0.22,18.43  z" class="primitive"/>
              </g>
              <g transform="translate(49.55,59.66)" id="img-34ae3d7e-87">
                <path d="M-0.22,-17.55 L0.22,-17.55 0.22,17.55 -0.22,17.55  z" class="primitive"/>
              </g>
              <g transform="translate(49.94,51.76)" id="img-34ae3d7e-88">
                <path d="M-0.22,-25.45 L0.22,-25.45 0.22,25.45 -0.22,25.45  z" class="primitive"/>
              </g>
              <g transform="translate(50.32,64.93)" id="img-34ae3d7e-89">
                <path d="M-0.22,-12.29 L0.22,-12.29 0.22,12.29 -0.22,12.29  z" class="primitive"/>
              </g>
              <g transform="translate(50.71,61.42)" id="img-34ae3d7e-90">
                <path d="M-0.22,-15.8 L0.22,-15.8 0.22,15.8 -0.22,15.8  z" class="primitive"/>
              </g>
              <g transform="translate(51.09,58.78)" id="img-34ae3d7e-91">
                <path d="M-0.22,-18.43 L0.22,-18.43 0.22,18.43 -0.22,18.43  z" class="primitive"/>
              </g>
              <g transform="translate(51.48,57.03)" id="img-34ae3d7e-92">
                <path d="M-0.22,-20.19 L0.22,-20.19 0.22,20.19 -0.22,20.19  z" class="primitive"/>
              </g>
              <g transform="translate(51.86,64.93)" id="img-34ae3d7e-93">
                <path d="M-0.22,-12.29 L0.22,-12.29 0.22,12.29 -0.22,12.29  z" class="primitive"/>
              </g>
              <g transform="translate(52.25,60.54)" id="img-34ae3d7e-94">
                <path d="M-0.22,-16.68 L0.22,-16.68 0.22,16.68 -0.22,16.68  z" class="primitive"/>
              </g>
              <g transform="translate(52.63,64.05)" id="img-34ae3d7e-95">
                <path d="M-0.22,-13.17 L0.22,-13.17 0.22,13.17 -0.22,13.17  z" class="primitive"/>
              </g>
              <g transform="translate(53.02,58.78)" id="img-34ae3d7e-96">
                <path d="M-0.22,-18.43 L0.22,-18.43 0.22,18.43 -0.22,18.43  z" class="primitive"/>
              </g>
              <g transform="translate(53.4,57.9)" id="img-34ae3d7e-97">
                <path d="M-0.22,-19.31 L0.22,-19.31 0.22,19.31 -0.22,19.31  z" class="primitive"/>
              </g>
              <g transform="translate(53.79,59.66)" id="img-34ae3d7e-98">
                <path d="M-0.22,-17.55 L0.22,-17.55 0.22,17.55 -0.22,17.55  z" class="primitive"/>
              </g>
              <g transform="translate(54.17,64.05)" id="img-34ae3d7e-99">
                <path d="M-0.22,-13.17 L0.22,-13.17 0.22,13.17 -0.22,13.17  z" class="primitive"/>
              </g>
              <g transform="translate(54.56,62.29)" id="img-34ae3d7e-100">
                <path d="M-0.22,-14.92 L0.22,-14.92 0.22,14.92 -0.22,14.92  z" class="primitive"/>
              </g>
              <g transform="translate(54.94,61.42)" id="img-34ae3d7e-101">
                <path d="M-0.22,-15.8 L0.22,-15.8 0.22,15.8 -0.22,15.8  z" class="primitive"/>
              </g>
              <g transform="translate(55.33,64.93)" id="img-34ae3d7e-102">
                <path d="M-0.22,-12.29 L0.22,-12.29 0.22,12.29 -0.22,12.29  z" class="primitive"/>
              </g>
              <g transform="translate(55.72,58.78)" id="img-34ae3d7e-103">
                <path d="M-0.22,-18.43 L0.22,-18.43 0.22,18.43 -0.22,18.43  z" class="primitive"/>
              </g>
              <g transform="translate(56.1,62.29)" id="img-34ae3d7e-104">
                <path d="M-0.22,-14.92 L0.22,-14.92 0.22,14.92 -0.22,14.92  z" class="primitive"/>
              </g>
              <g transform="translate(56.49,64.93)" id="img-34ae3d7e-105">
                <path d="M-0.22,-12.29 L0.22,-12.29 0.22,12.29 -0.22,12.29  z" class="primitive"/>
              </g>
              <g transform="translate(56.87,70.19)" id="img-34ae3d7e-106">
                <path d="M-0.22,-7.02 L0.22,-7.02 0.22,7.02 -0.22,7.02  z" class="primitive"/>
              </g>
              <g transform="translate(57.26,67.56)" id="img-34ae3d7e-107">
                <path d="M-0.22,-9.65 L0.22,-9.65 0.22,9.65 -0.22,9.65  z" class="primitive"/>
              </g>
              <g transform="translate(57.64,65.8)" id="img-34ae3d7e-108">
                <path d="M-0.22,-11.41 L0.22,-11.41 0.22,11.41 -0.22,11.41  z" class="primitive"/>
              </g>
              <g transform="translate(58.03,70.19)" id="img-34ae3d7e-109">
                <path d="M-0.22,-7.02 L0.22,-7.02 0.22,7.02 -0.22,7.02  z" class="primitive"/>
              </g>
              <g transform="translate(58.41,71.95)" id="img-34ae3d7e-110">
                <path d="M-0.22,-5.27 L0.22,-5.27 0.22,5.27 -0.22,5.27  z" class="primitive"/>
              </g>
              <g transform="translate(58.8,67.56)" id="img-34ae3d7e-111">
                <path d="M-0.22,-9.65 L0.22,-9.65 0.22,9.65 -0.22,9.65  z" class="primitive"/>
              </g>
              <g transform="translate(59.18,71.07)" id="img-34ae3d7e-112">
                <path d="M-0.22,-6.14 L0.22,-6.14 0.22,6.14 -0.22,6.14  z" class="primitive"/>
              </g>
              <g transform="translate(59.57,67.56)" id="img-34ae3d7e-113">
                <path d="M-0.22,-9.65 L0.22,-9.65 0.22,9.65 -0.22,9.65  z" class="primitive"/>
              </g>
              <g transform="translate(59.95,72.82)" id="img-34ae3d7e-114">
                <path d="M-0.22,-4.39 L0.22,-4.39 0.22,4.39 -0.22,4.39  z" class="primitive"/>
              </g>
              <g transform="translate(60.34,74.58)" id="img-34ae3d7e-115">
                <path d="M-0.22,-2.63 L0.22,-2.63 0.22,2.63 -0.22,2.63  z" class="primitive"/>
              </g>
              <g transform="translate(60.72,68.44)" id="img-34ae3d7e-116">
                <path d="M-0.22,-8.78 L0.22,-8.78 0.22,8.78 -0.22,8.78  z" class="primitive"/>
              </g>
              <g transform="translate(61.11,76.34)" id="img-34ae3d7e-117">
                <path d="M-0.22,-0.88 L0.22,-0.88 0.22,0.88 -0.22,0.88  z" class="primitive"/>
              </g>
              <g transform="translate(61.49,74.58)" id="img-34ae3d7e-118">
                <path d="M-0.22,-2.63 L0.22,-2.63 0.22,2.63 -0.22,2.63  z" class="primitive"/>
              </g>
              <g transform="translate(61.88,73.7)" id="img-34ae3d7e-119">
                <path d="M-0.22,-3.51 L0.22,-3.51 0.22,3.51 -0.22,3.51  z" class="primitive"/>
              </g>
              <g transform="translate(62.27,74.58)" id="img-34ae3d7e-120">
                <path d="M-0.22,-2.63 L0.22,-2.63 0.22,2.63 -0.22,2.63  z" class="primitive"/>
              </g>
              <g transform="translate(62.65,72.82)" id="img-34ae3d7e-121">
                <path d="M-0.22,-4.39 L0.22,-4.39 0.22,4.39 -0.22,4.39  z" class="primitive"/>
              </g>
              <g transform="translate(63.04,74.58)" id="img-34ae3d7e-122">
                <path d="M-0.22,-2.63 L0.22,-2.63 0.22,2.63 -0.22,2.63  z" class="primitive"/>
              </g>
              <g transform="translate(63.42,76.34)" id="img-34ae3d7e-123">
                <path d="M-0.22,-0.88 L0.22,-0.88 0.22,0.88 -0.22,0.88  z" class="primitive"/>
              </g>
              <g transform="translate(63.81,72.82)" id="img-34ae3d7e-124">
                <path d="M-0.22,-4.39 L0.22,-4.39 0.22,4.39 -0.22,4.39  z" class="primitive"/>
              </g>
              <g transform="translate(64.19,75.46)" id="img-34ae3d7e-125">
                <path d="M-0.22,-1.76 L0.22,-1.76 0.22,1.76 -0.22,1.76  z" class="primitive"/>
              </g>
              <g transform="translate(64.58,76.34)" id="img-34ae3d7e-126">
                <path d="M-0.22,-0.88 L0.22,-0.88 0.22,0.88 -0.22,0.88  z" class="primitive"/>
              </g>
              <g transform="translate(64.96,77.22)" id="img-34ae3d7e-127">
                <path d="M-0.22,-0 L0.22,-0 0.22,0 -0.22,0  z" class="primitive"/>
              </g>
              <g transform="translate(65.35,75.46)" id="img-34ae3d7e-128">
                <path d="M-0.22,-1.76 L0.22,-1.76 0.22,1.76 -0.22,1.76  z" class="primitive"/>
              </g>
              <g transform="translate(65.73,76.34)" id="img-34ae3d7e-129">
                <path d="M-0.22,-0.88 L0.22,-0.88 0.22,0.88 -0.22,0.88  z" class="primitive"/>
              </g>
              <g transform="translate(66.12,77.22)" id="img-34ae3d7e-130">
                <path d="M-0.22,-0 L0.22,-0 0.22,0 -0.22,0  z" class="primitive"/>
              </g>
              <g transform="translate(66.5,75.46)" id="img-34ae3d7e-131">
                <path d="M-0.22,-1.76 L0.22,-1.76 0.22,1.76 -0.22,1.76  z" class="primitive"/>
              </g>
            </g>
          </g>
        </g>
      </g>
    </g>
  </g>
  <g class="guide ylabels" font-size="2.82" font-family="'PT Sans Caption','Helvetica Neue','Helvetica',sans-serif" fill="#6C606B" id="img-34ae3d7e-132">
    <g transform="translate(16.96,77.21)" id="img-34ae3d7e-133">
      <g class="primitive">
        <text text-anchor="end" dy="0.35em">0</text>
      </g>
    </g>
    <g transform="translate(16.96,59.66)" id="img-34ae3d7e-134">
      <g class="primitive">
        <text text-anchor="end" dy="0.35em">10</text>
      </g>
    </g>
    <g transform="translate(16.96,42.11)" id="img-34ae3d7e-135">
      <g class="primitive">
        <text text-anchor="end" dy="0.35em">20</text>
      </g>
    </g>
    <g transform="translate(16.96,24.55)" id="img-34ae3d7e-136">
      <g class="primitive">
        <text text-anchor="end" dy="0.35em">30</text>
      </g>
    </g>
    <g transform="translate(16.96,7)" id="img-34ae3d7e-137">
      <g class="primitive">
        <text text-anchor="end" dy="0.35em">40</text>
      </g>
    </g>
  </g>
  <g font-size="3.88" font-family="'PT Sans','Helvetica Neue','Helvetica',sans-serif" fill="#564A55" stroke="#000000" stroke-opacity="0.000" id="img-34ae3d7e-138">
    <g transform="translate(8.81,40.11)" id="img-34ae3d7e-139">
      <g class="primitive">
        <text text-anchor="middle" dy="0.35em" transform="rotate(-90,0, 2)">frequency</text>
      </g>
    </g>
  </g>
</g>
<defs>
  <clipPath id="img-34ae3d7e-11">
    <path d="M17.96,5 L77.68,5 77.68,79.21 17.96,79.21 " />
  </clipPath>
</defs>
</svg>
