<?xml version="1.0" encoding="UTF-8"?>
<svg xmlns="http://www.w3.org/2000/svg"
     xmlns:xlink="http://www.w3.org/1999/xlink"
     xmlns:gadfly="http://www.gadflyjl.org/ns"
     version="1.2"
     width="141.42mm" height="100mm" viewBox="0 0 141.42 100"
     stroke="none"
     fill="#000000"
     stroke-width="0.3"
     font-size="3.88"
>
<defs>
  <marker id="arrow" markerWidth="15" markerHeight="7" refX="5" refY="3.5" orient="auto" markerUnits="strokeWidth">
    <path d="M0,0 L15,3.5 L0,7 z" stroke="context-stroke" fill="context-stroke"/>
  </marker>
</defs>
<g class="plotroot xscalable yscalable" id="img-59e41857-1">
  <g class="guide xlabels" font-size="2.82" font-family="'PT Sans Caption','Helvetica Neue','Helvetica',sans-serif" fill="#6C606B" id="img-59e41857-2">
    <g transform="translate(19.96,91.33)">
      <g class="primitive">
        <text text-anchor="middle" dy="0.6em">5.00×10⁵</text>
      </g>
    </g>
    <g transform="translate(45.83,91.33)">
      <g class="primitive">
        <text text-anchor="middle" dy="0.6em">5.50×10⁵</text>
      </g>
    </g>
    <g transform="translate(71.71,91.33)">
      <g class="primitive">
        <text text-anchor="middle" dy="0.6em">6.00×10⁵</text>
      </g>
    </g>
    <g transform="translate(97.58,91.33)">
      <g class="primitive">
        <text text-anchor="middle" dy="0.6em">6.50×10⁵</text>
      </g>
    </g>
  </g>
  <g class="guide colorkey" id="img-59e41857-3">
    <g class="color_coding_coding_coding_3-tri" id="img-59e41857-4">
      <g fill="#4C404B" font-size="2.82" font-family="'PT Sans','Helvetica Neue','Helvetica',sans-serif" id="img-59e41857-5">
        <g transform="translate(103.39,49.48)" id="img-59e41857-6">
          <g class="primitive">
            <text dy="0.35em">coding_coding_coding_3-tri</text>
          </g>
        </g>
      </g>
      <g fill-opacity="1" fill="#00BFFF" stroke="#FFFFFF" id="img-59e41857-7">
        <g transform="translate(101.49,49.48)" id="img-59e41857-8">
          <path d="M-0.91,-0.91 L0.91,-0.91 0.91,0.91 -0.91,0.91  z" class="primitive"/>
        </g>
      </g>
    </g>
    <g fill="#362A35" font-size="3.88" font-family="'PT Sans','Helvetica Neue','Helvetica',sans-serif" stroke="#000000" stroke-opacity="0.000" id="img-59e41857-9">
      <g transform="translate(100.58,45.66)" id="img-59e41857-10">
        <g class="primitive">
          <text dy="-0em">graphlet</text>
        </g>
      </g>
    </g>
  </g>
  <g clip-path="url(#img-59e41857-11)">
    <g id="img-59e41857-12">
      <g pointer-events="visible" stroke-width="0.3" fill="#000000" fill-opacity="0.000" stroke="#000000" stroke-opacity="0.000" class="guide background" id="img-59e41857-13">
        <g transform="translate(58.77,47.66)" id="img-59e41857-14">
          <path d="M-40.81,-42.66 L40.81,-42.66 40.81,42.66 -40.81,42.66  z" class="primitive"/>
        </g>
      </g>
      <g class="guide ygridlines xfixed" stroke-dasharray="0.5,0.5" stroke-width="0.2" stroke="#D0D0E0" id="img-59e41857-15">
        <g transform="translate(58.77,88.33)" id="img-59e41857-16">
          <path fill="none" d="M-40.81,0 L40.81,0 " class="primitive"/>
        </g>
        <g transform="translate(58.77,61.22)" id="img-59e41857-17">
          <path fill="none" d="M-40.81,0 L40.81,0 " class="primitive"/>
        </g>
        <g transform="translate(58.77,34.11)" id="img-59e41857-18">
          <path fill="none" d="M-40.81,0 L40.81,0 " class="primitive"/>
        </g>
        <g transform="translate(58.77,7)" id="img-59e41857-19">
          <path fill="none" d="M-40.81,0 L40.81,0 " class="primitive"/>
        </g>
      </g>
      <g class="guide xgridlines yfixed" stroke-dasharray="0.5,0.5" stroke-width="0.2" stroke="#D0D0E0" id="img-59e41857-20">
        <g transform="translate(19.96,47.66)" id="img-59e41857-21">
          <path fill="none" d="M0,-42.66 L0,42.66 " class="primitive"/>
        </g>
        <g transform="translate(45.83,47.66)" id="img-59e41857-22">
          <path fill="none" d="M0,-42.66 L0,42.66 " class="primitive"/>
        </g>
        <g transform="translate(71.71,47.66)" id="img-59e41857-23">
          <path fill="none" d="M0,-42.66 L0,42.66 " class="primitive"/>
        </g>
        <g transform="translate(97.58,47.66)" id="img-59e41857-24">
          <path fill="none" d="M0,-42.66 L0,42.66 " class="primitive"/>
        </g>
      </g>
      <g class="plotpanel" id="img-59e41857-25">
        <metadata>
          <boundingbox value="17.95833333333333mm 5.0mm 81.62302290397618mm 85.32666666666667mm"/>
          <unitbox value="496135.16726382694 30.737765390605787 157729.66547234618 -31.475530781211575"/>
        </metadata>
        <g shape-rendering="crispEdges" stroke-width="0.3" id="img-59e41857-26">
          <g stroke="#000000" stroke-opacity="0.000" class="geometry" id="img-59e41857-27">
            <g fill="#00BFFF" id="img-59e41857-28">
              <g transform="translate(23.78,86.97)" id="img-59e41857-29">
                <path d="M-0.39,-1.36 L0.39,-1.36 0.39,1.36 -0.39,1.36  z" class="primitive"/>
              </g>
              <g transform="translate(24.51,88.33)" id="img-59e41857-30">
                <path d="M-0.39,-0 L0.39,-0 0.39,0 -0.39,0  z" class="primitive"/>
              </g>
              <g transform="translate(25.24,86.97)" id="img-59e41857-31">
                <path d="M-0.39,-1.36 L0.39,-1.36 0.39,1.36 -0.39,1.36  z" class="primitive"/>
              </g>
              <g transform="translate(25.97,88.33)" id="img-59e41857-32">
                <path d="M-0.39,-0 L0.39,-0 0.39,0 -0.39,0  z" class="primitive"/>
              </g>
              <g transform="translate(26.71,88.33)" id="img-59e41857-33">
                <path d="M-0.39,-0 L0.39,-0 0.39,0 -0.39,0  z" class="primitive"/>
              </g>
              <g transform="translate(27.44,86.97)" id="img-59e41857-34">
                <path d="M-0.39,-1.36 L0.39,-1.36 0.39,1.36 -0.39,1.36  z" class="primitive"/>
              </g>
              <g transform="translate(28.17,88.33)" id="img-59e41857-35">
                <path d="M-0.39,-0 L0.39,-0 0.39,0 -0.39,0  z" class="primitive"/>
              </g>
              <g transform="translate(28.9,86.97)" id="img-59e41857-36">
                <path d="M-0.39,-1.36 L0.39,-1.36 0.39,1.36 -0.39,1.36  z" class="primitive"/>
              </g>
              <g transform="translate(29.63,88.33)" id="img-59e41857-37">
                <path d="M-0.39,-0 L0.39,-0 0.39,0 -0.39,0  z" class="primitive"/>
              </g>
              <g transform="translate(30.36,88.33)" id="img-59e41857-38">
                <path d="M-0.39,-0 L0.39,-0 0.39,0 -0.39,0  z" class="primitive"/>
              </g>
              <g transform="translate(31.09,85.62)" id="img-59e41857-39">
                <path d="M-0.39,-2.71 L0.39,-2.71 0.39,2.71 -0.39,2.71  z" class="primitive"/>
              </g>
              <g transform="translate(31.82,88.33)" id="img-59e41857-40">
                <path d="M-0.39,-0 L0.39,-0 0.39,0 -0.39,0  z" class="primitive"/>
              </g>
              <g transform="translate(32.56,86.97)" id="img-59e41857-41">
                <path d="M-0.39,-1.36 L0.39,-1.36 0.39,1.36 -0.39,1.36  z" class="primitive"/>
              </g>
              <g transform="translate(33.29,85.62)" id="img-59e41857-42">
                <path d="M-0.39,-2.71 L0.39,-2.71 0.39,2.71 -0.39,2.71  z" class="primitive"/>
              </g>
              <g transform="translate(34.02,85.62)" id="img-59e41857-43">
                <path d="M-0.39,-2.71 L0.39,-2.71 0.39,2.71 -0.39,2.71  z" class="primitive"/>
              </g>
              <g transform="translate(34.75,84.26)" id="img-59e41857-44">
                <path d="M-0.39,-4.07 L0.39,-4.07 0.39,4.07 -0.39,4.07  z" class="primitive"/>
              </g>
              <g transform="translate(35.48,80.19)" id="img-59e41857-45">
                <path d="M-0.39,-8.13 L0.39,-8.13 0.39,8.13 -0.39,8.13  z" class="primitive"/>
              </g>
              <g transform="translate(36.21,81.55)" id="img-59e41857-46">
                <path d="M-0.39,-6.78 L0.39,-6.78 0.39,6.78 -0.39,6.78  z" class="primitive"/>
              </g>
              <g transform="translate(36.94,82.9)" id="img-59e41857-47">
                <path d="M-0.39,-5.42 L0.39,-5.42 0.39,5.42 -0.39,5.42  z" class="primitive"/>
              </g>
              <g transform="translate(37.68,74.77)" id="img-59e41857-48">
                <path d="M-0.39,-13.55 L0.39,-13.55 0.39,13.55 -0.39,13.55  z" class="primitive"/>
              </g>
              <g transform="translate(38.41,82.9)" id="img-59e41857-49">
                <path d="M-0.39,-5.42 L0.39,-5.42 0.39,5.42 -0.39,5.42  z" class="primitive"/>
              </g>
              <g transform="translate(39.14,78.84)" id="img-59e41857-50">
                <path d="M-0.39,-9.49 L0.39,-9.49 0.39,9.49 -0.39,9.49  z" class="primitive"/>
              </g>
              <g transform="translate(39.87,72.06)" id="img-59e41857-51">
                <path d="M-0.39,-16.27 L0.39,-16.27 0.39,16.27 -0.39,16.27  z" class="primitive"/>
              </g>
              <g transform="translate(40.6,70.71)" id="img-59e41857-52">
                <path d="M-0.39,-17.62 L0.39,-17.62 0.39,17.62 -0.39,17.62  z" class="primitive"/>
              </g>
              <g transform="translate(41.33,76.13)" id="img-59e41857-53">
                <path d="M-0.39,-12.2 L0.39,-12.2 0.39,12.2 -0.39,12.2  z" class="primitive"/>
              </g>
              <g transform="translate(42.06,63.93)" id="img-59e41857-54">
                <path d="M-0.39,-24.4 L0.39,-24.4 0.39,24.4 -0.39,24.4  z" class="primitive"/>
              </g>
              <g transform="translate(42.8,70.71)" id="img-59e41857-55">
                <path d="M-0.39,-17.62 L0.39,-17.62 0.39,17.62 -0.39,17.62  z" class="primitive"/>
              </g>
              <g transform="translate(43.53,73.42)" id="img-59e41857-56">
                <path d="M-0.39,-14.91 L0.39,-14.91 0.39,14.91 -0.39,14.91  z" class="primitive"/>
              </g>
              <g transform="translate(44.26,76.13)" id="img-59e41857-57">
                <path d="M-0.39,-12.2 L0.39,-12.2 0.39,12.2 -0.39,12.2  z" class="primitive"/>
              </g>
              <g transform="translate(44.99,55.8)" id="img-59e41857-58">
                <path d="M-0.39,-32.53 L0.39,-32.53 0.39,32.53 -0.39,32.53  z" class="primitive"/>
              </g>
              <g transform="translate(45.72,50.37)" id="img-59e41857-59">
                <path d="M-0.39,-37.95 L0.39,-37.95 0.39,37.95 -0.39,37.95  z" class="primitive"/>
              </g>
              <g transform="translate(46.45,76.13)" id="img-59e41857-60">
                <path d="M-0.39,-12.2 L0.39,-12.2 0.39,12.2 -0.39,12.2  z" class="primitive"/>
              </g>
              <g transform="translate(47.18,66.64)" id="img-59e41857-61">
                <path d="M-0.39,-21.69 L0.39,-21.69 0.39,21.69 -0.39,21.69  z" class="primitive"/>
              </g>
              <g transform="translate(47.92,61.22)" id="img-59e41857-62">
                <path d="M-0.39,-27.11 L0.39,-27.11 0.39,27.11 -0.39,27.11  z" class="primitive"/>
              </g>
              <g transform="translate(48.65,50.37)" id="img-59e41857-63">
                <path d="M-0.39,-37.95 L0.39,-37.95 0.39,37.95 -0.39,37.95  z" class="primitive"/>
              </g>
              <g transform="translate(49.38,65.28)" id="img-59e41857-64">
                <path d="M-0.39,-23.04 L0.39,-23.04 0.39,23.04 -0.39,23.04  z" class="primitive"/>
              </g>
              <g transform="translate(50.11,63.93)" id="img-59e41857-65">
                <path d="M-0.39,-24.4 L0.39,-24.4 0.39,24.4 -0.39,24.4  z" class="primitive"/>
              </g>
              <g transform="translate(50.84,61.22)" id="img-59e41857-66">
                <path d="M-0.39,-27.11 L0.39,-27.11 0.39,27.11 -0.39,27.11  z" class="primitive"/>
              </g>
              <g transform="translate(51.57,58.51)" id="img-59e41857-67">
                <path d="M-0.39,-29.82 L0.39,-29.82 0.39,29.82 -0.39,29.82  z" class="primitive"/>
              </g>
              <g transform="translate(52.3,61.22)" id="img-59e41857-68">
                <path d="M-0.39,-27.11 L0.39,-27.11 0.39,27.11 -0.39,27.11  z" class="primitive"/>
              </g>
              <g transform="translate(53.04,53.09)" id="img-59e41857-69">
                <path d="M-0.39,-35.24 L0.39,-35.24 0.39,35.24 -0.39,35.24  z" class="primitive"/>
              </g>
              <g transform="translate(53.77,51.73)" id="img-59e41857-70">
                <path d="M-0.39,-36.6 L0.39,-36.6 0.39,36.6 -0.39,36.6  z" class="primitive"/>
              </g>
              <g transform="translate(54.5,54.44)" id="img-59e41857-71">
                <path d="M-0.39,-33.89 L0.39,-33.89 0.39,33.89 -0.39,33.89  z" class="primitive"/>
              </g>
              <g transform="translate(55.23,53.09)" id="img-59e41857-72">
                <path d="M-0.39,-35.24 L0.39,-35.24 0.39,35.24 -0.39,35.24  z" class="primitive"/>
              </g>
              <g transform="translate(55.96,58.51)" id="img-59e41857-73">
                <path d="M-0.39,-29.82 L0.39,-29.82 0.39,29.82 -0.39,29.82  z" class="primitive"/>
              </g>
              <g transform="translate(56.69,66.64)" id="img-59e41857-74">
                <path d="M-0.39,-21.69 L0.39,-21.69 0.39,21.69 -0.39,21.69  z" class="primitive"/>
              </g>
              <g transform="translate(57.42,47.66)" id="img-59e41857-75">
                <path d="M-0.39,-40.66 L0.39,-40.66 0.39,40.66 -0.39,40.66  z" class="primitive"/>
              </g>
              <g transform="translate(58.16,55.8)" id="img-59e41857-76">
                <path d="M-0.39,-32.53 L0.39,-32.53 0.39,32.53 -0.39,32.53  z" class="primitive"/>
              </g>
              <g transform="translate(58.89,59.86)" id="img-59e41857-77">
                <path d="M-0.39,-28.46 L0.39,-28.46 0.39,28.46 -0.39,28.46  z" class="primitive"/>
              </g>
              <g transform="translate(59.62,51.73)" id="img-59e41857-78">
                <path d="M-0.39,-36.6 L0.39,-36.6 0.39,36.6 -0.39,36.6  z" class="primitive"/>
              </g>
              <g transform="translate(60.35,51.73)" id="img-59e41857-79">
                <path d="M-0.39,-36.6 L0.39,-36.6 0.39,36.6 -0.39,36.6  z" class="primitive"/>
              </g>
              <g transform="translate(61.08,62.57)" id="img-59e41857-80">
                <path d="M-0.39,-25.75 L0.39,-25.75 0.39,25.75 -0.39,25.75  z" class="primitive"/>
              </g>
              <g transform="translate(61.81,51.73)" id="img-59e41857-81">
                <path d="M-0.39,-36.6 L0.39,-36.6 0.39,36.6 -0.39,36.6  z" class="primitive"/>
              </g>
              <g transform="translate(62.54,62.57)" id="img-59e41857-82">
                <path d="M-0.39,-25.75 L0.39,-25.75 0.39,25.75 -0.39,25.75  z" class="primitive"/>
              </g>
              <g transform="translate(63.28,65.28)" id="img-59e41857-83">
                <path d="M-0.39,-23.04 L0.39,-23.04 0.39,23.04 -0.39,23.04  z" class="primitive"/>
              </g>
              <g transform="translate(64.01,55.8)" id="img-59e41857-84">
                <path d="M-0.39,-32.53 L0.39,-32.53 0.39,32.53 -0.39,32.53  z" class="primitive"/>
              </g>
              <g transform="translate(64.74,66.64)" id="img-59e41857-85">
                <path d="M-0.39,-21.69 L0.39,-21.69 0.39,21.69 -0.39,21.69  z" class="primitive"/>
              </g>
              <g transform="translate(65.47,69.35)" id="img-59e41857-86">
                <path d="M-0.39,-18.98 L0.39,-18.98 0.39,18.98 -0.39,18.98  z" class="primitive"/>
              </g>
              <g transform="translate(66.2,66.64)" id="img-59e41857-87">
                <path d="M-0.39,-21.69 L0.39,-21.69 0.39,21.69 -0.39,21.69  z" class="primitive"/>
              </g>
              <g transform="translate(66.93,58.51)" id="img-59e41857-88">
                <path d="M-0.39,-29.82 L0.39,-29.82 0.39,29.82 -0.39,29.82  z" class="primitive"/>
              </g>
              <g transform="translate(67.66,76.13)" id="img-59e41857-89">
                <path d="M-0.39,-12.2 L0.39,-12.2 0.39,12.2 -0.39,12.2  z" class="primitive"/>
              </g>
              <g transform="translate(68.4,69.35)" id="img-59e41857-90">
                <path d="M-0.39,-18.98 L0.39,-18.98 0.39,18.98 -0.39,18.98  z" class="primitive"/>
              </g>
              <g transform="translate(69.13,68)" id="img-59e41857-91">
                <path d="M-0.39,-20.33 L0.39,-20.33 0.39,20.33 -0.39,20.33  z" class="primitive"/>
              </g>
              <g transform="translate(69.86,70.71)" id="img-59e41857-92">
                <path d="M-0.39,-17.62 L0.39,-17.62 0.39,17.62 -0.39,17.62  z" class="primitive"/>
              </g>
              <g transform="translate(70.59,72.06)" id="img-59e41857-93">
                <path d="M-0.39,-16.27 L0.39,-16.27 0.39,16.27 -0.39,16.27  z" class="primitive"/>
              </g>
              <g transform="translate(71.32,74.77)" id="img-59e41857-94">
                <path d="M-0.39,-13.55 L0.39,-13.55 0.39,13.55 -0.39,13.55  z" class="primitive"/>
              </g>
              <g transform="translate(72.05,73.42)" id="img-59e41857-95">
                <path d="M-0.39,-14.91 L0.39,-14.91 0.39,14.91 -0.39,14.91  z" class="primitive"/>
              </g>
              <g transform="translate(72.78,77.48)" id="img-59e41857-96">
                <path d="M-0.39,-10.84 L0.39,-10.84 0.39,10.84 -0.39,10.84  z" class="primitive"/>
              </g>
              <g transform="translate(73.52,80.19)" id="img-59e41857-97">
                <path d="M-0.39,-8.13 L0.39,-8.13 0.39,8.13 -0.39,8.13  z" class="primitive"/>
              </g>
              <g transform="translate(74.25,70.71)" id="img-59e41857-98">
                <path d="M-0.39,-17.62 L0.39,-17.62 0.39,17.62 -0.39,17.62  z" class="primitive"/>
              </g>
              <g transform="translate(74.98,76.13)" id="img-59e41857-99">
                <path d="M-0.39,-12.2 L0.39,-12.2 0.39,12.2 -0.39,12.2  z" class="primitive"/>
              </g>
              <g transform="translate(75.71,76.13)" id="img-59e41857-100">
                <path d="M-0.39,-12.2 L0.39,-12.2 0.39,12.2 -0.39,12.2  z" class="primitive"/>
              </g>
              <g transform="translate(76.44,78.84)" id="img-59e41857-101">
                <path d="M-0.39,-9.49 L0.39,-9.49 0.39,9.49 -0.39,9.49  z" class="primitive"/>
              </g>
              <g transform="translate(77.17,77.48)" id="img-59e41857-102">
                <path d="M-0.39,-10.84 L0.39,-10.84 0.39,10.84 -0.39,10.84  z" class="primitive"/>
              </g>
              <g transform="translate(77.9,78.84)" id="img-59e41857-103">
                <path d="M-0.39,-9.49 L0.39,-9.49 0.39,9.49 -0.39,9.49  z" class="primitive"/>
              </g>
              <g transform="translate(78.64,77.48)" id="img-59e41857-104">
                <path d="M-0.39,-10.84 L0.39,-10.84 0.39,10.84 -0.39,10.84  z" class="primitive"/>
              </g>
              <g transform="translate(79.37,84.26)" id="img-59e41857-105">
                <path d="M-0.39,-4.07 L0.39,-4.07 0.39,4.07 -0.39,4.07  z" class="primitive"/>
              </g>
              <g transform="translate(80.1,82.9)" id="img-59e41857-106">
                <path d="M-0.39,-5.42 L0.39,-5.42 0.39,5.42 -0.39,5.42  z" class="primitive"/>
              </g>
              <g transform="translate(80.83,84.26)" id="img-59e41857-107">
                <path d="M-0.39,-4.07 L0.39,-4.07 0.39,4.07 -0.39,4.07  z" class="primitive"/>
              </g>
              <g transform="translate(81.56,84.26)" id="img-59e41857-108">
                <path d="M-0.39,-4.07 L0.39,-4.07 0.39,4.07 -0.39,4.07  z" class="primitive"/>
              </g>
              <g transform="translate(82.29,82.9)" id="img-59e41857-109">
                <path d="M-0.39,-5.42 L0.39,-5.42 0.39,5.42 -0.39,5.42  z" class="primitive"/>
              </g>
              <g transform="translate(83.02,86.97)" id="img-59e41857-110">
                <path d="M-0.39,-1.36 L0.39,-1.36 0.39,1.36 -0.39,1.36  z" class="primitive"/>
              </g>
              <g transform="translate(83.76,88.33)" id="img-59e41857-111">
                <path d="M-0.39,-0 L0.39,-0 0.39,0 -0.39,0  z" class="primitive"/>
              </g>
              <g transform="translate(84.49,84.26)" id="img-59e41857-112">
                <path d="M-0.39,-4.07 L0.39,-4.07 0.39,4.07 -0.39,4.07  z" class="primitive"/>
              </g>
              <g transform="translate(85.22,84.26)" id="img-59e41857-113">
                <path d="M-0.39,-4.07 L0.39,-4.07 0.39,4.07 -0.39,4.07  z" class="primitive"/>
              </g>
              <g transform="translate(85.95,88.33)" id="img-59e41857-114">
                <path d="M-0.39,-0 L0.39,-0 0.39,0 -0.39,0  z" class="primitive"/>
              </g>
              <g transform="translate(86.68,88.33)" id="img-59e41857-115">
                <path d="M-0.39,-0 L0.39,-0 0.39,0 -0.39,0  z" class="primitive"/>
              </g>
              <g transform="translate(87.41,84.26)" id="img-59e41857-116">
                <path d="M-0.39,-4.07 L0.39,-4.07 0.39,4.07 -0.39,4.07  z" class="primitive"/>
              </g>
              <g transform="translate(88.14,86.97)" id="img-59e41857-117">
                <path d="M-0.39,-1.36 L0.39,-1.36 0.39,1.36 -0.39,1.36  z" class="primitive"/>
              </g>
              <g transform="translate(88.88,84.26)" id="img-59e41857-118">
                <path d="M-0.39,-4.07 L0.39,-4.07 0.39,4.07 -0.39,4.07  z" class="primitive"/>
              </g>
              <g transform="translate(89.61,88.33)" id="img-59e41857-119">
                <path d="M-0.39,-0 L0.39,-0 0.39,0 -0.39,0  z" class="primitive"/>
              </g>
              <g transform="translate(90.34,86.97)" id="img-59e41857-120">
                <path d="M-0.39,-1.36 L0.39,-1.36 0.39,1.36 -0.39,1.36  z" class="primitive"/>
              </g>
              <g transform="translate(91.07,86.97)" id="img-59e41857-121">
                <path d="M-0.39,-1.36 L0.39,-1.36 0.39,1.36 -0.39,1.36  z" class="primitive"/>
              </g>
              <g transform="translate(91.8,86.97)" id="img-59e41857-122">
                <path d="M-0.39,-1.36 L0.39,-1.36 0.39,1.36 -0.39,1.36  z" class="primitive"/>
              </g>
              <g transform="translate(92.53,85.62)" id="img-59e41857-123">
                <path d="M-0.39,-2.71 L0.39,-2.71 0.39,2.71 -0.39,2.71  z" class="primitive"/>
              </g>
              <g transform="translate(93.26,88.33)" id="img-59e41857-124">
                <path d="M-0.39,-0 L0.39,-0 0.39,0 -0.39,0  z" class="primitive"/>
              </g>
              <g transform="translate(94,88.33)" id="img-59e41857-125">
                <path d="M-0.39,-0 L0.39,-0 0.39,0 -0.39,0  z" class="primitive"/>
              </g>
              <g transform="translate(94.73,86.97)" id="img-59e41857-126">
                <path d="M-0.39,-1.36 L0.39,-1.36 0.39,1.36 -0.39,1.36  z" class="primitive"/>
              </g>
              <g transform="translate(95.46,88.33)" id="img-59e41857-127">
                <path d="M-0.39,-0 L0.39,-0 0.39,0 -0.39,0  z" class="primitive"/>
              </g>
              <g transform="translate(96.19,85.62)" id="img-59e41857-128">
                <path d="M-0.39,-2.71 L0.39,-2.71 0.39,2.71 -0.39,2.71  z" class="primitive"/>
              </g>
            </g>
          </g>
        </g>
      </g>
    </g>
  </g>
  <g class="guide ylabels" font-size="2.82" font-family="'PT Sans Caption','Helvetica Neue','Helvetica',sans-serif" fill="#6C606B" id="img-59e41857-129">
    <g transform="translate(16.96,88.33)" id="img-59e41857-130">
      <g class="primitive">
        <text text-anchor="end" dy="0.35em">0</text>
      </g>
    </g>
    <g transform="translate(16.96,61.22)" id="img-59e41857-131">
      <g class="primitive">
        <text text-anchor="end" dy="0.35em">10</text>
      </g>
    </g>
    <g transform="translate(16.96,34.11)" id="img-59e41857-132">
      <g class="primitive">
        <text text-anchor="end" dy="0.35em">20</text>
      </g>
    </g>
    <g transform="translate(16.96,7)" id="img-59e41857-133">
      <g class="primitive">
        <text text-anchor="end" dy="0.35em">30</text>
      </g>
    </g>
  </g>
  <g font-size="3.88" font-family="'PT Sans','Helvetica Neue','Helvetica',sans-serif" fill="#564A55" stroke="#000000" stroke-opacity="0.000" id="img-59e41857-134">
    <g transform="translate(8.81,45.66)" id="img-59e41857-135">
      <g class="primitive">
        <text text-anchor="middle" dy="0.35em" transform="rotate(-90,0, 2)">frequency</text>
      </g>
    </g>
  </g>
</g>
<defs>
  <clipPath id="img-59e41857-11">
    <path d="M17.96,5 L99.58,5 99.58,90.33 17.96,90.33 " />
  </clipPath>
</defs>
</svg>
