<?xml version="1.0" encoding="UTF-8"?>
<svg xmlns="http://www.w3.org/2000/svg"
     xmlns:xlink="http://www.w3.org/1999/xlink"
     xmlns:gadfly="http://www.gadflyjl.org/ns"
     version="1.2"
     width="141.42mm" height="100mm" viewBox="0 0 141.42 100"
     stroke="none"
     fill="#000000"
     stroke-width="0.3"
     font-size="3.88"
>
<defs>
  <marker id="arrow" markerWidth="15" markerHeight="7" refX="5" refY="3.5" orient="auto" markerUnits="strokeWidth">
    <path d="M0,0 L15,3.5 L0,7 z" stroke="context-stroke" fill="context-stroke"/>
  </marker>
</defs>
<g class="plotroot xscalable yscalable" id="img-9cb47fe5-1">
  <g class="guide xlabels" font-size="2.82" font-family="'PT Sans Caption','Helvetica Neue','Helvetica',sans-serif" fill="#6C606B" id="img-9cb47fe5-2">
    <g transform="translate(19.96,91.33)">
      <g class="primitive">
        <text text-anchor="middle" dy="0.6em">6.00×10⁵</text>
      </g>
    </g>
    <g transform="translate(43.38,91.33)">
      <g class="primitive">
        <text text-anchor="middle" dy="0.6em">6.50×10⁵</text>
      </g>
    </g>
    <g transform="translate(66.81,91.33)">
      <g class="primitive">
        <text text-anchor="middle" dy="0.6em">7.00×10⁵</text>
      </g>
    </g>
    <g transform="translate(90.23,91.33)">
      <g class="primitive">
        <text text-anchor="middle" dy="0.6em">7.50×10⁵</text>
      </g>
    </g>
  </g>
  <g class="guide colorkey" id="img-9cb47fe5-3">
    <g class="color_coding_noncoding_coding_3-path" id="img-9cb47fe5-4">
      <g fill="#4C404B" font-size="2.82" font-family="'PT Sans','Helvetica Neue','Helvetica',sans-serif" id="img-9cb47fe5-5">
        <g transform="translate(96.05,49.48)" id="img-9cb47fe5-6">
          <g class="primitive">
            <text dy="0.35em">coding_noncoding_coding_3-path</text>
          </g>
        </g>
      </g>
      <g fill-opacity="1" fill="#00BFFF" stroke="#FFFFFF" id="img-9cb47fe5-7">
        <g transform="translate(94.14,49.48)" id="img-9cb47fe5-8">
          <path d="M-0.91,-0.91 L0.91,-0.91 0.91,0.91 -0.91,0.91  z" class="primitive"/>
        </g>
      </g>
    </g>
    <g fill="#362A35" font-size="3.88" font-family="'PT Sans','Helvetica Neue','Helvetica',sans-serif" stroke="#000000" stroke-opacity="0.000" id="img-9cb47fe5-9">
      <g transform="translate(93.23,45.66)" id="img-9cb47fe5-10">
        <g class="primitive">
          <text dy="-0em">graphlet</text>
        </g>
      </g>
    </g>
  </g>
  <g clip-path="url(#img-9cb47fe5-11)">
    <g id="img-9cb47fe5-12">
      <g pointer-events="visible" stroke-width="0.3" fill="#000000" fill-opacity="0.000" stroke="#000000" stroke-opacity="0.000" class="guide background" id="img-9cb47fe5-13">
        <g transform="translate(55.1,47.66)" id="img-9cb47fe5-14">
          <path d="M-37.14,-42.66 L37.14,-42.66 37.14,42.66 -37.14,42.66  z" class="primitive"/>
        </g>
      </g>
      <g class="guide ygridlines xfixed" stroke-dasharray="0.5,0.5" stroke-width="0.2" stroke="#D0D0E0" id="img-9cb47fe5-15">
        <g transform="translate(55.1,88.33)" id="img-9cb47fe5-16">
          <path fill="none" d="M-37.14,0 L37.14,0 " class="primitive"/>
        </g>
        <g transform="translate(55.1,61.22)" id="img-9cb47fe5-17">
          <path fill="none" d="M-37.14,0 L37.14,0 " class="primitive"/>
        </g>
        <g transform="translate(55.1,34.11)" id="img-9cb47fe5-18">
          <path fill="none" d="M-37.14,0 L37.14,0 " class="primitive"/>
        </g>
        <g transform="translate(55.1,7)" id="img-9cb47fe5-19">
          <path fill="none" d="M-37.14,0 L37.14,0 " class="primitive"/>
        </g>
      </g>
      <g class="guide xgridlines yfixed" stroke-dasharray="0.5,0.5" stroke-width="0.2" stroke="#D0D0E0" id="img-9cb47fe5-20">
        <g transform="translate(19.96,47.66)" id="img-9cb47fe5-21">
          <path fill="none" d="M0,-42.66 L0,42.66 " class="primitive"/>
        </g>
        <g transform="translate(43.38,47.66)" id="img-9cb47fe5-22">
          <path fill="none" d="M0,-42.66 L0,42.66 " class="primitive"/>
        </g>
        <g transform="translate(66.81,47.66)" id="img-9cb47fe5-23">
          <path fill="none" d="M0,-42.66 L0,42.66 " class="primitive"/>
        </g>
        <g transform="translate(90.23,47.66)" id="img-9cb47fe5-24">
          <path fill="none" d="M0,-42.66 L0,42.66 " class="primitive"/>
        </g>
      </g>
      <g class="plotpanel" id="img-9cb47fe5-25">
        <metadata>
          <boundingbox value="17.95833333333333mm 5.0mm 74.27635623730951mm 85.32666666666667mm"/>
          <unitbox value="595731.1389482551 30.737765390605787 158537.72210348977 -31.475530781211575"/>
        </metadata>
        <g shape-rendering="crispEdges" stroke-width="0.3" id="img-9cb47fe5-26">
          <g stroke="#000000" stroke-opacity="0.000" class="geometry" id="img-9cb47fe5-27">
            <g fill="#00BFFF" id="img-9cb47fe5-28">
              <g transform="translate(28.38,86.97)" id="img-9cb47fe5-29">
                <path d="M-0.26,-1.36 L0.26,-1.36 0.26,1.36 -0.26,1.36  z" class="primitive"/>
              </g>
              <g transform="translate(28.85,84.26)" id="img-9cb47fe5-30">
                <path d="M-0.26,-4.07 L0.26,-4.07 0.26,4.07 -0.26,4.07  z" class="primitive"/>
              </g>
              <g transform="translate(29.31,88.33)" id="img-9cb47fe5-31">
                <path d="M-0.26,-0 L0.26,-0 0.26,0 -0.26,0  z" class="primitive"/>
              </g>
              <g transform="translate(29.78,88.33)" id="img-9cb47fe5-32">
                <path d="M-0.26,-0 L0.26,-0 0.26,0 -0.26,0  z" class="primitive"/>
              </g>
              <g transform="translate(30.24,88.33)" id="img-9cb47fe5-33">
                <path d="M-0.26,-0 L0.26,-0 0.26,0 -0.26,0  z" class="primitive"/>
              </g>
              <g transform="translate(30.71,88.33)" id="img-9cb47fe5-34">
                <path d="M-0.26,-0 L0.26,-0 0.26,0 -0.26,0  z" class="primitive"/>
              </g>
              <g transform="translate(31.17,88.33)" id="img-9cb47fe5-35">
                <path d="M-0.26,-0 L0.26,-0 0.26,0 -0.26,0  z" class="primitive"/>
              </g>
              <g transform="translate(31.63,86.97)" id="img-9cb47fe5-36">
                <path d="M-0.26,-1.36 L0.26,-1.36 0.26,1.36 -0.26,1.36  z" class="primitive"/>
              </g>
              <g transform="translate(32.1,86.97)" id="img-9cb47fe5-37">
                <path d="M-0.26,-1.36 L0.26,-1.36 0.26,1.36 -0.26,1.36  z" class="primitive"/>
              </g>
              <g transform="translate(32.56,86.97)" id="img-9cb47fe5-38">
                <path d="M-0.26,-1.36 L0.26,-1.36 0.26,1.36 -0.26,1.36  z" class="primitive"/>
              </g>
              <g transform="translate(33.03,78.84)" id="img-9cb47fe5-39">
                <path d="M-0.26,-9.49 L0.26,-9.49 0.26,9.49 -0.26,9.49  z" class="primitive"/>
              </g>
              <g transform="translate(33.49,82.9)" id="img-9cb47fe5-40">
                <path d="M-0.26,-5.42 L0.26,-5.42 0.26,5.42 -0.26,5.42  z" class="primitive"/>
              </g>
              <g transform="translate(33.95,84.26)" id="img-9cb47fe5-41">
                <path d="M-0.26,-4.07 L0.26,-4.07 0.26,4.07 -0.26,4.07  z" class="primitive"/>
              </g>
              <g transform="translate(34.42,80.19)" id="img-9cb47fe5-42">
                <path d="M-0.26,-8.13 L0.26,-8.13 0.26,8.13 -0.26,8.13  z" class="primitive"/>
              </g>
              <g transform="translate(34.88,85.62)" id="img-9cb47fe5-43">
                <path d="M-0.26,-2.71 L0.26,-2.71 0.26,2.71 -0.26,2.71  z" class="primitive"/>
              </g>
              <g transform="translate(35.35,82.9)" id="img-9cb47fe5-44">
                <path d="M-0.26,-5.42 L0.26,-5.42 0.26,5.42 -0.26,5.42  z" class="primitive"/>
              </g>
              <g transform="translate(35.81,82.9)" id="img-9cb47fe5-45">
                <path d="M-0.26,-5.42 L0.26,-5.42 0.26,5.42 -0.26,5.42  z" class="primitive"/>
              </g>
              <g transform="translate(36.27,84.26)" id="img-9cb47fe5-46">
                <path d="M-0.26,-4.07 L0.26,-4.07 0.26,4.07 -0.26,4.07  z" class="primitive"/>
              </g>
              <g transform="translate(36.74,82.9)" id="img-9cb47fe5-47">
                <path d="M-0.26,-5.42 L0.26,-5.42 0.26,5.42 -0.26,5.42  z" class="primitive"/>
              </g>
              <g transform="translate(37.2,77.48)" id="img-9cb47fe5-48">
                <path d="M-0.26,-10.84 L0.26,-10.84 0.26,10.84 -0.26,10.84  z" class="primitive"/>
              </g>
              <g transform="translate(37.67,78.84)" id="img-9cb47fe5-49">
                <path d="M-0.26,-9.49 L0.26,-9.49 0.26,9.49 -0.26,9.49  z" class="primitive"/>
              </g>
              <g transform="translate(38.13,80.19)" id="img-9cb47fe5-50">
                <path d="M-0.26,-8.13 L0.26,-8.13 0.26,8.13 -0.26,8.13  z" class="primitive"/>
              </g>
              <g transform="translate(38.59,68)" id="img-9cb47fe5-51">
                <path d="M-0.26,-20.33 L0.26,-20.33 0.26,20.33 -0.26,20.33  z" class="primitive"/>
              </g>
              <g transform="translate(39.06,73.42)" id="img-9cb47fe5-52">
                <path d="M-0.26,-14.91 L0.26,-14.91 0.26,14.91 -0.26,14.91  z" class="primitive"/>
              </g>
              <g transform="translate(39.52,78.84)" id="img-9cb47fe5-53">
                <path d="M-0.26,-9.49 L0.26,-9.49 0.26,9.49 -0.26,9.49  z" class="primitive"/>
              </g>
              <g transform="translate(39.99,70.71)" id="img-9cb47fe5-54">
                <path d="M-0.26,-17.62 L0.26,-17.62 0.26,17.62 -0.26,17.62  z" class="primitive"/>
              </g>
              <g transform="translate(40.45,78.84)" id="img-9cb47fe5-55">
                <path d="M-0.26,-9.49 L0.26,-9.49 0.26,9.49 -0.26,9.49  z" class="primitive"/>
              </g>
              <g transform="translate(40.92,66.64)" id="img-9cb47fe5-56">
                <path d="M-0.26,-21.69 L0.26,-21.69 0.26,21.69 -0.26,21.69  z" class="primitive"/>
              </g>
              <g transform="translate(41.38,70.71)" id="img-9cb47fe5-57">
                <path d="M-0.26,-17.62 L0.26,-17.62 0.26,17.62 -0.26,17.62  z" class="primitive"/>
              </g>
              <g transform="translate(41.84,66.64)" id="img-9cb47fe5-58">
                <path d="M-0.26,-21.69 L0.26,-21.69 0.26,21.69 -0.26,21.69  z" class="primitive"/>
              </g>
              <g transform="translate(42.31,69.35)" id="img-9cb47fe5-59">
                <path d="M-0.26,-18.98 L0.26,-18.98 0.26,18.98 -0.26,18.98  z" class="primitive"/>
              </g>
              <g transform="translate(42.77,69.35)" id="img-9cb47fe5-60">
                <path d="M-0.26,-18.98 L0.26,-18.98 0.26,18.98 -0.26,18.98  z" class="primitive"/>
              </g>
              <g transform="translate(43.24,69.35)" id="img-9cb47fe5-61">
                <path d="M-0.26,-18.98 L0.26,-18.98 0.26,18.98 -0.26,18.98  z" class="primitive"/>
              </g>
              <g transform="translate(43.7,63.93)" id="img-9cb47fe5-62">
                <path d="M-0.26,-24.4 L0.26,-24.4 0.26,24.4 -0.26,24.4  z" class="primitive"/>
              </g>
              <g transform="translate(44.16,53.09)" id="img-9cb47fe5-63">
                <path d="M-0.26,-35.24 L0.26,-35.24 0.26,35.24 -0.26,35.24  z" class="primitive"/>
              </g>
              <g transform="translate(44.63,49.02)" id="img-9cb47fe5-64">
                <path d="M-0.26,-39.31 L0.26,-39.31 0.26,39.31 -0.26,39.31  z" class="primitive"/>
              </g>
              <g transform="translate(45.09,55.8)" id="img-9cb47fe5-65">
                <path d="M-0.26,-32.53 L0.26,-32.53 0.26,32.53 -0.26,32.53  z" class="primitive"/>
              </g>
              <g transform="translate(45.56,68)" id="img-9cb47fe5-66">
                <path d="M-0.26,-20.33 L0.26,-20.33 0.26,20.33 -0.26,20.33  z" class="primitive"/>
              </g>
              <g transform="translate(46.02,74.77)" id="img-9cb47fe5-67">
                <path d="M-0.26,-13.55 L0.26,-13.55 0.26,13.55 -0.26,13.55  z" class="primitive"/>
              </g>
              <g transform="translate(46.48,63.93)" id="img-9cb47fe5-68">
                <path d="M-0.26,-24.4 L0.26,-24.4 0.26,24.4 -0.26,24.4  z" class="primitive"/>
              </g>
              <g transform="translate(46.95,61.22)" id="img-9cb47fe5-69">
                <path d="M-0.26,-27.11 L0.26,-27.11 0.26,27.11 -0.26,27.11  z" class="primitive"/>
              </g>
              <g transform="translate(47.41,58.51)" id="img-9cb47fe5-70">
                <path d="M-0.26,-29.82 L0.26,-29.82 0.26,29.82 -0.26,29.82  z" class="primitive"/>
              </g>
              <g transform="translate(47.88,53.09)" id="img-9cb47fe5-71">
                <path d="M-0.26,-35.24 L0.26,-35.24 0.26,35.24 -0.26,35.24  z" class="primitive"/>
              </g>
              <g transform="translate(48.34,62.57)" id="img-9cb47fe5-72">
                <path d="M-0.26,-25.75 L0.26,-25.75 0.26,25.75 -0.26,25.75  z" class="primitive"/>
              </g>
              <g transform="translate(48.81,57.15)" id="img-9cb47fe5-73">
                <path d="M-0.26,-31.18 L0.26,-31.18 0.26,31.18 -0.26,31.18  z" class="primitive"/>
              </g>
              <g transform="translate(49.27,62.57)" id="img-9cb47fe5-74">
                <path d="M-0.26,-25.75 L0.26,-25.75 0.26,25.75 -0.26,25.75  z" class="primitive"/>
              </g>
              <g transform="translate(49.73,66.64)" id="img-9cb47fe5-75">
                <path d="M-0.26,-21.69 L0.26,-21.69 0.26,21.69 -0.26,21.69  z" class="primitive"/>
              </g>
              <g transform="translate(50.2,61.22)" id="img-9cb47fe5-76">
                <path d="M-0.26,-27.11 L0.26,-27.11 0.26,27.11 -0.26,27.11  z" class="primitive"/>
              </g>
              <g transform="translate(50.66,53.09)" id="img-9cb47fe5-77">
                <path d="M-0.26,-35.24 L0.26,-35.24 0.26,35.24 -0.26,35.24  z" class="primitive"/>
              </g>
              <g transform="translate(51.13,62.57)" id="img-9cb47fe5-78">
                <path d="M-0.26,-25.75 L0.26,-25.75 0.26,25.75 -0.26,25.75  z" class="primitive"/>
              </g>
              <g transform="translate(51.59,54.44)" id="img-9cb47fe5-79">
                <path d="M-0.26,-33.89 L0.26,-33.89 0.26,33.89 -0.26,33.89  z" class="primitive"/>
              </g>
              <g transform="translate(52.05,62.57)" id="img-9cb47fe5-80">
                <path d="M-0.26,-25.75 L0.26,-25.75 0.26,25.75 -0.26,25.75  z" class="primitive"/>
              </g>
              <g transform="translate(52.52,61.22)" id="img-9cb47fe5-81">
                <path d="M-0.26,-27.11 L0.26,-27.11 0.26,27.11 -0.26,27.11  z" class="primitive"/>
              </g>
              <g transform="translate(52.98,57.15)" id="img-9cb47fe5-82">
                <path d="M-0.26,-31.18 L0.26,-31.18 0.26,31.18 -0.26,31.18  z" class="primitive"/>
              </g>
              <g transform="translate(53.45,54.44)" id="img-9cb47fe5-83">
                <path d="M-0.26,-33.89 L0.26,-33.89 0.26,33.89 -0.26,33.89  z" class="primitive"/>
              </g>
              <g transform="translate(53.91,62.57)" id="img-9cb47fe5-84">
                <path d="M-0.26,-25.75 L0.26,-25.75 0.26,25.75 -0.26,25.75  z" class="primitive"/>
              </g>
              <g transform="translate(54.37,65.28)" id="img-9cb47fe5-85">
                <path d="M-0.26,-23.04 L0.26,-23.04 0.26,23.04 -0.26,23.04  z" class="primitive"/>
              </g>
              <g transform="translate(54.84,65.28)" id="img-9cb47fe5-86">
                <path d="M-0.26,-23.04 L0.26,-23.04 0.26,23.04 -0.26,23.04  z" class="primitive"/>
              </g>
              <g transform="translate(55.3,65.28)" id="img-9cb47fe5-87">
                <path d="M-0.26,-23.04 L0.26,-23.04 0.26,23.04 -0.26,23.04  z" class="primitive"/>
              </g>
              <g transform="translate(55.77,66.64)" id="img-9cb47fe5-88">
                <path d="M-0.26,-21.69 L0.26,-21.69 0.26,21.69 -0.26,21.69  z" class="primitive"/>
              </g>
              <g transform="translate(56.23,69.35)" id="img-9cb47fe5-89">
                <path d="M-0.26,-18.98 L0.26,-18.98 0.26,18.98 -0.26,18.98  z" class="primitive"/>
              </g>
              <g transform="translate(56.69,68)" id="img-9cb47fe5-90">
                <path d="M-0.26,-20.33 L0.26,-20.33 0.26,20.33 -0.26,20.33  z" class="primitive"/>
              </g>
              <g transform="translate(57.16,62.57)" id="img-9cb47fe5-91">
                <path d="M-0.26,-25.75 L0.26,-25.75 0.26,25.75 -0.26,25.75  z" class="primitive"/>
              </g>
              <g transform="translate(57.62,66.64)" id="img-9cb47fe5-92">
                <path d="M-0.26,-21.69 L0.26,-21.69 0.26,21.69 -0.26,21.69  z" class="primitive"/>
              </g>
              <g transform="translate(58.09,70.71)" id="img-9cb47fe5-93">
                <path d="M-0.26,-17.62 L0.26,-17.62 0.26,17.62 -0.26,17.62  z" class="primitive"/>
              </g>
              <g transform="translate(58.55,70.71)" id="img-9cb47fe5-94">
                <path d="M-0.26,-17.62 L0.26,-17.62 0.26,17.62 -0.26,17.62  z" class="primitive"/>
              </g>
              <g transform="translate(59.02,68)" id="img-9cb47fe5-95">
                <path d="M-0.26,-20.33 L0.26,-20.33 0.26,20.33 -0.26,20.33  z" class="primitive"/>
              </g>
              <g transform="translate(59.48,74.77)" id="img-9cb47fe5-96">
                <path d="M-0.26,-13.55 L0.26,-13.55 0.26,13.55 -0.26,13.55  z" class="primitive"/>
              </g>
              <g transform="translate(59.94,77.48)" id="img-9cb47fe5-97">
                <path d="M-0.26,-10.84 L0.26,-10.84 0.26,10.84 -0.26,10.84  z" class="primitive"/>
              </g>
              <g transform="translate(60.41,74.77)" id="img-9cb47fe5-98">
                <path d="M-0.26,-13.55 L0.26,-13.55 0.26,13.55 -0.26,13.55  z" class="primitive"/>
              </g>
              <g transform="translate(60.87,82.9)" id="img-9cb47fe5-99">
                <path d="M-0.26,-5.42 L0.26,-5.42 0.26,5.42 -0.26,5.42  z" class="primitive"/>
              </g>
              <g transform="translate(61.34,73.42)" id="img-9cb47fe5-100">
                <path d="M-0.26,-14.91 L0.26,-14.91 0.26,14.91 -0.26,14.91  z" class="primitive"/>
              </g>
              <g transform="translate(61.8,73.42)" id="img-9cb47fe5-101">
                <path d="M-0.26,-14.91 L0.26,-14.91 0.26,14.91 -0.26,14.91  z" class="primitive"/>
              </g>
              <g transform="translate(62.26,74.77)" id="img-9cb47fe5-102">
                <path d="M-0.26,-13.55 L0.26,-13.55 0.26,13.55 -0.26,13.55  z" class="primitive"/>
              </g>
              <g transform="translate(62.73,81.55)" id="img-9cb47fe5-103">
                <path d="M-0.26,-6.78 L0.26,-6.78 0.26,6.78 -0.26,6.78  z" class="primitive"/>
              </g>
              <g transform="translate(63.19,76.13)" id="img-9cb47fe5-104">
                <path d="M-0.26,-12.2 L0.26,-12.2 0.26,12.2 -0.26,12.2  z" class="primitive"/>
              </g>
              <g transform="translate(63.66,77.48)" id="img-9cb47fe5-105">
                <path d="M-0.26,-10.84 L0.26,-10.84 0.26,10.84 -0.26,10.84  z" class="primitive"/>
              </g>
              <g transform="translate(64.12,81.55)" id="img-9cb47fe5-106">
                <path d="M-0.26,-6.78 L0.26,-6.78 0.26,6.78 -0.26,6.78  z" class="primitive"/>
              </g>
              <g transform="translate(64.58,81.55)" id="img-9cb47fe5-107">
                <path d="M-0.26,-6.78 L0.26,-6.78 0.26,6.78 -0.26,6.78  z" class="primitive"/>
              </g>
              <g transform="translate(65.05,81.55)" id="img-9cb47fe5-108">
                <path d="M-0.26,-6.78 L0.26,-6.78 0.26,6.78 -0.26,6.78  z" class="primitive"/>
              </g>
              <g transform="translate(65.51,81.55)" id="img-9cb47fe5-109">
                <path d="M-0.26,-6.78 L0.26,-6.78 0.26,6.78 -0.26,6.78  z" class="primitive"/>
              </g>
              <g transform="translate(65.98,82.9)" id="img-9cb47fe5-110">
                <path d="M-0.26,-5.42 L0.26,-5.42 0.26,5.42 -0.26,5.42  z" class="primitive"/>
              </g>
              <g transform="translate(66.44,82.9)" id="img-9cb47fe5-111">
                <path d="M-0.26,-5.42 L0.26,-5.42 0.26,5.42 -0.26,5.42  z" class="primitive"/>
              </g>
              <g transform="translate(66.9,82.9)" id="img-9cb47fe5-112">
                <path d="M-0.26,-5.42 L0.26,-5.42 0.26,5.42 -0.26,5.42  z" class="primitive"/>
              </g>
              <g transform="translate(67.37,82.9)" id="img-9cb47fe5-113">
                <path d="M-0.26,-5.42 L0.26,-5.42 0.26,5.42 -0.26,5.42  z" class="primitive"/>
              </g>
              <g transform="translate(67.83,85.62)" id="img-9cb47fe5-114">
                <path d="M-0.26,-2.71 L0.26,-2.71 0.26,2.71 -0.26,2.71  z" class="primitive"/>
              </g>
              <g transform="translate(68.3,84.26)" id="img-9cb47fe5-115">
                <path d="M-0.26,-4.07 L0.26,-4.07 0.26,4.07 -0.26,4.07  z" class="primitive"/>
              </g>
              <g transform="translate(68.76,86.97)" id="img-9cb47fe5-116">
                <path d="M-0.26,-1.36 L0.26,-1.36 0.26,1.36 -0.26,1.36  z" class="primitive"/>
              </g>
              <g transform="translate(69.23,86.97)" id="img-9cb47fe5-117">
                <path d="M-0.26,-1.36 L0.26,-1.36 0.26,1.36 -0.26,1.36  z" class="primitive"/>
              </g>
              <g transform="translate(69.69,85.62)" id="img-9cb47fe5-118">
                <path d="M-0.26,-2.71 L0.26,-2.71 0.26,2.71 -0.26,2.71  z" class="primitive"/>
              </g>
              <g transform="translate(70.15,86.97)" id="img-9cb47fe5-119">
                <path d="M-0.26,-1.36 L0.26,-1.36 0.26,1.36 -0.26,1.36  z" class="primitive"/>
              </g>
              <g transform="translate(70.62,86.97)" id="img-9cb47fe5-120">
                <path d="M-0.26,-1.36 L0.26,-1.36 0.26,1.36 -0.26,1.36  z" class="primitive"/>
              </g>
              <g transform="translate(71.08,86.97)" id="img-9cb47fe5-121">
                <path d="M-0.26,-1.36 L0.26,-1.36 0.26,1.36 -0.26,1.36  z" class="primitive"/>
              </g>
              <g transform="translate(71.55,82.9)" id="img-9cb47fe5-122">
                <path d="M-0.26,-5.42 L0.26,-5.42 0.26,5.42 -0.26,5.42  z" class="primitive"/>
              </g>
              <g transform="translate(72.01,88.33)" id="img-9cb47fe5-123">
                <path d="M-0.26,-0 L0.26,-0 0.26,0 -0.26,0  z" class="primitive"/>
              </g>
              <g transform="translate(72.47,85.62)" id="img-9cb47fe5-124">
                <path d="M-0.26,-2.71 L0.26,-2.71 0.26,2.71 -0.26,2.71  z" class="primitive"/>
              </g>
              <g transform="translate(72.94,86.97)" id="img-9cb47fe5-125">
                <path d="M-0.26,-1.36 L0.26,-1.36 0.26,1.36 -0.26,1.36  z" class="primitive"/>
              </g>
              <g transform="translate(73.4,88.33)" id="img-9cb47fe5-126">
                <path d="M-0.26,-0 L0.26,-0 0.26,0 -0.26,0  z" class="primitive"/>
              </g>
              <g transform="translate(73.87,88.33)" id="img-9cb47fe5-127">
                <path d="M-0.26,-0 L0.26,-0 0.26,0 -0.26,0  z" class="primitive"/>
              </g>
              <g transform="translate(74.33,86.97)" id="img-9cb47fe5-128">
                <path d="M-0.26,-1.36 L0.26,-1.36 0.26,1.36 -0.26,1.36  z" class="primitive"/>
              </g>
            </g>
          </g>
        </g>
      </g>
    </g>
  </g>
  <g class="guide ylabels" font-size="2.82" font-family="'PT Sans Caption','Helvetica Neue','Helvetica',sans-serif" fill="#6C606B" id="img-9cb47fe5-129">
    <g transform="translate(16.96,88.33)" id="img-9cb47fe5-130">
      <g class="primitive">
        <text text-anchor="end" dy="0.35em">0</text>
      </g>
    </g>
    <g transform="translate(16.96,61.22)" id="img-9cb47fe5-131">
      <g class="primitive">
        <text text-anchor="end" dy="0.35em">10</text>
      </g>
    </g>
    <g transform="translate(16.96,34.11)" id="img-9cb47fe5-132">
      <g class="primitive">
        <text text-anchor="end" dy="0.35em">20</text>
      </g>
    </g>
    <g transform="translate(16.96,7)" id="img-9cb47fe5-133">
      <g class="primitive">
        <text text-anchor="end" dy="0.35em">30</text>
      </g>
    </g>
  </g>
  <g font-size="3.88" font-family="'PT Sans','Helvetica Neue','Helvetica',sans-serif" fill="#564A55" stroke="#000000" stroke-opacity="0.000" id="img-9cb47fe5-134">
    <g transform="translate(8.81,45.66)" id="img-9cb47fe5-135">
      <g class="primitive">
        <text text-anchor="middle" dy="0.35em" transform="rotate(-90,0, 2)">frequency</text>
      </g>
    </g>
  </g>
</g>
<defs>
  <clipPath id="img-9cb47fe5-11">
    <path d="M17.96,5 L92.23,5 92.23,90.33 17.96,90.33 " />
  </clipPath>
</defs>
</svg>
