<?xml version="1.0" encoding="UTF-8"?>
<svg xmlns="http://www.w3.org/2000/svg"
     xmlns:xlink="http://www.w3.org/1999/xlink"
     xmlns:gadfly="http://www.gadflyjl.org/ns"
     version="1.2"
     width="141.42mm" height="100mm" viewBox="0 0 141.42 100"
     stroke="none"
     fill="#000000"
     stroke-width="0.3"
     font-size="3.88"
>
<defs>
  <marker id="arrow" markerWidth="15" markerHeight="7" refX="5" refY="3.5" orient="auto" markerUnits="strokeWidth">
    <path d="M0,0 L15,3.5 L0,7 z" stroke="context-stroke" fill="context-stroke"/>
  </marker>
</defs>
<g class="plotroot xscalable yscalable" id="img-2fd84814-1">
  <g class="guide xlabels" font-size="2.82" font-family="'PT Sans Caption','Helvetica Neue','Helvetica',sans-serif" fill="#6C606B" id="img-2fd84814-2">
    <g transform="translate(19.96,91.33)">
      <g class="primitive">
        <text text-anchor="middle" dy="0.6em">1.600×10⁵</text>
      </g>
    </g>
    <g transform="translate(44.3,91.33)">
      <g class="primitive">
        <text text-anchor="middle" dy="0.6em">1.650×10⁵</text>
      </g>
    </g>
    <g transform="translate(68.64,91.33)">
      <g class="primitive">
        <text text-anchor="middle" dy="0.6em">1.700×10⁵</text>
      </g>
    </g>
    <g transform="translate(92.99,91.33)">
      <g class="primitive">
        <text text-anchor="middle" dy="0.6em">1.750×10⁵</text>
      </g>
    </g>
  </g>
  <g class="guide colorkey" id="img-2fd84814-3">
    <g class="color_coding_coding_noncoding_3-tri" id="img-2fd84814-4">
      <g fill="#4C404B" font-size="2.82" font-family="'PT Sans','Helvetica Neue','Helvetica',sans-serif" id="img-2fd84814-5">
        <g transform="translate(98.8,49.48)" id="img-2fd84814-6">
          <g class="primitive">
            <text dy="0.35em">coding_coding_noncoding_3-tri</text>
          </g>
        </g>
      </g>
      <g fill-opacity="1" fill="#00BFFF" stroke="#FFFFFF" id="img-2fd84814-7">
        <g transform="translate(96.89,49.48)" id="img-2fd84814-8">
          <path d="M-0.91,-0.91 L0.91,-0.91 0.91,0.91 -0.91,0.91  z" class="primitive"/>
        </g>
      </g>
    </g>
    <g fill="#362A35" font-size="3.88" font-family="'PT Sans','Helvetica Neue','Helvetica',sans-serif" stroke="#000000" stroke-opacity="0.000" id="img-2fd84814-9">
      <g transform="translate(95.99,45.66)" id="img-2fd84814-10">
        <g class="primitive">
          <text dy="-0em">graphlet</text>
        </g>
      </g>
    </g>
  </g>
  <g clip-path="url(#img-2fd84814-11)">
    <g id="img-2fd84814-12">
      <g pointer-events="visible" stroke-width="0.3" fill="#000000" fill-opacity="0.000" stroke="#000000" stroke-opacity="0.000" class="guide background" id="img-2fd84814-13">
        <g transform="translate(56.47,47.66)" id="img-2fd84814-14">
          <path d="M-38.51,-42.66 L38.51,-42.66 38.51,42.66 -38.51,42.66  z" class="primitive"/>
        </g>
      </g>
      <g class="guide ygridlines xfixed" stroke-dasharray="0.5,0.5" stroke-width="0.2" stroke="#D0D0E0" id="img-2fd84814-15">
        <g transform="translate(56.47,88.33)" id="img-2fd84814-16">
          <path fill="none" d="M-38.51,0 L38.51,0 " class="primitive"/>
        </g>
        <g transform="translate(56.47,72.06)" id="img-2fd84814-17">
          <path fill="none" d="M-38.51,0 L38.51,0 " class="primitive"/>
        </g>
        <g transform="translate(56.47,55.8)" id="img-2fd84814-18">
          <path fill="none" d="M-38.51,0 L38.51,0 " class="primitive"/>
        </g>
        <g transform="translate(56.47,39.53)" id="img-2fd84814-19">
          <path fill="none" d="M-38.51,0 L38.51,0 " class="primitive"/>
        </g>
        <g transform="translate(56.47,23.27)" id="img-2fd84814-20">
          <path fill="none" d="M-38.51,0 L38.51,0 " class="primitive"/>
        </g>
        <g transform="translate(56.47,7)" id="img-2fd84814-21">
          <path fill="none" d="M-38.51,0 L38.51,0 " class="primitive"/>
        </g>
      </g>
      <g class="guide xgridlines yfixed" stroke-dasharray="0.5,0.5" stroke-width="0.2" stroke="#D0D0E0" id="img-2fd84814-22">
        <g transform="translate(19.96,47.66)" id="img-2fd84814-23">
          <path fill="none" d="M0,-42.66 L0,42.66 " class="primitive"/>
        </g>
        <g transform="translate(44.3,47.66)" id="img-2fd84814-24">
          <path fill="none" d="M0,-42.66 L0,42.66 " class="primitive"/>
        </g>
        <g transform="translate(68.64,47.66)" id="img-2fd84814-25">
          <path fill="none" d="M0,-42.66 L0,42.66 " class="primitive"/>
        </g>
        <g transform="translate(92.99,47.66)" id="img-2fd84814-26">
          <path fill="none" d="M0,-42.66 L0,42.66 " class="primitive"/>
        </g>
      </g>
      <g class="plotpanel" id="img-2fd84814-27">
        <metadata>
          <boundingbox value="17.95833333333333mm 5.0mm 77.02968957064284mm 85.32666666666667mm"/>
          <unitbox value="159589.2081675771 51.22960898434298 15821.5836648458 -52.459217968685955"/>
        </metadata>
        <g shape-rendering="crispEdges" stroke-width="0.3" id="img-2fd84814-28">
          <g stroke="#000000" stroke-opacity="0.000" class="geometry" id="img-2fd84814-29">
            <g fill="#00BFFF" id="img-2fd84814-30">
              <g transform="translate(27.26,87.51)" id="img-2fd84814-31">
                <path d="M-0.31,-0.81 L0.31,-0.81 0.31,0.81 -0.31,0.81  z" class="primitive"/>
              </g>
              <g transform="translate(27.83,88.33)" id="img-2fd84814-32">
                <path d="M-0.31,-0 L0.31,-0 0.31,0 -0.31,0  z" class="primitive"/>
              </g>
              <g transform="translate(28.4,88.33)" id="img-2fd84814-33">
                <path d="M-0.31,-0 L0.31,-0 0.31,0 -0.31,0  z" class="primitive"/>
              </g>
              <g transform="translate(28.98,88.33)" id="img-2fd84814-34">
                <path d="M-0.31,-0 L0.31,-0 0.31,0 -0.31,0  z" class="primitive"/>
              </g>
              <g transform="translate(29.55,88.33)" id="img-2fd84814-35">
                <path d="M-0.31,-0 L0.31,-0 0.31,0 -0.31,0  z" class="primitive"/>
              </g>
              <g transform="translate(30.13,88.33)" id="img-2fd84814-36">
                <path d="M-0.31,-0 L0.31,-0 0.31,0 -0.31,0  z" class="primitive"/>
              </g>
              <g transform="translate(30.7,88.33)" id="img-2fd84814-37">
                <path d="M-0.31,-0 L0.31,-0 0.31,0 -0.31,0  z" class="primitive"/>
              </g>
              <g transform="translate(31.28,88.33)" id="img-2fd84814-38">
                <path d="M-0.31,-0 L0.31,-0 0.31,0 -0.31,0  z" class="primitive"/>
              </g>
              <g transform="translate(31.85,88.33)" id="img-2fd84814-39">
                <path d="M-0.31,-0 L0.31,-0 0.31,0 -0.31,0  z" class="primitive"/>
              </g>
              <g transform="translate(32.42,88.33)" id="img-2fd84814-40">
                <path d="M-0.31,-0 L0.31,-0 0.31,0 -0.31,0  z" class="primitive"/>
              </g>
              <g transform="translate(33,88.33)" id="img-2fd84814-41">
                <path d="M-0.31,-0 L0.31,-0 0.31,0 -0.31,0  z" class="primitive"/>
              </g>
              <g transform="translate(33.57,88.33)" id="img-2fd84814-42">
                <path d="M-0.31,-0 L0.31,-0 0.31,0 -0.31,0  z" class="primitive"/>
              </g>
              <g transform="translate(34.15,88.33)" id="img-2fd84814-43">
                <path d="M-0.31,-0 L0.31,-0 0.31,0 -0.31,0  z" class="primitive"/>
              </g>
              <g transform="translate(34.72,88.33)" id="img-2fd84814-44">
                <path d="M-0.31,-0 L0.31,-0 0.31,0 -0.31,0  z" class="primitive"/>
              </g>
              <g transform="translate(35.29,88.33)" id="img-2fd84814-45">
                <path d="M-0.31,-0 L0.31,-0 0.31,0 -0.31,0  z" class="primitive"/>
              </g>
              <g transform="translate(35.87,88.33)" id="img-2fd84814-46">
                <path d="M-0.31,-0 L0.31,-0 0.31,0 -0.31,0  z" class="primitive"/>
              </g>
              <g transform="translate(36.44,88.33)" id="img-2fd84814-47">
                <path d="M-0.31,-0 L0.31,-0 0.31,0 -0.31,0  z" class="primitive"/>
              </g>
              <g transform="translate(37.02,88.33)" id="img-2fd84814-48">
                <path d="M-0.31,-0 L0.31,-0 0.31,0 -0.31,0  z" class="primitive"/>
              </g>
              <g transform="translate(37.59,88.33)" id="img-2fd84814-49">
                <path d="M-0.31,-0 L0.31,-0 0.31,0 -0.31,0  z" class="primitive"/>
              </g>
              <g transform="translate(38.17,88.33)" id="img-2fd84814-50">
                <path d="M-0.31,-0 L0.31,-0 0.31,0 -0.31,0  z" class="primitive"/>
              </g>
              <g transform="translate(38.74,86.7)" id="img-2fd84814-51">
                <path d="M-0.31,-1.63 L0.31,-1.63 0.31,1.63 -0.31,1.63  z" class="primitive"/>
              </g>
              <g transform="translate(39.31,88.33)" id="img-2fd84814-52">
                <path d="M-0.31,-0 L0.31,-0 0.31,0 -0.31,0  z" class="primitive"/>
              </g>
              <g transform="translate(39.89,88.33)" id="img-2fd84814-53">
                <path d="M-0.31,-0 L0.31,-0 0.31,0 -0.31,0  z" class="primitive"/>
              </g>
              <g transform="translate(40.46,88.33)" id="img-2fd84814-54">
                <path d="M-0.31,-0 L0.31,-0 0.31,0 -0.31,0  z" class="primitive"/>
              </g>
              <g transform="translate(41.04,88.33)" id="img-2fd84814-55">
                <path d="M-0.31,-0 L0.31,-0 0.31,0 -0.31,0  z" class="primitive"/>
              </g>
              <g transform="translate(41.61,86.7)" id="img-2fd84814-56">
                <path d="M-0.31,-1.63 L0.31,-1.63 0.31,1.63 -0.31,1.63  z" class="primitive"/>
              </g>
              <g transform="translate(42.18,88.33)" id="img-2fd84814-57">
                <path d="M-0.31,-0 L0.31,-0 0.31,0 -0.31,0  z" class="primitive"/>
              </g>
              <g transform="translate(42.76,88.33)" id="img-2fd84814-58">
                <path d="M-0.31,-0 L0.31,-0 0.31,0 -0.31,0  z" class="primitive"/>
              </g>
              <g transform="translate(43.33,86.7)" id="img-2fd84814-59">
                <path d="M-0.31,-1.63 L0.31,-1.63 0.31,1.63 -0.31,1.63  z" class="primitive"/>
              </g>
              <g transform="translate(43.91,86.7)" id="img-2fd84814-60">
                <path d="M-0.31,-1.63 L0.31,-1.63 0.31,1.63 -0.31,1.63  z" class="primitive"/>
              </g>
              <g transform="translate(44.48,88.33)" id="img-2fd84814-61">
                <path d="M-0.31,-0 L0.31,-0 0.31,0 -0.31,0  z" class="primitive"/>
              </g>
              <g transform="translate(45.06,86.7)" id="img-2fd84814-62">
                <path d="M-0.31,-1.63 L0.31,-1.63 0.31,1.63 -0.31,1.63  z" class="primitive"/>
              </g>
              <g transform="translate(45.63,87.51)" id="img-2fd84814-63">
                <path d="M-0.31,-0.81 L0.31,-0.81 0.31,0.81 -0.31,0.81  z" class="primitive"/>
              </g>
              <g transform="translate(46.2,86.7)" id="img-2fd84814-64">
                <path d="M-0.31,-1.63 L0.31,-1.63 0.31,1.63 -0.31,1.63  z" class="primitive"/>
              </g>
              <g transform="translate(46.78,86.7)" id="img-2fd84814-65">
                <path d="M-0.31,-1.63 L0.31,-1.63 0.31,1.63 -0.31,1.63  z" class="primitive"/>
              </g>
              <g transform="translate(47.35,87.51)" id="img-2fd84814-66">
                <path d="M-0.31,-0.81 L0.31,-0.81 0.31,0.81 -0.31,0.81  z" class="primitive"/>
              </g>
              <g transform="translate(47.93,85.07)" id="img-2fd84814-67">
                <path d="M-0.31,-3.25 L0.31,-3.25 0.31,3.25 -0.31,3.25  z" class="primitive"/>
              </g>
              <g transform="translate(48.5,87.51)" id="img-2fd84814-68">
                <path d="M-0.31,-0.81 L0.31,-0.81 0.31,0.81 -0.31,0.81  z" class="primitive"/>
              </g>
              <g transform="translate(49.07,79.38)" id="img-2fd84814-69">
                <path d="M-0.31,-8.95 L0.31,-8.95 0.31,8.95 -0.31,8.95  z" class="primitive"/>
              </g>
              <g transform="translate(49.65,84.26)" id="img-2fd84814-70">
                <path d="M-0.31,-4.07 L0.31,-4.07 0.31,4.07 -0.31,4.07  z" class="primitive"/>
              </g>
              <g transform="translate(50.22,85.07)" id="img-2fd84814-71">
                <path d="M-0.31,-3.25 L0.31,-3.25 0.31,3.25 -0.31,3.25  z" class="primitive"/>
              </g>
              <g transform="translate(50.8,83.45)" id="img-2fd84814-72">
                <path d="M-0.31,-4.88 L0.31,-4.88 0.31,4.88 -0.31,4.88  z" class="primitive"/>
              </g>
              <g transform="translate(51.37,85.07)" id="img-2fd84814-73">
                <path d="M-0.31,-3.25 L0.31,-3.25 0.31,3.25 -0.31,3.25  z" class="primitive"/>
              </g>
              <g transform="translate(51.95,82.63)" id="img-2fd84814-74">
                <path d="M-0.31,-5.69 L0.31,-5.69 0.31,5.69 -0.31,5.69  z" class="primitive"/>
              </g>
              <g transform="translate(52.52,84.26)" id="img-2fd84814-75">
                <path d="M-0.31,-4.07 L0.31,-4.07 0.31,4.07 -0.31,4.07  z" class="primitive"/>
              </g>
              <g transform="translate(53.09,78.57)" id="img-2fd84814-76">
                <path d="M-0.31,-9.76 L0.31,-9.76 0.31,9.76 -0.31,9.76  z" class="primitive"/>
              </g>
              <g transform="translate(53.67,83.45)" id="img-2fd84814-77">
                <path d="M-0.31,-4.88 L0.31,-4.88 0.31,4.88 -0.31,4.88  z" class="primitive"/>
              </g>
              <g transform="translate(54.24,76.13)" id="img-2fd84814-78">
                <path d="M-0.31,-12.2 L0.31,-12.2 0.31,12.2 -0.31,12.2  z" class="primitive"/>
              </g>
              <g transform="translate(54.82,82.63)" id="img-2fd84814-79">
                <path d="M-0.31,-5.69 L0.31,-5.69 0.31,5.69 -0.31,5.69  z" class="primitive"/>
              </g>
              <g transform="translate(55.39,82.63)" id="img-2fd84814-80">
                <path d="M-0.31,-5.69 L0.31,-5.69 0.31,5.69 -0.31,5.69  z" class="primitive"/>
              </g>
              <g transform="translate(55.96,79.38)" id="img-2fd84814-81">
                <path d="M-0.31,-8.95 L0.31,-8.95 0.31,8.95 -0.31,8.95  z" class="primitive"/>
              </g>
              <g transform="translate(56.54,79.38)" id="img-2fd84814-82">
                <path d="M-0.31,-8.95 L0.31,-8.95 0.31,8.95 -0.31,8.95  z" class="primitive"/>
              </g>
              <g transform="translate(57.11,81.82)" id="img-2fd84814-83">
                <path d="M-0.31,-6.51 L0.31,-6.51 0.31,6.51 -0.31,6.51  z" class="primitive"/>
              </g>
              <g transform="translate(57.69,79.38)" id="img-2fd84814-84">
                <path d="M-0.31,-8.95 L0.31,-8.95 0.31,8.95 -0.31,8.95  z" class="primitive"/>
              </g>
              <g transform="translate(58.26,71.25)" id="img-2fd84814-85">
                <path d="M-0.31,-17.08 L0.31,-17.08 0.31,17.08 -0.31,17.08  z" class="primitive"/>
              </g>
              <g transform="translate(58.84,75.31)" id="img-2fd84814-86">
                <path d="M-0.31,-13.01 L0.31,-13.01 0.31,13.01 -0.31,13.01  z" class="primitive"/>
              </g>
              <g transform="translate(59.41,72.06)" id="img-2fd84814-87">
                <path d="M-0.31,-16.27 L0.31,-16.27 0.31,16.27 -0.31,16.27  z" class="primitive"/>
              </g>
              <g transform="translate(59.98,69.62)" id="img-2fd84814-88">
                <path d="M-0.31,-18.71 L0.31,-18.71 0.31,18.71 -0.31,18.71  z" class="primitive"/>
              </g>
              <g transform="translate(60.56,61.49)" id="img-2fd84814-89">
                <path d="M-0.31,-26.84 L0.31,-26.84 0.31,26.84 -0.31,26.84  z" class="primitive"/>
              </g>
              <g transform="translate(61.13,68)" id="img-2fd84814-90">
                <path d="M-0.31,-20.33 L0.31,-20.33 0.31,20.33 -0.31,20.33  z" class="primitive"/>
              </g>
              <g transform="translate(61.71,68)" id="img-2fd84814-91">
                <path d="M-0.31,-20.33 L0.31,-20.33 0.31,20.33 -0.31,20.33  z" class="primitive"/>
              </g>
              <g transform="translate(62.28,64.74)" id="img-2fd84814-92">
                <path d="M-0.31,-23.58 L0.31,-23.58 0.31,23.58 -0.31,23.58  z" class="primitive"/>
              </g>
              <g transform="translate(62.85,69.62)" id="img-2fd84814-93">
                <path d="M-0.31,-18.71 L0.31,-18.71 0.31,18.71 -0.31,18.71  z" class="primitive"/>
              </g>
              <g transform="translate(63.43,51.73)" id="img-2fd84814-94">
                <path d="M-0.31,-36.6 L0.31,-36.6 0.31,36.6 -0.31,36.6  z" class="primitive"/>
              </g>
              <g transform="translate(64,64.74)" id="img-2fd84814-95">
                <path d="M-0.31,-23.58 L0.31,-23.58 0.31,23.58 -0.31,23.58  z" class="primitive"/>
              </g>
              <g transform="translate(64.58,62.3)" id="img-2fd84814-96">
                <path d="M-0.31,-26.02 L0.31,-26.02 0.31,26.02 -0.31,26.02  z" class="primitive"/>
              </g>
              <g transform="translate(65.15,64.74)" id="img-2fd84814-97">
                <path d="M-0.31,-23.58 L0.31,-23.58 0.31,23.58 -0.31,23.58  z" class="primitive"/>
              </g>
              <g transform="translate(65.72,62.3)" id="img-2fd84814-98">
                <path d="M-0.31,-26.02 L0.31,-26.02 0.31,26.02 -0.31,26.02  z" class="primitive"/>
              </g>
              <g transform="translate(66.3,65.56)" id="img-2fd84814-99">
                <path d="M-0.31,-22.77 L0.31,-22.77 0.31,22.77 -0.31,22.77  z" class="primitive"/>
              </g>
              <g transform="translate(66.87,65.56)" id="img-2fd84814-100">
                <path d="M-0.31,-22.77 L0.31,-22.77 0.31,22.77 -0.31,22.77  z" class="primitive"/>
              </g>
              <g transform="translate(67.45,62.3)" id="img-2fd84814-101">
                <path d="M-0.31,-26.02 L0.31,-26.02 0.31,26.02 -0.31,26.02  z" class="primitive"/>
              </g>
              <g transform="translate(68.02,65.56)" id="img-2fd84814-102">
                <path d="M-0.31,-22.77 L0.31,-22.77 0.31,22.77 -0.31,22.77  z" class="primitive"/>
              </g>
              <g transform="translate(68.6,63.12)" id="img-2fd84814-103">
                <path d="M-0.31,-25.21 L0.31,-25.21 0.31,25.21 -0.31,25.21  z" class="primitive"/>
              </g>
              <g transform="translate(69.17,59.86)" id="img-2fd84814-104">
                <path d="M-0.31,-28.46 L0.31,-28.46 0.31,28.46 -0.31,28.46  z" class="primitive"/>
              </g>
              <g transform="translate(69.74,63.93)" id="img-2fd84814-105">
                <path d="M-0.31,-24.4 L0.31,-24.4 0.31,24.4 -0.31,24.4  z" class="primitive"/>
              </g>
              <g transform="translate(70.32,77.75)" id="img-2fd84814-106">
                <path d="M-0.31,-10.57 L0.31,-10.57 0.31,10.57 -0.31,10.57  z" class="primitive"/>
              </g>
              <g transform="translate(70.89,62.3)" id="img-2fd84814-107">
                <path d="M-0.31,-26.02 L0.31,-26.02 0.31,26.02 -0.31,26.02  z" class="primitive"/>
              </g>
              <g transform="translate(71.47,59.05)" id="img-2fd84814-108">
                <path d="M-0.31,-29.28 L0.31,-29.28 0.31,29.28 -0.31,29.28  z" class="primitive"/>
              </g>
              <g transform="translate(72.04,70.43)" id="img-2fd84814-109">
                <path d="M-0.31,-17.89 L0.31,-17.89 0.31,17.89 -0.31,17.89  z" class="primitive"/>
              </g>
              <g transform="translate(72.61,72.87)" id="img-2fd84814-110">
                <path d="M-0.31,-15.45 L0.31,-15.45 0.31,15.45 -0.31,15.45  z" class="primitive"/>
              </g>
              <g transform="translate(73.19,72.06)" id="img-2fd84814-111">
                <path d="M-0.31,-16.27 L0.31,-16.27 0.31,16.27 -0.31,16.27  z" class="primitive"/>
              </g>
              <g transform="translate(73.76,75.31)" id="img-2fd84814-112">
                <path d="M-0.31,-13.01 L0.31,-13.01 0.31,13.01 -0.31,13.01  z" class="primitive"/>
              </g>
              <g transform="translate(74.34,76.13)" id="img-2fd84814-113">
                <path d="M-0.31,-12.2 L0.31,-12.2 0.31,12.2 -0.31,12.2  z" class="primitive"/>
              </g>
              <g transform="translate(74.91,77.75)" id="img-2fd84814-114">
                <path d="M-0.31,-10.57 L0.31,-10.57 0.31,10.57 -0.31,10.57  z" class="primitive"/>
              </g>
              <g transform="translate(75.49,81.82)" id="img-2fd84814-115">
                <path d="M-0.31,-6.51 L0.31,-6.51 0.31,6.51 -0.31,6.51  z" class="primitive"/>
              </g>
              <g transform="translate(76.06,75.31)" id="img-2fd84814-116">
                <path d="M-0.31,-13.01 L0.31,-13.01 0.31,13.01 -0.31,13.01  z" class="primitive"/>
              </g>
              <g transform="translate(76.63,77.75)" id="img-2fd84814-117">
                <path d="M-0.31,-10.57 L0.31,-10.57 0.31,10.57 -0.31,10.57  z" class="primitive"/>
              </g>
              <g transform="translate(77.21,84.26)" id="img-2fd84814-118">
                <path d="M-0.31,-4.07 L0.31,-4.07 0.31,4.07 -0.31,4.07  z" class="primitive"/>
              </g>
              <g transform="translate(77.78,84.26)" id="img-2fd84814-119">
                <path d="M-0.31,-4.07 L0.31,-4.07 0.31,4.07 -0.31,4.07  z" class="primitive"/>
              </g>
              <g transform="translate(78.36,85.07)" id="img-2fd84814-120">
                <path d="M-0.31,-3.25 L0.31,-3.25 0.31,3.25 -0.31,3.25  z" class="primitive"/>
              </g>
              <g transform="translate(78.93,85.07)" id="img-2fd84814-121">
                <path d="M-0.31,-3.25 L0.31,-3.25 0.31,3.25 -0.31,3.25  z" class="primitive"/>
              </g>
              <g transform="translate(79.5,85.07)" id="img-2fd84814-122">
                <path d="M-0.31,-3.25 L0.31,-3.25 0.31,3.25 -0.31,3.25  z" class="primitive"/>
              </g>
              <g transform="translate(80.08,85.07)" id="img-2fd84814-123">
                <path d="M-0.31,-3.25 L0.31,-3.25 0.31,3.25 -0.31,3.25  z" class="primitive"/>
              </g>
              <g transform="translate(80.65,88.33)" id="img-2fd84814-124">
                <path d="M-0.31,-0 L0.31,-0 0.31,0 -0.31,0  z" class="primitive"/>
              </g>
              <g transform="translate(81.23,86.7)" id="img-2fd84814-125">
                <path d="M-0.31,-1.63 L0.31,-1.63 0.31,1.63 -0.31,1.63  z" class="primitive"/>
              </g>
              <g transform="translate(81.8,86.7)" id="img-2fd84814-126">
                <path d="M-0.31,-1.63 L0.31,-1.63 0.31,1.63 -0.31,1.63  z" class="primitive"/>
              </g>
              <g transform="translate(82.38,88.33)" id="img-2fd84814-127">
                <path d="M-0.31,-0 L0.31,-0 0.31,0 -0.31,0  z" class="primitive"/>
              </g>
              <g transform="translate(82.95,88.33)" id="img-2fd84814-128">
                <path d="M-0.31,-0 L0.31,-0 0.31,0 -0.31,0  z" class="primitive"/>
              </g>
              <g transform="translate(83.52,88.33)" id="img-2fd84814-129">
                <path d="M-0.31,-0 L0.31,-0 0.31,0 -0.31,0  z" class="primitive"/>
              </g>
              <g transform="translate(84.1,87.51)" id="img-2fd84814-130">
                <path d="M-0.31,-0.81 L0.31,-0.81 0.31,0.81 -0.31,0.81  z" class="primitive"/>
              </g>
            </g>
          </g>
        </g>
      </g>
    </g>
  </g>
  <g class="guide ylabels" font-size="2.82" font-family="'PT Sans Caption','Helvetica Neue','Helvetica',sans-serif" fill="#6C606B" id="img-2fd84814-131">
    <g transform="translate(16.96,88.33)" id="img-2fd84814-132">
      <g class="primitive">
        <text text-anchor="end" dy="0.35em">0</text>
      </g>
    </g>
    <g transform="translate(16.96,72.06)" id="img-2fd84814-133">
      <g class="primitive">
        <text text-anchor="end" dy="0.35em">10</text>
      </g>
    </g>
    <g transform="translate(16.96,55.8)" id="img-2fd84814-134">
      <g class="primitive">
        <text text-anchor="end" dy="0.35em">20</text>
      </g>
    </g>
    <g transform="translate(16.96,39.53)" id="img-2fd84814-135">
      <g class="primitive">
        <text text-anchor="end" dy="0.35em">30</text>
      </g>
    </g>
    <g transform="translate(16.96,23.27)" id="img-2fd84814-136">
      <g class="primitive">
        <text text-anchor="end" dy="0.35em">40</text>
      </g>
    </g>
    <g transform="translate(16.96,7)" id="img-2fd84814-137">
      <g class="primitive">
        <text text-anchor="end" dy="0.35em">50</text>
      </g>
    </g>
  </g>
  <g font-size="3.88" font-family="'PT Sans','Helvetica Neue','Helvetica',sans-serif" fill="#564A55" stroke="#000000" stroke-opacity="0.000" id="img-2fd84814-138">
    <g transform="translate(8.81,45.66)" id="img-2fd84814-139">
      <g class="primitive">
        <text text-anchor="middle" dy="0.35em" transform="rotate(-90,0, 2)">frequency</text>
      </g>
    </g>
  </g>
</g>
<defs>
  <clipPath id="img-2fd84814-11">
    <path d="M17.96,5 L94.99,5 94.99,90.33 17.96,90.33 " />
  </clipPath>
</defs>
</svg>
