<?xml version="1.0" encoding="UTF-8"?>
<svg xmlns="http://www.w3.org/2000/svg"
     xmlns:xlink="http://www.w3.org/1999/xlink"
     xmlns:gadfly="http://www.gadflyjl.org/ns"
     version="1.2"
     width="141.42mm" height="100mm" viewBox="0 0 141.42 100"
     stroke="none"
     fill="#000000"
     stroke-width="0.3"
     font-size="3.88"
>
<defs>
  <marker id="arrow" markerWidth="15" markerHeight="7" refX="5" refY="3.5" orient="auto" markerUnits="strokeWidth">
    <path d="M0,0 L15,3.5 L0,7 z" stroke="context-stroke" fill="context-stroke"/>
  </marker>
</defs>
<g class="plotroot xscalable yscalable" id="img-3f3141ff-1">
  <g class="guide xlabels" font-size="2.82" font-family="'PT Sans Caption','Helvetica Neue','Helvetica',sans-serif" fill="#6C606B" id="img-3f3141ff-2">
    <g transform="translate(19.96,91.33)">
      <g class="primitive">
        <text text-anchor="middle" dy="0.6em">9.0</text>
      </g>
    </g>
    <g transform="translate(34.87,91.33)">
      <g class="primitive">
        <text text-anchor="middle" dy="0.6em">9.5</text>
      </g>
    </g>
    <g transform="translate(49.77,91.33)">
      <g class="primitive">
        <text text-anchor="middle" dy="0.6em">10.0</text>
      </g>
    </g>
    <g transform="translate(64.68,91.33)">
      <g class="primitive">
        <text text-anchor="middle" dy="0.6em">10.5</text>
      </g>
    </g>
    <g transform="translate(79.59,91.33)">
      <g class="primitive">
        <text text-anchor="middle" dy="0.6em">11.0</text>
      </g>
    </g>
  </g>
  <g class="guide colorkey" id="img-3f3141ff-3">
    <g class="color_coding_coding_noncoding_coding_4-chord" id="img-3f3141ff-4">
      <g fill="#4C404B" font-size="2.82" font-family="'PT Sans','Helvetica Neue','Helvetica',sans-serif" id="img-3f3141ff-5">
        <g transform="translate(85.4,49.48)" id="img-3f3141ff-6">
          <g class="primitive">
            <text dy="0.35em">coding_coding_noncoding_coding_4-chord</text>
          </g>
        </g>
      </g>
      <g fill-opacity="1" fill="#00BFFF" stroke="#FFFFFF" id="img-3f3141ff-7">
        <g transform="translate(83.49,49.48)" id="img-3f3141ff-8">
          <path d="M-0.91,-0.91 L 0.91 -0.91 0.91 0.91 -0.91 0.91 z" class="primitive"/>
        </g>
      </g>
    </g>
    <g fill="#362A35" font-size="3.88" font-family="'PT Sans','Helvetica Neue','Helvetica',sans-serif" stroke="#000000" stroke-opacity="0.000" id="img-3f3141ff-9">
      <g transform="translate(82.59,45.66)" id="img-3f3141ff-10">
        <g class="primitive">
          <text dy="-0em">graphlet</text>
        </g>
      </g>
    </g>
  </g>
  <g clip-path="url(#img-3f3141ff-11)">
    <g id="img-3f3141ff-12">
      <g pointer-events="visible" stroke-width="0.3" fill="#000000" fill-opacity="0.000" stroke="#000000" stroke-opacity="0.000" class="guide background" id="img-3f3141ff-13">
        <g transform="translate(49.77,47.66)" id="img-3f3141ff-14">
          <path d="M-31.81,-42.66 L 31.81 -42.66 31.81 42.66 -31.81 42.66 z" class="primitive"/>
        </g>
      </g>
      <g class="guide ygridlines xfixed" stroke-dasharray="0.5,0.5" stroke-width="0.2" stroke="#D0D0E0" id="img-3f3141ff-15">
        <g transform="translate(49.77,88.33)" id="img-3f3141ff-16">
          <path fill="none" d="M-31.81,0 L 31.81 0" class="primitive"/>
        </g>
        <g transform="translate(49.77,68)" id="img-3f3141ff-17">
          <path fill="none" d="M-31.81,0 L 31.81 0" class="primitive"/>
        </g>
        <g transform="translate(49.77,47.66)" id="img-3f3141ff-18">
          <path fill="none" d="M-31.81,0 L 31.81 0" class="primitive"/>
        </g>
        <g transform="translate(49.77,27.33)" id="img-3f3141ff-19">
          <path fill="none" d="M-31.81,0 L 31.81 0" class="primitive"/>
        </g>
        <g transform="translate(49.77,7)" id="img-3f3141ff-20">
          <path fill="none" d="M-31.81,0 L 31.81 0" class="primitive"/>
        </g>
      </g>
      <g class="guide xgridlines yfixed" stroke-dasharray="0.5,0.5" stroke-width="0.2" stroke="#D0D0E0" id="img-3f3141ff-21">
        <g transform="translate(19.96,47.66)" id="img-3f3141ff-22">
          <path fill="none" d="M0,-42.66 L 0 42.66" class="primitive"/>
        </g>
        <g transform="translate(34.87,47.66)" id="img-3f3141ff-23">
          <path fill="none" d="M0,-42.66 L 0 42.66" class="primitive"/>
        </g>
        <g transform="translate(49.77,47.66)" id="img-3f3141ff-24">
          <path fill="none" d="M0,-42.66 L 0 42.66" class="primitive"/>
        </g>
        <g transform="translate(64.68,47.66)" id="img-3f3141ff-25">
          <path fill="none" d="M0,-42.66 L 0 42.66" class="primitive"/>
        </g>
        <g transform="translate(79.59,47.66)" id="img-3f3141ff-26">
          <path fill="none" d="M0,-42.66 L 0 42.66" class="primitive"/>
        </g>
      </g>
      <g class="plotpanel" id="img-3f3141ff-27">
        <metadata>
          <boundingbox value="17.95833333333333mm 5.0mm 63.62968957064285mm 85.32666666666667mm"/>
          <unitbox value="8.932919322089356 40.98368718747438 2.1341613558212886 -41.96737437494876"/>
        </metadata>
        <g shape-rendering="crispEdges" stroke-width="0.3" id="img-3f3141ff-28">
          <g stroke="#000000" stroke-opacity="0.000" class="geometry" id="img-3f3141ff-29">
            <g fill="#00BFFF" id="img-3f3141ff-30">
              <g transform="translate(25.34,85.28)" id="img-3f3141ff-31">
                <path d="M-0.26,-3.05 L 0.26 -3.05 0.26 3.05 -0.26 3.05 z" class="primitive"/>
              </g>
              <g transform="translate(25.81,88.33)" id="img-3f3141ff-32">
                <path d="M-0.26,-0 L 0.26 -0 0.26 0 -0.26 0 z" class="primitive"/>
              </g>
              <g transform="translate(26.28,87.31)" id="img-3f3141ff-33">
                <path d="M-0.26,-1.02 L 0.26 -1.02 0.26 1.02 -0.26 1.02 z" class="primitive"/>
              </g>
              <g transform="translate(26.74,88.33)" id="img-3f3141ff-34">
                <path d="M-0.26,-0 L 0.26 -0 0.26 0 -0.26 0 z" class="primitive"/>
              </g>
              <g transform="translate(27.21,86.29)" id="img-3f3141ff-35">
                <path d="M-0.26,-2.03 L 0.26 -2.03 0.26 2.03 -0.26 2.03 z" class="primitive"/>
              </g>
              <g transform="translate(27.68,88.33)" id="img-3f3141ff-36">
                <path d="M-0.26,-0 L 0.26 -0 0.26 0 -0.26 0 z" class="primitive"/>
              </g>
              <g transform="translate(28.14,88.33)" id="img-3f3141ff-37">
                <path d="M-0.26,-0 L 0.26 -0 0.26 0 -0.26 0 z" class="primitive"/>
              </g>
              <g transform="translate(28.61,87.31)" id="img-3f3141ff-38">
                <path d="M-0.26,-1.02 L 0.26 -1.02 0.26 1.02 -0.26 1.02 z" class="primitive"/>
              </g>
              <g transform="translate(29.08,88.33)" id="img-3f3141ff-39">
                <path d="M-0.26,-0 L 0.26 -0 0.26 0 -0.26 0 z" class="primitive"/>
              </g>
              <g transform="translate(29.55,87.31)" id="img-3f3141ff-40">
                <path d="M-0.26,-1.02 L 0.26 -1.02 0.26 1.02 -0.26 1.02 z" class="primitive"/>
              </g>
              <g transform="translate(30.01,88.33)" id="img-3f3141ff-41">
                <path d="M-0.26,-0 L 0.26 -0 0.26 0 -0.26 0 z" class="primitive"/>
              </g>
              <g transform="translate(30.48,86.29)" id="img-3f3141ff-42">
                <path d="M-0.26,-2.03 L 0.26 -2.03 0.26 2.03 -0.26 2.03 z" class="primitive"/>
              </g>
              <g transform="translate(30.95,87.31)" id="img-3f3141ff-43">
                <path d="M-0.26,-1.02 L 0.26 -1.02 0.26 1.02 -0.26 1.02 z" class="primitive"/>
              </g>
              <g transform="translate(31.41,88.33)" id="img-3f3141ff-44">
                <path d="M-0.26,-0 L 0.26 -0 0.26 0 -0.26 0 z" class="primitive"/>
              </g>
              <g transform="translate(31.88,88.33)" id="img-3f3141ff-45">
                <path d="M-0.26,-0 L 0.26 -0 0.26 0 -0.26 0 z" class="primitive"/>
              </g>
              <g transform="translate(32.35,85.28)" id="img-3f3141ff-46">
                <path d="M-0.26,-3.05 L 0.26 -3.05 0.26 3.05 -0.26 3.05 z" class="primitive"/>
              </g>
              <g transform="translate(32.82,87.31)" id="img-3f3141ff-47">
                <path d="M-0.26,-1.02 L 0.26 -1.02 0.26 1.02 -0.26 1.02 z" class="primitive"/>
              </g>
              <g transform="translate(33.28,86.29)" id="img-3f3141ff-48">
                <path d="M-0.26,-2.03 L 0.26 -2.03 0.26 2.03 -0.26 2.03 z" class="primitive"/>
              </g>
              <g transform="translate(33.75,84.26)" id="img-3f3141ff-49">
                <path d="M-0.26,-4.07 L 0.26 -4.07 0.26 4.07 -0.26 4.07 z" class="primitive"/>
              </g>
              <g transform="translate(34.22,85.28)" id="img-3f3141ff-50">
                <path d="M-0.26,-3.05 L 0.26 -3.05 0.26 3.05 -0.26 3.05 z" class="primitive"/>
              </g>
              <g transform="translate(34.68,86.29)" id="img-3f3141ff-51">
                <path d="M-0.26,-2.03 L 0.26 -2.03 0.26 2.03 -0.26 2.03 z" class="primitive"/>
              </g>
              <g transform="translate(35.15,85.28)" id="img-3f3141ff-52">
                <path d="M-0.26,-3.05 L 0.26 -3.05 0.26 3.05 -0.26 3.05 z" class="primitive"/>
              </g>
              <g transform="translate(35.62,86.29)" id="img-3f3141ff-53">
                <path d="M-0.26,-2.03 L 0.26 -2.03 0.26 2.03 -0.26 2.03 z" class="primitive"/>
              </g>
              <g transform="translate(36.09,83.24)" id="img-3f3141ff-54">
                <path d="M-0.26,-5.08 L 0.26 -5.08 0.26 5.08 -0.26 5.08 z" class="primitive"/>
              </g>
              <g transform="translate(36.55,81.21)" id="img-3f3141ff-55">
                <path d="M-0.26,-7.12 L 0.26 -7.12 0.26 7.12 -0.26 7.12 z" class="primitive"/>
              </g>
              <g transform="translate(37.02,84.26)" id="img-3f3141ff-56">
                <path d="M-0.26,-4.07 L 0.26 -4.07 0.26 4.07 -0.26 4.07 z" class="primitive"/>
              </g>
              <g transform="translate(37.49,81.21)" id="img-3f3141ff-57">
                <path d="M-0.26,-7.12 L 0.26 -7.12 0.26 7.12 -0.26 7.12 z" class="primitive"/>
              </g>
              <g transform="translate(37.95,82.23)" id="img-3f3141ff-58">
                <path d="M-0.26,-6.1 L 0.26 -6.1 0.26 6.1 -0.26 6.1 z" class="primitive"/>
              </g>
              <g transform="translate(38.42,85.28)" id="img-3f3141ff-59">
                <path d="M-0.26,-3.05 L 0.26 -3.05 0.26 3.05 -0.26 3.05 z" class="primitive"/>
              </g>
              <g transform="translate(38.89,83.24)" id="img-3f3141ff-60">
                <path d="M-0.26,-5.08 L 0.26 -5.08 0.26 5.08 -0.26 5.08 z" class="primitive"/>
              </g>
              <g transform="translate(39.35,79.18)" id="img-3f3141ff-61">
                <path d="M-0.26,-9.15 L 0.26 -9.15 0.26 9.15 -0.26 9.15 z" class="primitive"/>
              </g>
              <g transform="translate(39.82,77.14)" id="img-3f3141ff-62">
                <path d="M-0.26,-11.18 L 0.26 -11.18 0.26 11.18 -0.26 11.18 z" class="primitive"/>
              </g>
              <g transform="translate(40.29,79.18)" id="img-3f3141ff-63">
                <path d="M-0.26,-9.15 L 0.26 -9.15 0.26 9.15 -0.26 9.15 z" class="primitive"/>
              </g>
              <g transform="translate(40.76,78.16)" id="img-3f3141ff-64">
                <path d="M-0.26,-10.17 L 0.26 -10.17 0.26 10.17 -0.26 10.17 z" class="primitive"/>
              </g>
              <g transform="translate(41.22,74.09)" id="img-3f3141ff-65">
                <path d="M-0.26,-14.23 L 0.26 -14.23 0.26 14.23 -0.26 14.23 z" class="primitive"/>
              </g>
              <g transform="translate(41.69,75.11)" id="img-3f3141ff-66">
                <path d="M-0.26,-13.22 L 0.26 -13.22 0.26 13.22 -0.26 13.22 z" class="primitive"/>
              </g>
              <g transform="translate(42.16,82.23)" id="img-3f3141ff-67">
                <path d="M-0.26,-6.1 L 0.26 -6.1 0.26 6.1 -0.26 6.1 z" class="primitive"/>
              </g>
              <g transform="translate(42.62,80.19)" id="img-3f3141ff-68">
                <path d="M-0.26,-8.13 L 0.26 -8.13 0.26 8.13 -0.26 8.13 z" class="primitive"/>
              </g>
              <g transform="translate(43.09,75.11)" id="img-3f3141ff-69">
                <path d="M-0.26,-13.22 L 0.26 -13.22 0.26 13.22 -0.26 13.22 z" class="primitive"/>
              </g>
              <g transform="translate(43.56,69.01)" id="img-3f3141ff-70">
                <path d="M-0.26,-19.32 L 0.26 -19.32 0.26 19.32 -0.26 19.32 z" class="primitive"/>
              </g>
              <g transform="translate(44.03,69.01)" id="img-3f3141ff-71">
                <path d="M-0.26,-19.32 L 0.26 -19.32 0.26 19.32 -0.26 19.32 z" class="primitive"/>
              </g>
              <g transform="translate(44.49,73.08)" id="img-3f3141ff-72">
                <path d="M-0.26,-15.25 L 0.26 -15.25 0.26 15.25 -0.26 15.25 z" class="primitive"/>
              </g>
              <g transform="translate(44.96,72.06)" id="img-3f3141ff-73">
                <path d="M-0.26,-16.27 L 0.26 -16.27 0.26 16.27 -0.26 16.27 z" class="primitive"/>
              </g>
              <g transform="translate(45.43,63.93)" id="img-3f3141ff-74">
                <path d="M-0.26,-24.4 L 0.26 -24.4 0.26 24.4 -0.26 24.4 z" class="primitive"/>
              </g>
              <g transform="translate(45.89,58.85)" id="img-3f3141ff-75">
                <path d="M-0.26,-29.48 L 0.26 -29.48 0.26 29.48 -0.26 29.48 z" class="primitive"/>
              </g>
              <g transform="translate(46.36,73.08)" id="img-3f3141ff-76">
                <path d="M-0.26,-15.25 L 0.26 -15.25 0.26 15.25 -0.26 15.25 z" class="primitive"/>
              </g>
              <g transform="translate(46.83,69.01)" id="img-3f3141ff-77">
                <path d="M-0.26,-19.32 L 0.26 -19.32 0.26 19.32 -0.26 19.32 z" class="primitive"/>
              </g>
              <g transform="translate(47.3,60.88)" id="img-3f3141ff-78">
                <path d="M-0.26,-27.45 L 0.26 -27.45 0.26 27.45 -0.26 27.45 z" class="primitive"/>
              </g>
              <g transform="translate(47.76,75.11)" id="img-3f3141ff-79">
                <path d="M-0.26,-13.22 L 0.26 -13.22 0.26 13.22 -0.26 13.22 z" class="primitive"/>
              </g>
              <g transform="translate(48.23,68)" id="img-3f3141ff-80">
                <path d="M-0.26,-20.33 L 0.26 -20.33 0.26 20.33 -0.26 20.33 z" class="primitive"/>
              </g>
              <g transform="translate(48.7,63.93)" id="img-3f3141ff-81">
                <path d="M-0.26,-24.4 L 0.26 -24.4 0.26 24.4 -0.26 24.4 z" class="primitive"/>
              </g>
              <g transform="translate(49.16,65.96)" id="img-3f3141ff-82">
                <path d="M-0.26,-22.36 L 0.26 -22.36 0.26 22.36 -0.26 22.36 z" class="primitive"/>
              </g>
              <g transform="translate(49.63,59.86)" id="img-3f3141ff-83">
                <path d="M-0.26,-28.46 L 0.26 -28.46 0.26 28.46 -0.26 28.46 z" class="primitive"/>
              </g>
              <g transform="translate(50.1,63.93)" id="img-3f3141ff-84">
                <path d="M-0.26,-24.4 L 0.26 -24.4 0.26 24.4 -0.26 24.4 z" class="primitive"/>
              </g>
              <g transform="translate(50.56,60.88)" id="img-3f3141ff-85">
                <path d="M-0.26,-27.45 L 0.26 -27.45 0.26 27.45 -0.26 27.45 z" class="primitive"/>
              </g>
              <g transform="translate(51.03,56.81)" id="img-3f3141ff-86">
                <path d="M-0.26,-31.51 L 0.26 -31.51 0.26 31.51 -0.26 31.51 z" class="primitive"/>
              </g>
              <g transform="translate(51.5,65.96)" id="img-3f3141ff-87">
                <path d="M-0.26,-22.36 L 0.26 -22.36 0.26 22.36 -0.26 22.36 z" class="primitive"/>
              </g>
              <g transform="translate(51.97,65.96)" id="img-3f3141ff-88">
                <path d="M-0.26,-22.36 L 0.26 -22.36 0.26 22.36 -0.26 22.36 z" class="primitive"/>
              </g>
              <g transform="translate(52.43,60.88)" id="img-3f3141ff-89">
                <path d="M-0.26,-27.45 L 0.26 -27.45 0.26 27.45 -0.26 27.45 z" class="primitive"/>
              </g>
              <g transform="translate(52.9,57.83)" id="img-3f3141ff-90">
                <path d="M-0.26,-30.5 L 0.26 -30.5 0.26 30.5 -0.26 30.5 z" class="primitive"/>
              </g>
              <g transform="translate(53.37,61.9)" id="img-3f3141ff-91">
                <path d="M-0.26,-26.43 L 0.26 -26.43 0.26 26.43 -0.26 26.43 z" class="primitive"/>
              </g>
              <g transform="translate(53.83,72.06)" id="img-3f3141ff-92">
                <path d="M-0.26,-16.27 L 0.26 -16.27 0.26 16.27 -0.26 16.27 z" class="primitive"/>
              </g>
              <g transform="translate(54.3,68)" id="img-3f3141ff-93">
                <path d="M-0.26,-20.33 L 0.26 -20.33 0.26 20.33 -0.26 20.33 z" class="primitive"/>
              </g>
              <g transform="translate(54.77,64.95)" id="img-3f3141ff-94">
                <path d="M-0.26,-23.38 L 0.26 -23.38 0.26 23.38 -0.26 23.38 z" class="primitive"/>
              </g>
              <g transform="translate(55.24,70.03)" id="img-3f3141ff-95">
                <path d="M-0.26,-18.3 L 0.26 -18.3 0.26 18.3 -0.26 18.3 z" class="primitive"/>
              </g>
              <g transform="translate(55.7,65.96)" id="img-3f3141ff-96">
                <path d="M-0.26,-22.36 L 0.26 -22.36 0.26 22.36 -0.26 22.36 z" class="primitive"/>
              </g>
              <g transform="translate(56.17,68)" id="img-3f3141ff-97">
                <path d="M-0.26,-20.33 L 0.26 -20.33 0.26 20.33 -0.26 20.33 z" class="primitive"/>
              </g>
              <g transform="translate(56.64,65.96)" id="img-3f3141ff-98">
                <path d="M-0.26,-22.36 L 0.26 -22.36 0.26 22.36 -0.26 22.36 z" class="primitive"/>
              </g>
              <g transform="translate(57.1,68)" id="img-3f3141ff-99">
                <path d="M-0.26,-20.33 L 0.26 -20.33 0.26 20.33 -0.26 20.33 z" class="primitive"/>
              </g>
              <g transform="translate(57.57,69.01)" id="img-3f3141ff-100">
                <path d="M-0.26,-19.32 L 0.26 -19.32 0.26 19.32 -0.26 19.32 z" class="primitive"/>
              </g>
              <g transform="translate(58.04,74.09)" id="img-3f3141ff-101">
                <path d="M-0.26,-14.23 L 0.26 -14.23 0.26 14.23 -0.26 14.23 z" class="primitive"/>
              </g>
              <g transform="translate(58.51,68)" id="img-3f3141ff-102">
                <path d="M-0.26,-20.33 L 0.26 -20.33 0.26 20.33 -0.26 20.33 z" class="primitive"/>
              </g>
              <g transform="translate(58.97,70.03)" id="img-3f3141ff-103">
                <path d="M-0.26,-18.3 L 0.26 -18.3 0.26 18.3 -0.26 18.3 z" class="primitive"/>
              </g>
              <g transform="translate(59.44,78.16)" id="img-3f3141ff-104">
                <path d="M-0.26,-10.17 L 0.26 -10.17 0.26 10.17 -0.26 10.17 z" class="primitive"/>
              </g>
              <g transform="translate(59.91,80.19)" id="img-3f3141ff-105">
                <path d="M-0.26,-8.13 L 0.26 -8.13 0.26 8.13 -0.26 8.13 z" class="primitive"/>
              </g>
              <g transform="translate(60.37,77.14)" id="img-3f3141ff-106">
                <path d="M-0.26,-11.18 L 0.26 -11.18 0.26 11.18 -0.26 11.18 z" class="primitive"/>
              </g>
              <g transform="translate(60.84,79.18)" id="img-3f3141ff-107">
                <path d="M-0.26,-9.15 L 0.26 -9.15 0.26 9.15 -0.26 9.15 z" class="primitive"/>
              </g>
              <g transform="translate(61.31,76.13)" id="img-3f3141ff-108">
                <path d="M-0.26,-12.2 L 0.26 -12.2 0.26 12.2 -0.26 12.2 z" class="primitive"/>
              </g>
              <g transform="translate(61.78,79.18)" id="img-3f3141ff-109">
                <path d="M-0.26,-9.15 L 0.26 -9.15 0.26 9.15 -0.26 9.15 z" class="primitive"/>
              </g>
              <g transform="translate(62.24,80.19)" id="img-3f3141ff-110">
                <path d="M-0.26,-8.13 L 0.26 -8.13 0.26 8.13 -0.26 8.13 z" class="primitive"/>
              </g>
              <g transform="translate(62.71,85.28)" id="img-3f3141ff-111">
                <path d="M-0.26,-3.05 L 0.26 -3.05 0.26 3.05 -0.26 3.05 z" class="primitive"/>
              </g>
              <g transform="translate(63.18,80.19)" id="img-3f3141ff-112">
                <path d="M-0.26,-8.13 L 0.26 -8.13 0.26 8.13 -0.26 8.13 z" class="primitive"/>
              </g>
              <g transform="translate(63.64,84.26)" id="img-3f3141ff-113">
                <path d="M-0.26,-4.07 L 0.26 -4.07 0.26 4.07 -0.26 4.07 z" class="primitive"/>
              </g>
              <g transform="translate(64.11,80.19)" id="img-3f3141ff-114">
                <path d="M-0.26,-8.13 L 0.26 -8.13 0.26 8.13 -0.26 8.13 z" class="primitive"/>
              </g>
              <g transform="translate(64.58,85.28)" id="img-3f3141ff-115">
                <path d="M-0.26,-3.05 L 0.26 -3.05 0.26 3.05 -0.26 3.05 z" class="primitive"/>
              </g>
              <g transform="translate(65.04,87.31)" id="img-3f3141ff-116">
                <path d="M-0.26,-1.02 L 0.26 -1.02 0.26 1.02 -0.26 1.02 z" class="primitive"/>
              </g>
              <g transform="translate(65.51,86.29)" id="img-3f3141ff-117">
                <path d="M-0.26,-2.03 L 0.26 -2.03 0.26 2.03 -0.26 2.03 z" class="primitive"/>
              </g>
              <g transform="translate(65.98,84.26)" id="img-3f3141ff-118">
                <path d="M-0.26,-4.07 L 0.26 -4.07 0.26 4.07 -0.26 4.07 z" class="primitive"/>
              </g>
              <g transform="translate(66.45,87.31)" id="img-3f3141ff-119">
                <path d="M-0.26,-1.02 L 0.26 -1.02 0.26 1.02 -0.26 1.02 z" class="primitive"/>
              </g>
              <g transform="translate(66.91,87.31)" id="img-3f3141ff-120">
                <path d="M-0.26,-1.02 L 0.26 -1.02 0.26 1.02 -0.26 1.02 z" class="primitive"/>
              </g>
              <g transform="translate(67.38,86.29)" id="img-3f3141ff-121">
                <path d="M-0.26,-2.03 L 0.26 -2.03 0.26 2.03 -0.26 2.03 z" class="primitive"/>
              </g>
              <g transform="translate(67.85,88.33)" id="img-3f3141ff-122">
                <path d="M-0.26,-0 L 0.26 -0 0.26 0 -0.26 0 z" class="primitive"/>
              </g>
              <g transform="translate(68.31,86.29)" id="img-3f3141ff-123">
                <path d="M-0.26,-2.03 L 0.26 -2.03 0.26 2.03 -0.26 2.03 z" class="primitive"/>
              </g>
              <g transform="translate(68.78,88.33)" id="img-3f3141ff-124">
                <path d="M-0.26,-0 L 0.26 -0 0.26 0 -0.26 0 z" class="primitive"/>
              </g>
              <g transform="translate(69.25,87.31)" id="img-3f3141ff-125">
                <path d="M-0.26,-1.02 L 0.26 -1.02 0.26 1.02 -0.26 1.02 z" class="primitive"/>
              </g>
              <g transform="translate(69.72,88.33)" id="img-3f3141ff-126">
                <path d="M-0.26,-0 L 0.26 -0 0.26 0 -0.26 0 z" class="primitive"/>
              </g>
              <g transform="translate(70.18,88.33)" id="img-3f3141ff-127">
                <path d="M-0.26,-0 L 0.26 -0 0.26 0 -0.26 0 z" class="primitive"/>
              </g>
              <g transform="translate(70.65,88.33)" id="img-3f3141ff-128">
                <path d="M-0.26,-0 L 0.26 -0 0.26 0 -0.26 0 z" class="primitive"/>
              </g>
              <g transform="translate(71.12,88.33)" id="img-3f3141ff-129">
                <path d="M-0.26,-0 L 0.26 -0 0.26 0 -0.26 0 z" class="primitive"/>
              </g>
              <g transform="translate(71.58,87.31)" id="img-3f3141ff-130">
                <path d="M-0.26,-1.02 L 0.26 -1.02 0.26 1.02 -0.26 1.02 z" class="primitive"/>
              </g>
            </g>
          </g>
        </g>
      </g>
    </g>
  </g>
  <g class="guide ylabels" font-size="2.82" font-family="'PT Sans Caption','Helvetica Neue','Helvetica',sans-serif" fill="#6C606B" id="img-3f3141ff-131">
    <g transform="translate(16.96,88.33)" id="img-3f3141ff-132">
      <g class="primitive">
        <text text-anchor="end" dy="0.35em">0</text>
      </g>
    </g>
    <g transform="translate(16.96,68)" id="img-3f3141ff-133">
      <g class="primitive">
        <text text-anchor="end" dy="0.35em">10</text>
      </g>
    </g>
    <g transform="translate(16.96,47.66)" id="img-3f3141ff-134">
      <g class="primitive">
        <text text-anchor="end" dy="0.35em">20</text>
      </g>
    </g>
    <g transform="translate(16.96,27.33)" id="img-3f3141ff-135">
      <g class="primitive">
        <text text-anchor="end" dy="0.35em">30</text>
      </g>
    </g>
    <g transform="translate(16.96,7)" id="img-3f3141ff-136">
      <g class="primitive">
        <text text-anchor="end" dy="0.35em">40</text>
      </g>
    </g>
  </g>
  <g font-size="3.88" font-family="'PT Sans','Helvetica Neue','Helvetica',sans-serif" fill="#564A55" stroke="#000000" stroke-opacity="0.000" id="img-3f3141ff-137">
    <g transform="translate(8.81,45.66)" id="img-3f3141ff-138">
      <g class="primitive">
        <text text-anchor="middle" dy="0.35em" transform="rotate(-90,0, 2)">frequency</text>
      </g>
    </g>
  </g>
</g>
<defs>
  <clipPath id="img-3f3141ff-11">
    <path d="M17.96,5 L 81.59 5 81.59 90.33 17.96 90.33" />
  </clipPath>
</defs>
</svg>
