<?xml version="1.0" encoding="UTF-8"?>
<svg xmlns="http://www.w3.org/2000/svg"
     xmlns:xlink="http://www.w3.org/1999/xlink"
     xmlns:gadfly="http://www.gadflyjl.org/ns"
     version="1.2"
     width="141.42mm" height="100mm" viewBox="0 0 141.42 100"
     stroke="none"
     fill="#000000"
     stroke-width="0.3"
     font-size="3.88"
>
<defs>
  <marker id="arrow" markerWidth="15" markerHeight="7" refX="5" refY="3.5" orient="auto" markerUnits="strokeWidth">
    <path d="M0,0 L15,3.5 L0,7 z" stroke="context-stroke" fill="context-stroke"/>
  </marker>
</defs>
<g class="plotroot xscalable yscalable" id="img-b6f5b6a3-1">
  <g class="guide xlabels" font-size="2.82" font-family="'PT Sans Caption','Helvetica Neue','Helvetica',sans-serif" fill="#6C606B" id="img-b6f5b6a3-2">
    <g transform="translate(19.96,91.33)">
      <g class="primitive">
        <text text-anchor="middle" dy="0.6em">14.90</text>
      </g>
    </g>
    <g transform="translate(32.16,91.33)">
      <g class="primitive">
        <text text-anchor="middle" dy="0.6em">14.95</text>
      </g>
    </g>
    <g transform="translate(44.36,91.33)">
      <g class="primitive">
        <text text-anchor="middle" dy="0.6em">15.00</text>
      </g>
    </g>
    <g transform="translate(56.56,91.33)">
      <g class="primitive">
        <text text-anchor="middle" dy="0.6em">15.05</text>
      </g>
    </g>
    <g transform="translate(68.77,91.33)">
      <g class="primitive">
        <text text-anchor="middle" dy="0.6em">15.10</text>
      </g>
    </g>
    <g transform="translate(80.97,91.33)">
      <g class="primitive">
        <text text-anchor="middle" dy="0.6em">15.15</text>
      </g>
    </g>
  </g>
  <g class="guide colorkey" id="img-b6f5b6a3-3">
    <g class="color_coding_coding_coding_noncoding_4-path" id="img-b6f5b6a3-4">
      <g fill="#4C404B" font-size="2.82" font-family="'PT Sans','Helvetica Neue','Helvetica',sans-serif" id="img-b6f5b6a3-5">
        <g transform="translate(86.78,49.48)" id="img-b6f5b6a3-6">
          <g class="primitive">
            <text dy="0.35em">coding_coding_coding_noncoding_4-path</text>
          </g>
        </g>
      </g>
      <g fill-opacity="1" fill="#00BFFF" stroke="#FFFFFF" id="img-b6f5b6a3-7">
        <g transform="translate(84.87,49.48)" id="img-b6f5b6a3-8">
          <path d="M-0.91,-0.91 L 0.91 -0.91 0.91 0.91 -0.91 0.91 z" class="primitive"/>
        </g>
      </g>
    </g>
    <g fill="#362A35" font-size="3.88" font-family="'PT Sans','Helvetica Neue','Helvetica',sans-serif" stroke="#000000" stroke-opacity="0.000" id="img-b6f5b6a3-9">
      <g transform="translate(83.97,45.66)" id="img-b6f5b6a3-10">
        <g class="primitive">
          <text dy="-0em">graphlet</text>
        </g>
      </g>
    </g>
  </g>
  <g clip-path="url(#img-b6f5b6a3-11)">
    <g id="img-b6f5b6a3-12">
      <g pointer-events="visible" stroke-width="0.3" fill="#000000" fill-opacity="0.000" stroke="#000000" stroke-opacity="0.000" class="guide background" id="img-b6f5b6a3-13">
        <g transform="translate(50.46,47.66)" id="img-b6f5b6a3-14">
          <path d="M-32.5,-42.66 L 32.5 -42.66 32.5 42.66 -32.5 42.66 z" class="primitive"/>
        </g>
      </g>
      <g class="guide ygridlines xfixed" stroke-dasharray="0.5,0.5" stroke-width="0.2" stroke="#D0D0E0" id="img-b6f5b6a3-15">
        <g transform="translate(50.46,88.33)" id="img-b6f5b6a3-16">
          <path fill="none" d="M-32.5,0 L 32.5 0" class="primitive"/>
        </g>
        <g transform="translate(50.46,68)" id="img-b6f5b6a3-17">
          <path fill="none" d="M-32.5,0 L 32.5 0" class="primitive"/>
        </g>
        <g transform="translate(50.46,47.66)" id="img-b6f5b6a3-18">
          <path fill="none" d="M-32.5,0 L 32.5 0" class="primitive"/>
        </g>
        <g transform="translate(50.46,27.33)" id="img-b6f5b6a3-19">
          <path fill="none" d="M-32.5,0 L 32.5 0" class="primitive"/>
        </g>
        <g transform="translate(50.46,7)" id="img-b6f5b6a3-20">
          <path fill="none" d="M-32.5,0 L 32.5 0" class="primitive"/>
        </g>
      </g>
      <g class="guide xgridlines yfixed" stroke-dasharray="0.5,0.5" stroke-width="0.2" stroke="#D0D0E0" id="img-b6f5b6a3-21">
        <g transform="translate(19.96,47.66)" id="img-b6f5b6a3-22">
          <path fill="none" d="M0,-42.66 L 0 42.66" class="primitive"/>
        </g>
        <g transform="translate(32.16,47.66)" id="img-b6f5b6a3-23">
          <path fill="none" d="M0,-42.66 L 0 42.66" class="primitive"/>
        </g>
        <g transform="translate(44.36,47.66)" id="img-b6f5b6a3-24">
          <path fill="none" d="M0,-42.66 L 0 42.66" class="primitive"/>
        </g>
        <g transform="translate(56.56,47.66)" id="img-b6f5b6a3-25">
          <path fill="none" d="M0,-42.66 L 0 42.66" class="primitive"/>
        </g>
        <g transform="translate(68.77,47.66)" id="img-b6f5b6a3-26">
          <path fill="none" d="M0,-42.66 L 0 42.66" class="primitive"/>
        </g>
        <g transform="translate(80.97,47.66)" id="img-b6f5b6a3-27">
          <path fill="none" d="M0,-42.66 L 0 42.66" class="primitive"/>
        </g>
      </g>
      <g class="plotpanel" id="img-b6f5b6a3-28">
        <metadata>
          <boundingbox value="17.95833333333333mm 5.0mm 65.00968957064283mm 85.32666666666667mm"/>
          <unitbox value="14.891804580493382 40.98368718747438 0.26639083901323746 -41.96737437494876"/>
        </metadata>
        <g shape-rendering="crispEdges" stroke-width="0.3" id="img-b6f5b6a3-29">
          <g stroke="#000000" stroke-opacity="0.000" class="geometry" id="img-b6f5b6a3-30">
            <g fill="#00BFFF" id="img-b6f5b6a3-31">
              <g transform="translate(21.81,87.31)" id="img-b6f5b6a3-32">
                <path d="M-0.27,-1.02 L 0.27 -1.02 0.27 1.02 -0.27 1.02 z" class="primitive"/>
              </g>
              <g transform="translate(22.3,88.33)" id="img-b6f5b6a3-33">
                <path d="M-0.27,-0 L 0.27 -0 0.27 0 -0.27 0 z" class="primitive"/>
              </g>
              <g transform="translate(22.79,88.33)" id="img-b6f5b6a3-34">
                <path d="M-0.27,-0 L 0.27 -0 0.27 0 -0.27 0 z" class="primitive"/>
              </g>
              <g transform="translate(23.28,88.33)" id="img-b6f5b6a3-35">
                <path d="M-0.27,-0 L 0.27 -0 0.27 0 -0.27 0 z" class="primitive"/>
              </g>
              <g transform="translate(23.77,88.33)" id="img-b6f5b6a3-36">
                <path d="M-0.27,-0 L 0.27 -0 0.27 0 -0.27 0 z" class="primitive"/>
              </g>
              <g transform="translate(24.26,88.33)" id="img-b6f5b6a3-37">
                <path d="M-0.27,-0 L 0.27 -0 0.27 0 -0.27 0 z" class="primitive"/>
              </g>
              <g transform="translate(24.75,87.31)" id="img-b6f5b6a3-38">
                <path d="M-0.27,-1.02 L 0.27 -1.02 0.27 1.02 -0.27 1.02 z" class="primitive"/>
              </g>
              <g transform="translate(25.24,87.31)" id="img-b6f5b6a3-39">
                <path d="M-0.27,-1.02 L 0.27 -1.02 0.27 1.02 -0.27 1.02 z" class="primitive"/>
              </g>
              <g transform="translate(25.73,88.33)" id="img-b6f5b6a3-40">
                <path d="M-0.27,-0 L 0.27 -0 0.27 0 -0.27 0 z" class="primitive"/>
              </g>
              <g transform="translate(26.22,86.29)" id="img-b6f5b6a3-41">
                <path d="M-0.27,-2.03 L 0.27 -2.03 0.27 2.03 -0.27 2.03 z" class="primitive"/>
              </g>
              <g transform="translate(26.71,88.33)" id="img-b6f5b6a3-42">
                <path d="M-0.27,-0 L 0.27 -0 0.27 0 -0.27 0 z" class="primitive"/>
              </g>
              <g transform="translate(27.2,87.31)" id="img-b6f5b6a3-43">
                <path d="M-0.27,-1.02 L 0.27 -1.02 0.27 1.02 -0.27 1.02 z" class="primitive"/>
              </g>
              <g transform="translate(27.69,88.33)" id="img-b6f5b6a3-44">
                <path d="M-0.27,-0 L 0.27 -0 0.27 0 -0.27 0 z" class="primitive"/>
              </g>
              <g transform="translate(28.18,87.31)" id="img-b6f5b6a3-45">
                <path d="M-0.27,-1.02 L 0.27 -1.02 0.27 1.02 -0.27 1.02 z" class="primitive"/>
              </g>
              <g transform="translate(28.67,87.31)" id="img-b6f5b6a3-46">
                <path d="M-0.27,-1.02 L 0.27 -1.02 0.27 1.02 -0.27 1.02 z" class="primitive"/>
              </g>
              <g transform="translate(29.16,86.29)" id="img-b6f5b6a3-47">
                <path d="M-0.27,-2.03 L 0.27 -2.03 0.27 2.03 -0.27 2.03 z" class="primitive"/>
              </g>
              <g transform="translate(29.65,86.29)" id="img-b6f5b6a3-48">
                <path d="M-0.27,-2.03 L 0.27 -2.03 0.27 2.03 -0.27 2.03 z" class="primitive"/>
              </g>
              <g transform="translate(30.14,84.26)" id="img-b6f5b6a3-49">
                <path d="M-0.27,-4.07 L 0.27 -4.07 0.27 4.07 -0.27 4.07 z" class="primitive"/>
              </g>
              <g transform="translate(30.63,84.26)" id="img-b6f5b6a3-50">
                <path d="M-0.27,-4.07 L 0.27 -4.07 0.27 4.07 -0.27 4.07 z" class="primitive"/>
              </g>
              <g transform="translate(31.12,80.19)" id="img-b6f5b6a3-51">
                <path d="M-0.27,-8.13 L 0.27 -8.13 0.27 8.13 -0.27 8.13 z" class="primitive"/>
              </g>
              <g transform="translate(31.61,81.21)" id="img-b6f5b6a3-52">
                <path d="M-0.27,-7.12 L 0.27 -7.12 0.27 7.12 -0.27 7.12 z" class="primitive"/>
              </g>
              <g transform="translate(32.1,86.29)" id="img-b6f5b6a3-53">
                <path d="M-0.27,-2.03 L 0.27 -2.03 0.27 2.03 -0.27 2.03 z" class="primitive"/>
              </g>
              <g transform="translate(32.59,86.29)" id="img-b6f5b6a3-54">
                <path d="M-0.27,-2.03 L 0.27 -2.03 0.27 2.03 -0.27 2.03 z" class="primitive"/>
              </g>
              <g transform="translate(33.08,80.19)" id="img-b6f5b6a3-55">
                <path d="M-0.27,-8.13 L 0.27 -8.13 0.27 8.13 -0.27 8.13 z" class="primitive"/>
              </g>
              <g transform="translate(33.57,81.21)" id="img-b6f5b6a3-56">
                <path d="M-0.27,-7.12 L 0.27 -7.12 0.27 7.12 -0.27 7.12 z" class="primitive"/>
              </g>
              <g transform="translate(34.06,84.26)" id="img-b6f5b6a3-57">
                <path d="M-0.27,-4.07 L 0.27 -4.07 0.27 4.07 -0.27 4.07 z" class="primitive"/>
              </g>
              <g transform="translate(34.55,88.33)" id="img-b6f5b6a3-58">
                <path d="M-0.27,-0 L 0.27 -0 0.27 0 -0.27 0 z" class="primitive"/>
              </g>
              <g transform="translate(35.04,81.21)" id="img-b6f5b6a3-59">
                <path d="M-0.27,-7.12 L 0.27 -7.12 0.27 7.12 -0.27 7.12 z" class="primitive"/>
              </g>
              <g transform="translate(35.53,84.26)" id="img-b6f5b6a3-60">
                <path d="M-0.27,-4.07 L 0.27 -4.07 0.27 4.07 -0.27 4.07 z" class="primitive"/>
              </g>
              <g transform="translate(36.02,77.14)" id="img-b6f5b6a3-61">
                <path d="M-0.27,-11.18 L 0.27 -11.18 0.27 11.18 -0.27 11.18 z" class="primitive"/>
              </g>
              <g transform="translate(36.51,71.04)" id="img-b6f5b6a3-62">
                <path d="M-0.27,-17.28 L 0.27 -17.28 0.27 17.28 -0.27 17.28 z" class="primitive"/>
              </g>
              <g transform="translate(37,75.11)" id="img-b6f5b6a3-63">
                <path d="M-0.27,-13.22 L 0.27 -13.22 0.27 13.22 -0.27 13.22 z" class="primitive"/>
              </g>
              <g transform="translate(37.49,80.19)" id="img-b6f5b6a3-64">
                <path d="M-0.27,-8.13 L 0.27 -8.13 0.27 8.13 -0.27 8.13 z" class="primitive"/>
              </g>
              <g transform="translate(37.98,77.14)" id="img-b6f5b6a3-65">
                <path d="M-0.27,-11.18 L 0.27 -11.18 0.27 11.18 -0.27 11.18 z" class="primitive"/>
              </g>
              <g transform="translate(38.47,76.13)" id="img-b6f5b6a3-66">
                <path d="M-0.27,-12.2 L 0.27 -12.2 0.27 12.2 -0.27 12.2 z" class="primitive"/>
              </g>
              <g transform="translate(38.96,66.98)" id="img-b6f5b6a3-67">
                <path d="M-0.27,-21.35 L 0.27 -21.35 0.27 21.35 -0.27 21.35 z" class="primitive"/>
              </g>
              <g transform="translate(39.45,66.98)" id="img-b6f5b6a3-68">
                <path d="M-0.27,-21.35 L 0.27 -21.35 0.27 21.35 -0.27 21.35 z" class="primitive"/>
              </g>
              <g transform="translate(39.94,81.21)" id="img-b6f5b6a3-69">
                <path d="M-0.27,-7.12 L 0.27 -7.12 0.27 7.12 -0.27 7.12 z" class="primitive"/>
              </g>
              <g transform="translate(40.43,65.96)" id="img-b6f5b6a3-70">
                <path d="M-0.27,-22.36 L 0.27 -22.36 0.27 22.36 -0.27 22.36 z" class="primitive"/>
              </g>
              <g transform="translate(40.92,69.01)" id="img-b6f5b6a3-71">
                <path d="M-0.27,-19.32 L 0.27 -19.32 0.27 19.32 -0.27 19.32 z" class="primitive"/>
              </g>
              <g transform="translate(41.41,69.01)" id="img-b6f5b6a3-72">
                <path d="M-0.27,-19.32 L 0.27 -19.32 0.27 19.32 -0.27 19.32 z" class="primitive"/>
              </g>
              <g transform="translate(41.9,65.96)" id="img-b6f5b6a3-73">
                <path d="M-0.27,-22.36 L 0.27 -22.36 0.27 22.36 -0.27 22.36 z" class="primitive"/>
              </g>
              <g transform="translate(42.39,57.83)" id="img-b6f5b6a3-74">
                <path d="M-0.27,-30.5 L 0.27 -30.5 0.27 30.5 -0.27 30.5 z" class="primitive"/>
              </g>
              <g transform="translate(42.88,73.08)" id="img-b6f5b6a3-75">
                <path d="M-0.27,-15.25 L 0.27 -15.25 0.27 15.25 -0.27 15.25 z" class="primitive"/>
              </g>
              <g transform="translate(43.37,62.91)" id="img-b6f5b6a3-76">
                <path d="M-0.27,-25.41 L 0.27 -25.41 0.27 25.41 -0.27 25.41 z" class="primitive"/>
              </g>
              <g transform="translate(43.86,65.96)" id="img-b6f5b6a3-77">
                <path d="M-0.27,-22.36 L 0.27 -22.36 0.27 22.36 -0.27 22.36 z" class="primitive"/>
              </g>
              <g transform="translate(44.36,53.76)" id="img-b6f5b6a3-78">
                <path d="M-0.27,-34.56 L 0.27 -34.56 0.27 34.56 -0.27 34.56 z" class="primitive"/>
              </g>
              <g transform="translate(44.85,54.78)" id="img-b6f5b6a3-79">
                <path d="M-0.27,-33.55 L 0.27 -33.55 0.27 33.55 -0.27 33.55 z" class="primitive"/>
              </g>
              <g transform="translate(45.34,62.91)" id="img-b6f5b6a3-80">
                <path d="M-0.27,-25.41 L 0.27 -25.41 0.27 25.41 -0.27 25.41 z" class="primitive"/>
              </g>
              <g transform="translate(45.83,61.9)" id="img-b6f5b6a3-81">
                <path d="M-0.27,-26.43 L 0.27 -26.43 0.27 26.43 -0.27 26.43 z" class="primitive"/>
              </g>
              <g transform="translate(46.32,57.83)" id="img-b6f5b6a3-82">
                <path d="M-0.27,-30.5 L 0.27 -30.5 0.27 30.5 -0.27 30.5 z" class="primitive"/>
              </g>
              <g transform="translate(46.81,62.91)" id="img-b6f5b6a3-83">
                <path d="M-0.27,-25.41 L 0.27 -25.41 0.27 25.41 -0.27 25.41 z" class="primitive"/>
              </g>
              <g transform="translate(47.3,63.93)" id="img-b6f5b6a3-84">
                <path d="M-0.27,-24.4 L 0.27 -24.4 0.27 24.4 -0.27 24.4 z" class="primitive"/>
              </g>
              <g transform="translate(47.79,59.86)" id="img-b6f5b6a3-85">
                <path d="M-0.27,-28.46 L 0.27 -28.46 0.27 28.46 -0.27 28.46 z" class="primitive"/>
              </g>
              <g transform="translate(48.28,54.78)" id="img-b6f5b6a3-86">
                <path d="M-0.27,-33.55 L 0.27 -33.55 0.27 33.55 -0.27 33.55 z" class="primitive"/>
              </g>
              <g transform="translate(48.77,71.04)" id="img-b6f5b6a3-87">
                <path d="M-0.27,-17.28 L 0.27 -17.28 0.27 17.28 -0.27 17.28 z" class="primitive"/>
              </g>
              <g transform="translate(49.26,59.86)" id="img-b6f5b6a3-88">
                <path d="M-0.27,-28.46 L 0.27 -28.46 0.27 28.46 -0.27 28.46 z" class="primitive"/>
              </g>
              <g transform="translate(49.75,68)" id="img-b6f5b6a3-89">
                <path d="M-0.27,-20.33 L 0.27 -20.33 0.27 20.33 -0.27 20.33 z" class="primitive"/>
              </g>
              <g transform="translate(50.24,68)" id="img-b6f5b6a3-90">
                <path d="M-0.27,-20.33 L 0.27 -20.33 0.27 20.33 -0.27 20.33 z" class="primitive"/>
              </g>
              <g transform="translate(50.73,54.78)" id="img-b6f5b6a3-91">
                <path d="M-0.27,-33.55 L 0.27 -33.55 0.27 33.55 -0.27 33.55 z" class="primitive"/>
              </g>
              <g transform="translate(51.22,63.93)" id="img-b6f5b6a3-92">
                <path d="M-0.27,-24.4 L 0.27 -24.4 0.27 24.4 -0.27 24.4 z" class="primitive"/>
              </g>
              <g transform="translate(51.71,71.04)" id="img-b6f5b6a3-93">
                <path d="M-0.27,-17.28 L 0.27 -17.28 0.27 17.28 -0.27 17.28 z" class="primitive"/>
              </g>
              <g transform="translate(52.2,69.01)" id="img-b6f5b6a3-94">
                <path d="M-0.27,-19.32 L 0.27 -19.32 0.27 19.32 -0.27 19.32 z" class="primitive"/>
              </g>
              <g transform="translate(52.69,62.91)" id="img-b6f5b6a3-95">
                <path d="M-0.27,-25.41 L 0.27 -25.41 0.27 25.41 -0.27 25.41 z" class="primitive"/>
              </g>
              <g transform="translate(53.18,73.08)" id="img-b6f5b6a3-96">
                <path d="M-0.27,-15.25 L 0.27 -15.25 0.27 15.25 -0.27 15.25 z" class="primitive"/>
              </g>
              <g transform="translate(53.67,69.01)" id="img-b6f5b6a3-97">
                <path d="M-0.27,-19.32 L 0.27 -19.32 0.27 19.32 -0.27 19.32 z" class="primitive"/>
              </g>
              <g transform="translate(54.16,75.11)" id="img-b6f5b6a3-98">
                <path d="M-0.27,-13.22 L 0.27 -13.22 0.27 13.22 -0.27 13.22 z" class="primitive"/>
              </g>
              <g transform="translate(54.65,73.08)" id="img-b6f5b6a3-99">
                <path d="M-0.27,-15.25 L 0.27 -15.25 0.27 15.25 -0.27 15.25 z" class="primitive"/>
              </g>
              <g transform="translate(55.14,78.16)" id="img-b6f5b6a3-100">
                <path d="M-0.27,-10.17 L 0.27 -10.17 0.27 10.17 -0.27 10.17 z" class="primitive"/>
              </g>
              <g transform="translate(55.63,76.13)" id="img-b6f5b6a3-101">
                <path d="M-0.27,-12.2 L 0.27 -12.2 0.27 12.2 -0.27 12.2 z" class="primitive"/>
              </g>
              <g transform="translate(56.12,70.03)" id="img-b6f5b6a3-102">
                <path d="M-0.27,-18.3 L 0.27 -18.3 0.27 18.3 -0.27 18.3 z" class="primitive"/>
              </g>
              <g transform="translate(56.61,77.14)" id="img-b6f5b6a3-103">
                <path d="M-0.27,-11.18 L 0.27 -11.18 0.27 11.18 -0.27 11.18 z" class="primitive"/>
              </g>
              <g transform="translate(57.1,83.24)" id="img-b6f5b6a3-104">
                <path d="M-0.27,-5.08 L 0.27 -5.08 0.27 5.08 -0.27 5.08 z" class="primitive"/>
              </g>
              <g transform="translate(57.59,86.29)" id="img-b6f5b6a3-105">
                <path d="M-0.27,-2.03 L 0.27 -2.03 0.27 2.03 -0.27 2.03 z" class="primitive"/>
              </g>
              <g transform="translate(58.08,82.23)" id="img-b6f5b6a3-106">
                <path d="M-0.27,-6.1 L 0.27 -6.1 0.27 6.1 -0.27 6.1 z" class="primitive"/>
              </g>
              <g transform="translate(58.57,84.26)" id="img-b6f5b6a3-107">
                <path d="M-0.27,-4.07 L 0.27 -4.07 0.27 4.07 -0.27 4.07 z" class="primitive"/>
              </g>
              <g transform="translate(59.06,80.19)" id="img-b6f5b6a3-108">
                <path d="M-0.27,-8.13 L 0.27 -8.13 0.27 8.13 -0.27 8.13 z" class="primitive"/>
              </g>
              <g transform="translate(59.55,82.23)" id="img-b6f5b6a3-109">
                <path d="M-0.27,-6.1 L 0.27 -6.1 0.27 6.1 -0.27 6.1 z" class="primitive"/>
              </g>
              <g transform="translate(60.04,85.28)" id="img-b6f5b6a3-110">
                <path d="M-0.27,-3.05 L 0.27 -3.05 0.27 3.05 -0.27 3.05 z" class="primitive"/>
              </g>
              <g transform="translate(60.53,85.28)" id="img-b6f5b6a3-111">
                <path d="M-0.27,-3.05 L 0.27 -3.05 0.27 3.05 -0.27 3.05 z" class="primitive"/>
              </g>
              <g transform="translate(61.02,84.26)" id="img-b6f5b6a3-112">
                <path d="M-0.27,-4.07 L 0.27 -4.07 0.27 4.07 -0.27 4.07 z" class="primitive"/>
              </g>
              <g transform="translate(61.51,88.33)" id="img-b6f5b6a3-113">
                <path d="M-0.27,-0 L 0.27 -0 0.27 0 -0.27 0 z" class="primitive"/>
              </g>
              <g transform="translate(62,85.28)" id="img-b6f5b6a3-114">
                <path d="M-0.27,-3.05 L 0.27 -3.05 0.27 3.05 -0.27 3.05 z" class="primitive"/>
              </g>
              <g transform="translate(62.49,84.26)" id="img-b6f5b6a3-115">
                <path d="M-0.27,-4.07 L 0.27 -4.07 0.27 4.07 -0.27 4.07 z" class="primitive"/>
              </g>
              <g transform="translate(62.98,85.28)" id="img-b6f5b6a3-116">
                <path d="M-0.27,-3.05 L 0.27 -3.05 0.27 3.05 -0.27 3.05 z" class="primitive"/>
              </g>
              <g transform="translate(63.47,85.28)" id="img-b6f5b6a3-117">
                <path d="M-0.27,-3.05 L 0.27 -3.05 0.27 3.05 -0.27 3.05 z" class="primitive"/>
              </g>
              <g transform="translate(63.96,88.33)" id="img-b6f5b6a3-118">
                <path d="M-0.27,-0 L 0.27 -0 0.27 0 -0.27 0 z" class="primitive"/>
              </g>
              <g transform="translate(64.45,87.31)" id="img-b6f5b6a3-119">
                <path d="M-0.27,-1.02 L 0.27 -1.02 0.27 1.02 -0.27 1.02 z" class="primitive"/>
              </g>
              <g transform="translate(64.94,88.33)" id="img-b6f5b6a3-120">
                <path d="M-0.27,-0 L 0.27 -0 0.27 0 -0.27 0 z" class="primitive"/>
              </g>
              <g transform="translate(65.43,88.33)" id="img-b6f5b6a3-121">
                <path d="M-0.27,-0 L 0.27 -0 0.27 0 -0.27 0 z" class="primitive"/>
              </g>
              <g transform="translate(65.92,87.31)" id="img-b6f5b6a3-122">
                <path d="M-0.27,-1.02 L 0.27 -1.02 0.27 1.02 -0.27 1.02 z" class="primitive"/>
              </g>
              <g transform="translate(66.41,87.31)" id="img-b6f5b6a3-123">
                <path d="M-0.27,-1.02 L 0.27 -1.02 0.27 1.02 -0.27 1.02 z" class="primitive"/>
              </g>
              <g transform="translate(66.9,87.31)" id="img-b6f5b6a3-124">
                <path d="M-0.27,-1.02 L 0.27 -1.02 0.27 1.02 -0.27 1.02 z" class="primitive"/>
              </g>
              <g transform="translate(67.39,88.33)" id="img-b6f5b6a3-125">
                <path d="M-0.27,-0 L 0.27 -0 0.27 0 -0.27 0 z" class="primitive"/>
              </g>
              <g transform="translate(67.88,86.29)" id="img-b6f5b6a3-126">
                <path d="M-0.27,-2.03 L 0.27 -2.03 0.27 2.03 -0.27 2.03 z" class="primitive"/>
              </g>
              <g transform="translate(68.37,87.31)" id="img-b6f5b6a3-127">
                <path d="M-0.27,-1.02 L 0.27 -1.02 0.27 1.02 -0.27 1.02 z" class="primitive"/>
              </g>
              <g transform="translate(68.86,88.33)" id="img-b6f5b6a3-128">
                <path d="M-0.27,-0 L 0.27 -0 0.27 0 -0.27 0 z" class="primitive"/>
              </g>
              <g transform="translate(69.35,88.33)" id="img-b6f5b6a3-129">
                <path d="M-0.27,-0 L 0.27 -0 0.27 0 -0.27 0 z" class="primitive"/>
              </g>
              <g transform="translate(69.84,88.33)" id="img-b6f5b6a3-130">
                <path d="M-0.27,-0 L 0.27 -0 0.27 0 -0.27 0 z" class="primitive"/>
              </g>
              <g transform="translate(70.33,87.31)" id="img-b6f5b6a3-131">
                <path d="M-0.27,-1.02 L 0.27 -1.02 0.27 1.02 -0.27 1.02 z" class="primitive"/>
              </g>
            </g>
          </g>
        </g>
      </g>
    </g>
  </g>
  <g class="guide ylabels" font-size="2.82" font-family="'PT Sans Caption','Helvetica Neue','Helvetica',sans-serif" fill="#6C606B" id="img-b6f5b6a3-132">
    <g transform="translate(16.96,88.33)" id="img-b6f5b6a3-133">
      <g class="primitive">
        <text text-anchor="end" dy="0.35em">0</text>
      </g>
    </g>
    <g transform="translate(16.96,68)" id="img-b6f5b6a3-134">
      <g class="primitive">
        <text text-anchor="end" dy="0.35em">10</text>
      </g>
    </g>
    <g transform="translate(16.96,47.66)" id="img-b6f5b6a3-135">
      <g class="primitive">
        <text text-anchor="end" dy="0.35em">20</text>
      </g>
    </g>
    <g transform="translate(16.96,27.33)" id="img-b6f5b6a3-136">
      <g class="primitive">
        <text text-anchor="end" dy="0.35em">30</text>
      </g>
    </g>
    <g transform="translate(16.96,7)" id="img-b6f5b6a3-137">
      <g class="primitive">
        <text text-anchor="end" dy="0.35em">40</text>
      </g>
    </g>
  </g>
  <g font-size="3.88" font-family="'PT Sans','Helvetica Neue','Helvetica',sans-serif" fill="#564A55" stroke="#000000" stroke-opacity="0.000" id="img-b6f5b6a3-138">
    <g transform="translate(8.81,45.66)" id="img-b6f5b6a3-139">
      <g class="primitive">
        <text text-anchor="middle" dy="0.35em" transform="rotate(-90,0, 2)">frequency</text>
      </g>
    </g>
  </g>
</g>
<defs>
  <clipPath id="img-b6f5b6a3-11">
    <path d="M17.96,5 L 82.97 5 82.97 90.33 17.96 90.33" />
  </clipPath>
</defs>
</svg>
