<?xml version="1.0" encoding="UTF-8"?>
<svg xmlns="http://www.w3.org/2000/svg"
     xmlns:xlink="http://www.w3.org/1999/xlink"
     xmlns:gadfly="http://www.gadflyjl.org/ns"
     version="1.2"
     width="141.42mm" height="100mm" viewBox="0 0 141.42 100"
     stroke="none"
     fill="#000000"
     stroke-width="0.3"
     font-size="3.88"
>
<defs>
  <marker id="arrow" markerWidth="15" markerHeight="7" refX="5" refY="3.5" orient="auto" markerUnits="strokeWidth">
    <path d="M0,0 L15,3.5 L0,7 z" stroke="context-stroke" fill="context-stroke"/>
  </marker>
</defs>
<g class="plotroot xscalable yscalable" id="img-b6f5b6a3-1">
  <g class="guide xlabels" font-size="2.82" font-family="'PT Sans Caption','Helvetica Neue','Helvetica',sans-serif" fill="#6C606B" id="img-b6f5b6a3-2">
    <g transform="translate(18.29,91.33)">
      <g class="primitive">
        <text text-anchor="middle" dy="0.6em">9.0</text>
      </g>
    </g>
    <g transform="translate(33.61,91.33)">
      <g class="primitive">
        <text text-anchor="middle" dy="0.6em">9.5</text>
      </g>
    </g>
    <g transform="translate(48.94,91.33)">
      <g class="primitive">
        <text text-anchor="middle" dy="0.6em">10.0</text>
      </g>
    </g>
    <g transform="translate(64.26,91.33)">
      <g class="primitive">
        <text text-anchor="middle" dy="0.6em">10.5</text>
      </g>
    </g>
    <g transform="translate(79.59,91.33)">
      <g class="primitive">
        <text text-anchor="middle" dy="0.6em">11.0</text>
      </g>
    </g>
  </g>
  <g class="guide colorkey" id="img-b6f5b6a3-3">
    <g class="color_coding_coding_coding_noncoding_4-chord" id="img-b6f5b6a3-4">
      <g fill="#4C404B" font-size="2.82" font-family="'PT Sans','Helvetica Neue','Helvetica',sans-serif" id="img-b6f5b6a3-5">
        <g transform="translate(85.4,49.48)" id="img-b6f5b6a3-6">
          <g class="primitive">
            <text dy="0.35em">coding_coding_coding_noncoding_4-chord</text>
          </g>
        </g>
      </g>
      <g fill-opacity="1" fill="#00BFFF" stroke="#FFFFFF" id="img-b6f5b6a3-7">
        <g transform="translate(83.49,49.48)" id="img-b6f5b6a3-8">
          <path d="M-0.91,-0.91 L 0.91 -0.91 0.91 0.91 -0.91 0.91 z" class="primitive"/>
        </g>
      </g>
    </g>
    <g fill="#362A35" font-size="3.88" font-family="'PT Sans','Helvetica Neue','Helvetica',sans-serif" stroke="#000000" stroke-opacity="0.000" id="img-b6f5b6a3-9">
      <g transform="translate(82.59,45.66)" id="img-b6f5b6a3-10">
        <g class="primitive">
          <text dy="-0em">graphlet</text>
        </g>
      </g>
    </g>
  </g>
  <g clip-path="url(#img-b6f5b6a3-11)">
    <g id="img-b6f5b6a3-12">
      <g pointer-events="visible" stroke-width="0.3" fill="#000000" fill-opacity="0.000" stroke="#000000" stroke-opacity="0.000" class="guide background" id="img-b6f5b6a3-13">
        <g transform="translate(48.94,47.66)" id="img-b6f5b6a3-14">
          <path d="M-32.65,-42.66 L 32.65 -42.66 32.65 42.66 -32.65 42.66 z" class="primitive"/>
        </g>
      </g>
      <g class="guide ygridlines xfixed" stroke-dasharray="0.5,0.5" stroke-width="0.2" stroke="#D0D0E0" id="img-b6f5b6a3-15">
        <g transform="translate(48.94,88.33)" id="img-b6f5b6a3-16">
          <path fill="none" d="M-32.65,0 L 32.65 0" class="primitive"/>
        </g>
        <g transform="translate(48.94,68)" id="img-b6f5b6a3-17">
          <path fill="none" d="M-32.65,0 L 32.65 0" class="primitive"/>
        </g>
        <g transform="translate(48.94,47.66)" id="img-b6f5b6a3-18">
          <path fill="none" d="M-32.65,0 L 32.65 0" class="primitive"/>
        </g>
        <g transform="translate(48.94,27.33)" id="img-b6f5b6a3-19">
          <path fill="none" d="M-32.65,0 L 32.65 0" class="primitive"/>
        </g>
        <g transform="translate(48.94,7)" id="img-b6f5b6a3-20">
          <path fill="none" d="M-32.65,0 L 32.65 0" class="primitive"/>
        </g>
      </g>
      <g class="guide xgridlines yfixed" stroke-dasharray="0.5,0.5" stroke-width="0.2" stroke="#D0D0E0" id="img-b6f5b6a3-21">
        <g transform="translate(18.29,47.66)" id="img-b6f5b6a3-22">
          <path fill="none" d="M0,-42.66 L 0 42.66" class="primitive"/>
        </g>
        <g transform="translate(33.61,47.66)" id="img-b6f5b6a3-23">
          <path fill="none" d="M0,-42.66 L 0 42.66" class="primitive"/>
        </g>
        <g transform="translate(48.94,47.66)" id="img-b6f5b6a3-24">
          <path fill="none" d="M0,-42.66 L 0 42.66" class="primitive"/>
        </g>
        <g transform="translate(64.26,47.66)" id="img-b6f5b6a3-25">
          <path fill="none" d="M0,-42.66 L 0 42.66" class="primitive"/>
        </g>
        <g transform="translate(79.59,47.66)" id="img-b6f5b6a3-26">
          <path fill="none" d="M0,-42.66 L 0 42.66" class="primitive"/>
        </g>
      </g>
      <g class="plotpanel" id="img-b6f5b6a3-27">
        <metadata>
          <boundingbox value="16.284999999999997mm 5.0mm 65.30302290397617mm 85.32666666666667mm"/>
          <unitbox value="8.934750362861134 4.098368718747438 2.1304992742777307 -4.1967374374948765"/>
        </metadata>
        <g shape-rendering="crispEdges" stroke-width="0.3" id="img-b6f5b6a3-28">
          <g stroke="#000000" stroke-opacity="0.000" class="geometry" id="img-b6f5b6a3-29">
            <g fill="#00BFFF" id="img-b6f5b6a3-30">
              <g transform="translate(26.89,78.16)" id="img-b6f5b6a3-31">
                <path d="M-0.26,-10.17 L 0.26 -10.17 0.26 10.17 -0.26 10.17 z" class="primitive"/>
              </g>
              <g transform="translate(27.36,88.33)" id="img-b6f5b6a3-32">
                <path d="M-0.26,-0 L 0.26 -0 0.26 0 -0.26 0 z" class="primitive"/>
              </g>
              <g transform="translate(27.82,78.16)" id="img-b6f5b6a3-33">
                <path d="M-0.26,-10.17 L 0.26 -10.17 0.26 10.17 -0.26 10.17 z" class="primitive"/>
              </g>
              <g transform="translate(28.29,78.16)" id="img-b6f5b6a3-34">
                <path d="M-0.26,-10.17 L 0.26 -10.17 0.26 10.17 -0.26 10.17 z" class="primitive"/>
              </g>
              <g transform="translate(28.76,78.16)" id="img-b6f5b6a3-35">
                <path d="M-0.26,-10.17 L 0.26 -10.17 0.26 10.17 -0.26 10.17 z" class="primitive"/>
              </g>
              <g transform="translate(29.23,88.33)" id="img-b6f5b6a3-36">
                <path d="M-0.26,-0 L 0.26 -0 0.26 0 -0.26 0 z" class="primitive"/>
              </g>
              <g transform="translate(29.69,88.33)" id="img-b6f5b6a3-37">
                <path d="M-0.26,-0 L 0.26 -0 0.26 0 -0.26 0 z" class="primitive"/>
              </g>
              <g transform="translate(30.16,88.33)" id="img-b6f5b6a3-38">
                <path d="M-0.26,-0 L 0.26 -0 0.26 0 -0.26 0 z" class="primitive"/>
              </g>
              <g transform="translate(30.63,88.33)" id="img-b6f5b6a3-39">
                <path d="M-0.26,-0 L 0.26 -0 0.26 0 -0.26 0 z" class="primitive"/>
              </g>
              <g transform="translate(31.1,88.33)" id="img-b6f5b6a3-40">
                <path d="M-0.26,-0 L 0.26 -0 0.26 0 -0.26 0 z" class="primitive"/>
              </g>
              <g transform="translate(31.56,88.33)" id="img-b6f5b6a3-41">
                <path d="M-0.26,-0 L 0.26 -0 0.26 0 -0.26 0 z" class="primitive"/>
              </g>
              <g transform="translate(32.03,78.16)" id="img-b6f5b6a3-42">
                <path d="M-0.26,-10.17 L 0.26 -10.17 0.26 10.17 -0.26 10.17 z" class="primitive"/>
              </g>
              <g transform="translate(32.5,88.33)" id="img-b6f5b6a3-43">
                <path d="M-0.26,-0 L 0.26 -0 0.26 0 -0.26 0 z" class="primitive"/>
              </g>
              <g transform="translate(32.97,88.33)" id="img-b6f5b6a3-44">
                <path d="M-0.26,-0 L 0.26 -0 0.26 0 -0.26 0 z" class="primitive"/>
              </g>
              <g transform="translate(33.44,88.33)" id="img-b6f5b6a3-45">
                <path d="M-0.26,-0 L 0.26 -0 0.26 0 -0.26 0 z" class="primitive"/>
              </g>
              <g transform="translate(33.9,68)" id="img-b6f5b6a3-46">
                <path d="M-0.26,-20.33 L 0.26 -20.33 0.26 20.33 -0.26 20.33 z" class="primitive"/>
              </g>
              <g transform="translate(34.37,57.83)" id="img-b6f5b6a3-47">
                <path d="M-0.26,-30.5 L 0.26 -30.5 0.26 30.5 -0.26 30.5 z" class="primitive"/>
              </g>
              <g transform="translate(34.84,78.16)" id="img-b6f5b6a3-48">
                <path d="M-0.26,-10.17 L 0.26 -10.17 0.26 10.17 -0.26 10.17 z" class="primitive"/>
              </g>
              <g transform="translate(35.31,88.33)" id="img-b6f5b6a3-49">
                <path d="M-0.26,-0 L 0.26 -0 0.26 0 -0.26 0 z" class="primitive"/>
              </g>
              <g transform="translate(35.77,78.16)" id="img-b6f5b6a3-50">
                <path d="M-0.26,-10.17 L 0.26 -10.17 0.26 10.17 -0.26 10.17 z" class="primitive"/>
              </g>
              <g transform="translate(36.24,88.33)" id="img-b6f5b6a3-51">
                <path d="M-0.26,-0 L 0.26 -0 0.26 0 -0.26 0 z" class="primitive"/>
              </g>
              <g transform="translate(36.71,88.33)" id="img-b6f5b6a3-52">
                <path d="M-0.26,-0 L 0.26 -0 0.26 0 -0.26 0 z" class="primitive"/>
              </g>
              <g transform="translate(37.18,68)" id="img-b6f5b6a3-53">
                <path d="M-0.26,-20.33 L 0.26 -20.33 0.26 20.33 -0.26 20.33 z" class="primitive"/>
              </g>
              <g transform="translate(37.64,68)" id="img-b6f5b6a3-54">
                <path d="M-0.26,-20.33 L 0.26 -20.33 0.26 20.33 -0.26 20.33 z" class="primitive"/>
              </g>
              <g transform="translate(38.11,88.33)" id="img-b6f5b6a3-55">
                <path d="M-0.26,-0 L 0.26 -0 0.26 0 -0.26 0 z" class="primitive"/>
              </g>
              <g transform="translate(38.58,78.16)" id="img-b6f5b6a3-56">
                <path d="M-0.26,-10.17 L 0.26 -10.17 0.26 10.17 -0.26 10.17 z" class="primitive"/>
              </g>
              <g transform="translate(39.05,78.16)" id="img-b6f5b6a3-57">
                <path d="M-0.26,-10.17 L 0.26 -10.17 0.26 10.17 -0.26 10.17 z" class="primitive"/>
              </g>
              <g transform="translate(39.52,47.66)" id="img-b6f5b6a3-58">
                <path d="M-0.26,-40.66 L 0.26 -40.66 0.26 40.66 -0.26 40.66 z" class="primitive"/>
              </g>
              <g transform="translate(39.98,88.33)" id="img-b6f5b6a3-59">
                <path d="M-0.26,-0 L 0.26 -0 0.26 0 -0.26 0 z" class="primitive"/>
              </g>
              <g transform="translate(40.45,78.16)" id="img-b6f5b6a3-60">
                <path d="M-0.26,-10.17 L 0.26 -10.17 0.26 10.17 -0.26 10.17 z" class="primitive"/>
              </g>
              <g transform="translate(40.92,78.16)" id="img-b6f5b6a3-61">
                <path d="M-0.26,-10.17 L 0.26 -10.17 0.26 10.17 -0.26 10.17 z" class="primitive"/>
              </g>
              <g transform="translate(41.39,88.33)" id="img-b6f5b6a3-62">
                <path d="M-0.26,-0 L 0.26 -0 0.26 0 -0.26 0 z" class="primitive"/>
              </g>
              <g transform="translate(41.85,68)" id="img-b6f5b6a3-63">
                <path d="M-0.26,-20.33 L 0.26 -20.33 0.26 20.33 -0.26 20.33 z" class="primitive"/>
              </g>
              <g transform="translate(42.32,78.16)" id="img-b6f5b6a3-64">
                <path d="M-0.26,-10.17 L 0.26 -10.17 0.26 10.17 -0.26 10.17 z" class="primitive"/>
              </g>
              <g transform="translate(42.79,68)" id="img-b6f5b6a3-65">
                <path d="M-0.26,-20.33 L 0.26 -20.33 0.26 20.33 -0.26 20.33 z" class="primitive"/>
              </g>
              <g transform="translate(43.26,78.16)" id="img-b6f5b6a3-66">
                <path d="M-0.26,-10.17 L 0.26 -10.17 0.26 10.17 -0.26 10.17 z" class="primitive"/>
              </g>
              <g transform="translate(43.72,88.33)" id="img-b6f5b6a3-67">
                <path d="M-0.26,-0 L 0.26 -0 0.26 0 -0.26 0 z" class="primitive"/>
              </g>
              <g transform="translate(44.19,78.16)" id="img-b6f5b6a3-68">
                <path d="M-0.26,-10.17 L 0.26 -10.17 0.26 10.17 -0.26 10.17 z" class="primitive"/>
              </g>
              <g transform="translate(44.66,57.83)" id="img-b6f5b6a3-69">
                <path d="M-0.26,-30.5 L 0.26 -30.5 0.26 30.5 -0.26 30.5 z" class="primitive"/>
              </g>
              <g transform="translate(45.13,57.83)" id="img-b6f5b6a3-70">
                <path d="M-0.26,-30.5 L 0.26 -30.5 0.26 30.5 -0.26 30.5 z" class="primitive"/>
              </g>
              <g transform="translate(45.6,88.33)" id="img-b6f5b6a3-71">
                <path d="M-0.26,-0 L 0.26 -0 0.26 0 -0.26 0 z" class="primitive"/>
              </g>
              <g transform="translate(46.06,78.16)" id="img-b6f5b6a3-72">
                <path d="M-0.26,-10.17 L 0.26 -10.17 0.26 10.17 -0.26 10.17 z" class="primitive"/>
              </g>
              <g transform="translate(46.53,57.83)" id="img-b6f5b6a3-73">
                <path d="M-0.26,-30.5 L 0.26 -30.5 0.26 30.5 -0.26 30.5 z" class="primitive"/>
              </g>
              <g transform="translate(47,78.16)" id="img-b6f5b6a3-74">
                <path d="M-0.26,-10.17 L 0.26 -10.17 0.26 10.17 -0.26 10.17 z" class="primitive"/>
              </g>
              <g transform="translate(47.47,68)" id="img-b6f5b6a3-75">
                <path d="M-0.26,-20.33 L 0.26 -20.33 0.26 20.33 -0.26 20.33 z" class="primitive"/>
              </g>
              <g transform="translate(47.93,57.83)" id="img-b6f5b6a3-76">
                <path d="M-0.26,-30.5 L 0.26 -30.5 0.26 30.5 -0.26 30.5 z" class="primitive"/>
              </g>
              <g transform="translate(48.4,68)" id="img-b6f5b6a3-77">
                <path d="M-0.26,-20.33 L 0.26 -20.33 0.26 20.33 -0.26 20.33 z" class="primitive"/>
              </g>
              <g transform="translate(48.87,88.33)" id="img-b6f5b6a3-78">
                <path d="M-0.26,-0 L 0.26 -0 0.26 0 -0.26 0 z" class="primitive"/>
              </g>
              <g transform="translate(49.34,68)" id="img-b6f5b6a3-79">
                <path d="M-0.26,-20.33 L 0.26 -20.33 0.26 20.33 -0.26 20.33 z" class="primitive"/>
              </g>
              <g transform="translate(49.8,78.16)" id="img-b6f5b6a3-80">
                <path d="M-0.26,-10.17 L 0.26 -10.17 0.26 10.17 -0.26 10.17 z" class="primitive"/>
              </g>
              <g transform="translate(50.27,68)" id="img-b6f5b6a3-81">
                <path d="M-0.26,-20.33 L 0.26 -20.33 0.26 20.33 -0.26 20.33 z" class="primitive"/>
              </g>
              <g transform="translate(50.74,78.16)" id="img-b6f5b6a3-82">
                <path d="M-0.26,-10.17 L 0.26 -10.17 0.26 10.17 -0.26 10.17 z" class="primitive"/>
              </g>
              <g transform="translate(51.21,88.33)" id="img-b6f5b6a3-83">
                <path d="M-0.26,-0 L 0.26 -0 0.26 0 -0.26 0 z" class="primitive"/>
              </g>
              <g transform="translate(51.67,68)" id="img-b6f5b6a3-84">
                <path d="M-0.26,-20.33 L 0.26 -20.33 0.26 20.33 -0.26 20.33 z" class="primitive"/>
              </g>
              <g transform="translate(52.14,78.16)" id="img-b6f5b6a3-85">
                <path d="M-0.26,-10.17 L 0.26 -10.17 0.26 10.17 -0.26 10.17 z" class="primitive"/>
              </g>
              <g transform="translate(52.61,78.16)" id="img-b6f5b6a3-86">
                <path d="M-0.26,-10.17 L 0.26 -10.17 0.26 10.17 -0.26 10.17 z" class="primitive"/>
              </g>
              <g transform="translate(53.08,88.33)" id="img-b6f5b6a3-87">
                <path d="M-0.26,-0 L 0.26 -0 0.26 0 -0.26 0 z" class="primitive"/>
              </g>
              <g transform="translate(53.55,78.16)" id="img-b6f5b6a3-88">
                <path d="M-0.26,-10.17 L 0.26 -10.17 0.26 10.17 -0.26 10.17 z" class="primitive"/>
              </g>
              <g transform="translate(54.01,88.33)" id="img-b6f5b6a3-89">
                <path d="M-0.26,-0 L 0.26 -0 0.26 0 -0.26 0 z" class="primitive"/>
              </g>
              <g transform="translate(54.48,88.33)" id="img-b6f5b6a3-90">
                <path d="M-0.26,-0 L 0.26 -0 0.26 0 -0.26 0 z" class="primitive"/>
              </g>
              <g transform="translate(54.95,57.83)" id="img-b6f5b6a3-91">
                <path d="M-0.26,-30.5 L 0.26 -30.5 0.26 30.5 -0.26 30.5 z" class="primitive"/>
              </g>
              <g transform="translate(55.42,68)" id="img-b6f5b6a3-92">
                <path d="M-0.26,-20.33 L 0.26 -20.33 0.26 20.33 -0.26 20.33 z" class="primitive"/>
              </g>
              <g transform="translate(55.88,78.16)" id="img-b6f5b6a3-93">
                <path d="M-0.26,-10.17 L 0.26 -10.17 0.26 10.17 -0.26 10.17 z" class="primitive"/>
              </g>
              <g transform="translate(56.35,68)" id="img-b6f5b6a3-94">
                <path d="M-0.26,-20.33 L 0.26 -20.33 0.26 20.33 -0.26 20.33 z" class="primitive"/>
              </g>
              <g transform="translate(56.82,78.16)" id="img-b6f5b6a3-95">
                <path d="M-0.26,-10.17 L 0.26 -10.17 0.26 10.17 -0.26 10.17 z" class="primitive"/>
              </g>
              <g transform="translate(57.29,78.16)" id="img-b6f5b6a3-96">
                <path d="M-0.26,-10.17 L 0.26 -10.17 0.26 10.17 -0.26 10.17 z" class="primitive"/>
              </g>
              <g transform="translate(57.75,68)" id="img-b6f5b6a3-97">
                <path d="M-0.26,-20.33 L 0.26 -20.33 0.26 20.33 -0.26 20.33 z" class="primitive"/>
              </g>
              <g transform="translate(58.22,68)" id="img-b6f5b6a3-98">
                <path d="M-0.26,-20.33 L 0.26 -20.33 0.26 20.33 -0.26 20.33 z" class="primitive"/>
              </g>
              <g transform="translate(58.69,68)" id="img-b6f5b6a3-99">
                <path d="M-0.26,-20.33 L 0.26 -20.33 0.26 20.33 -0.26 20.33 z" class="primitive"/>
              </g>
              <g transform="translate(59.16,68)" id="img-b6f5b6a3-100">
                <path d="M-0.26,-20.33 L 0.26 -20.33 0.26 20.33 -0.26 20.33 z" class="primitive"/>
              </g>
              <g transform="translate(59.63,68)" id="img-b6f5b6a3-101">
                <path d="M-0.26,-20.33 L 0.26 -20.33 0.26 20.33 -0.26 20.33 z" class="primitive"/>
              </g>
              <g transform="translate(60.09,78.16)" id="img-b6f5b6a3-102">
                <path d="M-0.26,-10.17 L 0.26 -10.17 0.26 10.17 -0.26 10.17 z" class="primitive"/>
              </g>
              <g transform="translate(60.56,88.33)" id="img-b6f5b6a3-103">
                <path d="M-0.26,-0 L 0.26 -0 0.26 0 -0.26 0 z" class="primitive"/>
              </g>
              <g transform="translate(61.03,88.33)" id="img-b6f5b6a3-104">
                <path d="M-0.26,-0 L 0.26 -0 0.26 0 -0.26 0 z" class="primitive"/>
              </g>
              <g transform="translate(61.5,78.16)" id="img-b6f5b6a3-105">
                <path d="M-0.26,-10.17 L 0.26 -10.17 0.26 10.17 -0.26 10.17 z" class="primitive"/>
              </g>
              <g transform="translate(61.96,68)" id="img-b6f5b6a3-106">
                <path d="M-0.26,-20.33 L 0.26 -20.33 0.26 20.33 -0.26 20.33 z" class="primitive"/>
              </g>
              <g transform="translate(62.43,88.33)" id="img-b6f5b6a3-107">
                <path d="M-0.26,-0 L 0.26 -0 0.26 0 -0.26 0 z" class="primitive"/>
              </g>
              <g transform="translate(62.9,68)" id="img-b6f5b6a3-108">
                <path d="M-0.26,-20.33 L 0.26 -20.33 0.26 20.33 -0.26 20.33 z" class="primitive"/>
              </g>
              <g transform="translate(63.37,47.66)" id="img-b6f5b6a3-109">
                <path d="M-0.26,-40.66 L 0.26 -40.66 0.26 40.66 -0.26 40.66 z" class="primitive"/>
              </g>
              <g transform="translate(63.83,78.16)" id="img-b6f5b6a3-110">
                <path d="M-0.26,-10.17 L 0.26 -10.17 0.26 10.17 -0.26 10.17 z" class="primitive"/>
              </g>
              <g transform="translate(64.3,88.33)" id="img-b6f5b6a3-111">
                <path d="M-0.26,-0 L 0.26 -0 0.26 0 -0.26 0 z" class="primitive"/>
              </g>
              <g transform="translate(64.77,78.16)" id="img-b6f5b6a3-112">
                <path d="M-0.26,-10.17 L 0.26 -10.17 0.26 10.17 -0.26 10.17 z" class="primitive"/>
              </g>
              <g transform="translate(65.24,88.33)" id="img-b6f5b6a3-113">
                <path d="M-0.26,-0 L 0.26 -0 0.26 0 -0.26 0 z" class="primitive"/>
              </g>
              <g transform="translate(65.71,88.33)" id="img-b6f5b6a3-114">
                <path d="M-0.26,-0 L 0.26 -0 0.26 0 -0.26 0 z" class="primitive"/>
              </g>
              <g transform="translate(66.17,88.33)" id="img-b6f5b6a3-115">
                <path d="M-0.26,-0 L 0.26 -0 0.26 0 -0.26 0 z" class="primitive"/>
              </g>
              <g transform="translate(66.64,78.16)" id="img-b6f5b6a3-116">
                <path d="M-0.26,-10.17 L 0.26 -10.17 0.26 10.17 -0.26 10.17 z" class="primitive"/>
              </g>
              <g transform="translate(67.11,88.33)" id="img-b6f5b6a3-117">
                <path d="M-0.26,-0 L 0.26 -0 0.26 0 -0.26 0 z" class="primitive"/>
              </g>
              <g transform="translate(67.58,88.33)" id="img-b6f5b6a3-118">
                <path d="M-0.26,-0 L 0.26 -0 0.26 0 -0.26 0 z" class="primitive"/>
              </g>
              <g transform="translate(68.04,68)" id="img-b6f5b6a3-119">
                <path d="M-0.26,-20.33 L 0.26 -20.33 0.26 20.33 -0.26 20.33 z" class="primitive"/>
              </g>
              <g transform="translate(68.51,88.33)" id="img-b6f5b6a3-120">
                <path d="M-0.26,-0 L 0.26 -0 0.26 0 -0.26 0 z" class="primitive"/>
              </g>
              <g transform="translate(68.98,88.33)" id="img-b6f5b6a3-121">
                <path d="M-0.26,-0 L 0.26 -0 0.26 0 -0.26 0 z" class="primitive"/>
              </g>
              <g transform="translate(69.45,88.33)" id="img-b6f5b6a3-122">
                <path d="M-0.26,-0 L 0.26 -0 0.26 0 -0.26 0 z" class="primitive"/>
              </g>
              <g transform="translate(69.91,88.33)" id="img-b6f5b6a3-123">
                <path d="M-0.26,-0 L 0.26 -0 0.26 0 -0.26 0 z" class="primitive"/>
              </g>
              <g transform="translate(70.38,88.33)" id="img-b6f5b6a3-124">
                <path d="M-0.26,-0 L 0.26 -0 0.26 0 -0.26 0 z" class="primitive"/>
              </g>
              <g transform="translate(70.85,88.33)" id="img-b6f5b6a3-125">
                <path d="M-0.26,-0 L 0.26 -0 0.26 0 -0.26 0 z" class="primitive"/>
              </g>
              <g transform="translate(71.32,78.16)" id="img-b6f5b6a3-126">
                <path d="M-0.26,-10.17 L 0.26 -10.17 0.26 10.17 -0.26 10.17 z" class="primitive"/>
              </g>
              <g transform="translate(71.79,88.33)" id="img-b6f5b6a3-127">
                <path d="M-0.26,-0 L 0.26 -0 0.26 0 -0.26 0 z" class="primitive"/>
              </g>
              <g transform="translate(72.25,68)" id="img-b6f5b6a3-128">
                <path d="M-0.26,-20.33 L 0.26 -20.33 0.26 20.33 -0.26 20.33 z" class="primitive"/>
              </g>
              <g transform="translate(72.72,88.33)" id="img-b6f5b6a3-129">
                <path d="M-0.26,-0 L 0.26 -0 0.26 0 -0.26 0 z" class="primitive"/>
              </g>
              <g transform="translate(73.19,68)" id="img-b6f5b6a3-130">
                <path d="M-0.26,-20.33 L 0.26 -20.33 0.26 20.33 -0.26 20.33 z" class="primitive"/>
              </g>
            </g>
          </g>
        </g>
      </g>
    </g>
  </g>
  <g class="guide ylabels" font-size="2.82" font-family="'PT Sans Caption','Helvetica Neue','Helvetica',sans-serif" fill="#6C606B" id="img-b6f5b6a3-131">
    <g transform="translate(15.28,88.33)" id="img-b6f5b6a3-132">
      <g class="primitive">
        <text text-anchor="end" dy="0.35em">0</text>
      </g>
    </g>
    <g transform="translate(15.28,68)" id="img-b6f5b6a3-133">
      <g class="primitive">
        <text text-anchor="end" dy="0.35em">1</text>
      </g>
    </g>
    <g transform="translate(15.28,47.66)" id="img-b6f5b6a3-134">
      <g class="primitive">
        <text text-anchor="end" dy="0.35em">2</text>
      </g>
    </g>
    <g transform="translate(15.28,27.33)" id="img-b6f5b6a3-135">
      <g class="primitive">
        <text text-anchor="end" dy="0.35em">3</text>
      </g>
    </g>
    <g transform="translate(15.28,7)" id="img-b6f5b6a3-136">
      <g class="primitive">
        <text text-anchor="end" dy="0.35em">4</text>
      </g>
    </g>
  </g>
  <g font-size="3.88" font-family="'PT Sans','Helvetica Neue','Helvetica',sans-serif" fill="#564A55" stroke="#000000" stroke-opacity="0.000" id="img-b6f5b6a3-137">
    <g transform="translate(8.81,45.66)" id="img-b6f5b6a3-138">
      <g class="primitive">
        <text text-anchor="middle" dy="0.35em" transform="rotate(-90,0, 2)">frequency</text>
      </g>
    </g>
  </g>
</g>
<defs>
  <clipPath id="img-b6f5b6a3-11">
    <path d="M16.28,5 L 81.59 5 81.59 90.33 16.28 90.33" />
  </clipPath>
</defs>
</svg>
