<?xml version="1.0" encoding="UTF-8"?>
<svg xmlns="http://www.w3.org/2000/svg"
     xmlns:xlink="http://www.w3.org/1999/xlink"
     xmlns:gadfly="http://www.gadflyjl.org/ns"
     version="1.2"
     width="141.42mm" height="100mm" viewBox="0 0 141.42 100"
     stroke="none"
     fill="#000000"
     stroke-width="0.3"
     font-size="3.88"
>
<defs>
  <marker id="arrow" markerWidth="15" markerHeight="7" refX="5" refY="3.5" orient="auto" markerUnits="strokeWidth">
    <path d="M0,0 L15,3.5 L0,7 z" stroke="context-stroke" fill="context-stroke"/>
  </marker>
</defs>
<g class="plotroot xscalable yscalable" id="img-e663e8f6-1">
  <g class="guide xlabels" font-size="2.82" font-family="'PT Sans Caption','Helvetica Neue','Helvetica',sans-serif" fill="#6C606B" id="img-e663e8f6-2">
    <g transform="translate(18.28,91.33)">
      <g class="primitive">
        <text text-anchor="middle" dy="0.6em">7</text>
      </g>
    </g>
    <g transform="translate(32.33,91.33)">
      <g class="primitive">
        <text text-anchor="middle" dy="0.6em">8</text>
      </g>
    </g>
    <g transform="translate(46.38,91.33)">
      <g class="primitive">
        <text text-anchor="middle" dy="0.6em">9</text>
      </g>
    </g>
    <g transform="translate(60.43,91.33)">
      <g class="primitive">
        <text text-anchor="middle" dy="0.6em">10</text>
      </g>
    </g>
    <g transform="translate(74.48,91.33)">
      <g class="primitive">
        <text text-anchor="middle" dy="0.6em">11</text>
      </g>
    </g>
  </g>
  <g class="guide colorkey" id="img-e663e8f6-3">
    <g class="color_coding_coding_noncoding_noncoding_4-clique" id="img-e663e8f6-4">
      <g fill="#4C404B" font-size="2.82" font-family="'PT Sans','Helvetica Neue','Helvetica',sans-serif" id="img-e663e8f6-5">
        <g transform="translate(80.29,49.48)" id="img-e663e8f6-6">
          <g class="primitive">
            <text dy="0.35em">coding_coding_noncoding_noncoding_4-clique</text>
          </g>
        </g>
      </g>
      <g fill-opacity="1" fill="#00BFFF" stroke="#FFFFFF" id="img-e663e8f6-7">
        <g transform="translate(78.39,49.48)" id="img-e663e8f6-8">
          <path d="M-0.91,-0.91 L 0.91 -0.91 0.91 0.91 -0.91 0.91 z" class="primitive"/>
        </g>
      </g>
    </g>
    <g fill="#362A35" font-size="3.88" font-family="'PT Sans','Helvetica Neue','Helvetica',sans-serif" stroke="#000000" stroke-opacity="0.000" id="img-e663e8f6-9">
      <g transform="translate(77.48,45.66)" id="img-e663e8f6-10">
        <g class="primitive">
          <text dy="-0em">graphlet</text>
        </g>
      </g>
    </g>
  </g>
  <g clip-path="url(#img-e663e8f6-11)">
    <g id="img-e663e8f6-12">
      <g pointer-events="visible" stroke-width="0.3" fill="#000000" fill-opacity="0.000" stroke="#000000" stroke-opacity="0.000" class="guide background" id="img-e663e8f6-13">
        <g transform="translate(46.38,47.66)" id="img-e663e8f6-14">
          <path d="M-30.1,-42.66 L 30.1 -42.66 30.1 42.66 -30.1 42.66 z" class="primitive"/>
        </g>
      </g>
      <g class="guide ygridlines xfixed" stroke-dasharray="0.5,0.5" stroke-width="0.2" stroke="#D0D0E0" id="img-e663e8f6-15">
        <g transform="translate(46.38,88.33)" id="img-e663e8f6-16">
          <path fill="none" d="M-30.1,0 L 30.1 0" class="primitive"/>
        </g>
        <g transform="translate(46.38,72.06)" id="img-e663e8f6-17">
          <path fill="none" d="M-30.1,0 L 30.1 0" class="primitive"/>
        </g>
        <g transform="translate(46.38,55.8)" id="img-e663e8f6-18">
          <path fill="none" d="M-30.1,0 L 30.1 0" class="primitive"/>
        </g>
        <g transform="translate(46.38,39.53)" id="img-e663e8f6-19">
          <path fill="none" d="M-30.1,0 L 30.1 0" class="primitive"/>
        </g>
        <g transform="translate(46.38,23.27)" id="img-e663e8f6-20">
          <path fill="none" d="M-30.1,0 L 30.1 0" class="primitive"/>
        </g>
        <g transform="translate(46.38,7)" id="img-e663e8f6-21">
          <path fill="none" d="M-30.1,0 L 30.1 0" class="primitive"/>
        </g>
      </g>
      <g class="guide xgridlines yfixed" stroke-dasharray="0.5,0.5" stroke-width="0.2" stroke="#D0D0E0" id="img-e663e8f6-22">
        <g transform="translate(18.28,47.66)" id="img-e663e8f6-23">
          <path fill="none" d="M0,-42.66 L 0 42.66" class="primitive"/>
        </g>
        <g transform="translate(32.33,47.66)" id="img-e663e8f6-24">
          <path fill="none" d="M0,-42.66 L 0 42.66" class="primitive"/>
        </g>
        <g transform="translate(46.38,47.66)" id="img-e663e8f6-25">
          <path fill="none" d="M0,-42.66 L 0 42.66" class="primitive"/>
        </g>
        <g transform="translate(60.43,47.66)" id="img-e663e8f6-26">
          <path fill="none" d="M0,-42.66 L 0 42.66" class="primitive"/>
        </g>
        <g transform="translate(74.48,47.66)" id="img-e663e8f6-27">
          <path fill="none" d="M0,-42.66 L 0 42.66" class="primitive"/>
        </g>
      </g>
      <g class="plotpanel" id="img-e663e8f6-28">
        <metadata>
          <boundingbox value="16.284999999999997mm 5.0mm 60.196356237309516mm 85.32666666666667mm"/>
          <unitbox value="6.857642015681282 5.122960898434298 4.284715968637436 -5.245921796868595"/>
        </metadata>
        <g shape-rendering="crispEdges" stroke-width="0.3" id="img-e663e8f6-29">
          <g stroke="#000000" stroke-opacity="0.000" class="geometry" id="img-e663e8f6-30">
            <g fill="#00BFFF" id="img-e663e8f6-31">
              <g transform="translate(30.35,80.19)" id="img-e663e8f6-32">
                <path d="M-0.24,-8.13 L 0.24 -8.13 0.24 8.13 -0.24 8.13 z" class="primitive"/>
              </g>
              <g transform="translate(30.78,88.33)" id="img-e663e8f6-33">
                <path d="M-0.24,-0 L 0.24 -0 0.24 0 -0.24 0 z" class="primitive"/>
              </g>
              <g transform="translate(31.22,88.33)" id="img-e663e8f6-34">
                <path d="M-0.24,-0 L 0.24 -0 0.24 0 -0.24 0 z" class="primitive"/>
              </g>
              <g transform="translate(31.65,88.33)" id="img-e663e8f6-35">
                <path d="M-0.24,-0 L 0.24 -0 0.24 0 -0.24 0 z" class="primitive"/>
              </g>
              <g transform="translate(32.09,88.33)" id="img-e663e8f6-36">
                <path d="M-0.24,-0 L 0.24 -0 0.24 0 -0.24 0 z" class="primitive"/>
              </g>
              <g transform="translate(32.52,88.33)" id="img-e663e8f6-37">
                <path d="M-0.24,-0 L 0.24 -0 0.24 0 -0.24 0 z" class="primitive"/>
              </g>
              <g transform="translate(32.96,88.33)" id="img-e663e8f6-38">
                <path d="M-0.24,-0 L 0.24 -0 0.24 0 -0.24 0 z" class="primitive"/>
              </g>
              <g transform="translate(33.4,88.33)" id="img-e663e8f6-39">
                <path d="M-0.24,-0 L 0.24 -0 0.24 0 -0.24 0 z" class="primitive"/>
              </g>
              <g transform="translate(33.83,88.33)" id="img-e663e8f6-40">
                <path d="M-0.24,-0 L 0.24 -0 0.24 0 -0.24 0 z" class="primitive"/>
              </g>
              <g transform="translate(34.27,80.19)" id="img-e663e8f6-41">
                <path d="M-0.24,-8.13 L 0.24 -8.13 0.24 8.13 -0.24 8.13 z" class="primitive"/>
              </g>
              <g transform="translate(34.7,80.19)" id="img-e663e8f6-42">
                <path d="M-0.24,-8.13 L 0.24 -8.13 0.24 8.13 -0.24 8.13 z" class="primitive"/>
              </g>
              <g transform="translate(35.14,88.33)" id="img-e663e8f6-43">
                <path d="M-0.24,-0 L 0.24 -0 0.24 0 -0.24 0 z" class="primitive"/>
              </g>
              <g transform="translate(35.57,72.06)" id="img-e663e8f6-44">
                <path d="M-0.24,-16.27 L 0.24 -16.27 0.24 16.27 -0.24 16.27 z" class="primitive"/>
              </g>
              <g transform="translate(36.01,88.33)" id="img-e663e8f6-45">
                <path d="M-0.24,-0 L 0.24 -0 0.24 0 -0.24 0 z" class="primitive"/>
              </g>
              <g transform="translate(36.44,88.33)" id="img-e663e8f6-46">
                <path d="M-0.24,-0 L 0.24 -0 0.24 0 -0.24 0 z" class="primitive"/>
              </g>
              <g transform="translate(36.88,88.33)" id="img-e663e8f6-47">
                <path d="M-0.24,-0 L 0.24 -0 0.24 0 -0.24 0 z" class="primitive"/>
              </g>
              <g transform="translate(37.32,80.19)" id="img-e663e8f6-48">
                <path d="M-0.24,-8.13 L 0.24 -8.13 0.24 8.13 -0.24 8.13 z" class="primitive"/>
              </g>
              <g transform="translate(37.75,72.06)" id="img-e663e8f6-49">
                <path d="M-0.24,-16.27 L 0.24 -16.27 0.24 16.27 -0.24 16.27 z" class="primitive"/>
              </g>
              <g transform="translate(38.19,88.33)" id="img-e663e8f6-50">
                <path d="M-0.24,-0 L 0.24 -0 0.24 0 -0.24 0 z" class="primitive"/>
              </g>
              <g transform="translate(38.62,88.33)" id="img-e663e8f6-51">
                <path d="M-0.24,-0 L 0.24 -0 0.24 0 -0.24 0 z" class="primitive"/>
              </g>
              <g transform="translate(39.06,88.33)" id="img-e663e8f6-52">
                <path d="M-0.24,-0 L 0.24 -0 0.24 0 -0.24 0 z" class="primitive"/>
              </g>
              <g transform="translate(39.49,88.33)" id="img-e663e8f6-53">
                <path d="M-0.24,-0 L 0.24 -0 0.24 0 -0.24 0 z" class="primitive"/>
              </g>
              <g transform="translate(39.93,80.19)" id="img-e663e8f6-54">
                <path d="M-0.24,-8.13 L 0.24 -8.13 0.24 8.13 -0.24 8.13 z" class="primitive"/>
              </g>
              <g transform="translate(40.36,88.33)" id="img-e663e8f6-55">
                <path d="M-0.24,-0 L 0.24 -0 0.24 0 -0.24 0 z" class="primitive"/>
              </g>
              <g transform="translate(40.8,63.93)" id="img-e663e8f6-56">
                <path d="M-0.24,-24.4 L 0.24 -24.4 0.24 24.4 -0.24 24.4 z" class="primitive"/>
              </g>
              <g transform="translate(41.23,72.06)" id="img-e663e8f6-57">
                <path d="M-0.24,-16.27 L 0.24 -16.27 0.24 16.27 -0.24 16.27 z" class="primitive"/>
              </g>
              <g transform="translate(41.67,88.33)" id="img-e663e8f6-58">
                <path d="M-0.24,-0 L 0.24 -0 0.24 0 -0.24 0 z" class="primitive"/>
              </g>
              <g transform="translate(42.11,80.19)" id="img-e663e8f6-59">
                <path d="M-0.24,-8.13 L 0.24 -8.13 0.24 8.13 -0.24 8.13 z" class="primitive"/>
              </g>
              <g transform="translate(42.54,80.19)" id="img-e663e8f6-60">
                <path d="M-0.24,-8.13 L 0.24 -8.13 0.24 8.13 -0.24 8.13 z" class="primitive"/>
              </g>
              <g transform="translate(42.98,80.19)" id="img-e663e8f6-61">
                <path d="M-0.24,-8.13 L 0.24 -8.13 0.24 8.13 -0.24 8.13 z" class="primitive"/>
              </g>
              <g transform="translate(43.41,80.19)" id="img-e663e8f6-62">
                <path d="M-0.24,-8.13 L 0.24 -8.13 0.24 8.13 -0.24 8.13 z" class="primitive"/>
              </g>
              <g transform="translate(43.85,63.93)" id="img-e663e8f6-63">
                <path d="M-0.24,-24.4 L 0.24 -24.4 0.24 24.4 -0.24 24.4 z" class="primitive"/>
              </g>
              <g transform="translate(44.28,80.19)" id="img-e663e8f6-64">
                <path d="M-0.24,-8.13 L 0.24 -8.13 0.24 8.13 -0.24 8.13 z" class="primitive"/>
              </g>
              <g transform="translate(44.72,88.33)" id="img-e663e8f6-65">
                <path d="M-0.24,-0 L 0.24 -0 0.24 0 -0.24 0 z" class="primitive"/>
              </g>
              <g transform="translate(45.15,72.06)" id="img-e663e8f6-66">
                <path d="M-0.24,-16.27 L 0.24 -16.27 0.24 16.27 -0.24 16.27 z" class="primitive"/>
              </g>
              <g transform="translate(45.59,80.19)" id="img-e663e8f6-67">
                <path d="M-0.24,-8.13 L 0.24 -8.13 0.24 8.13 -0.24 8.13 z" class="primitive"/>
              </g>
              <g transform="translate(46.02,80.19)" id="img-e663e8f6-68">
                <path d="M-0.24,-8.13 L 0.24 -8.13 0.24 8.13 -0.24 8.13 z" class="primitive"/>
              </g>
              <g transform="translate(46.46,63.93)" id="img-e663e8f6-69">
                <path d="M-0.24,-24.4 L 0.24 -24.4 0.24 24.4 -0.24 24.4 z" class="primitive"/>
              </g>
              <g transform="translate(46.9,72.06)" id="img-e663e8f6-70">
                <path d="M-0.24,-16.27 L 0.24 -16.27 0.24 16.27 -0.24 16.27 z" class="primitive"/>
              </g>
              <g transform="translate(47.33,72.06)" id="img-e663e8f6-71">
                <path d="M-0.24,-16.27 L 0.24 -16.27 0.24 16.27 -0.24 16.27 z" class="primitive"/>
              </g>
              <g transform="translate(47.77,80.19)" id="img-e663e8f6-72">
                <path d="M-0.24,-8.13 L 0.24 -8.13 0.24 8.13 -0.24 8.13 z" class="primitive"/>
              </g>
              <g transform="translate(48.2,88.33)" id="img-e663e8f6-73">
                <path d="M-0.24,-0 L 0.24 -0 0.24 0 -0.24 0 z" class="primitive"/>
              </g>
              <g transform="translate(48.64,80.19)" id="img-e663e8f6-74">
                <path d="M-0.24,-8.13 L 0.24 -8.13 0.24 8.13 -0.24 8.13 z" class="primitive"/>
              </g>
              <g transform="translate(49.07,80.19)" id="img-e663e8f6-75">
                <path d="M-0.24,-8.13 L 0.24 -8.13 0.24 8.13 -0.24 8.13 z" class="primitive"/>
              </g>
              <g transform="translate(49.51,72.06)" id="img-e663e8f6-76">
                <path d="M-0.24,-16.27 L 0.24 -16.27 0.24 16.27 -0.24 16.27 z" class="primitive"/>
              </g>
              <g transform="translate(49.94,80.19)" id="img-e663e8f6-77">
                <path d="M-0.24,-8.13 L 0.24 -8.13 0.24 8.13 -0.24 8.13 z" class="primitive"/>
              </g>
              <g transform="translate(50.38,55.8)" id="img-e663e8f6-78">
                <path d="M-0.24,-32.53 L 0.24 -32.53 0.24 32.53 -0.24 32.53 z" class="primitive"/>
              </g>
              <g transform="translate(50.82,80.19)" id="img-e663e8f6-79">
                <path d="M-0.24,-8.13 L 0.24 -8.13 0.24 8.13 -0.24 8.13 z" class="primitive"/>
              </g>
              <g transform="translate(51.25,63.93)" id="img-e663e8f6-80">
                <path d="M-0.24,-24.4 L 0.24 -24.4 0.24 24.4 -0.24 24.4 z" class="primitive"/>
              </g>
              <g transform="translate(51.69,72.06)" id="img-e663e8f6-81">
                <path d="M-0.24,-16.27 L 0.24 -16.27 0.24 16.27 -0.24 16.27 z" class="primitive"/>
              </g>
              <g transform="translate(52.12,80.19)" id="img-e663e8f6-82">
                <path d="M-0.24,-8.13 L 0.24 -8.13 0.24 8.13 -0.24 8.13 z" class="primitive"/>
              </g>
              <g transform="translate(52.56,88.33)" id="img-e663e8f6-83">
                <path d="M-0.24,-0 L 0.24 -0 0.24 0 -0.24 0 z" class="primitive"/>
              </g>
              <g transform="translate(52.99,88.33)" id="img-e663e8f6-84">
                <path d="M-0.24,-0 L 0.24 -0 0.24 0 -0.24 0 z" class="primitive"/>
              </g>
              <g transform="translate(53.43,80.19)" id="img-e663e8f6-85">
                <path d="M-0.24,-8.13 L 0.24 -8.13 0.24 8.13 -0.24 8.13 z" class="primitive"/>
              </g>
              <g transform="translate(53.86,88.33)" id="img-e663e8f6-86">
                <path d="M-0.24,-0 L 0.24 -0 0.24 0 -0.24 0 z" class="primitive"/>
              </g>
              <g transform="translate(54.3,88.33)" id="img-e663e8f6-87">
                <path d="M-0.24,-0 L 0.24 -0 0.24 0 -0.24 0 z" class="primitive"/>
              </g>
              <g transform="translate(54.73,88.33)" id="img-e663e8f6-88">
                <path d="M-0.24,-0 L 0.24 -0 0.24 0 -0.24 0 z" class="primitive"/>
              </g>
              <g transform="translate(55.17,80.19)" id="img-e663e8f6-89">
                <path d="M-0.24,-8.13 L 0.24 -8.13 0.24 8.13 -0.24 8.13 z" class="primitive"/>
              </g>
              <g transform="translate(55.61,63.93)" id="img-e663e8f6-90">
                <path d="M-0.24,-24.4 L 0.24 -24.4 0.24 24.4 -0.24 24.4 z" class="primitive"/>
              </g>
              <g transform="translate(56.04,63.93)" id="img-e663e8f6-91">
                <path d="M-0.24,-24.4 L 0.24 -24.4 0.24 24.4 -0.24 24.4 z" class="primitive"/>
              </g>
              <g transform="translate(56.48,47.66)" id="img-e663e8f6-92">
                <path d="M-0.24,-40.66 L 0.24 -40.66 0.24 40.66 -0.24 40.66 z" class="primitive"/>
              </g>
              <g transform="translate(56.91,63.93)" id="img-e663e8f6-93">
                <path d="M-0.24,-24.4 L 0.24 -24.4 0.24 24.4 -0.24 24.4 z" class="primitive"/>
              </g>
              <g transform="translate(57.35,47.66)" id="img-e663e8f6-94">
                <path d="M-0.24,-40.66 L 0.24 -40.66 0.24 40.66 -0.24 40.66 z" class="primitive"/>
              </g>
              <g transform="translate(57.78,72.06)" id="img-e663e8f6-95">
                <path d="M-0.24,-16.27 L 0.24 -16.27 0.24 16.27 -0.24 16.27 z" class="primitive"/>
              </g>
              <g transform="translate(58.22,72.06)" id="img-e663e8f6-96">
                <path d="M-0.24,-16.27 L 0.24 -16.27 0.24 16.27 -0.24 16.27 z" class="primitive"/>
              </g>
              <g transform="translate(58.65,88.33)" id="img-e663e8f6-97">
                <path d="M-0.24,-0 L 0.24 -0 0.24 0 -0.24 0 z" class="primitive"/>
              </g>
              <g transform="translate(59.09,72.06)" id="img-e663e8f6-98">
                <path d="M-0.24,-16.27 L 0.24 -16.27 0.24 16.27 -0.24 16.27 z" class="primitive"/>
              </g>
              <g transform="translate(59.53,63.93)" id="img-e663e8f6-99">
                <path d="M-0.24,-24.4 L 0.24 -24.4 0.24 24.4 -0.24 24.4 z" class="primitive"/>
              </g>
              <g transform="translate(59.96,80.19)" id="img-e663e8f6-100">
                <path d="M-0.24,-8.13 L 0.24 -8.13 0.24 8.13 -0.24 8.13 z" class="primitive"/>
              </g>
              <g transform="translate(60.4,55.8)" id="img-e663e8f6-101">
                <path d="M-0.24,-32.53 L 0.24 -32.53 0.24 32.53 -0.24 32.53 z" class="primitive"/>
              </g>
              <g transform="translate(60.83,80.19)" id="img-e663e8f6-102">
                <path d="M-0.24,-8.13 L 0.24 -8.13 0.24 8.13 -0.24 8.13 z" class="primitive"/>
              </g>
              <g transform="translate(61.27,72.06)" id="img-e663e8f6-103">
                <path d="M-0.24,-16.27 L 0.24 -16.27 0.24 16.27 -0.24 16.27 z" class="primitive"/>
              </g>
              <g transform="translate(61.7,72.06)" id="img-e663e8f6-104">
                <path d="M-0.24,-16.27 L 0.24 -16.27 0.24 16.27 -0.24 16.27 z" class="primitive"/>
              </g>
              <g transform="translate(62.14,88.33)" id="img-e663e8f6-105">
                <path d="M-0.24,-0 L 0.24 -0 0.24 0 -0.24 0 z" class="primitive"/>
              </g>
              <g transform="translate(62.57,88.33)" id="img-e663e8f6-106">
                <path d="M-0.24,-0 L 0.24 -0 0.24 0 -0.24 0 z" class="primitive"/>
              </g>
              <g transform="translate(63.01,88.33)" id="img-e663e8f6-107">
                <path d="M-0.24,-0 L 0.24 -0 0.24 0 -0.24 0 z" class="primitive"/>
              </g>
              <g transform="translate(63.44,80.19)" id="img-e663e8f6-108">
                <path d="M-0.24,-8.13 L 0.24 -8.13 0.24 8.13 -0.24 8.13 z" class="primitive"/>
              </g>
              <g transform="translate(63.88,88.33)" id="img-e663e8f6-109">
                <path d="M-0.24,-0 L 0.24 -0 0.24 0 -0.24 0 z" class="primitive"/>
              </g>
              <g transform="translate(64.32,88.33)" id="img-e663e8f6-110">
                <path d="M-0.24,-0 L 0.24 -0 0.24 0 -0.24 0 z" class="primitive"/>
              </g>
              <g transform="translate(64.75,80.19)" id="img-e663e8f6-111">
                <path d="M-0.24,-8.13 L 0.24 -8.13 0.24 8.13 -0.24 8.13 z" class="primitive"/>
              </g>
              <g transform="translate(65.19,80.19)" id="img-e663e8f6-112">
                <path d="M-0.24,-8.13 L 0.24 -8.13 0.24 8.13 -0.24 8.13 z" class="primitive"/>
              </g>
              <g transform="translate(65.62,80.19)" id="img-e663e8f6-113">
                <path d="M-0.24,-8.13 L 0.24 -8.13 0.24 8.13 -0.24 8.13 z" class="primitive"/>
              </g>
              <g transform="translate(66.06,88.33)" id="img-e663e8f6-114">
                <path d="M-0.24,-0 L 0.24 -0 0.24 0 -0.24 0 z" class="primitive"/>
              </g>
              <g transform="translate(66.49,72.06)" id="img-e663e8f6-115">
                <path d="M-0.24,-16.27 L 0.24 -16.27 0.24 16.27 -0.24 16.27 z" class="primitive"/>
              </g>
              <g transform="translate(66.93,88.33)" id="img-e663e8f6-116">
                <path d="M-0.24,-0 L 0.24 -0 0.24 0 -0.24 0 z" class="primitive"/>
              </g>
              <g transform="translate(67.36,88.33)" id="img-e663e8f6-117">
                <path d="M-0.24,-0 L 0.24 -0 0.24 0 -0.24 0 z" class="primitive"/>
              </g>
              <g transform="translate(67.8,88.33)" id="img-e663e8f6-118">
                <path d="M-0.24,-0 L 0.24 -0 0.24 0 -0.24 0 z" class="primitive"/>
              </g>
              <g transform="translate(68.24,80.19)" id="img-e663e8f6-119">
                <path d="M-0.24,-8.13 L 0.24 -8.13 0.24 8.13 -0.24 8.13 z" class="primitive"/>
              </g>
              <g transform="translate(68.67,80.19)" id="img-e663e8f6-120">
                <path d="M-0.24,-8.13 L 0.24 -8.13 0.24 8.13 -0.24 8.13 z" class="primitive"/>
              </g>
              <g transform="translate(69.11,88.33)" id="img-e663e8f6-121">
                <path d="M-0.24,-0 L 0.24 -0 0.24 0 -0.24 0 z" class="primitive"/>
              </g>
              <g transform="translate(69.54,88.33)" id="img-e663e8f6-122">
                <path d="M-0.24,-0 L 0.24 -0 0.24 0 -0.24 0 z" class="primitive"/>
              </g>
              <g transform="translate(69.98,80.19)" id="img-e663e8f6-123">
                <path d="M-0.24,-8.13 L 0.24 -8.13 0.24 8.13 -0.24 8.13 z" class="primitive"/>
              </g>
              <g transform="translate(70.41,88.33)" id="img-e663e8f6-124">
                <path d="M-0.24,-0 L 0.24 -0 0.24 0 -0.24 0 z" class="primitive"/>
              </g>
              <g transform="translate(70.85,88.33)" id="img-e663e8f6-125">
                <path d="M-0.24,-0 L 0.24 -0 0.24 0 -0.24 0 z" class="primitive"/>
              </g>
              <g transform="translate(71.28,88.33)" id="img-e663e8f6-126">
                <path d="M-0.24,-0 L 0.24 -0 0.24 0 -0.24 0 z" class="primitive"/>
              </g>
              <g transform="translate(71.72,88.33)" id="img-e663e8f6-127">
                <path d="M-0.24,-0 L 0.24 -0 0.24 0 -0.24 0 z" class="primitive"/>
              </g>
              <g transform="translate(72.15,88.33)" id="img-e663e8f6-128">
                <path d="M-0.24,-0 L 0.24 -0 0.24 0 -0.24 0 z" class="primitive"/>
              </g>
              <g transform="translate(72.59,88.33)" id="img-e663e8f6-129">
                <path d="M-0.24,-0 L 0.24 -0 0.24 0 -0.24 0 z" class="primitive"/>
              </g>
              <g transform="translate(73.03,88.33)" id="img-e663e8f6-130">
                <path d="M-0.24,-0 L 0.24 -0 0.24 0 -0.24 0 z" class="primitive"/>
              </g>
              <g transform="translate(73.46,80.19)" id="img-e663e8f6-131">
                <path d="M-0.24,-8.13 L 0.24 -8.13 0.24 8.13 -0.24 8.13 z" class="primitive"/>
              </g>
            </g>
          </g>
        </g>
      </g>
    </g>
  </g>
  <g class="guide ylabels" font-size="2.82" font-family="'PT Sans Caption','Helvetica Neue','Helvetica',sans-serif" fill="#6C606B" id="img-e663e8f6-132">
    <g transform="translate(15.28,88.33)" id="img-e663e8f6-133">
      <g class="primitive">
        <text text-anchor="end" dy="0.35em">0</text>
      </g>
    </g>
    <g transform="translate(15.28,72.06)" id="img-e663e8f6-134">
      <g class="primitive">
        <text text-anchor="end" dy="0.35em">1</text>
      </g>
    </g>
    <g transform="translate(15.28,55.8)" id="img-e663e8f6-135">
      <g class="primitive">
        <text text-anchor="end" dy="0.35em">2</text>
      </g>
    </g>
    <g transform="translate(15.28,39.53)" id="img-e663e8f6-136">
      <g class="primitive">
        <text text-anchor="end" dy="0.35em">3</text>
      </g>
    </g>
    <g transform="translate(15.28,23.27)" id="img-e663e8f6-137">
      <g class="primitive">
        <text text-anchor="end" dy="0.35em">4</text>
      </g>
    </g>
    <g transform="translate(15.28,7)" id="img-e663e8f6-138">
      <g class="primitive">
        <text text-anchor="end" dy="0.35em">5</text>
      </g>
    </g>
  </g>
  <g font-size="3.88" font-family="'PT Sans','Helvetica Neue','Helvetica',sans-serif" fill="#564A55" stroke="#000000" stroke-opacity="0.000" id="img-e663e8f6-139">
    <g transform="translate(8.81,45.66)" id="img-e663e8f6-140">
      <g class="primitive">
        <text text-anchor="middle" dy="0.35em" transform="rotate(-90,0, 2)">frequency</text>
      </g>
    </g>
  </g>
</g>
<defs>
  <clipPath id="img-e663e8f6-11">
    <path d="M16.28,5 L 76.48 5 76.48 90.33 16.28 90.33" />
  </clipPath>
</defs>
</svg>
