<?xml version="1.0" encoding="UTF-8"?>
<svg xmlns="http://www.w3.org/2000/svg"
     xmlns:xlink="http://www.w3.org/1999/xlink"
     xmlns:gadfly="http://www.gadflyjl.org/ns"
     version="1.2"
     width="140mm" height="80mm" viewBox="0 0 140 80"
     stroke="none"
     fill="#000000"
     stroke-width="0.3"
     font-size="3.88"
>
<defs>
  <marker id="arrow" markerWidth="15" markerHeight="7" refX="5" refY="3.5" orient="auto" markerUnits="strokeWidth">
    <path d="M0,0 L15,3.5 L0,7 z" stroke="context-stroke" fill="context-stroke"/>
  </marker>
</defs>
<g class="plotroot xscalable yscalable" id="img-48e2a296-1">
  <g class="guide xlabels" font-size="2.82" font-family="'PT Sans Caption','Helvetica Neue','Helvetica',sans-serif" fill="#6C606B" id="img-48e2a296-2">
    <g transform="translate(19.96,61.89)">
      <g class="primitive">
        <text text-anchor="end" dy="0.35em" transform="rotate(-90,0, 0)">1.0×10⁶</text>
      </g>
    </g>
    <g transform="translate(32.17,61.89)">
      <g class="primitive">
        <text text-anchor="end" dy="0.35em" transform="rotate(-90,0, 0)">1.1×10⁶</text>
      </g>
    </g>
    <g transform="translate(44.39,61.89)">
      <g class="primitive">
        <text text-anchor="end" dy="0.35em" transform="rotate(-90,0, 0)">1.2×10⁶</text>
      </g>
    </g>
    <g transform="translate(56.6,61.89)">
      <g class="primitive">
        <text text-anchor="end" dy="0.35em" transform="rotate(-90,0, 0)">1.3×10⁶</text>
      </g>
    </g>
    <g transform="translate(68.82,61.89)">
      <g class="primitive">
        <text text-anchor="end" dy="0.35em" transform="rotate(-90,0, 0)">1.4×10⁶</text>
      </g>
    </g>
    <g transform="translate(81.03,61.89)">
      <g class="primitive">
        <text text-anchor="end" dy="0.35em" transform="rotate(-90,0, 0)">1.5×10⁶</text>
      </g>
    </g>
  </g>
  <g class="guide colorkey" id="img-48e2a296-3">
    <g class="color_coding_coding_noncoding_coding_4-tail" id="img-48e2a296-4">
      <g fill="#4C404B" font-size="2.82" font-family="'PT Sans','Helvetica Neue','Helvetica',sans-serif" id="img-48e2a296-5">
        <g transform="translate(86.85,34.76)" id="img-48e2a296-6">
          <g class="primitive">
            <text dy="0.35em">coding_coding_noncoding_coding_4-tail</text>
          </g>
        </g>
      </g>
      <g fill-opacity="1" fill="#00BFFF" stroke="#FFFFFF" id="img-48e2a296-7">
        <g transform="translate(84.94,34.76)" id="img-48e2a296-8">
          <path d="M-0.91,-0.91 L 0.91 -0.91 0.91 0.91 -0.91 0.91 z" class="primitive"/>
        </g>
      </g>
    </g>
    <g fill="#362A35" font-size="3.88" font-family="'PT Sans','Helvetica Neue','Helvetica',sans-serif" stroke="#000000" stroke-opacity="0.000" id="img-48e2a296-9">
      <g transform="translate(84.03,30.94)" id="img-48e2a296-10">
        <g class="primitive">
          <text dy="-0em">graphlet</text>
        </g>
      </g>
    </g>
  </g>
  <g clip-path="url(#img-48e2a296-11)">
    <g id="img-48e2a296-12">
      <g pointer-events="visible" stroke-width="0.3" fill="#000000" fill-opacity="0.000" stroke="#000000" stroke-opacity="0.000" class="guide background" id="img-48e2a296-13">
        <g transform="translate(50.5,32.94)" id="img-48e2a296-14">
          <path d="M-32.54,-27.94 L 32.54 -27.94 32.54 27.94 -32.54 27.94 z" class="primitive"/>
        </g>
      </g>
      <g class="guide ygridlines xfixed" stroke-dasharray="0.5,0.5" stroke-width="0.2" stroke="#D0D0E0" id="img-48e2a296-15">
        <g transform="translate(50.5,58.89)" id="img-48e2a296-16">
          <path fill="none" d="M-32.54,0 L 32.54 0" class="primitive"/>
        </g>
        <g transform="translate(50.5,45.92)" id="img-48e2a296-17">
          <path fill="none" d="M-32.54,0 L 32.54 0" class="primitive"/>
        </g>
        <g transform="translate(50.5,32.94)" id="img-48e2a296-18">
          <path fill="none" d="M-32.54,0 L 32.54 0" class="primitive"/>
        </g>
        <g transform="translate(50.5,19.97)" id="img-48e2a296-19">
          <path fill="none" d="M-32.54,0 L 32.54 0" class="primitive"/>
        </g>
        <g transform="translate(50.5,7)" id="img-48e2a296-20">
          <path fill="none" d="M-32.54,0 L 32.54 0" class="primitive"/>
        </g>
      </g>
      <g class="guide xgridlines yfixed" stroke-dasharray="0.5,0.5" stroke-width="0.2" stroke="#D0D0E0" id="img-48e2a296-21">
        <g transform="translate(19.96,32.94)" id="img-48e2a296-22">
          <path fill="none" d="M0,-27.94 L 0 27.94" class="primitive"/>
        </g>
        <g transform="translate(32.17,32.94)" id="img-48e2a296-23">
          <path fill="none" d="M0,-27.94 L 0 27.94" class="primitive"/>
        </g>
        <g transform="translate(44.39,32.94)" id="img-48e2a296-24">
          <path fill="none" d="M0,-27.94 L 0 27.94" class="primitive"/>
        </g>
        <g transform="translate(56.6,32.94)" id="img-48e2a296-25">
          <path fill="none" d="M0,-27.94 L 0 27.94" class="primitive"/>
        </g>
        <g transform="translate(68.82,32.94)" id="img-48e2a296-26">
          <path fill="none" d="M0,-27.94 L 0 27.94" class="primitive"/>
        </g>
        <g transform="translate(81.03,32.94)" id="img-48e2a296-27">
          <path fill="none" d="M0,-27.94 L 0 27.94" class="primitive"/>
        </g>
      </g>
      <g class="plotpanel" id="img-48e2a296-28">
        <metadata>
          <boundingbox value="17.95833333333333mm 5.0mm 65.07500000000002mm 55.88666666666667mm"/>
          <unitbox value="983626.6884977487 41.54182191956829 532746.6230045027 -43.083643839136585"/>
        </metadata>
        <g shape-rendering="crispEdges" stroke-width="0.3" id="img-48e2a296-29">
          <g stroke="#000000" stroke-opacity="0.000" class="geometry" id="img-48e2a296-30">
            <g fill="#00BFFF" id="img-48e2a296-31">
              <g transform="translate(20.4,57.59)" id="img-48e2a296-32">
                <path d="M-0.33,-1.3 L 0.33 -1.3 0.33 1.3 -0.33 1.3 z" class="primitive"/>
              </g>
              <g transform="translate(21.01,58.24)" id="img-48e2a296-33">
                <path d="M-0.33,-0.65 L 0.33 -0.65 0.33 0.65 -0.33 0.65 z" class="primitive"/>
              </g>
              <g transform="translate(21.61,58.89)" id="img-48e2a296-34">
                <path d="M-0.33,-0 L 0.33 -0 0.33 0 -0.33 0 z" class="primitive"/>
              </g>
              <g transform="translate(22.22,57.59)" id="img-48e2a296-35">
                <path d="M-0.33,-1.3 L 0.33 -1.3 0.33 1.3 -0.33 1.3 z" class="primitive"/>
              </g>
              <g transform="translate(22.82,58.24)" id="img-48e2a296-36">
                <path d="M-0.33,-0.65 L 0.33 -0.65 0.33 0.65 -0.33 0.65 z" class="primitive"/>
              </g>
              <g transform="translate(23.43,56.94)" id="img-48e2a296-37">
                <path d="M-0.33,-1.95 L 0.33 -1.95 0.33 1.95 -0.33 1.95 z" class="primitive"/>
              </g>
              <g transform="translate(24.03,58.24)" id="img-48e2a296-38">
                <path d="M-0.33,-0.65 L 0.33 -0.65 0.33 0.65 -0.33 0.65 z" class="primitive"/>
              </g>
              <g transform="translate(24.64,58.89)" id="img-48e2a296-39">
                <path d="M-0.33,-0 L 0.33 -0 0.33 0 -0.33 0 z" class="primitive"/>
              </g>
              <g transform="translate(25.24,57.59)" id="img-48e2a296-40">
                <path d="M-0.33,-1.3 L 0.33 -1.3 0.33 1.3 -0.33 1.3 z" class="primitive"/>
              </g>
              <g transform="translate(25.84,55.64)" id="img-48e2a296-41">
                <path d="M-0.33,-3.24 L 0.33 -3.24 0.33 3.24 -0.33 3.24 z" class="primitive"/>
              </g>
              <g transform="translate(26.45,58.24)" id="img-48e2a296-42">
                <path d="M-0.33,-0.65 L 0.33 -0.65 0.33 0.65 -0.33 0.65 z" class="primitive"/>
              </g>
              <g transform="translate(27.05,58.89)" id="img-48e2a296-43">
                <path d="M-0.33,-0 L 0.33 -0 0.33 0 -0.33 0 z" class="primitive"/>
              </g>
              <g transform="translate(27.66,55.64)" id="img-48e2a296-44">
                <path d="M-0.33,-3.24 L 0.33 -3.24 0.33 3.24 -0.33 3.24 z" class="primitive"/>
              </g>
              <g transform="translate(28.26,58.24)" id="img-48e2a296-45">
                <path d="M-0.33,-0.65 L 0.33 -0.65 0.33 0.65 -0.33 0.65 z" class="primitive"/>
              </g>
              <g transform="translate(28.87,55.64)" id="img-48e2a296-46">
                <path d="M-0.33,-3.24 L 0.33 -3.24 0.33 3.24 -0.33 3.24 z" class="primitive"/>
              </g>
              <g transform="translate(29.47,56.94)" id="img-48e2a296-47">
                <path d="M-0.33,-1.95 L 0.33 -1.95 0.33 1.95 -0.33 1.95 z" class="primitive"/>
              </g>
              <g transform="translate(30.08,53.05)" id="img-48e2a296-48">
                <path d="M-0.33,-5.84 L 0.33 -5.84 0.33 5.84 -0.33 5.84 z" class="primitive"/>
              </g>
              <g transform="translate(30.68,57.59)" id="img-48e2a296-49">
                <path d="M-0.33,-1.3 L 0.33 -1.3 0.33 1.3 -0.33 1.3 z" class="primitive"/>
              </g>
              <g transform="translate(31.29,55)" id="img-48e2a296-50">
                <path d="M-0.33,-3.89 L 0.33 -3.89 0.33 3.89 -0.33 3.89 z" class="primitive"/>
              </g>
              <g transform="translate(31.89,53.7)" id="img-48e2a296-51">
                <path d="M-0.33,-5.19 L 0.33 -5.19 0.33 5.19 -0.33 5.19 z" class="primitive"/>
              </g>
              <g transform="translate(32.49,50.46)" id="img-48e2a296-52">
                <path d="M-0.33,-8.43 L 0.33 -8.43 0.33 8.43 -0.33 8.43 z" class="primitive"/>
              </g>
              <g transform="translate(33.1,54.35)" id="img-48e2a296-53">
                <path d="M-0.33,-4.54 L 0.33 -4.54 0.33 4.54 -0.33 4.54 z" class="primitive"/>
              </g>
              <g transform="translate(33.7,52.4)" id="img-48e2a296-54">
                <path d="M-0.33,-6.49 L 0.33 -6.49 0.33 6.49 -0.33 6.49 z" class="primitive"/>
              </g>
              <g transform="translate(34.31,52.4)" id="img-48e2a296-55">
                <path d="M-0.33,-6.49 L 0.33 -6.49 0.33 6.49 -0.33 6.49 z" class="primitive"/>
              </g>
              <g transform="translate(34.91,51.1)" id="img-48e2a296-56">
                <path d="M-0.33,-7.78 L 0.33 -7.78 0.33 7.78 -0.33 7.78 z" class="primitive"/>
              </g>
              <g transform="translate(35.52,51.75)" id="img-48e2a296-57">
                <path d="M-0.33,-7.13 L 0.33 -7.13 0.33 7.13 -0.33 7.13 z" class="primitive"/>
              </g>
              <g transform="translate(36.12,49.81)" id="img-48e2a296-58">
                <path d="M-0.33,-9.08 L 0.33 -9.08 0.33 9.08 -0.33 9.08 z" class="primitive"/>
              </g>
              <g transform="translate(36.73,49.81)" id="img-48e2a296-59">
                <path d="M-0.33,-9.08 L 0.33 -9.08 0.33 9.08 -0.33 9.08 z" class="primitive"/>
              </g>
              <g transform="translate(37.33,48.51)" id="img-48e2a296-60">
                <path d="M-0.33,-10.38 L 0.33 -10.38 0.33 10.38 -0.33 10.38 z" class="primitive"/>
              </g>
              <g transform="translate(37.93,50.46)" id="img-48e2a296-61">
                <path d="M-0.33,-8.43 L 0.33 -8.43 0.33 8.43 -0.33 8.43 z" class="primitive"/>
              </g>
              <g transform="translate(38.54,40.73)" id="img-48e2a296-62">
                <path d="M-0.33,-18.16 L 0.33 -18.16 0.33 18.16 -0.33 18.16 z" class="primitive"/>
              </g>
              <g transform="translate(39.14,49.16)" id="img-48e2a296-63">
                <path d="M-0.33,-9.73 L 0.33 -9.73 0.33 9.73 -0.33 9.73 z" class="primitive"/>
              </g>
              <g transform="translate(39.75,46.56)" id="img-48e2a296-64">
                <path d="M-0.33,-12.32 L 0.33 -12.32 0.33 12.32 -0.33 12.32 z" class="primitive"/>
              </g>
              <g transform="translate(40.35,47.86)" id="img-48e2a296-65">
                <path d="M-0.33,-11.03 L 0.33 -11.03 0.33 11.03 -0.33 11.03 z" class="primitive"/>
              </g>
              <g transform="translate(40.96,42.02)" id="img-48e2a296-66">
                <path d="M-0.33,-16.86 L 0.33 -16.86 0.33 16.86 -0.33 16.86 z" class="primitive"/>
              </g>
              <g transform="translate(41.56,44.62)" id="img-48e2a296-67">
                <path d="M-0.33,-14.27 L 0.33 -14.27 0.33 14.27 -0.33 14.27 z" class="primitive"/>
              </g>
              <g transform="translate(42.17,40.08)" id="img-48e2a296-68">
                <path d="M-0.33,-18.81 L 0.33 -18.81 0.33 18.81 -0.33 18.81 z" class="primitive"/>
              </g>
              <g transform="translate(42.77,42.02)" id="img-48e2a296-69">
                <path d="M-0.33,-16.86 L 0.33 -16.86 0.33 16.86 -0.33 16.86 z" class="primitive"/>
              </g>
              <g transform="translate(43.37,43.32)" id="img-48e2a296-70">
                <path d="M-0.33,-15.57 L 0.33 -15.57 0.33 15.57 -0.33 15.57 z" class="primitive"/>
              </g>
              <g transform="translate(43.98,37.48)" id="img-48e2a296-71">
                <path d="M-0.33,-21.4 L 0.33 -21.4 0.33 21.4 -0.33 21.4 z" class="primitive"/>
              </g>
              <g transform="translate(44.58,40.08)" id="img-48e2a296-72">
                <path d="M-0.33,-18.81 L 0.33 -18.81 0.33 18.81 -0.33 18.81 z" class="primitive"/>
              </g>
              <g transform="translate(45.19,32.94)" id="img-48e2a296-73">
                <path d="M-0.33,-25.94 L 0.33 -25.94 0.33 25.94 -0.33 25.94 z" class="primitive"/>
              </g>
              <g transform="translate(45.79,36.19)" id="img-48e2a296-74">
                <path d="M-0.33,-22.7 L 0.33 -22.7 0.33 22.7 -0.33 22.7 z" class="primitive"/>
              </g>
              <g transform="translate(46.4,36.19)" id="img-48e2a296-75">
                <path d="M-0.33,-22.7 L 0.33 -22.7 0.33 22.7 -0.33 22.7 z" class="primitive"/>
              </g>
              <g transform="translate(47,44.62)" id="img-48e2a296-76">
                <path d="M-0.33,-14.27 L 0.33 -14.27 0.33 14.27 -0.33 14.27 z" class="primitive"/>
              </g>
              <g transform="translate(47.61,42.67)" id="img-48e2a296-77">
                <path d="M-0.33,-16.21 L 0.33 -16.21 0.33 16.21 -0.33 16.21 z" class="primitive"/>
              </g>
              <g transform="translate(48.21,47.21)" id="img-48e2a296-78">
                <path d="M-0.33,-11.67 L 0.33 -11.67 0.33 11.67 -0.33 11.67 z" class="primitive"/>
              </g>
              <g transform="translate(48.82,45.92)" id="img-48e2a296-79">
                <path d="M-0.33,-12.97 L 0.33 -12.97 0.33 12.97 -0.33 12.97 z" class="primitive"/>
              </g>
              <g transform="translate(49.42,41.37)" id="img-48e2a296-80">
                <path d="M-0.33,-17.51 L 0.33 -17.51 0.33 17.51 -0.33 17.51 z" class="primitive"/>
              </g>
              <g transform="translate(50.02,45.27)" id="img-48e2a296-81">
                <path d="M-0.33,-13.62 L 0.33 -13.62 0.33 13.62 -0.33 13.62 z" class="primitive"/>
              </g>
              <g transform="translate(50.63,44.62)" id="img-48e2a296-82">
                <path d="M-0.33,-14.27 L 0.33 -14.27 0.33 14.27 -0.33 14.27 z" class="primitive"/>
              </g>
              <g transform="translate(51.23,40.73)" id="img-48e2a296-83">
                <path d="M-0.33,-18.16 L 0.33 -18.16 0.33 18.16 -0.33 18.16 z" class="primitive"/>
              </g>
              <g transform="translate(51.84,35.54)" id="img-48e2a296-84">
                <path d="M-0.33,-23.35 L 0.33 -23.35 0.33 23.35 -0.33 23.35 z" class="primitive"/>
              </g>
              <g transform="translate(52.44,43.97)" id="img-48e2a296-85">
                <path d="M-0.33,-14.92 L 0.33 -14.92 0.33 14.92 -0.33 14.92 z" class="primitive"/>
              </g>
              <g transform="translate(53.05,49.16)" id="img-48e2a296-86">
                <path d="M-0.33,-9.73 L 0.33 -9.73 0.33 9.73 -0.33 9.73 z" class="primitive"/>
              </g>
              <g transform="translate(53.65,50.46)" id="img-48e2a296-87">
                <path d="M-0.33,-8.43 L 0.33 -8.43 0.33 8.43 -0.33 8.43 z" class="primitive"/>
              </g>
              <g transform="translate(54.26,48.51)" id="img-48e2a296-88">
                <path d="M-0.33,-10.38 L 0.33 -10.38 0.33 10.38 -0.33 10.38 z" class="primitive"/>
              </g>
              <g transform="translate(54.86,48.51)" id="img-48e2a296-89">
                <path d="M-0.33,-10.38 L 0.33 -10.38 0.33 10.38 -0.33 10.38 z" class="primitive"/>
              </g>
              <g transform="translate(55.46,48.51)" id="img-48e2a296-90">
                <path d="M-0.33,-10.38 L 0.33 -10.38 0.33 10.38 -0.33 10.38 z" class="primitive"/>
              </g>
              <g transform="translate(56.07,45.27)" id="img-48e2a296-91">
                <path d="M-0.33,-13.62 L 0.33 -13.62 0.33 13.62 -0.33 13.62 z" class="primitive"/>
              </g>
              <g transform="translate(56.67,53.7)" id="img-48e2a296-92">
                <path d="M-0.33,-5.19 L 0.33 -5.19 0.33 5.19 -0.33 5.19 z" class="primitive"/>
              </g>
              <g transform="translate(57.28,49.81)" id="img-48e2a296-93">
                <path d="M-0.33,-9.08 L 0.33 -9.08 0.33 9.08 -0.33 9.08 z" class="primitive"/>
              </g>
              <g transform="translate(57.88,53.7)" id="img-48e2a296-94">
                <path d="M-0.33,-5.19 L 0.33 -5.19 0.33 5.19 -0.33 5.19 z" class="primitive"/>
              </g>
              <g transform="translate(58.49,51.1)" id="img-48e2a296-95">
                <path d="M-0.33,-7.78 L 0.33 -7.78 0.33 7.78 -0.33 7.78 z" class="primitive"/>
              </g>
              <g transform="translate(59.09,53.7)" id="img-48e2a296-96">
                <path d="M-0.33,-5.19 L 0.33 -5.19 0.33 5.19 -0.33 5.19 z" class="primitive"/>
              </g>
              <g transform="translate(59.7,55.64)" id="img-48e2a296-97">
                <path d="M-0.33,-3.24 L 0.33 -3.24 0.33 3.24 -0.33 3.24 z" class="primitive"/>
              </g>
              <g transform="translate(60.3,56.29)" id="img-48e2a296-98">
                <path d="M-0.33,-2.59 L 0.33 -2.59 0.33 2.59 -0.33 2.59 z" class="primitive"/>
              </g>
              <g transform="translate(60.91,55.64)" id="img-48e2a296-99">
                <path d="M-0.33,-3.24 L 0.33 -3.24 0.33 3.24 -0.33 3.24 z" class="primitive"/>
              </g>
              <g transform="translate(61.51,56.94)" id="img-48e2a296-100">
                <path d="M-0.33,-1.95 L 0.33 -1.95 0.33 1.95 -0.33 1.95 z" class="primitive"/>
              </g>
              <g transform="translate(62.11,54.35)" id="img-48e2a296-101">
                <path d="M-0.33,-4.54 L 0.33 -4.54 0.33 4.54 -0.33 4.54 z" class="primitive"/>
              </g>
              <g transform="translate(62.72,57.59)" id="img-48e2a296-102">
                <path d="M-0.33,-1.3 L 0.33 -1.3 0.33 1.3 -0.33 1.3 z" class="primitive"/>
              </g>
              <g transform="translate(63.32,55)" id="img-48e2a296-103">
                <path d="M-0.33,-3.89 L 0.33 -3.89 0.33 3.89 -0.33 3.89 z" class="primitive"/>
              </g>
              <g transform="translate(63.93,55.64)" id="img-48e2a296-104">
                <path d="M-0.33,-3.24 L 0.33 -3.24 0.33 3.24 -0.33 3.24 z" class="primitive"/>
              </g>
              <g transform="translate(64.53,56.29)" id="img-48e2a296-105">
                <path d="M-0.33,-2.59 L 0.33 -2.59 0.33 2.59 -0.33 2.59 z" class="primitive"/>
              </g>
              <g transform="translate(65.14,56.94)" id="img-48e2a296-106">
                <path d="M-0.33,-1.95 L 0.33 -1.95 0.33 1.95 -0.33 1.95 z" class="primitive"/>
              </g>
              <g transform="translate(65.74,58.89)" id="img-48e2a296-107">
                <path d="M-0.33,-0 L 0.33 -0 0.33 0 -0.33 0 z" class="primitive"/>
              </g>
              <g transform="translate(66.35,58.24)" id="img-48e2a296-108">
                <path d="M-0.33,-0.65 L 0.33 -0.65 0.33 0.65 -0.33 0.65 z" class="primitive"/>
              </g>
              <g transform="translate(66.95,57.59)" id="img-48e2a296-109">
                <path d="M-0.33,-1.3 L 0.33 -1.3 0.33 1.3 -0.33 1.3 z" class="primitive"/>
              </g>
              <g transform="translate(67.55,58.24)" id="img-48e2a296-110">
                <path d="M-0.33,-0.65 L 0.33 -0.65 0.33 0.65 -0.33 0.65 z" class="primitive"/>
              </g>
              <g transform="translate(68.16,57.59)" id="img-48e2a296-111">
                <path d="M-0.33,-1.3 L 0.33 -1.3 0.33 1.3 -0.33 1.3 z" class="primitive"/>
              </g>
              <g transform="translate(68.76,58.89)" id="img-48e2a296-112">
                <path d="M-0.33,-0 L 0.33 -0 0.33 0 -0.33 0 z" class="primitive"/>
              </g>
              <g transform="translate(69.37,58.24)" id="img-48e2a296-113">
                <path d="M-0.33,-0.65 L 0.33 -0.65 0.33 0.65 -0.33 0.65 z" class="primitive"/>
              </g>
              <g transform="translate(69.97,58.89)" id="img-48e2a296-114">
                <path d="M-0.33,-0 L 0.33 -0 0.33 0 -0.33 0 z" class="primitive"/>
              </g>
              <g transform="translate(70.58,57.59)" id="img-48e2a296-115">
                <path d="M-0.33,-1.3 L 0.33 -1.3 0.33 1.3 -0.33 1.3 z" class="primitive"/>
              </g>
              <g transform="translate(71.18,58.24)" id="img-48e2a296-116">
                <path d="M-0.33,-0.65 L 0.33 -0.65 0.33 0.65 -0.33 0.65 z" class="primitive"/>
              </g>
              <g transform="translate(71.79,58.89)" id="img-48e2a296-117">
                <path d="M-0.33,-0 L 0.33 -0 0.33 0 -0.33 0 z" class="primitive"/>
              </g>
              <g transform="translate(72.39,58.89)" id="img-48e2a296-118">
                <path d="M-0.33,-0 L 0.33 -0 0.33 0 -0.33 0 z" class="primitive"/>
              </g>
              <g transform="translate(73,58.89)" id="img-48e2a296-119">
                <path d="M-0.33,-0 L 0.33 -0 0.33 0 -0.33 0 z" class="primitive"/>
              </g>
              <g transform="translate(73.6,58.89)" id="img-48e2a296-120">
                <path d="M-0.33,-0 L 0.33 -0 0.33 0 -0.33 0 z" class="primitive"/>
              </g>
              <g transform="translate(74.2,58.89)" id="img-48e2a296-121">
                <path d="M-0.33,-0 L 0.33 -0 0.33 0 -0.33 0 z" class="primitive"/>
              </g>
              <g transform="translate(74.81,58.89)" id="img-48e2a296-122">
                <path d="M-0.33,-0 L 0.33 -0 0.33 0 -0.33 0 z" class="primitive"/>
              </g>
              <g transform="translate(75.41,58.89)" id="img-48e2a296-123">
                <path d="M-0.33,-0 L 0.33 -0 0.33 0 -0.33 0 z" class="primitive"/>
              </g>
              <g transform="translate(76.02,58.89)" id="img-48e2a296-124">
                <path d="M-0.33,-0 L 0.33 -0 0.33 0 -0.33 0 z" class="primitive"/>
              </g>
              <g transform="translate(76.62,58.89)" id="img-48e2a296-125">
                <path d="M-0.33,-0 L 0.33 -0 0.33 0 -0.33 0 z" class="primitive"/>
              </g>
              <g transform="translate(77.23,58.89)" id="img-48e2a296-126">
                <path d="M-0.33,-0 L 0.33 -0 0.33 0 -0.33 0 z" class="primitive"/>
              </g>
              <g transform="translate(77.83,58.89)" id="img-48e2a296-127">
                <path d="M-0.33,-0 L 0.33 -0 0.33 0 -0.33 0 z" class="primitive"/>
              </g>
              <g transform="translate(78.44,58.89)" id="img-48e2a296-128">
                <path d="M-0.33,-0 L 0.33 -0 0.33 0 -0.33 0 z" class="primitive"/>
              </g>
              <g transform="translate(79.04,58.24)" id="img-48e2a296-129">
                <path d="M-0.33,-0.65 L 0.33 -0.65 0.33 0.65 -0.33 0.65 z" class="primitive"/>
              </g>
              <g transform="translate(79.64,58.89)" id="img-48e2a296-130">
                <path d="M-0.33,-0 L 0.33 -0 0.33 0 -0.33 0 z" class="primitive"/>
              </g>
              <g transform="translate(80.25,58.24)" id="img-48e2a296-131">
                <path d="M-0.33,-0.65 L 0.33 -0.65 0.33 0.65 -0.33 0.65 z" class="primitive"/>
              </g>
            </g>
          </g>
        </g>
      </g>
    </g>
  </g>
  <g class="guide ylabels" font-size="2.82" font-family="'PT Sans Caption','Helvetica Neue','Helvetica',sans-serif" fill="#6C606B" id="img-48e2a296-132">
    <g transform="translate(16.96,58.89)" id="img-48e2a296-133">
      <g class="primitive">
        <text text-anchor="end" dy="0.35em">0</text>
      </g>
    </g>
    <g transform="translate(16.96,45.92)" id="img-48e2a296-134">
      <g class="primitive">
        <text text-anchor="end" dy="0.35em">10</text>
      </g>
    </g>
    <g transform="translate(16.96,32.94)" id="img-48e2a296-135">
      <g class="primitive">
        <text text-anchor="end" dy="0.35em">20</text>
      </g>
    </g>
    <g transform="translate(16.96,19.97)" id="img-48e2a296-136">
      <g class="primitive">
        <text text-anchor="end" dy="0.35em">30</text>
      </g>
    </g>
    <g transform="translate(16.96,7)" id="img-48e2a296-137">
      <g class="primitive">
        <text text-anchor="end" dy="0.35em">40</text>
      </g>
    </g>
  </g>
  <g font-size="3.88" font-family="'PT Sans','Helvetica Neue','Helvetica',sans-serif" fill="#564A55" stroke="#000000" stroke-opacity="0.000" id="img-48e2a296-138">
    <g transform="translate(8.81,30.94)" id="img-48e2a296-139">
      <g class="primitive">
        <text text-anchor="middle" dy="0.35em" transform="rotate(-90,0, 2)">frequency</text>
      </g>
    </g>
  </g>
</g>
<defs>
  <clipPath id="img-48e2a296-11">
    <path d="M17.96,5 L 83.03 5 83.03 60.89 17.96 60.89" />
  </clipPath>
</defs>
</svg>
