<?xml version="1.0" encoding="UTF-8"?>
<svg xmlns="http://www.w3.org/2000/svg"
     xmlns:xlink="http://www.w3.org/1999/xlink"
     xmlns:gadfly="http://www.gadflyjl.org/ns"
     version="1.2"
     width="140mm" height="80mm" viewBox="0 0 140 80"
     stroke="none"
     fill="#000000"
     stroke-width="0.3"
     font-size="3.88"
>
<defs>
  <marker id="arrow" markerWidth="15" markerHeight="7" refX="5" refY="3.5" orient="auto" markerUnits="strokeWidth">
    <path d="M0,0 L15,3.5 L0,7 z" stroke="context-stroke" fill="context-stroke"/>
  </marker>
</defs>
<g class="plotroot xscalable yscalable" id="img-e5aeffd1-1">
  <g class="guide xlabels" font-size="2.82" font-family="'PT Sans Caption','Helvetica Neue','Helvetica',sans-serif" fill="#6C606B" id="img-e5aeffd1-2">
    <g transform="translate(19.96,71.33)">
      <g class="primitive">
        <text text-anchor="middle" dy="0.6em">10.9</text>
      </g>
    </g>
    <g transform="translate(30.67,71.33)">
      <g class="primitive">
        <text text-anchor="middle" dy="0.6em">11.0</text>
      </g>
    </g>
    <g transform="translate(41.38,71.33)">
      <g class="primitive">
        <text text-anchor="middle" dy="0.6em">11.1</text>
      </g>
    </g>
    <g transform="translate(52.09,71.33)">
      <g class="primitive">
        <text text-anchor="middle" dy="0.6em">11.2</text>
      </g>
    </g>
    <g transform="translate(62.8,71.33)">
      <g class="primitive">
        <text text-anchor="middle" dy="0.6em">11.3</text>
      </g>
    </g>
    <g transform="translate(73.51,71.33)">
      <g class="primitive">
        <text text-anchor="middle" dy="0.6em">11.4</text>
      </g>
    </g>
    <g transform="translate(84.22,71.33)">
      <g class="primitive">
        <text text-anchor="middle" dy="0.6em">11.5</text>
      </g>
    </g>
  </g>
  <g class="guide colorkey" id="img-e5aeffd1-3">
    <g class="color_coding_noncoding_noncoding_3-path" id="img-e5aeffd1-4">
      <g fill="#4C404B" font-size="2.82" font-family="'PT Sans','Helvetica Neue','Helvetica',sans-serif" id="img-e5aeffd1-5">
        <g transform="translate(90.03,39.48)" id="img-e5aeffd1-6">
          <g class="primitive">
            <text dy="0.35em">coding_noncoding_noncoding_3-path</text>
          </g>
        </g>
      </g>
      <g fill-opacity="1" fill="#00BFFF" stroke="#FFFFFF" id="img-e5aeffd1-7">
        <g transform="translate(88.13,39.48)" id="img-e5aeffd1-8">
          <path d="M-0.91,-0.91 L 0.91 -0.91 0.91 0.91 -0.91 0.91 z" class="primitive"/>
        </g>
      </g>
    </g>
    <g fill="#362A35" font-size="3.88" font-family="'PT Sans','Helvetica Neue','Helvetica',sans-serif" stroke="#000000" stroke-opacity="0.000" id="img-e5aeffd1-9">
      <g transform="translate(87.22,35.66)" id="img-e5aeffd1-10">
        <g class="primitive">
          <text dy="-0em">graphlet</text>
        </g>
      </g>
    </g>
  </g>
  <g clip-path="url(#img-e5aeffd1-11)">
    <g id="img-e5aeffd1-12">
      <g pointer-events="visible" stroke-width="0.3" fill="#000000" fill-opacity="0.000" stroke="#000000" stroke-opacity="0.000" class="guide background" id="img-e5aeffd1-13">
        <g transform="translate(52.09,37.66)" id="img-e5aeffd1-14">
          <path d="M-34.13,-32.66 L 34.13 -32.66 34.13 32.66 -34.13 32.66 z" class="primitive"/>
        </g>
      </g>
      <g class="guide ygridlines xfixed" stroke-dasharray="0.5,0.5" stroke-width="0.2" stroke="#D0D0E0" id="img-e5aeffd1-15">
        <g transform="translate(52.09,68.33)" id="img-e5aeffd1-16">
          <path fill="none" d="M-34.13,0 L 34.13 0" class="primitive"/>
        </g>
        <g transform="translate(52.09,53)" id="img-e5aeffd1-17">
          <path fill="none" d="M-34.13,0 L 34.13 0" class="primitive"/>
        </g>
        <g transform="translate(52.09,37.66)" id="img-e5aeffd1-18">
          <path fill="none" d="M-34.13,0 L 34.13 0" class="primitive"/>
        </g>
        <g transform="translate(52.09,22.33)" id="img-e5aeffd1-19">
          <path fill="none" d="M-34.13,0 L 34.13 0" class="primitive"/>
        </g>
        <g transform="translate(52.09,7)" id="img-e5aeffd1-20">
          <path fill="none" d="M-34.13,0 L 34.13 0" class="primitive"/>
        </g>
      </g>
      <g class="guide xgridlines yfixed" stroke-dasharray="0.5,0.5" stroke-width="0.2" stroke="#D0D0E0" id="img-e5aeffd1-21">
        <g transform="translate(19.96,37.66)" id="img-e5aeffd1-22">
          <path fill="none" d="M0,-32.66 L 0 32.66" class="primitive"/>
        </g>
        <g transform="translate(30.67,37.66)" id="img-e5aeffd1-23">
          <path fill="none" d="M0,-32.66 L 0 32.66" class="primitive"/>
        </g>
        <g transform="translate(41.38,37.66)" id="img-e5aeffd1-24">
          <path fill="none" d="M0,-32.66 L 0 32.66" class="primitive"/>
        </g>
        <g transform="translate(52.09,37.66)" id="img-e5aeffd1-25">
          <path fill="none" d="M0,-32.66 L 0 32.66" class="primitive"/>
        </g>
        <g transform="translate(62.8,37.66)" id="img-e5aeffd1-26">
          <path fill="none" d="M0,-32.66 L 0 32.66" class="primitive"/>
        </g>
        <g transform="translate(73.51,37.66)" id="img-e5aeffd1-27">
          <path fill="none" d="M0,-32.66 L 0 32.66" class="primitive"/>
        </g>
        <g transform="translate(84.22,37.66)" id="img-e5aeffd1-28">
          <path fill="none" d="M0,-32.66 L 0 32.66" class="primitive"/>
        </g>
      </g>
      <g class="plotpanel" id="img-e5aeffd1-29">
        <metadata>
          <boundingbox value="17.95833333333333mm 5.0mm 68.26166666666666mm 65.32666666666667mm"/>
          <unitbox value="10.881326348004254 41.30448961843679 0.6373473039914928 -42.60897923687358"/>
        </metadata>
        <g shape-rendering="crispEdges" stroke-width="0.3" id="img-e5aeffd1-30">
          <g stroke="#000000" stroke-opacity="0.000" class="geometry" id="img-e5aeffd1-31">
            <g fill="#00BFFF" id="img-e5aeffd1-32">
              <g transform="translate(25.15,67.56)" id="img-e5aeffd1-33">
                <path d="M-0.3,-0.77 L 0.3 -0.77 0.3 0.77 -0.3 0.77 z" class="primitive"/>
              </g>
              <g transform="translate(25.7,68.33)" id="img-e5aeffd1-34">
                <path d="M-0.3,-0 L 0.3 -0 0.3 0 -0.3 0 z" class="primitive"/>
              </g>
              <g transform="translate(26.25,68.33)" id="img-e5aeffd1-35">
                <path d="M-0.3,-0 L 0.3 -0 0.3 0 -0.3 0 z" class="primitive"/>
              </g>
              <g transform="translate(26.79,68.33)" id="img-e5aeffd1-36">
                <path d="M-0.3,-0 L 0.3 -0 0.3 0 -0.3 0 z" class="primitive"/>
              </g>
              <g transform="translate(27.34,67.56)" id="img-e5aeffd1-37">
                <path d="M-0.3,-0.77 L 0.3 -0.77 0.3 0.77 -0.3 0.77 z" class="primitive"/>
              </g>
              <g transform="translate(27.88,68.33)" id="img-e5aeffd1-38">
                <path d="M-0.3,-0 L 0.3 -0 0.3 0 -0.3 0 z" class="primitive"/>
              </g>
              <g transform="translate(28.43,68.33)" id="img-e5aeffd1-39">
                <path d="M-0.3,-0 L 0.3 -0 0.3 0 -0.3 0 z" class="primitive"/>
              </g>
              <g transform="translate(28.98,68.33)" id="img-e5aeffd1-40">
                <path d="M-0.3,-0 L 0.3 -0 0.3 0 -0.3 0 z" class="primitive"/>
              </g>
              <g transform="translate(29.52,68.33)" id="img-e5aeffd1-41">
                <path d="M-0.3,-0 L 0.3 -0 0.3 0 -0.3 0 z" class="primitive"/>
              </g>
              <g transform="translate(30.07,67.56)" id="img-e5aeffd1-42">
                <path d="M-0.3,-0.77 L 0.3 -0.77 0.3 0.77 -0.3 0.77 z" class="primitive"/>
              </g>
              <g transform="translate(30.62,67.56)" id="img-e5aeffd1-43">
                <path d="M-0.3,-0.77 L 0.3 -0.77 0.3 0.77 -0.3 0.77 z" class="primitive"/>
              </g>
              <g transform="translate(31.16,67.56)" id="img-e5aeffd1-44">
                <path d="M-0.3,-0.77 L 0.3 -0.77 0.3 0.77 -0.3 0.77 z" class="primitive"/>
              </g>
              <g transform="translate(31.71,68.33)" id="img-e5aeffd1-45">
                <path d="M-0.3,-0 L 0.3 -0 0.3 0 -0.3 0 z" class="primitive"/>
              </g>
              <g transform="translate(32.25,67.56)" id="img-e5aeffd1-46">
                <path d="M-0.3,-0.77 L 0.3 -0.77 0.3 0.77 -0.3 0.77 z" class="primitive"/>
              </g>
              <g transform="translate(32.8,67.56)" id="img-e5aeffd1-47">
                <path d="M-0.3,-0.77 L 0.3 -0.77 0.3 0.77 -0.3 0.77 z" class="primitive"/>
              </g>
              <g transform="translate(33.35,67.56)" id="img-e5aeffd1-48">
                <path d="M-0.3,-0.77 L 0.3 -0.77 0.3 0.77 -0.3 0.77 z" class="primitive"/>
              </g>
              <g transform="translate(33.89,68.33)" id="img-e5aeffd1-49">
                <path d="M-0.3,-0 L 0.3 -0 0.3 0 -0.3 0 z" class="primitive"/>
              </g>
              <g transform="translate(34.44,66.79)" id="img-e5aeffd1-50">
                <path d="M-0.3,-1.53 L 0.3 -1.53 0.3 1.53 -0.3 1.53 z" class="primitive"/>
              </g>
              <g transform="translate(34.99,66.79)" id="img-e5aeffd1-51">
                <path d="M-0.3,-1.53 L 0.3 -1.53 0.3 1.53 -0.3 1.53 z" class="primitive"/>
              </g>
              <g transform="translate(35.53,68.33)" id="img-e5aeffd1-52">
                <path d="M-0.3,-0 L 0.3 -0 0.3 0 -0.3 0 z" class="primitive"/>
              </g>
              <g transform="translate(36.08,68.33)" id="img-e5aeffd1-53">
                <path d="M-0.3,-0 L 0.3 -0 0.3 0 -0.3 0 z" class="primitive"/>
              </g>
              <g transform="translate(36.63,67.56)" id="img-e5aeffd1-54">
                <path d="M-0.3,-0.77 L 0.3 -0.77 0.3 0.77 -0.3 0.77 z" class="primitive"/>
              </g>
              <g transform="translate(37.17,66.03)" id="img-e5aeffd1-55">
                <path d="M-0.3,-2.3 L 0.3 -2.3 0.3 2.3 -0.3 2.3 z" class="primitive"/>
              </g>
              <g transform="translate(37.72,66.03)" id="img-e5aeffd1-56">
                <path d="M-0.3,-2.3 L 0.3 -2.3 0.3 2.3 -0.3 2.3 z" class="primitive"/>
              </g>
              <g transform="translate(38.26,66.03)" id="img-e5aeffd1-57">
                <path d="M-0.3,-2.3 L 0.3 -2.3 0.3 2.3 -0.3 2.3 z" class="primitive"/>
              </g>
              <g transform="translate(38.81,66.03)" id="img-e5aeffd1-58">
                <path d="M-0.3,-2.3 L 0.3 -2.3 0.3 2.3 -0.3 2.3 z" class="primitive"/>
              </g>
              <g transform="translate(39.36,62.96)" id="img-e5aeffd1-59">
                <path d="M-0.3,-5.37 L 0.3 -5.37 0.3 5.37 -0.3 5.37 z" class="primitive"/>
              </g>
              <g transform="translate(39.9,66.79)" id="img-e5aeffd1-60">
                <path d="M-0.3,-1.53 L 0.3 -1.53 0.3 1.53 -0.3 1.53 z" class="primitive"/>
              </g>
              <g transform="translate(40.45,63.73)" id="img-e5aeffd1-61">
                <path d="M-0.3,-4.6 L 0.3 -4.6 0.3 4.6 -0.3 4.6 z" class="primitive"/>
              </g>
              <g transform="translate(41,67.56)" id="img-e5aeffd1-62">
                <path d="M-0.3,-0.77 L 0.3 -0.77 0.3 0.77 -0.3 0.77 z" class="primitive"/>
              </g>
              <g transform="translate(41.54,64.49)" id="img-e5aeffd1-63">
                <path d="M-0.3,-3.83 L 0.3 -3.83 0.3 3.83 -0.3 3.83 z" class="primitive"/>
              </g>
              <g transform="translate(42.09,63.73)" id="img-e5aeffd1-64">
                <path d="M-0.3,-4.6 L 0.3 -4.6 0.3 4.6 -0.3 4.6 z" class="primitive"/>
              </g>
              <g transform="translate(42.63,62.96)" id="img-e5aeffd1-65">
                <path d="M-0.3,-5.37 L 0.3 -5.37 0.3 5.37 -0.3 5.37 z" class="primitive"/>
              </g>
              <g transform="translate(43.18,62.19)" id="img-e5aeffd1-66">
                <path d="M-0.3,-6.13 L 0.3 -6.13 0.3 6.13 -0.3 6.13 z" class="primitive"/>
              </g>
              <g transform="translate(43.73,59.89)" id="img-e5aeffd1-67">
                <path d="M-0.3,-8.43 L 0.3 -8.43 0.3 8.43 -0.3 8.43 z" class="primitive"/>
              </g>
              <g transform="translate(44.27,65.26)" id="img-e5aeffd1-68">
                <path d="M-0.3,-3.07 L 0.3 -3.07 0.3 3.07 -0.3 3.07 z" class="primitive"/>
              </g>
              <g transform="translate(44.82,53)" id="img-e5aeffd1-69">
                <path d="M-0.3,-15.33 L 0.3 -15.33 0.3 15.33 -0.3 15.33 z" class="primitive"/>
              </g>
              <g transform="translate(45.37,62.96)" id="img-e5aeffd1-70">
                <path d="M-0.3,-5.37 L 0.3 -5.37 0.3 5.37 -0.3 5.37 z" class="primitive"/>
              </g>
              <g transform="translate(45.91,63.73)" id="img-e5aeffd1-71">
                <path d="M-0.3,-4.6 L 0.3 -4.6 0.3 4.6 -0.3 4.6 z" class="primitive"/>
              </g>
              <g transform="translate(46.46,56.06)" id="img-e5aeffd1-72">
                <path d="M-0.3,-12.27 L 0.3 -12.27 0.3 12.27 -0.3 12.27 z" class="primitive"/>
              </g>
              <g transform="translate(47,56.06)" id="img-e5aeffd1-73">
                <path d="M-0.3,-12.27 L 0.3 -12.27 0.3 12.27 -0.3 12.27 z" class="primitive"/>
              </g>
              <g transform="translate(47.55,58.36)" id="img-e5aeffd1-74">
                <path d="M-0.3,-9.97 L 0.3 -9.97 0.3 9.97 -0.3 9.97 z" class="primitive"/>
              </g>
              <g transform="translate(48.1,58.36)" id="img-e5aeffd1-75">
                <path d="M-0.3,-9.97 L 0.3 -9.97 0.3 9.97 -0.3 9.97 z" class="primitive"/>
              </g>
              <g transform="translate(48.64,53)" id="img-e5aeffd1-76">
                <path d="M-0.3,-15.33 L 0.3 -15.33 0.3 15.33 -0.3 15.33 z" class="primitive"/>
              </g>
              <g transform="translate(49.19,55.29)" id="img-e5aeffd1-77">
                <path d="M-0.3,-13.03 L 0.3 -13.03 0.3 13.03 -0.3 13.03 z" class="primitive"/>
              </g>
              <g transform="translate(49.74,49.16)" id="img-e5aeffd1-78">
                <path d="M-0.3,-19.16 L 0.3 -19.16 0.3 19.16 -0.3 19.16 z" class="primitive"/>
              </g>
              <g transform="translate(50.28,52.23)" id="img-e5aeffd1-79">
                <path d="M-0.3,-16.1 L 0.3 -16.1 0.3 16.1 -0.3 16.1 z" class="primitive"/>
              </g>
              <g transform="translate(50.83,49.16)" id="img-e5aeffd1-80">
                <path d="M-0.3,-19.16 L 0.3 -19.16 0.3 19.16 -0.3 19.16 z" class="primitive"/>
              </g>
              <g transform="translate(51.38,49.16)" id="img-e5aeffd1-81">
                <path d="M-0.3,-19.16 L 0.3 -19.16 0.3 19.16 -0.3 19.16 z" class="primitive"/>
              </g>
              <g transform="translate(51.92,45.33)" id="img-e5aeffd1-82">
                <path d="M-0.3,-23 L 0.3 -23 0.3 23 -0.3 23 z" class="primitive"/>
              </g>
              <g transform="translate(52.47,53)" id="img-e5aeffd1-83">
                <path d="M-0.3,-15.33 L 0.3 -15.33 0.3 15.33 -0.3 15.33 z" class="primitive"/>
              </g>
              <g transform="translate(53.01,46.86)" id="img-e5aeffd1-84">
                <path d="M-0.3,-21.46 L 0.3 -21.46 0.3 21.46 -0.3 21.46 z" class="primitive"/>
              </g>
              <g transform="translate(53.56,44.56)" id="img-e5aeffd1-85">
                <path d="M-0.3,-23.76 L 0.3 -23.76 0.3 23.76 -0.3 23.76 z" class="primitive"/>
              </g>
              <g transform="translate(54.11,51.46)" id="img-e5aeffd1-86">
                <path d="M-0.3,-16.86 L 0.3 -16.86 0.3 16.86 -0.3 16.86 z" class="primitive"/>
              </g>
              <g transform="translate(54.65,50.7)" id="img-e5aeffd1-87">
                <path d="M-0.3,-17.63 L 0.3 -17.63 0.3 17.63 -0.3 17.63 z" class="primitive"/>
              </g>
              <g transform="translate(55.2,47.63)" id="img-e5aeffd1-88">
                <path d="M-0.3,-20.7 L 0.3 -20.7 0.3 20.7 -0.3 20.7 z" class="primitive"/>
              </g>
              <g transform="translate(55.75,46.1)" id="img-e5aeffd1-89">
                <path d="M-0.3,-22.23 L 0.3 -22.23 0.3 22.23 -0.3 22.23 z" class="primitive"/>
              </g>
              <g transform="translate(56.29,48.4)" id="img-e5aeffd1-90">
                <path d="M-0.3,-19.93 L 0.3 -19.93 0.3 19.93 -0.3 19.93 z" class="primitive"/>
              </g>
              <g transform="translate(56.84,45.33)" id="img-e5aeffd1-91">
                <path d="M-0.3,-23 L 0.3 -23 0.3 23 -0.3 23 z" class="primitive"/>
              </g>
              <g transform="translate(57.38,48.4)" id="img-e5aeffd1-92">
                <path d="M-0.3,-19.93 L 0.3 -19.93 0.3 19.93 -0.3 19.93 z" class="primitive"/>
              </g>
              <g transform="translate(57.93,49.16)" id="img-e5aeffd1-93">
                <path d="M-0.3,-19.16 L 0.3 -19.16 0.3 19.16 -0.3 19.16 z" class="primitive"/>
              </g>
              <g transform="translate(58.48,46.86)" id="img-e5aeffd1-94">
                <path d="M-0.3,-21.46 L 0.3 -21.46 0.3 21.46 -0.3 21.46 z" class="primitive"/>
              </g>
              <g transform="translate(59.02,48.4)" id="img-e5aeffd1-95">
                <path d="M-0.3,-19.93 L 0.3 -19.93 0.3 19.93 -0.3 19.93 z" class="primitive"/>
              </g>
              <g transform="translate(59.57,46.1)" id="img-e5aeffd1-96">
                <path d="M-0.3,-22.23 L 0.3 -22.23 0.3 22.23 -0.3 22.23 z" class="primitive"/>
              </g>
              <g transform="translate(60.12,50.7)" id="img-e5aeffd1-97">
                <path d="M-0.3,-17.63 L 0.3 -17.63 0.3 17.63 -0.3 17.63 z" class="primitive"/>
              </g>
              <g transform="translate(60.66,53)" id="img-e5aeffd1-98">
                <path d="M-0.3,-15.33 L 0.3 -15.33 0.3 15.33 -0.3 15.33 z" class="primitive"/>
              </g>
              <g transform="translate(61.21,47.63)" id="img-e5aeffd1-99">
                <path d="M-0.3,-20.7 L 0.3 -20.7 0.3 20.7 -0.3 20.7 z" class="primitive"/>
              </g>
              <g transform="translate(61.75,48.4)" id="img-e5aeffd1-100">
                <path d="M-0.3,-19.93 L 0.3 -19.93 0.3 19.93 -0.3 19.93 z" class="primitive"/>
              </g>
              <g transform="translate(62.3,50.7)" id="img-e5aeffd1-101">
                <path d="M-0.3,-17.63 L 0.3 -17.63 0.3 17.63 -0.3 17.63 z" class="primitive"/>
              </g>
              <g transform="translate(62.85,56.06)" id="img-e5aeffd1-102">
                <path d="M-0.3,-12.27 L 0.3 -12.27 0.3 12.27 -0.3 12.27 z" class="primitive"/>
              </g>
              <g transform="translate(63.39,55.29)" id="img-e5aeffd1-103">
                <path d="M-0.3,-13.03 L 0.3 -13.03 0.3 13.03 -0.3 13.03 z" class="primitive"/>
              </g>
              <g transform="translate(63.94,56.06)" id="img-e5aeffd1-104">
                <path d="M-0.3,-12.27 L 0.3 -12.27 0.3 12.27 -0.3 12.27 z" class="primitive"/>
              </g>
              <g transform="translate(64.49,59.89)" id="img-e5aeffd1-105">
                <path d="M-0.3,-8.43 L 0.3 -8.43 0.3 8.43 -0.3 8.43 z" class="primitive"/>
              </g>
              <g transform="translate(65.03,56.83)" id="img-e5aeffd1-106">
                <path d="M-0.3,-11.5 L 0.3 -11.5 0.3 11.5 -0.3 11.5 z" class="primitive"/>
              </g>
              <g transform="translate(65.58,59.13)" id="img-e5aeffd1-107">
                <path d="M-0.3,-9.2 L 0.3 -9.2 0.3 9.2 -0.3 9.2 z" class="primitive"/>
              </g>
              <g transform="translate(66.13,57.59)" id="img-e5aeffd1-108">
                <path d="M-0.3,-10.73 L 0.3 -10.73 0.3 10.73 -0.3 10.73 z" class="primitive"/>
              </g>
              <g transform="translate(66.67,64.49)" id="img-e5aeffd1-109">
                <path d="M-0.3,-3.83 L 0.3 -3.83 0.3 3.83 -0.3 3.83 z" class="primitive"/>
              </g>
              <g transform="translate(67.22,62.96)" id="img-e5aeffd1-110">
                <path d="M-0.3,-5.37 L 0.3 -5.37 0.3 5.37 -0.3 5.37 z" class="primitive"/>
              </g>
              <g transform="translate(67.76,62.96)" id="img-e5aeffd1-111">
                <path d="M-0.3,-5.37 L 0.3 -5.37 0.3 5.37 -0.3 5.37 z" class="primitive"/>
              </g>
              <g transform="translate(68.31,61.43)" id="img-e5aeffd1-112">
                <path d="M-0.3,-6.9 L 0.3 -6.9 0.3 6.9 -0.3 6.9 z" class="primitive"/>
              </g>
              <g transform="translate(68.86,62.19)" id="img-e5aeffd1-113">
                <path d="M-0.3,-6.13 L 0.3 -6.13 0.3 6.13 -0.3 6.13 z" class="primitive"/>
              </g>
              <g transform="translate(69.4,61.43)" id="img-e5aeffd1-114">
                <path d="M-0.3,-6.9 L 0.3 -6.9 0.3 6.9 -0.3 6.9 z" class="primitive"/>
              </g>
              <g transform="translate(69.95,65.26)" id="img-e5aeffd1-115">
                <path d="M-0.3,-3.07 L 0.3 -3.07 0.3 3.07 -0.3 3.07 z" class="primitive"/>
              </g>
              <g transform="translate(70.5,65.26)" id="img-e5aeffd1-116">
                <path d="M-0.3,-3.07 L 0.3 -3.07 0.3 3.07 -0.3 3.07 z" class="primitive"/>
              </g>
              <g transform="translate(71.04,64.49)" id="img-e5aeffd1-117">
                <path d="M-0.3,-3.83 L 0.3 -3.83 0.3 3.83 -0.3 3.83 z" class="primitive"/>
              </g>
              <g transform="translate(71.59,65.26)" id="img-e5aeffd1-118">
                <path d="M-0.3,-3.07 L 0.3 -3.07 0.3 3.07 -0.3 3.07 z" class="primitive"/>
              </g>
              <g transform="translate(72.13,66.03)" id="img-e5aeffd1-119">
                <path d="M-0.3,-2.3 L 0.3 -2.3 0.3 2.3 -0.3 2.3 z" class="primitive"/>
              </g>
              <g transform="translate(72.68,65.26)" id="img-e5aeffd1-120">
                <path d="M-0.3,-3.07 L 0.3 -3.07 0.3 3.07 -0.3 3.07 z" class="primitive"/>
              </g>
              <g transform="translate(73.23,68.33)" id="img-e5aeffd1-121">
                <path d="M-0.3,-0 L 0.3 -0 0.3 0 -0.3 0 z" class="primitive"/>
              </g>
              <g transform="translate(73.77,66.79)" id="img-e5aeffd1-122">
                <path d="M-0.3,-1.53 L 0.3 -1.53 0.3 1.53 -0.3 1.53 z" class="primitive"/>
              </g>
              <g transform="translate(74.32,67.56)" id="img-e5aeffd1-123">
                <path d="M-0.3,-0.77 L 0.3 -0.77 0.3 0.77 -0.3 0.77 z" class="primitive"/>
              </g>
              <g transform="translate(74.87,68.33)" id="img-e5aeffd1-124">
                <path d="M-0.3,-0 L 0.3 -0 0.3 0 -0.3 0 z" class="primitive"/>
              </g>
              <g transform="translate(75.41,68.33)" id="img-e5aeffd1-125">
                <path d="M-0.3,-0 L 0.3 -0 0.3 0 -0.3 0 z" class="primitive"/>
              </g>
              <g transform="translate(75.96,68.33)" id="img-e5aeffd1-126">
                <path d="M-0.3,-0 L 0.3 -0 0.3 0 -0.3 0 z" class="primitive"/>
              </g>
              <g transform="translate(76.5,68.33)" id="img-e5aeffd1-127">
                <path d="M-0.3,-0 L 0.3 -0 0.3 0 -0.3 0 z" class="primitive"/>
              </g>
              <g transform="translate(77.05,67.56)" id="img-e5aeffd1-128">
                <path d="M-0.3,-0.77 L 0.3 -0.77 0.3 0.77 -0.3 0.77 z" class="primitive"/>
              </g>
              <g transform="translate(77.6,68.33)" id="img-e5aeffd1-129">
                <path d="M-0.3,-0 L 0.3 -0 0.3 0 -0.3 0 z" class="primitive"/>
              </g>
              <g transform="translate(78.14,68.33)" id="img-e5aeffd1-130">
                <path d="M-0.3,-0 L 0.3 -0 0.3 0 -0.3 0 z" class="primitive"/>
              </g>
              <g transform="translate(78.69,68.33)" id="img-e5aeffd1-131">
                <path d="M-0.3,-0 L 0.3 -0 0.3 0 -0.3 0 z" class="primitive"/>
              </g>
              <g transform="translate(79.24,67.56)" id="img-e5aeffd1-132">
                <path d="M-0.3,-0.77 L 0.3 -0.77 0.3 0.77 -0.3 0.77 z" class="primitive"/>
              </g>
            </g>
          </g>
        </g>
      </g>
    </g>
  </g>
  <g class="guide ylabels" font-size="2.82" font-family="'PT Sans Caption','Helvetica Neue','Helvetica',sans-serif" fill="#6C606B" id="img-e5aeffd1-133">
    <g transform="translate(16.96,68.33)" id="img-e5aeffd1-134">
      <g class="primitive">
        <text text-anchor="end" dy="0.35em">0</text>
      </g>
    </g>
    <g transform="translate(16.96,53)" id="img-e5aeffd1-135">
      <g class="primitive">
        <text text-anchor="end" dy="0.35em">10</text>
      </g>
    </g>
    <g transform="translate(16.96,37.66)" id="img-e5aeffd1-136">
      <g class="primitive">
        <text text-anchor="end" dy="0.35em">20</text>
      </g>
    </g>
    <g transform="translate(16.96,22.33)" id="img-e5aeffd1-137">
      <g class="primitive">
        <text text-anchor="end" dy="0.35em">30</text>
      </g>
    </g>
    <g transform="translate(16.96,7)" id="img-e5aeffd1-138">
      <g class="primitive">
        <text text-anchor="end" dy="0.35em">40</text>
      </g>
    </g>
  </g>
  <g font-size="3.88" font-family="'PT Sans','Helvetica Neue','Helvetica',sans-serif" fill="#564A55" stroke="#000000" stroke-opacity="0.000" id="img-e5aeffd1-139">
    <g transform="translate(8.81,35.66)" id="img-e5aeffd1-140">
      <g class="primitive">
        <text text-anchor="middle" dy="0.35em" transform="rotate(-90,0, 2)">frequency</text>
      </g>
    </g>
  </g>
</g>
<defs>
  <clipPath id="img-e5aeffd1-11">
    <path d="M17.96,5 L 86.22 5 86.22 70.33 17.96 70.33" />
  </clipPath>
</defs>
</svg>
