<?xml version="1.0" encoding="UTF-8"?>
<svg xmlns="http://www.w3.org/2000/svg"
     xmlns:xlink="http://www.w3.org/1999/xlink"
     xmlns:gadfly="http://www.gadflyjl.org/ns"
     version="1.2"
     width="140mm" height="80mm" viewBox="0 0 140 80"
     stroke="none"
     fill="#000000"
     stroke-width="0.3"
     font-size="3.88"
>
<defs>
  <marker id="arrow" markerWidth="15" markerHeight="7" refX="5" refY="3.5" orient="auto" markerUnits="strokeWidth">
    <path d="M0,0 L15,3.5 L0,7 z" stroke="context-stroke" fill="context-stroke"/>
  </marker>
</defs>
<g class="plotroot xscalable yscalable" id="img-9148d1dc-1">
  <g class="guide xlabels" font-size="2.82" font-family="'PT Sans Caption','Helvetica Neue','Helvetica',sans-serif" fill="#6C606B" id="img-9148d1dc-2">
    <g transform="translate(19.96,60.21)">
      <g class="primitive">
        <text text-anchor="end" dy="0.35em" transform="rotate(-90,0, 0)">1.10×10⁶</text>
      </g>
    </g>
    <g transform="translate(32.17,60.21)">
      <g class="primitive">
        <text text-anchor="end" dy="0.35em" transform="rotate(-90,0, 0)">1.15×10⁶</text>
      </g>
    </g>
    <g transform="translate(44.39,60.21)">
      <g class="primitive">
        <text text-anchor="end" dy="0.35em" transform="rotate(-90,0, 0)">1.20×10⁶</text>
      </g>
    </g>
    <g transform="translate(56.6,60.21)">
      <g class="primitive">
        <text text-anchor="end" dy="0.35em" transform="rotate(-90,0, 0)">1.25×10⁶</text>
      </g>
    </g>
    <g transform="translate(68.82,60.21)">
      <g class="primitive">
        <text text-anchor="end" dy="0.35em" transform="rotate(-90,0, 0)">1.30×10⁶</text>
      </g>
    </g>
    <g transform="translate(81.03,60.21)">
      <g class="primitive">
        <text text-anchor="end" dy="0.35em" transform="rotate(-90,0, 0)">1.35×10⁶</text>
      </g>
    </g>
  </g>
  <g class="guide colorkey" id="img-9148d1dc-3">
    <g class="color_coding_coding_coding_noncoding_4-tail" id="img-9148d1dc-4">
      <g fill="#4C404B" font-size="2.82" font-family="'PT Sans','Helvetica Neue','Helvetica',sans-serif" id="img-9148d1dc-5">
        <g transform="translate(86.85,33.92)" id="img-9148d1dc-6">
          <g class="primitive">
            <text dy="0.35em">coding_coding_coding_noncoding_4-tail</text>
          </g>
        </g>
      </g>
      <g fill-opacity="1" fill="#00BFFF" stroke="#FFFFFF" id="img-9148d1dc-7">
        <g transform="translate(84.94,33.92)" id="img-9148d1dc-8">
          <path d="M-0.91,-0.91 L 0.91 -0.91 0.91 0.91 -0.91 0.91 z" class="primitive"/>
        </g>
      </g>
    </g>
    <g fill="#362A35" font-size="3.88" font-family="'PT Sans','Helvetica Neue','Helvetica',sans-serif" stroke="#000000" stroke-opacity="0.000" id="img-9148d1dc-9">
      <g transform="translate(84.03,30.1)" id="img-9148d1dc-10">
        <g class="primitive">
          <text dy="-0em">graphlet</text>
        </g>
      </g>
    </g>
  </g>
  <g clip-path="url(#img-9148d1dc-11)">
    <g id="img-9148d1dc-12">
      <g pointer-events="visible" stroke-width="0.3" fill="#000000" fill-opacity="0.000" stroke="#000000" stroke-opacity="0.000" class="guide background" id="img-9148d1dc-13">
        <g transform="translate(50.5,32.11)" id="img-9148d1dc-14">
          <path d="M-32.54,-27.11 L 32.54 -27.11 32.54 27.11 -32.54 27.11 z" class="primitive"/>
        </g>
      </g>
      <g class="guide ygridlines xfixed" stroke-dasharray="0.5,0.5" stroke-width="0.2" stroke="#D0D0E0" id="img-9148d1dc-15">
        <g transform="translate(50.5,57.21)" id="img-9148d1dc-16">
          <path fill="none" d="M-32.54,0 L 32.54 0" class="primitive"/>
        </g>
        <g transform="translate(50.5,44.66)" id="img-9148d1dc-17">
          <path fill="none" d="M-32.54,0 L 32.54 0" class="primitive"/>
        </g>
        <g transform="translate(50.5,32.11)" id="img-9148d1dc-18">
          <path fill="none" d="M-32.54,0 L 32.54 0" class="primitive"/>
        </g>
        <g transform="translate(50.5,19.55)" id="img-9148d1dc-19">
          <path fill="none" d="M-32.54,0 L 32.54 0" class="primitive"/>
        </g>
        <g transform="translate(50.5,7)" id="img-9148d1dc-20">
          <path fill="none" d="M-32.54,0 L 32.54 0" class="primitive"/>
        </g>
      </g>
      <g class="guide xgridlines yfixed" stroke-dasharray="0.5,0.5" stroke-width="0.2" stroke="#D0D0E0" id="img-9148d1dc-21">
        <g transform="translate(19.96,32.11)" id="img-9148d1dc-22">
          <path fill="none" d="M0,-27.11 L 0 27.11" class="primitive"/>
        </g>
        <g transform="translate(32.17,32.11)" id="img-9148d1dc-23">
          <path fill="none" d="M0,-27.11 L 0 27.11" class="primitive"/>
        </g>
        <g transform="translate(44.39,32.11)" id="img-9148d1dc-24">
          <path fill="none" d="M0,-27.11 L 0 27.11" class="primitive"/>
        </g>
        <g transform="translate(56.6,32.11)" id="img-9148d1dc-25">
          <path fill="none" d="M0,-27.11 L 0 27.11" class="primitive"/>
        </g>
        <g transform="translate(68.82,32.11)" id="img-9148d1dc-26">
          <path fill="none" d="M0,-27.11 L 0 27.11" class="primitive"/>
        </g>
        <g transform="translate(81.03,32.11)" id="img-9148d1dc-27">
          <path fill="none" d="M0,-27.11 L 0 27.11" class="primitive"/>
        </g>
      </g>
      <g class="plotpanel" id="img-9148d1dc-28">
        <metadata>
          <boundingbox value="17.95833333333333mm 5.0mm 65.07500000000002mm 54.21333333333334mm"/>
          <unitbox value="1.0918133442488743e6 41.59320233669676 266373.31150225137 -43.186404673393525"/>
        </metadata>
        <g shape-rendering="crispEdges" stroke-width="0.3" id="img-9148d1dc-29">
          <g stroke="#000000" stroke-opacity="0.000" class="geometry" id="img-9148d1dc-30">
            <g fill="#00BFFF" id="img-9148d1dc-31">
              <g transform="translate(25.77,56.59)" id="img-9148d1dc-32">
                <path d="M-0.26,-0.63 L 0.26 -0.63 0.26 0.63 -0.26 0.63 z" class="primitive"/>
              </g>
              <g transform="translate(26.24,56.59)" id="img-9148d1dc-33">
                <path d="M-0.26,-0.63 L 0.26 -0.63 0.26 0.63 -0.26 0.63 z" class="primitive"/>
              </g>
              <g transform="translate(26.71,56.59)" id="img-9148d1dc-34">
                <path d="M-0.26,-0.63 L 0.26 -0.63 0.26 0.63 -0.26 0.63 z" class="primitive"/>
              </g>
              <g transform="translate(27.17,56.59)" id="img-9148d1dc-35">
                <path d="M-0.26,-0.63 L 0.26 -0.63 0.26 0.63 -0.26 0.63 z" class="primitive"/>
              </g>
              <g transform="translate(27.64,55.96)" id="img-9148d1dc-36">
                <path d="M-0.26,-1.26 L 0.26 -1.26 0.26 1.26 -0.26 1.26 z" class="primitive"/>
              </g>
              <g transform="translate(28.11,56.59)" id="img-9148d1dc-37">
                <path d="M-0.26,-0.63 L 0.26 -0.63 0.26 0.63 -0.26 0.63 z" class="primitive"/>
              </g>
              <g transform="translate(28.58,55.33)" id="img-9148d1dc-38">
                <path d="M-0.26,-1.88 L 0.26 -1.88 0.26 1.88 -0.26 1.88 z" class="primitive"/>
              </g>
              <g transform="translate(29.05,56.59)" id="img-9148d1dc-39">
                <path d="M-0.26,-0.63 L 0.26 -0.63 0.26 0.63 -0.26 0.63 z" class="primitive"/>
              </g>
              <g transform="translate(29.52,56.59)" id="img-9148d1dc-40">
                <path d="M-0.26,-0.63 L 0.26 -0.63 0.26 0.63 -0.26 0.63 z" class="primitive"/>
              </g>
              <g transform="translate(29.99,55.96)" id="img-9148d1dc-41">
                <path d="M-0.26,-1.26 L 0.26 -1.26 0.26 1.26 -0.26 1.26 z" class="primitive"/>
              </g>
              <g transform="translate(30.46,56.59)" id="img-9148d1dc-42">
                <path d="M-0.26,-0.63 L 0.26 -0.63 0.26 0.63 -0.26 0.63 z" class="primitive"/>
              </g>
              <g transform="translate(30.93,56.59)" id="img-9148d1dc-43">
                <path d="M-0.26,-0.63 L 0.26 -0.63 0.26 0.63 -0.26 0.63 z" class="primitive"/>
              </g>
              <g transform="translate(31.4,54.7)" id="img-9148d1dc-44">
                <path d="M-0.26,-2.51 L 0.26 -2.51 0.26 2.51 -0.26 2.51 z" class="primitive"/>
              </g>
              <g transform="translate(31.87,55.33)" id="img-9148d1dc-45">
                <path d="M-0.26,-1.88 L 0.26 -1.88 0.26 1.88 -0.26 1.88 z" class="primitive"/>
              </g>
              <g transform="translate(32.34,56.59)" id="img-9148d1dc-46">
                <path d="M-0.26,-0.63 L 0.26 -0.63 0.26 0.63 -0.26 0.63 z" class="primitive"/>
              </g>
              <g transform="translate(32.81,55.33)" id="img-9148d1dc-47">
                <path d="M-0.26,-1.88 L 0.26 -1.88 0.26 1.88 -0.26 1.88 z" class="primitive"/>
              </g>
              <g transform="translate(33.28,52.82)" id="img-9148d1dc-48">
                <path d="M-0.26,-4.39 L 0.26 -4.39 0.26 4.39 -0.26 4.39 z" class="primitive"/>
              </g>
              <g transform="translate(33.75,55.96)" id="img-9148d1dc-49">
                <path d="M-0.26,-1.26 L 0.26 -1.26 0.26 1.26 -0.26 1.26 z" class="primitive"/>
              </g>
              <g transform="translate(34.22,51.56)" id="img-9148d1dc-50">
                <path d="M-0.26,-5.65 L 0.26 -5.65 0.26 5.65 -0.26 5.65 z" class="primitive"/>
              </g>
              <g transform="translate(34.69,53.45)" id="img-9148d1dc-51">
                <path d="M-0.26,-3.77 L 0.26 -3.77 0.26 3.77 -0.26 3.77 z" class="primitive"/>
              </g>
              <g transform="translate(35.16,53.45)" id="img-9148d1dc-52">
                <path d="M-0.26,-3.77 L 0.26 -3.77 0.26 3.77 -0.26 3.77 z" class="primitive"/>
              </g>
              <g transform="translate(35.62,52.82)" id="img-9148d1dc-53">
                <path d="M-0.26,-4.39 L 0.26 -4.39 0.26 4.39 -0.26 4.39 z" class="primitive"/>
              </g>
              <g transform="translate(36.09,50.31)" id="img-9148d1dc-54">
                <path d="M-0.26,-6.9 L 0.26 -6.9 0.26 6.9 -0.26 6.9 z" class="primitive"/>
              </g>
              <g transform="translate(36.56,50.31)" id="img-9148d1dc-55">
                <path d="M-0.26,-6.9 L 0.26 -6.9 0.26 6.9 -0.26 6.9 z" class="primitive"/>
              </g>
              <g transform="translate(37.03,52.19)" id="img-9148d1dc-56">
                <path d="M-0.26,-5.02 L 0.26 -5.02 0.26 5.02 -0.26 5.02 z" class="primitive"/>
              </g>
              <g transform="translate(37.5,50.31)" id="img-9148d1dc-57">
                <path d="M-0.26,-6.9 L 0.26 -6.9 0.26 6.9 -0.26 6.9 z" class="primitive"/>
              </g>
              <g transform="translate(37.97,51.56)" id="img-9148d1dc-58">
                <path d="M-0.26,-5.65 L 0.26 -5.65 0.26 5.65 -0.26 5.65 z" class="primitive"/>
              </g>
              <g transform="translate(38.44,52.19)" id="img-9148d1dc-59">
                <path d="M-0.26,-5.02 L 0.26 -5.02 0.26 5.02 -0.26 5.02 z" class="primitive"/>
              </g>
              <g transform="translate(38.91,52.19)" id="img-9148d1dc-60">
                <path d="M-0.26,-5.02 L 0.26 -5.02 0.26 5.02 -0.26 5.02 z" class="primitive"/>
              </g>
              <g transform="translate(39.38,45.92)" id="img-9148d1dc-61">
                <path d="M-0.26,-11.3 L 0.26 -11.3 0.26 11.3 -0.26 11.3 z" class="primitive"/>
              </g>
              <g transform="translate(39.85,50.94)" id="img-9148d1dc-62">
                <path d="M-0.26,-6.28 L 0.26 -6.28 0.26 6.28 -0.26 6.28 z" class="primitive"/>
              </g>
              <g transform="translate(40.32,47.17)" id="img-9148d1dc-63">
                <path d="M-0.26,-10.04 L 0.26 -10.04 0.26 10.04 -0.26 10.04 z" class="primitive"/>
              </g>
              <g transform="translate(40.79,46.54)" id="img-9148d1dc-64">
                <path d="M-0.26,-10.67 L 0.26 -10.67 0.26 10.67 -0.26 10.67 z" class="primitive"/>
              </g>
              <g transform="translate(41.26,39.64)" id="img-9148d1dc-65">
                <path d="M-0.26,-17.57 L 0.26 -17.57 0.26 17.57 -0.26 17.57 z" class="primitive"/>
              </g>
              <g transform="translate(41.73,43.4)" id="img-9148d1dc-66">
                <path d="M-0.26,-13.81 L 0.26 -13.81 0.26 13.81 -0.26 13.81 z" class="primitive"/>
              </g>
              <g transform="translate(42.2,47.8)" id="img-9148d1dc-67">
                <path d="M-0.26,-9.42 L 0.26 -9.42 0.26 9.42 -0.26 9.42 z" class="primitive"/>
              </g>
              <g transform="translate(42.67,41.52)" id="img-9148d1dc-68">
                <path d="M-0.26,-15.69 L 0.26 -15.69 0.26 15.69 -0.26 15.69 z" class="primitive"/>
              </g>
              <g transform="translate(43.14,39.01)" id="img-9148d1dc-69">
                <path d="M-0.26,-18.2 L 0.26 -18.2 0.26 18.2 -0.26 18.2 z" class="primitive"/>
              </g>
              <g transform="translate(43.61,44.03)" id="img-9148d1dc-70">
                <path d="M-0.26,-13.18 L 0.26 -13.18 0.26 13.18 -0.26 13.18 z" class="primitive"/>
              </g>
              <g transform="translate(44.07,39.64)" id="img-9148d1dc-71">
                <path d="M-0.26,-17.57 L 0.26 -17.57 0.26 17.57 -0.26 17.57 z" class="primitive"/>
              </g>
              <g transform="translate(44.54,39.64)" id="img-9148d1dc-72">
                <path d="M-0.26,-17.57 L 0.26 -17.57 0.26 17.57 -0.26 17.57 z" class="primitive"/>
              </g>
              <g transform="translate(45.01,47.17)" id="img-9148d1dc-73">
                <path d="M-0.26,-10.04 L 0.26 -10.04 0.26 10.04 -0.26 10.04 z" class="primitive"/>
              </g>
              <g transform="translate(45.48,32.73)" id="img-9148d1dc-74">
                <path d="M-0.26,-24.48 L 0.26 -24.48 0.26 24.48 -0.26 24.48 z" class="primitive"/>
              </g>
              <g transform="translate(45.95,44.66)" id="img-9148d1dc-75">
                <path d="M-0.26,-12.55 L 0.26 -12.55 0.26 12.55 -0.26 12.55 z" class="primitive"/>
              </g>
              <g transform="translate(46.42,41.52)" id="img-9148d1dc-76">
                <path d="M-0.26,-15.69 L 0.26 -15.69 0.26 15.69 -0.26 15.69 z" class="primitive"/>
              </g>
              <g transform="translate(46.89,40.89)" id="img-9148d1dc-77">
                <path d="M-0.26,-16.32 L 0.26 -16.32 0.26 16.32 -0.26 16.32 z" class="primitive"/>
              </g>
              <g transform="translate(47.36,44.03)" id="img-9148d1dc-78">
                <path d="M-0.26,-13.18 L 0.26 -13.18 0.26 13.18 -0.26 13.18 z" class="primitive"/>
              </g>
              <g transform="translate(47.83,42.15)" id="img-9148d1dc-79">
                <path d="M-0.26,-15.06 L 0.26 -15.06 0.26 15.06 -0.26 15.06 z" class="primitive"/>
              </g>
              <g transform="translate(48.3,37.76)" id="img-9148d1dc-80">
                <path d="M-0.26,-19.46 L 0.26 -19.46 0.26 19.46 -0.26 19.46 z" class="primitive"/>
              </g>
              <g transform="translate(48.77,47.17)" id="img-9148d1dc-81">
                <path d="M-0.26,-10.04 L 0.26 -10.04 0.26 10.04 -0.26 10.04 z" class="primitive"/>
              </g>
              <g transform="translate(49.24,47.8)" id="img-9148d1dc-82">
                <path d="M-0.26,-9.42 L 0.26 -9.42 0.26 9.42 -0.26 9.42 z" class="primitive"/>
              </g>
              <g transform="translate(49.71,40.27)" id="img-9148d1dc-83">
                <path d="M-0.26,-16.95 L 0.26 -16.95 0.26 16.95 -0.26 16.95 z" class="primitive"/>
              </g>
              <g transform="translate(50.18,41.52)" id="img-9148d1dc-84">
                <path d="M-0.26,-15.69 L 0.26 -15.69 0.26 15.69 -0.26 15.69 z" class="primitive"/>
              </g>
              <g transform="translate(50.65,48.43)" id="img-9148d1dc-85">
                <path d="M-0.26,-8.79 L 0.26 -8.79 0.26 8.79 -0.26 8.79 z" class="primitive"/>
              </g>
              <g transform="translate(51.12,46.54)" id="img-9148d1dc-86">
                <path d="M-0.26,-10.67 L 0.26 -10.67 0.26 10.67 -0.26 10.67 z" class="primitive"/>
              </g>
              <g transform="translate(51.59,40.89)" id="img-9148d1dc-87">
                <path d="M-0.26,-16.32 L 0.26 -16.32 0.26 16.32 -0.26 16.32 z" class="primitive"/>
              </g>
              <g transform="translate(52.06,39.64)" id="img-9148d1dc-88">
                <path d="M-0.26,-17.57 L 0.26 -17.57 0.26 17.57 -0.26 17.57 z" class="primitive"/>
              </g>
              <g transform="translate(52.52,49.05)" id="img-9148d1dc-89">
                <path d="M-0.26,-8.16 L 0.26 -8.16 0.26 8.16 -0.26 8.16 z" class="primitive"/>
              </g>
              <g transform="translate(52.99,45.29)" id="img-9148d1dc-90">
                <path d="M-0.26,-11.93 L 0.26 -11.93 0.26 11.93 -0.26 11.93 z" class="primitive"/>
              </g>
              <g transform="translate(53.46,47.17)" id="img-9148d1dc-91">
                <path d="M-0.26,-10.04 L 0.26 -10.04 0.26 10.04 -0.26 10.04 z" class="primitive"/>
              </g>
              <g transform="translate(53.93,47.8)" id="img-9148d1dc-92">
                <path d="M-0.26,-9.42 L 0.26 -9.42 0.26 9.42 -0.26 9.42 z" class="primitive"/>
              </g>
              <g transform="translate(54.4,47.17)" id="img-9148d1dc-93">
                <path d="M-0.26,-10.04 L 0.26 -10.04 0.26 10.04 -0.26 10.04 z" class="primitive"/>
              </g>
              <g transform="translate(54.87,48.43)" id="img-9148d1dc-94">
                <path d="M-0.26,-8.79 L 0.26 -8.79 0.26 8.79 -0.26 8.79 z" class="primitive"/>
              </g>
              <g transform="translate(55.34,49.05)" id="img-9148d1dc-95">
                <path d="M-0.26,-8.16 L 0.26 -8.16 0.26 8.16 -0.26 8.16 z" class="primitive"/>
              </g>
              <g transform="translate(55.81,50.94)" id="img-9148d1dc-96">
                <path d="M-0.26,-6.28 L 0.26 -6.28 0.26 6.28 -0.26 6.28 z" class="primitive"/>
              </g>
              <g transform="translate(56.28,46.54)" id="img-9148d1dc-97">
                <path d="M-0.26,-10.67 L 0.26 -10.67 0.26 10.67 -0.26 10.67 z" class="primitive"/>
              </g>
              <g transform="translate(56.75,52.19)" id="img-9148d1dc-98">
                <path d="M-0.26,-5.02 L 0.26 -5.02 0.26 5.02 -0.26 5.02 z" class="primitive"/>
              </g>
              <g transform="translate(57.22,50.31)" id="img-9148d1dc-99">
                <path d="M-0.26,-6.9 L 0.26 -6.9 0.26 6.9 -0.26 6.9 z" class="primitive"/>
              </g>
              <g transform="translate(57.69,53.45)" id="img-9148d1dc-100">
                <path d="M-0.26,-3.77 L 0.26 -3.77 0.26 3.77 -0.26 3.77 z" class="primitive"/>
              </g>
              <g transform="translate(58.16,50.31)" id="img-9148d1dc-101">
                <path d="M-0.26,-6.9 L 0.26 -6.9 0.26 6.9 -0.26 6.9 z" class="primitive"/>
              </g>
              <g transform="translate(58.63,52.19)" id="img-9148d1dc-102">
                <path d="M-0.26,-5.02 L 0.26 -5.02 0.26 5.02 -0.26 5.02 z" class="primitive"/>
              </g>
              <g transform="translate(59.1,55.33)" id="img-9148d1dc-103">
                <path d="M-0.26,-1.88 L 0.26 -1.88 0.26 1.88 -0.26 1.88 z" class="primitive"/>
              </g>
              <g transform="translate(59.57,52.82)" id="img-9148d1dc-104">
                <path d="M-0.26,-4.39 L 0.26 -4.39 0.26 4.39 -0.26 4.39 z" class="primitive"/>
              </g>
              <g transform="translate(60.04,52.19)" id="img-9148d1dc-105">
                <path d="M-0.26,-5.02 L 0.26 -5.02 0.26 5.02 -0.26 5.02 z" class="primitive"/>
              </g>
              <g transform="translate(60.51,50.94)" id="img-9148d1dc-106">
                <path d="M-0.26,-6.28 L 0.26 -6.28 0.26 6.28 -0.26 6.28 z" class="primitive"/>
              </g>
              <g transform="translate(60.97,54.7)" id="img-9148d1dc-107">
                <path d="M-0.26,-2.51 L 0.26 -2.51 0.26 2.51 -0.26 2.51 z" class="primitive"/>
              </g>
              <g transform="translate(61.44,52.19)" id="img-9148d1dc-108">
                <path d="M-0.26,-5.02 L 0.26 -5.02 0.26 5.02 -0.26 5.02 z" class="primitive"/>
              </g>
              <g transform="translate(61.91,55.33)" id="img-9148d1dc-109">
                <path d="M-0.26,-1.88 L 0.26 -1.88 0.26 1.88 -0.26 1.88 z" class="primitive"/>
              </g>
              <g transform="translate(62.38,55.96)" id="img-9148d1dc-110">
                <path d="M-0.26,-1.26 L 0.26 -1.26 0.26 1.26 -0.26 1.26 z" class="primitive"/>
              </g>
              <g transform="translate(62.85,54.08)" id="img-9148d1dc-111">
                <path d="M-0.26,-3.14 L 0.26 -3.14 0.26 3.14 -0.26 3.14 z" class="primitive"/>
              </g>
              <g transform="translate(63.32,55.96)" id="img-9148d1dc-112">
                <path d="M-0.26,-1.26 L 0.26 -1.26 0.26 1.26 -0.26 1.26 z" class="primitive"/>
              </g>
              <g transform="translate(63.79,55.96)" id="img-9148d1dc-113">
                <path d="M-0.26,-1.26 L 0.26 -1.26 0.26 1.26 -0.26 1.26 z" class="primitive"/>
              </g>
              <g transform="translate(64.26,55.96)" id="img-9148d1dc-114">
                <path d="M-0.26,-1.26 L 0.26 -1.26 0.26 1.26 -0.26 1.26 z" class="primitive"/>
              </g>
              <g transform="translate(64.73,55.96)" id="img-9148d1dc-115">
                <path d="M-0.26,-1.26 L 0.26 -1.26 0.26 1.26 -0.26 1.26 z" class="primitive"/>
              </g>
              <g transform="translate(65.2,57.22)" id="img-9148d1dc-116">
                <path d="M-0.26,-0 L 0.26 -0 0.26 0 -0.26 0 z" class="primitive"/>
              </g>
              <g transform="translate(65.67,57.22)" id="img-9148d1dc-117">
                <path d="M-0.26,-0 L 0.26 -0 0.26 0 -0.26 0 z" class="primitive"/>
              </g>
              <g transform="translate(66.14,56.59)" id="img-9148d1dc-118">
                <path d="M-0.26,-0.63 L 0.26 -0.63 0.26 0.63 -0.26 0.63 z" class="primitive"/>
              </g>
              <g transform="translate(66.61,56.59)" id="img-9148d1dc-119">
                <path d="M-0.26,-0.63 L 0.26 -0.63 0.26 0.63 -0.26 0.63 z" class="primitive"/>
              </g>
              <g transform="translate(67.08,57.22)" id="img-9148d1dc-120">
                <path d="M-0.26,-0 L 0.26 -0 0.26 0 -0.26 0 z" class="primitive"/>
              </g>
              <g transform="translate(67.55,56.59)" id="img-9148d1dc-121">
                <path d="M-0.26,-0.63 L 0.26 -0.63 0.26 0.63 -0.26 0.63 z" class="primitive"/>
              </g>
              <g transform="translate(68.02,56.59)" id="img-9148d1dc-122">
                <path d="M-0.26,-0.63 L 0.26 -0.63 0.26 0.63 -0.26 0.63 z" class="primitive"/>
              </g>
              <g transform="translate(68.49,56.59)" id="img-9148d1dc-123">
                <path d="M-0.26,-0.63 L 0.26 -0.63 0.26 0.63 -0.26 0.63 z" class="primitive"/>
              </g>
              <g transform="translate(68.96,57.22)" id="img-9148d1dc-124">
                <path d="M-0.26,-0 L 0.26 -0 0.26 0 -0.26 0 z" class="primitive"/>
              </g>
              <g transform="translate(69.42,56.59)" id="img-9148d1dc-125">
                <path d="M-0.26,-0.63 L 0.26 -0.63 0.26 0.63 -0.26 0.63 z" class="primitive"/>
              </g>
              <g transform="translate(69.89,57.22)" id="img-9148d1dc-126">
                <path d="M-0.26,-0 L 0.26 -0 0.26 0 -0.26 0 z" class="primitive"/>
              </g>
              <g transform="translate(70.36,57.22)" id="img-9148d1dc-127">
                <path d="M-0.26,-0 L 0.26 -0 0.26 0 -0.26 0 z" class="primitive"/>
              </g>
              <g transform="translate(70.83,56.59)" id="img-9148d1dc-128">
                <path d="M-0.26,-0.63 L 0.26 -0.63 0.26 0.63 -0.26 0.63 z" class="primitive"/>
              </g>
              <g transform="translate(71.3,57.22)" id="img-9148d1dc-129">
                <path d="M-0.26,-0 L 0.26 -0 0.26 0 -0.26 0 z" class="primitive"/>
              </g>
              <g transform="translate(71.77,57.22)" id="img-9148d1dc-130">
                <path d="M-0.26,-0 L 0.26 -0 0.26 0 -0.26 0 z" class="primitive"/>
              </g>
              <g transform="translate(72.24,56.59)" id="img-9148d1dc-131">
                <path d="M-0.26,-0.63 L 0.26 -0.63 0.26 0.63 -0.26 0.63 z" class="primitive"/>
              </g>
            </g>
          </g>
        </g>
      </g>
    </g>
  </g>
  <g class="guide ylabels" font-size="2.82" font-family="'PT Sans Caption','Helvetica Neue','Helvetica',sans-serif" fill="#6C606B" id="img-9148d1dc-132">
    <g transform="translate(16.96,57.21)" id="img-9148d1dc-133">
      <g class="primitive">
        <text text-anchor="end" dy="0.35em">0</text>
      </g>
    </g>
    <g transform="translate(16.96,44.66)" id="img-9148d1dc-134">
      <g class="primitive">
        <text text-anchor="end" dy="0.35em">10</text>
      </g>
    </g>
    <g transform="translate(16.96,32.11)" id="img-9148d1dc-135">
      <g class="primitive">
        <text text-anchor="end" dy="0.35em">20</text>
      </g>
    </g>
    <g transform="translate(16.96,19.55)" id="img-9148d1dc-136">
      <g class="primitive">
        <text text-anchor="end" dy="0.35em">30</text>
      </g>
    </g>
    <g transform="translate(16.96,7)" id="img-9148d1dc-137">
      <g class="primitive">
        <text text-anchor="end" dy="0.35em">40</text>
      </g>
    </g>
  </g>
  <g font-size="3.88" font-family="'PT Sans','Helvetica Neue','Helvetica',sans-serif" fill="#564A55" stroke="#000000" stroke-opacity="0.000" id="img-9148d1dc-138">
    <g transform="translate(8.81,30.11)" id="img-9148d1dc-139">
      <g class="primitive">
        <text text-anchor="middle" dy="0.35em" transform="rotate(-90,0, 2)">frequency</text>
      </g>
    </g>
  </g>
</g>
<defs>
  <clipPath id="img-9148d1dc-11">
    <path d="M17.96,5 L 83.03 5 83.03 59.21 17.96 59.21" />
  </clipPath>
</defs>
</svg>
