<?xml version="1.0" encoding="UTF-8"?>
<svg xmlns="http://www.w3.org/2000/svg"
     xmlns:xlink="http://www.w3.org/1999/xlink"
     xmlns:gadfly="http://www.gadflyjl.org/ns"
     version="1.2"
     width="141.42mm" height="100mm" viewBox="0 0 141.42 100"
     stroke="none"
     fill="#000000"
     stroke-width="0.3"
     font-size="3.88"
>
<defs>
  <marker id="arrow" markerWidth="15" markerHeight="7" refX="5" refY="3.5" orient="auto" markerUnits="strokeWidth">
    <path d="M0,0 L15,3.5 L0,7 z" stroke="context-stroke" fill="context-stroke"/>
  </marker>
</defs>
<g class="plotroot xscalable yscalable" id="img-803cece6-1">
  <g class="guide xlabels" font-size="2.82" font-family="'PT Sans Caption','Helvetica Neue','Helvetica',sans-serif" fill="#6C606B" id="img-803cece6-2">
    <g transform="translate(19.96,91.33)">
      <g class="primitive">
        <text text-anchor="middle" dy="0.6em">3.0×10⁶</text>
      </g>
    </g>
    <g transform="translate(36.36,91.33)">
      <g class="primitive">
        <text text-anchor="middle" dy="0.6em">3.2×10⁶</text>
      </g>
    </g>
    <g transform="translate(52.76,91.33)">
      <g class="primitive">
        <text text-anchor="middle" dy="0.6em">3.4×10⁶</text>
      </g>
    </g>
    <g transform="translate(69.16,91.33)">
      <g class="primitive">
        <text text-anchor="middle" dy="0.6em">3.6×10⁶</text>
      </g>
    </g>
    <g transform="translate(85.56,91.33)">
      <g class="primitive">
        <text text-anchor="middle" dy="0.6em">3.8×10⁶</text>
      </g>
    </g>
  </g>
  <g class="guide colorkey" id="img-803cece6-3">
    <g class="color_coding_coding_coding_coding_4-path" id="img-803cece6-4">
      <g fill="#4C404B" font-size="2.82" font-family="'PT Sans','Helvetica Neue','Helvetica',sans-serif" id="img-803cece6-5">
        <g transform="translate(91.37,49.48)" id="img-803cece6-6">
          <g class="primitive">
            <text dy="0.35em">coding_coding_coding_coding_4-path</text>
          </g>
        </g>
      </g>
      <g fill-opacity="1" fill="#00BFFF" stroke="#FFFFFF" id="img-803cece6-7">
        <g transform="translate(89.47,49.48)" id="img-803cece6-8">
          <path d="M-0.91,-0.91 L 0.91 -0.91 0.91 0.91 -0.91 0.91 z" class="primitive"/>
        </g>
      </g>
    </g>
    <g fill="#362A35" font-size="3.88" font-family="'PT Sans','Helvetica Neue','Helvetica',sans-serif" stroke="#000000" stroke-opacity="0.000" id="img-803cece6-9">
      <g transform="translate(88.56,45.66)" id="img-803cece6-10">
        <g class="primitive">
          <text dy="-0em">graphlet</text>
        </g>
      </g>
    </g>
  </g>
  <g clip-path="url(#img-803cece6-11)">
    <g id="img-803cece6-12">
      <g pointer-events="visible" stroke-width="0.3" fill="#000000" fill-opacity="0.000" stroke="#000000" stroke-opacity="0.000" class="guide background" id="img-803cece6-13">
        <g transform="translate(52.76,47.66)" id="img-803cece6-14">
          <path d="M-34.8,-42.66 L 34.8 -42.66 34.8 42.66 -34.8 42.66 z" class="primitive"/>
        </g>
      </g>
      <g class="guide ygridlines xfixed" stroke-dasharray="0.5,0.5" stroke-width="0.2" stroke="#D0D0E0" id="img-803cece6-15">
        <g transform="translate(52.76,88.33)" id="img-803cece6-16">
          <path fill="none" d="M-34.8,0 L 34.8 0" class="primitive"/>
        </g>
        <g transform="translate(52.76,68)" id="img-803cece6-17">
          <path fill="none" d="M-34.8,0 L 34.8 0" class="primitive"/>
        </g>
        <g transform="translate(52.76,47.66)" id="img-803cece6-18">
          <path fill="none" d="M-34.8,0 L 34.8 0" class="primitive"/>
        </g>
        <g transform="translate(52.76,27.33)" id="img-803cece6-19">
          <path fill="none" d="M-34.8,0 L 34.8 0" class="primitive"/>
        </g>
        <g transform="translate(52.76,7)" id="img-803cece6-20">
          <path fill="none" d="M-34.8,0 L 34.8 0" class="primitive"/>
        </g>
      </g>
      <g class="guide xgridlines yfixed" stroke-dasharray="0.5,0.5" stroke-width="0.2" stroke="#D0D0E0" id="img-803cece6-21">
        <g transform="translate(19.96,47.66)" id="img-803cece6-22">
          <path fill="none" d="M0,-42.66 L 0 42.66" class="primitive"/>
        </g>
        <g transform="translate(36.36,47.66)" id="img-803cece6-23">
          <path fill="none" d="M0,-42.66 L 0 42.66" class="primitive"/>
        </g>
        <g transform="translate(52.76,47.66)" id="img-803cece6-24">
          <path fill="none" d="M0,-42.66 L 0 42.66" class="primitive"/>
        </g>
        <g transform="translate(69.16,47.66)" id="img-803cece6-25">
          <path fill="none" d="M0,-42.66 L 0 42.66" class="primitive"/>
        </g>
        <g transform="translate(85.56,47.66)" id="img-803cece6-26">
          <path fill="none" d="M0,-42.66 L 0 42.66" class="primitive"/>
        </g>
      </g>
      <g class="plotpanel" id="img-803cece6-27">
        <metadata>
          <boundingbox value="17.95833333333333mm 5.0mm 69.60302290397615mm 85.32666666666667mm"/>
          <unitbox value="2.975610879969023e6 40.98368718747438 848778.2400619537 -41.96737437494876"/>
        </metadata>
        <g shape-rendering="crispEdges" stroke-width="0.3" id="img-803cece6-28">
          <g stroke="#000000" stroke-opacity="0.000" class="geometry" id="img-803cece6-29">
            <g fill="#00BFFF" id="img-803cece6-30">
              <g transform="translate(26.58,87.31)" id="img-803cece6-31">
                <path d="M-0.29,-1.02 L 0.29 -1.02 0.29 1.02 -0.29 1.02 z" class="primitive"/>
              </g>
              <g transform="translate(27.12,87.31)" id="img-803cece6-32">
                <path d="M-0.29,-1.02 L 0.29 -1.02 0.29 1.02 -0.29 1.02 z" class="primitive"/>
              </g>
              <g transform="translate(27.66,88.33)" id="img-803cece6-33">
                <path d="M-0.29,-0 L 0.29 -0 0.29 0 -0.29 0 z" class="primitive"/>
              </g>
              <g transform="translate(28.19,88.33)" id="img-803cece6-34">
                <path d="M-0.29,-0 L 0.29 -0 0.29 0 -0.29 0 z" class="primitive"/>
              </g>
              <g transform="translate(28.73,88.33)" id="img-803cece6-35">
                <path d="M-0.29,-0 L 0.29 -0 0.29 0 -0.29 0 z" class="primitive"/>
              </g>
              <g transform="translate(29.27,85.28)" id="img-803cece6-36">
                <path d="M-0.29,-3.05 L 0.29 -3.05 0.29 3.05 -0.29 3.05 z" class="primitive"/>
              </g>
              <g transform="translate(29.81,88.33)" id="img-803cece6-37">
                <path d="M-0.29,-0 L 0.29 -0 0.29 0 -0.29 0 z" class="primitive"/>
              </g>
              <g transform="translate(30.34,88.33)" id="img-803cece6-38">
                <path d="M-0.29,-0 L 0.29 -0 0.29 0 -0.29 0 z" class="primitive"/>
              </g>
              <g transform="translate(30.88,88.33)" id="img-803cece6-39">
                <path d="M-0.29,-0 L 0.29 -0 0.29 0 -0.29 0 z" class="primitive"/>
              </g>
              <g transform="translate(31.42,88.33)" id="img-803cece6-40">
                <path d="M-0.29,-0 L 0.29 -0 0.29 0 -0.29 0 z" class="primitive"/>
              </g>
              <g transform="translate(31.96,87.31)" id="img-803cece6-41">
                <path d="M-0.29,-1.02 L 0.29 -1.02 0.29 1.02 -0.29 1.02 z" class="primitive"/>
              </g>
              <g transform="translate(32.49,86.29)" id="img-803cece6-42">
                <path d="M-0.29,-2.03 L 0.29 -2.03 0.29 2.03 -0.29 2.03 z" class="primitive"/>
              </g>
              <g transform="translate(33.03,87.31)" id="img-803cece6-43">
                <path d="M-0.29,-1.02 L 0.29 -1.02 0.29 1.02 -0.29 1.02 z" class="primitive"/>
              </g>
              <g transform="translate(33.57,87.31)" id="img-803cece6-44">
                <path d="M-0.29,-1.02 L 0.29 -1.02 0.29 1.02 -0.29 1.02 z" class="primitive"/>
              </g>
              <g transform="translate(34.11,86.29)" id="img-803cece6-45">
                <path d="M-0.29,-2.03 L 0.29 -2.03 0.29 2.03 -0.29 2.03 z" class="primitive"/>
              </g>
              <g transform="translate(34.64,87.31)" id="img-803cece6-46">
                <path d="M-0.29,-1.02 L 0.29 -1.02 0.29 1.02 -0.29 1.02 z" class="primitive"/>
              </g>
              <g transform="translate(35.18,87.31)" id="img-803cece6-47">
                <path d="M-0.29,-1.02 L 0.29 -1.02 0.29 1.02 -0.29 1.02 z" class="primitive"/>
              </g>
              <g transform="translate(35.72,87.31)" id="img-803cece6-48">
                <path d="M-0.29,-1.02 L 0.29 -1.02 0.29 1.02 -0.29 1.02 z" class="primitive"/>
              </g>
              <g transform="translate(36.25,87.31)" id="img-803cece6-49">
                <path d="M-0.29,-1.02 L 0.29 -1.02 0.29 1.02 -0.29 1.02 z" class="primitive"/>
              </g>
              <g transform="translate(36.79,85.28)" id="img-803cece6-50">
                <path d="M-0.29,-3.05 L 0.29 -3.05 0.29 3.05 -0.29 3.05 z" class="primitive"/>
              </g>
              <g transform="translate(37.33,84.26)" id="img-803cece6-51">
                <path d="M-0.29,-4.07 L 0.29 -4.07 0.29 4.07 -0.29 4.07 z" class="primitive"/>
              </g>
              <g transform="translate(37.87,88.33)" id="img-803cece6-52">
                <path d="M-0.29,-0 L 0.29 -0 0.29 0 -0.29 0 z" class="primitive"/>
              </g>
              <g transform="translate(38.4,86.29)" id="img-803cece6-53">
                <path d="M-0.29,-2.03 L 0.29 -2.03 0.29 2.03 -0.29 2.03 z" class="primitive"/>
              </g>
              <g transform="translate(38.94,85.28)" id="img-803cece6-54">
                <path d="M-0.29,-3.05 L 0.29 -3.05 0.29 3.05 -0.29 3.05 z" class="primitive"/>
              </g>
              <g transform="translate(39.48,85.28)" id="img-803cece6-55">
                <path d="M-0.29,-3.05 L 0.29 -3.05 0.29 3.05 -0.29 3.05 z" class="primitive"/>
              </g>
              <g transform="translate(40.02,84.26)" id="img-803cece6-56">
                <path d="M-0.29,-4.07 L 0.29 -4.07 0.29 4.07 -0.29 4.07 z" class="primitive"/>
              </g>
              <g transform="translate(40.55,84.26)" id="img-803cece6-57">
                <path d="M-0.29,-4.07 L 0.29 -4.07 0.29 4.07 -0.29 4.07 z" class="primitive"/>
              </g>
              <g transform="translate(41.09,81.21)" id="img-803cece6-58">
                <path d="M-0.29,-7.12 L 0.29 -7.12 0.29 7.12 -0.29 7.12 z" class="primitive"/>
              </g>
              <g transform="translate(41.63,83.24)" id="img-803cece6-59">
                <path d="M-0.29,-5.08 L 0.29 -5.08 0.29 5.08 -0.29 5.08 z" class="primitive"/>
              </g>
              <g transform="translate(42.17,79.18)" id="img-803cece6-60">
                <path d="M-0.29,-9.15 L 0.29 -9.15 0.29 9.15 -0.29 9.15 z" class="primitive"/>
              </g>
              <g transform="translate(42.7,79.18)" id="img-803cece6-61">
                <path d="M-0.29,-9.15 L 0.29 -9.15 0.29 9.15 -0.29 9.15 z" class="primitive"/>
              </g>
              <g transform="translate(43.24,79.18)" id="img-803cece6-62">
                <path d="M-0.29,-9.15 L 0.29 -9.15 0.29 9.15 -0.29 9.15 z" class="primitive"/>
              </g>
              <g transform="translate(43.78,77.14)" id="img-803cece6-63">
                <path d="M-0.29,-11.18 L 0.29 -11.18 0.29 11.18 -0.29 11.18 z" class="primitive"/>
              </g>
              <g transform="translate(44.32,75.11)" id="img-803cece6-64">
                <path d="M-0.29,-13.22 L 0.29 -13.22 0.29 13.22 -0.29 13.22 z" class="primitive"/>
              </g>
              <g transform="translate(44.85,86.29)" id="img-803cece6-65">
                <path d="M-0.29,-2.03 L 0.29 -2.03 0.29 2.03 -0.29 2.03 z" class="primitive"/>
              </g>
              <g transform="translate(45.39,77.14)" id="img-803cece6-66">
                <path d="M-0.29,-11.18 L 0.29 -11.18 0.29 11.18 -0.29 11.18 z" class="primitive"/>
              </g>
              <g transform="translate(45.93,69.01)" id="img-803cece6-67">
                <path d="M-0.29,-19.32 L 0.29 -19.32 0.29 19.32 -0.29 19.32 z" class="primitive"/>
              </g>
              <g transform="translate(46.46,75.11)" id="img-803cece6-68">
                <path d="M-0.29,-13.22 L 0.29 -13.22 0.29 13.22 -0.29 13.22 z" class="primitive"/>
              </g>
              <g transform="translate(47,76.13)" id="img-803cece6-69">
                <path d="M-0.29,-12.2 L 0.29 -12.2 0.29 12.2 -0.29 12.2 z" class="primitive"/>
              </g>
              <g transform="translate(47.54,73.08)" id="img-803cece6-70">
                <path d="M-0.29,-15.25 L 0.29 -15.25 0.29 15.25 -0.29 15.25 z" class="primitive"/>
              </g>
              <g transform="translate(48.08,70.03)" id="img-803cece6-71">
                <path d="M-0.29,-18.3 L 0.29 -18.3 0.29 18.3 -0.29 18.3 z" class="primitive"/>
              </g>
              <g transform="translate(48.61,77.14)" id="img-803cece6-72">
                <path d="M-0.29,-11.18 L 0.29 -11.18 0.29 11.18 -0.29 11.18 z" class="primitive"/>
              </g>
              <g transform="translate(49.15,68)" id="img-803cece6-73">
                <path d="M-0.29,-20.33 L 0.29 -20.33 0.29 20.33 -0.29 20.33 z" class="primitive"/>
              </g>
              <g transform="translate(49.69,69.01)" id="img-803cece6-74">
                <path d="M-0.29,-19.32 L 0.29 -19.32 0.29 19.32 -0.29 19.32 z" class="primitive"/>
              </g>
              <g transform="translate(50.23,73.08)" id="img-803cece6-75">
                <path d="M-0.29,-15.25 L 0.29 -15.25 0.29 15.25 -0.29 15.25 z" class="primitive"/>
              </g>
              <g transform="translate(50.76,77.14)" id="img-803cece6-76">
                <path d="M-0.29,-11.18 L 0.29 -11.18 0.29 11.18 -0.29 11.18 z" class="primitive"/>
              </g>
              <g transform="translate(51.3,66.98)" id="img-803cece6-77">
                <path d="M-0.29,-21.35 L 0.29 -21.35 0.29 21.35 -0.29 21.35 z" class="primitive"/>
              </g>
              <g transform="translate(51.84,70.03)" id="img-803cece6-78">
                <path d="M-0.29,-18.3 L 0.29 -18.3 0.29 18.3 -0.29 18.3 z" class="primitive"/>
              </g>
              <g transform="translate(52.38,62.91)" id="img-803cece6-79">
                <path d="M-0.29,-25.41 L 0.29 -25.41 0.29 25.41 -0.29 25.41 z" class="primitive"/>
              </g>
              <g transform="translate(52.91,70.03)" id="img-803cece6-80">
                <path d="M-0.29,-18.3 L 0.29 -18.3 0.29 18.3 -0.29 18.3 z" class="primitive"/>
              </g>
              <g transform="translate(53.45,69.01)" id="img-803cece6-81">
                <path d="M-0.29,-19.32 L 0.29 -19.32 0.29 19.32 -0.29 19.32 z" class="primitive"/>
              </g>
              <g transform="translate(53.99,73.08)" id="img-803cece6-82">
                <path d="M-0.29,-15.25 L 0.29 -15.25 0.29 15.25 -0.29 15.25 z" class="primitive"/>
              </g>
              <g transform="translate(54.53,66.98)" id="img-803cece6-83">
                <path d="M-0.29,-21.35 L 0.29 -21.35 0.29 21.35 -0.29 21.35 z" class="primitive"/>
              </g>
              <g transform="translate(55.06,69.01)" id="img-803cece6-84">
                <path d="M-0.29,-19.32 L 0.29 -19.32 0.29 19.32 -0.29 19.32 z" class="primitive"/>
              </g>
              <g transform="translate(55.6,63.93)" id="img-803cece6-85">
                <path d="M-0.29,-24.4 L 0.29 -24.4 0.29 24.4 -0.29 24.4 z" class="primitive"/>
              </g>
              <g transform="translate(56.14,63.93)" id="img-803cece6-86">
                <path d="M-0.29,-24.4 L 0.29 -24.4 0.29 24.4 -0.29 24.4 z" class="primitive"/>
              </g>
              <g transform="translate(56.68,61.9)" id="img-803cece6-87">
                <path d="M-0.29,-26.43 L 0.29 -26.43 0.29 26.43 -0.29 26.43 z" class="primitive"/>
              </g>
              <g transform="translate(57.21,59.86)" id="img-803cece6-88">
                <path d="M-0.29,-28.46 L 0.29 -28.46 0.29 28.46 -0.29 28.46 z" class="primitive"/>
              </g>
              <g transform="translate(57.75,68)" id="img-803cece6-89">
                <path d="M-0.29,-20.33 L 0.29 -20.33 0.29 20.33 -0.29 20.33 z" class="primitive"/>
              </g>
              <g transform="translate(58.29,68)" id="img-803cece6-90">
                <path d="M-0.29,-20.33 L 0.29 -20.33 0.29 20.33 -0.29 20.33 z" class="primitive"/>
              </g>
              <g transform="translate(58.82,65.96)" id="img-803cece6-91">
                <path d="M-0.29,-22.36 L 0.29 -22.36 0.29 22.36 -0.29 22.36 z" class="primitive"/>
              </g>
              <g transform="translate(59.36,69.01)" id="img-803cece6-92">
                <path d="M-0.29,-19.32 L 0.29 -19.32 0.29 19.32 -0.29 19.32 z" class="primitive"/>
              </g>
              <g transform="translate(59.9,63.93)" id="img-803cece6-93">
                <path d="M-0.29,-24.4 L 0.29 -24.4 0.29 24.4 -0.29 24.4 z" class="primitive"/>
              </g>
              <g transform="translate(60.44,56.81)" id="img-803cece6-94">
                <path d="M-0.29,-31.51 L 0.29 -31.51 0.29 31.51 -0.29 31.51 z" class="primitive"/>
              </g>
              <g transform="translate(60.97,59.86)" id="img-803cece6-95">
                <path d="M-0.29,-28.46 L 0.29 -28.46 0.29 28.46 -0.29 28.46 z" class="primitive"/>
              </g>
              <g transform="translate(61.51,62.91)" id="img-803cece6-96">
                <path d="M-0.29,-25.41 L 0.29 -25.41 0.29 25.41 -0.29 25.41 z" class="primitive"/>
              </g>
              <g transform="translate(62.05,64.95)" id="img-803cece6-97">
                <path d="M-0.29,-23.38 L 0.29 -23.38 0.29 23.38 -0.29 23.38 z" class="primitive"/>
              </g>
              <g transform="translate(62.59,62.91)" id="img-803cece6-98">
                <path d="M-0.29,-25.41 L 0.29 -25.41 0.29 25.41 -0.29 25.41 z" class="primitive"/>
              </g>
              <g transform="translate(63.12,70.03)" id="img-803cece6-99">
                <path d="M-0.29,-18.3 L 0.29 -18.3 0.29 18.3 -0.29 18.3 z" class="primitive"/>
              </g>
              <g transform="translate(63.66,54.78)" id="img-803cece6-100">
                <path d="M-0.29,-33.55 L 0.29 -33.55 0.29 33.55 -0.29 33.55 z" class="primitive"/>
              </g>
              <g transform="translate(64.2,72.06)" id="img-803cece6-101">
                <path d="M-0.29,-16.27 L 0.29 -16.27 0.29 16.27 -0.29 16.27 z" class="primitive"/>
              </g>
              <g transform="translate(64.74,74.09)" id="img-803cece6-102">
                <path d="M-0.29,-14.23 L 0.29 -14.23 0.29 14.23 -0.29 14.23 z" class="primitive"/>
              </g>
              <g transform="translate(65.27,78.16)" id="img-803cece6-103">
                <path d="M-0.29,-10.17 L 0.29 -10.17 0.29 10.17 -0.29 10.17 z" class="primitive"/>
              </g>
              <g transform="translate(65.81,77.14)" id="img-803cece6-104">
                <path d="M-0.29,-11.18 L 0.29 -11.18 0.29 11.18 -0.29 11.18 z" class="primitive"/>
              </g>
              <g transform="translate(66.35,73.08)" id="img-803cece6-105">
                <path d="M-0.29,-15.25 L 0.29 -15.25 0.29 15.25 -0.29 15.25 z" class="primitive"/>
              </g>
              <g transform="translate(66.89,76.13)" id="img-803cece6-106">
                <path d="M-0.29,-12.2 L 0.29 -12.2 0.29 12.2 -0.29 12.2 z" class="primitive"/>
              </g>
              <g transform="translate(67.42,74.09)" id="img-803cece6-107">
                <path d="M-0.29,-14.23 L 0.29 -14.23 0.29 14.23 -0.29 14.23 z" class="primitive"/>
              </g>
              <g transform="translate(67.96,81.21)" id="img-803cece6-108">
                <path d="M-0.29,-7.12 L 0.29 -7.12 0.29 7.12 -0.29 7.12 z" class="primitive"/>
              </g>
              <g transform="translate(68.5,76.13)" id="img-803cece6-109">
                <path d="M-0.29,-12.2 L 0.29 -12.2 0.29 12.2 -0.29 12.2 z" class="primitive"/>
              </g>
              <g transform="translate(69.04,74.09)" id="img-803cece6-110">
                <path d="M-0.29,-14.23 L 0.29 -14.23 0.29 14.23 -0.29 14.23 z" class="primitive"/>
              </g>
              <g transform="translate(69.57,81.21)" id="img-803cece6-111">
                <path d="M-0.29,-7.12 L 0.29 -7.12 0.29 7.12 -0.29 7.12 z" class="primitive"/>
              </g>
              <g transform="translate(70.11,80.19)" id="img-803cece6-112">
                <path d="M-0.29,-8.13 L 0.29 -8.13 0.29 8.13 -0.29 8.13 z" class="primitive"/>
              </g>
              <g transform="translate(70.65,84.26)" id="img-803cece6-113">
                <path d="M-0.29,-4.07 L 0.29 -4.07 0.29 4.07 -0.29 4.07 z" class="primitive"/>
              </g>
              <g transform="translate(71.18,82.23)" id="img-803cece6-114">
                <path d="M-0.29,-6.1 L 0.29 -6.1 0.29 6.1 -0.29 6.1 z" class="primitive"/>
              </g>
              <g transform="translate(71.72,84.26)" id="img-803cece6-115">
                <path d="M-0.29,-4.07 L 0.29 -4.07 0.29 4.07 -0.29 4.07 z" class="primitive"/>
              </g>
              <g transform="translate(72.26,84.26)" id="img-803cece6-116">
                <path d="M-0.29,-4.07 L 0.29 -4.07 0.29 4.07 -0.29 4.07 z" class="primitive"/>
              </g>
              <g transform="translate(72.8,84.26)" id="img-803cece6-117">
                <path d="M-0.29,-4.07 L 0.29 -4.07 0.29 4.07 -0.29 4.07 z" class="primitive"/>
              </g>
              <g transform="translate(73.33,85.28)" id="img-803cece6-118">
                <path d="M-0.29,-3.05 L 0.29 -3.05 0.29 3.05 -0.29 3.05 z" class="primitive"/>
              </g>
              <g transform="translate(73.87,85.28)" id="img-803cece6-119">
                <path d="M-0.29,-3.05 L 0.29 -3.05 0.29 3.05 -0.29 3.05 z" class="primitive"/>
              </g>
              <g transform="translate(74.41,86.29)" id="img-803cece6-120">
                <path d="M-0.29,-2.03 L 0.29 -2.03 0.29 2.03 -0.29 2.03 z" class="primitive"/>
              </g>
              <g transform="translate(74.95,86.29)" id="img-803cece6-121">
                <path d="M-0.29,-2.03 L 0.29 -2.03 0.29 2.03 -0.29 2.03 z" class="primitive"/>
              </g>
              <g transform="translate(75.48,85.28)" id="img-803cece6-122">
                <path d="M-0.29,-3.05 L 0.29 -3.05 0.29 3.05 -0.29 3.05 z" class="primitive"/>
              </g>
              <g transform="translate(76.02,86.29)" id="img-803cece6-123">
                <path d="M-0.29,-2.03 L 0.29 -2.03 0.29 2.03 -0.29 2.03 z" class="primitive"/>
              </g>
              <g transform="translate(76.56,85.28)" id="img-803cece6-124">
                <path d="M-0.29,-3.05 L 0.29 -3.05 0.29 3.05 -0.29 3.05 z" class="primitive"/>
              </g>
              <g transform="translate(77.1,87.31)" id="img-803cece6-125">
                <path d="M-0.29,-1.02 L 0.29 -1.02 0.29 1.02 -0.29 1.02 z" class="primitive"/>
              </g>
              <g transform="translate(77.63,87.31)" id="img-803cece6-126">
                <path d="M-0.29,-1.02 L 0.29 -1.02 0.29 1.02 -0.29 1.02 z" class="primitive"/>
              </g>
              <g transform="translate(78.17,87.31)" id="img-803cece6-127">
                <path d="M-0.29,-1.02 L 0.29 -1.02 0.29 1.02 -0.29 1.02 z" class="primitive"/>
              </g>
              <g transform="translate(78.71,88.33)" id="img-803cece6-128">
                <path d="M-0.29,-0 L 0.29 -0 0.29 0 -0.29 0 z" class="primitive"/>
              </g>
              <g transform="translate(79.25,87.31)" id="img-803cece6-129">
                <path d="M-0.29,-1.02 L 0.29 -1.02 0.29 1.02 -0.29 1.02 z" class="primitive"/>
              </g>
              <g transform="translate(79.78,86.29)" id="img-803cece6-130">
                <path d="M-0.29,-2.03 L 0.29 -2.03 0.29 2.03 -0.29 2.03 z" class="primitive"/>
              </g>
            </g>
          </g>
        </g>
      </g>
    </g>
  </g>
  <g class="guide ylabels" font-size="2.82" font-family="'PT Sans Caption','Helvetica Neue','Helvetica',sans-serif" fill="#6C606B" id="img-803cece6-131">
    <g transform="translate(16.96,88.33)" id="img-803cece6-132">
      <g class="primitive">
        <text text-anchor="end" dy="0.35em">0</text>
      </g>
    </g>
    <g transform="translate(16.96,68)" id="img-803cece6-133">
      <g class="primitive">
        <text text-anchor="end" dy="0.35em">10</text>
      </g>
    </g>
    <g transform="translate(16.96,47.66)" id="img-803cece6-134">
      <g class="primitive">
        <text text-anchor="end" dy="0.35em">20</text>
      </g>
    </g>
    <g transform="translate(16.96,27.33)" id="img-803cece6-135">
      <g class="primitive">
        <text text-anchor="end" dy="0.35em">30</text>
      </g>
    </g>
    <g transform="translate(16.96,7)" id="img-803cece6-136">
      <g class="primitive">
        <text text-anchor="end" dy="0.35em">40</text>
      </g>
    </g>
  </g>
  <g font-size="3.88" font-family="'PT Sans','Helvetica Neue','Helvetica',sans-serif" fill="#564A55" stroke="#000000" stroke-opacity="0.000" id="img-803cece6-137">
    <g transform="translate(8.81,45.66)" id="img-803cece6-138">
      <g class="primitive">
        <text text-anchor="middle" dy="0.35em" transform="rotate(-90,0, 2)">frequency</text>
      </g>
    </g>
  </g>
</g>
<defs>
  <clipPath id="img-803cece6-11">
    <path d="M17.96,5 L 87.56 5 87.56 90.33 17.96 90.33" />
  </clipPath>
</defs>
</svg>
