<?xml version="1.0" encoding="UTF-8"?>
<svg xmlns="http://www.w3.org/2000/svg"
     xmlns:xlink="http://www.w3.org/1999/xlink"
     xmlns:gadfly="http://www.gadflyjl.org/ns"
     version="1.2"
     width="141.42mm" height="100mm" viewBox="0 0 141.42 100"
     stroke="none"
     fill="#000000"
     stroke-width="0.3"
     font-size="3.88"
>
<defs>
  <marker id="arrow" markerWidth="15" markerHeight="7" refX="5" refY="3.5" orient="auto" markerUnits="strokeWidth">
    <path d="M0,0 L15,3.5 L0,7 z" stroke="context-stroke" fill="context-stroke"/>
  </marker>
</defs>
<g class="plotroot xscalable yscalable" id="img-612c6c55-1">
  <g class="guide xlabels" font-size="2.82" font-family="'PT Sans Caption','Helvetica Neue','Helvetica',sans-serif" fill="#6C606B" id="img-612c6c55-2">
    <g transform="translate(19.96,91.33)">
      <g class="primitive">
        <text text-anchor="middle" dy="0.6em">14.7</text>
      </g>
    </g>
    <g transform="translate(33.38,91.33)">
      <g class="primitive">
        <text text-anchor="middle" dy="0.6em">14.8</text>
      </g>
    </g>
    <g transform="translate(46.79,91.33)">
      <g class="primitive">
        <text text-anchor="middle" dy="0.6em">14.9</text>
      </g>
    </g>
    <g transform="translate(60.21,91.33)">
      <g class="primitive">
        <text text-anchor="middle" dy="0.6em">15.0</text>
      </g>
    </g>
    <g transform="translate(73.63,91.33)">
      <g class="primitive">
        <text text-anchor="middle" dy="0.6em">15.1</text>
      </g>
    </g>
    <g transform="translate(87.05,91.33)">
      <g class="primitive">
        <text text-anchor="middle" dy="0.6em">15.2</text>
      </g>
    </g>
  </g>
  <g class="guide colorkey" id="img-612c6c55-3">
    <g class="color_coding_coding_coding_coding_4-tail" id="img-612c6c55-4">
      <g fill="#4C404B" font-size="2.82" font-family="'PT Sans','Helvetica Neue','Helvetica',sans-serif" id="img-612c6c55-5">
        <g transform="translate(92.86,49.48)" id="img-612c6c55-6">
          <g class="primitive">
            <text dy="0.35em">coding_coding_coding_coding_4-tail</text>
          </g>
        </g>
      </g>
      <g fill-opacity="1" fill="#00BFFF" stroke="#FFFFFF" id="img-612c6c55-7">
        <g transform="translate(90.95,49.48)" id="img-612c6c55-8">
          <path d="M-0.91,-0.91 L 0.91 -0.91 0.91 0.91 -0.91 0.91 z" class="primitive"/>
        </g>
      </g>
    </g>
    <g fill="#362A35" font-size="3.88" font-family="'PT Sans','Helvetica Neue','Helvetica',sans-serif" stroke="#000000" stroke-opacity="0.000" id="img-612c6c55-9">
      <g transform="translate(90.05,45.66)" id="img-612c6c55-10">
        <g class="primitive">
          <text dy="-0em">graphlet</text>
        </g>
      </g>
    </g>
  </g>
  <g clip-path="url(#img-612c6c55-11)">
    <g id="img-612c6c55-12">
      <g pointer-events="visible" stroke-width="0.3" fill="#000000" fill-opacity="0.000" stroke="#000000" stroke-opacity="0.000" class="guide background" id="img-612c6c55-13">
        <g transform="translate(53.5,47.66)" id="img-612c6c55-14">
          <path d="M-35.54,-42.66 L 35.54 -42.66 35.54 42.66 -35.54 42.66 z" class="primitive"/>
        </g>
      </g>
      <g class="guide ygridlines xfixed" stroke-dasharray="0.5,0.5" stroke-width="0.2" stroke="#D0D0E0" id="img-612c6c55-15">
        <g transform="translate(53.5,88.33)" id="img-612c6c55-16">
          <path fill="none" d="M-35.54,0 L 35.54 0" class="primitive"/>
        </g>
        <g transform="translate(53.5,68)" id="img-612c6c55-17">
          <path fill="none" d="M-35.54,0 L 35.54 0" class="primitive"/>
        </g>
        <g transform="translate(53.5,47.66)" id="img-612c6c55-18">
          <path fill="none" d="M-35.54,0 L 35.54 0" class="primitive"/>
        </g>
        <g transform="translate(53.5,27.33)" id="img-612c6c55-19">
          <path fill="none" d="M-35.54,0 L 35.54 0" class="primitive"/>
        </g>
        <g transform="translate(53.5,7)" id="img-612c6c55-20">
          <path fill="none" d="M-35.54,0 L 35.54 0" class="primitive"/>
        </g>
      </g>
      <g class="guide xgridlines yfixed" stroke-dasharray="0.5,0.5" stroke-width="0.2" stroke="#D0D0E0" id="img-612c6c55-21">
        <g transform="translate(19.96,47.66)" id="img-612c6c55-22">
          <path fill="none" d="M0,-42.66 L 0 42.66" class="primitive"/>
        </g>
        <g transform="translate(33.38,47.66)" id="img-612c6c55-23">
          <path fill="none" d="M0,-42.66 L 0 42.66" class="primitive"/>
        </g>
        <g transform="translate(46.79,47.66)" id="img-612c6c55-24">
          <path fill="none" d="M0,-42.66 L 0 42.66" class="primitive"/>
        </g>
        <g transform="translate(60.21,47.66)" id="img-612c6c55-25">
          <path fill="none" d="M0,-42.66 L 0 42.66" class="primitive"/>
        </g>
        <g transform="translate(73.63,47.66)" id="img-612c6c55-26">
          <path fill="none" d="M0,-42.66 L 0 42.66" class="primitive"/>
        </g>
        <g transform="translate(87.05,47.66)" id="img-612c6c55-27">
          <path fill="none" d="M0,-42.66 L 0 42.66" class="primitive"/>
        </g>
      </g>
      <g class="plotpanel" id="img-612c6c55-28">
        <metadata>
          <boundingbox value="17.95833333333333mm 5.0mm 71.08968957064283mm 85.32666666666667mm"/>
          <unitbox value="14.685094580010734 40.98368718747438 0.5298108399785346 -41.96737437494876"/>
        </metadata>
        <g shape-rendering="crispEdges" stroke-width="0.3" id="img-612c6c55-29">
          <g stroke="#000000" stroke-opacity="0.000" class="geometry" id="img-612c6c55-30">
            <g fill="#00BFFF" id="img-612c6c55-31">
              <g transform="translate(31.37,87.31)" id="img-612c6c55-32">
                <path d="M-0.25,-1.02 L 0.25 -1.02 0.25 1.02 -0.25 1.02 z" class="primitive"/>
              </g>
              <g transform="translate(31.83,88.33)" id="img-612c6c55-33">
                <path d="M-0.25,-0 L 0.25 -0 0.25 0 -0.25 0 z" class="primitive"/>
              </g>
              <g transform="translate(32.28,88.33)" id="img-612c6c55-34">
                <path d="M-0.25,-0 L 0.25 -0 0.25 0 -0.25 0 z" class="primitive"/>
              </g>
              <g transform="translate(32.74,86.29)" id="img-612c6c55-35">
                <path d="M-0.25,-2.03 L 0.25 -2.03 0.25 2.03 -0.25 2.03 z" class="primitive"/>
              </g>
              <g transform="translate(33.2,88.33)" id="img-612c6c55-36">
                <path d="M-0.25,-0 L 0.25 -0 0.25 0 -0.25 0 z" class="primitive"/>
              </g>
              <g transform="translate(33.66,86.29)" id="img-612c6c55-37">
                <path d="M-0.25,-2.03 L 0.25 -2.03 0.25 2.03 -0.25 2.03 z" class="primitive"/>
              </g>
              <g transform="translate(34.12,86.29)" id="img-612c6c55-38">
                <path d="M-0.25,-2.03 L 0.25 -2.03 0.25 2.03 -0.25 2.03 z" class="primitive"/>
              </g>
              <g transform="translate(34.58,87.31)" id="img-612c6c55-39">
                <path d="M-0.25,-1.02 L 0.25 -1.02 0.25 1.02 -0.25 1.02 z" class="primitive"/>
              </g>
              <g transform="translate(35.03,88.33)" id="img-612c6c55-40">
                <path d="M-0.25,-0 L 0.25 -0 0.25 0 -0.25 0 z" class="primitive"/>
              </g>
              <g transform="translate(35.49,87.31)" id="img-612c6c55-41">
                <path d="M-0.25,-1.02 L 0.25 -1.02 0.25 1.02 -0.25 1.02 z" class="primitive"/>
              </g>
              <g transform="translate(35.95,87.31)" id="img-612c6c55-42">
                <path d="M-0.25,-1.02 L 0.25 -1.02 0.25 1.02 -0.25 1.02 z" class="primitive"/>
              </g>
              <g transform="translate(36.41,86.29)" id="img-612c6c55-43">
                <path d="M-0.25,-2.03 L 0.25 -2.03 0.25 2.03 -0.25 2.03 z" class="primitive"/>
              </g>
              <g transform="translate(36.87,88.33)" id="img-612c6c55-44">
                <path d="M-0.25,-0 L 0.25 -0 0.25 0 -0.25 0 z" class="primitive"/>
              </g>
              <g transform="translate(37.33,87.31)" id="img-612c6c55-45">
                <path d="M-0.25,-1.02 L 0.25 -1.02 0.25 1.02 -0.25 1.02 z" class="primitive"/>
              </g>
              <g transform="translate(37.78,82.23)" id="img-612c6c55-46">
                <path d="M-0.25,-6.1 L 0.25 -6.1 0.25 6.1 -0.25 6.1 z" class="primitive"/>
              </g>
              <g transform="translate(38.24,85.28)" id="img-612c6c55-47">
                <path d="M-0.25,-3.05 L 0.25 -3.05 0.25 3.05 -0.25 3.05 z" class="primitive"/>
              </g>
              <g transform="translate(38.7,85.28)" id="img-612c6c55-48">
                <path d="M-0.25,-3.05 L 0.25 -3.05 0.25 3.05 -0.25 3.05 z" class="primitive"/>
              </g>
              <g transform="translate(39.16,81.21)" id="img-612c6c55-49">
                <path d="M-0.25,-7.12 L 0.25 -7.12 0.25 7.12 -0.25 7.12 z" class="primitive"/>
              </g>
              <g transform="translate(39.62,81.21)" id="img-612c6c55-50">
                <path d="M-0.25,-7.12 L 0.25 -7.12 0.25 7.12 -0.25 7.12 z" class="primitive"/>
              </g>
              <g transform="translate(40.08,81.21)" id="img-612c6c55-51">
                <path d="M-0.25,-7.12 L 0.25 -7.12 0.25 7.12 -0.25 7.12 z" class="primitive"/>
              </g>
              <g transform="translate(40.53,82.23)" id="img-612c6c55-52">
                <path d="M-0.25,-6.1 L 0.25 -6.1 0.25 6.1 -0.25 6.1 z" class="primitive"/>
              </g>
              <g transform="translate(40.99,75.11)" id="img-612c6c55-53">
                <path d="M-0.25,-13.22 L 0.25 -13.22 0.25 13.22 -0.25 13.22 z" class="primitive"/>
              </g>
              <g transform="translate(41.45,80.19)" id="img-612c6c55-54">
                <path d="M-0.25,-8.13 L 0.25 -8.13 0.25 8.13 -0.25 8.13 z" class="primitive"/>
              </g>
              <g transform="translate(41.91,78.16)" id="img-612c6c55-55">
                <path d="M-0.25,-10.17 L 0.25 -10.17 0.25 10.17 -0.25 10.17 z" class="primitive"/>
              </g>
              <g transform="translate(42.37,79.18)" id="img-612c6c55-56">
                <path d="M-0.25,-9.15 L 0.25 -9.15 0.25 9.15 -0.25 9.15 z" class="primitive"/>
              </g>
              <g transform="translate(42.82,81.21)" id="img-612c6c55-57">
                <path d="M-0.25,-7.12 L 0.25 -7.12 0.25 7.12 -0.25 7.12 z" class="primitive"/>
              </g>
              <g transform="translate(43.28,81.21)" id="img-612c6c55-58">
                <path d="M-0.25,-7.12 L 0.25 -7.12 0.25 7.12 -0.25 7.12 z" class="primitive"/>
              </g>
              <g transform="translate(43.74,68)" id="img-612c6c55-59">
                <path d="M-0.25,-20.33 L 0.25 -20.33 0.25 20.33 -0.25 20.33 z" class="primitive"/>
              </g>
              <g transform="translate(44.2,68)" id="img-612c6c55-60">
                <path d="M-0.25,-20.33 L 0.25 -20.33 0.25 20.33 -0.25 20.33 z" class="primitive"/>
              </g>
              <g transform="translate(44.66,66.98)" id="img-612c6c55-61">
                <path d="M-0.25,-21.35 L 0.25 -21.35 0.25 21.35 -0.25 21.35 z" class="primitive"/>
              </g>
              <g transform="translate(45.12,62.91)" id="img-612c6c55-62">
                <path d="M-0.25,-25.41 L 0.25 -25.41 0.25 25.41 -0.25 25.41 z" class="primitive"/>
              </g>
              <g transform="translate(45.57,69.01)" id="img-612c6c55-63">
                <path d="M-0.25,-19.32 L 0.25 -19.32 0.25 19.32 -0.25 19.32 z" class="primitive"/>
              </g>
              <g transform="translate(46.03,62.91)" id="img-612c6c55-64">
                <path d="M-0.25,-25.41 L 0.25 -25.41 0.25 25.41 -0.25 25.41 z" class="primitive"/>
              </g>
              <g transform="translate(46.49,76.13)" id="img-612c6c55-65">
                <path d="M-0.25,-12.2 L 0.25 -12.2 0.25 12.2 -0.25 12.2 z" class="primitive"/>
              </g>
              <g transform="translate(46.95,62.91)" id="img-612c6c55-66">
                <path d="M-0.25,-25.41 L 0.25 -25.41 0.25 25.41 -0.25 25.41 z" class="primitive"/>
              </g>
              <g transform="translate(47.41,60.88)" id="img-612c6c55-67">
                <path d="M-0.25,-27.45 L 0.25 -27.45 0.25 27.45 -0.25 27.45 z" class="primitive"/>
              </g>
              <g transform="translate(47.87,63.93)" id="img-612c6c55-68">
                <path d="M-0.25,-24.4 L 0.25 -24.4 0.25 24.4 -0.25 24.4 z" class="primitive"/>
              </g>
              <g transform="translate(48.32,54.78)" id="img-612c6c55-69">
                <path d="M-0.25,-33.55 L 0.25 -33.55 0.25 33.55 -0.25 33.55 z" class="primitive"/>
              </g>
              <g transform="translate(48.78,54.78)" id="img-612c6c55-70">
                <path d="M-0.25,-33.55 L 0.25 -33.55 0.25 33.55 -0.25 33.55 z" class="primitive"/>
              </g>
              <g transform="translate(49.24,66.98)" id="img-612c6c55-71">
                <path d="M-0.25,-21.35 L 0.25 -21.35 0.25 21.35 -0.25 21.35 z" class="primitive"/>
              </g>
              <g transform="translate(49.7,60.88)" id="img-612c6c55-72">
                <path d="M-0.25,-27.45 L 0.25 -27.45 0.25 27.45 -0.25 27.45 z" class="primitive"/>
              </g>
              <g transform="translate(50.16,60.88)" id="img-612c6c55-73">
                <path d="M-0.25,-27.45 L 0.25 -27.45 0.25 27.45 -0.25 27.45 z" class="primitive"/>
              </g>
              <g transform="translate(50.61,54.78)" id="img-612c6c55-74">
                <path d="M-0.25,-33.55 L 0.25 -33.55 0.25 33.55 -0.25 33.55 z" class="primitive"/>
              </g>
              <g transform="translate(51.07,55.8)" id="img-612c6c55-75">
                <path d="M-0.25,-32.53 L 0.25 -32.53 0.25 32.53 -0.25 32.53 z" class="primitive"/>
              </g>
              <g transform="translate(51.53,62.91)" id="img-612c6c55-76">
                <path d="M-0.25,-25.41 L 0.25 -25.41 0.25 25.41 -0.25 25.41 z" class="primitive"/>
              </g>
              <g transform="translate(51.99,58.85)" id="img-612c6c55-77">
                <path d="M-0.25,-29.48 L 0.25 -29.48 0.25 29.48 -0.25 29.48 z" class="primitive"/>
              </g>
              <g transform="translate(52.45,69.01)" id="img-612c6c55-78">
                <path d="M-0.25,-19.32 L 0.25 -19.32 0.25 19.32 -0.25 19.32 z" class="primitive"/>
              </g>
              <g transform="translate(52.91,59.86)" id="img-612c6c55-79">
                <path d="M-0.25,-28.46 L 0.25 -28.46 0.25 28.46 -0.25 28.46 z" class="primitive"/>
              </g>
              <g transform="translate(53.36,64.95)" id="img-612c6c55-80">
                <path d="M-0.25,-23.38 L 0.25 -23.38 0.25 23.38 -0.25 23.38 z" class="primitive"/>
              </g>
              <g transform="translate(53.82,56.81)" id="img-612c6c55-81">
                <path d="M-0.25,-31.51 L 0.25 -31.51 0.25 31.51 -0.25 31.51 z" class="primitive"/>
              </g>
              <g transform="translate(54.28,66.98)" id="img-612c6c55-82">
                <path d="M-0.25,-21.35 L 0.25 -21.35 0.25 21.35 -0.25 21.35 z" class="primitive"/>
              </g>
              <g transform="translate(54.74,66.98)" id="img-612c6c55-83">
                <path d="M-0.25,-21.35 L 0.25 -21.35 0.25 21.35 -0.25 21.35 z" class="primitive"/>
              </g>
              <g transform="translate(55.2,65.96)" id="img-612c6c55-84">
                <path d="M-0.25,-22.36 L 0.25 -22.36 0.25 22.36 -0.25 22.36 z" class="primitive"/>
              </g>
              <g transform="translate(55.66,61.9)" id="img-612c6c55-85">
                <path d="M-0.25,-26.43 L 0.25 -26.43 0.25 26.43 -0.25 26.43 z" class="primitive"/>
              </g>
              <g transform="translate(56.11,65.96)" id="img-612c6c55-86">
                <path d="M-0.25,-22.36 L 0.25 -22.36 0.25 22.36 -0.25 22.36 z" class="primitive"/>
              </g>
              <g transform="translate(56.57,70.03)" id="img-612c6c55-87">
                <path d="M-0.25,-18.3 L 0.25 -18.3 0.25 18.3 -0.25 18.3 z" class="primitive"/>
              </g>
              <g transform="translate(57.03,63.93)" id="img-612c6c55-88">
                <path d="M-0.25,-24.4 L 0.25 -24.4 0.25 24.4 -0.25 24.4 z" class="primitive"/>
              </g>
              <g transform="translate(57.49,75.11)" id="img-612c6c55-89">
                <path d="M-0.25,-13.22 L 0.25 -13.22 0.25 13.22 -0.25 13.22 z" class="primitive"/>
              </g>
              <g transform="translate(57.95,72.06)" id="img-612c6c55-90">
                <path d="M-0.25,-16.27 L 0.25 -16.27 0.25 16.27 -0.25 16.27 z" class="primitive"/>
              </g>
              <g transform="translate(58.41,66.98)" id="img-612c6c55-91">
                <path d="M-0.25,-21.35 L 0.25 -21.35 0.25 21.35 -0.25 21.35 z" class="primitive"/>
              </g>
              <g transform="translate(58.86,74.09)" id="img-612c6c55-92">
                <path d="M-0.25,-14.23 L 0.25 -14.23 0.25 14.23 -0.25 14.23 z" class="primitive"/>
              </g>
              <g transform="translate(59.32,85.28)" id="img-612c6c55-93">
                <path d="M-0.25,-3.05 L 0.25 -3.05 0.25 3.05 -0.25 3.05 z" class="primitive"/>
              </g>
              <g transform="translate(59.78,78.16)" id="img-612c6c55-94">
                <path d="M-0.25,-10.17 L 0.25 -10.17 0.25 10.17 -0.25 10.17 z" class="primitive"/>
              </g>
              <g transform="translate(60.24,74.09)" id="img-612c6c55-95">
                <path d="M-0.25,-14.23 L 0.25 -14.23 0.25 14.23 -0.25 14.23 z" class="primitive"/>
              </g>
              <g transform="translate(60.7,80.19)" id="img-612c6c55-96">
                <path d="M-0.25,-8.13 L 0.25 -8.13 0.25 8.13 -0.25 8.13 z" class="primitive"/>
              </g>
              <g transform="translate(61.15,80.19)" id="img-612c6c55-97">
                <path d="M-0.25,-8.13 L 0.25 -8.13 0.25 8.13 -0.25 8.13 z" class="primitive"/>
              </g>
              <g transform="translate(61.61,79.18)" id="img-612c6c55-98">
                <path d="M-0.25,-9.15 L 0.25 -9.15 0.25 9.15 -0.25 9.15 z" class="primitive"/>
              </g>
              <g transform="translate(62.07,82.23)" id="img-612c6c55-99">
                <path d="M-0.25,-6.1 L 0.25 -6.1 0.25 6.1 -0.25 6.1 z" class="primitive"/>
              </g>
              <g transform="translate(62.53,81.21)" id="img-612c6c55-100">
                <path d="M-0.25,-7.12 L 0.25 -7.12 0.25 7.12 -0.25 7.12 z" class="primitive"/>
              </g>
              <g transform="translate(62.99,86.29)" id="img-612c6c55-101">
                <path d="M-0.25,-2.03 L 0.25 -2.03 0.25 2.03 -0.25 2.03 z" class="primitive"/>
              </g>
              <g transform="translate(63.45,82.23)" id="img-612c6c55-102">
                <path d="M-0.25,-6.1 L 0.25 -6.1 0.25 6.1 -0.25 6.1 z" class="primitive"/>
              </g>
              <g transform="translate(63.9,87.31)" id="img-612c6c55-103">
                <path d="M-0.25,-1.02 L 0.25 -1.02 0.25 1.02 -0.25 1.02 z" class="primitive"/>
              </g>
              <g transform="translate(64.36,83.24)" id="img-612c6c55-104">
                <path d="M-0.25,-5.08 L 0.25 -5.08 0.25 5.08 -0.25 5.08 z" class="primitive"/>
              </g>
              <g transform="translate(64.82,81.21)" id="img-612c6c55-105">
                <path d="M-0.25,-7.12 L 0.25 -7.12 0.25 7.12 -0.25 7.12 z" class="primitive"/>
              </g>
              <g transform="translate(65.28,86.29)" id="img-612c6c55-106">
                <path d="M-0.25,-2.03 L 0.25 -2.03 0.25 2.03 -0.25 2.03 z" class="primitive"/>
              </g>
              <g transform="translate(65.74,85.28)" id="img-612c6c55-107">
                <path d="M-0.25,-3.05 L 0.25 -3.05 0.25 3.05 -0.25 3.05 z" class="primitive"/>
              </g>
              <g transform="translate(66.2,87.31)" id="img-612c6c55-108">
                <path d="M-0.25,-1.02 L 0.25 -1.02 0.25 1.02 -0.25 1.02 z" class="primitive"/>
              </g>
              <g transform="translate(66.65,88.33)" id="img-612c6c55-109">
                <path d="M-0.25,-0 L 0.25 -0 0.25 0 -0.25 0 z" class="primitive"/>
              </g>
              <g transform="translate(67.11,88.33)" id="img-612c6c55-110">
                <path d="M-0.25,-0 L 0.25 -0 0.25 0 -0.25 0 z" class="primitive"/>
              </g>
              <g transform="translate(67.57,88.33)" id="img-612c6c55-111">
                <path d="M-0.25,-0 L 0.25 -0 0.25 0 -0.25 0 z" class="primitive"/>
              </g>
              <g transform="translate(68.03,88.33)" id="img-612c6c55-112">
                <path d="M-0.25,-0 L 0.25 -0 0.25 0 -0.25 0 z" class="primitive"/>
              </g>
              <g transform="translate(68.49,87.31)" id="img-612c6c55-113">
                <path d="M-0.25,-1.02 L 0.25 -1.02 0.25 1.02 -0.25 1.02 z" class="primitive"/>
              </g>
              <g transform="translate(68.95,87.31)" id="img-612c6c55-114">
                <path d="M-0.25,-1.02 L 0.25 -1.02 0.25 1.02 -0.25 1.02 z" class="primitive"/>
              </g>
              <g transform="translate(69.4,88.33)" id="img-612c6c55-115">
                <path d="M-0.25,-0 L 0.25 -0 0.25 0 -0.25 0 z" class="primitive"/>
              </g>
              <g transform="translate(69.86,87.31)" id="img-612c6c55-116">
                <path d="M-0.25,-1.02 L 0.25 -1.02 0.25 1.02 -0.25 1.02 z" class="primitive"/>
              </g>
              <g transform="translate(70.32,87.31)" id="img-612c6c55-117">
                <path d="M-0.25,-1.02 L 0.25 -1.02 0.25 1.02 -0.25 1.02 z" class="primitive"/>
              </g>
              <g transform="translate(70.78,88.33)" id="img-612c6c55-118">
                <path d="M-0.25,-0 L 0.25 -0 0.25 0 -0.25 0 z" class="primitive"/>
              </g>
              <g transform="translate(71.24,88.33)" id="img-612c6c55-119">
                <path d="M-0.25,-0 L 0.25 -0 0.25 0 -0.25 0 z" class="primitive"/>
              </g>
              <g transform="translate(71.69,88.33)" id="img-612c6c55-120">
                <path d="M-0.25,-0 L 0.25 -0 0.25 0 -0.25 0 z" class="primitive"/>
              </g>
              <g transform="translate(72.15,88.33)" id="img-612c6c55-121">
                <path d="M-0.25,-0 L 0.25 -0 0.25 0 -0.25 0 z" class="primitive"/>
              </g>
              <g transform="translate(72.61,88.33)" id="img-612c6c55-122">
                <path d="M-0.25,-0 L 0.25 -0 0.25 0 -0.25 0 z" class="primitive"/>
              </g>
              <g transform="translate(73.07,88.33)" id="img-612c6c55-123">
                <path d="M-0.25,-0 L 0.25 -0 0.25 0 -0.25 0 z" class="primitive"/>
              </g>
              <g transform="translate(73.53,88.33)" id="img-612c6c55-124">
                <path d="M-0.25,-0 L 0.25 -0 0.25 0 -0.25 0 z" class="primitive"/>
              </g>
              <g transform="translate(73.99,88.33)" id="img-612c6c55-125">
                <path d="M-0.25,-0 L 0.25 -0 0.25 0 -0.25 0 z" class="primitive"/>
              </g>
              <g transform="translate(74.44,88.33)" id="img-612c6c55-126">
                <path d="M-0.25,-0 L 0.25 -0 0.25 0 -0.25 0 z" class="primitive"/>
              </g>
              <g transform="translate(74.9,88.33)" id="img-612c6c55-127">
                <path d="M-0.25,-0 L 0.25 -0 0.25 0 -0.25 0 z" class="primitive"/>
              </g>
              <g transform="translate(75.36,88.33)" id="img-612c6c55-128">
                <path d="M-0.25,-0 L 0.25 -0 0.25 0 -0.25 0 z" class="primitive"/>
              </g>
              <g transform="translate(75.82,88.33)" id="img-612c6c55-129">
                <path d="M-0.25,-0 L 0.25 -0 0.25 0 -0.25 0 z" class="primitive"/>
              </g>
              <g transform="translate(76.28,88.33)" id="img-612c6c55-130">
                <path d="M-0.25,-0 L 0.25 -0 0.25 0 -0.25 0 z" class="primitive"/>
              </g>
              <g transform="translate(76.74,87.31)" id="img-612c6c55-131">
                <path d="M-0.25,-1.02 L 0.25 -1.02 0.25 1.02 -0.25 1.02 z" class="primitive"/>
              </g>
            </g>
          </g>
        </g>
      </g>
    </g>
  </g>
  <g class="guide ylabels" font-size="2.82" font-family="'PT Sans Caption','Helvetica Neue','Helvetica',sans-serif" fill="#6C606B" id="img-612c6c55-132">
    <g transform="translate(16.96,88.33)" id="img-612c6c55-133">
      <g class="primitive">
        <text text-anchor="end" dy="0.35em">0</text>
      </g>
    </g>
    <g transform="translate(16.96,68)" id="img-612c6c55-134">
      <g class="primitive">
        <text text-anchor="end" dy="0.35em">10</text>
      </g>
    </g>
    <g transform="translate(16.96,47.66)" id="img-612c6c55-135">
      <g class="primitive">
        <text text-anchor="end" dy="0.35em">20</text>
      </g>
    </g>
    <g transform="translate(16.96,27.33)" id="img-612c6c55-136">
      <g class="primitive">
        <text text-anchor="end" dy="0.35em">30</text>
      </g>
    </g>
    <g transform="translate(16.96,7)" id="img-612c6c55-137">
      <g class="primitive">
        <text text-anchor="end" dy="0.35em">40</text>
      </g>
    </g>
  </g>
  <g font-size="3.88" font-family="'PT Sans','Helvetica Neue','Helvetica',sans-serif" fill="#564A55" stroke="#000000" stroke-opacity="0.000" id="img-612c6c55-138">
    <g transform="translate(8.81,45.66)" id="img-612c6c55-139">
      <g class="primitive">
        <text text-anchor="middle" dy="0.35em" transform="rotate(-90,0, 2)">frequency</text>
      </g>
    </g>
  </g>
</g>
<defs>
  <clipPath id="img-612c6c55-11">
    <path d="M17.96,5 L 89.05 5 89.05 90.33 17.96 90.33" />
  </clipPath>
</defs>
</svg>
