<?xml version="1.0" encoding="UTF-8"?>
<svg xmlns="http://www.w3.org/2000/svg"
     xmlns:xlink="http://www.w3.org/1999/xlink"
     xmlns:gadfly="http://www.gadflyjl.org/ns"
     version="1.2"
     width="141.42mm" height="100mm" viewBox="0 0 141.42 100"
     stroke="none"
     fill="#000000"
     stroke-width="0.3"
     font-size="3.88"
>
<defs>
  <marker id="arrow" markerWidth="15" markerHeight="7" refX="5" refY="3.5" orient="auto" markerUnits="strokeWidth">
    <path d="M0,0 L15,3.5 L0,7 z" stroke="context-stroke" fill="context-stroke"/>
  </marker>
</defs>
<g class="plotroot xscalable yscalable" id="img-a17d686e-1">
  <g class="guide xlabels" font-size="2.82" font-family="'PT Sans Caption','Helvetica Neue','Helvetica',sans-serif" fill="#6C606B" id="img-a17d686e-2">
    <g transform="translate(19.96,91.33)">
      <g class="primitive">
        <text text-anchor="middle" dy="0.6em">2.2×10⁴</text>
      </g>
    </g>
    <g transform="translate(35.04,91.33)">
      <g class="primitive">
        <text text-anchor="middle" dy="0.6em">2.3×10⁴</text>
      </g>
    </g>
    <g transform="translate(50.12,91.33)">
      <g class="primitive">
        <text text-anchor="middle" dy="0.6em">2.4×10⁴</text>
      </g>
    </g>
    <g transform="translate(65.2,91.33)">
      <g class="primitive">
        <text text-anchor="middle" dy="0.6em">2.5×10⁴</text>
      </g>
    </g>
    <g transform="translate(80.27,91.33)">
      <g class="primitive">
        <text text-anchor="middle" dy="0.6em">2.6×10⁴</text>
      </g>
    </g>
  </g>
  <g class="guide colorkey" id="img-a17d686e-3">
    <g class="color_coding_coding_coding_noncoding_4-cycle" id="img-a17d686e-4">
      <g fill="#4C404B" font-size="2.82" font-family="'PT Sans','Helvetica Neue','Helvetica',sans-serif" id="img-a17d686e-5">
        <g transform="translate(86.09,49.48)" id="img-a17d686e-6">
          <g class="primitive">
            <text dy="0.35em">coding_coding_coding_noncoding_4-cycle</text>
          </g>
        </g>
      </g>
      <g fill-opacity="1" fill="#00BFFF" stroke="#FFFFFF" id="img-a17d686e-7">
        <g transform="translate(84.18,49.48)" id="img-a17d686e-8">
          <path d="M-0.91,-0.91 L 0.91 -0.91 0.91 0.91 -0.91 0.91 z" class="primitive"/>
        </g>
      </g>
    </g>
    <g fill="#362A35" font-size="3.88" font-family="'PT Sans','Helvetica Neue','Helvetica',sans-serif" stroke="#000000" stroke-opacity="0.000" id="img-a17d686e-9">
      <g transform="translate(83.27,45.66)" id="img-a17d686e-10">
        <g class="primitive">
          <text dy="-0em">graphlet</text>
        </g>
      </g>
    </g>
  </g>
  <g clip-path="url(#img-a17d686e-11)">
    <g id="img-a17d686e-12">
      <g pointer-events="visible" stroke-width="0.3" fill="#000000" fill-opacity="0.000" stroke="#000000" stroke-opacity="0.000" class="guide background" id="img-a17d686e-13">
        <g transform="translate(50.12,47.66)" id="img-a17d686e-14">
          <path d="M-32.16,-42.66 L 32.16 -42.66 32.16 42.66 -32.16 42.66 z" class="primitive"/>
        </g>
      </g>
      <g class="guide ygridlines xfixed" stroke-dasharray="0.5,0.5" stroke-width="0.2" stroke="#D0D0E0" id="img-a17d686e-15">
        <g transform="translate(50.12,88.33)" id="img-a17d686e-16">
          <path fill="none" d="M-32.16,0 L 32.16 0" class="primitive"/>
        </g>
        <g transform="translate(50.12,61.22)" id="img-a17d686e-17">
          <path fill="none" d="M-32.16,0 L 32.16 0" class="primitive"/>
        </g>
        <g transform="translate(50.12,34.11)" id="img-a17d686e-18">
          <path fill="none" d="M-32.16,0 L 32.16 0" class="primitive"/>
        </g>
        <g transform="translate(50.12,7)" id="img-a17d686e-19">
          <path fill="none" d="M-32.16,0 L 32.16 0" class="primitive"/>
        </g>
      </g>
      <g class="guide xgridlines yfixed" stroke-dasharray="0.5,0.5" stroke-width="0.2" stroke="#D0D0E0" id="img-a17d686e-20">
        <g transform="translate(19.96,47.66)" id="img-a17d686e-21">
          <path fill="none" d="M0,-42.66 L 0 42.66" class="primitive"/>
        </g>
        <g transform="translate(35.04,47.66)" id="img-a17d686e-22">
          <path fill="none" d="M0,-42.66 L 0 42.66" class="primitive"/>
        </g>
        <g transform="translate(50.12,47.66)" id="img-a17d686e-23">
          <path fill="none" d="M0,-42.66 L 0 42.66" class="primitive"/>
        </g>
        <g transform="translate(65.2,47.66)" id="img-a17d686e-24">
          <path fill="none" d="M0,-42.66 L 0 42.66" class="primitive"/>
        </g>
        <g transform="translate(80.27,47.66)" id="img-a17d686e-25">
          <path fill="none" d="M0,-42.66 L 0 42.66" class="primitive"/>
        </g>
      </g>
      <g class="plotpanel" id="img-a17d686e-26">
        <metadata>
          <boundingbox value="17.95833333333333mm 5.0mm 64.31635623730952mm 85.32666666666667mm"/>
          <unitbox value="21867.36599325522 30.737765390605787 4265.2680134895645 -31.475530781211575"/>
        </metadata>
        <g shape-rendering="crispEdges" stroke-width="0.3" id="img-a17d686e-27">
          <g stroke="#000000" stroke-opacity="0.000" class="geometry" id="img-a17d686e-28">
            <g fill="#00BFFF" id="img-a17d686e-29">
              <g transform="translate(29.27,86.97)" id="img-a17d686e-30">
                <path d="M-0.26,-1.36 L 0.26 -1.36 0.26 1.36 -0.26 1.36 z" class="primitive"/>
              </g>
              <g transform="translate(29.75,88.33)" id="img-a17d686e-31">
                <path d="M-0.26,-0 L 0.26 -0 0.26 0 -0.26 0 z" class="primitive"/>
              </g>
              <g transform="translate(30.22,88.33)" id="img-a17d686e-32">
                <path d="M-0.26,-0 L 0.26 -0 0.26 0 -0.26 0 z" class="primitive"/>
              </g>
              <g transform="translate(30.69,88.33)" id="img-a17d686e-33">
                <path d="M-0.26,-0 L 0.26 -0 0.26 0 -0.26 0 z" class="primitive"/>
              </g>
              <g transform="translate(31.16,88.33)" id="img-a17d686e-34">
                <path d="M-0.26,-0 L 0.26 -0 0.26 0 -0.26 0 z" class="primitive"/>
              </g>
              <g transform="translate(31.64,86.97)" id="img-a17d686e-35">
                <path d="M-0.26,-1.36 L 0.26 -1.36 0.26 1.36 -0.26 1.36 z" class="primitive"/>
              </g>
              <g transform="translate(32.11,86.97)" id="img-a17d686e-36">
                <path d="M-0.26,-1.36 L 0.26 -1.36 0.26 1.36 -0.26 1.36 z" class="primitive"/>
              </g>
              <g transform="translate(32.58,88.33)" id="img-a17d686e-37">
                <path d="M-0.26,-0 L 0.26 -0 0.26 0 -0.26 0 z" class="primitive"/>
              </g>
              <g transform="translate(33.06,88.33)" id="img-a17d686e-38">
                <path d="M-0.26,-0 L 0.26 -0 0.26 0 -0.26 0 z" class="primitive"/>
              </g>
              <g transform="translate(33.53,88.33)" id="img-a17d686e-39">
                <path d="M-0.26,-0 L 0.26 -0 0.26 0 -0.26 0 z" class="primitive"/>
              </g>
              <g transform="translate(34,88.33)" id="img-a17d686e-40">
                <path d="M-0.26,-0 L 0.26 -0 0.26 0 -0.26 0 z" class="primitive"/>
              </g>
              <g transform="translate(34.48,86.97)" id="img-a17d686e-41">
                <path d="M-0.26,-1.36 L 0.26 -1.36 0.26 1.36 -0.26 1.36 z" class="primitive"/>
              </g>
              <g transform="translate(34.95,88.33)" id="img-a17d686e-42">
                <path d="M-0.26,-0 L 0.26 -0 0.26 0 -0.26 0 z" class="primitive"/>
              </g>
              <g transform="translate(35.42,88.33)" id="img-a17d686e-43">
                <path d="M-0.26,-0 L 0.26 -0 0.26 0 -0.26 0 z" class="primitive"/>
              </g>
              <g transform="translate(35.89,86.97)" id="img-a17d686e-44">
                <path d="M-0.26,-1.36 L 0.26 -1.36 0.26 1.36 -0.26 1.36 z" class="primitive"/>
              </g>
              <g transform="translate(36.37,86.97)" id="img-a17d686e-45">
                <path d="M-0.26,-1.36 L 0.26 -1.36 0.26 1.36 -0.26 1.36 z" class="primitive"/>
              </g>
              <g transform="translate(36.84,85.62)" id="img-a17d686e-46">
                <path d="M-0.26,-2.71 L 0.26 -2.71 0.26 2.71 -0.26 2.71 z" class="primitive"/>
              </g>
              <g transform="translate(37.31,85.62)" id="img-a17d686e-47">
                <path d="M-0.26,-2.71 L 0.26 -2.71 0.26 2.71 -0.26 2.71 z" class="primitive"/>
              </g>
              <g transform="translate(37.79,85.62)" id="img-a17d686e-48">
                <path d="M-0.26,-2.71 L 0.26 -2.71 0.26 2.71 -0.26 2.71 z" class="primitive"/>
              </g>
              <g transform="translate(38.26,86.97)" id="img-a17d686e-49">
                <path d="M-0.26,-1.36 L 0.26 -1.36 0.26 1.36 -0.26 1.36 z" class="primitive"/>
              </g>
              <g transform="translate(38.73,88.33)" id="img-a17d686e-50">
                <path d="M-0.26,-0 L 0.26 -0 0.26 0 -0.26 0 z" class="primitive"/>
              </g>
              <g transform="translate(39.21,81.55)" id="img-a17d686e-51">
                <path d="M-0.26,-6.78 L 0.26 -6.78 0.26 6.78 -0.26 6.78 z" class="primitive"/>
              </g>
              <g transform="translate(39.68,81.55)" id="img-a17d686e-52">
                <path d="M-0.26,-6.78 L 0.26 -6.78 0.26 6.78 -0.26 6.78 z" class="primitive"/>
              </g>
              <g transform="translate(40.15,84.26)" id="img-a17d686e-53">
                <path d="M-0.26,-4.07 L 0.26 -4.07 0.26 4.07 -0.26 4.07 z" class="primitive"/>
              </g>
              <g transform="translate(40.63,81.55)" id="img-a17d686e-54">
                <path d="M-0.26,-6.78 L 0.26 -6.78 0.26 6.78 -0.26 6.78 z" class="primitive"/>
              </g>
              <g transform="translate(41.1,82.9)" id="img-a17d686e-55">
                <path d="M-0.26,-5.42 L 0.26 -5.42 0.26 5.42 -0.26 5.42 z" class="primitive"/>
              </g>
              <g transform="translate(41.57,85.62)" id="img-a17d686e-56">
                <path d="M-0.26,-2.71 L 0.26 -2.71 0.26 2.71 -0.26 2.71 z" class="primitive"/>
              </g>
              <g transform="translate(42.04,85.62)" id="img-a17d686e-57">
                <path d="M-0.26,-2.71 L 0.26 -2.71 0.26 2.71 -0.26 2.71 z" class="primitive"/>
              </g>
              <g transform="translate(42.52,82.9)" id="img-a17d686e-58">
                <path d="M-0.26,-5.42 L 0.26 -5.42 0.26 5.42 -0.26 5.42 z" class="primitive"/>
              </g>
              <g transform="translate(42.99,85.62)" id="img-a17d686e-59">
                <path d="M-0.26,-2.71 L 0.26 -2.71 0.26 2.71 -0.26 2.71 z" class="primitive"/>
              </g>
              <g transform="translate(43.46,78.84)" id="img-a17d686e-60">
                <path d="M-0.26,-9.49 L 0.26 -9.49 0.26 9.49 -0.26 9.49 z" class="primitive"/>
              </g>
              <g transform="translate(43.94,84.26)" id="img-a17d686e-61">
                <path d="M-0.26,-4.07 L 0.26 -4.07 0.26 4.07 -0.26 4.07 z" class="primitive"/>
              </g>
              <g transform="translate(44.41,78.84)" id="img-a17d686e-62">
                <path d="M-0.26,-9.49 L 0.26 -9.49 0.26 9.49 -0.26 9.49 z" class="primitive"/>
              </g>
              <g transform="translate(44.88,82.9)" id="img-a17d686e-63">
                <path d="M-0.26,-5.42 L 0.26 -5.42 0.26 5.42 -0.26 5.42 z" class="primitive"/>
              </g>
              <g transform="translate(45.36,73.42)" id="img-a17d686e-64">
                <path d="M-0.26,-14.91 L 0.26 -14.91 0.26 14.91 -0.26 14.91 z" class="primitive"/>
              </g>
              <g transform="translate(45.83,80.19)" id="img-a17d686e-65">
                <path d="M-0.26,-8.13 L 0.26 -8.13 0.26 8.13 -0.26 8.13 z" class="primitive"/>
              </g>
              <g transform="translate(46.3,65.28)" id="img-a17d686e-66">
                <path d="M-0.26,-23.04 L 0.26 -23.04 0.26 23.04 -0.26 23.04 z" class="primitive"/>
              </g>
              <g transform="translate(46.77,70.71)" id="img-a17d686e-67">
                <path d="M-0.26,-17.62 L 0.26 -17.62 0.26 17.62 -0.26 17.62 z" class="primitive"/>
              </g>
              <g transform="translate(47.25,70.71)" id="img-a17d686e-68">
                <path d="M-0.26,-17.62 L 0.26 -17.62 0.26 17.62 -0.26 17.62 z" class="primitive"/>
              </g>
              <g transform="translate(47.72,72.06)" id="img-a17d686e-69">
                <path d="M-0.26,-16.27 L 0.26 -16.27 0.26 16.27 -0.26 16.27 z" class="primitive"/>
              </g>
              <g transform="translate(48.19,65.28)" id="img-a17d686e-70">
                <path d="M-0.26,-23.04 L 0.26 -23.04 0.26 23.04 -0.26 23.04 z" class="primitive"/>
              </g>
              <g transform="translate(48.67,73.42)" id="img-a17d686e-71">
                <path d="M-0.26,-14.91 L 0.26 -14.91 0.26 14.91 -0.26 14.91 z" class="primitive"/>
              </g>
              <g transform="translate(49.14,69.35)" id="img-a17d686e-72">
                <path d="M-0.26,-18.98 L 0.26 -18.98 0.26 18.98 -0.26 18.98 z" class="primitive"/>
              </g>
              <g transform="translate(49.61,72.06)" id="img-a17d686e-73">
                <path d="M-0.26,-16.27 L 0.26 -16.27 0.26 16.27 -0.26 16.27 z" class="primitive"/>
              </g>
              <g transform="translate(50.09,59.86)" id="img-a17d686e-74">
                <path d="M-0.26,-28.46 L 0.26 -28.46 0.26 28.46 -0.26 28.46 z" class="primitive"/>
              </g>
              <g transform="translate(50.56,69.35)" id="img-a17d686e-75">
                <path d="M-0.26,-18.98 L 0.26 -18.98 0.26 18.98 -0.26 18.98 z" class="primitive"/>
              </g>
              <g transform="translate(51.03,55.8)" id="img-a17d686e-76">
                <path d="M-0.26,-32.53 L 0.26 -32.53 0.26 32.53 -0.26 32.53 z" class="primitive"/>
              </g>
              <g transform="translate(51.5,57.15)" id="img-a17d686e-77">
                <path d="M-0.26,-31.18 L 0.26 -31.18 0.26 31.18 -0.26 31.18 z" class="primitive"/>
              </g>
              <g transform="translate(51.98,66.64)" id="img-a17d686e-78">
                <path d="M-0.26,-21.69 L 0.26 -21.69 0.26 21.69 -0.26 21.69 z" class="primitive"/>
              </g>
              <g transform="translate(52.45,65.28)" id="img-a17d686e-79">
                <path d="M-0.26,-23.04 L 0.26 -23.04 0.26 23.04 -0.26 23.04 z" class="primitive"/>
              </g>
              <g transform="translate(52.92,50.37)" id="img-a17d686e-80">
                <path d="M-0.26,-37.95 L 0.26 -37.95 0.26 37.95 -0.26 37.95 z" class="primitive"/>
              </g>
              <g transform="translate(53.4,54.44)" id="img-a17d686e-81">
                <path d="M-0.26,-33.89 L 0.26 -33.89 0.26 33.89 -0.26 33.89 z" class="primitive"/>
              </g>
              <g transform="translate(53.87,63.93)" id="img-a17d686e-82">
                <path d="M-0.26,-24.4 L 0.26 -24.4 0.26 24.4 -0.26 24.4 z" class="primitive"/>
              </g>
              <g transform="translate(54.34,63.93)" id="img-a17d686e-83">
                <path d="M-0.26,-24.4 L 0.26 -24.4 0.26 24.4 -0.26 24.4 z" class="primitive"/>
              </g>
              <g transform="translate(54.82,53.09)" id="img-a17d686e-84">
                <path d="M-0.26,-35.24 L 0.26 -35.24 0.26 35.24 -0.26 35.24 z" class="primitive"/>
              </g>
              <g transform="translate(55.29,53.09)" id="img-a17d686e-85">
                <path d="M-0.26,-35.24 L 0.26 -35.24 0.26 35.24 -0.26 35.24 z" class="primitive"/>
              </g>
              <g transform="translate(55.76,47.66)" id="img-a17d686e-86">
                <path d="M-0.26,-40.66 L 0.26 -40.66 0.26 40.66 -0.26 40.66 z" class="primitive"/>
              </g>
              <g transform="translate(56.24,62.57)" id="img-a17d686e-87">
                <path d="M-0.26,-25.75 L 0.26 -25.75 0.26 25.75 -0.26 25.75 z" class="primitive"/>
              </g>
              <g transform="translate(56.71,58.51)" id="img-a17d686e-88">
                <path d="M-0.26,-29.82 L 0.26 -29.82 0.26 29.82 -0.26 29.82 z" class="primitive"/>
              </g>
              <g transform="translate(57.18,55.8)" id="img-a17d686e-89">
                <path d="M-0.26,-32.53 L 0.26 -32.53 0.26 32.53 -0.26 32.53 z" class="primitive"/>
              </g>
              <g transform="translate(57.65,51.73)" id="img-a17d686e-90">
                <path d="M-0.26,-36.6 L 0.26 -36.6 0.26 36.6 -0.26 36.6 z" class="primitive"/>
              </g>
              <g transform="translate(58.13,59.86)" id="img-a17d686e-91">
                <path d="M-0.26,-28.46 L 0.26 -28.46 0.26 28.46 -0.26 28.46 z" class="primitive"/>
              </g>
              <g transform="translate(58.6,59.86)" id="img-a17d686e-92">
                <path d="M-0.26,-28.46 L 0.26 -28.46 0.26 28.46 -0.26 28.46 z" class="primitive"/>
              </g>
              <g transform="translate(59.07,51.73)" id="img-a17d686e-93">
                <path d="M-0.26,-36.6 L 0.26 -36.6 0.26 36.6 -0.26 36.6 z" class="primitive"/>
              </g>
              <g transform="translate(59.55,55.8)" id="img-a17d686e-94">
                <path d="M-0.26,-32.53 L 0.26 -32.53 0.26 32.53 -0.26 32.53 z" class="primitive"/>
              </g>
              <g transform="translate(60.02,53.09)" id="img-a17d686e-95">
                <path d="M-0.26,-35.24 L 0.26 -35.24 0.26 35.24 -0.26 35.24 z" class="primitive"/>
              </g>
              <g transform="translate(60.49,53.09)" id="img-a17d686e-96">
                <path d="M-0.26,-35.24 L 0.26 -35.24 0.26 35.24 -0.26 35.24 z" class="primitive"/>
              </g>
              <g transform="translate(60.97,61.22)" id="img-a17d686e-97">
                <path d="M-0.26,-27.11 L 0.26 -27.11 0.26 27.11 -0.26 27.11 z" class="primitive"/>
              </g>
              <g transform="translate(61.44,61.22)" id="img-a17d686e-98">
                <path d="M-0.26,-27.11 L 0.26 -27.11 0.26 27.11 -0.26 27.11 z" class="primitive"/>
              </g>
              <g transform="translate(61.91,50.37)" id="img-a17d686e-99">
                <path d="M-0.26,-37.95 L 0.26 -37.95 0.26 37.95 -0.26 37.95 z" class="primitive"/>
              </g>
              <g transform="translate(62.38,61.22)" id="img-a17d686e-100">
                <path d="M-0.26,-27.11 L 0.26 -27.11 0.26 27.11 -0.26 27.11 z" class="primitive"/>
              </g>
              <g transform="translate(62.86,62.57)" id="img-a17d686e-101">
                <path d="M-0.26,-25.75 L 0.26 -25.75 0.26 25.75 -0.26 25.75 z" class="primitive"/>
              </g>
              <g transform="translate(63.33,57.15)" id="img-a17d686e-102">
                <path d="M-0.26,-31.18 L 0.26 -31.18 0.26 31.18 -0.26 31.18 z" class="primitive"/>
              </g>
              <g transform="translate(63.8,82.9)" id="img-a17d686e-103">
                <path d="M-0.26,-5.42 L 0.26 -5.42 0.26 5.42 -0.26 5.42 z" class="primitive"/>
              </g>
              <g transform="translate(64.28,69.35)" id="img-a17d686e-104">
                <path d="M-0.26,-18.98 L 0.26 -18.98 0.26 18.98 -0.26 18.98 z" class="primitive"/>
              </g>
              <g transform="translate(64.75,76.13)" id="img-a17d686e-105">
                <path d="M-0.26,-12.2 L 0.26 -12.2 0.26 12.2 -0.26 12.2 z" class="primitive"/>
              </g>
              <g transform="translate(65.22,74.77)" id="img-a17d686e-106">
                <path d="M-0.26,-13.55 L 0.26 -13.55 0.26 13.55 -0.26 13.55 z" class="primitive"/>
              </g>
              <g transform="translate(65.7,66.64)" id="img-a17d686e-107">
                <path d="M-0.26,-21.69 L 0.26 -21.69 0.26 21.69 -0.26 21.69 z" class="primitive"/>
              </g>
              <g transform="translate(66.17,66.64)" id="img-a17d686e-108">
                <path d="M-0.26,-21.69 L 0.26 -21.69 0.26 21.69 -0.26 21.69 z" class="primitive"/>
              </g>
              <g transform="translate(66.64,72.06)" id="img-a17d686e-109">
                <path d="M-0.26,-16.27 L 0.26 -16.27 0.26 16.27 -0.26 16.27 z" class="primitive"/>
              </g>
              <g transform="translate(67.11,78.84)" id="img-a17d686e-110">
                <path d="M-0.26,-9.49 L 0.26 -9.49 0.26 9.49 -0.26 9.49 z" class="primitive"/>
              </g>
              <g transform="translate(67.59,77.48)" id="img-a17d686e-111">
                <path d="M-0.26,-10.84 L 0.26 -10.84 0.26 10.84 -0.26 10.84 z" class="primitive"/>
              </g>
              <g transform="translate(68.06,76.13)" id="img-a17d686e-112">
                <path d="M-0.26,-12.2 L 0.26 -12.2 0.26 12.2 -0.26 12.2 z" class="primitive"/>
              </g>
              <g transform="translate(68.53,73.42)" id="img-a17d686e-113">
                <path d="M-0.26,-14.91 L 0.26 -14.91 0.26 14.91 -0.26 14.91 z" class="primitive"/>
              </g>
              <g transform="translate(69.01,80.19)" id="img-a17d686e-114">
                <path d="M-0.26,-8.13 L 0.26 -8.13 0.26 8.13 -0.26 8.13 z" class="primitive"/>
              </g>
              <g transform="translate(69.48,82.9)" id="img-a17d686e-115">
                <path d="M-0.26,-5.42 L 0.26 -5.42 0.26 5.42 -0.26 5.42 z" class="primitive"/>
              </g>
              <g transform="translate(69.95,82.9)" id="img-a17d686e-116">
                <path d="M-0.26,-5.42 L 0.26 -5.42 0.26 5.42 -0.26 5.42 z" class="primitive"/>
              </g>
              <g transform="translate(70.43,82.9)" id="img-a17d686e-117">
                <path d="M-0.26,-5.42 L 0.26 -5.42 0.26 5.42 -0.26 5.42 z" class="primitive"/>
              </g>
              <g transform="translate(70.9,84.26)" id="img-a17d686e-118">
                <path d="M-0.26,-4.07 L 0.26 -4.07 0.26 4.07 -0.26 4.07 z" class="primitive"/>
              </g>
              <g transform="translate(71.37,82.9)" id="img-a17d686e-119">
                <path d="M-0.26,-5.42 L 0.26 -5.42 0.26 5.42 -0.26 5.42 z" class="primitive"/>
              </g>
              <g transform="translate(71.85,84.26)" id="img-a17d686e-120">
                <path d="M-0.26,-4.07 L 0.26 -4.07 0.26 4.07 -0.26 4.07 z" class="primitive"/>
              </g>
              <g transform="translate(72.32,82.9)" id="img-a17d686e-121">
                <path d="M-0.26,-5.42 L 0.26 -5.42 0.26 5.42 -0.26 5.42 z" class="primitive"/>
              </g>
              <g transform="translate(72.79,84.26)" id="img-a17d686e-122">
                <path d="M-0.26,-4.07 L 0.26 -4.07 0.26 4.07 -0.26 4.07 z" class="primitive"/>
              </g>
              <g transform="translate(73.26,88.33)" id="img-a17d686e-123">
                <path d="M-0.26,-0 L 0.26 -0 0.26 0 -0.26 0 z" class="primitive"/>
              </g>
              <g transform="translate(73.74,88.33)" id="img-a17d686e-124">
                <path d="M-0.26,-0 L 0.26 -0 0.26 0 -0.26 0 z" class="primitive"/>
              </g>
              <g transform="translate(74.21,86.97)" id="img-a17d686e-125">
                <path d="M-0.26,-1.36 L 0.26 -1.36 0.26 1.36 -0.26 1.36 z" class="primitive"/>
              </g>
              <g transform="translate(74.68,86.97)" id="img-a17d686e-126">
                <path d="M-0.26,-1.36 L 0.26 -1.36 0.26 1.36 -0.26 1.36 z" class="primitive"/>
              </g>
              <g transform="translate(75.16,86.97)" id="img-a17d686e-127">
                <path d="M-0.26,-1.36 L 0.26 -1.36 0.26 1.36 -0.26 1.36 z" class="primitive"/>
              </g>
              <g transform="translate(75.63,88.33)" id="img-a17d686e-128">
                <path d="M-0.26,-0 L 0.26 -0 0.26 0 -0.26 0 z" class="primitive"/>
              </g>
              <g transform="translate(76.1,86.97)" id="img-a17d686e-129">
                <path d="M-0.26,-1.36 L 0.26 -1.36 0.26 1.36 -0.26 1.36 z" class="primitive"/>
              </g>
            </g>
          </g>
        </g>
      </g>
    </g>
  </g>
  <g class="guide ylabels" font-size="2.82" font-family="'PT Sans Caption','Helvetica Neue','Helvetica',sans-serif" fill="#6C606B" id="img-a17d686e-130">
    <g transform="translate(16.96,88.33)" id="img-a17d686e-131">
      <g class="primitive">
        <text text-anchor="end" dy="0.35em">0</text>
      </g>
    </g>
    <g transform="translate(16.96,61.22)" id="img-a17d686e-132">
      <g class="primitive">
        <text text-anchor="end" dy="0.35em">10</text>
      </g>
    </g>
    <g transform="translate(16.96,34.11)" id="img-a17d686e-133">
      <g class="primitive">
        <text text-anchor="end" dy="0.35em">20</text>
      </g>
    </g>
    <g transform="translate(16.96,7)" id="img-a17d686e-134">
      <g class="primitive">
        <text text-anchor="end" dy="0.35em">30</text>
      </g>
    </g>
  </g>
  <g font-size="3.88" font-family="'PT Sans','Helvetica Neue','Helvetica',sans-serif" fill="#564A55" stroke="#000000" stroke-opacity="0.000" id="img-a17d686e-135">
    <g transform="translate(8.81,45.66)" id="img-a17d686e-136">
      <g class="primitive">
        <text text-anchor="middle" dy="0.35em" transform="rotate(-90,0, 2)">frequency</text>
      </g>
    </g>
  </g>
</g>
<defs>
  <clipPath id="img-a17d686e-11">
    <path d="M17.96,5 L 82.27 5 82.27 90.33 17.96 90.33" />
  </clipPath>
</defs>
</svg>
