<?xml version="1.0" encoding="UTF-8"?>
<svg xmlns="http://www.w3.org/2000/svg"
     xmlns:xlink="http://www.w3.org/1999/xlink"
     xmlns:gadfly="http://www.gadflyjl.org/ns"
     version="1.2"
     width="141.42mm" height="100mm" viewBox="0 0 141.42 100"
     stroke="none"
     fill="#000000"
     stroke-width="0.3"
     font-size="3.88"
>
<defs>
  <marker id="arrow" markerWidth="15" markerHeight="7" refX="5" refY="3.5" orient="auto" markerUnits="strokeWidth">
    <path d="M0,0 L15,3.5 L0,7 z" stroke="context-stroke" fill="context-stroke"/>
  </marker>
</defs>
<g class="plotroot xscalable yscalable" id="img-d3c4782b-1">
  <g class="guide xlabels" font-size="2.82" font-family="'PT Sans Caption','Helvetica Neue','Helvetica',sans-serif" fill="#6C606B" id="img-d3c4782b-2">
    <g transform="translate(19.96,81.89)">
      <g class="primitive">
        <text text-anchor="end" dy="0.35em" transform="rotate(-90,0, 0)">3.5×10⁵</text>
      </g>
    </g>
    <g transform="translate(31.54,81.89)">
      <g class="primitive">
        <text text-anchor="end" dy="0.35em" transform="rotate(-90,0, 0)">4.0×10⁵</text>
      </g>
    </g>
    <g transform="translate(43.12,81.89)">
      <g class="primitive">
        <text text-anchor="end" dy="0.35em" transform="rotate(-90,0, 0)">4.5×10⁵</text>
      </g>
    </g>
    <g transform="translate(54.7,81.89)">
      <g class="primitive">
        <text text-anchor="end" dy="0.35em" transform="rotate(-90,0, 0)">5.0×10⁵</text>
      </g>
    </g>
    <g transform="translate(66.28,81.89)">
      <g class="primitive">
        <text text-anchor="end" dy="0.35em" transform="rotate(-90,0, 0)">5.5×10⁵</text>
      </g>
    </g>
    <g transform="translate(77.86,81.89)">
      <g class="primitive">
        <text text-anchor="end" dy="0.35em" transform="rotate(-90,0, 0)">6.0×10⁵</text>
      </g>
    </g>
  </g>
  <g class="guide colorkey" id="img-d3c4782b-3">
    <g class="color_coding_coding_noncoding_noncoding_4-tail" id="img-d3c4782b-4">
      <g fill="#4C404B" font-size="2.82" font-family="'PT Sans','Helvetica Neue','Helvetica',sans-serif" id="img-d3c4782b-5">
        <g transform="translate(83.67,44.76)" id="img-d3c4782b-6">
          <g class="primitive">
            <text dy="0.35em">coding_coding_noncoding_noncoding_4-tail</text>
          </g>
        </g>
      </g>
      <g fill-opacity="1" fill="#00BFFF" stroke="#FFFFFF" id="img-d3c4782b-7">
        <g transform="translate(81.77,44.76)" id="img-d3c4782b-8">
          <path d="M-0.91,-0.91 L 0.91 -0.91 0.91 0.91 -0.91 0.91 z" class="primitive"/>
        </g>
      </g>
    </g>
    <g fill="#362A35" font-size="3.88" font-family="'PT Sans','Helvetica Neue','Helvetica',sans-serif" stroke="#000000" stroke-opacity="0.000" id="img-d3c4782b-9">
      <g transform="translate(80.86,40.94)" id="img-d3c4782b-10">
        <g class="primitive">
          <text dy="-0em">graphlet</text>
        </g>
      </g>
    </g>
  </g>
  <g clip-path="url(#img-d3c4782b-11)">
    <g id="img-d3c4782b-12">
      <g pointer-events="visible" stroke-width="0.3" fill="#000000" fill-opacity="0.000" stroke="#000000" stroke-opacity="0.000" class="guide background" id="img-d3c4782b-13">
        <g transform="translate(48.91,42.94)" id="img-d3c4782b-14">
          <path d="M-30.95,-37.94 L 30.95 -37.94 30.95 37.94 -30.95 37.94 z" class="primitive"/>
        </g>
      </g>
      <g class="guide ygridlines xfixed" stroke-dasharray="0.5,0.5" stroke-width="0.2" stroke="#D0D0E0" id="img-d3c4782b-15">
        <g transform="translate(48.91,78.89)" id="img-d3c4782b-16">
          <path fill="none" d="M-30.95,0 L 30.95 0" class="primitive"/>
        </g>
        <g transform="translate(48.91,60.92)" id="img-d3c4782b-17">
          <path fill="none" d="M-30.95,0 L 30.95 0" class="primitive"/>
        </g>
        <g transform="translate(48.91,42.94)" id="img-d3c4782b-18">
          <path fill="none" d="M-30.95,0 L 30.95 0" class="primitive"/>
        </g>
        <g transform="translate(48.91,24.97)" id="img-d3c4782b-19">
          <path fill="none" d="M-30.95,0 L 30.95 0" class="primitive"/>
        </g>
        <g transform="translate(48.91,7)" id="img-d3c4782b-20">
          <path fill="none" d="M-30.95,0 L 30.95 0" class="primitive"/>
        </g>
      </g>
      <g class="guide xgridlines yfixed" stroke-dasharray="0.5,0.5" stroke-width="0.2" stroke="#D0D0E0" id="img-d3c4782b-21">
        <g transform="translate(19.96,42.94)" id="img-d3c4782b-22">
          <path fill="none" d="M0,-37.94 L 0 37.94" class="primitive"/>
        </g>
        <g transform="translate(31.54,42.94)" id="img-d3c4782b-23">
          <path fill="none" d="M0,-37.94 L 0 37.94" class="primitive"/>
        </g>
        <g transform="translate(43.12,42.94)" id="img-d3c4782b-24">
          <path fill="none" d="M0,-37.94 L 0 37.94" class="primitive"/>
        </g>
        <g transform="translate(54.7,42.94)" id="img-d3c4782b-25">
          <path fill="none" d="M0,-37.94 L 0 37.94" class="primitive"/>
        </g>
        <g transform="translate(66.28,42.94)" id="img-d3c4782b-26">
          <path fill="none" d="M0,-37.94 L 0 37.94" class="primitive"/>
        </g>
        <g transform="translate(77.86,42.94)" id="img-d3c4782b-27">
          <path fill="none" d="M0,-37.94 L 0 37.94" class="primitive"/>
        </g>
      </g>
      <g class="plotpanel" id="img-d3c4782b-28">
        <metadata>
          <boundingbox value="17.958333333333336mm 5.0mm 61.903022903976186mm 75.88666666666667mm"/>
          <unitbox value="341364.87224804866 41.112862839655016 267270.25550390274 -42.225725679310024"/>
        </metadata>
        <g shape-rendering="crispEdges" stroke-width="0.3" id="img-d3c4782b-29">
          <g stroke="#000000" stroke-opacity="0.000" class="geometry" id="img-d3c4782b-30">
            <g fill="#00BFFF" id="img-d3c4782b-31">
              <g transform="translate(24.51,76.19)" id="img-d3c4782b-32">
                <path d="M-0.29,-2.7 L 0.29 -2.7 0.29 2.7 -0.29 2.7 z" class="primitive"/>
              </g>
              <g transform="translate(25.03,78.89)" id="img-d3c4782b-33">
                <path d="M-0.29,-0 L 0.29 -0 0.29 0 -0.29 0 z" class="primitive"/>
              </g>
              <g transform="translate(25.55,78.89)" id="img-d3c4782b-34">
                <path d="M-0.29,-0 L 0.29 -0 0.29 0 -0.29 0 z" class="primitive"/>
              </g>
              <g transform="translate(26.07,78.89)" id="img-d3c4782b-35">
                <path d="M-0.29,-0 L 0.29 -0 0.29 0 -0.29 0 z" class="primitive"/>
              </g>
              <g transform="translate(26.59,78.89)" id="img-d3c4782b-36">
                <path d="M-0.29,-0 L 0.29 -0 0.29 0 -0.29 0 z" class="primitive"/>
              </g>
              <g transform="translate(27.11,78.89)" id="img-d3c4782b-37">
                <path d="M-0.29,-0 L 0.29 -0 0.29 0 -0.29 0 z" class="primitive"/>
              </g>
              <g transform="translate(27.63,77.99)" id="img-d3c4782b-38">
                <path d="M-0.29,-0.9 L 0.29 -0.9 0.29 0.9 -0.29 0.9 z" class="primitive"/>
              </g>
              <g transform="translate(28.15,78.89)" id="img-d3c4782b-39">
                <path d="M-0.29,-0 L 0.29 -0 0.29 0 -0.29 0 z" class="primitive"/>
              </g>
              <g transform="translate(28.67,77.99)" id="img-d3c4782b-40">
                <path d="M-0.29,-0.9 L 0.29 -0.9 0.29 0.9 -0.29 0.9 z" class="primitive"/>
              </g>
              <g transform="translate(29.19,78.89)" id="img-d3c4782b-41">
                <path d="M-0.29,-0 L 0.29 -0 0.29 0 -0.29 0 z" class="primitive"/>
              </g>
              <g transform="translate(29.71,77.09)" id="img-d3c4782b-42">
                <path d="M-0.29,-1.8 L 0.29 -1.8 0.29 1.8 -0.29 1.8 z" class="primitive"/>
              </g>
              <g transform="translate(30.23,77.99)" id="img-d3c4782b-43">
                <path d="M-0.29,-0.9 L 0.29 -0.9 0.29 0.9 -0.29 0.9 z" class="primitive"/>
              </g>
              <g transform="translate(30.75,77.99)" id="img-d3c4782b-44">
                <path d="M-0.29,-0.9 L 0.29 -0.9 0.29 0.9 -0.29 0.9 z" class="primitive"/>
              </g>
              <g transform="translate(31.27,76.19)" id="img-d3c4782b-45">
                <path d="M-0.29,-2.7 L 0.29 -2.7 0.29 2.7 -0.29 2.7 z" class="primitive"/>
              </g>
              <g transform="translate(31.79,77.99)" id="img-d3c4782b-46">
                <path d="M-0.29,-0.9 L 0.29 -0.9 0.29 0.9 -0.29 0.9 z" class="primitive"/>
              </g>
              <g transform="translate(32.32,76.19)" id="img-d3c4782b-47">
                <path d="M-0.29,-2.7 L 0.29 -2.7 0.29 2.7 -0.29 2.7 z" class="primitive"/>
              </g>
              <g transform="translate(32.84,77.99)" id="img-d3c4782b-48">
                <path d="M-0.29,-0.9 L 0.29 -0.9 0.29 0.9 -0.29 0.9 z" class="primitive"/>
              </g>
              <g transform="translate(33.36,77.09)" id="img-d3c4782b-49">
                <path d="M-0.29,-1.8 L 0.29 -1.8 0.29 1.8 -0.29 1.8 z" class="primitive"/>
              </g>
              <g transform="translate(33.88,74.39)" id="img-d3c4782b-50">
                <path d="M-0.29,-4.49 L 0.29 -4.49 0.29 4.49 -0.29 4.49 z" class="primitive"/>
              </g>
              <g transform="translate(34.4,77.99)" id="img-d3c4782b-51">
                <path d="M-0.29,-0.9 L 0.29 -0.9 0.29 0.9 -0.29 0.9 z" class="primitive"/>
              </g>
              <g transform="translate(34.92,76.19)" id="img-d3c4782b-52">
                <path d="M-0.29,-2.7 L 0.29 -2.7 0.29 2.7 -0.29 2.7 z" class="primitive"/>
              </g>
              <g transform="translate(35.44,72.6)" id="img-d3c4782b-53">
                <path d="M-0.29,-6.29 L 0.29 -6.29 0.29 6.29 -0.29 6.29 z" class="primitive"/>
              </g>
              <g transform="translate(35.96,75.29)" id="img-d3c4782b-54">
                <path d="M-0.29,-3.59 L 0.29 -3.59 0.29 3.59 -0.29 3.59 z" class="primitive"/>
              </g>
              <g transform="translate(36.48,75.29)" id="img-d3c4782b-55">
                <path d="M-0.29,-3.59 L 0.29 -3.59 0.29 3.59 -0.29 3.59 z" class="primitive"/>
              </g>
              <g transform="translate(37,71.7)" id="img-d3c4782b-56">
                <path d="M-0.29,-7.19 L 0.29 -7.19 0.29 7.19 -0.29 7.19 z" class="primitive"/>
              </g>
              <g transform="translate(37.52,76.19)" id="img-d3c4782b-57">
                <path d="M-0.29,-2.7 L 0.29 -2.7 0.29 2.7 -0.29 2.7 z" class="primitive"/>
              </g>
              <g transform="translate(38.04,60.92)" id="img-d3c4782b-58">
                <path d="M-0.29,-17.97 L 0.29 -17.97 0.29 17.97 -0.29 17.97 z" class="primitive"/>
              </g>
              <g transform="translate(38.56,73.5)" id="img-d3c4782b-59">
                <path d="M-0.29,-5.39 L 0.29 -5.39 0.29 5.39 -0.29 5.39 z" class="primitive"/>
              </g>
              <g transform="translate(39.08,70.8)" id="img-d3c4782b-60">
                <path d="M-0.29,-8.09 L 0.29 -8.09 0.29 8.09 -0.29 8.09 z" class="primitive"/>
              </g>
              <g transform="translate(39.6,69.9)" id="img-d3c4782b-61">
                <path d="M-0.29,-8.99 L 0.29 -8.99 0.29 8.99 -0.29 8.99 z" class="primitive"/>
              </g>
              <g transform="translate(40.13,67.21)" id="img-d3c4782b-62">
                <path d="M-0.29,-11.68 L 0.29 -11.68 0.29 11.68 -0.29 11.68 z" class="primitive"/>
              </g>
              <g transform="translate(40.65,69)" id="img-d3c4782b-63">
                <path d="M-0.29,-9.88 L 0.29 -9.88 0.29 9.88 -0.29 9.88 z" class="primitive"/>
              </g>
              <g transform="translate(41.17,68.1)" id="img-d3c4782b-64">
                <path d="M-0.29,-10.78 L 0.29 -10.78 0.29 10.78 -0.29 10.78 z" class="primitive"/>
              </g>
              <g transform="translate(41.69,65.41)" id="img-d3c4782b-65">
                <path d="M-0.29,-13.48 L 0.29 -13.48 0.29 13.48 -0.29 13.48 z" class="primitive"/>
              </g>
              <g transform="translate(42.21,61.81)" id="img-d3c4782b-66">
                <path d="M-0.29,-17.07 L 0.29 -17.07 0.29 17.07 -0.29 17.07 z" class="primitive"/>
              </g>
              <g transform="translate(42.73,67.21)" id="img-d3c4782b-67">
                <path d="M-0.29,-11.68 L 0.29 -11.68 0.29 11.68 -0.29 11.68 z" class="primitive"/>
              </g>
              <g transform="translate(43.25,59.12)" id="img-d3c4782b-68">
                <path d="M-0.29,-19.77 L 0.29 -19.77 0.29 19.77 -0.29 19.77 z" class="primitive"/>
              </g>
              <g transform="translate(43.77,57.32)" id="img-d3c4782b-69">
                <path d="M-0.29,-21.57 L 0.29 -21.57 0.29 21.57 -0.29 21.57 z" class="primitive"/>
              </g>
              <g transform="translate(44.29,59.12)" id="img-d3c4782b-70">
                <path d="M-0.29,-19.77 L 0.29 -19.77 0.29 19.77 -0.29 19.77 z" class="primitive"/>
              </g>
              <g transform="translate(44.81,66.31)" id="img-d3c4782b-71">
                <path d="M-0.29,-12.58 L 0.29 -12.58 0.29 12.58 -0.29 12.58 z" class="primitive"/>
              </g>
              <g transform="translate(45.33,58.22)" id="img-d3c4782b-72">
                <path d="M-0.29,-20.67 L 0.29 -20.67 0.29 20.67 -0.29 20.67 z" class="primitive"/>
              </g>
              <g transform="translate(45.85,58.22)" id="img-d3c4782b-73">
                <path d="M-0.29,-20.67 L 0.29 -20.67 0.29 20.67 -0.29 20.67 z" class="primitive"/>
              </g>
              <g transform="translate(46.37,58.22)" id="img-d3c4782b-74">
                <path d="M-0.29,-20.67 L 0.29 -20.67 0.29 20.67 -0.29 20.67 z" class="primitive"/>
              </g>
              <g transform="translate(46.89,56.42)" id="img-d3c4782b-75">
                <path d="M-0.29,-22.46 L 0.29 -22.46 0.29 22.46 -0.29 22.46 z" class="primitive"/>
              </g>
              <g transform="translate(47.41,55.52)" id="img-d3c4782b-76">
                <path d="M-0.29,-23.36 L 0.29 -23.36 0.29 23.36 -0.29 23.36 z" class="primitive"/>
              </g>
              <g transform="translate(47.93,60.92)" id="img-d3c4782b-77">
                <path d="M-0.29,-17.97 L 0.29 -17.97 0.29 17.97 -0.29 17.97 z" class="primitive"/>
              </g>
              <g transform="translate(48.46,56.42)" id="img-d3c4782b-78">
                <path d="M-0.29,-22.46 L 0.29 -22.46 0.29 22.46 -0.29 22.46 z" class="primitive"/>
              </g>
              <g transform="translate(48.98,52.83)" id="img-d3c4782b-79">
                <path d="M-0.29,-26.06 L 0.29 -26.06 0.29 26.06 -0.29 26.06 z" class="primitive"/>
              </g>
              <g transform="translate(49.5,53.73)" id="img-d3c4782b-80">
                <path d="M-0.29,-25.16 L 0.29 -25.16 0.29 25.16 -0.29 25.16 z" class="primitive"/>
              </g>
              <g transform="translate(50.02,58.22)" id="img-d3c4782b-81">
                <path d="M-0.29,-20.67 L 0.29 -20.67 0.29 20.67 -0.29 20.67 z" class="primitive"/>
              </g>
              <g transform="translate(50.54,53.73)" id="img-d3c4782b-82">
                <path d="M-0.29,-25.16 L 0.29 -25.16 0.29 25.16 -0.29 25.16 z" class="primitive"/>
              </g>
              <g transform="translate(51.06,57.32)" id="img-d3c4782b-83">
                <path d="M-0.29,-21.57 L 0.29 -21.57 0.29 21.57 -0.29 21.57 z" class="primitive"/>
              </g>
              <g transform="translate(51.58,56.42)" id="img-d3c4782b-84">
                <path d="M-0.29,-22.46 L 0.29 -22.46 0.29 22.46 -0.29 22.46 z" class="primitive"/>
              </g>
              <g transform="translate(52.1,51.93)" id="img-d3c4782b-85">
                <path d="M-0.29,-26.96 L 0.29 -26.96 0.29 26.96 -0.29 26.96 z" class="primitive"/>
              </g>
              <g transform="translate(52.62,57.32)" id="img-d3c4782b-86">
                <path d="M-0.29,-21.57 L 0.29 -21.57 0.29 21.57 -0.29 21.57 z" class="primitive"/>
              </g>
              <g transform="translate(53.14,60.02)" id="img-d3c4782b-87">
                <path d="M-0.29,-18.87 L 0.29 -18.87 0.29 18.87 -0.29 18.87 z" class="primitive"/>
              </g>
              <g transform="translate(53.66,55.52)" id="img-d3c4782b-88">
                <path d="M-0.29,-23.36 L 0.29 -23.36 0.29 23.36 -0.29 23.36 z" class="primitive"/>
              </g>
              <g transform="translate(54.18,54.62)" id="img-d3c4782b-89">
                <path d="M-0.29,-24.26 L 0.29 -24.26 0.29 24.26 -0.29 24.26 z" class="primitive"/>
              </g>
              <g transform="translate(54.7,53.73)" id="img-d3c4782b-90">
                <path d="M-0.29,-25.16 L 0.29 -25.16 0.29 25.16 -0.29 25.16 z" class="primitive"/>
              </g>
              <g transform="translate(55.22,58.22)" id="img-d3c4782b-91">
                <path d="M-0.29,-20.67 L 0.29 -20.67 0.29 20.67 -0.29 20.67 z" class="primitive"/>
              </g>
              <g transform="translate(55.74,49.23)" id="img-d3c4782b-92">
                <path d="M-0.29,-29.65 L 0.29 -29.65 0.29 29.65 -0.29 29.65 z" class="primitive"/>
              </g>
              <g transform="translate(56.26,66.31)" id="img-d3c4782b-93">
                <path d="M-0.29,-12.58 L 0.29 -12.58 0.29 12.58 -0.29 12.58 z" class="primitive"/>
              </g>
              <g transform="translate(56.79,69)" id="img-d3c4782b-94">
                <path d="M-0.29,-9.88 L 0.29 -9.88 0.29 9.88 -0.29 9.88 z" class="primitive"/>
              </g>
              <g transform="translate(57.31,58.22)" id="img-d3c4782b-95">
                <path d="M-0.29,-20.67 L 0.29 -20.67 0.29 20.67 -0.29 20.67 z" class="primitive"/>
              </g>
              <g transform="translate(57.83,70.8)" id="img-d3c4782b-96">
                <path d="M-0.29,-8.09 L 0.29 -8.09 0.29 8.09 -0.29 8.09 z" class="primitive"/>
              </g>
              <g transform="translate(58.35,68.1)" id="img-d3c4782b-97">
                <path d="M-0.29,-10.78 L 0.29 -10.78 0.29 10.78 -0.29 10.78 z" class="primitive"/>
              </g>
              <g transform="translate(58.87,69.9)" id="img-d3c4782b-98">
                <path d="M-0.29,-8.99 L 0.29 -8.99 0.29 8.99 -0.29 8.99 z" class="primitive"/>
              </g>
              <g transform="translate(59.39,69.9)" id="img-d3c4782b-99">
                <path d="M-0.29,-8.99 L 0.29 -8.99 0.29 8.99 -0.29 8.99 z" class="primitive"/>
              </g>
              <g transform="translate(59.91,69.9)" id="img-d3c4782b-100">
                <path d="M-0.29,-8.99 L 0.29 -8.99 0.29 8.99 -0.29 8.99 z" class="primitive"/>
              </g>
              <g transform="translate(60.43,70.8)" id="img-d3c4782b-101">
                <path d="M-0.29,-8.09 L 0.29 -8.09 0.29 8.09 -0.29 8.09 z" class="primitive"/>
              </g>
              <g transform="translate(60.95,68.1)" id="img-d3c4782b-102">
                <path d="M-0.29,-10.78 L 0.29 -10.78 0.29 10.78 -0.29 10.78 z" class="primitive"/>
              </g>
              <g transform="translate(61.47,69.9)" id="img-d3c4782b-103">
                <path d="M-0.29,-8.99 L 0.29 -8.99 0.29 8.99 -0.29 8.99 z" class="primitive"/>
              </g>
              <g transform="translate(61.99,72.6)" id="img-d3c4782b-104">
                <path d="M-0.29,-6.29 L 0.29 -6.29 0.29 6.29 -0.29 6.29 z" class="primitive"/>
              </g>
              <g transform="translate(62.51,72.6)" id="img-d3c4782b-105">
                <path d="M-0.29,-6.29 L 0.29 -6.29 0.29 6.29 -0.29 6.29 z" class="primitive"/>
              </g>
              <g transform="translate(63.03,70.8)" id="img-d3c4782b-106">
                <path d="M-0.29,-8.09 L 0.29 -8.09 0.29 8.09 -0.29 8.09 z" class="primitive"/>
              </g>
              <g transform="translate(63.55,72.6)" id="img-d3c4782b-107">
                <path d="M-0.29,-6.29 L 0.29 -6.29 0.29 6.29 -0.29 6.29 z" class="primitive"/>
              </g>
              <g transform="translate(64.07,70.8)" id="img-d3c4782b-108">
                <path d="M-0.29,-8.09 L 0.29 -8.09 0.29 8.09 -0.29 8.09 z" class="primitive"/>
              </g>
              <g transform="translate(64.6,72.6)" id="img-d3c4782b-109">
                <path d="M-0.29,-6.29 L 0.29 -6.29 0.29 6.29 -0.29 6.29 z" class="primitive"/>
              </g>
              <g transform="translate(65.12,70.8)" id="img-d3c4782b-110">
                <path d="M-0.29,-8.09 L 0.29 -8.09 0.29 8.09 -0.29 8.09 z" class="primitive"/>
              </g>
              <g transform="translate(65.64,76.19)" id="img-d3c4782b-111">
                <path d="M-0.29,-2.7 L 0.29 -2.7 0.29 2.7 -0.29 2.7 z" class="primitive"/>
              </g>
              <g transform="translate(66.16,77.99)" id="img-d3c4782b-112">
                <path d="M-0.29,-0.9 L 0.29 -0.9 0.29 0.9 -0.29 0.9 z" class="primitive"/>
              </g>
              <g transform="translate(66.68,76.19)" id="img-d3c4782b-113">
                <path d="M-0.29,-2.7 L 0.29 -2.7 0.29 2.7 -0.29 2.7 z" class="primitive"/>
              </g>
              <g transform="translate(67.2,77.09)" id="img-d3c4782b-114">
                <path d="M-0.29,-1.8 L 0.29 -1.8 0.29 1.8 -0.29 1.8 z" class="primitive"/>
              </g>
              <g transform="translate(67.72,77.99)" id="img-d3c4782b-115">
                <path d="M-0.29,-0.9 L 0.29 -0.9 0.29 0.9 -0.29 0.9 z" class="primitive"/>
              </g>
              <g transform="translate(68.24,77.09)" id="img-d3c4782b-116">
                <path d="M-0.29,-1.8 L 0.29 -1.8 0.29 1.8 -0.29 1.8 z" class="primitive"/>
              </g>
              <g transform="translate(68.76,77.99)" id="img-d3c4782b-117">
                <path d="M-0.29,-0.9 L 0.29 -0.9 0.29 0.9 -0.29 0.9 z" class="primitive"/>
              </g>
              <g transform="translate(69.28,78.89)" id="img-d3c4782b-118">
                <path d="M-0.29,-0 L 0.29 -0 0.29 0 -0.29 0 z" class="primitive"/>
              </g>
              <g transform="translate(69.8,77.99)" id="img-d3c4782b-119">
                <path d="M-0.29,-0.9 L 0.29 -0.9 0.29 0.9 -0.29 0.9 z" class="primitive"/>
              </g>
              <g transform="translate(70.32,78.89)" id="img-d3c4782b-120">
                <path d="M-0.29,-0 L 0.29 -0 0.29 0 -0.29 0 z" class="primitive"/>
              </g>
              <g transform="translate(70.84,77.99)" id="img-d3c4782b-121">
                <path d="M-0.29,-0.9 L 0.29 -0.9 0.29 0.9 -0.29 0.9 z" class="primitive"/>
              </g>
              <g transform="translate(71.36,78.89)" id="img-d3c4782b-122">
                <path d="M-0.29,-0 L 0.29 -0 0.29 0 -0.29 0 z" class="primitive"/>
              </g>
              <g transform="translate(71.88,78.89)" id="img-d3c4782b-123">
                <path d="M-0.29,-0 L 0.29 -0 0.29 0 -0.29 0 z" class="primitive"/>
              </g>
              <g transform="translate(72.4,78.89)" id="img-d3c4782b-124">
                <path d="M-0.29,-0 L 0.29 -0 0.29 0 -0.29 0 z" class="primitive"/>
              </g>
              <g transform="translate(72.93,78.89)" id="img-d3c4782b-125">
                <path d="M-0.29,-0 L 0.29 -0 0.29 0 -0.29 0 z" class="primitive"/>
              </g>
              <g transform="translate(73.45,78.89)" id="img-d3c4782b-126">
                <path d="M-0.29,-0 L 0.29 -0 0.29 0 -0.29 0 z" class="primitive"/>
              </g>
              <g transform="translate(73.97,78.89)" id="img-d3c4782b-127">
                <path d="M-0.29,-0 L 0.29 -0 0.29 0 -0.29 0 z" class="primitive"/>
              </g>
              <g transform="translate(74.49,77.99)" id="img-d3c4782b-128">
                <path d="M-0.29,-0.9 L 0.29 -0.9 0.29 0.9 -0.29 0.9 z" class="primitive"/>
              </g>
              <g transform="translate(75.01,78.89)" id="img-d3c4782b-129">
                <path d="M-0.29,-0 L 0.29 -0 0.29 0 -0.29 0 z" class="primitive"/>
              </g>
              <g transform="translate(75.53,78.89)" id="img-d3c4782b-130">
                <path d="M-0.29,-0 L 0.29 -0 0.29 0 -0.29 0 z" class="primitive"/>
              </g>
              <g transform="translate(76.05,77.99)" id="img-d3c4782b-131">
                <path d="M-0.29,-0.9 L 0.29 -0.9 0.29 0.9 -0.29 0.9 z" class="primitive"/>
              </g>
            </g>
          </g>
        </g>
      </g>
    </g>
  </g>
  <g class="guide ylabels" font-size="2.82" font-family="'PT Sans Caption','Helvetica Neue','Helvetica',sans-serif" fill="#6C606B" id="img-d3c4782b-132">
    <g transform="translate(16.96,78.89)" id="img-d3c4782b-133">
      <g class="primitive">
        <text text-anchor="end" dy="0.35em">0</text>
      </g>
    </g>
    <g transform="translate(16.96,60.92)" id="img-d3c4782b-134">
      <g class="primitive">
        <text text-anchor="end" dy="0.35em">10</text>
      </g>
    </g>
    <g transform="translate(16.96,42.94)" id="img-d3c4782b-135">
      <g class="primitive">
        <text text-anchor="end" dy="0.35em">20</text>
      </g>
    </g>
    <g transform="translate(16.96,24.97)" id="img-d3c4782b-136">
      <g class="primitive">
        <text text-anchor="end" dy="0.35em">30</text>
      </g>
    </g>
    <g transform="translate(16.96,7)" id="img-d3c4782b-137">
      <g class="primitive">
        <text text-anchor="end" dy="0.35em">40</text>
      </g>
    </g>
  </g>
  <g font-size="3.88" font-family="'PT Sans','Helvetica Neue','Helvetica',sans-serif" fill="#564A55" stroke="#000000" stroke-opacity="0.000" id="img-d3c4782b-138">
    <g transform="translate(8.81,40.94)" id="img-d3c4782b-139">
      <g class="primitive">
        <text text-anchor="middle" dy="0.35em" transform="rotate(-90,0, 2)">frequency</text>
      </g>
    </g>
  </g>
</g>
<defs>
  <clipPath id="img-d3c4782b-11">
    <path d="M17.96,5 L 79.86 5 79.86 80.89 17.96 80.89" />
  </clipPath>
</defs>
</svg>
