<?xml version="1.0" encoding="UTF-8"?>
<svg xmlns="http://www.w3.org/2000/svg"
     xmlns:xlink="http://www.w3.org/1999/xlink"
     xmlns:gadfly="http://www.gadflyjl.org/ns"
     version="1.2"
     width="141.42mm" height="100mm" viewBox="0 0 141.42 100"
     stroke="none"
     fill="#000000"
     stroke-width="0.3"
     font-size="3.88"
>
<defs>
  <marker id="arrow" markerWidth="15" markerHeight="7" refX="5" refY="3.5" orient="auto" markerUnits="strokeWidth">
    <path d="M0,0 L15,3.5 L0,7 z" stroke="context-stroke" fill="context-stroke"/>
  </marker>
</defs>
<g class="plotroot xscalable yscalable" id="img-cd2ed065-1">
  <g class="guide xlabels" font-size="2.82" font-family="'PT Sans Caption','Helvetica Neue','Helvetica',sans-serif" fill="#6C606B" id="img-cd2ed065-2">
    <g transform="translate(19.96,80.21)">
      <g class="primitive">
        <text text-anchor="end" dy="0.35em" transform="rotate(-90,0, 0)">4.00×10⁴</text>
      </g>
    </g>
    <g transform="translate(30.05,80.21)">
      <g class="primitive">
        <text text-anchor="end" dy="0.35em" transform="rotate(-90,0, 0)">5.00×10⁴</text>
      </g>
    </g>
    <g transform="translate(40.14,80.21)">
      <g class="primitive">
        <text text-anchor="end" dy="0.35em" transform="rotate(-90,0, 0)">6.00×10⁴</text>
      </g>
    </g>
    <g transform="translate(50.22,80.21)">
      <g class="primitive">
        <text text-anchor="end" dy="0.35em" transform="rotate(-90,0, 0)">7.00×10⁴</text>
      </g>
    </g>
    <g transform="translate(60.31,80.21)">
      <g class="primitive">
        <text text-anchor="end" dy="0.35em" transform="rotate(-90,0, 0)">8.00×10⁴</text>
      </g>
    </g>
    <g transform="translate(70.4,80.21)">
      <g class="primitive">
        <text text-anchor="end" dy="0.35em" transform="rotate(-90,0, 0)">9.00×10⁴</text>
      </g>
    </g>
  </g>
  <g class="guide colorkey" id="img-cd2ed065-3">
    <g class="color_coding_noncoding_noncoding_noncoding_4-chord" id="img-cd2ed065-4">
      <g fill="#4C404B" font-size="2.82" font-family="'PT Sans','Helvetica Neue','Helvetica',sans-serif" id="img-cd2ed065-5">
        <g transform="translate(76.21,43.92)" id="img-cd2ed065-6">
          <g class="primitive">
            <text dy="0.35em">coding_noncoding_noncoding_noncoding_4-chord</text>
          </g>
        </g>
      </g>
      <g fill-opacity="1" fill="#00BFFF" stroke="#FFFFFF" id="img-cd2ed065-7">
        <g transform="translate(74.31,43.92)" id="img-cd2ed065-8">
          <path d="M-0.91,-0.91 L0.91,-0.91 0.91,0.91 -0.91,0.91  z" class="primitive"/>
        </g>
      </g>
    </g>
    <g fill="#362A35" font-size="3.88" font-family="'PT Sans','Helvetica Neue','Helvetica',sans-serif" stroke="#000000" stroke-opacity="0.000" id="img-cd2ed065-9">
      <g transform="translate(73.4,40.1)" id="img-cd2ed065-10">
        <g class="primitive">
          <text dy="-0em">graphlet</text>
        </g>
      </g>
    </g>
  </g>
  <g clip-path="url(#img-cd2ed065-11)">
    <g id="img-cd2ed065-12">
      <g pointer-events="visible" stroke-width="0.3" fill="#000000" fill-opacity="0.000" stroke="#000000" stroke-opacity="0.000" class="guide background" id="img-cd2ed065-13">
        <g transform="translate(45.18,42.11)" id="img-cd2ed065-14">
          <path d="M-27.22,-37.11 L27.22,-37.11 27.22,37.11 -27.22,37.11  z" class="primitive"/>
        </g>
      </g>
      <g class="guide ygridlines xfixed" stroke-dasharray="0.5,0.5" stroke-width="0.2" stroke="#D0D0E0" id="img-cd2ed065-15">
        <g transform="translate(45.18,77.21)" id="img-cd2ed065-16">
          <path fill="none" d="M-27.22,0 L27.22,0 " class="primitive"/>
        </g>
        <g transform="translate(45.18,53.81)" id="img-cd2ed065-17">
          <path fill="none" d="M-27.22,0 L27.22,0 " class="primitive"/>
        </g>
        <g transform="translate(45.18,30.4)" id="img-cd2ed065-18">
          <path fill="none" d="M-27.22,0 L27.22,0 " class="primitive"/>
        </g>
        <g transform="translate(45.18,7)" id="img-cd2ed065-19">
          <path fill="none" d="M-27.22,0 L27.22,0 " class="primitive"/>
        </g>
      </g>
      <g class="guide xgridlines yfixed" stroke-dasharray="0.5,0.5" stroke-width="0.2" stroke="#D0D0E0" id="img-cd2ed065-20">
        <g transform="translate(19.96,42.11)" id="img-cd2ed065-21">
          <path fill="none" d="M0,-37.11 L0,37.11 " class="primitive"/>
        </g>
        <g transform="translate(30.05,42.11)" id="img-cd2ed065-22">
          <path fill="none" d="M0,-37.11 L0,37.11 " class="primitive"/>
        </g>
        <g transform="translate(40.14,42.11)" id="img-cd2ed065-23">
          <path fill="none" d="M0,-37.11 L0,37.11 " class="primitive"/>
        </g>
        <g transform="translate(50.22,42.11)" id="img-cd2ed065-24">
          <path fill="none" d="M0,-37.11 L0,37.11 " class="primitive"/>
        </g>
        <g transform="translate(60.31,42.11)" id="img-cd2ed065-25">
          <path fill="none" d="M0,-37.11 L0,37.11 " class="primitive"/>
        </g>
        <g transform="translate(70.4,42.11)" id="img-cd2ed065-26">
          <path fill="none" d="M0,-37.11 L0,37.11 " class="primitive"/>
        </g>
      </g>
      <g class="plotpanel" id="img-cd2ed065-27">
        <metadata>
          <boundingbox value="17.958333333333336mm 5.0mm 54.443022903976164mm 74.21333333333334mm"/>
          <unitbox value="38017.56527973431 30.85453854918344 53964.869440531395 -31.709077098366883"/>
        </metadata>
        <g shape-rendering="crispEdges" stroke-width="0.3" id="img-cd2ed065-28">
          <g stroke="#000000" stroke-opacity="0.000" class="geometry" id="img-cd2ed065-29">
            <g fill="#00BFFF" id="img-cd2ed065-30">
              <g transform="translate(28.59,74.87)" id="img-cd2ed065-31">
                <path d="M-0.19,-2.34 L0.19,-2.34 0.19,2.34 -0.19,2.34  z" class="primitive"/>
              </g>
              <g transform="translate(28.93,77.22)" id="img-cd2ed065-32">
                <path d="M-0.19,-0 L0.19,-0 0.19,0 -0.19,0  z" class="primitive"/>
              </g>
              <g transform="translate(29.26,77.22)" id="img-cd2ed065-33">
                <path d="M-0.19,-0 L0.19,-0 0.19,0 -0.19,0  z" class="primitive"/>
              </g>
              <g transform="translate(29.6,77.22)" id="img-cd2ed065-34">
                <path d="M-0.19,-0 L0.19,-0 0.19,0 -0.19,0  z" class="primitive"/>
              </g>
              <g transform="translate(29.94,77.22)" id="img-cd2ed065-35">
                <path d="M-0.19,-0 L0.19,-0 0.19,0 -0.19,0  z" class="primitive"/>
              </g>
              <g transform="translate(30.28,76.04)" id="img-cd2ed065-36">
                <path d="M-0.19,-1.17 L0.19,-1.17 0.19,1.17 -0.19,1.17  z" class="primitive"/>
              </g>
              <g transform="translate(30.61,77.22)" id="img-cd2ed065-37">
                <path d="M-0.19,-0 L0.19,-0 0.19,0 -0.19,0  z" class="primitive"/>
              </g>
              <g transform="translate(30.95,76.04)" id="img-cd2ed065-38">
                <path d="M-0.19,-1.17 L0.19,-1.17 0.19,1.17 -0.19,1.17  z" class="primitive"/>
              </g>
              <g transform="translate(31.29,73.7)" id="img-cd2ed065-39">
                <path d="M-0.19,-3.51 L0.19,-3.51 0.19,3.51 -0.19,3.51  z" class="primitive"/>
              </g>
              <g transform="translate(31.63,76.04)" id="img-cd2ed065-40">
                <path d="M-0.19,-1.17 L0.19,-1.17 0.19,1.17 -0.19,1.17  z" class="primitive"/>
              </g>
              <g transform="translate(31.96,77.22)" id="img-cd2ed065-41">
                <path d="M-0.19,-0 L0.19,-0 0.19,0 -0.19,0  z" class="primitive"/>
              </g>
              <g transform="translate(32.3,74.87)" id="img-cd2ed065-42">
                <path d="M-0.19,-2.34 L0.19,-2.34 0.19,2.34 -0.19,2.34  z" class="primitive"/>
              </g>
              <g transform="translate(32.64,71.36)" id="img-cd2ed065-43">
                <path d="M-0.19,-5.85 L0.19,-5.85 0.19,5.85 -0.19,5.85  z" class="primitive"/>
              </g>
              <g transform="translate(32.98,73.7)" id="img-cd2ed065-44">
                <path d="M-0.19,-3.51 L0.19,-3.51 0.19,3.51 -0.19,3.51  z" class="primitive"/>
              </g>
              <g transform="translate(33.31,77.22)" id="img-cd2ed065-45">
                <path d="M-0.19,-0 L0.19,-0 0.19,0 -0.19,0  z" class="primitive"/>
              </g>
              <g transform="translate(33.65,72.53)" id="img-cd2ed065-46">
                <path d="M-0.19,-4.68 L0.19,-4.68 0.19,4.68 -0.19,4.68  z" class="primitive"/>
              </g>
              <g transform="translate(33.99,71.36)" id="img-cd2ed065-47">
                <path d="M-0.19,-5.85 L0.19,-5.85 0.19,5.85 -0.19,5.85  z" class="primitive"/>
              </g>
              <g transform="translate(34.32,66.68)" id="img-cd2ed065-48">
                <path d="M-0.19,-10.53 L0.19,-10.53 0.19,10.53 -0.19,10.53  z" class="primitive"/>
              </g>
              <g transform="translate(34.66,72.53)" id="img-cd2ed065-49">
                <path d="M-0.19,-4.68 L0.19,-4.68 0.19,4.68 -0.19,4.68  z" class="primitive"/>
              </g>
              <g transform="translate(35,69.02)" id="img-cd2ed065-50">
                <path d="M-0.19,-8.19 L0.19,-8.19 0.19,8.19 -0.19,8.19  z" class="primitive"/>
              </g>
              <g transform="translate(35.34,67.85)" id="img-cd2ed065-51">
                <path d="M-0.19,-9.36 L0.19,-9.36 0.19,9.36 -0.19,9.36  z" class="primitive"/>
              </g>
              <g transform="translate(35.67,70.19)" id="img-cd2ed065-52">
                <path d="M-0.19,-7.02 L0.19,-7.02 0.19,7.02 -0.19,7.02  z" class="primitive"/>
              </g>
              <g transform="translate(36.01,64.34)" id="img-cd2ed065-53">
                <path d="M-0.19,-12.87 L0.19,-12.87 0.19,12.87 -0.19,12.87  z" class="primitive"/>
              </g>
              <g transform="translate(36.35,64.34)" id="img-cd2ed065-54">
                <path d="M-0.19,-12.87 L0.19,-12.87 0.19,12.87 -0.19,12.87  z" class="primitive"/>
              </g>
              <g transform="translate(36.69,66.68)" id="img-cd2ed065-55">
                <path d="M-0.19,-10.53 L0.19,-10.53 0.19,10.53 -0.19,10.53  z" class="primitive"/>
              </g>
              <g transform="translate(37.02,65.51)" id="img-cd2ed065-56">
                <path d="M-0.19,-11.7 L0.19,-11.7 0.19,11.7 -0.19,11.7  z" class="primitive"/>
              </g>
              <g transform="translate(37.36,60.83)" id="img-cd2ed065-57">
                <path d="M-0.19,-16.38 L0.19,-16.38 0.19,16.38 -0.19,16.38  z" class="primitive"/>
              </g>
              <g transform="translate(37.7,58.49)" id="img-cd2ed065-58">
                <path d="M-0.19,-18.72 L0.19,-18.72 0.19,18.72 -0.19,18.72  z" class="primitive"/>
              </g>
              <g transform="translate(38.04,54.98)" id="img-cd2ed065-59">
                <path d="M-0.19,-22.23 L0.19,-22.23 0.19,22.23 -0.19,22.23  z" class="primitive"/>
              </g>
              <g transform="translate(38.37,45.62)" id="img-cd2ed065-60">
                <path d="M-0.19,-31.6 L0.19,-31.6 0.19,31.6 -0.19,31.6  z" class="primitive"/>
              </g>
              <g transform="translate(38.71,65.51)" id="img-cd2ed065-61">
                <path d="M-0.19,-11.7 L0.19,-11.7 0.19,11.7 -0.19,11.7  z" class="primitive"/>
              </g>
              <g transform="translate(39.05,52.64)" id="img-cd2ed065-62">
                <path d="M-0.19,-24.57 L0.19,-24.57 0.19,24.57 -0.19,24.57  z" class="primitive"/>
              </g>
              <g transform="translate(39.39,54.98)" id="img-cd2ed065-63">
                <path d="M-0.19,-22.23 L0.19,-22.23 0.19,22.23 -0.19,22.23  z" class="primitive"/>
              </g>
              <g transform="translate(39.72,57.32)" id="img-cd2ed065-64">
                <path d="M-0.19,-19.89 L0.19,-19.89 0.19,19.89 -0.19,19.89  z" class="primitive"/>
              </g>
              <g transform="translate(40.06,51.47)" id="img-cd2ed065-65">
                <path d="M-0.19,-25.74 L0.19,-25.74 0.19,25.74 -0.19,25.74  z" class="primitive"/>
              </g>
              <g transform="translate(40.4,54.98)" id="img-cd2ed065-66">
                <path d="M-0.19,-22.23 L0.19,-22.23 0.19,22.23 -0.19,22.23  z" class="primitive"/>
              </g>
              <g transform="translate(40.74,51.47)" id="img-cd2ed065-67">
                <path d="M-0.19,-25.74 L0.19,-25.74 0.19,25.74 -0.19,25.74  z" class="primitive"/>
              </g>
              <g transform="translate(41.07,53.81)" id="img-cd2ed065-68">
                <path d="M-0.19,-23.4 L0.19,-23.4 0.19,23.4 -0.19,23.4  z" class="primitive"/>
              </g>
              <g transform="translate(41.41,47.96)" id="img-cd2ed065-69">
                <path d="M-0.19,-29.26 L0.19,-29.26 0.19,29.26 -0.19,29.26  z" class="primitive"/>
              </g>
              <g transform="translate(41.75,47.96)" id="img-cd2ed065-70">
                <path d="M-0.19,-29.26 L0.19,-29.26 0.19,29.26 -0.19,29.26  z" class="primitive"/>
              </g>
              <g transform="translate(42.08,45.62)" id="img-cd2ed065-71">
                <path d="M-0.19,-31.6 L0.19,-31.6 0.19,31.6 -0.19,31.6  z" class="primitive"/>
              </g>
              <g transform="translate(42.42,56.15)" id="img-cd2ed065-72">
                <path d="M-0.19,-21.06 L0.19,-21.06 0.19,21.06 -0.19,21.06  z" class="primitive"/>
              </g>
              <g transform="translate(42.76,63.17)" id="img-cd2ed065-73">
                <path d="M-0.19,-14.04 L0.19,-14.04 0.19,14.04 -0.19,14.04  z" class="primitive"/>
              </g>
              <g transform="translate(43.1,58.49)" id="img-cd2ed065-74">
                <path d="M-0.19,-18.72 L0.19,-18.72 0.19,18.72 -0.19,18.72  z" class="primitive"/>
              </g>
              <g transform="translate(43.43,54.98)" id="img-cd2ed065-75">
                <path d="M-0.19,-22.23 L0.19,-22.23 0.19,22.23 -0.19,22.23  z" class="primitive"/>
              </g>
              <g transform="translate(43.77,51.47)" id="img-cd2ed065-76">
                <path d="M-0.19,-25.74 L0.19,-25.74 0.19,25.74 -0.19,25.74  z" class="primitive"/>
              </g>
              <g transform="translate(44.11,46.79)" id="img-cd2ed065-77">
                <path d="M-0.19,-30.43 L0.19,-30.43 0.19,30.43 -0.19,30.43  z" class="primitive"/>
              </g>
              <g transform="translate(44.45,51.47)" id="img-cd2ed065-78">
                <path d="M-0.19,-25.74 L0.19,-25.74 0.19,25.74 -0.19,25.74  z" class="primitive"/>
              </g>
              <g transform="translate(44.78,46.79)" id="img-cd2ed065-79">
                <path d="M-0.19,-30.43 L0.19,-30.43 0.19,30.43 -0.19,30.43  z" class="primitive"/>
              </g>
              <g transform="translate(45.12,53.81)" id="img-cd2ed065-80">
                <path d="M-0.19,-23.4 L0.19,-23.4 0.19,23.4 -0.19,23.4  z" class="primitive"/>
              </g>
              <g transform="translate(45.46,53.81)" id="img-cd2ed065-81">
                <path d="M-0.19,-23.4 L0.19,-23.4 0.19,23.4 -0.19,23.4  z" class="primitive"/>
              </g>
              <g transform="translate(45.8,49.13)" id="img-cd2ed065-82">
                <path d="M-0.19,-28.09 L0.19,-28.09 0.19,28.09 -0.19,28.09  z" class="primitive"/>
              </g>
              <g transform="translate(46.13,57.32)" id="img-cd2ed065-83">
                <path d="M-0.19,-19.89 L0.19,-19.89 0.19,19.89 -0.19,19.89  z" class="primitive"/>
              </g>
              <g transform="translate(46.47,57.32)" id="img-cd2ed065-84">
                <path d="M-0.19,-19.89 L0.19,-19.89 0.19,19.89 -0.19,19.89  z" class="primitive"/>
              </g>
              <g transform="translate(46.81,56.15)" id="img-cd2ed065-85">
                <path d="M-0.19,-21.06 L0.19,-21.06 0.19,21.06 -0.19,21.06  z" class="primitive"/>
              </g>
              <g transform="translate(47.15,56.15)" id="img-cd2ed065-86">
                <path d="M-0.19,-21.06 L0.19,-21.06 0.19,21.06 -0.19,21.06  z" class="primitive"/>
              </g>
              <g transform="translate(47.48,54.98)" id="img-cd2ed065-87">
                <path d="M-0.19,-22.23 L0.19,-22.23 0.19,22.23 -0.19,22.23  z" class="primitive"/>
              </g>
              <g transform="translate(47.82,54.98)" id="img-cd2ed065-88">
                <path d="M-0.19,-22.23 L0.19,-22.23 0.19,22.23 -0.19,22.23  z" class="primitive"/>
              </g>
              <g transform="translate(48.16,51.47)" id="img-cd2ed065-89">
                <path d="M-0.19,-25.74 L0.19,-25.74 0.19,25.74 -0.19,25.74  z" class="primitive"/>
              </g>
              <g transform="translate(48.49,54.98)" id="img-cd2ed065-90">
                <path d="M-0.19,-22.23 L0.19,-22.23 0.19,22.23 -0.19,22.23  z" class="primitive"/>
              </g>
              <g transform="translate(48.83,56.15)" id="img-cd2ed065-91">
                <path d="M-0.19,-21.06 L0.19,-21.06 0.19,21.06 -0.19,21.06  z" class="primitive"/>
              </g>
              <g transform="translate(49.17,66.68)" id="img-cd2ed065-92">
                <path d="M-0.19,-10.53 L0.19,-10.53 0.19,10.53 -0.19,10.53  z" class="primitive"/>
              </g>
              <g transform="translate(49.51,60.83)" id="img-cd2ed065-93">
                <path d="M-0.19,-16.38 L0.19,-16.38 0.19,16.38 -0.19,16.38  z" class="primitive"/>
              </g>
              <g transform="translate(49.84,54.98)" id="img-cd2ed065-94">
                <path d="M-0.19,-22.23 L0.19,-22.23 0.19,22.23 -0.19,22.23  z" class="primitive"/>
              </g>
              <g transform="translate(50.18,58.49)" id="img-cd2ed065-95">
                <path d="M-0.19,-18.72 L0.19,-18.72 0.19,18.72 -0.19,18.72  z" class="primitive"/>
              </g>
              <g transform="translate(50.52,67.85)" id="img-cd2ed065-96">
                <path d="M-0.19,-9.36 L0.19,-9.36 0.19,9.36 -0.19,9.36  z" class="primitive"/>
              </g>
              <g transform="translate(50.86,63.17)" id="img-cd2ed065-97">
                <path d="M-0.19,-14.04 L0.19,-14.04 0.19,14.04 -0.19,14.04  z" class="primitive"/>
              </g>
              <g transform="translate(51.19,62)" id="img-cd2ed065-98">
                <path d="M-0.19,-15.21 L0.19,-15.21 0.19,15.21 -0.19,15.21  z" class="primitive"/>
              </g>
              <g transform="translate(51.53,69.02)" id="img-cd2ed065-99">
                <path d="M-0.19,-8.19 L0.19,-8.19 0.19,8.19 -0.19,8.19  z" class="primitive"/>
              </g>
              <g transform="translate(51.87,65.51)" id="img-cd2ed065-100">
                <path d="M-0.19,-11.7 L0.19,-11.7 0.19,11.7 -0.19,11.7  z" class="primitive"/>
              </g>
              <g transform="translate(52.21,64.34)" id="img-cd2ed065-101">
                <path d="M-0.19,-12.87 L0.19,-12.87 0.19,12.87 -0.19,12.87  z" class="primitive"/>
              </g>
              <g transform="translate(52.54,60.83)" id="img-cd2ed065-102">
                <path d="M-0.19,-16.38 L0.19,-16.38 0.19,16.38 -0.19,16.38  z" class="primitive"/>
              </g>
              <g transform="translate(52.88,69.02)" id="img-cd2ed065-103">
                <path d="M-0.19,-8.19 L0.19,-8.19 0.19,8.19 -0.19,8.19  z" class="primitive"/>
              </g>
              <g transform="translate(53.22,67.85)" id="img-cd2ed065-104">
                <path d="M-0.19,-9.36 L0.19,-9.36 0.19,9.36 -0.19,9.36  z" class="primitive"/>
              </g>
              <g transform="translate(53.56,73.7)" id="img-cd2ed065-105">
                <path d="M-0.19,-3.51 L0.19,-3.51 0.19,3.51 -0.19,3.51  z" class="primitive"/>
              </g>
              <g transform="translate(53.89,76.04)" id="img-cd2ed065-106">
                <path d="M-0.19,-1.17 L0.19,-1.17 0.19,1.17 -0.19,1.17  z" class="primitive"/>
              </g>
              <g transform="translate(54.23,70.19)" id="img-cd2ed065-107">
                <path d="M-0.19,-7.02 L0.19,-7.02 0.19,7.02 -0.19,7.02  z" class="primitive"/>
              </g>
              <g transform="translate(54.57,69.02)" id="img-cd2ed065-108">
                <path d="M-0.19,-8.19 L0.19,-8.19 0.19,8.19 -0.19,8.19  z" class="primitive"/>
              </g>
              <g transform="translate(54.91,71.36)" id="img-cd2ed065-109">
                <path d="M-0.19,-5.85 L0.19,-5.85 0.19,5.85 -0.19,5.85  z" class="primitive"/>
              </g>
              <g transform="translate(55.24,72.53)" id="img-cd2ed065-110">
                <path d="M-0.19,-4.68 L0.19,-4.68 0.19,4.68 -0.19,4.68  z" class="primitive"/>
              </g>
              <g transform="translate(55.58,73.7)" id="img-cd2ed065-111">
                <path d="M-0.19,-3.51 L0.19,-3.51 0.19,3.51 -0.19,3.51  z" class="primitive"/>
              </g>
              <g transform="translate(55.92,72.53)" id="img-cd2ed065-112">
                <path d="M-0.19,-4.68 L0.19,-4.68 0.19,4.68 -0.19,4.68  z" class="primitive"/>
              </g>
              <g transform="translate(56.25,73.7)" id="img-cd2ed065-113">
                <path d="M-0.19,-3.51 L0.19,-3.51 0.19,3.51 -0.19,3.51  z" class="primitive"/>
              </g>
              <g transform="translate(56.59,74.87)" id="img-cd2ed065-114">
                <path d="M-0.19,-2.34 L0.19,-2.34 0.19,2.34 -0.19,2.34  z" class="primitive"/>
              </g>
              <g transform="translate(56.93,76.04)" id="img-cd2ed065-115">
                <path d="M-0.19,-1.17 L0.19,-1.17 0.19,1.17 -0.19,1.17  z" class="primitive"/>
              </g>
              <g transform="translate(57.27,74.87)" id="img-cd2ed065-116">
                <path d="M-0.19,-2.34 L0.19,-2.34 0.19,2.34 -0.19,2.34  z" class="primitive"/>
              </g>
              <g transform="translate(57.6,74.87)" id="img-cd2ed065-117">
                <path d="M-0.19,-2.34 L0.19,-2.34 0.19,2.34 -0.19,2.34  z" class="primitive"/>
              </g>
              <g transform="translate(57.94,74.87)" id="img-cd2ed065-118">
                <path d="M-0.19,-2.34 L0.19,-2.34 0.19,2.34 -0.19,2.34  z" class="primitive"/>
              </g>
              <g transform="translate(58.28,77.22)" id="img-cd2ed065-119">
                <path d="M-0.19,-0 L0.19,-0 0.19,0 -0.19,0  z" class="primitive"/>
              </g>
              <g transform="translate(58.62,74.87)" id="img-cd2ed065-120">
                <path d="M-0.19,-2.34 L0.19,-2.34 0.19,2.34 -0.19,2.34  z" class="primitive"/>
              </g>
              <g transform="translate(58.95,73.7)" id="img-cd2ed065-121">
                <path d="M-0.19,-3.51 L0.19,-3.51 0.19,3.51 -0.19,3.51  z" class="primitive"/>
              </g>
              <g transform="translate(59.29,77.22)" id="img-cd2ed065-122">
                <path d="M-0.19,-0 L0.19,-0 0.19,0 -0.19,0  z" class="primitive"/>
              </g>
              <g transform="translate(59.63,77.22)" id="img-cd2ed065-123">
                <path d="M-0.19,-0 L0.19,-0 0.19,0 -0.19,0  z" class="primitive"/>
              </g>
              <g transform="translate(59.97,76.04)" id="img-cd2ed065-124">
                <path d="M-0.19,-1.17 L0.19,-1.17 0.19,1.17 -0.19,1.17  z" class="primitive"/>
              </g>
              <g transform="translate(60.3,77.22)" id="img-cd2ed065-125">
                <path d="M-0.19,-0 L0.19,-0 0.19,0 -0.19,0  z" class="primitive"/>
              </g>
              <g transform="translate(60.64,76.04)" id="img-cd2ed065-126">
                <path d="M-0.19,-1.17 L0.19,-1.17 0.19,1.17 -0.19,1.17  z" class="primitive"/>
              </g>
              <g transform="translate(60.98,77.22)" id="img-cd2ed065-127">
                <path d="M-0.19,-0 L0.19,-0 0.19,0 -0.19,0  z" class="primitive"/>
              </g>
              <g transform="translate(61.32,74.87)" id="img-cd2ed065-128">
                <path d="M-0.19,-2.34 L0.19,-2.34 0.19,2.34 -0.19,2.34  z" class="primitive"/>
              </g>
              <g transform="translate(61.65,77.22)" id="img-cd2ed065-129">
                <path d="M-0.19,-0 L0.19,-0 0.19,0 -0.19,0  z" class="primitive"/>
              </g>
              <g transform="translate(61.99,76.04)" id="img-cd2ed065-130">
                <path d="M-0.19,-1.17 L0.19,-1.17 0.19,1.17 -0.19,1.17  z" class="primitive"/>
              </g>
            </g>
          </g>
        </g>
      </g>
    </g>
  </g>
  <g class="guide ylabels" font-size="2.82" font-family="'PT Sans Caption','Helvetica Neue','Helvetica',sans-serif" fill="#6C606B" id="img-cd2ed065-131">
    <g transform="translate(16.96,77.21)" id="img-cd2ed065-132">
      <g class="primitive">
        <text text-anchor="end" dy="0.35em">0</text>
      </g>
    </g>
    <g transform="translate(16.96,53.81)" id="img-cd2ed065-133">
      <g class="primitive">
        <text text-anchor="end" dy="0.35em">10</text>
      </g>
    </g>
    <g transform="translate(16.96,30.4)" id="img-cd2ed065-134">
      <g class="primitive">
        <text text-anchor="end" dy="0.35em">20</text>
      </g>
    </g>
    <g transform="translate(16.96,7)" id="img-cd2ed065-135">
      <g class="primitive">
        <text text-anchor="end" dy="0.35em">30</text>
      </g>
    </g>
  </g>
  <g font-size="3.88" font-family="'PT Sans','Helvetica Neue','Helvetica',sans-serif" fill="#564A55" stroke="#000000" stroke-opacity="0.000" id="img-cd2ed065-136">
    <g transform="translate(8.81,40.11)" id="img-cd2ed065-137">
      <g class="primitive">
        <text text-anchor="middle" dy="0.35em" transform="rotate(-90,0, 2)">frequency</text>
      </g>
    </g>
  </g>
</g>
<defs>
  <clipPath id="img-cd2ed065-11">
    <path d="M17.96,5 L72.4,5 72.4,79.21 17.96,79.21 " />
  </clipPath>
</defs>
</svg>
