<?xml version="1.0" encoding="UTF-8"?>
<svg xmlns="http://www.w3.org/2000/svg"
     xmlns:xlink="http://www.w3.org/1999/xlink"
     xmlns:gadfly="http://www.gadflyjl.org/ns"
     version="1.2"
     width="141.42mm" height="100mm" viewBox="0 0 141.42 100"
     stroke="none"
     fill="#000000"
     stroke-width="0.3"
     font-size="3.88"
>
<defs>
  <marker id="arrow" markerWidth="15" markerHeight="7" refX="5" refY="3.5" orient="auto" markerUnits="strokeWidth">
    <path d="M0,0 L15,3.5 L0,7 z" stroke="context-stroke" fill="context-stroke"/>
  </marker>
</defs>
<g class="plotroot xscalable yscalable" id="img-091f2137-1">
  <g class="guide xlabels" font-size="2.82" font-family="'PT Sans Caption','Helvetica Neue','Helvetica',sans-serif" fill="#6C606B" id="img-091f2137-2">
    <g transform="translate(19.96,91.33)">
      <g class="primitive">
        <text text-anchor="middle" dy="0.6em">0</text>
      </g>
    </g>
    <g transform="translate(32.91,91.33)">
      <g class="primitive">
        <text text-anchor="middle" dy="0.6em">1×10³</text>
      </g>
    </g>
    <g transform="translate(45.87,91.33)">
      <g class="primitive">
        <text text-anchor="middle" dy="0.6em">2×10³</text>
      </g>
    </g>
    <g transform="translate(58.83,91.33)">
      <g class="primitive">
        <text text-anchor="middle" dy="0.6em">3×10³</text>
      </g>
    </g>
    <g transform="translate(71.78,91.33)">
      <g class="primitive">
        <text text-anchor="middle" dy="0.6em">4×10³</text>
      </g>
    </g>
  </g>
  <g class="guide colorkey" id="img-091f2137-3">
    <g class="color_coding_noncoding_noncoding_noncoding_4-path" id="img-091f2137-4">
      <g fill="#4C404B" font-size="2.82" font-family="'PT Sans','Helvetica Neue','Helvetica',sans-serif" id="img-091f2137-5">
        <g transform="translate(77.59,49.48)" id="img-091f2137-6">
          <g class="primitive">
            <text dy="0.35em">coding_noncoding_noncoding_noncoding_4-path</text>
          </g>
        </g>
      </g>
      <g fill-opacity="1" fill="#00BFFF" stroke="#FFFFFF" id="img-091f2137-7">
        <g transform="translate(75.69,49.48)" id="img-091f2137-8">
          <path d="M-0.91,-0.91 L 0.91 -0.91 0.91 0.91 -0.91 0.91 z" class="primitive"/>
        </g>
      </g>
    </g>
    <g fill="#362A35" font-size="3.88" font-family="'PT Sans','Helvetica Neue','Helvetica',sans-serif" stroke="#000000" stroke-opacity="0.000" id="img-091f2137-9">
      <g transform="translate(74.78,45.66)" id="img-091f2137-10">
        <g class="primitive">
          <text dy="-0em">graphlet</text>
        </g>
      </g>
    </g>
  </g>
  <g clip-path="url(#img-091f2137-11)">
    <g id="img-091f2137-12">
      <g pointer-events="visible" stroke-width="0.3" fill="#000000" fill-opacity="0.000" stroke="#000000" stroke-opacity="0.000" class="guide background" id="img-091f2137-13">
        <g transform="translate(45.87,47.66)" id="img-091f2137-14">
          <path d="M-27.91,-42.66 L 27.91 -42.66 27.91 42.66 -27.91 42.66 z" class="primitive"/>
        </g>
      </g>
      <g class="guide ygridlines xfixed" stroke-dasharray="0.5,0.5" stroke-width="0.2" stroke="#D0D0E0" id="img-091f2137-15">
        <g transform="translate(45.87,88.33)" id="img-091f2137-16">
          <path fill="none" d="M-27.91,0 L 27.91 0" class="primitive"/>
        </g>
        <g transform="translate(45.87,72.06)" id="img-091f2137-17">
          <path fill="none" d="M-27.91,0 L 27.91 0" class="primitive"/>
        </g>
        <g transform="translate(45.87,55.8)" id="img-091f2137-18">
          <path fill="none" d="M-27.91,0 L 27.91 0" class="primitive"/>
        </g>
        <g transform="translate(45.87,39.53)" id="img-091f2137-19">
          <path fill="none" d="M-27.91,0 L 27.91 0" class="primitive"/>
        </g>
        <g transform="translate(45.87,23.27)" id="img-091f2137-20">
          <path fill="none" d="M-27.91,0 L 27.91 0" class="primitive"/>
        </g>
        <g transform="translate(45.87,7)" id="img-091f2137-21">
          <path fill="none" d="M-27.91,0 L 27.91 0" class="primitive"/>
        </g>
      </g>
      <g class="guide xgridlines yfixed" stroke-dasharray="0.5,0.5" stroke-width="0.2" stroke="#D0D0E0" id="img-091f2137-22">
        <g transform="translate(19.96,47.66)" id="img-091f2137-23">
          <path fill="none" d="M0,-42.66 L 0 42.66" class="primitive"/>
        </g>
        <g transform="translate(32.91,47.66)" id="img-091f2137-24">
          <path fill="none" d="M0,-42.66 L 0 42.66" class="primitive"/>
        </g>
        <g transform="translate(45.87,47.66)" id="img-091f2137-25">
          <path fill="none" d="M0,-42.66 L 0 42.66" class="primitive"/>
        </g>
        <g transform="translate(58.83,47.66)" id="img-091f2137-26">
          <path fill="none" d="M0,-42.66 L 0 42.66" class="primitive"/>
        </g>
        <g transform="translate(71.78,47.66)" id="img-091f2137-27">
          <path fill="none" d="M0,-42.66 L 0 42.66" class="primitive"/>
        </g>
      </g>
      <g class="plotpanel" id="img-091f2137-28">
        <metadata>
          <boundingbox value="17.958333333333336mm 5.0mm 55.82302290397616mm 85.32666666666667mm"/>
          <unitbox value="-154.3715428338356 51.22960898434298 4308.743085667671 -52.459217968685955"/>
        </metadata>
        <g shape-rendering="crispEdges" stroke-width="0.3" id="img-091f2137-29">
          <g stroke="#000000" stroke-opacity="0.000" class="geometry" id="img-091f2137-30">
            <g fill="#00BFFF" id="img-091f2137-31">
              <g transform="translate(20.22,60.68)" id="img-091f2137-32">
                <path d="M-0.26,-27.65 L 0.26 -27.65 0.26 27.65 -0.26 27.65 z" class="primitive"/>
              </g>
              <g transform="translate(20.69,58.24)" id="img-091f2137-33">
                <path d="M-0.26,-30.09 L 0.26 -30.09 0.26 30.09 -0.26 30.09 z" class="primitive"/>
              </g>
              <g transform="translate(21.15,59.86)" id="img-091f2137-34">
                <path d="M-0.26,-28.46 L 0.26 -28.46 0.26 28.46 -0.26 28.46 z" class="primitive"/>
              </g>
              <g transform="translate(21.62,52.54)" id="img-091f2137-35">
                <path d="M-0.26,-35.78 L 0.26 -35.78 0.26 35.78 -0.26 35.78 z" class="primitive"/>
              </g>
              <g transform="translate(22.09,54.98)" id="img-091f2137-36">
                <path d="M-0.26,-33.34 L 0.26 -33.34 0.26 33.34 -0.26 33.34 z" class="primitive"/>
              </g>
              <g transform="translate(22.56,54.17)" id="img-091f2137-37">
                <path d="M-0.26,-34.16 L 0.26 -34.16 0.26 34.16 -0.26 34.16 z" class="primitive"/>
              </g>
              <g transform="translate(23.02,54.98)" id="img-091f2137-38">
                <path d="M-0.26,-33.34 L 0.26 -33.34 0.26 33.34 -0.26 33.34 z" class="primitive"/>
              </g>
              <g transform="translate(23.49,53.36)" id="img-091f2137-39">
                <path d="M-0.26,-34.97 L 0.26 -34.97 0.26 34.97 -0.26 34.97 z" class="primitive"/>
              </g>
              <g transform="translate(23.96,59.05)" id="img-091f2137-40">
                <path d="M-0.26,-29.28 L 0.26 -29.28 0.26 29.28 -0.26 29.28 z" class="primitive"/>
              </g>
              <g transform="translate(24.43,60.68)" id="img-091f2137-41">
                <path d="M-0.26,-27.65 L 0.26 -27.65 0.26 27.65 -0.26 27.65 z" class="primitive"/>
              </g>
              <g transform="translate(24.9,51.73)" id="img-091f2137-42">
                <path d="M-0.26,-36.6 L 0.26 -36.6 0.26 36.6 -0.26 36.6 z" class="primitive"/>
              </g>
              <g transform="translate(25.36,64.74)" id="img-091f2137-43">
                <path d="M-0.26,-23.58 L 0.26 -23.58 0.26 23.58 -0.26 23.58 z" class="primitive"/>
              </g>
              <g transform="translate(25.83,59.05)" id="img-091f2137-44">
                <path d="M-0.26,-29.28 L 0.26 -29.28 0.26 29.28 -0.26 29.28 z" class="primitive"/>
              </g>
              <g transform="translate(26.3,51.73)" id="img-091f2137-45">
                <path d="M-0.26,-36.6 L 0.26 -36.6 0.26 36.6 -0.26 36.6 z" class="primitive"/>
              </g>
              <g transform="translate(26.77,60.68)" id="img-091f2137-46">
                <path d="M-0.26,-27.65 L 0.26 -27.65 0.26 27.65 -0.26 27.65 z" class="primitive"/>
              </g>
              <g transform="translate(27.23,60.68)" id="img-091f2137-47">
                <path d="M-0.26,-27.65 L 0.26 -27.65 0.26 27.65 -0.26 27.65 z" class="primitive"/>
              </g>
              <g transform="translate(27.7,72.06)" id="img-091f2137-48">
                <path d="M-0.26,-16.27 L 0.26 -16.27 0.26 16.27 -0.26 16.27 z" class="primitive"/>
              </g>
              <g transform="translate(28.17,65.56)" id="img-091f2137-49">
                <path d="M-0.26,-22.77 L 0.26 -22.77 0.26 22.77 -0.26 22.77 z" class="primitive"/>
              </g>
              <g transform="translate(28.64,76.13)" id="img-091f2137-50">
                <path d="M-0.26,-12.2 L 0.26 -12.2 0.26 12.2 -0.26 12.2 z" class="primitive"/>
              </g>
              <g transform="translate(29.1,77.75)" id="img-091f2137-51">
                <path d="M-0.26,-10.57 L 0.26 -10.57 0.26 10.57 -0.26 10.57 z" class="primitive"/>
              </g>
              <g transform="translate(29.57,68.81)" id="img-091f2137-52">
                <path d="M-0.26,-19.52 L 0.26 -19.52 0.26 19.52 -0.26 19.52 z" class="primitive"/>
              </g>
              <g transform="translate(30.04,72.87)" id="img-091f2137-53">
                <path d="M-0.26,-15.45 L 0.26 -15.45 0.26 15.45 -0.26 15.45 z" class="primitive"/>
              </g>
              <g transform="translate(30.51,76.13)" id="img-091f2137-54">
                <path d="M-0.26,-12.2 L 0.26 -12.2 0.26 12.2 -0.26 12.2 z" class="primitive"/>
              </g>
              <g transform="translate(30.98,74.5)" id="img-091f2137-55">
                <path d="M-0.26,-13.83 L 0.26 -13.83 0.26 13.83 -0.26 13.83 z" class="primitive"/>
              </g>
              <g transform="translate(31.44,78.57)" id="img-091f2137-56">
                <path d="M-0.26,-9.76 L 0.26 -9.76 0.26 9.76 -0.26 9.76 z" class="primitive"/>
              </g>
              <g transform="translate(31.91,76.94)" id="img-091f2137-57">
                <path d="M-0.26,-11.39 L 0.26 -11.39 0.26 11.39 -0.26 11.39 z" class="primitive"/>
              </g>
              <g transform="translate(32.38,77.75)" id="img-091f2137-58">
                <path d="M-0.26,-10.57 L 0.26 -10.57 0.26 10.57 -0.26 10.57 z" class="primitive"/>
              </g>
              <g transform="translate(32.85,76.13)" id="img-091f2137-59">
                <path d="M-0.26,-12.2 L 0.26 -12.2 0.26 12.2 -0.26 12.2 z" class="primitive"/>
              </g>
              <g transform="translate(33.31,80.19)" id="img-091f2137-60">
                <path d="M-0.26,-8.13 L 0.26 -8.13 0.26 8.13 -0.26 8.13 z" class="primitive"/>
              </g>
              <g transform="translate(33.78,76.94)" id="img-091f2137-61">
                <path d="M-0.26,-11.39 L 0.26 -11.39 0.26 11.39 -0.26 11.39 z" class="primitive"/>
              </g>
              <g transform="translate(34.25,82.63)" id="img-091f2137-62">
                <path d="M-0.26,-5.69 L 0.26 -5.69 0.26 5.69 -0.26 5.69 z" class="primitive"/>
              </g>
              <g transform="translate(34.72,80.19)" id="img-091f2137-63">
                <path d="M-0.26,-8.13 L 0.26 -8.13 0.26 8.13 -0.26 8.13 z" class="primitive"/>
              </g>
              <g transform="translate(35.18,73.69)" id="img-091f2137-64">
                <path d="M-0.26,-14.64 L 0.26 -14.64 0.26 14.64 -0.26 14.64 z" class="primitive"/>
              </g>
              <g transform="translate(35.65,84.26)" id="img-091f2137-65">
                <path d="M-0.26,-4.07 L 0.26 -4.07 0.26 4.07 -0.26 4.07 z" class="primitive"/>
              </g>
              <g transform="translate(36.12,82.63)" id="img-091f2137-66">
                <path d="M-0.26,-5.69 L 0.26 -5.69 0.26 5.69 -0.26 5.69 z" class="primitive"/>
              </g>
              <g transform="translate(36.59,79.38)" id="img-091f2137-67">
                <path d="M-0.26,-8.95 L 0.26 -8.95 0.26 8.95 -0.26 8.95 z" class="primitive"/>
              </g>
              <g transform="translate(37.06,80.19)" id="img-091f2137-68">
                <path d="M-0.26,-8.13 L 0.26 -8.13 0.26 8.13 -0.26 8.13 z" class="primitive"/>
              </g>
              <g transform="translate(37.52,85.89)" id="img-091f2137-69">
                <path d="M-0.26,-2.44 L 0.26 -2.44 0.26 2.44 -0.26 2.44 z" class="primitive"/>
              </g>
              <g transform="translate(37.99,80.19)" id="img-091f2137-70">
                <path d="M-0.26,-8.13 L 0.26 -8.13 0.26 8.13 -0.26 8.13 z" class="primitive"/>
              </g>
              <g transform="translate(38.46,87.51)" id="img-091f2137-71">
                <path d="M-0.26,-0.81 L 0.26 -0.81 0.26 0.81 -0.26 0.81 z" class="primitive"/>
              </g>
              <g transform="translate(38.93,84.26)" id="img-091f2137-72">
                <path d="M-0.26,-4.07 L 0.26 -4.07 0.26 4.07 -0.26 4.07 z" class="primitive"/>
              </g>
              <g transform="translate(39.39,85.07)" id="img-091f2137-73">
                <path d="M-0.26,-3.25 L 0.26 -3.25 0.26 3.25 -0.26 3.25 z" class="primitive"/>
              </g>
              <g transform="translate(39.86,84.26)" id="img-091f2137-74">
                <path d="M-0.26,-4.07 L 0.26 -4.07 0.26 4.07 -0.26 4.07 z" class="primitive"/>
              </g>
              <g transform="translate(40.33,83.45)" id="img-091f2137-75">
                <path d="M-0.26,-4.88 L 0.26 -4.88 0.26 4.88 -0.26 4.88 z" class="primitive"/>
              </g>
              <g transform="translate(40.8,82.63)" id="img-091f2137-76">
                <path d="M-0.26,-5.69 L 0.26 -5.69 0.26 5.69 -0.26 5.69 z" class="primitive"/>
              </g>
              <g transform="translate(41.26,81.01)" id="img-091f2137-77">
                <path d="M-0.26,-7.32 L 0.26 -7.32 0.26 7.32 -0.26 7.32 z" class="primitive"/>
              </g>
              <g transform="translate(41.73,87.51)" id="img-091f2137-78">
                <path d="M-0.26,-0.81 L 0.26 -0.81 0.26 0.81 -0.26 0.81 z" class="primitive"/>
              </g>
              <g transform="translate(42.2,86.7)" id="img-091f2137-79">
                <path d="M-0.26,-1.63 L 0.26 -1.63 0.26 1.63 -0.26 1.63 z" class="primitive"/>
              </g>
              <g transform="translate(42.67,86.7)" id="img-091f2137-80">
                <path d="M-0.26,-1.63 L 0.26 -1.63 0.26 1.63 -0.26 1.63 z" class="primitive"/>
              </g>
              <g transform="translate(43.14,85.07)" id="img-091f2137-81">
                <path d="M-0.26,-3.25 L 0.26 -3.25 0.26 3.25 -0.26 3.25 z" class="primitive"/>
              </g>
              <g transform="translate(43.6,86.7)" id="img-091f2137-82">
                <path d="M-0.26,-1.63 L 0.26 -1.63 0.26 1.63 -0.26 1.63 z" class="primitive"/>
              </g>
              <g transform="translate(44.07,85.89)" id="img-091f2137-83">
                <path d="M-0.26,-2.44 L 0.26 -2.44 0.26 2.44 -0.26 2.44 z" class="primitive"/>
              </g>
              <g transform="translate(44.54,86.7)" id="img-091f2137-84">
                <path d="M-0.26,-1.63 L 0.26 -1.63 0.26 1.63 -0.26 1.63 z" class="primitive"/>
              </g>
              <g transform="translate(45.01,86.7)" id="img-091f2137-85">
                <path d="M-0.26,-1.63 L 0.26 -1.63 0.26 1.63 -0.26 1.63 z" class="primitive"/>
              </g>
              <g transform="translate(45.47,87.51)" id="img-091f2137-86">
                <path d="M-0.26,-0.81 L 0.26 -0.81 0.26 0.81 -0.26 0.81 z" class="primitive"/>
              </g>
              <g transform="translate(45.94,87.51)" id="img-091f2137-87">
                <path d="M-0.26,-0.81 L 0.26 -0.81 0.26 0.81 -0.26 0.81 z" class="primitive"/>
              </g>
              <g transform="translate(46.41,86.7)" id="img-091f2137-88">
                <path d="M-0.26,-1.63 L 0.26 -1.63 0.26 1.63 -0.26 1.63 z" class="primitive"/>
              </g>
              <g transform="translate(46.88,88.33)" id="img-091f2137-89">
                <path d="M-0.26,-0 L 0.26 -0 0.26 0 -0.26 0 z" class="primitive"/>
              </g>
              <g transform="translate(47.34,87.51)" id="img-091f2137-90">
                <path d="M-0.26,-0.81 L 0.26 -0.81 0.26 0.81 -0.26 0.81 z" class="primitive"/>
              </g>
              <g transform="translate(47.81,87.51)" id="img-091f2137-91">
                <path d="M-0.26,-0.81 L 0.26 -0.81 0.26 0.81 -0.26 0.81 z" class="primitive"/>
              </g>
              <g transform="translate(48.28,87.51)" id="img-091f2137-92">
                <path d="M-0.26,-0.81 L 0.26 -0.81 0.26 0.81 -0.26 0.81 z" class="primitive"/>
              </g>
              <g transform="translate(48.75,88.33)" id="img-091f2137-93">
                <path d="M-0.26,-0 L 0.26 -0 0.26 0 -0.26 0 z" class="primitive"/>
              </g>
              <g transform="translate(49.22,86.7)" id="img-091f2137-94">
                <path d="M-0.26,-1.63 L 0.26 -1.63 0.26 1.63 -0.26 1.63 z" class="primitive"/>
              </g>
              <g transform="translate(49.68,88.33)" id="img-091f2137-95">
                <path d="M-0.26,-0 L 0.26 -0 0.26 0 -0.26 0 z" class="primitive"/>
              </g>
              <g transform="translate(50.15,87.51)" id="img-091f2137-96">
                <path d="M-0.26,-0.81 L 0.26 -0.81 0.26 0.81 -0.26 0.81 z" class="primitive"/>
              </g>
              <g transform="translate(50.62,88.33)" id="img-091f2137-97">
                <path d="M-0.26,-0 L 0.26 -0 0.26 0 -0.26 0 z" class="primitive"/>
              </g>
              <g transform="translate(51.09,88.33)" id="img-091f2137-98">
                <path d="M-0.26,-0 L 0.26 -0 0.26 0 -0.26 0 z" class="primitive"/>
              </g>
              <g transform="translate(51.55,87.51)" id="img-091f2137-99">
                <path d="M-0.26,-0.81 L 0.26 -0.81 0.26 0.81 -0.26 0.81 z" class="primitive"/>
              </g>
              <g transform="translate(52.02,86.7)" id="img-091f2137-100">
                <path d="M-0.26,-1.63 L 0.26 -1.63 0.26 1.63 -0.26 1.63 z" class="primitive"/>
              </g>
              <g transform="translate(52.49,88.33)" id="img-091f2137-101">
                <path d="M-0.26,-0 L 0.26 -0 0.26 0 -0.26 0 z" class="primitive"/>
              </g>
              <g transform="translate(52.96,88.33)" id="img-091f2137-102">
                <path d="M-0.26,-0 L 0.26 -0 0.26 0 -0.26 0 z" class="primitive"/>
              </g>
              <g transform="translate(53.42,88.33)" id="img-091f2137-103">
                <path d="M-0.26,-0 L 0.26 -0 0.26 0 -0.26 0 z" class="primitive"/>
              </g>
              <g transform="translate(53.89,88.33)" id="img-091f2137-104">
                <path d="M-0.26,-0 L 0.26 -0 0.26 0 -0.26 0 z" class="primitive"/>
              </g>
              <g transform="translate(54.36,88.33)" id="img-091f2137-105">
                <path d="M-0.26,-0 L 0.26 -0 0.26 0 -0.26 0 z" class="primitive"/>
              </g>
              <g transform="translate(54.83,87.51)" id="img-091f2137-106">
                <path d="M-0.26,-0.81 L 0.26 -0.81 0.26 0.81 -0.26 0.81 z" class="primitive"/>
              </g>
              <g transform="translate(55.3,88.33)" id="img-091f2137-107">
                <path d="M-0.26,-0 L 0.26 -0 0.26 0 -0.26 0 z" class="primitive"/>
              </g>
              <g transform="translate(55.76,88.33)" id="img-091f2137-108">
                <path d="M-0.26,-0 L 0.26 -0 0.26 0 -0.26 0 z" class="primitive"/>
              </g>
              <g transform="translate(56.23,88.33)" id="img-091f2137-109">
                <path d="M-0.26,-0 L 0.26 -0 0.26 0 -0.26 0 z" class="primitive"/>
              </g>
              <g transform="translate(56.7,88.33)" id="img-091f2137-110">
                <path d="M-0.26,-0 L 0.26 -0 0.26 0 -0.26 0 z" class="primitive"/>
              </g>
              <g transform="translate(57.17,87.51)" id="img-091f2137-111">
                <path d="M-0.26,-0.81 L 0.26 -0.81 0.26 0.81 -0.26 0.81 z" class="primitive"/>
              </g>
              <g transform="translate(57.63,87.51)" id="img-091f2137-112">
                <path d="M-0.26,-0.81 L 0.26 -0.81 0.26 0.81 -0.26 0.81 z" class="primitive"/>
              </g>
              <g transform="translate(58.1,88.33)" id="img-091f2137-113">
                <path d="M-0.26,-0 L 0.26 -0 0.26 0 -0.26 0 z" class="primitive"/>
              </g>
              <g transform="translate(58.57,87.51)" id="img-091f2137-114">
                <path d="M-0.26,-0.81 L 0.26 -0.81 0.26 0.81 -0.26 0.81 z" class="primitive"/>
              </g>
              <g transform="translate(59.04,88.33)" id="img-091f2137-115">
                <path d="M-0.26,-0 L 0.26 -0 0.26 0 -0.26 0 z" class="primitive"/>
              </g>
              <g transform="translate(59.51,88.33)" id="img-091f2137-116">
                <path d="M-0.26,-0 L 0.26 -0 0.26 0 -0.26 0 z" class="primitive"/>
              </g>
              <g transform="translate(59.97,88.33)" id="img-091f2137-117">
                <path d="M-0.26,-0 L 0.26 -0 0.26 0 -0.26 0 z" class="primitive"/>
              </g>
              <g transform="translate(60.44,87.51)" id="img-091f2137-118">
                <path d="M-0.26,-0.81 L 0.26 -0.81 0.26 0.81 -0.26 0.81 z" class="primitive"/>
              </g>
              <g transform="translate(60.91,88.33)" id="img-091f2137-119">
                <path d="M-0.26,-0 L 0.26 -0 0.26 0 -0.26 0 z" class="primitive"/>
              </g>
              <g transform="translate(61.38,88.33)" id="img-091f2137-120">
                <path d="M-0.26,-0 L 0.26 -0 0.26 0 -0.26 0 z" class="primitive"/>
              </g>
              <g transform="translate(61.84,88.33)" id="img-091f2137-121">
                <path d="M-0.26,-0 L 0.26 -0 0.26 0 -0.26 0 z" class="primitive"/>
              </g>
              <g transform="translate(62.31,88.33)" id="img-091f2137-122">
                <path d="M-0.26,-0 L 0.26 -0 0.26 0 -0.26 0 z" class="primitive"/>
              </g>
              <g transform="translate(62.78,88.33)" id="img-091f2137-123">
                <path d="M-0.26,-0 L 0.26 -0 0.26 0 -0.26 0 z" class="primitive"/>
              </g>
              <g transform="translate(63.25,88.33)" id="img-091f2137-124">
                <path d="M-0.26,-0 L 0.26 -0 0.26 0 -0.26 0 z" class="primitive"/>
              </g>
              <g transform="translate(63.71,88.33)" id="img-091f2137-125">
                <path d="M-0.26,-0 L 0.26 -0 0.26 0 -0.26 0 z" class="primitive"/>
              </g>
              <g transform="translate(64.18,88.33)" id="img-091f2137-126">
                <path d="M-0.26,-0 L 0.26 -0 0.26 0 -0.26 0 z" class="primitive"/>
              </g>
              <g transform="translate(64.65,88.33)" id="img-091f2137-127">
                <path d="M-0.26,-0 L 0.26 -0 0.26 0 -0.26 0 z" class="primitive"/>
              </g>
              <g transform="translate(65.12,88.33)" id="img-091f2137-128">
                <path d="M-0.26,-0 L 0.26 -0 0.26 0 -0.26 0 z" class="primitive"/>
              </g>
              <g transform="translate(65.59,88.33)" id="img-091f2137-129">
                <path d="M-0.26,-0 L 0.26 -0 0.26 0 -0.26 0 z" class="primitive"/>
              </g>
              <g transform="translate(66.05,88.33)" id="img-091f2137-130">
                <path d="M-0.26,-0 L 0.26 -0 0.26 0 -0.26 0 z" class="primitive"/>
              </g>
              <g transform="translate(66.52,87.51)" id="img-091f2137-131">
                <path d="M-0.26,-0.81 L 0.26 -0.81 0.26 0.81 -0.26 0.81 z" class="primitive"/>
              </g>
            </g>
          </g>
        </g>
      </g>
    </g>
  </g>
  <g class="guide ylabels" font-size="2.82" font-family="'PT Sans Caption','Helvetica Neue','Helvetica',sans-serif" fill="#6C606B" id="img-091f2137-132">
    <g transform="translate(16.96,88.33)" id="img-091f2137-133">
      <g class="primitive">
        <text text-anchor="end" dy="0.35em">0</text>
      </g>
    </g>
    <g transform="translate(16.96,72.06)" id="img-091f2137-134">
      <g class="primitive">
        <text text-anchor="end" dy="0.35em">10</text>
      </g>
    </g>
    <g transform="translate(16.96,55.8)" id="img-091f2137-135">
      <g class="primitive">
        <text text-anchor="end" dy="0.35em">20</text>
      </g>
    </g>
    <g transform="translate(16.96,39.53)" id="img-091f2137-136">
      <g class="primitive">
        <text text-anchor="end" dy="0.35em">30</text>
      </g>
    </g>
    <g transform="translate(16.96,23.27)" id="img-091f2137-137">
      <g class="primitive">
        <text text-anchor="end" dy="0.35em">40</text>
      </g>
    </g>
    <g transform="translate(16.96,7)" id="img-091f2137-138">
      <g class="primitive">
        <text text-anchor="end" dy="0.35em">50</text>
      </g>
    </g>
  </g>
  <g font-size="3.88" font-family="'PT Sans','Helvetica Neue','Helvetica',sans-serif" fill="#564A55" stroke="#000000" stroke-opacity="0.000" id="img-091f2137-139">
    <g transform="translate(8.81,45.66)" id="img-091f2137-140">
      <g class="primitive">
        <text text-anchor="middle" dy="0.35em" transform="rotate(-90,0, 2)">frequency</text>
      </g>
    </g>
  </g>
</g>
<defs>
  <clipPath id="img-091f2137-11">
    <path d="M17.96,5 L 73.78 5 73.78 90.33 17.96 90.33" />
  </clipPath>
</defs>
</svg>
