<?xml version="1.0" encoding="UTF-8"?>
<svg xmlns="http://www.w3.org/2000/svg"
     xmlns:xlink="http://www.w3.org/1999/xlink"
     xmlns:gadfly="http://www.gadflyjl.org/ns"
     version="1.2"
     width="141.42mm" height="100mm" viewBox="0 0 141.42 100"
     stroke="none"
     fill="#000000"
     stroke-width="0.3"
     font-size="3.88"
>
<defs>
  <marker id="arrow" markerWidth="15" markerHeight="7" refX="5" refY="3.5" orient="auto" markerUnits="strokeWidth">
    <path d="M0,0 L15,3.5 L0,7 z" stroke="context-stroke" fill="context-stroke"/>
  </marker>
</defs>
<g class="plotroot xscalable yscalable" id="img-7955c28a-1">
  <g class="guide xlabels" font-size="2.82" font-family="'PT Sans Caption','Helvetica Neue','Helvetica',sans-serif" fill="#6C606B" id="img-7955c28a-2">
    <g transform="translate(19.96,91.33)">
      <g class="primitive">
        <text text-anchor="middle" dy="0.6em">2.00×10⁴</text>
      </g>
    </g>
    <g transform="translate(38.53,91.33)">
      <g class="primitive">
        <text text-anchor="middle" dy="0.6em">2.50×10⁴</text>
      </g>
    </g>
    <g transform="translate(57.11,91.33)">
      <g class="primitive">
        <text text-anchor="middle" dy="0.6em">3.00×10⁴</text>
      </g>
    </g>
    <g transform="translate(75.68,91.33)">
      <g class="primitive">
        <text text-anchor="middle" dy="0.6em">3.50×10⁴</text>
      </g>
    </g>
  </g>
  <g class="guide colorkey" id="img-7955c28a-3">
    <g class="color_coding_coding_noncoding_noncoding_4-cycle" id="img-7955c28a-4">
      <g fill="#4C404B" font-size="2.82" font-family="'PT Sans','Helvetica Neue','Helvetica',sans-serif" id="img-7955c28a-5">
        <g transform="translate(81.49,49.48)" id="img-7955c28a-6">
          <g class="primitive">
            <text dy="0.35em">coding_coding_noncoding_noncoding_4-cycle</text>
          </g>
        </g>
      </g>
      <g fill-opacity="1" fill="#00BFFF" stroke="#FFFFFF" id="img-7955c28a-7">
        <g transform="translate(79.59,49.48)" id="img-7955c28a-8">
          <path d="M-0.91,-0.91 L0.91,-0.91 0.91,0.91 -0.91,0.91  z" class="primitive"/>
        </g>
      </g>
    </g>
    <g fill="#362A35" font-size="3.88" font-family="'PT Sans','Helvetica Neue','Helvetica',sans-serif" stroke="#000000" stroke-opacity="0.000" id="img-7955c28a-9">
      <g transform="translate(78.68,45.66)" id="img-7955c28a-10">
        <g class="primitive">
          <text dy="-0em">graphlet</text>
        </g>
      </g>
    </g>
  </g>
  <g clip-path="url(#img-7955c28a-11)">
    <g id="img-7955c28a-12">
      <g pointer-events="visible" stroke-width="0.3" fill="#000000" fill-opacity="0.000" stroke="#000000" stroke-opacity="0.000" class="guide background" id="img-7955c28a-13">
        <g transform="translate(47.82,47.66)" id="img-7955c28a-14">
          <path d="M-29.86,-42.66 L29.86,-42.66 29.86,42.66 -29.86,42.66  z" class="primitive"/>
        </g>
      </g>
      <g class="guide ygridlines xfixed" stroke-dasharray="0.5,0.5" stroke-width="0.2" stroke="#D0D0E0" id="img-7955c28a-15">
        <g transform="translate(47.82,88.33)" id="img-7955c28a-16">
          <path fill="none" d="M-29.86,0 L29.86,0 " class="primitive"/>
        </g>
        <g transform="translate(47.82,68)" id="img-7955c28a-17">
          <path fill="none" d="M-29.86,0 L29.86,0 " class="primitive"/>
        </g>
        <g transform="translate(47.82,47.66)" id="img-7955c28a-18">
          <path fill="none" d="M-29.86,0 L29.86,0 " class="primitive"/>
        </g>
        <g transform="translate(47.82,27.33)" id="img-7955c28a-19">
          <path fill="none" d="M-29.86,0 L29.86,0 " class="primitive"/>
        </g>
        <g transform="translate(47.82,7)" id="img-7955c28a-20">
          <path fill="none" d="M-29.86,0 L29.86,0 " class="primitive"/>
        </g>
      </g>
      <g class="guide xgridlines yfixed" stroke-dasharray="0.5,0.5" stroke-width="0.2" stroke="#D0D0E0" id="img-7955c28a-21">
        <g transform="translate(19.96,47.66)" id="img-7955c28a-22">
          <path fill="none" d="M0,-42.66 L0,42.66 " class="primitive"/>
        </g>
        <g transform="translate(38.53,47.66)" id="img-7955c28a-23">
          <path fill="none" d="M0,-42.66 L0,42.66 " class="primitive"/>
        </g>
        <g transform="translate(57.11,47.66)" id="img-7955c28a-24">
          <path fill="none" d="M0,-42.66 L0,42.66 " class="primitive"/>
        </g>
        <g transform="translate(75.68,47.66)" id="img-7955c28a-25">
          <path fill="none" d="M0,-42.66 L0,42.66 " class="primitive"/>
        </g>
      </g>
      <g class="plotpanel" id="img-7955c28a-26">
        <metadata>
          <boundingbox value="17.95833333333333mm 5.0mm 59.72302290397617mm 85.32666666666667mm"/>
          <unitbox value="19461.622890565413 40.98368718747438 16076.754218869173 -41.96737437494876"/>
        </metadata>
        <g shape-rendering="crispEdges" stroke-width="0.3" id="img-7955c28a-27">
          <g stroke="#000000" stroke-opacity="0.000" class="geometry" id="img-7955c28a-28">
            <g fill="#00BFFF" id="img-7955c28a-29">
              <g transform="translate(24.8,87.31)" id="img-7955c28a-30">
                <path d="M-0.22,-1.02 L0.22,-1.02 0.22,1.02 -0.22,1.02  z" class="primitive"/>
              </g>
              <g transform="translate(25.19,88.33)" id="img-7955c28a-31">
                <path d="M-0.22,-0 L0.22,-0 0.22,0 -0.22,0  z" class="primitive"/>
              </g>
              <g transform="translate(25.57,88.33)" id="img-7955c28a-32">
                <path d="M-0.22,-0 L0.22,-0 0.22,0 -0.22,0  z" class="primitive"/>
              </g>
              <g transform="translate(25.95,87.31)" id="img-7955c28a-33">
                <path d="M-0.22,-1.02 L0.22,-1.02 0.22,1.02 -0.22,1.02  z" class="primitive"/>
              </g>
              <g transform="translate(26.34,88.33)" id="img-7955c28a-34">
                <path d="M-0.22,-0 L0.22,-0 0.22,0 -0.22,0  z" class="primitive"/>
              </g>
              <g transform="translate(26.72,88.33)" id="img-7955c28a-35">
                <path d="M-0.22,-0 L0.22,-0 0.22,0 -0.22,0  z" class="primitive"/>
              </g>
              <g transform="translate(27.1,88.33)" id="img-7955c28a-36">
                <path d="M-0.22,-0 L0.22,-0 0.22,0 -0.22,0  z" class="primitive"/>
              </g>
              <g transform="translate(27.49,86.29)" id="img-7955c28a-37">
                <path d="M-0.22,-2.03 L0.22,-2.03 0.22,2.03 -0.22,2.03  z" class="primitive"/>
              </g>
              <g transform="translate(27.87,87.31)" id="img-7955c28a-38">
                <path d="M-0.22,-1.02 L0.22,-1.02 0.22,1.02 -0.22,1.02  z" class="primitive"/>
              </g>
              <g transform="translate(28.25,88.33)" id="img-7955c28a-39">
                <path d="M-0.22,-0 L0.22,-0 0.22,0 -0.22,0  z" class="primitive"/>
              </g>
              <g transform="translate(28.64,88.33)" id="img-7955c28a-40">
                <path d="M-0.22,-0 L0.22,-0 0.22,0 -0.22,0  z" class="primitive"/>
              </g>
              <g transform="translate(29.02,88.33)" id="img-7955c28a-41">
                <path d="M-0.22,-0 L0.22,-0 0.22,0 -0.22,0  z" class="primitive"/>
              </g>
              <g transform="translate(29.4,88.33)" id="img-7955c28a-42">
                <path d="M-0.22,-0 L0.22,-0 0.22,0 -0.22,0  z" class="primitive"/>
              </g>
              <g transform="translate(29.79,84.26)" id="img-7955c28a-43">
                <path d="M-0.22,-4.07 L0.22,-4.07 0.22,4.07 -0.22,4.07  z" class="primitive"/>
              </g>
              <g transform="translate(30.17,88.33)" id="img-7955c28a-44">
                <path d="M-0.22,-0 L0.22,-0 0.22,0 -0.22,0  z" class="primitive"/>
              </g>
              <g transform="translate(30.55,88.33)" id="img-7955c28a-45">
                <path d="M-0.22,-0 L0.22,-0 0.22,0 -0.22,0  z" class="primitive"/>
              </g>
              <g transform="translate(30.94,87.31)" id="img-7955c28a-46">
                <path d="M-0.22,-1.02 L0.22,-1.02 0.22,1.02 -0.22,1.02  z" class="primitive"/>
              </g>
              <g transform="translate(31.32,88.33)" id="img-7955c28a-47">
                <path d="M-0.22,-0 L0.22,-0 0.22,0 -0.22,0  z" class="primitive"/>
              </g>
              <g transform="translate(31.7,87.31)" id="img-7955c28a-48">
                <path d="M-0.22,-1.02 L0.22,-1.02 0.22,1.02 -0.22,1.02  z" class="primitive"/>
              </g>
              <g transform="translate(32.08,86.29)" id="img-7955c28a-49">
                <path d="M-0.22,-2.03 L0.22,-2.03 0.22,2.03 -0.22,2.03  z" class="primitive"/>
              </g>
              <g transform="translate(32.47,85.28)" id="img-7955c28a-50">
                <path d="M-0.22,-3.05 L0.22,-3.05 0.22,3.05 -0.22,3.05  z" class="primitive"/>
              </g>
              <g transform="translate(32.85,86.29)" id="img-7955c28a-51">
                <path d="M-0.22,-2.03 L0.22,-2.03 0.22,2.03 -0.22,2.03  z" class="primitive"/>
              </g>
              <g transform="translate(33.23,86.29)" id="img-7955c28a-52">
                <path d="M-0.22,-2.03 L0.22,-2.03 0.22,2.03 -0.22,2.03  z" class="primitive"/>
              </g>
              <g transform="translate(33.62,85.28)" id="img-7955c28a-53">
                <path d="M-0.22,-3.05 L0.22,-3.05 0.22,3.05 -0.22,3.05  z" class="primitive"/>
              </g>
              <g transform="translate(34,86.29)" id="img-7955c28a-54">
                <path d="M-0.22,-2.03 L0.22,-2.03 0.22,2.03 -0.22,2.03  z" class="primitive"/>
              </g>
              <g transform="translate(34.38,83.24)" id="img-7955c28a-55">
                <path d="M-0.22,-5.08 L0.22,-5.08 0.22,5.08 -0.22,5.08  z" class="primitive"/>
              </g>
              <g transform="translate(34.77,83.24)" id="img-7955c28a-56">
                <path d="M-0.22,-5.08 L0.22,-5.08 0.22,5.08 -0.22,5.08  z" class="primitive"/>
              </g>
              <g transform="translate(35.15,83.24)" id="img-7955c28a-57">
                <path d="M-0.22,-5.08 L0.22,-5.08 0.22,5.08 -0.22,5.08  z" class="primitive"/>
              </g>
              <g transform="translate(35.53,80.19)" id="img-7955c28a-58">
                <path d="M-0.22,-8.13 L0.22,-8.13 0.22,8.13 -0.22,8.13  z" class="primitive"/>
              </g>
              <g transform="translate(35.92,81.21)" id="img-7955c28a-59">
                <path d="M-0.22,-7.12 L0.22,-7.12 0.22,7.12 -0.22,7.12  z" class="primitive"/>
              </g>
              <g transform="translate(36.3,83.24)" id="img-7955c28a-60">
                <path d="M-0.22,-5.08 L0.22,-5.08 0.22,5.08 -0.22,5.08  z" class="primitive"/>
              </g>
              <g transform="translate(36.68,84.26)" id="img-7955c28a-61">
                <path d="M-0.22,-4.07 L0.22,-4.07 0.22,4.07 -0.22,4.07  z" class="primitive"/>
              </g>
              <g transform="translate(37.07,84.26)" id="img-7955c28a-62">
                <path d="M-0.22,-4.07 L0.22,-4.07 0.22,4.07 -0.22,4.07  z" class="primitive"/>
              </g>
              <g transform="translate(37.45,78.16)" id="img-7955c28a-63">
                <path d="M-0.22,-10.17 L0.22,-10.17 0.22,10.17 -0.22,10.17  z" class="primitive"/>
              </g>
              <g transform="translate(37.83,81.21)" id="img-7955c28a-64">
                <path d="M-0.22,-7.12 L0.22,-7.12 0.22,7.12 -0.22,7.12  z" class="primitive"/>
              </g>
              <g transform="translate(38.21,76.13)" id="img-7955c28a-65">
                <path d="M-0.22,-12.2 L0.22,-12.2 0.22,12.2 -0.22,12.2  z" class="primitive"/>
              </g>
              <g transform="translate(38.6,75.11)" id="img-7955c28a-66">
                <path d="M-0.22,-13.22 L0.22,-13.22 0.22,13.22 -0.22,13.22  z" class="primitive"/>
              </g>
              <g transform="translate(38.98,76.13)" id="img-7955c28a-67">
                <path d="M-0.22,-12.2 L0.22,-12.2 0.22,12.2 -0.22,12.2  z" class="primitive"/>
              </g>
              <g transform="translate(39.36,76.13)" id="img-7955c28a-68">
                <path d="M-0.22,-12.2 L0.22,-12.2 0.22,12.2 -0.22,12.2  z" class="primitive"/>
              </g>
              <g transform="translate(39.75,77.14)" id="img-7955c28a-69">
                <path d="M-0.22,-11.18 L0.22,-11.18 0.22,11.18 -0.22,11.18  z" class="primitive"/>
              </g>
              <g transform="translate(40.13,77.14)" id="img-7955c28a-70">
                <path d="M-0.22,-11.18 L0.22,-11.18 0.22,11.18 -0.22,11.18  z" class="primitive"/>
              </g>
              <g transform="translate(40.51,68)" id="img-7955c28a-71">
                <path d="M-0.22,-20.33 L0.22,-20.33 0.22,20.33 -0.22,20.33  z" class="primitive"/>
              </g>
              <g transform="translate(40.9,57.83)" id="img-7955c28a-72">
                <path d="M-0.22,-30.5 L0.22,-30.5 0.22,30.5 -0.22,30.5  z" class="primitive"/>
              </g>
              <g transform="translate(41.28,69.01)" id="img-7955c28a-73">
                <path d="M-0.22,-19.32 L0.22,-19.32 0.22,19.32 -0.22,19.32  z" class="primitive"/>
              </g>
              <g transform="translate(41.66,69.01)" id="img-7955c28a-74">
                <path d="M-0.22,-19.32 L0.22,-19.32 0.22,19.32 -0.22,19.32  z" class="primitive"/>
              </g>
              <g transform="translate(42.05,70.03)" id="img-7955c28a-75">
                <path d="M-0.22,-18.3 L0.22,-18.3 0.22,18.3 -0.22,18.3  z" class="primitive"/>
              </g>
              <g transform="translate(42.43,77.14)" id="img-7955c28a-76">
                <path d="M-0.22,-11.18 L0.22,-11.18 0.22,11.18 -0.22,11.18  z" class="primitive"/>
              </g>
              <g transform="translate(42.81,62.91)" id="img-7955c28a-77">
                <path d="M-0.22,-25.41 L0.22,-25.41 0.22,25.41 -0.22,25.41  z" class="primitive"/>
              </g>
              <g transform="translate(43.2,60.88)" id="img-7955c28a-78">
                <path d="M-0.22,-27.45 L0.22,-27.45 0.22,27.45 -0.22,27.45  z" class="primitive"/>
              </g>
              <g transform="translate(43.58,59.86)" id="img-7955c28a-79">
                <path d="M-0.22,-28.46 L0.22,-28.46 0.22,28.46 -0.22,28.46  z" class="primitive"/>
              </g>
              <g transform="translate(43.96,59.86)" id="img-7955c28a-80">
                <path d="M-0.22,-28.46 L0.22,-28.46 0.22,28.46 -0.22,28.46  z" class="primitive"/>
              </g>
              <g transform="translate(44.35,66.98)" id="img-7955c28a-81">
                <path d="M-0.22,-21.35 L0.22,-21.35 0.22,21.35 -0.22,21.35  z" class="primitive"/>
              </g>
              <g transform="translate(44.73,55.8)" id="img-7955c28a-82">
                <path d="M-0.22,-32.53 L0.22,-32.53 0.22,32.53 -0.22,32.53  z" class="primitive"/>
              </g>
              <g transform="translate(45.11,64.95)" id="img-7955c28a-83">
                <path d="M-0.22,-23.38 L0.22,-23.38 0.22,23.38 -0.22,23.38  z" class="primitive"/>
              </g>
              <g transform="translate(45.49,71.04)" id="img-7955c28a-84">
                <path d="M-0.22,-17.28 L0.22,-17.28 0.22,17.28 -0.22,17.28  z" class="primitive"/>
              </g>
              <g transform="translate(45.88,52.75)" id="img-7955c28a-85">
                <path d="M-0.22,-35.58 L0.22,-35.58 0.22,35.58 -0.22,35.58  z" class="primitive"/>
              </g>
              <g transform="translate(46.26,69.01)" id="img-7955c28a-86">
                <path d="M-0.22,-19.32 L0.22,-19.32 0.22,19.32 -0.22,19.32  z" class="primitive"/>
              </g>
              <g transform="translate(46.64,70.03)" id="img-7955c28a-87">
                <path d="M-0.22,-18.3 L0.22,-18.3 0.22,18.3 -0.22,18.3  z" class="primitive"/>
              </g>
              <g transform="translate(47.03,65.96)" id="img-7955c28a-88">
                <path d="M-0.22,-22.36 L0.22,-22.36 0.22,22.36 -0.22,22.36  z" class="primitive"/>
              </g>
              <g transform="translate(47.41,54.78)" id="img-7955c28a-89">
                <path d="M-0.22,-33.55 L0.22,-33.55 0.22,33.55 -0.22,33.55  z" class="primitive"/>
              </g>
              <g transform="translate(47.79,57.83)" id="img-7955c28a-90">
                <path d="M-0.22,-30.5 L0.22,-30.5 0.22,30.5 -0.22,30.5  z" class="primitive"/>
              </g>
              <g transform="translate(48.18,59.86)" id="img-7955c28a-91">
                <path d="M-0.22,-28.46 L0.22,-28.46 0.22,28.46 -0.22,28.46  z" class="primitive"/>
              </g>
              <g transform="translate(48.56,59.86)" id="img-7955c28a-92">
                <path d="M-0.22,-28.46 L0.22,-28.46 0.22,28.46 -0.22,28.46  z" class="primitive"/>
              </g>
              <g transform="translate(48.94,69.01)" id="img-7955c28a-93">
                <path d="M-0.22,-19.32 L0.22,-19.32 0.22,19.32 -0.22,19.32  z" class="primitive"/>
              </g>
              <g transform="translate(49.33,59.86)" id="img-7955c28a-94">
                <path d="M-0.22,-28.46 L0.22,-28.46 0.22,28.46 -0.22,28.46  z" class="primitive"/>
              </g>
              <g transform="translate(49.71,66.98)" id="img-7955c28a-95">
                <path d="M-0.22,-21.35 L0.22,-21.35 0.22,21.35 -0.22,21.35  z" class="primitive"/>
              </g>
              <g transform="translate(50.09,75.11)" id="img-7955c28a-96">
                <path d="M-0.22,-13.22 L0.22,-13.22 0.22,13.22 -0.22,13.22  z" class="primitive"/>
              </g>
              <g transform="translate(50.48,68)" id="img-7955c28a-97">
                <path d="M-0.22,-20.33 L0.22,-20.33 0.22,20.33 -0.22,20.33  z" class="primitive"/>
              </g>
              <g transform="translate(50.86,68)" id="img-7955c28a-98">
                <path d="M-0.22,-20.33 L0.22,-20.33 0.22,20.33 -0.22,20.33  z" class="primitive"/>
              </g>
              <g transform="translate(51.24,70.03)" id="img-7955c28a-99">
                <path d="M-0.22,-18.3 L0.22,-18.3 0.22,18.3 -0.22,18.3  z" class="primitive"/>
              </g>
              <g transform="translate(51.63,70.03)" id="img-7955c28a-100">
                <path d="M-0.22,-18.3 L0.22,-18.3 0.22,18.3 -0.22,18.3  z" class="primitive"/>
              </g>
              <g transform="translate(52.01,64.95)" id="img-7955c28a-101">
                <path d="M-0.22,-23.38 L0.22,-23.38 0.22,23.38 -0.22,23.38  z" class="primitive"/>
              </g>
              <g transform="translate(52.39,73.08)" id="img-7955c28a-102">
                <path d="M-0.22,-15.25 L0.22,-15.25 0.22,15.25 -0.22,15.25  z" class="primitive"/>
              </g>
              <g transform="translate(52.77,74.09)" id="img-7955c28a-103">
                <path d="M-0.22,-14.23 L0.22,-14.23 0.22,14.23 -0.22,14.23  z" class="primitive"/>
              </g>
              <g transform="translate(53.16,76.13)" id="img-7955c28a-104">
                <path d="M-0.22,-12.2 L0.22,-12.2 0.22,12.2 -0.22,12.2  z" class="primitive"/>
              </g>
              <g transform="translate(53.54,82.23)" id="img-7955c28a-105">
                <path d="M-0.22,-6.1 L0.22,-6.1 0.22,6.1 -0.22,6.1  z" class="primitive"/>
              </g>
              <g transform="translate(53.92,80.19)" id="img-7955c28a-106">
                <path d="M-0.22,-8.13 L0.22,-8.13 0.22,8.13 -0.22,8.13  z" class="primitive"/>
              </g>
              <g transform="translate(54.31,80.19)" id="img-7955c28a-107">
                <path d="M-0.22,-8.13 L0.22,-8.13 0.22,8.13 -0.22,8.13  z" class="primitive"/>
              </g>
              <g transform="translate(54.69,79.18)" id="img-7955c28a-108">
                <path d="M-0.22,-9.15 L0.22,-9.15 0.22,9.15 -0.22,9.15  z" class="primitive"/>
              </g>
              <g transform="translate(55.07,78.16)" id="img-7955c28a-109">
                <path d="M-0.22,-10.17 L0.22,-10.17 0.22,10.17 -0.22,10.17  z" class="primitive"/>
              </g>
              <g transform="translate(55.46,84.26)" id="img-7955c28a-110">
                <path d="M-0.22,-4.07 L0.22,-4.07 0.22,4.07 -0.22,4.07  z" class="primitive"/>
              </g>
              <g transform="translate(55.84,80.19)" id="img-7955c28a-111">
                <path d="M-0.22,-8.13 L0.22,-8.13 0.22,8.13 -0.22,8.13  z" class="primitive"/>
              </g>
              <g transform="translate(56.22,78.16)" id="img-7955c28a-112">
                <path d="M-0.22,-10.17 L0.22,-10.17 0.22,10.17 -0.22,10.17  z" class="primitive"/>
              </g>
              <g transform="translate(56.61,83.24)" id="img-7955c28a-113">
                <path d="M-0.22,-5.08 L0.22,-5.08 0.22,5.08 -0.22,5.08  z" class="primitive"/>
              </g>
              <g transform="translate(56.99,85.28)" id="img-7955c28a-114">
                <path d="M-0.22,-3.05 L0.22,-3.05 0.22,3.05 -0.22,3.05  z" class="primitive"/>
              </g>
              <g transform="translate(57.37,83.24)" id="img-7955c28a-115">
                <path d="M-0.22,-5.08 L0.22,-5.08 0.22,5.08 -0.22,5.08  z" class="primitive"/>
              </g>
              <g transform="translate(57.76,83.24)" id="img-7955c28a-116">
                <path d="M-0.22,-5.08 L0.22,-5.08 0.22,5.08 -0.22,5.08  z" class="primitive"/>
              </g>
              <g transform="translate(58.14,86.29)" id="img-7955c28a-117">
                <path d="M-0.22,-2.03 L0.22,-2.03 0.22,2.03 -0.22,2.03  z" class="primitive"/>
              </g>
              <g transform="translate(58.52,87.31)" id="img-7955c28a-118">
                <path d="M-0.22,-1.02 L0.22,-1.02 0.22,1.02 -0.22,1.02  z" class="primitive"/>
              </g>
              <g transform="translate(58.91,86.29)" id="img-7955c28a-119">
                <path d="M-0.22,-2.03 L0.22,-2.03 0.22,2.03 -0.22,2.03  z" class="primitive"/>
              </g>
              <g transform="translate(59.29,88.33)" id="img-7955c28a-120">
                <path d="M-0.22,-0 L0.22,-0 0.22,0 -0.22,0  z" class="primitive"/>
              </g>
              <g transform="translate(59.67,86.29)" id="img-7955c28a-121">
                <path d="M-0.22,-2.03 L0.22,-2.03 0.22,2.03 -0.22,2.03  z" class="primitive"/>
              </g>
              <g transform="translate(60.05,88.33)" id="img-7955c28a-122">
                <path d="M-0.22,-0 L0.22,-0 0.22,0 -0.22,0  z" class="primitive"/>
              </g>
              <g transform="translate(60.44,86.29)" id="img-7955c28a-123">
                <path d="M-0.22,-2.03 L0.22,-2.03 0.22,2.03 -0.22,2.03  z" class="primitive"/>
              </g>
              <g transform="translate(60.82,87.31)" id="img-7955c28a-124">
                <path d="M-0.22,-1.02 L0.22,-1.02 0.22,1.02 -0.22,1.02  z" class="primitive"/>
              </g>
              <g transform="translate(61.2,88.33)" id="img-7955c28a-125">
                <path d="M-0.22,-0 L0.22,-0 0.22,0 -0.22,0  z" class="primitive"/>
              </g>
              <g transform="translate(61.59,88.33)" id="img-7955c28a-126">
                <path d="M-0.22,-0 L0.22,-0 0.22,0 -0.22,0  z" class="primitive"/>
              </g>
              <g transform="translate(61.97,88.33)" id="img-7955c28a-127">
                <path d="M-0.22,-0 L0.22,-0 0.22,0 -0.22,0  z" class="primitive"/>
              </g>
              <g transform="translate(62.35,88.33)" id="img-7955c28a-128">
                <path d="M-0.22,-0 L0.22,-0 0.22,0 -0.22,0  z" class="primitive"/>
              </g>
              <g transform="translate(62.74,87.31)" id="img-7955c28a-129">
                <path d="M-0.22,-1.02 L0.22,-1.02 0.22,1.02 -0.22,1.02  z" class="primitive"/>
              </g>
            </g>
          </g>
        </g>
      </g>
    </g>
  </g>
  <g class="guide ylabels" font-size="2.82" font-family="'PT Sans Caption','Helvetica Neue','Helvetica',sans-serif" fill="#6C606B" id="img-7955c28a-130">
    <g transform="translate(16.96,88.33)" id="img-7955c28a-131">
      <g class="primitive">
        <text text-anchor="end" dy="0.35em">0</text>
      </g>
    </g>
    <g transform="translate(16.96,68)" id="img-7955c28a-132">
      <g class="primitive">
        <text text-anchor="end" dy="0.35em">10</text>
      </g>
    </g>
    <g transform="translate(16.96,47.66)" id="img-7955c28a-133">
      <g class="primitive">
        <text text-anchor="end" dy="0.35em">20</text>
      </g>
    </g>
    <g transform="translate(16.96,27.33)" id="img-7955c28a-134">
      <g class="primitive">
        <text text-anchor="end" dy="0.35em">30</text>
      </g>
    </g>
    <g transform="translate(16.96,7)" id="img-7955c28a-135">
      <g class="primitive">
        <text text-anchor="end" dy="0.35em">40</text>
      </g>
    </g>
  </g>
  <g font-size="3.88" font-family="'PT Sans','Helvetica Neue','Helvetica',sans-serif" fill="#564A55" stroke="#000000" stroke-opacity="0.000" id="img-7955c28a-136">
    <g transform="translate(8.81,45.66)" id="img-7955c28a-137">
      <g class="primitive">
        <text text-anchor="middle" dy="0.35em" transform="rotate(-90,0, 2)">frequency</text>
      </g>
    </g>
  </g>
</g>
<defs>
  <clipPath id="img-7955c28a-11">
    <path d="M17.96,5 L77.68,5 77.68,90.33 17.96,90.33 " />
  </clipPath>
</defs>
</svg>
