<?xml version="1.0" encoding="UTF-8"?>
<svg xmlns="http://www.w3.org/2000/svg"
     xmlns:xlink="http://www.w3.org/1999/xlink"
     xmlns:gadfly="http://www.gadflyjl.org/ns"
     version="1.2"
     width="141.42mm" height="100mm" viewBox="0 0 141.42 100"
     stroke="none"
     fill="#000000"
     stroke-width="0.3"
     font-size="3.88"
>
<defs>
  <marker id="arrow" markerWidth="15" markerHeight="7" refX="5" refY="3.5" orient="auto" markerUnits="strokeWidth">
    <path d="M0,0 L15,3.5 L0,7 z" stroke="context-stroke" fill="context-stroke"/>
  </marker>
</defs>
<g class="plotroot xscalable yscalable" id="img-e1ae17aa-1">
  <g class="guide xlabels" font-size="2.82" font-family="'PT Sans Caption','Helvetica Neue','Helvetica',sans-serif" fill="#6C606B" id="img-e1ae17aa-2">
    <g transform="translate(19.96,80.21)">
      <g class="primitive">
        <text text-anchor="end" dy="0.35em" transform="rotate(-90,0, 0)">2.50×10⁶</text>
      </g>
    </g>
    <g transform="translate(33.14,80.21)">
      <g class="primitive">
        <text text-anchor="end" dy="0.35em" transform="rotate(-90,0, 0)">3.00×10⁶</text>
      </g>
    </g>
    <g transform="translate(46.33,80.21)">
      <g class="primitive">
        <text text-anchor="end" dy="0.35em" transform="rotate(-90,0, 0)">3.50×10⁶</text>
      </g>
    </g>
    <g transform="translate(59.52,80.21)">
      <g class="primitive">
        <text text-anchor="end" dy="0.35em" transform="rotate(-90,0, 0)">4.00×10⁶</text>
      </g>
    </g>
    <g transform="translate(72.7,80.21)">
      <g class="primitive">
        <text text-anchor="end" dy="0.35em" transform="rotate(-90,0, 0)">4.50×10⁶</text>
      </g>
    </g>
  </g>
  <g class="guide colorkey" id="img-e1ae17aa-3">
    <g class="color_coding_noncoding_noncoding_noncoding_4-star" id="img-e1ae17aa-4">
      <g fill="#4C404B" font-size="2.82" font-family="'PT Sans','Helvetica Neue','Helvetica',sans-serif" id="img-e1ae17aa-5">
        <g transform="translate(78.51,43.92)" id="img-e1ae17aa-6">
          <g class="primitive">
            <text dy="0.35em">coding_noncoding_noncoding_noncoding_4-star</text>
          </g>
        </g>
      </g>
      <g fill-opacity="1" fill="#00BFFF" stroke="#FFFFFF" id="img-e1ae17aa-7">
        <g transform="translate(76.61,43.92)" id="img-e1ae17aa-8">
          <path d="M-0.91,-0.91 L0.91,-0.91 0.91,0.91 -0.91,0.91  z" class="primitive"/>
        </g>
      </g>
    </g>
    <g fill="#362A35" font-size="3.88" font-family="'PT Sans','Helvetica Neue','Helvetica',sans-serif" stroke="#000000" stroke-opacity="0.000" id="img-e1ae17aa-9">
      <g transform="translate(75.7,40.1)" id="img-e1ae17aa-10">
        <g class="primitive">
          <text dy="-0em">graphlet</text>
        </g>
      </g>
    </g>
  </g>
  <g clip-path="url(#img-e1ae17aa-11)">
    <g id="img-e1ae17aa-12">
      <g pointer-events="visible" stroke-width="0.3" fill="#000000" fill-opacity="0.000" stroke="#000000" stroke-opacity="0.000" class="guide background" id="img-e1ae17aa-13">
        <g transform="translate(46.33,42.11)" id="img-e1ae17aa-14">
          <path d="M-28.37,-37.11 L28.37,-37.11 28.37,37.11 -28.37,37.11  z" class="primitive"/>
        </g>
      </g>
      <g class="guide ygridlines xfixed" stroke-dasharray="0.5,0.5" stroke-width="0.2" stroke="#D0D0E0" id="img-e1ae17aa-15">
        <g transform="translate(46.33,77.21)" id="img-e1ae17aa-16">
          <path fill="none" d="M-28.37,0 L28.37,0 " class="primitive"/>
        </g>
        <g transform="translate(46.33,59.66)" id="img-e1ae17aa-17">
          <path fill="none" d="M-28.37,0 L28.37,0 " class="primitive"/>
        </g>
        <g transform="translate(46.33,42.11)" id="img-e1ae17aa-18">
          <path fill="none" d="M-28.37,0 L28.37,0 " class="primitive"/>
        </g>
        <g transform="translate(46.33,24.55)" id="img-e1ae17aa-19">
          <path fill="none" d="M-28.37,0 L28.37,0 " class="primitive"/>
        </g>
        <g transform="translate(46.33,7)" id="img-e1ae17aa-20">
          <path fill="none" d="M-28.37,0 L28.37,0 " class="primitive"/>
        </g>
      </g>
      <g class="guide xgridlines yfixed" stroke-dasharray="0.5,0.5" stroke-width="0.2" stroke="#D0D0E0" id="img-e1ae17aa-21">
        <g transform="translate(19.96,42.11)" id="img-e1ae17aa-22">
          <path fill="none" d="M0,-37.11 L0,37.11 " class="primitive"/>
        </g>
        <g transform="translate(33.14,42.11)" id="img-e1ae17aa-23">
          <path fill="none" d="M0,-37.11 L0,37.11 " class="primitive"/>
        </g>
        <g transform="translate(46.33,42.11)" id="img-e1ae17aa-24">
          <path fill="none" d="M0,-37.11 L0,37.11 " class="primitive"/>
        </g>
        <g transform="translate(59.52,42.11)" id="img-e1ae17aa-25">
          <path fill="none" d="M0,-37.11 L0,37.11 " class="primitive"/>
        </g>
        <g transform="translate(72.7,42.11)" id="img-e1ae17aa-26">
          <path fill="none" d="M0,-37.11 L0,37.11 " class="primitive"/>
        </g>
      </g>
      <g class="plotpanel" id="img-e1ae17aa-27">
        <metadata>
          <boundingbox value="17.958333333333336mm 5.0mm 56.743022903976176mm 74.21333333333334mm"/>
          <unitbox value="2.424160585044919e6 41.13938473224459 2.1516788299101624e6 -42.27876946448917"/>
        </metadata>
        <g shape-rendering="crispEdges" stroke-width="0.3" id="img-e1ae17aa-28">
          <g stroke="#000000" stroke-opacity="0.000" class="geometry" id="img-e1ae17aa-29">
            <g fill="#00BFFF" id="img-e1ae17aa-30">
              <g transform="translate(30.55,76.34)" id="img-e1ae17aa-31">
                <path d="M-0.2,-0.88 L0.2,-0.88 0.2,0.88 -0.2,0.88  z" class="primitive"/>
              </g>
              <g transform="translate(30.9,76.34)" id="img-e1ae17aa-32">
                <path d="M-0.2,-0.88 L0.2,-0.88 0.2,0.88 -0.2,0.88  z" class="primitive"/>
              </g>
              <g transform="translate(31.24,75.46)" id="img-e1ae17aa-33">
                <path d="M-0.2,-1.76 L0.2,-1.76 0.2,1.76 -0.2,1.76  z" class="primitive"/>
              </g>
              <g transform="translate(31.59,77.22)" id="img-e1ae17aa-34">
                <path d="M-0.2,-0 L0.2,-0 0.2,0 -0.2,0  z" class="primitive"/>
              </g>
              <g transform="translate(31.94,76.34)" id="img-e1ae17aa-35">
                <path d="M-0.2,-0.88 L0.2,-0.88 0.2,0.88 -0.2,0.88  z" class="primitive"/>
              </g>
              <g transform="translate(32.29,77.22)" id="img-e1ae17aa-36">
                <path d="M-0.2,-0 L0.2,-0 0.2,0 -0.2,0  z" class="primitive"/>
              </g>
              <g transform="translate(32.64,75.46)" id="img-e1ae17aa-37">
                <path d="M-0.2,-1.76 L0.2,-1.76 0.2,1.76 -0.2,1.76  z" class="primitive"/>
              </g>
              <g transform="translate(32.99,74.58)" id="img-e1ae17aa-38">
                <path d="M-0.2,-2.63 L0.2,-2.63 0.2,2.63 -0.2,2.63  z" class="primitive"/>
              </g>
              <g transform="translate(33.34,76.34)" id="img-e1ae17aa-39">
                <path d="M-0.2,-0.88 L0.2,-0.88 0.2,0.88 -0.2,0.88  z" class="primitive"/>
              </g>
              <g transform="translate(33.68,74.58)" id="img-e1ae17aa-40">
                <path d="M-0.2,-2.63 L0.2,-2.63 0.2,2.63 -0.2,2.63  z" class="primitive"/>
              </g>
              <g transform="translate(34.03,75.46)" id="img-e1ae17aa-41">
                <path d="M-0.2,-1.76 L0.2,-1.76 0.2,1.76 -0.2,1.76  z" class="primitive"/>
              </g>
              <g transform="translate(34.38,73.7)" id="img-e1ae17aa-42">
                <path d="M-0.2,-3.51 L0.2,-3.51 0.2,3.51 -0.2,3.51  z" class="primitive"/>
              </g>
              <g transform="translate(34.73,74.58)" id="img-e1ae17aa-43">
                <path d="M-0.2,-2.63 L0.2,-2.63 0.2,2.63 -0.2,2.63  z" class="primitive"/>
              </g>
              <g transform="translate(35.08,72.82)" id="img-e1ae17aa-44">
                <path d="M-0.2,-4.39 L0.2,-4.39 0.2,4.39 -0.2,4.39  z" class="primitive"/>
              </g>
              <g transform="translate(35.43,71.07)" id="img-e1ae17aa-45">
                <path d="M-0.2,-6.14 L0.2,-6.14 0.2,6.14 -0.2,6.14  z" class="primitive"/>
              </g>
              <g transform="translate(35.78,71.07)" id="img-e1ae17aa-46">
                <path d="M-0.2,-6.14 L0.2,-6.14 0.2,6.14 -0.2,6.14  z" class="primitive"/>
              </g>
              <g transform="translate(36.12,69.31)" id="img-e1ae17aa-47">
                <path d="M-0.2,-7.9 L0.2,-7.9 0.2,7.9 -0.2,7.9  z" class="primitive"/>
              </g>
              <g transform="translate(36.47,69.31)" id="img-e1ae17aa-48">
                <path d="M-0.2,-7.9 L0.2,-7.9 0.2,7.9 -0.2,7.9  z" class="primitive"/>
              </g>
              <g transform="translate(36.82,70.19)" id="img-e1ae17aa-49">
                <path d="M-0.2,-7.02 L0.2,-7.02 0.2,7.02 -0.2,7.02  z" class="primitive"/>
              </g>
              <g transform="translate(37.17,74.58)" id="img-e1ae17aa-50">
                <path d="M-0.2,-2.63 L0.2,-2.63 0.2,2.63 -0.2,2.63  z" class="primitive"/>
              </g>
              <g transform="translate(37.52,71.07)" id="img-e1ae17aa-51">
                <path d="M-0.2,-6.14 L0.2,-6.14 0.2,6.14 -0.2,6.14  z" class="primitive"/>
              </g>
              <g transform="translate(37.87,74.58)" id="img-e1ae17aa-52">
                <path d="M-0.2,-2.63 L0.2,-2.63 0.2,2.63 -0.2,2.63  z" class="primitive"/>
              </g>
              <g transform="translate(38.22,70.19)" id="img-e1ae17aa-53">
                <path d="M-0.2,-7.02 L0.2,-7.02 0.2,7.02 -0.2,7.02  z" class="primitive"/>
              </g>
              <g transform="translate(38.56,65.8)" id="img-e1ae17aa-54">
                <path d="M-0.2,-11.41 L0.2,-11.41 0.2,11.41 -0.2,11.41  z" class="primitive"/>
              </g>
              <g transform="translate(38.91,71.07)" id="img-e1ae17aa-55">
                <path d="M-0.2,-6.14 L0.2,-6.14 0.2,6.14 -0.2,6.14  z" class="primitive"/>
              </g>
              <g transform="translate(39.26,67.56)" id="img-e1ae17aa-56">
                <path d="M-0.2,-9.65 L0.2,-9.65 0.2,9.65 -0.2,9.65  z" class="primitive"/>
              </g>
              <g transform="translate(39.61,66.68)" id="img-e1ae17aa-57">
                <path d="M-0.2,-10.53 L0.2,-10.53 0.2,10.53 -0.2,10.53  z" class="primitive"/>
              </g>
              <g transform="translate(39.96,62.29)" id="img-e1ae17aa-58">
                <path d="M-0.2,-14.92 L0.2,-14.92 0.2,14.92 -0.2,14.92  z" class="primitive"/>
              </g>
              <g transform="translate(40.31,63.17)" id="img-e1ae17aa-59">
                <path d="M-0.2,-14.04 L0.2,-14.04 0.2,14.04 -0.2,14.04  z" class="primitive"/>
              </g>
              <g transform="translate(40.66,60.54)" id="img-e1ae17aa-60">
                <path d="M-0.2,-16.68 L0.2,-16.68 0.2,16.68 -0.2,16.68  z" class="primitive"/>
              </g>
              <g transform="translate(41,67.56)" id="img-e1ae17aa-61">
                <path d="M-0.2,-9.65 L0.2,-9.65 0.2,9.65 -0.2,9.65  z" class="primitive"/>
              </g>
              <g transform="translate(41.35,63.17)" id="img-e1ae17aa-62">
                <path d="M-0.2,-14.04 L0.2,-14.04 0.2,14.04 -0.2,14.04  z" class="primitive"/>
              </g>
              <g transform="translate(41.7,59.66)" id="img-e1ae17aa-63">
                <path d="M-0.2,-17.55 L0.2,-17.55 0.2,17.55 -0.2,17.55  z" class="primitive"/>
              </g>
              <g transform="translate(42.05,60.54)" id="img-e1ae17aa-64">
                <path d="M-0.2,-16.68 L0.2,-16.68 0.2,16.68 -0.2,16.68  z" class="primitive"/>
              </g>
              <g transform="translate(42.4,61.42)" id="img-e1ae17aa-65">
                <path d="M-0.2,-15.8 L0.2,-15.8 0.2,15.8 -0.2,15.8  z" class="primitive"/>
              </g>
              <g transform="translate(42.75,64.93)" id="img-e1ae17aa-66">
                <path d="M-0.2,-12.29 L0.2,-12.29 0.2,12.29 -0.2,12.29  z" class="primitive"/>
              </g>
              <g transform="translate(43.1,58.78)" id="img-e1ae17aa-67">
                <path d="M-0.2,-18.43 L0.2,-18.43 0.2,18.43 -0.2,18.43  z" class="primitive"/>
              </g>
              <g transform="translate(43.44,57.03)" id="img-e1ae17aa-68">
                <path d="M-0.2,-20.19 L0.2,-20.19 0.2,20.19 -0.2,20.19  z" class="primitive"/>
              </g>
              <g transform="translate(43.79,62.29)" id="img-e1ae17aa-69">
                <path d="M-0.2,-14.92 L0.2,-14.92 0.2,14.92 -0.2,14.92  z" class="primitive"/>
              </g>
              <g transform="translate(44.14,60.54)" id="img-e1ae17aa-70">
                <path d="M-0.2,-16.68 L0.2,-16.68 0.2,16.68 -0.2,16.68  z" class="primitive"/>
              </g>
              <g transform="translate(44.49,57.9)" id="img-e1ae17aa-71">
                <path d="M-0.2,-19.31 L0.2,-19.31 0.2,19.31 -0.2,19.31  z" class="primitive"/>
              </g>
              <g transform="translate(44.84,50.01)" id="img-e1ae17aa-72">
                <path d="M-0.2,-27.21 L0.2,-27.21 0.2,27.21 -0.2,27.21  z" class="primitive"/>
              </g>
              <g transform="translate(45.19,63.17)" id="img-e1ae17aa-73">
                <path d="M-0.2,-14.04 L0.2,-14.04 0.2,14.04 -0.2,14.04  z" class="primitive"/>
              </g>
              <g transform="translate(45.54,57.03)" id="img-e1ae17aa-74">
                <path d="M-0.2,-20.19 L0.2,-20.19 0.2,20.19 -0.2,20.19  z" class="primitive"/>
              </g>
              <g transform="translate(45.88,64.05)" id="img-e1ae17aa-75">
                <path d="M-0.2,-13.17 L0.2,-13.17 0.2,13.17 -0.2,13.17  z" class="primitive"/>
              </g>
              <g transform="translate(46.23,59.66)" id="img-e1ae17aa-76">
                <path d="M-0.2,-17.55 L0.2,-17.55 0.2,17.55 -0.2,17.55  z" class="primitive"/>
              </g>
              <g transform="translate(46.58,61.42)" id="img-e1ae17aa-77">
                <path d="M-0.2,-15.8 L0.2,-15.8 0.2,15.8 -0.2,15.8  z" class="primitive"/>
              </g>
              <g transform="translate(46.93,60.54)" id="img-e1ae17aa-78">
                <path d="M-0.2,-16.68 L0.2,-16.68 0.2,16.68 -0.2,16.68  z" class="primitive"/>
              </g>
              <g transform="translate(47.28,53.52)" id="img-e1ae17aa-79">
                <path d="M-0.2,-23.7 L0.2,-23.7 0.2,23.7 -0.2,23.7  z" class="primitive"/>
              </g>
              <g transform="translate(47.63,57.03)" id="img-e1ae17aa-80">
                <path d="M-0.2,-20.19 L0.2,-20.19 0.2,20.19 -0.2,20.19  z" class="primitive"/>
              </g>
              <g transform="translate(47.98,61.42)" id="img-e1ae17aa-81">
                <path d="M-0.2,-15.8 L0.2,-15.8 0.2,15.8 -0.2,15.8  z" class="primitive"/>
              </g>
              <g transform="translate(48.32,57.03)" id="img-e1ae17aa-82">
                <path d="M-0.2,-20.19 L0.2,-20.19 0.2,20.19 -0.2,20.19  z" class="primitive"/>
              </g>
              <g transform="translate(48.67,61.42)" id="img-e1ae17aa-83">
                <path d="M-0.2,-15.8 L0.2,-15.8 0.2,15.8 -0.2,15.8  z" class="primitive"/>
              </g>
              <g transform="translate(49.02,57.9)" id="img-e1ae17aa-84">
                <path d="M-0.2,-19.31 L0.2,-19.31 0.2,19.31 -0.2,19.31  z" class="primitive"/>
              </g>
              <g transform="translate(49.37,58.78)" id="img-e1ae17aa-85">
                <path d="M-0.2,-18.43 L0.2,-18.43 0.2,18.43 -0.2,18.43  z" class="primitive"/>
              </g>
              <g transform="translate(49.72,57.03)" id="img-e1ae17aa-86">
                <path d="M-0.2,-20.19 L0.2,-20.19 0.2,20.19 -0.2,20.19  z" class="primitive"/>
              </g>
              <g transform="translate(50.07,60.54)" id="img-e1ae17aa-87">
                <path d="M-0.2,-16.68 L0.2,-16.68 0.2,16.68 -0.2,16.68  z" class="primitive"/>
              </g>
              <g transform="translate(50.42,59.66)" id="img-e1ae17aa-88">
                <path d="M-0.2,-17.55 L0.2,-17.55 0.2,17.55 -0.2,17.55  z" class="primitive"/>
              </g>
              <g transform="translate(50.76,64.93)" id="img-e1ae17aa-89">
                <path d="M-0.2,-12.29 L0.2,-12.29 0.2,12.29 -0.2,12.29  z" class="primitive"/>
              </g>
              <g transform="translate(51.11,57.03)" id="img-e1ae17aa-90">
                <path d="M-0.2,-20.19 L0.2,-20.19 0.2,20.19 -0.2,20.19  z" class="primitive"/>
              </g>
              <g transform="translate(51.46,62.29)" id="img-e1ae17aa-91">
                <path d="M-0.2,-14.92 L0.2,-14.92 0.2,14.92 -0.2,14.92  z" class="primitive"/>
              </g>
              <g transform="translate(51.81,64.05)" id="img-e1ae17aa-92">
                <path d="M-0.2,-13.17 L0.2,-13.17 0.2,13.17 -0.2,13.17  z" class="primitive"/>
              </g>
              <g transform="translate(52.16,70.19)" id="img-e1ae17aa-93">
                <path d="M-0.2,-7.02 L0.2,-7.02 0.2,7.02 -0.2,7.02  z" class="primitive"/>
              </g>
              <g transform="translate(52.51,67.56)" id="img-e1ae17aa-94">
                <path d="M-0.2,-9.65 L0.2,-9.65 0.2,9.65 -0.2,9.65  z" class="primitive"/>
              </g>
              <g transform="translate(52.86,67.56)" id="img-e1ae17aa-95">
                <path d="M-0.2,-9.65 L0.2,-9.65 0.2,9.65 -0.2,9.65  z" class="primitive"/>
              </g>
              <g transform="translate(53.2,65.8)" id="img-e1ae17aa-96">
                <path d="M-0.2,-11.41 L0.2,-11.41 0.2,11.41 -0.2,11.41  z" class="primitive"/>
              </g>
              <g transform="translate(53.55,64.93)" id="img-e1ae17aa-97">
                <path d="M-0.2,-12.29 L0.2,-12.29 0.2,12.29 -0.2,12.29  z" class="primitive"/>
              </g>
              <g transform="translate(53.9,68.44)" id="img-e1ae17aa-98">
                <path d="M-0.2,-8.78 L0.2,-8.78 0.2,8.78 -0.2,8.78  z" class="primitive"/>
              </g>
              <g transform="translate(54.25,71.95)" id="img-e1ae17aa-99">
                <path d="M-0.2,-5.27 L0.2,-5.27 0.2,5.27 -0.2,5.27  z" class="primitive"/>
              </g>
              <g transform="translate(54.6,70.19)" id="img-e1ae17aa-100">
                <path d="M-0.2,-7.02 L0.2,-7.02 0.2,7.02 -0.2,7.02  z" class="primitive"/>
              </g>
              <g transform="translate(54.95,65.8)" id="img-e1ae17aa-101">
                <path d="M-0.2,-11.41 L0.2,-11.41 0.2,11.41 -0.2,11.41  z" class="primitive"/>
              </g>
              <g transform="translate(55.3,73.7)" id="img-e1ae17aa-102">
                <path d="M-0.2,-3.51 L0.2,-3.51 0.2,3.51 -0.2,3.51  z" class="primitive"/>
              </g>
              <g transform="translate(55.64,72.82)" id="img-e1ae17aa-103">
                <path d="M-0.2,-4.39 L0.2,-4.39 0.2,4.39 -0.2,4.39  z" class="primitive"/>
              </g>
              <g transform="translate(55.99,68.44)" id="img-e1ae17aa-104">
                <path d="M-0.2,-8.78 L0.2,-8.78 0.2,8.78 -0.2,8.78  z" class="primitive"/>
              </g>
              <g transform="translate(56.34,68.44)" id="img-e1ae17aa-105">
                <path d="M-0.2,-8.78 L0.2,-8.78 0.2,8.78 -0.2,8.78  z" class="primitive"/>
              </g>
              <g transform="translate(56.69,71.07)" id="img-e1ae17aa-106">
                <path d="M-0.2,-6.14 L0.2,-6.14 0.2,6.14 -0.2,6.14  z" class="primitive"/>
              </g>
              <g transform="translate(57.04,71.07)" id="img-e1ae17aa-107">
                <path d="M-0.2,-6.14 L0.2,-6.14 0.2,6.14 -0.2,6.14  z" class="primitive"/>
              </g>
              <g transform="translate(57.39,70.19)" id="img-e1ae17aa-108">
                <path d="M-0.2,-7.02 L0.2,-7.02 0.2,7.02 -0.2,7.02  z" class="primitive"/>
              </g>
              <g transform="translate(57.73,73.7)" id="img-e1ae17aa-109">
                <path d="M-0.2,-3.51 L0.2,-3.51 0.2,3.51 -0.2,3.51  z" class="primitive"/>
              </g>
              <g transform="translate(58.08,76.34)" id="img-e1ae17aa-110">
                <path d="M-0.2,-0.88 L0.2,-0.88 0.2,0.88 -0.2,0.88  z" class="primitive"/>
              </g>
              <g transform="translate(58.43,73.7)" id="img-e1ae17aa-111">
                <path d="M-0.2,-3.51 L0.2,-3.51 0.2,3.51 -0.2,3.51  z" class="primitive"/>
              </g>
              <g transform="translate(58.78,71.07)" id="img-e1ae17aa-112">
                <path d="M-0.2,-6.14 L0.2,-6.14 0.2,6.14 -0.2,6.14  z" class="primitive"/>
              </g>
              <g transform="translate(59.13,74.58)" id="img-e1ae17aa-113">
                <path d="M-0.2,-2.63 L0.2,-2.63 0.2,2.63 -0.2,2.63  z" class="primitive"/>
              </g>
              <g transform="translate(59.48,72.82)" id="img-e1ae17aa-114">
                <path d="M-0.2,-4.39 L0.2,-4.39 0.2,4.39 -0.2,4.39  z" class="primitive"/>
              </g>
              <g transform="translate(59.83,72.82)" id="img-e1ae17aa-115">
                <path d="M-0.2,-4.39 L0.2,-4.39 0.2,4.39 -0.2,4.39  z" class="primitive"/>
              </g>
              <g transform="translate(60.17,77.22)" id="img-e1ae17aa-116">
                <path d="M-0.2,-0 L0.2,-0 0.2,0 -0.2,0  z" class="primitive"/>
              </g>
              <g transform="translate(60.52,74.58)" id="img-e1ae17aa-117">
                <path d="M-0.2,-2.63 L0.2,-2.63 0.2,2.63 -0.2,2.63  z" class="primitive"/>
              </g>
              <g transform="translate(60.87,77.22)" id="img-e1ae17aa-118">
                <path d="M-0.2,-0 L0.2,-0 0.2,0 -0.2,0  z" class="primitive"/>
              </g>
              <g transform="translate(61.22,75.46)" id="img-e1ae17aa-119">
                <path d="M-0.2,-1.76 L0.2,-1.76 0.2,1.76 -0.2,1.76  z" class="primitive"/>
              </g>
              <g transform="translate(61.57,75.46)" id="img-e1ae17aa-120">
                <path d="M-0.2,-1.76 L0.2,-1.76 0.2,1.76 -0.2,1.76  z" class="primitive"/>
              </g>
              <g transform="translate(61.92,75.46)" id="img-e1ae17aa-121">
                <path d="M-0.2,-1.76 L0.2,-1.76 0.2,1.76 -0.2,1.76  z" class="primitive"/>
              </g>
              <g transform="translate(62.27,75.46)" id="img-e1ae17aa-122">
                <path d="M-0.2,-1.76 L0.2,-1.76 0.2,1.76 -0.2,1.76  z" class="primitive"/>
              </g>
              <g transform="translate(62.61,76.34)" id="img-e1ae17aa-123">
                <path d="M-0.2,-0.88 L0.2,-0.88 0.2,0.88 -0.2,0.88  z" class="primitive"/>
              </g>
              <g transform="translate(62.96,77.22)" id="img-e1ae17aa-124">
                <path d="M-0.2,-0 L0.2,-0 0.2,0 -0.2,0  z" class="primitive"/>
              </g>
              <g transform="translate(63.31,77.22)" id="img-e1ae17aa-125">
                <path d="M-0.2,-0 L0.2,-0 0.2,0 -0.2,0  z" class="primitive"/>
              </g>
              <g transform="translate(63.66,75.46)" id="img-e1ae17aa-126">
                <path d="M-0.2,-1.76 L0.2,-1.76 0.2,1.76 -0.2,1.76  z" class="primitive"/>
              </g>
              <g transform="translate(64.01,77.22)" id="img-e1ae17aa-127">
                <path d="M-0.2,-0 L0.2,-0 0.2,0 -0.2,0  z" class="primitive"/>
              </g>
              <g transform="translate(64.36,76.34)" id="img-e1ae17aa-128">
                <path d="M-0.2,-0.88 L0.2,-0.88 0.2,0.88 -0.2,0.88  z" class="primitive"/>
              </g>
              <g transform="translate(64.71,77.22)" id="img-e1ae17aa-129">
                <path d="M-0.2,-0 L0.2,-0 0.2,0 -0.2,0  z" class="primitive"/>
              </g>
              <g transform="translate(65.05,75.46)" id="img-e1ae17aa-130">
                <path d="M-0.2,-1.76 L0.2,-1.76 0.2,1.76 -0.2,1.76  z" class="primitive"/>
              </g>
            </g>
          </g>
        </g>
      </g>
    </g>
  </g>
  <g class="guide ylabels" font-size="2.82" font-family="'PT Sans Caption','Helvetica Neue','Helvetica',sans-serif" fill="#6C606B" id="img-e1ae17aa-131">
    <g transform="translate(16.96,77.21)" id="img-e1ae17aa-132">
      <g class="primitive">
        <text text-anchor="end" dy="0.35em">0</text>
      </g>
    </g>
    <g transform="translate(16.96,59.66)" id="img-e1ae17aa-133">
      <g class="primitive">
        <text text-anchor="end" dy="0.35em">10</text>
      </g>
    </g>
    <g transform="translate(16.96,42.11)" id="img-e1ae17aa-134">
      <g class="primitive">
        <text text-anchor="end" dy="0.35em">20</text>
      </g>
    </g>
    <g transform="translate(16.96,24.55)" id="img-e1ae17aa-135">
      <g class="primitive">
        <text text-anchor="end" dy="0.35em">30</text>
      </g>
    </g>
    <g transform="translate(16.96,7)" id="img-e1ae17aa-136">
      <g class="primitive">
        <text text-anchor="end" dy="0.35em">40</text>
      </g>
    </g>
  </g>
  <g font-size="3.88" font-family="'PT Sans','Helvetica Neue','Helvetica',sans-serif" fill="#564A55" stroke="#000000" stroke-opacity="0.000" id="img-e1ae17aa-137">
    <g transform="translate(8.81,40.11)" id="img-e1ae17aa-138">
      <g class="primitive">
        <text text-anchor="middle" dy="0.35em" transform="rotate(-90,0, 2)">frequency</text>
      </g>
    </g>
  </g>
</g>
<defs>
  <clipPath id="img-e1ae17aa-11">
    <path d="M17.96,5 L74.7,5 74.7,79.21 17.96,79.21 " />
  </clipPath>
</defs>
</svg>
