<?xml version="1.0" encoding="UTF-8"?>
<svg xmlns="http://www.w3.org/2000/svg"
     xmlns:xlink="http://www.w3.org/1999/xlink"
     xmlns:gadfly="http://www.gadflyjl.org/ns"
     version="1.2"
     width="140mm" height="80mm" viewBox="0 0 140 80"
     stroke="none"
     fill="#000000"
     stroke-width="0.3"
     font-size="3.88"
>
<defs>
  <marker id="arrow" markerWidth="15" markerHeight="7" refX="5" refY="3.5" orient="auto" markerUnits="strokeWidth">
    <path d="M0,0 L15,3.5 L0,7 z" stroke="context-stroke" fill="context-stroke"/>
  </marker>
</defs>
<g class="plotroot xscalable yscalable" id="img-f55280cf-1">
  <g class="guide xlabels" font-size="2.82" font-family="'PT Sans Caption','Helvetica Neue','Helvetica',sans-serif" fill="#6C606B" id="img-f55280cf-2">
    <g transform="translate(19.96,61.89)">
      <g class="primitive">
        <text text-anchor="end" dy="0.35em" transform="rotate(-90,0, 0)">4.0×10⁵</text>
      </g>
    </g>
    <g transform="translate(31.14,61.89)">
      <g class="primitive">
        <text text-anchor="end" dy="0.35em" transform="rotate(-90,0, 0)">5.0×10⁵</text>
      </g>
    </g>
    <g transform="translate(42.32,61.89)">
      <g class="primitive">
        <text text-anchor="end" dy="0.35em" transform="rotate(-90,0, 0)">6.0×10⁵</text>
      </g>
    </g>
    <g transform="translate(53.51,61.89)">
      <g class="primitive">
        <text text-anchor="end" dy="0.35em" transform="rotate(-90,0, 0)">7.0×10⁵</text>
      </g>
    </g>
    <g transform="translate(64.69,61.89)">
      <g class="primitive">
        <text text-anchor="end" dy="0.35em" transform="rotate(-90,0, 0)">8.0×10⁵</text>
      </g>
    </g>
    <g transform="translate(75.87,61.89)">
      <g class="primitive">
        <text text-anchor="end" dy="0.35em" transform="rotate(-90,0, 0)">9.0×10⁵</text>
      </g>
    </g>
  </g>
  <g class="guide colorkey" id="img-f55280cf-3">
    <g class="color_coding_coding_noncoding_noncoding_4-star" id="img-f55280cf-4">
      <g fill="#4C404B" font-size="2.82" font-family="'PT Sans','Helvetica Neue','Helvetica',sans-serif" id="img-f55280cf-5">
        <g transform="translate(81.69,34.76)" id="img-f55280cf-6">
          <g class="primitive">
            <text dy="0.35em">coding_coding_noncoding_noncoding_4-star</text>
          </g>
        </g>
      </g>
      <g fill-opacity="1" fill="#00BFFF" stroke="#FFFFFF" id="img-f55280cf-7">
        <g transform="translate(79.78,34.76)" id="img-f55280cf-8">
          <path d="M-0.91,-0.91 L 0.91 -0.91 0.91 0.91 -0.91 0.91 z" class="primitive"/>
        </g>
      </g>
    </g>
    <g fill="#362A35" font-size="3.88" font-family="'PT Sans','Helvetica Neue','Helvetica',sans-serif" stroke="#000000" stroke-opacity="0.000" id="img-f55280cf-9">
      <g transform="translate(78.87,30.94)" id="img-f55280cf-10">
        <g class="primitive">
          <text dy="-0em">graphlet</text>
        </g>
      </g>
    </g>
  </g>
  <g clip-path="url(#img-f55280cf-11)">
    <g id="img-f55280cf-12">
      <g pointer-events="visible" stroke-width="0.3" fill="#000000" fill-opacity="0.000" stroke="#000000" stroke-opacity="0.000" class="guide background" id="img-f55280cf-13">
        <g transform="translate(47.92,32.94)" id="img-f55280cf-14">
          <path d="M-29.96,-27.94 L 29.96 -27.94 29.96 27.94 -29.96 27.94 z" class="primitive"/>
        </g>
      </g>
      <g class="guide ygridlines xfixed" stroke-dasharray="0.5,0.5" stroke-width="0.2" stroke="#D0D0E0" id="img-f55280cf-15">
        <g transform="translate(47.92,58.89)" id="img-f55280cf-16">
          <path fill="none" d="M-29.96,0 L 29.96 0" class="primitive"/>
        </g>
        <g transform="translate(47.92,48.51)" id="img-f55280cf-17">
          <path fill="none" d="M-29.96,0 L 29.96 0" class="primitive"/>
        </g>
        <g transform="translate(47.92,38.13)" id="img-f55280cf-18">
          <path fill="none" d="M-29.96,0 L 29.96 0" class="primitive"/>
        </g>
        <g transform="translate(47.92,27.75)" id="img-f55280cf-19">
          <path fill="none" d="M-29.96,0 L 29.96 0" class="primitive"/>
        </g>
        <g transform="translate(47.92,17.38)" id="img-f55280cf-20">
          <path fill="none" d="M-29.96,0 L 29.96 0" class="primitive"/>
        </g>
        <g transform="translate(47.92,7)" id="img-f55280cf-21">
          <path fill="none" d="M-29.96,0 L 29.96 0" class="primitive"/>
        </g>
      </g>
      <g class="guide xgridlines yfixed" stroke-dasharray="0.5,0.5" stroke-width="0.2" stroke="#D0D0E0" id="img-f55280cf-22">
        <g transform="translate(19.96,32.94)" id="img-f55280cf-23">
          <path fill="none" d="M0,-27.94 L 0 27.94" class="primitive"/>
        </g>
        <g transform="translate(31.14,32.94)" id="img-f55280cf-24">
          <path fill="none" d="M0,-27.94 L 0 27.94" class="primitive"/>
        </g>
        <g transform="translate(42.32,32.94)" id="img-f55280cf-25">
          <path fill="none" d="M0,-27.94 L 0 27.94" class="primitive"/>
        </g>
        <g transform="translate(53.51,32.94)" id="img-f55280cf-26">
          <path fill="none" d="M0,-27.94 L 0 27.94" class="primitive"/>
        </g>
        <g transform="translate(64.69,32.94)" id="img-f55280cf-27">
          <path fill="none" d="M0,-27.94 L 0 27.94" class="primitive"/>
        </g>
        <g transform="translate(75.87,32.94)" id="img-f55280cf-28">
          <path fill="none" d="M0,-27.94 L 0 27.94" class="primitive"/>
        </g>
      </g>
      <g class="plotpanel" id="img-f55280cf-29">
        <metadata>
          <boundingbox value="17.958333333333336mm 5.0mm 59.915mm 55.88666666666667mm"/>
          <unitbox value="382115.7113475811 51.927277399460365 535768.5773048378 -53.85455479892073"/>
        </metadata>
        <g shape-rendering="crispEdges" stroke-width="0.3" id="img-f55280cf-30">
          <g stroke="#000000" stroke-opacity="0.000" class="geometry" id="img-f55280cf-31">
            <g fill="#00BFFF" id="img-f55280cf-32">
              <g transform="translate(25.65,58.37)" id="img-f55280cf-33">
                <path d="M-0.27,-0.52 L 0.27 -0.52 0.27 0.52 -0.27 0.52 z" class="primitive"/>
              </g>
              <g transform="translate(26.15,58.37)" id="img-f55280cf-34">
                <path d="M-0.27,-0.52 L 0.27 -0.52 0.27 0.52 -0.27 0.52 z" class="primitive"/>
              </g>
              <g transform="translate(26.64,58.89)" id="img-f55280cf-35">
                <path d="M-0.27,-0 L 0.27 -0 0.27 0 -0.27 0 z" class="primitive"/>
              </g>
              <g transform="translate(27.13,58.89)" id="img-f55280cf-36">
                <path d="M-0.27,-0 L 0.27 -0 0.27 0 -0.27 0 z" class="primitive"/>
              </g>
              <g transform="translate(27.63,58.37)" id="img-f55280cf-37">
                <path d="M-0.27,-0.52 L 0.27 -0.52 0.27 0.52 -0.27 0.52 z" class="primitive"/>
              </g>
              <g transform="translate(28.12,58.89)" id="img-f55280cf-38">
                <path d="M-0.27,-0 L 0.27 -0 0.27 0 -0.27 0 z" class="primitive"/>
              </g>
              <g transform="translate(28.61,58.89)" id="img-f55280cf-39">
                <path d="M-0.27,-0 L 0.27 -0 0.27 0 -0.27 0 z" class="primitive"/>
              </g>
              <g transform="translate(29.11,58.89)" id="img-f55280cf-40">
                <path d="M-0.27,-0 L 0.27 -0 0.27 0 -0.27 0 z" class="primitive"/>
              </g>
              <g transform="translate(29.6,58.37)" id="img-f55280cf-41">
                <path d="M-0.27,-0.52 L 0.27 -0.52 0.27 0.52 -0.27 0.52 z" class="primitive"/>
              </g>
              <g transform="translate(30.09,58.37)" id="img-f55280cf-42">
                <path d="M-0.27,-0.52 L 0.27 -0.52 0.27 0.52 -0.27 0.52 z" class="primitive"/>
              </g>
              <g transform="translate(30.58,58.89)" id="img-f55280cf-43">
                <path d="M-0.27,-0 L 0.27 -0 0.27 0 -0.27 0 z" class="primitive"/>
              </g>
              <g transform="translate(31.08,58.89)" id="img-f55280cf-44">
                <path d="M-0.27,-0 L 0.27 -0 0.27 0 -0.27 0 z" class="primitive"/>
              </g>
              <g transform="translate(31.57,57.85)" id="img-f55280cf-45">
                <path d="M-0.27,-1.04 L 0.27 -1.04 0.27 1.04 -0.27 1.04 z" class="primitive"/>
              </g>
              <g transform="translate(32.06,56.81)" id="img-f55280cf-46">
                <path d="M-0.27,-2.08 L 0.27 -2.08 0.27 2.08 -0.27 2.08 z" class="primitive"/>
              </g>
              <g transform="translate(32.56,56.81)" id="img-f55280cf-47">
                <path d="M-0.27,-2.08 L 0.27 -2.08 0.27 2.08 -0.27 2.08 z" class="primitive"/>
              </g>
              <g transform="translate(33.05,58.37)" id="img-f55280cf-48">
                <path d="M-0.27,-0.52 L 0.27 -0.52 0.27 0.52 -0.27 0.52 z" class="primitive"/>
              </g>
              <g transform="translate(33.54,57.33)" id="img-f55280cf-49">
                <path d="M-0.27,-1.56 L 0.27 -1.56 0.27 1.56 -0.27 1.56 z" class="primitive"/>
              </g>
              <g transform="translate(34.04,58.37)" id="img-f55280cf-50">
                <path d="M-0.27,-0.52 L 0.27 -0.52 0.27 0.52 -0.27 0.52 z" class="primitive"/>
              </g>
              <g transform="translate(34.53,57.33)" id="img-f55280cf-51">
                <path d="M-0.27,-1.56 L 0.27 -1.56 0.27 1.56 -0.27 1.56 z" class="primitive"/>
              </g>
              <g transform="translate(35.02,57.85)" id="img-f55280cf-52">
                <path d="M-0.27,-1.04 L 0.27 -1.04 0.27 1.04 -0.27 1.04 z" class="primitive"/>
              </g>
              <g transform="translate(35.51,56.81)" id="img-f55280cf-53">
                <path d="M-0.27,-2.08 L 0.27 -2.08 0.27 2.08 -0.27 2.08 z" class="primitive"/>
              </g>
              <g transform="translate(36.01,57.33)" id="img-f55280cf-54">
                <path d="M-0.27,-1.56 L 0.27 -1.56 0.27 1.56 -0.27 1.56 z" class="primitive"/>
              </g>
              <g transform="translate(36.5,54.74)" id="img-f55280cf-55">
                <path d="M-0.27,-4.15 L 0.27 -4.15 0.27 4.15 -0.27 4.15 z" class="primitive"/>
              </g>
              <g transform="translate(36.99,55.25)" id="img-f55280cf-56">
                <path d="M-0.27,-3.63 L 0.27 -3.63 0.27 3.63 -0.27 3.63 z" class="primitive"/>
              </g>
              <g transform="translate(37.49,55.77)" id="img-f55280cf-57">
                <path d="M-0.27,-3.11 L 0.27 -3.11 0.27 3.11 -0.27 3.11 z" class="primitive"/>
              </g>
              <g transform="translate(37.98,52.14)" id="img-f55280cf-58">
                <path d="M-0.27,-6.75 L 0.27 -6.75 0.27 6.75 -0.27 6.75 z" class="primitive"/>
              </g>
              <g transform="translate(38.47,56.29)" id="img-f55280cf-59">
                <path d="M-0.27,-2.59 L 0.27 -2.59 0.27 2.59 -0.27 2.59 z" class="primitive"/>
              </g>
              <g transform="translate(38.97,56.29)" id="img-f55280cf-60">
                <path d="M-0.27,-2.59 L 0.27 -2.59 0.27 2.59 -0.27 2.59 z" class="primitive"/>
              </g>
              <g transform="translate(39.46,54.22)" id="img-f55280cf-61">
                <path d="M-0.27,-4.67 L 0.27 -4.67 0.27 4.67 -0.27 4.67 z" class="primitive"/>
              </g>
              <g transform="translate(39.95,53.7)" id="img-f55280cf-62">
                <path d="M-0.27,-5.19 L 0.27 -5.19 0.27 5.19 -0.27 5.19 z" class="primitive"/>
              </g>
              <g transform="translate(40.45,52.14)" id="img-f55280cf-63">
                <path d="M-0.27,-6.75 L 0.27 -6.75 0.27 6.75 -0.27 6.75 z" class="primitive"/>
              </g>
              <g transform="translate(40.94,53.18)" id="img-f55280cf-64">
                <path d="M-0.27,-5.71 L 0.27 -5.71 0.27 5.71 -0.27 5.71 z" class="primitive"/>
              </g>
              <g transform="translate(41.43,51.1)" id="img-f55280cf-65">
                <path d="M-0.27,-7.78 L 0.27 -7.78 0.27 7.78 -0.27 7.78 z" class="primitive"/>
              </g>
              <g transform="translate(41.92,49.03)" id="img-f55280cf-66">
                <path d="M-0.27,-9.86 L 0.27 -9.86 0.27 9.86 -0.27 9.86 z" class="primitive"/>
              </g>
              <g transform="translate(42.42,44.36)" id="img-f55280cf-67">
                <path d="M-0.27,-14.53 L 0.27 -14.53 0.27 14.53 -0.27 14.53 z" class="primitive"/>
              </g>
              <g transform="translate(42.91,47.47)" id="img-f55280cf-68">
                <path d="M-0.27,-11.42 L 0.27 -11.42 0.27 11.42 -0.27 11.42 z" class="primitive"/>
              </g>
              <g transform="translate(43.4,52.14)" id="img-f55280cf-69">
                <path d="M-0.27,-6.75 L 0.27 -6.75 0.27 6.75 -0.27 6.75 z" class="primitive"/>
              </g>
              <g transform="translate(43.9,46.95)" id="img-f55280cf-70">
                <path d="M-0.27,-11.93 L 0.27 -11.93 0.27 11.93 -0.27 11.93 z" class="primitive"/>
              </g>
              <g transform="translate(44.39,43.84)" id="img-f55280cf-71">
                <path d="M-0.27,-15.05 L 0.27 -15.05 0.27 15.05 -0.27 15.05 z" class="primitive"/>
              </g>
              <g transform="translate(44.88,41.25)" id="img-f55280cf-72">
                <path d="M-0.27,-17.64 L 0.27 -17.64 0.27 17.64 -0.27 17.64 z" class="primitive"/>
              </g>
              <g transform="translate(45.38,44.36)" id="img-f55280cf-73">
                <path d="M-0.27,-14.53 L 0.27 -14.53 0.27 14.53 -0.27 14.53 z" class="primitive"/>
              </g>
              <g transform="translate(45.87,49.55)" id="img-f55280cf-74">
                <path d="M-0.27,-9.34 L 0.27 -9.34 0.27 9.34 -0.27 9.34 z" class="primitive"/>
              </g>
              <g transform="translate(46.36,42.8)" id="img-f55280cf-75">
                <path d="M-0.27,-16.08 L 0.27 -16.08 0.27 16.08 -0.27 16.08 z" class="primitive"/>
              </g>
              <g transform="translate(46.85,44.36)" id="img-f55280cf-76">
                <path d="M-0.27,-14.53 L 0.27 -14.53 0.27 14.53 -0.27 14.53 z" class="primitive"/>
              </g>
              <g transform="translate(47.35,45.92)" id="img-f55280cf-77">
                <path d="M-0.27,-12.97 L 0.27 -12.97 0.27 12.97 -0.27 12.97 z" class="primitive"/>
              </g>
              <g transform="translate(47.84,49.03)" id="img-f55280cf-78">
                <path d="M-0.27,-9.86 L 0.27 -9.86 0.27 9.86 -0.27 9.86 z" class="primitive"/>
              </g>
              <g transform="translate(48.33,47.99)" id="img-f55280cf-79">
                <path d="M-0.27,-10.9 L 0.27 -10.9 0.27 10.9 -0.27 10.9 z" class="primitive"/>
              </g>
              <g transform="translate(48.83,38.65)" id="img-f55280cf-80">
                <path d="M-0.27,-20.24 L 0.27 -20.24 0.27 20.24 -0.27 20.24 z" class="primitive"/>
              </g>
              <g transform="translate(49.32,36.06)" id="img-f55280cf-81">
                <path d="M-0.27,-22.83 L 0.27 -22.83 0.27 22.83 -0.27 22.83 z" class="primitive"/>
              </g>
              <g transform="translate(49.81,48.51)" id="img-f55280cf-82">
                <path d="M-0.27,-10.38 L 0.27 -10.38 0.27 10.38 -0.27 10.38 z" class="primitive"/>
              </g>
              <g transform="translate(50.31,45.4)" id="img-f55280cf-83">
                <path d="M-0.27,-13.49 L 0.27 -13.49 0.27 13.49 -0.27 13.49 z" class="primitive"/>
              </g>
              <g transform="translate(50.8,45.4)" id="img-f55280cf-84">
                <path d="M-0.27,-13.49 L 0.27 -13.49 0.27 13.49 -0.27 13.49 z" class="primitive"/>
              </g>
              <g transform="translate(51.29,44.88)" id="img-f55280cf-85">
                <path d="M-0.27,-14.01 L 0.27 -14.01 0.27 14.01 -0.27 14.01 z" class="primitive"/>
              </g>
              <g transform="translate(51.79,46.95)" id="img-f55280cf-86">
                <path d="M-0.27,-11.93 L 0.27 -11.93 0.27 11.93 -0.27 11.93 z" class="primitive"/>
              </g>
              <g transform="translate(52.28,45.92)" id="img-f55280cf-87">
                <path d="M-0.27,-12.97 L 0.27 -12.97 0.27 12.97 -0.27 12.97 z" class="primitive"/>
              </g>
              <g transform="translate(52.77,45.92)" id="img-f55280cf-88">
                <path d="M-0.27,-12.97 L 0.27 -12.97 0.27 12.97 -0.27 12.97 z" class="primitive"/>
              </g>
              <g transform="translate(53.26,46.43)" id="img-f55280cf-89">
                <path d="M-0.27,-12.45 L 0.27 -12.45 0.27 12.45 -0.27 12.45 z" class="primitive"/>
              </g>
              <g transform="translate(53.76,51.1)" id="img-f55280cf-90">
                <path d="M-0.27,-7.78 L 0.27 -7.78 0.27 7.78 -0.27 7.78 z" class="primitive"/>
              </g>
              <g transform="translate(54.25,45.4)" id="img-f55280cf-91">
                <path d="M-0.27,-13.49 L 0.27 -13.49 0.27 13.49 -0.27 13.49 z" class="primitive"/>
              </g>
              <g transform="translate(54.74,50.58)" id="img-f55280cf-92">
                <path d="M-0.27,-8.3 L 0.27 -8.3 0.27 8.3 -0.27 8.3 z" class="primitive"/>
              </g>
              <g transform="translate(55.24,50.58)" id="img-f55280cf-93">
                <path d="M-0.27,-8.3 L 0.27 -8.3 0.27 8.3 -0.27 8.3 z" class="primitive"/>
              </g>
              <g transform="translate(55.73,49.03)" id="img-f55280cf-94">
                <path d="M-0.27,-9.86 L 0.27 -9.86 0.27 9.86 -0.27 9.86 z" class="primitive"/>
              </g>
              <g transform="translate(56.22,50.58)" id="img-f55280cf-95">
                <path d="M-0.27,-8.3 L 0.27 -8.3 0.27 8.3 -0.27 8.3 z" class="primitive"/>
              </g>
              <g transform="translate(56.72,49.55)" id="img-f55280cf-96">
                <path d="M-0.27,-9.34 L 0.27 -9.34 0.27 9.34 -0.27 9.34 z" class="primitive"/>
              </g>
              <g transform="translate(57.21,50.07)" id="img-f55280cf-97">
                <path d="M-0.27,-8.82 L 0.27 -8.82 0.27 8.82 -0.27 8.82 z" class="primitive"/>
              </g>
              <g transform="translate(57.7,51.62)" id="img-f55280cf-98">
                <path d="M-0.27,-7.26 L 0.27 -7.26 0.27 7.26 -0.27 7.26 z" class="primitive"/>
              </g>
              <g transform="translate(58.19,54.74)" id="img-f55280cf-99">
                <path d="M-0.27,-4.15 L 0.27 -4.15 0.27 4.15 -0.27 4.15 z" class="primitive"/>
              </g>
              <g transform="translate(58.69,55.25)" id="img-f55280cf-100">
                <path d="M-0.27,-3.63 L 0.27 -3.63 0.27 3.63 -0.27 3.63 z" class="primitive"/>
              </g>
              <g transform="translate(59.18,54.74)" id="img-f55280cf-101">
                <path d="M-0.27,-4.15 L 0.27 -4.15 0.27 4.15 -0.27 4.15 z" class="primitive"/>
              </g>
              <g transform="translate(59.67,55.25)" id="img-f55280cf-102">
                <path d="M-0.27,-3.63 L 0.27 -3.63 0.27 3.63 -0.27 3.63 z" class="primitive"/>
              </g>
              <g transform="translate(60.17,52.66)" id="img-f55280cf-103">
                <path d="M-0.27,-6.23 L 0.27 -6.23 0.27 6.23 -0.27 6.23 z" class="primitive"/>
              </g>
              <g transform="translate(60.66,54.74)" id="img-f55280cf-104">
                <path d="M-0.27,-4.15 L 0.27 -4.15 0.27 4.15 -0.27 4.15 z" class="primitive"/>
              </g>
              <g transform="translate(61.15,57.33)" id="img-f55280cf-105">
                <path d="M-0.27,-1.56 L 0.27 -1.56 0.27 1.56 -0.27 1.56 z" class="primitive"/>
              </g>
              <g transform="translate(61.65,56.81)" id="img-f55280cf-106">
                <path d="M-0.27,-2.08 L 0.27 -2.08 0.27 2.08 -0.27 2.08 z" class="primitive"/>
              </g>
              <g transform="translate(62.14,56.29)" id="img-f55280cf-107">
                <path d="M-0.27,-2.59 L 0.27 -2.59 0.27 2.59 -0.27 2.59 z" class="primitive"/>
              </g>
              <g transform="translate(62.63,55.77)" id="img-f55280cf-108">
                <path d="M-0.27,-3.11 L 0.27 -3.11 0.27 3.11 -0.27 3.11 z" class="primitive"/>
              </g>
              <g transform="translate(63.13,54.74)" id="img-f55280cf-109">
                <path d="M-0.27,-4.15 L 0.27 -4.15 0.27 4.15 -0.27 4.15 z" class="primitive"/>
              </g>
              <g transform="translate(63.62,57.33)" id="img-f55280cf-110">
                <path d="M-0.27,-1.56 L 0.27 -1.56 0.27 1.56 -0.27 1.56 z" class="primitive"/>
              </g>
              <g transform="translate(64.11,58.89)" id="img-f55280cf-111">
                <path d="M-0.27,-0 L 0.27 -0 0.27 0 -0.27 0 z" class="primitive"/>
              </g>
              <g transform="translate(64.6,57.85)" id="img-f55280cf-112">
                <path d="M-0.27,-1.04 L 0.27 -1.04 0.27 1.04 -0.27 1.04 z" class="primitive"/>
              </g>
              <g transform="translate(65.1,58.37)" id="img-f55280cf-113">
                <path d="M-0.27,-0.52 L 0.27 -0.52 0.27 0.52 -0.27 0.52 z" class="primitive"/>
              </g>
              <g transform="translate(65.59,57.33)" id="img-f55280cf-114">
                <path d="M-0.27,-1.56 L 0.27 -1.56 0.27 1.56 -0.27 1.56 z" class="primitive"/>
              </g>
              <g transform="translate(66.08,58.37)" id="img-f55280cf-115">
                <path d="M-0.27,-0.52 L 0.27 -0.52 0.27 0.52 -0.27 0.52 z" class="primitive"/>
              </g>
              <g transform="translate(66.58,58.89)" id="img-f55280cf-116">
                <path d="M-0.27,-0 L 0.27 -0 0.27 0 -0.27 0 z" class="primitive"/>
              </g>
              <g transform="translate(67.07,58.37)" id="img-f55280cf-117">
                <path d="M-0.27,-0.52 L 0.27 -0.52 0.27 0.52 -0.27 0.52 z" class="primitive"/>
              </g>
              <g transform="translate(67.56,58.89)" id="img-f55280cf-118">
                <path d="M-0.27,-0 L 0.27 -0 0.27 0 -0.27 0 z" class="primitive"/>
              </g>
              <g transform="translate(68.06,58.89)" id="img-f55280cf-119">
                <path d="M-0.27,-0 L 0.27 -0 0.27 0 -0.27 0 z" class="primitive"/>
              </g>
              <g transform="translate(68.55,58.37)" id="img-f55280cf-120">
                <path d="M-0.27,-0.52 L 0.27 -0.52 0.27 0.52 -0.27 0.52 z" class="primitive"/>
              </g>
              <g transform="translate(69.04,58.89)" id="img-f55280cf-121">
                <path d="M-0.27,-0 L 0.27 -0 0.27 0 -0.27 0 z" class="primitive"/>
              </g>
              <g transform="translate(69.53,58.37)" id="img-f55280cf-122">
                <path d="M-0.27,-0.52 L 0.27 -0.52 0.27 0.52 -0.27 0.52 z" class="primitive"/>
              </g>
              <g transform="translate(70.03,58.89)" id="img-f55280cf-123">
                <path d="M-0.27,-0 L 0.27 -0 0.27 0 -0.27 0 z" class="primitive"/>
              </g>
              <g transform="translate(70.52,58.89)" id="img-f55280cf-124">
                <path d="M-0.27,-0 L 0.27 -0 0.27 0 -0.27 0 z" class="primitive"/>
              </g>
              <g transform="translate(71.01,58.37)" id="img-f55280cf-125">
                <path d="M-0.27,-0.52 L 0.27 -0.52 0.27 0.52 -0.27 0.52 z" class="primitive"/>
              </g>
              <g transform="translate(71.51,58.89)" id="img-f55280cf-126">
                <path d="M-0.27,-0 L 0.27 -0 0.27 0 -0.27 0 z" class="primitive"/>
              </g>
              <g transform="translate(72,58.89)" id="img-f55280cf-127">
                <path d="M-0.27,-0 L 0.27 -0 0.27 0 -0.27 0 z" class="primitive"/>
              </g>
              <g transform="translate(72.49,58.89)" id="img-f55280cf-128">
                <path d="M-0.27,-0 L 0.27 -0 0.27 0 -0.27 0 z" class="primitive"/>
              </g>
              <g transform="translate(72.99,58.89)" id="img-f55280cf-129">
                <path d="M-0.27,-0 L 0.27 -0 0.27 0 -0.27 0 z" class="primitive"/>
              </g>
              <g transform="translate(73.48,58.37)" id="img-f55280cf-130">
                <path d="M-0.27,-0.52 L 0.27 -0.52 0.27 0.52 -0.27 0.52 z" class="primitive"/>
              </g>
              <g transform="translate(73.97,58.89)" id="img-f55280cf-131">
                <path d="M-0.27,-0 L 0.27 -0 0.27 0 -0.27 0 z" class="primitive"/>
              </g>
              <g transform="translate(74.47,58.37)" id="img-f55280cf-132">
                <path d="M-0.27,-0.52 L 0.27 -0.52 0.27 0.52 -0.27 0.52 z" class="primitive"/>
              </g>
            </g>
          </g>
        </g>
      </g>
    </g>
  </g>
  <g class="guide ylabels" font-size="2.82" font-family="'PT Sans Caption','Helvetica Neue','Helvetica',sans-serif" fill="#6C606B" id="img-f55280cf-133">
    <g transform="translate(16.96,58.89)" id="img-f55280cf-134">
      <g class="primitive">
        <text text-anchor="end" dy="0.35em">0</text>
      </g>
    </g>
    <g transform="translate(16.96,48.51)" id="img-f55280cf-135">
      <g class="primitive">
        <text text-anchor="end" dy="0.35em">10</text>
      </g>
    </g>
    <g transform="translate(16.96,38.13)" id="img-f55280cf-136">
      <g class="primitive">
        <text text-anchor="end" dy="0.35em">20</text>
      </g>
    </g>
    <g transform="translate(16.96,27.75)" id="img-f55280cf-137">
      <g class="primitive">
        <text text-anchor="end" dy="0.35em">30</text>
      </g>
    </g>
    <g transform="translate(16.96,17.38)" id="img-f55280cf-138">
      <g class="primitive">
        <text text-anchor="end" dy="0.35em">40</text>
      </g>
    </g>
    <g transform="translate(16.96,7)" id="img-f55280cf-139">
      <g class="primitive">
        <text text-anchor="end" dy="0.35em">50</text>
      </g>
    </g>
  </g>
  <g font-size="3.88" font-family="'PT Sans','Helvetica Neue','Helvetica',sans-serif" fill="#564A55" stroke="#000000" stroke-opacity="0.000" id="img-f55280cf-140">
    <g transform="translate(8.81,30.94)" id="img-f55280cf-141">
      <g class="primitive">
        <text text-anchor="middle" dy="0.35em" transform="rotate(-90,0, 2)">frequency</text>
      </g>
    </g>
  </g>
</g>
<defs>
  <clipPath id="img-f55280cf-11">
    <path d="M17.96,5 L 77.87 5 77.87 60.89 17.96 60.89" />
  </clipPath>
</defs>
</svg>
