<?xml version="1.0" encoding="UTF-8"?>
<svg xmlns="http://www.w3.org/2000/svg"
     xmlns:xlink="http://www.w3.org/1999/xlink"
     xmlns:gadfly="http://www.gadflyjl.org/ns"
     version="1.2"
     width="141.42mm" height="100mm" viewBox="0 0 141.42 100"
     stroke="none"
     fill="#000000"
     stroke-width="0.3"
     font-size="3.88"
>
<defs>
  <marker id="arrow" markerWidth="15" markerHeight="7" refX="5" refY="3.5" orient="auto" markerUnits="strokeWidth">
    <path d="M0,0 L15,3.5 L0,7 z" stroke="context-stroke" fill="context-stroke"/>
  </marker>
</defs>
<g class="plotroot xscalable yscalable" id="img-c937dda9-1">
  <g class="guide xlabels" font-size="2.82" font-family="'PT Sans Caption','Helvetica Neue','Helvetica',sans-serif" fill="#6C606B" id="img-c937dda9-2">
    <g transform="translate(19.96,80.21)">
      <g class="primitive">
        <text text-anchor="end" dy="0.35em" transform="rotate(-90,0, 0)">8.50×10⁵</text>
      </g>
    </g>
    <g transform="translate(34.43,80.21)">
      <g class="primitive">
        <text text-anchor="end" dy="0.35em" transform="rotate(-90,0, 0)">9.00×10⁵</text>
      </g>
    </g>
    <g transform="translate(48.91,80.21)">
      <g class="primitive">
        <text text-anchor="end" dy="0.35em" transform="rotate(-90,0, 0)">9.50×10⁵</text>
      </g>
    </g>
    <g transform="translate(63.39,80.21)">
      <g class="primitive">
        <text text-anchor="end" dy="0.35em" transform="rotate(-90,0, 0)">1.00×10⁶</text>
      </g>
    </g>
    <g transform="translate(77.86,80.21)">
      <g class="primitive">
        <text text-anchor="end" dy="0.35em" transform="rotate(-90,0, 0)">1.05×10⁶</text>
      </g>
    </g>
  </g>
  <g class="guide colorkey" id="img-c937dda9-3">
    <g class="color_coding_noncoding_coding_noncoding_4-tail" id="img-c937dda9-4">
      <g fill="#4C404B" font-size="2.82" font-family="'PT Sans','Helvetica Neue','Helvetica',sans-serif" id="img-c937dda9-5">
        <g transform="translate(83.67,43.92)" id="img-c937dda9-6">
          <g class="primitive">
            <text dy="0.35em">coding_noncoding_coding_noncoding_4-tail</text>
          </g>
        </g>
      </g>
      <g fill-opacity="1" fill="#00BFFF" stroke="#FFFFFF" id="img-c937dda9-7">
        <g transform="translate(81.77,43.92)" id="img-c937dda9-8">
          <path d="M-0.91,-0.91 L 0.91 -0.91 0.91 0.91 -0.91 0.91 z" class="primitive"/>
        </g>
      </g>
    </g>
    <g fill="#362A35" font-size="3.88" font-family="'PT Sans','Helvetica Neue','Helvetica',sans-serif" stroke="#000000" stroke-opacity="0.000" id="img-c937dda9-9">
      <g transform="translate(80.86,40.1)" id="img-c937dda9-10">
        <g class="primitive">
          <text dy="-0em">graphlet</text>
        </g>
      </g>
    </g>
  </g>
  <g clip-path="url(#img-c937dda9-11)">
    <g id="img-c937dda9-12">
      <g pointer-events="visible" stroke-width="0.3" fill="#000000" fill-opacity="0.000" stroke="#000000" stroke-opacity="0.000" class="guide background" id="img-c937dda9-13">
        <g transform="translate(48.91,42.11)" id="img-c937dda9-14">
          <path d="M-30.95,-37.11 L 30.95 -37.11 30.95 37.11 -30.95 37.11 z" class="primitive"/>
        </g>
      </g>
      <g class="guide ygridlines xfixed" stroke-dasharray="0.5,0.5" stroke-width="0.2" stroke="#D0D0E0" id="img-c937dda9-15">
        <g transform="translate(48.91,77.21)" id="img-c937dda9-16">
          <path fill="none" d="M-30.95,0 L 30.95 0" class="primitive"/>
        </g>
        <g transform="translate(48.91,59.66)" id="img-c937dda9-17">
          <path fill="none" d="M-30.95,0 L 30.95 0" class="primitive"/>
        </g>
        <g transform="translate(48.91,42.11)" id="img-c937dda9-18">
          <path fill="none" d="M-30.95,0 L 30.95 0" class="primitive"/>
        </g>
        <g transform="translate(48.91,24.55)" id="img-c937dda9-19">
          <path fill="none" d="M-30.95,0 L 30.95 0" class="primitive"/>
        </g>
        <g transform="translate(48.91,7)" id="img-c937dda9-20">
          <path fill="none" d="M-30.95,0 L 30.95 0" class="primitive"/>
        </g>
      </g>
      <g class="guide xgridlines yfixed" stroke-dasharray="0.5,0.5" stroke-width="0.2" stroke="#D0D0E0" id="img-c937dda9-21">
        <g transform="translate(19.96,42.11)" id="img-c937dda9-22">
          <path fill="none" d="M0,-37.11 L 0 37.11" class="primitive"/>
        </g>
        <g transform="translate(34.43,42.11)" id="img-c937dda9-23">
          <path fill="none" d="M0,-37.11 L 0 37.11" class="primitive"/>
        </g>
        <g transform="translate(48.91,42.11)" id="img-c937dda9-24">
          <path fill="none" d="M0,-37.11 L 0 37.11" class="primitive"/>
        </g>
        <g transform="translate(63.39,42.11)" id="img-c937dda9-25">
          <path fill="none" d="M0,-37.11 L 0 37.11" class="primitive"/>
        </g>
        <g transform="translate(77.86,42.11)" id="img-c937dda9-26">
          <path fill="none" d="M0,-37.11 L 0 37.11" class="primitive"/>
        </g>
      </g>
      <g class="plotpanel" id="img-c937dda9-27">
        <metadata>
          <boundingbox value="17.958333333333336mm 5.0mm 61.903022903976186mm 74.21333333333334mm"/>
          <unitbox value="843091.8977984389 41.13938473224459 213816.20440312216 -42.27876946448917"/>
        </metadata>
        <g shape-rendering="crispEdges" stroke-width="0.3" id="img-c937dda9-28">
          <g stroke="#000000" stroke-opacity="0.000" class="geometry" id="img-c937dda9-29">
            <g fill="#00BFFF" id="img-c937dda9-30">
              <g transform="translate(23.69,76.34)" id="img-c937dda9-31">
                <path d="M-0.29,-0.88 L 0.29 -0.88 0.29 0.88 -0.29 0.88 z" class="primitive"/>
              </g>
              <g transform="translate(24.22,77.22)" id="img-c937dda9-32">
                <path d="M-0.29,-0 L 0.29 -0 0.29 0 -0.29 0 z" class="primitive"/>
              </g>
              <g transform="translate(24.75,77.22)" id="img-c937dda9-33">
                <path d="M-0.29,-0 L 0.29 -0 0.29 0 -0.29 0 z" class="primitive"/>
              </g>
              <g transform="translate(25.29,75.46)" id="img-c937dda9-34">
                <path d="M-0.29,-1.76 L 0.29 -1.76 0.29 1.76 -0.29 1.76 z" class="primitive"/>
              </g>
              <g transform="translate(25.82,77.22)" id="img-c937dda9-35">
                <path d="M-0.29,-0 L 0.29 -0 0.29 0 -0.29 0 z" class="primitive"/>
              </g>
              <g transform="translate(26.36,77.22)" id="img-c937dda9-36">
                <path d="M-0.29,-0 L 0.29 -0 0.29 0 -0.29 0 z" class="primitive"/>
              </g>
              <g transform="translate(26.89,76.34)" id="img-c937dda9-37">
                <path d="M-0.29,-0.88 L 0.29 -0.88 0.29 0.88 -0.29 0.88 z" class="primitive"/>
              </g>
              <g transform="translate(27.43,76.34)" id="img-c937dda9-38">
                <path d="M-0.29,-0.88 L 0.29 -0.88 0.29 0.88 -0.29 0.88 z" class="primitive"/>
              </g>
              <g transform="translate(27.96,77.22)" id="img-c937dda9-39">
                <path d="M-0.29,-0 L 0.29 -0 0.29 0 -0.29 0 z" class="primitive"/>
              </g>
              <g transform="translate(28.5,77.22)" id="img-c937dda9-40">
                <path d="M-0.29,-0 L 0.29 -0 0.29 0 -0.29 0 z" class="primitive"/>
              </g>
              <g transform="translate(29.03,77.22)" id="img-c937dda9-41">
                <path d="M-0.29,-0 L 0.29 -0 0.29 0 -0.29 0 z" class="primitive"/>
              </g>
              <g transform="translate(29.57,74.58)" id="img-c937dda9-42">
                <path d="M-0.29,-2.63 L 0.29 -2.63 0.29 2.63 -0.29 2.63 z" class="primitive"/>
              </g>
              <g transform="translate(30.1,77.22)" id="img-c937dda9-43">
                <path d="M-0.29,-0 L 0.29 -0 0.29 0 -0.29 0 z" class="primitive"/>
              </g>
              <g transform="translate(30.64,74.58)" id="img-c937dda9-44">
                <path d="M-0.29,-2.63 L 0.29 -2.63 0.29 2.63 -0.29 2.63 z" class="primitive"/>
              </g>
              <g transform="translate(31.17,77.22)" id="img-c937dda9-45">
                <path d="M-0.29,-0 L 0.29 -0 0.29 0 -0.29 0 z" class="primitive"/>
              </g>
              <g transform="translate(31.71,77.22)" id="img-c937dda9-46">
                <path d="M-0.29,-0 L 0.29 -0 0.29 0 -0.29 0 z" class="primitive"/>
              </g>
              <g transform="translate(32.24,75.46)" id="img-c937dda9-47">
                <path d="M-0.29,-1.76 L 0.29 -1.76 0.29 1.76 -0.29 1.76 z" class="primitive"/>
              </g>
              <g transform="translate(32.78,76.34)" id="img-c937dda9-48">
                <path d="M-0.29,-0.88 L 0.29 -0.88 0.29 0.88 -0.29 0.88 z" class="primitive"/>
              </g>
              <g transform="translate(33.31,74.58)" id="img-c937dda9-49">
                <path d="M-0.29,-2.63 L 0.29 -2.63 0.29 2.63 -0.29 2.63 z" class="primitive"/>
              </g>
              <g transform="translate(33.84,75.46)" id="img-c937dda9-50">
                <path d="M-0.29,-1.76 L 0.29 -1.76 0.29 1.76 -0.29 1.76 z" class="primitive"/>
              </g>
              <g transform="translate(34.38,74.58)" id="img-c937dda9-51">
                <path d="M-0.29,-2.63 L 0.29 -2.63 0.29 2.63 -0.29 2.63 z" class="primitive"/>
              </g>
              <g transform="translate(34.91,74.58)" id="img-c937dda9-52">
                <path d="M-0.29,-2.63 L 0.29 -2.63 0.29 2.63 -0.29 2.63 z" class="primitive"/>
              </g>
              <g transform="translate(35.45,74.58)" id="img-c937dda9-53">
                <path d="M-0.29,-2.63 L 0.29 -2.63 0.29 2.63 -0.29 2.63 z" class="primitive"/>
              </g>
              <g transform="translate(35.98,71.95)" id="img-c937dda9-54">
                <path d="M-0.29,-5.27 L 0.29 -5.27 0.29 5.27 -0.29 5.27 z" class="primitive"/>
              </g>
              <g transform="translate(36.52,69.31)" id="img-c937dda9-55">
                <path d="M-0.29,-7.9 L 0.29 -7.9 0.29 7.9 -0.29 7.9 z" class="primitive"/>
              </g>
              <g transform="translate(37.05,72.82)" id="img-c937dda9-56">
                <path d="M-0.29,-4.39 L 0.29 -4.39 0.29 4.39 -0.29 4.39 z" class="primitive"/>
              </g>
              <g transform="translate(37.59,73.7)" id="img-c937dda9-57">
                <path d="M-0.29,-3.51 L 0.29 -3.51 0.29 3.51 -0.29 3.51 z" class="primitive"/>
              </g>
              <g transform="translate(38.12,72.82)" id="img-c937dda9-58">
                <path d="M-0.29,-4.39 L 0.29 -4.39 0.29 4.39 -0.29 4.39 z" class="primitive"/>
              </g>
              <g transform="translate(38.66,72.82)" id="img-c937dda9-59">
                <path d="M-0.29,-4.39 L 0.29 -4.39 0.29 4.39 -0.29 4.39 z" class="primitive"/>
              </g>
              <g transform="translate(39.19,72.82)" id="img-c937dda9-60">
                <path d="M-0.29,-4.39 L 0.29 -4.39 0.29 4.39 -0.29 4.39 z" class="primitive"/>
              </g>
              <g transform="translate(39.73,64.05)" id="img-c937dda9-61">
                <path d="M-0.29,-13.17 L 0.29 -13.17 0.29 13.17 -0.29 13.17 z" class="primitive"/>
              </g>
              <g transform="translate(40.26,64.93)" id="img-c937dda9-62">
                <path d="M-0.29,-12.29 L 0.29 -12.29 0.29 12.29 -0.29 12.29 z" class="primitive"/>
              </g>
              <g transform="translate(40.8,65.8)" id="img-c937dda9-63">
                <path d="M-0.29,-11.41 L 0.29 -11.41 0.29 11.41 -0.29 11.41 z" class="primitive"/>
              </g>
              <g transform="translate(41.33,61.42)" id="img-c937dda9-64">
                <path d="M-0.29,-15.8 L 0.29 -15.8 0.29 15.8 -0.29 15.8 z" class="primitive"/>
              </g>
              <g transform="translate(41.87,69.31)" id="img-c937dda9-65">
                <path d="M-0.29,-7.9 L 0.29 -7.9 0.29 7.9 -0.29 7.9 z" class="primitive"/>
              </g>
              <g transform="translate(42.4,67.56)" id="img-c937dda9-66">
                <path d="M-0.29,-9.65 L 0.29 -9.65 0.29 9.65 -0.29 9.65 z" class="primitive"/>
              </g>
              <g transform="translate(42.93,67.56)" id="img-c937dda9-67">
                <path d="M-0.29,-9.65 L 0.29 -9.65 0.29 9.65 -0.29 9.65 z" class="primitive"/>
              </g>
              <g transform="translate(43.47,64.05)" id="img-c937dda9-68">
                <path d="M-0.29,-13.17 L 0.29 -13.17 0.29 13.17 -0.29 13.17 z" class="primitive"/>
              </g>
              <g transform="translate(44,62.29)" id="img-c937dda9-69">
                <path d="M-0.29,-14.92 L 0.29 -14.92 0.29 14.92 -0.29 14.92 z" class="primitive"/>
              </g>
              <g transform="translate(44.54,55.27)" id="img-c937dda9-70">
                <path d="M-0.29,-21.94 L 0.29 -21.94 0.29 21.94 -0.29 21.94 z" class="primitive"/>
              </g>
              <g transform="translate(45.07,60.54)" id="img-c937dda9-71">
                <path d="M-0.29,-16.68 L 0.29 -16.68 0.29 16.68 -0.29 16.68 z" class="primitive"/>
              </g>
              <g transform="translate(45.61,48.25)" id="img-c937dda9-72">
                <path d="M-0.29,-28.96 L 0.29 -28.96 0.29 28.96 -0.29 28.96 z" class="primitive"/>
              </g>
              <g transform="translate(46.14,60.54)" id="img-c937dda9-73">
                <path d="M-0.29,-16.68 L 0.29 -16.68 0.29 16.68 -0.29 16.68 z" class="primitive"/>
              </g>
              <g transform="translate(46.68,58.78)" id="img-c937dda9-74">
                <path d="M-0.29,-18.43 L 0.29 -18.43 0.29 18.43 -0.29 18.43 z" class="primitive"/>
              </g>
              <g transform="translate(47.21,55.27)" id="img-c937dda9-75">
                <path d="M-0.29,-21.94 L 0.29 -21.94 0.29 21.94 -0.29 21.94 z" class="primitive"/>
              </g>
              <g transform="translate(47.75,59.66)" id="img-c937dda9-76">
                <path d="M-0.29,-17.55 L 0.29 -17.55 0.29 17.55 -0.29 17.55 z" class="primitive"/>
              </g>
              <g transform="translate(48.28,51.76)" id="img-c937dda9-77">
                <path d="M-0.29,-25.45 L 0.29 -25.45 0.29 25.45 -0.29 25.45 z" class="primitive"/>
              </g>
              <g transform="translate(48.82,60.54)" id="img-c937dda9-78">
                <path d="M-0.29,-16.68 L 0.29 -16.68 0.29 16.68 -0.29 16.68 z" class="primitive"/>
              </g>
              <g transform="translate(49.35,53.52)" id="img-c937dda9-79">
                <path d="M-0.29,-23.7 L 0.29 -23.7 0.29 23.7 -0.29 23.7 z" class="primitive"/>
              </g>
              <g transform="translate(49.89,57.03)" id="img-c937dda9-80">
                <path d="M-0.29,-20.19 L 0.29 -20.19 0.29 20.19 -0.29 20.19 z" class="primitive"/>
              </g>
              <g transform="translate(50.42,55.27)" id="img-c937dda9-81">
                <path d="M-0.29,-21.94 L 0.29 -21.94 0.29 21.94 -0.29 21.94 z" class="primitive"/>
              </g>
              <g transform="translate(50.96,54.39)" id="img-c937dda9-82">
                <path d="M-0.29,-22.82 L 0.29 -22.82 0.29 22.82 -0.29 22.82 z" class="primitive"/>
              </g>
              <g transform="translate(51.49,54.39)" id="img-c937dda9-83">
                <path d="M-0.29,-22.82 L 0.29 -22.82 0.29 22.82 -0.29 22.82 z" class="primitive"/>
              </g>
              <g transform="translate(52.02,51.76)" id="img-c937dda9-84">
                <path d="M-0.29,-25.45 L 0.29 -25.45 0.29 25.45 -0.29 25.45 z" class="primitive"/>
              </g>
              <g transform="translate(52.56,54.39)" id="img-c937dda9-85">
                <path d="M-0.29,-22.82 L 0.29 -22.82 0.29 22.82 -0.29 22.82 z" class="primitive"/>
              </g>
              <g transform="translate(53.09,57.03)" id="img-c937dda9-86">
                <path d="M-0.29,-20.19 L 0.29 -20.19 0.29 20.19 -0.29 20.19 z" class="primitive"/>
              </g>
              <g transform="translate(53.63,53.52)" id="img-c937dda9-87">
                <path d="M-0.29,-23.7 L 0.29 -23.7 0.29 23.7 -0.29 23.7 z" class="primitive"/>
              </g>
              <g transform="translate(54.16,56.15)" id="img-c937dda9-88">
                <path d="M-0.29,-21.06 L 0.29 -21.06 0.29 21.06 -0.29 21.06 z" class="primitive"/>
              </g>
              <g transform="translate(54.7,55.27)" id="img-c937dda9-89">
                <path d="M-0.29,-21.94 L 0.29 -21.94 0.29 21.94 -0.29 21.94 z" class="primitive"/>
              </g>
              <g transform="translate(55.23,57.9)" id="img-c937dda9-90">
                <path d="M-0.29,-19.31 L 0.29 -19.31 0.29 19.31 -0.29 19.31 z" class="primitive"/>
              </g>
              <g transform="translate(55.77,62.29)" id="img-c937dda9-91">
                <path d="M-0.29,-14.92 L 0.29 -14.92 0.29 14.92 -0.29 14.92 z" class="primitive"/>
              </g>
              <g transform="translate(56.3,53.52)" id="img-c937dda9-92">
                <path d="M-0.29,-23.7 L 0.29 -23.7 0.29 23.7 -0.29 23.7 z" class="primitive"/>
              </g>
              <g transform="translate(56.84,62.29)" id="img-c937dda9-93">
                <path d="M-0.29,-14.92 L 0.29 -14.92 0.29 14.92 -0.29 14.92 z" class="primitive"/>
              </g>
              <g transform="translate(57.37,58.78)" id="img-c937dda9-94">
                <path d="M-0.29,-18.43 L 0.29 -18.43 0.29 18.43 -0.29 18.43 z" class="primitive"/>
              </g>
              <g transform="translate(57.91,58.78)" id="img-c937dda9-95">
                <path d="M-0.29,-18.43 L 0.29 -18.43 0.29 18.43 -0.29 18.43 z" class="primitive"/>
              </g>
              <g transform="translate(58.44,58.78)" id="img-c937dda9-96">
                <path d="M-0.29,-18.43 L 0.29 -18.43 0.29 18.43 -0.29 18.43 z" class="primitive"/>
              </g>
              <g transform="translate(58.98,67.56)" id="img-c937dda9-97">
                <path d="M-0.29,-9.65 L 0.29 -9.65 0.29 9.65 -0.29 9.65 z" class="primitive"/>
              </g>
              <g transform="translate(59.51,63.17)" id="img-c937dda9-98">
                <path d="M-0.29,-14.04 L 0.29 -14.04 0.29 14.04 -0.29 14.04 z" class="primitive"/>
              </g>
              <g transform="translate(60.05,64.93)" id="img-c937dda9-99">
                <path d="M-0.29,-12.29 L 0.29 -12.29 0.29 12.29 -0.29 12.29 z" class="primitive"/>
              </g>
              <g transform="translate(60.58,65.8)" id="img-c937dda9-100">
                <path d="M-0.29,-11.41 L 0.29 -11.41 0.29 11.41 -0.29 11.41 z" class="primitive"/>
              </g>
              <g transform="translate(61.12,65.8)" id="img-c937dda9-101">
                <path d="M-0.29,-11.41 L 0.29 -11.41 0.29 11.41 -0.29 11.41 z" class="primitive"/>
              </g>
              <g transform="translate(61.65,66.68)" id="img-c937dda9-102">
                <path d="M-0.29,-10.53 L 0.29 -10.53 0.29 10.53 -0.29 10.53 z" class="primitive"/>
              </g>
              <g transform="translate(62.18,68.44)" id="img-c937dda9-103">
                <path d="M-0.29,-8.78 L 0.29 -8.78 0.29 8.78 -0.29 8.78 z" class="primitive"/>
              </g>
              <g transform="translate(62.72,71.07)" id="img-c937dda9-104">
                <path d="M-0.29,-6.14 L 0.29 -6.14 0.29 6.14 -0.29 6.14 z" class="primitive"/>
              </g>
              <g transform="translate(63.25,64.93)" id="img-c937dda9-105">
                <path d="M-0.29,-12.29 L 0.29 -12.29 0.29 12.29 -0.29 12.29 z" class="primitive"/>
              </g>
              <g transform="translate(63.79,73.7)" id="img-c937dda9-106">
                <path d="M-0.29,-3.51 L 0.29 -3.51 0.29 3.51 -0.29 3.51 z" class="primitive"/>
              </g>
              <g transform="translate(64.32,68.44)" id="img-c937dda9-107">
                <path d="M-0.29,-8.78 L 0.29 -8.78 0.29 8.78 -0.29 8.78 z" class="primitive"/>
              </g>
              <g transform="translate(64.86,74.58)" id="img-c937dda9-108">
                <path d="M-0.29,-2.63 L 0.29 -2.63 0.29 2.63 -0.29 2.63 z" class="primitive"/>
              </g>
              <g transform="translate(65.39,70.19)" id="img-c937dda9-109">
                <path d="M-0.29,-7.02 L 0.29 -7.02 0.29 7.02 -0.29 7.02 z" class="primitive"/>
              </g>
              <g transform="translate(65.93,71.07)" id="img-c937dda9-110">
                <path d="M-0.29,-6.14 L 0.29 -6.14 0.29 6.14 -0.29 6.14 z" class="primitive"/>
              </g>
              <g transform="translate(66.46,76.34)" id="img-c937dda9-111">
                <path d="M-0.29,-0.88 L 0.29 -0.88 0.29 0.88 -0.29 0.88 z" class="primitive"/>
              </g>
              <g transform="translate(67,71.95)" id="img-c937dda9-112">
                <path d="M-0.29,-5.27 L 0.29 -5.27 0.29 5.27 -0.29 5.27 z" class="primitive"/>
              </g>
              <g transform="translate(67.53,73.7)" id="img-c937dda9-113">
                <path d="M-0.29,-3.51 L 0.29 -3.51 0.29 3.51 -0.29 3.51 z" class="primitive"/>
              </g>
              <g transform="translate(68.07,73.7)" id="img-c937dda9-114">
                <path d="M-0.29,-3.51 L 0.29 -3.51 0.29 3.51 -0.29 3.51 z" class="primitive"/>
              </g>
              <g transform="translate(68.6,75.46)" id="img-c937dda9-115">
                <path d="M-0.29,-1.76 L 0.29 -1.76 0.29 1.76 -0.29 1.76 z" class="primitive"/>
              </g>
              <g transform="translate(69.14,77.22)" id="img-c937dda9-116">
                <path d="M-0.29,-0 L 0.29 -0 0.29 0 -0.29 0 z" class="primitive"/>
              </g>
              <g transform="translate(69.67,76.34)" id="img-c937dda9-117">
                <path d="M-0.29,-0.88 L 0.29 -0.88 0.29 0.88 -0.29 0.88 z" class="primitive"/>
              </g>
              <g transform="translate(70.21,74.58)" id="img-c937dda9-118">
                <path d="M-0.29,-2.63 L 0.29 -2.63 0.29 2.63 -0.29 2.63 z" class="primitive"/>
              </g>
              <g transform="translate(70.74,73.7)" id="img-c937dda9-119">
                <path d="M-0.29,-3.51 L 0.29 -3.51 0.29 3.51 -0.29 3.51 z" class="primitive"/>
              </g>
              <g transform="translate(71.27,77.22)" id="img-c937dda9-120">
                <path d="M-0.29,-0 L 0.29 -0 0.29 0 -0.29 0 z" class="primitive"/>
              </g>
              <g transform="translate(71.81,75.46)" id="img-c937dda9-121">
                <path d="M-0.29,-1.76 L 0.29 -1.76 0.29 1.76 -0.29 1.76 z" class="primitive"/>
              </g>
              <g transform="translate(72.34,77.22)" id="img-c937dda9-122">
                <path d="M-0.29,-0 L 0.29 -0 0.29 0 -0.29 0 z" class="primitive"/>
              </g>
              <g transform="translate(72.88,76.34)" id="img-c937dda9-123">
                <path d="M-0.29,-0.88 L 0.29 -0.88 0.29 0.88 -0.29 0.88 z" class="primitive"/>
              </g>
              <g transform="translate(73.41,76.34)" id="img-c937dda9-124">
                <path d="M-0.29,-0.88 L 0.29 -0.88 0.29 0.88 -0.29 0.88 z" class="primitive"/>
              </g>
              <g transform="translate(73.95,77.22)" id="img-c937dda9-125">
                <path d="M-0.29,-0 L 0.29 -0 0.29 0 -0.29 0 z" class="primitive"/>
              </g>
              <g transform="translate(74.48,77.22)" id="img-c937dda9-126">
                <path d="M-0.29,-0 L 0.29 -0 0.29 0 -0.29 0 z" class="primitive"/>
              </g>
              <g transform="translate(75.02,77.22)" id="img-c937dda9-127">
                <path d="M-0.29,-0 L 0.29 -0 0.29 0 -0.29 0 z" class="primitive"/>
              </g>
              <g transform="translate(75.55,77.22)" id="img-c937dda9-128">
                <path d="M-0.29,-0 L 0.29 -0 0.29 0 -0.29 0 z" class="primitive"/>
              </g>
              <g transform="translate(76.09,77.22)" id="img-c937dda9-129">
                <path d="M-0.29,-0 L 0.29 -0 0.29 0 -0.29 0 z" class="primitive"/>
              </g>
              <g transform="translate(76.62,75.46)" id="img-c937dda9-130">
                <path d="M-0.29,-1.76 L 0.29 -1.76 0.29 1.76 -0.29 1.76 z" class="primitive"/>
              </g>
            </g>
          </g>
        </g>
      </g>
    </g>
  </g>
  <g class="guide ylabels" font-size="2.82" font-family="'PT Sans Caption','Helvetica Neue','Helvetica',sans-serif" fill="#6C606B" id="img-c937dda9-131">
    <g transform="translate(16.96,77.21)" id="img-c937dda9-132">
      <g class="primitive">
        <text text-anchor="end" dy="0.35em">0</text>
      </g>
    </g>
    <g transform="translate(16.96,59.66)" id="img-c937dda9-133">
      <g class="primitive">
        <text text-anchor="end" dy="0.35em">10</text>
      </g>
    </g>
    <g transform="translate(16.96,42.11)" id="img-c937dda9-134">
      <g class="primitive">
        <text text-anchor="end" dy="0.35em">20</text>
      </g>
    </g>
    <g transform="translate(16.96,24.55)" id="img-c937dda9-135">
      <g class="primitive">
        <text text-anchor="end" dy="0.35em">30</text>
      </g>
    </g>
    <g transform="translate(16.96,7)" id="img-c937dda9-136">
      <g class="primitive">
        <text text-anchor="end" dy="0.35em">40</text>
      </g>
    </g>
  </g>
  <g font-size="3.88" font-family="'PT Sans','Helvetica Neue','Helvetica',sans-serif" fill="#564A55" stroke="#000000" stroke-opacity="0.000" id="img-c937dda9-137">
    <g transform="translate(8.81,40.11)" id="img-c937dda9-138">
      <g class="primitive">
        <text text-anchor="middle" dy="0.35em" transform="rotate(-90,0, 2)">frequency</text>
      </g>
    </g>
  </g>
</g>
<defs>
  <clipPath id="img-c937dda9-11">
    <path d="M17.96,5 L 79.86 5 79.86 79.21 17.96 79.21" />
  </clipPath>
</defs>
</svg>
