<?xml version="1.0" encoding="UTF-8"?>
<svg xmlns="http://www.w3.org/2000/svg"
     xmlns:xlink="http://www.w3.org/1999/xlink"
     xmlns:gadfly="http://www.gadflyjl.org/ns"
     version="1.2"
     width="141.42mm" height="100mm" viewBox="0 0 141.42 100"
     stroke="none"
     fill="#000000"
     stroke-width="0.3"
     font-size="3.88"
>
<defs>
  <marker id="arrow" markerWidth="15" markerHeight="7" refX="5" refY="3.5" orient="auto" markerUnits="strokeWidth">
    <path d="M0,0 L15,3.5 L0,7 z" stroke="context-stroke" fill="context-stroke"/>
  </marker>
</defs>
<g class="plotroot xscalable yscalable" id="img-d6bc57c5-1">
  <g class="guide xlabels" font-size="2.82" font-family="'PT Sans Caption','Helvetica Neue','Helvetica',sans-serif" fill="#6C606B" id="img-d6bc57c5-2">
    <g transform="translate(19.96,80.21)">
      <g class="primitive">
        <text text-anchor="end" dy="0.35em" transform="rotate(-90,0, 0)">1.60×10⁶</text>
      </g>
    </g>
    <g transform="translate(33.72,80.21)">
      <g class="primitive">
        <text text-anchor="end" dy="0.35em" transform="rotate(-90,0, 0)">1.70×10⁶</text>
      </g>
    </g>
    <g transform="translate(47.48,80.21)">
      <g class="primitive">
        <text text-anchor="end" dy="0.35em" transform="rotate(-90,0, 0)">1.80×10⁶</text>
      </g>
    </g>
    <g transform="translate(61.24,80.21)">
      <g class="primitive">
        <text text-anchor="end" dy="0.35em" transform="rotate(-90,0, 0)">1.90×10⁶</text>
      </g>
    </g>
    <g transform="translate(74.99,80.21)">
      <g class="primitive">
        <text text-anchor="end" dy="0.35em" transform="rotate(-90,0, 0)">2.00×10⁶</text>
      </g>
    </g>
  </g>
  <g class="guide colorkey" id="img-d6bc57c5-3">
    <g class="color_coding_coding_noncoding_noncoding_4-chord" id="img-d6bc57c5-4">
      <g fill="#4C404B" font-size="2.82" font-family="'PT Sans','Helvetica Neue','Helvetica',sans-serif" id="img-d6bc57c5-5">
        <g transform="translate(80.81,43.92)" id="img-d6bc57c5-6">
          <g class="primitive">
            <text dy="0.35em">coding_coding_noncoding_noncoding_4-chord</text>
          </g>
        </g>
      </g>
      <g fill-opacity="1" fill="#00BFFF" stroke="#FFFFFF" id="img-d6bc57c5-7">
        <g transform="translate(78.9,43.92)" id="img-d6bc57c5-8">
          <path d="M-0.91,-0.91 L0.91,-0.91 0.91,0.91 -0.91,0.91  z" class="primitive"/>
        </g>
      </g>
    </g>
    <g fill="#362A35" font-size="3.88" font-family="'PT Sans','Helvetica Neue','Helvetica',sans-serif" stroke="#000000" stroke-opacity="0.000" id="img-d6bc57c5-9">
      <g transform="translate(77.99,40.1)" id="img-d6bc57c5-10">
        <g class="primitive">
          <text dy="-0em">graphlet</text>
        </g>
      </g>
    </g>
  </g>
  <g clip-path="url(#img-d6bc57c5-11)">
    <g id="img-d6bc57c5-12">
      <g pointer-events="visible" stroke-width="0.3" fill="#000000" fill-opacity="0.000" stroke="#000000" stroke-opacity="0.000" class="guide background" id="img-d6bc57c5-13">
        <g transform="translate(47.48,42.11)" id="img-d6bc57c5-14">
          <path d="M-29.52,-37.11 L29.52,-37.11 29.52,37.11 -29.52,37.11  z" class="primitive"/>
        </g>
      </g>
      <g class="guide ygridlines xfixed" stroke-dasharray="0.5,0.5" stroke-width="0.2" stroke="#D0D0E0" id="img-d6bc57c5-15">
        <g transform="translate(47.48,77.21)" id="img-d6bc57c5-16">
          <path fill="none" d="M-29.52,0 L29.52,0 " class="primitive"/>
        </g>
        <g transform="translate(47.48,53.81)" id="img-d6bc57c5-17">
          <path fill="none" d="M-29.52,0 L29.52,0 " class="primitive"/>
        </g>
        <g transform="translate(47.48,30.4)" id="img-d6bc57c5-18">
          <path fill="none" d="M-29.52,0 L29.52,0 " class="primitive"/>
        </g>
        <g transform="translate(47.48,7)" id="img-d6bc57c5-19">
          <path fill="none" d="M-29.52,0 L29.52,0 " class="primitive"/>
        </g>
      </g>
      <g class="guide xgridlines yfixed" stroke-dasharray="0.5,0.5" stroke-width="0.2" stroke="#D0D0E0" id="img-d6bc57c5-20">
        <g transform="translate(19.96,42.11)" id="img-d6bc57c5-21">
          <path fill="none" d="M0,-37.11 L0,37.11 " class="primitive"/>
        </g>
        <g transform="translate(33.72,42.11)" id="img-d6bc57c5-22">
          <path fill="none" d="M0,-37.11 L0,37.11 " class="primitive"/>
        </g>
        <g transform="translate(47.48,42.11)" id="img-d6bc57c5-23">
          <path fill="none" d="M0,-37.11 L0,37.11 " class="primitive"/>
        </g>
        <g transform="translate(61.24,42.11)" id="img-d6bc57c5-24">
          <path fill="none" d="M0,-37.11 L0,37.11 " class="primitive"/>
        </g>
        <g transform="translate(74.99,42.11)" id="img-d6bc57c5-25">
          <path fill="none" d="M0,-37.11 L0,37.11 " class="primitive"/>
        </g>
      </g>
      <g class="plotpanel" id="img-d6bc57c5-26">
        <metadata>
          <boundingbox value="17.958333333333336mm 5.0mm 59.0363562373095mm 74.21333333333334mm"/>
          <unitbox value="1.5854641539757736e6 30.85453854918344 429071.6920484527 -31.709077098366883"/>
        </metadata>
        <g shape-rendering="crispEdges" stroke-width="0.3" id="img-d6bc57c5-27">
          <g stroke="#000000" stroke-opacity="0.000" class="geometry" id="img-d6bc57c5-28">
            <g fill="#00BFFF" id="img-d6bc57c5-29">
              <g transform="translate(27.63,76.04)" id="img-d6bc57c5-30">
                <path d="M-0.25,-1.17 L0.25,-1.17 0.25,1.17 -0.25,1.17  z" class="primitive"/>
              </g>
              <g transform="translate(28.09,74.87)" id="img-d6bc57c5-31">
                <path d="M-0.25,-2.34 L0.25,-2.34 0.25,2.34 -0.25,2.34  z" class="primitive"/>
              </g>
              <g transform="translate(28.54,74.87)" id="img-d6bc57c5-32">
                <path d="M-0.25,-2.34 L0.25,-2.34 0.25,2.34 -0.25,2.34  z" class="primitive"/>
              </g>
              <g transform="translate(29,74.87)" id="img-d6bc57c5-33">
                <path d="M-0.25,-2.34 L0.25,-2.34 0.25,2.34 -0.25,2.34  z" class="primitive"/>
              </g>
              <g transform="translate(29.45,74.87)" id="img-d6bc57c5-34">
                <path d="M-0.25,-2.34 L0.25,-2.34 0.25,2.34 -0.25,2.34  z" class="primitive"/>
              </g>
              <g transform="translate(29.9,77.22)" id="img-d6bc57c5-35">
                <path d="M-0.25,-0 L0.25,-0 0.25,0 -0.25,0  z" class="primitive"/>
              </g>
              <g transform="translate(30.36,76.04)" id="img-d6bc57c5-36">
                <path d="M-0.25,-1.17 L0.25,-1.17 0.25,1.17 -0.25,1.17  z" class="primitive"/>
              </g>
              <g transform="translate(30.81,74.87)" id="img-d6bc57c5-37">
                <path d="M-0.25,-2.34 L0.25,-2.34 0.25,2.34 -0.25,2.34  z" class="primitive"/>
              </g>
              <g transform="translate(31.27,74.87)" id="img-d6bc57c5-38">
                <path d="M-0.25,-2.34 L0.25,-2.34 0.25,2.34 -0.25,2.34  z" class="primitive"/>
              </g>
              <g transform="translate(31.72,76.04)" id="img-d6bc57c5-39">
                <path d="M-0.25,-1.17 L0.25,-1.17 0.25,1.17 -0.25,1.17  z" class="primitive"/>
              </g>
              <g transform="translate(32.18,76.04)" id="img-d6bc57c5-40">
                <path d="M-0.25,-1.17 L0.25,-1.17 0.25,1.17 -0.25,1.17  z" class="primitive"/>
              </g>
              <g transform="translate(32.63,74.87)" id="img-d6bc57c5-41">
                <path d="M-0.25,-2.34 L0.25,-2.34 0.25,2.34 -0.25,2.34  z" class="primitive"/>
              </g>
              <g transform="translate(33.09,76.04)" id="img-d6bc57c5-42">
                <path d="M-0.25,-1.17 L0.25,-1.17 0.25,1.17 -0.25,1.17  z" class="primitive"/>
              </g>
              <g transform="translate(33.54,73.7)" id="img-d6bc57c5-43">
                <path d="M-0.25,-3.51 L0.25,-3.51 0.25,3.51 -0.25,3.51  z" class="primitive"/>
              </g>
              <g transform="translate(33.99,73.7)" id="img-d6bc57c5-44">
                <path d="M-0.25,-3.51 L0.25,-3.51 0.25,3.51 -0.25,3.51  z" class="primitive"/>
              </g>
              <g transform="translate(34.45,74.87)" id="img-d6bc57c5-45">
                <path d="M-0.25,-2.34 L0.25,-2.34 0.25,2.34 -0.25,2.34  z" class="primitive"/>
              </g>
              <g transform="translate(34.9,71.36)" id="img-d6bc57c5-46">
                <path d="M-0.25,-5.85 L0.25,-5.85 0.25,5.85 -0.25,5.85  z" class="primitive"/>
              </g>
              <g transform="translate(35.36,74.87)" id="img-d6bc57c5-47">
                <path d="M-0.25,-2.34 L0.25,-2.34 0.25,2.34 -0.25,2.34  z" class="primitive"/>
              </g>
              <g transform="translate(35.81,74.87)" id="img-d6bc57c5-48">
                <path d="M-0.25,-2.34 L0.25,-2.34 0.25,2.34 -0.25,2.34  z" class="primitive"/>
              </g>
              <g transform="translate(36.27,74.87)" id="img-d6bc57c5-49">
                <path d="M-0.25,-2.34 L0.25,-2.34 0.25,2.34 -0.25,2.34  z" class="primitive"/>
              </g>
              <g transform="translate(36.72,72.53)" id="img-d6bc57c5-50">
                <path d="M-0.25,-4.68 L0.25,-4.68 0.25,4.68 -0.25,4.68  z" class="primitive"/>
              </g>
              <g transform="translate(37.17,69.02)" id="img-d6bc57c5-51">
                <path d="M-0.25,-8.19 L0.25,-8.19 0.25,8.19 -0.25,8.19  z" class="primitive"/>
              </g>
              <g transform="translate(37.63,63.17)" id="img-d6bc57c5-52">
                <path d="M-0.25,-14.04 L0.25,-14.04 0.25,14.04 -0.25,14.04  z" class="primitive"/>
              </g>
              <g transform="translate(38.08,76.04)" id="img-d6bc57c5-53">
                <path d="M-0.25,-1.17 L0.25,-1.17 0.25,1.17 -0.25,1.17  z" class="primitive"/>
              </g>
              <g transform="translate(38.54,72.53)" id="img-d6bc57c5-54">
                <path d="M-0.25,-4.68 L0.25,-4.68 0.25,4.68 -0.25,4.68  z" class="primitive"/>
              </g>
              <g transform="translate(38.99,60.83)" id="img-d6bc57c5-55">
                <path d="M-0.25,-16.38 L0.25,-16.38 0.25,16.38 -0.25,16.38  z" class="primitive"/>
              </g>
              <g transform="translate(39.45,71.36)" id="img-d6bc57c5-56">
                <path d="M-0.25,-5.85 L0.25,-5.85 0.25,5.85 -0.25,5.85  z" class="primitive"/>
              </g>
              <g transform="translate(39.9,71.36)" id="img-d6bc57c5-57">
                <path d="M-0.25,-5.85 L0.25,-5.85 0.25,5.85 -0.25,5.85  z" class="primitive"/>
              </g>
              <g transform="translate(40.36,66.68)" id="img-d6bc57c5-58">
                <path d="M-0.25,-10.53 L0.25,-10.53 0.25,10.53 -0.25,10.53  z" class="primitive"/>
              </g>
              <g transform="translate(40.81,66.68)" id="img-d6bc57c5-59">
                <path d="M-0.25,-10.53 L0.25,-10.53 0.25,10.53 -0.25,10.53  z" class="primitive"/>
              </g>
              <g transform="translate(41.26,69.02)" id="img-d6bc57c5-60">
                <path d="M-0.25,-8.19 L0.25,-8.19 0.25,8.19 -0.25,8.19  z" class="primitive"/>
              </g>
              <g transform="translate(41.72,58.49)" id="img-d6bc57c5-61">
                <path d="M-0.25,-18.72 L0.25,-18.72 0.25,18.72 -0.25,18.72  z" class="primitive"/>
              </g>
              <g transform="translate(42.17,65.51)" id="img-d6bc57c5-62">
                <path d="M-0.25,-11.7 L0.25,-11.7 0.25,11.7 -0.25,11.7  z" class="primitive"/>
              </g>
              <g transform="translate(42.63,62)" id="img-d6bc57c5-63">
                <path d="M-0.25,-15.21 L0.25,-15.21 0.25,15.21 -0.25,15.21  z" class="primitive"/>
              </g>
              <g transform="translate(43.08,60.83)" id="img-d6bc57c5-64">
                <path d="M-0.25,-16.38 L0.25,-16.38 0.25,16.38 -0.25,16.38  z" class="primitive"/>
              </g>
              <g transform="translate(43.54,60.83)" id="img-d6bc57c5-65">
                <path d="M-0.25,-16.38 L0.25,-16.38 0.25,16.38 -0.25,16.38  z" class="primitive"/>
              </g>
              <g transform="translate(43.99,51.47)" id="img-d6bc57c5-66">
                <path d="M-0.25,-25.74 L0.25,-25.74 0.25,25.74 -0.25,25.74  z" class="primitive"/>
              </g>
              <g transform="translate(44.44,56.15)" id="img-d6bc57c5-67">
                <path d="M-0.25,-21.06 L0.25,-21.06 0.25,21.06 -0.25,21.06  z" class="primitive"/>
              </g>
              <g transform="translate(44.9,57.32)" id="img-d6bc57c5-68">
                <path d="M-0.25,-19.89 L0.25,-19.89 0.25,19.89 -0.25,19.89  z" class="primitive"/>
              </g>
              <g transform="translate(45.35,54.98)" id="img-d6bc57c5-69">
                <path d="M-0.25,-22.23 L0.25,-22.23 0.25,22.23 -0.25,22.23  z" class="primitive"/>
              </g>
              <g transform="translate(45.81,60.83)" id="img-d6bc57c5-70">
                <path d="M-0.25,-16.38 L0.25,-16.38 0.25,16.38 -0.25,16.38  z" class="primitive"/>
              </g>
              <g transform="translate(46.26,51.47)" id="img-d6bc57c5-71">
                <path d="M-0.25,-25.74 L0.25,-25.74 0.25,25.74 -0.25,25.74  z" class="primitive"/>
              </g>
              <g transform="translate(46.72,43.28)" id="img-d6bc57c5-72">
                <path d="M-0.25,-33.94 L0.25,-33.94 0.25,33.94 -0.25,33.94  z" class="primitive"/>
              </g>
              <g transform="translate(47.17,65.51)" id="img-d6bc57c5-73">
                <path d="M-0.25,-11.7 L0.25,-11.7 0.25,11.7 -0.25,11.7  z" class="primitive"/>
              </g>
              <g transform="translate(47.63,53.81)" id="img-d6bc57c5-74">
                <path d="M-0.25,-23.4 L0.25,-23.4 0.25,23.4 -0.25,23.4  z" class="primitive"/>
              </g>
              <g transform="translate(48.08,52.64)" id="img-d6bc57c5-75">
                <path d="M-0.25,-24.57 L0.25,-24.57 0.25,24.57 -0.25,24.57  z" class="primitive"/>
              </g>
              <g transform="translate(48.53,53.81)" id="img-d6bc57c5-76">
                <path d="M-0.25,-23.4 L0.25,-23.4 0.25,23.4 -0.25,23.4  z" class="primitive"/>
              </g>
              <g transform="translate(48.99,52.64)" id="img-d6bc57c5-77">
                <path d="M-0.25,-24.57 L0.25,-24.57 0.25,24.57 -0.25,24.57  z" class="primitive"/>
              </g>
              <g transform="translate(49.44,43.28)" id="img-d6bc57c5-78">
                <path d="M-0.25,-33.94 L0.25,-33.94 0.25,33.94 -0.25,33.94  z" class="primitive"/>
              </g>
              <g transform="translate(49.9,56.15)" id="img-d6bc57c5-79">
                <path d="M-0.25,-21.06 L0.25,-21.06 0.25,21.06 -0.25,21.06  z" class="primitive"/>
              </g>
              <g transform="translate(50.35,45.62)" id="img-d6bc57c5-80">
                <path d="M-0.25,-31.6 L0.25,-31.6 0.25,31.6 -0.25,31.6  z" class="primitive"/>
              </g>
              <g transform="translate(50.81,51.47)" id="img-d6bc57c5-81">
                <path d="M-0.25,-25.74 L0.25,-25.74 0.25,25.74 -0.25,25.74  z" class="primitive"/>
              </g>
              <g transform="translate(51.26,50.3)" id="img-d6bc57c5-82">
                <path d="M-0.25,-26.92 L0.25,-26.92 0.25,26.92 -0.25,26.92  z" class="primitive"/>
              </g>
              <g transform="translate(51.72,43.28)" id="img-d6bc57c5-83">
                <path d="M-0.25,-33.94 L0.25,-33.94 0.25,33.94 -0.25,33.94  z" class="primitive"/>
              </g>
              <g transform="translate(52.17,43.28)" id="img-d6bc57c5-84">
                <path d="M-0.25,-33.94 L0.25,-33.94 0.25,33.94 -0.25,33.94  z" class="primitive"/>
              </g>
              <g transform="translate(52.62,50.3)" id="img-d6bc57c5-85">
                <path d="M-0.25,-26.92 L0.25,-26.92 0.25,26.92 -0.25,26.92  z" class="primitive"/>
              </g>
              <g transform="translate(53.08,56.15)" id="img-d6bc57c5-86">
                <path d="M-0.25,-21.06 L0.25,-21.06 0.25,21.06 -0.25,21.06  z" class="primitive"/>
              </g>
              <g transform="translate(53.53,51.47)" id="img-d6bc57c5-87">
                <path d="M-0.25,-25.74 L0.25,-25.74 0.25,25.74 -0.25,25.74  z" class="primitive"/>
              </g>
              <g transform="translate(53.99,59.66)" id="img-d6bc57c5-88">
                <path d="M-0.25,-17.55 L0.25,-17.55 0.25,17.55 -0.25,17.55  z" class="primitive"/>
              </g>
              <g transform="translate(54.44,50.3)" id="img-d6bc57c5-89">
                <path d="M-0.25,-26.92 L0.25,-26.92 0.25,26.92 -0.25,26.92  z" class="primitive"/>
              </g>
              <g transform="translate(54.9,54.98)" id="img-d6bc57c5-90">
                <path d="M-0.25,-22.23 L0.25,-22.23 0.25,22.23 -0.25,22.23  z" class="primitive"/>
              </g>
              <g transform="translate(55.35,58.49)" id="img-d6bc57c5-91">
                <path d="M-0.25,-18.72 L0.25,-18.72 0.25,18.72 -0.25,18.72  z" class="primitive"/>
              </g>
              <g transform="translate(55.8,50.3)" id="img-d6bc57c5-92">
                <path d="M-0.25,-26.92 L0.25,-26.92 0.25,26.92 -0.25,26.92  z" class="primitive"/>
              </g>
              <g transform="translate(56.26,56.15)" id="img-d6bc57c5-93">
                <path d="M-0.25,-21.06 L0.25,-21.06 0.25,21.06 -0.25,21.06  z" class="primitive"/>
              </g>
              <g transform="translate(56.71,51.47)" id="img-d6bc57c5-94">
                <path d="M-0.25,-25.74 L0.25,-25.74 0.25,25.74 -0.25,25.74  z" class="primitive"/>
              </g>
              <g transform="translate(57.17,58.49)" id="img-d6bc57c5-95">
                <path d="M-0.25,-18.72 L0.25,-18.72 0.25,18.72 -0.25,18.72  z" class="primitive"/>
              </g>
              <g transform="translate(57.62,60.83)" id="img-d6bc57c5-96">
                <path d="M-0.25,-16.38 L0.25,-16.38 0.25,16.38 -0.25,16.38  z" class="primitive"/>
              </g>
              <g transform="translate(58.08,62)" id="img-d6bc57c5-97">
                <path d="M-0.25,-15.21 L0.25,-15.21 0.25,15.21 -0.25,15.21  z" class="primitive"/>
              </g>
              <g transform="translate(58.53,56.15)" id="img-d6bc57c5-98">
                <path d="M-0.25,-21.06 L0.25,-21.06 0.25,21.06 -0.25,21.06  z" class="primitive"/>
              </g>
              <g transform="translate(58.99,64.34)" id="img-d6bc57c5-99">
                <path d="M-0.25,-12.87 L0.25,-12.87 0.25,12.87 -0.25,12.87  z" class="primitive"/>
              </g>
              <g transform="translate(59.44,56.15)" id="img-d6bc57c5-100">
                <path d="M-0.25,-21.06 L0.25,-21.06 0.25,21.06 -0.25,21.06  z" class="primitive"/>
              </g>
              <g transform="translate(59.89,65.51)" id="img-d6bc57c5-101">
                <path d="M-0.25,-11.7 L0.25,-11.7 0.25,11.7 -0.25,11.7  z" class="primitive"/>
              </g>
              <g transform="translate(60.35,57.32)" id="img-d6bc57c5-102">
                <path d="M-0.25,-19.89 L0.25,-19.89 0.25,19.89 -0.25,19.89  z" class="primitive"/>
              </g>
              <g transform="translate(60.8,67.85)" id="img-d6bc57c5-103">
                <path d="M-0.25,-9.36 L0.25,-9.36 0.25,9.36 -0.25,9.36  z" class="primitive"/>
              </g>
              <g transform="translate(61.26,69.02)" id="img-d6bc57c5-104">
                <path d="M-0.25,-8.19 L0.25,-8.19 0.25,8.19 -0.25,8.19  z" class="primitive"/>
              </g>
              <g transform="translate(61.71,65.51)" id="img-d6bc57c5-105">
                <path d="M-0.25,-11.7 L0.25,-11.7 0.25,11.7 -0.25,11.7  z" class="primitive"/>
              </g>
              <g transform="translate(62.17,67.85)" id="img-d6bc57c5-106">
                <path d="M-0.25,-9.36 L0.25,-9.36 0.25,9.36 -0.25,9.36  z" class="primitive"/>
              </g>
              <g transform="translate(62.62,71.36)" id="img-d6bc57c5-107">
                <path d="M-0.25,-5.85 L0.25,-5.85 0.25,5.85 -0.25,5.85  z" class="primitive"/>
              </g>
              <g transform="translate(63.07,72.53)" id="img-d6bc57c5-108">
                <path d="M-0.25,-4.68 L0.25,-4.68 0.25,4.68 -0.25,4.68  z" class="primitive"/>
              </g>
              <g transform="translate(63.53,65.51)" id="img-d6bc57c5-109">
                <path d="M-0.25,-11.7 L0.25,-11.7 0.25,11.7 -0.25,11.7  z" class="primitive"/>
              </g>
              <g transform="translate(63.98,72.53)" id="img-d6bc57c5-110">
                <path d="M-0.25,-4.68 L0.25,-4.68 0.25,4.68 -0.25,4.68  z" class="primitive"/>
              </g>
              <g transform="translate(64.44,71.36)" id="img-d6bc57c5-111">
                <path d="M-0.25,-5.85 L0.25,-5.85 0.25,5.85 -0.25,5.85  z" class="primitive"/>
              </g>
              <g transform="translate(64.89,74.87)" id="img-d6bc57c5-112">
                <path d="M-0.25,-2.34 L0.25,-2.34 0.25,2.34 -0.25,2.34  z" class="primitive"/>
              </g>
              <g transform="translate(65.35,74.87)" id="img-d6bc57c5-113">
                <path d="M-0.25,-2.34 L0.25,-2.34 0.25,2.34 -0.25,2.34  z" class="primitive"/>
              </g>
              <g transform="translate(65.8,72.53)" id="img-d6bc57c5-114">
                <path d="M-0.25,-4.68 L0.25,-4.68 0.25,4.68 -0.25,4.68  z" class="primitive"/>
              </g>
              <g transform="translate(66.26,76.04)" id="img-d6bc57c5-115">
                <path d="M-0.25,-1.17 L0.25,-1.17 0.25,1.17 -0.25,1.17  z" class="primitive"/>
              </g>
              <g transform="translate(66.71,76.04)" id="img-d6bc57c5-116">
                <path d="M-0.25,-1.17 L0.25,-1.17 0.25,1.17 -0.25,1.17  z" class="primitive"/>
              </g>
              <g transform="translate(67.16,73.7)" id="img-d6bc57c5-117">
                <path d="M-0.25,-3.51 L0.25,-3.51 0.25,3.51 -0.25,3.51  z" class="primitive"/>
              </g>
              <g transform="translate(67.62,72.53)" id="img-d6bc57c5-118">
                <path d="M-0.25,-4.68 L0.25,-4.68 0.25,4.68 -0.25,4.68  z" class="primitive"/>
              </g>
              <g transform="translate(68.07,67.85)" id="img-d6bc57c5-119">
                <path d="M-0.25,-9.36 L0.25,-9.36 0.25,9.36 -0.25,9.36  z" class="primitive"/>
              </g>
              <g transform="translate(68.53,74.87)" id="img-d6bc57c5-120">
                <path d="M-0.25,-2.34 L0.25,-2.34 0.25,2.34 -0.25,2.34  z" class="primitive"/>
              </g>
              <g transform="translate(68.98,76.04)" id="img-d6bc57c5-121">
                <path d="M-0.25,-1.17 L0.25,-1.17 0.25,1.17 -0.25,1.17  z" class="primitive"/>
              </g>
              <g transform="translate(69.44,77.22)" id="img-d6bc57c5-122">
                <path d="M-0.25,-0 L0.25,-0 0.25,0 -0.25,0  z" class="primitive"/>
              </g>
              <g transform="translate(69.89,76.04)" id="img-d6bc57c5-123">
                <path d="M-0.25,-1.17 L0.25,-1.17 0.25,1.17 -0.25,1.17  z" class="primitive"/>
              </g>
              <g transform="translate(70.35,77.22)" id="img-d6bc57c5-124">
                <path d="M-0.25,-0 L0.25,-0 0.25,0 -0.25,0  z" class="primitive"/>
              </g>
              <g transform="translate(70.8,76.04)" id="img-d6bc57c5-125">
                <path d="M-0.25,-1.17 L0.25,-1.17 0.25,1.17 -0.25,1.17  z" class="primitive"/>
              </g>
              <g transform="translate(71.25,77.22)" id="img-d6bc57c5-126">
                <path d="M-0.25,-0 L0.25,-0 0.25,0 -0.25,0  z" class="primitive"/>
              </g>
              <g transform="translate(71.71,77.22)" id="img-d6bc57c5-127">
                <path d="M-0.25,-0 L0.25,-0 0.25,0 -0.25,0  z" class="primitive"/>
              </g>
              <g transform="translate(72.16,77.22)" id="img-d6bc57c5-128">
                <path d="M-0.25,-0 L0.25,-0 0.25,0 -0.25,0  z" class="primitive"/>
              </g>
              <g transform="translate(72.62,76.04)" id="img-d6bc57c5-129">
                <path d="M-0.25,-1.17 L0.25,-1.17 0.25,1.17 -0.25,1.17  z" class="primitive"/>
              </g>
            </g>
          </g>
        </g>
      </g>
    </g>
  </g>
  <g class="guide ylabels" font-size="2.82" font-family="'PT Sans Caption','Helvetica Neue','Helvetica',sans-serif" fill="#6C606B" id="img-d6bc57c5-130">
    <g transform="translate(16.96,77.21)" id="img-d6bc57c5-131">
      <g class="primitive">
        <text text-anchor="end" dy="0.35em">0</text>
      </g>
    </g>
    <g transform="translate(16.96,53.81)" id="img-d6bc57c5-132">
      <g class="primitive">
        <text text-anchor="end" dy="0.35em">10</text>
      </g>
    </g>
    <g transform="translate(16.96,30.4)" id="img-d6bc57c5-133">
      <g class="primitive">
        <text text-anchor="end" dy="0.35em">20</text>
      </g>
    </g>
    <g transform="translate(16.96,7)" id="img-d6bc57c5-134">
      <g class="primitive">
        <text text-anchor="end" dy="0.35em">30</text>
      </g>
    </g>
  </g>
  <g font-size="3.88" font-family="'PT Sans','Helvetica Neue','Helvetica',sans-serif" fill="#564A55" stroke="#000000" stroke-opacity="0.000" id="img-d6bc57c5-135">
    <g transform="translate(8.81,40.11)" id="img-d6bc57c5-136">
      <g class="primitive">
        <text text-anchor="middle" dy="0.35em" transform="rotate(-90,0, 2)">frequency</text>
      </g>
    </g>
  </g>
</g>
<defs>
  <clipPath id="img-d6bc57c5-11">
    <path d="M17.96,5 L76.99,5 76.99,79.21 17.96,79.21 " />
  </clipPath>
</defs>
</svg>
