<?xml version="1.0" encoding="UTF-8"?>
<svg xmlns="http://www.w3.org/2000/svg"
     xmlns:xlink="http://www.w3.org/1999/xlink"
     xmlns:gadfly="http://www.gadflyjl.org/ns"
     version="1.2"
     width="141.42mm" height="100mm" viewBox="0 0 141.42 100"
     stroke="none"
     fill="#000000"
     stroke-width="0.3"
     font-size="3.88"
>
<defs>
  <marker id="arrow" markerWidth="15" markerHeight="7" refX="5" refY="3.5" orient="auto" markerUnits="strokeWidth">
    <path d="M0,0 L15,3.5 L0,7 z" stroke="context-stroke" fill="context-stroke"/>
  </marker>
</defs>
<g class="plotroot xscalable yscalable" id="img-7d78e320-1">
  <g class="guide xlabels" font-size="2.82" font-family="'PT Sans Caption','Helvetica Neue','Helvetica',sans-serif" fill="#6C606B" id="img-7d78e320-2">
    <g transform="translate(19.96,91.33)">
      <g class="primitive">
        <text text-anchor="middle" dy="0.6em">9.5</text>
      </g>
    </g>
    <g transform="translate(36.01,91.33)">
      <g class="primitive">
        <text text-anchor="middle" dy="0.6em">10.0</text>
      </g>
    </g>
    <g transform="translate(52.06,91.33)">
      <g class="primitive">
        <text text-anchor="middle" dy="0.6em">10.5</text>
      </g>
    </g>
    <g transform="translate(68.11,91.33)">
      <g class="primitive">
        <text text-anchor="middle" dy="0.6em">11.0</text>
      </g>
    </g>
  </g>
  <g class="guide colorkey" id="img-7d78e320-3">
    <g class="color_noncoding_noncoding_noncoding_noncoding_4-star" id="img-7d78e320-4">
      <g fill="#4C404B" font-size="2.82" font-family="'PT Sans','Helvetica Neue','Helvetica',sans-serif" id="img-7d78e320-5">
        <g transform="translate(73.92,49.48)" id="img-7d78e320-6">
          <g class="primitive">
            <text dy="0.35em">noncoding_noncoding_noncoding_noncoding_4-star</text>
          </g>
        </g>
      </g>
      <g fill-opacity="1" fill="#00BFFF" stroke="#FFFFFF" id="img-7d78e320-7">
        <g transform="translate(72.01,49.48)" id="img-7d78e320-8">
          <path d="M-0.91,-0.91 L 0.91 -0.91 0.91 0.91 -0.91 0.91 z" class="primitive"/>
        </g>
      </g>
    </g>
    <g fill="#362A35" font-size="3.88" font-family="'PT Sans','Helvetica Neue','Helvetica',sans-serif" stroke="#000000" stroke-opacity="0.000" id="img-7d78e320-9">
      <g transform="translate(71.11,45.66)" id="img-7d78e320-10">
        <g class="primitive">
          <text dy="-0em">graphlet</text>
        </g>
      </g>
    </g>
  </g>
  <g clip-path="url(#img-7d78e320-11)">
    <g id="img-7d78e320-12">
      <g pointer-events="visible" stroke-width="0.3" fill="#000000" fill-opacity="0.000" stroke="#000000" stroke-opacity="0.000" class="guide background" id="img-7d78e320-13">
        <g transform="translate(44.03,47.66)" id="img-7d78e320-14">
          <path d="M-26.07,-42.66 L 26.07 -42.66 26.07 42.66 -26.07 42.66 z" class="primitive"/>
        </g>
      </g>
      <g class="guide ygridlines xfixed" stroke-dasharray="0.5,0.5" stroke-width="0.2" stroke="#D0D0E0" id="img-7d78e320-15">
        <g transform="translate(44.03,88.33)" id="img-7d78e320-16">
          <path fill="none" d="M-26.07,0 L 26.07 0" class="primitive"/>
        </g>
        <g transform="translate(44.03,68)" id="img-7d78e320-17">
          <path fill="none" d="M-26.07,0 L 26.07 0" class="primitive"/>
        </g>
        <g transform="translate(44.03,47.66)" id="img-7d78e320-18">
          <path fill="none" d="M-26.07,0 L 26.07 0" class="primitive"/>
        </g>
        <g transform="translate(44.03,27.33)" id="img-7d78e320-19">
          <path fill="none" d="M-26.07,0 L 26.07 0" class="primitive"/>
        </g>
        <g transform="translate(44.03,7)" id="img-7d78e320-20">
          <path fill="none" d="M-26.07,0 L 26.07 0" class="primitive"/>
        </g>
      </g>
      <g class="guide xgridlines yfixed" stroke-dasharray="0.5,0.5" stroke-width="0.2" stroke="#D0D0E0" id="img-7d78e320-21">
        <g transform="translate(19.96,47.66)" id="img-7d78e320-22">
          <path fill="none" d="M0,-42.66 L 0 42.66" class="primitive"/>
        </g>
        <g transform="translate(36.01,47.66)" id="img-7d78e320-23">
          <path fill="none" d="M0,-42.66 L 0 42.66" class="primitive"/>
        </g>
        <g transform="translate(52.06,47.66)" id="img-7d78e320-24">
          <path fill="none" d="M0,-42.66 L 0 42.66" class="primitive"/>
        </g>
        <g transform="translate(68.11,47.66)" id="img-7d78e320-25">
          <path fill="none" d="M0,-42.66 L 0 42.66" class="primitive"/>
        </g>
      </g>
      <g class="plotpanel" id="img-7d78e320-26">
        <metadata>
          <boundingbox value="17.958333333333336mm 5.0mm 52.14968957064284mm 85.32666666666667mm"/>
          <unitbox value="9.43769430235685 40.98368718747438 1.6246113952863 -41.96737437494876"/>
        </metadata>
        <g shape-rendering="crispEdges" stroke-width="0.3" id="img-7d78e320-27">
          <g stroke="#000000" stroke-opacity="0.000" class="geometry" id="img-7d78e320-28">
            <g fill="#00BFFF" id="img-7d78e320-29">
              <g transform="translate(34.52,87.31)" id="img-7d78e320-30">
                <path d="M-0.16,-1.02 L 0.16 -1.02 0.16 1.02 -0.16 1.02 z" class="primitive"/>
              </g>
              <g transform="translate(34.8,87.31)" id="img-7d78e320-31">
                <path d="M-0.16,-1.02 L 0.16 -1.02 0.16 1.02 -0.16 1.02 z" class="primitive"/>
              </g>
              <g transform="translate(35.07,88.33)" id="img-7d78e320-32">
                <path d="M-0.16,-0 L 0.16 -0 0.16 0 -0.16 0 z" class="primitive"/>
              </g>
              <g transform="translate(35.34,87.31)" id="img-7d78e320-33">
                <path d="M-0.16,-1.02 L 0.16 -1.02 0.16 1.02 -0.16 1.02 z" class="primitive"/>
              </g>
              <g transform="translate(35.62,88.33)" id="img-7d78e320-34">
                <path d="M-0.16,-0 L 0.16 -0 0.16 0 -0.16 0 z" class="primitive"/>
              </g>
              <g transform="translate(35.89,87.31)" id="img-7d78e320-35">
                <path d="M-0.16,-1.02 L 0.16 -1.02 0.16 1.02 -0.16 1.02 z" class="primitive"/>
              </g>
              <g transform="translate(36.16,87.31)" id="img-7d78e320-36">
                <path d="M-0.16,-1.02 L 0.16 -1.02 0.16 1.02 -0.16 1.02 z" class="primitive"/>
              </g>
              <g transform="translate(36.44,88.33)" id="img-7d78e320-37">
                <path d="M-0.16,-0 L 0.16 -0 0.16 0 -0.16 0 z" class="primitive"/>
              </g>
              <g transform="translate(36.71,88.33)" id="img-7d78e320-38">
                <path d="M-0.16,-0 L 0.16 -0 0.16 0 -0.16 0 z" class="primitive"/>
              </g>
              <g transform="translate(36.99,88.33)" id="img-7d78e320-39">
                <path d="M-0.16,-0 L 0.16 -0 0.16 0 -0.16 0 z" class="primitive"/>
              </g>
              <g transform="translate(37.26,86.29)" id="img-7d78e320-40">
                <path d="M-0.16,-2.03 L 0.16 -2.03 0.16 2.03 -0.16 2.03 z" class="primitive"/>
              </g>
              <g transform="translate(37.53,87.31)" id="img-7d78e320-41">
                <path d="M-0.16,-1.02 L 0.16 -1.02 0.16 1.02 -0.16 1.02 z" class="primitive"/>
              </g>
              <g transform="translate(37.81,88.33)" id="img-7d78e320-42">
                <path d="M-0.16,-0 L 0.16 -0 0.16 0 -0.16 0 z" class="primitive"/>
              </g>
              <g transform="translate(38.08,88.33)" id="img-7d78e320-43">
                <path d="M-0.16,-0 L 0.16 -0 0.16 0 -0.16 0 z" class="primitive"/>
              </g>
              <g transform="translate(38.36,88.33)" id="img-7d78e320-44">
                <path d="M-0.16,-0 L 0.16 -0 0.16 0 -0.16 0 z" class="primitive"/>
              </g>
              <g transform="translate(38.63,87.31)" id="img-7d78e320-45">
                <path d="M-0.16,-1.02 L 0.16 -1.02 0.16 1.02 -0.16 1.02 z" class="primitive"/>
              </g>
              <g transform="translate(38.9,87.31)" id="img-7d78e320-46">
                <path d="M-0.16,-1.02 L 0.16 -1.02 0.16 1.02 -0.16 1.02 z" class="primitive"/>
              </g>
              <g transform="translate(39.18,85.28)" id="img-7d78e320-47">
                <path d="M-0.16,-3.05 L 0.16 -3.05 0.16 3.05 -0.16 3.05 z" class="primitive"/>
              </g>
              <g transform="translate(39.45,82.23)" id="img-7d78e320-48">
                <path d="M-0.16,-6.1 L 0.16 -6.1 0.16 6.1 -0.16 6.1 z" class="primitive"/>
              </g>
              <g transform="translate(39.73,86.29)" id="img-7d78e320-49">
                <path d="M-0.16,-2.03 L 0.16 -2.03 0.16 2.03 -0.16 2.03 z" class="primitive"/>
              </g>
              <g transform="translate(40,86.29)" id="img-7d78e320-50">
                <path d="M-0.16,-2.03 L 0.16 -2.03 0.16 2.03 -0.16 2.03 z" class="primitive"/>
              </g>
              <g transform="translate(40.27,84.26)" id="img-7d78e320-51">
                <path d="M-0.16,-4.07 L 0.16 -4.07 0.16 4.07 -0.16 4.07 z" class="primitive"/>
              </g>
              <g transform="translate(40.55,83.24)" id="img-7d78e320-52">
                <path d="M-0.16,-5.08 L 0.16 -5.08 0.16 5.08 -0.16 5.08 z" class="primitive"/>
              </g>
              <g transform="translate(40.82,86.29)" id="img-7d78e320-53">
                <path d="M-0.16,-2.03 L 0.16 -2.03 0.16 2.03 -0.16 2.03 z" class="primitive"/>
              </g>
              <g transform="translate(41.09,85.28)" id="img-7d78e320-54">
                <path d="M-0.16,-3.05 L 0.16 -3.05 0.16 3.05 -0.16 3.05 z" class="primitive"/>
              </g>
              <g transform="translate(41.37,85.28)" id="img-7d78e320-55">
                <path d="M-0.16,-3.05 L 0.16 -3.05 0.16 3.05 -0.16 3.05 z" class="primitive"/>
              </g>
              <g transform="translate(41.64,86.29)" id="img-7d78e320-56">
                <path d="M-0.16,-2.03 L 0.16 -2.03 0.16 2.03 -0.16 2.03 z" class="primitive"/>
              </g>
              <g transform="translate(41.92,81.21)" id="img-7d78e320-57">
                <path d="M-0.16,-7.12 L 0.16 -7.12 0.16 7.12 -0.16 7.12 z" class="primitive"/>
              </g>
              <g transform="translate(42.19,79.18)" id="img-7d78e320-58">
                <path d="M-0.16,-9.15 L 0.16 -9.15 0.16 9.15 -0.16 9.15 z" class="primitive"/>
              </g>
              <g transform="translate(42.46,79.18)" id="img-7d78e320-59">
                <path d="M-0.16,-9.15 L 0.16 -9.15 0.16 9.15 -0.16 9.15 z" class="primitive"/>
              </g>
              <g transform="translate(42.74,84.26)" id="img-7d78e320-60">
                <path d="M-0.16,-4.07 L 0.16 -4.07 0.16 4.07 -0.16 4.07 z" class="primitive"/>
              </g>
              <g transform="translate(43.01,84.26)" id="img-7d78e320-61">
                <path d="M-0.16,-4.07 L 0.16 -4.07 0.16 4.07 -0.16 4.07 z" class="primitive"/>
              </g>
              <g transform="translate(43.29,76.13)" id="img-7d78e320-62">
                <path d="M-0.16,-12.2 L 0.16 -12.2 0.16 12.2 -0.16 12.2 z" class="primitive"/>
              </g>
              <g transform="translate(43.56,74.09)" id="img-7d78e320-63">
                <path d="M-0.16,-14.23 L 0.16 -14.23 0.16 14.23 -0.16 14.23 z" class="primitive"/>
              </g>
              <g transform="translate(43.83,80.19)" id="img-7d78e320-64">
                <path d="M-0.16,-8.13 L 0.16 -8.13 0.16 8.13 -0.16 8.13 z" class="primitive"/>
              </g>
              <g transform="translate(44.11,74.09)" id="img-7d78e320-65">
                <path d="M-0.16,-14.23 L 0.16 -14.23 0.16 14.23 -0.16 14.23 z" class="primitive"/>
              </g>
              <g transform="translate(44.38,77.14)" id="img-7d78e320-66">
                <path d="M-0.16,-11.18 L 0.16 -11.18 0.16 11.18 -0.16 11.18 z" class="primitive"/>
              </g>
              <g transform="translate(44.66,76.13)" id="img-7d78e320-67">
                <path d="M-0.16,-12.2 L 0.16 -12.2 0.16 12.2 -0.16 12.2 z" class="primitive"/>
              </g>
              <g transform="translate(44.93,81.21)" id="img-7d78e320-68">
                <path d="M-0.16,-7.12 L 0.16 -7.12 0.16 7.12 -0.16 7.12 z" class="primitive"/>
              </g>
              <g transform="translate(45.2,78.16)" id="img-7d78e320-69">
                <path d="M-0.16,-10.17 L 0.16 -10.17 0.16 10.17 -0.16 10.17 z" class="primitive"/>
              </g>
              <g transform="translate(45.48,73.08)" id="img-7d78e320-70">
                <path d="M-0.16,-15.25 L 0.16 -15.25 0.16 15.25 -0.16 15.25 z" class="primitive"/>
              </g>
              <g transform="translate(45.75,66.98)" id="img-7d78e320-71">
                <path d="M-0.16,-21.35 L 0.16 -21.35 0.16 21.35 -0.16 21.35 z" class="primitive"/>
              </g>
              <g transform="translate(46.02,74.09)" id="img-7d78e320-72">
                <path d="M-0.16,-14.23 L 0.16 -14.23 0.16 14.23 -0.16 14.23 z" class="primitive"/>
              </g>
              <g transform="translate(46.3,73.08)" id="img-7d78e320-73">
                <path d="M-0.16,-15.25 L 0.16 -15.25 0.16 15.25 -0.16 15.25 z" class="primitive"/>
              </g>
              <g transform="translate(46.57,69.01)" id="img-7d78e320-74">
                <path d="M-0.16,-19.32 L 0.16 -19.32 0.16 19.32 -0.16 19.32 z" class="primitive"/>
              </g>
              <g transform="translate(46.85,66.98)" id="img-7d78e320-75">
                <path d="M-0.16,-21.35 L 0.16 -21.35 0.16 21.35 -0.16 21.35 z" class="primitive"/>
              </g>
              <g transform="translate(47.12,68)" id="img-7d78e320-76">
                <path d="M-0.16,-20.33 L 0.16 -20.33 0.16 20.33 -0.16 20.33 z" class="primitive"/>
              </g>
              <g transform="translate(47.39,63.93)" id="img-7d78e320-77">
                <path d="M-0.16,-24.4 L 0.16 -24.4 0.16 24.4 -0.16 24.4 z" class="primitive"/>
              </g>
              <g transform="translate(47.67,61.9)" id="img-7d78e320-78">
                <path d="M-0.16,-26.43 L 0.16 -26.43 0.16 26.43 -0.16 26.43 z" class="primitive"/>
              </g>
              <g transform="translate(47.94,64.95)" id="img-7d78e320-79">
                <path d="M-0.16,-23.38 L 0.16 -23.38 0.16 23.38 -0.16 23.38 z" class="primitive"/>
              </g>
              <g transform="translate(48.22,70.03)" id="img-7d78e320-80">
                <path d="M-0.16,-18.3 L 0.16 -18.3 0.16 18.3 -0.16 18.3 z" class="primitive"/>
              </g>
              <g transform="translate(48.49,64.95)" id="img-7d78e320-81">
                <path d="M-0.16,-23.38 L 0.16 -23.38 0.16 23.38 -0.16 23.38 z" class="primitive"/>
              </g>
              <g transform="translate(48.76,62.91)" id="img-7d78e320-82">
                <path d="M-0.16,-25.41 L 0.16 -25.41 0.16 25.41 -0.16 25.41 z" class="primitive"/>
              </g>
              <g transform="translate(49.04,59.86)" id="img-7d78e320-83">
                <path d="M-0.16,-28.46 L 0.16 -28.46 0.16 28.46 -0.16 28.46 z" class="primitive"/>
              </g>
              <g transform="translate(49.31,68)" id="img-7d78e320-84">
                <path d="M-0.16,-20.33 L 0.16 -20.33 0.16 20.33 -0.16 20.33 z" class="primitive"/>
              </g>
              <g transform="translate(49.59,55.8)" id="img-7d78e320-85">
                <path d="M-0.16,-32.53 L 0.16 -32.53 0.16 32.53 -0.16 32.53 z" class="primitive"/>
              </g>
              <g transform="translate(49.86,61.9)" id="img-7d78e320-86">
                <path d="M-0.16,-26.43 L 0.16 -26.43 0.16 26.43 -0.16 26.43 z" class="primitive"/>
              </g>
              <g transform="translate(50.13,65.96)" id="img-7d78e320-87">
                <path d="M-0.16,-22.36 L 0.16 -22.36 0.16 22.36 -0.16 22.36 z" class="primitive"/>
              </g>
              <g transform="translate(50.41,65.96)" id="img-7d78e320-88">
                <path d="M-0.16,-22.36 L 0.16 -22.36 0.16 22.36 -0.16 22.36 z" class="primitive"/>
              </g>
              <g transform="translate(50.68,65.96)" id="img-7d78e320-89">
                <path d="M-0.16,-22.36 L 0.16 -22.36 0.16 22.36 -0.16 22.36 z" class="primitive"/>
              </g>
              <g transform="translate(50.95,62.91)" id="img-7d78e320-90">
                <path d="M-0.16,-25.41 L 0.16 -25.41 0.16 25.41 -0.16 25.41 z" class="primitive"/>
              </g>
              <g transform="translate(51.23,68)" id="img-7d78e320-91">
                <path d="M-0.16,-20.33 L 0.16 -20.33 0.16 20.33 -0.16 20.33 z" class="primitive"/>
              </g>
              <g transform="translate(51.5,66.98)" id="img-7d78e320-92">
                <path d="M-0.16,-21.35 L 0.16 -21.35 0.16 21.35 -0.16 21.35 z" class="primitive"/>
              </g>
              <g transform="translate(51.78,72.06)" id="img-7d78e320-93">
                <path d="M-0.16,-16.27 L 0.16 -16.27 0.16 16.27 -0.16 16.27 z" class="primitive"/>
              </g>
              <g transform="translate(52.05,70.03)" id="img-7d78e320-94">
                <path d="M-0.16,-18.3 L 0.16 -18.3 0.16 18.3 -0.16 18.3 z" class="primitive"/>
              </g>
              <g transform="translate(52.32,75.11)" id="img-7d78e320-95">
                <path d="M-0.16,-13.22 L 0.16 -13.22 0.16 13.22 -0.16 13.22 z" class="primitive"/>
              </g>
              <g transform="translate(52.6,66.98)" id="img-7d78e320-96">
                <path d="M-0.16,-21.35 L 0.16 -21.35 0.16 21.35 -0.16 21.35 z" class="primitive"/>
              </g>
              <g transform="translate(52.87,68)" id="img-7d78e320-97">
                <path d="M-0.16,-20.33 L 0.16 -20.33 0.16 20.33 -0.16 20.33 z" class="primitive"/>
              </g>
              <g transform="translate(53.15,66.98)" id="img-7d78e320-98">
                <path d="M-0.16,-21.35 L 0.16 -21.35 0.16 21.35 -0.16 21.35 z" class="primitive"/>
              </g>
              <g transform="translate(53.42,64.95)" id="img-7d78e320-99">
                <path d="M-0.16,-23.38 L 0.16 -23.38 0.16 23.38 -0.16 23.38 z" class="primitive"/>
              </g>
              <g transform="translate(53.69,75.11)" id="img-7d78e320-100">
                <path d="M-0.16,-13.22 L 0.16 -13.22 0.16 13.22 -0.16 13.22 z" class="primitive"/>
              </g>
              <g transform="translate(53.97,69.01)" id="img-7d78e320-101">
                <path d="M-0.16,-19.32 L 0.16 -19.32 0.16 19.32 -0.16 19.32 z" class="primitive"/>
              </g>
              <g transform="translate(54.24,75.11)" id="img-7d78e320-102">
                <path d="M-0.16,-13.22 L 0.16 -13.22 0.16 13.22 -0.16 13.22 z" class="primitive"/>
              </g>
              <g transform="translate(54.52,75.11)" id="img-7d78e320-103">
                <path d="M-0.16,-13.22 L 0.16 -13.22 0.16 13.22 -0.16 13.22 z" class="primitive"/>
              </g>
              <g transform="translate(54.79,73.08)" id="img-7d78e320-104">
                <path d="M-0.16,-15.25 L 0.16 -15.25 0.16 15.25 -0.16 15.25 z" class="primitive"/>
              </g>
              <g transform="translate(55.06,73.08)" id="img-7d78e320-105">
                <path d="M-0.16,-15.25 L 0.16 -15.25 0.16 15.25 -0.16 15.25 z" class="primitive"/>
              </g>
              <g transform="translate(55.34,77.14)" id="img-7d78e320-106">
                <path d="M-0.16,-11.18 L 0.16 -11.18 0.16 11.18 -0.16 11.18 z" class="primitive"/>
              </g>
              <g transform="translate(55.61,81.21)" id="img-7d78e320-107">
                <path d="M-0.16,-7.12 L 0.16 -7.12 0.16 7.12 -0.16 7.12 z" class="primitive"/>
              </g>
              <g transform="translate(55.88,71.04)" id="img-7d78e320-108">
                <path d="M-0.16,-17.28 L 0.16 -17.28 0.16 17.28 -0.16 17.28 z" class="primitive"/>
              </g>
              <g transform="translate(56.16,78.16)" id="img-7d78e320-109">
                <path d="M-0.16,-10.17 L 0.16 -10.17 0.16 10.17 -0.16 10.17 z" class="primitive"/>
              </g>
              <g transform="translate(56.43,82.23)" id="img-7d78e320-110">
                <path d="M-0.16,-6.1 L 0.16 -6.1 0.16 6.1 -0.16 6.1 z" class="primitive"/>
              </g>
              <g transform="translate(56.71,78.16)" id="img-7d78e320-111">
                <path d="M-0.16,-10.17 L 0.16 -10.17 0.16 10.17 -0.16 10.17 z" class="primitive"/>
              </g>
              <g transform="translate(56.98,78.16)" id="img-7d78e320-112">
                <path d="M-0.16,-10.17 L 0.16 -10.17 0.16 10.17 -0.16 10.17 z" class="primitive"/>
              </g>
              <g transform="translate(57.25,81.21)" id="img-7d78e320-113">
                <path d="M-0.16,-7.12 L 0.16 -7.12 0.16 7.12 -0.16 7.12 z" class="primitive"/>
              </g>
              <g transform="translate(57.53,81.21)" id="img-7d78e320-114">
                <path d="M-0.16,-7.12 L 0.16 -7.12 0.16 7.12 -0.16 7.12 z" class="primitive"/>
              </g>
              <g transform="translate(57.8,86.29)" id="img-7d78e320-115">
                <path d="M-0.16,-2.03 L 0.16 -2.03 0.16 2.03 -0.16 2.03 z" class="primitive"/>
              </g>
              <g transform="translate(58.08,85.28)" id="img-7d78e320-116">
                <path d="M-0.16,-3.05 L 0.16 -3.05 0.16 3.05 -0.16 3.05 z" class="primitive"/>
              </g>
              <g transform="translate(58.35,85.28)" id="img-7d78e320-117">
                <path d="M-0.16,-3.05 L 0.16 -3.05 0.16 3.05 -0.16 3.05 z" class="primitive"/>
              </g>
              <g transform="translate(58.62,84.26)" id="img-7d78e320-118">
                <path d="M-0.16,-4.07 L 0.16 -4.07 0.16 4.07 -0.16 4.07 z" class="primitive"/>
              </g>
              <g transform="translate(58.9,84.26)" id="img-7d78e320-119">
                <path d="M-0.16,-4.07 L 0.16 -4.07 0.16 4.07 -0.16 4.07 z" class="primitive"/>
              </g>
              <g transform="translate(59.17,86.29)" id="img-7d78e320-120">
                <path d="M-0.16,-2.03 L 0.16 -2.03 0.16 2.03 -0.16 2.03 z" class="primitive"/>
              </g>
              <g transform="translate(59.45,87.31)" id="img-7d78e320-121">
                <path d="M-0.16,-1.02 L 0.16 -1.02 0.16 1.02 -0.16 1.02 z" class="primitive"/>
              </g>
              <g transform="translate(59.72,85.28)" id="img-7d78e320-122">
                <path d="M-0.16,-3.05 L 0.16 -3.05 0.16 3.05 -0.16 3.05 z" class="primitive"/>
              </g>
              <g transform="translate(59.99,85.28)" id="img-7d78e320-123">
                <path d="M-0.16,-3.05 L 0.16 -3.05 0.16 3.05 -0.16 3.05 z" class="primitive"/>
              </g>
              <g transform="translate(60.27,87.31)" id="img-7d78e320-124">
                <path d="M-0.16,-1.02 L 0.16 -1.02 0.16 1.02 -0.16 1.02 z" class="primitive"/>
              </g>
              <g transform="translate(60.54,87.31)" id="img-7d78e320-125">
                <path d="M-0.16,-1.02 L 0.16 -1.02 0.16 1.02 -0.16 1.02 z" class="primitive"/>
              </g>
              <g transform="translate(60.81,88.33)" id="img-7d78e320-126">
                <path d="M-0.16,-0 L 0.16 -0 0.16 0 -0.16 0 z" class="primitive"/>
              </g>
              <g transform="translate(61.09,86.29)" id="img-7d78e320-127">
                <path d="M-0.16,-2.03 L 0.16 -2.03 0.16 2.03 -0.16 2.03 z" class="primitive"/>
              </g>
              <g transform="translate(61.36,88.33)" id="img-7d78e320-128">
                <path d="M-0.16,-0 L 0.16 -0 0.16 0 -0.16 0 z" class="primitive"/>
              </g>
              <g transform="translate(61.64,87.31)" id="img-7d78e320-129">
                <path d="M-0.16,-1.02 L 0.16 -1.02 0.16 1.02 -0.16 1.02 z" class="primitive"/>
              </g>
            </g>
          </g>
        </g>
      </g>
    </g>
  </g>
  <g class="guide ylabels" font-size="2.82" font-family="'PT Sans Caption','Helvetica Neue','Helvetica',sans-serif" fill="#6C606B" id="img-7d78e320-130">
    <g transform="translate(16.96,88.33)" id="img-7d78e320-131">
      <g class="primitive">
        <text text-anchor="end" dy="0.35em">0</text>
      </g>
    </g>
    <g transform="translate(16.96,68)" id="img-7d78e320-132">
      <g class="primitive">
        <text text-anchor="end" dy="0.35em">10</text>
      </g>
    </g>
    <g transform="translate(16.96,47.66)" id="img-7d78e320-133">
      <g class="primitive">
        <text text-anchor="end" dy="0.35em">20</text>
      </g>
    </g>
    <g transform="translate(16.96,27.33)" id="img-7d78e320-134">
      <g class="primitive">
        <text text-anchor="end" dy="0.35em">30</text>
      </g>
    </g>
    <g transform="translate(16.96,7)" id="img-7d78e320-135">
      <g class="primitive">
        <text text-anchor="end" dy="0.35em">40</text>
      </g>
    </g>
  </g>
  <g font-size="3.88" font-family="'PT Sans','Helvetica Neue','Helvetica',sans-serif" fill="#564A55" stroke="#000000" stroke-opacity="0.000" id="img-7d78e320-136">
    <g transform="translate(8.81,45.66)" id="img-7d78e320-137">
      <g class="primitive">
        <text text-anchor="middle" dy="0.35em" transform="rotate(-90,0, 2)">frequency</text>
      </g>
    </g>
  </g>
</g>
<defs>
  <clipPath id="img-7d78e320-11">
    <path d="M17.96,5 L 70.11 5 70.11 90.33 17.96 90.33" />
  </clipPath>
</defs>
</svg>
