<?xml version="1.0" encoding="UTF-8"?>
<svg xmlns="http://www.w3.org/2000/svg"
     xmlns:xlink="http://www.w3.org/1999/xlink"
     xmlns:gadfly="http://www.gadflyjl.org/ns"
     version="1.2"
     width="141.42mm" height="100mm" viewBox="0 0 141.42 100"
     stroke="none"
     fill="#000000"
     stroke-width="0.3"
     font-size="3.88"
>
<defs>
  <marker id="arrow" markerWidth="15" markerHeight="7" refX="5" refY="3.5" orient="auto" markerUnits="strokeWidth">
    <path d="M0,0 L15,3.5 L0,7 z" stroke="context-stroke" fill="context-stroke"/>
  </marker>
</defs>
<g class="plotroot xscalable yscalable" id="img-dbf3a5be-1">
  <g class="guide xlabels" font-size="2.82" font-family="'PT Sans Caption','Helvetica Neue','Helvetica',sans-serif" fill="#6C606B" id="img-dbf3a5be-2">
    <g transform="translate(19.96,91.33)">
      <g class="primitive">
        <text text-anchor="middle" dy="0.6em">2.50×10⁶</text>
      </g>
    </g>
    <g transform="translate(37.73,91.33)">
      <g class="primitive">
        <text text-anchor="middle" dy="0.6em">3.00×10⁶</text>
      </g>
    </g>
    <g transform="translate(55.5,91.33)">
      <g class="primitive">
        <text text-anchor="middle" dy="0.6em">3.50×10⁶</text>
      </g>
    </g>
    <g transform="translate(73.27,91.33)">
      <g class="primitive">
        <text text-anchor="middle" dy="0.6em">4.00×10⁶</text>
      </g>
    </g>
  </g>
  <g class="guide colorkey" id="img-dbf3a5be-3">
    <g class="color_noncoding_noncoding_noncoding_coding_4-tail" id="img-dbf3a5be-4">
      <g fill="#4C404B" font-size="2.82" font-family="'PT Sans','Helvetica Neue','Helvetica',sans-serif" id="img-dbf3a5be-5">
        <g transform="translate(79.08,49.48)" id="img-dbf3a5be-6">
          <g class="primitive">
            <text dy="0.35em">noncoding_noncoding_noncoding_coding_4-tail</text>
          </g>
        </g>
      </g>
      <g fill-opacity="1" fill="#00BFFF" stroke="#FFFFFF" id="img-dbf3a5be-7">
        <g transform="translate(77.17,49.48)" id="img-dbf3a5be-8">
          <path d="M-0.91,-0.91 L0.91,-0.91 0.91,0.91 -0.91,0.91  z" class="primitive"/>
        </g>
      </g>
    </g>
    <g fill="#362A35" font-size="3.88" font-family="'PT Sans','Helvetica Neue','Helvetica',sans-serif" stroke="#000000" stroke-opacity="0.000" id="img-dbf3a5be-9">
      <g transform="translate(76.27,45.66)" id="img-dbf3a5be-10">
        <g class="primitive">
          <text dy="-0em">graphlet</text>
        </g>
      </g>
    </g>
  </g>
  <g clip-path="url(#img-dbf3a5be-11)">
    <g id="img-dbf3a5be-12">
      <g pointer-events="visible" stroke-width="0.3" fill="#000000" fill-opacity="0.000" stroke="#000000" stroke-opacity="0.000" class="guide background" id="img-dbf3a5be-13">
        <g transform="translate(46.61,47.66)" id="img-dbf3a5be-14">
          <path d="M-28.65,-42.66 L28.65,-42.66 28.65,42.66 -28.65,42.66  z" class="primitive"/>
        </g>
      </g>
      <g class="guide ygridlines xfixed" stroke-dasharray="0.5,0.5" stroke-width="0.2" stroke="#D0D0E0" id="img-dbf3a5be-15">
        <g transform="translate(46.61,88.33)" id="img-dbf3a5be-16">
          <path fill="none" d="M-28.65,0 L28.65,0 " class="primitive"/>
        </g>
        <g transform="translate(46.61,68)" id="img-dbf3a5be-17">
          <path fill="none" d="M-28.65,0 L28.65,0 " class="primitive"/>
        </g>
        <g transform="translate(46.61,47.66)" id="img-dbf3a5be-18">
          <path fill="none" d="M-28.65,0 L28.65,0 " class="primitive"/>
        </g>
        <g transform="translate(46.61,27.33)" id="img-dbf3a5be-19">
          <path fill="none" d="M-28.65,0 L28.65,0 " class="primitive"/>
        </g>
        <g transform="translate(46.61,7)" id="img-dbf3a5be-20">
          <path fill="none" d="M-28.65,0 L28.65,0 " class="primitive"/>
        </g>
      </g>
      <g class="guide xgridlines yfixed" stroke-dasharray="0.5,0.5" stroke-width="0.2" stroke="#D0D0E0" id="img-dbf3a5be-21">
        <g transform="translate(19.96,47.66)" id="img-dbf3a5be-22">
          <path fill="none" d="M0,-42.66 L0,42.66 " class="primitive"/>
        </g>
        <g transform="translate(37.73,47.66)" id="img-dbf3a5be-23">
          <path fill="none" d="M0,-42.66 L0,42.66 " class="primitive"/>
        </g>
        <g transform="translate(55.5,47.66)" id="img-dbf3a5be-24">
          <path fill="none" d="M0,-42.66 L0,42.66 " class="primitive"/>
        </g>
        <g transform="translate(73.27,47.66)" id="img-dbf3a5be-25">
          <path fill="none" d="M0,-42.66 L0,42.66 " class="primitive"/>
        </g>
      </g>
      <g class="plotpanel" id="img-dbf3a5be-26">
        <metadata>
          <boundingbox value="17.95833333333333mm 5.0mm 57.309689570642846mm 85.32666666666667mm"/>
          <unitbox value="2.443725052159147e6 40.98368718747438 1.6125498956817063e6 -41.96737437494876"/>
        </metadata>
        <g shape-rendering="crispEdges" stroke-width="0.3" id="img-dbf3a5be-27">
          <g stroke="#000000" stroke-opacity="0.000" class="geometry" id="img-dbf3a5be-28">
            <g fill="#00BFFF" id="img-dbf3a5be-29">
              <g transform="translate(22.66,87.31)" id="img-dbf3a5be-30">
                <path d="M-0.23,-1.02 L0.23,-1.02 0.23,1.02 -0.23,1.02  z" class="primitive"/>
              </g>
              <g transform="translate(23.06,87.31)" id="img-dbf3a5be-31">
                <path d="M-0.23,-1.02 L0.23,-1.02 0.23,1.02 -0.23,1.02  z" class="primitive"/>
              </g>
              <g transform="translate(23.46,86.29)" id="img-dbf3a5be-32">
                <path d="M-0.23,-2.03 L0.23,-2.03 0.23,2.03 -0.23,2.03  z" class="primitive"/>
              </g>
              <g transform="translate(23.86,88.33)" id="img-dbf3a5be-33">
                <path d="M-0.23,-0 L0.23,-0 0.23,0 -0.23,0  z" class="primitive"/>
              </g>
              <g transform="translate(24.26,88.33)" id="img-dbf3a5be-34">
                <path d="M-0.23,-0 L0.23,-0 0.23,0 -0.23,0  z" class="primitive"/>
              </g>
              <g transform="translate(24.66,85.28)" id="img-dbf3a5be-35">
                <path d="M-0.23,-3.05 L0.23,-3.05 0.23,3.05 -0.23,3.05  z" class="primitive"/>
              </g>
              <g transform="translate(25.06,88.33)" id="img-dbf3a5be-36">
                <path d="M-0.23,-0 L0.23,-0 0.23,0 -0.23,0  z" class="primitive"/>
              </g>
              <g transform="translate(25.46,87.31)" id="img-dbf3a5be-37">
                <path d="M-0.23,-1.02 L0.23,-1.02 0.23,1.02 -0.23,1.02  z" class="primitive"/>
              </g>
              <g transform="translate(25.87,87.31)" id="img-dbf3a5be-38">
                <path d="M-0.23,-1.02 L0.23,-1.02 0.23,1.02 -0.23,1.02  z" class="primitive"/>
              </g>
              <g transform="translate(26.27,87.31)" id="img-dbf3a5be-39">
                <path d="M-0.23,-1.02 L0.23,-1.02 0.23,1.02 -0.23,1.02  z" class="primitive"/>
              </g>
              <g transform="translate(26.67,88.33)" id="img-dbf3a5be-40">
                <path d="M-0.23,-0 L0.23,-0 0.23,0 -0.23,0  z" class="primitive"/>
              </g>
              <g transform="translate(27.07,83.24)" id="img-dbf3a5be-41">
                <path d="M-0.23,-5.08 L0.23,-5.08 0.23,5.08 -0.23,5.08  z" class="primitive"/>
              </g>
              <g transform="translate(27.47,86.29)" id="img-dbf3a5be-42">
                <path d="M-0.23,-2.03 L0.23,-2.03 0.23,2.03 -0.23,2.03  z" class="primitive"/>
              </g>
              <g transform="translate(27.87,85.28)" id="img-dbf3a5be-43">
                <path d="M-0.23,-3.05 L0.23,-3.05 0.23,3.05 -0.23,3.05  z" class="primitive"/>
              </g>
              <g transform="translate(28.27,86.29)" id="img-dbf3a5be-44">
                <path d="M-0.23,-2.03 L0.23,-2.03 0.23,2.03 -0.23,2.03  z" class="primitive"/>
              </g>
              <g transform="translate(28.67,80.19)" id="img-dbf3a5be-45">
                <path d="M-0.23,-8.13 L0.23,-8.13 0.23,8.13 -0.23,8.13  z" class="primitive"/>
              </g>
              <g transform="translate(29.07,80.19)" id="img-dbf3a5be-46">
                <path d="M-0.23,-8.13 L0.23,-8.13 0.23,8.13 -0.23,8.13  z" class="primitive"/>
              </g>
              <g transform="translate(29.47,86.29)" id="img-dbf3a5be-47">
                <path d="M-0.23,-2.03 L0.23,-2.03 0.23,2.03 -0.23,2.03  z" class="primitive"/>
              </g>
              <g transform="translate(29.87,82.23)" id="img-dbf3a5be-48">
                <path d="M-0.23,-6.1 L0.23,-6.1 0.23,6.1 -0.23,6.1  z" class="primitive"/>
              </g>
              <g transform="translate(30.27,83.24)" id="img-dbf3a5be-49">
                <path d="M-0.23,-5.08 L0.23,-5.08 0.23,5.08 -0.23,5.08  z" class="primitive"/>
              </g>
              <g transform="translate(30.68,81.21)" id="img-dbf3a5be-50">
                <path d="M-0.23,-7.12 L0.23,-7.12 0.23,7.12 -0.23,7.12  z" class="primitive"/>
              </g>
              <g transform="translate(31.08,81.21)" id="img-dbf3a5be-51">
                <path d="M-0.23,-7.12 L0.23,-7.12 0.23,7.12 -0.23,7.12  z" class="primitive"/>
              </g>
              <g transform="translate(31.48,79.18)" id="img-dbf3a5be-52">
                <path d="M-0.23,-9.15 L0.23,-9.15 0.23,9.15 -0.23,9.15  z" class="primitive"/>
              </g>
              <g transform="translate(31.88,76.13)" id="img-dbf3a5be-53">
                <path d="M-0.23,-12.2 L0.23,-12.2 0.23,12.2 -0.23,12.2  z" class="primitive"/>
              </g>
              <g transform="translate(32.28,71.04)" id="img-dbf3a5be-54">
                <path d="M-0.23,-17.28 L0.23,-17.28 0.23,17.28 -0.23,17.28  z" class="primitive"/>
              </g>
              <g transform="translate(32.68,73.08)" id="img-dbf3a5be-55">
                <path d="M-0.23,-15.25 L0.23,-15.25 0.23,15.25 -0.23,15.25  z" class="primitive"/>
              </g>
              <g transform="translate(33.08,75.11)" id="img-dbf3a5be-56">
                <path d="M-0.23,-13.22 L0.23,-13.22 0.23,13.22 -0.23,13.22  z" class="primitive"/>
              </g>
              <g transform="translate(33.48,80.19)" id="img-dbf3a5be-57">
                <path d="M-0.23,-8.13 L0.23,-8.13 0.23,8.13 -0.23,8.13  z" class="primitive"/>
              </g>
              <g transform="translate(33.88,63.93)" id="img-dbf3a5be-58">
                <path d="M-0.23,-24.4 L0.23,-24.4 0.23,24.4 -0.23,24.4  z" class="primitive"/>
              </g>
              <g transform="translate(34.28,72.06)" id="img-dbf3a5be-59">
                <path d="M-0.23,-16.27 L0.23,-16.27 0.23,16.27 -0.23,16.27  z" class="primitive"/>
              </g>
              <g transform="translate(34.68,66.98)" id="img-dbf3a5be-60">
                <path d="M-0.23,-21.35 L0.23,-21.35 0.23,21.35 -0.23,21.35  z" class="primitive"/>
              </g>
              <g transform="translate(35.08,70.03)" id="img-dbf3a5be-61">
                <path d="M-0.23,-18.3 L0.23,-18.3 0.23,18.3 -0.23,18.3  z" class="primitive"/>
              </g>
              <g transform="translate(35.49,70.03)" id="img-dbf3a5be-62">
                <path d="M-0.23,-18.3 L0.23,-18.3 0.23,18.3 -0.23,18.3  z" class="primitive"/>
              </g>
              <g transform="translate(35.89,63.93)" id="img-dbf3a5be-63">
                <path d="M-0.23,-24.4 L0.23,-24.4 0.23,24.4 -0.23,24.4  z" class="primitive"/>
              </g>
              <g transform="translate(36.29,73.08)" id="img-dbf3a5be-64">
                <path d="M-0.23,-15.25 L0.23,-15.25 0.23,15.25 -0.23,15.25  z" class="primitive"/>
              </g>
              <g transform="translate(36.69,66.98)" id="img-dbf3a5be-65">
                <path d="M-0.23,-21.35 L0.23,-21.35 0.23,21.35 -0.23,21.35  z" class="primitive"/>
              </g>
              <g transform="translate(37.09,60.88)" id="img-dbf3a5be-66">
                <path d="M-0.23,-27.45 L0.23,-27.45 0.23,27.45 -0.23,27.45  z" class="primitive"/>
              </g>
              <g transform="translate(37.49,70.03)" id="img-dbf3a5be-67">
                <path d="M-0.23,-18.3 L0.23,-18.3 0.23,18.3 -0.23,18.3  z" class="primitive"/>
              </g>
              <g transform="translate(37.89,69.01)" id="img-dbf3a5be-68">
                <path d="M-0.23,-19.32 L0.23,-19.32 0.23,19.32 -0.23,19.32  z" class="primitive"/>
              </g>
              <g transform="translate(38.29,59.86)" id="img-dbf3a5be-69">
                <path d="M-0.23,-28.46 L0.23,-28.46 0.23,28.46 -0.23,28.46  z" class="primitive"/>
              </g>
              <g transform="translate(38.69,60.88)" id="img-dbf3a5be-70">
                <path d="M-0.23,-27.45 L0.23,-27.45 0.23,27.45 -0.23,27.45  z" class="primitive"/>
              </g>
              <g transform="translate(39.09,62.91)" id="img-dbf3a5be-71">
                <path d="M-0.23,-25.41 L0.23,-25.41 0.23,25.41 -0.23,25.41  z" class="primitive"/>
              </g>
              <g transform="translate(39.49,65.96)" id="img-dbf3a5be-72">
                <path d="M-0.23,-22.36 L0.23,-22.36 0.23,22.36 -0.23,22.36  z" class="primitive"/>
              </g>
              <g transform="translate(39.89,60.88)" id="img-dbf3a5be-73">
                <path d="M-0.23,-27.45 L0.23,-27.45 0.23,27.45 -0.23,27.45  z" class="primitive"/>
              </g>
              <g transform="translate(40.29,62.91)" id="img-dbf3a5be-74">
                <path d="M-0.23,-25.41 L0.23,-25.41 0.23,25.41 -0.23,25.41  z" class="primitive"/>
              </g>
              <g transform="translate(40.7,69.01)" id="img-dbf3a5be-75">
                <path d="M-0.23,-19.32 L0.23,-19.32 0.23,19.32 -0.23,19.32  z" class="primitive"/>
              </g>
              <g transform="translate(41.1,64.95)" id="img-dbf3a5be-76">
                <path d="M-0.23,-23.38 L0.23,-23.38 0.23,23.38 -0.23,23.38  z" class="primitive"/>
              </g>
              <g transform="translate(41.5,61.9)" id="img-dbf3a5be-77">
                <path d="M-0.23,-26.43 L0.23,-26.43 0.23,26.43 -0.23,26.43  z" class="primitive"/>
              </g>
              <g transform="translate(41.9,60.88)" id="img-dbf3a5be-78">
                <path d="M-0.23,-27.45 L0.23,-27.45 0.23,27.45 -0.23,27.45  z" class="primitive"/>
              </g>
              <g transform="translate(42.3,65.96)" id="img-dbf3a5be-79">
                <path d="M-0.23,-22.36 L0.23,-22.36 0.23,22.36 -0.23,22.36  z" class="primitive"/>
              </g>
              <g transform="translate(42.7,64.95)" id="img-dbf3a5be-80">
                <path d="M-0.23,-23.38 L0.23,-23.38 0.23,23.38 -0.23,23.38  z" class="primitive"/>
              </g>
              <g transform="translate(43.1,71.04)" id="img-dbf3a5be-81">
                <path d="M-0.23,-17.28 L0.23,-17.28 0.23,17.28 -0.23,17.28  z" class="primitive"/>
              </g>
              <g transform="translate(43.5,60.88)" id="img-dbf3a5be-82">
                <path d="M-0.23,-27.45 L0.23,-27.45 0.23,27.45 -0.23,27.45  z" class="primitive"/>
              </g>
              <g transform="translate(43.9,61.9)" id="img-dbf3a5be-83">
                <path d="M-0.23,-26.43 L0.23,-26.43 0.23,26.43 -0.23,26.43  z" class="primitive"/>
              </g>
              <g transform="translate(44.3,56.81)" id="img-dbf3a5be-84">
                <path d="M-0.23,-31.51 L0.23,-31.51 0.23,31.51 -0.23,31.51  z" class="primitive"/>
              </g>
              <g transform="translate(44.7,70.03)" id="img-dbf3a5be-85">
                <path d="M-0.23,-18.3 L0.23,-18.3 0.23,18.3 -0.23,18.3  z" class="primitive"/>
              </g>
              <g transform="translate(45.1,71.04)" id="img-dbf3a5be-86">
                <path d="M-0.23,-17.28 L0.23,-17.28 0.23,17.28 -0.23,17.28  z" class="primitive"/>
              </g>
              <g transform="translate(45.51,66.98)" id="img-dbf3a5be-87">
                <path d="M-0.23,-21.35 L0.23,-21.35 0.23,21.35 -0.23,21.35  z" class="primitive"/>
              </g>
              <g transform="translate(45.91,75.11)" id="img-dbf3a5be-88">
                <path d="M-0.23,-13.22 L0.23,-13.22 0.23,13.22 -0.23,13.22  z" class="primitive"/>
              </g>
              <g transform="translate(46.31,69.01)" id="img-dbf3a5be-89">
                <path d="M-0.23,-19.32 L0.23,-19.32 0.23,19.32 -0.23,19.32  z" class="primitive"/>
              </g>
              <g transform="translate(46.71,78.16)" id="img-dbf3a5be-90">
                <path d="M-0.23,-10.17 L0.23,-10.17 0.23,10.17 -0.23,10.17  z" class="primitive"/>
              </g>
              <g transform="translate(47.11,73.08)" id="img-dbf3a5be-91">
                <path d="M-0.23,-15.25 L0.23,-15.25 0.23,15.25 -0.23,15.25  z" class="primitive"/>
              </g>
              <g transform="translate(47.51,78.16)" id="img-dbf3a5be-92">
                <path d="M-0.23,-10.17 L0.23,-10.17 0.23,10.17 -0.23,10.17  z" class="primitive"/>
              </g>
              <g transform="translate(47.91,79.18)" id="img-dbf3a5be-93">
                <path d="M-0.23,-9.15 L0.23,-9.15 0.23,9.15 -0.23,9.15  z" class="primitive"/>
              </g>
              <g transform="translate(48.31,81.21)" id="img-dbf3a5be-94">
                <path d="M-0.23,-7.12 L0.23,-7.12 0.23,7.12 -0.23,7.12  z" class="primitive"/>
              </g>
              <g transform="translate(48.71,85.28)" id="img-dbf3a5be-95">
                <path d="M-0.23,-3.05 L0.23,-3.05 0.23,3.05 -0.23,3.05  z" class="primitive"/>
              </g>
              <g transform="translate(49.11,79.18)" id="img-dbf3a5be-96">
                <path d="M-0.23,-9.15 L0.23,-9.15 0.23,9.15 -0.23,9.15  z" class="primitive"/>
              </g>
              <g transform="translate(49.51,80.19)" id="img-dbf3a5be-97">
                <path d="M-0.23,-8.13 L0.23,-8.13 0.23,8.13 -0.23,8.13  z" class="primitive"/>
              </g>
              <g transform="translate(49.91,81.21)" id="img-dbf3a5be-98">
                <path d="M-0.23,-7.12 L0.23,-7.12 0.23,7.12 -0.23,7.12  z" class="primitive"/>
              </g>
              <g transform="translate(50.32,78.16)" id="img-dbf3a5be-99">
                <path d="M-0.23,-10.17 L0.23,-10.17 0.23,10.17 -0.23,10.17  z" class="primitive"/>
              </g>
              <g transform="translate(50.72,79.18)" id="img-dbf3a5be-100">
                <path d="M-0.23,-9.15 L0.23,-9.15 0.23,9.15 -0.23,9.15  z" class="primitive"/>
              </g>
              <g transform="translate(51.12,82.23)" id="img-dbf3a5be-101">
                <path d="M-0.23,-6.1 L0.23,-6.1 0.23,6.1 -0.23,6.1  z" class="primitive"/>
              </g>
              <g transform="translate(51.52,85.28)" id="img-dbf3a5be-102">
                <path d="M-0.23,-3.05 L0.23,-3.05 0.23,3.05 -0.23,3.05  z" class="primitive"/>
              </g>
              <g transform="translate(51.92,85.28)" id="img-dbf3a5be-103">
                <path d="M-0.23,-3.05 L0.23,-3.05 0.23,3.05 -0.23,3.05  z" class="primitive"/>
              </g>
              <g transform="translate(52.32,83.24)" id="img-dbf3a5be-104">
                <path d="M-0.23,-5.08 L0.23,-5.08 0.23,5.08 -0.23,5.08  z" class="primitive"/>
              </g>
              <g transform="translate(52.72,79.18)" id="img-dbf3a5be-105">
                <path d="M-0.23,-9.15 L0.23,-9.15 0.23,9.15 -0.23,9.15  z" class="primitive"/>
              </g>
              <g transform="translate(53.12,83.24)" id="img-dbf3a5be-106">
                <path d="M-0.23,-5.08 L0.23,-5.08 0.23,5.08 -0.23,5.08  z" class="primitive"/>
              </g>
              <g transform="translate(53.52,83.24)" id="img-dbf3a5be-107">
                <path d="M-0.23,-5.08 L0.23,-5.08 0.23,5.08 -0.23,5.08  z" class="primitive"/>
              </g>
              <g transform="translate(53.92,83.24)" id="img-dbf3a5be-108">
                <path d="M-0.23,-5.08 L0.23,-5.08 0.23,5.08 -0.23,5.08  z" class="primitive"/>
              </g>
              <g transform="translate(54.32,86.29)" id="img-dbf3a5be-109">
                <path d="M-0.23,-2.03 L0.23,-2.03 0.23,2.03 -0.23,2.03  z" class="primitive"/>
              </g>
              <g transform="translate(54.72,85.28)" id="img-dbf3a5be-110">
                <path d="M-0.23,-3.05 L0.23,-3.05 0.23,3.05 -0.23,3.05  z" class="primitive"/>
              </g>
              <g transform="translate(55.13,87.31)" id="img-dbf3a5be-111">
                <path d="M-0.23,-1.02 L0.23,-1.02 0.23,1.02 -0.23,1.02  z" class="primitive"/>
              </g>
              <g transform="translate(55.53,87.31)" id="img-dbf3a5be-112">
                <path d="M-0.23,-1.02 L0.23,-1.02 0.23,1.02 -0.23,1.02  z" class="primitive"/>
              </g>
              <g transform="translate(55.93,85.28)" id="img-dbf3a5be-113">
                <path d="M-0.23,-3.05 L0.23,-3.05 0.23,3.05 -0.23,3.05  z" class="primitive"/>
              </g>
              <g transform="translate(56.33,88.33)" id="img-dbf3a5be-114">
                <path d="M-0.23,-0 L0.23,-0 0.23,0 -0.23,0  z" class="primitive"/>
              </g>
              <g transform="translate(56.73,86.29)" id="img-dbf3a5be-115">
                <path d="M-0.23,-2.03 L0.23,-2.03 0.23,2.03 -0.23,2.03  z" class="primitive"/>
              </g>
              <g transform="translate(57.13,87.31)" id="img-dbf3a5be-116">
                <path d="M-0.23,-1.02 L0.23,-1.02 0.23,1.02 -0.23,1.02  z" class="primitive"/>
              </g>
              <g transform="translate(57.53,88.33)" id="img-dbf3a5be-117">
                <path d="M-0.23,-0 L0.23,-0 0.23,0 -0.23,0  z" class="primitive"/>
              </g>
              <g transform="translate(57.93,88.33)" id="img-dbf3a5be-118">
                <path d="M-0.23,-0 L0.23,-0 0.23,0 -0.23,0  z" class="primitive"/>
              </g>
              <g transform="translate(58.33,88.33)" id="img-dbf3a5be-119">
                <path d="M-0.23,-0 L0.23,-0 0.23,0 -0.23,0  z" class="primitive"/>
              </g>
              <g transform="translate(58.73,88.33)" id="img-dbf3a5be-120">
                <path d="M-0.23,-0 L0.23,-0 0.23,0 -0.23,0  z" class="primitive"/>
              </g>
              <g transform="translate(59.13,87.31)" id="img-dbf3a5be-121">
                <path d="M-0.23,-1.02 L0.23,-1.02 0.23,1.02 -0.23,1.02  z" class="primitive"/>
              </g>
              <g transform="translate(59.53,85.28)" id="img-dbf3a5be-122">
                <path d="M-0.23,-3.05 L0.23,-3.05 0.23,3.05 -0.23,3.05  z" class="primitive"/>
              </g>
              <g transform="translate(59.93,88.33)" id="img-dbf3a5be-123">
                <path d="M-0.23,-0 L0.23,-0 0.23,0 -0.23,0  z" class="primitive"/>
              </g>
              <g transform="translate(60.34,88.33)" id="img-dbf3a5be-124">
                <path d="M-0.23,-0 L0.23,-0 0.23,0 -0.23,0  z" class="primitive"/>
              </g>
              <g transform="translate(60.74,88.33)" id="img-dbf3a5be-125">
                <path d="M-0.23,-0 L0.23,-0 0.23,0 -0.23,0  z" class="primitive"/>
              </g>
              <g transform="translate(61.14,88.33)" id="img-dbf3a5be-126">
                <path d="M-0.23,-0 L0.23,-0 0.23,0 -0.23,0  z" class="primitive"/>
              </g>
              <g transform="translate(61.54,87.31)" id="img-dbf3a5be-127">
                <path d="M-0.23,-1.02 L0.23,-1.02 0.23,1.02 -0.23,1.02  z" class="primitive"/>
              </g>
              <g transform="translate(61.94,88.33)" id="img-dbf3a5be-128">
                <path d="M-0.23,-0 L0.23,-0 0.23,0 -0.23,0  z" class="primitive"/>
              </g>
              <g transform="translate(62.34,87.31)" id="img-dbf3a5be-129">
                <path d="M-0.23,-1.02 L0.23,-1.02 0.23,1.02 -0.23,1.02  z" class="primitive"/>
              </g>
            </g>
          </g>
        </g>
      </g>
    </g>
  </g>
  <g class="guide ylabels" font-size="2.82" font-family="'PT Sans Caption','Helvetica Neue','Helvetica',sans-serif" fill="#6C606B" id="img-dbf3a5be-130">
    <g transform="translate(16.96,88.33)" id="img-dbf3a5be-131">
      <g class="primitive">
        <text text-anchor="end" dy="0.35em">0</text>
      </g>
    </g>
    <g transform="translate(16.96,68)" id="img-dbf3a5be-132">
      <g class="primitive">
        <text text-anchor="end" dy="0.35em">10</text>
      </g>
    </g>
    <g transform="translate(16.96,47.66)" id="img-dbf3a5be-133">
      <g class="primitive">
        <text text-anchor="end" dy="0.35em">20</text>
      </g>
    </g>
    <g transform="translate(16.96,27.33)" id="img-dbf3a5be-134">
      <g class="primitive">
        <text text-anchor="end" dy="0.35em">30</text>
      </g>
    </g>
    <g transform="translate(16.96,7)" id="img-dbf3a5be-135">
      <g class="primitive">
        <text text-anchor="end" dy="0.35em">40</text>
      </g>
    </g>
  </g>
  <g font-size="3.88" font-family="'PT Sans','Helvetica Neue','Helvetica',sans-serif" fill="#564A55" stroke="#000000" stroke-opacity="0.000" id="img-dbf3a5be-136">
    <g transform="translate(8.81,45.66)" id="img-dbf3a5be-137">
      <g class="primitive">
        <text text-anchor="middle" dy="0.35em" transform="rotate(-90,0, 2)">frequency</text>
      </g>
    </g>
  </g>
</g>
<defs>
  <clipPath id="img-dbf3a5be-11">
    <path d="M17.96,5 L75.27,5 75.27,90.33 17.96,90.33 " />
  </clipPath>
</defs>
</svg>
