<?xml version="1.0" encoding="UTF-8"?>
<svg xmlns="http://www.w3.org/2000/svg"
     xmlns:xlink="http://www.w3.org/1999/xlink"
     xmlns:gadfly="http://www.gadflyjl.org/ns"
     version="1.2"
     width="141.42mm" height="100mm" viewBox="0 0 141.42 100"
     stroke="none"
     fill="#000000"
     stroke-width="0.3"
     font-size="3.88"
>
<defs>
  <marker id="arrow" markerWidth="15" markerHeight="7" refX="5" refY="3.5" orient="auto" markerUnits="strokeWidth">
    <path d="M0,0 L15,3.5 L0,7 z" stroke="context-stroke" fill="context-stroke"/>
  </marker>
</defs>
<g class="plotroot xscalable yscalable" id="img-a149948c-1">
  <g class="guide xlabels" font-size="2.82" font-family="'PT Sans Caption','Helvetica Neue','Helvetica',sans-serif" fill="#6C606B" id="img-a149948c-2">
    <g transform="translate(19.96,91.33)">
      <g class="primitive">
        <text text-anchor="middle" dy="0.6em">0</text>
      </g>
    </g>
    <g transform="translate(33.09,91.33)">
      <g class="primitive">
        <text text-anchor="middle" dy="0.6em">200</text>
      </g>
    </g>
    <g transform="translate(46.23,91.33)">
      <g class="primitive">
        <text text-anchor="middle" dy="0.6em">400</text>
      </g>
    </g>
    <g transform="translate(59.37,91.33)">
      <g class="primitive">
        <text text-anchor="middle" dy="0.6em">600</text>
      </g>
    </g>
    <g transform="translate(72.5,91.33)">
      <g class="primitive">
        <text text-anchor="middle" dy="0.6em">800</text>
      </g>
    </g>
    <g transform="translate(85.64,91.33)">
      <g class="primitive">
        <text text-anchor="middle" dy="0.6em">1000</text>
      </g>
    </g>
  </g>
  <g class="guide colorkey" id="img-a149948c-3">
    <g class="color_noncoding_coding_noncoding_3-path" id="img-a149948c-4">
      <g fill="#4C404B" font-size="2.82" font-family="'PT Sans','Helvetica Neue','Helvetica',sans-serif" id="img-a149948c-5">
        <g transform="translate(91.45,49.48)" id="img-a149948c-6">
          <g class="primitive">
            <text dy="0.35em">noncoding_coding_noncoding_3-path</text>
          </g>
        </g>
      </g>
      <g fill-opacity="1" fill="#00BFFF" stroke="#FFFFFF" id="img-a149948c-7">
        <g transform="translate(89.55,49.48)" id="img-a149948c-8">
          <path d="M-0.91,-0.91 L 0.91 -0.91 0.91 0.91 -0.91 0.91 z" class="primitive"/>
        </g>
      </g>
    </g>
    <g fill="#362A35" font-size="3.88" font-family="'PT Sans','Helvetica Neue','Helvetica',sans-serif" stroke="#000000" stroke-opacity="0.000" id="img-a149948c-9">
      <g transform="translate(88.64,45.66)" id="img-a149948c-10">
        <g class="primitive">
          <text dy="-0em">graphlet</text>
        </g>
      </g>
    </g>
  </g>
  <g clip-path="url(#img-a149948c-11)">
    <g id="img-a149948c-12">
      <g pointer-events="visible" stroke-width="0.3" fill="#000000" fill-opacity="0.000" stroke="#000000" stroke-opacity="0.000" class="guide background" id="img-a149948c-13">
        <g transform="translate(52.8,47.66)" id="img-a149948c-14">
          <path d="M-34.84,-42.66 L 34.84 -42.66 34.84 42.66 -34.84 42.66 z" class="primitive"/>
        </g>
      </g>
      <g class="guide ygridlines xfixed" stroke-dasharray="0.5,0.5" stroke-width="0.2" stroke="#D0D0E0" id="img-a149948c-15">
        <g transform="translate(52.8,88.33)" id="img-a149948c-16">
          <path fill="none" d="M-34.84,0 L 34.84 0" class="primitive"/>
        </g>
        <g transform="translate(52.8,68)" id="img-a149948c-17">
          <path fill="none" d="M-34.84,0 L 34.84 0" class="primitive"/>
        </g>
        <g transform="translate(52.8,47.66)" id="img-a149948c-18">
          <path fill="none" d="M-34.84,0 L 34.84 0" class="primitive"/>
        </g>
        <g transform="translate(52.8,27.33)" id="img-a149948c-19">
          <path fill="none" d="M-34.84,0 L 34.84 0" class="primitive"/>
        </g>
        <g transform="translate(52.8,7)" id="img-a149948c-20">
          <path fill="none" d="M-34.84,0 L 34.84 0" class="primitive"/>
        </g>
      </g>
      <g class="guide xgridlines yfixed" stroke-dasharray="0.5,0.5" stroke-width="0.2" stroke="#D0D0E0" id="img-a149948c-21">
        <g transform="translate(19.96,47.66)" id="img-a149948c-22">
          <path fill="none" d="M0,-42.66 L 0 42.66" class="primitive"/>
        </g>
        <g transform="translate(33.09,47.66)" id="img-a149948c-23">
          <path fill="none" d="M0,-42.66 L 0 42.66" class="primitive"/>
        </g>
        <g transform="translate(46.23,47.66)" id="img-a149948c-24">
          <path fill="none" d="M0,-42.66 L 0 42.66" class="primitive"/>
        </g>
        <g transform="translate(59.37,47.66)" id="img-a149948c-25">
          <path fill="none" d="M0,-42.66 L 0 42.66" class="primitive"/>
        </g>
        <g transform="translate(72.5,47.66)" id="img-a149948c-26">
          <path fill="none" d="M0,-42.66 L 0 42.66" class="primitive"/>
        </g>
        <g transform="translate(85.64,47.66)" id="img-a149948c-27">
          <path fill="none" d="M0,-42.66 L 0 42.66" class="primitive"/>
        </g>
      </g>
      <g class="plotpanel" id="img-a149948c-28">
        <metadata>
          <boundingbox value="17.95833333333333mm 5.0mm 69.68302290397617mm 85.32666666666667mm"/>
          <unitbox value="-30.44926849551147 40.98368718747438 1060.8985369910229 -41.96737437494876"/>
        </metadata>
        <g shape-rendering="crispEdges" stroke-width="0.3" id="img-a149948c-29">
          <g stroke="#000000" stroke-opacity="0.000" class="geometry" id="img-a149948c-30">
            <g fill="#00BFFF" id="img-a149948c-31">
              <g transform="translate(37.69,87.31)" id="img-a149948c-32">
                <path d="M-0.22,-1.02 L 0.22 -1.02 0.22 1.02 -0.22 1.02 z" class="primitive"/>
              </g>
              <g transform="translate(38.09,88.33)" id="img-a149948c-33">
                <path d="M-0.22,-0 L 0.22 -0 0.22 0 -0.22 0 z" class="primitive"/>
              </g>
              <g transform="translate(38.48,88.33)" id="img-a149948c-34">
                <path d="M-0.22,-0 L 0.22 -0 0.22 0 -0.22 0 z" class="primitive"/>
              </g>
              <g transform="translate(38.88,88.33)" id="img-a149948c-35">
                <path d="M-0.22,-0 L 0.22 -0 0.22 0 -0.22 0 z" class="primitive"/>
              </g>
              <g transform="translate(39.27,87.31)" id="img-a149948c-36">
                <path d="M-0.22,-1.02 L 0.22 -1.02 0.22 1.02 -0.22 1.02 z" class="primitive"/>
              </g>
              <g transform="translate(39.66,87.31)" id="img-a149948c-37">
                <path d="M-0.22,-1.02 L 0.22 -1.02 0.22 1.02 -0.22 1.02 z" class="primitive"/>
              </g>
              <g transform="translate(40.06,87.31)" id="img-a149948c-38">
                <path d="M-0.22,-1.02 L 0.22 -1.02 0.22 1.02 -0.22 1.02 z" class="primitive"/>
              </g>
              <g transform="translate(40.45,83.24)" id="img-a149948c-39">
                <path d="M-0.22,-5.08 L 0.22 -5.08 0.22 5.08 -0.22 5.08 z" class="primitive"/>
              </g>
              <g transform="translate(40.85,85.28)" id="img-a149948c-40">
                <path d="M-0.22,-3.05 L 0.22 -3.05 0.22 3.05 -0.22 3.05 z" class="primitive"/>
              </g>
              <g transform="translate(41.24,80.19)" id="img-a149948c-41">
                <path d="M-0.22,-8.13 L 0.22 -8.13 0.22 8.13 -0.22 8.13 z" class="primitive"/>
              </g>
              <g transform="translate(41.63,80.19)" id="img-a149948c-42">
                <path d="M-0.22,-8.13 L 0.22 -8.13 0.22 8.13 -0.22 8.13 z" class="primitive"/>
              </g>
              <g transform="translate(42.03,82.23)" id="img-a149948c-43">
                <path d="M-0.22,-6.1 L 0.22 -6.1 0.22 6.1 -0.22 6.1 z" class="primitive"/>
              </g>
              <g transform="translate(42.42,80.19)" id="img-a149948c-44">
                <path d="M-0.22,-8.13 L 0.22 -8.13 0.22 8.13 -0.22 8.13 z" class="primitive"/>
              </g>
              <g transform="translate(42.82,79.18)" id="img-a149948c-45">
                <path d="M-0.22,-9.15 L 0.22 -9.15 0.22 9.15 -0.22 9.15 z" class="primitive"/>
              </g>
              <g transform="translate(43.21,75.11)" id="img-a149948c-46">
                <path d="M-0.22,-13.22 L 0.22 -13.22 0.22 13.22 -0.22 13.22 z" class="primitive"/>
              </g>
              <g transform="translate(43.6,78.16)" id="img-a149948c-47">
                <path d="M-0.22,-10.17 L 0.22 -10.17 0.22 10.17 -0.22 10.17 z" class="primitive"/>
              </g>
              <g transform="translate(44,79.18)" id="img-a149948c-48">
                <path d="M-0.22,-9.15 L 0.22 -9.15 0.22 9.15 -0.22 9.15 z" class="primitive"/>
              </g>
              <g transform="translate(44.39,72.06)" id="img-a149948c-49">
                <path d="M-0.22,-16.27 L 0.22 -16.27 0.22 16.27 -0.22 16.27 z" class="primitive"/>
              </g>
              <g transform="translate(44.79,70.03)" id="img-a149948c-50">
                <path d="M-0.22,-18.3 L 0.22 -18.3 0.22 18.3 -0.22 18.3 z" class="primitive"/>
              </g>
              <g transform="translate(45.18,76.13)" id="img-a149948c-51">
                <path d="M-0.22,-12.2 L 0.22 -12.2 0.22 12.2 -0.22 12.2 z" class="primitive"/>
              </g>
              <g transform="translate(45.57,72.06)" id="img-a149948c-52">
                <path d="M-0.22,-16.27 L 0.22 -16.27 0.22 16.27 -0.22 16.27 z" class="primitive"/>
              </g>
              <g transform="translate(45.97,61.9)" id="img-a149948c-53">
                <path d="M-0.22,-26.43 L 0.22 -26.43 0.22 26.43 -0.22 26.43 z" class="primitive"/>
              </g>
              <g transform="translate(46.36,56.81)" id="img-a149948c-54">
                <path d="M-0.22,-31.51 L 0.22 -31.51 0.22 31.51 -0.22 31.51 z" class="primitive"/>
              </g>
              <g transform="translate(46.76,71.04)" id="img-a149948c-55">
                <path d="M-0.22,-17.28 L 0.22 -17.28 0.22 17.28 -0.22 17.28 z" class="primitive"/>
              </g>
              <g transform="translate(47.15,64.95)" id="img-a149948c-56">
                <path d="M-0.22,-23.38 L 0.22 -23.38 0.22 23.38 -0.22 23.38 z" class="primitive"/>
              </g>
              <g transform="translate(47.55,56.81)" id="img-a149948c-57">
                <path d="M-0.22,-31.51 L 0.22 -31.51 0.22 31.51 -0.22 31.51 z" class="primitive"/>
              </g>
              <g transform="translate(47.94,57.83)" id="img-a149948c-58">
                <path d="M-0.22,-30.5 L 0.22 -30.5 0.22 30.5 -0.22 30.5 z" class="primitive"/>
              </g>
              <g transform="translate(48.33,52.75)" id="img-a149948c-59">
                <path d="M-0.22,-35.58 L 0.22 -35.58 0.22 35.58 -0.22 35.58 z" class="primitive"/>
              </g>
              <g transform="translate(48.73,56.81)" id="img-a149948c-60">
                <path d="M-0.22,-31.51 L 0.22 -31.51 0.22 31.51 -0.22 31.51 z" class="primitive"/>
              </g>
              <g transform="translate(49.12,63.93)" id="img-a149948c-61">
                <path d="M-0.22,-24.4 L 0.22 -24.4 0.22 24.4 -0.22 24.4 z" class="primitive"/>
              </g>
              <g transform="translate(49.52,48.68)" id="img-a149948c-62">
                <path d="M-0.22,-39.65 L 0.22 -39.65 0.22 39.65 -0.22 39.65 z" class="primitive"/>
              </g>
              <g transform="translate(49.91,63.93)" id="img-a149948c-63">
                <path d="M-0.22,-24.4 L 0.22 -24.4 0.22 24.4 -0.22 24.4 z" class="primitive"/>
              </g>
              <g transform="translate(50.3,52.75)" id="img-a149948c-64">
                <path d="M-0.22,-35.58 L 0.22 -35.58 0.22 35.58 -0.22 35.58 z" class="primitive"/>
              </g>
              <g transform="translate(50.7,52.75)" id="img-a149948c-65">
                <path d="M-0.22,-35.58 L 0.22 -35.58 0.22 35.58 -0.22 35.58 z" class="primitive"/>
              </g>
              <g transform="translate(51.09,62.91)" id="img-a149948c-66">
                <path d="M-0.22,-25.41 L 0.22 -25.41 0.22 25.41 -0.22 25.41 z" class="primitive"/>
              </g>
              <g transform="translate(51.49,49.7)" id="img-a149948c-67">
                <path d="M-0.22,-38.63 L 0.22 -38.63 0.22 38.63 -0.22 38.63 z" class="primitive"/>
              </g>
              <g transform="translate(51.88,57.83)" id="img-a149948c-68">
                <path d="M-0.22,-30.5 L 0.22 -30.5 0.22 30.5 -0.22 30.5 z" class="primitive"/>
              </g>
              <g transform="translate(52.27,63.93)" id="img-a149948c-69">
                <path d="M-0.22,-24.4 L 0.22 -24.4 0.22 24.4 -0.22 24.4 z" class="primitive"/>
              </g>
              <g transform="translate(52.67,62.91)" id="img-a149948c-70">
                <path d="M-0.22,-25.41 L 0.22 -25.41 0.22 25.41 -0.22 25.41 z" class="primitive"/>
              </g>
              <g transform="translate(53.06,65.96)" id="img-a149948c-71">
                <path d="M-0.22,-22.36 L 0.22 -22.36 0.22 22.36 -0.22 22.36 z" class="primitive"/>
              </g>
              <g transform="translate(53.46,60.88)" id="img-a149948c-72">
                <path d="M-0.22,-27.45 L 0.22 -27.45 0.22 27.45 -0.22 27.45 z" class="primitive"/>
              </g>
              <g transform="translate(53.85,57.83)" id="img-a149948c-73">
                <path d="M-0.22,-30.5 L 0.22 -30.5 0.22 30.5 -0.22 30.5 z" class="primitive"/>
              </g>
              <g transform="translate(54.24,64.95)" id="img-a149948c-74">
                <path d="M-0.22,-23.38 L 0.22 -23.38 0.22 23.38 -0.22 23.38 z" class="primitive"/>
              </g>
              <g transform="translate(54.64,71.04)" id="img-a149948c-75">
                <path d="M-0.22,-17.28 L 0.22 -17.28 0.22 17.28 -0.22 17.28 z" class="primitive"/>
              </g>
              <g transform="translate(55.03,64.95)" id="img-a149948c-76">
                <path d="M-0.22,-23.38 L 0.22 -23.38 0.22 23.38 -0.22 23.38 z" class="primitive"/>
              </g>
              <g transform="translate(55.43,70.03)" id="img-a149948c-77">
                <path d="M-0.22,-18.3 L 0.22 -18.3 0.22 18.3 -0.22 18.3 z" class="primitive"/>
              </g>
              <g transform="translate(55.82,68)" id="img-a149948c-78">
                <path d="M-0.22,-20.33 L 0.22 -20.33 0.22 20.33 -0.22 20.33 z" class="primitive"/>
              </g>
              <g transform="translate(56.22,70.03)" id="img-a149948c-79">
                <path d="M-0.22,-18.3 L 0.22 -18.3 0.22 18.3 -0.22 18.3 z" class="primitive"/>
              </g>
              <g transform="translate(56.61,71.04)" id="img-a149948c-80">
                <path d="M-0.22,-17.28 L 0.22 -17.28 0.22 17.28 -0.22 17.28 z" class="primitive"/>
              </g>
              <g transform="translate(57,77.14)" id="img-a149948c-81">
                <path d="M-0.22,-11.18 L 0.22 -11.18 0.22 11.18 -0.22 11.18 z" class="primitive"/>
              </g>
              <g transform="translate(57.4,77.14)" id="img-a149948c-82">
                <path d="M-0.22,-11.18 L 0.22 -11.18 0.22 11.18 -0.22 11.18 z" class="primitive"/>
              </g>
              <g transform="translate(57.79,74.09)" id="img-a149948c-83">
                <path d="M-0.22,-14.23 L 0.22 -14.23 0.22 14.23 -0.22 14.23 z" class="primitive"/>
              </g>
              <g transform="translate(58.19,80.19)" id="img-a149948c-84">
                <path d="M-0.22,-8.13 L 0.22 -8.13 0.22 8.13 -0.22 8.13 z" class="primitive"/>
              </g>
              <g transform="translate(58.58,79.18)" id="img-a149948c-85">
                <path d="M-0.22,-9.15 L 0.22 -9.15 0.22 9.15 -0.22 9.15 z" class="primitive"/>
              </g>
              <g transform="translate(58.97,86.29)" id="img-a149948c-86">
                <path d="M-0.22,-2.03 L 0.22 -2.03 0.22 2.03 -0.22 2.03 z" class="primitive"/>
              </g>
              <g transform="translate(59.37,83.24)" id="img-a149948c-87">
                <path d="M-0.22,-5.08 L 0.22 -5.08 0.22 5.08 -0.22 5.08 z" class="primitive"/>
              </g>
              <g transform="translate(59.76,81.21)" id="img-a149948c-88">
                <path d="M-0.22,-7.12 L 0.22 -7.12 0.22 7.12 -0.22 7.12 z" class="primitive"/>
              </g>
              <g transform="translate(60.16,84.26)" id="img-a149948c-89">
                <path d="M-0.22,-4.07 L 0.22 -4.07 0.22 4.07 -0.22 4.07 z" class="primitive"/>
              </g>
              <g transform="translate(60.55,83.24)" id="img-a149948c-90">
                <path d="M-0.22,-5.08 L 0.22 -5.08 0.22 5.08 -0.22 5.08 z" class="primitive"/>
              </g>
              <g transform="translate(60.94,83.24)" id="img-a149948c-91">
                <path d="M-0.22,-5.08 L 0.22 -5.08 0.22 5.08 -0.22 5.08 z" class="primitive"/>
              </g>
              <g transform="translate(61.34,84.26)" id="img-a149948c-92">
                <path d="M-0.22,-4.07 L 0.22 -4.07 0.22 4.07 -0.22 4.07 z" class="primitive"/>
              </g>
              <g transform="translate(61.73,84.26)" id="img-a149948c-93">
                <path d="M-0.22,-4.07 L 0.22 -4.07 0.22 4.07 -0.22 4.07 z" class="primitive"/>
              </g>
              <g transform="translate(62.13,87.31)" id="img-a149948c-94">
                <path d="M-0.22,-1.02 L 0.22 -1.02 0.22 1.02 -0.22 1.02 z" class="primitive"/>
              </g>
              <g transform="translate(62.52,83.24)" id="img-a149948c-95">
                <path d="M-0.22,-5.08 L 0.22 -5.08 0.22 5.08 -0.22 5.08 z" class="primitive"/>
              </g>
              <g transform="translate(62.92,86.29)" id="img-a149948c-96">
                <path d="M-0.22,-2.03 L 0.22 -2.03 0.22 2.03 -0.22 2.03 z" class="primitive"/>
              </g>
              <g transform="translate(63.31,83.24)" id="img-a149948c-97">
                <path d="M-0.22,-5.08 L 0.22 -5.08 0.22 5.08 -0.22 5.08 z" class="primitive"/>
              </g>
              <g transform="translate(63.7,84.26)" id="img-a149948c-98">
                <path d="M-0.22,-4.07 L 0.22 -4.07 0.22 4.07 -0.22 4.07 z" class="primitive"/>
              </g>
              <g transform="translate(64.1,87.31)" id="img-a149948c-99">
                <path d="M-0.22,-1.02 L 0.22 -1.02 0.22 1.02 -0.22 1.02 z" class="primitive"/>
              </g>
              <g transform="translate(64.49,87.31)" id="img-a149948c-100">
                <path d="M-0.22,-1.02 L 0.22 -1.02 0.22 1.02 -0.22 1.02 z" class="primitive"/>
              </g>
              <g transform="translate(64.89,87.31)" id="img-a149948c-101">
                <path d="M-0.22,-1.02 L 0.22 -1.02 0.22 1.02 -0.22 1.02 z" class="primitive"/>
              </g>
              <g transform="translate(65.28,86.29)" id="img-a149948c-102">
                <path d="M-0.22,-2.03 L 0.22 -2.03 0.22 2.03 -0.22 2.03 z" class="primitive"/>
              </g>
              <g transform="translate(65.67,87.31)" id="img-a149948c-103">
                <path d="M-0.22,-1.02 L 0.22 -1.02 0.22 1.02 -0.22 1.02 z" class="primitive"/>
              </g>
              <g transform="translate(66.07,88.33)" id="img-a149948c-104">
                <path d="M-0.22,-0 L 0.22 -0 0.22 0 -0.22 0 z" class="primitive"/>
              </g>
              <g transform="translate(66.46,86.29)" id="img-a149948c-105">
                <path d="M-0.22,-2.03 L 0.22 -2.03 0.22 2.03 -0.22 2.03 z" class="primitive"/>
              </g>
              <g transform="translate(66.86,88.33)" id="img-a149948c-106">
                <path d="M-0.22,-0 L 0.22 -0 0.22 0 -0.22 0 z" class="primitive"/>
              </g>
              <g transform="translate(67.25,87.31)" id="img-a149948c-107">
                <path d="M-0.22,-1.02 L 0.22 -1.02 0.22 1.02 -0.22 1.02 z" class="primitive"/>
              </g>
              <g transform="translate(67.64,88.33)" id="img-a149948c-108">
                <path d="M-0.22,-0 L 0.22 -0 0.22 0 -0.22 0 z" class="primitive"/>
              </g>
              <g transform="translate(68.04,88.33)" id="img-a149948c-109">
                <path d="M-0.22,-0 L 0.22 -0 0.22 0 -0.22 0 z" class="primitive"/>
              </g>
              <g transform="translate(68.43,88.33)" id="img-a149948c-110">
                <path d="M-0.22,-0 L 0.22 -0 0.22 0 -0.22 0 z" class="primitive"/>
              </g>
              <g transform="translate(68.83,88.33)" id="img-a149948c-111">
                <path d="M-0.22,-0 L 0.22 -0 0.22 0 -0.22 0 z" class="primitive"/>
              </g>
              <g transform="translate(69.22,88.33)" id="img-a149948c-112">
                <path d="M-0.22,-0 L 0.22 -0 0.22 0 -0.22 0 z" class="primitive"/>
              </g>
              <g transform="translate(69.61,87.31)" id="img-a149948c-113">
                <path d="M-0.22,-1.02 L 0.22 -1.02 0.22 1.02 -0.22 1.02 z" class="primitive"/>
              </g>
              <g transform="translate(70.01,88.33)" id="img-a149948c-114">
                <path d="M-0.22,-0 L 0.22 -0 0.22 0 -0.22 0 z" class="primitive"/>
              </g>
              <g transform="translate(70.4,88.33)" id="img-a149948c-115">
                <path d="M-0.22,-0 L 0.22 -0 0.22 0 -0.22 0 z" class="primitive"/>
              </g>
              <g transform="translate(70.8,88.33)" id="img-a149948c-116">
                <path d="M-0.22,-0 L 0.22 -0 0.22 0 -0.22 0 z" class="primitive"/>
              </g>
              <g transform="translate(71.19,88.33)" id="img-a149948c-117">
                <path d="M-0.22,-0 L 0.22 -0 0.22 0 -0.22 0 z" class="primitive"/>
              </g>
              <g transform="translate(71.59,88.33)" id="img-a149948c-118">
                <path d="M-0.22,-0 L 0.22 -0 0.22 0 -0.22 0 z" class="primitive"/>
              </g>
              <g transform="translate(71.98,88.33)" id="img-a149948c-119">
                <path d="M-0.22,-0 L 0.22 -0 0.22 0 -0.22 0 z" class="primitive"/>
              </g>
              <g transform="translate(72.37,88.33)" id="img-a149948c-120">
                <path d="M-0.22,-0 L 0.22 -0 0.22 0 -0.22 0 z" class="primitive"/>
              </g>
              <g transform="translate(72.77,88.33)" id="img-a149948c-121">
                <path d="M-0.22,-0 L 0.22 -0 0.22 0 -0.22 0 z" class="primitive"/>
              </g>
              <g transform="translate(73.16,88.33)" id="img-a149948c-122">
                <path d="M-0.22,-0 L 0.22 -0 0.22 0 -0.22 0 z" class="primitive"/>
              </g>
              <g transform="translate(73.56,88.33)" id="img-a149948c-123">
                <path d="M-0.22,-0 L 0.22 -0 0.22 0 -0.22 0 z" class="primitive"/>
              </g>
              <g transform="translate(73.95,88.33)" id="img-a149948c-124">
                <path d="M-0.22,-0 L 0.22 -0 0.22 0 -0.22 0 z" class="primitive"/>
              </g>
              <g transform="translate(74.34,88.33)" id="img-a149948c-125">
                <path d="M-0.22,-0 L 0.22 -0 0.22 0 -0.22 0 z" class="primitive"/>
              </g>
              <g transform="translate(74.74,88.33)" id="img-a149948c-126">
                <path d="M-0.22,-0 L 0.22 -0 0.22 0 -0.22 0 z" class="primitive"/>
              </g>
              <g transform="translate(75.13,88.33)" id="img-a149948c-127">
                <path d="M-0.22,-0 L 0.22 -0 0.22 0 -0.22 0 z" class="primitive"/>
              </g>
              <g transform="translate(75.53,88.33)" id="img-a149948c-128">
                <path d="M-0.22,-0 L 0.22 -0 0.22 0 -0.22 0 z" class="primitive"/>
              </g>
              <g transform="translate(75.92,88.33)" id="img-a149948c-129">
                <path d="M-0.22,-0 L 0.22 -0 0.22 0 -0.22 0 z" class="primitive"/>
              </g>
              <g transform="translate(76.31,88.33)" id="img-a149948c-130">
                <path d="M-0.22,-0 L 0.22 -0 0.22 0 -0.22 0 z" class="primitive"/>
              </g>
              <g transform="translate(76.71,87.31)" id="img-a149948c-131">
                <path d="M-0.22,-1.02 L 0.22 -1.02 0.22 1.02 -0.22 1.02 z" class="primitive"/>
              </g>
            </g>
          </g>
        </g>
      </g>
    </g>
  </g>
  <g class="guide ylabels" font-size="2.82" font-family="'PT Sans Caption','Helvetica Neue','Helvetica',sans-serif" fill="#6C606B" id="img-a149948c-132">
    <g transform="translate(16.96,88.33)" id="img-a149948c-133">
      <g class="primitive">
        <text text-anchor="end" dy="0.35em">0</text>
      </g>
    </g>
    <g transform="translate(16.96,68)" id="img-a149948c-134">
      <g class="primitive">
        <text text-anchor="end" dy="0.35em">10</text>
      </g>
    </g>
    <g transform="translate(16.96,47.66)" id="img-a149948c-135">
      <g class="primitive">
        <text text-anchor="end" dy="0.35em">20</text>
      </g>
    </g>
    <g transform="translate(16.96,27.33)" id="img-a149948c-136">
      <g class="primitive">
        <text text-anchor="end" dy="0.35em">30</text>
      </g>
    </g>
    <g transform="translate(16.96,7)" id="img-a149948c-137">
      <g class="primitive">
        <text text-anchor="end" dy="0.35em">40</text>
      </g>
    </g>
  </g>
  <g font-size="3.88" font-family="'PT Sans','Helvetica Neue','Helvetica',sans-serif" fill="#564A55" stroke="#000000" stroke-opacity="0.000" id="img-a149948c-138">
    <g transform="translate(8.81,45.66)" id="img-a149948c-139">
      <g class="primitive">
        <text text-anchor="middle" dy="0.35em" transform="rotate(-90,0, 2)">frequency</text>
      </g>
    </g>
  </g>
</g>
<defs>
  <clipPath id="img-a149948c-11">
    <path d="M17.96,5 L 87.64 5 87.64 90.33 17.96 90.33" />
  </clipPath>
</defs>
</svg>
