<?xml version="1.0" encoding="UTF-8"?>
<svg xmlns="http://www.w3.org/2000/svg"
     xmlns:xlink="http://www.w3.org/1999/xlink"
     xmlns:gadfly="http://www.gadflyjl.org/ns"
     version="1.2"
     width="141.42mm" height="100mm" viewBox="0 0 141.42 100"
     stroke="none"
     fill="#000000"
     stroke-width="0.3"
     font-size="3.88"
>
<defs>
  <marker id="arrow" markerWidth="15" markerHeight="7" refX="5" refY="3.5" orient="auto" markerUnits="strokeWidth">
    <path d="M0,0 L15,3.5 L0,7 z" stroke="context-stroke" fill="context-stroke"/>
  </marker>
</defs>
<g class="plotroot xscalable yscalable" id="img-3fac456a-1">
  <g class="guide xlabels" font-size="2.82" font-family="'PT Sans Caption','Helvetica Neue','Helvetica',sans-serif" fill="#6C606B" id="img-3fac456a-2">
    <g transform="translate(19.96,80.21)">
      <g class="primitive">
        <text text-anchor="end" dy="0.35em" transform="rotate(-90,0, 0)">8.00×10⁶</text>
      </g>
    </g>
    <g transform="translate(32.91,80.21)">
      <g class="primitive">
        <text text-anchor="end" dy="0.35em" transform="rotate(-90,0, 0)">9.00×10⁶</text>
      </g>
    </g>
    <g transform="translate(45.87,80.21)">
      <g class="primitive">
        <text text-anchor="end" dy="0.35em" transform="rotate(-90,0, 0)">1.00×10⁷</text>
      </g>
    </g>
    <g transform="translate(58.83,80.21)">
      <g class="primitive">
        <text text-anchor="end" dy="0.35em" transform="rotate(-90,0, 0)">1.10×10⁷</text>
      </g>
    </g>
    <g transform="translate(71.78,80.21)">
      <g class="primitive">
        <text text-anchor="end" dy="0.35em" transform="rotate(-90,0, 0)">1.20×10⁷</text>
      </g>
    </g>
  </g>
  <g class="guide colorkey" id="img-3fac456a-3">
    <g class="color_noncoding_coding_noncoding_noncoding_4-path" id="img-3fac456a-4">
      <g fill="#4C404B" font-size="2.82" font-family="'PT Sans','Helvetica Neue','Helvetica',sans-serif" id="img-3fac456a-5">
        <g transform="translate(77.59,43.92)" id="img-3fac456a-6">
          <g class="primitive">
            <text dy="0.35em">noncoding_coding_noncoding_noncoding_4-path</text>
          </g>
        </g>
      </g>
      <g fill-opacity="1" fill="#00BFFF" stroke="#FFFFFF" id="img-3fac456a-7">
        <g transform="translate(75.69,43.92)" id="img-3fac456a-8">
          <path d="M-0.91,-0.91 L0.91,-0.91 0.91,0.91 -0.91,0.91  z" class="primitive"/>
        </g>
      </g>
    </g>
    <g fill="#362A35" font-size="3.88" font-family="'PT Sans','Helvetica Neue','Helvetica',sans-serif" stroke="#000000" stroke-opacity="0.000" id="img-3fac456a-9">
      <g transform="translate(74.78,40.1)" id="img-3fac456a-10">
        <g class="primitive">
          <text dy="-0em">graphlet</text>
        </g>
      </g>
    </g>
  </g>
  <g clip-path="url(#img-3fac456a-11)">
    <g id="img-3fac456a-12">
      <g pointer-events="visible" stroke-width="0.3" fill="#000000" fill-opacity="0.000" stroke="#000000" stroke-opacity="0.000" class="guide background" id="img-3fac456a-13">
        <g transform="translate(45.87,42.11)" id="img-3fac456a-14">
          <path d="M-27.91,-37.11 L27.91,-37.11 27.91,37.11 -27.91,37.11  z" class="primitive"/>
        </g>
      </g>
      <g class="guide ygridlines xfixed" stroke-dasharray="0.5,0.5" stroke-width="0.2" stroke="#D0D0E0" id="img-3fac456a-15">
        <g transform="translate(45.87,77.21)" id="img-3fac456a-16">
          <path fill="none" d="M-27.91,0 L27.91,0 " class="primitive"/>
        </g>
        <g transform="translate(45.87,59.66)" id="img-3fac456a-17">
          <path fill="none" d="M-27.91,0 L27.91,0 " class="primitive"/>
        </g>
        <g transform="translate(45.87,42.11)" id="img-3fac456a-18">
          <path fill="none" d="M-27.91,0 L27.91,0 " class="primitive"/>
        </g>
        <g transform="translate(45.87,24.55)" id="img-3fac456a-19">
          <path fill="none" d="M-27.91,0 L27.91,0 " class="primitive"/>
        </g>
        <g transform="translate(45.87,7)" id="img-3fac456a-20">
          <path fill="none" d="M-27.91,0 L27.91,0 " class="primitive"/>
        </g>
      </g>
      <g class="guide xgridlines yfixed" stroke-dasharray="0.5,0.5" stroke-width="0.2" stroke="#D0D0E0" id="img-3fac456a-21">
        <g transform="translate(19.96,42.11)" id="img-3fac456a-22">
          <path fill="none" d="M0,-37.11 L0,37.11 " class="primitive"/>
        </g>
        <g transform="translate(32.91,42.11)" id="img-3fac456a-23">
          <path fill="none" d="M0,-37.11 L0,37.11 " class="primitive"/>
        </g>
        <g transform="translate(45.87,42.11)" id="img-3fac456a-24">
          <path fill="none" d="M0,-37.11 L0,37.11 " class="primitive"/>
        </g>
        <g transform="translate(58.83,42.11)" id="img-3fac456a-25">
          <path fill="none" d="M0,-37.11 L0,37.11 " class="primitive"/>
        </g>
        <g transform="translate(71.78,42.11)" id="img-3fac456a-26">
          <path fill="none" d="M0,-37.11 L0,37.11 " class="primitive"/>
        </g>
      </g>
      <g class="plotpanel" id="img-3fac456a-27">
        <metadata>
          <boundingbox value="17.958333333333336mm 5.0mm 55.82302290397616mm 74.21333333333334mm"/>
          <unitbox value="7.845628457166164e6 41.13938473224459 4.308743085667671e6 -42.27876946448917"/>
        </metadata>
        <g shape-rendering="crispEdges" stroke-width="0.3" id="img-3fac456a-28">
          <g stroke="#000000" stroke-opacity="0.000" class="geometry" id="img-3fac456a-29">
            <g fill="#00BFFF" id="img-3fac456a-30">
              <g transform="translate(27.4,76.34)" id="img-3fac456a-31">
                <path d="M-0.2,-0.88 L0.2,-0.88 0.2,0.88 -0.2,0.88  z" class="primitive"/>
              </g>
              <g transform="translate(27.75,77.22)" id="img-3fac456a-32">
                <path d="M-0.2,-0 L0.2,-0 0.2,0 -0.2,0  z" class="primitive"/>
              </g>
              <g transform="translate(28.11,77.22)" id="img-3fac456a-33">
                <path d="M-0.2,-0 L0.2,-0 0.2,0 -0.2,0  z" class="primitive"/>
              </g>
              <g transform="translate(28.46,77.22)" id="img-3fac456a-34">
                <path d="M-0.2,-0 L0.2,-0 0.2,0 -0.2,0  z" class="primitive"/>
              </g>
              <g transform="translate(28.82,77.22)" id="img-3fac456a-35">
                <path d="M-0.2,-0 L0.2,-0 0.2,0 -0.2,0  z" class="primitive"/>
              </g>
              <g transform="translate(29.18,77.22)" id="img-3fac456a-36">
                <path d="M-0.2,-0 L0.2,-0 0.2,0 -0.2,0  z" class="primitive"/>
              </g>
              <g transform="translate(29.53,75.46)" id="img-3fac456a-37">
                <path d="M-0.2,-1.76 L0.2,-1.76 0.2,1.76 -0.2,1.76  z" class="primitive"/>
              </g>
              <g transform="translate(29.89,76.34)" id="img-3fac456a-38">
                <path d="M-0.2,-0.88 L0.2,-0.88 0.2,0.88 -0.2,0.88  z" class="primitive"/>
              </g>
              <g transform="translate(30.24,75.46)" id="img-3fac456a-39">
                <path d="M-0.2,-1.76 L0.2,-1.76 0.2,1.76 -0.2,1.76  z" class="primitive"/>
              </g>
              <g transform="translate(30.6,77.22)" id="img-3fac456a-40">
                <path d="M-0.2,-0 L0.2,-0 0.2,0 -0.2,0  z" class="primitive"/>
              </g>
              <g transform="translate(30.95,75.46)" id="img-3fac456a-41">
                <path d="M-0.2,-1.76 L0.2,-1.76 0.2,1.76 -0.2,1.76  z" class="primitive"/>
              </g>
              <g transform="translate(31.31,76.34)" id="img-3fac456a-42">
                <path d="M-0.2,-0.88 L0.2,-0.88 0.2,0.88 -0.2,0.88  z" class="primitive"/>
              </g>
              <g transform="translate(31.67,77.22)" id="img-3fac456a-43">
                <path d="M-0.2,-0 L0.2,-0 0.2,0 -0.2,0  z" class="primitive"/>
              </g>
              <g transform="translate(32.02,76.34)" id="img-3fac456a-44">
                <path d="M-0.2,-0.88 L0.2,-0.88 0.2,0.88 -0.2,0.88  z" class="primitive"/>
              </g>
              <g transform="translate(32.38,76.34)" id="img-3fac456a-45">
                <path d="M-0.2,-0.88 L0.2,-0.88 0.2,0.88 -0.2,0.88  z" class="primitive"/>
              </g>
              <g transform="translate(32.73,74.58)" id="img-3fac456a-46">
                <path d="M-0.2,-2.63 L0.2,-2.63 0.2,2.63 -0.2,2.63  z" class="primitive"/>
              </g>
              <g transform="translate(33.09,73.7)" id="img-3fac456a-47">
                <path d="M-0.2,-3.51 L0.2,-3.51 0.2,3.51 -0.2,3.51  z" class="primitive"/>
              </g>
              <g transform="translate(33.44,75.46)" id="img-3fac456a-48">
                <path d="M-0.2,-1.76 L0.2,-1.76 0.2,1.76 -0.2,1.76  z" class="primitive"/>
              </g>
              <g transform="translate(33.8,73.7)" id="img-3fac456a-49">
                <path d="M-0.2,-3.51 L0.2,-3.51 0.2,3.51 -0.2,3.51  z" class="primitive"/>
              </g>
              <g transform="translate(34.16,72.82)" id="img-3fac456a-50">
                <path d="M-0.2,-4.39 L0.2,-4.39 0.2,4.39 -0.2,4.39  z" class="primitive"/>
              </g>
              <g transform="translate(34.51,71.95)" id="img-3fac456a-51">
                <path d="M-0.2,-5.27 L0.2,-5.27 0.2,5.27 -0.2,5.27  z" class="primitive"/>
              </g>
              <g transform="translate(34.87,73.7)" id="img-3fac456a-52">
                <path d="M-0.2,-3.51 L0.2,-3.51 0.2,3.51 -0.2,3.51  z" class="primitive"/>
              </g>
              <g transform="translate(35.22,71.07)" id="img-3fac456a-53">
                <path d="M-0.2,-6.14 L0.2,-6.14 0.2,6.14 -0.2,6.14  z" class="primitive"/>
              </g>
              <g transform="translate(35.58,75.46)" id="img-3fac456a-54">
                <path d="M-0.2,-1.76 L0.2,-1.76 0.2,1.76 -0.2,1.76  z" class="primitive"/>
              </g>
              <g transform="translate(35.93,70.19)" id="img-3fac456a-55">
                <path d="M-0.2,-7.02 L0.2,-7.02 0.2,7.02 -0.2,7.02  z" class="primitive"/>
              </g>
              <g transform="translate(36.29,72.82)" id="img-3fac456a-56">
                <path d="M-0.2,-4.39 L0.2,-4.39 0.2,4.39 -0.2,4.39  z" class="primitive"/>
              </g>
              <g transform="translate(36.65,71.07)" id="img-3fac456a-57">
                <path d="M-0.2,-6.14 L0.2,-6.14 0.2,6.14 -0.2,6.14  z" class="primitive"/>
              </g>
              <g transform="translate(37,72.82)" id="img-3fac456a-58">
                <path d="M-0.2,-4.39 L0.2,-4.39 0.2,4.39 -0.2,4.39  z" class="primitive"/>
              </g>
              <g transform="translate(37.36,74.58)" id="img-3fac456a-59">
                <path d="M-0.2,-2.63 L0.2,-2.63 0.2,2.63 -0.2,2.63  z" class="primitive"/>
              </g>
              <g transform="translate(37.71,71.95)" id="img-3fac456a-60">
                <path d="M-0.2,-5.27 L0.2,-5.27 0.2,5.27 -0.2,5.27  z" class="primitive"/>
              </g>
              <g transform="translate(38.07,64.93)" id="img-3fac456a-61">
                <path d="M-0.2,-12.29 L0.2,-12.29 0.2,12.29 -0.2,12.29  z" class="primitive"/>
              </g>
              <g transform="translate(38.42,63.17)" id="img-3fac456a-62">
                <path d="M-0.2,-14.04 L0.2,-14.04 0.2,14.04 -0.2,14.04  z" class="primitive"/>
              </g>
              <g transform="translate(38.78,57.9)" id="img-3fac456a-63">
                <path d="M-0.2,-19.31 L0.2,-19.31 0.2,19.31 -0.2,19.31  z" class="primitive"/>
              </g>
              <g transform="translate(39.14,64.93)" id="img-3fac456a-64">
                <path d="M-0.2,-12.29 L0.2,-12.29 0.2,12.29 -0.2,12.29  z" class="primitive"/>
              </g>
              <g transform="translate(39.49,55.27)" id="img-3fac456a-65">
                <path d="M-0.2,-21.94 L0.2,-21.94 0.2,21.94 -0.2,21.94  z" class="primitive"/>
              </g>
              <g transform="translate(39.85,62.29)" id="img-3fac456a-66">
                <path d="M-0.2,-14.92 L0.2,-14.92 0.2,14.92 -0.2,14.92  z" class="primitive"/>
              </g>
              <g transform="translate(40.2,64.05)" id="img-3fac456a-67">
                <path d="M-0.2,-13.17 L0.2,-13.17 0.2,13.17 -0.2,13.17  z" class="primitive"/>
              </g>
              <g transform="translate(40.56,61.42)" id="img-3fac456a-68">
                <path d="M-0.2,-15.8 L0.2,-15.8 0.2,15.8 -0.2,15.8  z" class="primitive"/>
              </g>
              <g transform="translate(40.91,54.39)" id="img-3fac456a-69">
                <path d="M-0.2,-22.82 L0.2,-22.82 0.2,22.82 -0.2,22.82  z" class="primitive"/>
              </g>
              <g transform="translate(41.27,59.66)" id="img-3fac456a-70">
                <path d="M-0.2,-17.55 L0.2,-17.55 0.2,17.55 -0.2,17.55  z" class="primitive"/>
              </g>
              <g transform="translate(41.63,49.13)" id="img-3fac456a-71">
                <path d="M-0.2,-28.09 L0.2,-28.09 0.2,28.09 -0.2,28.09  z" class="primitive"/>
              </g>
              <g transform="translate(41.98,58.78)" id="img-3fac456a-72">
                <path d="M-0.2,-18.43 L0.2,-18.43 0.2,18.43 -0.2,18.43  z" class="primitive"/>
              </g>
              <g transform="translate(42.34,56.15)" id="img-3fac456a-73">
                <path d="M-0.2,-21.06 L0.2,-21.06 0.2,21.06 -0.2,21.06  z" class="primitive"/>
              </g>
              <g transform="translate(42.69,57.03)" id="img-3fac456a-74">
                <path d="M-0.2,-20.19 L0.2,-20.19 0.2,20.19 -0.2,20.19  z" class="primitive"/>
              </g>
              <g transform="translate(43.05,57.03)" id="img-3fac456a-75">
                <path d="M-0.2,-20.19 L0.2,-20.19 0.2,20.19 -0.2,20.19  z" class="primitive"/>
              </g>
              <g transform="translate(43.4,59.66)" id="img-3fac456a-76">
                <path d="M-0.2,-17.55 L0.2,-17.55 0.2,17.55 -0.2,17.55  z" class="primitive"/>
              </g>
              <g transform="translate(43.76,60.54)" id="img-3fac456a-77">
                <path d="M-0.2,-16.68 L0.2,-16.68 0.2,16.68 -0.2,16.68  z" class="primitive"/>
              </g>
              <g transform="translate(44.12,53.52)" id="img-3fac456a-78">
                <path d="M-0.2,-23.7 L0.2,-23.7 0.2,23.7 -0.2,23.7  z" class="primitive"/>
              </g>
              <g transform="translate(44.47,53.52)" id="img-3fac456a-79">
                <path d="M-0.2,-23.7 L0.2,-23.7 0.2,23.7 -0.2,23.7  z" class="primitive"/>
              </g>
              <g transform="translate(44.83,56.15)" id="img-3fac456a-80">
                <path d="M-0.2,-21.06 L0.2,-21.06 0.2,21.06 -0.2,21.06  z" class="primitive"/>
              </g>
              <g transform="translate(45.18,57.03)" id="img-3fac456a-81">
                <path d="M-0.2,-20.19 L0.2,-20.19 0.2,20.19 -0.2,20.19  z" class="primitive"/>
              </g>
              <g transform="translate(45.54,58.78)" id="img-3fac456a-82">
                <path d="M-0.2,-18.43 L0.2,-18.43 0.2,18.43 -0.2,18.43  z" class="primitive"/>
              </g>
              <g transform="translate(45.89,54.39)" id="img-3fac456a-83">
                <path d="M-0.2,-22.82 L0.2,-22.82 0.2,22.82 -0.2,22.82  z" class="primitive"/>
              </g>
              <g transform="translate(46.25,50.01)" id="img-3fac456a-84">
                <path d="M-0.2,-27.21 L0.2,-27.21 0.2,27.21 -0.2,27.21  z" class="primitive"/>
              </g>
              <g transform="translate(46.61,60.54)" id="img-3fac456a-85">
                <path d="M-0.2,-16.68 L0.2,-16.68 0.2,16.68 -0.2,16.68  z" class="primitive"/>
              </g>
              <g transform="translate(46.96,53.52)" id="img-3fac456a-86">
                <path d="M-0.2,-23.7 L0.2,-23.7 0.2,23.7 -0.2,23.7  z" class="primitive"/>
              </g>
              <g transform="translate(47.32,51.76)" id="img-3fac456a-87">
                <path d="M-0.2,-25.45 L0.2,-25.45 0.2,25.45 -0.2,25.45  z" class="primitive"/>
              </g>
              <g transform="translate(47.67,53.52)" id="img-3fac456a-88">
                <path d="M-0.2,-23.7 L0.2,-23.7 0.2,23.7 -0.2,23.7  z" class="primitive"/>
              </g>
              <g transform="translate(48.03,59.66)" id="img-3fac456a-89">
                <path d="M-0.2,-17.55 L0.2,-17.55 0.2,17.55 -0.2,17.55  z" class="primitive"/>
              </g>
              <g transform="translate(48.39,58.78)" id="img-3fac456a-90">
                <path d="M-0.2,-18.43 L0.2,-18.43 0.2,18.43 -0.2,18.43  z" class="primitive"/>
              </g>
              <g transform="translate(48.74,64.05)" id="img-3fac456a-91">
                <path d="M-0.2,-13.17 L0.2,-13.17 0.2,13.17 -0.2,13.17  z" class="primitive"/>
              </g>
              <g transform="translate(49.1,61.42)" id="img-3fac456a-92">
                <path d="M-0.2,-15.8 L0.2,-15.8 0.2,15.8 -0.2,15.8  z" class="primitive"/>
              </g>
              <g transform="translate(49.45,55.27)" id="img-3fac456a-93">
                <path d="M-0.2,-21.94 L0.2,-21.94 0.2,21.94 -0.2,21.94  z" class="primitive"/>
              </g>
              <g transform="translate(49.81,62.29)" id="img-3fac456a-94">
                <path d="M-0.2,-14.92 L0.2,-14.92 0.2,14.92 -0.2,14.92  z" class="primitive"/>
              </g>
              <g transform="translate(50.16,64.93)" id="img-3fac456a-95">
                <path d="M-0.2,-12.29 L0.2,-12.29 0.2,12.29 -0.2,12.29  z" class="primitive"/>
              </g>
              <g transform="translate(50.52,71.07)" id="img-3fac456a-96">
                <path d="M-0.2,-6.14 L0.2,-6.14 0.2,6.14 -0.2,6.14  z" class="primitive"/>
              </g>
              <g transform="translate(50.88,67.56)" id="img-3fac456a-97">
                <path d="M-0.2,-9.65 L0.2,-9.65 0.2,9.65 -0.2,9.65  z" class="primitive"/>
              </g>
              <g transform="translate(51.23,64.93)" id="img-3fac456a-98">
                <path d="M-0.2,-12.29 L0.2,-12.29 0.2,12.29 -0.2,12.29  z" class="primitive"/>
              </g>
              <g transform="translate(51.59,62.29)" id="img-3fac456a-99">
                <path d="M-0.2,-14.92 L0.2,-14.92 0.2,14.92 -0.2,14.92  z" class="primitive"/>
              </g>
              <g transform="translate(51.94,69.31)" id="img-3fac456a-100">
                <path d="M-0.2,-7.9 L0.2,-7.9 0.2,7.9 -0.2,7.9  z" class="primitive"/>
              </g>
              <g transform="translate(52.3,69.31)" id="img-3fac456a-101">
                <path d="M-0.2,-7.9 L0.2,-7.9 0.2,7.9 -0.2,7.9  z" class="primitive"/>
              </g>
              <g transform="translate(52.65,70.19)" id="img-3fac456a-102">
                <path d="M-0.2,-7.02 L0.2,-7.02 0.2,7.02 -0.2,7.02  z" class="primitive"/>
              </g>
              <g transform="translate(53.01,69.31)" id="img-3fac456a-103">
                <path d="M-0.2,-7.9 L0.2,-7.9 0.2,7.9 -0.2,7.9  z" class="primitive"/>
              </g>
              <g transform="translate(53.37,66.68)" id="img-3fac456a-104">
                <path d="M-0.2,-10.53 L0.2,-10.53 0.2,10.53 -0.2,10.53  z" class="primitive"/>
              </g>
              <g transform="translate(53.72,64.93)" id="img-3fac456a-105">
                <path d="M-0.2,-12.29 L0.2,-12.29 0.2,12.29 -0.2,12.29  z" class="primitive"/>
              </g>
              <g transform="translate(54.08,73.7)" id="img-3fac456a-106">
                <path d="M-0.2,-3.51 L0.2,-3.51 0.2,3.51 -0.2,3.51  z" class="primitive"/>
              </g>
              <g transform="translate(54.43,71.07)" id="img-3fac456a-107">
                <path d="M-0.2,-6.14 L0.2,-6.14 0.2,6.14 -0.2,6.14  z" class="primitive"/>
              </g>
              <g transform="translate(54.79,72.82)" id="img-3fac456a-108">
                <path d="M-0.2,-4.39 L0.2,-4.39 0.2,4.39 -0.2,4.39  z" class="primitive"/>
              </g>
              <g transform="translate(55.14,72.82)" id="img-3fac456a-109">
                <path d="M-0.2,-4.39 L0.2,-4.39 0.2,4.39 -0.2,4.39  z" class="primitive"/>
              </g>
              <g transform="translate(55.5,73.7)" id="img-3fac456a-110">
                <path d="M-0.2,-3.51 L0.2,-3.51 0.2,3.51 -0.2,3.51  z" class="primitive"/>
              </g>
              <g transform="translate(55.86,75.46)" id="img-3fac456a-111">
                <path d="M-0.2,-1.76 L0.2,-1.76 0.2,1.76 -0.2,1.76  z" class="primitive"/>
              </g>
              <g transform="translate(56.21,74.58)" id="img-3fac456a-112">
                <path d="M-0.2,-2.63 L0.2,-2.63 0.2,2.63 -0.2,2.63  z" class="primitive"/>
              </g>
              <g transform="translate(56.57,71.95)" id="img-3fac456a-113">
                <path d="M-0.2,-5.27 L0.2,-5.27 0.2,5.27 -0.2,5.27  z" class="primitive"/>
              </g>
              <g transform="translate(56.92,74.58)" id="img-3fac456a-114">
                <path d="M-0.2,-2.63 L0.2,-2.63 0.2,2.63 -0.2,2.63  z" class="primitive"/>
              </g>
              <g transform="translate(57.28,77.22)" id="img-3fac456a-115">
                <path d="M-0.2,-0 L0.2,-0 0.2,0 -0.2,0  z" class="primitive"/>
              </g>
              <g transform="translate(57.63,74.58)" id="img-3fac456a-116">
                <path d="M-0.2,-2.63 L0.2,-2.63 0.2,2.63 -0.2,2.63  z" class="primitive"/>
              </g>
              <g transform="translate(57.99,76.34)" id="img-3fac456a-117">
                <path d="M-0.2,-0.88 L0.2,-0.88 0.2,0.88 -0.2,0.88  z" class="primitive"/>
              </g>
              <g transform="translate(58.35,77.22)" id="img-3fac456a-118">
                <path d="M-0.2,-0 L0.2,-0 0.2,0 -0.2,0  z" class="primitive"/>
              </g>
              <g transform="translate(58.7,76.34)" id="img-3fac456a-119">
                <path d="M-0.2,-0.88 L0.2,-0.88 0.2,0.88 -0.2,0.88  z" class="primitive"/>
              </g>
              <g transform="translate(59.06,76.34)" id="img-3fac456a-120">
                <path d="M-0.2,-0.88 L0.2,-0.88 0.2,0.88 -0.2,0.88  z" class="primitive"/>
              </g>
              <g transform="translate(59.41,76.34)" id="img-3fac456a-121">
                <path d="M-0.2,-0.88 L0.2,-0.88 0.2,0.88 -0.2,0.88  z" class="primitive"/>
              </g>
              <g transform="translate(59.77,77.22)" id="img-3fac456a-122">
                <path d="M-0.2,-0 L0.2,-0 0.2,0 -0.2,0  z" class="primitive"/>
              </g>
              <g transform="translate(60.12,77.22)" id="img-3fac456a-123">
                <path d="M-0.2,-0 L0.2,-0 0.2,0 -0.2,0  z" class="primitive"/>
              </g>
              <g transform="translate(60.48,77.22)" id="img-3fac456a-124">
                <path d="M-0.2,-0 L0.2,-0 0.2,0 -0.2,0  z" class="primitive"/>
              </g>
              <g transform="translate(60.84,76.34)" id="img-3fac456a-125">
                <path d="M-0.2,-0.88 L0.2,-0.88 0.2,0.88 -0.2,0.88  z" class="primitive"/>
              </g>
              <g transform="translate(61.19,77.22)" id="img-3fac456a-126">
                <path d="M-0.2,-0 L0.2,-0 0.2,0 -0.2,0  z" class="primitive"/>
              </g>
              <g transform="translate(61.55,77.22)" id="img-3fac456a-127">
                <path d="M-0.2,-0 L0.2,-0 0.2,0 -0.2,0  z" class="primitive"/>
              </g>
              <g transform="translate(61.9,77.22)" id="img-3fac456a-128">
                <path d="M-0.2,-0 L0.2,-0 0.2,0 -0.2,0  z" class="primitive"/>
              </g>
              <g transform="translate(62.26,77.22)" id="img-3fac456a-129">
                <path d="M-0.2,-0 L0.2,-0 0.2,0 -0.2,0  z" class="primitive"/>
              </g>
              <g transform="translate(62.61,76.34)" id="img-3fac456a-130">
                <path d="M-0.2,-0.88 L0.2,-0.88 0.2,0.88 -0.2,0.88  z" class="primitive"/>
              </g>
            </g>
          </g>
        </g>
      </g>
    </g>
  </g>
  <g class="guide ylabels" font-size="2.82" font-family="'PT Sans Caption','Helvetica Neue','Helvetica',sans-serif" fill="#6C606B" id="img-3fac456a-131">
    <g transform="translate(16.96,77.21)" id="img-3fac456a-132">
      <g class="primitive">
        <text text-anchor="end" dy="0.35em">0</text>
      </g>
    </g>
    <g transform="translate(16.96,59.66)" id="img-3fac456a-133">
      <g class="primitive">
        <text text-anchor="end" dy="0.35em">10</text>
      </g>
    </g>
    <g transform="translate(16.96,42.11)" id="img-3fac456a-134">
      <g class="primitive">
        <text text-anchor="end" dy="0.35em">20</text>
      </g>
    </g>
    <g transform="translate(16.96,24.55)" id="img-3fac456a-135">
      <g class="primitive">
        <text text-anchor="end" dy="0.35em">30</text>
      </g>
    </g>
    <g transform="translate(16.96,7)" id="img-3fac456a-136">
      <g class="primitive">
        <text text-anchor="end" dy="0.35em">40</text>
      </g>
    </g>
  </g>
  <g font-size="3.88" font-family="'PT Sans','Helvetica Neue','Helvetica',sans-serif" fill="#564A55" stroke="#000000" stroke-opacity="0.000" id="img-3fac456a-137">
    <g transform="translate(8.81,40.11)" id="img-3fac456a-138">
      <g class="primitive">
        <text text-anchor="middle" dy="0.35em" transform="rotate(-90,0, 2)">frequency</text>
      </g>
    </g>
  </g>
</g>
<defs>
  <clipPath id="img-3fac456a-11">
    <path d="M17.96,5 L73.78,5 73.78,79.21 17.96,79.21 " />
  </clipPath>
</defs>
</svg>
