<?xml version="1.0" encoding="UTF-8"?>
<svg xmlns="http://www.w3.org/2000/svg"
     xmlns:xlink="http://www.w3.org/1999/xlink"
     xmlns:gadfly="http://www.gadflyjl.org/ns"
     version="1.2"
     width="141.42mm" height="100mm" viewBox="0 0 141.42 100"
     stroke="none"
     fill="#000000"
     stroke-width="0.3"
     font-size="3.88"
>
<defs>
  <marker id="arrow" markerWidth="15" markerHeight="7" refX="5" refY="3.5" orient="auto" markerUnits="strokeWidth">
    <path d="M0,0 L15,3.5 L0,7 z" stroke="context-stroke" fill="context-stroke"/>
  </marker>
</defs>
<g class="plotroot xscalable yscalable" id="img-60534eea-1">
  <g class="guide xlabels" font-size="2.82" font-family="'PT Sans Caption','Helvetica Neue','Helvetica',sans-serif" fill="#6C606B" id="img-60534eea-2">
    <g transform="translate(19.96,80.21)">
      <g class="primitive">
        <text text-anchor="end" dy="0.35em" transform="rotate(-90,0, 0)">5.80×10⁶</text>
      </g>
    </g>
    <g transform="translate(31.54,80.21)">
      <g class="primitive">
        <text text-anchor="end" dy="0.35em" transform="rotate(-90,0, 0)">6.00×10⁶</text>
      </g>
    </g>
    <g transform="translate(43.12,80.21)">
      <g class="primitive">
        <text text-anchor="end" dy="0.35em" transform="rotate(-90,0, 0)">6.20×10⁶</text>
      </g>
    </g>
    <g transform="translate(54.7,80.21)">
      <g class="primitive">
        <text text-anchor="end" dy="0.35em" transform="rotate(-90,0, 0)">6.40×10⁶</text>
      </g>
    </g>
    <g transform="translate(66.28,80.21)">
      <g class="primitive">
        <text text-anchor="end" dy="0.35em" transform="rotate(-90,0, 0)">6.60×10⁶</text>
      </g>
    </g>
    <g transform="translate(77.86,80.21)">
      <g class="primitive">
        <text text-anchor="end" dy="0.35em" transform="rotate(-90,0, 0)">6.80×10⁶</text>
      </g>
    </g>
  </g>
  <g class="guide colorkey" id="img-60534eea-3">
    <g class="color_noncoding_noncoding_coding_coding_4-tail" id="img-60534eea-4">
      <g fill="#4C404B" font-size="2.82" font-family="'PT Sans','Helvetica Neue','Helvetica',sans-serif" id="img-60534eea-5">
        <g transform="translate(83.67,43.92)" id="img-60534eea-6">
          <g class="primitive">
            <text dy="0.35em">noncoding_noncoding_coding_coding_4-tail</text>
          </g>
        </g>
      </g>
      <g fill-opacity="1" fill="#00BFFF" stroke="#FFFFFF" id="img-60534eea-7">
        <g transform="translate(81.77,43.92)" id="img-60534eea-8">
          <path d="M-0.91,-0.91 L0.91,-0.91 0.91,0.91 -0.91,0.91  z" class="primitive"/>
        </g>
      </g>
    </g>
    <g fill="#362A35" font-size="3.88" font-family="'PT Sans','Helvetica Neue','Helvetica',sans-serif" stroke="#000000" stroke-opacity="0.000" id="img-60534eea-9">
      <g transform="translate(80.86,40.1)" id="img-60534eea-10">
        <g class="primitive">
          <text dy="-0em">graphlet</text>
        </g>
      </g>
    </g>
  </g>
  <g clip-path="url(#img-60534eea-11)">
    <g id="img-60534eea-12">
      <g pointer-events="visible" stroke-width="0.3" fill="#000000" fill-opacity="0.000" stroke="#000000" stroke-opacity="0.000" class="guide background" id="img-60534eea-13">
        <g transform="translate(48.91,42.11)" id="img-60534eea-14">
          <path d="M-30.95,-37.11 L30.95,-37.11 30.95,37.11 -30.95,37.11  z" class="primitive"/>
        </g>
      </g>
      <g class="guide ygridlines xfixed" stroke-dasharray="0.5,0.5" stroke-width="0.2" stroke="#D0D0E0" id="img-60534eea-15">
        <g transform="translate(48.91,77.21)" id="img-60534eea-16">
          <path fill="none" d="M-30.95,0 L30.95,0 " class="primitive"/>
        </g>
        <g transform="translate(48.91,59.66)" id="img-60534eea-17">
          <path fill="none" d="M-30.95,0 L30.95,0 " class="primitive"/>
        </g>
        <g transform="translate(48.91,42.11)" id="img-60534eea-18">
          <path fill="none" d="M-30.95,0 L30.95,0 " class="primitive"/>
        </g>
        <g transform="translate(48.91,24.55)" id="img-60534eea-19">
          <path fill="none" d="M-30.95,0 L30.95,0 " class="primitive"/>
        </g>
        <g transform="translate(48.91,7)" id="img-60534eea-20">
          <path fill="none" d="M-30.95,0 L30.95,0 " class="primitive"/>
        </g>
      </g>
      <g class="guide xgridlines yfixed" stroke-dasharray="0.5,0.5" stroke-width="0.2" stroke="#D0D0E0" id="img-60534eea-21">
        <g transform="translate(19.96,42.11)" id="img-60534eea-22">
          <path fill="none" d="M0,-37.11 L0,37.11 " class="primitive"/>
        </g>
        <g transform="translate(31.54,42.11)" id="img-60534eea-23">
          <path fill="none" d="M0,-37.11 L0,37.11 " class="primitive"/>
        </g>
        <g transform="translate(43.12,42.11)" id="img-60534eea-24">
          <path fill="none" d="M0,-37.11 L0,37.11 " class="primitive"/>
        </g>
        <g transform="translate(54.7,42.11)" id="img-60534eea-25">
          <path fill="none" d="M0,-37.11 L0,37.11 " class="primitive"/>
        </g>
        <g transform="translate(66.28,42.11)" id="img-60534eea-26">
          <path fill="none" d="M0,-37.11 L0,37.11 " class="primitive"/>
        </g>
        <g transform="translate(77.86,42.11)" id="img-60534eea-27">
          <path fill="none" d="M0,-37.11 L0,37.11 " class="primitive"/>
        </g>
      </g>
      <g class="plotpanel" id="img-60534eea-28">
        <metadata>
          <boundingbox value="17.958333333333336mm 5.0mm 61.903022903976186mm 74.21333333333334mm"/>
          <unitbox value="5.765459488992195e6 41.13938473224459 1.069081022015611e6 -42.27876946448917"/>
        </metadata>
        <g shape-rendering="crispEdges" stroke-width="0.3" id="img-60534eea-29">
          <g stroke="#000000" stroke-opacity="0.000" class="geometry" id="img-60534eea-30">
            <g fill="#00BFFF" id="img-60534eea-31">
              <g transform="translate(23.2,76.34)" id="img-60534eea-32">
                <path d="M-0.29,-0.88 L0.29,-0.88 0.29,0.88 -0.29,0.88  z" class="primitive"/>
              </g>
              <g transform="translate(23.73,77.22)" id="img-60534eea-33">
                <path d="M-0.29,-0 L0.29,-0 0.29,0 -0.29,0  z" class="primitive"/>
              </g>
              <g transform="translate(24.25,77.22)" id="img-60534eea-34">
                <path d="M-0.29,-0 L0.29,-0 0.29,0 -0.29,0  z" class="primitive"/>
              </g>
              <g transform="translate(24.78,77.22)" id="img-60534eea-35">
                <path d="M-0.29,-0 L0.29,-0 0.29,0 -0.29,0  z" class="primitive"/>
              </g>
              <g transform="translate(25.31,77.22)" id="img-60534eea-36">
                <path d="M-0.29,-0 L0.29,-0 0.29,0 -0.29,0  z" class="primitive"/>
              </g>
              <g transform="translate(25.84,76.34)" id="img-60534eea-37">
                <path d="M-0.29,-0.88 L0.29,-0.88 0.29,0.88 -0.29,0.88  z" class="primitive"/>
              </g>
              <g transform="translate(26.37,76.34)" id="img-60534eea-38">
                <path d="M-0.29,-0.88 L0.29,-0.88 0.29,0.88 -0.29,0.88  z" class="primitive"/>
              </g>
              <g transform="translate(26.9,77.22)" id="img-60534eea-39">
                <path d="M-0.29,-0 L0.29,-0 0.29,0 -0.29,0  z" class="primitive"/>
              </g>
              <g transform="translate(27.43,77.22)" id="img-60534eea-40">
                <path d="M-0.29,-0 L0.29,-0 0.29,0 -0.29,0  z" class="primitive"/>
              </g>
              <g transform="translate(27.96,76.34)" id="img-60534eea-41">
                <path d="M-0.29,-0.88 L0.29,-0.88 0.29,0.88 -0.29,0.88  z" class="primitive"/>
              </g>
              <g transform="translate(28.49,76.34)" id="img-60534eea-42">
                <path d="M-0.29,-0.88 L0.29,-0.88 0.29,0.88 -0.29,0.88  z" class="primitive"/>
              </g>
              <g transform="translate(29.02,76.34)" id="img-60534eea-43">
                <path d="M-0.29,-0.88 L0.29,-0.88 0.29,0.88 -0.29,0.88  z" class="primitive"/>
              </g>
              <g transform="translate(29.55,77.22)" id="img-60534eea-44">
                <path d="M-0.29,-0 L0.29,-0 0.29,0 -0.29,0  z" class="primitive"/>
              </g>
              <g transform="translate(30.08,76.34)" id="img-60534eea-45">
                <path d="M-0.29,-0.88 L0.29,-0.88 0.29,0.88 -0.29,0.88  z" class="primitive"/>
              </g>
              <g transform="translate(30.6,74.58)" id="img-60534eea-46">
                <path d="M-0.29,-2.63 L0.29,-2.63 0.29,2.63 -0.29,2.63  z" class="primitive"/>
              </g>
              <g transform="translate(31.13,74.58)" id="img-60534eea-47">
                <path d="M-0.29,-2.63 L0.29,-2.63 0.29,2.63 -0.29,2.63  z" class="primitive"/>
              </g>
              <g transform="translate(31.66,74.58)" id="img-60534eea-48">
                <path d="M-0.29,-2.63 L0.29,-2.63 0.29,2.63 -0.29,2.63  z" class="primitive"/>
              </g>
              <g transform="translate(32.19,75.46)" id="img-60534eea-49">
                <path d="M-0.29,-1.76 L0.29,-1.76 0.29,1.76 -0.29,1.76  z" class="primitive"/>
              </g>
              <g transform="translate(32.72,72.82)" id="img-60534eea-50">
                <path d="M-0.29,-4.39 L0.29,-4.39 0.29,4.39 -0.29,4.39  z" class="primitive"/>
              </g>
              <g transform="translate(33.25,72.82)" id="img-60534eea-51">
                <path d="M-0.29,-4.39 L0.29,-4.39 0.29,4.39 -0.29,4.39  z" class="primitive"/>
              </g>
              <g transform="translate(33.78,73.7)" id="img-60534eea-52">
                <path d="M-0.29,-3.51 L0.29,-3.51 0.29,3.51 -0.29,3.51  z" class="primitive"/>
              </g>
              <g transform="translate(34.31,69.31)" id="img-60534eea-53">
                <path d="M-0.29,-7.9 L0.29,-7.9 0.29,7.9 -0.29,7.9  z" class="primitive"/>
              </g>
              <g transform="translate(34.84,70.19)" id="img-60534eea-54">
                <path d="M-0.29,-7.02 L0.29,-7.02 0.29,7.02 -0.29,7.02  z" class="primitive"/>
              </g>
              <g transform="translate(35.37,70.19)" id="img-60534eea-55">
                <path d="M-0.29,-7.02 L0.29,-7.02 0.29,7.02 -0.29,7.02  z" class="primitive"/>
              </g>
              <g transform="translate(35.9,72.82)" id="img-60534eea-56">
                <path d="M-0.29,-4.39 L0.29,-4.39 0.29,4.39 -0.29,4.39  z" class="primitive"/>
              </g>
              <g transform="translate(36.42,69.31)" id="img-60534eea-57">
                <path d="M-0.29,-7.9 L0.29,-7.9 0.29,7.9 -0.29,7.9  z" class="primitive"/>
              </g>
              <g transform="translate(36.95,73.7)" id="img-60534eea-58">
                <path d="M-0.29,-3.51 L0.29,-3.51 0.29,3.51 -0.29,3.51  z" class="primitive"/>
              </g>
              <g transform="translate(37.48,69.31)" id="img-60534eea-59">
                <path d="M-0.29,-7.9 L0.29,-7.9 0.29,7.9 -0.29,7.9  z" class="primitive"/>
              </g>
              <g transform="translate(38.01,67.56)" id="img-60534eea-60">
                <path d="M-0.29,-9.65 L0.29,-9.65 0.29,9.65 -0.29,9.65  z" class="primitive"/>
              </g>
              <g transform="translate(38.54,68.44)" id="img-60534eea-61">
                <path d="M-0.29,-8.78 L0.29,-8.78 0.29,8.78 -0.29,8.78  z" class="primitive"/>
              </g>
              <g transform="translate(39.07,64.05)" id="img-60534eea-62">
                <path d="M-0.29,-13.17 L0.29,-13.17 0.29,13.17 -0.29,13.17  z" class="primitive"/>
              </g>
              <g transform="translate(39.6,64.05)" id="img-60534eea-63">
                <path d="M-0.29,-13.17 L0.29,-13.17 0.29,13.17 -0.29,13.17  z" class="primitive"/>
              </g>
              <g transform="translate(40.13,66.68)" id="img-60534eea-64">
                <path d="M-0.29,-10.53 L0.29,-10.53 0.29,10.53 -0.29,10.53  z" class="primitive"/>
              </g>
              <g transform="translate(40.66,68.44)" id="img-60534eea-65">
                <path d="M-0.29,-8.78 L0.29,-8.78 0.29,8.78 -0.29,8.78  z" class="primitive"/>
              </g>
              <g transform="translate(41.19,63.17)" id="img-60534eea-66">
                <path d="M-0.29,-14.04 L0.29,-14.04 0.29,14.04 -0.29,14.04  z" class="primitive"/>
              </g>
              <g transform="translate(41.72,58.78)" id="img-60534eea-67">
                <path d="M-0.29,-18.43 L0.29,-18.43 0.29,18.43 -0.29,18.43  z" class="primitive"/>
              </g>
              <g transform="translate(42.24,63.17)" id="img-60534eea-68">
                <path d="M-0.29,-14.04 L0.29,-14.04 0.29,14.04 -0.29,14.04  z" class="primitive"/>
              </g>
              <g transform="translate(42.77,58.78)" id="img-60534eea-69">
                <path d="M-0.29,-18.43 L0.29,-18.43 0.29,18.43 -0.29,18.43  z" class="primitive"/>
              </g>
              <g transform="translate(43.3,56.15)" id="img-60534eea-70">
                <path d="M-0.29,-21.06 L0.29,-21.06 0.29,21.06 -0.29,21.06  z" class="primitive"/>
              </g>
              <g transform="translate(43.83,52.64)" id="img-60534eea-71">
                <path d="M-0.29,-24.57 L0.29,-24.57 0.29,24.57 -0.29,24.57  z" class="primitive"/>
              </g>
              <g transform="translate(44.36,47.37)" id="img-60534eea-72">
                <path d="M-0.29,-29.84 L0.29,-29.84 0.29,29.84 -0.29,29.84  z" class="primitive"/>
              </g>
              <g transform="translate(44.89,54.39)" id="img-60534eea-73">
                <path d="M-0.29,-22.82 L0.29,-22.82 0.29,22.82 -0.29,22.82  z" class="primitive"/>
              </g>
              <g transform="translate(45.42,53.52)" id="img-60534eea-74">
                <path d="M-0.29,-23.7 L0.29,-23.7 0.29,23.7 -0.29,23.7  z" class="primitive"/>
              </g>
              <g transform="translate(45.95,57.9)" id="img-60534eea-75">
                <path d="M-0.29,-19.31 L0.29,-19.31 0.29,19.31 -0.29,19.31  z" class="primitive"/>
              </g>
              <g transform="translate(46.48,57.03)" id="img-60534eea-76">
                <path d="M-0.29,-20.19 L0.29,-20.19 0.29,20.19 -0.29,20.19  z" class="primitive"/>
              </g>
              <g transform="translate(47.01,50.88)" id="img-60534eea-77">
                <path d="M-0.29,-26.33 L0.29,-26.33 0.29,26.33 -0.29,26.33  z" class="primitive"/>
              </g>
              <g transform="translate(47.54,53.52)" id="img-60534eea-78">
                <path d="M-0.29,-23.7 L0.29,-23.7 0.29,23.7 -0.29,23.7  z" class="primitive"/>
              </g>
              <g transform="translate(48.06,56.15)" id="img-60534eea-79">
                <path d="M-0.29,-21.06 L0.29,-21.06 0.29,21.06 -0.29,21.06  z" class="primitive"/>
              </g>
              <g transform="translate(48.59,54.39)" id="img-60534eea-80">
                <path d="M-0.29,-22.82 L0.29,-22.82 0.29,22.82 -0.29,22.82  z" class="primitive"/>
              </g>
              <g transform="translate(49.12,50.88)" id="img-60534eea-81">
                <path d="M-0.29,-26.33 L0.29,-26.33 0.29,26.33 -0.29,26.33  z" class="primitive"/>
              </g>
              <g transform="translate(49.65,55.27)" id="img-60534eea-82">
                <path d="M-0.29,-21.94 L0.29,-21.94 0.29,21.94 -0.29,21.94  z" class="primitive"/>
              </g>
              <g transform="translate(50.18,52.64)" id="img-60534eea-83">
                <path d="M-0.29,-24.57 L0.29,-24.57 0.29,24.57 -0.29,24.57  z" class="primitive"/>
              </g>
              <g transform="translate(50.71,53.52)" id="img-60534eea-84">
                <path d="M-0.29,-23.7 L0.29,-23.7 0.29,23.7 -0.29,23.7  z" class="primitive"/>
              </g>
              <g transform="translate(51.24,54.39)" id="img-60534eea-85">
                <path d="M-0.29,-22.82 L0.29,-22.82 0.29,22.82 -0.29,22.82  z" class="primitive"/>
              </g>
              <g transform="translate(51.77,57.9)" id="img-60534eea-86">
                <path d="M-0.29,-19.31 L0.29,-19.31 0.29,19.31 -0.29,19.31  z" class="primitive"/>
              </g>
              <g transform="translate(52.3,53.52)" id="img-60534eea-87">
                <path d="M-0.29,-23.7 L0.29,-23.7 0.29,23.7 -0.29,23.7  z" class="primitive"/>
              </g>
              <g transform="translate(52.83,62.29)" id="img-60534eea-88">
                <path d="M-0.29,-14.92 L0.29,-14.92 0.29,14.92 -0.29,14.92  z" class="primitive"/>
              </g>
              <g transform="translate(53.36,56.15)" id="img-60534eea-89">
                <path d="M-0.29,-21.06 L0.29,-21.06 0.29,21.06 -0.29,21.06  z" class="primitive"/>
              </g>
              <g transform="translate(53.88,58.78)" id="img-60534eea-90">
                <path d="M-0.29,-18.43 L0.29,-18.43 0.29,18.43 -0.29,18.43  z" class="primitive"/>
              </g>
              <g transform="translate(54.41,57.9)" id="img-60534eea-91">
                <path d="M-0.29,-19.31 L0.29,-19.31 0.29,19.31 -0.29,19.31  z" class="primitive"/>
              </g>
              <g transform="translate(54.94,64.05)" id="img-60534eea-92">
                <path d="M-0.29,-13.17 L0.29,-13.17 0.29,13.17 -0.29,13.17  z" class="primitive"/>
              </g>
              <g transform="translate(55.47,55.27)" id="img-60534eea-93">
                <path d="M-0.29,-21.94 L0.29,-21.94 0.29,21.94 -0.29,21.94  z" class="primitive"/>
              </g>
              <g transform="translate(56,61.42)" id="img-60534eea-94">
                <path d="M-0.29,-15.8 L0.29,-15.8 0.29,15.8 -0.29,15.8  z" class="primitive"/>
              </g>
              <g transform="translate(56.53,61.42)" id="img-60534eea-95">
                <path d="M-0.29,-15.8 L0.29,-15.8 0.29,15.8 -0.29,15.8  z" class="primitive"/>
              </g>
              <g transform="translate(57.06,64.05)" id="img-60534eea-96">
                <path d="M-0.29,-13.17 L0.29,-13.17 0.29,13.17 -0.29,13.17  z" class="primitive"/>
              </g>
              <g transform="translate(57.59,67.56)" id="img-60534eea-97">
                <path d="M-0.29,-9.65 L0.29,-9.65 0.29,9.65 -0.29,9.65  z" class="primitive"/>
              </g>
              <g transform="translate(58.12,70.19)" id="img-60534eea-98">
                <path d="M-0.29,-7.02 L0.29,-7.02 0.29,7.02 -0.29,7.02  z" class="primitive"/>
              </g>
              <g transform="translate(58.65,70.19)" id="img-60534eea-99">
                <path d="M-0.29,-7.02 L0.29,-7.02 0.29,7.02 -0.29,7.02  z" class="primitive"/>
              </g>
              <g transform="translate(59.18,65.8)" id="img-60534eea-100">
                <path d="M-0.29,-11.41 L0.29,-11.41 0.29,11.41 -0.29,11.41  z" class="primitive"/>
              </g>
              <g transform="translate(59.7,71.07)" id="img-60534eea-101">
                <path d="M-0.29,-6.14 L0.29,-6.14 0.29,6.14 -0.29,6.14  z" class="primitive"/>
              </g>
              <g transform="translate(60.23,71.07)" id="img-60534eea-102">
                <path d="M-0.29,-6.14 L0.29,-6.14 0.29,6.14 -0.29,6.14  z" class="primitive"/>
              </g>
              <g transform="translate(60.76,71.95)" id="img-60534eea-103">
                <path d="M-0.29,-5.27 L0.29,-5.27 0.29,5.27 -0.29,5.27  z" class="primitive"/>
              </g>
              <g transform="translate(61.29,73.7)" id="img-60534eea-104">
                <path d="M-0.29,-3.51 L0.29,-3.51 0.29,3.51 -0.29,3.51  z" class="primitive"/>
              </g>
              <g transform="translate(61.82,68.44)" id="img-60534eea-105">
                <path d="M-0.29,-8.78 L0.29,-8.78 0.29,8.78 -0.29,8.78  z" class="primitive"/>
              </g>
              <g transform="translate(62.35,71.95)" id="img-60534eea-106">
                <path d="M-0.29,-5.27 L0.29,-5.27 0.29,5.27 -0.29,5.27  z" class="primitive"/>
              </g>
              <g transform="translate(62.88,74.58)" id="img-60534eea-107">
                <path d="M-0.29,-2.63 L0.29,-2.63 0.29,2.63 -0.29,2.63  z" class="primitive"/>
              </g>
              <g transform="translate(63.41,71.07)" id="img-60534eea-108">
                <path d="M-0.29,-6.14 L0.29,-6.14 0.29,6.14 -0.29,6.14  z" class="primitive"/>
              </g>
              <g transform="translate(63.94,71.95)" id="img-60534eea-109">
                <path d="M-0.29,-5.27 L0.29,-5.27 0.29,5.27 -0.29,5.27  z" class="primitive"/>
              </g>
              <g transform="translate(64.47,72.82)" id="img-60534eea-110">
                <path d="M-0.29,-4.39 L0.29,-4.39 0.29,4.39 -0.29,4.39  z" class="primitive"/>
              </g>
              <g transform="translate(65,75.46)" id="img-60534eea-111">
                <path d="M-0.29,-1.76 L0.29,-1.76 0.29,1.76 -0.29,1.76  z" class="primitive"/>
              </g>
              <g transform="translate(65.52,75.46)" id="img-60534eea-112">
                <path d="M-0.29,-1.76 L0.29,-1.76 0.29,1.76 -0.29,1.76  z" class="primitive"/>
              </g>
              <g transform="translate(66.05,74.58)" id="img-60534eea-113">
                <path d="M-0.29,-2.63 L0.29,-2.63 0.29,2.63 -0.29,2.63  z" class="primitive"/>
              </g>
              <g transform="translate(66.58,76.34)" id="img-60534eea-114">
                <path d="M-0.29,-0.88 L0.29,-0.88 0.29,0.88 -0.29,0.88  z" class="primitive"/>
              </g>
              <g transform="translate(67.11,76.34)" id="img-60534eea-115">
                <path d="M-0.29,-0.88 L0.29,-0.88 0.29,0.88 -0.29,0.88  z" class="primitive"/>
              </g>
              <g transform="translate(67.64,77.22)" id="img-60534eea-116">
                <path d="M-0.29,-0 L0.29,-0 0.29,0 -0.29,0  z" class="primitive"/>
              </g>
              <g transform="translate(68.17,75.46)" id="img-60534eea-117">
                <path d="M-0.29,-1.76 L0.29,-1.76 0.29,1.76 -0.29,1.76  z" class="primitive"/>
              </g>
              <g transform="translate(68.7,77.22)" id="img-60534eea-118">
                <path d="M-0.29,-0 L0.29,-0 0.29,0 -0.29,0  z" class="primitive"/>
              </g>
              <g transform="translate(69.23,77.22)" id="img-60534eea-119">
                <path d="M-0.29,-0 L0.29,-0 0.29,0 -0.29,0  z" class="primitive"/>
              </g>
              <g transform="translate(69.76,76.34)" id="img-60534eea-120">
                <path d="M-0.29,-0.88 L0.29,-0.88 0.29,0.88 -0.29,0.88  z" class="primitive"/>
              </g>
              <g transform="translate(70.29,77.22)" id="img-60534eea-121">
                <path d="M-0.29,-0 L0.29,-0 0.29,0 -0.29,0  z" class="primitive"/>
              </g>
              <g transform="translate(70.82,77.22)" id="img-60534eea-122">
                <path d="M-0.29,-0 L0.29,-0 0.29,0 -0.29,0  z" class="primitive"/>
              </g>
              <g transform="translate(71.34,77.22)" id="img-60534eea-123">
                <path d="M-0.29,-0 L0.29,-0 0.29,0 -0.29,0  z" class="primitive"/>
              </g>
              <g transform="translate(71.87,77.22)" id="img-60534eea-124">
                <path d="M-0.29,-0 L0.29,-0 0.29,0 -0.29,0  z" class="primitive"/>
              </g>
              <g transform="translate(72.4,76.34)" id="img-60534eea-125">
                <path d="M-0.29,-0.88 L0.29,-0.88 0.29,0.88 -0.29,0.88  z" class="primitive"/>
              </g>
              <g transform="translate(72.93,77.22)" id="img-60534eea-126">
                <path d="M-0.29,-0 L0.29,-0 0.29,0 -0.29,0  z" class="primitive"/>
              </g>
              <g transform="translate(73.46,76.34)" id="img-60534eea-127">
                <path d="M-0.29,-0.88 L0.29,-0.88 0.29,0.88 -0.29,0.88  z" class="primitive"/>
              </g>
              <g transform="translate(73.99,77.22)" id="img-60534eea-128">
                <path d="M-0.29,-0 L0.29,-0 0.29,0 -0.29,0  z" class="primitive"/>
              </g>
              <g transform="translate(74.52,76.34)" id="img-60534eea-129">
                <path d="M-0.29,-0.88 L0.29,-0.88 0.29,0.88 -0.29,0.88  z" class="primitive"/>
              </g>
              <g transform="translate(75.05,77.22)" id="img-60534eea-130">
                <path d="M-0.29,-0 L0.29,-0 0.29,0 -0.29,0  z" class="primitive"/>
              </g>
              <g transform="translate(75.58,75.46)" id="img-60534eea-131">
                <path d="M-0.29,-1.76 L0.29,-1.76 0.29,1.76 -0.29,1.76  z" class="primitive"/>
              </g>
            </g>
          </g>
        </g>
      </g>
    </g>
  </g>
  <g class="guide ylabels" font-size="2.82" font-family="'PT Sans Caption','Helvetica Neue','Helvetica',sans-serif" fill="#6C606B" id="img-60534eea-132">
    <g transform="translate(16.96,77.21)" id="img-60534eea-133">
      <g class="primitive">
        <text text-anchor="end" dy="0.35em">0</text>
      </g>
    </g>
    <g transform="translate(16.96,59.66)" id="img-60534eea-134">
      <g class="primitive">
        <text text-anchor="end" dy="0.35em">10</text>
      </g>
    </g>
    <g transform="translate(16.96,42.11)" id="img-60534eea-135">
      <g class="primitive">
        <text text-anchor="end" dy="0.35em">20</text>
      </g>
    </g>
    <g transform="translate(16.96,24.55)" id="img-60534eea-136">
      <g class="primitive">
        <text text-anchor="end" dy="0.35em">30</text>
      </g>
    </g>
    <g transform="translate(16.96,7)" id="img-60534eea-137">
      <g class="primitive">
        <text text-anchor="end" dy="0.35em">40</text>
      </g>
    </g>
  </g>
  <g font-size="3.88" font-family="'PT Sans','Helvetica Neue','Helvetica',sans-serif" fill="#564A55" stroke="#000000" stroke-opacity="0.000" id="img-60534eea-138">
    <g transform="translate(8.81,40.11)" id="img-60534eea-139">
      <g class="primitive">
        <text text-anchor="middle" dy="0.35em" transform="rotate(-90,0, 2)">frequency</text>
      </g>
    </g>
  </g>
</g>
<defs>
  <clipPath id="img-60534eea-11">
    <path d="M17.96,5 L79.86,5 79.86,79.21 17.96,79.21 " />
  </clipPath>
</defs>
</svg>
