<?xml version="1.0" encoding="UTF-8"?>
<svg xmlns="http://www.w3.org/2000/svg"
     xmlns:xlink="http://www.w3.org/1999/xlink"
     xmlns:gadfly="http://www.gadflyjl.org/ns"
     version="1.2"
     width="140mm" height="80mm" viewBox="0 0 140 80"
     stroke="none"
     fill="#000000"
     stroke-width="0.3"
     font-size="3.88"
>
<defs>
  <marker id="arrow" markerWidth="15" markerHeight="7" refX="5" refY="3.5" orient="auto" markerUnits="strokeWidth">
    <path d="M0,0 L15,3.5 L0,7 z" stroke="context-stroke" fill="context-stroke"/>
  </marker>
</defs>
<g class="plotroot xscalable yscalable" id="img-65d78260-1">
  <g class="guide xlabels" font-size="2.82" font-family="'PT Sans Caption','Helvetica Neue','Helvetica',sans-serif" fill="#6C606B" id="img-65d78260-2">
    <g transform="translate(19.96,61.89)">
      <g class="primitive">
        <text text-anchor="end" dy="0.35em" transform="rotate(-90,0, 0)">1.5×10⁵</text>
      </g>
    </g>
    <g transform="translate(26.44,61.89)">
      <g class="primitive">
        <text text-anchor="end" dy="0.35em" transform="rotate(-90,0, 0)">1.6×10⁵</text>
      </g>
    </g>
    <g transform="translate(32.93,61.89)">
      <g class="primitive">
        <text text-anchor="end" dy="0.35em" transform="rotate(-90,0, 0)">1.7×10⁵</text>
      </g>
    </g>
    <g transform="translate(39.42,61.89)">
      <g class="primitive">
        <text text-anchor="end" dy="0.35em" transform="rotate(-90,0, 0)">1.8×10⁵</text>
      </g>
    </g>
    <g transform="translate(45.9,61.89)">
      <g class="primitive">
        <text text-anchor="end" dy="0.35em" transform="rotate(-90,0, 0)">1.9×10⁵</text>
      </g>
    </g>
    <g transform="translate(52.39,61.89)">
      <g class="primitive">
        <text text-anchor="end" dy="0.35em" transform="rotate(-90,0, 0)">2.0×10⁵</text>
      </g>
    </g>
    <g transform="translate(58.87,61.89)">
      <g class="primitive">
        <text text-anchor="end" dy="0.35em" transform="rotate(-90,0, 0)">2.1×10⁵</text>
      </g>
    </g>
    <g transform="translate(65.36,61.89)">
      <g class="primitive">
        <text text-anchor="end" dy="0.35em" transform="rotate(-90,0, 0)">2.2×10⁵</text>
      </g>
    </g>
    <g transform="translate(71.85,61.89)">
      <g class="primitive">
        <text text-anchor="end" dy="0.35em" transform="rotate(-90,0, 0)">2.3×10⁵</text>
      </g>
    </g>
  </g>
  <g class="guide colorkey" id="img-65d78260-3">
    <g class="color_noncoding_noncoding_coding_noncoding_4-tail" id="img-65d78260-4">
      <g fill="#4C404B" font-size="2.82" font-family="'PT Sans','Helvetica Neue','Helvetica',sans-serif" id="img-65d78260-5">
        <g transform="translate(77.66,34.76)" id="img-65d78260-6">
          <g class="primitive">
            <text dy="0.35em">noncoding_noncoding_coding_noncoding_4-tail</text>
          </g>
        </g>
      </g>
      <g fill-opacity="1" fill="#00BFFF" stroke="#FFFFFF" id="img-65d78260-7">
        <g transform="translate(75.75,34.76)" id="img-65d78260-8">
          <path d="M-0.91,-0.91 L 0.91 -0.91 0.91 0.91 -0.91 0.91 z" class="primitive"/>
        </g>
      </g>
    </g>
    <g fill="#362A35" font-size="3.88" font-family="'PT Sans','Helvetica Neue','Helvetica',sans-serif" stroke="#000000" stroke-opacity="0.000" id="img-65d78260-9">
      <g transform="translate(74.85,30.94)" id="img-65d78260-10">
        <g class="primitive">
          <text dy="-0em">graphlet</text>
        </g>
      </g>
    </g>
  </g>
  <g clip-path="url(#img-65d78260-11)">
    <g id="img-65d78260-12">
      <g pointer-events="visible" stroke-width="0.3" fill="#000000" fill-opacity="0.000" stroke="#000000" stroke-opacity="0.000" class="guide background" id="img-65d78260-13">
        <g transform="translate(45.9,32.94)" id="img-65d78260-14">
          <path d="M-27.94,-27.94 L 27.94 -27.94 27.94 27.94 -27.94 27.94 z" class="primitive"/>
        </g>
      </g>
      <g class="guide ygridlines xfixed" stroke-dasharray="0.5,0.5" stroke-width="0.2" stroke="#D0D0E0" id="img-65d78260-15">
        <g transform="translate(45.9,58.89)" id="img-65d78260-16">
          <path fill="none" d="M-27.94,0 L 27.94 0" class="primitive"/>
        </g>
        <g transform="translate(45.9,45.92)" id="img-65d78260-17">
          <path fill="none" d="M-27.94,0 L 27.94 0" class="primitive"/>
        </g>
        <g transform="translate(45.9,32.94)" id="img-65d78260-18">
          <path fill="none" d="M-27.94,0 L 27.94 0" class="primitive"/>
        </g>
        <g transform="translate(45.9,19.97)" id="img-65d78260-19">
          <path fill="none" d="M-27.94,0 L 27.94 0" class="primitive"/>
        </g>
        <g transform="translate(45.9,7)" id="img-65d78260-20">
          <path fill="none" d="M-27.94,0 L 27.94 0" class="primitive"/>
        </g>
      </g>
      <g class="guide xgridlines yfixed" stroke-dasharray="0.5,0.5" stroke-width="0.2" stroke="#D0D0E0" id="img-65d78260-21">
        <g transform="translate(19.96,32.94)" id="img-65d78260-22">
          <path fill="none" d="M0,-27.94 L 0 27.94" class="primitive"/>
        </g>
        <g transform="translate(26.44,32.94)" id="img-65d78260-23">
          <path fill="none" d="M0,-27.94 L 0 27.94" class="primitive"/>
        </g>
        <g transform="translate(32.93,32.94)" id="img-65d78260-24">
          <path fill="none" d="M0,-27.94 L 0 27.94" class="primitive"/>
        </g>
        <g transform="translate(39.42,32.94)" id="img-65d78260-25">
          <path fill="none" d="M0,-27.94 L 0 27.94" class="primitive"/>
        </g>
        <g transform="translate(45.9,32.94)" id="img-65d78260-26">
          <path fill="none" d="M0,-27.94 L 0 27.94" class="primitive"/>
        </g>
        <g transform="translate(52.39,32.94)" id="img-65d78260-27">
          <path fill="none" d="M0,-27.94 L 0 27.94" class="primitive"/>
        </g>
        <g transform="translate(58.87,32.94)" id="img-65d78260-28">
          <path fill="none" d="M0,-27.94 L 0 27.94" class="primitive"/>
        </g>
        <g transform="translate(65.36,32.94)" id="img-65d78260-29">
          <path fill="none" d="M0,-27.94 L 0 27.94" class="primitive"/>
        </g>
        <g transform="translate(71.85,32.94)" id="img-65d78260-30">
          <path fill="none" d="M0,-27.94 L 0 27.94" class="primitive"/>
        </g>
      </g>
      <g class="plotpanel" id="img-65d78260-31">
        <metadata>
          <boundingbox value="17.958333333333336mm 5.0mm 55.88833333333333mm 55.88666666666667mm"/>
          <unitbox value="146916.45520829989 41.54182191956829 86167.08958340026 -43.083643839136585"/>
        </metadata>
        <g shape-rendering="crispEdges" stroke-width="0.3" id="img-65d78260-32">
          <g stroke="#000000" stroke-opacity="0.000" class="geometry" id="img-65d78260-33">
            <g fill="#00BFFF" id="img-65d78260-34">
              <g transform="translate(22.88,58.24)" id="img-65d78260-35">
                <path d="M-0.26,-0.65 L 0.26 -0.65 0.26 0.65 -0.26 0.65 z" class="primitive"/>
              </g>
              <g transform="translate(23.34,58.89)" id="img-65d78260-36">
                <path d="M-0.26,-0 L 0.26 -0 0.26 0 -0.26 0 z" class="primitive"/>
              </g>
              <g transform="translate(23.8,58.89)" id="img-65d78260-37">
                <path d="M-0.26,-0 L 0.26 -0 0.26 0 -0.26 0 z" class="primitive"/>
              </g>
              <g transform="translate(24.26,58.89)" id="img-65d78260-38">
                <path d="M-0.26,-0 L 0.26 -0 0.26 0 -0.26 0 z" class="primitive"/>
              </g>
              <g transform="translate(24.72,58.89)" id="img-65d78260-39">
                <path d="M-0.26,-0 L 0.26 -0 0.26 0 -0.26 0 z" class="primitive"/>
              </g>
              <g transform="translate(25.18,58.89)" id="img-65d78260-40">
                <path d="M-0.26,-0 L 0.26 -0 0.26 0 -0.26 0 z" class="primitive"/>
              </g>
              <g transform="translate(25.64,58.89)" id="img-65d78260-41">
                <path d="M-0.26,-0 L 0.26 -0 0.26 0 -0.26 0 z" class="primitive"/>
              </g>
              <g transform="translate(26.1,58.89)" id="img-65d78260-42">
                <path d="M-0.26,-0 L 0.26 -0 0.26 0 -0.26 0 z" class="primitive"/>
              </g>
              <g transform="translate(26.56,58.89)" id="img-65d78260-43">
                <path d="M-0.26,-0 L 0.26 -0 0.26 0 -0.26 0 z" class="primitive"/>
              </g>
              <g transform="translate(27.02,58.24)" id="img-65d78260-44">
                <path d="M-0.26,-0.65 L 0.26 -0.65 0.26 0.65 -0.26 0.65 z" class="primitive"/>
              </g>
              <g transform="translate(27.48,57.59)" id="img-65d78260-45">
                <path d="M-0.26,-1.3 L 0.26 -1.3 0.26 1.3 -0.26 1.3 z" class="primitive"/>
              </g>
              <g transform="translate(27.94,58.89)" id="img-65d78260-46">
                <path d="M-0.26,-0 L 0.26 -0 0.26 0 -0.26 0 z" class="primitive"/>
              </g>
              <g transform="translate(28.4,58.24)" id="img-65d78260-47">
                <path d="M-0.26,-0.65 L 0.26 -0.65 0.26 0.65 -0.26 0.65 z" class="primitive"/>
              </g>
              <g transform="translate(28.86,58.89)" id="img-65d78260-48">
                <path d="M-0.26,-0 L 0.26 -0 0.26 0 -0.26 0 z" class="primitive"/>
              </g>
              <g transform="translate(29.32,57.59)" id="img-65d78260-49">
                <path d="M-0.26,-1.3 L 0.26 -1.3 0.26 1.3 -0.26 1.3 z" class="primitive"/>
              </g>
              <g transform="translate(29.78,58.24)" id="img-65d78260-50">
                <path d="M-0.26,-0.65 L 0.26 -0.65 0.26 0.65 -0.26 0.65 z" class="primitive"/>
              </g>
              <g transform="translate(30.24,58.89)" id="img-65d78260-51">
                <path d="M-0.26,-0 L 0.26 -0 0.26 0 -0.26 0 z" class="primitive"/>
              </g>
              <g transform="translate(30.7,53.7)" id="img-65d78260-52">
                <path d="M-0.26,-5.19 L 0.26 -5.19 0.26 5.19 -0.26 5.19 z" class="primitive"/>
              </g>
              <g transform="translate(31.16,56.94)" id="img-65d78260-53">
                <path d="M-0.26,-1.95 L 0.26 -1.95 0.26 1.95 -0.26 1.95 z" class="primitive"/>
              </g>
              <g transform="translate(31.62,57.59)" id="img-65d78260-54">
                <path d="M-0.26,-1.3 L 0.26 -1.3 0.26 1.3 -0.26 1.3 z" class="primitive"/>
              </g>
              <g transform="translate(32.08,56.29)" id="img-65d78260-55">
                <path d="M-0.26,-2.59 L 0.26 -2.59 0.26 2.59 -0.26 2.59 z" class="primitive"/>
              </g>
              <g transform="translate(32.54,57.59)" id="img-65d78260-56">
                <path d="M-0.26,-1.3 L 0.26 -1.3 0.26 1.3 -0.26 1.3 z" class="primitive"/>
              </g>
              <g transform="translate(33,55.64)" id="img-65d78260-57">
                <path d="M-0.26,-3.24 L 0.26 -3.24 0.26 3.24 -0.26 3.24 z" class="primitive"/>
              </g>
              <g transform="translate(33.46,51.75)" id="img-65d78260-58">
                <path d="M-0.26,-7.13 L 0.26 -7.13 0.26 7.13 -0.26 7.13 z" class="primitive"/>
              </g>
              <g transform="translate(33.92,52.4)" id="img-65d78260-59">
                <path d="M-0.26,-6.49 L 0.26 -6.49 0.26 6.49 -0.26 6.49 z" class="primitive"/>
              </g>
              <g transform="translate(34.38,56.29)" id="img-65d78260-60">
                <path d="M-0.26,-2.59 L 0.26 -2.59 0.26 2.59 -0.26 2.59 z" class="primitive"/>
              </g>
              <g transform="translate(34.84,47.21)" id="img-65d78260-61">
                <path d="M-0.26,-11.67 L 0.26 -11.67 0.26 11.67 -0.26 11.67 z" class="primitive"/>
              </g>
              <g transform="translate(35.3,53.05)" id="img-65d78260-62">
                <path d="M-0.26,-5.84 L 0.26 -5.84 0.26 5.84 -0.26 5.84 z" class="primitive"/>
              </g>
              <g transform="translate(35.76,56.29)" id="img-65d78260-63">
                <path d="M-0.26,-2.59 L 0.26 -2.59 0.26 2.59 -0.26 2.59 z" class="primitive"/>
              </g>
              <g transform="translate(36.22,53.7)" id="img-65d78260-64">
                <path d="M-0.26,-5.19 L 0.26 -5.19 0.26 5.19 -0.26 5.19 z" class="primitive"/>
              </g>
              <g transform="translate(36.68,53.7)" id="img-65d78260-65">
                <path d="M-0.26,-5.19 L 0.26 -5.19 0.26 5.19 -0.26 5.19 z" class="primitive"/>
              </g>
              <g transform="translate(37.14,50.46)" id="img-65d78260-66">
                <path d="M-0.26,-8.43 L 0.26 -8.43 0.26 8.43 -0.26 8.43 z" class="primitive"/>
              </g>
              <g transform="translate(37.6,47.86)" id="img-65d78260-67">
                <path d="M-0.26,-11.03 L 0.26 -11.03 0.26 11.03 -0.26 11.03 z" class="primitive"/>
              </g>
              <g transform="translate(38.06,43.97)" id="img-65d78260-68">
                <path d="M-0.26,-14.92 L 0.26 -14.92 0.26 14.92 -0.26 14.92 z" class="primitive"/>
              </g>
              <g transform="translate(38.52,51.1)" id="img-65d78260-69">
                <path d="M-0.26,-7.78 L 0.26 -7.78 0.26 7.78 -0.26 7.78 z" class="primitive"/>
              </g>
              <g transform="translate(38.98,51.1)" id="img-65d78260-70">
                <path d="M-0.26,-7.78 L 0.26 -7.78 0.26 7.78 -0.26 7.78 z" class="primitive"/>
              </g>
              <g transform="translate(39.44,45.92)" id="img-65d78260-71">
                <path d="M-0.26,-12.97 L 0.26 -12.97 0.26 12.97 -0.26 12.97 z" class="primitive"/>
              </g>
              <g transform="translate(39.9,45.92)" id="img-65d78260-72">
                <path d="M-0.26,-12.97 L 0.26 -12.97 0.26 12.97 -0.26 12.97 z" class="primitive"/>
              </g>
              <g transform="translate(40.36,46.56)" id="img-65d78260-73">
                <path d="M-0.26,-12.32 L 0.26 -12.32 0.26 12.32 -0.26 12.32 z" class="primitive"/>
              </g>
              <g transform="translate(40.82,38.13)" id="img-65d78260-74">
                <path d="M-0.26,-20.75 L 0.26 -20.75 0.26 20.75 -0.26 20.75 z" class="primitive"/>
              </g>
              <g transform="translate(41.28,40.73)" id="img-65d78260-75">
                <path d="M-0.26,-18.16 L 0.26 -18.16 0.26 18.16 -0.26 18.16 z" class="primitive"/>
              </g>
              <g transform="translate(41.74,44.62)" id="img-65d78260-76">
                <path d="M-0.26,-14.27 L 0.26 -14.27 0.26 14.27 -0.26 14.27 z" class="primitive"/>
              </g>
              <g transform="translate(42.2,41.37)" id="img-65d78260-77">
                <path d="M-0.26,-17.51 L 0.26 -17.51 0.26 17.51 -0.26 17.51 z" class="primitive"/>
              </g>
              <g transform="translate(42.66,40.08)" id="img-65d78260-78">
                <path d="M-0.26,-18.81 L 0.26 -18.81 0.26 18.81 -0.26 18.81 z" class="primitive"/>
              </g>
              <g transform="translate(43.12,40.08)" id="img-65d78260-79">
                <path d="M-0.26,-18.81 L 0.26 -18.81 0.26 18.81 -0.26 18.81 z" class="primitive"/>
              </g>
              <g transform="translate(43.58,40.08)" id="img-65d78260-80">
                <path d="M-0.26,-18.81 L 0.26 -18.81 0.26 18.81 -0.26 18.81 z" class="primitive"/>
              </g>
              <g transform="translate(44.04,42.67)" id="img-65d78260-81">
                <path d="M-0.26,-16.21 L 0.26 -16.21 0.26 16.21 -0.26 16.21 z" class="primitive"/>
              </g>
              <g transform="translate(44.5,43.32)" id="img-65d78260-82">
                <path d="M-0.26,-15.57 L 0.26 -15.57 0.26 15.57 -0.26 15.57 z" class="primitive"/>
              </g>
              <g transform="translate(44.96,35.54)" id="img-65d78260-83">
                <path d="M-0.26,-23.35 L 0.26 -23.35 0.26 23.35 -0.26 23.35 z" class="primitive"/>
              </g>
              <g transform="translate(45.42,45.92)" id="img-65d78260-84">
                <path d="M-0.26,-12.97 L 0.26 -12.97 0.26 12.97 -0.26 12.97 z" class="primitive"/>
              </g>
              <g transform="translate(45.88,42.02)" id="img-65d78260-85">
                <path d="M-0.26,-16.86 L 0.26 -16.86 0.26 16.86 -0.26 16.86 z" class="primitive"/>
              </g>
              <g transform="translate(46.34,40.73)" id="img-65d78260-86">
                <path d="M-0.26,-18.16 L 0.26 -18.16 0.26 18.16 -0.26 18.16 z" class="primitive"/>
              </g>
              <g transform="translate(46.8,45.92)" id="img-65d78260-87">
                <path d="M-0.26,-12.97 L 0.26 -12.97 0.26 12.97 -0.26 12.97 z" class="primitive"/>
              </g>
              <g transform="translate(47.27,36.83)" id="img-65d78260-88">
                <path d="M-0.26,-22.05 L 0.26 -22.05 0.26 22.05 -0.26 22.05 z" class="primitive"/>
              </g>
              <g transform="translate(47.73,46.56)" id="img-65d78260-89">
                <path d="M-0.26,-12.32 L 0.26 -12.32 0.26 12.32 -0.26 12.32 z" class="primitive"/>
              </g>
              <g transform="translate(48.19,38.13)" id="img-65d78260-90">
                <path d="M-0.26,-20.75 L 0.26 -20.75 0.26 20.75 -0.26 20.75 z" class="primitive"/>
              </g>
              <g transform="translate(48.65,38.13)" id="img-65d78260-91">
                <path d="M-0.26,-20.75 L 0.26 -20.75 0.26 20.75 -0.26 20.75 z" class="primitive"/>
              </g>
              <g transform="translate(49.11,40.73)" id="img-65d78260-92">
                <path d="M-0.26,-18.16 L 0.26 -18.16 0.26 18.16 -0.26 18.16 z" class="primitive"/>
              </g>
              <g transform="translate(49.57,50.46)" id="img-65d78260-93">
                <path d="M-0.26,-8.43 L 0.26 -8.43 0.26 8.43 -0.26 8.43 z" class="primitive"/>
              </g>
              <g transform="translate(50.03,42.67)" id="img-65d78260-94">
                <path d="M-0.26,-16.21 L 0.26 -16.21 0.26 16.21 -0.26 16.21 z" class="primitive"/>
              </g>
              <g transform="translate(50.49,44.62)" id="img-65d78260-95">
                <path d="M-0.26,-14.27 L 0.26 -14.27 0.26 14.27 -0.26 14.27 z" class="primitive"/>
              </g>
              <g transform="translate(50.95,47.21)" id="img-65d78260-96">
                <path d="M-0.26,-11.67 L 0.26 -11.67 0.26 11.67 -0.26 11.67 z" class="primitive"/>
              </g>
              <g transform="translate(51.41,51.75)" id="img-65d78260-97">
                <path d="M-0.26,-7.13 L 0.26 -7.13 0.26 7.13 -0.26 7.13 z" class="primitive"/>
              </g>
              <g transform="translate(51.87,47.86)" id="img-65d78260-98">
                <path d="M-0.26,-11.03 L 0.26 -11.03 0.26 11.03 -0.26 11.03 z" class="primitive"/>
              </g>
              <g transform="translate(52.33,50.46)" id="img-65d78260-99">
                <path d="M-0.26,-8.43 L 0.26 -8.43 0.26 8.43 -0.26 8.43 z" class="primitive"/>
              </g>
              <g transform="translate(52.79,54.35)" id="img-65d78260-100">
                <path d="M-0.26,-4.54 L 0.26 -4.54 0.26 4.54 -0.26 4.54 z" class="primitive"/>
              </g>
              <g transform="translate(53.25,52.4)" id="img-65d78260-101">
                <path d="M-0.26,-6.49 L 0.26 -6.49 0.26 6.49 -0.26 6.49 z" class="primitive"/>
              </g>
              <g transform="translate(53.71,51.75)" id="img-65d78260-102">
                <path d="M-0.26,-7.13 L 0.26 -7.13 0.26 7.13 -0.26 7.13 z" class="primitive"/>
              </g>
              <g transform="translate(54.17,53.05)" id="img-65d78260-103">
                <path d="M-0.26,-5.84 L 0.26 -5.84 0.26 5.84 -0.26 5.84 z" class="primitive"/>
              </g>
              <g transform="translate(54.63,51.1)" id="img-65d78260-104">
                <path d="M-0.26,-7.78 L 0.26 -7.78 0.26 7.78 -0.26 7.78 z" class="primitive"/>
              </g>
              <g transform="translate(55.09,49.81)" id="img-65d78260-105">
                <path d="M-0.26,-9.08 L 0.26 -9.08 0.26 9.08 -0.26 9.08 z" class="primitive"/>
              </g>
              <g transform="translate(55.55,56.94)" id="img-65d78260-106">
                <path d="M-0.26,-1.95 L 0.26 -1.95 0.26 1.95 -0.26 1.95 z" class="primitive"/>
              </g>
              <g transform="translate(56.01,55.64)" id="img-65d78260-107">
                <path d="M-0.26,-3.24 L 0.26 -3.24 0.26 3.24 -0.26 3.24 z" class="primitive"/>
              </g>
              <g transform="translate(56.47,54.35)" id="img-65d78260-108">
                <path d="M-0.26,-4.54 L 0.26 -4.54 0.26 4.54 -0.26 4.54 z" class="primitive"/>
              </g>
              <g transform="translate(56.93,56.29)" id="img-65d78260-109">
                <path d="M-0.26,-2.59 L 0.26 -2.59 0.26 2.59 -0.26 2.59 z" class="primitive"/>
              </g>
              <g transform="translate(57.39,56.29)" id="img-65d78260-110">
                <path d="M-0.26,-2.59 L 0.26 -2.59 0.26 2.59 -0.26 2.59 z" class="primitive"/>
              </g>
              <g transform="translate(57.85,53.7)" id="img-65d78260-111">
                <path d="M-0.26,-5.19 L 0.26 -5.19 0.26 5.19 -0.26 5.19 z" class="primitive"/>
              </g>
              <g transform="translate(58.31,56.29)" id="img-65d78260-112">
                <path d="M-0.26,-2.59 L 0.26 -2.59 0.26 2.59 -0.26 2.59 z" class="primitive"/>
              </g>
              <g transform="translate(58.77,56.94)" id="img-65d78260-113">
                <path d="M-0.26,-1.95 L 0.26 -1.95 0.26 1.95 -0.26 1.95 z" class="primitive"/>
              </g>
              <g transform="translate(59.23,56.94)" id="img-65d78260-114">
                <path d="M-0.26,-1.95 L 0.26 -1.95 0.26 1.95 -0.26 1.95 z" class="primitive"/>
              </g>
              <g transform="translate(59.69,55.64)" id="img-65d78260-115">
                <path d="M-0.26,-3.24 L 0.26 -3.24 0.26 3.24 -0.26 3.24 z" class="primitive"/>
              </g>
              <g transform="translate(60.15,57.59)" id="img-65d78260-116">
                <path d="M-0.26,-1.3 L 0.26 -1.3 0.26 1.3 -0.26 1.3 z" class="primitive"/>
              </g>
              <g transform="translate(60.61,58.24)" id="img-65d78260-117">
                <path d="M-0.26,-0.65 L 0.26 -0.65 0.26 0.65 -0.26 0.65 z" class="primitive"/>
              </g>
              <g transform="translate(61.07,58.24)" id="img-65d78260-118">
                <path d="M-0.26,-0.65 L 0.26 -0.65 0.26 0.65 -0.26 0.65 z" class="primitive"/>
              </g>
              <g transform="translate(61.53,56.94)" id="img-65d78260-119">
                <path d="M-0.26,-1.95 L 0.26 -1.95 0.26 1.95 -0.26 1.95 z" class="primitive"/>
              </g>
              <g transform="translate(61.99,57.59)" id="img-65d78260-120">
                <path d="M-0.26,-1.3 L 0.26 -1.3 0.26 1.3 -0.26 1.3 z" class="primitive"/>
              </g>
              <g transform="translate(62.45,58.89)" id="img-65d78260-121">
                <path d="M-0.26,-0 L 0.26 -0 0.26 0 -0.26 0 z" class="primitive"/>
              </g>
              <g transform="translate(62.91,58.89)" id="img-65d78260-122">
                <path d="M-0.26,-0 L 0.26 -0 0.26 0 -0.26 0 z" class="primitive"/>
              </g>
              <g transform="translate(63.37,58.24)" id="img-65d78260-123">
                <path d="M-0.26,-0.65 L 0.26 -0.65 0.26 0.65 -0.26 0.65 z" class="primitive"/>
              </g>
              <g transform="translate(63.83,58.89)" id="img-65d78260-124">
                <path d="M-0.26,-0 L 0.26 -0 0.26 0 -0.26 0 z" class="primitive"/>
              </g>
              <g transform="translate(64.29,58.89)" id="img-65d78260-125">
                <path d="M-0.26,-0 L 0.26 -0 0.26 0 -0.26 0 z" class="primitive"/>
              </g>
              <g transform="translate(64.75,58.89)" id="img-65d78260-126">
                <path d="M-0.26,-0 L 0.26 -0 0.26 0 -0.26 0 z" class="primitive"/>
              </g>
              <g transform="translate(65.21,58.24)" id="img-65d78260-127">
                <path d="M-0.26,-0.65 L 0.26 -0.65 0.26 0.65 -0.26 0.65 z" class="primitive"/>
              </g>
              <g transform="translate(65.67,58.89)" id="img-65d78260-128">
                <path d="M-0.26,-0 L 0.26 -0 0.26 0 -0.26 0 z" class="primitive"/>
              </g>
              <g transform="translate(66.13,58.89)" id="img-65d78260-129">
                <path d="M-0.26,-0 L 0.26 -0 0.26 0 -0.26 0 z" class="primitive"/>
              </g>
              <g transform="translate(66.59,58.89)" id="img-65d78260-130">
                <path d="M-0.26,-0 L 0.26 -0 0.26 0 -0.26 0 z" class="primitive"/>
              </g>
              <g transform="translate(67.05,58.89)" id="img-65d78260-131">
                <path d="M-0.26,-0 L 0.26 -0 0.26 0 -0.26 0 z" class="primitive"/>
              </g>
              <g transform="translate(67.51,58.89)" id="img-65d78260-132">
                <path d="M-0.26,-0 L 0.26 -0 0.26 0 -0.26 0 z" class="primitive"/>
              </g>
              <g transform="translate(67.97,58.89)" id="img-65d78260-133">
                <path d="M-0.26,-0 L 0.26 -0 0.26 0 -0.26 0 z" class="primitive"/>
              </g>
              <g transform="translate(68.43,58.24)" id="img-65d78260-134">
                <path d="M-0.26,-0.65 L 0.26 -0.65 0.26 0.65 -0.26 0.65 z" class="primitive"/>
              </g>
            </g>
          </g>
        </g>
      </g>
    </g>
  </g>
  <g class="guide ylabels" font-size="2.82" font-family="'PT Sans Caption','Helvetica Neue','Helvetica',sans-serif" fill="#6C606B" id="img-65d78260-135">
    <g transform="translate(16.96,58.89)" id="img-65d78260-136">
      <g class="primitive">
        <text text-anchor="end" dy="0.35em">0</text>
      </g>
    </g>
    <g transform="translate(16.96,45.92)" id="img-65d78260-137">
      <g class="primitive">
        <text text-anchor="end" dy="0.35em">10</text>
      </g>
    </g>
    <g transform="translate(16.96,32.94)" id="img-65d78260-138">
      <g class="primitive">
        <text text-anchor="end" dy="0.35em">20</text>
      </g>
    </g>
    <g transform="translate(16.96,19.97)" id="img-65d78260-139">
      <g class="primitive">
        <text text-anchor="end" dy="0.35em">30</text>
      </g>
    </g>
    <g transform="translate(16.96,7)" id="img-65d78260-140">
      <g class="primitive">
        <text text-anchor="end" dy="0.35em">40</text>
      </g>
    </g>
  </g>
  <g font-size="3.88" font-family="'PT Sans','Helvetica Neue','Helvetica',sans-serif" fill="#564A55" stroke="#000000" stroke-opacity="0.000" id="img-65d78260-141">
    <g transform="translate(8.81,30.94)" id="img-65d78260-142">
      <g class="primitive">
        <text text-anchor="middle" dy="0.35em" transform="rotate(-90,0, 2)">frequency</text>
      </g>
    </g>
  </g>
</g>
<defs>
  <clipPath id="img-65d78260-11">
    <path d="M17.96,5 L 73.85 5 73.85 60.89 17.96 60.89" />
  </clipPath>
</defs>
</svg>
