<?xml version="1.0" encoding="UTF-8"?>
<svg xmlns="http://www.w3.org/2000/svg"
     xmlns:xlink="http://www.w3.org/1999/xlink"
     xmlns:gadfly="http://www.gadflyjl.org/ns"
     version="1.2"
     width="141.42mm" height="100mm" viewBox="0 0 141.42 100"
     stroke="none"
     fill="#000000"
     stroke-width="0.3"
     font-size="3.88"
>
<defs>
  <marker id="arrow" markerWidth="15" markerHeight="7" refX="5" refY="3.5" orient="auto" markerUnits="strokeWidth">
    <path d="M0,0 L15,3.5 L0,7 z" stroke="context-stroke" fill="context-stroke"/>
  </marker>
</defs>
<g class="plotroot xscalable yscalable" id="img-1a3e8b96-1">
  <g class="guide xlabels" font-size="2.82" font-family="'PT Sans Caption','Helvetica Neue','Helvetica',sans-serif" fill="#6C606B" id="img-1a3e8b96-2">
    <g transform="translate(19.96,91.33)">
      <g class="primitive">
        <text text-anchor="middle" dy="0.6em">0</text>
      </g>
    </g>
    <g transform="translate(39.26,91.33)">
      <g class="primitive">
        <text text-anchor="middle" dy="0.6em">5.0×10³</text>
      </g>
    </g>
    <g transform="translate(58.56,91.33)">
      <g class="primitive">
        <text text-anchor="middle" dy="0.6em">1.0×10⁴</text>
      </g>
    </g>
    <g transform="translate(77.86,91.33)">
      <g class="primitive">
        <text text-anchor="middle" dy="0.6em">1.5×10⁴</text>
      </g>
    </g>
  </g>
  <g class="guide colorkey" id="img-1a3e8b96-3">
    <g class="color_noncoding_noncoding_coding_coding_4-tail" id="img-1a3e8b96-4">
      <g fill="#4C404B" font-size="2.82" font-family="'PT Sans','Helvetica Neue','Helvetica',sans-serif" id="img-1a3e8b96-5">
        <g transform="translate(83.67,49.48)" id="img-1a3e8b96-6">
          <g class="primitive">
            <text dy="0.35em">noncoding_noncoding_coding_coding_4-tail</text>
          </g>
        </g>
      </g>
      <g fill-opacity="1" fill="#00BFFF" stroke="#FFFFFF" id="img-1a3e8b96-7">
        <g transform="translate(81.77,49.48)" id="img-1a3e8b96-8">
          <path d="M-0.91,-0.91 L 0.91 -0.91 0.91 0.91 -0.91 0.91 z" class="primitive"/>
        </g>
      </g>
    </g>
    <g fill="#362A35" font-size="3.88" font-family="'PT Sans','Helvetica Neue','Helvetica',sans-serif" stroke="#000000" stroke-opacity="0.000" id="img-1a3e8b96-9">
      <g transform="translate(80.86,45.66)" id="img-1a3e8b96-10">
        <g class="primitive">
          <text dy="-0em">graphlet</text>
        </g>
      </g>
    </g>
  </g>
  <g clip-path="url(#img-1a3e8b96-11)">
    <g id="img-1a3e8b96-12">
      <g pointer-events="visible" stroke-width="0.3" fill="#000000" fill-opacity="0.000" stroke="#000000" stroke-opacity="0.000" class="guide background" id="img-1a3e8b96-13">
        <g transform="translate(48.91,47.66)" id="img-1a3e8b96-14">
          <path d="M-30.95,-42.66 L 30.95 -42.66 30.95 42.66 -30.95 42.66 z" class="primitive"/>
        </g>
      </g>
      <g class="guide ygridlines xfixed" stroke-dasharray="0.5,0.5" stroke-width="0.2" stroke="#D0D0E0" id="img-1a3e8b96-15">
        <g transform="translate(48.91,88.33)" id="img-1a3e8b96-16">
          <path fill="none" d="M-30.95,0 L 30.95 0" class="primitive"/>
        </g>
        <g transform="translate(48.91,68)" id="img-1a3e8b96-17">
          <path fill="none" d="M-30.95,0 L 30.95 0" class="primitive"/>
        </g>
        <g transform="translate(48.91,47.66)" id="img-1a3e8b96-18">
          <path fill="none" d="M-30.95,0 L 30.95 0" class="primitive"/>
        </g>
        <g transform="translate(48.91,27.33)" id="img-1a3e8b96-19">
          <path fill="none" d="M-30.95,0 L 30.95 0" class="primitive"/>
        </g>
        <g transform="translate(48.91,7)" id="img-1a3e8b96-20">
          <path fill="none" d="M-30.95,0 L 30.95 0" class="primitive"/>
        </g>
      </g>
      <g class="guide xgridlines yfixed" stroke-dasharray="0.5,0.5" stroke-width="0.2" stroke="#D0D0E0" id="img-1a3e8b96-21">
        <g transform="translate(19.96,47.66)" id="img-1a3e8b96-22">
          <path fill="none" d="M0,-42.66 L 0 42.66" class="primitive"/>
        </g>
        <g transform="translate(39.26,47.66)" id="img-1a3e8b96-23">
          <path fill="none" d="M0,-42.66 L 0 42.66" class="primitive"/>
        </g>
        <g transform="translate(58.56,47.66)" id="img-1a3e8b96-24">
          <path fill="none" d="M0,-42.66 L 0 42.66" class="primitive"/>
        </g>
        <g transform="translate(77.86,47.66)" id="img-1a3e8b96-25">
          <path fill="none" d="M0,-42.66 L 0 42.66" class="primitive"/>
        </g>
      </g>
      <g class="plotpanel" id="img-1a3e8b96-26">
        <metadata>
          <boundingbox value="17.95833333333333mm 5.0mm 61.90302290397618mm 85.32666666666667mm"/>
          <unitbox value="-518.1076651170816 40.98368718747438 16036.215330234163 -41.96737437494876"/>
        </metadata>
        <g shape-rendering="crispEdges" stroke-width="0.3" id="img-1a3e8b96-27">
          <g stroke="#000000" stroke-opacity="0.000" class="geometry" id="img-1a3e8b96-28">
            <g fill="#00BFFF" id="img-1a3e8b96-29">
              <g transform="translate(32.42,86.29)" id="img-1a3e8b96-30">
                <path d="M-0.22,-2.03 L 0.22 -2.03 0.22 2.03 -0.22 2.03 z" class="primitive"/>
              </g>
              <g transform="translate(32.81,86.29)" id="img-1a3e8b96-31">
                <path d="M-0.22,-2.03 L 0.22 -2.03 0.22 2.03 -0.22 2.03 z" class="primitive"/>
              </g>
              <g transform="translate(33.21,87.31)" id="img-1a3e8b96-32">
                <path d="M-0.22,-1.02 L 0.22 -1.02 0.22 1.02 -0.22 1.02 z" class="primitive"/>
              </g>
              <g transform="translate(33.6,88.33)" id="img-1a3e8b96-33">
                <path d="M-0.22,-0 L 0.22 -0 0.22 0 -0.22 0 z" class="primitive"/>
              </g>
              <g transform="translate(34,87.31)" id="img-1a3e8b96-34">
                <path d="M-0.22,-1.02 L 0.22 -1.02 0.22 1.02 -0.22 1.02 z" class="primitive"/>
              </g>
              <g transform="translate(34.39,85.28)" id="img-1a3e8b96-35">
                <path d="M-0.22,-3.05 L 0.22 -3.05 0.22 3.05 -0.22 3.05 z" class="primitive"/>
              </g>
              <g transform="translate(34.79,87.31)" id="img-1a3e8b96-36">
                <path d="M-0.22,-1.02 L 0.22 -1.02 0.22 1.02 -0.22 1.02 z" class="primitive"/>
              </g>
              <g transform="translate(35.18,88.33)" id="img-1a3e8b96-37">
                <path d="M-0.22,-0 L 0.22 -0 0.22 0 -0.22 0 z" class="primitive"/>
              </g>
              <g transform="translate(35.58,85.28)" id="img-1a3e8b96-38">
                <path d="M-0.22,-3.05 L 0.22 -3.05 0.22 3.05 -0.22 3.05 z" class="primitive"/>
              </g>
              <g transform="translate(35.97,83.24)" id="img-1a3e8b96-39">
                <path d="M-0.22,-5.08 L 0.22 -5.08 0.22 5.08 -0.22 5.08 z" class="primitive"/>
              </g>
              <g transform="translate(36.37,88.33)" id="img-1a3e8b96-40">
                <path d="M-0.22,-0 L 0.22 -0 0.22 0 -0.22 0 z" class="primitive"/>
              </g>
              <g transform="translate(36.77,81.21)" id="img-1a3e8b96-41">
                <path d="M-0.22,-7.12 L 0.22 -7.12 0.22 7.12 -0.22 7.12 z" class="primitive"/>
              </g>
              <g transform="translate(37.16,79.18)" id="img-1a3e8b96-42">
                <path d="M-0.22,-9.15 L 0.22 -9.15 0.22 9.15 -0.22 9.15 z" class="primitive"/>
              </g>
              <g transform="translate(37.56,80.19)" id="img-1a3e8b96-43">
                <path d="M-0.22,-8.13 L 0.22 -8.13 0.22 8.13 -0.22 8.13 z" class="primitive"/>
              </g>
              <g transform="translate(37.95,77.14)" id="img-1a3e8b96-44">
                <path d="M-0.22,-11.18 L 0.22 -11.18 0.22 11.18 -0.22 11.18 z" class="primitive"/>
              </g>
              <g transform="translate(38.35,72.06)" id="img-1a3e8b96-45">
                <path d="M-0.22,-16.27 L 0.22 -16.27 0.22 16.27 -0.22 16.27 z" class="primitive"/>
              </g>
              <g transform="translate(38.74,79.18)" id="img-1a3e8b96-46">
                <path d="M-0.22,-9.15 L 0.22 -9.15 0.22 9.15 -0.22 9.15 z" class="primitive"/>
              </g>
              <g transform="translate(39.14,76.13)" id="img-1a3e8b96-47">
                <path d="M-0.22,-12.2 L 0.22 -12.2 0.22 12.2 -0.22 12.2 z" class="primitive"/>
              </g>
              <g transform="translate(39.53,70.03)" id="img-1a3e8b96-48">
                <path d="M-0.22,-18.3 L 0.22 -18.3 0.22 18.3 -0.22 18.3 z" class="primitive"/>
              </g>
              <g transform="translate(39.93,71.04)" id="img-1a3e8b96-49">
                <path d="M-0.22,-17.28 L 0.22 -17.28 0.22 17.28 -0.22 17.28 z" class="primitive"/>
              </g>
              <g transform="translate(40.32,72.06)" id="img-1a3e8b96-50">
                <path d="M-0.22,-16.27 L 0.22 -16.27 0.22 16.27 -0.22 16.27 z" class="primitive"/>
              </g>
              <g transform="translate(40.72,79.18)" id="img-1a3e8b96-51">
                <path d="M-0.22,-9.15 L 0.22 -9.15 0.22 9.15 -0.22 9.15 z" class="primitive"/>
              </g>
              <g transform="translate(41.11,65.96)" id="img-1a3e8b96-52">
                <path d="M-0.22,-22.36 L 0.22 -22.36 0.22 22.36 -0.22 22.36 z" class="primitive"/>
              </g>
              <g transform="translate(41.51,61.9)" id="img-1a3e8b96-53">
                <path d="M-0.22,-26.43 L 0.22 -26.43 0.22 26.43 -0.22 26.43 z" class="primitive"/>
              </g>
              <g transform="translate(41.91,70.03)" id="img-1a3e8b96-54">
                <path d="M-0.22,-18.3 L 0.22 -18.3 0.22 18.3 -0.22 18.3 z" class="primitive"/>
              </g>
              <g transform="translate(42.3,68)" id="img-1a3e8b96-55">
                <path d="M-0.22,-20.33 L 0.22 -20.33 0.22 20.33 -0.22 20.33 z" class="primitive"/>
              </g>
              <g transform="translate(42.7,65.96)" id="img-1a3e8b96-56">
                <path d="M-0.22,-22.36 L 0.22 -22.36 0.22 22.36 -0.22 22.36 z" class="primitive"/>
              </g>
              <g transform="translate(43.09,66.98)" id="img-1a3e8b96-57">
                <path d="M-0.22,-21.35 L 0.22 -21.35 0.22 21.35 -0.22 21.35 z" class="primitive"/>
              </g>
              <g transform="translate(43.49,59.86)" id="img-1a3e8b96-58">
                <path d="M-0.22,-28.46 L 0.22 -28.46 0.22 28.46 -0.22 28.46 z" class="primitive"/>
              </g>
              <g transform="translate(43.88,58.85)" id="img-1a3e8b96-59">
                <path d="M-0.22,-29.48 L 0.22 -29.48 0.22 29.48 -0.22 29.48 z" class="primitive"/>
              </g>
              <g transform="translate(44.28,62.91)" id="img-1a3e8b96-60">
                <path d="M-0.22,-25.41 L 0.22 -25.41 0.22 25.41 -0.22 25.41 z" class="primitive"/>
              </g>
              <g transform="translate(44.67,62.91)" id="img-1a3e8b96-61">
                <path d="M-0.22,-25.41 L 0.22 -25.41 0.22 25.41 -0.22 25.41 z" class="primitive"/>
              </g>
              <g transform="translate(45.07,62.91)" id="img-1a3e8b96-62">
                <path d="M-0.22,-25.41 L 0.22 -25.41 0.22 25.41 -0.22 25.41 z" class="primitive"/>
              </g>
              <g transform="translate(45.46,65.96)" id="img-1a3e8b96-63">
                <path d="M-0.22,-22.36 L 0.22 -22.36 0.22 22.36 -0.22 22.36 z" class="primitive"/>
              </g>
              <g transform="translate(45.86,52.75)" id="img-1a3e8b96-64">
                <path d="M-0.22,-35.58 L 0.22 -35.58 0.22 35.58 -0.22 35.58 z" class="primitive"/>
              </g>
              <g transform="translate(46.26,64.95)" id="img-1a3e8b96-65">
                <path d="M-0.22,-23.38 L 0.22 -23.38 0.22 23.38 -0.22 23.38 z" class="primitive"/>
              </g>
              <g transform="translate(46.65,68)" id="img-1a3e8b96-66">
                <path d="M-0.22,-20.33 L 0.22 -20.33 0.22 20.33 -0.22 20.33 z" class="primitive"/>
              </g>
              <g transform="translate(47.05,66.98)" id="img-1a3e8b96-67">
                <path d="M-0.22,-21.35 L 0.22 -21.35 0.22 21.35 -0.22 21.35 z" class="primitive"/>
              </g>
              <g transform="translate(47.44,60.88)" id="img-1a3e8b96-68">
                <path d="M-0.22,-27.45 L 0.22 -27.45 0.22 27.45 -0.22 27.45 z" class="primitive"/>
              </g>
              <g transform="translate(47.84,54.78)" id="img-1a3e8b96-69">
                <path d="M-0.22,-33.55 L 0.22 -33.55 0.22 33.55 -0.22 33.55 z" class="primitive"/>
              </g>
              <g transform="translate(48.23,66.98)" id="img-1a3e8b96-70">
                <path d="M-0.22,-21.35 L 0.22 -21.35 0.22 21.35 -0.22 21.35 z" class="primitive"/>
              </g>
              <g transform="translate(48.63,65.96)" id="img-1a3e8b96-71">
                <path d="M-0.22,-22.36 L 0.22 -22.36 0.22 22.36 -0.22 22.36 z" class="primitive"/>
              </g>
              <g transform="translate(49.02,63.93)" id="img-1a3e8b96-72">
                <path d="M-0.22,-24.4 L 0.22 -24.4 0.22 24.4 -0.22 24.4 z" class="primitive"/>
              </g>
              <g transform="translate(49.42,66.98)" id="img-1a3e8b96-73">
                <path d="M-0.22,-21.35 L 0.22 -21.35 0.22 21.35 -0.22 21.35 z" class="primitive"/>
              </g>
              <g transform="translate(49.81,54.78)" id="img-1a3e8b96-74">
                <path d="M-0.22,-33.55 L 0.22 -33.55 0.22 33.55 -0.22 33.55 z" class="primitive"/>
              </g>
              <g transform="translate(50.21,70.03)" id="img-1a3e8b96-75">
                <path d="M-0.22,-18.3 L 0.22 -18.3 0.22 18.3 -0.22 18.3 z" class="primitive"/>
              </g>
              <g transform="translate(50.6,73.08)" id="img-1a3e8b96-76">
                <path d="M-0.22,-15.25 L 0.22 -15.25 0.22 15.25 -0.22 15.25 z" class="primitive"/>
              </g>
              <g transform="translate(51,75.11)" id="img-1a3e8b96-77">
                <path d="M-0.22,-13.22 L 0.22 -13.22 0.22 13.22 -0.22 13.22 z" class="primitive"/>
              </g>
              <g transform="translate(51.4,71.04)" id="img-1a3e8b96-78">
                <path d="M-0.22,-17.28 L 0.22 -17.28 0.22 17.28 -0.22 17.28 z" class="primitive"/>
              </g>
              <g transform="translate(51.79,77.14)" id="img-1a3e8b96-79">
                <path d="M-0.22,-11.18 L 0.22 -11.18 0.22 11.18 -0.22 11.18 z" class="primitive"/>
              </g>
              <g transform="translate(52.19,75.11)" id="img-1a3e8b96-80">
                <path d="M-0.22,-13.22 L 0.22 -13.22 0.22 13.22 -0.22 13.22 z" class="primitive"/>
              </g>
              <g transform="translate(52.58,76.13)" id="img-1a3e8b96-81">
                <path d="M-0.22,-12.2 L 0.22 -12.2 0.22 12.2 -0.22 12.2 z" class="primitive"/>
              </g>
              <g transform="translate(52.98,78.16)" id="img-1a3e8b96-82">
                <path d="M-0.22,-10.17 L 0.22 -10.17 0.22 10.17 -0.22 10.17 z" class="primitive"/>
              </g>
              <g transform="translate(53.37,75.11)" id="img-1a3e8b96-83">
                <path d="M-0.22,-13.22 L 0.22 -13.22 0.22 13.22 -0.22 13.22 z" class="primitive"/>
              </g>
              <g transform="translate(53.77,76.13)" id="img-1a3e8b96-84">
                <path d="M-0.22,-12.2 L 0.22 -12.2 0.22 12.2 -0.22 12.2 z" class="primitive"/>
              </g>
              <g transform="translate(54.16,75.11)" id="img-1a3e8b96-85">
                <path d="M-0.22,-13.22 L 0.22 -13.22 0.22 13.22 -0.22 13.22 z" class="primitive"/>
              </g>
              <g transform="translate(54.56,75.11)" id="img-1a3e8b96-86">
                <path d="M-0.22,-13.22 L 0.22 -13.22 0.22 13.22 -0.22 13.22 z" class="primitive"/>
              </g>
              <g transform="translate(54.95,72.06)" id="img-1a3e8b96-87">
                <path d="M-0.22,-16.27 L 0.22 -16.27 0.22 16.27 -0.22 16.27 z" class="primitive"/>
              </g>
              <g transform="translate(55.35,76.13)" id="img-1a3e8b96-88">
                <path d="M-0.22,-12.2 L 0.22 -12.2 0.22 12.2 -0.22 12.2 z" class="primitive"/>
              </g>
              <g transform="translate(55.74,82.23)" id="img-1a3e8b96-89">
                <path d="M-0.22,-6.1 L 0.22 -6.1 0.22 6.1 -0.22 6.1 z" class="primitive"/>
              </g>
              <g transform="translate(56.14,78.16)" id="img-1a3e8b96-90">
                <path d="M-0.22,-10.17 L 0.22 -10.17 0.22 10.17 -0.22 10.17 z" class="primitive"/>
              </g>
              <g transform="translate(56.54,85.28)" id="img-1a3e8b96-91">
                <path d="M-0.22,-3.05 L 0.22 -3.05 0.22 3.05 -0.22 3.05 z" class="primitive"/>
              </g>
              <g transform="translate(56.93,83.24)" id="img-1a3e8b96-92">
                <path d="M-0.22,-5.08 L 0.22 -5.08 0.22 5.08 -0.22 5.08 z" class="primitive"/>
              </g>
              <g transform="translate(57.33,83.24)" id="img-1a3e8b96-93">
                <path d="M-0.22,-5.08 L 0.22 -5.08 0.22 5.08 -0.22 5.08 z" class="primitive"/>
              </g>
              <g transform="translate(57.72,83.24)" id="img-1a3e8b96-94">
                <path d="M-0.22,-5.08 L 0.22 -5.08 0.22 5.08 -0.22 5.08 z" class="primitive"/>
              </g>
              <g transform="translate(58.12,79.18)" id="img-1a3e8b96-95">
                <path d="M-0.22,-9.15 L 0.22 -9.15 0.22 9.15 -0.22 9.15 z" class="primitive"/>
              </g>
              <g transform="translate(58.51,80.19)" id="img-1a3e8b96-96">
                <path d="M-0.22,-8.13 L 0.22 -8.13 0.22 8.13 -0.22 8.13 z" class="primitive"/>
              </g>
              <g transform="translate(58.91,85.28)" id="img-1a3e8b96-97">
                <path d="M-0.22,-3.05 L 0.22 -3.05 0.22 3.05 -0.22 3.05 z" class="primitive"/>
              </g>
              <g transform="translate(59.3,82.23)" id="img-1a3e8b96-98">
                <path d="M-0.22,-6.1 L 0.22 -6.1 0.22 6.1 -0.22 6.1 z" class="primitive"/>
              </g>
              <g transform="translate(59.7,82.23)" id="img-1a3e8b96-99">
                <path d="M-0.22,-6.1 L 0.22 -6.1 0.22 6.1 -0.22 6.1 z" class="primitive"/>
              </g>
              <g transform="translate(60.09,87.31)" id="img-1a3e8b96-100">
                <path d="M-0.22,-1.02 L 0.22 -1.02 0.22 1.02 -0.22 1.02 z" class="primitive"/>
              </g>
              <g transform="translate(60.49,80.19)" id="img-1a3e8b96-101">
                <path d="M-0.22,-8.13 L 0.22 -8.13 0.22 8.13 -0.22 8.13 z" class="primitive"/>
              </g>
              <g transform="translate(60.88,86.29)" id="img-1a3e8b96-102">
                <path d="M-0.22,-2.03 L 0.22 -2.03 0.22 2.03 -0.22 2.03 z" class="primitive"/>
              </g>
              <g transform="translate(61.28,85.28)" id="img-1a3e8b96-103">
                <path d="M-0.22,-3.05 L 0.22 -3.05 0.22 3.05 -0.22 3.05 z" class="primitive"/>
              </g>
              <g transform="translate(61.68,85.28)" id="img-1a3e8b96-104">
                <path d="M-0.22,-3.05 L 0.22 -3.05 0.22 3.05 -0.22 3.05 z" class="primitive"/>
              </g>
              <g transform="translate(62.07,88.33)" id="img-1a3e8b96-105">
                <path d="M-0.22,-0 L 0.22 -0 0.22 0 -0.22 0 z" class="primitive"/>
              </g>
              <g transform="translate(62.47,88.33)" id="img-1a3e8b96-106">
                <path d="M-0.22,-0 L 0.22 -0 0.22 0 -0.22 0 z" class="primitive"/>
              </g>
              <g transform="translate(62.86,88.33)" id="img-1a3e8b96-107">
                <path d="M-0.22,-0 L 0.22 -0 0.22 0 -0.22 0 z" class="primitive"/>
              </g>
              <g transform="translate(63.26,87.31)" id="img-1a3e8b96-108">
                <path d="M-0.22,-1.02 L 0.22 -1.02 0.22 1.02 -0.22 1.02 z" class="primitive"/>
              </g>
              <g transform="translate(63.65,88.33)" id="img-1a3e8b96-109">
                <path d="M-0.22,-0 L 0.22 -0 0.22 0 -0.22 0 z" class="primitive"/>
              </g>
              <g transform="translate(64.05,87.31)" id="img-1a3e8b96-110">
                <path d="M-0.22,-1.02 L 0.22 -1.02 0.22 1.02 -0.22 1.02 z" class="primitive"/>
              </g>
              <g transform="translate(64.44,85.28)" id="img-1a3e8b96-111">
                <path d="M-0.22,-3.05 L 0.22 -3.05 0.22 3.05 -0.22 3.05 z" class="primitive"/>
              </g>
              <g transform="translate(64.84,87.31)" id="img-1a3e8b96-112">
                <path d="M-0.22,-1.02 L 0.22 -1.02 0.22 1.02 -0.22 1.02 z" class="primitive"/>
              </g>
              <g transform="translate(65.23,87.31)" id="img-1a3e8b96-113">
                <path d="M-0.22,-1.02 L 0.22 -1.02 0.22 1.02 -0.22 1.02 z" class="primitive"/>
              </g>
              <g transform="translate(65.63,87.31)" id="img-1a3e8b96-114">
                <path d="M-0.22,-1.02 L 0.22 -1.02 0.22 1.02 -0.22 1.02 z" class="primitive"/>
              </g>
              <g transform="translate(66.03,88.33)" id="img-1a3e8b96-115">
                <path d="M-0.22,-0 L 0.22 -0 0.22 0 -0.22 0 z" class="primitive"/>
              </g>
              <g transform="translate(66.42,87.31)" id="img-1a3e8b96-116">
                <path d="M-0.22,-1.02 L 0.22 -1.02 0.22 1.02 -0.22 1.02 z" class="primitive"/>
              </g>
              <g transform="translate(66.82,88.33)" id="img-1a3e8b96-117">
                <path d="M-0.22,-0 L 0.22 -0 0.22 0 -0.22 0 z" class="primitive"/>
              </g>
              <g transform="translate(67.21,88.33)" id="img-1a3e8b96-118">
                <path d="M-0.22,-0 L 0.22 -0 0.22 0 -0.22 0 z" class="primitive"/>
              </g>
              <g transform="translate(67.61,86.29)" id="img-1a3e8b96-119">
                <path d="M-0.22,-2.03 L 0.22 -2.03 0.22 2.03 -0.22 2.03 z" class="primitive"/>
              </g>
              <g transform="translate(68,87.31)" id="img-1a3e8b96-120">
                <path d="M-0.22,-1.02 L 0.22 -1.02 0.22 1.02 -0.22 1.02 z" class="primitive"/>
              </g>
              <g transform="translate(68.4,88.33)" id="img-1a3e8b96-121">
                <path d="M-0.22,-0 L 0.22 -0 0.22 0 -0.22 0 z" class="primitive"/>
              </g>
              <g transform="translate(68.79,87.31)" id="img-1a3e8b96-122">
                <path d="M-0.22,-1.02 L 0.22 -1.02 0.22 1.02 -0.22 1.02 z" class="primitive"/>
              </g>
              <g transform="translate(69.19,87.31)" id="img-1a3e8b96-123">
                <path d="M-0.22,-1.02 L 0.22 -1.02 0.22 1.02 -0.22 1.02 z" class="primitive"/>
              </g>
              <g transform="translate(69.58,87.31)" id="img-1a3e8b96-124">
                <path d="M-0.22,-1.02 L 0.22 -1.02 0.22 1.02 -0.22 1.02 z" class="primitive"/>
              </g>
              <g transform="translate(69.98,88.33)" id="img-1a3e8b96-125">
                <path d="M-0.22,-0 L 0.22 -0 0.22 0 -0.22 0 z" class="primitive"/>
              </g>
              <g transform="translate(70.37,88.33)" id="img-1a3e8b96-126">
                <path d="M-0.22,-0 L 0.22 -0 0.22 0 -0.22 0 z" class="primitive"/>
              </g>
              <g transform="translate(70.77,88.33)" id="img-1a3e8b96-127">
                <path d="M-0.22,-0 L 0.22 -0 0.22 0 -0.22 0 z" class="primitive"/>
              </g>
              <g transform="translate(71.17,88.33)" id="img-1a3e8b96-128">
                <path d="M-0.22,-0 L 0.22 -0 0.22 0 -0.22 0 z" class="primitive"/>
              </g>
              <g transform="translate(71.56,87.31)" id="img-1a3e8b96-129">
                <path d="M-0.22,-1.02 L 0.22 -1.02 0.22 1.02 -0.22 1.02 z" class="primitive"/>
              </g>
            </g>
          </g>
        </g>
      </g>
    </g>
  </g>
  <g class="guide ylabels" font-size="2.82" font-family="'PT Sans Caption','Helvetica Neue','Helvetica',sans-serif" fill="#6C606B" id="img-1a3e8b96-130">
    <g transform="translate(16.96,88.33)" id="img-1a3e8b96-131">
      <g class="primitive">
        <text text-anchor="end" dy="0.35em">0</text>
      </g>
    </g>
    <g transform="translate(16.96,68)" id="img-1a3e8b96-132">
      <g class="primitive">
        <text text-anchor="end" dy="0.35em">10</text>
      </g>
    </g>
    <g transform="translate(16.96,47.66)" id="img-1a3e8b96-133">
      <g class="primitive">
        <text text-anchor="end" dy="0.35em">20</text>
      </g>
    </g>
    <g transform="translate(16.96,27.33)" id="img-1a3e8b96-134">
      <g class="primitive">
        <text text-anchor="end" dy="0.35em">30</text>
      </g>
    </g>
    <g transform="translate(16.96,7)" id="img-1a3e8b96-135">
      <g class="primitive">
        <text text-anchor="end" dy="0.35em">40</text>
      </g>
    </g>
  </g>
  <g font-size="3.88" font-family="'PT Sans','Helvetica Neue','Helvetica',sans-serif" fill="#564A55" stroke="#000000" stroke-opacity="0.000" id="img-1a3e8b96-136">
    <g transform="translate(8.81,45.66)" id="img-1a3e8b96-137">
      <g class="primitive">
        <text text-anchor="middle" dy="0.35em" transform="rotate(-90,0, 2)">frequency</text>
      </g>
    </g>
  </g>
</g>
<defs>
  <clipPath id="img-1a3e8b96-11">
    <path d="M17.96,5 L 79.86 5 79.86 90.33 17.96 90.33" />
  </clipPath>
</defs>
</svg>
