<?xml version="1.0" encoding="UTF-8"?>
<svg xmlns="http://www.w3.org/2000/svg"
     xmlns:xlink="http://www.w3.org/1999/xlink"
     xmlns:gadfly="http://www.gadflyjl.org/ns"
     version="1.2"
     width="141.42mm" height="100mm" viewBox="0 0 141.42 100"
     stroke="none"
     fill="#000000"
     stroke-width="0.3"
     font-size="3.88"
>
<defs>
  <marker id="arrow" markerWidth="15" markerHeight="7" refX="5" refY="3.5" orient="auto" markerUnits="strokeWidth">
    <path d="M0,0 L15,3.5 L0,7 z" stroke="context-stroke" fill="context-stroke"/>
  </marker>
</defs>
<g class="plotroot xscalable yscalable" id="img-853455bc-1">
  <g class="guide xlabels" font-size="2.82" font-family="'PT Sans Caption','Helvetica Neue','Helvetica',sans-serif" fill="#6C606B" id="img-853455bc-2">
    <g transform="translate(19.96,81.89)">
      <g class="primitive">
        <text text-anchor="end" dy="0.35em" transform="rotate(-90,0, 0)">1.0×10⁶</text>
      </g>
    </g>
    <g transform="translate(34.06,81.89)">
      <g class="primitive">
        <text text-anchor="end" dy="0.35em" transform="rotate(-90,0, 0)">1.2×10⁶</text>
      </g>
    </g>
    <g transform="translate(48.17,81.89)">
      <g class="primitive">
        <text text-anchor="end" dy="0.35em" transform="rotate(-90,0, 0)">1.4×10⁶</text>
      </g>
    </g>
    <g transform="translate(62.27,81.89)">
      <g class="primitive">
        <text text-anchor="end" dy="0.35em" transform="rotate(-90,0, 0)">1.6×10⁶</text>
      </g>
    </g>
    <g transform="translate(76.37,81.89)">
      <g class="primitive">
        <text text-anchor="end" dy="0.35em" transform="rotate(-90,0, 0)">1.8×10⁶</text>
      </g>
    </g>
  </g>
  <g class="guide colorkey" id="img-853455bc-3">
    <g class="color_noncoding_coding_noncoding_coding_4-path" id="img-853455bc-4">
      <g fill="#4C404B" font-size="2.82" font-family="'PT Sans','Helvetica Neue','Helvetica',sans-serif" id="img-853455bc-5">
        <g transform="translate(82.19,44.76)" id="img-853455bc-6">
          <g class="primitive">
            <text dy="0.35em">noncoding_coding_noncoding_coding_4-path</text>
          </g>
        </g>
      </g>
      <g fill-opacity="1" fill="#00BFFF" stroke="#FFFFFF" id="img-853455bc-7">
        <g transform="translate(80.28,44.76)" id="img-853455bc-8">
          <path d="M-0.91,-0.91 L 0.91 -0.91 0.91 0.91 -0.91 0.91 z" class="primitive"/>
        </g>
      </g>
    </g>
    <g fill="#362A35" font-size="3.88" font-family="'PT Sans','Helvetica Neue','Helvetica',sans-serif" stroke="#000000" stroke-opacity="0.000" id="img-853455bc-9">
      <g transform="translate(79.37,40.94)" id="img-853455bc-10">
        <g class="primitive">
          <text dy="-0em">graphlet</text>
        </g>
      </g>
    </g>
  </g>
  <g clip-path="url(#img-853455bc-11)">
    <g id="img-853455bc-12">
      <g pointer-events="visible" stroke-width="0.3" fill="#000000" fill-opacity="0.000" stroke="#000000" stroke-opacity="0.000" class="guide background" id="img-853455bc-13">
        <g transform="translate(48.17,42.94)" id="img-853455bc-14">
          <path d="M-30.21,-37.94 L 30.21 -37.94 30.21 37.94 -30.21 37.94 z" class="primitive"/>
        </g>
      </g>
      <g class="guide ygridlines xfixed" stroke-dasharray="0.5,0.5" stroke-width="0.2" stroke="#D0D0E0" id="img-853455bc-15">
        <g transform="translate(48.17,78.89)" id="img-853455bc-16">
          <path fill="none" d="M-30.21,0 L 30.21 0" class="primitive"/>
        </g>
        <g transform="translate(48.17,60.92)" id="img-853455bc-17">
          <path fill="none" d="M-30.21,0 L 30.21 0" class="primitive"/>
        </g>
        <g transform="translate(48.17,42.94)" id="img-853455bc-18">
          <path fill="none" d="M-30.21,0 L 30.21 0" class="primitive"/>
        </g>
        <g transform="translate(48.17,24.97)" id="img-853455bc-19">
          <path fill="none" d="M-30.21,0 L 30.21 0" class="primitive"/>
        </g>
        <g transform="translate(48.17,7)" id="img-853455bc-20">
          <path fill="none" d="M-30.21,0 L 30.21 0" class="primitive"/>
        </g>
      </g>
      <g class="guide xgridlines yfixed" stroke-dasharray="0.5,0.5" stroke-width="0.2" stroke="#D0D0E0" id="img-853455bc-21">
        <g transform="translate(19.96,42.94)" id="img-853455bc-22">
          <path fill="none" d="M0,-37.94 L 0 37.94" class="primitive"/>
        </g>
        <g transform="translate(34.06,42.94)" id="img-853455bc-23">
          <path fill="none" d="M0,-37.94 L 0 37.94" class="primitive"/>
        </g>
        <g transform="translate(48.17,42.94)" id="img-853455bc-24">
          <path fill="none" d="M0,-37.94 L 0 37.94" class="primitive"/>
        </g>
        <g transform="translate(62.27,42.94)" id="img-853455bc-25">
          <path fill="none" d="M0,-37.94 L 0 37.94" class="primitive"/>
        </g>
        <g transform="translate(76.37,42.94)" id="img-853455bc-26">
          <path fill="none" d="M0,-37.94 L 0 37.94" class="primitive"/>
        </g>
      </g>
      <g class="plotpanel" id="img-853455bc-27">
        <metadata>
          <boundingbox value="17.958333333333336mm 5.0mm 60.41635623730949mm 75.88666666666667mm"/>
          <unitbox value="971639.4303582853 41.112862839655016 856721.1392834294 -42.225725679310024"/>
        </metadata>
        <g shape-rendering="crispEdges" stroke-width="0.3" id="img-853455bc-28">
          <g stroke="#000000" stroke-opacity="0.000" class="geometry" id="img-853455bc-29">
            <g fill="#00BFFF" id="img-853455bc-30">
              <g transform="translate(24.71,77.99)" id="img-853455bc-31">
                <path d="M-0.22,-0.9 L 0.22 -0.9 0.22 0.9 -0.22 0.9 z" class="primitive"/>
              </g>
              <g transform="translate(25.09,78.89)" id="img-853455bc-32">
                <path d="M-0.22,-0 L 0.22 -0 0.22 0 -0.22 0 z" class="primitive"/>
              </g>
              <g transform="translate(25.47,78.89)" id="img-853455bc-33">
                <path d="M-0.22,-0 L 0.22 -0 0.22 0 -0.22 0 z" class="primitive"/>
              </g>
              <g transform="translate(25.86,78.89)" id="img-853455bc-34">
                <path d="M-0.22,-0 L 0.22 -0 0.22 0 -0.22 0 z" class="primitive"/>
              </g>
              <g transform="translate(26.24,78.89)" id="img-853455bc-35">
                <path d="M-0.22,-0 L 0.22 -0 0.22 0 -0.22 0 z" class="primitive"/>
              </g>
              <g transform="translate(26.62,78.89)" id="img-853455bc-36">
                <path d="M-0.22,-0 L 0.22 -0 0.22 0 -0.22 0 z" class="primitive"/>
              </g>
              <g transform="translate(27.01,78.89)" id="img-853455bc-37">
                <path d="M-0.22,-0 L 0.22 -0 0.22 0 -0.22 0 z" class="primitive"/>
              </g>
              <g transform="translate(27.39,78.89)" id="img-853455bc-38">
                <path d="M-0.22,-0 L 0.22 -0 0.22 0 -0.22 0 z" class="primitive"/>
              </g>
              <g transform="translate(27.77,77.99)" id="img-853455bc-39">
                <path d="M-0.22,-0.9 L 0.22 -0.9 0.22 0.9 -0.22 0.9 z" class="primitive"/>
              </g>
              <g transform="translate(28.16,77.99)" id="img-853455bc-40">
                <path d="M-0.22,-0.9 L 0.22 -0.9 0.22 0.9 -0.22 0.9 z" class="primitive"/>
              </g>
              <g transform="translate(28.54,77.99)" id="img-853455bc-41">
                <path d="M-0.22,-0.9 L 0.22 -0.9 0.22 0.9 -0.22 0.9 z" class="primitive"/>
              </g>
              <g transform="translate(28.92,77.99)" id="img-853455bc-42">
                <path d="M-0.22,-0.9 L 0.22 -0.9 0.22 0.9 -0.22 0.9 z" class="primitive"/>
              </g>
              <g transform="translate(29.31,78.89)" id="img-853455bc-43">
                <path d="M-0.22,-0 L 0.22 -0 0.22 0 -0.22 0 z" class="primitive"/>
              </g>
              <g transform="translate(29.69,77.09)" id="img-853455bc-44">
                <path d="M-0.22,-1.8 L 0.22 -1.8 0.22 1.8 -0.22 1.8 z" class="primitive"/>
              </g>
              <g transform="translate(30.07,76.19)" id="img-853455bc-45">
                <path d="M-0.22,-2.7 L 0.22 -2.7 0.22 2.7 -0.22 2.7 z" class="primitive"/>
              </g>
              <g transform="translate(30.46,75.29)" id="img-853455bc-46">
                <path d="M-0.22,-3.59 L 0.22 -3.59 0.22 3.59 -0.22 3.59 z" class="primitive"/>
              </g>
              <g transform="translate(30.84,76.19)" id="img-853455bc-47">
                <path d="M-0.22,-2.7 L 0.22 -2.7 0.22 2.7 -0.22 2.7 z" class="primitive"/>
              </g>
              <g transform="translate(31.22,74.39)" id="img-853455bc-48">
                <path d="M-0.22,-4.49 L 0.22 -4.49 0.22 4.49 -0.22 4.49 z" class="primitive"/>
              </g>
              <g transform="translate(31.61,76.19)" id="img-853455bc-49">
                <path d="M-0.22,-2.7 L 0.22 -2.7 0.22 2.7 -0.22 2.7 z" class="primitive"/>
              </g>
              <g transform="translate(31.99,76.19)" id="img-853455bc-50">
                <path d="M-0.22,-2.7 L 0.22 -2.7 0.22 2.7 -0.22 2.7 z" class="primitive"/>
              </g>
              <g transform="translate(32.37,75.29)" id="img-853455bc-51">
                <path d="M-0.22,-3.59 L 0.22 -3.59 0.22 3.59 -0.22 3.59 z" class="primitive"/>
              </g>
              <g transform="translate(32.76,73.5)" id="img-853455bc-52">
                <path d="M-0.22,-5.39 L 0.22 -5.39 0.22 5.39 -0.22 5.39 z" class="primitive"/>
              </g>
              <g transform="translate(33.14,72.6)" id="img-853455bc-53">
                <path d="M-0.22,-6.29 L 0.22 -6.29 0.22 6.29 -0.22 6.29 z" class="primitive"/>
              </g>
              <g transform="translate(33.52,72.6)" id="img-853455bc-54">
                <path d="M-0.22,-6.29 L 0.22 -6.29 0.22 6.29 -0.22 6.29 z" class="primitive"/>
              </g>
              <g transform="translate(33.91,69)" id="img-853455bc-55">
                <path d="M-0.22,-9.88 L 0.22 -9.88 0.22 9.88 -0.22 9.88 z" class="primitive"/>
              </g>
              <g transform="translate(34.29,65.41)" id="img-853455bc-56">
                <path d="M-0.22,-13.48 L 0.22 -13.48 0.22 13.48 -0.22 13.48 z" class="primitive"/>
              </g>
              <g transform="translate(34.67,70.8)" id="img-853455bc-57">
                <path d="M-0.22,-8.09 L 0.22 -8.09 0.22 8.09 -0.22 8.09 z" class="primitive"/>
              </g>
              <g transform="translate(35.06,58.22)" id="img-853455bc-58">
                <path d="M-0.22,-20.67 L 0.22 -20.67 0.22 20.67 -0.22 20.67 z" class="primitive"/>
              </g>
              <g transform="translate(35.44,64.51)" id="img-853455bc-59">
                <path d="M-0.22,-14.38 L 0.22 -14.38 0.22 14.38 -0.22 14.38 z" class="primitive"/>
              </g>
              <g transform="translate(35.83,66.31)" id="img-853455bc-60">
                <path d="M-0.22,-12.58 L 0.22 -12.58 0.22 12.58 -0.22 12.58 z" class="primitive"/>
              </g>
              <g transform="translate(36.21,57.32)" id="img-853455bc-61">
                <path d="M-0.22,-21.57 L 0.22 -21.57 0.22 21.57 -0.22 21.57 z" class="primitive"/>
              </g>
              <g transform="translate(36.59,65.41)" id="img-853455bc-62">
                <path d="M-0.22,-13.48 L 0.22 -13.48 0.22 13.48 -0.22 13.48 z" class="primitive"/>
              </g>
              <g transform="translate(36.98,60.02)" id="img-853455bc-63">
                <path d="M-0.22,-18.87 L 0.22 -18.87 0.22 18.87 -0.22 18.87 z" class="primitive"/>
              </g>
              <g transform="translate(37.36,60.92)" id="img-853455bc-64">
                <path d="M-0.22,-17.97 L 0.22 -17.97 0.22 17.97 -0.22 17.97 z" class="primitive"/>
              </g>
              <g transform="translate(37.74,60.92)" id="img-853455bc-65">
                <path d="M-0.22,-17.97 L 0.22 -17.97 0.22 17.97 -0.22 17.97 z" class="primitive"/>
              </g>
              <g transform="translate(38.13,56.42)" id="img-853455bc-66">
                <path d="M-0.22,-22.46 L 0.22 -22.46 0.22 22.46 -0.22 22.46 z" class="primitive"/>
              </g>
              <g transform="translate(38.51,59.12)" id="img-853455bc-67">
                <path d="M-0.22,-19.77 L 0.22 -19.77 0.22 19.77 -0.22 19.77 z" class="primitive"/>
              </g>
              <g transform="translate(38.89,59.12)" id="img-853455bc-68">
                <path d="M-0.22,-19.77 L 0.22 -19.77 0.22 19.77 -0.22 19.77 z" class="primitive"/>
              </g>
              <g transform="translate(39.28,53.73)" id="img-853455bc-69">
                <path d="M-0.22,-25.16 L 0.22 -25.16 0.22 25.16 -0.22 25.16 z" class="primitive"/>
              </g>
              <g transform="translate(39.66,56.42)" id="img-853455bc-70">
                <path d="M-0.22,-22.46 L 0.22 -22.46 0.22 22.46 -0.22 22.46 z" class="primitive"/>
              </g>
              <g transform="translate(40.04,49.23)" id="img-853455bc-71">
                <path d="M-0.22,-29.65 L 0.22 -29.65 0.22 29.65 -0.22 29.65 z" class="primitive"/>
              </g>
              <g transform="translate(40.43,47.44)" id="img-853455bc-72">
                <path d="M-0.22,-31.45 L 0.22 -31.45 0.22 31.45 -0.22 31.45 z" class="primitive"/>
              </g>
              <g transform="translate(40.81,50.13)" id="img-853455bc-73">
                <path d="M-0.22,-28.75 L 0.22 -28.75 0.22 28.75 -0.22 28.75 z" class="primitive"/>
              </g>
              <g transform="translate(41.19,50.13)" id="img-853455bc-74">
                <path d="M-0.22,-28.75 L 0.22 -28.75 0.22 28.75 -0.22 28.75 z" class="primitive"/>
              </g>
              <g transform="translate(41.58,51.03)" id="img-853455bc-75">
                <path d="M-0.22,-27.86 L 0.22 -27.86 0.22 27.86 -0.22 27.86 z" class="primitive"/>
              </g>
              <g transform="translate(41.96,46.54)" id="img-853455bc-76">
                <path d="M-0.22,-32.35 L 0.22 -32.35 0.22 32.35 -0.22 32.35 z" class="primitive"/>
              </g>
              <g transform="translate(42.34,53.73)" id="img-853455bc-77">
                <path d="M-0.22,-25.16 L 0.22 -25.16 0.22 25.16 -0.22 25.16 z" class="primitive"/>
              </g>
              <g transform="translate(42.73,47.44)" id="img-853455bc-78">
                <path d="M-0.22,-31.45 L 0.22 -31.45 0.22 31.45 -0.22 31.45 z" class="primitive"/>
              </g>
              <g transform="translate(43.11,56.42)" id="img-853455bc-79">
                <path d="M-0.22,-22.46 L 0.22 -22.46 0.22 22.46 -0.22 22.46 z" class="primitive"/>
              </g>
              <g transform="translate(43.49,53.73)" id="img-853455bc-80">
                <path d="M-0.22,-25.16 L 0.22 -25.16 0.22 25.16 -0.22 25.16 z" class="primitive"/>
              </g>
              <g transform="translate(43.88,60.92)" id="img-853455bc-81">
                <path d="M-0.22,-17.97 L 0.22 -17.97 0.22 17.97 -0.22 17.97 z" class="primitive"/>
              </g>
              <g transform="translate(44.26,59.12)" id="img-853455bc-82">
                <path d="M-0.22,-19.77 L 0.22 -19.77 0.22 19.77 -0.22 19.77 z" class="primitive"/>
              </g>
              <g transform="translate(44.64,54.62)" id="img-853455bc-83">
                <path d="M-0.22,-24.26 L 0.22 -24.26 0.22 24.26 -0.22 24.26 z" class="primitive"/>
              </g>
              <g transform="translate(45.03,59.12)" id="img-853455bc-84">
                <path d="M-0.22,-19.77 L 0.22 -19.77 0.22 19.77 -0.22 19.77 z" class="primitive"/>
              </g>
              <g transform="translate(45.41,56.42)" id="img-853455bc-85">
                <path d="M-0.22,-22.46 L 0.22 -22.46 0.22 22.46 -0.22 22.46 z" class="primitive"/>
              </g>
              <g transform="translate(45.79,58.22)" id="img-853455bc-86">
                <path d="M-0.22,-20.67 L 0.22 -20.67 0.22 20.67 -0.22 20.67 z" class="primitive"/>
              </g>
              <g transform="translate(46.18,56.42)" id="img-853455bc-87">
                <path d="M-0.22,-22.46 L 0.22 -22.46 0.22 22.46 -0.22 22.46 z" class="primitive"/>
              </g>
              <g transform="translate(46.56,62.71)" id="img-853455bc-88">
                <path d="M-0.22,-16.17 L 0.22 -16.17 0.22 16.17 -0.22 16.17 z" class="primitive"/>
              </g>
              <g transform="translate(46.94,63.61)" id="img-853455bc-89">
                <path d="M-0.22,-15.28 L 0.22 -15.28 0.22 15.28 -0.22 15.28 z" class="primitive"/>
              </g>
              <g transform="translate(47.33,62.71)" id="img-853455bc-90">
                <path d="M-0.22,-16.17 L 0.22 -16.17 0.22 16.17 -0.22 16.17 z" class="primitive"/>
              </g>
              <g transform="translate(47.71,62.71)" id="img-853455bc-91">
                <path d="M-0.22,-16.17 L 0.22 -16.17 0.22 16.17 -0.22 16.17 z" class="primitive"/>
              </g>
              <g transform="translate(48.09,73.5)" id="img-853455bc-92">
                <path d="M-0.22,-5.39 L 0.22 -5.39 0.22 5.39 -0.22 5.39 z" class="primitive"/>
              </g>
              <g transform="translate(48.48,69)" id="img-853455bc-93">
                <path d="M-0.22,-9.88 L 0.22 -9.88 0.22 9.88 -0.22 9.88 z" class="primitive"/>
              </g>
              <g transform="translate(48.86,71.7)" id="img-853455bc-94">
                <path d="M-0.22,-7.19 L 0.22 -7.19 0.22 7.19 -0.22 7.19 z" class="primitive"/>
              </g>
              <g transform="translate(49.24,70.8)" id="img-853455bc-95">
                <path d="M-0.22,-8.09 L 0.22 -8.09 0.22 8.09 -0.22 8.09 z" class="primitive"/>
              </g>
              <g transform="translate(49.63,70.8)" id="img-853455bc-96">
                <path d="M-0.22,-8.09 L 0.22 -8.09 0.22 8.09 -0.22 8.09 z" class="primitive"/>
              </g>
              <g transform="translate(50.01,75.29)" id="img-853455bc-97">
                <path d="M-0.22,-3.59 L 0.22 -3.59 0.22 3.59 -0.22 3.59 z" class="primitive"/>
              </g>
              <g transform="translate(50.39,75.29)" id="img-853455bc-98">
                <path d="M-0.22,-3.59 L 0.22 -3.59 0.22 3.59 -0.22 3.59 z" class="primitive"/>
              </g>
              <g transform="translate(50.78,74.39)" id="img-853455bc-99">
                <path d="M-0.22,-4.49 L 0.22 -4.49 0.22 4.49 -0.22 4.49 z" class="primitive"/>
              </g>
              <g transform="translate(51.16,75.29)" id="img-853455bc-100">
                <path d="M-0.22,-3.59 L 0.22 -3.59 0.22 3.59 -0.22 3.59 z" class="primitive"/>
              </g>
              <g transform="translate(51.54,75.29)" id="img-853455bc-101">
                <path d="M-0.22,-3.59 L 0.22 -3.59 0.22 3.59 -0.22 3.59 z" class="primitive"/>
              </g>
              <g transform="translate(51.93,76.19)" id="img-853455bc-102">
                <path d="M-0.22,-2.7 L 0.22 -2.7 0.22 2.7 -0.22 2.7 z" class="primitive"/>
              </g>
              <g transform="translate(52.31,75.29)" id="img-853455bc-103">
                <path d="M-0.22,-3.59 L 0.22 -3.59 0.22 3.59 -0.22 3.59 z" class="primitive"/>
              </g>
              <g transform="translate(52.69,76.19)" id="img-853455bc-104">
                <path d="M-0.22,-2.7 L 0.22 -2.7 0.22 2.7 -0.22 2.7 z" class="primitive"/>
              </g>
              <g transform="translate(53.08,77.99)" id="img-853455bc-105">
                <path d="M-0.22,-0.9 L 0.22 -0.9 0.22 0.9 -0.22 0.9 z" class="primitive"/>
              </g>
              <g transform="translate(53.46,76.19)" id="img-853455bc-106">
                <path d="M-0.22,-2.7 L 0.22 -2.7 0.22 2.7 -0.22 2.7 z" class="primitive"/>
              </g>
              <g transform="translate(53.84,76.19)" id="img-853455bc-107">
                <path d="M-0.22,-2.7 L 0.22 -2.7 0.22 2.7 -0.22 2.7 z" class="primitive"/>
              </g>
              <g transform="translate(54.23,78.89)" id="img-853455bc-108">
                <path d="M-0.22,-0 L 0.22 -0 0.22 0 -0.22 0 z" class="primitive"/>
              </g>
              <g transform="translate(54.61,77.99)" id="img-853455bc-109">
                <path d="M-0.22,-0.9 L 0.22 -0.9 0.22 0.9 -0.22 0.9 z" class="primitive"/>
              </g>
              <g transform="translate(55,78.89)" id="img-853455bc-110">
                <path d="M-0.22,-0 L 0.22 -0 0.22 0 -0.22 0 z" class="primitive"/>
              </g>
              <g transform="translate(55.38,77.99)" id="img-853455bc-111">
                <path d="M-0.22,-0.9 L 0.22 -0.9 0.22 0.9 -0.22 0.9 z" class="primitive"/>
              </g>
              <g transform="translate(55.76,77.99)" id="img-853455bc-112">
                <path d="M-0.22,-0.9 L 0.22 -0.9 0.22 0.9 -0.22 0.9 z" class="primitive"/>
              </g>
              <g transform="translate(56.15,78.89)" id="img-853455bc-113">
                <path d="M-0.22,-0 L 0.22 -0 0.22 0 -0.22 0 z" class="primitive"/>
              </g>
              <g transform="translate(56.53,78.89)" id="img-853455bc-114">
                <path d="M-0.22,-0 L 0.22 -0 0.22 0 -0.22 0 z" class="primitive"/>
              </g>
              <g transform="translate(56.91,78.89)" id="img-853455bc-115">
                <path d="M-0.22,-0 L 0.22 -0 0.22 0 -0.22 0 z" class="primitive"/>
              </g>
              <g transform="translate(57.3,77.09)" id="img-853455bc-116">
                <path d="M-0.22,-1.8 L 0.22 -1.8 0.22 1.8 -0.22 1.8 z" class="primitive"/>
              </g>
              <g transform="translate(57.68,78.89)" id="img-853455bc-117">
                <path d="M-0.22,-0 L 0.22 -0 0.22 0 -0.22 0 z" class="primitive"/>
              </g>
              <g transform="translate(58.06,78.89)" id="img-853455bc-118">
                <path d="M-0.22,-0 L 0.22 -0 0.22 0 -0.22 0 z" class="primitive"/>
              </g>
              <g transform="translate(58.45,78.89)" id="img-853455bc-119">
                <path d="M-0.22,-0 L 0.22 -0 0.22 0 -0.22 0 z" class="primitive"/>
              </g>
              <g transform="translate(58.83,78.89)" id="img-853455bc-120">
                <path d="M-0.22,-0 L 0.22 -0 0.22 0 -0.22 0 z" class="primitive"/>
              </g>
              <g transform="translate(59.21,78.89)" id="img-853455bc-121">
                <path d="M-0.22,-0 L 0.22 -0 0.22 0 -0.22 0 z" class="primitive"/>
              </g>
              <g transform="translate(59.6,78.89)" id="img-853455bc-122">
                <path d="M-0.22,-0 L 0.22 -0 0.22 0 -0.22 0 z" class="primitive"/>
              </g>
              <g transform="translate(59.98,78.89)" id="img-853455bc-123">
                <path d="M-0.22,-0 L 0.22 -0 0.22 0 -0.22 0 z" class="primitive"/>
              </g>
              <g transform="translate(60.36,78.89)" id="img-853455bc-124">
                <path d="M-0.22,-0 L 0.22 -0 0.22 0 -0.22 0 z" class="primitive"/>
              </g>
              <g transform="translate(60.75,78.89)" id="img-853455bc-125">
                <path d="M-0.22,-0 L 0.22 -0 0.22 0 -0.22 0 z" class="primitive"/>
              </g>
              <g transform="translate(61.13,78.89)" id="img-853455bc-126">
                <path d="M-0.22,-0 L 0.22 -0 0.22 0 -0.22 0 z" class="primitive"/>
              </g>
              <g transform="translate(61.51,77.99)" id="img-853455bc-127">
                <path d="M-0.22,-0.9 L 0.22 -0.9 0.22 0.9 -0.22 0.9 z" class="primitive"/>
              </g>
              <g transform="translate(61.9,78.89)" id="img-853455bc-128">
                <path d="M-0.22,-0 L 0.22 -0 0.22 0 -0.22 0 z" class="primitive"/>
              </g>
              <g transform="translate(62.28,78.89)" id="img-853455bc-129">
                <path d="M-0.22,-0 L 0.22 -0 0.22 0 -0.22 0 z" class="primitive"/>
              </g>
              <g transform="translate(62.66,77.99)" id="img-853455bc-130">
                <path d="M-0.22,-0.9 L 0.22 -0.9 0.22 0.9 -0.22 0.9 z" class="primitive"/>
              </g>
            </g>
          </g>
        </g>
      </g>
    </g>
  </g>
  <g class="guide ylabels" font-size="2.82" font-family="'PT Sans Caption','Helvetica Neue','Helvetica',sans-serif" fill="#6C606B" id="img-853455bc-131">
    <g transform="translate(16.96,78.89)" id="img-853455bc-132">
      <g class="primitive">
        <text text-anchor="end" dy="0.35em">0</text>
      </g>
    </g>
    <g transform="translate(16.96,60.92)" id="img-853455bc-133">
      <g class="primitive">
        <text text-anchor="end" dy="0.35em">10</text>
      </g>
    </g>
    <g transform="translate(16.96,42.94)" id="img-853455bc-134">
      <g class="primitive">
        <text text-anchor="end" dy="0.35em">20</text>
      </g>
    </g>
    <g transform="translate(16.96,24.97)" id="img-853455bc-135">
      <g class="primitive">
        <text text-anchor="end" dy="0.35em">30</text>
      </g>
    </g>
    <g transform="translate(16.96,7)" id="img-853455bc-136">
      <g class="primitive">
        <text text-anchor="end" dy="0.35em">40</text>
      </g>
    </g>
  </g>
  <g font-size="3.88" font-family="'PT Sans','Helvetica Neue','Helvetica',sans-serif" fill="#564A55" stroke="#000000" stroke-opacity="0.000" id="img-853455bc-137">
    <g transform="translate(8.81,40.94)" id="img-853455bc-138">
      <g class="primitive">
        <text text-anchor="middle" dy="0.35em" transform="rotate(-90,0, 2)">frequency</text>
      </g>
    </g>
  </g>
</g>
<defs>
  <clipPath id="img-853455bc-11">
    <path d="M17.96,5 L 78.37 5 78.37 80.89 17.96 80.89" />
  </clipPath>
</defs>
</svg>
