<?xml version="1.0" encoding="UTF-8"?>
<svg xmlns="http://www.w3.org/2000/svg"
     xmlns:xlink="http://www.w3.org/1999/xlink"
     xmlns:gadfly="http://www.gadflyjl.org/ns"
     version="1.2"
     width="141.42mm" height="100mm" viewBox="0 0 141.42 100"
     stroke="none"
     fill="#000000"
     stroke-width="0.3"
     font-size="3.88"
>
<defs>
  <marker id="arrow" markerWidth="15" markerHeight="7" refX="5" refY="3.5" orient="auto" markerUnits="strokeWidth">
    <path d="M0,0 L15,3.5 L0,7 z" stroke="context-stroke" fill="context-stroke"/>
  </marker>
</defs>
<g class="plotroot xscalable yscalable" id="img-c6da3237-1">
  <g class="guide xlabels" font-size="2.82" font-family="'PT Sans Caption','Helvetica Neue','Helvetica',sans-serif" fill="#6C606B" id="img-c6da3237-2">
    <g transform="translate(19.96,91.33)">
      <g class="primitive">
        <text text-anchor="middle" dy="0.6em">0</text>
      </g>
    </g>
    <g transform="translate(30.32,91.33)">
      <g class="primitive">
        <text text-anchor="middle" dy="0.6em">500</text>
      </g>
    </g>
    <g transform="translate(40.69,91.33)">
      <g class="primitive">
        <text text-anchor="middle" dy="0.6em">1000</text>
      </g>
    </g>
    <g transform="translate(51.05,91.33)">
      <g class="primitive">
        <text text-anchor="middle" dy="0.6em">1500</text>
      </g>
    </g>
    <g transform="translate(61.42,91.33)">
      <g class="primitive">
        <text text-anchor="middle" dy="0.6em">2000</text>
      </g>
    </g>
    <g transform="translate(71.78,91.33)">
      <g class="primitive">
        <text text-anchor="middle" dy="0.6em">2500</text>
      </g>
    </g>
  </g>
  <g class="guide colorkey" id="img-c6da3237-3">
    <g class="color_noncoding_coding_noncoding_noncoding_4-path" id="img-c6da3237-4">
      <g fill="#4C404B" font-size="2.82" font-family="'PT Sans','Helvetica Neue','Helvetica',sans-serif" id="img-c6da3237-5">
        <g transform="translate(77.59,49.48)" id="img-c6da3237-6">
          <g class="primitive">
            <text dy="0.35em">noncoding_coding_noncoding_noncoding_4-path</text>
          </g>
        </g>
      </g>
      <g fill-opacity="1" fill="#00BFFF" stroke="#FFFFFF" id="img-c6da3237-7">
        <g transform="translate(75.69,49.48)" id="img-c6da3237-8">
          <path d="M-0.91,-0.91 L 0.91 -0.91 0.91 0.91 -0.91 0.91 z" class="primitive"/>
        </g>
      </g>
    </g>
    <g fill="#362A35" font-size="3.88" font-family="'PT Sans','Helvetica Neue','Helvetica',sans-serif" stroke="#000000" stroke-opacity="0.000" id="img-c6da3237-9">
      <g transform="translate(74.78,45.66)" id="img-c6da3237-10">
        <g class="primitive">
          <text dy="-0em">graphlet</text>
        </g>
      </g>
    </g>
  </g>
  <g clip-path="url(#img-c6da3237-11)">
    <g id="img-c6da3237-12">
      <g pointer-events="visible" stroke-width="0.3" fill="#000000" fill-opacity="0.000" stroke="#000000" stroke-opacity="0.000" class="guide background" id="img-c6da3237-13">
        <g transform="translate(45.87,47.66)" id="img-c6da3237-14">
          <path d="M-27.91,-42.66 L 27.91 -42.66 27.91 42.66 -27.91 42.66 z" class="primitive"/>
        </g>
      </g>
      <g class="guide ygridlines xfixed" stroke-dasharray="0.5,0.5" stroke-width="0.2" stroke="#D0D0E0" id="img-c6da3237-15">
        <g transform="translate(45.87,88.33)" id="img-c6da3237-16">
          <path fill="none" d="M-27.91,0 L 27.91 0" class="primitive"/>
        </g>
        <g transform="translate(45.87,72.06)" id="img-c6da3237-17">
          <path fill="none" d="M-27.91,0 L 27.91 0" class="primitive"/>
        </g>
        <g transform="translate(45.87,55.8)" id="img-c6da3237-18">
          <path fill="none" d="M-27.91,0 L 27.91 0" class="primitive"/>
        </g>
        <g transform="translate(45.87,39.53)" id="img-c6da3237-19">
          <path fill="none" d="M-27.91,0 L 27.91 0" class="primitive"/>
        </g>
        <g transform="translate(45.87,23.27)" id="img-c6da3237-20">
          <path fill="none" d="M-27.91,0 L 27.91 0" class="primitive"/>
        </g>
        <g transform="translate(45.87,7)" id="img-c6da3237-21">
          <path fill="none" d="M-27.91,0 L 27.91 0" class="primitive"/>
        </g>
      </g>
      <g class="guide xgridlines yfixed" stroke-dasharray="0.5,0.5" stroke-width="0.2" stroke="#D0D0E0" id="img-c6da3237-22">
        <g transform="translate(19.96,47.66)" id="img-c6da3237-23">
          <path fill="none" d="M0,-42.66 L 0 42.66" class="primitive"/>
        </g>
        <g transform="translate(30.32,47.66)" id="img-c6da3237-24">
          <path fill="none" d="M0,-42.66 L 0 42.66" class="primitive"/>
        </g>
        <g transform="translate(40.69,47.66)" id="img-c6da3237-25">
          <path fill="none" d="M0,-42.66 L 0 42.66" class="primitive"/>
        </g>
        <g transform="translate(51.05,47.66)" id="img-c6da3237-26">
          <path fill="none" d="M0,-42.66 L 0 42.66" class="primitive"/>
        </g>
        <g transform="translate(61.42,47.66)" id="img-c6da3237-27">
          <path fill="none" d="M0,-42.66 L 0 42.66" class="primitive"/>
        </g>
        <g transform="translate(71.78,47.66)" id="img-c6da3237-28">
          <path fill="none" d="M0,-42.66 L 0 42.66" class="primitive"/>
        </g>
      </g>
      <g class="plotpanel" id="img-c6da3237-29">
        <metadata>
          <boundingbox value="17.95833333333333mm 5.0mm 55.82302290397617mm 85.32666666666667mm"/>
          <unitbox value="-96.48221427114724 51.22960898434298 2692.964428542294 -52.459217968685955"/>
        </metadata>
        <g shape-rendering="crispEdges" stroke-width="0.3" id="img-c6da3237-30">
          <g stroke="#000000" stroke-opacity="0.000" class="geometry" id="img-c6da3237-31">
            <g fill="#00BFFF" id="img-c6da3237-32">
              <g transform="translate(20.84,86.7)" id="img-c6da3237-33">
                <path d="M-0.25,-1.63 L 0.25 -1.63 0.25 1.63 -0.25 1.63 z" class="primitive"/>
              </g>
              <g transform="translate(21.29,86.7)" id="img-c6da3237-34">
                <path d="M-0.25,-1.63 L 0.25 -1.63 0.25 1.63 -0.25 1.63 z" class="primitive"/>
              </g>
              <g transform="translate(21.74,85.89)" id="img-c6da3237-35">
                <path d="M-0.25,-2.44 L 0.25 -2.44 0.25 2.44 -0.25 2.44 z" class="primitive"/>
              </g>
              <g transform="translate(22.18,87.51)" id="img-c6da3237-36">
                <path d="M-0.25,-0.81 L 0.25 -0.81 0.25 0.81 -0.25 0.81 z" class="primitive"/>
              </g>
              <g transform="translate(22.63,83.45)" id="img-c6da3237-37">
                <path d="M-0.25,-4.88 L 0.25 -4.88 0.25 4.88 -0.25 4.88 z" class="primitive"/>
              </g>
              <g transform="translate(23.07,81.82)" id="img-c6da3237-38">
                <path d="M-0.25,-6.51 L 0.25 -6.51 0.25 6.51 -0.25 6.51 z" class="primitive"/>
              </g>
              <g transform="translate(23.52,81.82)" id="img-c6da3237-39">
                <path d="M-0.25,-6.51 L 0.25 -6.51 0.25 6.51 -0.25 6.51 z" class="primitive"/>
              </g>
              <g transform="translate(23.97,78.57)" id="img-c6da3237-40">
                <path d="M-0.25,-9.76 L 0.25 -9.76 0.25 9.76 -0.25 9.76 z" class="primitive"/>
              </g>
              <g transform="translate(24.41,75.31)" id="img-c6da3237-41">
                <path d="M-0.25,-13.01 L 0.25 -13.01 0.25 13.01 -0.25 13.01 z" class="primitive"/>
              </g>
              <g transform="translate(24.86,67.18)" id="img-c6da3237-42">
                <path d="M-0.25,-21.14 L 0.25 -21.14 0.25 21.14 -0.25 21.14 z" class="primitive"/>
              </g>
              <g transform="translate(25.3,72.06)" id="img-c6da3237-43">
                <path d="M-0.25,-16.27 L 0.25 -16.27 0.25 16.27 -0.25 16.27 z" class="primitive"/>
              </g>
              <g transform="translate(25.75,71.25)" id="img-c6da3237-44">
                <path d="M-0.25,-17.08 L 0.25 -17.08 0.25 17.08 -0.25 17.08 z" class="primitive"/>
              </g>
              <g transform="translate(26.2,68)" id="img-c6da3237-45">
                <path d="M-0.25,-20.33 L 0.25 -20.33 0.25 20.33 -0.25 20.33 z" class="primitive"/>
              </g>
              <g transform="translate(26.64,63.93)" id="img-c6da3237-46">
                <path d="M-0.25,-24.4 L 0.25 -24.4 0.25 24.4 -0.25 24.4 z" class="primitive"/>
              </g>
              <g transform="translate(27.09,60.68)" id="img-c6da3237-47">
                <path d="M-0.25,-27.65 L 0.25 -27.65 0.25 27.65 -0.25 27.65 z" class="primitive"/>
              </g>
              <g transform="translate(27.53,59.86)" id="img-c6da3237-48">
                <path d="M-0.25,-28.46 L 0.25 -28.46 0.25 28.46 -0.25 28.46 z" class="primitive"/>
              </g>
              <g transform="translate(27.98,63.12)" id="img-c6da3237-49">
                <path d="M-0.25,-25.21 L 0.25 -25.21 0.25 25.21 -0.25 25.21 z" class="primitive"/>
              </g>
              <g transform="translate(28.42,67.18)" id="img-c6da3237-50">
                <path d="M-0.25,-21.14 L 0.25 -21.14 0.25 21.14 -0.25 21.14 z" class="primitive"/>
              </g>
              <g transform="translate(28.87,54.98)" id="img-c6da3237-51">
                <path d="M-0.25,-33.34 L 0.25 -33.34 0.25 33.34 -0.25 33.34 z" class="primitive"/>
              </g>
              <g transform="translate(29.32,58.24)" id="img-c6da3237-52">
                <path d="M-0.25,-30.09 L 0.25 -30.09 0.25 30.09 -0.25 30.09 z" class="primitive"/>
              </g>
              <g transform="translate(29.76,59.86)" id="img-c6da3237-53">
                <path d="M-0.25,-28.46 L 0.25 -28.46 0.25 28.46 -0.25 28.46 z" class="primitive"/>
              </g>
              <g transform="translate(30.21,59.05)" id="img-c6da3237-54">
                <path d="M-0.25,-29.28 L 0.25 -29.28 0.25 29.28 -0.25 29.28 z" class="primitive"/>
              </g>
              <g transform="translate(30.65,68)" id="img-c6da3237-55">
                <path d="M-0.25,-20.33 L 0.25 -20.33 0.25 20.33 -0.25 20.33 z" class="primitive"/>
              </g>
              <g transform="translate(31.1,55.8)" id="img-c6da3237-56">
                <path d="M-0.25,-32.53 L 0.25 -32.53 0.25 32.53 -0.25 32.53 z" class="primitive"/>
              </g>
              <g transform="translate(31.55,68.81)" id="img-c6da3237-57">
                <path d="M-0.25,-19.52 L 0.25 -19.52 0.25 19.52 -0.25 19.52 z" class="primitive"/>
              </g>
              <g transform="translate(31.99,63.12)" id="img-c6da3237-58">
                <path d="M-0.25,-25.21 L 0.25 -25.21 0.25 25.21 -0.25 25.21 z" class="primitive"/>
              </g>
              <g transform="translate(32.44,60.68)" id="img-c6da3237-59">
                <path d="M-0.25,-27.65 L 0.25 -27.65 0.25 27.65 -0.25 27.65 z" class="primitive"/>
              </g>
              <g transform="translate(32.88,67.18)" id="img-c6da3237-60">
                <path d="M-0.25,-21.14 L 0.25 -21.14 0.25 21.14 -0.25 21.14 z" class="primitive"/>
              </g>
              <g transform="translate(33.33,66.37)" id="img-c6da3237-61">
                <path d="M-0.25,-21.96 L 0.25 -21.96 0.25 21.96 -0.25 21.96 z" class="primitive"/>
              </g>
              <g transform="translate(33.78,69.62)" id="img-c6da3237-62">
                <path d="M-0.25,-18.71 L 0.25 -18.71 0.25 18.71 -0.25 18.71 z" class="primitive"/>
              </g>
              <g transform="translate(34.22,69.62)" id="img-c6da3237-63">
                <path d="M-0.25,-18.71 L 0.25 -18.71 0.25 18.71 -0.25 18.71 z" class="primitive"/>
              </g>
              <g transform="translate(34.67,74.5)" id="img-c6da3237-64">
                <path d="M-0.25,-13.83 L 0.25 -13.83 0.25 13.83 -0.25 13.83 z" class="primitive"/>
              </g>
              <g transform="translate(35.11,68)" id="img-c6da3237-65">
                <path d="M-0.25,-20.33 L 0.25 -20.33 0.25 20.33 -0.25 20.33 z" class="primitive"/>
              </g>
              <g transform="translate(35.56,75.31)" id="img-c6da3237-66">
                <path d="M-0.25,-13.01 L 0.25 -13.01 0.25 13.01 -0.25 13.01 z" class="primitive"/>
              </g>
              <g transform="translate(36,75.31)" id="img-c6da3237-67">
                <path d="M-0.25,-13.01 L 0.25 -13.01 0.25 13.01 -0.25 13.01 z" class="primitive"/>
              </g>
              <g transform="translate(36.45,76.94)" id="img-c6da3237-68">
                <path d="M-0.25,-11.39 L 0.25 -11.39 0.25 11.39 -0.25 11.39 z" class="primitive"/>
              </g>
              <g transform="translate(36.9,78.57)" id="img-c6da3237-69">
                <path d="M-0.25,-9.76 L 0.25 -9.76 0.25 9.76 -0.25 9.76 z" class="primitive"/>
              </g>
              <g transform="translate(37.34,78.57)" id="img-c6da3237-70">
                <path d="M-0.25,-9.76 L 0.25 -9.76 0.25 9.76 -0.25 9.76 z" class="primitive"/>
              </g>
              <g transform="translate(37.79,77.75)" id="img-c6da3237-71">
                <path d="M-0.25,-10.57 L 0.25 -10.57 0.25 10.57 -0.25 10.57 z" class="primitive"/>
              </g>
              <g transform="translate(38.23,77.75)" id="img-c6da3237-72">
                <path d="M-0.25,-10.57 L 0.25 -10.57 0.25 10.57 -0.25 10.57 z" class="primitive"/>
              </g>
              <g transform="translate(38.68,76.94)" id="img-c6da3237-73">
                <path d="M-0.25,-11.39 L 0.25 -11.39 0.25 11.39 -0.25 11.39 z" class="primitive"/>
              </g>
              <g transform="translate(39.13,81.01)" id="img-c6da3237-74">
                <path d="M-0.25,-7.32 L 0.25 -7.32 0.25 7.32 -0.25 7.32 z" class="primitive"/>
              </g>
              <g transform="translate(39.57,77.75)" id="img-c6da3237-75">
                <path d="M-0.25,-10.57 L 0.25 -10.57 0.25 10.57 -0.25 10.57 z" class="primitive"/>
              </g>
              <g transform="translate(40.02,75.31)" id="img-c6da3237-76">
                <path d="M-0.25,-13.01 L 0.25 -13.01 0.25 13.01 -0.25 13.01 z" class="primitive"/>
              </g>
              <g transform="translate(40.46,84.26)" id="img-c6da3237-77">
                <path d="M-0.25,-4.07 L 0.25 -4.07 0.25 4.07 -0.25 4.07 z" class="primitive"/>
              </g>
              <g transform="translate(40.91,85.07)" id="img-c6da3237-78">
                <path d="M-0.25,-3.25 L 0.25 -3.25 0.25 3.25 -0.25 3.25 z" class="primitive"/>
              </g>
              <g transform="translate(41.36,81.01)" id="img-c6da3237-79">
                <path d="M-0.25,-7.32 L 0.25 -7.32 0.25 7.32 -0.25 7.32 z" class="primitive"/>
              </g>
              <g transform="translate(41.8,82.63)" id="img-c6da3237-80">
                <path d="M-0.25,-5.69 L 0.25 -5.69 0.25 5.69 -0.25 5.69 z" class="primitive"/>
              </g>
              <g transform="translate(42.25,82.63)" id="img-c6da3237-81">
                <path d="M-0.25,-5.69 L 0.25 -5.69 0.25 5.69 -0.25 5.69 z" class="primitive"/>
              </g>
              <g transform="translate(42.69,79.38)" id="img-c6da3237-82">
                <path d="M-0.25,-8.95 L 0.25 -8.95 0.25 8.95 -0.25 8.95 z" class="primitive"/>
              </g>
              <g transform="translate(43.14,83.45)" id="img-c6da3237-83">
                <path d="M-0.25,-4.88 L 0.25 -4.88 0.25 4.88 -0.25 4.88 z" class="primitive"/>
              </g>
              <g transform="translate(43.58,81.82)" id="img-c6da3237-84">
                <path d="M-0.25,-6.51 L 0.25 -6.51 0.25 6.51 -0.25 6.51 z" class="primitive"/>
              </g>
              <g transform="translate(44.03,85.07)" id="img-c6da3237-85">
                <path d="M-0.25,-3.25 L 0.25 -3.25 0.25 3.25 -0.25 3.25 z" class="primitive"/>
              </g>
              <g transform="translate(44.48,83.45)" id="img-c6da3237-86">
                <path d="M-0.25,-4.88 L 0.25 -4.88 0.25 4.88 -0.25 4.88 z" class="primitive"/>
              </g>
              <g transform="translate(44.92,86.7)" id="img-c6da3237-87">
                <path d="M-0.25,-1.63 L 0.25 -1.63 0.25 1.63 -0.25 1.63 z" class="primitive"/>
              </g>
              <g transform="translate(45.37,85.89)" id="img-c6da3237-88">
                <path d="M-0.25,-2.44 L 0.25 -2.44 0.25 2.44 -0.25 2.44 z" class="primitive"/>
              </g>
              <g transform="translate(45.81,87.51)" id="img-c6da3237-89">
                <path d="M-0.25,-0.81 L 0.25 -0.81 0.25 0.81 -0.25 0.81 z" class="primitive"/>
              </g>
              <g transform="translate(46.26,85.07)" id="img-c6da3237-90">
                <path d="M-0.25,-3.25 L 0.25 -3.25 0.25 3.25 -0.25 3.25 z" class="primitive"/>
              </g>
              <g transform="translate(46.71,85.07)" id="img-c6da3237-91">
                <path d="M-0.25,-3.25 L 0.25 -3.25 0.25 3.25 -0.25 3.25 z" class="primitive"/>
              </g>
              <g transform="translate(47.15,87.51)" id="img-c6da3237-92">
                <path d="M-0.25,-0.81 L 0.25 -0.81 0.25 0.81 -0.25 0.81 z" class="primitive"/>
              </g>
              <g transform="translate(47.6,84.26)" id="img-c6da3237-93">
                <path d="M-0.25,-4.07 L 0.25 -4.07 0.25 4.07 -0.25 4.07 z" class="primitive"/>
              </g>
              <g transform="translate(48.04,87.51)" id="img-c6da3237-94">
                <path d="M-0.25,-0.81 L 0.25 -0.81 0.25 0.81 -0.25 0.81 z" class="primitive"/>
              </g>
              <g transform="translate(48.49,87.51)" id="img-c6da3237-95">
                <path d="M-0.25,-0.81 L 0.25 -0.81 0.25 0.81 -0.25 0.81 z" class="primitive"/>
              </g>
              <g transform="translate(48.94,88.33)" id="img-c6da3237-96">
                <path d="M-0.25,-0 L 0.25 -0 0.25 0 -0.25 0 z" class="primitive"/>
              </g>
              <g transform="translate(49.38,86.7)" id="img-c6da3237-97">
                <path d="M-0.25,-1.63 L 0.25 -1.63 0.25 1.63 -0.25 1.63 z" class="primitive"/>
              </g>
              <g transform="translate(49.83,88.33)" id="img-c6da3237-98">
                <path d="M-0.25,-0 L 0.25 -0 0.25 0 -0.25 0 z" class="primitive"/>
              </g>
              <g transform="translate(50.27,88.33)" id="img-c6da3237-99">
                <path d="M-0.25,-0 L 0.25 -0 0.25 0 -0.25 0 z" class="primitive"/>
              </g>
              <g transform="translate(50.72,87.51)" id="img-c6da3237-100">
                <path d="M-0.25,-0.81 L 0.25 -0.81 0.25 0.81 -0.25 0.81 z" class="primitive"/>
              </g>
              <g transform="translate(51.16,85.89)" id="img-c6da3237-101">
                <path d="M-0.25,-2.44 L 0.25 -2.44 0.25 2.44 -0.25 2.44 z" class="primitive"/>
              </g>
              <g transform="translate(51.61,87.51)" id="img-c6da3237-102">
                <path d="M-0.25,-0.81 L 0.25 -0.81 0.25 0.81 -0.25 0.81 z" class="primitive"/>
              </g>
              <g transform="translate(52.06,88.33)" id="img-c6da3237-103">
                <path d="M-0.25,-0 L 0.25 -0 0.25 0 -0.25 0 z" class="primitive"/>
              </g>
              <g transform="translate(52.5,86.7)" id="img-c6da3237-104">
                <path d="M-0.25,-1.63 L 0.25 -1.63 0.25 1.63 -0.25 1.63 z" class="primitive"/>
              </g>
              <g transform="translate(52.95,86.7)" id="img-c6da3237-105">
                <path d="M-0.25,-1.63 L 0.25 -1.63 0.25 1.63 -0.25 1.63 z" class="primitive"/>
              </g>
              <g transform="translate(53.39,88.33)" id="img-c6da3237-106">
                <path d="M-0.25,-0 L 0.25 -0 0.25 0 -0.25 0 z" class="primitive"/>
              </g>
              <g transform="translate(53.84,88.33)" id="img-c6da3237-107">
                <path d="M-0.25,-0 L 0.25 -0 0.25 0 -0.25 0 z" class="primitive"/>
              </g>
              <g transform="translate(54.29,88.33)" id="img-c6da3237-108">
                <path d="M-0.25,-0 L 0.25 -0 0.25 0 -0.25 0 z" class="primitive"/>
              </g>
              <g transform="translate(54.73,88.33)" id="img-c6da3237-109">
                <path d="M-0.25,-0 L 0.25 -0 0.25 0 -0.25 0 z" class="primitive"/>
              </g>
              <g transform="translate(55.18,88.33)" id="img-c6da3237-110">
                <path d="M-0.25,-0 L 0.25 -0 0.25 0 -0.25 0 z" class="primitive"/>
              </g>
              <g transform="translate(55.62,88.33)" id="img-c6da3237-111">
                <path d="M-0.25,-0 L 0.25 -0 0.25 0 -0.25 0 z" class="primitive"/>
              </g>
              <g transform="translate(56.07,88.33)" id="img-c6da3237-112">
                <path d="M-0.25,-0 L 0.25 -0 0.25 0 -0.25 0 z" class="primitive"/>
              </g>
              <g transform="translate(56.52,87.51)" id="img-c6da3237-113">
                <path d="M-0.25,-0.81 L 0.25 -0.81 0.25 0.81 -0.25 0.81 z" class="primitive"/>
              </g>
              <g transform="translate(56.96,88.33)" id="img-c6da3237-114">
                <path d="M-0.25,-0 L 0.25 -0 0.25 0 -0.25 0 z" class="primitive"/>
              </g>
              <g transform="translate(57.41,88.33)" id="img-c6da3237-115">
                <path d="M-0.25,-0 L 0.25 -0 0.25 0 -0.25 0 z" class="primitive"/>
              </g>
              <g transform="translate(57.85,88.33)" id="img-c6da3237-116">
                <path d="M-0.25,-0 L 0.25 -0 0.25 0 -0.25 0 z" class="primitive"/>
              </g>
              <g transform="translate(58.3,88.33)" id="img-c6da3237-117">
                <path d="M-0.25,-0 L 0.25 -0 0.25 0 -0.25 0 z" class="primitive"/>
              </g>
              <g transform="translate(58.74,88.33)" id="img-c6da3237-118">
                <path d="M-0.25,-0 L 0.25 -0 0.25 0 -0.25 0 z" class="primitive"/>
              </g>
              <g transform="translate(59.19,88.33)" id="img-c6da3237-119">
                <path d="M-0.25,-0 L 0.25 -0 0.25 0 -0.25 0 z" class="primitive"/>
              </g>
              <g transform="translate(59.64,88.33)" id="img-c6da3237-120">
                <path d="M-0.25,-0 L 0.25 -0 0.25 0 -0.25 0 z" class="primitive"/>
              </g>
              <g transform="translate(60.08,88.33)" id="img-c6da3237-121">
                <path d="M-0.25,-0 L 0.25 -0 0.25 0 -0.25 0 z" class="primitive"/>
              </g>
              <g transform="translate(60.53,88.33)" id="img-c6da3237-122">
                <path d="M-0.25,-0 L 0.25 -0 0.25 0 -0.25 0 z" class="primitive"/>
              </g>
              <g transform="translate(60.97,88.33)" id="img-c6da3237-123">
                <path d="M-0.25,-0 L 0.25 -0 0.25 0 -0.25 0 z" class="primitive"/>
              </g>
              <g transform="translate(61.42,88.33)" id="img-c6da3237-124">
                <path d="M-0.25,-0 L 0.25 -0 0.25 0 -0.25 0 z" class="primitive"/>
              </g>
              <g transform="translate(61.87,88.33)" id="img-c6da3237-125">
                <path d="M-0.25,-0 L 0.25 -0 0.25 0 -0.25 0 z" class="primitive"/>
              </g>
              <g transform="translate(62.31,88.33)" id="img-c6da3237-126">
                <path d="M-0.25,-0 L 0.25 -0 0.25 0 -0.25 0 z" class="primitive"/>
              </g>
              <g transform="translate(62.76,88.33)" id="img-c6da3237-127">
                <path d="M-0.25,-0 L 0.25 -0 0.25 0 -0.25 0 z" class="primitive"/>
              </g>
              <g transform="translate(63.2,88.33)" id="img-c6da3237-128">
                <path d="M-0.25,-0 L 0.25 -0 0.25 0 -0.25 0 z" class="primitive"/>
              </g>
              <g transform="translate(63.65,88.33)" id="img-c6da3237-129">
                <path d="M-0.25,-0 L 0.25 -0 0.25 0 -0.25 0 z" class="primitive"/>
              </g>
              <g transform="translate(64.1,88.33)" id="img-c6da3237-130">
                <path d="M-0.25,-0 L 0.25 -0 0.25 0 -0.25 0 z" class="primitive"/>
              </g>
              <g transform="translate(64.54,88.33)" id="img-c6da3237-131">
                <path d="M-0.25,-0 L 0.25 -0 0.25 0 -0.25 0 z" class="primitive"/>
              </g>
              <g transform="translate(64.99,87.51)" id="img-c6da3237-132">
                <path d="M-0.25,-0.81 L 0.25 -0.81 0.25 0.81 -0.25 0.81 z" class="primitive"/>
              </g>
            </g>
          </g>
        </g>
      </g>
    </g>
  </g>
  <g class="guide ylabels" font-size="2.82" font-family="'PT Sans Caption','Helvetica Neue','Helvetica',sans-serif" fill="#6C606B" id="img-c6da3237-133">
    <g transform="translate(16.96,88.33)" id="img-c6da3237-134">
      <g class="primitive">
        <text text-anchor="end" dy="0.35em">0</text>
      </g>
    </g>
    <g transform="translate(16.96,72.06)" id="img-c6da3237-135">
      <g class="primitive">
        <text text-anchor="end" dy="0.35em">10</text>
      </g>
    </g>
    <g transform="translate(16.96,55.8)" id="img-c6da3237-136">
      <g class="primitive">
        <text text-anchor="end" dy="0.35em">20</text>
      </g>
    </g>
    <g transform="translate(16.96,39.53)" id="img-c6da3237-137">
      <g class="primitive">
        <text text-anchor="end" dy="0.35em">30</text>
      </g>
    </g>
    <g transform="translate(16.96,23.27)" id="img-c6da3237-138">
      <g class="primitive">
        <text text-anchor="end" dy="0.35em">40</text>
      </g>
    </g>
    <g transform="translate(16.96,7)" id="img-c6da3237-139">
      <g class="primitive">
        <text text-anchor="end" dy="0.35em">50</text>
      </g>
    </g>
  </g>
  <g font-size="3.88" font-family="'PT Sans','Helvetica Neue','Helvetica',sans-serif" fill="#564A55" stroke="#000000" stroke-opacity="0.000" id="img-c6da3237-140">
    <g transform="translate(8.81,45.66)" id="img-c6da3237-141">
      <g class="primitive">
        <text text-anchor="middle" dy="0.35em" transform="rotate(-90,0, 2)">frequency</text>
      </g>
    </g>
  </g>
</g>
<defs>
  <clipPath id="img-c6da3237-11">
    <path d="M17.96,5 L 73.78 5 73.78 90.33 17.96 90.33" />
  </clipPath>
</defs>
</svg>
