<?xml version="1.0" encoding="UTF-8"?>
<svg xmlns="http://www.w3.org/2000/svg"
     xmlns:xlink="http://www.w3.org/1999/xlink"
     xmlns:gadfly="http://www.gadflyjl.org/ns"
     version="1.2"
     width="141.42mm" height="100mm" viewBox="0 0 141.42 100"
     stroke="none"
     fill="#000000"
     stroke-width="0.3"
     font-size="3.88"
>
<defs>
  <marker id="arrow" markerWidth="15" markerHeight="7" refX="5" refY="3.5" orient="auto" markerUnits="strokeWidth">
    <path d="M0,0 L15,3.5 L0,7 z" stroke="context-stroke" fill="context-stroke"/>
  </marker>
</defs>
<g class="plotroot xscalable yscalable" id="img-2811d9ef-1">
  <g class="guide xlabels" font-size="2.82" font-family="'PT Sans Caption','Helvetica Neue','Helvetica',sans-serif" fill="#6C606B" id="img-2811d9ef-2">
    <g transform="translate(19.96,91.33)">
      <g class="primitive">
        <text text-anchor="middle" dy="0.6em">9.5</text>
      </g>
    </g>
    <g transform="translate(38.3,91.33)">
      <g class="primitive">
        <text text-anchor="middle" dy="0.6em">10.0</text>
      </g>
    </g>
    <g transform="translate(56.65,91.33)">
      <g class="primitive">
        <text text-anchor="middle" dy="0.6em">10.5</text>
      </g>
    </g>
    <g transform="translate(74.99,91.33)">
      <g class="primitive">
        <text text-anchor="middle" dy="0.6em">11.0</text>
      </g>
    </g>
  </g>
  <g class="guide colorkey" id="img-2811d9ef-3">
    <g class="color_noncoding_coding_coding_noncoding_4-chord" id="img-2811d9ef-4">
      <g fill="#4C404B" font-size="2.82" font-family="'PT Sans','Helvetica Neue','Helvetica',sans-serif" id="img-2811d9ef-5">
        <g transform="translate(80.81,49.48)" id="img-2811d9ef-6">
          <g class="primitive">
            <text dy="0.35em">noncoding_coding_coding_noncoding_4-chord</text>
          </g>
        </g>
      </g>
      <g fill-opacity="1" fill="#00BFFF" stroke="#FFFFFF" id="img-2811d9ef-7">
        <g transform="translate(78.9,49.48)" id="img-2811d9ef-8">
          <path d="M-0.91,-0.91 L 0.91 -0.91 0.91 0.91 -0.91 0.91 z" class="primitive"/>
        </g>
      </g>
    </g>
    <g fill="#362A35" font-size="3.88" font-family="'PT Sans','Helvetica Neue','Helvetica',sans-serif" stroke="#000000" stroke-opacity="0.000" id="img-2811d9ef-9">
      <g transform="translate(77.99,45.66)" id="img-2811d9ef-10">
        <g class="primitive">
          <text dy="-0em">graphlet</text>
        </g>
      </g>
    </g>
  </g>
  <g clip-path="url(#img-2811d9ef-11)">
    <g id="img-2811d9ef-12">
      <g pointer-events="visible" stroke-width="0.3" fill="#000000" fill-opacity="0.000" stroke="#000000" stroke-opacity="0.000" class="guide background" id="img-2811d9ef-13">
        <g transform="translate(47.48,47.66)" id="img-2811d9ef-14">
          <path d="M-29.52,-42.66 L 29.52 -42.66 29.52 42.66 -29.52 42.66 z" class="primitive"/>
        </g>
      </g>
      <g class="guide ygridlines xfixed" stroke-dasharray="0.5,0.5" stroke-width="0.2" stroke="#D0D0E0" id="img-2811d9ef-15">
        <g transform="translate(47.48,88.33)" id="img-2811d9ef-16">
          <path fill="none" d="M-29.52,0 L 29.52 0" class="primitive"/>
        </g>
        <g transform="translate(47.48,72.06)" id="img-2811d9ef-17">
          <path fill="none" d="M-29.52,0 L 29.52 0" class="primitive"/>
        </g>
        <g transform="translate(47.48,55.8)" id="img-2811d9ef-18">
          <path fill="none" d="M-29.52,0 L 29.52 0" class="primitive"/>
        </g>
        <g transform="translate(47.48,39.53)" id="img-2811d9ef-19">
          <path fill="none" d="M-29.52,0 L 29.52 0" class="primitive"/>
        </g>
        <g transform="translate(47.48,23.27)" id="img-2811d9ef-20">
          <path fill="none" d="M-29.52,0 L 29.52 0" class="primitive"/>
        </g>
        <g transform="translate(47.48,7)" id="img-2811d9ef-21">
          <path fill="none" d="M-29.52,0 L 29.52 0" class="primitive"/>
        </g>
      </g>
      <g class="guide xgridlines yfixed" stroke-dasharray="0.5,0.5" stroke-width="0.2" stroke="#D0D0E0" id="img-2811d9ef-22">
        <g transform="translate(19.96,47.66)" id="img-2811d9ef-23">
          <path fill="none" d="M0,-42.66 L 0 42.66" class="primitive"/>
        </g>
        <g transform="translate(38.3,47.66)" id="img-2811d9ef-24">
          <path fill="none" d="M0,-42.66 L 0 42.66" class="primitive"/>
        </g>
        <g transform="translate(56.65,47.66)" id="img-2811d9ef-25">
          <path fill="none" d="M0,-42.66 L 0 42.66" class="primitive"/>
        </g>
        <g transform="translate(74.99,47.66)" id="img-2811d9ef-26">
          <path fill="none" d="M0,-42.66 L 0 42.66" class="primitive"/>
        </g>
      </g>
      <g class="plotpanel" id="img-2811d9ef-27">
        <metadata>
          <boundingbox value="17.958333333333336mm 5.0mm 59.0363562373095mm 85.32666666666667mm"/>
          <unitbox value="9.445490577409151 51.22960898434298 1.6090188451816974 -52.459217968685955"/>
        </metadata>
        <g shape-rendering="crispEdges" stroke-width="0.3" id="img-2811d9ef-28">
          <g stroke="#000000" stroke-opacity="0.000" class="geometry" id="img-2811d9ef-29">
            <g fill="#00BFFF" id="img-2811d9ef-30">
              <g transform="translate(31.58,87.51)" id="img-2811d9ef-31">
                <path d="M-0.21,-0.81 L 0.21 -0.81 0.21 0.81 -0.21 0.81 z" class="primitive"/>
              </g>
              <g transform="translate(31.95,87.51)" id="img-2811d9ef-32">
                <path d="M-0.21,-0.81 L 0.21 -0.81 0.21 0.81 -0.21 0.81 z" class="primitive"/>
              </g>
              <g transform="translate(32.33,88.33)" id="img-2811d9ef-33">
                <path d="M-0.21,-0 L 0.21 -0 0.21 0 -0.21 0 z" class="primitive"/>
              </g>
              <g transform="translate(32.7,88.33)" id="img-2811d9ef-34">
                <path d="M-0.21,-0 L 0.21 -0 0.21 0 -0.21 0 z" class="primitive"/>
              </g>
              <g transform="translate(33.07,88.33)" id="img-2811d9ef-35">
                <path d="M-0.21,-0 L 0.21 -0 0.21 0 -0.21 0 z" class="primitive"/>
              </g>
              <g transform="translate(33.44,88.33)" id="img-2811d9ef-36">
                <path d="M-0.21,-0 L 0.21 -0 0.21 0 -0.21 0 z" class="primitive"/>
              </g>
              <g transform="translate(33.82,85.89)" id="img-2811d9ef-37">
                <path d="M-0.21,-2.44 L 0.21 -2.44 0.21 2.44 -0.21 2.44 z" class="primitive"/>
              </g>
              <g transform="translate(34.19,88.33)" id="img-2811d9ef-38">
                <path d="M-0.21,-0 L 0.21 -0 0.21 0 -0.21 0 z" class="primitive"/>
              </g>
              <g transform="translate(34.56,88.33)" id="img-2811d9ef-39">
                <path d="M-0.21,-0 L 0.21 -0 0.21 0 -0.21 0 z" class="primitive"/>
              </g>
              <g transform="translate(34.94,86.7)" id="img-2811d9ef-40">
                <path d="M-0.21,-1.63 L 0.21 -1.63 0.21 1.63 -0.21 1.63 z" class="primitive"/>
              </g>
              <g transform="translate(35.31,88.33)" id="img-2811d9ef-41">
                <path d="M-0.21,-0 L 0.21 -0 0.21 0 -0.21 0 z" class="primitive"/>
              </g>
              <g transform="translate(35.68,87.51)" id="img-2811d9ef-42">
                <path d="M-0.21,-0.81 L 0.21 -0.81 0.21 0.81 -0.21 0.81 z" class="primitive"/>
              </g>
              <g transform="translate(36.05,84.26)" id="img-2811d9ef-43">
                <path d="M-0.21,-4.07 L 0.21 -4.07 0.21 4.07 -0.21 4.07 z" class="primitive"/>
              </g>
              <g transform="translate(36.43,85.07)" id="img-2811d9ef-44">
                <path d="M-0.21,-3.25 L 0.21 -3.25 0.21 3.25 -0.21 3.25 z" class="primitive"/>
              </g>
              <g transform="translate(36.8,81.01)" id="img-2811d9ef-45">
                <path d="M-0.21,-7.32 L 0.21 -7.32 0.21 7.32 -0.21 7.32 z" class="primitive"/>
              </g>
              <g transform="translate(37.17,86.7)" id="img-2811d9ef-46">
                <path d="M-0.21,-1.63 L 0.21 -1.63 0.21 1.63 -0.21 1.63 z" class="primitive"/>
              </g>
              <g transform="translate(37.54,84.26)" id="img-2811d9ef-47">
                <path d="M-0.21,-4.07 L 0.21 -4.07 0.21 4.07 -0.21 4.07 z" class="primitive"/>
              </g>
              <g transform="translate(37.92,83.45)" id="img-2811d9ef-48">
                <path d="M-0.21,-4.88 L 0.21 -4.88 0.21 4.88 -0.21 4.88 z" class="primitive"/>
              </g>
              <g transform="translate(38.29,84.26)" id="img-2811d9ef-49">
                <path d="M-0.21,-4.07 L 0.21 -4.07 0.21 4.07 -0.21 4.07 z" class="primitive"/>
              </g>
              <g transform="translate(38.66,78.57)" id="img-2811d9ef-50">
                <path d="M-0.21,-9.76 L 0.21 -9.76 0.21 9.76 -0.21 9.76 z" class="primitive"/>
              </g>
              <g transform="translate(39.04,81.01)" id="img-2811d9ef-51">
                <path d="M-0.21,-7.32 L 0.21 -7.32 0.21 7.32 -0.21 7.32 z" class="primitive"/>
              </g>
              <g transform="translate(39.41,78.57)" id="img-2811d9ef-52">
                <path d="M-0.21,-9.76 L 0.21 -9.76 0.21 9.76 -0.21 9.76 z" class="primitive"/>
              </g>
              <g transform="translate(39.78,75.31)" id="img-2811d9ef-53">
                <path d="M-0.21,-13.01 L 0.21 -13.01 0.21 13.01 -0.21 13.01 z" class="primitive"/>
              </g>
              <g transform="translate(40.15,75.31)" id="img-2811d9ef-54">
                <path d="M-0.21,-13.01 L 0.21 -13.01 0.21 13.01 -0.21 13.01 z" class="primitive"/>
              </g>
              <g transform="translate(40.53,76.94)" id="img-2811d9ef-55">
                <path d="M-0.21,-11.39 L 0.21 -11.39 0.21 11.39 -0.21 11.39 z" class="primitive"/>
              </g>
              <g transform="translate(40.9,80.19)" id="img-2811d9ef-56">
                <path d="M-0.21,-8.13 L 0.21 -8.13 0.21 8.13 -0.21 8.13 z" class="primitive"/>
              </g>
              <g transform="translate(41.27,78.57)" id="img-2811d9ef-57">
                <path d="M-0.21,-9.76 L 0.21 -9.76 0.21 9.76 -0.21 9.76 z" class="primitive"/>
              </g>
              <g transform="translate(41.64,75.31)" id="img-2811d9ef-58">
                <path d="M-0.21,-13.01 L 0.21 -13.01 0.21 13.01 -0.21 13.01 z" class="primitive"/>
              </g>
              <g transform="translate(42.02,78.57)" id="img-2811d9ef-59">
                <path d="M-0.21,-9.76 L 0.21 -9.76 0.21 9.76 -0.21 9.76 z" class="primitive"/>
              </g>
              <g transform="translate(42.39,77.75)" id="img-2811d9ef-60">
                <path d="M-0.21,-10.57 L 0.21 -10.57 0.21 10.57 -0.21 10.57 z" class="primitive"/>
              </g>
              <g transform="translate(42.76,67.18)" id="img-2811d9ef-61">
                <path d="M-0.21,-21.14 L 0.21 -21.14 0.21 21.14 -0.21 21.14 z" class="primitive"/>
              </g>
              <g transform="translate(43.14,73.69)" id="img-2811d9ef-62">
                <path d="M-0.21,-14.64 L 0.21 -14.64 0.21 14.64 -0.21 14.64 z" class="primitive"/>
              </g>
              <g transform="translate(43.51,72.06)" id="img-2811d9ef-63">
                <path d="M-0.21,-16.27 L 0.21 -16.27 0.21 16.27 -0.21 16.27 z" class="primitive"/>
              </g>
              <g transform="translate(43.88,72.06)" id="img-2811d9ef-64">
                <path d="M-0.21,-16.27 L 0.21 -16.27 0.21 16.27 -0.21 16.27 z" class="primitive"/>
              </g>
              <g transform="translate(44.25,66.37)" id="img-2811d9ef-65">
                <path d="M-0.21,-21.96 L 0.21 -21.96 0.21 21.96 -0.21 21.96 z" class="primitive"/>
              </g>
              <g transform="translate(44.63,68)" id="img-2811d9ef-66">
                <path d="M-0.21,-20.33 L 0.21 -20.33 0.21 20.33 -0.21 20.33 z" class="primitive"/>
              </g>
              <g transform="translate(45,72.87)" id="img-2811d9ef-67">
                <path d="M-0.21,-15.45 L 0.21 -15.45 0.21 15.45 -0.21 15.45 z" class="primitive"/>
              </g>
              <g transform="translate(45.37,66.37)" id="img-2811d9ef-68">
                <path d="M-0.21,-21.96 L 0.21 -21.96 0.21 21.96 -0.21 21.96 z" class="primitive"/>
              </g>
              <g transform="translate(45.74,69.62)" id="img-2811d9ef-69">
                <path d="M-0.21,-18.71 L 0.21 -18.71 0.21 18.71 -0.21 18.71 z" class="primitive"/>
              </g>
              <g transform="translate(46.12,54.17)" id="img-2811d9ef-70">
                <path d="M-0.21,-34.16 L 0.21 -34.16 0.21 34.16 -0.21 34.16 z" class="primitive"/>
              </g>
              <g transform="translate(46.49,66.37)" id="img-2811d9ef-71">
                <path d="M-0.21,-21.96 L 0.21 -21.96 0.21 21.96 -0.21 21.96 z" class="primitive"/>
              </g>
              <g transform="translate(46.86,67.18)" id="img-2811d9ef-72">
                <path d="M-0.21,-21.14 L 0.21 -21.14 0.21 21.14 -0.21 21.14 z" class="primitive"/>
              </g>
              <g transform="translate(47.24,60.68)" id="img-2811d9ef-73">
                <path d="M-0.21,-27.65 L 0.21 -27.65 0.21 27.65 -0.21 27.65 z" class="primitive"/>
              </g>
              <g transform="translate(47.61,70.43)" id="img-2811d9ef-74">
                <path d="M-0.21,-17.89 L 0.21 -17.89 0.21 17.89 -0.21 17.89 z" class="primitive"/>
              </g>
              <g transform="translate(47.98,60.68)" id="img-2811d9ef-75">
                <path d="M-0.21,-27.65 L 0.21 -27.65 0.21 27.65 -0.21 27.65 z" class="primitive"/>
              </g>
              <g transform="translate(48.35,64.74)" id="img-2811d9ef-76">
                <path d="M-0.21,-23.58 L 0.21 -23.58 0.21 23.58 -0.21 23.58 z" class="primitive"/>
              </g>
              <g transform="translate(48.73,68)" id="img-2811d9ef-77">
                <path d="M-0.21,-20.33 L 0.21 -20.33 0.21 20.33 -0.21 20.33 z" class="primitive"/>
              </g>
              <g transform="translate(49.1,68.81)" id="img-2811d9ef-78">
                <path d="M-0.21,-19.52 L 0.21 -19.52 0.21 19.52 -0.21 19.52 z" class="primitive"/>
              </g>
              <g transform="translate(49.47,65.56)" id="img-2811d9ef-79">
                <path d="M-0.21,-22.77 L 0.21 -22.77 0.21 22.77 -0.21 22.77 z" class="primitive"/>
              </g>
              <g transform="translate(49.84,63.93)" id="img-2811d9ef-80">
                <path d="M-0.21,-24.4 L 0.21 -24.4 0.21 24.4 -0.21 24.4 z" class="primitive"/>
              </g>
              <g transform="translate(50.22,66.37)" id="img-2811d9ef-81">
                <path d="M-0.21,-21.96 L 0.21 -21.96 0.21 21.96 -0.21 21.96 z" class="primitive"/>
              </g>
              <g transform="translate(50.59,71.25)" id="img-2811d9ef-82">
                <path d="M-0.21,-17.08 L 0.21 -17.08 0.21 17.08 -0.21 17.08 z" class="primitive"/>
              </g>
              <g transform="translate(50.96,72.06)" id="img-2811d9ef-83">
                <path d="M-0.21,-16.27 L 0.21 -16.27 0.21 16.27 -0.21 16.27 z" class="primitive"/>
              </g>
              <g transform="translate(51.33,74.5)" id="img-2811d9ef-84">
                <path d="M-0.21,-13.83 L 0.21 -13.83 0.21 13.83 -0.21 13.83 z" class="primitive"/>
              </g>
              <g transform="translate(51.71,72.87)" id="img-2811d9ef-85">
                <path d="M-0.21,-15.45 L 0.21 -15.45 0.21 15.45 -0.21 15.45 z" class="primitive"/>
              </g>
              <g transform="translate(52.08,69.62)" id="img-2811d9ef-86">
                <path d="M-0.21,-18.71 L 0.21 -18.71 0.21 18.71 -0.21 18.71 z" class="primitive"/>
              </g>
              <g transform="translate(52.45,76.13)" id="img-2811d9ef-87">
                <path d="M-0.21,-12.2 L 0.21 -12.2 0.21 12.2 -0.21 12.2 z" class="primitive"/>
              </g>
              <g transform="translate(52.83,72.06)" id="img-2811d9ef-88">
                <path d="M-0.21,-16.27 L 0.21 -16.27 0.21 16.27 -0.21 16.27 z" class="primitive"/>
              </g>
              <g transform="translate(53.2,77.75)" id="img-2811d9ef-89">
                <path d="M-0.21,-10.57 L 0.21 -10.57 0.21 10.57 -0.21 10.57 z" class="primitive"/>
              </g>
              <g transform="translate(53.57,77.75)" id="img-2811d9ef-90">
                <path d="M-0.21,-10.57 L 0.21 -10.57 0.21 10.57 -0.21 10.57 z" class="primitive"/>
              </g>
              <g transform="translate(53.94,82.63)" id="img-2811d9ef-91">
                <path d="M-0.21,-5.69 L 0.21 -5.69 0.21 5.69 -0.21 5.69 z" class="primitive"/>
              </g>
              <g transform="translate(54.32,81.01)" id="img-2811d9ef-92">
                <path d="M-0.21,-7.32 L 0.21 -7.32 0.21 7.32 -0.21 7.32 z" class="primitive"/>
              </g>
              <g transform="translate(54.69,76.94)" id="img-2811d9ef-93">
                <path d="M-0.21,-11.39 L 0.21 -11.39 0.21 11.39 -0.21 11.39 z" class="primitive"/>
              </g>
              <g transform="translate(55.06,78.57)" id="img-2811d9ef-94">
                <path d="M-0.21,-9.76 L 0.21 -9.76 0.21 9.76 -0.21 9.76 z" class="primitive"/>
              </g>
              <g transform="translate(55.43,84.26)" id="img-2811d9ef-95">
                <path d="M-0.21,-4.07 L 0.21 -4.07 0.21 4.07 -0.21 4.07 z" class="primitive"/>
              </g>
              <g transform="translate(55.81,81.01)" id="img-2811d9ef-96">
                <path d="M-0.21,-7.32 L 0.21 -7.32 0.21 7.32 -0.21 7.32 z" class="primitive"/>
              </g>
              <g transform="translate(56.18,85.07)" id="img-2811d9ef-97">
                <path d="M-0.21,-3.25 L 0.21 -3.25 0.21 3.25 -0.21 3.25 z" class="primitive"/>
              </g>
              <g transform="translate(56.55,85.07)" id="img-2811d9ef-98">
                <path d="M-0.21,-3.25 L 0.21 -3.25 0.21 3.25 -0.21 3.25 z" class="primitive"/>
              </g>
              <g transform="translate(56.93,85.07)" id="img-2811d9ef-99">
                <path d="M-0.21,-3.25 L 0.21 -3.25 0.21 3.25 -0.21 3.25 z" class="primitive"/>
              </g>
              <g transform="translate(57.3,86.7)" id="img-2811d9ef-100">
                <path d="M-0.21,-1.63 L 0.21 -1.63 0.21 1.63 -0.21 1.63 z" class="primitive"/>
              </g>
              <g transform="translate(57.67,85.07)" id="img-2811d9ef-101">
                <path d="M-0.21,-3.25 L 0.21 -3.25 0.21 3.25 -0.21 3.25 z" class="primitive"/>
              </g>
              <g transform="translate(58.04,85.07)" id="img-2811d9ef-102">
                <path d="M-0.21,-3.25 L 0.21 -3.25 0.21 3.25 -0.21 3.25 z" class="primitive"/>
              </g>
              <g transform="translate(58.42,82.63)" id="img-2811d9ef-103">
                <path d="M-0.21,-5.69 L 0.21 -5.69 0.21 5.69 -0.21 5.69 z" class="primitive"/>
              </g>
              <g transform="translate(58.79,85.89)" id="img-2811d9ef-104">
                <path d="M-0.21,-2.44 L 0.21 -2.44 0.21 2.44 -0.21 2.44 z" class="primitive"/>
              </g>
              <g transform="translate(59.16,86.7)" id="img-2811d9ef-105">
                <path d="M-0.21,-1.63 L 0.21 -1.63 0.21 1.63 -0.21 1.63 z" class="primitive"/>
              </g>
              <g transform="translate(59.53,87.51)" id="img-2811d9ef-106">
                <path d="M-0.21,-0.81 L 0.21 -0.81 0.21 0.81 -0.21 0.81 z" class="primitive"/>
              </g>
              <g transform="translate(59.91,86.7)" id="img-2811d9ef-107">
                <path d="M-0.21,-1.63 L 0.21 -1.63 0.21 1.63 -0.21 1.63 z" class="primitive"/>
              </g>
              <g transform="translate(60.28,88.33)" id="img-2811d9ef-108">
                <path d="M-0.21,-0 L 0.21 -0 0.21 0 -0.21 0 z" class="primitive"/>
              </g>
              <g transform="translate(60.65,87.51)" id="img-2811d9ef-109">
                <path d="M-0.21,-0.81 L 0.21 -0.81 0.21 0.81 -0.21 0.81 z" class="primitive"/>
              </g>
              <g transform="translate(61.03,87.51)" id="img-2811d9ef-110">
                <path d="M-0.21,-0.81 L 0.21 -0.81 0.21 0.81 -0.21 0.81 z" class="primitive"/>
              </g>
              <g transform="translate(61.4,88.33)" id="img-2811d9ef-111">
                <path d="M-0.21,-0 L 0.21 -0 0.21 0 -0.21 0 z" class="primitive"/>
              </g>
              <g transform="translate(61.77,88.33)" id="img-2811d9ef-112">
                <path d="M-0.21,-0 L 0.21 -0 0.21 0 -0.21 0 z" class="primitive"/>
              </g>
              <g transform="translate(62.14,86.7)" id="img-2811d9ef-113">
                <path d="M-0.21,-1.63 L 0.21 -1.63 0.21 1.63 -0.21 1.63 z" class="primitive"/>
              </g>
              <g transform="translate(62.52,87.51)" id="img-2811d9ef-114">
                <path d="M-0.21,-0.81 L 0.21 -0.81 0.21 0.81 -0.21 0.81 z" class="primitive"/>
              </g>
              <g transform="translate(62.89,88.33)" id="img-2811d9ef-115">
                <path d="M-0.21,-0 L 0.21 -0 0.21 0 -0.21 0 z" class="primitive"/>
              </g>
              <g transform="translate(63.26,88.33)" id="img-2811d9ef-116">
                <path d="M-0.21,-0 L 0.21 -0 0.21 0 -0.21 0 z" class="primitive"/>
              </g>
              <g transform="translate(63.63,88.33)" id="img-2811d9ef-117">
                <path d="M-0.21,-0 L 0.21 -0 0.21 0 -0.21 0 z" class="primitive"/>
              </g>
              <g transform="translate(64.01,88.33)" id="img-2811d9ef-118">
                <path d="M-0.21,-0 L 0.21 -0 0.21 0 -0.21 0 z" class="primitive"/>
              </g>
              <g transform="translate(64.38,88.33)" id="img-2811d9ef-119">
                <path d="M-0.21,-0 L 0.21 -0 0.21 0 -0.21 0 z" class="primitive"/>
              </g>
              <g transform="translate(64.75,88.33)" id="img-2811d9ef-120">
                <path d="M-0.21,-0 L 0.21 -0 0.21 0 -0.21 0 z" class="primitive"/>
              </g>
              <g transform="translate(65.13,88.33)" id="img-2811d9ef-121">
                <path d="M-0.21,-0 L 0.21 -0 0.21 0 -0.21 0 z" class="primitive"/>
              </g>
              <g transform="translate(65.5,88.33)" id="img-2811d9ef-122">
                <path d="M-0.21,-0 L 0.21 -0 0.21 0 -0.21 0 z" class="primitive"/>
              </g>
              <g transform="translate(65.87,88.33)" id="img-2811d9ef-123">
                <path d="M-0.21,-0 L 0.21 -0 0.21 0 -0.21 0 z" class="primitive"/>
              </g>
              <g transform="translate(66.24,88.33)" id="img-2811d9ef-124">
                <path d="M-0.21,-0 L 0.21 -0 0.21 0 -0.21 0 z" class="primitive"/>
              </g>
              <g transform="translate(66.62,87.51)" id="img-2811d9ef-125">
                <path d="M-0.21,-0.81 L 0.21 -0.81 0.21 0.81 -0.21 0.81 z" class="primitive"/>
              </g>
              <g transform="translate(66.99,88.33)" id="img-2811d9ef-126">
                <path d="M-0.21,-0 L 0.21 -0 0.21 0 -0.21 0 z" class="primitive"/>
              </g>
              <g transform="translate(67.36,88.33)" id="img-2811d9ef-127">
                <path d="M-0.21,-0 L 0.21 -0 0.21 0 -0.21 0 z" class="primitive"/>
              </g>
              <g transform="translate(67.73,88.33)" id="img-2811d9ef-128">
                <path d="M-0.21,-0 L 0.21 -0 0.21 0 -0.21 0 z" class="primitive"/>
              </g>
              <g transform="translate(68.11,88.33)" id="img-2811d9ef-129">
                <path d="M-0.21,-0 L 0.21 -0 0.21 0 -0.21 0 z" class="primitive"/>
              </g>
              <g transform="translate(68.48,87.51)" id="img-2811d9ef-130">
                <path d="M-0.21,-0.81 L 0.21 -0.81 0.21 0.81 -0.21 0.81 z" class="primitive"/>
              </g>
            </g>
          </g>
        </g>
      </g>
    </g>
  </g>
  <g class="guide ylabels" font-size="2.82" font-family="'PT Sans Caption','Helvetica Neue','Helvetica',sans-serif" fill="#6C606B" id="img-2811d9ef-131">
    <g transform="translate(16.96,88.33)" id="img-2811d9ef-132">
      <g class="primitive">
        <text text-anchor="end" dy="0.35em">0</text>
      </g>
    </g>
    <g transform="translate(16.96,72.06)" id="img-2811d9ef-133">
      <g class="primitive">
        <text text-anchor="end" dy="0.35em">10</text>
      </g>
    </g>
    <g transform="translate(16.96,55.8)" id="img-2811d9ef-134">
      <g class="primitive">
        <text text-anchor="end" dy="0.35em">20</text>
      </g>
    </g>
    <g transform="translate(16.96,39.53)" id="img-2811d9ef-135">
      <g class="primitive">
        <text text-anchor="end" dy="0.35em">30</text>
      </g>
    </g>
    <g transform="translate(16.96,23.27)" id="img-2811d9ef-136">
      <g class="primitive">
        <text text-anchor="end" dy="0.35em">40</text>
      </g>
    </g>
    <g transform="translate(16.96,7)" id="img-2811d9ef-137">
      <g class="primitive">
        <text text-anchor="end" dy="0.35em">50</text>
      </g>
    </g>
  </g>
  <g font-size="3.88" font-family="'PT Sans','Helvetica Neue','Helvetica',sans-serif" fill="#564A55" stroke="#000000" stroke-opacity="0.000" id="img-2811d9ef-138">
    <g transform="translate(8.81,45.66)" id="img-2811d9ef-139">
      <g class="primitive">
        <text text-anchor="middle" dy="0.35em" transform="rotate(-90,0, 2)">frequency</text>
      </g>
    </g>
  </g>
</g>
<defs>
  <clipPath id="img-2811d9ef-11">
    <path d="M17.96,5 L 76.99 5 76.99 90.33 17.96 90.33" />
  </clipPath>
</defs>
</svg>
