<?xml version="1.0" encoding="UTF-8"?>
<svg xmlns="http://www.w3.org/2000/svg"
     xmlns:xlink="http://www.w3.org/1999/xlink"
     xmlns:gadfly="http://www.gadflyjl.org/ns"
     version="1.2"
     width="141.42mm" height="100mm" viewBox="0 0 141.42 100"
     stroke="none"
     fill="#000000"
     stroke-width="0.3"
     font-size="3.88"
>
<defs>
  <marker id="arrow" markerWidth="15" markerHeight="7" refX="5" refY="3.5" orient="auto" markerUnits="strokeWidth">
    <path d="M0,0 L15,3.5 L0,7 z" stroke="context-stroke" fill="context-stroke"/>
  </marker>
</defs>
<g class="plotroot xscalable yscalable" id="img-d4d7e194-1">
  <g class="guide xlabels" font-size="2.82" font-family="'PT Sans Caption','Helvetica Neue','Helvetica',sans-serif" fill="#6C606B" id="img-d4d7e194-2">
    <g transform="translate(19.96,80.21)">
      <g class="primitive">
        <text text-anchor="end" dy="0.35em" transform="rotate(-90,0, 0)">7.00×10⁶</text>
      </g>
    </g>
    <g transform="translate(32.91,80.21)">
      <g class="primitive">
        <text text-anchor="end" dy="0.35em" transform="rotate(-90,0, 0)">8.00×10⁶</text>
      </g>
    </g>
    <g transform="translate(45.87,80.21)">
      <g class="primitive">
        <text text-anchor="end" dy="0.35em" transform="rotate(-90,0, 0)">9.00×10⁶</text>
      </g>
    </g>
    <g transform="translate(58.83,80.21)">
      <g class="primitive">
        <text text-anchor="end" dy="0.35em" transform="rotate(-90,0, 0)">1.00×10⁷</text>
      </g>
    </g>
    <g transform="translate(71.78,80.21)">
      <g class="primitive">
        <text text-anchor="end" dy="0.35em" transform="rotate(-90,0, 0)">1.10×10⁷</text>
      </g>
    </g>
  </g>
  <g class="guide colorkey" id="img-d4d7e194-3">
    <g class="color_noncoding_coding_noncoding_noncoding_4-path" id="img-d4d7e194-4">
      <g fill="#4C404B" font-size="2.82" font-family="'PT Sans','Helvetica Neue','Helvetica',sans-serif" id="img-d4d7e194-5">
        <g transform="translate(77.59,43.92)" id="img-d4d7e194-6">
          <g class="primitive">
            <text dy="0.35em">noncoding_coding_noncoding_noncoding_4-path</text>
          </g>
        </g>
      </g>
      <g fill-opacity="1" fill="#00BFFF" stroke="#FFFFFF" id="img-d4d7e194-7">
        <g transform="translate(75.69,43.92)" id="img-d4d7e194-8">
          <path d="M-0.91,-0.91 L0.91,-0.91 0.91,0.91 -0.91,0.91  z" class="primitive"/>
        </g>
      </g>
    </g>
    <g fill="#362A35" font-size="3.88" font-family="'PT Sans','Helvetica Neue','Helvetica',sans-serif" stroke="#000000" stroke-opacity="0.000" id="img-d4d7e194-9">
      <g transform="translate(74.78,40.1)" id="img-d4d7e194-10">
        <g class="primitive">
          <text dy="-0em">graphlet</text>
        </g>
      </g>
    </g>
  </g>
  <g clip-path="url(#img-d4d7e194-11)">
    <g id="img-d4d7e194-12">
      <g pointer-events="visible" stroke-width="0.3" fill="#000000" fill-opacity="0.000" stroke="#000000" stroke-opacity="0.000" class="guide background" id="img-d4d7e194-13">
        <g transform="translate(45.87,42.11)" id="img-d4d7e194-14">
          <path d="M-27.91,-37.11 L27.91,-37.11 27.91,37.11 -27.91,37.11  z" class="primitive"/>
        </g>
      </g>
      <g class="guide ygridlines xfixed" stroke-dasharray="0.5,0.5" stroke-width="0.2" stroke="#D0D0E0" id="img-d4d7e194-15">
        <g transform="translate(45.87,77.21)" id="img-d4d7e194-16">
          <path fill="none" d="M-27.91,0 L27.91,0 " class="primitive"/>
        </g>
        <g transform="translate(45.87,59.66)" id="img-d4d7e194-17">
          <path fill="none" d="M-27.91,0 L27.91,0 " class="primitive"/>
        </g>
        <g transform="translate(45.87,42.11)" id="img-d4d7e194-18">
          <path fill="none" d="M-27.91,0 L27.91,0 " class="primitive"/>
        </g>
        <g transform="translate(45.87,24.55)" id="img-d4d7e194-19">
          <path fill="none" d="M-27.91,0 L27.91,0 " class="primitive"/>
        </g>
        <g transform="translate(45.87,7)" id="img-d4d7e194-20">
          <path fill="none" d="M-27.91,0 L27.91,0 " class="primitive"/>
        </g>
      </g>
      <g class="guide xgridlines yfixed" stroke-dasharray="0.5,0.5" stroke-width="0.2" stroke="#D0D0E0" id="img-d4d7e194-21">
        <g transform="translate(19.96,42.11)" id="img-d4d7e194-22">
          <path fill="none" d="M0,-37.11 L0,37.11 " class="primitive"/>
        </g>
        <g transform="translate(32.91,42.11)" id="img-d4d7e194-23">
          <path fill="none" d="M0,-37.11 L0,37.11 " class="primitive"/>
        </g>
        <g transform="translate(45.87,42.11)" id="img-d4d7e194-24">
          <path fill="none" d="M0,-37.11 L0,37.11 " class="primitive"/>
        </g>
        <g transform="translate(58.83,42.11)" id="img-d4d7e194-25">
          <path fill="none" d="M0,-37.11 L0,37.11 " class="primitive"/>
        </g>
        <g transform="translate(71.78,42.11)" id="img-d4d7e194-26">
          <path fill="none" d="M0,-37.11 L0,37.11 " class="primitive"/>
        </g>
      </g>
      <g class="plotpanel" id="img-d4d7e194-27">
        <metadata>
          <boundingbox value="17.958333333333336mm 5.0mm 55.82302290397616mm 74.21333333333334mm"/>
          <unitbox value="6.845628457166164e6 41.13938473224459 4.308743085667671e6 -42.27876946448917"/>
        </metadata>
        <g shape-rendering="crispEdges" stroke-width="0.3" id="img-d4d7e194-28">
          <g stroke="#000000" stroke-opacity="0.000" class="geometry" id="img-d4d7e194-29">
            <g fill="#00BFFF" id="img-d4d7e194-30">
              <g transform="translate(27.54,76.34)" id="img-d4d7e194-31">
                <path d="M-0.19,-0.88 L0.19,-0.88 0.19,0.88 -0.19,0.88  z" class="primitive"/>
              </g>
              <g transform="translate(27.87,77.22)" id="img-d4d7e194-32">
                <path d="M-0.19,-0 L0.19,-0 0.19,0 -0.19,0  z" class="primitive"/>
              </g>
              <g transform="translate(28.19,76.34)" id="img-d4d7e194-33">
                <path d="M-0.19,-0.88 L0.19,-0.88 0.19,0.88 -0.19,0.88  z" class="primitive"/>
              </g>
              <g transform="translate(28.52,76.34)" id="img-d4d7e194-34">
                <path d="M-0.19,-0.88 L0.19,-0.88 0.19,0.88 -0.19,0.88  z" class="primitive"/>
              </g>
              <g transform="translate(28.84,77.22)" id="img-d4d7e194-35">
                <path d="M-0.19,-0 L0.19,-0 0.19,0 -0.19,0  z" class="primitive"/>
              </g>
              <g transform="translate(29.17,76.34)" id="img-d4d7e194-36">
                <path d="M-0.19,-0.88 L0.19,-0.88 0.19,0.88 -0.19,0.88  z" class="primitive"/>
              </g>
              <g transform="translate(29.5,76.34)" id="img-d4d7e194-37">
                <path d="M-0.19,-0.88 L0.19,-0.88 0.19,0.88 -0.19,0.88  z" class="primitive"/>
              </g>
              <g transform="translate(29.82,76.34)" id="img-d4d7e194-38">
                <path d="M-0.19,-0.88 L0.19,-0.88 0.19,0.88 -0.19,0.88  z" class="primitive"/>
              </g>
              <g transform="translate(30.15,75.46)" id="img-d4d7e194-39">
                <path d="M-0.19,-1.76 L0.19,-1.76 0.19,1.76 -0.19,1.76  z" class="primitive"/>
              </g>
              <g transform="translate(30.48,77.22)" id="img-d4d7e194-40">
                <path d="M-0.19,-0 L0.19,-0 0.19,0 -0.19,0  z" class="primitive"/>
              </g>
              <g transform="translate(30.8,76.34)" id="img-d4d7e194-41">
                <path d="M-0.19,-0.88 L0.19,-0.88 0.19,0.88 -0.19,0.88  z" class="primitive"/>
              </g>
              <g transform="translate(31.13,71.95)" id="img-d4d7e194-42">
                <path d="M-0.19,-5.27 L0.19,-5.27 0.19,5.27 -0.19,5.27  z" class="primitive"/>
              </g>
              <g transform="translate(31.45,76.34)" id="img-d4d7e194-43">
                <path d="M-0.19,-0.88 L0.19,-0.88 0.19,0.88 -0.19,0.88  z" class="primitive"/>
              </g>
              <g transform="translate(31.78,72.82)" id="img-d4d7e194-44">
                <path d="M-0.19,-4.39 L0.19,-4.39 0.19,4.39 -0.19,4.39  z" class="primitive"/>
              </g>
              <g transform="translate(32.11,75.46)" id="img-d4d7e194-45">
                <path d="M-0.19,-1.76 L0.19,-1.76 0.19,1.76 -0.19,1.76  z" class="primitive"/>
              </g>
              <g transform="translate(32.43,71.07)" id="img-d4d7e194-46">
                <path d="M-0.19,-6.14 L0.19,-6.14 0.19,6.14 -0.19,6.14  z" class="primitive"/>
              </g>
              <g transform="translate(32.76,71.07)" id="img-d4d7e194-47">
                <path d="M-0.19,-6.14 L0.19,-6.14 0.19,6.14 -0.19,6.14  z" class="primitive"/>
              </g>
              <g transform="translate(33.09,74.58)" id="img-d4d7e194-48">
                <path d="M-0.19,-2.63 L0.19,-2.63 0.19,2.63 -0.19,2.63  z" class="primitive"/>
              </g>
              <g transform="translate(33.41,73.7)" id="img-d4d7e194-49">
                <path d="M-0.19,-3.51 L0.19,-3.51 0.19,3.51 -0.19,3.51  z" class="primitive"/>
              </g>
              <g transform="translate(33.74,75.46)" id="img-d4d7e194-50">
                <path d="M-0.19,-1.76 L0.19,-1.76 0.19,1.76 -0.19,1.76  z" class="primitive"/>
              </g>
              <g transform="translate(34.06,71.07)" id="img-d4d7e194-51">
                <path d="M-0.19,-6.14 L0.19,-6.14 0.19,6.14 -0.19,6.14  z" class="primitive"/>
              </g>
              <g transform="translate(34.39,71.07)" id="img-d4d7e194-52">
                <path d="M-0.19,-6.14 L0.19,-6.14 0.19,6.14 -0.19,6.14  z" class="primitive"/>
              </g>
              <g transform="translate(34.72,65.8)" id="img-d4d7e194-53">
                <path d="M-0.19,-11.41 L0.19,-11.41 0.19,11.41 -0.19,11.41  z" class="primitive"/>
              </g>
              <g transform="translate(35.04,70.19)" id="img-d4d7e194-54">
                <path d="M-0.19,-7.02 L0.19,-7.02 0.19,7.02 -0.19,7.02  z" class="primitive"/>
              </g>
              <g transform="translate(35.37,69.31)" id="img-d4d7e194-55">
                <path d="M-0.19,-7.9 L0.19,-7.9 0.19,7.9 -0.19,7.9  z" class="primitive"/>
              </g>
              <g transform="translate(35.7,69.31)" id="img-d4d7e194-56">
                <path d="M-0.19,-7.9 L0.19,-7.9 0.19,7.9 -0.19,7.9  z" class="primitive"/>
              </g>
              <g transform="translate(36.02,66.68)" id="img-d4d7e194-57">
                <path d="M-0.19,-10.53 L0.19,-10.53 0.19,10.53 -0.19,10.53  z" class="primitive"/>
              </g>
              <g transform="translate(36.35,68.44)" id="img-d4d7e194-58">
                <path d="M-0.19,-8.78 L0.19,-8.78 0.19,8.78 -0.19,8.78  z" class="primitive"/>
              </g>
              <g transform="translate(36.67,64.05)" id="img-d4d7e194-59">
                <path d="M-0.19,-13.17 L0.19,-13.17 0.19,13.17 -0.19,13.17  z" class="primitive"/>
              </g>
              <g transform="translate(37,58.78)" id="img-d4d7e194-60">
                <path d="M-0.19,-18.43 L0.19,-18.43 0.19,18.43 -0.19,18.43  z" class="primitive"/>
              </g>
              <g transform="translate(37.33,66.68)" id="img-d4d7e194-61">
                <path d="M-0.19,-10.53 L0.19,-10.53 0.19,10.53 -0.19,10.53  z" class="primitive"/>
              </g>
              <g transform="translate(37.65,64.93)" id="img-d4d7e194-62">
                <path d="M-0.19,-12.29 L0.19,-12.29 0.19,12.29 -0.19,12.29  z" class="primitive"/>
              </g>
              <g transform="translate(37.98,62.29)" id="img-d4d7e194-63">
                <path d="M-0.19,-14.92 L0.19,-14.92 0.19,14.92 -0.19,14.92  z" class="primitive"/>
              </g>
              <g transform="translate(38.31,57.03)" id="img-d4d7e194-64">
                <path d="M-0.19,-20.19 L0.19,-20.19 0.19,20.19 -0.19,20.19  z" class="primitive"/>
              </g>
              <g transform="translate(38.63,56.15)" id="img-d4d7e194-65">
                <path d="M-0.19,-21.06 L0.19,-21.06 0.19,21.06 -0.19,21.06  z" class="primitive"/>
              </g>
              <g transform="translate(38.96,64.05)" id="img-d4d7e194-66">
                <path d="M-0.19,-13.17 L0.19,-13.17 0.19,13.17 -0.19,13.17  z" class="primitive"/>
              </g>
              <g transform="translate(39.28,57.03)" id="img-d4d7e194-67">
                <path d="M-0.19,-20.19 L0.19,-20.19 0.19,20.19 -0.19,20.19  z" class="primitive"/>
              </g>
              <g transform="translate(39.61,59.66)" id="img-d4d7e194-68">
                <path d="M-0.19,-17.55 L0.19,-17.55 0.19,17.55 -0.19,17.55  z" class="primitive"/>
              </g>
              <g transform="translate(39.94,66.68)" id="img-d4d7e194-69">
                <path d="M-0.19,-10.53 L0.19,-10.53 0.19,10.53 -0.19,10.53  z" class="primitive"/>
              </g>
              <g transform="translate(40.26,56.15)" id="img-d4d7e194-70">
                <path d="M-0.19,-21.06 L0.19,-21.06 0.19,21.06 -0.19,21.06  z" class="primitive"/>
              </g>
              <g transform="translate(40.59,47.37)" id="img-d4d7e194-71">
                <path d="M-0.19,-29.84 L0.19,-29.84 0.19,29.84 -0.19,29.84  z" class="primitive"/>
              </g>
              <g transform="translate(40.92,57.03)" id="img-d4d7e194-72">
                <path d="M-0.19,-20.19 L0.19,-20.19 0.19,20.19 -0.19,20.19  z" class="primitive"/>
              </g>
              <g transform="translate(41.24,57.9)" id="img-d4d7e194-73">
                <path d="M-0.19,-19.31 L0.19,-19.31 0.19,19.31 -0.19,19.31  z" class="primitive"/>
              </g>
              <g transform="translate(41.57,50.88)" id="img-d4d7e194-74">
                <path d="M-0.19,-26.33 L0.19,-26.33 0.19,26.33 -0.19,26.33  z" class="primitive"/>
              </g>
              <g transform="translate(41.89,58.78)" id="img-d4d7e194-75">
                <path d="M-0.19,-18.43 L0.19,-18.43 0.19,18.43 -0.19,18.43  z" class="primitive"/>
              </g>
              <g transform="translate(42.22,54.39)" id="img-d4d7e194-76">
                <path d="M-0.19,-22.82 L0.19,-22.82 0.19,22.82 -0.19,22.82  z" class="primitive"/>
              </g>
              <g transform="translate(42.55,57.9)" id="img-d4d7e194-77">
                <path d="M-0.19,-19.31 L0.19,-19.31 0.19,19.31 -0.19,19.31  z" class="primitive"/>
              </g>
              <g transform="translate(42.87,59.66)" id="img-d4d7e194-78">
                <path d="M-0.19,-17.55 L0.19,-17.55 0.19,17.55 -0.19,17.55  z" class="primitive"/>
              </g>
              <g transform="translate(43.2,56.15)" id="img-d4d7e194-79">
                <path d="M-0.19,-21.06 L0.19,-21.06 0.19,21.06 -0.19,21.06  z" class="primitive"/>
              </g>
              <g transform="translate(43.53,64.05)" id="img-d4d7e194-80">
                <path d="M-0.19,-13.17 L0.19,-13.17 0.19,13.17 -0.19,13.17  z" class="primitive"/>
              </g>
              <g transform="translate(43.85,58.78)" id="img-d4d7e194-81">
                <path d="M-0.19,-18.43 L0.19,-18.43 0.19,18.43 -0.19,18.43  z" class="primitive"/>
              </g>
              <g transform="translate(44.18,58.78)" id="img-d4d7e194-82">
                <path d="M-0.19,-18.43 L0.19,-18.43 0.19,18.43 -0.19,18.43  z" class="primitive"/>
              </g>
              <g transform="translate(44.5,58.78)" id="img-d4d7e194-83">
                <path d="M-0.19,-18.43 L0.19,-18.43 0.19,18.43 -0.19,18.43  z" class="primitive"/>
              </g>
              <g transform="translate(44.83,58.78)" id="img-d4d7e194-84">
                <path d="M-0.19,-18.43 L0.19,-18.43 0.19,18.43 -0.19,18.43  z" class="primitive"/>
              </g>
              <g transform="translate(45.16,64.93)" id="img-d4d7e194-85">
                <path d="M-0.19,-12.29 L0.19,-12.29 0.19,12.29 -0.19,12.29  z" class="primitive"/>
              </g>
              <g transform="translate(45.48,58.78)" id="img-d4d7e194-86">
                <path d="M-0.19,-18.43 L0.19,-18.43 0.19,18.43 -0.19,18.43  z" class="primitive"/>
              </g>
              <g transform="translate(45.81,54.39)" id="img-d4d7e194-87">
                <path d="M-0.19,-22.82 L0.19,-22.82 0.19,22.82 -0.19,22.82  z" class="primitive"/>
              </g>
              <g transform="translate(46.14,59.66)" id="img-d4d7e194-88">
                <path d="M-0.19,-17.55 L0.19,-17.55 0.19,17.55 -0.19,17.55  z" class="primitive"/>
              </g>
              <g transform="translate(46.46,59.66)" id="img-d4d7e194-89">
                <path d="M-0.19,-17.55 L0.19,-17.55 0.19,17.55 -0.19,17.55  z" class="primitive"/>
              </g>
              <g transform="translate(46.79,65.8)" id="img-d4d7e194-90">
                <path d="M-0.19,-11.41 L0.19,-11.41 0.19,11.41 -0.19,11.41  z" class="primitive"/>
              </g>
              <g transform="translate(47.12,57.9)" id="img-d4d7e194-91">
                <path d="M-0.19,-19.31 L0.19,-19.31 0.19,19.31 -0.19,19.31  z" class="primitive"/>
              </g>
              <g transform="translate(47.44,67.56)" id="img-d4d7e194-92">
                <path d="M-0.19,-9.65 L0.19,-9.65 0.19,9.65 -0.19,9.65  z" class="primitive"/>
              </g>
              <g transform="translate(47.77,64.93)" id="img-d4d7e194-93">
                <path d="M-0.19,-12.29 L0.19,-12.29 0.19,12.29 -0.19,12.29  z" class="primitive"/>
              </g>
              <g transform="translate(48.09,61.42)" id="img-d4d7e194-94">
                <path d="M-0.19,-15.8 L0.19,-15.8 0.19,15.8 -0.19,15.8  z" class="primitive"/>
              </g>
              <g transform="translate(48.42,68.44)" id="img-d4d7e194-95">
                <path d="M-0.19,-8.78 L0.19,-8.78 0.19,8.78 -0.19,8.78  z" class="primitive"/>
              </g>
              <g transform="translate(48.75,71.07)" id="img-d4d7e194-96">
                <path d="M-0.19,-6.14 L0.19,-6.14 0.19,6.14 -0.19,6.14  z" class="primitive"/>
              </g>
              <g transform="translate(49.07,65.8)" id="img-d4d7e194-97">
                <path d="M-0.19,-11.41 L0.19,-11.41 0.19,11.41 -0.19,11.41  z" class="primitive"/>
              </g>
              <g transform="translate(49.4,64.05)" id="img-d4d7e194-98">
                <path d="M-0.19,-13.17 L0.19,-13.17 0.19,13.17 -0.19,13.17  z" class="primitive"/>
              </g>
              <g transform="translate(49.73,68.44)" id="img-d4d7e194-99">
                <path d="M-0.19,-8.78 L0.19,-8.78 0.19,8.78 -0.19,8.78  z" class="primitive"/>
              </g>
              <g transform="translate(50.05,69.31)" id="img-d4d7e194-100">
                <path d="M-0.19,-7.9 L0.19,-7.9 0.19,7.9 -0.19,7.9  z" class="primitive"/>
              </g>
              <g transform="translate(50.38,70.19)" id="img-d4d7e194-101">
                <path d="M-0.19,-7.02 L0.19,-7.02 0.19,7.02 -0.19,7.02  z" class="primitive"/>
              </g>
              <g transform="translate(50.7,69.31)" id="img-d4d7e194-102">
                <path d="M-0.19,-7.9 L0.19,-7.9 0.19,7.9 -0.19,7.9  z" class="primitive"/>
              </g>
              <g transform="translate(51.03,70.19)" id="img-d4d7e194-103">
                <path d="M-0.19,-7.02 L0.19,-7.02 0.19,7.02 -0.19,7.02  z" class="primitive"/>
              </g>
              <g transform="translate(51.36,71.95)" id="img-d4d7e194-104">
                <path d="M-0.19,-5.27 L0.19,-5.27 0.19,5.27 -0.19,5.27  z" class="primitive"/>
              </g>
              <g transform="translate(51.68,72.82)" id="img-d4d7e194-105">
                <path d="M-0.19,-4.39 L0.19,-4.39 0.19,4.39 -0.19,4.39  z" class="primitive"/>
              </g>
              <g transform="translate(52.01,74.58)" id="img-d4d7e194-106">
                <path d="M-0.19,-2.63 L0.19,-2.63 0.19,2.63 -0.19,2.63  z" class="primitive"/>
              </g>
              <g transform="translate(52.34,71.07)" id="img-d4d7e194-107">
                <path d="M-0.19,-6.14 L0.19,-6.14 0.19,6.14 -0.19,6.14  z" class="primitive"/>
              </g>
              <g transform="translate(52.66,75.46)" id="img-d4d7e194-108">
                <path d="M-0.19,-1.76 L0.19,-1.76 0.19,1.76 -0.19,1.76  z" class="primitive"/>
              </g>
              <g transform="translate(52.99,73.7)" id="img-d4d7e194-109">
                <path d="M-0.19,-3.51 L0.19,-3.51 0.19,3.51 -0.19,3.51  z" class="primitive"/>
              </g>
              <g transform="translate(53.31,73.7)" id="img-d4d7e194-110">
                <path d="M-0.19,-3.51 L0.19,-3.51 0.19,3.51 -0.19,3.51  z" class="primitive"/>
              </g>
              <g transform="translate(53.64,71.07)" id="img-d4d7e194-111">
                <path d="M-0.19,-6.14 L0.19,-6.14 0.19,6.14 -0.19,6.14  z" class="primitive"/>
              </g>
              <g transform="translate(53.97,73.7)" id="img-d4d7e194-112">
                <path d="M-0.19,-3.51 L0.19,-3.51 0.19,3.51 -0.19,3.51  z" class="primitive"/>
              </g>
              <g transform="translate(54.29,74.58)" id="img-d4d7e194-113">
                <path d="M-0.19,-2.63 L0.19,-2.63 0.19,2.63 -0.19,2.63  z" class="primitive"/>
              </g>
              <g transform="translate(54.62,75.46)" id="img-d4d7e194-114">
                <path d="M-0.19,-1.76 L0.19,-1.76 0.19,1.76 -0.19,1.76  z" class="primitive"/>
              </g>
              <g transform="translate(54.95,75.46)" id="img-d4d7e194-115">
                <path d="M-0.19,-1.76 L0.19,-1.76 0.19,1.76 -0.19,1.76  z" class="primitive"/>
              </g>
              <g transform="translate(55.27,73.7)" id="img-d4d7e194-116">
                <path d="M-0.19,-3.51 L0.19,-3.51 0.19,3.51 -0.19,3.51  z" class="primitive"/>
              </g>
              <g transform="translate(55.6,74.58)" id="img-d4d7e194-117">
                <path d="M-0.19,-2.63 L0.19,-2.63 0.19,2.63 -0.19,2.63  z" class="primitive"/>
              </g>
              <g transform="translate(55.92,75.46)" id="img-d4d7e194-118">
                <path d="M-0.19,-1.76 L0.19,-1.76 0.19,1.76 -0.19,1.76  z" class="primitive"/>
              </g>
              <g transform="translate(56.25,74.58)" id="img-d4d7e194-119">
                <path d="M-0.19,-2.63 L0.19,-2.63 0.19,2.63 -0.19,2.63  z" class="primitive"/>
              </g>
              <g transform="translate(56.58,76.34)" id="img-d4d7e194-120">
                <path d="M-0.19,-0.88 L0.19,-0.88 0.19,0.88 -0.19,0.88  z" class="primitive"/>
              </g>
              <g transform="translate(56.9,74.58)" id="img-d4d7e194-121">
                <path d="M-0.19,-2.63 L0.19,-2.63 0.19,2.63 -0.19,2.63  z" class="primitive"/>
              </g>
              <g transform="translate(57.23,77.22)" id="img-d4d7e194-122">
                <path d="M-0.19,-0 L0.19,-0 0.19,0 -0.19,0  z" class="primitive"/>
              </g>
              <g transform="translate(57.56,76.34)" id="img-d4d7e194-123">
                <path d="M-0.19,-0.88 L0.19,-0.88 0.19,0.88 -0.19,0.88  z" class="primitive"/>
              </g>
              <g transform="translate(57.88,77.22)" id="img-d4d7e194-124">
                <path d="M-0.19,-0 L0.19,-0 0.19,0 -0.19,0  z" class="primitive"/>
              </g>
              <g transform="translate(58.21,75.46)" id="img-d4d7e194-125">
                <path d="M-0.19,-1.76 L0.19,-1.76 0.19,1.76 -0.19,1.76  z" class="primitive"/>
              </g>
              <g transform="translate(58.53,77.22)" id="img-d4d7e194-126">
                <path d="M-0.19,-0 L0.19,-0 0.19,0 -0.19,0  z" class="primitive"/>
              </g>
              <g transform="translate(58.86,77.22)" id="img-d4d7e194-127">
                <path d="M-0.19,-0 L0.19,-0 0.19,0 -0.19,0  z" class="primitive"/>
              </g>
              <g transform="translate(59.19,76.34)" id="img-d4d7e194-128">
                <path d="M-0.19,-0.88 L0.19,-0.88 0.19,0.88 -0.19,0.88  z" class="primitive"/>
              </g>
              <g transform="translate(59.51,77.22)" id="img-d4d7e194-129">
                <path d="M-0.19,-0 L0.19,-0 0.19,0 -0.19,0  z" class="primitive"/>
              </g>
              <g transform="translate(59.84,76.34)" id="img-d4d7e194-130">
                <path d="M-0.19,-0.88 L0.19,-0.88 0.19,0.88 -0.19,0.88  z" class="primitive"/>
              </g>
            </g>
          </g>
        </g>
      </g>
    </g>
  </g>
  <g class="guide ylabels" font-size="2.82" font-family="'PT Sans Caption','Helvetica Neue','Helvetica',sans-serif" fill="#6C606B" id="img-d4d7e194-131">
    <g transform="translate(16.96,77.21)" id="img-d4d7e194-132">
      <g class="primitive">
        <text text-anchor="end" dy="0.35em">0</text>
      </g>
    </g>
    <g transform="translate(16.96,59.66)" id="img-d4d7e194-133">
      <g class="primitive">
        <text text-anchor="end" dy="0.35em">10</text>
      </g>
    </g>
    <g transform="translate(16.96,42.11)" id="img-d4d7e194-134">
      <g class="primitive">
        <text text-anchor="end" dy="0.35em">20</text>
      </g>
    </g>
    <g transform="translate(16.96,24.55)" id="img-d4d7e194-135">
      <g class="primitive">
        <text text-anchor="end" dy="0.35em">30</text>
      </g>
    </g>
    <g transform="translate(16.96,7)" id="img-d4d7e194-136">
      <g class="primitive">
        <text text-anchor="end" dy="0.35em">40</text>
      </g>
    </g>
  </g>
  <g font-size="3.88" font-family="'PT Sans','Helvetica Neue','Helvetica',sans-serif" fill="#564A55" stroke="#000000" stroke-opacity="0.000" id="img-d4d7e194-137">
    <g transform="translate(8.81,40.11)" id="img-d4d7e194-138">
      <g class="primitive">
        <text text-anchor="middle" dy="0.35em" transform="rotate(-90,0, 2)">frequency</text>
      </g>
    </g>
  </g>
</g>
<defs>
  <clipPath id="img-d4d7e194-11">
    <path d="M17.96,5 L73.78,5 73.78,79.21 17.96,79.21 " />
  </clipPath>
</defs>
</svg>
