<?xml version="1.0" encoding="UTF-8"?>
<svg xmlns="http://www.w3.org/2000/svg"
     xmlns:xlink="http://www.w3.org/1999/xlink"
     xmlns:gadfly="http://www.gadflyjl.org/ns"
     version="1.2"
     width="141.42mm" height="100mm" viewBox="0 0 141.42 100"
     stroke="none"
     fill="#000000"
     stroke-width="0.3"
     font-size="3.88"
>
<defs>
  <marker id="arrow" markerWidth="15" markerHeight="7" refX="5" refY="3.5" orient="auto" markerUnits="strokeWidth">
    <path d="M0,0 L15,3.5 L0,7 z" stroke="context-stroke" fill="context-stroke"/>
  </marker>
</defs>
<g class="plotroot xscalable yscalable" id="img-d5d2de3c-1">
  <g class="guide xlabels" font-size="2.82" font-family="'PT Sans Caption','Helvetica Neue','Helvetica',sans-serif" fill="#6C606B" id="img-d5d2de3c-2">
    <g transform="translate(19.96,80.21)">
      <g class="primitive">
        <text text-anchor="end" dy="0.35em" transform="rotate(-90,0, 0)">1.00×10⁵</text>
      </g>
    </g>
    <g transform="translate(28.84,80.21)">
      <g class="primitive">
        <text text-anchor="end" dy="0.35em" transform="rotate(-90,0, 0)">1.10×10⁵</text>
      </g>
    </g>
    <g transform="translate(37.73,80.21)">
      <g class="primitive">
        <text text-anchor="end" dy="0.35em" transform="rotate(-90,0, 0)">1.20×10⁵</text>
      </g>
    </g>
    <g transform="translate(46.61,80.21)">
      <g class="primitive">
        <text text-anchor="end" dy="0.35em" transform="rotate(-90,0, 0)">1.30×10⁵</text>
      </g>
    </g>
    <g transform="translate(55.5,80.21)">
      <g class="primitive">
        <text text-anchor="end" dy="0.35em" transform="rotate(-90,0, 0)">1.40×10⁵</text>
      </g>
    </g>
    <g transform="translate(64.38,80.21)">
      <g class="primitive">
        <text text-anchor="end" dy="0.35em" transform="rotate(-90,0, 0)">1.50×10⁵</text>
      </g>
    </g>
    <g transform="translate(73.27,80.21)">
      <g class="primitive">
        <text text-anchor="end" dy="0.35em" transform="rotate(-90,0, 0)">1.60×10⁵</text>
      </g>
    </g>
  </g>
  <g class="guide colorkey" id="img-d5d2de3c-3">
    <g class="color_noncoding_noncoding_coding_noncoding_4-tail" id="img-d5d2de3c-4">
      <g fill="#4C404B" font-size="2.82" font-family="'PT Sans','Helvetica Neue','Helvetica',sans-serif" id="img-d5d2de3c-5">
        <g transform="translate(79.08,43.92)" id="img-d5d2de3c-6">
          <g class="primitive">
            <text dy="0.35em">noncoding_noncoding_coding_noncoding_4-tail</text>
          </g>
        </g>
      </g>
      <g fill-opacity="1" fill="#00BFFF" stroke="#FFFFFF" id="img-d5d2de3c-7">
        <g transform="translate(77.17,43.92)" id="img-d5d2de3c-8">
          <path d="M-0.91,-0.91 L0.91,-0.91 0.91,0.91 -0.91,0.91  z" class="primitive"/>
        </g>
      </g>
    </g>
    <g fill="#362A35" font-size="3.88" font-family="'PT Sans','Helvetica Neue','Helvetica',sans-serif" stroke="#000000" stroke-opacity="0.000" id="img-d5d2de3c-9">
      <g transform="translate(76.27,40.1)" id="img-d5d2de3c-10">
        <g class="primitive">
          <text dy="-0em">graphlet</text>
        </g>
      </g>
    </g>
  </g>
  <g clip-path="url(#img-d5d2de3c-11)">
    <g id="img-d5d2de3c-12">
      <g pointer-events="visible" stroke-width="0.3" fill="#000000" fill-opacity="0.000" stroke="#000000" stroke-opacity="0.000" class="guide background" id="img-d5d2de3c-13">
        <g transform="translate(46.61,42.11)" id="img-d5d2de3c-14">
          <path d="M-28.65,-37.11 L28.65,-37.11 28.65,37.11 -28.65,37.11  z" class="primitive"/>
        </g>
      </g>
      <g class="guide ygridlines xfixed" stroke-dasharray="0.5,0.5" stroke-width="0.2" stroke="#D0D0E0" id="img-d5d2de3c-15">
        <g transform="translate(46.61,77.21)" id="img-d5d2de3c-16">
          <path fill="none" d="M-28.65,0 L28.65,0 " class="primitive"/>
        </g>
        <g transform="translate(46.61,59.66)" id="img-d5d2de3c-17">
          <path fill="none" d="M-28.65,0 L28.65,0 " class="primitive"/>
        </g>
        <g transform="translate(46.61,42.11)" id="img-d5d2de3c-18">
          <path fill="none" d="M-28.65,0 L28.65,0 " class="primitive"/>
        </g>
        <g transform="translate(46.61,24.55)" id="img-d5d2de3c-19">
          <path fill="none" d="M-28.65,0 L28.65,0 " class="primitive"/>
        </g>
        <g transform="translate(46.61,7)" id="img-d5d2de3c-20">
          <path fill="none" d="M-28.65,0 L28.65,0 " class="primitive"/>
        </g>
      </g>
      <g class="guide xgridlines yfixed" stroke-dasharray="0.5,0.5" stroke-width="0.2" stroke="#D0D0E0" id="img-d5d2de3c-21">
        <g transform="translate(19.96,42.11)" id="img-d5d2de3c-22">
          <path fill="none" d="M0,-37.11 L0,37.11 " class="primitive"/>
        </g>
        <g transform="translate(28.84,42.11)" id="img-d5d2de3c-23">
          <path fill="none" d="M0,-37.11 L0,37.11 " class="primitive"/>
        </g>
        <g transform="translate(37.73,42.11)" id="img-d5d2de3c-24">
          <path fill="none" d="M0,-37.11 L0,37.11 " class="primitive"/>
        </g>
        <g transform="translate(46.61,42.11)" id="img-d5d2de3c-25">
          <path fill="none" d="M0,-37.11 L0,37.11 " class="primitive"/>
        </g>
        <g transform="translate(55.5,42.11)" id="img-d5d2de3c-26">
          <path fill="none" d="M0,-37.11 L0,37.11 " class="primitive"/>
        </g>
        <g transform="translate(64.38,42.11)" id="img-d5d2de3c-27">
          <path fill="none" d="M0,-37.11 L0,37.11 " class="primitive"/>
        </g>
        <g transform="translate(73.27,42.11)" id="img-d5d2de3c-28">
          <path fill="none" d="M0,-37.11 L0,37.11 " class="primitive"/>
        </g>
      </g>
      <g class="plotpanel" id="img-d5d2de3c-29">
        <metadata>
          <boundingbox value="17.958333333333336mm 5.0mm 57.30968957064284mm 74.21333333333334mm"/>
          <unitbox value="97749.00208636587 41.13938473224459 64501.99582726825 -42.27876946448917"/>
        </metadata>
        <g shape-rendering="crispEdges" stroke-width="0.3" id="img-d5d2de3c-30">
          <g stroke="#000000" stroke-opacity="0.000" class="geometry" id="img-d5d2de3c-31">
            <g fill="#00BFFF" id="img-d5d2de3c-32">
              <g transform="translate(28.31,76.34)" id="img-d5d2de3c-33">
                <path d="M-0.23,-0.88 L0.23,-0.88 0.23,0.88 -0.23,0.88  z" class="primitive"/>
              </g>
              <g transform="translate(28.72,77.22)" id="img-d5d2de3c-34">
                <path d="M-0.23,-0 L0.23,-0 0.23,0 -0.23,0  z" class="primitive"/>
              </g>
              <g transform="translate(29.12,76.34)" id="img-d5d2de3c-35">
                <path d="M-0.23,-0.88 L0.23,-0.88 0.23,0.88 -0.23,0.88  z" class="primitive"/>
              </g>
              <g transform="translate(29.52,76.34)" id="img-d5d2de3c-36">
                <path d="M-0.23,-0.88 L0.23,-0.88 0.23,0.88 -0.23,0.88  z" class="primitive"/>
              </g>
              <g transform="translate(29.92,77.22)" id="img-d5d2de3c-37">
                <path d="M-0.23,-0 L0.23,-0 0.23,0 -0.23,0  z" class="primitive"/>
              </g>
              <g transform="translate(30.33,77.22)" id="img-d5d2de3c-38">
                <path d="M-0.23,-0 L0.23,-0 0.23,0 -0.23,0  z" class="primitive"/>
              </g>
              <g transform="translate(30.73,75.46)" id="img-d5d2de3c-39">
                <path d="M-0.23,-1.76 L0.23,-1.76 0.23,1.76 -0.23,1.76  z" class="primitive"/>
              </g>
              <g transform="translate(31.13,77.22)" id="img-d5d2de3c-40">
                <path d="M-0.23,-0 L0.23,-0 0.23,0 -0.23,0  z" class="primitive"/>
              </g>
              <g transform="translate(31.53,74.58)" id="img-d5d2de3c-41">
                <path d="M-0.23,-2.63 L0.23,-2.63 0.23,2.63 -0.23,2.63  z" class="primitive"/>
              </g>
              <g transform="translate(31.94,71.07)" id="img-d5d2de3c-42">
                <path d="M-0.23,-6.14 L0.23,-6.14 0.23,6.14 -0.23,6.14  z" class="primitive"/>
              </g>
              <g transform="translate(32.34,73.7)" id="img-d5d2de3c-43">
                <path d="M-0.23,-3.51 L0.23,-3.51 0.23,3.51 -0.23,3.51  z" class="primitive"/>
              </g>
              <g transform="translate(32.74,73.7)" id="img-d5d2de3c-44">
                <path d="M-0.23,-3.51 L0.23,-3.51 0.23,3.51 -0.23,3.51  z" class="primitive"/>
              </g>
              <g transform="translate(33.14,75.46)" id="img-d5d2de3c-45">
                <path d="M-0.23,-1.76 L0.23,-1.76 0.23,1.76 -0.23,1.76  z" class="primitive"/>
              </g>
              <g transform="translate(33.55,76.34)" id="img-d5d2de3c-46">
                <path d="M-0.23,-0.88 L0.23,-0.88 0.23,0.88 -0.23,0.88  z" class="primitive"/>
              </g>
              <g transform="translate(33.95,71.07)" id="img-d5d2de3c-47">
                <path d="M-0.23,-6.14 L0.23,-6.14 0.23,6.14 -0.23,6.14  z" class="primitive"/>
              </g>
              <g transform="translate(34.35,72.82)" id="img-d5d2de3c-48">
                <path d="M-0.23,-4.39 L0.23,-4.39 0.23,4.39 -0.23,4.39  z" class="primitive"/>
              </g>
              <g transform="translate(34.76,71.07)" id="img-d5d2de3c-49">
                <path d="M-0.23,-6.14 L0.23,-6.14 0.23,6.14 -0.23,6.14  z" class="primitive"/>
              </g>
              <g transform="translate(35.16,72.82)" id="img-d5d2de3c-50">
                <path d="M-0.23,-4.39 L0.23,-4.39 0.23,4.39 -0.23,4.39  z" class="primitive"/>
              </g>
              <g transform="translate(35.56,71.95)" id="img-d5d2de3c-51">
                <path d="M-0.23,-5.27 L0.23,-5.27 0.23,5.27 -0.23,5.27  z" class="primitive"/>
              </g>
              <g transform="translate(35.96,73.7)" id="img-d5d2de3c-52">
                <path d="M-0.23,-3.51 L0.23,-3.51 0.23,3.51 -0.23,3.51  z" class="primitive"/>
              </g>
              <g transform="translate(36.37,71.07)" id="img-d5d2de3c-53">
                <path d="M-0.23,-6.14 L0.23,-6.14 0.23,6.14 -0.23,6.14  z" class="primitive"/>
              </g>
              <g transform="translate(36.77,71.07)" id="img-d5d2de3c-54">
                <path d="M-0.23,-6.14 L0.23,-6.14 0.23,6.14 -0.23,6.14  z" class="primitive"/>
              </g>
              <g transform="translate(37.17,73.7)" id="img-d5d2de3c-55">
                <path d="M-0.23,-3.51 L0.23,-3.51 0.23,3.51 -0.23,3.51  z" class="primitive"/>
              </g>
              <g transform="translate(37.57,65.8)" id="img-d5d2de3c-56">
                <path d="M-0.23,-11.41 L0.23,-11.41 0.23,11.41 -0.23,11.41  z" class="primitive"/>
              </g>
              <g transform="translate(37.98,65.8)" id="img-d5d2de3c-57">
                <path d="M-0.23,-11.41 L0.23,-11.41 0.23,11.41 -0.23,11.41  z" class="primitive"/>
              </g>
              <g transform="translate(38.38,66.68)" id="img-d5d2de3c-58">
                <path d="M-0.23,-10.53 L0.23,-10.53 0.23,10.53 -0.23,10.53  z" class="primitive"/>
              </g>
              <g transform="translate(38.78,69.31)" id="img-d5d2de3c-59">
                <path d="M-0.23,-7.9 L0.23,-7.9 0.23,7.9 -0.23,7.9  z" class="primitive"/>
              </g>
              <g transform="translate(39.18,64.93)" id="img-d5d2de3c-60">
                <path d="M-0.23,-12.29 L0.23,-12.29 0.23,12.29 -0.23,12.29  z" class="primitive"/>
              </g>
              <g transform="translate(39.59,69.31)" id="img-d5d2de3c-61">
                <path d="M-0.23,-7.9 L0.23,-7.9 0.23,7.9 -0.23,7.9  z" class="primitive"/>
              </g>
              <g transform="translate(39.99,63.17)" id="img-d5d2de3c-62">
                <path d="M-0.23,-14.04 L0.23,-14.04 0.23,14.04 -0.23,14.04  z" class="primitive"/>
              </g>
              <g transform="translate(40.39,62.29)" id="img-d5d2de3c-63">
                <path d="M-0.23,-14.92 L0.23,-14.92 0.23,14.92 -0.23,14.92  z" class="primitive"/>
              </g>
              <g transform="translate(40.8,68.44)" id="img-d5d2de3c-64">
                <path d="M-0.23,-8.78 L0.23,-8.78 0.23,8.78 -0.23,8.78  z" class="primitive"/>
              </g>
              <g transform="translate(41.2,59.66)" id="img-d5d2de3c-65">
                <path d="M-0.23,-17.55 L0.23,-17.55 0.23,17.55 -0.23,17.55  z" class="primitive"/>
              </g>
              <g transform="translate(41.6,66.68)" id="img-d5d2de3c-66">
                <path d="M-0.23,-10.53 L0.23,-10.53 0.23,10.53 -0.23,10.53  z" class="primitive"/>
              </g>
              <g transform="translate(42,57.9)" id="img-d5d2de3c-67">
                <path d="M-0.23,-19.31 L0.23,-19.31 0.23,19.31 -0.23,19.31  z" class="primitive"/>
              </g>
              <g transform="translate(42.41,54.39)" id="img-d5d2de3c-68">
                <path d="M-0.23,-22.82 L0.23,-22.82 0.23,22.82 -0.23,22.82  z" class="primitive"/>
              </g>
              <g transform="translate(42.81,65.8)" id="img-d5d2de3c-69">
                <path d="M-0.23,-11.41 L0.23,-11.41 0.23,11.41 -0.23,11.41  z" class="primitive"/>
              </g>
              <g transform="translate(43.21,53.52)" id="img-d5d2de3c-70">
                <path d="M-0.23,-23.7 L0.23,-23.7 0.23,23.7 -0.23,23.7  z" class="primitive"/>
              </g>
              <g transform="translate(43.61,60.54)" id="img-d5d2de3c-71">
                <path d="M-0.23,-16.68 L0.23,-16.68 0.23,16.68 -0.23,16.68  z" class="primitive"/>
              </g>
              <g transform="translate(44.02,61.42)" id="img-d5d2de3c-72">
                <path d="M-0.23,-15.8 L0.23,-15.8 0.23,15.8 -0.23,15.8  z" class="primitive"/>
              </g>
              <g transform="translate(44.42,57.03)" id="img-d5d2de3c-73">
                <path d="M-0.23,-20.19 L0.23,-20.19 0.23,20.19 -0.23,20.19  z" class="primitive"/>
              </g>
              <g transform="translate(44.82,53.52)" id="img-d5d2de3c-74">
                <path d="M-0.23,-23.7 L0.23,-23.7 0.23,23.7 -0.23,23.7  z" class="primitive"/>
              </g>
              <g transform="translate(45.22,50.88)" id="img-d5d2de3c-75">
                <path d="M-0.23,-26.33 L0.23,-26.33 0.23,26.33 -0.23,26.33  z" class="primitive"/>
              </g>
              <g transform="translate(45.63,58.78)" id="img-d5d2de3c-76">
                <path d="M-0.23,-18.43 L0.23,-18.43 0.23,18.43 -0.23,18.43  z" class="primitive"/>
              </g>
              <g transform="translate(46.03,63.17)" id="img-d5d2de3c-77">
                <path d="M-0.23,-14.04 L0.23,-14.04 0.23,14.04 -0.23,14.04  z" class="primitive"/>
              </g>
              <g transform="translate(46.43,52.64)" id="img-d5d2de3c-78">
                <path d="M-0.23,-24.57 L0.23,-24.57 0.23,24.57 -0.23,24.57  z" class="primitive"/>
              </g>
              <g transform="translate(46.84,51.76)" id="img-d5d2de3c-79">
                <path d="M-0.23,-25.45 L0.23,-25.45 0.23,25.45 -0.23,25.45  z" class="primitive"/>
              </g>
              <g transform="translate(47.24,46.5)" id="img-d5d2de3c-80">
                <path d="M-0.23,-30.72 L0.23,-30.72 0.23,30.72 -0.23,30.72  z" class="primitive"/>
              </g>
              <g transform="translate(47.64,56.15)" id="img-d5d2de3c-81">
                <path d="M-0.23,-21.06 L0.23,-21.06 0.23,21.06 -0.23,21.06  z" class="primitive"/>
              </g>
              <g transform="translate(48.04,63.17)" id="img-d5d2de3c-82">
                <path d="M-0.23,-14.04 L0.23,-14.04 0.23,14.04 -0.23,14.04  z" class="primitive"/>
              </g>
              <g transform="translate(48.45,57.9)" id="img-d5d2de3c-83">
                <path d="M-0.23,-19.31 L0.23,-19.31 0.23,19.31 -0.23,19.31  z" class="primitive"/>
              </g>
              <g transform="translate(48.85,57.03)" id="img-d5d2de3c-84">
                <path d="M-0.23,-20.19 L0.23,-20.19 0.23,20.19 -0.23,20.19  z" class="primitive"/>
              </g>
              <g transform="translate(49.25,60.54)" id="img-d5d2de3c-85">
                <path d="M-0.23,-16.68 L0.23,-16.68 0.23,16.68 -0.23,16.68  z" class="primitive"/>
              </g>
              <g transform="translate(49.65,51.76)" id="img-d5d2de3c-86">
                <path d="M-0.23,-25.45 L0.23,-25.45 0.23,25.45 -0.23,25.45  z" class="primitive"/>
              </g>
              <g transform="translate(50.06,61.42)" id="img-d5d2de3c-87">
                <path d="M-0.23,-15.8 L0.23,-15.8 0.23,15.8 -0.23,15.8  z" class="primitive"/>
              </g>
              <g transform="translate(50.46,68.44)" id="img-d5d2de3c-88">
                <path d="M-0.23,-8.78 L0.23,-8.78 0.23,8.78 -0.23,8.78  z" class="primitive"/>
              </g>
              <g transform="translate(50.86,56.15)" id="img-d5d2de3c-89">
                <path d="M-0.23,-21.06 L0.23,-21.06 0.23,21.06 -0.23,21.06  z" class="primitive"/>
              </g>
              <g transform="translate(51.26,60.54)" id="img-d5d2de3c-90">
                <path d="M-0.23,-16.68 L0.23,-16.68 0.23,16.68 -0.23,16.68  z" class="primitive"/>
              </g>
              <g transform="translate(51.67,62.29)" id="img-d5d2de3c-91">
                <path d="M-0.23,-14.92 L0.23,-14.92 0.23,14.92 -0.23,14.92  z" class="primitive"/>
              </g>
              <g transform="translate(52.07,60.54)" id="img-d5d2de3c-92">
                <path d="M-0.23,-16.68 L0.23,-16.68 0.23,16.68 -0.23,16.68  z" class="primitive"/>
              </g>
              <g transform="translate(52.47,62.29)" id="img-d5d2de3c-93">
                <path d="M-0.23,-14.92 L0.23,-14.92 0.23,14.92 -0.23,14.92  z" class="primitive"/>
              </g>
              <g transform="translate(52.88,69.31)" id="img-d5d2de3c-94">
                <path d="M-0.23,-7.9 L0.23,-7.9 0.23,7.9 -0.23,7.9  z" class="primitive"/>
              </g>
              <g transform="translate(53.28,65.8)" id="img-d5d2de3c-95">
                <path d="M-0.23,-11.41 L0.23,-11.41 0.23,11.41 -0.23,11.41  z" class="primitive"/>
              </g>
              <g transform="translate(53.68,60.54)" id="img-d5d2de3c-96">
                <path d="M-0.23,-16.68 L0.23,-16.68 0.23,16.68 -0.23,16.68  z" class="primitive"/>
              </g>
              <g transform="translate(54.08,60.54)" id="img-d5d2de3c-97">
                <path d="M-0.23,-16.68 L0.23,-16.68 0.23,16.68 -0.23,16.68  z" class="primitive"/>
              </g>
              <g transform="translate(54.49,65.8)" id="img-d5d2de3c-98">
                <path d="M-0.23,-11.41 L0.23,-11.41 0.23,11.41 -0.23,11.41  z" class="primitive"/>
              </g>
              <g transform="translate(54.89,67.56)" id="img-d5d2de3c-99">
                <path d="M-0.23,-9.65 L0.23,-9.65 0.23,9.65 -0.23,9.65  z" class="primitive"/>
              </g>
              <g transform="translate(55.29,67.56)" id="img-d5d2de3c-100">
                <path d="M-0.23,-9.65 L0.23,-9.65 0.23,9.65 -0.23,9.65  z" class="primitive"/>
              </g>
              <g transform="translate(55.69,69.31)" id="img-d5d2de3c-101">
                <path d="M-0.23,-7.9 L0.23,-7.9 0.23,7.9 -0.23,7.9  z" class="primitive"/>
              </g>
              <g transform="translate(56.1,71.07)" id="img-d5d2de3c-102">
                <path d="M-0.23,-6.14 L0.23,-6.14 0.23,6.14 -0.23,6.14  z" class="primitive"/>
              </g>
              <g transform="translate(56.5,70.19)" id="img-d5d2de3c-103">
                <path d="M-0.23,-7.02 L0.23,-7.02 0.23,7.02 -0.23,7.02  z" class="primitive"/>
              </g>
              <g transform="translate(56.9,72.82)" id="img-d5d2de3c-104">
                <path d="M-0.23,-4.39 L0.23,-4.39 0.23,4.39 -0.23,4.39  z" class="primitive"/>
              </g>
              <g transform="translate(57.3,69.31)" id="img-d5d2de3c-105">
                <path d="M-0.23,-7.9 L0.23,-7.9 0.23,7.9 -0.23,7.9  z" class="primitive"/>
              </g>
              <g transform="translate(57.71,73.7)" id="img-d5d2de3c-106">
                <path d="M-0.23,-3.51 L0.23,-3.51 0.23,3.51 -0.23,3.51  z" class="primitive"/>
              </g>
              <g transform="translate(58.11,71.95)" id="img-d5d2de3c-107">
                <path d="M-0.23,-5.27 L0.23,-5.27 0.23,5.27 -0.23,5.27  z" class="primitive"/>
              </g>
              <g transform="translate(58.51,74.58)" id="img-d5d2de3c-108">
                <path d="M-0.23,-2.63 L0.23,-2.63 0.23,2.63 -0.23,2.63  z" class="primitive"/>
              </g>
              <g transform="translate(58.92,74.58)" id="img-d5d2de3c-109">
                <path d="M-0.23,-2.63 L0.23,-2.63 0.23,2.63 -0.23,2.63  z" class="primitive"/>
              </g>
              <g transform="translate(59.32,74.58)" id="img-d5d2de3c-110">
                <path d="M-0.23,-2.63 L0.23,-2.63 0.23,2.63 -0.23,2.63  z" class="primitive"/>
              </g>
              <g transform="translate(59.72,70.19)" id="img-d5d2de3c-111">
                <path d="M-0.23,-7.02 L0.23,-7.02 0.23,7.02 -0.23,7.02  z" class="primitive"/>
              </g>
              <g transform="translate(60.12,73.7)" id="img-d5d2de3c-112">
                <path d="M-0.23,-3.51 L0.23,-3.51 0.23,3.51 -0.23,3.51  z" class="primitive"/>
              </g>
              <g transform="translate(60.53,75.46)" id="img-d5d2de3c-113">
                <path d="M-0.23,-1.76 L0.23,-1.76 0.23,1.76 -0.23,1.76  z" class="primitive"/>
              </g>
              <g transform="translate(60.93,75.46)" id="img-d5d2de3c-114">
                <path d="M-0.23,-1.76 L0.23,-1.76 0.23,1.76 -0.23,1.76  z" class="primitive"/>
              </g>
              <g transform="translate(61.33,75.46)" id="img-d5d2de3c-115">
                <path d="M-0.23,-1.76 L0.23,-1.76 0.23,1.76 -0.23,1.76  z" class="primitive"/>
              </g>
              <g transform="translate(61.73,74.58)" id="img-d5d2de3c-116">
                <path d="M-0.23,-2.63 L0.23,-2.63 0.23,2.63 -0.23,2.63  z" class="primitive"/>
              </g>
              <g transform="translate(62.14,74.58)" id="img-d5d2de3c-117">
                <path d="M-0.23,-2.63 L0.23,-2.63 0.23,2.63 -0.23,2.63  z" class="primitive"/>
              </g>
              <g transform="translate(62.54,76.34)" id="img-d5d2de3c-118">
                <path d="M-0.23,-0.88 L0.23,-0.88 0.23,0.88 -0.23,0.88  z" class="primitive"/>
              </g>
              <g transform="translate(62.94,77.22)" id="img-d5d2de3c-119">
                <path d="M-0.23,-0 L0.23,-0 0.23,0 -0.23,0  z" class="primitive"/>
              </g>
              <g transform="translate(63.34,75.46)" id="img-d5d2de3c-120">
                <path d="M-0.23,-1.76 L0.23,-1.76 0.23,1.76 -0.23,1.76  z" class="primitive"/>
              </g>
              <g transform="translate(63.75,77.22)" id="img-d5d2de3c-121">
                <path d="M-0.23,-0 L0.23,-0 0.23,0 -0.23,0  z" class="primitive"/>
              </g>
              <g transform="translate(64.15,76.34)" id="img-d5d2de3c-122">
                <path d="M-0.23,-0.88 L0.23,-0.88 0.23,0.88 -0.23,0.88  z" class="primitive"/>
              </g>
              <g transform="translate(64.55,76.34)" id="img-d5d2de3c-123">
                <path d="M-0.23,-0.88 L0.23,-0.88 0.23,0.88 -0.23,0.88  z" class="primitive"/>
              </g>
              <g transform="translate(64.96,77.22)" id="img-d5d2de3c-124">
                <path d="M-0.23,-0 L0.23,-0 0.23,0 -0.23,0  z" class="primitive"/>
              </g>
              <g transform="translate(65.36,76.34)" id="img-d5d2de3c-125">
                <path d="M-0.23,-0.88 L0.23,-0.88 0.23,0.88 -0.23,0.88  z" class="primitive"/>
              </g>
              <g transform="translate(65.76,77.22)" id="img-d5d2de3c-126">
                <path d="M-0.23,-0 L0.23,-0 0.23,0 -0.23,0  z" class="primitive"/>
              </g>
              <g transform="translate(66.16,77.22)" id="img-d5d2de3c-127">
                <path d="M-0.23,-0 L0.23,-0 0.23,0 -0.23,0  z" class="primitive"/>
              </g>
              <g transform="translate(66.57,76.34)" id="img-d5d2de3c-128">
                <path d="M-0.23,-0.88 L0.23,-0.88 0.23,0.88 -0.23,0.88  z" class="primitive"/>
              </g>
              <g transform="translate(66.97,77.22)" id="img-d5d2de3c-129">
                <path d="M-0.23,-0 L0.23,-0 0.23,0 -0.23,0  z" class="primitive"/>
              </g>
              <g transform="translate(67.37,77.22)" id="img-d5d2de3c-130">
                <path d="M-0.23,-0 L0.23,-0 0.23,0 -0.23,0  z" class="primitive"/>
              </g>
              <g transform="translate(67.77,76.34)" id="img-d5d2de3c-131">
                <path d="M-0.23,-0.88 L0.23,-0.88 0.23,0.88 -0.23,0.88  z" class="primitive"/>
              </g>
              <g transform="translate(68.18,75.46)" id="img-d5d2de3c-132">
                <path d="M-0.23,-1.76 L0.23,-1.76 0.23,1.76 -0.23,1.76  z" class="primitive"/>
              </g>
            </g>
          </g>
        </g>
      </g>
    </g>
  </g>
  <g class="guide ylabels" font-size="2.82" font-family="'PT Sans Caption','Helvetica Neue','Helvetica',sans-serif" fill="#6C606B" id="img-d5d2de3c-133">
    <g transform="translate(16.96,77.21)" id="img-d5d2de3c-134">
      <g class="primitive">
        <text text-anchor="end" dy="0.35em">0</text>
      </g>
    </g>
    <g transform="translate(16.96,59.66)" id="img-d5d2de3c-135">
      <g class="primitive">
        <text text-anchor="end" dy="0.35em">10</text>
      </g>
    </g>
    <g transform="translate(16.96,42.11)" id="img-d5d2de3c-136">
      <g class="primitive">
        <text text-anchor="end" dy="0.35em">20</text>
      </g>
    </g>
    <g transform="translate(16.96,24.55)" id="img-d5d2de3c-137">
      <g class="primitive">
        <text text-anchor="end" dy="0.35em">30</text>
      </g>
    </g>
    <g transform="translate(16.96,7)" id="img-d5d2de3c-138">
      <g class="primitive">
        <text text-anchor="end" dy="0.35em">40</text>
      </g>
    </g>
  </g>
  <g font-size="3.88" font-family="'PT Sans','Helvetica Neue','Helvetica',sans-serif" fill="#564A55" stroke="#000000" stroke-opacity="0.000" id="img-d5d2de3c-139">
    <g transform="translate(8.81,40.11)" id="img-d5d2de3c-140">
      <g class="primitive">
        <text text-anchor="middle" dy="0.35em" transform="rotate(-90,0, 2)">frequency</text>
      </g>
    </g>
  </g>
</g>
<defs>
  <clipPath id="img-d5d2de3c-11">
    <path d="M17.96,5 L75.27,5 75.27,79.21 17.96,79.21 " />
  </clipPath>
</defs>
</svg>
