<?xml version="1.0" encoding="UTF-8"?>
<svg xmlns="http://www.w3.org/2000/svg"
     xmlns:xlink="http://www.w3.org/1999/xlink"
     xmlns:gadfly="http://www.gadflyjl.org/ns"
     version="1.2"
     width="141.42mm" height="100mm" viewBox="0 0 141.42 100"
     stroke="none"
     fill="#000000"
     stroke-width="0.3"
     font-size="3.88"
>
<defs>
  <marker id="arrow" markerWidth="15" markerHeight="7" refX="5" refY="3.5" orient="auto" markerUnits="strokeWidth">
    <path d="M0,0 L15,3.5 L0,7 z" stroke="context-stroke" fill="context-stroke"/>
  </marker>
</defs>
<g class="plotroot xscalable yscalable" id="img-091ad4df-1">
  <g class="guide xlabels" font-size="2.82" font-family="'PT Sans Caption','Helvetica Neue','Helvetica',sans-serif" fill="#6C606B" id="img-091ad4df-2">
    <g transform="translate(18.28,91.33)">
      <g class="primitive">
        <text text-anchor="middle" dy="0.6em">12.4</text>
      </g>
    </g>
    <g transform="translate(32.63,91.33)">
      <g class="primitive">
        <text text-anchor="middle" dy="0.6em">12.6</text>
      </g>
    </g>
    <g transform="translate(46.98,91.33)">
      <g class="primitive">
        <text text-anchor="middle" dy="0.6em">12.8</text>
      </g>
    </g>
    <g transform="translate(61.33,91.33)">
      <g class="primitive">
        <text text-anchor="middle" dy="0.6em">13.0</text>
      </g>
    </g>
    <g transform="translate(75.68,91.33)">
      <g class="primitive">
        <text text-anchor="middle" dy="0.6em">13.2</text>
      </g>
    </g>
  </g>
  <g class="guide colorkey" id="img-091ad4df-3">
    <g class="color_coding_coding_noncoding_noncoding_4-cycle" id="img-091ad4df-4">
      <g fill="#4C404B" font-size="2.82" font-family="'PT Sans','Helvetica Neue','Helvetica',sans-serif" id="img-091ad4df-5">
        <g transform="translate(81.49,49.48)" id="img-091ad4df-6">
          <g class="primitive">
            <text dy="0.35em">coding_coding_noncoding_noncoding_4-cycle</text>
          </g>
        </g>
      </g>
      <g fill-opacity="1" fill="#00BFFF" stroke="#FFFFFF" id="img-091ad4df-7">
        <g transform="translate(79.59,49.48)" id="img-091ad4df-8">
          <path d="M-0.91,-0.91 L 0.91 -0.91 0.91 0.91 -0.91 0.91 z" class="primitive"/>
        </g>
      </g>
    </g>
    <g fill="#362A35" font-size="3.88" font-family="'PT Sans','Helvetica Neue','Helvetica',sans-serif" stroke="#000000" stroke-opacity="0.000" id="img-091ad4df-9">
      <g transform="translate(78.68,45.66)" id="img-091ad4df-10">
        <g class="primitive">
          <text dy="-0em">graphlet</text>
        </g>
      </g>
    </g>
  </g>
  <g clip-path="url(#img-091ad4df-11)">
    <g id="img-091ad4df-12">
      <g pointer-events="visible" stroke-width="0.3" fill="#000000" fill-opacity="0.000" stroke="#000000" stroke-opacity="0.000" class="guide background" id="img-091ad4df-13">
        <g transform="translate(46.98,47.66)" id="img-091ad4df-14">
          <path d="M-30.7,-42.66 L 30.7 -42.66 30.7 42.66 -30.7 42.66 z" class="primitive"/>
        </g>
      </g>
      <g class="guide ygridlines xfixed" stroke-dasharray="0.5,0.5" stroke-width="0.2" stroke="#D0D0E0" id="img-091ad4df-15">
        <g transform="translate(46.98,88.33)" id="img-091ad4df-16">
          <path fill="none" d="M-30.7,0 L 30.7 0" class="primitive"/>
        </g>
        <g transform="translate(46.98,72.06)" id="img-091ad4df-17">
          <path fill="none" d="M-30.7,0 L 30.7 0" class="primitive"/>
        </g>
        <g transform="translate(46.98,55.8)" id="img-091ad4df-18">
          <path fill="none" d="M-30.7,0 L 30.7 0" class="primitive"/>
        </g>
        <g transform="translate(46.98,39.53)" id="img-091ad4df-19">
          <path fill="none" d="M-30.7,0 L 30.7 0" class="primitive"/>
        </g>
        <g transform="translate(46.98,23.27)" id="img-091ad4df-20">
          <path fill="none" d="M-30.7,0 L 30.7 0" class="primitive"/>
        </g>
        <g transform="translate(46.98,7)" id="img-091ad4df-21">
          <path fill="none" d="M-30.7,0 L 30.7 0" class="primitive"/>
        </g>
      </g>
      <g class="guide xgridlines yfixed" stroke-dasharray="0.5,0.5" stroke-width="0.2" stroke="#D0D0E0" id="img-091ad4df-22">
        <g transform="translate(18.28,47.66)" id="img-091ad4df-23">
          <path fill="none" d="M0,-42.66 L 0 42.66" class="primitive"/>
        </g>
        <g transform="translate(32.63,47.66)" id="img-091ad4df-24">
          <path fill="none" d="M0,-42.66 L 0 42.66" class="primitive"/>
        </g>
        <g transform="translate(46.98,47.66)" id="img-091ad4df-25">
          <path fill="none" d="M0,-42.66 L 0 42.66" class="primitive"/>
        </g>
        <g transform="translate(61.33,47.66)" id="img-091ad4df-26">
          <path fill="none" d="M0,-42.66 L 0 42.66" class="primitive"/>
        </g>
        <g transform="translate(75.68,47.66)" id="img-091ad4df-27">
          <path fill="none" d="M0,-42.66 L 0 42.66" class="primitive"/>
        </g>
      </g>
      <g class="plotpanel" id="img-091ad4df-28">
        <metadata>
          <boundingbox value="16.284999999999997mm 5.0mm 61.396356237309504mm 85.32666666666667mm"/>
          <unitbox value="12.372123665945193 5.122960898434298 0.8557526681096166 -5.245921796868595"/>
        </metadata>
        <g shape-rendering="crispEdges" stroke-width="0.3" id="img-091ad4df-29">
          <g stroke="#000000" stroke-opacity="0.000" class="geometry" id="img-091ad4df-30">
            <g fill="#00BFFF" id="img-091ad4df-31">
              <g transform="translate(30.99,80.19)" id="img-091ad4df-32">
                <path d="M-0.25,-8.13 L 0.25 -8.13 0.25 8.13 -0.25 8.13 z" class="primitive"/>
              </g>
              <g transform="translate(31.44,88.33)" id="img-091ad4df-33">
                <path d="M-0.25,-0 L 0.25 -0 0.25 0 -0.25 0 z" class="primitive"/>
              </g>
              <g transform="translate(31.88,88.33)" id="img-091ad4df-34">
                <path d="M-0.25,-0 L 0.25 -0 0.25 0 -0.25 0 z" class="primitive"/>
              </g>
              <g transform="translate(32.33,88.33)" id="img-091ad4df-35">
                <path d="M-0.25,-0 L 0.25 -0 0.25 0 -0.25 0 z" class="primitive"/>
              </g>
              <g transform="translate(32.77,88.33)" id="img-091ad4df-36">
                <path d="M-0.25,-0 L 0.25 -0 0.25 0 -0.25 0 z" class="primitive"/>
              </g>
              <g transform="translate(33.22,88.33)" id="img-091ad4df-37">
                <path d="M-0.25,-0 L 0.25 -0 0.25 0 -0.25 0 z" class="primitive"/>
              </g>
              <g transform="translate(33.66,88.33)" id="img-091ad4df-38">
                <path d="M-0.25,-0 L 0.25 -0 0.25 0 -0.25 0 z" class="primitive"/>
              </g>
              <g transform="translate(34.11,88.33)" id="img-091ad4df-39">
                <path d="M-0.25,-0 L 0.25 -0 0.25 0 -0.25 0 z" class="primitive"/>
              </g>
              <g transform="translate(34.55,88.33)" id="img-091ad4df-40">
                <path d="M-0.25,-0 L 0.25 -0 0.25 0 -0.25 0 z" class="primitive"/>
              </g>
              <g transform="translate(35,88.33)" id="img-091ad4df-41">
                <path d="M-0.25,-0 L 0.25 -0 0.25 0 -0.25 0 z" class="primitive"/>
              </g>
              <g transform="translate(35.44,88.33)" id="img-091ad4df-42">
                <path d="M-0.25,-0 L 0.25 -0 0.25 0 -0.25 0 z" class="primitive"/>
              </g>
              <g transform="translate(35.89,88.33)" id="img-091ad4df-43">
                <path d="M-0.25,-0 L 0.25 -0 0.25 0 -0.25 0 z" class="primitive"/>
              </g>
              <g transform="translate(36.33,88.33)" id="img-091ad4df-44">
                <path d="M-0.25,-0 L 0.25 -0 0.25 0 -0.25 0 z" class="primitive"/>
              </g>
              <g transform="translate(36.78,88.33)" id="img-091ad4df-45">
                <path d="M-0.25,-0 L 0.25 -0 0.25 0 -0.25 0 z" class="primitive"/>
              </g>
              <g transform="translate(37.22,88.33)" id="img-091ad4df-46">
                <path d="M-0.25,-0 L 0.25 -0 0.25 0 -0.25 0 z" class="primitive"/>
              </g>
              <g transform="translate(37.67,88.33)" id="img-091ad4df-47">
                <path d="M-0.25,-0 L 0.25 -0 0.25 0 -0.25 0 z" class="primitive"/>
              </g>
              <g transform="translate(38.11,88.33)" id="img-091ad4df-48">
                <path d="M-0.25,-0 L 0.25 -0 0.25 0 -0.25 0 z" class="primitive"/>
              </g>
              <g transform="translate(38.56,88.33)" id="img-091ad4df-49">
                <path d="M-0.25,-0 L 0.25 -0 0.25 0 -0.25 0 z" class="primitive"/>
              </g>
              <g transform="translate(39,88.33)" id="img-091ad4df-50">
                <path d="M-0.25,-0 L 0.25 -0 0.25 0 -0.25 0 z" class="primitive"/>
              </g>
              <g transform="translate(39.45,88.33)" id="img-091ad4df-51">
                <path d="M-0.25,-0 L 0.25 -0 0.25 0 -0.25 0 z" class="primitive"/>
              </g>
              <g transform="translate(39.89,72.06)" id="img-091ad4df-52">
                <path d="M-0.25,-16.27 L 0.25 -16.27 0.25 16.27 -0.25 16.27 z" class="primitive"/>
              </g>
              <g transform="translate(40.34,80.19)" id="img-091ad4df-53">
                <path d="M-0.25,-8.13 L 0.25 -8.13 0.25 8.13 -0.25 8.13 z" class="primitive"/>
              </g>
              <g transform="translate(40.78,88.33)" id="img-091ad4df-54">
                <path d="M-0.25,-0 L 0.25 -0 0.25 0 -0.25 0 z" class="primitive"/>
              </g>
              <g transform="translate(41.23,80.19)" id="img-091ad4df-55">
                <path d="M-0.25,-8.13 L 0.25 -8.13 0.25 8.13 -0.25 8.13 z" class="primitive"/>
              </g>
              <g transform="translate(41.67,80.19)" id="img-091ad4df-56">
                <path d="M-0.25,-8.13 L 0.25 -8.13 0.25 8.13 -0.25 8.13 z" class="primitive"/>
              </g>
              <g transform="translate(42.12,88.33)" id="img-091ad4df-57">
                <path d="M-0.25,-0 L 0.25 -0 0.25 0 -0.25 0 z" class="primitive"/>
              </g>
              <g transform="translate(42.56,88.33)" id="img-091ad4df-58">
                <path d="M-0.25,-0 L 0.25 -0 0.25 0 -0.25 0 z" class="primitive"/>
              </g>
              <g transform="translate(43.01,88.33)" id="img-091ad4df-59">
                <path d="M-0.25,-0 L 0.25 -0 0.25 0 -0.25 0 z" class="primitive"/>
              </g>
              <g transform="translate(43.45,72.06)" id="img-091ad4df-60">
                <path d="M-0.25,-16.27 L 0.25 -16.27 0.25 16.27 -0.25 16.27 z" class="primitive"/>
              </g>
              <g transform="translate(43.9,72.06)" id="img-091ad4df-61">
                <path d="M-0.25,-16.27 L 0.25 -16.27 0.25 16.27 -0.25 16.27 z" class="primitive"/>
              </g>
              <g transform="translate(44.34,88.33)" id="img-091ad4df-62">
                <path d="M-0.25,-0 L 0.25 -0 0.25 0 -0.25 0 z" class="primitive"/>
              </g>
              <g transform="translate(44.79,72.06)" id="img-091ad4df-63">
                <path d="M-0.25,-16.27 L 0.25 -16.27 0.25 16.27 -0.25 16.27 z" class="primitive"/>
              </g>
              <g transform="translate(45.23,88.33)" id="img-091ad4df-64">
                <path d="M-0.25,-0 L 0.25 -0 0.25 0 -0.25 0 z" class="primitive"/>
              </g>
              <g transform="translate(45.68,88.33)" id="img-091ad4df-65">
                <path d="M-0.25,-0 L 0.25 -0 0.25 0 -0.25 0 z" class="primitive"/>
              </g>
              <g transform="translate(46.12,80.19)" id="img-091ad4df-66">
                <path d="M-0.25,-8.13 L 0.25 -8.13 0.25 8.13 -0.25 8.13 z" class="primitive"/>
              </g>
              <g transform="translate(46.57,88.33)" id="img-091ad4df-67">
                <path d="M-0.25,-0 L 0.25 -0 0.25 0 -0.25 0 z" class="primitive"/>
              </g>
              <g transform="translate(47.01,72.06)" id="img-091ad4df-68">
                <path d="M-0.25,-16.27 L 0.25 -16.27 0.25 16.27 -0.25 16.27 z" class="primitive"/>
              </g>
              <g transform="translate(47.46,88.33)" id="img-091ad4df-69">
                <path d="M-0.25,-0 L 0.25 -0 0.25 0 -0.25 0 z" class="primitive"/>
              </g>
              <g transform="translate(47.9,80.19)" id="img-091ad4df-70">
                <path d="M-0.25,-8.13 L 0.25 -8.13 0.25 8.13 -0.25 8.13 z" class="primitive"/>
              </g>
              <g transform="translate(48.35,63.93)" id="img-091ad4df-71">
                <path d="M-0.25,-24.4 L 0.25 -24.4 0.25 24.4 -0.25 24.4 z" class="primitive"/>
              </g>
              <g transform="translate(48.79,72.06)" id="img-091ad4df-72">
                <path d="M-0.25,-16.27 L 0.25 -16.27 0.25 16.27 -0.25 16.27 z" class="primitive"/>
              </g>
              <g transform="translate(49.24,80.19)" id="img-091ad4df-73">
                <path d="M-0.25,-8.13 L 0.25 -8.13 0.25 8.13 -0.25 8.13 z" class="primitive"/>
              </g>
              <g transform="translate(49.68,88.33)" id="img-091ad4df-74">
                <path d="M-0.25,-0 L 0.25 -0 0.25 0 -0.25 0 z" class="primitive"/>
              </g>
              <g transform="translate(50.13,88.33)" id="img-091ad4df-75">
                <path d="M-0.25,-0 L 0.25 -0 0.25 0 -0.25 0 z" class="primitive"/>
              </g>
              <g transform="translate(50.57,80.19)" id="img-091ad4df-76">
                <path d="M-0.25,-8.13 L 0.25 -8.13 0.25 8.13 -0.25 8.13 z" class="primitive"/>
              </g>
              <g transform="translate(51.02,88.33)" id="img-091ad4df-77">
                <path d="M-0.25,-0 L 0.25 -0 0.25 0 -0.25 0 z" class="primitive"/>
              </g>
              <g transform="translate(51.46,72.06)" id="img-091ad4df-78">
                <path d="M-0.25,-16.27 L 0.25 -16.27 0.25 16.27 -0.25 16.27 z" class="primitive"/>
              </g>
              <g transform="translate(51.91,88.33)" id="img-091ad4df-79">
                <path d="M-0.25,-0 L 0.25 -0 0.25 0 -0.25 0 z" class="primitive"/>
              </g>
              <g transform="translate(52.35,88.33)" id="img-091ad4df-80">
                <path d="M-0.25,-0 L 0.25 -0 0.25 0 -0.25 0 z" class="primitive"/>
              </g>
              <g transform="translate(52.8,80.19)" id="img-091ad4df-81">
                <path d="M-0.25,-8.13 L 0.25 -8.13 0.25 8.13 -0.25 8.13 z" class="primitive"/>
              </g>
              <g transform="translate(53.24,88.33)" id="img-091ad4df-82">
                <path d="M-0.25,-0 L 0.25 -0 0.25 0 -0.25 0 z" class="primitive"/>
              </g>
              <g transform="translate(53.69,80.19)" id="img-091ad4df-83">
                <path d="M-0.25,-8.13 L 0.25 -8.13 0.25 8.13 -0.25 8.13 z" class="primitive"/>
              </g>
              <g transform="translate(54.13,88.33)" id="img-091ad4df-84">
                <path d="M-0.25,-0 L 0.25 -0 0.25 0 -0.25 0 z" class="primitive"/>
              </g>
              <g transform="translate(54.58,80.19)" id="img-091ad4df-85">
                <path d="M-0.25,-8.13 L 0.25 -8.13 0.25 8.13 -0.25 8.13 z" class="primitive"/>
              </g>
              <g transform="translate(55.02,55.8)" id="img-091ad4df-86">
                <path d="M-0.25,-32.53 L 0.25 -32.53 0.25 32.53 -0.25 32.53 z" class="primitive"/>
              </g>
              <g transform="translate(55.47,63.93)" id="img-091ad4df-87">
                <path d="M-0.25,-24.4 L 0.25 -24.4 0.25 24.4 -0.25 24.4 z" class="primitive"/>
              </g>
              <g transform="translate(55.91,47.66)" id="img-091ad4df-88">
                <path d="M-0.25,-40.66 L 0.25 -40.66 0.25 40.66 -0.25 40.66 z" class="primitive"/>
              </g>
              <g transform="translate(56.36,47.66)" id="img-091ad4df-89">
                <path d="M-0.25,-40.66 L 0.25 -40.66 0.25 40.66 -0.25 40.66 z" class="primitive"/>
              </g>
              <g transform="translate(56.8,63.93)" id="img-091ad4df-90">
                <path d="M-0.25,-24.4 L 0.25 -24.4 0.25 24.4 -0.25 24.4 z" class="primitive"/>
              </g>
              <g transform="translate(57.25,72.06)" id="img-091ad4df-91">
                <path d="M-0.25,-16.27 L 0.25 -16.27 0.25 16.27 -0.25 16.27 z" class="primitive"/>
              </g>
              <g transform="translate(57.69,72.06)" id="img-091ad4df-92">
                <path d="M-0.25,-16.27 L 0.25 -16.27 0.25 16.27 -0.25 16.27 z" class="primitive"/>
              </g>
              <g transform="translate(58.14,80.19)" id="img-091ad4df-93">
                <path d="M-0.25,-8.13 L 0.25 -8.13 0.25 8.13 -0.25 8.13 z" class="primitive"/>
              </g>
              <g transform="translate(58.58,88.33)" id="img-091ad4df-94">
                <path d="M-0.25,-0 L 0.25 -0 0.25 0 -0.25 0 z" class="primitive"/>
              </g>
              <g transform="translate(59.03,72.06)" id="img-091ad4df-95">
                <path d="M-0.25,-16.27 L 0.25 -16.27 0.25 16.27 -0.25 16.27 z" class="primitive"/>
              </g>
              <g transform="translate(59.47,72.06)" id="img-091ad4df-96">
                <path d="M-0.25,-16.27 L 0.25 -16.27 0.25 16.27 -0.25 16.27 z" class="primitive"/>
              </g>
              <g transform="translate(59.92,72.06)" id="img-091ad4df-97">
                <path d="M-0.25,-16.27 L 0.25 -16.27 0.25 16.27 -0.25 16.27 z" class="primitive"/>
              </g>
              <g transform="translate(60.36,88.33)" id="img-091ad4df-98">
                <path d="M-0.25,-0 L 0.25 -0 0.25 0 -0.25 0 z" class="primitive"/>
              </g>
              <g transform="translate(60.81,72.06)" id="img-091ad4df-99">
                <path d="M-0.25,-16.27 L 0.25 -16.27 0.25 16.27 -0.25 16.27 z" class="primitive"/>
              </g>
              <g transform="translate(61.25,72.06)" id="img-091ad4df-100">
                <path d="M-0.25,-16.27 L 0.25 -16.27 0.25 16.27 -0.25 16.27 z" class="primitive"/>
              </g>
              <g transform="translate(61.7,88.33)" id="img-091ad4df-101">
                <path d="M-0.25,-0 L 0.25 -0 0.25 0 -0.25 0 z" class="primitive"/>
              </g>
              <g transform="translate(62.14,72.06)" id="img-091ad4df-102">
                <path d="M-0.25,-16.27 L 0.25 -16.27 0.25 16.27 -0.25 16.27 z" class="primitive"/>
              </g>
              <g transform="translate(62.59,80.19)" id="img-091ad4df-103">
                <path d="M-0.25,-8.13 L 0.25 -8.13 0.25 8.13 -0.25 8.13 z" class="primitive"/>
              </g>
              <g transform="translate(63.03,72.06)" id="img-091ad4df-104">
                <path d="M-0.25,-16.27 L 0.25 -16.27 0.25 16.27 -0.25 16.27 z" class="primitive"/>
              </g>
              <g transform="translate(63.48,80.19)" id="img-091ad4df-105">
                <path d="M-0.25,-8.13 L 0.25 -8.13 0.25 8.13 -0.25 8.13 z" class="primitive"/>
              </g>
              <g transform="translate(63.92,80.19)" id="img-091ad4df-106">
                <path d="M-0.25,-8.13 L 0.25 -8.13 0.25 8.13 -0.25 8.13 z" class="primitive"/>
              </g>
              <g transform="translate(64.37,55.8)" id="img-091ad4df-107">
                <path d="M-0.25,-32.53 L 0.25 -32.53 0.25 32.53 -0.25 32.53 z" class="primitive"/>
              </g>
              <g transform="translate(64.81,80.19)" id="img-091ad4df-108">
                <path d="M-0.25,-8.13 L 0.25 -8.13 0.25 8.13 -0.25 8.13 z" class="primitive"/>
              </g>
              <g transform="translate(65.26,63.93)" id="img-091ad4df-109">
                <path d="M-0.25,-24.4 L 0.25 -24.4 0.25 24.4 -0.25 24.4 z" class="primitive"/>
              </g>
              <g transform="translate(65.7,80.19)" id="img-091ad4df-110">
                <path d="M-0.25,-8.13 L 0.25 -8.13 0.25 8.13 -0.25 8.13 z" class="primitive"/>
              </g>
              <g transform="translate(66.15,63.93)" id="img-091ad4df-111">
                <path d="M-0.25,-24.4 L 0.25 -24.4 0.25 24.4 -0.25 24.4 z" class="primitive"/>
              </g>
              <g transform="translate(66.59,80.19)" id="img-091ad4df-112">
                <path d="M-0.25,-8.13 L 0.25 -8.13 0.25 8.13 -0.25 8.13 z" class="primitive"/>
              </g>
              <g transform="translate(67.04,63.93)" id="img-091ad4df-113">
                <path d="M-0.25,-24.4 L 0.25 -24.4 0.25 24.4 -0.25 24.4 z" class="primitive"/>
              </g>
              <g transform="translate(67.48,72.06)" id="img-091ad4df-114">
                <path d="M-0.25,-16.27 L 0.25 -16.27 0.25 16.27 -0.25 16.27 z" class="primitive"/>
              </g>
              <g transform="translate(67.93,88.33)" id="img-091ad4df-115">
                <path d="M-0.25,-0 L 0.25 -0 0.25 0 -0.25 0 z" class="primitive"/>
              </g>
              <g transform="translate(68.37,72.06)" id="img-091ad4df-116">
                <path d="M-0.25,-16.27 L 0.25 -16.27 0.25 16.27 -0.25 16.27 z" class="primitive"/>
              </g>
              <g transform="translate(68.82,80.19)" id="img-091ad4df-117">
                <path d="M-0.25,-8.13 L 0.25 -8.13 0.25 8.13 -0.25 8.13 z" class="primitive"/>
              </g>
              <g transform="translate(69.26,80.19)" id="img-091ad4df-118">
                <path d="M-0.25,-8.13 L 0.25 -8.13 0.25 8.13 -0.25 8.13 z" class="primitive"/>
              </g>
              <g transform="translate(69.71,72.06)" id="img-091ad4df-119">
                <path d="M-0.25,-16.27 L 0.25 -16.27 0.25 16.27 -0.25 16.27 z" class="primitive"/>
              </g>
              <g transform="translate(70.15,88.33)" id="img-091ad4df-120">
                <path d="M-0.25,-0 L 0.25 -0 0.25 0 -0.25 0 z" class="primitive"/>
              </g>
              <g transform="translate(70.6,88.33)" id="img-091ad4df-121">
                <path d="M-0.25,-0 L 0.25 -0 0.25 0 -0.25 0 z" class="primitive"/>
              </g>
              <g transform="translate(71.04,80.19)" id="img-091ad4df-122">
                <path d="M-0.25,-8.13 L 0.25 -8.13 0.25 8.13 -0.25 8.13 z" class="primitive"/>
              </g>
              <g transform="translate(71.49,88.33)" id="img-091ad4df-123">
                <path d="M-0.25,-0 L 0.25 -0 0.25 0 -0.25 0 z" class="primitive"/>
              </g>
              <g transform="translate(71.93,80.19)" id="img-091ad4df-124">
                <path d="M-0.25,-8.13 L 0.25 -8.13 0.25 8.13 -0.25 8.13 z" class="primitive"/>
              </g>
              <g transform="translate(72.38,88.33)" id="img-091ad4df-125">
                <path d="M-0.25,-0 L 0.25 -0 0.25 0 -0.25 0 z" class="primitive"/>
              </g>
              <g transform="translate(72.82,80.19)" id="img-091ad4df-126">
                <path d="M-0.25,-8.13 L 0.25 -8.13 0.25 8.13 -0.25 8.13 z" class="primitive"/>
              </g>
              <g transform="translate(73.27,80.19)" id="img-091ad4df-127">
                <path d="M-0.25,-8.13 L 0.25 -8.13 0.25 8.13 -0.25 8.13 z" class="primitive"/>
              </g>
              <g transform="translate(73.71,88.33)" id="img-091ad4df-128">
                <path d="M-0.25,-0 L 0.25 -0 0.25 0 -0.25 0 z" class="primitive"/>
              </g>
              <g transform="translate(74.16,80.19)" id="img-091ad4df-129">
                <path d="M-0.25,-8.13 L 0.25 -8.13 0.25 8.13 -0.25 8.13 z" class="primitive"/>
              </g>
              <g transform="translate(74.6,88.33)" id="img-091ad4df-130">
                <path d="M-0.25,-0 L 0.25 -0 0.25 0 -0.25 0 z" class="primitive"/>
              </g>
              <g transform="translate(75.05,80.19)" id="img-091ad4df-131">
                <path d="M-0.25,-8.13 L 0.25 -8.13 0.25 8.13 -0.25 8.13 z" class="primitive"/>
              </g>
            </g>
          </g>
        </g>
      </g>
    </g>
  </g>
  <g class="guide ylabels" font-size="2.82" font-family="'PT Sans Caption','Helvetica Neue','Helvetica',sans-serif" fill="#6C606B" id="img-091ad4df-132">
    <g transform="translate(15.28,88.33)" id="img-091ad4df-133">
      <g class="primitive">
        <text text-anchor="end" dy="0.35em">0</text>
      </g>
    </g>
    <g transform="translate(15.28,72.06)" id="img-091ad4df-134">
      <g class="primitive">
        <text text-anchor="end" dy="0.35em">1</text>
      </g>
    </g>
    <g transform="translate(15.28,55.8)" id="img-091ad4df-135">
      <g class="primitive">
        <text text-anchor="end" dy="0.35em">2</text>
      </g>
    </g>
    <g transform="translate(15.28,39.53)" id="img-091ad4df-136">
      <g class="primitive">
        <text text-anchor="end" dy="0.35em">3</text>
      </g>
    </g>
    <g transform="translate(15.28,23.27)" id="img-091ad4df-137">
      <g class="primitive">
        <text text-anchor="end" dy="0.35em">4</text>
      </g>
    </g>
    <g transform="translate(15.28,7)" id="img-091ad4df-138">
      <g class="primitive">
        <text text-anchor="end" dy="0.35em">5</text>
      </g>
    </g>
  </g>
  <g font-size="3.88" font-family="'PT Sans','Helvetica Neue','Helvetica',sans-serif" fill="#564A55" stroke="#000000" stroke-opacity="0.000" id="img-091ad4df-139">
    <g transform="translate(8.81,45.66)" id="img-091ad4df-140">
      <g class="primitive">
        <text text-anchor="middle" dy="0.35em" transform="rotate(-90,0, 2)">frequency</text>
      </g>
    </g>
  </g>
</g>
<defs>
  <clipPath id="img-091ad4df-11">
    <path d="M16.28,5 L 77.68 5 77.68 90.33 16.28 90.33" />
  </clipPath>
</defs>
</svg>
