<?xml version="1.0" encoding="UTF-8"?>
<svg xmlns="http://www.w3.org/2000/svg"
     xmlns:xlink="http://www.w3.org/1999/xlink"
     xmlns:gadfly="http://www.gadflyjl.org/ns"
     version="1.2"
     width="141.42mm" height="100mm" viewBox="0 0 141.42 100"
     stroke="none"
     fill="#000000"
     stroke-width="0.3"
     font-size="3.88"
>
<defs>
  <marker id="arrow" markerWidth="15" markerHeight="7" refX="5" refY="3.5" orient="auto" markerUnits="strokeWidth">
    <path d="M0,0 L15,3.5 L0,7 z" stroke="context-stroke" fill="context-stroke"/>
  </marker>
</defs>
<g class="plotroot xscalable yscalable" id="img-f4034c3d-1">
  <g class="guide xlabels" font-size="2.82" font-family="'PT Sans Caption','Helvetica Neue','Helvetica',sans-serif" fill="#6C606B" id="img-f4034c3d-2">
    <g transform="translate(18.28,91.33)">
      <g class="primitive">
        <text text-anchor="middle" dy="0.6em">18.4</text>
      </g>
    </g>
    <g transform="translate(33.48,91.33)">
      <g class="primitive">
        <text text-anchor="middle" dy="0.6em">18.5</text>
      </g>
    </g>
    <g transform="translate(48.68,91.33)">
      <g class="primitive">
        <text text-anchor="middle" dy="0.6em">18.6</text>
      </g>
    </g>
    <g transform="translate(63.88,91.33)">
      <g class="primitive">
        <text text-anchor="middle" dy="0.6em">18.7</text>
      </g>
    </g>
    <g transform="translate(79.07,91.33)">
      <g class="primitive">
        <text text-anchor="middle" dy="0.6em">18.8</text>
      </g>
    </g>
  </g>
  <g class="guide colorkey" id="img-f4034c3d-3">
    <g class="color_coding_coding_coding_noncoding_4-clique" id="img-f4034c3d-4">
      <g fill="#4C404B" font-size="2.82" font-family="'PT Sans','Helvetica Neue','Helvetica',sans-serif" id="img-f4034c3d-5">
        <g transform="translate(84.89,49.48)" id="img-f4034c3d-6">
          <g class="primitive">
            <text dy="0.35em">coding_coding_coding_noncoding_4-clique</text>
          </g>
        </g>
      </g>
      <g fill-opacity="1" fill="#00BFFF" stroke="#FFFFFF" id="img-f4034c3d-7">
        <g transform="translate(82.98,49.48)" id="img-f4034c3d-8">
          <path d="M-0.91,-0.91 L 0.91 -0.91 0.91 0.91 -0.91 0.91 z" class="primitive"/>
        </g>
      </g>
    </g>
    <g fill="#362A35" font-size="3.88" font-family="'PT Sans','Helvetica Neue','Helvetica',sans-serif" stroke="#000000" stroke-opacity="0.000" id="img-f4034c3d-9">
      <g transform="translate(82.07,45.66)" id="img-f4034c3d-10">
        <g class="primitive">
          <text dy="-0em">graphlet</text>
        </g>
      </g>
    </g>
  </g>
  <g clip-path="url(#img-f4034c3d-11)">
    <g id="img-f4034c3d-12">
      <g pointer-events="visible" stroke-width="0.3" fill="#000000" fill-opacity="0.000" stroke="#000000" stroke-opacity="0.000" class="guide background" id="img-f4034c3d-13">
        <g transform="translate(48.68,47.66)" id="img-f4034c3d-14">
          <path d="M-32.39,-42.66 L 32.39 -42.66 32.39 42.66 -32.39 42.66 z" class="primitive"/>
        </g>
      </g>
      <g class="guide ygridlines xfixed" stroke-dasharray="0.5,0.5" stroke-width="0.2" stroke="#D0D0E0" id="img-f4034c3d-15">
        <g transform="translate(48.68,88.33)" id="img-f4034c3d-16">
          <path fill="none" d="M-32.39,0 L 32.39 0" class="primitive"/>
        </g>
        <g transform="translate(48.68,68)" id="img-f4034c3d-17">
          <path fill="none" d="M-32.39,0 L 32.39 0" class="primitive"/>
        </g>
        <g transform="translate(48.68,47.66)" id="img-f4034c3d-18">
          <path fill="none" d="M-32.39,0 L 32.39 0" class="primitive"/>
        </g>
        <g transform="translate(48.68,27.33)" id="img-f4034c3d-19">
          <path fill="none" d="M-32.39,0 L 32.39 0" class="primitive"/>
        </g>
        <g transform="translate(48.68,7)" id="img-f4034c3d-20">
          <path fill="none" d="M-32.39,0 L 32.39 0" class="primitive"/>
        </g>
      </g>
      <g class="guide xgridlines yfixed" stroke-dasharray="0.5,0.5" stroke-width="0.2" stroke="#D0D0E0" id="img-f4034c3d-21">
        <g transform="translate(18.28,47.66)" id="img-f4034c3d-22">
          <path fill="none" d="M0,-42.66 L 0 42.66" class="primitive"/>
        </g>
        <g transform="translate(33.48,47.66)" id="img-f4034c3d-23">
          <path fill="none" d="M0,-42.66 L 0 42.66" class="primitive"/>
        </g>
        <g transform="translate(48.68,47.66)" id="img-f4034c3d-24">
          <path fill="none" d="M0,-42.66 L 0 42.66" class="primitive"/>
        </g>
        <g transform="translate(63.88,47.66)" id="img-f4034c3d-25">
          <path fill="none" d="M0,-42.66 L 0 42.66" class="primitive"/>
        </g>
        <g transform="translate(79.07,47.66)" id="img-f4034c3d-26">
          <path fill="none" d="M0,-42.66 L 0 42.66" class="primitive"/>
        </g>
      </g>
      <g class="plotpanel" id="img-f4034c3d-27">
        <metadata>
          <boundingbox value="16.284999999999997mm 5.0mm 64.78968957064285mm 85.32666666666667mm"/>
          <unitbox value="18.38683987357642 8.196737437494876 0.4263202528471637 -8.393474874989753"/>
        </metadata>
        <g shape-rendering="crispEdges" stroke-width="0.3" id="img-f4034c3d-28">
          <g stroke="#000000" stroke-opacity="0.000" class="geometry" id="img-f4034c3d-29">
            <g fill="#00BFFF" id="img-f4034c3d-30">
              <g transform="translate(24.77,83.24)" id="img-f4034c3d-31">
                <path d="M-0.26,-5.08 L 0.26 -5.08 0.26 5.08 -0.26 5.08 z" class="primitive"/>
              </g>
              <g transform="translate(25.23,88.33)" id="img-f4034c3d-32">
                <path d="M-0.26,-0 L 0.26 -0 0.26 0 -0.26 0 z" class="primitive"/>
              </g>
              <g transform="translate(25.69,88.33)" id="img-f4034c3d-33">
                <path d="M-0.26,-0 L 0.26 -0 0.26 0 -0.26 0 z" class="primitive"/>
              </g>
              <g transform="translate(26.16,88.33)" id="img-f4034c3d-34">
                <path d="M-0.26,-0 L 0.26 -0 0.26 0 -0.26 0 z" class="primitive"/>
              </g>
              <g transform="translate(26.62,88.33)" id="img-f4034c3d-35">
                <path d="M-0.26,-0 L 0.26 -0 0.26 0 -0.26 0 z" class="primitive"/>
              </g>
              <g transform="translate(27.09,88.33)" id="img-f4034c3d-36">
                <path d="M-0.26,-0 L 0.26 -0 0.26 0 -0.26 0 z" class="primitive"/>
              </g>
              <g transform="translate(27.55,88.33)" id="img-f4034c3d-37">
                <path d="M-0.26,-0 L 0.26 -0 0.26 0 -0.26 0 z" class="primitive"/>
              </g>
              <g transform="translate(28.02,88.33)" id="img-f4034c3d-38">
                <path d="M-0.26,-0 L 0.26 -0 0.26 0 -0.26 0 z" class="primitive"/>
              </g>
              <g transform="translate(28.48,88.33)" id="img-f4034c3d-39">
                <path d="M-0.26,-0 L 0.26 -0 0.26 0 -0.26 0 z" class="primitive"/>
              </g>
              <g transform="translate(28.95,88.33)" id="img-f4034c3d-40">
                <path d="M-0.26,-0 L 0.26 -0 0.26 0 -0.26 0 z" class="primitive"/>
              </g>
              <g transform="translate(29.41,88.33)" id="img-f4034c3d-41">
                <path d="M-0.26,-0 L 0.26 -0 0.26 0 -0.26 0 z" class="primitive"/>
              </g>
              <g transform="translate(29.88,88.33)" id="img-f4034c3d-42">
                <path d="M-0.26,-0 L 0.26 -0 0.26 0 -0.26 0 z" class="primitive"/>
              </g>
              <g transform="translate(30.34,88.33)" id="img-f4034c3d-43">
                <path d="M-0.26,-0 L 0.26 -0 0.26 0 -0.26 0 z" class="primitive"/>
              </g>
              <g transform="translate(30.8,88.33)" id="img-f4034c3d-44">
                <path d="M-0.26,-0 L 0.26 -0 0.26 0 -0.26 0 z" class="primitive"/>
              </g>
              <g transform="translate(31.27,88.33)" id="img-f4034c3d-45">
                <path d="M-0.26,-0 L 0.26 -0 0.26 0 -0.26 0 z" class="primitive"/>
              </g>
              <g transform="translate(31.73,88.33)" id="img-f4034c3d-46">
                <path d="M-0.26,-0 L 0.26 -0 0.26 0 -0.26 0 z" class="primitive"/>
              </g>
              <g transform="translate(32.2,88.33)" id="img-f4034c3d-47">
                <path d="M-0.26,-0 L 0.26 -0 0.26 0 -0.26 0 z" class="primitive"/>
              </g>
              <g transform="translate(32.66,88.33)" id="img-f4034c3d-48">
                <path d="M-0.26,-0 L 0.26 -0 0.26 0 -0.26 0 z" class="primitive"/>
              </g>
              <g transform="translate(33.13,88.33)" id="img-f4034c3d-49">
                <path d="M-0.26,-0 L 0.26 -0 0.26 0 -0.26 0 z" class="primitive"/>
              </g>
              <g transform="translate(33.59,88.33)" id="img-f4034c3d-50">
                <path d="M-0.26,-0 L 0.26 -0 0.26 0 -0.26 0 z" class="primitive"/>
              </g>
              <g transform="translate(34.06,88.33)" id="img-f4034c3d-51">
                <path d="M-0.26,-0 L 0.26 -0 0.26 0 -0.26 0 z" class="primitive"/>
              </g>
              <g transform="translate(34.52,88.33)" id="img-f4034c3d-52">
                <path d="M-0.26,-0 L 0.26 -0 0.26 0 -0.26 0 z" class="primitive"/>
              </g>
              <g transform="translate(34.98,88.33)" id="img-f4034c3d-53">
                <path d="M-0.26,-0 L 0.26 -0 0.26 0 -0.26 0 z" class="primitive"/>
              </g>
              <g transform="translate(35.45,88.33)" id="img-f4034c3d-54">
                <path d="M-0.26,-0 L 0.26 -0 0.26 0 -0.26 0 z" class="primitive"/>
              </g>
              <g transform="translate(35.91,88.33)" id="img-f4034c3d-55">
                <path d="M-0.26,-0 L 0.26 -0 0.26 0 -0.26 0 z" class="primitive"/>
              </g>
              <g transform="translate(36.38,88.33)" id="img-f4034c3d-56">
                <path d="M-0.26,-0 L 0.26 -0 0.26 0 -0.26 0 z" class="primitive"/>
              </g>
              <g transform="translate(36.84,88.33)" id="img-f4034c3d-57">
                <path d="M-0.26,-0 L 0.26 -0 0.26 0 -0.26 0 z" class="primitive"/>
              </g>
              <g transform="translate(37.31,88.33)" id="img-f4034c3d-58">
                <path d="M-0.26,-0 L 0.26 -0 0.26 0 -0.26 0 z" class="primitive"/>
              </g>
              <g transform="translate(37.77,83.24)" id="img-f4034c3d-59">
                <path d="M-0.26,-5.08 L 0.26 -5.08 0.26 5.08 -0.26 5.08 z" class="primitive"/>
              </g>
              <g transform="translate(38.24,88.33)" id="img-f4034c3d-60">
                <path d="M-0.26,-0 L 0.26 -0 0.26 0 -0.26 0 z" class="primitive"/>
              </g>
              <g transform="translate(38.7,83.24)" id="img-f4034c3d-61">
                <path d="M-0.26,-5.08 L 0.26 -5.08 0.26 5.08 -0.26 5.08 z" class="primitive"/>
              </g>
              <g transform="translate(39.17,88.33)" id="img-f4034c3d-62">
                <path d="M-0.26,-0 L 0.26 -0 0.26 0 -0.26 0 z" class="primitive"/>
              </g>
              <g transform="translate(39.63,88.33)" id="img-f4034c3d-63">
                <path d="M-0.26,-0 L 0.26 -0 0.26 0 -0.26 0 z" class="primitive"/>
              </g>
              <g transform="translate(40.09,88.33)" id="img-f4034c3d-64">
                <path d="M-0.26,-0 L 0.26 -0 0.26 0 -0.26 0 z" class="primitive"/>
              </g>
              <g transform="translate(40.56,88.33)" id="img-f4034c3d-65">
                <path d="M-0.26,-0 L 0.26 -0 0.26 0 -0.26 0 z" class="primitive"/>
              </g>
              <g transform="translate(41.02,88.33)" id="img-f4034c3d-66">
                <path d="M-0.26,-0 L 0.26 -0 0.26 0 -0.26 0 z" class="primitive"/>
              </g>
              <g transform="translate(41.49,88.33)" id="img-f4034c3d-67">
                <path d="M-0.26,-0 L 0.26 -0 0.26 0 -0.26 0 z" class="primitive"/>
              </g>
              <g transform="translate(41.95,83.24)" id="img-f4034c3d-68">
                <path d="M-0.26,-5.08 L 0.26 -5.08 0.26 5.08 -0.26 5.08 z" class="primitive"/>
              </g>
              <g transform="translate(42.42,88.33)" id="img-f4034c3d-69">
                <path d="M-0.26,-0 L 0.26 -0 0.26 0 -0.26 0 z" class="primitive"/>
              </g>
              <g transform="translate(42.88,88.33)" id="img-f4034c3d-70">
                <path d="M-0.26,-0 L 0.26 -0 0.26 0 -0.26 0 z" class="primitive"/>
              </g>
              <g transform="translate(43.35,78.16)" id="img-f4034c3d-71">
                <path d="M-0.26,-10.17 L 0.26 -10.17 0.26 10.17 -0.26 10.17 z" class="primitive"/>
              </g>
              <g transform="translate(43.81,83.24)" id="img-f4034c3d-72">
                <path d="M-0.26,-5.08 L 0.26 -5.08 0.26 5.08 -0.26 5.08 z" class="primitive"/>
              </g>
              <g transform="translate(44.28,83.24)" id="img-f4034c3d-73">
                <path d="M-0.26,-5.08 L 0.26 -5.08 0.26 5.08 -0.26 5.08 z" class="primitive"/>
              </g>
              <g transform="translate(44.74,88.33)" id="img-f4034c3d-74">
                <path d="M-0.26,-0 L 0.26 -0 0.26 0 -0.26 0 z" class="primitive"/>
              </g>
              <g transform="translate(45.2,88.33)" id="img-f4034c3d-75">
                <path d="M-0.26,-0 L 0.26 -0 0.26 0 -0.26 0 z" class="primitive"/>
              </g>
              <g transform="translate(45.67,88.33)" id="img-f4034c3d-76">
                <path d="M-0.26,-0 L 0.26 -0 0.26 0 -0.26 0 z" class="primitive"/>
              </g>
              <g transform="translate(46.13,78.16)" id="img-f4034c3d-77">
                <path d="M-0.26,-10.17 L 0.26 -10.17 0.26 10.17 -0.26 10.17 z" class="primitive"/>
              </g>
              <g transform="translate(46.6,88.33)" id="img-f4034c3d-78">
                <path d="M-0.26,-0 L 0.26 -0 0.26 0 -0.26 0 z" class="primitive"/>
              </g>
              <g transform="translate(47.06,78.16)" id="img-f4034c3d-79">
                <path d="M-0.26,-10.17 L 0.26 -10.17 0.26 10.17 -0.26 10.17 z" class="primitive"/>
              </g>
              <g transform="translate(47.53,83.24)" id="img-f4034c3d-80">
                <path d="M-0.26,-5.08 L 0.26 -5.08 0.26 5.08 -0.26 5.08 z" class="primitive"/>
              </g>
              <g transform="translate(47.99,88.33)" id="img-f4034c3d-81">
                <path d="M-0.26,-0 L 0.26 -0 0.26 0 -0.26 0 z" class="primitive"/>
              </g>
              <g transform="translate(48.46,83.24)" id="img-f4034c3d-82">
                <path d="M-0.26,-5.08 L 0.26 -5.08 0.26 5.08 -0.26 5.08 z" class="primitive"/>
              </g>
              <g transform="translate(48.92,83.24)" id="img-f4034c3d-83">
                <path d="M-0.26,-5.08 L 0.26 -5.08 0.26 5.08 -0.26 5.08 z" class="primitive"/>
              </g>
              <g transform="translate(49.38,83.24)" id="img-f4034c3d-84">
                <path d="M-0.26,-5.08 L 0.26 -5.08 0.26 5.08 -0.26 5.08 z" class="primitive"/>
              </g>
              <g transform="translate(49.85,83.24)" id="img-f4034c3d-85">
                <path d="M-0.26,-5.08 L 0.26 -5.08 0.26 5.08 -0.26 5.08 z" class="primitive"/>
              </g>
              <g transform="translate(50.31,78.16)" id="img-f4034c3d-86">
                <path d="M-0.26,-10.17 L 0.26 -10.17 0.26 10.17 -0.26 10.17 z" class="primitive"/>
              </g>
              <g transform="translate(50.78,73.08)" id="img-f4034c3d-87">
                <path d="M-0.26,-15.25 L 0.26 -15.25 0.26 15.25 -0.26 15.25 z" class="primitive"/>
              </g>
              <g transform="translate(51.24,83.24)" id="img-f4034c3d-88">
                <path d="M-0.26,-5.08 L 0.26 -5.08 0.26 5.08 -0.26 5.08 z" class="primitive"/>
              </g>
              <g transform="translate(51.71,78.16)" id="img-f4034c3d-89">
                <path d="M-0.26,-10.17 L 0.26 -10.17 0.26 10.17 -0.26 10.17 z" class="primitive"/>
              </g>
              <g transform="translate(52.17,73.08)" id="img-f4034c3d-90">
                <path d="M-0.26,-15.25 L 0.26 -15.25 0.26 15.25 -0.26 15.25 z" class="primitive"/>
              </g>
              <g transform="translate(52.64,73.08)" id="img-f4034c3d-91">
                <path d="M-0.26,-15.25 L 0.26 -15.25 0.26 15.25 -0.26 15.25 z" class="primitive"/>
              </g>
              <g transform="translate(53.1,78.16)" id="img-f4034c3d-92">
                <path d="M-0.26,-10.17 L 0.26 -10.17 0.26 10.17 -0.26 10.17 z" class="primitive"/>
              </g>
              <g transform="translate(53.57,83.24)" id="img-f4034c3d-93">
                <path d="M-0.26,-5.08 L 0.26 -5.08 0.26 5.08 -0.26 5.08 z" class="primitive"/>
              </g>
              <g transform="translate(54.03,88.33)" id="img-f4034c3d-94">
                <path d="M-0.26,-0 L 0.26 -0 0.26 0 -0.26 0 z" class="primitive"/>
              </g>
              <g transform="translate(54.49,83.24)" id="img-f4034c3d-95">
                <path d="M-0.26,-5.08 L 0.26 -5.08 0.26 5.08 -0.26 5.08 z" class="primitive"/>
              </g>
              <g transform="translate(54.96,88.33)" id="img-f4034c3d-96">
                <path d="M-0.26,-0 L 0.26 -0 0.26 0 -0.26 0 z" class="primitive"/>
              </g>
              <g transform="translate(55.42,83.24)" id="img-f4034c3d-97">
                <path d="M-0.26,-5.08 L 0.26 -5.08 0.26 5.08 -0.26 5.08 z" class="primitive"/>
              </g>
              <g transform="translate(55.89,88.33)" id="img-f4034c3d-98">
                <path d="M-0.26,-0 L 0.26 -0 0.26 0 -0.26 0 z" class="primitive"/>
              </g>
              <g transform="translate(56.35,57.83)" id="img-f4034c3d-99">
                <path d="M-0.26,-30.5 L 0.26 -30.5 0.26 30.5 -0.26 30.5 z" class="primitive"/>
              </g>
              <g transform="translate(56.82,78.16)" id="img-f4034c3d-100">
                <path d="M-0.26,-10.17 L 0.26 -10.17 0.26 10.17 -0.26 10.17 z" class="primitive"/>
              </g>
              <g transform="translate(57.28,78.16)" id="img-f4034c3d-101">
                <path d="M-0.26,-10.17 L 0.26 -10.17 0.26 10.17 -0.26 10.17 z" class="primitive"/>
              </g>
              <g transform="translate(57.75,73.08)" id="img-f4034c3d-102">
                <path d="M-0.26,-15.25 L 0.26 -15.25 0.26 15.25 -0.26 15.25 z" class="primitive"/>
              </g>
              <g transform="translate(58.21,83.24)" id="img-f4034c3d-103">
                <path d="M-0.26,-5.08 L 0.26 -5.08 0.26 5.08 -0.26 5.08 z" class="primitive"/>
              </g>
              <g transform="translate(58.68,78.16)" id="img-f4034c3d-104">
                <path d="M-0.26,-10.17 L 0.26 -10.17 0.26 10.17 -0.26 10.17 z" class="primitive"/>
              </g>
              <g transform="translate(59.14,62.91)" id="img-f4034c3d-105">
                <path d="M-0.26,-25.41 L 0.26 -25.41 0.26 25.41 -0.26 25.41 z" class="primitive"/>
              </g>
              <g transform="translate(59.6,83.24)" id="img-f4034c3d-106">
                <path d="M-0.26,-5.08 L 0.26 -5.08 0.26 5.08 -0.26 5.08 z" class="primitive"/>
              </g>
              <g transform="translate(60.07,68)" id="img-f4034c3d-107">
                <path d="M-0.26,-20.33 L 0.26 -20.33 0.26 20.33 -0.26 20.33 z" class="primitive"/>
              </g>
              <g transform="translate(60.53,83.24)" id="img-f4034c3d-108">
                <path d="M-0.26,-5.08 L 0.26 -5.08 0.26 5.08 -0.26 5.08 z" class="primitive"/>
              </g>
              <g transform="translate(61,68)" id="img-f4034c3d-109">
                <path d="M-0.26,-20.33 L 0.26 -20.33 0.26 20.33 -0.26 20.33 z" class="primitive"/>
              </g>
              <g transform="translate(61.46,73.08)" id="img-f4034c3d-110">
                <path d="M-0.26,-15.25 L 0.26 -15.25 0.26 15.25 -0.26 15.25 z" class="primitive"/>
              </g>
              <g transform="translate(61.93,62.91)" id="img-f4034c3d-111">
                <path d="M-0.26,-25.41 L 0.26 -25.41 0.26 25.41 -0.26 25.41 z" class="primitive"/>
              </g>
              <g transform="translate(62.39,83.24)" id="img-f4034c3d-112">
                <path d="M-0.26,-5.08 L 0.26 -5.08 0.26 5.08 -0.26 5.08 z" class="primitive"/>
              </g>
              <g transform="translate(62.86,83.24)" id="img-f4034c3d-113">
                <path d="M-0.26,-5.08 L 0.26 -5.08 0.26 5.08 -0.26 5.08 z" class="primitive"/>
              </g>
              <g transform="translate(63.32,52.75)" id="img-f4034c3d-114">
                <path d="M-0.26,-35.58 L 0.26 -35.58 0.26 35.58 -0.26 35.58 z" class="primitive"/>
              </g>
              <g transform="translate(63.78,88.33)" id="img-f4034c3d-115">
                <path d="M-0.26,-0 L 0.26 -0 0.26 0 -0.26 0 z" class="primitive"/>
              </g>
              <g transform="translate(64.25,68)" id="img-f4034c3d-116">
                <path d="M-0.26,-20.33 L 0.26 -20.33 0.26 20.33 -0.26 20.33 z" class="primitive"/>
              </g>
              <g transform="translate(64.71,73.08)" id="img-f4034c3d-117">
                <path d="M-0.26,-15.25 L 0.26 -15.25 0.26 15.25 -0.26 15.25 z" class="primitive"/>
              </g>
              <g transform="translate(65.18,83.24)" id="img-f4034c3d-118">
                <path d="M-0.26,-5.08 L 0.26 -5.08 0.26 5.08 -0.26 5.08 z" class="primitive"/>
              </g>
              <g transform="translate(65.64,83.24)" id="img-f4034c3d-119">
                <path d="M-0.26,-5.08 L 0.26 -5.08 0.26 5.08 -0.26 5.08 z" class="primitive"/>
              </g>
              <g transform="translate(66.11,83.24)" id="img-f4034c3d-120">
                <path d="M-0.26,-5.08 L 0.26 -5.08 0.26 5.08 -0.26 5.08 z" class="primitive"/>
              </g>
              <g transform="translate(66.57,83.24)" id="img-f4034c3d-121">
                <path d="M-0.26,-5.08 L 0.26 -5.08 0.26 5.08 -0.26 5.08 z" class="primitive"/>
              </g>
              <g transform="translate(67.04,83.24)" id="img-f4034c3d-122">
                <path d="M-0.26,-5.08 L 0.26 -5.08 0.26 5.08 -0.26 5.08 z" class="primitive"/>
              </g>
              <g transform="translate(67.5,83.24)" id="img-f4034c3d-123">
                <path d="M-0.26,-5.08 L 0.26 -5.08 0.26 5.08 -0.26 5.08 z" class="primitive"/>
              </g>
              <g transform="translate(67.97,83.24)" id="img-f4034c3d-124">
                <path d="M-0.26,-5.08 L 0.26 -5.08 0.26 5.08 -0.26 5.08 z" class="primitive"/>
              </g>
              <g transform="translate(68.43,88.33)" id="img-f4034c3d-125">
                <path d="M-0.26,-0 L 0.26 -0 0.26 0 -0.26 0 z" class="primitive"/>
              </g>
              <g transform="translate(68.89,88.33)" id="img-f4034c3d-126">
                <path d="M-0.26,-0 L 0.26 -0 0.26 0 -0.26 0 z" class="primitive"/>
              </g>
              <g transform="translate(69.36,88.33)" id="img-f4034c3d-127">
                <path d="M-0.26,-0 L 0.26 -0 0.26 0 -0.26 0 z" class="primitive"/>
              </g>
              <g transform="translate(69.82,83.24)" id="img-f4034c3d-128">
                <path d="M-0.26,-5.08 L 0.26 -5.08 0.26 5.08 -0.26 5.08 z" class="primitive"/>
              </g>
              <g transform="translate(70.29,88.33)" id="img-f4034c3d-129">
                <path d="M-0.26,-0 L 0.26 -0 0.26 0 -0.26 0 z" class="primitive"/>
              </g>
              <g transform="translate(70.75,83.24)" id="img-f4034c3d-130">
                <path d="M-0.26,-5.08 L 0.26 -5.08 0.26 5.08 -0.26 5.08 z" class="primitive"/>
              </g>
            </g>
          </g>
        </g>
      </g>
    </g>
  </g>
  <g class="guide ylabels" font-size="2.82" font-family="'PT Sans Caption','Helvetica Neue','Helvetica',sans-serif" fill="#6C606B" id="img-f4034c3d-131">
    <g transform="translate(15.28,88.33)" id="img-f4034c3d-132">
      <g class="primitive">
        <text text-anchor="end" dy="0.35em">0</text>
      </g>
    </g>
    <g transform="translate(15.28,68)" id="img-f4034c3d-133">
      <g class="primitive">
        <text text-anchor="end" dy="0.35em">2</text>
      </g>
    </g>
    <g transform="translate(15.28,47.66)" id="img-f4034c3d-134">
      <g class="primitive">
        <text text-anchor="end" dy="0.35em">4</text>
      </g>
    </g>
    <g transform="translate(15.28,27.33)" id="img-f4034c3d-135">
      <g class="primitive">
        <text text-anchor="end" dy="0.35em">6</text>
      </g>
    </g>
    <g transform="translate(15.28,7)" id="img-f4034c3d-136">
      <g class="primitive">
        <text text-anchor="end" dy="0.35em">8</text>
      </g>
    </g>
  </g>
  <g font-size="3.88" font-family="'PT Sans','Helvetica Neue','Helvetica',sans-serif" fill="#564A55" stroke="#000000" stroke-opacity="0.000" id="img-f4034c3d-137">
    <g transform="translate(8.81,45.66)" id="img-f4034c3d-138">
      <g class="primitive">
        <text text-anchor="middle" dy="0.35em" transform="rotate(-90,0, 2)">frequency</text>
      </g>
    </g>
  </g>
</g>
<defs>
  <clipPath id="img-f4034c3d-11">
    <path d="M16.28,5 L 81.07 5 81.07 90.33 16.28 90.33" />
  </clipPath>
</defs>
</svg>
