<?xml version="1.0" encoding="UTF-8"?>
<svg xmlns="http://www.w3.org/2000/svg"
     xmlns:xlink="http://www.w3.org/1999/xlink"
     xmlns:gadfly="http://www.gadflyjl.org/ns"
     version="1.2"
     width="141.42mm" height="100mm" viewBox="0 0 141.42 100"
     stroke="none"
     fill="#000000"
     stroke-width="0.3"
     font-size="3.88"
>
<defs>
  <marker id="arrow" markerWidth="15" markerHeight="7" refX="5" refY="3.5" orient="auto" markerUnits="strokeWidth">
    <path d="M0,0 L15,3.5 L0,7 z" stroke="context-stroke" fill="context-stroke"/>
  </marker>
</defs>
<g class="plotroot xscalable yscalable" id="img-093222b4-1">
  <g class="guide xlabels" font-size="2.82" font-family="'PT Sans Caption','Helvetica Neue','Helvetica',sans-serif" fill="#6C606B" id="img-093222b4-2">
    <g transform="translate(18.29,91.33)">
      <g class="primitive">
        <text text-anchor="middle" dy="0.6em">13.0</text>
      </g>
    </g>
    <g transform="translate(31.31,91.33)">
      <g class="primitive">
        <text text-anchor="middle" dy="0.6em">13.5</text>
      </g>
    </g>
    <g transform="translate(44.34,91.33)">
      <g class="primitive">
        <text text-anchor="middle" dy="0.6em">14.0</text>
      </g>
    </g>
    <g transform="translate(57.37,91.33)">
      <g class="primitive">
        <text text-anchor="middle" dy="0.6em">14.5</text>
      </g>
    </g>
    <g transform="translate(70.4,91.33)">
      <g class="primitive">
        <text text-anchor="middle" dy="0.6em">15.0</text>
      </g>
    </g>
  </g>
  <g class="guide colorkey" id="img-093222b4-3">
    <g class="color_coding_noncoding_noncoding_noncoding_4-chord" id="img-093222b4-4">
      <g fill="#4C404B" font-size="2.82" font-family="'PT Sans','Helvetica Neue','Helvetica',sans-serif" id="img-093222b4-5">
        <g transform="translate(76.21,49.48)" id="img-093222b4-6">
          <g class="primitive">
            <text dy="0.35em">coding_noncoding_noncoding_noncoding_4-chord</text>
          </g>
        </g>
      </g>
      <g fill-opacity="1" fill="#00BFFF" stroke="#FFFFFF" id="img-093222b4-7">
        <g transform="translate(74.31,49.48)" id="img-093222b4-8">
          <path d="M-0.91,-0.91 L 0.91 -0.91 0.91 0.91 -0.91 0.91 z" class="primitive"/>
        </g>
      </g>
    </g>
    <g fill="#362A35" font-size="3.88" font-family="'PT Sans','Helvetica Neue','Helvetica',sans-serif" stroke="#000000" stroke-opacity="0.000" id="img-093222b4-9">
      <g transform="translate(73.4,45.66)" id="img-093222b4-10">
        <g class="primitive">
          <text dy="-0em">graphlet</text>
        </g>
      </g>
    </g>
  </g>
  <g clip-path="url(#img-093222b4-11)">
    <g id="img-093222b4-12">
      <g pointer-events="visible" stroke-width="0.3" fill="#000000" fill-opacity="0.000" stroke="#000000" stroke-opacity="0.000" class="guide background" id="img-093222b4-13">
        <g transform="translate(44.34,47.66)" id="img-093222b4-14">
          <path d="M-28.06,-42.66 L 28.06 -42.66 28.06 42.66 -28.06 42.66 z" class="primitive"/>
        </g>
      </g>
      <g class="guide ygridlines xfixed" stroke-dasharray="0.5,0.5" stroke-width="0.2" stroke="#D0D0E0" id="img-093222b4-15">
        <g transform="translate(44.34,88.33)" id="img-093222b4-16">
          <path fill="none" d="M-28.06,0 L 28.06 0" class="primitive"/>
        </g>
        <g transform="translate(44.34,74.77)" id="img-093222b4-17">
          <path fill="none" d="M-28.06,0 L 28.06 0" class="primitive"/>
        </g>
        <g transform="translate(44.34,61.22)" id="img-093222b4-18">
          <path fill="none" d="M-28.06,0 L 28.06 0" class="primitive"/>
        </g>
        <g transform="translate(44.34,47.66)" id="img-093222b4-19">
          <path fill="none" d="M-28.06,0 L 28.06 0" class="primitive"/>
        </g>
        <g transform="translate(44.34,34.11)" id="img-093222b4-20">
          <path fill="none" d="M-28.06,0 L 28.06 0" class="primitive"/>
        </g>
        <g transform="translate(44.34,20.55)" id="img-093222b4-21">
          <path fill="none" d="M-28.06,0 L 28.06 0" class="primitive"/>
        </g>
        <g transform="translate(44.34,7)" id="img-093222b4-22">
          <path fill="none" d="M-28.06,0 L 28.06 0" class="primitive"/>
        </g>
      </g>
      <g class="guide xgridlines yfixed" stroke-dasharray="0.5,0.5" stroke-width="0.2" stroke="#D0D0E0" id="img-093222b4-23">
        <g transform="translate(18.29,47.66)" id="img-093222b4-24">
          <path fill="none" d="M0,-42.66 L 0 42.66" class="primitive"/>
        </g>
        <g transform="translate(31.31,47.66)" id="img-093222b4-25">
          <path fill="none" d="M0,-42.66 L 0 42.66" class="primitive"/>
        </g>
        <g transform="translate(44.34,47.66)" id="img-093222b4-26">
          <path fill="none" d="M0,-42.66 L 0 42.66" class="primitive"/>
        </g>
        <g transform="translate(57.37,47.66)" id="img-093222b4-27">
          <path fill="none" d="M0,-42.66 L 0 42.66" class="primitive"/>
        </g>
        <g transform="translate(70.4,47.66)" id="img-093222b4-28">
          <path fill="none" d="M0,-42.66 L 0 42.66" class="primitive"/>
        </g>
      </g>
      <g class="plotpanel" id="img-093222b4-29">
        <metadata>
          <boundingbox value="16.284999999999997mm 5.0mm 56.1163562373095mm 85.32666666666667mm"/>
          <unitbox value="12.923248663398757 6.147553078121158 2.153502673202485 -6.295106156242315"/>
        </metadata>
        <g shape-rendering="crispEdges" stroke-width="0.3" id="img-093222b4-30">
          <g stroke="#000000" stroke-opacity="0.000" class="geometry" id="img-093222b4-31">
            <g fill="#00BFFF" id="img-093222b4-32">
              <g transform="translate(19.58,81.55)" id="img-093222b4-33">
                <path d="M-0.22,-6.78 L 0.22 -6.78 0.22 6.78 -0.22 6.78 z" class="primitive"/>
              </g>
              <g transform="translate(19.97,88.33)" id="img-093222b4-34">
                <path d="M-0.22,-0 L 0.22 -0 0.22 0 -0.22 0 z" class="primitive"/>
              </g>
              <g transform="translate(20.35,88.33)" id="img-093222b4-35">
                <path d="M-0.22,-0 L 0.22 -0 0.22 0 -0.22 0 z" class="primitive"/>
              </g>
              <g transform="translate(20.73,88.33)" id="img-093222b4-36">
                <path d="M-0.22,-0 L 0.22 -0 0.22 0 -0.22 0 z" class="primitive"/>
              </g>
              <g transform="translate(21.12,88.33)" id="img-093222b4-37">
                <path d="M-0.22,-0 L 0.22 -0 0.22 0 -0.22 0 z" class="primitive"/>
              </g>
              <g transform="translate(21.5,88.33)" id="img-093222b4-38">
                <path d="M-0.22,-0 L 0.22 -0 0.22 0 -0.22 0 z" class="primitive"/>
              </g>
              <g transform="translate(21.88,88.33)" id="img-093222b4-39">
                <path d="M-0.22,-0 L 0.22 -0 0.22 0 -0.22 0 z" class="primitive"/>
              </g>
              <g transform="translate(22.27,88.33)" id="img-093222b4-40">
                <path d="M-0.22,-0 L 0.22 -0 0.22 0 -0.22 0 z" class="primitive"/>
              </g>
              <g transform="translate(22.65,88.33)" id="img-093222b4-41">
                <path d="M-0.22,-0 L 0.22 -0 0.22 0 -0.22 0 z" class="primitive"/>
              </g>
              <g transform="translate(23.03,88.33)" id="img-093222b4-42">
                <path d="M-0.22,-0 L 0.22 -0 0.22 0 -0.22 0 z" class="primitive"/>
              </g>
              <g transform="translate(23.42,88.33)" id="img-093222b4-43">
                <path d="M-0.22,-0 L 0.22 -0 0.22 0 -0.22 0 z" class="primitive"/>
              </g>
              <g transform="translate(23.8,88.33)" id="img-093222b4-44">
                <path d="M-0.22,-0 L 0.22 -0 0.22 0 -0.22 0 z" class="primitive"/>
              </g>
              <g transform="translate(24.18,88.33)" id="img-093222b4-45">
                <path d="M-0.22,-0 L 0.22 -0 0.22 0 -0.22 0 z" class="primitive"/>
              </g>
              <g transform="translate(24.57,88.33)" id="img-093222b4-46">
                <path d="M-0.22,-0 L 0.22 -0 0.22 0 -0.22 0 z" class="primitive"/>
              </g>
              <g transform="translate(24.95,88.33)" id="img-093222b4-47">
                <path d="M-0.22,-0 L 0.22 -0 0.22 0 -0.22 0 z" class="primitive"/>
              </g>
              <g transform="translate(25.34,88.33)" id="img-093222b4-48">
                <path d="M-0.22,-0 L 0.22 -0 0.22 0 -0.22 0 z" class="primitive"/>
              </g>
              <g transform="translate(25.72,88.33)" id="img-093222b4-49">
                <path d="M-0.22,-0 L 0.22 -0 0.22 0 -0.22 0 z" class="primitive"/>
              </g>
              <g transform="translate(26.1,88.33)" id="img-093222b4-50">
                <path d="M-0.22,-0 L 0.22 -0 0.22 0 -0.22 0 z" class="primitive"/>
              </g>
              <g transform="translate(26.49,88.33)" id="img-093222b4-51">
                <path d="M-0.22,-0 L 0.22 -0 0.22 0 -0.22 0 z" class="primitive"/>
              </g>
              <g transform="translate(26.87,88.33)" id="img-093222b4-52">
                <path d="M-0.22,-0 L 0.22 -0 0.22 0 -0.22 0 z" class="primitive"/>
              </g>
              <g transform="translate(27.25,88.33)" id="img-093222b4-53">
                <path d="M-0.22,-0 L 0.22 -0 0.22 0 -0.22 0 z" class="primitive"/>
              </g>
              <g transform="translate(27.64,88.33)" id="img-093222b4-54">
                <path d="M-0.22,-0 L 0.22 -0 0.22 0 -0.22 0 z" class="primitive"/>
              </g>
              <g transform="translate(28.02,88.33)" id="img-093222b4-55">
                <path d="M-0.22,-0 L 0.22 -0 0.22 0 -0.22 0 z" class="primitive"/>
              </g>
              <g transform="translate(28.4,88.33)" id="img-093222b4-56">
                <path d="M-0.22,-0 L 0.22 -0 0.22 0 -0.22 0 z" class="primitive"/>
              </g>
              <g transform="translate(28.79,88.33)" id="img-093222b4-57">
                <path d="M-0.22,-0 L 0.22 -0 0.22 0 -0.22 0 z" class="primitive"/>
              </g>
              <g transform="translate(29.17,88.33)" id="img-093222b4-58">
                <path d="M-0.22,-0 L 0.22 -0 0.22 0 -0.22 0 z" class="primitive"/>
              </g>
              <g transform="translate(29.55,81.55)" id="img-093222b4-59">
                <path d="M-0.22,-6.78 L 0.22 -6.78 0.22 6.78 -0.22 6.78 z" class="primitive"/>
              </g>
              <g transform="translate(29.94,88.33)" id="img-093222b4-60">
                <path d="M-0.22,-0 L 0.22 -0 0.22 0 -0.22 0 z" class="primitive"/>
              </g>
              <g transform="translate(30.32,81.55)" id="img-093222b4-61">
                <path d="M-0.22,-6.78 L 0.22 -6.78 0.22 6.78 -0.22 6.78 z" class="primitive"/>
              </g>
              <g transform="translate(30.7,81.55)" id="img-093222b4-62">
                <path d="M-0.22,-6.78 L 0.22 -6.78 0.22 6.78 -0.22 6.78 z" class="primitive"/>
              </g>
              <g transform="translate(31.09,88.33)" id="img-093222b4-63">
                <path d="M-0.22,-0 L 0.22 -0 0.22 0 -0.22 0 z" class="primitive"/>
              </g>
              <g transform="translate(31.47,81.55)" id="img-093222b4-64">
                <path d="M-0.22,-6.78 L 0.22 -6.78 0.22 6.78 -0.22 6.78 z" class="primitive"/>
              </g>
              <g transform="translate(31.85,74.77)" id="img-093222b4-65">
                <path d="M-0.22,-13.55 L 0.22 -13.55 0.22 13.55 -0.22 13.55 z" class="primitive"/>
              </g>
              <g transform="translate(32.24,88.33)" id="img-093222b4-66">
                <path d="M-0.22,-0 L 0.22 -0 0.22 0 -0.22 0 z" class="primitive"/>
              </g>
              <g transform="translate(32.62,81.55)" id="img-093222b4-67">
                <path d="M-0.22,-6.78 L 0.22 -6.78 0.22 6.78 -0.22 6.78 z" class="primitive"/>
              </g>
              <g transform="translate(33,88.33)" id="img-093222b4-68">
                <path d="M-0.22,-0 L 0.22 -0 0.22 0 -0.22 0 z" class="primitive"/>
              </g>
              <g transform="translate(33.39,81.55)" id="img-093222b4-69">
                <path d="M-0.22,-6.78 L 0.22 -6.78 0.22 6.78 -0.22 6.78 z" class="primitive"/>
              </g>
              <g transform="translate(33.77,88.33)" id="img-093222b4-70">
                <path d="M-0.22,-0 L 0.22 -0 0.22 0 -0.22 0 z" class="primitive"/>
              </g>
              <g transform="translate(34.15,88.33)" id="img-093222b4-71">
                <path d="M-0.22,-0 L 0.22 -0 0.22 0 -0.22 0 z" class="primitive"/>
              </g>
              <g transform="translate(34.54,81.55)" id="img-093222b4-72">
                <path d="M-0.22,-6.78 L 0.22 -6.78 0.22 6.78 -0.22 6.78 z" class="primitive"/>
              </g>
              <g transform="translate(34.92,81.55)" id="img-093222b4-73">
                <path d="M-0.22,-6.78 L 0.22 -6.78 0.22 6.78 -0.22 6.78 z" class="primitive"/>
              </g>
              <g transform="translate(35.3,81.55)" id="img-093222b4-74">
                <path d="M-0.22,-6.78 L 0.22 -6.78 0.22 6.78 -0.22 6.78 z" class="primitive"/>
              </g>
              <g transform="translate(35.69,68)" id="img-093222b4-75">
                <path d="M-0.22,-20.33 L 0.22 -20.33 0.22 20.33 -0.22 20.33 z" class="primitive"/>
              </g>
              <g transform="translate(36.07,88.33)" id="img-093222b4-76">
                <path d="M-0.22,-0 L 0.22 -0 0.22 0 -0.22 0 z" class="primitive"/>
              </g>
              <g transform="translate(36.45,88.33)" id="img-093222b4-77">
                <path d="M-0.22,-0 L 0.22 -0 0.22 0 -0.22 0 z" class="primitive"/>
              </g>
              <g transform="translate(36.84,88.33)" id="img-093222b4-78">
                <path d="M-0.22,-0 L 0.22 -0 0.22 0 -0.22 0 z" class="primitive"/>
              </g>
              <g transform="translate(37.22,81.55)" id="img-093222b4-79">
                <path d="M-0.22,-6.78 L 0.22 -6.78 0.22 6.78 -0.22 6.78 z" class="primitive"/>
              </g>
              <g transform="translate(37.61,88.33)" id="img-093222b4-80">
                <path d="M-0.22,-0 L 0.22 -0 0.22 0 -0.22 0 z" class="primitive"/>
              </g>
              <g transform="translate(37.99,81.55)" id="img-093222b4-81">
                <path d="M-0.22,-6.78 L 0.22 -6.78 0.22 6.78 -0.22 6.78 z" class="primitive"/>
              </g>
              <g transform="translate(38.37,81.55)" id="img-093222b4-82">
                <path d="M-0.22,-6.78 L 0.22 -6.78 0.22 6.78 -0.22 6.78 z" class="primitive"/>
              </g>
              <g transform="translate(38.76,81.55)" id="img-093222b4-83">
                <path d="M-0.22,-6.78 L 0.22 -6.78 0.22 6.78 -0.22 6.78 z" class="primitive"/>
              </g>
              <g transform="translate(39.14,81.55)" id="img-093222b4-84">
                <path d="M-0.22,-6.78 L 0.22 -6.78 0.22 6.78 -0.22 6.78 z" class="primitive"/>
              </g>
              <g transform="translate(39.52,74.77)" id="img-093222b4-85">
                <path d="M-0.22,-13.55 L 0.22 -13.55 0.22 13.55 -0.22 13.55 z" class="primitive"/>
              </g>
              <g transform="translate(39.91,81.55)" id="img-093222b4-86">
                <path d="M-0.22,-6.78 L 0.22 -6.78 0.22 6.78 -0.22 6.78 z" class="primitive"/>
              </g>
              <g transform="translate(40.29,74.77)" id="img-093222b4-87">
                <path d="M-0.22,-13.55 L 0.22 -13.55 0.22 13.55 -0.22 13.55 z" class="primitive"/>
              </g>
              <g transform="translate(40.67,81.55)" id="img-093222b4-88">
                <path d="M-0.22,-6.78 L 0.22 -6.78 0.22 6.78 -0.22 6.78 z" class="primitive"/>
              </g>
              <g transform="translate(41.06,88.33)" id="img-093222b4-89">
                <path d="M-0.22,-0 L 0.22 -0 0.22 0 -0.22 0 z" class="primitive"/>
              </g>
              <g transform="translate(41.44,81.55)" id="img-093222b4-90">
                <path d="M-0.22,-6.78 L 0.22 -6.78 0.22 6.78 -0.22 6.78 z" class="primitive"/>
              </g>
              <g transform="translate(41.82,88.33)" id="img-093222b4-91">
                <path d="M-0.22,-0 L 0.22 -0 0.22 0 -0.22 0 z" class="primitive"/>
              </g>
              <g transform="translate(42.21,68)" id="img-093222b4-92">
                <path d="M-0.22,-20.33 L 0.22 -20.33 0.22 20.33 -0.22 20.33 z" class="primitive"/>
              </g>
              <g transform="translate(42.59,61.22)" id="img-093222b4-93">
                <path d="M-0.22,-27.11 L 0.22 -27.11 0.22 27.11 -0.22 27.11 z" class="primitive"/>
              </g>
              <g transform="translate(42.97,81.55)" id="img-093222b4-94">
                <path d="M-0.22,-6.78 L 0.22 -6.78 0.22 6.78 -0.22 6.78 z" class="primitive"/>
              </g>
              <g transform="translate(43.36,68)" id="img-093222b4-95">
                <path d="M-0.22,-20.33 L 0.22 -20.33 0.22 20.33 -0.22 20.33 z" class="primitive"/>
              </g>
              <g transform="translate(43.74,81.55)" id="img-093222b4-96">
                <path d="M-0.22,-6.78 L 0.22 -6.78 0.22 6.78 -0.22 6.78 z" class="primitive"/>
              </g>
              <g transform="translate(44.12,74.77)" id="img-093222b4-97">
                <path d="M-0.22,-13.55 L 0.22 -13.55 0.22 13.55 -0.22 13.55 z" class="primitive"/>
              </g>
              <g transform="translate(44.51,81.55)" id="img-093222b4-98">
                <path d="M-0.22,-6.78 L 0.22 -6.78 0.22 6.78 -0.22 6.78 z" class="primitive"/>
              </g>
              <g transform="translate(44.89,81.55)" id="img-093222b4-99">
                <path d="M-0.22,-6.78 L 0.22 -6.78 0.22 6.78 -0.22 6.78 z" class="primitive"/>
              </g>
              <g transform="translate(45.27,88.33)" id="img-093222b4-100">
                <path d="M-0.22,-0 L 0.22 -0 0.22 0 -0.22 0 z" class="primitive"/>
              </g>
              <g transform="translate(45.66,68)" id="img-093222b4-101">
                <path d="M-0.22,-20.33 L 0.22 -20.33 0.22 20.33 -0.22 20.33 z" class="primitive"/>
              </g>
              <g transform="translate(46.04,68)" id="img-093222b4-102">
                <path d="M-0.22,-20.33 L 0.22 -20.33 0.22 20.33 -0.22 20.33 z" class="primitive"/>
              </g>
              <g transform="translate(46.42,68)" id="img-093222b4-103">
                <path d="M-0.22,-20.33 L 0.22 -20.33 0.22 20.33 -0.22 20.33 z" class="primitive"/>
              </g>
              <g transform="translate(46.81,47.66)" id="img-093222b4-104">
                <path d="M-0.22,-40.66 L 0.22 -40.66 0.22 40.66 -0.22 40.66 z" class="primitive"/>
              </g>
              <g transform="translate(47.19,74.77)" id="img-093222b4-105">
                <path d="M-0.22,-13.55 L 0.22 -13.55 0.22 13.55 -0.22 13.55 z" class="primitive"/>
              </g>
              <g transform="translate(47.57,74.77)" id="img-093222b4-106">
                <path d="M-0.22,-13.55 L 0.22 -13.55 0.22 13.55 -0.22 13.55 z" class="primitive"/>
              </g>
              <g transform="translate(47.96,68)" id="img-093222b4-107">
                <path d="M-0.22,-20.33 L 0.22 -20.33 0.22 20.33 -0.22 20.33 z" class="primitive"/>
              </g>
              <g transform="translate(48.34,54.44)" id="img-093222b4-108">
                <path d="M-0.22,-33.89 L 0.22 -33.89 0.22 33.89 -0.22 33.89 z" class="primitive"/>
              </g>
              <g transform="translate(48.72,81.55)" id="img-093222b4-109">
                <path d="M-0.22,-6.78 L 0.22 -6.78 0.22 6.78 -0.22 6.78 z" class="primitive"/>
              </g>
              <g transform="translate(49.11,68)" id="img-093222b4-110">
                <path d="M-0.22,-20.33 L 0.22 -20.33 0.22 20.33 -0.22 20.33 z" class="primitive"/>
              </g>
              <g transform="translate(49.49,68)" id="img-093222b4-111">
                <path d="M-0.22,-20.33 L 0.22 -20.33 0.22 20.33 -0.22 20.33 z" class="primitive"/>
              </g>
              <g transform="translate(49.88,74.77)" id="img-093222b4-112">
                <path d="M-0.22,-13.55 L 0.22 -13.55 0.22 13.55 -0.22 13.55 z" class="primitive"/>
              </g>
              <g transform="translate(50.26,74.77)" id="img-093222b4-113">
                <path d="M-0.22,-13.55 L 0.22 -13.55 0.22 13.55 -0.22 13.55 z" class="primitive"/>
              </g>
              <g transform="translate(50.64,74.77)" id="img-093222b4-114">
                <path d="M-0.22,-13.55 L 0.22 -13.55 0.22 13.55 -0.22 13.55 z" class="primitive"/>
              </g>
              <g transform="translate(51.03,68)" id="img-093222b4-115">
                <path d="M-0.22,-20.33 L 0.22 -20.33 0.22 20.33 -0.22 20.33 z" class="primitive"/>
              </g>
              <g transform="translate(51.41,47.66)" id="img-093222b4-116">
                <path d="M-0.22,-40.66 L 0.22 -40.66 0.22 40.66 -0.22 40.66 z" class="primitive"/>
              </g>
              <g transform="translate(51.79,81.55)" id="img-093222b4-117">
                <path d="M-0.22,-6.78 L 0.22 -6.78 0.22 6.78 -0.22 6.78 z" class="primitive"/>
              </g>
              <g transform="translate(52.18,81.55)" id="img-093222b4-118">
                <path d="M-0.22,-6.78 L 0.22 -6.78 0.22 6.78 -0.22 6.78 z" class="primitive"/>
              </g>
              <g transform="translate(52.56,88.33)" id="img-093222b4-119">
                <path d="M-0.22,-0 L 0.22 -0 0.22 0 -0.22 0 z" class="primitive"/>
              </g>
              <g transform="translate(52.94,81.55)" id="img-093222b4-120">
                <path d="M-0.22,-6.78 L 0.22 -6.78 0.22 6.78 -0.22 6.78 z" class="primitive"/>
              </g>
              <g transform="translate(53.33,88.33)" id="img-093222b4-121">
                <path d="M-0.22,-0 L 0.22 -0 0.22 0 -0.22 0 z" class="primitive"/>
              </g>
              <g transform="translate(53.71,81.55)" id="img-093222b4-122">
                <path d="M-0.22,-6.78 L 0.22 -6.78 0.22 6.78 -0.22 6.78 z" class="primitive"/>
              </g>
              <g transform="translate(54.09,88.33)" id="img-093222b4-123">
                <path d="M-0.22,-0 L 0.22 -0 0.22 0 -0.22 0 z" class="primitive"/>
              </g>
              <g transform="translate(54.48,88.33)" id="img-093222b4-124">
                <path d="M-0.22,-0 L 0.22 -0 0.22 0 -0.22 0 z" class="primitive"/>
              </g>
              <g transform="translate(54.86,81.55)" id="img-093222b4-125">
                <path d="M-0.22,-6.78 L 0.22 -6.78 0.22 6.78 -0.22 6.78 z" class="primitive"/>
              </g>
              <g transform="translate(55.24,88.33)" id="img-093222b4-126">
                <path d="M-0.22,-0 L 0.22 -0 0.22 0 -0.22 0 z" class="primitive"/>
              </g>
              <g transform="translate(55.63,81.55)" id="img-093222b4-127">
                <path d="M-0.22,-6.78 L 0.22 -6.78 0.22 6.78 -0.22 6.78 z" class="primitive"/>
              </g>
              <g transform="translate(56.01,88.33)" id="img-093222b4-128">
                <path d="M-0.22,-0 L 0.22 -0 0.22 0 -0.22 0 z" class="primitive"/>
              </g>
              <g transform="translate(56.39,88.33)" id="img-093222b4-129">
                <path d="M-0.22,-0 L 0.22 -0 0.22 0 -0.22 0 z" class="primitive"/>
              </g>
              <g transform="translate(56.78,88.33)" id="img-093222b4-130">
                <path d="M-0.22,-0 L 0.22 -0 0.22 0 -0.22 0 z" class="primitive"/>
              </g>
              <g transform="translate(57.16,88.33)" id="img-093222b4-131">
                <path d="M-0.22,-0 L 0.22 -0 0.22 0 -0.22 0 z" class="primitive"/>
              </g>
              <g transform="translate(57.54,74.77)" id="img-093222b4-132">
                <path d="M-0.22,-13.55 L 0.22 -13.55 0.22 13.55 -0.22 13.55 z" class="primitive"/>
              </g>
            </g>
          </g>
        </g>
      </g>
    </g>
  </g>
  <g class="guide ylabels" font-size="2.82" font-family="'PT Sans Caption','Helvetica Neue','Helvetica',sans-serif" fill="#6C606B" id="img-093222b4-133">
    <g transform="translate(15.28,88.33)" id="img-093222b4-134">
      <g class="primitive">
        <text text-anchor="end" dy="0.35em">0</text>
      </g>
    </g>
    <g transform="translate(15.28,74.77)" id="img-093222b4-135">
      <g class="primitive">
        <text text-anchor="end" dy="0.35em">1</text>
      </g>
    </g>
    <g transform="translate(15.28,61.22)" id="img-093222b4-136">
      <g class="primitive">
        <text text-anchor="end" dy="0.35em">2</text>
      </g>
    </g>
    <g transform="translate(15.28,47.66)" id="img-093222b4-137">
      <g class="primitive">
        <text text-anchor="end" dy="0.35em">3</text>
      </g>
    </g>
    <g transform="translate(15.28,34.11)" id="img-093222b4-138">
      <g class="primitive">
        <text text-anchor="end" dy="0.35em">4</text>
      </g>
    </g>
    <g transform="translate(15.28,20.55)" id="img-093222b4-139">
      <g class="primitive">
        <text text-anchor="end" dy="0.35em">5</text>
      </g>
    </g>
    <g transform="translate(15.28,7)" id="img-093222b4-140">
      <g class="primitive">
        <text text-anchor="end" dy="0.35em">6</text>
      </g>
    </g>
  </g>
  <g font-size="3.88" font-family="'PT Sans','Helvetica Neue','Helvetica',sans-serif" fill="#564A55" stroke="#000000" stroke-opacity="0.000" id="img-093222b4-141">
    <g transform="translate(8.81,45.66)" id="img-093222b4-142">
      <g class="primitive">
        <text text-anchor="middle" dy="0.35em" transform="rotate(-90,0, 2)">frequency</text>
      </g>
    </g>
  </g>
</g>
<defs>
  <clipPath id="img-093222b4-11">
    <path d="M16.28,5 L 72.4 5 72.4 90.33 16.28 90.33" />
  </clipPath>
</defs>
</svg>
