<?xml version="1.0" encoding="UTF-8"?>
<svg xmlns="http://www.w3.org/2000/svg"
     xmlns:xlink="http://www.w3.org/1999/xlink"
     xmlns:gadfly="http://www.gadflyjl.org/ns"
     version="1.2"
     width="141.42mm" height="100mm" viewBox="0 0 141.42 100"
     stroke="none"
     fill="#000000"
     stroke-width="0.3"
     font-size="3.88"
>
<defs>
  <marker id="arrow" markerWidth="15" markerHeight="7" refX="5" refY="3.5" orient="auto" markerUnits="strokeWidth">
    <path d="M0,0 L15,3.5 L0,7 z" stroke="context-stroke" fill="context-stroke"/>
  </marker>
</defs>
<g class="plotroot xscalable yscalable" id="img-4f9069ea-1">
  <g class="guide xlabels" font-size="2.82" font-family="'PT Sans Caption','Helvetica Neue','Helvetica',sans-serif" fill="#6C606B" id="img-4f9069ea-2">
    <g transform="translate(18.29,91.33)">
      <g class="primitive">
        <text text-anchor="middle" dy="0.6em">13.2</text>
      </g>
    </g>
    <g transform="translate(32.67,91.33)">
      <g class="primitive">
        <text text-anchor="middle" dy="0.6em">13.3</text>
      </g>
    </g>
    <g transform="translate(47.06,91.33)">
      <g class="primitive">
        <text text-anchor="middle" dy="0.6em">13.4</text>
      </g>
    </g>
    <g transform="translate(61.45,91.33)">
      <g class="primitive">
        <text text-anchor="middle" dy="0.6em">13.5</text>
      </g>
    </g>
    <g transform="translate(75.84,91.33)">
      <g class="primitive">
        <text text-anchor="middle" dy="0.6em">13.6</text>
      </g>
    </g>
    <g transform="translate(90.23,91.33)">
      <g class="primitive">
        <text text-anchor="middle" dy="0.6em">13.7</text>
      </g>
    </g>
  </g>
  <g class="guide colorkey" id="img-4f9069ea-3">
    <g class="color_coding_noncoding_coding_3-path" id="img-4f9069ea-4">
      <g fill="#4C404B" font-size="2.82" font-family="'PT Sans','Helvetica Neue','Helvetica',sans-serif" id="img-4f9069ea-5">
        <g transform="translate(96.05,49.48)" id="img-4f9069ea-6">
          <g class="primitive">
            <text dy="0.35em">coding_noncoding_coding_3-path</text>
          </g>
        </g>
      </g>
      <g fill-opacity="1" fill="#00BFFF" stroke="#FFFFFF" id="img-4f9069ea-7">
        <g transform="translate(94.14,49.48)" id="img-4f9069ea-8">
          <path d="M-0.91,-0.91 L 0.91 -0.91 0.91 0.91 -0.91 0.91 z" class="primitive"/>
        </g>
      </g>
    </g>
    <g fill="#362A35" font-size="3.88" font-family="'PT Sans','Helvetica Neue','Helvetica',sans-serif" stroke="#000000" stroke-opacity="0.000" id="img-4f9069ea-9">
      <g transform="translate(93.23,45.66)" id="img-4f9069ea-10">
        <g class="primitive">
          <text dy="-0em">graphlet</text>
        </g>
      </g>
    </g>
  </g>
  <g clip-path="url(#img-4f9069ea-11)">
    <g id="img-4f9069ea-12">
      <g pointer-events="visible" stroke-width="0.3" fill="#000000" fill-opacity="0.000" stroke="#000000" stroke-opacity="0.000" class="guide background" id="img-4f9069ea-13">
        <g transform="translate(54.26,47.66)" id="img-4f9069ea-14">
          <path d="M-37.97,-42.66 L 37.97 -42.66 37.97 42.66 -37.97 42.66 z" class="primitive"/>
        </g>
      </g>
      <g class="guide ygridlines xfixed" stroke-dasharray="0.5,0.5" stroke-width="0.2" stroke="#D0D0E0" id="img-4f9069ea-15">
        <g transform="translate(54.26,88.33)" id="img-4f9069ea-16">
          <path fill="none" d="M-37.97,0 L 37.97 0" class="primitive"/>
        </g>
        <g transform="translate(54.26,72.06)" id="img-4f9069ea-17">
          <path fill="none" d="M-37.97,0 L 37.97 0" class="primitive"/>
        </g>
        <g transform="translate(54.26,55.8)" id="img-4f9069ea-18">
          <path fill="none" d="M-37.97,0 L 37.97 0" class="primitive"/>
        </g>
        <g transform="translate(54.26,39.53)" id="img-4f9069ea-19">
          <path fill="none" d="M-37.97,0 L 37.97 0" class="primitive"/>
        </g>
        <g transform="translate(54.26,23.27)" id="img-4f9069ea-20">
          <path fill="none" d="M-37.97,0 L 37.97 0" class="primitive"/>
        </g>
        <g transform="translate(54.26,7)" id="img-4f9069ea-21">
          <path fill="none" d="M-37.97,0 L 37.97 0" class="primitive"/>
        </g>
      </g>
      <g class="guide xgridlines yfixed" stroke-dasharray="0.5,0.5" stroke-width="0.2" stroke="#D0D0E0" id="img-4f9069ea-22">
        <g transform="translate(18.29,47.66)" id="img-4f9069ea-23">
          <path fill="none" d="M0,-42.66 L 0 42.66" class="primitive"/>
        </g>
        <g transform="translate(32.67,47.66)" id="img-4f9069ea-24">
          <path fill="none" d="M0,-42.66 L 0 42.66" class="primitive"/>
        </g>
        <g transform="translate(47.06,47.66)" id="img-4f9069ea-25">
          <path fill="none" d="M0,-42.66 L 0 42.66" class="primitive"/>
        </g>
        <g transform="translate(61.45,47.66)" id="img-4f9069ea-26">
          <path fill="none" d="M0,-42.66 L 0 42.66" class="primitive"/>
        </g>
        <g transform="translate(75.84,47.66)" id="img-4f9069ea-27">
          <path fill="none" d="M0,-42.66 L 0 42.66" class="primitive"/>
        </g>
        <g transform="translate(90.23,47.66)" id="img-4f9069ea-28">
          <path fill="none" d="M0,-42.66 L 0 42.66" class="primitive"/>
        </g>
      </g>
      <g class="plotpanel" id="img-4f9069ea-29">
        <metadata>
          <boundingbox value="16.284999999999997mm 5.0mm 75.94968957064282mm 85.32666666666667mm"/>
          <unitbox value="13.186101399381048 5.122960898434298 0.5277972012379056 -5.245921796868595"/>
        </metadata>
        <g shape-rendering="crispEdges" stroke-width="0.3" id="img-4f9069ea-30">
          <g stroke="#000000" stroke-opacity="0.000" class="geometry" id="img-4f9069ea-31">
            <g fill="#00BFFF" id="img-4f9069ea-32">
              <g transform="translate(29.1,80.19)" id="img-4f9069ea-33">
                <path d="M-0.27,-8.13 L 0.27 -8.13 0.27 8.13 -0.27 8.13 z" class="primitive"/>
              </g>
              <g transform="translate(29.58,88.33)" id="img-4f9069ea-34">
                <path d="M-0.27,-0 L 0.27 -0 0.27 0 -0.27 0 z" class="primitive"/>
              </g>
              <g transform="translate(30.06,88.33)" id="img-4f9069ea-35">
                <path d="M-0.27,-0 L 0.27 -0 0.27 0 -0.27 0 z" class="primitive"/>
              </g>
              <g transform="translate(30.54,80.19)" id="img-4f9069ea-36">
                <path d="M-0.27,-8.13 L 0.27 -8.13 0.27 8.13 -0.27 8.13 z" class="primitive"/>
              </g>
              <g transform="translate(31.03,88.33)" id="img-4f9069ea-37">
                <path d="M-0.27,-0 L 0.27 -0 0.27 0 -0.27 0 z" class="primitive"/>
              </g>
              <g transform="translate(31.51,88.33)" id="img-4f9069ea-38">
                <path d="M-0.27,-0 L 0.27 -0 0.27 0 -0.27 0 z" class="primitive"/>
              </g>
              <g transform="translate(31.99,88.33)" id="img-4f9069ea-39">
                <path d="M-0.27,-0 L 0.27 -0 0.27 0 -0.27 0 z" class="primitive"/>
              </g>
              <g transform="translate(32.47,88.33)" id="img-4f9069ea-40">
                <path d="M-0.27,-0 L 0.27 -0 0.27 0 -0.27 0 z" class="primitive"/>
              </g>
              <g transform="translate(32.96,88.33)" id="img-4f9069ea-41">
                <path d="M-0.27,-0 L 0.27 -0 0.27 0 -0.27 0 z" class="primitive"/>
              </g>
              <g transform="translate(33.44,88.33)" id="img-4f9069ea-42">
                <path d="M-0.27,-0 L 0.27 -0 0.27 0 -0.27 0 z" class="primitive"/>
              </g>
              <g transform="translate(33.92,88.33)" id="img-4f9069ea-43">
                <path d="M-0.27,-0 L 0.27 -0 0.27 0 -0.27 0 z" class="primitive"/>
              </g>
              <g transform="translate(34.4,88.33)" id="img-4f9069ea-44">
                <path d="M-0.27,-0 L 0.27 -0 0.27 0 -0.27 0 z" class="primitive"/>
              </g>
              <g transform="translate(34.89,88.33)" id="img-4f9069ea-45">
                <path d="M-0.27,-0 L 0.27 -0 0.27 0 -0.27 0 z" class="primitive"/>
              </g>
              <g transform="translate(35.37,88.33)" id="img-4f9069ea-46">
                <path d="M-0.27,-0 L 0.27 -0 0.27 0 -0.27 0 z" class="primitive"/>
              </g>
              <g transform="translate(35.85,88.33)" id="img-4f9069ea-47">
                <path d="M-0.27,-0 L 0.27 -0 0.27 0 -0.27 0 z" class="primitive"/>
              </g>
              <g transform="translate(36.33,88.33)" id="img-4f9069ea-48">
                <path d="M-0.27,-0 L 0.27 -0 0.27 0 -0.27 0 z" class="primitive"/>
              </g>
              <g transform="translate(36.82,88.33)" id="img-4f9069ea-49">
                <path d="M-0.27,-0 L 0.27 -0 0.27 0 -0.27 0 z" class="primitive"/>
              </g>
              <g transform="translate(37.3,88.33)" id="img-4f9069ea-50">
                <path d="M-0.27,-0 L 0.27 -0 0.27 0 -0.27 0 z" class="primitive"/>
              </g>
              <g transform="translate(37.78,88.33)" id="img-4f9069ea-51">
                <path d="M-0.27,-0 L 0.27 -0 0.27 0 -0.27 0 z" class="primitive"/>
              </g>
              <g transform="translate(38.26,80.19)" id="img-4f9069ea-52">
                <path d="M-0.27,-8.13 L 0.27 -8.13 0.27 8.13 -0.27 8.13 z" class="primitive"/>
              </g>
              <g transform="translate(38.75,88.33)" id="img-4f9069ea-53">
                <path d="M-0.27,-0 L 0.27 -0 0.27 0 -0.27 0 z" class="primitive"/>
              </g>
              <g transform="translate(39.23,88.33)" id="img-4f9069ea-54">
                <path d="M-0.27,-0 L 0.27 -0 0.27 0 -0.27 0 z" class="primitive"/>
              </g>
              <g transform="translate(39.71,80.19)" id="img-4f9069ea-55">
                <path d="M-0.27,-8.13 L 0.27 -8.13 0.27 8.13 -0.27 8.13 z" class="primitive"/>
              </g>
              <g transform="translate(40.19,88.33)" id="img-4f9069ea-56">
                <path d="M-0.27,-0 L 0.27 -0 0.27 0 -0.27 0 z" class="primitive"/>
              </g>
              <g transform="translate(40.68,80.19)" id="img-4f9069ea-57">
                <path d="M-0.27,-8.13 L 0.27 -8.13 0.27 8.13 -0.27 8.13 z" class="primitive"/>
              </g>
              <g transform="translate(41.16,72.06)" id="img-4f9069ea-58">
                <path d="M-0.27,-16.27 L 0.27 -16.27 0.27 16.27 -0.27 16.27 z" class="primitive"/>
              </g>
              <g transform="translate(41.64,80.19)" id="img-4f9069ea-59">
                <path d="M-0.27,-8.13 L 0.27 -8.13 0.27 8.13 -0.27 8.13 z" class="primitive"/>
              </g>
              <g transform="translate(42.12,72.06)" id="img-4f9069ea-60">
                <path d="M-0.27,-16.27 L 0.27 -16.27 0.27 16.27 -0.27 16.27 z" class="primitive"/>
              </g>
              <g transform="translate(42.61,72.06)" id="img-4f9069ea-61">
                <path d="M-0.27,-16.27 L 0.27 -16.27 0.27 16.27 -0.27 16.27 z" class="primitive"/>
              </g>
              <g transform="translate(43.09,80.19)" id="img-4f9069ea-62">
                <path d="M-0.27,-8.13 L 0.27 -8.13 0.27 8.13 -0.27 8.13 z" class="primitive"/>
              </g>
              <g transform="translate(43.57,47.66)" id="img-4f9069ea-63">
                <path d="M-0.27,-40.66 L 0.27 -40.66 0.27 40.66 -0.27 40.66 z" class="primitive"/>
              </g>
              <g transform="translate(44.05,88.33)" id="img-4f9069ea-64">
                <path d="M-0.27,-0 L 0.27 -0 0.27 0 -0.27 0 z" class="primitive"/>
              </g>
              <g transform="translate(44.54,80.19)" id="img-4f9069ea-65">
                <path d="M-0.27,-8.13 L 0.27 -8.13 0.27 8.13 -0.27 8.13 z" class="primitive"/>
              </g>
              <g transform="translate(45.02,80.19)" id="img-4f9069ea-66">
                <path d="M-0.27,-8.13 L 0.27 -8.13 0.27 8.13 -0.27 8.13 z" class="primitive"/>
              </g>
              <g transform="translate(45.5,80.19)" id="img-4f9069ea-67">
                <path d="M-0.27,-8.13 L 0.27 -8.13 0.27 8.13 -0.27 8.13 z" class="primitive"/>
              </g>
              <g transform="translate(45.98,72.06)" id="img-4f9069ea-68">
                <path d="M-0.27,-16.27 L 0.27 -16.27 0.27 16.27 -0.27 16.27 z" class="primitive"/>
              </g>
              <g transform="translate(46.47,80.19)" id="img-4f9069ea-69">
                <path d="M-0.27,-8.13 L 0.27 -8.13 0.27 8.13 -0.27 8.13 z" class="primitive"/>
              </g>
              <g transform="translate(46.95,80.19)" id="img-4f9069ea-70">
                <path d="M-0.27,-8.13 L 0.27 -8.13 0.27 8.13 -0.27 8.13 z" class="primitive"/>
              </g>
              <g transform="translate(47.43,72.06)" id="img-4f9069ea-71">
                <path d="M-0.27,-16.27 L 0.27 -16.27 0.27 16.27 -0.27 16.27 z" class="primitive"/>
              </g>
              <g transform="translate(47.91,72.06)" id="img-4f9069ea-72">
                <path d="M-0.27,-16.27 L 0.27 -16.27 0.27 16.27 -0.27 16.27 z" class="primitive"/>
              </g>
              <g transform="translate(48.4,80.19)" id="img-4f9069ea-73">
                <path d="M-0.27,-8.13 L 0.27 -8.13 0.27 8.13 -0.27 8.13 z" class="primitive"/>
              </g>
              <g transform="translate(48.88,80.19)" id="img-4f9069ea-74">
                <path d="M-0.27,-8.13 L 0.27 -8.13 0.27 8.13 -0.27 8.13 z" class="primitive"/>
              </g>
              <g transform="translate(49.36,63.93)" id="img-4f9069ea-75">
                <path d="M-0.27,-24.4 L 0.27 -24.4 0.27 24.4 -0.27 24.4 z" class="primitive"/>
              </g>
              <g transform="translate(49.84,72.06)" id="img-4f9069ea-76">
                <path d="M-0.27,-16.27 L 0.27 -16.27 0.27 16.27 -0.27 16.27 z" class="primitive"/>
              </g>
              <g transform="translate(50.33,72.06)" id="img-4f9069ea-77">
                <path d="M-0.27,-16.27 L 0.27 -16.27 0.27 16.27 -0.27 16.27 z" class="primitive"/>
              </g>
              <g transform="translate(50.81,55.8)" id="img-4f9069ea-78">
                <path d="M-0.27,-32.53 L 0.27 -32.53 0.27 32.53 -0.27 32.53 z" class="primitive"/>
              </g>
              <g transform="translate(51.29,63.93)" id="img-4f9069ea-79">
                <path d="M-0.27,-24.4 L 0.27 -24.4 0.27 24.4 -0.27 24.4 z" class="primitive"/>
              </g>
              <g transform="translate(51.77,63.93)" id="img-4f9069ea-80">
                <path d="M-0.27,-24.4 L 0.27 -24.4 0.27 24.4 -0.27 24.4 z" class="primitive"/>
              </g>
              <g transform="translate(52.26,80.19)" id="img-4f9069ea-81">
                <path d="M-0.27,-8.13 L 0.27 -8.13 0.27 8.13 -0.27 8.13 z" class="primitive"/>
              </g>
              <g transform="translate(52.74,55.8)" id="img-4f9069ea-82">
                <path d="M-0.27,-32.53 L 0.27 -32.53 0.27 32.53 -0.27 32.53 z" class="primitive"/>
              </g>
              <g transform="translate(53.22,80.19)" id="img-4f9069ea-83">
                <path d="M-0.27,-8.13 L 0.27 -8.13 0.27 8.13 -0.27 8.13 z" class="primitive"/>
              </g>
              <g transform="translate(53.7,72.06)" id="img-4f9069ea-84">
                <path d="M-0.27,-16.27 L 0.27 -16.27 0.27 16.27 -0.27 16.27 z" class="primitive"/>
              </g>
              <g transform="translate(54.19,72.06)" id="img-4f9069ea-85">
                <path d="M-0.27,-16.27 L 0.27 -16.27 0.27 16.27 -0.27 16.27 z" class="primitive"/>
              </g>
              <g transform="translate(54.67,72.06)" id="img-4f9069ea-86">
                <path d="M-0.27,-16.27 L 0.27 -16.27 0.27 16.27 -0.27 16.27 z" class="primitive"/>
              </g>
              <g transform="translate(55.15,55.8)" id="img-4f9069ea-87">
                <path d="M-0.27,-32.53 L 0.27 -32.53 0.27 32.53 -0.27 32.53 z" class="primitive"/>
              </g>
              <g transform="translate(55.63,72.06)" id="img-4f9069ea-88">
                <path d="M-0.27,-16.27 L 0.27 -16.27 0.27 16.27 -0.27 16.27 z" class="primitive"/>
              </g>
              <g transform="translate(56.12,55.8)" id="img-4f9069ea-89">
                <path d="M-0.27,-32.53 L 0.27 -32.53 0.27 32.53 -0.27 32.53 z" class="primitive"/>
              </g>
              <g transform="translate(56.6,80.19)" id="img-4f9069ea-90">
                <path d="M-0.27,-8.13 L 0.27 -8.13 0.27 8.13 -0.27 8.13 z" class="primitive"/>
              </g>
              <g transform="translate(57.08,80.19)" id="img-4f9069ea-91">
                <path d="M-0.27,-8.13 L 0.27 -8.13 0.27 8.13 -0.27 8.13 z" class="primitive"/>
              </g>
              <g transform="translate(57.56,72.06)" id="img-4f9069ea-92">
                <path d="M-0.27,-16.27 L 0.27 -16.27 0.27 16.27 -0.27 16.27 z" class="primitive"/>
              </g>
              <g transform="translate(58.05,55.8)" id="img-4f9069ea-93">
                <path d="M-0.27,-32.53 L 0.27 -32.53 0.27 32.53 -0.27 32.53 z" class="primitive"/>
              </g>
              <g transform="translate(58.53,63.93)" id="img-4f9069ea-94">
                <path d="M-0.27,-24.4 L 0.27 -24.4 0.27 24.4 -0.27 24.4 z" class="primitive"/>
              </g>
              <g transform="translate(59.01,88.33)" id="img-4f9069ea-95">
                <path d="M-0.27,-0 L 0.27 -0 0.27 0 -0.27 0 z" class="primitive"/>
              </g>
              <g transform="translate(59.49,72.06)" id="img-4f9069ea-96">
                <path d="M-0.27,-16.27 L 0.27 -16.27 0.27 16.27 -0.27 16.27 z" class="primitive"/>
              </g>
              <g transform="translate(59.98,88.33)" id="img-4f9069ea-97">
                <path d="M-0.27,-0 L 0.27 -0 0.27 0 -0.27 0 z" class="primitive"/>
              </g>
              <g transform="translate(60.46,88.33)" id="img-4f9069ea-98">
                <path d="M-0.27,-0 L 0.27 -0 0.27 0 -0.27 0 z" class="primitive"/>
              </g>
              <g transform="translate(60.94,80.19)" id="img-4f9069ea-99">
                <path d="M-0.27,-8.13 L 0.27 -8.13 0.27 8.13 -0.27 8.13 z" class="primitive"/>
              </g>
              <g transform="translate(61.42,63.93)" id="img-4f9069ea-100">
                <path d="M-0.27,-24.4 L 0.27 -24.4 0.27 24.4 -0.27 24.4 z" class="primitive"/>
              </g>
              <g transform="translate(61.91,88.33)" id="img-4f9069ea-101">
                <path d="M-0.27,-0 L 0.27 -0 0.27 0 -0.27 0 z" class="primitive"/>
              </g>
              <g transform="translate(62.39,88.33)" id="img-4f9069ea-102">
                <path d="M-0.27,-0 L 0.27 -0 0.27 0 -0.27 0 z" class="primitive"/>
              </g>
              <g transform="translate(62.87,72.06)" id="img-4f9069ea-103">
                <path d="M-0.27,-16.27 L 0.27 -16.27 0.27 16.27 -0.27 16.27 z" class="primitive"/>
              </g>
              <g transform="translate(63.35,80.19)" id="img-4f9069ea-104">
                <path d="M-0.27,-8.13 L 0.27 -8.13 0.27 8.13 -0.27 8.13 z" class="primitive"/>
              </g>
              <g transform="translate(63.84,63.93)" id="img-4f9069ea-105">
                <path d="M-0.27,-24.4 L 0.27 -24.4 0.27 24.4 -0.27 24.4 z" class="primitive"/>
              </g>
              <g transform="translate(64.32,80.19)" id="img-4f9069ea-106">
                <path d="M-0.27,-8.13 L 0.27 -8.13 0.27 8.13 -0.27 8.13 z" class="primitive"/>
              </g>
              <g transform="translate(64.8,88.33)" id="img-4f9069ea-107">
                <path d="M-0.27,-0 L 0.27 -0 0.27 0 -0.27 0 z" class="primitive"/>
              </g>
              <g transform="translate(65.28,88.33)" id="img-4f9069ea-108">
                <path d="M-0.27,-0 L 0.27 -0 0.27 0 -0.27 0 z" class="primitive"/>
              </g>
              <g transform="translate(65.77,80.19)" id="img-4f9069ea-109">
                <path d="M-0.27,-8.13 L 0.27 -8.13 0.27 8.13 -0.27 8.13 z" class="primitive"/>
              </g>
              <g transform="translate(66.25,88.33)" id="img-4f9069ea-110">
                <path d="M-0.27,-0 L 0.27 -0 0.27 0 -0.27 0 z" class="primitive"/>
              </g>
              <g transform="translate(66.73,88.33)" id="img-4f9069ea-111">
                <path d="M-0.27,-0 L 0.27 -0 0.27 0 -0.27 0 z" class="primitive"/>
              </g>
              <g transform="translate(67.21,88.33)" id="img-4f9069ea-112">
                <path d="M-0.27,-0 L 0.27 -0 0.27 0 -0.27 0 z" class="primitive"/>
              </g>
              <g transform="translate(67.7,88.33)" id="img-4f9069ea-113">
                <path d="M-0.27,-0 L 0.27 -0 0.27 0 -0.27 0 z" class="primitive"/>
              </g>
              <g transform="translate(68.18,72.06)" id="img-4f9069ea-114">
                <path d="M-0.27,-16.27 L 0.27 -16.27 0.27 16.27 -0.27 16.27 z" class="primitive"/>
              </g>
              <g transform="translate(68.66,80.19)" id="img-4f9069ea-115">
                <path d="M-0.27,-8.13 L 0.27 -8.13 0.27 8.13 -0.27 8.13 z" class="primitive"/>
              </g>
              <g transform="translate(69.14,88.33)" id="img-4f9069ea-116">
                <path d="M-0.27,-0 L 0.27 -0 0.27 0 -0.27 0 z" class="primitive"/>
              </g>
              <g transform="translate(69.63,88.33)" id="img-4f9069ea-117">
                <path d="M-0.27,-0 L 0.27 -0 0.27 0 -0.27 0 z" class="primitive"/>
              </g>
              <g transform="translate(70.11,88.33)" id="img-4f9069ea-118">
                <path d="M-0.27,-0 L 0.27 -0 0.27 0 -0.27 0 z" class="primitive"/>
              </g>
              <g transform="translate(70.59,88.33)" id="img-4f9069ea-119">
                <path d="M-0.27,-0 L 0.27 -0 0.27 0 -0.27 0 z" class="primitive"/>
              </g>
              <g transform="translate(71.07,88.33)" id="img-4f9069ea-120">
                <path d="M-0.27,-0 L 0.27 -0 0.27 0 -0.27 0 z" class="primitive"/>
              </g>
              <g transform="translate(71.56,80.19)" id="img-4f9069ea-121">
                <path d="M-0.27,-8.13 L 0.27 -8.13 0.27 8.13 -0.27 8.13 z" class="primitive"/>
              </g>
              <g transform="translate(72.04,88.33)" id="img-4f9069ea-122">
                <path d="M-0.27,-0 L 0.27 -0 0.27 0 -0.27 0 z" class="primitive"/>
              </g>
              <g transform="translate(72.52,88.33)" id="img-4f9069ea-123">
                <path d="M-0.27,-0 L 0.27 -0 0.27 0 -0.27 0 z" class="primitive"/>
              </g>
              <g transform="translate(73,88.33)" id="img-4f9069ea-124">
                <path d="M-0.27,-0 L 0.27 -0 0.27 0 -0.27 0 z" class="primitive"/>
              </g>
              <g transform="translate(73.49,88.33)" id="img-4f9069ea-125">
                <path d="M-0.27,-0 L 0.27 -0 0.27 0 -0.27 0 z" class="primitive"/>
              </g>
              <g transform="translate(73.97,88.33)" id="img-4f9069ea-126">
                <path d="M-0.27,-0 L 0.27 -0 0.27 0 -0.27 0 z" class="primitive"/>
              </g>
              <g transform="translate(74.45,88.33)" id="img-4f9069ea-127">
                <path d="M-0.27,-0 L 0.27 -0 0.27 0 -0.27 0 z" class="primitive"/>
              </g>
              <g transform="translate(74.93,88.33)" id="img-4f9069ea-128">
                <path d="M-0.27,-0 L 0.27 -0 0.27 0 -0.27 0 z" class="primitive"/>
              </g>
              <g transform="translate(75.42,88.33)" id="img-4f9069ea-129">
                <path d="M-0.27,-0 L 0.27 -0 0.27 0 -0.27 0 z" class="primitive"/>
              </g>
              <g transform="translate(75.9,88.33)" id="img-4f9069ea-130">
                <path d="M-0.27,-0 L 0.27 -0 0.27 0 -0.27 0 z" class="primitive"/>
              </g>
              <g transform="translate(76.38,88.33)" id="img-4f9069ea-131">
                <path d="M-0.27,-0 L 0.27 -0 0.27 0 -0.27 0 z" class="primitive"/>
              </g>
              <g transform="translate(76.86,80.19)" id="img-4f9069ea-132">
                <path d="M-0.27,-8.13 L 0.27 -8.13 0.27 8.13 -0.27 8.13 z" class="primitive"/>
              </g>
            </g>
          </g>
        </g>
      </g>
    </g>
  </g>
  <g class="guide ylabels" font-size="2.82" font-family="'PT Sans Caption','Helvetica Neue','Helvetica',sans-serif" fill="#6C606B" id="img-4f9069ea-133">
    <g transform="translate(15.28,88.33)" id="img-4f9069ea-134">
      <g class="primitive">
        <text text-anchor="end" dy="0.35em">0</text>
      </g>
    </g>
    <g transform="translate(15.28,72.06)" id="img-4f9069ea-135">
      <g class="primitive">
        <text text-anchor="end" dy="0.35em">1</text>
      </g>
    </g>
    <g transform="translate(15.28,55.8)" id="img-4f9069ea-136">
      <g class="primitive">
        <text text-anchor="end" dy="0.35em">2</text>
      </g>
    </g>
    <g transform="translate(15.28,39.53)" id="img-4f9069ea-137">
      <g class="primitive">
        <text text-anchor="end" dy="0.35em">3</text>
      </g>
    </g>
    <g transform="translate(15.28,23.27)" id="img-4f9069ea-138">
      <g class="primitive">
        <text text-anchor="end" dy="0.35em">4</text>
      </g>
    </g>
    <g transform="translate(15.28,7)" id="img-4f9069ea-139">
      <g class="primitive">
        <text text-anchor="end" dy="0.35em">5</text>
      </g>
    </g>
  </g>
  <g font-size="3.88" font-family="'PT Sans','Helvetica Neue','Helvetica',sans-serif" fill="#564A55" stroke="#000000" stroke-opacity="0.000" id="img-4f9069ea-140">
    <g transform="translate(8.81,45.66)" id="img-4f9069ea-141">
      <g class="primitive">
        <text text-anchor="middle" dy="0.35em" transform="rotate(-90,0, 2)">frequency</text>
      </g>
    </g>
  </g>
</g>
<defs>
  <clipPath id="img-4f9069ea-11">
    <path d="M16.28,5 L 92.23 5 92.23 90.33 16.28 90.33" />
  </clipPath>
</defs>
</svg>
