<?xml version="1.0" encoding="UTF-8"?>
<svg xmlns="http://www.w3.org/2000/svg"
     xmlns:xlink="http://www.w3.org/1999/xlink"
     xmlns:gadfly="http://www.gadflyjl.org/ns"
     version="1.2"
     width="141.42mm" height="100mm" viewBox="0 0 141.42 100"
     stroke="none"
     fill="#000000"
     stroke-width="0.3"
     font-size="3.88"
>
<defs>
  <marker id="arrow" markerWidth="15" markerHeight="7" refX="5" refY="3.5" orient="auto" markerUnits="strokeWidth">
    <path d="M0,0 L15,3.5 L0,7 z" stroke="context-stroke" fill="context-stroke"/>
  </marker>
</defs>
<g class="plotroot xscalable yscalable" id="img-c4dc63df-1">
  <g class="guide xlabels" font-size="2.82" font-family="'PT Sans Caption','Helvetica Neue','Helvetica',sans-serif" fill="#6C606B" id="img-c4dc63df-2">
    <g transform="translate(19.96,81.89)">
      <g class="primitive">
        <text text-anchor="end" dy="0.35em" transform="rotate(-90,0, 0)">4.0×10⁵</text>
      </g>
    </g>
    <g transform="translate(31.24,81.89)">
      <g class="primitive">
        <text text-anchor="end" dy="0.35em" transform="rotate(-90,0, 0)">5.0×10⁵</text>
      </g>
    </g>
    <g transform="translate(42.52,81.89)">
      <g class="primitive">
        <text text-anchor="end" dy="0.35em" transform="rotate(-90,0, 0)">6.0×10⁵</text>
      </g>
    </g>
    <g transform="translate(53.81,81.89)">
      <g class="primitive">
        <text text-anchor="end" dy="0.35em" transform="rotate(-90,0, 0)">7.0×10⁵</text>
      </g>
    </g>
    <g transform="translate(65.09,81.89)">
      <g class="primitive">
        <text text-anchor="end" dy="0.35em" transform="rotate(-90,0, 0)">8.0×10⁵</text>
      </g>
    </g>
    <g transform="translate(76.37,81.89)">
      <g class="primitive">
        <text text-anchor="end" dy="0.35em" transform="rotate(-90,0, 0)">9.0×10⁵</text>
      </g>
    </g>
  </g>
  <g class="guide colorkey" id="img-c4dc63df-3">
    <g class="color_coding_noncoding_noncoding_coding_4-path" id="img-c4dc63df-4">
      <g fill="#4C404B" font-size="2.82" font-family="'PT Sans','Helvetica Neue','Helvetica',sans-serif" id="img-c4dc63df-5">
        <g transform="translate(82.19,44.76)" id="img-c4dc63df-6">
          <g class="primitive">
            <text dy="0.35em">coding_noncoding_noncoding_coding_4-path</text>
          </g>
        </g>
      </g>
      <g fill-opacity="1" fill="#00BFFF" stroke="#FFFFFF" id="img-c4dc63df-7">
        <g transform="translate(80.28,44.76)" id="img-c4dc63df-8">
          <path d="M-0.91,-0.91 L 0.91 -0.91 0.91 0.91 -0.91 0.91 z" class="primitive"/>
        </g>
      </g>
    </g>
    <g fill="#362A35" font-size="3.88" font-family="'PT Sans','Helvetica Neue','Helvetica',sans-serif" stroke="#000000" stroke-opacity="0.000" id="img-c4dc63df-9">
      <g transform="translate(79.37,40.94)" id="img-c4dc63df-10">
        <g class="primitive">
          <text dy="-0em">graphlet</text>
        </g>
      </g>
    </g>
  </g>
  <g clip-path="url(#img-c4dc63df-11)">
    <g id="img-c4dc63df-12">
      <g pointer-events="visible" stroke-width="0.3" fill="#000000" fill-opacity="0.000" stroke="#000000" stroke-opacity="0.000" class="guide background" id="img-c4dc63df-13">
        <g transform="translate(48.17,42.94)" id="img-c4dc63df-14">
          <path d="M-30.21,-37.94 L 30.21 -37.94 30.21 37.94 -30.21 37.94 z" class="primitive"/>
        </g>
      </g>
      <g class="guide ygridlines xfixed" stroke-dasharray="0.5,0.5" stroke-width="0.2" stroke="#D0D0E0" id="img-c4dc63df-15">
        <g transform="translate(48.17,78.89)" id="img-c4dc63df-16">
          <path fill="none" d="M-30.21,0 L 30.21 0" class="primitive"/>
        </g>
        <g transform="translate(48.17,60.92)" id="img-c4dc63df-17">
          <path fill="none" d="M-30.21,0 L 30.21 0" class="primitive"/>
        </g>
        <g transform="translate(48.17,42.94)" id="img-c4dc63df-18">
          <path fill="none" d="M-30.21,0 L 30.21 0" class="primitive"/>
        </g>
        <g transform="translate(48.17,24.97)" id="img-c4dc63df-19">
          <path fill="none" d="M-30.21,0 L 30.21 0" class="primitive"/>
        </g>
        <g transform="translate(48.17,7)" id="img-c4dc63df-20">
          <path fill="none" d="M-30.21,0 L 30.21 0" class="primitive"/>
        </g>
      </g>
      <g class="guide xgridlines yfixed" stroke-dasharray="0.5,0.5" stroke-width="0.2" stroke="#D0D0E0" id="img-c4dc63df-21">
        <g transform="translate(19.96,42.94)" id="img-c4dc63df-22">
          <path fill="none" d="M0,-37.94 L 0 37.94" class="primitive"/>
        </g>
        <g transform="translate(31.24,42.94)" id="img-c4dc63df-23">
          <path fill="none" d="M0,-37.94 L 0 37.94" class="primitive"/>
        </g>
        <g transform="translate(42.52,42.94)" id="img-c4dc63df-24">
          <path fill="none" d="M0,-37.94 L 0 37.94" class="primitive"/>
        </g>
        <g transform="translate(53.81,42.94)" id="img-c4dc63df-25">
          <path fill="none" d="M0,-37.94 L 0 37.94" class="primitive"/>
        </g>
        <g transform="translate(65.09,42.94)" id="img-c4dc63df-26">
          <path fill="none" d="M0,-37.94 L 0 37.94" class="primitive"/>
        </g>
        <g transform="translate(76.37,42.94)" id="img-c4dc63df-27">
          <path fill="none" d="M0,-37.94 L 0 37.94" class="primitive"/>
        </g>
      </g>
      <g class="plotpanel" id="img-c4dc63df-28">
        <metadata>
          <boundingbox value="17.958333333333336mm 5.0mm 60.41635623730949mm 75.88666666666667mm"/>
          <unitbox value="382274.64397392835 41.112862839655016 535450.7120521433 -42.225725679310024"/>
        </metadata>
        <g shape-rendering="crispEdges" stroke-width="0.3" id="img-c4dc63df-29">
          <g stroke="#000000" stroke-opacity="0.000" class="geometry" id="img-c4dc63df-30">
            <g fill="#00BFFF" id="img-c4dc63df-31">
              <g transform="translate(26.6,77.09)" id="img-c4dc63df-32">
                <path d="M-0.25,-1.8 L 0.25 -1.8 0.25 1.8 -0.25 1.8 z" class="primitive"/>
              </g>
              <g transform="translate(27.04,78.89)" id="img-c4dc63df-33">
                <path d="M-0.25,-0 L 0.25 -0 0.25 0 -0.25 0 z" class="primitive"/>
              </g>
              <g transform="translate(27.49,78.89)" id="img-c4dc63df-34">
                <path d="M-0.25,-0 L 0.25 -0 0.25 0 -0.25 0 z" class="primitive"/>
              </g>
              <g transform="translate(27.93,78.89)" id="img-c4dc63df-35">
                <path d="M-0.25,-0 L 0.25 -0 0.25 0 -0.25 0 z" class="primitive"/>
              </g>
              <g transform="translate(28.37,78.89)" id="img-c4dc63df-36">
                <path d="M-0.25,-0 L 0.25 -0 0.25 0 -0.25 0 z" class="primitive"/>
              </g>
              <g transform="translate(28.82,78.89)" id="img-c4dc63df-37">
                <path d="M-0.25,-0 L 0.25 -0 0.25 0 -0.25 0 z" class="primitive"/>
              </g>
              <g transform="translate(29.26,78.89)" id="img-c4dc63df-38">
                <path d="M-0.25,-0 L 0.25 -0 0.25 0 -0.25 0 z" class="primitive"/>
              </g>
              <g transform="translate(29.71,77.09)" id="img-c4dc63df-39">
                <path d="M-0.25,-1.8 L 0.25 -1.8 0.25 1.8 -0.25 1.8 z" class="primitive"/>
              </g>
              <g transform="translate(30.15,77.99)" id="img-c4dc63df-40">
                <path d="M-0.25,-0.9 L 0.25 -0.9 0.25 0.9 -0.25 0.9 z" class="primitive"/>
              </g>
              <g transform="translate(30.6,77.99)" id="img-c4dc63df-41">
                <path d="M-0.25,-0.9 L 0.25 -0.9 0.25 0.9 -0.25 0.9 z" class="primitive"/>
              </g>
              <g transform="translate(31.04,78.89)" id="img-c4dc63df-42">
                <path d="M-0.25,-0 L 0.25 -0 0.25 0 -0.25 0 z" class="primitive"/>
              </g>
              <g transform="translate(31.49,78.89)" id="img-c4dc63df-43">
                <path d="M-0.25,-0 L 0.25 -0 0.25 0 -0.25 0 z" class="primitive"/>
              </g>
              <g transform="translate(31.93,77.99)" id="img-c4dc63df-44">
                <path d="M-0.25,-0.9 L 0.25 -0.9 0.25 0.9 -0.25 0.9 z" class="primitive"/>
              </g>
              <g transform="translate(32.37,77.09)" id="img-c4dc63df-45">
                <path d="M-0.25,-1.8 L 0.25 -1.8 0.25 1.8 -0.25 1.8 z" class="primitive"/>
              </g>
              <g transform="translate(32.82,78.89)" id="img-c4dc63df-46">
                <path d="M-0.25,-0 L 0.25 -0 0.25 0 -0.25 0 z" class="primitive"/>
              </g>
              <g transform="translate(33.26,74.39)" id="img-c4dc63df-47">
                <path d="M-0.25,-4.49 L 0.25 -4.49 0.25 4.49 -0.25 4.49 z" class="primitive"/>
              </g>
              <g transform="translate(33.71,77.99)" id="img-c4dc63df-48">
                <path d="M-0.25,-0.9 L 0.25 -0.9 0.25 0.9 -0.25 0.9 z" class="primitive"/>
              </g>
              <g transform="translate(34.15,74.39)" id="img-c4dc63df-49">
                <path d="M-0.25,-4.49 L 0.25 -4.49 0.25 4.49 -0.25 4.49 z" class="primitive"/>
              </g>
              <g transform="translate(34.6,75.29)" id="img-c4dc63df-50">
                <path d="M-0.25,-3.59 L 0.25 -3.59 0.25 3.59 -0.25 3.59 z" class="primitive"/>
              </g>
              <g transform="translate(35.04,77.09)" id="img-c4dc63df-51">
                <path d="M-0.25,-1.8 L 0.25 -1.8 0.25 1.8 -0.25 1.8 z" class="primitive"/>
              </g>
              <g transform="translate(35.48,75.29)" id="img-c4dc63df-52">
                <path d="M-0.25,-3.59 L 0.25 -3.59 0.25 3.59 -0.25 3.59 z" class="primitive"/>
              </g>
              <g transform="translate(35.93,74.39)" id="img-c4dc63df-53">
                <path d="M-0.25,-4.49 L 0.25 -4.49 0.25 4.49 -0.25 4.49 z" class="primitive"/>
              </g>
              <g transform="translate(36.37,74.39)" id="img-c4dc63df-54">
                <path d="M-0.25,-4.49 L 0.25 -4.49 0.25 4.49 -0.25 4.49 z" class="primitive"/>
              </g>
              <g transform="translate(36.82,72.6)" id="img-c4dc63df-55">
                <path d="M-0.25,-6.29 L 0.25 -6.29 0.25 6.29 -0.25 6.29 z" class="primitive"/>
              </g>
              <g transform="translate(37.26,76.19)" id="img-c4dc63df-56">
                <path d="M-0.25,-2.7 L 0.25 -2.7 0.25 2.7 -0.25 2.7 z" class="primitive"/>
              </g>
              <g transform="translate(37.71,73.5)" id="img-c4dc63df-57">
                <path d="M-0.25,-5.39 L 0.25 -5.39 0.25 5.39 -0.25 5.39 z" class="primitive"/>
              </g>
              <g transform="translate(38.15,70.8)" id="img-c4dc63df-58">
                <path d="M-0.25,-8.09 L 0.25 -8.09 0.25 8.09 -0.25 8.09 z" class="primitive"/>
              </g>
              <g transform="translate(38.6,72.6)" id="img-c4dc63df-59">
                <path d="M-0.25,-6.29 L 0.25 -6.29 0.25 6.29 -0.25 6.29 z" class="primitive"/>
              </g>
              <g transform="translate(39.04,69)" id="img-c4dc63df-60">
                <path d="M-0.25,-9.88 L 0.25 -9.88 0.25 9.88 -0.25 9.88 z" class="primitive"/>
              </g>
              <g transform="translate(39.48,69.9)" id="img-c4dc63df-61">
                <path d="M-0.25,-8.99 L 0.25 -8.99 0.25 8.99 -0.25 8.99 z" class="primitive"/>
              </g>
              <g transform="translate(39.93,73.5)" id="img-c4dc63df-62">
                <path d="M-0.25,-5.39 L 0.25 -5.39 0.25 5.39 -0.25 5.39 z" class="primitive"/>
              </g>
              <g transform="translate(40.37,68.1)" id="img-c4dc63df-63">
                <path d="M-0.25,-10.78 L 0.25 -10.78 0.25 10.78 -0.25 10.78 z" class="primitive"/>
              </g>
              <g transform="translate(40.82,65.41)" id="img-c4dc63df-64">
                <path d="M-0.25,-13.48 L 0.25 -13.48 0.25 13.48 -0.25 13.48 z" class="primitive"/>
              </g>
              <g transform="translate(41.26,64.51)" id="img-c4dc63df-65">
                <path d="M-0.25,-14.38 L 0.25 -14.38 0.25 14.38 -0.25 14.38 z" class="primitive"/>
              </g>
              <g transform="translate(41.71,64.51)" id="img-c4dc63df-66">
                <path d="M-0.25,-14.38 L 0.25 -14.38 0.25 14.38 -0.25 14.38 z" class="primitive"/>
              </g>
              <g transform="translate(42.15,64.51)" id="img-c4dc63df-67">
                <path d="M-0.25,-14.38 L 0.25 -14.38 0.25 14.38 -0.25 14.38 z" class="primitive"/>
              </g>
              <g transform="translate(42.6,66.31)" id="img-c4dc63df-68">
                <path d="M-0.25,-12.58 L 0.25 -12.58 0.25 12.58 -0.25 12.58 z" class="primitive"/>
              </g>
              <g transform="translate(43.04,60.02)" id="img-c4dc63df-69">
                <path d="M-0.25,-18.87 L 0.25 -18.87 0.25 18.87 -0.25 18.87 z" class="primitive"/>
              </g>
              <g transform="translate(43.48,68.1)" id="img-c4dc63df-70">
                <path d="M-0.25,-10.78 L 0.25 -10.78 0.25 10.78 -0.25 10.78 z" class="primitive"/>
              </g>
              <g transform="translate(43.93,58.22)" id="img-c4dc63df-71">
                <path d="M-0.25,-20.67 L 0.25 -20.67 0.25 20.67 -0.25 20.67 z" class="primitive"/>
              </g>
              <g transform="translate(44.37,59.12)" id="img-c4dc63df-72">
                <path d="M-0.25,-19.77 L 0.25 -19.77 0.25 19.77 -0.25 19.77 z" class="primitive"/>
              </g>
              <g transform="translate(44.82,54.62)" id="img-c4dc63df-73">
                <path d="M-0.25,-24.26 L 0.25 -24.26 0.25 24.26 -0.25 24.26 z" class="primitive"/>
              </g>
              <g transform="translate(45.26,56.42)" id="img-c4dc63df-74">
                <path d="M-0.25,-22.46 L 0.25 -22.46 0.25 22.46 -0.25 22.46 z" class="primitive"/>
              </g>
              <g transform="translate(45.71,60.92)" id="img-c4dc63df-75">
                <path d="M-0.25,-17.97 L 0.25 -17.97 0.25 17.97 -0.25 17.97 z" class="primitive"/>
              </g>
              <g transform="translate(46.15,58.22)" id="img-c4dc63df-76">
                <path d="M-0.25,-20.67 L 0.25 -20.67 0.25 20.67 -0.25 20.67 z" class="primitive"/>
              </g>
              <g transform="translate(46.59,51.03)" id="img-c4dc63df-77">
                <path d="M-0.25,-27.86 L 0.25 -27.86 0.25 27.86 -0.25 27.86 z" class="primitive"/>
              </g>
              <g transform="translate(47.04,56.42)" id="img-c4dc63df-78">
                <path d="M-0.25,-22.46 L 0.25 -22.46 0.25 22.46 -0.25 22.46 z" class="primitive"/>
              </g>
              <g transform="translate(47.48,53.73)" id="img-c4dc63df-79">
                <path d="M-0.25,-25.16 L 0.25 -25.16 0.25 25.16 -0.25 25.16 z" class="primitive"/>
              </g>
              <g transform="translate(47.93,52.83)" id="img-c4dc63df-80">
                <path d="M-0.25,-26.06 L 0.25 -26.06 0.25 26.06 -0.25 26.06 z" class="primitive"/>
              </g>
              <g transform="translate(48.37,60.92)" id="img-c4dc63df-81">
                <path d="M-0.25,-17.97 L 0.25 -17.97 0.25 17.97 -0.25 17.97 z" class="primitive"/>
              </g>
              <g transform="translate(48.82,60.02)" id="img-c4dc63df-82">
                <path d="M-0.25,-18.87 L 0.25 -18.87 0.25 18.87 -0.25 18.87 z" class="primitive"/>
              </g>
              <g transform="translate(49.26,60.02)" id="img-c4dc63df-83">
                <path d="M-0.25,-18.87 L 0.25 -18.87 0.25 18.87 -0.25 18.87 z" class="primitive"/>
              </g>
              <g transform="translate(49.71,47.44)" id="img-c4dc63df-84">
                <path d="M-0.25,-31.45 L 0.25 -31.45 0.25 31.45 -0.25 31.45 z" class="primitive"/>
              </g>
              <g transform="translate(50.15,56.42)" id="img-c4dc63df-85">
                <path d="M-0.25,-22.46 L 0.25 -22.46 0.25 22.46 -0.25 22.46 z" class="primitive"/>
              </g>
              <g transform="translate(50.59,51.93)" id="img-c4dc63df-86">
                <path d="M-0.25,-26.96 L 0.25 -26.96 0.25 26.96 -0.25 26.96 z" class="primitive"/>
              </g>
              <g transform="translate(51.04,55.52)" id="img-c4dc63df-87">
                <path d="M-0.25,-23.36 L 0.25 -23.36 0.25 23.36 -0.25 23.36 z" class="primitive"/>
              </g>
              <g transform="translate(51.48,60.02)" id="img-c4dc63df-88">
                <path d="M-0.25,-18.87 L 0.25 -18.87 0.25 18.87 -0.25 18.87 z" class="primitive"/>
              </g>
              <g transform="translate(51.93,58.22)" id="img-c4dc63df-89">
                <path d="M-0.25,-20.67 L 0.25 -20.67 0.25 20.67 -0.25 20.67 z" class="primitive"/>
              </g>
              <g transform="translate(52.37,58.22)" id="img-c4dc63df-90">
                <path d="M-0.25,-20.67 L 0.25 -20.67 0.25 20.67 -0.25 20.67 z" class="primitive"/>
              </g>
              <g transform="translate(52.82,56.42)" id="img-c4dc63df-91">
                <path d="M-0.25,-22.46 L 0.25 -22.46 0.25 22.46 -0.25 22.46 z" class="primitive"/>
              </g>
              <g transform="translate(53.26,57.32)" id="img-c4dc63df-92">
                <path d="M-0.25,-21.57 L 0.25 -21.57 0.25 21.57 -0.25 21.57 z" class="primitive"/>
              </g>
              <g transform="translate(53.71,63.61)" id="img-c4dc63df-93">
                <path d="M-0.25,-15.28 L 0.25 -15.28 0.25 15.28 -0.25 15.28 z" class="primitive"/>
              </g>
              <g transform="translate(54.15,64.51)" id="img-c4dc63df-94">
                <path d="M-0.25,-14.38 L 0.25 -14.38 0.25 14.38 -0.25 14.38 z" class="primitive"/>
              </g>
              <g transform="translate(54.59,60.92)" id="img-c4dc63df-95">
                <path d="M-0.25,-17.97 L 0.25 -17.97 0.25 17.97 -0.25 17.97 z" class="primitive"/>
              </g>
              <g transform="translate(55.04,60.02)" id="img-c4dc63df-96">
                <path d="M-0.25,-18.87 L 0.25 -18.87 0.25 18.87 -0.25 18.87 z" class="primitive"/>
              </g>
              <g transform="translate(55.48,68.1)" id="img-c4dc63df-97">
                <path d="M-0.25,-10.78 L 0.25 -10.78 0.25 10.78 -0.25 10.78 z" class="primitive"/>
              </g>
              <g transform="translate(55.93,56.42)" id="img-c4dc63df-98">
                <path d="M-0.25,-22.46 L 0.25 -22.46 0.25 22.46 -0.25 22.46 z" class="primitive"/>
              </g>
              <g transform="translate(56.37,69.9)" id="img-c4dc63df-99">
                <path d="M-0.25,-8.99 L 0.25 -8.99 0.25 8.99 -0.25 8.99 z" class="primitive"/>
              </g>
              <g transform="translate(56.82,68.1)" id="img-c4dc63df-100">
                <path d="M-0.25,-10.78 L 0.25 -10.78 0.25 10.78 -0.25 10.78 z" class="primitive"/>
              </g>
              <g transform="translate(57.26,75.29)" id="img-c4dc63df-101">
                <path d="M-0.25,-3.59 L 0.25 -3.59 0.25 3.59 -0.25 3.59 z" class="primitive"/>
              </g>
              <g transform="translate(57.7,73.5)" id="img-c4dc63df-102">
                <path d="M-0.25,-5.39 L 0.25 -5.39 0.25 5.39 -0.25 5.39 z" class="primitive"/>
              </g>
              <g transform="translate(58.15,71.7)" id="img-c4dc63df-103">
                <path d="M-0.25,-7.19 L 0.25 -7.19 0.25 7.19 -0.25 7.19 z" class="primitive"/>
              </g>
              <g transform="translate(58.59,71.7)" id="img-c4dc63df-104">
                <path d="M-0.25,-7.19 L 0.25 -7.19 0.25 7.19 -0.25 7.19 z" class="primitive"/>
              </g>
              <g transform="translate(59.04,72.6)" id="img-c4dc63df-105">
                <path d="M-0.25,-6.29 L 0.25 -6.29 0.25 6.29 -0.25 6.29 z" class="primitive"/>
              </g>
              <g transform="translate(59.48,70.8)" id="img-c4dc63df-106">
                <path d="M-0.25,-8.09 L 0.25 -8.09 0.25 8.09 -0.25 8.09 z" class="primitive"/>
              </g>
              <g transform="translate(59.93,75.29)" id="img-c4dc63df-107">
                <path d="M-0.25,-3.59 L 0.25 -3.59 0.25 3.59 -0.25 3.59 z" class="primitive"/>
              </g>
              <g transform="translate(60.37,70.8)" id="img-c4dc63df-108">
                <path d="M-0.25,-8.09 L 0.25 -8.09 0.25 8.09 -0.25 8.09 z" class="primitive"/>
              </g>
              <g transform="translate(60.82,74.39)" id="img-c4dc63df-109">
                <path d="M-0.25,-4.49 L 0.25 -4.49 0.25 4.49 -0.25 4.49 z" class="primitive"/>
              </g>
              <g transform="translate(61.26,75.29)" id="img-c4dc63df-110">
                <path d="M-0.25,-3.59 L 0.25 -3.59 0.25 3.59 -0.25 3.59 z" class="primitive"/>
              </g>
              <g transform="translate(61.7,76.19)" id="img-c4dc63df-111">
                <path d="M-0.25,-2.7 L 0.25 -2.7 0.25 2.7 -0.25 2.7 z" class="primitive"/>
              </g>
              <g transform="translate(62.15,70.8)" id="img-c4dc63df-112">
                <path d="M-0.25,-8.09 L 0.25 -8.09 0.25 8.09 -0.25 8.09 z" class="primitive"/>
              </g>
              <g transform="translate(62.59,77.09)" id="img-c4dc63df-113">
                <path d="M-0.25,-1.8 L 0.25 -1.8 0.25 1.8 -0.25 1.8 z" class="primitive"/>
              </g>
              <g transform="translate(63.04,74.39)" id="img-c4dc63df-114">
                <path d="M-0.25,-4.49 L 0.25 -4.49 0.25 4.49 -0.25 4.49 z" class="primitive"/>
              </g>
              <g transform="translate(63.48,77.09)" id="img-c4dc63df-115">
                <path d="M-0.25,-1.8 L 0.25 -1.8 0.25 1.8 -0.25 1.8 z" class="primitive"/>
              </g>
              <g transform="translate(63.93,75.29)" id="img-c4dc63df-116">
                <path d="M-0.25,-3.59 L 0.25 -3.59 0.25 3.59 -0.25 3.59 z" class="primitive"/>
              </g>
              <g transform="translate(64.37,78.89)" id="img-c4dc63df-117">
                <path d="M-0.25,-0 L 0.25 -0 0.25 0 -0.25 0 z" class="primitive"/>
              </g>
              <g transform="translate(64.82,77.99)" id="img-c4dc63df-118">
                <path d="M-0.25,-0.9 L 0.25 -0.9 0.25 0.9 -0.25 0.9 z" class="primitive"/>
              </g>
              <g transform="translate(65.26,77.09)" id="img-c4dc63df-119">
                <path d="M-0.25,-1.8 L 0.25 -1.8 0.25 1.8 -0.25 1.8 z" class="primitive"/>
              </g>
              <g transform="translate(65.7,77.09)" id="img-c4dc63df-120">
                <path d="M-0.25,-1.8 L 0.25 -1.8 0.25 1.8 -0.25 1.8 z" class="primitive"/>
              </g>
              <g transform="translate(66.15,77.09)" id="img-c4dc63df-121">
                <path d="M-0.25,-1.8 L 0.25 -1.8 0.25 1.8 -0.25 1.8 z" class="primitive"/>
              </g>
              <g transform="translate(66.59,78.89)" id="img-c4dc63df-122">
                <path d="M-0.25,-0 L 0.25 -0 0.25 0 -0.25 0 z" class="primitive"/>
              </g>
              <g transform="translate(67.04,77.99)" id="img-c4dc63df-123">
                <path d="M-0.25,-0.9 L 0.25 -0.9 0.25 0.9 -0.25 0.9 z" class="primitive"/>
              </g>
              <g transform="translate(67.48,78.89)" id="img-c4dc63df-124">
                <path d="M-0.25,-0 L 0.25 -0 0.25 0 -0.25 0 z" class="primitive"/>
              </g>
              <g transform="translate(67.93,78.89)" id="img-c4dc63df-125">
                <path d="M-0.25,-0 L 0.25 -0 0.25 0 -0.25 0 z" class="primitive"/>
              </g>
              <g transform="translate(68.37,78.89)" id="img-c4dc63df-126">
                <path d="M-0.25,-0 L 0.25 -0 0.25 0 -0.25 0 z" class="primitive"/>
              </g>
              <g transform="translate(68.81,78.89)" id="img-c4dc63df-127">
                <path d="M-0.25,-0 L 0.25 -0 0.25 0 -0.25 0 z" class="primitive"/>
              </g>
              <g transform="translate(69.26,78.89)" id="img-c4dc63df-128">
                <path d="M-0.25,-0 L 0.25 -0 0.25 0 -0.25 0 z" class="primitive"/>
              </g>
              <g transform="translate(69.7,77.99)" id="img-c4dc63df-129">
                <path d="M-0.25,-0.9 L 0.25 -0.9 0.25 0.9 -0.25 0.9 z" class="primitive"/>
              </g>
              <g transform="translate(70.15,78.89)" id="img-c4dc63df-130">
                <path d="M-0.25,-0 L 0.25 -0 0.25 0 -0.25 0 z" class="primitive"/>
              </g>
              <g transform="translate(70.59,77.99)" id="img-c4dc63df-131">
                <path d="M-0.25,-0.9 L 0.25 -0.9 0.25 0.9 -0.25 0.9 z" class="primitive"/>
              </g>
            </g>
          </g>
        </g>
      </g>
    </g>
  </g>
  <g class="guide ylabels" font-size="2.82" font-family="'PT Sans Caption','Helvetica Neue','Helvetica',sans-serif" fill="#6C606B" id="img-c4dc63df-132">
    <g transform="translate(16.96,78.89)" id="img-c4dc63df-133">
      <g class="primitive">
        <text text-anchor="end" dy="0.35em">0</text>
      </g>
    </g>
    <g transform="translate(16.96,60.92)" id="img-c4dc63df-134">
      <g class="primitive">
        <text text-anchor="end" dy="0.35em">10</text>
      </g>
    </g>
    <g transform="translate(16.96,42.94)" id="img-c4dc63df-135">
      <g class="primitive">
        <text text-anchor="end" dy="0.35em">20</text>
      </g>
    </g>
    <g transform="translate(16.96,24.97)" id="img-c4dc63df-136">
      <g class="primitive">
        <text text-anchor="end" dy="0.35em">30</text>
      </g>
    </g>
    <g transform="translate(16.96,7)" id="img-c4dc63df-137">
      <g class="primitive">
        <text text-anchor="end" dy="0.35em">40</text>
      </g>
    </g>
  </g>
  <g font-size="3.88" font-family="'PT Sans','Helvetica Neue','Helvetica',sans-serif" fill="#564A55" stroke="#000000" stroke-opacity="0.000" id="img-c4dc63df-138">
    <g transform="translate(8.81,40.94)" id="img-c4dc63df-139">
      <g class="primitive">
        <text text-anchor="middle" dy="0.35em" transform="rotate(-90,0, 2)">frequency</text>
      </g>
    </g>
  </g>
</g>
<defs>
  <clipPath id="img-c4dc63df-11">
    <path d="M17.96,5 L 78.37 5 78.37 80.89 17.96 80.89" />
  </clipPath>
</defs>
</svg>
