<?xml version="1.0" encoding="UTF-8"?>
<svg xmlns="http://www.w3.org/2000/svg"
     xmlns:xlink="http://www.w3.org/1999/xlink"
     xmlns:gadfly="http://www.gadflyjl.org/ns"
     version="1.2"
     width="141.42mm" height="100mm" viewBox="0 0 141.42 100"
     stroke="none"
     fill="#000000"
     stroke-width="0.3"
     font-size="3.88"
>
<defs>
  <marker id="arrow" markerWidth="15" markerHeight="7" refX="5" refY="3.5" orient="auto" markerUnits="strokeWidth">
    <path d="M0,0 L15,3.5 L0,7 z" stroke="context-stroke" fill="context-stroke"/>
  </marker>
</defs>
<g class="plotroot xscalable yscalable" id="img-326710e4-1">
  <g class="guide xlabels" font-size="2.82" font-family="'PT Sans Caption','Helvetica Neue','Helvetica',sans-serif" fill="#6C606B" id="img-326710e4-2">
    <g transform="translate(18.29,91.33)">
      <g class="primitive">
        <text text-anchor="middle" dy="0.6em">14.5</text>
      </g>
    </g>
    <g transform="translate(40.48,91.33)">
      <g class="primitive">
        <text text-anchor="middle" dy="0.6em">14.6</text>
      </g>
    </g>
    <g transform="translate(62.67,91.33)">
      <g class="primitive">
        <text text-anchor="middle" dy="0.6em">14.7</text>
      </g>
    </g>
    <g transform="translate(84.87,91.33)">
      <g class="primitive">
        <text text-anchor="middle" dy="0.6em">14.8</text>
      </g>
    </g>
  </g>
  <g class="guide colorkey" id="img-326710e4-3">
    <g class="color_coding_coding_coding_coding_4-cycle" id="img-326710e4-4">
      <g fill="#4C404B" font-size="2.82" font-family="'PT Sans','Helvetica Neue','Helvetica',sans-serif" id="img-326710e4-5">
        <g transform="translate(90.68,49.48)" id="img-326710e4-6">
          <g class="primitive">
            <text dy="0.35em">coding_coding_coding_coding_4-cycle</text>
          </g>
        </g>
      </g>
      <g fill-opacity="1" fill="#00BFFF" stroke="#FFFFFF" id="img-326710e4-7">
        <g transform="translate(88.77,49.48)" id="img-326710e4-8">
          <path d="M-0.91,-0.91 L 0.91 -0.91 0.91 0.91 -0.91 0.91 z" class="primitive"/>
        </g>
      </g>
    </g>
    <g fill="#362A35" font-size="3.88" font-family="'PT Sans','Helvetica Neue','Helvetica',sans-serif" stroke="#000000" stroke-opacity="0.000" id="img-326710e4-9">
      <g transform="translate(87.87,45.66)" id="img-326710e4-10">
        <g class="primitive">
          <text dy="-0em">graphlet</text>
        </g>
      </g>
    </g>
  </g>
  <g clip-path="url(#img-326710e4-11)">
    <g id="img-326710e4-12">
      <g pointer-events="visible" stroke-width="0.3" fill="#000000" fill-opacity="0.000" stroke="#000000" stroke-opacity="0.000" class="guide background" id="img-326710e4-13">
        <g transform="translate(51.58,47.66)" id="img-326710e4-14">
          <path d="M-35.29,-42.66 L 35.29 -42.66 35.29 42.66 -35.29 42.66 z" class="primitive"/>
        </g>
      </g>
      <g class="guide ygridlines xfixed" stroke-dasharray="0.5,0.5" stroke-width="0.2" stroke="#D0D0E0" id="img-326710e4-15">
        <g transform="translate(51.58,88.33)" id="img-326710e4-16">
          <path fill="none" d="M-35.29,0 L 35.29 0" class="primitive"/>
        </g>
        <g transform="translate(51.58,68)" id="img-326710e4-17">
          <path fill="none" d="M-35.29,0 L 35.29 0" class="primitive"/>
        </g>
        <g transform="translate(51.58,47.66)" id="img-326710e4-18">
          <path fill="none" d="M-35.29,0 L 35.29 0" class="primitive"/>
        </g>
        <g transform="translate(51.58,27.33)" id="img-326710e4-19">
          <path fill="none" d="M-35.29,0 L 35.29 0" class="primitive"/>
        </g>
        <g transform="translate(51.58,7)" id="img-326710e4-20">
          <path fill="none" d="M-35.29,0 L 35.29 0" class="primitive"/>
        </g>
      </g>
      <g class="guide xgridlines yfixed" stroke-dasharray="0.5,0.5" stroke-width="0.2" stroke="#D0D0E0" id="img-326710e4-21">
        <g transform="translate(18.29,47.66)" id="img-326710e4-22">
          <path fill="none" d="M0,-42.66 L 0 42.66" class="primitive"/>
        </g>
        <g transform="translate(40.48,47.66)" id="img-326710e4-23">
          <path fill="none" d="M0,-42.66 L 0 42.66" class="primitive"/>
        </g>
        <g transform="translate(62.67,47.66)" id="img-326710e4-24">
          <path fill="none" d="M0,-42.66 L 0 42.66" class="primitive"/>
        </g>
        <g transform="translate(84.87,47.66)" id="img-326710e4-25">
          <path fill="none" d="M0,-42.66 L 0 42.66" class="primitive"/>
        </g>
      </g>
      <g class="plotpanel" id="img-326710e4-26">
        <metadata>
          <boundingbox value="16.284999999999997mm 5.0mm 70.58302290397617mm 85.32666666666667mm"/>
          <unitbox value="14.490988693906774 8.196737437494876 0.31802261218645256 -8.393474874989753"/>
        </metadata>
        <g shape-rendering="crispEdges" stroke-width="0.3" id="img-326710e4-27">
          <g stroke="#000000" stroke-opacity="0.000" class="geometry" id="img-326710e4-28">
            <g fill="#00BFFF" id="img-326710e4-29">
              <g transform="translate(21.04,83.24)" id="img-326710e4-30">
                <path d="M-0.31,-5.08 L 0.31 -5.08 0.31 5.08 -0.31 5.08 z" class="primitive"/>
              </g>
              <g transform="translate(21.62,88.33)" id="img-326710e4-31">
                <path d="M-0.31,-0 L 0.31 -0 0.31 0 -0.31 0 z" class="primitive"/>
              </g>
              <g transform="translate(22.2,83.24)" id="img-326710e4-32">
                <path d="M-0.31,-5.08 L 0.31 -5.08 0.31 5.08 -0.31 5.08 z" class="primitive"/>
              </g>
              <g transform="translate(22.78,88.33)" id="img-326710e4-33">
                <path d="M-0.31,-0 L 0.31 -0 0.31 0 -0.31 0 z" class="primitive"/>
              </g>
              <g transform="translate(23.36,88.33)" id="img-326710e4-34">
                <path d="M-0.31,-0 L 0.31 -0 0.31 0 -0.31 0 z" class="primitive"/>
              </g>
              <g transform="translate(23.94,88.33)" id="img-326710e4-35">
                <path d="M-0.31,-0 L 0.31 -0 0.31 0 -0.31 0 z" class="primitive"/>
              </g>
              <g transform="translate(24.51,88.33)" id="img-326710e4-36">
                <path d="M-0.31,-0 L 0.31 -0 0.31 0 -0.31 0 z" class="primitive"/>
              </g>
              <g transform="translate(25.09,88.33)" id="img-326710e4-37">
                <path d="M-0.31,-0 L 0.31 -0 0.31 0 -0.31 0 z" class="primitive"/>
              </g>
              <g transform="translate(25.67,88.33)" id="img-326710e4-38">
                <path d="M-0.31,-0 L 0.31 -0 0.31 0 -0.31 0 z" class="primitive"/>
              </g>
              <g transform="translate(26.25,83.24)" id="img-326710e4-39">
                <path d="M-0.31,-5.08 L 0.31 -5.08 0.31 5.08 -0.31 5.08 z" class="primitive"/>
              </g>
              <g transform="translate(26.83,83.24)" id="img-326710e4-40">
                <path d="M-0.31,-5.08 L 0.31 -5.08 0.31 5.08 -0.31 5.08 z" class="primitive"/>
              </g>
              <g transform="translate(27.41,88.33)" id="img-326710e4-41">
                <path d="M-0.31,-0 L 0.31 -0 0.31 0 -0.31 0 z" class="primitive"/>
              </g>
              <g transform="translate(27.99,83.24)" id="img-326710e4-42">
                <path d="M-0.31,-5.08 L 0.31 -5.08 0.31 5.08 -0.31 5.08 z" class="primitive"/>
              </g>
              <g transform="translate(28.57,88.33)" id="img-326710e4-43">
                <path d="M-0.31,-0 L 0.31 -0 0.31 0 -0.31 0 z" class="primitive"/>
              </g>
              <g transform="translate(29.15,83.24)" id="img-326710e4-44">
                <path d="M-0.31,-5.08 L 0.31 -5.08 0.31 5.08 -0.31 5.08 z" class="primitive"/>
              </g>
              <g transform="translate(29.73,83.24)" id="img-326710e4-45">
                <path d="M-0.31,-5.08 L 0.31 -5.08 0.31 5.08 -0.31 5.08 z" class="primitive"/>
              </g>
              <g transform="translate(30.3,88.33)" id="img-326710e4-46">
                <path d="M-0.31,-0 L 0.31 -0 0.31 0 -0.31 0 z" class="primitive"/>
              </g>
              <g transform="translate(30.88,88.33)" id="img-326710e4-47">
                <path d="M-0.31,-0 L 0.31 -0 0.31 0 -0.31 0 z" class="primitive"/>
              </g>
              <g transform="translate(31.46,83.24)" id="img-326710e4-48">
                <path d="M-0.31,-5.08 L 0.31 -5.08 0.31 5.08 -0.31 5.08 z" class="primitive"/>
              </g>
              <g transform="translate(32.04,73.08)" id="img-326710e4-49">
                <path d="M-0.31,-15.25 L 0.31 -15.25 0.31 15.25 -0.31 15.25 z" class="primitive"/>
              </g>
              <g transform="translate(32.62,83.24)" id="img-326710e4-50">
                <path d="M-0.31,-5.08 L 0.31 -5.08 0.31 5.08 -0.31 5.08 z" class="primitive"/>
              </g>
              <g transform="translate(33.2,83.24)" id="img-326710e4-51">
                <path d="M-0.31,-5.08 L 0.31 -5.08 0.31 5.08 -0.31 5.08 z" class="primitive"/>
              </g>
              <g transform="translate(33.78,83.24)" id="img-326710e4-52">
                <path d="M-0.31,-5.08 L 0.31 -5.08 0.31 5.08 -0.31 5.08 z" class="primitive"/>
              </g>
              <g transform="translate(34.36,88.33)" id="img-326710e4-53">
                <path d="M-0.31,-0 L 0.31 -0 0.31 0 -0.31 0 z" class="primitive"/>
              </g>
              <g transform="translate(34.94,73.08)" id="img-326710e4-54">
                <path d="M-0.31,-15.25 L 0.31 -15.25 0.31 15.25 -0.31 15.25 z" class="primitive"/>
              </g>
              <g transform="translate(35.52,88.33)" id="img-326710e4-55">
                <path d="M-0.31,-0 L 0.31 -0 0.31 0 -0.31 0 z" class="primitive"/>
              </g>
              <g transform="translate(36.09,78.16)" id="img-326710e4-56">
                <path d="M-0.31,-10.17 L 0.31 -10.17 0.31 10.17 -0.31 10.17 z" class="primitive"/>
              </g>
              <g transform="translate(36.67,68)" id="img-326710e4-57">
                <path d="M-0.31,-20.33 L 0.31 -20.33 0.31 20.33 -0.31 20.33 z" class="primitive"/>
              </g>
              <g transform="translate(37.25,83.24)" id="img-326710e4-58">
                <path d="M-0.31,-5.08 L 0.31 -5.08 0.31 5.08 -0.31 5.08 z" class="primitive"/>
              </g>
              <g transform="translate(37.83,88.33)" id="img-326710e4-59">
                <path d="M-0.31,-0 L 0.31 -0 0.31 0 -0.31 0 z" class="primitive"/>
              </g>
              <g transform="translate(38.41,78.16)" id="img-326710e4-60">
                <path d="M-0.31,-10.17 L 0.31 -10.17 0.31 10.17 -0.31 10.17 z" class="primitive"/>
              </g>
              <g transform="translate(38.99,78.16)" id="img-326710e4-61">
                <path d="M-0.31,-10.17 L 0.31 -10.17 0.31 10.17 -0.31 10.17 z" class="primitive"/>
              </g>
              <g transform="translate(39.57,78.16)" id="img-326710e4-62">
                <path d="M-0.31,-10.17 L 0.31 -10.17 0.31 10.17 -0.31 10.17 z" class="primitive"/>
              </g>
              <g transform="translate(40.15,78.16)" id="img-326710e4-63">
                <path d="M-0.31,-10.17 L 0.31 -10.17 0.31 10.17 -0.31 10.17 z" class="primitive"/>
              </g>
              <g transform="translate(40.73,73.08)" id="img-326710e4-64">
                <path d="M-0.31,-15.25 L 0.31 -15.25 0.31 15.25 -0.31 15.25 z" class="primitive"/>
              </g>
              <g transform="translate(41.31,83.24)" id="img-326710e4-65">
                <path d="M-0.31,-5.08 L 0.31 -5.08 0.31 5.08 -0.31 5.08 z" class="primitive"/>
              </g>
              <g transform="translate(41.88,88.33)" id="img-326710e4-66">
                <path d="M-0.31,-0 L 0.31 -0 0.31 0 -0.31 0 z" class="primitive"/>
              </g>
              <g transform="translate(42.46,83.24)" id="img-326710e4-67">
                <path d="M-0.31,-5.08 L 0.31 -5.08 0.31 5.08 -0.31 5.08 z" class="primitive"/>
              </g>
              <g transform="translate(43.04,88.33)" id="img-326710e4-68">
                <path d="M-0.31,-0 L 0.31 -0 0.31 0 -0.31 0 z" class="primitive"/>
              </g>
              <g transform="translate(43.62,88.33)" id="img-326710e4-69">
                <path d="M-0.31,-0 L 0.31 -0 0.31 0 -0.31 0 z" class="primitive"/>
              </g>
              <g transform="translate(44.2,78.16)" id="img-326710e4-70">
                <path d="M-0.31,-10.17 L 0.31 -10.17 0.31 10.17 -0.31 10.17 z" class="primitive"/>
              </g>
              <g transform="translate(44.78,83.24)" id="img-326710e4-71">
                <path d="M-0.31,-5.08 L 0.31 -5.08 0.31 5.08 -0.31 5.08 z" class="primitive"/>
              </g>
              <g transform="translate(45.36,68)" id="img-326710e4-72">
                <path d="M-0.31,-20.33 L 0.31 -20.33 0.31 20.33 -0.31 20.33 z" class="primitive"/>
              </g>
              <g transform="translate(45.94,88.33)" id="img-326710e4-73">
                <path d="M-0.31,-0 L 0.31 -0 0.31 0 -0.31 0 z" class="primitive"/>
              </g>
              <g transform="translate(46.52,78.16)" id="img-326710e4-74">
                <path d="M-0.31,-10.17 L 0.31 -10.17 0.31 10.17 -0.31 10.17 z" class="primitive"/>
              </g>
              <g transform="translate(47.1,78.16)" id="img-326710e4-75">
                <path d="M-0.31,-10.17 L 0.31 -10.17 0.31 10.17 -0.31 10.17 z" class="primitive"/>
              </g>
              <g transform="translate(47.67,88.33)" id="img-326710e4-76">
                <path d="M-0.31,-0 L 0.31 -0 0.31 0 -0.31 0 z" class="primitive"/>
              </g>
              <g transform="translate(48.25,73.08)" id="img-326710e4-77">
                <path d="M-0.31,-15.25 L 0.31 -15.25 0.31 15.25 -0.31 15.25 z" class="primitive"/>
              </g>
              <g transform="translate(48.83,78.16)" id="img-326710e4-78">
                <path d="M-0.31,-10.17 L 0.31 -10.17 0.31 10.17 -0.31 10.17 z" class="primitive"/>
              </g>
              <g transform="translate(49.41,78.16)" id="img-326710e4-79">
                <path d="M-0.31,-10.17 L 0.31 -10.17 0.31 10.17 -0.31 10.17 z" class="primitive"/>
              </g>
              <g transform="translate(49.99,52.75)" id="img-326710e4-80">
                <path d="M-0.31,-35.58 L 0.31 -35.58 0.31 35.58 -0.31 35.58 z" class="primitive"/>
              </g>
              <g transform="translate(50.57,83.24)" id="img-326710e4-81">
                <path d="M-0.31,-5.08 L 0.31 -5.08 0.31 5.08 -0.31 5.08 z" class="primitive"/>
              </g>
              <g transform="translate(51.15,78.16)" id="img-326710e4-82">
                <path d="M-0.31,-10.17 L 0.31 -10.17 0.31 10.17 -0.31 10.17 z" class="primitive"/>
              </g>
              <g transform="translate(51.73,73.08)" id="img-326710e4-83">
                <path d="M-0.31,-15.25 L 0.31 -15.25 0.31 15.25 -0.31 15.25 z" class="primitive"/>
              </g>
              <g transform="translate(52.31,78.16)" id="img-326710e4-84">
                <path d="M-0.31,-10.17 L 0.31 -10.17 0.31 10.17 -0.31 10.17 z" class="primitive"/>
              </g>
              <g transform="translate(52.89,78.16)" id="img-326710e4-85">
                <path d="M-0.31,-10.17 L 0.31 -10.17 0.31 10.17 -0.31 10.17 z" class="primitive"/>
              </g>
              <g transform="translate(53.46,83.24)" id="img-326710e4-86">
                <path d="M-0.31,-5.08 L 0.31 -5.08 0.31 5.08 -0.31 5.08 z" class="primitive"/>
              </g>
              <g transform="translate(54.04,78.16)" id="img-326710e4-87">
                <path d="M-0.31,-10.17 L 0.31 -10.17 0.31 10.17 -0.31 10.17 z" class="primitive"/>
              </g>
              <g transform="translate(54.62,88.33)" id="img-326710e4-88">
                <path d="M-0.31,-0 L 0.31 -0 0.31 0 -0.31 0 z" class="primitive"/>
              </g>
              <g transform="translate(55.2,83.24)" id="img-326710e4-89">
                <path d="M-0.31,-5.08 L 0.31 -5.08 0.31 5.08 -0.31 5.08 z" class="primitive"/>
              </g>
              <g transform="translate(55.78,83.24)" id="img-326710e4-90">
                <path d="M-0.31,-5.08 L 0.31 -5.08 0.31 5.08 -0.31 5.08 z" class="primitive"/>
              </g>
              <g transform="translate(56.36,88.33)" id="img-326710e4-91">
                <path d="M-0.31,-0 L 0.31 -0 0.31 0 -0.31 0 z" class="primitive"/>
              </g>
              <g transform="translate(56.94,78.16)" id="img-326710e4-92">
                <path d="M-0.31,-10.17 L 0.31 -10.17 0.31 10.17 -0.31 10.17 z" class="primitive"/>
              </g>
              <g transform="translate(57.52,88.33)" id="img-326710e4-93">
                <path d="M-0.31,-0 L 0.31 -0 0.31 0 -0.31 0 z" class="primitive"/>
              </g>
              <g transform="translate(58.1,88.33)" id="img-326710e4-94">
                <path d="M-0.31,-0 L 0.31 -0 0.31 0 -0.31 0 z" class="primitive"/>
              </g>
              <g transform="translate(58.68,83.24)" id="img-326710e4-95">
                <path d="M-0.31,-5.08 L 0.31 -5.08 0.31 5.08 -0.31 5.08 z" class="primitive"/>
              </g>
              <g transform="translate(59.25,88.33)" id="img-326710e4-96">
                <path d="M-0.31,-0 L 0.31 -0 0.31 0 -0.31 0 z" class="primitive"/>
              </g>
              <g transform="translate(59.83,78.16)" id="img-326710e4-97">
                <path d="M-0.31,-10.17 L 0.31 -10.17 0.31 10.17 -0.31 10.17 z" class="primitive"/>
              </g>
              <g transform="translate(60.41,83.24)" id="img-326710e4-98">
                <path d="M-0.31,-5.08 L 0.31 -5.08 0.31 5.08 -0.31 5.08 z" class="primitive"/>
              </g>
              <g transform="translate(60.99,83.24)" id="img-326710e4-99">
                <path d="M-0.31,-5.08 L 0.31 -5.08 0.31 5.08 -0.31 5.08 z" class="primitive"/>
              </g>
              <g transform="translate(61.57,88.33)" id="img-326710e4-100">
                <path d="M-0.31,-0 L 0.31 -0 0.31 0 -0.31 0 z" class="primitive"/>
              </g>
              <g transform="translate(62.15,78.16)" id="img-326710e4-101">
                <path d="M-0.31,-10.17 L 0.31 -10.17 0.31 10.17 -0.31 10.17 z" class="primitive"/>
              </g>
              <g transform="translate(62.73,88.33)" id="img-326710e4-102">
                <path d="M-0.31,-0 L 0.31 -0 0.31 0 -0.31 0 z" class="primitive"/>
              </g>
              <g transform="translate(63.31,83.24)" id="img-326710e4-103">
                <path d="M-0.31,-5.08 L 0.31 -5.08 0.31 5.08 -0.31 5.08 z" class="primitive"/>
              </g>
              <g transform="translate(63.89,78.16)" id="img-326710e4-104">
                <path d="M-0.31,-10.17 L 0.31 -10.17 0.31 10.17 -0.31 10.17 z" class="primitive"/>
              </g>
              <g transform="translate(64.47,78.16)" id="img-326710e4-105">
                <path d="M-0.31,-10.17 L 0.31 -10.17 0.31 10.17 -0.31 10.17 z" class="primitive"/>
              </g>
              <g transform="translate(65.04,78.16)" id="img-326710e4-106">
                <path d="M-0.31,-10.17 L 0.31 -10.17 0.31 10.17 -0.31 10.17 z" class="primitive"/>
              </g>
              <g transform="translate(65.62,88.33)" id="img-326710e4-107">
                <path d="M-0.31,-0 L 0.31 -0 0.31 0 -0.31 0 z" class="primitive"/>
              </g>
              <g transform="translate(66.2,83.24)" id="img-326710e4-108">
                <path d="M-0.31,-5.08 L 0.31 -5.08 0.31 5.08 -0.31 5.08 z" class="primitive"/>
              </g>
              <g transform="translate(66.78,83.24)" id="img-326710e4-109">
                <path d="M-0.31,-5.08 L 0.31 -5.08 0.31 5.08 -0.31 5.08 z" class="primitive"/>
              </g>
              <g transform="translate(67.36,88.33)" id="img-326710e4-110">
                <path d="M-0.31,-0 L 0.31 -0 0.31 0 -0.31 0 z" class="primitive"/>
              </g>
              <g transform="translate(67.94,83.24)" id="img-326710e4-111">
                <path d="M-0.31,-5.08 L 0.31 -5.08 0.31 5.08 -0.31 5.08 z" class="primitive"/>
              </g>
              <g transform="translate(68.52,83.24)" id="img-326710e4-112">
                <path d="M-0.31,-5.08 L 0.31 -5.08 0.31 5.08 -0.31 5.08 z" class="primitive"/>
              </g>
              <g transform="translate(69.1,83.24)" id="img-326710e4-113">
                <path d="M-0.31,-5.08 L 0.31 -5.08 0.31 5.08 -0.31 5.08 z" class="primitive"/>
              </g>
              <g transform="translate(69.68,83.24)" id="img-326710e4-114">
                <path d="M-0.31,-5.08 L 0.31 -5.08 0.31 5.08 -0.31 5.08 z" class="primitive"/>
              </g>
              <g transform="translate(70.26,88.33)" id="img-326710e4-115">
                <path d="M-0.31,-0 L 0.31 -0 0.31 0 -0.31 0 z" class="primitive"/>
              </g>
              <g transform="translate(70.83,88.33)" id="img-326710e4-116">
                <path d="M-0.31,-0 L 0.31 -0 0.31 0 -0.31 0 z" class="primitive"/>
              </g>
              <g transform="translate(71.41,88.33)" id="img-326710e4-117">
                <path d="M-0.31,-0 L 0.31 -0 0.31 0 -0.31 0 z" class="primitive"/>
              </g>
              <g transform="translate(71.99,88.33)" id="img-326710e4-118">
                <path d="M-0.31,-0 L 0.31 -0 0.31 0 -0.31 0 z" class="primitive"/>
              </g>
              <g transform="translate(72.57,88.33)" id="img-326710e4-119">
                <path d="M-0.31,-0 L 0.31 -0 0.31 0 -0.31 0 z" class="primitive"/>
              </g>
              <g transform="translate(73.15,88.33)" id="img-326710e4-120">
                <path d="M-0.31,-0 L 0.31 -0 0.31 0 -0.31 0 z" class="primitive"/>
              </g>
              <g transform="translate(73.73,88.33)" id="img-326710e4-121">
                <path d="M-0.31,-0 L 0.31 -0 0.31 0 -0.31 0 z" class="primitive"/>
              </g>
              <g transform="translate(74.31,88.33)" id="img-326710e4-122">
                <path d="M-0.31,-0 L 0.31 -0 0.31 0 -0.31 0 z" class="primitive"/>
              </g>
              <g transform="translate(74.89,88.33)" id="img-326710e4-123">
                <path d="M-0.31,-0 L 0.31 -0 0.31 0 -0.31 0 z" class="primitive"/>
              </g>
              <g transform="translate(75.47,88.33)" id="img-326710e4-124">
                <path d="M-0.31,-0 L 0.31 -0 0.31 0 -0.31 0 z" class="primitive"/>
              </g>
              <g transform="translate(76.05,88.33)" id="img-326710e4-125">
                <path d="M-0.31,-0 L 0.31 -0 0.31 0 -0.31 0 z" class="primitive"/>
              </g>
              <g transform="translate(76.62,88.33)" id="img-326710e4-126">
                <path d="M-0.31,-0 L 0.31 -0 0.31 0 -0.31 0 z" class="primitive"/>
              </g>
              <g transform="translate(77.2,88.33)" id="img-326710e4-127">
                <path d="M-0.31,-0 L 0.31 -0 0.31 0 -0.31 0 z" class="primitive"/>
              </g>
              <g transform="translate(77.78,88.33)" id="img-326710e4-128">
                <path d="M-0.31,-0 L 0.31 -0 0.31 0 -0.31 0 z" class="primitive"/>
              </g>
              <g transform="translate(78.36,83.24)" id="img-326710e4-129">
                <path d="M-0.31,-5.08 L 0.31 -5.08 0.31 5.08 -0.31 5.08 z" class="primitive"/>
              </g>
            </g>
          </g>
        </g>
      </g>
    </g>
  </g>
  <g class="guide ylabels" font-size="2.82" font-family="'PT Sans Caption','Helvetica Neue','Helvetica',sans-serif" fill="#6C606B" id="img-326710e4-130">
    <g transform="translate(15.28,88.33)" id="img-326710e4-131">
      <g class="primitive">
        <text text-anchor="end" dy="0.35em">0</text>
      </g>
    </g>
    <g transform="translate(15.28,68)" id="img-326710e4-132">
      <g class="primitive">
        <text text-anchor="end" dy="0.35em">2</text>
      </g>
    </g>
    <g transform="translate(15.28,47.66)" id="img-326710e4-133">
      <g class="primitive">
        <text text-anchor="end" dy="0.35em">4</text>
      </g>
    </g>
    <g transform="translate(15.28,27.33)" id="img-326710e4-134">
      <g class="primitive">
        <text text-anchor="end" dy="0.35em">6</text>
      </g>
    </g>
    <g transform="translate(15.28,7)" id="img-326710e4-135">
      <g class="primitive">
        <text text-anchor="end" dy="0.35em">8</text>
      </g>
    </g>
  </g>
  <g font-size="3.88" font-family="'PT Sans','Helvetica Neue','Helvetica',sans-serif" fill="#564A55" stroke="#000000" stroke-opacity="0.000" id="img-326710e4-136">
    <g transform="translate(8.81,45.66)" id="img-326710e4-137">
      <g class="primitive">
        <text text-anchor="middle" dy="0.35em" transform="rotate(-90,0, 2)">frequency</text>
      </g>
    </g>
  </g>
</g>
<defs>
  <clipPath id="img-326710e4-11">
    <path d="M16.28,5 L 86.87 5 86.87 90.33 16.28 90.33" />
  </clipPath>
</defs>
</svg>
