<?xml version="1.0" encoding="UTF-8"?>
<svg xmlns="http://www.w3.org/2000/svg"
     xmlns:xlink="http://www.w3.org/1999/xlink"
     xmlns:gadfly="http://www.gadflyjl.org/ns"
     version="1.2"
     width="141.42mm" height="100mm" viewBox="0 0 141.42 100"
     stroke="none"
     fill="#000000"
     stroke-width="0.3"
     font-size="3.88"
>
<defs>
  <marker id="arrow" markerWidth="15" markerHeight="7" refX="5" refY="3.5" orient="auto" markerUnits="strokeWidth">
    <path d="M0,0 L15,3.5 L0,7 z" stroke="context-stroke" fill="context-stroke"/>
  </marker>
</defs>
<g class="plotroot xscalable yscalable" id="img-b7cd86fd-1">
  <g class="guide xlabels" font-size="2.82" font-family="'PT Sans Caption','Helvetica Neue','Helvetica',sans-serif" fill="#6C606B" id="img-b7cd86fd-2">
    <g transform="translate(18.28,91.33)">
      <g class="primitive">
        <text text-anchor="middle" dy="0.6em">13.0</text>
      </g>
    </g>
    <g transform="translate(36.61,91.33)">
      <g class="primitive">
        <text text-anchor="middle" dy="0.6em">13.5</text>
      </g>
    </g>
    <g transform="translate(54.94,91.33)">
      <g class="primitive">
        <text text-anchor="middle" dy="0.6em">14.0</text>
      </g>
    </g>
    <g transform="translate(73.27,91.33)">
      <g class="primitive">
        <text text-anchor="middle" dy="0.6em">14.5</text>
      </g>
    </g>
  </g>
  <g class="guide colorkey" id="img-b7cd86fd-3">
    <g class="color_noncoding_noncoding_noncoding_coding_4-tail" id="img-b7cd86fd-4">
      <g fill="#4C404B" font-size="2.82" font-family="'PT Sans','Helvetica Neue','Helvetica',sans-serif" id="img-b7cd86fd-5">
        <g transform="translate(79.08,49.48)" id="img-b7cd86fd-6">
          <g class="primitive">
            <text dy="0.35em">noncoding_noncoding_noncoding_coding_4-tail</text>
          </g>
        </g>
      </g>
      <g fill-opacity="1" fill="#00BFFF" stroke="#FFFFFF" id="img-b7cd86fd-7">
        <g transform="translate(77.17,49.48)" id="img-b7cd86fd-8">
          <path d="M-0.91,-0.91 L 0.91 -0.91 0.91 0.91 -0.91 0.91 z" class="primitive"/>
        </g>
      </g>
    </g>
    <g fill="#362A35" font-size="3.88" font-family="'PT Sans','Helvetica Neue','Helvetica',sans-serif" stroke="#000000" stroke-opacity="0.000" id="img-b7cd86fd-9">
      <g transform="translate(76.27,45.66)" id="img-b7cd86fd-10">
        <g class="primitive">
          <text dy="-0em">graphlet</text>
        </g>
      </g>
    </g>
  </g>
  <g clip-path="url(#img-b7cd86fd-11)">
    <g id="img-b7cd86fd-12">
      <g pointer-events="visible" stroke-width="0.3" fill="#000000" fill-opacity="0.000" stroke="#000000" stroke-opacity="0.000" class="guide background" id="img-b7cd86fd-13">
        <g transform="translate(45.78,47.66)" id="img-b7cd86fd-14">
          <path d="M-29.49,-42.66 L 29.49 -42.66 29.49 42.66 -29.49 42.66 z" class="primitive"/>
        </g>
      </g>
      <g class="guide ygridlines xfixed" stroke-dasharray="0.5,0.5" stroke-width="0.2" stroke="#D0D0E0" id="img-b7cd86fd-15">
        <g transform="translate(45.78,88.33)" id="img-b7cd86fd-16">
          <path fill="none" d="M-29.49,0 L 29.49 0" class="primitive"/>
        </g>
        <g transform="translate(45.78,72.06)" id="img-b7cd86fd-17">
          <path fill="none" d="M-29.49,0 L 29.49 0" class="primitive"/>
        </g>
        <g transform="translate(45.78,55.8)" id="img-b7cd86fd-18">
          <path fill="none" d="M-29.49,0 L 29.49 0" class="primitive"/>
        </g>
        <g transform="translate(45.78,39.53)" id="img-b7cd86fd-19">
          <path fill="none" d="M-29.49,0 L 29.49 0" class="primitive"/>
        </g>
        <g transform="translate(45.78,23.27)" id="img-b7cd86fd-20">
          <path fill="none" d="M-29.49,0 L 29.49 0" class="primitive"/>
        </g>
        <g transform="translate(45.78,7)" id="img-b7cd86fd-21">
          <path fill="none" d="M-29.49,0 L 29.49 0" class="primitive"/>
        </g>
      </g>
      <g class="guide xgridlines yfixed" stroke-dasharray="0.5,0.5" stroke-width="0.2" stroke="#D0D0E0" id="img-b7cd86fd-22">
        <g transform="translate(18.28,47.66)" id="img-b7cd86fd-23">
          <path fill="none" d="M0,-42.66 L 0 42.66" class="primitive"/>
        </g>
        <g transform="translate(36.61,47.66)" id="img-b7cd86fd-24">
          <path fill="none" d="M0,-42.66 L 0 42.66" class="primitive"/>
        </g>
        <g transform="translate(54.94,47.66)" id="img-b7cd86fd-25">
          <path fill="none" d="M0,-42.66 L 0 42.66" class="primitive"/>
        </g>
        <g transform="translate(73.27,47.66)" id="img-b7cd86fd-26">
          <path fill="none" d="M0,-42.66 L 0 42.66" class="primitive"/>
        </g>
      </g>
      <g class="plotpanel" id="img-b7cd86fd-27">
        <metadata>
          <boundingbox value="16.285000000000004mm 5.0mm 58.98302290397617mm 85.32666666666667mm"/>
          <unitbox value="12.945437703466409 5.122960898434298 1.609124593067183 -5.245921796868595"/>
        </metadata>
        <g shape-rendering="crispEdges" stroke-width="0.3" id="img-b7cd86fd-28">
          <g stroke="#000000" stroke-opacity="0.000" class="geometry" id="img-b7cd86fd-29">
            <g fill="#00BFFF" id="img-b7cd86fd-30">
              <g transform="translate(20.78,80.19)" id="img-b7cd86fd-31">
                <path d="M-0.26,-8.13 L 0.26 -8.13 0.26 8.13 -0.26 8.13 z" class="primitive"/>
              </g>
              <g transform="translate(21.24,88.33)" id="img-b7cd86fd-32">
                <path d="M-0.26,-0 L 0.26 -0 0.26 0 -0.26 0 z" class="primitive"/>
              </g>
              <g transform="translate(21.71,88.33)" id="img-b7cd86fd-33">
                <path d="M-0.26,-0 L 0.26 -0 0.26 0 -0.26 0 z" class="primitive"/>
              </g>
              <g transform="translate(22.18,88.33)" id="img-b7cd86fd-34">
                <path d="M-0.26,-0 L 0.26 -0 0.26 0 -0.26 0 z" class="primitive"/>
              </g>
              <g transform="translate(22.65,88.33)" id="img-b7cd86fd-35">
                <path d="M-0.26,-0 L 0.26 -0 0.26 0 -0.26 0 z" class="primitive"/>
              </g>
              <g transform="translate(23.11,88.33)" id="img-b7cd86fd-36">
                <path d="M-0.26,-0 L 0.26 -0 0.26 0 -0.26 0 z" class="primitive"/>
              </g>
              <g transform="translate(23.58,88.33)" id="img-b7cd86fd-37">
                <path d="M-0.26,-0 L 0.26 -0 0.26 0 -0.26 0 z" class="primitive"/>
              </g>
              <g transform="translate(24.05,88.33)" id="img-b7cd86fd-38">
                <path d="M-0.26,-0 L 0.26 -0 0.26 0 -0.26 0 z" class="primitive"/>
              </g>
              <g transform="translate(24.52,88.33)" id="img-b7cd86fd-39">
                <path d="M-0.26,-0 L 0.26 -0 0.26 0 -0.26 0 z" class="primitive"/>
              </g>
              <g transform="translate(24.98,88.33)" id="img-b7cd86fd-40">
                <path d="M-0.26,-0 L 0.26 -0 0.26 0 -0.26 0 z" class="primitive"/>
              </g>
              <g transform="translate(25.45,88.33)" id="img-b7cd86fd-41">
                <path d="M-0.26,-0 L 0.26 -0 0.26 0 -0.26 0 z" class="primitive"/>
              </g>
              <g transform="translate(25.92,88.33)" id="img-b7cd86fd-42">
                <path d="M-0.26,-0 L 0.26 -0 0.26 0 -0.26 0 z" class="primitive"/>
              </g>
              <g transform="translate(26.39,88.33)" id="img-b7cd86fd-43">
                <path d="M-0.26,-0 L 0.26 -0 0.26 0 -0.26 0 z" class="primitive"/>
              </g>
              <g transform="translate(26.85,88.33)" id="img-b7cd86fd-44">
                <path d="M-0.26,-0 L 0.26 -0 0.26 0 -0.26 0 z" class="primitive"/>
              </g>
              <g transform="translate(27.32,88.33)" id="img-b7cd86fd-45">
                <path d="M-0.26,-0 L 0.26 -0 0.26 0 -0.26 0 z" class="primitive"/>
              </g>
              <g transform="translate(27.79,80.19)" id="img-b7cd86fd-46">
                <path d="M-0.26,-8.13 L 0.26 -8.13 0.26 8.13 -0.26 8.13 z" class="primitive"/>
              </g>
              <g transform="translate(28.26,88.33)" id="img-b7cd86fd-47">
                <path d="M-0.26,-0 L 0.26 -0 0.26 0 -0.26 0 z" class="primitive"/>
              </g>
              <g transform="translate(28.72,88.33)" id="img-b7cd86fd-48">
                <path d="M-0.26,-0 L 0.26 -0 0.26 0 -0.26 0 z" class="primitive"/>
              </g>
              <g transform="translate(29.19,80.19)" id="img-b7cd86fd-49">
                <path d="M-0.26,-8.13 L 0.26 -8.13 0.26 8.13 -0.26 8.13 z" class="primitive"/>
              </g>
              <g transform="translate(29.66,88.33)" id="img-b7cd86fd-50">
                <path d="M-0.26,-0 L 0.26 -0 0.26 0 -0.26 0 z" class="primitive"/>
              </g>
              <g transform="translate(30.13,80.19)" id="img-b7cd86fd-51">
                <path d="M-0.26,-8.13 L 0.26 -8.13 0.26 8.13 -0.26 8.13 z" class="primitive"/>
              </g>
              <g transform="translate(30.59,88.33)" id="img-b7cd86fd-52">
                <path d="M-0.26,-0 L 0.26 -0 0.26 0 -0.26 0 z" class="primitive"/>
              </g>
              <g transform="translate(31.06,80.19)" id="img-b7cd86fd-53">
                <path d="M-0.26,-8.13 L 0.26 -8.13 0.26 8.13 -0.26 8.13 z" class="primitive"/>
              </g>
              <g transform="translate(31.53,88.33)" id="img-b7cd86fd-54">
                <path d="M-0.26,-0 L 0.26 -0 0.26 0 -0.26 0 z" class="primitive"/>
              </g>
              <g transform="translate(32,80.19)" id="img-b7cd86fd-55">
                <path d="M-0.26,-8.13 L 0.26 -8.13 0.26 8.13 -0.26 8.13 z" class="primitive"/>
              </g>
              <g transform="translate(32.46,88.33)" id="img-b7cd86fd-56">
                <path d="M-0.26,-0 L 0.26 -0 0.26 0 -0.26 0 z" class="primitive"/>
              </g>
              <g transform="translate(32.93,63.93)" id="img-b7cd86fd-57">
                <path d="M-0.26,-24.4 L 0.26 -24.4 0.26 24.4 -0.26 24.4 z" class="primitive"/>
              </g>
              <g transform="translate(33.4,80.19)" id="img-b7cd86fd-58">
                <path d="M-0.26,-8.13 L 0.26 -8.13 0.26 8.13 -0.26 8.13 z" class="primitive"/>
              </g>
              <g transform="translate(33.87,80.19)" id="img-b7cd86fd-59">
                <path d="M-0.26,-8.13 L 0.26 -8.13 0.26 8.13 -0.26 8.13 z" class="primitive"/>
              </g>
              <g transform="translate(34.33,72.06)" id="img-b7cd86fd-60">
                <path d="M-0.26,-16.27 L 0.26 -16.27 0.26 16.27 -0.26 16.27 z" class="primitive"/>
              </g>
              <g transform="translate(34.8,88.33)" id="img-b7cd86fd-61">
                <path d="M-0.26,-0 L 0.26 -0 0.26 0 -0.26 0 z" class="primitive"/>
              </g>
              <g transform="translate(35.27,88.33)" id="img-b7cd86fd-62">
                <path d="M-0.26,-0 L 0.26 -0 0.26 0 -0.26 0 z" class="primitive"/>
              </g>
              <g transform="translate(35.74,88.33)" id="img-b7cd86fd-63">
                <path d="M-0.26,-0 L 0.26 -0 0.26 0 -0.26 0 z" class="primitive"/>
              </g>
              <g transform="translate(36.2,88.33)" id="img-b7cd86fd-64">
                <path d="M-0.26,-0 L 0.26 -0 0.26 0 -0.26 0 z" class="primitive"/>
              </g>
              <g transform="translate(36.67,88.33)" id="img-b7cd86fd-65">
                <path d="M-0.26,-0 L 0.26 -0 0.26 0 -0.26 0 z" class="primitive"/>
              </g>
              <g transform="translate(37.14,88.33)" id="img-b7cd86fd-66">
                <path d="M-0.26,-0 L 0.26 -0 0.26 0 -0.26 0 z" class="primitive"/>
              </g>
              <g transform="translate(37.61,88.33)" id="img-b7cd86fd-67">
                <path d="M-0.26,-0 L 0.26 -0 0.26 0 -0.26 0 z" class="primitive"/>
              </g>
              <g transform="translate(38.07,80.19)" id="img-b7cd86fd-68">
                <path d="M-0.26,-8.13 L 0.26 -8.13 0.26 8.13 -0.26 8.13 z" class="primitive"/>
              </g>
              <g transform="translate(38.54,88.33)" id="img-b7cd86fd-69">
                <path d="M-0.26,-0 L 0.26 -0 0.26 0 -0.26 0 z" class="primitive"/>
              </g>
              <g transform="translate(39.01,72.06)" id="img-b7cd86fd-70">
                <path d="M-0.26,-16.27 L 0.26 -16.27 0.26 16.27 -0.26 16.27 z" class="primitive"/>
              </g>
              <g transform="translate(39.48,63.93)" id="img-b7cd86fd-71">
                <path d="M-0.26,-24.4 L 0.26 -24.4 0.26 24.4 -0.26 24.4 z" class="primitive"/>
              </g>
              <g transform="translate(39.94,88.33)" id="img-b7cd86fd-72">
                <path d="M-0.26,-0 L 0.26 -0 0.26 0 -0.26 0 z" class="primitive"/>
              </g>
              <g transform="translate(40.41,72.06)" id="img-b7cd86fd-73">
                <path d="M-0.26,-16.27 L 0.26 -16.27 0.26 16.27 -0.26 16.27 z" class="primitive"/>
              </g>
              <g transform="translate(40.88,88.33)" id="img-b7cd86fd-74">
                <path d="M-0.26,-0 L 0.26 -0 0.26 0 -0.26 0 z" class="primitive"/>
              </g>
              <g transform="translate(41.35,80.19)" id="img-b7cd86fd-75">
                <path d="M-0.26,-8.13 L 0.26 -8.13 0.26 8.13 -0.26 8.13 z" class="primitive"/>
              </g>
              <g transform="translate(41.81,72.06)" id="img-b7cd86fd-76">
                <path d="M-0.26,-16.27 L 0.26 -16.27 0.26 16.27 -0.26 16.27 z" class="primitive"/>
              </g>
              <g transform="translate(42.28,63.93)" id="img-b7cd86fd-77">
                <path d="M-0.26,-24.4 L 0.26 -24.4 0.26 24.4 -0.26 24.4 z" class="primitive"/>
              </g>
              <g transform="translate(42.75,80.19)" id="img-b7cd86fd-78">
                <path d="M-0.26,-8.13 L 0.26 -8.13 0.26 8.13 -0.26 8.13 z" class="primitive"/>
              </g>
              <g transform="translate(43.21,80.19)" id="img-b7cd86fd-79">
                <path d="M-0.26,-8.13 L 0.26 -8.13 0.26 8.13 -0.26 8.13 z" class="primitive"/>
              </g>
              <g transform="translate(43.68,72.06)" id="img-b7cd86fd-80">
                <path d="M-0.26,-16.27 L 0.26 -16.27 0.26 16.27 -0.26 16.27 z" class="primitive"/>
              </g>
              <g transform="translate(44.15,80.19)" id="img-b7cd86fd-81">
                <path d="M-0.26,-8.13 L 0.26 -8.13 0.26 8.13 -0.26 8.13 z" class="primitive"/>
              </g>
              <g transform="translate(44.62,63.93)" id="img-b7cd86fd-82">
                <path d="M-0.26,-24.4 L 0.26 -24.4 0.26 24.4 -0.26 24.4 z" class="primitive"/>
              </g>
              <g transform="translate(45.08,63.93)" id="img-b7cd86fd-83">
                <path d="M-0.26,-24.4 L 0.26 -24.4 0.26 24.4 -0.26 24.4 z" class="primitive"/>
              </g>
              <g transform="translate(45.55,63.93)" id="img-b7cd86fd-84">
                <path d="M-0.26,-24.4 L 0.26 -24.4 0.26 24.4 -0.26 24.4 z" class="primitive"/>
              </g>
              <g transform="translate(46.02,72.06)" id="img-b7cd86fd-85">
                <path d="M-0.26,-16.27 L 0.26 -16.27 0.26 16.27 -0.26 16.27 z" class="primitive"/>
              </g>
              <g transform="translate(46.49,72.06)" id="img-b7cd86fd-86">
                <path d="M-0.26,-16.27 L 0.26 -16.27 0.26 16.27 -0.26 16.27 z" class="primitive"/>
              </g>
              <g transform="translate(46.95,72.06)" id="img-b7cd86fd-87">
                <path d="M-0.26,-16.27 L 0.26 -16.27 0.26 16.27 -0.26 16.27 z" class="primitive"/>
              </g>
              <g transform="translate(47.42,80.19)" id="img-b7cd86fd-88">
                <path d="M-0.26,-8.13 L 0.26 -8.13 0.26 8.13 -0.26 8.13 z" class="primitive"/>
              </g>
              <g transform="translate(47.89,47.66)" id="img-b7cd86fd-89">
                <path d="M-0.26,-40.66 L 0.26 -40.66 0.26 40.66 -0.26 40.66 z" class="primitive"/>
              </g>
              <g transform="translate(48.36,80.19)" id="img-b7cd86fd-90">
                <path d="M-0.26,-8.13 L 0.26 -8.13 0.26 8.13 -0.26 8.13 z" class="primitive"/>
              </g>
              <g transform="translate(48.82,72.06)" id="img-b7cd86fd-91">
                <path d="M-0.26,-16.27 L 0.26 -16.27 0.26 16.27 -0.26 16.27 z" class="primitive"/>
              </g>
              <g transform="translate(49.29,80.19)" id="img-b7cd86fd-92">
                <path d="M-0.26,-8.13 L 0.26 -8.13 0.26 8.13 -0.26 8.13 z" class="primitive"/>
              </g>
              <g transform="translate(49.76,63.93)" id="img-b7cd86fd-93">
                <path d="M-0.26,-24.4 L 0.26 -24.4 0.26 24.4 -0.26 24.4 z" class="primitive"/>
              </g>
              <g transform="translate(50.23,72.06)" id="img-b7cd86fd-94">
                <path d="M-0.26,-16.27 L 0.26 -16.27 0.26 16.27 -0.26 16.27 z" class="primitive"/>
              </g>
              <g transform="translate(50.69,80.19)" id="img-b7cd86fd-95">
                <path d="M-0.26,-8.13 L 0.26 -8.13 0.26 8.13 -0.26 8.13 z" class="primitive"/>
              </g>
              <g transform="translate(51.16,72.06)" id="img-b7cd86fd-96">
                <path d="M-0.26,-16.27 L 0.26 -16.27 0.26 16.27 -0.26 16.27 z" class="primitive"/>
              </g>
              <g transform="translate(51.63,55.8)" id="img-b7cd86fd-97">
                <path d="M-0.26,-32.53 L 0.26 -32.53 0.26 32.53 -0.26 32.53 z" class="primitive"/>
              </g>
              <g transform="translate(52.1,55.8)" id="img-b7cd86fd-98">
                <path d="M-0.26,-32.53 L 0.26 -32.53 0.26 32.53 -0.26 32.53 z" class="primitive"/>
              </g>
              <g transform="translate(52.56,47.66)" id="img-b7cd86fd-99">
                <path d="M-0.26,-40.66 L 0.26 -40.66 0.26 40.66 -0.26 40.66 z" class="primitive"/>
              </g>
              <g transform="translate(53.03,72.06)" id="img-b7cd86fd-100">
                <path d="M-0.26,-16.27 L 0.26 -16.27 0.26 16.27 -0.26 16.27 z" class="primitive"/>
              </g>
              <g transform="translate(53.5,72.06)" id="img-b7cd86fd-101">
                <path d="M-0.26,-16.27 L 0.26 -16.27 0.26 16.27 -0.26 16.27 z" class="primitive"/>
              </g>
              <g transform="translate(53.97,55.8)" id="img-b7cd86fd-102">
                <path d="M-0.26,-32.53 L 0.26 -32.53 0.26 32.53 -0.26 32.53 z" class="primitive"/>
              </g>
              <g transform="translate(54.43,88.33)" id="img-b7cd86fd-103">
                <path d="M-0.26,-0 L 0.26 -0 0.26 0 -0.26 0 z" class="primitive"/>
              </g>
              <g transform="translate(54.9,72.06)" id="img-b7cd86fd-104">
                <path d="M-0.26,-16.27 L 0.26 -16.27 0.26 16.27 -0.26 16.27 z" class="primitive"/>
              </g>
              <g transform="translate(55.37,72.06)" id="img-b7cd86fd-105">
                <path d="M-0.26,-16.27 L 0.26 -16.27 0.26 16.27 -0.26 16.27 z" class="primitive"/>
              </g>
              <g transform="translate(55.84,88.33)" id="img-b7cd86fd-106">
                <path d="M-0.26,-0 L 0.26 -0 0.26 0 -0.26 0 z" class="primitive"/>
              </g>
              <g transform="translate(56.3,72.06)" id="img-b7cd86fd-107">
                <path d="M-0.26,-16.27 L 0.26 -16.27 0.26 16.27 -0.26 16.27 z" class="primitive"/>
              </g>
              <g transform="translate(56.77,80.19)" id="img-b7cd86fd-108">
                <path d="M-0.26,-8.13 L 0.26 -8.13 0.26 8.13 -0.26 8.13 z" class="primitive"/>
              </g>
              <g transform="translate(57.24,80.19)" id="img-b7cd86fd-109">
                <path d="M-0.26,-8.13 L 0.26 -8.13 0.26 8.13 -0.26 8.13 z" class="primitive"/>
              </g>
              <g transform="translate(57.71,88.33)" id="img-b7cd86fd-110">
                <path d="M-0.26,-0 L 0.26 -0 0.26 0 -0.26 0 z" class="primitive"/>
              </g>
              <g transform="translate(58.17,80.19)" id="img-b7cd86fd-111">
                <path d="M-0.26,-8.13 L 0.26 -8.13 0.26 8.13 -0.26 8.13 z" class="primitive"/>
              </g>
              <g transform="translate(58.64,80.19)" id="img-b7cd86fd-112">
                <path d="M-0.26,-8.13 L 0.26 -8.13 0.26 8.13 -0.26 8.13 z" class="primitive"/>
              </g>
              <g transform="translate(59.11,88.33)" id="img-b7cd86fd-113">
                <path d="M-0.26,-0 L 0.26 -0 0.26 0 -0.26 0 z" class="primitive"/>
              </g>
              <g transform="translate(59.58,80.19)" id="img-b7cd86fd-114">
                <path d="M-0.26,-8.13 L 0.26 -8.13 0.26 8.13 -0.26 8.13 z" class="primitive"/>
              </g>
              <g transform="translate(60.04,88.33)" id="img-b7cd86fd-115">
                <path d="M-0.26,-0 L 0.26 -0 0.26 0 -0.26 0 z" class="primitive"/>
              </g>
              <g transform="translate(60.51,80.19)" id="img-b7cd86fd-116">
                <path d="M-0.26,-8.13 L 0.26 -8.13 0.26 8.13 -0.26 8.13 z" class="primitive"/>
              </g>
              <g transform="translate(60.98,88.33)" id="img-b7cd86fd-117">
                <path d="M-0.26,-0 L 0.26 -0 0.26 0 -0.26 0 z" class="primitive"/>
              </g>
              <g transform="translate(61.45,80.19)" id="img-b7cd86fd-118">
                <path d="M-0.26,-8.13 L 0.26 -8.13 0.26 8.13 -0.26 8.13 z" class="primitive"/>
              </g>
              <g transform="translate(61.91,88.33)" id="img-b7cd86fd-119">
                <path d="M-0.26,-0 L 0.26 -0 0.26 0 -0.26 0 z" class="primitive"/>
              </g>
              <g transform="translate(62.38,88.33)" id="img-b7cd86fd-120">
                <path d="M-0.26,-0 L 0.26 -0 0.26 0 -0.26 0 z" class="primitive"/>
              </g>
              <g transform="translate(62.85,88.33)" id="img-b7cd86fd-121">
                <path d="M-0.26,-0 L 0.26 -0 0.26 0 -0.26 0 z" class="primitive"/>
              </g>
              <g transform="translate(63.32,88.33)" id="img-b7cd86fd-122">
                <path d="M-0.26,-0 L 0.26 -0 0.26 0 -0.26 0 z" class="primitive"/>
              </g>
              <g transform="translate(63.78,88.33)" id="img-b7cd86fd-123">
                <path d="M-0.26,-0 L 0.26 -0 0.26 0 -0.26 0 z" class="primitive"/>
              </g>
              <g transform="translate(64.25,88.33)" id="img-b7cd86fd-124">
                <path d="M-0.26,-0 L 0.26 -0 0.26 0 -0.26 0 z" class="primitive"/>
              </g>
              <g transform="translate(64.72,88.33)" id="img-b7cd86fd-125">
                <path d="M-0.26,-0 L 0.26 -0 0.26 0 -0.26 0 z" class="primitive"/>
              </g>
              <g transform="translate(65.19,88.33)" id="img-b7cd86fd-126">
                <path d="M-0.26,-0 L 0.26 -0 0.26 0 -0.26 0 z" class="primitive"/>
              </g>
              <g transform="translate(65.65,88.33)" id="img-b7cd86fd-127">
                <path d="M-0.26,-0 L 0.26 -0 0.26 0 -0.26 0 z" class="primitive"/>
              </g>
              <g transform="translate(66.12,88.33)" id="img-b7cd86fd-128">
                <path d="M-0.26,-0 L 0.26 -0 0.26 0 -0.26 0 z" class="primitive"/>
              </g>
              <g transform="translate(66.59,88.33)" id="img-b7cd86fd-129">
                <path d="M-0.26,-0 L 0.26 -0 0.26 0 -0.26 0 z" class="primitive"/>
              </g>
              <g transform="translate(67.06,80.19)" id="img-b7cd86fd-130">
                <path d="M-0.26,-8.13 L 0.26 -8.13 0.26 8.13 -0.26 8.13 z" class="primitive"/>
              </g>
            </g>
          </g>
        </g>
      </g>
    </g>
  </g>
  <g class="guide ylabels" font-size="2.82" font-family="'PT Sans Caption','Helvetica Neue','Helvetica',sans-serif" fill="#6C606B" id="img-b7cd86fd-131">
    <g transform="translate(15.28,88.33)" id="img-b7cd86fd-132">
      <g class="primitive">
        <text text-anchor="end" dy="0.35em">0</text>
      </g>
    </g>
    <g transform="translate(15.28,72.06)" id="img-b7cd86fd-133">
      <g class="primitive">
        <text text-anchor="end" dy="0.35em">1</text>
      </g>
    </g>
    <g transform="translate(15.28,55.8)" id="img-b7cd86fd-134">
      <g class="primitive">
        <text text-anchor="end" dy="0.35em">2</text>
      </g>
    </g>
    <g transform="translate(15.28,39.53)" id="img-b7cd86fd-135">
      <g class="primitive">
        <text text-anchor="end" dy="0.35em">3</text>
      </g>
    </g>
    <g transform="translate(15.28,23.27)" id="img-b7cd86fd-136">
      <g class="primitive">
        <text text-anchor="end" dy="0.35em">4</text>
      </g>
    </g>
    <g transform="translate(15.28,7)" id="img-b7cd86fd-137">
      <g class="primitive">
        <text text-anchor="end" dy="0.35em">5</text>
      </g>
    </g>
  </g>
  <g font-size="3.88" font-family="'PT Sans','Helvetica Neue','Helvetica',sans-serif" fill="#564A55" stroke="#000000" stroke-opacity="0.000" id="img-b7cd86fd-138">
    <g transform="translate(8.81,45.66)" id="img-b7cd86fd-139">
      <g class="primitive">
        <text text-anchor="middle" dy="0.35em" transform="rotate(-90,0, 2)">frequency</text>
      </g>
    </g>
  </g>
</g>
<defs>
  <clipPath id="img-b7cd86fd-11">
    <path d="M16.29,5 L 75.27 5 75.27 90.33 16.29 90.33" />
  </clipPath>
</defs>
</svg>
