<?xml version="1.0" encoding="UTF-8"?>
<svg xmlns="http://www.w3.org/2000/svg"
     xmlns:xlink="http://www.w3.org/1999/xlink"
     xmlns:gadfly="http://www.gadflyjl.org/ns"
     version="1.2"
     width="141.42mm" height="100mm" viewBox="0 0 141.42 100"
     stroke="none"
     fill="#000000"
     stroke-width="0.3"
     font-size="3.88"
>
<defs>
  <marker id="arrow" markerWidth="15" markerHeight="7" refX="5" refY="3.5" orient="auto" markerUnits="strokeWidth">
    <path d="M0,0 L15,3.5 L0,7 z" stroke="context-stroke" fill="context-stroke"/>
  </marker>
</defs>
<g class="plotroot xscalable yscalable" id="img-0647fee1-1">
  <g class="guide xlabels" font-size="2.82" font-family="'PT Sans Caption','Helvetica Neue','Helvetica',sans-serif" fill="#6C606B" id="img-0647fee1-2">
    <g transform="translate(19.96,91.33)">
      <g class="primitive">
        <text text-anchor="middle" dy="0.6em">10.5</text>
      </g>
    </g>
    <g transform="translate(35.7,91.33)">
      <g class="primitive">
        <text text-anchor="middle" dy="0.6em">11.0</text>
      </g>
    </g>
    <g transform="translate(51.44,91.33)">
      <g class="primitive">
        <text text-anchor="middle" dy="0.6em">11.5</text>
      </g>
    </g>
    <g transform="translate(67.19,91.33)">
      <g class="primitive">
        <text text-anchor="middle" dy="0.6em">12.0</text>
      </g>
    </g>
  </g>
  <g class="guide colorkey" id="img-0647fee1-3">
    <g class="color_noncoding_noncoding_noncoding_noncoding_4-path" id="img-0647fee1-4">
      <g fill="#4C404B" font-size="2.82" font-family="'PT Sans','Helvetica Neue','Helvetica',sans-serif" id="img-0647fee1-5">
        <g transform="translate(73,49.48)" id="img-0647fee1-6">
          <g class="primitive">
            <text dy="0.35em">noncoding_noncoding_noncoding_noncoding_4-path</text>
          </g>
        </g>
      </g>
      <g fill-opacity="1" fill="#00BFFF" stroke="#FFFFFF" id="img-0647fee1-7">
        <g transform="translate(71.09,49.48)" id="img-0647fee1-8">
          <path d="M-0.91,-0.91 L 0.91 -0.91 0.91 0.91 -0.91 0.91 z" class="primitive"/>
        </g>
      </g>
    </g>
    <g fill="#362A35" font-size="3.88" font-family="'PT Sans','Helvetica Neue','Helvetica',sans-serif" stroke="#000000" stroke-opacity="0.000" id="img-0647fee1-9">
      <g transform="translate(70.19,45.66)" id="img-0647fee1-10">
        <g class="primitive">
          <text dy="-0em">graphlet</text>
        </g>
      </g>
    </g>
  </g>
  <g clip-path="url(#img-0647fee1-11)">
    <g id="img-0647fee1-12">
      <g pointer-events="visible" stroke-width="0.3" fill="#000000" fill-opacity="0.000" stroke="#000000" stroke-opacity="0.000" class="guide background" id="img-0647fee1-13">
        <g transform="translate(43.57,47.66)" id="img-0647fee1-14">
          <path d="M-25.61,-42.66 L 25.61 -42.66 25.61 42.66 -25.61 42.66 z" class="primitive"/>
        </g>
      </g>
      <g class="guide ygridlines xfixed" stroke-dasharray="0.5,0.5" stroke-width="0.2" stroke="#D0D0E0" id="img-0647fee1-15">
        <g transform="translate(43.57,88.33)" id="img-0647fee1-16">
          <path fill="none" d="M-25.61,0 L 25.61 0" class="primitive"/>
        </g>
        <g transform="translate(43.57,68)" id="img-0647fee1-17">
          <path fill="none" d="M-25.61,0 L 25.61 0" class="primitive"/>
        </g>
        <g transform="translate(43.57,47.66)" id="img-0647fee1-18">
          <path fill="none" d="M-25.61,0 L 25.61 0" class="primitive"/>
        </g>
        <g transform="translate(43.57,27.33)" id="img-0647fee1-19">
          <path fill="none" d="M-25.61,0 L 25.61 0" class="primitive"/>
        </g>
        <g transform="translate(43.57,7)" id="img-0647fee1-20">
          <path fill="none" d="M-25.61,0 L 25.61 0" class="primitive"/>
        </g>
      </g>
      <g class="guide xgridlines yfixed" stroke-dasharray="0.5,0.5" stroke-width="0.2" stroke="#D0D0E0" id="img-0647fee1-21">
        <g transform="translate(19.96,47.66)" id="img-0647fee1-22">
          <path fill="none" d="M0,-42.66 L 0 42.66" class="primitive"/>
        </g>
        <g transform="translate(35.7,47.66)" id="img-0647fee1-23">
          <path fill="none" d="M0,-42.66 L 0 42.66" class="primitive"/>
        </g>
        <g transform="translate(51.44,47.66)" id="img-0647fee1-24">
          <path fill="none" d="M0,-42.66 L 0 42.66" class="primitive"/>
        </g>
        <g transform="translate(67.19,47.66)" id="img-0647fee1-25">
          <path fill="none" d="M0,-42.66 L 0 42.66" class="primitive"/>
        </g>
      </g>
      <g class="plotpanel" id="img-0647fee1-26">
        <metadata>
          <boundingbox value="17.958333333333336mm 5.0mm 51.22968957064284mm 85.32666666666667mm"/>
          <unitbox value="10.436480632685235 40.98368718747438 1.6270387346295305 -41.96737437494876"/>
        </metadata>
        <g shape-rendering="crispEdges" stroke-width="0.3" id="img-0647fee1-27">
          <g stroke="#000000" stroke-opacity="0.000" class="geometry" id="img-0647fee1-28">
            <g fill="#00BFFF" id="img-0647fee1-29">
              <g transform="translate(33.5,87.31)" id="img-0647fee1-30">
                <path d="M-0.19,-1.02 L 0.19 -1.02 0.19 1.02 -0.19 1.02 z" class="primitive"/>
              </g>
              <g transform="translate(33.82,88.33)" id="img-0647fee1-31">
                <path d="M-0.19,-0 L 0.19 -0 0.19 0 -0.19 0 z" class="primitive"/>
              </g>
              <g transform="translate(34.14,87.31)" id="img-0647fee1-32">
                <path d="M-0.19,-1.02 L 0.19 -1.02 0.19 1.02 -0.19 1.02 z" class="primitive"/>
              </g>
              <g transform="translate(34.46,88.33)" id="img-0647fee1-33">
                <path d="M-0.19,-0 L 0.19 -0 0.19 0 -0.19 0 z" class="primitive"/>
              </g>
              <g transform="translate(34.79,88.33)" id="img-0647fee1-34">
                <path d="M-0.19,-0 L 0.19 -0 0.19 0 -0.19 0 z" class="primitive"/>
              </g>
              <g transform="translate(35.11,88.33)" id="img-0647fee1-35">
                <path d="M-0.19,-0 L 0.19 -0 0.19 0 -0.19 0 z" class="primitive"/>
              </g>
              <g transform="translate(35.43,88.33)" id="img-0647fee1-36">
                <path d="M-0.19,-0 L 0.19 -0 0.19 0 -0.19 0 z" class="primitive"/>
              </g>
              <g transform="translate(35.75,88.33)" id="img-0647fee1-37">
                <path d="M-0.19,-0 L 0.19 -0 0.19 0 -0.19 0 z" class="primitive"/>
              </g>
              <g transform="translate(36.07,88.33)" id="img-0647fee1-38">
                <path d="M-0.19,-0 L 0.19 -0 0.19 0 -0.19 0 z" class="primitive"/>
              </g>
              <g transform="translate(36.39,87.31)" id="img-0647fee1-39">
                <path d="M-0.19,-1.02 L 0.19 -1.02 0.19 1.02 -0.19 1.02 z" class="primitive"/>
              </g>
              <g transform="translate(36.72,88.33)" id="img-0647fee1-40">
                <path d="M-0.19,-0 L 0.19 -0 0.19 0 -0.19 0 z" class="primitive"/>
              </g>
              <g transform="translate(37.04,86.29)" id="img-0647fee1-41">
                <path d="M-0.19,-2.03 L 0.19 -2.03 0.19 2.03 -0.19 2.03 z" class="primitive"/>
              </g>
              <g transform="translate(37.36,87.31)" id="img-0647fee1-42">
                <path d="M-0.19,-1.02 L 0.19 -1.02 0.19 1.02 -0.19 1.02 z" class="primitive"/>
              </g>
              <g transform="translate(37.68,88.33)" id="img-0647fee1-43">
                <path d="M-0.19,-0 L 0.19 -0 0.19 0 -0.19 0 z" class="primitive"/>
              </g>
              <g transform="translate(38,88.33)" id="img-0647fee1-44">
                <path d="M-0.19,-0 L 0.19 -0 0.19 0 -0.19 0 z" class="primitive"/>
              </g>
              <g transform="translate(38.32,85.28)" id="img-0647fee1-45">
                <path d="M-0.19,-3.05 L 0.19 -3.05 0.19 3.05 -0.19 3.05 z" class="primitive"/>
              </g>
              <g transform="translate(38.65,88.33)" id="img-0647fee1-46">
                <path d="M-0.19,-0 L 0.19 -0 0.19 0 -0.19 0 z" class="primitive"/>
              </g>
              <g transform="translate(38.97,84.26)" id="img-0647fee1-47">
                <path d="M-0.19,-4.07 L 0.19 -4.07 0.19 4.07 -0.19 4.07 z" class="primitive"/>
              </g>
              <g transform="translate(39.29,88.33)" id="img-0647fee1-48">
                <path d="M-0.19,-0 L 0.19 -0 0.19 0 -0.19 0 z" class="primitive"/>
              </g>
              <g transform="translate(39.61,86.29)" id="img-0647fee1-49">
                <path d="M-0.19,-2.03 L 0.19 -2.03 0.19 2.03 -0.19 2.03 z" class="primitive"/>
              </g>
              <g transform="translate(39.93,83.24)" id="img-0647fee1-50">
                <path d="M-0.19,-5.08 L 0.19 -5.08 0.19 5.08 -0.19 5.08 z" class="primitive"/>
              </g>
              <g transform="translate(40.25,87.31)" id="img-0647fee1-51">
                <path d="M-0.19,-1.02 L 0.19 -1.02 0.19 1.02 -0.19 1.02 z" class="primitive"/>
              </g>
              <g transform="translate(40.58,84.26)" id="img-0647fee1-52">
                <path d="M-0.19,-4.07 L 0.19 -4.07 0.19 4.07 -0.19 4.07 z" class="primitive"/>
              </g>
              <g transform="translate(40.9,84.26)" id="img-0647fee1-53">
                <path d="M-0.19,-4.07 L 0.19 -4.07 0.19 4.07 -0.19 4.07 z" class="primitive"/>
              </g>
              <g transform="translate(41.22,84.26)" id="img-0647fee1-54">
                <path d="M-0.19,-4.07 L 0.19 -4.07 0.19 4.07 -0.19 4.07 z" class="primitive"/>
              </g>
              <g transform="translate(41.54,82.23)" id="img-0647fee1-55">
                <path d="M-0.19,-6.1 L 0.19 -6.1 0.19 6.1 -0.19 6.1 z" class="primitive"/>
              </g>
              <g transform="translate(41.86,82.23)" id="img-0647fee1-56">
                <path d="M-0.19,-6.1 L 0.19 -6.1 0.19 6.1 -0.19 6.1 z" class="primitive"/>
              </g>
              <g transform="translate(42.18,86.29)" id="img-0647fee1-57">
                <path d="M-0.19,-2.03 L 0.19 -2.03 0.19 2.03 -0.19 2.03 z" class="primitive"/>
              </g>
              <g transform="translate(42.51,87.31)" id="img-0647fee1-58">
                <path d="M-0.19,-1.02 L 0.19 -1.02 0.19 1.02 -0.19 1.02 z" class="primitive"/>
              </g>
              <g transform="translate(42.83,85.28)" id="img-0647fee1-59">
                <path d="M-0.19,-3.05 L 0.19 -3.05 0.19 3.05 -0.19 3.05 z" class="primitive"/>
              </g>
              <g transform="translate(43.15,82.23)" id="img-0647fee1-60">
                <path d="M-0.19,-6.1 L 0.19 -6.1 0.19 6.1 -0.19 6.1 z" class="primitive"/>
              </g>
              <g transform="translate(43.47,81.21)" id="img-0647fee1-61">
                <path d="M-0.19,-7.12 L 0.19 -7.12 0.19 7.12 -0.19 7.12 z" class="primitive"/>
              </g>
              <g transform="translate(43.79,78.16)" id="img-0647fee1-62">
                <path d="M-0.19,-10.17 L 0.19 -10.17 0.19 10.17 -0.19 10.17 z" class="primitive"/>
              </g>
              <g transform="translate(44.11,84.26)" id="img-0647fee1-63">
                <path d="M-0.19,-4.07 L 0.19 -4.07 0.19 4.07 -0.19 4.07 z" class="primitive"/>
              </g>
              <g transform="translate(44.43,80.19)" id="img-0647fee1-64">
                <path d="M-0.19,-8.13 L 0.19 -8.13 0.19 8.13 -0.19 8.13 z" class="primitive"/>
              </g>
              <g transform="translate(44.76,82.23)" id="img-0647fee1-65">
                <path d="M-0.19,-6.1 L 0.19 -6.1 0.19 6.1 -0.19 6.1 z" class="primitive"/>
              </g>
              <g transform="translate(45.08,85.28)" id="img-0647fee1-66">
                <path d="M-0.19,-3.05 L 0.19 -3.05 0.19 3.05 -0.19 3.05 z" class="primitive"/>
              </g>
              <g transform="translate(45.4,78.16)" id="img-0647fee1-67">
                <path d="M-0.19,-10.17 L 0.19 -10.17 0.19 10.17 -0.19 10.17 z" class="primitive"/>
              </g>
              <g transform="translate(45.72,77.14)" id="img-0647fee1-68">
                <path d="M-0.19,-11.18 L 0.19 -11.18 0.19 11.18 -0.19 11.18 z" class="primitive"/>
              </g>
              <g transform="translate(46.04,74.09)" id="img-0647fee1-69">
                <path d="M-0.19,-14.23 L 0.19 -14.23 0.19 14.23 -0.19 14.23 z" class="primitive"/>
              </g>
              <g transform="translate(46.36,73.08)" id="img-0647fee1-70">
                <path d="M-0.19,-15.25 L 0.19 -15.25 0.19 15.25 -0.19 15.25 z" class="primitive"/>
              </g>
              <g transform="translate(46.69,73.08)" id="img-0647fee1-71">
                <path d="M-0.19,-15.25 L 0.19 -15.25 0.19 15.25 -0.19 15.25 z" class="primitive"/>
              </g>
              <g transform="translate(47.01,73.08)" id="img-0647fee1-72">
                <path d="M-0.19,-15.25 L 0.19 -15.25 0.19 15.25 -0.19 15.25 z" class="primitive"/>
              </g>
              <g transform="translate(47.33,65.96)" id="img-0647fee1-73">
                <path d="M-0.19,-22.36 L 0.19 -22.36 0.19 22.36 -0.19 22.36 z" class="primitive"/>
              </g>
              <g transform="translate(47.65,72.06)" id="img-0647fee1-74">
                <path d="M-0.19,-16.27 L 0.19 -16.27 0.19 16.27 -0.19 16.27 z" class="primitive"/>
              </g>
              <g transform="translate(47.97,71.04)" id="img-0647fee1-75">
                <path d="M-0.19,-17.28 L 0.19 -17.28 0.19 17.28 -0.19 17.28 z" class="primitive"/>
              </g>
              <g transform="translate(48.29,75.11)" id="img-0647fee1-76">
                <path d="M-0.19,-13.22 L 0.19 -13.22 0.19 13.22 -0.19 13.22 z" class="primitive"/>
              </g>
              <g transform="translate(48.62,68)" id="img-0647fee1-77">
                <path d="M-0.19,-20.33 L 0.19 -20.33 0.19 20.33 -0.19 20.33 z" class="primitive"/>
              </g>
              <g transform="translate(48.94,73.08)" id="img-0647fee1-78">
                <path d="M-0.19,-15.25 L 0.19 -15.25 0.19 15.25 -0.19 15.25 z" class="primitive"/>
              </g>
              <g transform="translate(49.26,66.98)" id="img-0647fee1-79">
                <path d="M-0.19,-21.35 L 0.19 -21.35 0.19 21.35 -0.19 21.35 z" class="primitive"/>
              </g>
              <g transform="translate(49.58,68)" id="img-0647fee1-80">
                <path d="M-0.19,-20.33 L 0.19 -20.33 0.19 20.33 -0.19 20.33 z" class="primitive"/>
              </g>
              <g transform="translate(49.9,63.93)" id="img-0647fee1-81">
                <path d="M-0.19,-24.4 L 0.19 -24.4 0.19 24.4 -0.19 24.4 z" class="primitive"/>
              </g>
              <g transform="translate(50.22,64.95)" id="img-0647fee1-82">
                <path d="M-0.19,-23.38 L 0.19 -23.38 0.19 23.38 -0.19 23.38 z" class="primitive"/>
              </g>
              <g transform="translate(50.55,60.88)" id="img-0647fee1-83">
                <path d="M-0.19,-27.45 L 0.19 -27.45 0.19 27.45 -0.19 27.45 z" class="primitive"/>
              </g>
              <g transform="translate(50.87,55.8)" id="img-0647fee1-84">
                <path d="M-0.19,-32.53 L 0.19 -32.53 0.19 32.53 -0.19 32.53 z" class="primitive"/>
              </g>
              <g transform="translate(51.19,59.86)" id="img-0647fee1-85">
                <path d="M-0.19,-28.46 L 0.19 -28.46 0.19 28.46 -0.19 28.46 z" class="primitive"/>
              </g>
              <g transform="translate(51.51,64.95)" id="img-0647fee1-86">
                <path d="M-0.19,-23.38 L 0.19 -23.38 0.19 23.38 -0.19 23.38 z" class="primitive"/>
              </g>
              <g transform="translate(51.83,57.83)" id="img-0647fee1-87">
                <path d="M-0.19,-30.5 L 0.19 -30.5 0.19 30.5 -0.19 30.5 z" class="primitive"/>
              </g>
              <g transform="translate(52.15,62.91)" id="img-0647fee1-88">
                <path d="M-0.19,-25.41 L 0.19 -25.41 0.19 25.41 -0.19 25.41 z" class="primitive"/>
              </g>
              <g transform="translate(52.48,61.9)" id="img-0647fee1-89">
                <path d="M-0.19,-26.43 L 0.19 -26.43 0.19 26.43 -0.19 26.43 z" class="primitive"/>
              </g>
              <g transform="translate(52.8,61.9)" id="img-0647fee1-90">
                <path d="M-0.19,-26.43 L 0.19 -26.43 0.19 26.43 -0.19 26.43 z" class="primitive"/>
              </g>
              <g transform="translate(53.12,66.98)" id="img-0647fee1-91">
                <path d="M-0.19,-21.35 L 0.19 -21.35 0.19 21.35 -0.19 21.35 z" class="primitive"/>
              </g>
              <g transform="translate(53.44,65.96)" id="img-0647fee1-92">
                <path d="M-0.19,-22.36 L 0.19 -22.36 0.19 22.36 -0.19 22.36 z" class="primitive"/>
              </g>
              <g transform="translate(53.76,69.01)" id="img-0647fee1-93">
                <path d="M-0.19,-19.32 L 0.19 -19.32 0.19 19.32 -0.19 19.32 z" class="primitive"/>
              </g>
              <g transform="translate(54.08,63.93)" id="img-0647fee1-94">
                <path d="M-0.19,-24.4 L 0.19 -24.4 0.19 24.4 -0.19 24.4 z" class="primitive"/>
              </g>
              <g transform="translate(54.41,65.96)" id="img-0647fee1-95">
                <path d="M-0.19,-22.36 L 0.19 -22.36 0.19 22.36 -0.19 22.36 z" class="primitive"/>
              </g>
              <g transform="translate(54.73,71.04)" id="img-0647fee1-96">
                <path d="M-0.19,-17.28 L 0.19 -17.28 0.19 17.28 -0.19 17.28 z" class="primitive"/>
              </g>
              <g transform="translate(55.05,69.01)" id="img-0647fee1-97">
                <path d="M-0.19,-19.32 L 0.19 -19.32 0.19 19.32 -0.19 19.32 z" class="primitive"/>
              </g>
              <g transform="translate(55.37,64.95)" id="img-0647fee1-98">
                <path d="M-0.19,-23.38 L 0.19 -23.38 0.19 23.38 -0.19 23.38 z" class="primitive"/>
              </g>
              <g transform="translate(55.69,66.98)" id="img-0647fee1-99">
                <path d="M-0.19,-21.35 L 0.19 -21.35 0.19 21.35 -0.19 21.35 z" class="primitive"/>
              </g>
              <g transform="translate(56.01,72.06)" id="img-0647fee1-100">
                <path d="M-0.19,-16.27 L 0.19 -16.27 0.19 16.27 -0.19 16.27 z" class="primitive"/>
              </g>
              <g transform="translate(56.34,61.9)" id="img-0647fee1-101">
                <path d="M-0.19,-26.43 L 0.19 -26.43 0.19 26.43 -0.19 26.43 z" class="primitive"/>
              </g>
              <g transform="translate(56.66,71.04)" id="img-0647fee1-102">
                <path d="M-0.19,-17.28 L 0.19 -17.28 0.19 17.28 -0.19 17.28 z" class="primitive"/>
              </g>
              <g transform="translate(56.98,75.11)" id="img-0647fee1-103">
                <path d="M-0.19,-13.22 L 0.19 -13.22 0.19 13.22 -0.19 13.22 z" class="primitive"/>
              </g>
              <g transform="translate(57.3,70.03)" id="img-0647fee1-104">
                <path d="M-0.19,-18.3 L 0.19 -18.3 0.19 18.3 -0.19 18.3 z" class="primitive"/>
              </g>
              <g transform="translate(57.62,75.11)" id="img-0647fee1-105">
                <path d="M-0.19,-13.22 L 0.19 -13.22 0.19 13.22 -0.19 13.22 z" class="primitive"/>
              </g>
              <g transform="translate(57.94,73.08)" id="img-0647fee1-106">
                <path d="M-0.19,-15.25 L 0.19 -15.25 0.19 15.25 -0.19 15.25 z" class="primitive"/>
              </g>
              <g transform="translate(58.27,73.08)" id="img-0647fee1-107">
                <path d="M-0.19,-15.25 L 0.19 -15.25 0.19 15.25 -0.19 15.25 z" class="primitive"/>
              </g>
              <g transform="translate(58.59,81.21)" id="img-0647fee1-108">
                <path d="M-0.19,-7.12 L 0.19 -7.12 0.19 7.12 -0.19 7.12 z" class="primitive"/>
              </g>
              <g transform="translate(58.91,79.18)" id="img-0647fee1-109">
                <path d="M-0.19,-9.15 L 0.19 -9.15 0.19 9.15 -0.19 9.15 z" class="primitive"/>
              </g>
              <g transform="translate(59.23,79.18)" id="img-0647fee1-110">
                <path d="M-0.19,-9.15 L 0.19 -9.15 0.19 9.15 -0.19 9.15 z" class="primitive"/>
              </g>
              <g transform="translate(59.55,76.13)" id="img-0647fee1-111">
                <path d="M-0.19,-12.2 L 0.19 -12.2 0.19 12.2 -0.19 12.2 z" class="primitive"/>
              </g>
              <g transform="translate(59.87,83.24)" id="img-0647fee1-112">
                <path d="M-0.19,-5.08 L 0.19 -5.08 0.19 5.08 -0.19 5.08 z" class="primitive"/>
              </g>
              <g transform="translate(60.2,82.23)" id="img-0647fee1-113">
                <path d="M-0.19,-6.1 L 0.19 -6.1 0.19 6.1 -0.19 6.1 z" class="primitive"/>
              </g>
              <g transform="translate(60.52,82.23)" id="img-0647fee1-114">
                <path d="M-0.19,-6.1 L 0.19 -6.1 0.19 6.1 -0.19 6.1 z" class="primitive"/>
              </g>
              <g transform="translate(60.84,84.26)" id="img-0647fee1-115">
                <path d="M-0.19,-4.07 L 0.19 -4.07 0.19 4.07 -0.19 4.07 z" class="primitive"/>
              </g>
              <g transform="translate(61.16,85.28)" id="img-0647fee1-116">
                <path d="M-0.19,-3.05 L 0.19 -3.05 0.19 3.05 -0.19 3.05 z" class="primitive"/>
              </g>
              <g transform="translate(61.48,81.21)" id="img-0647fee1-117">
                <path d="M-0.19,-7.12 L 0.19 -7.12 0.19 7.12 -0.19 7.12 z" class="primitive"/>
              </g>
              <g transform="translate(61.8,84.26)" id="img-0647fee1-118">
                <path d="M-0.19,-4.07 L 0.19 -4.07 0.19 4.07 -0.19 4.07 z" class="primitive"/>
              </g>
              <g transform="translate(62.13,82.23)" id="img-0647fee1-119">
                <path d="M-0.19,-6.1 L 0.19 -6.1 0.19 6.1 -0.19 6.1 z" class="primitive"/>
              </g>
              <g transform="translate(62.45,84.26)" id="img-0647fee1-120">
                <path d="M-0.19,-4.07 L 0.19 -4.07 0.19 4.07 -0.19 4.07 z" class="primitive"/>
              </g>
              <g transform="translate(62.77,85.28)" id="img-0647fee1-121">
                <path d="M-0.19,-3.05 L 0.19 -3.05 0.19 3.05 -0.19 3.05 z" class="primitive"/>
              </g>
              <g transform="translate(63.09,85.28)" id="img-0647fee1-122">
                <path d="M-0.19,-3.05 L 0.19 -3.05 0.19 3.05 -0.19 3.05 z" class="primitive"/>
              </g>
              <g transform="translate(63.41,86.29)" id="img-0647fee1-123">
                <path d="M-0.19,-2.03 L 0.19 -2.03 0.19 2.03 -0.19 2.03 z" class="primitive"/>
              </g>
              <g transform="translate(63.73,86.29)" id="img-0647fee1-124">
                <path d="M-0.19,-2.03 L 0.19 -2.03 0.19 2.03 -0.19 2.03 z" class="primitive"/>
              </g>
              <g transform="translate(64.05,88.33)" id="img-0647fee1-125">
                <path d="M-0.19,-0 L 0.19 -0 0.19 0 -0.19 0 z" class="primitive"/>
              </g>
              <g transform="translate(64.38,87.31)" id="img-0647fee1-126">
                <path d="M-0.19,-1.02 L 0.19 -1.02 0.19 1.02 -0.19 1.02 z" class="primitive"/>
              </g>
              <g transform="translate(64.7,86.29)" id="img-0647fee1-127">
                <path d="M-0.19,-2.03 L 0.19 -2.03 0.19 2.03 -0.19 2.03 z" class="primitive"/>
              </g>
              <g transform="translate(65.02,88.33)" id="img-0647fee1-128">
                <path d="M-0.19,-0 L 0.19 -0 0.19 0 -0.19 0 z" class="primitive"/>
              </g>
              <g transform="translate(65.34,87.31)" id="img-0647fee1-129">
                <path d="M-0.19,-1.02 L 0.19 -1.02 0.19 1.02 -0.19 1.02 z" class="primitive"/>
              </g>
            </g>
          </g>
        </g>
      </g>
    </g>
  </g>
  <g class="guide ylabels" font-size="2.82" font-family="'PT Sans Caption','Helvetica Neue','Helvetica',sans-serif" fill="#6C606B" id="img-0647fee1-130">
    <g transform="translate(16.96,88.33)" id="img-0647fee1-131">
      <g class="primitive">
        <text text-anchor="end" dy="0.35em">0</text>
      </g>
    </g>
    <g transform="translate(16.96,68)" id="img-0647fee1-132">
      <g class="primitive">
        <text text-anchor="end" dy="0.35em">10</text>
      </g>
    </g>
    <g transform="translate(16.96,47.66)" id="img-0647fee1-133">
      <g class="primitive">
        <text text-anchor="end" dy="0.35em">20</text>
      </g>
    </g>
    <g transform="translate(16.96,27.33)" id="img-0647fee1-134">
      <g class="primitive">
        <text text-anchor="end" dy="0.35em">30</text>
      </g>
    </g>
    <g transform="translate(16.96,7)" id="img-0647fee1-135">
      <g class="primitive">
        <text text-anchor="end" dy="0.35em">40</text>
      </g>
    </g>
  </g>
  <g font-size="3.88" font-family="'PT Sans','Helvetica Neue','Helvetica',sans-serif" fill="#564A55" stroke="#000000" stroke-opacity="0.000" id="img-0647fee1-136">
    <g transform="translate(8.81,45.66)" id="img-0647fee1-137">
      <g class="primitive">
        <text text-anchor="middle" dy="0.35em" transform="rotate(-90,0, 2)">frequency</text>
      </g>
    </g>
  </g>
</g>
<defs>
  <clipPath id="img-0647fee1-11">
    <path d="M17.96,5 L 69.19 5 69.19 90.33 17.96 90.33" />
  </clipPath>
</defs>
</svg>
