<?xml version="1.0" encoding="UTF-8"?>
<svg xmlns="http://www.w3.org/2000/svg"
     xmlns:xlink="http://www.w3.org/1999/xlink"
     xmlns:gadfly="http://www.gadflyjl.org/ns"
     version="1.2"
     width="141.42mm" height="100mm" viewBox="0 0 141.42 100"
     stroke="none"
     fill="#000000"
     stroke-width="0.3"
     font-size="3.88"
>
<defs>
  <marker id="arrow" markerWidth="15" markerHeight="7" refX="5" refY="3.5" orient="auto" markerUnits="strokeWidth">
    <path d="M0,0 L15,3.5 L0,7 z" stroke="context-stroke" fill="context-stroke"/>
  </marker>
</defs>
<g class="plotroot xscalable yscalable" id="img-7fce4782-1">
  <g font-size="3.88" font-family="'PT Sans','Helvetica Neue','Helvetica',sans-serif" fill="#564A55" stroke="#000000" stroke-opacity="0.000" id="img-7fce4782-2">
    <g transform="translate(74.22,88.39)">
      <g class="primitive">
        <text text-anchor="middle" dy="0.6em">degree</text>
      </g>
    </g>
  </g>
  <g class="guide xlabels" font-size="2.82" font-family="'PT Sans Caption','Helvetica Neue','Helvetica',sans-serif" fill="#6C606B" id="img-7fce4782-3">
    <g transform="translate(14.02,81.72)">
      <g class="primitive">
        <text text-anchor="middle" dy="0.6em">0</text>
      </g>
    </g>
    <g transform="translate(74.22,81.72)">
      <g class="primitive">
        <text text-anchor="middle" dy="0.6em">50</text>
      </g>
    </g>
    <g transform="translate(134.42,81.72)">
      <g class="primitive">
        <text text-anchor="middle" dy="0.6em">100</text>
      </g>
    </g>
  </g>
  <g clip-path="url(#img-7fce4782-4)">
    <g id="img-7fce4782-5">
      <g pointer-events="visible" stroke-width="0.3" fill="#000000" fill-opacity="0.000" stroke="#000000" stroke-opacity="0.000" class="guide background" id="img-7fce4782-6">
        <g transform="translate(74.22,45.66)" id="img-7fce4782-7">
          <path d="M-62.2,-35.05 L 62.2 -35.05 62.2 35.05 -62.2 35.05 z" class="primitive"/>
        </g>
      </g>
      <g class="guide ygridlines xfixed" stroke-dasharray="0.5,0.5" stroke-width="0.2" stroke="#D0D0E0" id="img-7fce4782-8">
        <g transform="translate(74.22,78.72)" id="img-7fce4782-9">
          <path fill="none" d="M-62.2,0 L 62.2 0" class="primitive"/>
        </g>
        <g transform="translate(74.22,62.19)" id="img-7fce4782-10">
          <path fill="none" d="M-62.2,0 L 62.2 0" class="primitive"/>
        </g>
        <g transform="translate(74.22,45.66)" id="img-7fce4782-11">
          <path fill="none" d="M-62.2,0 L 62.2 0" class="primitive"/>
        </g>
        <g transform="translate(74.22,29.14)" id="img-7fce4782-12">
          <path fill="none" d="M-62.2,0 L 62.2 0" class="primitive"/>
        </g>
        <g transform="translate(74.22,12.61)" id="img-7fce4782-13">
          <path fill="none" d="M-62.2,0 L 62.2 0" class="primitive"/>
        </g>
      </g>
      <g class="guide xgridlines yfixed" stroke-dasharray="0.5,0.5" stroke-width="0.2" stroke="#D0D0E0" id="img-7fce4782-14">
        <g transform="translate(14.02,45.66)" id="img-7fce4782-15">
          <path fill="none" d="M0,-35.05 L 0 35.05" class="primitive"/>
        </g>
        <g transform="translate(74.22,45.66)" id="img-7fce4782-16">
          <path fill="none" d="M0,-35.05 L 0 35.05" class="primitive"/>
        </g>
        <g transform="translate(134.42,45.66)" id="img-7fce4782-17">
          <path fill="none" d="M0,-35.05 L 0 35.05" class="primitive"/>
        </g>
      </g>
      <g class="plotpanel" id="img-7fce4782-18">
        <metadata>
          <boundingbox value="12.02000000000001mm 10.611666666666665mm 124.4013562373095mm 70.10333333333334mm"/>
          <unitbox value="-1.6611108566402075 206.05113206595735 103.3222217132804 -212.10226413191467"/>
        </metadata>
        <g shape-rendering="crispEdges" stroke-width="0.3" id="img-7fce4782-19">
          <g class="geometry" fill-opacity="1" stroke="#000000" stroke-opacity="0.000" fill="#00BFFF" id="img-7fce4782-20">
            <g transform="translate(15.83,78.22)" id="img-7fce4782-21">
              <path d="M-0.63,-0.5 L 0.63 -0.5 0.63 0.5 -0.63 0.5 z" class="primitive"/>
            </g>
            <g transform="translate(17.03,78.05)" id="img-7fce4782-22">
              <path d="M-0.63,-0.66 L 0.63 -0.66 0.63 0.66 -0.63 0.66 z" class="primitive"/>
            </g>
            <g transform="translate(18.23,76.4)" id="img-7fce4782-23">
              <path d="M-0.63,-2.31 L 0.63 -2.31 0.63 2.31 -0.63 2.31 z" class="primitive"/>
            </g>
            <g transform="translate(19.44,76.4)" id="img-7fce4782-24">
              <path d="M-0.63,-2.31 L 0.63 -2.31 0.63 2.31 -0.63 2.31 z" class="primitive"/>
            </g>
            <g transform="translate(20.64,75.91)" id="img-7fce4782-25">
              <path d="M-0.63,-2.81 L 0.63 -2.81 0.63 2.81 -0.63 2.81 z" class="primitive"/>
            </g>
            <g transform="translate(21.85,73.1)" id="img-7fce4782-26">
              <path d="M-0.63,-5.62 L 0.63 -5.62 0.63 5.62 -0.63 5.62 z" class="primitive"/>
            </g>
            <g transform="translate(23.05,73.1)" id="img-7fce4782-27">
              <path d="M-0.63,-5.62 L 0.63 -5.62 0.63 5.62 -0.63 5.62 z" class="primitive"/>
            </g>
            <g transform="translate(24.25,72.93)" id="img-7fce4782-28">
              <path d="M-0.63,-5.78 L 0.63 -5.78 0.63 5.78 -0.63 5.78 z" class="primitive"/>
            </g>
            <g transform="translate(25.46,70.12)" id="img-7fce4782-29">
              <path d="M-0.63,-8.59 L 0.63 -8.59 0.63 8.59 -0.63 8.59 z" class="primitive"/>
            </g>
            <g transform="translate(26.66,70.45)" id="img-7fce4782-30">
              <path d="M-0.63,-8.26 L 0.63 -8.26 0.63 8.26 -0.63 8.26 z" class="primitive"/>
            </g>
            <g transform="translate(27.87,65.66)" id="img-7fce4782-31">
              <path d="M-0.63,-13.06 L 0.63 -13.06 0.63 13.06 -0.63 13.06 z" class="primitive"/>
            </g>
            <g transform="translate(29.07,65)" id="img-7fce4782-32">
              <path d="M-0.63,-13.72 L 0.63 -13.72 0.63 13.72 -0.63 13.72 z" class="primitive"/>
            </g>
            <g transform="translate(30.27,64.83)" id="img-7fce4782-33">
              <path d="M-0.63,-13.88 L 0.63 -13.88 0.63 13.88 -0.63 13.88 z" class="primitive"/>
            </g>
            <g transform="translate(31.48,63.51)" id="img-7fce4782-34">
              <path d="M-0.63,-15.2 L 0.63 -15.2 0.63 15.2 -0.63 15.2 z" class="primitive"/>
            </g>
            <g transform="translate(32.68,64.34)" id="img-7fce4782-35">
              <path d="M-0.63,-14.38 L 0.63 -14.38 0.63 14.38 -0.63 14.38 z" class="primitive"/>
            </g>
            <g transform="translate(33.89,60.7)" id="img-7fce4782-36">
              <path d="M-0.63,-18.01 L 0.63 -18.01 0.63 18.01 -0.63 18.01 z" class="primitive"/>
            </g>
            <g transform="translate(35.09,60.7)" id="img-7fce4782-37">
              <path d="M-0.63,-18.01 L 0.63 -18.01 0.63 18.01 -0.63 18.01 z" class="primitive"/>
            </g>
            <g transform="translate(36.29,59.55)" id="img-7fce4782-38">
              <path d="M-0.63,-19.17 L 0.63 -19.17 0.63 19.17 -0.63 19.17 z" class="primitive"/>
            </g>
            <g transform="translate(37.5,58.72)" id="img-7fce4782-39">
              <path d="M-0.63,-20 L 0.63 -20 0.63 20 -0.63 20 z" class="primitive"/>
            </g>
            <g transform="translate(38.7,57.73)" id="img-7fce4782-40">
              <path d="M-0.63,-20.99 L 0.63 -20.99 0.63 20.99 -0.63 20.99 z" class="primitive"/>
            </g>
            <g transform="translate(39.91,59.55)" id="img-7fce4782-41">
              <path d="M-0.63,-19.17 L 0.63 -19.17 0.63 19.17 -0.63 19.17 z" class="primitive"/>
            </g>
            <g transform="translate(41.11,56.24)" id="img-7fce4782-42">
              <path d="M-0.63,-22.48 L 0.63 -22.48 0.63 22.48 -0.63 22.48 z" class="primitive"/>
            </g>
            <g transform="translate(42.31,58.22)" id="img-7fce4782-43">
              <path d="M-0.63,-20.49 L 0.63 -20.49 0.63 20.49 -0.63 20.49 z" class="primitive"/>
            </g>
            <g transform="translate(43.52,56.74)" id="img-7fce4782-44">
              <path d="M-0.63,-21.98 L 0.63 -21.98 0.63 21.98 -0.63 21.98 z" class="primitive"/>
            </g>
            <g transform="translate(44.72,55.41)" id="img-7fce4782-45">
              <path d="M-0.63,-23.3 L 0.63 -23.3 0.63 23.3 -0.63 23.3 z" class="primitive"/>
            </g>
            <g transform="translate(45.93,59.38)" id="img-7fce4782-46">
              <path d="M-0.63,-19.34 L 0.63 -19.34 0.63 19.34 -0.63 19.34 z" class="primitive"/>
            </g>
            <g transform="translate(47.13,58.22)" id="img-7fce4782-47">
              <path d="M-0.63,-20.49 L 0.63 -20.49 0.63 20.49 -0.63 20.49 z" class="primitive"/>
            </g>
            <g transform="translate(48.33,55.74)" id="img-7fce4782-48">
              <path d="M-0.63,-22.97 L 0.63 -22.97 0.63 22.97 -0.63 22.97 z" class="primitive"/>
            </g>
            <g transform="translate(49.54,57.56)" id="img-7fce4782-49">
              <path d="M-0.63,-21.15 L 0.63 -21.15 0.63 21.15 -0.63 21.15 z" class="primitive"/>
            </g>
            <g transform="translate(50.74,57.89)" id="img-7fce4782-50">
              <path d="M-0.63,-20.82 L 0.63 -20.82 0.63 20.82 -0.63 20.82 z" class="primitive"/>
            </g>
            <g transform="translate(51.95,54.26)" id="img-7fce4782-51">
              <path d="M-0.63,-24.46 L 0.63 -24.46 0.63 24.46 -0.63 24.46 z" class="primitive"/>
            </g>
            <g transform="translate(53.15,56.9)" id="img-7fce4782-52">
              <path d="M-0.63,-21.81 L 0.63 -21.81 0.63 21.81 -0.63 21.81 z" class="primitive"/>
            </g>
            <g transform="translate(54.35,58.88)" id="img-7fce4782-53">
              <path d="M-0.63,-19.83 L 0.63 -19.83 0.63 19.83 -0.63 19.83 z" class="primitive"/>
            </g>
            <g transform="translate(55.56,57.23)" id="img-7fce4782-54">
              <path d="M-0.63,-21.48 L 0.63 -21.48 0.63 21.48 -0.63 21.48 z" class="primitive"/>
            </g>
            <g transform="translate(56.76,58.39)" id="img-7fce4782-55">
              <path d="M-0.63,-20.33 L 0.63 -20.33 0.63 20.33 -0.63 20.33 z" class="primitive"/>
            </g>
            <g transform="translate(57.97,56.24)" id="img-7fce4782-56">
              <path d="M-0.63,-22.48 L 0.63 -22.48 0.63 22.48 -0.63 22.48 z" class="primitive"/>
            </g>
            <g transform="translate(59.17,56.74)" id="img-7fce4782-57">
              <path d="M-0.63,-21.98 L 0.63 -21.98 0.63 21.98 -0.63 21.98 z" class="primitive"/>
            </g>
            <g transform="translate(60.37,57.56)" id="img-7fce4782-58">
              <path d="M-0.63,-21.15 L 0.63 -21.15 0.63 21.15 -0.63 21.15 z" class="primitive"/>
            </g>
            <g transform="translate(61.58,57.07)" id="img-7fce4782-59">
              <path d="M-0.63,-21.65 L 0.63 -21.65 0.63 21.65 -0.63 21.65 z" class="primitive"/>
            </g>
            <g transform="translate(62.78,59.38)" id="img-7fce4782-60">
              <path d="M-0.63,-19.34 L 0.63 -19.34 0.63 19.34 -0.63 19.34 z" class="primitive"/>
            </g>
            <g transform="translate(63.99,57.07)" id="img-7fce4782-61">
              <path d="M-0.63,-21.65 L 0.63 -21.65 0.63 21.65 -0.63 21.65 z" class="primitive"/>
            </g>
            <g transform="translate(65.19,58.06)" id="img-7fce4782-62">
              <path d="M-0.63,-20.66 L 0.63 -20.66 0.63 20.66 -0.63 20.66 z" class="primitive"/>
            </g>
            <g transform="translate(66.39,56.9)" id="img-7fce4782-63">
              <path d="M-0.63,-21.81 L 0.63 -21.81 0.63 21.81 -0.63 21.81 z" class="primitive"/>
            </g>
            <g transform="translate(67.6,59.71)" id="img-7fce4782-64">
              <path d="M-0.63,-19 L 0.63 -19 0.63 19 -0.63 19 z" class="primitive"/>
            </g>
            <g transform="translate(68.8,56.41)" id="img-7fce4782-65">
              <path d="M-0.63,-22.31 L 0.63 -22.31 0.63 22.31 -0.63 22.31 z" class="primitive"/>
            </g>
            <g transform="translate(70.01,58.06)" id="img-7fce4782-66">
              <path d="M-0.63,-20.66 L 0.63 -20.66 0.63 20.66 -0.63 20.66 z" class="primitive"/>
            </g>
            <g transform="translate(71.21,54.59)" id="img-7fce4782-67">
              <path d="M-0.63,-24.13 L 0.63 -24.13 0.63 24.13 -0.63 24.13 z" class="primitive"/>
            </g>
            <g transform="translate(72.41,60.54)" id="img-7fce4782-68">
              <path d="M-0.63,-18.18 L 0.63 -18.18 0.63 18.18 -0.63 18.18 z" class="primitive"/>
            </g>
            <g transform="translate(73.62,59.05)" id="img-7fce4782-69">
              <path d="M-0.63,-19.67 L 0.63 -19.67 0.63 19.67 -0.63 19.67 z" class="primitive"/>
            </g>
            <g transform="translate(74.82,59.05)" id="img-7fce4782-70">
              <path d="M-0.63,-19.67 L 0.63 -19.67 0.63 19.67 -0.63 19.67 z" class="primitive"/>
            </g>
            <g transform="translate(76.03,57.89)" id="img-7fce4782-71">
              <path d="M-0.63,-20.82 L 0.63 -20.82 0.63 20.82 -0.63 20.82 z" class="primitive"/>
            </g>
            <g transform="translate(77.23,58.39)" id="img-7fce4782-72">
              <path d="M-0.63,-20.33 L 0.63 -20.33 0.63 20.33 -0.63 20.33 z" class="primitive"/>
            </g>
            <g transform="translate(78.43,59.71)" id="img-7fce4782-73">
              <path d="M-0.63,-19 L 0.63 -19 0.63 19 -0.63 19 z" class="primitive"/>
            </g>
            <g transform="translate(79.64,54.92)" id="img-7fce4782-74">
              <path d="M-0.63,-23.8 L 0.63 -23.8 0.63 23.8 -0.63 23.8 z" class="primitive"/>
            </g>
            <g transform="translate(80.84,61.69)" id="img-7fce4782-75">
              <path d="M-0.63,-17.02 L 0.63 -17.02 0.63 17.02 -0.63 17.02 z" class="primitive"/>
            </g>
            <g transform="translate(82.05,62.35)" id="img-7fce4782-76">
              <path d="M-0.63,-16.36 L 0.63 -16.36 0.63 16.36 -0.63 16.36 z" class="primitive"/>
            </g>
            <g transform="translate(83.25,60.87)" id="img-7fce4782-77">
              <path d="M-0.63,-17.85 L 0.63 -17.85 0.63 17.85 -0.63 17.85 z" class="primitive"/>
            </g>
            <g transform="translate(84.45,58.88)" id="img-7fce4782-78">
              <path d="M-0.63,-19.83 L 0.63 -19.83 0.63 19.83 -0.63 19.83 z" class="primitive"/>
            </g>
            <g transform="translate(85.66,56.74)" id="img-7fce4782-79">
              <path d="M-0.63,-21.98 L 0.63 -21.98 0.63 21.98 -0.63 21.98 z" class="primitive"/>
            </g>
            <g transform="translate(86.86,57.89)" id="img-7fce4782-80">
              <path d="M-0.63,-20.82 L 0.63 -20.82 0.63 20.82 -0.63 20.82 z" class="primitive"/>
            </g>
            <g transform="translate(88.07,62.68)" id="img-7fce4782-81">
              <path d="M-0.63,-16.03 L 0.63 -16.03 0.63 16.03 -0.63 16.03 z" class="primitive"/>
            </g>
            <g transform="translate(89.27,61.53)" id="img-7fce4782-82">
              <path d="M-0.63,-17.19 L 0.63 -17.19 0.63 17.19 -0.63 17.19 z" class="primitive"/>
            </g>
            <g transform="translate(90.47,60.37)" id="img-7fce4782-83">
              <path d="M-0.63,-18.34 L 0.63 -18.34 0.63 18.34 -0.63 18.34 z" class="primitive"/>
            </g>
            <g transform="translate(91.68,61.86)" id="img-7fce4782-84">
              <path d="M-0.63,-16.86 L 0.63 -16.86 0.63 16.86 -0.63 16.86 z" class="primitive"/>
            </g>
            <g transform="translate(92.88,60.7)" id="img-7fce4782-85">
              <path d="M-0.63,-18.01 L 0.63 -18.01 0.63 18.01 -0.63 18.01 z" class="primitive"/>
            </g>
            <g transform="translate(94.09,60.37)" id="img-7fce4782-86">
              <path d="M-0.63,-18.34 L 0.63 -18.34 0.63 18.34 -0.63 18.34 z" class="primitive"/>
            </g>
            <g transform="translate(95.29,61.86)" id="img-7fce4782-87">
              <path d="M-0.63,-16.86 L 0.63 -16.86 0.63 16.86 -0.63 16.86 z" class="primitive"/>
            </g>
            <g transform="translate(96.49,60.54)" id="img-7fce4782-88">
              <path d="M-0.63,-18.18 L 0.63 -18.18 0.63 18.18 -0.63 18.18 z" class="primitive"/>
            </g>
            <g transform="translate(97.7,58.22)" id="img-7fce4782-89">
              <path d="M-0.63,-20.49 L 0.63 -20.49 0.63 20.49 -0.63 20.49 z" class="primitive"/>
            </g>
            <g transform="translate(98.9,62.19)" id="img-7fce4782-90">
              <path d="M-0.63,-16.53 L 0.63 -16.53 0.63 16.53 -0.63 16.53 z" class="primitive"/>
            </g>
            <g transform="translate(100.11,60.54)" id="img-7fce4782-91">
              <path d="M-0.63,-18.18 L 0.63 -18.18 0.63 18.18 -0.63 18.18 z" class="primitive"/>
            </g>
            <g transform="translate(101.31,59.88)" id="img-7fce4782-92">
              <path d="M-0.63,-18.84 L 0.63 -18.84 0.63 18.84 -0.63 18.84 z" class="primitive"/>
            </g>
            <g transform="translate(102.51,61.69)" id="img-7fce4782-93">
              <path d="M-0.63,-17.02 L 0.63 -17.02 0.63 17.02 -0.63 17.02 z" class="primitive"/>
            </g>
            <g transform="translate(103.72,62.85)" id="img-7fce4782-94">
              <path d="M-0.63,-15.86 L 0.63 -15.86 0.63 15.86 -0.63 15.86 z" class="primitive"/>
            </g>
            <g transform="translate(104.92,58.39)" id="img-7fce4782-95">
              <path d="M-0.63,-20.33 L 0.63 -20.33 0.63 20.33 -0.63 20.33 z" class="primitive"/>
            </g>
            <g transform="translate(106.13,62.02)" id="img-7fce4782-96">
              <path d="M-0.63,-16.69 L 0.63 -16.69 0.63 16.69 -0.63 16.69 z" class="primitive"/>
            </g>
            <g transform="translate(107.33,62.19)" id="img-7fce4782-97">
              <path d="M-0.63,-16.53 L 0.63 -16.53 0.63 16.53 -0.63 16.53 z" class="primitive"/>
            </g>
            <g transform="translate(108.54,61.86)" id="img-7fce4782-98">
              <path d="M-0.63,-16.86 L 0.63 -16.86 0.63 16.86 -0.63 16.86 z" class="primitive"/>
            </g>
            <g transform="translate(109.74,64.5)" id="img-7fce4782-99">
              <path d="M-0.63,-14.21 L 0.63 -14.21 0.63 14.21 -0.63 14.21 z" class="primitive"/>
            </g>
            <g transform="translate(110.94,62.19)" id="img-7fce4782-100">
              <path d="M-0.63,-16.53 L 0.63 -16.53 0.63 16.53 -0.63 16.53 z" class="primitive"/>
            </g>
            <g transform="translate(112.15,64.01)" id="img-7fce4782-101">
              <path d="M-0.63,-14.71 L 0.63 -14.71 0.63 14.71 -0.63 14.71 z" class="primitive"/>
            </g>
            <g transform="translate(113.35,64.17)" id="img-7fce4782-102">
              <path d="M-0.63,-14.54 L 0.63 -14.54 0.63 14.54 -0.63 14.54 z" class="primitive"/>
            </g>
            <g transform="translate(114.56,60.87)" id="img-7fce4782-103">
              <path d="M-0.63,-17.85 L 0.63 -17.85 0.63 17.85 -0.63 17.85 z" class="primitive"/>
            </g>
            <g transform="translate(115.76,63.51)" id="img-7fce4782-104">
              <path d="M-0.63,-15.2 L 0.63 -15.2 0.63 15.2 -0.63 15.2 z" class="primitive"/>
            </g>
            <g transform="translate(116.96,65)" id="img-7fce4782-105">
              <path d="M-0.63,-13.72 L 0.63 -13.72 0.63 13.72 -0.63 13.72 z" class="primitive"/>
            </g>
            <g transform="translate(118.17,64.83)" id="img-7fce4782-106">
              <path d="M-0.63,-13.88 L 0.63 -13.88 0.63 13.88 -0.63 13.88 z" class="primitive"/>
            </g>
            <g transform="translate(119.37,65.66)" id="img-7fce4782-107">
              <path d="M-0.63,-13.06 L 0.63 -13.06 0.63 13.06 -0.63 13.06 z" class="primitive"/>
            </g>
            <g transform="translate(120.58,68.96)" id="img-7fce4782-108">
              <path d="M-0.63,-9.75 L 0.63 -9.75 0.63 9.75 -0.63 9.75 z" class="primitive"/>
            </g>
            <g transform="translate(121.78,69.13)" id="img-7fce4782-109">
              <path d="M-0.63,-9.58 L 0.63 -9.58 0.63 9.58 -0.63 9.58 z" class="primitive"/>
            </g>
            <g transform="translate(122.98,68.14)" id="img-7fce4782-110">
              <path d="M-0.63,-10.58 L 0.63 -10.58 0.63 10.58 -0.63 10.58 z" class="primitive"/>
            </g>
            <g transform="translate(124.19,66.98)" id="img-7fce4782-111">
              <path d="M-0.63,-11.73 L 0.63 -11.73 0.63 11.73 -0.63 11.73 z" class="primitive"/>
            </g>
            <g transform="translate(125.39,69.63)" id="img-7fce4782-112">
              <path d="M-0.63,-9.09 L 0.63 -9.09 0.63 9.09 -0.63 9.09 z" class="primitive"/>
            </g>
            <g transform="translate(126.6,70.12)" id="img-7fce4782-113">
              <path d="M-0.63,-8.59 L 0.63 -8.59 0.63 8.59 -0.63 8.59 z" class="primitive"/>
            </g>
            <g transform="translate(127.8,52.44)" id="img-7fce4782-114">
              <path d="M-0.63,-26.28 L 0.63 -26.28 0.63 26.28 -0.63 26.28 z" class="primitive"/>
            </g>
          </g>
        </g>
      </g>
    </g>
  </g>
  <g class="guide ylabels" font-size="2.82" font-family="'PT Sans Caption','Helvetica Neue','Helvetica',sans-serif" fill="#6C606B" id="img-7fce4782-115">
    <g transform="translate(11.02,78.72)" id="img-7fce4782-116">
      <g class="primitive">
        <text text-anchor="end" dy="0.35em">0</text>
      </g>
    </g>
    <g transform="translate(11.02,62.19)" id="img-7fce4782-117">
      <g class="primitive">
        <text text-anchor="end" dy="0.35em">50</text>
      </g>
    </g>
    <g transform="translate(11.02,45.66)" id="img-7fce4782-118">
      <g class="primitive">
        <text text-anchor="end" dy="0.35em">100</text>
      </g>
    </g>
    <g transform="translate(11.02,29.14)" id="img-7fce4782-119">
      <g class="primitive">
        <text text-anchor="end" dy="0.35em">150</text>
      </g>
    </g>
    <g transform="translate(11.02,12.61)" id="img-7fce4782-120">
      <g class="primitive">
        <text text-anchor="end" dy="0.35em">200</text>
      </g>
    </g>
  </g>
  <g font-size="3.88" font-family="'PT Sans','Helvetica Neue','Helvetica',sans-serif" fill="#564A55" stroke="#000000" stroke-opacity="0.000" id="img-7fce4782-121">
    <g transform="translate(74.22,5)" id="img-7fce4782-122">
      <g class="primitive">
        <text text-anchor="middle" dy="0.6em">Degree distribution</text>
      </g>
    </g>
  </g>
</g>
<defs>
  <clipPath id="img-7fce4782-4">
    <path d="M12.02,10.61 L 136.42 10.61 136.42 80.72 12.02 80.72" />
  </clipPath>
</defs>
</svg>
