<?xml version="1.0" encoding="UTF-8"?>
<svg xmlns="http://www.w3.org/2000/svg"
     xmlns:xlink="http://www.w3.org/1999/xlink"
     xmlns:gadfly="http://www.gadflyjl.org/ns"
     version="1.2"
     width="141.42mm" height="100mm" viewBox="0 0 141.42 100"
     stroke="none"
     fill="#000000"
     stroke-width="0.3"
     font-size="3.88"
>
<defs>
  <marker id="arrow" markerWidth="15" markerHeight="7" refX="5" refY="3.5" orient="auto" markerUnits="strokeWidth">
    <path d="M0,0 L15,3.5 L0,7 z" stroke="context-stroke" fill="context-stroke"/>
  </marker>
</defs>
<g class="plotroot xscalable yscalable" id="img-d53342e4-1">
  <g font-size="3.88" font-family="'PT Sans','Helvetica Neue','Helvetica',sans-serif" fill="#564A55" stroke="#000000" stroke-opacity="0.000" id="img-d53342e4-2">
    <g transform="translate(69.26,88.39)">
      <g class="primitive">
        <text text-anchor="middle" dy="0.6em"> sum of expression (log2 adjusted)</text>
      </g>
    </g>
  </g>
  <g class="guide xlabels" font-size="2.82" font-family="'PT Sans Caption','Helvetica Neue','Helvetica',sans-serif" fill="#6C606B" id="img-d53342e4-3">
    <g transform="translate(28.72,81.72)">
      <g class="primitive">
        <text text-anchor="middle" dy="0.6em">0</text>
      </g>
    </g>
    <g transform="translate(48.99,81.72)">
      <g class="primitive">
        <text text-anchor="middle" dy="0.6em">5</text>
      </g>
    </g>
    <g transform="translate(69.26,81.72)">
      <g class="primitive">
        <text text-anchor="middle" dy="0.6em">10</text>
      </g>
    </g>
    <g transform="translate(89.53,81.72)">
      <g class="primitive">
        <text text-anchor="middle" dy="0.6em">15</text>
      </g>
    </g>
    <g transform="translate(109.8,81.72)">
      <g class="primitive">
        <text text-anchor="middle" dy="0.6em">20</text>
      </g>
    </g>
  </g>
  <g class="guide colorkey" id="img-d53342e4-4">
    <g fill="#4C404B" font-size="2.82" font-family="'PT Sans','Helvetica Neue','Helvetica',sans-serif" id="img-d53342e4-5">
      <g transform="translate(115.61,42.86)" id="img-d53342e4-6" class="color_noncoding">
        <g class="primitive">
          <text dy="0.35em">noncoding</text>
        </g>
      </g>
      <g transform="translate(115.61,46.48)" id="img-d53342e4-7" class="color_coding">
        <g class="primitive">
          <text dy="0.35em">coding</text>
        </g>
      </g>
    </g>
    <g fill-opacity="1" id="img-d53342e4-8">
      <g transform="translate(113.71,42.86)" id="img-d53342e4-9" fill="#00BFFF" class="color_noncoding" stroke="#FFFFFF">
        <path d="M-0.91,-0.91 L 0.91 -0.91 0.91 0.91 -0.91 0.91 z" class="primitive"/>
      </g>
      <g transform="translate(113.71,46.48)" id="img-d53342e4-10" fill="#D4CA3A" class="color_coding" stroke="#FFFFFF">
        <path d="M-0.91,-0.91 L 0.91 -0.91 0.91 0.91 -0.91 0.91 z" class="primitive"/>
      </g>
    </g>
    <g fill="#362A35" font-size="3.88" font-family="'PT Sans','Helvetica Neue','Helvetica',sans-serif" stroke="#000000" stroke-opacity="0.000" id="img-d53342e4-11">
      <g transform="translate(112.8,39.04)" id="img-d53342e4-12">
        <g class="primitive">
          <text dy="-0em">transcript_type</text>
        </g>
      </g>
    </g>
  </g>
  <g clip-path="url(#img-d53342e4-13)">
    <g id="img-d53342e4-14">
      <g pointer-events="visible" stroke-width="0.3" fill="#000000" fill-opacity="0.000" stroke="#000000" stroke-opacity="0.000" class="guide background" id="img-d53342e4-15">
        <g transform="translate(69.26,42.86)" id="img-d53342e4-16">
          <path d="M-42.54,-37.86 L 42.54 -37.86 42.54 37.86 -42.54 37.86 z" class="primitive"/>
        </g>
      </g>
      <g class="guide ygridlines xfixed" stroke-dasharray="0.5,0.5" stroke-width="0.2" stroke="#D0D0E0" id="img-d53342e4-17">
        <g transform="translate(69.26,78.72)" id="img-d53342e4-18">
          <path fill="none" d="M-42.54,0 L 42.54 0" class="primitive"/>
        </g>
        <g transform="translate(69.26,66.76)" id="img-d53342e4-19">
          <path fill="none" d="M-42.54,0 L 42.54 0" class="primitive"/>
        </g>
        <g transform="translate(69.26,54.81)" id="img-d53342e4-20">
          <path fill="none" d="M-42.54,0 L 42.54 0" class="primitive"/>
        </g>
        <g transform="translate(69.26,42.86)" id="img-d53342e4-21">
          <path fill="none" d="M-42.54,0 L 42.54 0" class="primitive"/>
        </g>
        <g transform="translate(69.26,30.91)" id="img-d53342e4-22">
          <path fill="none" d="M-42.54,0 L 42.54 0" class="primitive"/>
        </g>
        <g transform="translate(69.26,18.95)" id="img-d53342e4-23">
          <path fill="none" d="M-42.54,0 L 42.54 0" class="primitive"/>
        </g>
        <g transform="translate(69.26,7)" id="img-d53342e4-24">
          <path fill="none" d="M-42.54,0 L 42.54 0" class="primitive"/>
        </g>
      </g>
      <g class="guide xgridlines yfixed" stroke-dasharray="0.5,0.5" stroke-width="0.2" stroke="#D0D0E0" id="img-d53342e4-25">
        <g transform="translate(28.72,42.86)" id="img-d53342e4-26">
          <path fill="none" d="M0,-37.86 L 0 37.86" class="primitive"/>
        </g>
        <g transform="translate(48.99,42.86)" id="img-d53342e4-27">
          <path fill="none" d="M0,-37.86 L 0 37.86" class="primitive"/>
        </g>
        <g transform="translate(69.26,42.86)" id="img-d53342e4-28">
          <path fill="none" d="M0,-37.86 L 0 37.86" class="primitive"/>
        </g>
        <g transform="translate(89.53,42.86)" id="img-d53342e4-29">
          <path fill="none" d="M0,-37.86 L 0 37.86" class="primitive"/>
        </g>
        <g transform="translate(109.8,42.86)" id="img-d53342e4-30">
          <path fill="none" d="M0,-37.86 L 0 37.86" class="primitive"/>
        </g>
      </g>
      <g class="plotpanel" id="img-d53342e4-31">
        <metadata>
          <boundingbox value="26.724999999999994mm 5.0mm 85.07468957064285mm 75.715mm"/>
          <unitbox value="-0.4933722251893026 6167.329010667225 20.98674445037861 -6334.65802133445"/>
        </metadata>
        <g shape-rendering="crispEdges" stroke-width="0.3" id="img-d53342e4-32">
          <g stroke="#000000" stroke-opacity="0.000" class="geometry" id="img-d53342e4-33">
            <g fill="#00BFFF" id="img-d53342e4-34">
              <g transform="translate(47.81,69.35)" id="img-d53342e4-35">
                <path d="M-0.29,-9.36 L 0.29 -9.36 0.29 9.36 -0.29 9.36 z" class="primitive"/>
              </g>
              <g transform="translate(48.33,69.24)" id="img-d53342e4-36">
                <path d="M-0.29,-9.47 L 0.29 -9.47 0.29 9.47 -0.29 9.47 z" class="primitive"/>
              </g>
              <g transform="translate(48.86,69.4)" id="img-d53342e4-37">
                <path d="M-0.29,-9.31 L 0.29 -9.31 0.29 9.31 -0.29 9.31 z" class="primitive"/>
              </g>
              <g transform="translate(49.38,70.03)" id="img-d53342e4-38">
                <path d="M-0.29,-8.68 L 0.29 -8.68 0.29 8.68 -0.29 8.68 z" class="primitive"/>
              </g>
              <g transform="translate(49.9,70.18)" id="img-d53342e4-39">
                <path d="M-0.29,-8.53 L 0.29 -8.53 0.29 8.53 -0.29 8.53 z" class="primitive"/>
              </g>
              <g transform="translate(50.42,70.77)" id="img-d53342e4-40">
                <path d="M-0.29,-7.95 L 0.29 -7.95 0.29 7.95 -0.29 7.95 z" class="primitive"/>
              </g>
              <g transform="translate(50.95,71.21)" id="img-d53342e4-41">
                <path d="M-0.29,-7.51 L 0.29 -7.51 0.29 7.51 -0.29 7.51 z" class="primitive"/>
              </g>
              <g transform="translate(51.47,72.3)" id="img-d53342e4-42">
                <path d="M-0.29,-6.41 L 0.29 -6.41 0.29 6.41 -0.29 6.41 z" class="primitive"/>
              </g>
              <g transform="translate(51.99,73.38)" id="img-d53342e4-43">
                <path d="M-0.29,-5.33 L 0.29 -5.33 0.29 5.33 -0.29 5.33 z" class="primitive"/>
              </g>
              <g transform="translate(52.51,73.89)" id="img-d53342e4-44">
                <path d="M-0.29,-4.83 L 0.29 -4.83 0.29 4.83 -0.29 4.83 z" class="primitive"/>
              </g>
              <g transform="translate(53.04,74.35)" id="img-d53342e4-45">
                <path d="M-0.29,-4.36 L 0.29 -4.36 0.29 4.36 -0.29 4.36 z" class="primitive"/>
              </g>
              <g transform="translate(53.56,75.06)" id="img-d53342e4-46">
                <path d="M-0.29,-3.66 L 0.29 -3.66 0.29 3.66 -0.29 3.66 z" class="primitive"/>
              </g>
              <g transform="translate(54.08,75.66)" id="img-d53342e4-47">
                <path d="M-0.29,-3.06 L 0.29 -3.06 0.29 3.06 -0.29 3.06 z" class="primitive"/>
              </g>
              <g transform="translate(54.6,76.15)" id="img-d53342e4-48">
                <path d="M-0.29,-2.57 L 0.29 -2.57 0.29 2.57 -0.29 2.57 z" class="primitive"/>
              </g>
              <g transform="translate(55.12,76.63)" id="img-d53342e4-49">
                <path d="M-0.29,-2.09 L 0.29 -2.09 0.29 2.09 -0.29 2.09 z" class="primitive"/>
              </g>
              <g transform="translate(55.65,77.01)" id="img-d53342e4-50">
                <path d="M-0.29,-1.7 L 0.29 -1.7 0.29 1.7 -0.29 1.7 z" class="primitive"/>
              </g>
              <g transform="translate(56.17,77.19)" id="img-d53342e4-51">
                <path d="M-0.29,-1.52 L 0.29 -1.52 0.29 1.52 -0.29 1.52 z" class="primitive"/>
              </g>
              <g transform="translate(56.69,77.63)" id="img-d53342e4-52">
                <path d="M-0.29,-1.09 L 0.29 -1.09 0.29 1.09 -0.29 1.09 z" class="primitive"/>
              </g>
              <g transform="translate(57.21,77.7)" id="img-d53342e4-53">
                <path d="M-0.29,-1.02 L 0.29 -1.02 0.29 1.02 -0.29 1.02 z" class="primitive"/>
              </g>
              <g transform="translate(57.74,77.89)" id="img-d53342e4-54">
                <path d="M-0.29,-0.82 L 0.29 -0.82 0.29 0.82 -0.29 0.82 z" class="primitive"/>
              </g>
              <g transform="translate(58.26,78.01)" id="img-d53342e4-55">
                <path d="M-0.29,-0.71 L 0.29 -0.71 0.29 0.71 -0.29 0.71 z" class="primitive"/>
              </g>
              <g transform="translate(58.78,78.07)" id="img-d53342e4-56">
                <path d="M-0.29,-0.65 L 0.29 -0.65 0.29 0.65 -0.29 0.65 z" class="primitive"/>
              </g>
              <g transform="translate(59.3,78.2)" id="img-d53342e4-57">
                <path d="M-0.29,-0.51 L 0.29 -0.51 0.29 0.51 -0.29 0.51 z" class="primitive"/>
              </g>
              <g transform="translate(59.83,78.33)" id="img-d53342e4-58">
                <path d="M-0.29,-0.38 L 0.29 -0.38 0.29 0.38 -0.29 0.38 z" class="primitive"/>
              </g>
              <g transform="translate(60.35,78.4)" id="img-d53342e4-59">
                <path d="M-0.29,-0.31 L 0.29 -0.31 0.29 0.31 -0.29 0.31 z" class="primitive"/>
              </g>
              <g transform="translate(60.87,78.48)" id="img-d53342e4-60">
                <path d="M-0.29,-0.23 L 0.29 -0.23 0.29 0.23 -0.29 0.23 z" class="primitive"/>
              </g>
              <g transform="translate(61.39,78.49)" id="img-d53342e4-61">
                <path d="M-0.29,-0.22 L 0.29 -0.22 0.29 0.22 -0.29 0.22 z" class="primitive"/>
              </g>
              <g transform="translate(61.92,78.49)" id="img-d53342e4-62">
                <path d="M-0.29,-0.22 L 0.29 -0.22 0.29 0.22 -0.29 0.22 z" class="primitive"/>
              </g>
              <g transform="translate(62.44,78.57)" id="img-d53342e4-63">
                <path d="M-0.29,-0.15 L 0.29 -0.15 0.29 0.15 -0.29 0.15 z" class="primitive"/>
              </g>
              <g transform="translate(62.96,78.55)" id="img-d53342e4-64">
                <path d="M-0.29,-0.16 L 0.29 -0.16 0.29 0.16 -0.29 0.16 z" class="primitive"/>
              </g>
              <g transform="translate(63.48,78.61)" id="img-d53342e4-65">
                <path d="M-0.29,-0.11 L 0.29 -0.11 0.29 0.11 -0.29 0.11 z" class="primitive"/>
              </g>
              <g transform="translate(64,78.57)" id="img-d53342e4-66">
                <path d="M-0.29,-0.14 L 0.29 -0.14 0.29 0.14 -0.29 0.14 z" class="primitive"/>
              </g>
              <g transform="translate(64.53,78.63)" id="img-d53342e4-67">
                <path d="M-0.29,-0.08 L 0.29 -0.08 0.29 0.08 -0.29 0.08 z" class="primitive"/>
              </g>
              <g transform="translate(65.05,78.63)" id="img-d53342e4-68">
                <path d="M-0.29,-0.08 L 0.29 -0.08 0.29 0.08 -0.29 0.08 z" class="primitive"/>
              </g>
              <g transform="translate(65.57,78.61)" id="img-d53342e4-69">
                <path d="M-0.29,-0.11 L 0.29 -0.11 0.29 0.11 -0.29 0.11 z" class="primitive"/>
              </g>
              <g transform="translate(66.09,78.63)" id="img-d53342e4-70">
                <path d="M-0.29,-0.08 L 0.29 -0.08 0.29 0.08 -0.29 0.08 z" class="primitive"/>
              </g>
              <g transform="translate(66.62,78.61)" id="img-d53342e4-71">
                <path d="M-0.29,-0.1 L 0.29 -0.1 0.29 0.1 -0.29 0.1 z" class="primitive"/>
              </g>
              <g transform="translate(67.14,78.69)" id="img-d53342e4-72">
                <path d="M-0.29,-0.03 L 0.29 -0.03 0.29 0.03 -0.29 0.03 z" class="primitive"/>
              </g>
              <g transform="translate(67.66,78.66)" id="img-d53342e4-73">
                <path d="M-0.29,-0.05 L 0.29 -0.05 0.29 0.05 -0.29 0.05 z" class="primitive"/>
              </g>
              <g transform="translate(68.18,78.64)" id="img-d53342e4-74">
                <path d="M-0.29,-0.07 L 0.29 -0.07 0.29 0.07 -0.29 0.07 z" class="primitive"/>
              </g>
              <g transform="translate(68.71,78.7)" id="img-d53342e4-75">
                <path d="M-0.29,-0.01 L 0.29 -0.01 0.29 0.01 -0.29 0.01 z" class="primitive"/>
              </g>
              <g transform="translate(69.23,78.69)" id="img-d53342e4-76">
                <path d="M-0.29,-0.03 L 0.29 -0.03 0.29 0.03 -0.29 0.03 z" class="primitive"/>
              </g>
              <g transform="translate(69.75,78.66)" id="img-d53342e4-77">
                <path d="M-0.29,-0.06 L 0.29 -0.06 0.29 0.06 -0.29 0.06 z" class="primitive"/>
              </g>
              <g transform="translate(70.27,78.7)" id="img-d53342e4-78">
                <path d="M-0.29,-0.01 L 0.29 -0.01 0.29 0.01 -0.29 0.01 z" class="primitive"/>
              </g>
              <g transform="translate(70.8,78.7)" id="img-d53342e4-79">
                <path d="M-0.29,-0.01 L 0.29 -0.01 0.29 0.01 -0.29 0.01 z" class="primitive"/>
              </g>
              <g transform="translate(71.32,78.7)" id="img-d53342e4-80">
                <path d="M-0.29,-0.02 L 0.29 -0.02 0.29 0.02 -0.29 0.02 z" class="primitive"/>
              </g>
              <g transform="translate(71.84,78.69)" id="img-d53342e4-81">
                <path d="M-0.29,-0.02 L 0.29 -0.02 0.29 0.02 -0.29 0.02 z" class="primitive"/>
              </g>
              <g transform="translate(72.36,78.67)" id="img-d53342e4-82">
                <path d="M-0.29,-0.04 L 0.29 -0.04 0.29 0.04 -0.29 0.04 z" class="primitive"/>
              </g>
              <g transform="translate(72.89,78.69)" id="img-d53342e4-83">
                <path d="M-0.29,-0.02 L 0.29 -0.02 0.29 0.02 -0.29 0.02 z" class="primitive"/>
              </g>
              <g transform="translate(73.41,78.7)" id="img-d53342e4-84">
                <path d="M-0.29,-0.01 L 0.29 -0.01 0.29 0.01 -0.29 0.01 z" class="primitive"/>
              </g>
              <g transform="translate(73.93,78.72)" id="img-d53342e4-85">
                <path d="M-0.29,-0 L 0.29 -0 0.29 0 -0.29 0 z" class="primitive"/>
              </g>
              <g transform="translate(74.45,78.71)" id="img-d53342e4-86">
                <path d="M-0.29,-0.01 L 0.29 -0.01 0.29 0.01 -0.29 0.01 z" class="primitive"/>
              </g>
              <g transform="translate(74.97,78.7)" id="img-d53342e4-87">
                <path d="M-0.29,-0.02 L 0.29 -0.02 0.29 0.02 -0.29 0.02 z" class="primitive"/>
              </g>
              <g transform="translate(75.5,78.71)" id="img-d53342e4-88">
                <path d="M-0.29,-0.01 L 0.29 -0.01 0.29 0.01 -0.29 0.01 z" class="primitive"/>
              </g>
              <g transform="translate(76.02,78.72)" id="img-d53342e4-89">
                <path d="M-0.29,-0 L 0.29 -0 0.29 0 -0.29 0 z" class="primitive"/>
              </g>
              <g transform="translate(76.54,78.72)" id="img-d53342e4-90">
                <path d="M-0.29,-0 L 0.29 -0 0.29 0 -0.29 0 z" class="primitive"/>
              </g>
              <g transform="translate(77.06,78.7)" id="img-d53342e4-91">
                <path d="M-0.29,-0.02 L 0.29 -0.02 0.29 0.02 -0.29 0.02 z" class="primitive"/>
              </g>
              <g transform="translate(77.59,78.71)" id="img-d53342e4-92">
                <path d="M-0.29,-0.01 L 0.29 -0.01 0.29 0.01 -0.29 0.01 z" class="primitive"/>
              </g>
              <g transform="translate(78.11,78.72)" id="img-d53342e4-93">
                <path d="M-0.29,-0 L 0.29 -0 0.29 0 -0.29 0 z" class="primitive"/>
              </g>
              <g transform="translate(78.63,78.71)" id="img-d53342e4-94">
                <path d="M-0.29,-0.01 L 0.29 -0.01 0.29 0.01 -0.29 0.01 z" class="primitive"/>
              </g>
              <g transform="translate(79.15,78.72)" id="img-d53342e4-95">
                <path d="M-0.29,-0 L 0.29 -0 0.29 0 -0.29 0 z" class="primitive"/>
              </g>
              <g transform="translate(79.68,78.72)" id="img-d53342e4-96">
                <path d="M-0.29,-0 L 0.29 -0 0.29 0 -0.29 0 z" class="primitive"/>
              </g>
              <g transform="translate(80.2,78.72)" id="img-d53342e4-97">
                <path d="M-0.29,-0 L 0.29 -0 0.29 0 -0.29 0 z" class="primitive"/>
              </g>
              <g transform="translate(80.72,78.72)" id="img-d53342e4-98">
                <path d="M-0.29,-0 L 0.29 -0 0.29 0 -0.29 0 z" class="primitive"/>
              </g>
              <g transform="translate(81.24,78.7)" id="img-d53342e4-99">
                <path d="M-0.29,-0.01 L 0.29 -0.01 0.29 0.01 -0.29 0.01 z" class="primitive"/>
              </g>
              <g transform="translate(81.77,78.72)" id="img-d53342e4-100">
                <path d="M-0.29,-0 L 0.29 -0 0.29 0 -0.29 0 z" class="primitive"/>
              </g>
              <g transform="translate(82.29,78.72)" id="img-d53342e4-101">
                <path d="M-0.29,-0 L 0.29 -0 0.29 0 -0.29 0 z" class="primitive"/>
              </g>
              <g transform="translate(82.81,78.72)" id="img-d53342e4-102">
                <path d="M-0.29,-0 L 0.29 -0 0.29 0 -0.29 0 z" class="primitive"/>
              </g>
              <g transform="translate(83.33,78.72)" id="img-d53342e4-103">
                <path d="M-0.29,-0 L 0.29 -0 0.29 0 -0.29 0 z" class="primitive"/>
              </g>
              <g transform="translate(83.86,78.72)" id="img-d53342e4-104">
                <path d="M-0.29,-0 L 0.29 -0 0.29 0 -0.29 0 z" class="primitive"/>
              </g>
              <g transform="translate(84.38,78.72)" id="img-d53342e4-105">
                <path d="M-0.29,-0 L 0.29 -0 0.29 0 -0.29 0 z" class="primitive"/>
              </g>
              <g transform="translate(84.9,78.72)" id="img-d53342e4-106">
                <path d="M-0.29,-0 L 0.29 -0 0.29 0 -0.29 0 z" class="primitive"/>
              </g>
              <g transform="translate(85.42,78.72)" id="img-d53342e4-107">
                <path d="M-0.29,-0 L 0.29 -0 0.29 0 -0.29 0 z" class="primitive"/>
              </g>
              <g transform="translate(85.94,78.72)" id="img-d53342e4-108">
                <path d="M-0.29,-0 L 0.29 -0 0.29 0 -0.29 0 z" class="primitive"/>
              </g>
              <g transform="translate(86.47,78.72)" id="img-d53342e4-109">
                <path d="M-0.29,-0 L 0.29 -0 0.29 0 -0.29 0 z" class="primitive"/>
              </g>
              <g transform="translate(86.99,78.72)" id="img-d53342e4-110">
                <path d="M-0.29,-0 L 0.29 -0 0.29 0 -0.29 0 z" class="primitive"/>
              </g>
              <g transform="translate(87.51,78.72)" id="img-d53342e4-111">
                <path d="M-0.29,-0 L 0.29 -0 0.29 0 -0.29 0 z" class="primitive"/>
              </g>
              <g transform="translate(88.03,78.72)" id="img-d53342e4-112">
                <path d="M-0.29,-0 L 0.29 -0 0.29 0 -0.29 0 z" class="primitive"/>
              </g>
              <g transform="translate(88.56,78.72)" id="img-d53342e4-113">
                <path d="M-0.29,-0 L 0.29 -0 0.29 0 -0.29 0 z" class="primitive"/>
              </g>
              <g transform="translate(89.08,78.72)" id="img-d53342e4-114">
                <path d="M-0.29,-0 L 0.29 -0 0.29 0 -0.29 0 z" class="primitive"/>
              </g>
              <g transform="translate(89.6,78.72)" id="img-d53342e4-115">
                <path d="M-0.29,-0 L 0.29 -0 0.29 0 -0.29 0 z" class="primitive"/>
              </g>
              <g transform="translate(90.12,78.72)" id="img-d53342e4-116">
                <path d="M-0.29,-0 L 0.29 -0 0.29 0 -0.29 0 z" class="primitive"/>
              </g>
              <g transform="translate(90.65,78.72)" id="img-d53342e4-117">
                <path d="M-0.29,-0 L 0.29 -0 0.29 0 -0.29 0 z" class="primitive"/>
              </g>
              <g transform="translate(91.17,78.72)" id="img-d53342e4-118">
                <path d="M-0.29,-0 L 0.29 -0 0.29 0 -0.29 0 z" class="primitive"/>
              </g>
              <g transform="translate(91.69,78.72)" id="img-d53342e4-119">
                <path d="M-0.29,-0 L 0.29 -0 0.29 0 -0.29 0 z" class="primitive"/>
              </g>
              <g transform="translate(92.21,78.72)" id="img-d53342e4-120">
                <path d="M-0.29,-0 L 0.29 -0 0.29 0 -0.29 0 z" class="primitive"/>
              </g>
              <g transform="translate(92.74,78.72)" id="img-d53342e4-121">
                <path d="M-0.29,-0 L 0.29 -0 0.29 0 -0.29 0 z" class="primitive"/>
              </g>
              <g transform="translate(93.26,78.72)" id="img-d53342e4-122">
                <path d="M-0.29,-0 L 0.29 -0 0.29 0 -0.29 0 z" class="primitive"/>
              </g>
              <g transform="translate(93.78,78.72)" id="img-d53342e4-123">
                <path d="M-0.29,-0 L 0.29 -0 0.29 0 -0.29 0 z" class="primitive"/>
              </g>
              <g transform="translate(94.3,78.72)" id="img-d53342e4-124">
                <path d="M-0.29,-0 L 0.29 -0 0.29 0 -0.29 0 z" class="primitive"/>
              </g>
              <g transform="translate(94.82,78.72)" id="img-d53342e4-125">
                <path d="M-0.29,-0 L 0.29 -0 0.29 0 -0.29 0 z" class="primitive"/>
              </g>
              <g transform="translate(95.35,78.72)" id="img-d53342e4-126">
                <path d="M-0.29,-0 L 0.29 -0 0.29 0 -0.29 0 z" class="primitive"/>
              </g>
              <g transform="translate(95.87,78.72)" id="img-d53342e4-127">
                <path d="M-0.29,-0 L 0.29 -0 0.29 0 -0.29 0 z" class="primitive"/>
              </g>
              <g transform="translate(96.39,78.72)" id="img-d53342e4-128">
                <path d="M-0.29,-0 L 0.29 -0 0.29 0 -0.29 0 z" class="primitive"/>
              </g>
              <g transform="translate(96.91,78.72)" id="img-d53342e4-129">
                <path d="M-0.29,-0 L 0.29 -0 0.29 0 -0.29 0 z" class="primitive"/>
              </g>
              <g transform="translate(97.44,78.72)" id="img-d53342e4-130">
                <path d="M-0.29,-0 L 0.29 -0 0.29 0 -0.29 0 z" class="primitive"/>
              </g>
              <g transform="translate(97.96,78.72)" id="img-d53342e4-131">
                <path d="M-0.29,-0 L 0.29 -0 0.29 0 -0.29 0 z" class="primitive"/>
              </g>
              <g transform="translate(98.48,78.72)" id="img-d53342e4-132">
                <path d="M-0.29,-0 L 0.29 -0 0.29 0 -0.29 0 z" class="primitive"/>
              </g>
              <g transform="translate(99,78.72)" id="img-d53342e4-133">
                <path d="M-0.29,-0 L 0.29 -0 0.29 0 -0.29 0 z" class="primitive"/>
              </g>
              <g transform="translate(99.53,78.71)" id="img-d53342e4-134">
                <path d="M-0.29,-0.01 L 0.29 -0.01 0.29 0.01 -0.29 0.01 z" class="primitive"/>
              </g>
            </g>
            <g fill="#D4CA3A" id="img-d53342e4-135">
              <g transform="translate(47.81,39.09)" id="img-d53342e4-136">
                <path d="M-0.29,-20.9 L 0.29 -20.9 0.29 20.9 -0.29 20.9 z" class="primitive"/>
              </g>
              <g transform="translate(48.33,38.3)" id="img-d53342e4-137">
                <path d="M-0.29,-21.47 L 0.29 -21.47 0.29 21.47 -0.29 21.47 z" class="primitive"/>
              </g>
              <g transform="translate(48.86,37.86)" id="img-d53342e4-138">
                <path d="M-0.29,-22.23 L 0.29 -22.23 0.29 22.23 -0.29 22.23 z" class="primitive"/>
              </g>
              <g transform="translate(49.38,40.04)" id="img-d53342e4-139">
                <path d="M-0.29,-21.31 L 0.29 -21.31 0.29 21.31 -0.29 21.31 z" class="primitive"/>
              </g>
              <g transform="translate(49.9,40.89)" id="img-d53342e4-140">
                <path d="M-0.29,-20.76 L 0.29 -20.76 0.29 20.76 -0.29 20.76 z" class="primitive"/>
              </g>
              <g transform="translate(50.42,43.39)" id="img-d53342e4-141">
                <path d="M-0.29,-19.43 L 0.29 -19.43 0.29 19.43 -0.29 19.43 z" class="primitive"/>
              </g>
              <g transform="translate(50.95,45.98)" id="img-d53342e4-142">
                <path d="M-0.29,-17.73 L 0.29 -17.73 0.29 17.73 -0.29 17.73 z" class="primitive"/>
              </g>
              <g transform="translate(51.47,48.6)" id="img-d53342e4-143">
                <path d="M-0.29,-17.29 L 0.29 -17.29 0.29 17.29 -0.29 17.29 z" class="primitive"/>
              </g>
              <g transform="translate(51.99,53.01)" id="img-d53342e4-144">
                <path d="M-0.29,-15.05 L 0.29 -15.05 0.29 15.05 -0.29 15.05 z" class="primitive"/>
              </g>
              <g transform="translate(52.51,55.89)" id="img-d53342e4-145">
                <path d="M-0.29,-13.17 L 0.29 -13.17 0.29 13.17 -0.29 13.17 z" class="primitive"/>
              </g>
              <g transform="translate(53.04,58.33)" id="img-d53342e4-146">
                <path d="M-0.29,-11.66 L 0.29 -11.66 0.29 11.66 -0.29 11.66 z" class="primitive"/>
              </g>
              <g transform="translate(53.56,61.22)" id="img-d53342e4-147">
                <path d="M-0.29,-10.18 L 0.29 -10.18 0.29 10.18 -0.29 10.18 z" class="primitive"/>
              </g>
              <g transform="translate(54.08,64.07)" id="img-d53342e4-148">
                <path d="M-0.29,-8.53 L 0.29 -8.53 0.29 8.53 -0.29 8.53 z" class="primitive"/>
              </g>
              <g transform="translate(54.6,66.47)" id="img-d53342e4-149">
                <path d="M-0.29,-7.11 L 0.29 -7.11 0.29 7.11 -0.29 7.11 z" class="primitive"/>
              </g>
              <g transform="translate(55.12,68.36)" id="img-d53342e4-150">
                <path d="M-0.29,-6.19 L 0.29 -6.19 0.29 6.19 -0.29 6.19 z" class="primitive"/>
              </g>
              <g transform="translate(55.65,70.37)" id="img-d53342e4-151">
                <path d="M-0.29,-4.94 L 0.29 -4.94 0.29 4.94 -0.29 4.94 z" class="primitive"/>
              </g>
              <g transform="translate(56.17,71.23)" id="img-d53342e4-152">
                <path d="M-0.29,-4.43 L 0.29 -4.43 0.29 4.43 -0.29 4.43 z" class="primitive"/>
              </g>
              <g transform="translate(56.69,73)" id="img-d53342e4-153">
                <path d="M-0.29,-3.54 L 0.29 -3.54 0.29 3.54 -0.29 3.54 z" class="primitive"/>
              </g>
              <g transform="translate(57.21,73.92)" id="img-d53342e4-154">
                <path d="M-0.29,-2.77 L 0.29 -2.77 0.29 2.77 -0.29 2.77 z" class="primitive"/>
              </g>
              <g transform="translate(57.74,74.67)" id="img-d53342e4-155">
                <path d="M-0.29,-2.4 L 0.29 -2.4 0.29 2.4 -0.29 2.4 z" class="primitive"/>
              </g>
              <g transform="translate(58.26,75.54)" id="img-d53342e4-156">
                <path d="M-0.29,-1.76 L 0.29 -1.76 0.29 1.76 -0.29 1.76 z" class="primitive"/>
              </g>
              <g transform="translate(58.78,75.82)" id="img-d53342e4-157">
                <path d="M-0.29,-1.61 L 0.29 -1.61 0.29 1.61 -0.29 1.61 z" class="primitive"/>
              </g>
              <g transform="translate(59.3,76.28)" id="img-d53342e4-158">
                <path d="M-0.29,-1.4 L 0.29 -1.4 0.29 1.4 -0.29 1.4 z" class="primitive"/>
              </g>
              <g transform="translate(59.83,76.92)" id="img-d53342e4-159">
                <path d="M-0.29,-1.03 L 0.29 -1.03 0.29 1.03 -0.29 1.03 z" class="primitive"/>
              </g>
              <g transform="translate(60.35,77.21)" id="img-d53342e4-160">
                <path d="M-0.29,-0.88 L 0.29 -0.88 0.29 0.88 -0.29 0.88 z" class="primitive"/>
              </g>
              <g transform="translate(60.87,77.51)" id="img-d53342e4-161">
                <path d="M-0.29,-0.74 L 0.29 -0.74 0.29 0.74 -0.29 0.74 z" class="primitive"/>
              </g>
              <g transform="translate(61.39,77.62)" id="img-d53342e4-162">
                <path d="M-0.29,-0.66 L 0.29 -0.66 0.29 0.66 -0.29 0.66 z" class="primitive"/>
              </g>
              <g transform="translate(61.92,77.72)" id="img-d53342e4-163">
                <path d="M-0.29,-0.56 L 0.29 -0.56 0.29 0.56 -0.29 0.56 z" class="primitive"/>
              </g>
              <g transform="translate(62.44,77.96)" id="img-d53342e4-164">
                <path d="M-0.29,-0.46 L 0.29 -0.46 0.29 0.46 -0.29 0.46 z" class="primitive"/>
              </g>
              <g transform="translate(62.96,77.99)" id="img-d53342e4-165">
                <path d="M-0.29,-0.4 L 0.29 -0.4 0.29 0.4 -0.29 0.4 z" class="primitive"/>
              </g>
              <g transform="translate(63.48,78.17)" id="img-d53342e4-166">
                <path d="M-0.29,-0.33 L 0.29 -0.33 0.29 0.33 -0.29 0.33 z" class="primitive"/>
              </g>
              <g transform="translate(64,78.14)" id="img-d53342e4-167">
                <path d="M-0.29,-0.29 L 0.29 -0.29 0.29 0.29 -0.29 0.29 z" class="primitive"/>
              </g>
              <g transform="translate(64.53,78.28)" id="img-d53342e4-168">
                <path d="M-0.29,-0.27 L 0.29 -0.27 0.29 0.27 -0.29 0.27 z" class="primitive"/>
              </g>
              <g transform="translate(65.05,78.32)" id="img-d53342e4-169">
                <path d="M-0.29,-0.23 L 0.29 -0.23 0.29 0.23 -0.29 0.23 z" class="primitive"/>
              </g>
              <g transform="translate(65.57,78.29)" id="img-d53342e4-170">
                <path d="M-0.29,-0.21 L 0.29 -0.21 0.29 0.21 -0.29 0.21 z" class="primitive"/>
              </g>
              <g transform="translate(66.09,78.37)" id="img-d53342e4-171">
                <path d="M-0.29,-0.18 L 0.29 -0.18 0.29 0.18 -0.29 0.18 z" class="primitive"/>
              </g>
              <g transform="translate(66.62,78.37)" id="img-d53342e4-172">
                <path d="M-0.29,-0.14 L 0.29 -0.14 0.29 0.14 -0.29 0.14 z" class="primitive"/>
              </g>
              <g transform="translate(67.14,78.53)" id="img-d53342e4-173">
                <path d="M-0.29,-0.13 L 0.29 -0.13 0.29 0.13 -0.29 0.13 z" class="primitive"/>
              </g>
              <g transform="translate(67.66,78.49)" id="img-d53342e4-174">
                <path d="M-0.29,-0.12 L 0.29 -0.12 0.29 0.12 -0.29 0.12 z" class="primitive"/>
              </g>
              <g transform="translate(68.18,78.4)" id="img-d53342e4-175">
                <path d="M-0.29,-0.17 L 0.29 -0.17 0.29 0.17 -0.29 0.17 z" class="primitive"/>
              </g>
              <g transform="translate(68.71,78.61)" id="img-d53342e4-176">
                <path d="M-0.29,-0.08 L 0.29 -0.08 0.29 0.08 -0.29 0.08 z" class="primitive"/>
              </g>
              <g transform="translate(69.23,78.55)" id="img-d53342e4-177">
                <path d="M-0.29,-0.11 L 0.29 -0.11 0.29 0.11 -0.29 0.11 z" class="primitive"/>
              </g>
              <g transform="translate(69.75,78.54)" id="img-d53342e4-178">
                <path d="M-0.29,-0.05 L 0.29 -0.05 0.29 0.05 -0.29 0.05 z" class="primitive"/>
              </g>
              <g transform="translate(70.27,78.58)" id="img-d53342e4-179">
                <path d="M-0.29,-0.11 L 0.29 -0.11 0.29 0.11 -0.29 0.11 z" class="primitive"/>
              </g>
              <g transform="translate(70.8,78.62)" id="img-d53342e4-180">
                <path d="M-0.29,-0.07 L 0.29 -0.07 0.29 0.07 -0.29 0.07 z" class="primitive"/>
              </g>
              <g transform="translate(71.32,78.67)" id="img-d53342e4-181">
                <path d="M-0.29,-0.01 L 0.29 -0.01 0.29 0.01 -0.29 0.01 z" class="primitive"/>
              </g>
              <g transform="translate(71.84,78.61)" id="img-d53342e4-182">
                <path d="M-0.29,-0.06 L 0.29 -0.06 0.29 0.06 -0.29 0.06 z" class="primitive"/>
              </g>
              <g transform="translate(72.36,78.58)" id="img-d53342e4-183">
                <path d="M-0.29,-0.05 L 0.29 -0.05 0.29 0.05 -0.29 0.05 z" class="primitive"/>
              </g>
              <g transform="translate(72.89,78.64)" id="img-d53342e4-184">
                <path d="M-0.29,-0.02 L 0.29 -0.02 0.29 0.02 -0.29 0.02 z" class="primitive"/>
              </g>
              <g transform="translate(73.41,78.66)" id="img-d53342e4-185">
                <path d="M-0.29,-0.04 L 0.29 -0.04 0.29 0.04 -0.29 0.04 z" class="primitive"/>
              </g>
              <g transform="translate(73.93,78.67)" id="img-d53342e4-186">
                <path d="M-0.29,-0.05 L 0.29 -0.05 0.29 0.05 -0.29 0.05 z" class="primitive"/>
              </g>
              <g transform="translate(74.45,78.64)" id="img-d53342e4-187">
                <path d="M-0.29,-0.07 L 0.29 -0.07 0.29 0.07 -0.29 0.07 z" class="primitive"/>
              </g>
              <g transform="translate(74.97,78.67)" id="img-d53342e4-188">
                <path d="M-0.29,-0.01 L 0.29 -0.01 0.29 0.01 -0.29 0.01 z" class="primitive"/>
              </g>
              <g transform="translate(75.5,78.67)" id="img-d53342e4-189">
                <path d="M-0.29,-0.03 L 0.29 -0.03 0.29 0.03 -0.29 0.03 z" class="primitive"/>
              </g>
              <g transform="translate(76.02,78.69)" id="img-d53342e4-190">
                <path d="M-0.29,-0.03 L 0.29 -0.03 0.29 0.03 -0.29 0.03 z" class="primitive"/>
              </g>
              <g transform="translate(76.54,78.69)" id="img-d53342e4-191">
                <path d="M-0.29,-0.02 L 0.29 -0.02 0.29 0.02 -0.29 0.02 z" class="primitive"/>
              </g>
              <g transform="translate(77.06,78.67)" id="img-d53342e4-192">
                <path d="M-0.29,-0.01 L 0.29 -0.01 0.29 0.01 -0.29 0.01 z" class="primitive"/>
              </g>
              <g transform="translate(77.59,78.69)" id="img-d53342e4-193">
                <path d="M-0.29,-0.02 L 0.29 -0.02 0.29 0.02 -0.29 0.02 z" class="primitive"/>
              </g>
              <g transform="translate(78.11,78.7)" id="img-d53342e4-194">
                <path d="M-0.29,-0.01 L 0.29 -0.01 0.29 0.01 -0.29 0.01 z" class="primitive"/>
              </g>
              <g transform="translate(78.63,78.71)" id="img-d53342e4-195">
                <path d="M-0.29,-0 L 0.29 -0 0.29 0 -0.29 0 z" class="primitive"/>
              </g>
              <g transform="translate(79.15,78.7)" id="img-d53342e4-196">
                <path d="M-0.29,-0.01 L 0.29 -0.01 0.29 0.01 -0.29 0.01 z" class="primitive"/>
              </g>
              <g transform="translate(79.68,78.7)" id="img-d53342e4-197">
                <path d="M-0.29,-0.01 L 0.29 -0.01 0.29 0.01 -0.29 0.01 z" class="primitive"/>
              </g>
              <g transform="translate(80.2,78.7)" id="img-d53342e4-198">
                <path d="M-0.29,-0.01 L 0.29 -0.01 0.29 0.01 -0.29 0.01 z" class="primitive"/>
              </g>
              <g transform="translate(80.72,78.71)" id="img-d53342e4-199">
                <path d="M-0.29,-0.01 L 0.29 -0.01 0.29 0.01 -0.29 0.01 z" class="primitive"/>
              </g>
              <g transform="translate(81.24,78.69)" id="img-d53342e4-200">
                <path d="M-0.29,-0.01 L 0.29 -0.01 0.29 0.01 -0.29 0.01 z" class="primitive"/>
              </g>
              <g transform="translate(81.77,78.71)" id="img-d53342e4-201">
                <path d="M-0.29,-0.01 L 0.29 -0.01 0.29 0.01 -0.29 0.01 z" class="primitive"/>
              </g>
              <g transform="translate(82.29,78.71)" id="img-d53342e4-202">
                <path d="M-0.29,-0.01 L 0.29 -0.01 0.29 0.01 -0.29 0.01 z" class="primitive"/>
              </g>
              <g transform="translate(82.81,78.72)" id="img-d53342e4-203">
                <path d="M-0.29,-0 L 0.29 -0 0.29 0 -0.29 0 z" class="primitive"/>
              </g>
              <g transform="translate(83.33,78.72)" id="img-d53342e4-204">
                <path d="M-0.29,-0 L 0.29 -0 0.29 0 -0.29 0 z" class="primitive"/>
              </g>
              <g transform="translate(83.86,78.72)" id="img-d53342e4-205">
                <path d="M-0.29,-0 L 0.29 -0 0.29 0 -0.29 0 z" class="primitive"/>
              </g>
              <g transform="translate(84.38,78.71)" id="img-d53342e4-206">
                <path d="M-0.29,-0.01 L 0.29 -0.01 0.29 0.01 -0.29 0.01 z" class="primitive"/>
              </g>
              <g transform="translate(84.9,78.72)" id="img-d53342e4-207">
                <path d="M-0.29,-0 L 0.29 -0 0.29 0 -0.29 0 z" class="primitive"/>
              </g>
              <g transform="translate(85.42,78.72)" id="img-d53342e4-208">
                <path d="M-0.29,-0 L 0.29 -0 0.29 0 -0.29 0 z" class="primitive"/>
              </g>
              <g transform="translate(85.94,78.71)" id="img-d53342e4-209">
                <path d="M-0.29,-0.01 L 0.29 -0.01 0.29 0.01 -0.29 0.01 z" class="primitive"/>
              </g>
              <g transform="translate(86.47,78.71)" id="img-d53342e4-210">
                <path d="M-0.29,-0.01 L 0.29 -0.01 0.29 0.01 -0.29 0.01 z" class="primitive"/>
              </g>
              <g transform="translate(86.99,78.72)" id="img-d53342e4-211">
                <path d="M-0.29,-0 L 0.29 -0 0.29 0 -0.29 0 z" class="primitive"/>
              </g>
              <g transform="translate(87.51,78.71)" id="img-d53342e4-212">
                <path d="M-0.29,-0.01 L 0.29 -0.01 0.29 0.01 -0.29 0.01 z" class="primitive"/>
              </g>
              <g transform="translate(88.03,78.71)" id="img-d53342e4-213">
                <path d="M-0.29,-0.01 L 0.29 -0.01 0.29 0.01 -0.29 0.01 z" class="primitive"/>
              </g>
              <g transform="translate(88.56,78.72)" id="img-d53342e4-214">
                <path d="M-0.29,-0 L 0.29 -0 0.29 0 -0.29 0 z" class="primitive"/>
              </g>
              <g transform="translate(89.08,78.72)" id="img-d53342e4-215">
                <path d="M-0.29,-0 L 0.29 -0 0.29 0 -0.29 0 z" class="primitive"/>
              </g>
              <g transform="translate(89.6,78.72)" id="img-d53342e4-216">
                <path d="M-0.29,-0 L 0.29 -0 0.29 0 -0.29 0 z" class="primitive"/>
              </g>
              <g transform="translate(90.12,78.72)" id="img-d53342e4-217">
                <path d="M-0.29,-0 L 0.29 -0 0.29 0 -0.29 0 z" class="primitive"/>
              </g>
              <g transform="translate(90.65,78.72)" id="img-d53342e4-218">
                <path d="M-0.29,-0 L 0.29 -0 0.29 0 -0.29 0 z" class="primitive"/>
              </g>
              <g transform="translate(91.17,78.71)" id="img-d53342e4-219">
                <path d="M-0.29,-0.01 L 0.29 -0.01 0.29 0.01 -0.29 0.01 z" class="primitive"/>
              </g>
              <g transform="translate(91.69,78.72)" id="img-d53342e4-220">
                <path d="M-0.29,-0 L 0.29 -0 0.29 0 -0.29 0 z" class="primitive"/>
              </g>
              <g transform="translate(92.21,78.72)" id="img-d53342e4-221">
                <path d="M-0.29,-0 L 0.29 -0 0.29 0 -0.29 0 z" class="primitive"/>
              </g>
              <g transform="translate(92.74,78.7)" id="img-d53342e4-222">
                <path d="M-0.29,-0.01 L 0.29 -0.01 0.29 0.01 -0.29 0.01 z" class="primitive"/>
              </g>
              <g transform="translate(93.26,78.71)" id="img-d53342e4-223">
                <path d="M-0.29,-0.01 L 0.29 -0.01 0.29 0.01 -0.29 0.01 z" class="primitive"/>
              </g>
              <g transform="translate(93.78,78.72)" id="img-d53342e4-224">
                <path d="M-0.29,-0 L 0.29 -0 0.29 0 -0.29 0 z" class="primitive"/>
              </g>
              <g transform="translate(94.3,78.72)" id="img-d53342e4-225">
                <path d="M-0.29,-0 L 0.29 -0 0.29 0 -0.29 0 z" class="primitive"/>
              </g>
              <g transform="translate(94.82,78.72)" id="img-d53342e4-226">
                <path d="M-0.29,-0 L 0.29 -0 0.29 0 -0.29 0 z" class="primitive"/>
              </g>
              <g transform="translate(95.35,78.72)" id="img-d53342e4-227">
                <path d="M-0.29,-0 L 0.29 -0 0.29 0 -0.29 0 z" class="primitive"/>
              </g>
              <g transform="translate(95.87,78.71)" id="img-d53342e4-228">
                <path d="M-0.29,-0.01 L 0.29 -0.01 0.29 0.01 -0.29 0.01 z" class="primitive"/>
              </g>
              <g transform="translate(96.39,78.72)" id="img-d53342e4-229">
                <path d="M-0.29,-0 L 0.29 -0 0.29 0 -0.29 0 z" class="primitive"/>
              </g>
              <g transform="translate(96.91,78.72)" id="img-d53342e4-230">
                <path d="M-0.29,-0 L 0.29 -0 0.29 0 -0.29 0 z" class="primitive"/>
              </g>
              <g transform="translate(97.44,78.72)" id="img-d53342e4-231">
                <path d="M-0.29,-0 L 0.29 -0 0.29 0 -0.29 0 z" class="primitive"/>
              </g>
              <g transform="translate(97.96,78.71)" id="img-d53342e4-232">
                <path d="M-0.29,-0.01 L 0.29 -0.01 0.29 0.01 -0.29 0.01 z" class="primitive"/>
              </g>
              <g transform="translate(98.48,78.72)" id="img-d53342e4-233">
                <path d="M-0.29,-0 L 0.29 -0 0.29 0 -0.29 0 z" class="primitive"/>
              </g>
              <g transform="translate(99,78.72)" id="img-d53342e4-234">
                <path d="M-0.29,-0 L 0.29 -0 0.29 0 -0.29 0 z" class="primitive"/>
              </g>
              <g transform="translate(99.53,78.71)" id="img-d53342e4-235">
                <path d="M-0.29,-0 L 0.29 -0 0.29 0 -0.29 0 z" class="primitive"/>
              </g>
            </g>
          </g>
        </g>
      </g>
    </g>
  </g>
  <g class="guide ylabels" font-size="2.82" font-family="'PT Sans Caption','Helvetica Neue','Helvetica',sans-serif" fill="#6C606B" id="img-d53342e4-236">
    <g transform="translate(25.72,78.72)" id="img-d53342e4-237">
      <g class="primitive">
        <text text-anchor="end" dy="0.35em">0</text>
      </g>
    </g>
    <g transform="translate(25.72,66.76)" id="img-d53342e4-238">
      <g class="primitive">
        <text text-anchor="end" dy="0.35em">1.0×10³</text>
      </g>
    </g>
    <g transform="translate(25.72,54.81)" id="img-d53342e4-239">
      <g class="primitive">
        <text text-anchor="end" dy="0.35em">2.0×10³</text>
      </g>
    </g>
    <g transform="translate(25.72,42.86)" id="img-d53342e4-240">
      <g class="primitive">
        <text text-anchor="end" dy="0.35em">3.0×10³</text>
      </g>
    </g>
    <g transform="translate(25.72,30.91)" id="img-d53342e4-241">
      <g class="primitive">
        <text text-anchor="end" dy="0.35em">4.0×10³</text>
      </g>
    </g>
    <g transform="translate(25.72,18.95)" id="img-d53342e4-242">
      <g class="primitive">
        <text text-anchor="end" dy="0.35em">5.0×10³</text>
      </g>
    </g>
    <g transform="translate(25.72,7)" id="img-d53342e4-243">
      <g class="primitive">
        <text text-anchor="end" dy="0.35em">6.0×10³</text>
      </g>
    </g>
  </g>
  <g font-size="3.88" font-family="'PT Sans','Helvetica Neue','Helvetica',sans-serif" fill="#564A55" stroke="#000000" stroke-opacity="0.000" id="img-d53342e4-244">
    <g transform="translate(8.81,40.86)" id="img-d53342e4-245">
      <g class="primitive">
        <text text-anchor="middle" dy="0.35em" transform="rotate(-90,0, 2)">frequency</text>
      </g>
    </g>
  </g>
</g>
<defs>
  <clipPath id="img-d53342e4-13">
    <path d="M26.72,5 L 111.8 5 111.8 80.72 26.72 80.72" />
  </clipPath>
</defs>
</svg>
