<?xml version="1.0" encoding="UTF-8"?>
<svg xmlns="http://www.w3.org/2000/svg"
     xmlns:xlink="http://www.w3.org/1999/xlink"
     xmlns:gadfly="http://www.gadflyjl.org/ns"
     version="1.2"
     width="141.42mm" height="100mm" viewBox="0 0 141.42 100"
     stroke="none"
     fill="#000000"
     stroke-width="0.3"
     font-size="3.88"
>
<defs>
  <marker id="arrow" markerWidth="15" markerHeight="7" refX="5" refY="3.5" orient="auto" markerUnits="strokeWidth">
    <path d="M0,0 L15,3.5 L0,7 z" stroke="context-stroke" fill="context-stroke"/>
  </marker>
</defs>
<g class="plotroot xscalable yscalable" id="img-81f944a9-1">
  <g font-size="3.88" font-family="'PT Sans','Helvetica Neue','Helvetica',sans-serif" fill="#564A55" stroke="#000000" stroke-opacity="0.000" id="img-81f944a9-2">
    <g transform="translate(73.38,88.39)">
      <g class="primitive">
        <text text-anchor="middle" dy="0.6em">degree</text>
      </g>
    </g>
  </g>
  <g class="guide xlabels" font-size="2.82" font-family="'PT Sans Caption','Helvetica Neue','Helvetica',sans-serif" fill="#6C606B" id="img-81f944a9-3">
    <g transform="translate(12.35,81.72)">
      <g class="primitive">
        <text text-anchor="middle" dy="0.6em">0</text>
      </g>
    </g>
    <g transform="translate(36.76,81.72)">
      <g class="primitive">
        <text text-anchor="middle" dy="0.6em">50</text>
      </g>
    </g>
    <g transform="translate(61.18,81.72)">
      <g class="primitive">
        <text text-anchor="middle" dy="0.6em">100</text>
      </g>
    </g>
    <g transform="translate(85.59,81.72)">
      <g class="primitive">
        <text text-anchor="middle" dy="0.6em">150</text>
      </g>
    </g>
    <g transform="translate(110.01,81.72)">
      <g class="primitive">
        <text text-anchor="middle" dy="0.6em">200</text>
      </g>
    </g>
    <g transform="translate(134.42,81.72)">
      <g class="primitive">
        <text text-anchor="middle" dy="0.6em">250</text>
      </g>
    </g>
  </g>
  <g clip-path="url(#img-81f944a9-4)">
    <g id="img-81f944a9-5">
      <g pointer-events="visible" stroke-width="0.3" fill="#000000" fill-opacity="0.000" stroke="#000000" stroke-opacity="0.000" class="guide background" id="img-81f944a9-6">
        <g transform="translate(73.38,45.66)" id="img-81f944a9-7">
          <path d="M-63.04,-35.05 L 63.04 -35.05 63.04 35.05 -63.04 35.05 z" class="primitive"/>
        </g>
      </g>
      <g class="guide ygridlines xfixed" stroke-dasharray="0.5,0.5" stroke-width="0.2" stroke="#D0D0E0" id="img-81f944a9-8">
        <g transform="translate(73.38,78.72)" id="img-81f944a9-9">
          <path fill="none" d="M-63.04,0 L 63.04 0" class="primitive"/>
        </g>
        <g transform="translate(73.38,62.19)" id="img-81f944a9-10">
          <path fill="none" d="M-63.04,0 L 63.04 0" class="primitive"/>
        </g>
        <g transform="translate(73.38,45.66)" id="img-81f944a9-11">
          <path fill="none" d="M-63.04,0 L 63.04 0" class="primitive"/>
        </g>
        <g transform="translate(73.38,29.14)" id="img-81f944a9-12">
          <path fill="none" d="M-63.04,0 L 63.04 0" class="primitive"/>
        </g>
        <g transform="translate(73.38,12.61)" id="img-81f944a9-13">
          <path fill="none" d="M-63.04,0 L 63.04 0" class="primitive"/>
        </g>
      </g>
      <g class="guide xgridlines yfixed" stroke-dasharray="0.5,0.5" stroke-width="0.2" stroke="#D0D0E0" id="img-81f944a9-14">
        <g transform="translate(12.35,45.66)" id="img-81f944a9-15">
          <path fill="none" d="M0,-35.05 L 0 35.05" class="primitive"/>
        </g>
        <g transform="translate(36.76,45.66)" id="img-81f944a9-16">
          <path fill="none" d="M0,-35.05 L 0 35.05" class="primitive"/>
        </g>
        <g transform="translate(61.18,45.66)" id="img-81f944a9-17">
          <path fill="none" d="M0,-35.05 L 0 35.05" class="primitive"/>
        </g>
        <g transform="translate(85.59,45.66)" id="img-81f944a9-18">
          <path fill="none" d="M0,-35.05 L 0 35.05" class="primitive"/>
        </g>
        <g transform="translate(110.01,45.66)" id="img-81f944a9-19">
          <path fill="none" d="M0,-35.05 L 0 35.05" class="primitive"/>
        </g>
        <g transform="translate(134.42,45.66)" id="img-81f944a9-20">
          <path fill="none" d="M0,-35.05 L 0 35.05" class="primitive"/>
        </g>
      </g>
      <g class="plotpanel" id="img-81f944a9-21">
        <metadata>
          <boundingbox value="10.346666666666664mm 10.611666666666665mm 126.07468957064285mm 70.10333333333334mm"/>
          <unitbox value="-4.095853135146883 82.42045282638294 258.19170627029376 -84.84090565276587"/>
        </metadata>
        <g shape-rendering="crispEdges" stroke-width="0.3" id="img-81f944a9-22">
          <g class="geometry" fill-opacity="1" stroke="#000000" stroke-opacity="0.000" fill="#00BFFF" id="img-81f944a9-23">
            <g transform="translate(13.18,74.17)" id="img-81f944a9-24">
              <path d="M-0.37,-4.54 L 0.37 -4.54 0.37 4.54 -0.37 4.54 z" class="primitive"/>
            </g>
            <g transform="translate(13.86,75.82)" id="img-81f944a9-25">
              <path d="M-0.37,-2.89 L 0.37 -2.89 0.37 2.89 -0.37 2.89 z" class="primitive"/>
            </g>
            <g transform="translate(14.55,71.28)" id="img-81f944a9-26">
              <path d="M-0.37,-7.44 L 0.37 -7.44 0.37 7.44 -0.37 7.44 z" class="primitive"/>
            </g>
            <g transform="translate(15.23,72.52)" id="img-81f944a9-27">
              <path d="M-0.37,-6.2 L 0.37 -6.2 0.37 6.2 -0.37 6.2 z" class="primitive"/>
            </g>
            <g transform="translate(15.92,70.04)" id="img-81f944a9-28">
              <path d="M-0.37,-8.68 L 0.37 -8.68 0.37 8.68 -0.37 8.68 z" class="primitive"/>
            </g>
            <g transform="translate(16.6,74.17)" id="img-81f944a9-29">
              <path d="M-0.37,-4.54 L 0.37 -4.54 0.37 4.54 -0.37 4.54 z" class="primitive"/>
            </g>
            <g transform="translate(17.29,73.76)" id="img-81f944a9-30">
              <path d="M-0.37,-4.96 L 0.37 -4.96 0.37 4.96 -0.37 4.96 z" class="primitive"/>
            </g>
            <g transform="translate(17.97,72.1)" id="img-81f944a9-31">
              <path d="M-0.37,-6.61 L 0.37 -6.61 0.37 6.61 -0.37 6.61 z" class="primitive"/>
            </g>
            <g transform="translate(18.66,73.76)" id="img-81f944a9-32">
              <path d="M-0.37,-4.96 L 0.37 -4.96 0.37 4.96 -0.37 4.96 z" class="primitive"/>
            </g>
            <g transform="translate(19.34,66.32)" id="img-81f944a9-33">
              <path d="M-0.37,-12.39 L 0.37 -12.39 0.37 12.39 -0.37 12.39 z" class="primitive"/>
            </g>
            <g transform="translate(20.03,74.17)" id="img-81f944a9-34">
              <path d="M-0.37,-4.54 L 0.37 -4.54 0.37 4.54 -0.37 4.54 z" class="primitive"/>
            </g>
            <g transform="translate(20.71,73.34)" id="img-81f944a9-35">
              <path d="M-0.37,-5.37 L 0.37 -5.37 0.37 5.37 -0.37 5.37 z" class="primitive"/>
            </g>
            <g transform="translate(21.4,65.49)" id="img-81f944a9-36">
              <path d="M-0.37,-13.22 L 0.37 -13.22 0.37 13.22 -0.37 13.22 z" class="primitive"/>
            </g>
            <g transform="translate(22.08,71.69)" id="img-81f944a9-37">
              <path d="M-0.37,-7.02 L 0.37 -7.02 0.37 7.02 -0.37 7.02 z" class="primitive"/>
            </g>
            <g transform="translate(22.77,65.91)" id="img-81f944a9-38">
              <path d="M-0.37,-12.81 L 0.37 -12.81 0.37 12.81 -0.37 12.81 z" class="primitive"/>
            </g>
            <g transform="translate(23.45,74.17)" id="img-81f944a9-39">
              <path d="M-0.37,-4.54 L 0.37 -4.54 0.37 4.54 -0.37 4.54 z" class="primitive"/>
            </g>
            <g transform="translate(24.14,72.52)" id="img-81f944a9-40">
              <path d="M-0.37,-6.2 L 0.37 -6.2 0.37 6.2 -0.37 6.2 z" class="primitive"/>
            </g>
            <g transform="translate(24.82,64.67)" id="img-81f944a9-41">
              <path d="M-0.37,-14.05 L 0.37 -14.05 0.37 14.05 -0.37 14.05 z" class="primitive"/>
            </g>
            <g transform="translate(25.51,72.52)" id="img-81f944a9-42">
              <path d="M-0.37,-6.2 L 0.37 -6.2 0.37 6.2 -0.37 6.2 z" class="primitive"/>
            </g>
            <g transform="translate(26.19,64.25)" id="img-81f944a9-43">
              <path d="M-0.37,-14.46 L 0.37 -14.46 0.37 14.46 -0.37 14.46 z" class="primitive"/>
            </g>
            <g transform="translate(26.88,72.52)" id="img-81f944a9-44">
              <path d="M-0.37,-6.2 L 0.37 -6.2 0.37 6.2 -0.37 6.2 z" class="primitive"/>
            </g>
            <g transform="translate(27.56,70.45)" id="img-81f944a9-45">
              <path d="M-0.37,-8.26 L 0.37 -8.26 0.37 8.26 -0.37 8.26 z" class="primitive"/>
            </g>
            <g transform="translate(28.25,58.47)" id="img-81f944a9-46">
              <path d="M-0.37,-20.24 L 0.37 -20.24 0.37 20.24 -0.37 20.24 z" class="primitive"/>
            </g>
            <g transform="translate(28.93,70.04)" id="img-81f944a9-47">
              <path d="M-0.37,-8.68 L 0.37 -8.68 0.37 8.68 -0.37 8.68 z" class="primitive"/>
            </g>
            <g transform="translate(29.62,58.06)" id="img-81f944a9-48">
              <path d="M-0.37,-20.66 L 0.37 -20.66 0.37 20.66 -0.37 20.66 z" class="primitive"/>
            </g>
            <g transform="translate(30.3,68.8)" id="img-81f944a9-49">
              <path d="M-0.37,-9.92 L 0.37 -9.92 0.37 9.92 -0.37 9.92 z" class="primitive"/>
            </g>
            <g transform="translate(30.99,70.04)" id="img-81f944a9-50">
              <path d="M-0.37,-8.68 L 0.37 -8.68 0.37 8.68 -0.37 8.68 z" class="primitive"/>
            </g>
            <g transform="translate(31.67,63.84)" id="img-81f944a9-51">
              <path d="M-0.37,-14.87 L 0.37 -14.87 0.37 14.87 -0.37 14.87 z" class="primitive"/>
            </g>
            <g transform="translate(32.36,68.8)" id="img-81f944a9-52">
              <path d="M-0.37,-9.92 L 0.37 -9.92 0.37 9.92 -0.37 9.92 z" class="primitive"/>
            </g>
            <g transform="translate(33.04,67.56)" id="img-81f944a9-53">
              <path d="M-0.37,-11.15 L 0.37 -11.15 0.37 11.15 -0.37 11.15 z" class="primitive"/>
            </g>
            <g transform="translate(33.73,65.49)" id="img-81f944a9-54">
              <path d="M-0.37,-13.22 L 0.37 -13.22 0.37 13.22 -0.37 13.22 z" class="primitive"/>
            </g>
            <g transform="translate(34.41,70.45)" id="img-81f944a9-55">
              <path d="M-0.37,-8.26 L 0.37 -8.26 0.37 8.26 -0.37 8.26 z" class="primitive"/>
            </g>
            <g transform="translate(35.1,49.79)" id="img-81f944a9-56">
              <path d="M-0.37,-28.92 L 0.37 -28.92 0.37 28.92 -0.37 28.92 z" class="primitive"/>
            </g>
            <g transform="translate(35.78,78.72)" id="img-81f944a9-57">
              <path d="M-0.37,-0 L 0.37 -0 0.37 0 -0.37 0 z" class="primitive"/>
            </g>
            <g transform="translate(36.47,78.72)" id="img-81f944a9-58">
              <path d="M-0.37,-0 L 0.37 -0 0.37 0 -0.37 0 z" class="primitive"/>
            </g>
            <g transform="translate(37.15,78.72)" id="img-81f944a9-59">
              <path d="M-0.37,-0 L 0.37 -0 0.37 0 -0.37 0 z" class="primitive"/>
            </g>
            <g transform="translate(37.83,78.72)" id="img-81f944a9-60">
              <path d="M-0.37,-0 L 0.37 -0 0.37 0 -0.37 0 z" class="primitive"/>
            </g>
            <g transform="translate(38.52,78.72)" id="img-81f944a9-61">
              <path d="M-0.37,-0 L 0.37 -0 0.37 0 -0.37 0 z" class="primitive"/>
            </g>
            <g transform="translate(39.2,78.72)" id="img-81f944a9-62">
              <path d="M-0.37,-0 L 0.37 -0 0.37 0 -0.37 0 z" class="primitive"/>
            </g>
            <g transform="translate(39.89,78.72)" id="img-81f944a9-63">
              <path d="M-0.37,-0 L 0.37 -0 0.37 0 -0.37 0 z" class="primitive"/>
            </g>
            <g transform="translate(40.57,78.72)" id="img-81f944a9-64">
              <path d="M-0.37,-0 L 0.37 -0 0.37 0 -0.37 0 z" class="primitive"/>
            </g>
            <g transform="translate(41.26,78.72)" id="img-81f944a9-65">
              <path d="M-0.37,-0 L 0.37 -0 0.37 0 -0.37 0 z" class="primitive"/>
            </g>
            <g transform="translate(41.94,78.72)" id="img-81f944a9-66">
              <path d="M-0.37,-0 L 0.37 -0 0.37 0 -0.37 0 z" class="primitive"/>
            </g>
            <g transform="translate(42.63,78.72)" id="img-81f944a9-67">
              <path d="M-0.37,-0 L 0.37 -0 0.37 0 -0.37 0 z" class="primitive"/>
            </g>
            <g transform="translate(43.31,78.72)" id="img-81f944a9-68">
              <path d="M-0.37,-0 L 0.37 -0 0.37 0 -0.37 0 z" class="primitive"/>
            </g>
            <g transform="translate(44,78.72)" id="img-81f944a9-69">
              <path d="M-0.37,-0 L 0.37 -0 0.37 0 -0.37 0 z" class="primitive"/>
            </g>
            <g transform="translate(44.68,78.72)" id="img-81f944a9-70">
              <path d="M-0.37,-0 L 0.37 -0 0.37 0 -0.37 0 z" class="primitive"/>
            </g>
            <g transform="translate(45.37,78.72)" id="img-81f944a9-71">
              <path d="M-0.37,-0 L 0.37 -0 0.37 0 -0.37 0 z" class="primitive"/>
            </g>
            <g transform="translate(46.05,78.72)" id="img-81f944a9-72">
              <path d="M-0.37,-0 L 0.37 -0 0.37 0 -0.37 0 z" class="primitive"/>
            </g>
            <g transform="translate(46.74,78.72)" id="img-81f944a9-73">
              <path d="M-0.37,-0 L 0.37 -0 0.37 0 -0.37 0 z" class="primitive"/>
            </g>
            <g transform="translate(47.42,78.72)" id="img-81f944a9-74">
              <path d="M-0.37,-0 L 0.37 -0 0.37 0 -0.37 0 z" class="primitive"/>
            </g>
            <g transform="translate(48.11,78.72)" id="img-81f944a9-75">
              <path d="M-0.37,-0 L 0.37 -0 0.37 0 -0.37 0 z" class="primitive"/>
            </g>
            <g transform="translate(48.79,78.72)" id="img-81f944a9-76">
              <path d="M-0.37,-0 L 0.37 -0 0.37 0 -0.37 0 z" class="primitive"/>
            </g>
            <g transform="translate(49.48,78.72)" id="img-81f944a9-77">
              <path d="M-0.37,-0 L 0.37 -0 0.37 0 -0.37 0 z" class="primitive"/>
            </g>
            <g transform="translate(50.16,78.72)" id="img-81f944a9-78">
              <path d="M-0.37,-0 L 0.37 -0 0.37 0 -0.37 0 z" class="primitive"/>
            </g>
            <g transform="translate(50.85,78.72)" id="img-81f944a9-79">
              <path d="M-0.37,-0 L 0.37 -0 0.37 0 -0.37 0 z" class="primitive"/>
            </g>
            <g transform="translate(51.53,78.72)" id="img-81f944a9-80">
              <path d="M-0.37,-0 L 0.37 -0 0.37 0 -0.37 0 z" class="primitive"/>
            </g>
            <g transform="translate(52.22,78.72)" id="img-81f944a9-81">
              <path d="M-0.37,-0 L 0.37 -0 0.37 0 -0.37 0 z" class="primitive"/>
            </g>
            <g transform="translate(52.9,78.72)" id="img-81f944a9-82">
              <path d="M-0.37,-0 L 0.37 -0 0.37 0 -0.37 0 z" class="primitive"/>
            </g>
            <g transform="translate(53.59,78.72)" id="img-81f944a9-83">
              <path d="M-0.37,-0 L 0.37 -0 0.37 0 -0.37 0 z" class="primitive"/>
            </g>
            <g transform="translate(54.27,78.72)" id="img-81f944a9-84">
              <path d="M-0.37,-0 L 0.37 -0 0.37 0 -0.37 0 z" class="primitive"/>
            </g>
            <g transform="translate(54.96,78.72)" id="img-81f944a9-85">
              <path d="M-0.37,-0 L 0.37 -0 0.37 0 -0.37 0 z" class="primitive"/>
            </g>
            <g transform="translate(55.64,78.72)" id="img-81f944a9-86">
              <path d="M-0.37,-0 L 0.37 -0 0.37 0 -0.37 0 z" class="primitive"/>
            </g>
            <g transform="translate(56.33,78.72)" id="img-81f944a9-87">
              <path d="M-0.37,-0 L 0.37 -0 0.37 0 -0.37 0 z" class="primitive"/>
            </g>
            <g transform="translate(57.01,78.72)" id="img-81f944a9-88">
              <path d="M-0.37,-0 L 0.37 -0 0.37 0 -0.37 0 z" class="primitive"/>
            </g>
            <g transform="translate(57.7,78.72)" id="img-81f944a9-89">
              <path d="M-0.37,-0 L 0.37 -0 0.37 0 -0.37 0 z" class="primitive"/>
            </g>
            <g transform="translate(58.38,78.72)" id="img-81f944a9-90">
              <path d="M-0.37,-0 L 0.37 -0 0.37 0 -0.37 0 z" class="primitive"/>
            </g>
            <g transform="translate(59.07,78.72)" id="img-81f944a9-91">
              <path d="M-0.37,-0 L 0.37 -0 0.37 0 -0.37 0 z" class="primitive"/>
            </g>
            <g transform="translate(59.75,78.72)" id="img-81f944a9-92">
              <path d="M-0.37,-0 L 0.37 -0 0.37 0 -0.37 0 z" class="primitive"/>
            </g>
            <g transform="translate(60.44,78.72)" id="img-81f944a9-93">
              <path d="M-0.37,-0 L 0.37 -0 0.37 0 -0.37 0 z" class="primitive"/>
            </g>
            <g transform="translate(61.12,78.72)" id="img-81f944a9-94">
              <path d="M-0.37,-0 L 0.37 -0 0.37 0 -0.37 0 z" class="primitive"/>
            </g>
            <g transform="translate(61.81,78.72)" id="img-81f944a9-95">
              <path d="M-0.37,-0 L 0.37 -0 0.37 0 -0.37 0 z" class="primitive"/>
            </g>
            <g transform="translate(62.49,78.72)" id="img-81f944a9-96">
              <path d="M-0.37,-0 L 0.37 -0 0.37 0 -0.37 0 z" class="primitive"/>
            </g>
            <g transform="translate(63.18,78.72)" id="img-81f944a9-97">
              <path d="M-0.37,-0 L 0.37 -0 0.37 0 -0.37 0 z" class="primitive"/>
            </g>
            <g transform="translate(63.86,78.72)" id="img-81f944a9-98">
              <path d="M-0.37,-0 L 0.37 -0 0.37 0 -0.37 0 z" class="primitive"/>
            </g>
            <g transform="translate(64.55,78.72)" id="img-81f944a9-99">
              <path d="M-0.37,-0 L 0.37 -0 0.37 0 -0.37 0 z" class="primitive"/>
            </g>
            <g transform="translate(65.23,78.72)" id="img-81f944a9-100">
              <path d="M-0.37,-0 L 0.37 -0 0.37 0 -0.37 0 z" class="primitive"/>
            </g>
            <g transform="translate(65.92,78.72)" id="img-81f944a9-101">
              <path d="M-0.37,-0 L 0.37 -0 0.37 0 -0.37 0 z" class="primitive"/>
            </g>
            <g transform="translate(66.6,78.72)" id="img-81f944a9-102">
              <path d="M-0.37,-0 L 0.37 -0 0.37 0 -0.37 0 z" class="primitive"/>
            </g>
            <g transform="translate(67.29,78.72)" id="img-81f944a9-103">
              <path d="M-0.37,-0 L 0.37 -0 0.37 0 -0.37 0 z" class="primitive"/>
            </g>
            <g transform="translate(67.97,78.72)" id="img-81f944a9-104">
              <path d="M-0.37,-0 L 0.37 -0 0.37 0 -0.37 0 z" class="primitive"/>
            </g>
            <g transform="translate(68.66,78.72)" id="img-81f944a9-105">
              <path d="M-0.37,-0 L 0.37 -0 0.37 0 -0.37 0 z" class="primitive"/>
            </g>
            <g transform="translate(69.34,78.72)" id="img-81f944a9-106">
              <path d="M-0.37,-0 L 0.37 -0 0.37 0 -0.37 0 z" class="primitive"/>
            </g>
            <g transform="translate(70.03,78.72)" id="img-81f944a9-107">
              <path d="M-0.37,-0 L 0.37 -0 0.37 0 -0.37 0 z" class="primitive"/>
            </g>
            <g transform="translate(70.71,78.72)" id="img-81f944a9-108">
              <path d="M-0.37,-0 L 0.37 -0 0.37 0 -0.37 0 z" class="primitive"/>
            </g>
            <g transform="translate(71.4,78.72)" id="img-81f944a9-109">
              <path d="M-0.37,-0 L 0.37 -0 0.37 0 -0.37 0 z" class="primitive"/>
            </g>
            <g transform="translate(72.08,78.72)" id="img-81f944a9-110">
              <path d="M-0.37,-0 L 0.37 -0 0.37 0 -0.37 0 z" class="primitive"/>
            </g>
            <g transform="translate(72.77,78.72)" id="img-81f944a9-111">
              <path d="M-0.37,-0 L 0.37 -0 0.37 0 -0.37 0 z" class="primitive"/>
            </g>
            <g transform="translate(73.45,78.72)" id="img-81f944a9-112">
              <path d="M-0.37,-0 L 0.37 -0 0.37 0 -0.37 0 z" class="primitive"/>
            </g>
            <g transform="translate(74.14,78.72)" id="img-81f944a9-113">
              <path d="M-0.37,-0 L 0.37 -0 0.37 0 -0.37 0 z" class="primitive"/>
            </g>
            <g transform="translate(74.82,78.72)" id="img-81f944a9-114">
              <path d="M-0.37,-0 L 0.37 -0 0.37 0 -0.37 0 z" class="primitive"/>
            </g>
            <g transform="translate(75.51,78.72)" id="img-81f944a9-115">
              <path d="M-0.37,-0 L 0.37 -0 0.37 0 -0.37 0 z" class="primitive"/>
            </g>
            <g transform="translate(76.19,78.72)" id="img-81f944a9-116">
              <path d="M-0.37,-0 L 0.37 -0 0.37 0 -0.37 0 z" class="primitive"/>
            </g>
            <g transform="translate(76.88,78.72)" id="img-81f944a9-117">
              <path d="M-0.37,-0 L 0.37 -0 0.37 0 -0.37 0 z" class="primitive"/>
            </g>
            <g transform="translate(77.56,78.72)" id="img-81f944a9-118">
              <path d="M-0.37,-0 L 0.37 -0 0.37 0 -0.37 0 z" class="primitive"/>
            </g>
            <g transform="translate(78.25,78.72)" id="img-81f944a9-119">
              <path d="M-0.37,-0 L 0.37 -0 0.37 0 -0.37 0 z" class="primitive"/>
            </g>
            <g transform="translate(78.93,78.72)" id="img-81f944a9-120">
              <path d="M-0.37,-0 L 0.37 -0 0.37 0 -0.37 0 z" class="primitive"/>
            </g>
            <g transform="translate(79.62,78.72)" id="img-81f944a9-121">
              <path d="M-0.37,-0 L 0.37 -0 0.37 0 -0.37 0 z" class="primitive"/>
            </g>
            <g transform="translate(80.3,78.72)" id="img-81f944a9-122">
              <path d="M-0.37,-0 L 0.37 -0 0.37 0 -0.37 0 z" class="primitive"/>
            </g>
            <g transform="translate(80.99,78.72)" id="img-81f944a9-123">
              <path d="M-0.37,-0 L 0.37 -0 0.37 0 -0.37 0 z" class="primitive"/>
            </g>
            <g transform="translate(81.67,78.72)" id="img-81f944a9-124">
              <path d="M-0.37,-0 L 0.37 -0 0.37 0 -0.37 0 z" class="primitive"/>
            </g>
            <g transform="translate(82.36,78.72)" id="img-81f944a9-125">
              <path d="M-0.37,-0 L 0.37 -0 0.37 0 -0.37 0 z" class="primitive"/>
            </g>
            <g transform="translate(83.04,78.72)" id="img-81f944a9-126">
              <path d="M-0.37,-0 L 0.37 -0 0.37 0 -0.37 0 z" class="primitive"/>
            </g>
            <g transform="translate(83.73,78.72)" id="img-81f944a9-127">
              <path d="M-0.37,-0 L 0.37 -0 0.37 0 -0.37 0 z" class="primitive"/>
            </g>
            <g transform="translate(84.41,78.72)" id="img-81f944a9-128">
              <path d="M-0.37,-0 L 0.37 -0 0.37 0 -0.37 0 z" class="primitive"/>
            </g>
            <g transform="translate(85.09,78.72)" id="img-81f944a9-129">
              <path d="M-0.37,-0 L 0.37 -0 0.37 0 -0.37 0 z" class="primitive"/>
            </g>
            <g transform="translate(85.78,78.72)" id="img-81f944a9-130">
              <path d="M-0.37,-0 L 0.37 -0 0.37 0 -0.37 0 z" class="primitive"/>
            </g>
            <g transform="translate(86.46,78.72)" id="img-81f944a9-131">
              <path d="M-0.37,-0 L 0.37 -0 0.37 0 -0.37 0 z" class="primitive"/>
            </g>
            <g transform="translate(87.15,78.72)" id="img-81f944a9-132">
              <path d="M-0.37,-0 L 0.37 -0 0.37 0 -0.37 0 z" class="primitive"/>
            </g>
            <g transform="translate(87.83,78.72)" id="img-81f944a9-133">
              <path d="M-0.37,-0 L 0.37 -0 0.37 0 -0.37 0 z" class="primitive"/>
            </g>
            <g transform="translate(88.52,78.72)" id="img-81f944a9-134">
              <path d="M-0.37,-0 L 0.37 -0 0.37 0 -0.37 0 z" class="primitive"/>
            </g>
            <g transform="translate(89.2,78.72)" id="img-81f944a9-135">
              <path d="M-0.37,-0 L 0.37 -0 0.37 0 -0.37 0 z" class="primitive"/>
            </g>
            <g transform="translate(89.89,78.72)" id="img-81f944a9-136">
              <path d="M-0.37,-0 L 0.37 -0 0.37 0 -0.37 0 z" class="primitive"/>
            </g>
            <g transform="translate(90.57,78.72)" id="img-81f944a9-137">
              <path d="M-0.37,-0 L 0.37 -0 0.37 0 -0.37 0 z" class="primitive"/>
            </g>
            <g transform="translate(91.26,77.89)" id="img-81f944a9-138">
              <path d="M-0.37,-0.83 L 0.37 -0.83 0.37 0.83 -0.37 0.83 z" class="primitive"/>
            </g>
            <g transform="translate(91.94,78.72)" id="img-81f944a9-139">
              <path d="M-0.37,-0 L 0.37 -0 0.37 0 -0.37 0 z" class="primitive"/>
            </g>
            <g transform="translate(92.63,77.89)" id="img-81f944a9-140">
              <path d="M-0.37,-0.83 L 0.37 -0.83 0.37 0.83 -0.37 0.83 z" class="primitive"/>
            </g>
            <g transform="translate(93.31,78.72)" id="img-81f944a9-141">
              <path d="M-0.37,-0 L 0.37 -0 0.37 0 -0.37 0 z" class="primitive"/>
            </g>
            <g transform="translate(94,78.72)" id="img-81f944a9-142">
              <path d="M-0.37,-0 L 0.37 -0 0.37 0 -0.37 0 z" class="primitive"/>
            </g>
            <g transform="translate(94.68,77.48)" id="img-81f944a9-143">
              <path d="M-0.37,-1.24 L 0.37 -1.24 0.37 1.24 -0.37 1.24 z" class="primitive"/>
            </g>
            <g transform="translate(95.37,78.3)" id="img-81f944a9-144">
              <path d="M-0.37,-0.41 L 0.37 -0.41 0.37 0.41 -0.37 0.41 z" class="primitive"/>
            </g>
            <g transform="translate(96.05,73.34)" id="img-81f944a9-145">
              <path d="M-0.37,-5.37 L 0.37 -5.37 0.37 5.37 -0.37 5.37 z" class="primitive"/>
            </g>
            <g transform="translate(96.74,76.24)" id="img-81f944a9-146">
              <path d="M-0.37,-2.48 L 0.37 -2.48 0.37 2.48 -0.37 2.48 z" class="primitive"/>
            </g>
            <g transform="translate(97.42,75)" id="img-81f944a9-147">
              <path d="M-0.37,-3.72 L 0.37 -3.72 0.37 3.72 -0.37 3.72 z" class="primitive"/>
            </g>
            <g transform="translate(98.11,71.69)" id="img-81f944a9-148">
              <path d="M-0.37,-7.02 L 0.37 -7.02 0.37 7.02 -0.37 7.02 z" class="primitive"/>
            </g>
            <g transform="translate(98.79,73.76)" id="img-81f944a9-149">
              <path d="M-0.37,-4.96 L 0.37 -4.96 0.37 4.96 -0.37 4.96 z" class="primitive"/>
            </g>
            <g transform="translate(99.48,65.91)" id="img-81f944a9-150">
              <path d="M-0.37,-12.81 L 0.37 -12.81 0.37 12.81 -0.37 12.81 z" class="primitive"/>
            </g>
            <g transform="translate(100.16,71.69)" id="img-81f944a9-151">
              <path d="M-0.37,-7.02 L 0.37 -7.02 0.37 7.02 -0.37 7.02 z" class="primitive"/>
            </g>
            <g transform="translate(100.85,75.41)" id="img-81f944a9-152">
              <path d="M-0.37,-3.31 L 0.37 -3.31 0.37 3.31 -0.37 3.31 z" class="primitive"/>
            </g>
            <g transform="translate(101.53,72.93)" id="img-81f944a9-153">
              <path d="M-0.37,-5.78 L 0.37 -5.78 0.37 5.78 -0.37 5.78 z" class="primitive"/>
            </g>
            <g transform="translate(102.22,78.72)" id="img-81f944a9-154">
              <path d="M-0.37,-0 L 0.37 -0 0.37 0 -0.37 0 z" class="primitive"/>
            </g>
            <g transform="translate(102.9,73.34)" id="img-81f944a9-155">
              <path d="M-0.37,-5.37 L 0.37 -5.37 0.37 5.37 -0.37 5.37 z" class="primitive"/>
            </g>
            <g transform="translate(103.59,75.82)" id="img-81f944a9-156">
              <path d="M-0.37,-2.89 L 0.37 -2.89 0.37 2.89 -0.37 2.89 z" class="primitive"/>
            </g>
            <g transform="translate(104.27,75.82)" id="img-81f944a9-157">
              <path d="M-0.37,-2.89 L 0.37 -2.89 0.37 2.89 -0.37 2.89 z" class="primitive"/>
            </g>
            <g transform="translate(104.96,76.65)" id="img-81f944a9-158">
              <path d="M-0.37,-2.07 L 0.37 -2.07 0.37 2.07 -0.37 2.07 z" class="primitive"/>
            </g>
            <g transform="translate(105.64,78.3)" id="img-81f944a9-159">
              <path d="M-0.37,-0.41 L 0.37 -0.41 0.37 0.41 -0.37 0.41 z" class="primitive"/>
            </g>
            <g transform="translate(106.33,77.48)" id="img-81f944a9-160">
              <path d="M-0.37,-1.24 L 0.37 -1.24 0.37 1.24 -0.37 1.24 z" class="primitive"/>
            </g>
            <g transform="translate(107.01,78.3)" id="img-81f944a9-161">
              <path d="M-0.37,-0.41 L 0.37 -0.41 0.37 0.41 -0.37 0.41 z" class="primitive"/>
            </g>
            <g transform="translate(107.7,78.3)" id="img-81f944a9-162">
              <path d="M-0.37,-0.41 L 0.37 -0.41 0.37 0.41 -0.37 0.41 z" class="primitive"/>
            </g>
            <g transform="translate(108.38,78.3)" id="img-81f944a9-163">
              <path d="M-0.37,-0.41 L 0.37 -0.41 0.37 0.41 -0.37 0.41 z" class="primitive"/>
            </g>
            <g transform="translate(109.07,77.48)" id="img-81f944a9-164">
              <path d="M-0.37,-1.24 L 0.37 -1.24 0.37 1.24 -0.37 1.24 z" class="primitive"/>
            </g>
            <g transform="translate(109.75,78.3)" id="img-81f944a9-165">
              <path d="M-0.37,-0.41 L 0.37 -0.41 0.37 0.41 -0.37 0.41 z" class="primitive"/>
            </g>
            <g transform="translate(110.44,78.72)" id="img-81f944a9-166">
              <path d="M-0.37,-0 L 0.37 -0 0.37 0 -0.37 0 z" class="primitive"/>
            </g>
            <g transform="translate(111.12,78.3)" id="img-81f944a9-167">
              <path d="M-0.37,-0.41 L 0.37 -0.41 0.37 0.41 -0.37 0.41 z" class="primitive"/>
            </g>
            <g transform="translate(111.81,78.72)" id="img-81f944a9-168">
              <path d="M-0.37,-0 L 0.37 -0 0.37 0 -0.37 0 z" class="primitive"/>
            </g>
            <g transform="translate(112.49,78.72)" id="img-81f944a9-169">
              <path d="M-0.37,-0 L 0.37 -0 0.37 0 -0.37 0 z" class="primitive"/>
            </g>
            <g transform="translate(113.18,78.72)" id="img-81f944a9-170">
              <path d="M-0.37,-0 L 0.37 -0 0.37 0 -0.37 0 z" class="primitive"/>
            </g>
            <g transform="translate(113.86,78.72)" id="img-81f944a9-171">
              <path d="M-0.37,-0 L 0.37 -0 0.37 0 -0.37 0 z" class="primitive"/>
            </g>
            <g transform="translate(114.55,77.89)" id="img-81f944a9-172">
              <path d="M-0.37,-0.83 L 0.37 -0.83 0.37 0.83 -0.37 0.83 z" class="primitive"/>
            </g>
          </g>
        </g>
      </g>
    </g>
  </g>
  <g class="guide ylabels" font-size="2.82" font-family="'PT Sans Caption','Helvetica Neue','Helvetica',sans-serif" fill="#6C606B" id="img-81f944a9-173">
    <g transform="translate(9.35,78.72)" id="img-81f944a9-174">
      <g class="primitive">
        <text text-anchor="end" dy="0.35em">0</text>
      </g>
    </g>
    <g transform="translate(9.35,62.19)" id="img-81f944a9-175">
      <g class="primitive">
        <text text-anchor="end" dy="0.35em">20</text>
      </g>
    </g>
    <g transform="translate(9.35,45.66)" id="img-81f944a9-176">
      <g class="primitive">
        <text text-anchor="end" dy="0.35em">40</text>
      </g>
    </g>
    <g transform="translate(9.35,29.14)" id="img-81f944a9-177">
      <g class="primitive">
        <text text-anchor="end" dy="0.35em">60</text>
      </g>
    </g>
    <g transform="translate(9.35,12.61)" id="img-81f944a9-178">
      <g class="primitive">
        <text text-anchor="end" dy="0.35em">80</text>
      </g>
    </g>
  </g>
  <g font-size="3.88" font-family="'PT Sans','Helvetica Neue','Helvetica',sans-serif" fill="#564A55" stroke="#000000" stroke-opacity="0.000" id="img-81f944a9-179">
    <g transform="translate(73.38,5)" id="img-81f944a9-180">
      <g class="primitive">
        <text text-anchor="middle" dy="0.6em">Degree distribution</text>
      </g>
    </g>
  </g>
</g>
<defs>
  <clipPath id="img-81f944a9-4">
    <path d="M10.35,10.61 L 136.42 10.61 136.42 80.72 10.35 80.72" />
  </clipPath>
</defs>
</svg>
