<?xml version="1.0" encoding="UTF-8"?>
<svg xmlns="http://www.w3.org/2000/svg"
     xmlns:xlink="http://www.w3.org/1999/xlink"
     xmlns:gadfly="http://www.gadflyjl.org/ns"
     version="1.2"
     width="141.42mm" height="100mm" viewBox="0 0 141.42 100"
     stroke="none"
     fill="#000000"
     stroke-width="0.3"
     font-size="3.88"
>
<defs>
  <marker id="arrow" markerWidth="15" markerHeight="7" refX="5" refY="3.5" orient="auto" markerUnits="strokeWidth">
    <path d="M0,0 L15,3.5 L0,7 z" stroke="context-stroke" fill="context-stroke"/>
  </marker>
</defs>
<g class="plotroot xscalable yscalable" id="img-a3bbc180-1">
  <g font-size="3.88" font-family="'PT Sans','Helvetica Neue','Helvetica',sans-serif" fill="#564A55" stroke="#000000" stroke-opacity="0.000" id="img-a3bbc180-2">
    <g transform="translate(74.22,88.39)">
      <g class="primitive">
        <text text-anchor="middle" dy="0.6em">degree</text>
      </g>
    </g>
  </g>
  <g class="guide xlabels" font-size="2.82" font-family="'PT Sans Caption','Helvetica Neue','Helvetica',sans-serif" fill="#6C606B" id="img-a3bbc180-3">
    <g transform="translate(14.02,81.72)">
      <g class="primitive">
        <text text-anchor="middle" dy="0.6em">0</text>
      </g>
    </g>
    <g transform="translate(74.22,81.72)">
      <g class="primitive">
        <text text-anchor="middle" dy="0.6em">50</text>
      </g>
    </g>
    <g transform="translate(134.42,81.72)">
      <g class="primitive">
        <text text-anchor="middle" dy="0.6em">100</text>
      </g>
    </g>
  </g>
  <g clip-path="url(#img-a3bbc180-4)">
    <g id="img-a3bbc180-5">
      <g pointer-events="visible" stroke-width="0.3" fill="#000000" fill-opacity="0.000" stroke="#000000" stroke-opacity="0.000" class="guide background" id="img-a3bbc180-6">
        <g transform="translate(74.22,45.66)" id="img-a3bbc180-7">
          <path d="M-62.2,-35.05 L 62.2 -35.05 62.2 35.05 -62.2 35.05 z" class="primitive"/>
        </g>
      </g>
      <g class="guide ygridlines xfixed" stroke-dasharray="0.5,0.5" stroke-width="0.2" stroke="#D0D0E0" id="img-a3bbc180-8">
        <g transform="translate(74.22,78.72)" id="img-a3bbc180-9">
          <path fill="none" d="M-62.2,0 L 62.2 0" class="primitive"/>
        </g>
        <g transform="translate(74.22,62.19)" id="img-a3bbc180-10">
          <path fill="none" d="M-62.2,0 L 62.2 0" class="primitive"/>
        </g>
        <g transform="translate(74.22,45.66)" id="img-a3bbc180-11">
          <path fill="none" d="M-62.2,0 L 62.2 0" class="primitive"/>
        </g>
        <g transform="translate(74.22,29.14)" id="img-a3bbc180-12">
          <path fill="none" d="M-62.2,0 L 62.2 0" class="primitive"/>
        </g>
        <g transform="translate(74.22,12.61)" id="img-a3bbc180-13">
          <path fill="none" d="M-62.2,0 L 62.2 0" class="primitive"/>
        </g>
      </g>
      <g class="guide xgridlines yfixed" stroke-dasharray="0.5,0.5" stroke-width="0.2" stroke="#D0D0E0" id="img-a3bbc180-14">
        <g transform="translate(14.02,45.66)" id="img-a3bbc180-15">
          <path fill="none" d="M0,-35.05 L 0 35.05" class="primitive"/>
        </g>
        <g transform="translate(74.22,45.66)" id="img-a3bbc180-16">
          <path fill="none" d="M0,-35.05 L 0 35.05" class="primitive"/>
        </g>
        <g transform="translate(134.42,45.66)" id="img-a3bbc180-17">
          <path fill="none" d="M0,-35.05 L 0 35.05" class="primitive"/>
        </g>
      </g>
      <g class="plotpanel" id="img-a3bbc180-18">
        <metadata>
          <boundingbox value="12.02000000000001mm 10.611666666666665mm 124.4013562373095mm 70.10333333333334mm"/>
          <unitbox value="-1.6611108566402075 412.1022641319147 103.3222217132804 -424.20452826382933"/>
        </metadata>
        <g shape-rendering="crispEdges" stroke-width="0.3" id="img-a3bbc180-19">
          <g class="geometry" fill-opacity="1" stroke="#000000" stroke-opacity="0.000" fill="#00BFFF" id="img-a3bbc180-20">
            <g transform="translate(15.83,53.76)" id="img-a3bbc180-21">
              <path d="M-0.63,-24.95 L 0.63 -24.95 0.63 24.95 -0.63 24.95 z" class="primitive"/>
            </g>
            <g transform="translate(17.03,52.6)" id="img-a3bbc180-22">
              <path d="M-0.63,-26.11 L 0.63 -26.11 0.63 26.11 -0.63 26.11 z" class="primitive"/>
            </g>
            <g transform="translate(18.23,48.8)" id="img-a3bbc180-23">
              <path d="M-0.63,-29.91 L 0.63 -29.91 0.63 29.91 -0.63 29.91 z" class="primitive"/>
            </g>
            <g transform="translate(19.44,50.37)" id="img-a3bbc180-24">
              <path d="M-0.63,-28.34 L 0.63 -28.34 0.63 28.34 -0.63 28.34 z" class="primitive"/>
            </g>
            <g transform="translate(20.64,52.03)" id="img-a3bbc180-25">
              <path d="M-0.63,-26.69 L 0.63 -26.69 0.63 26.69 -0.63 26.69 z" class="primitive"/>
            </g>
            <g transform="translate(21.85,54.59)" id="img-a3bbc180-26">
              <path d="M-0.63,-24.13 L 0.63 -24.13 0.63 24.13 -0.63 24.13 z" class="primitive"/>
            </g>
            <g transform="translate(23.05,53.93)" id="img-a3bbc180-27">
              <path d="M-0.63,-24.79 L 0.63 -24.79 0.63 24.79 -0.63 24.79 z" class="primitive"/>
            </g>
            <g transform="translate(24.25,59.38)" id="img-a3bbc180-28">
              <path d="M-0.63,-19.34 L 0.63 -19.34 0.63 19.34 -0.63 19.34 z" class="primitive"/>
            </g>
            <g transform="translate(25.46,55.66)" id="img-a3bbc180-29">
              <path d="M-0.63,-23.05 L 0.63 -23.05 0.63 23.05 -0.63 23.05 z" class="primitive"/>
            </g>
            <g transform="translate(26.66,59.05)" id="img-a3bbc180-30">
              <path d="M-0.63,-19.67 L 0.63 -19.67 0.63 19.67 -0.63 19.67 z" class="primitive"/>
            </g>
            <g transform="translate(27.87,59.3)" id="img-a3bbc180-31">
              <path d="M-0.63,-19.42 L 0.63 -19.42 0.63 19.42 -0.63 19.42 z" class="primitive"/>
            </g>
            <g transform="translate(29.07,58.55)" id="img-a3bbc180-32">
              <path d="M-0.63,-20.16 L 0.63 -20.16 0.63 20.16 -0.63 20.16 z" class="primitive"/>
            </g>
            <g transform="translate(30.27,59.71)" id="img-a3bbc180-33">
              <path d="M-0.63,-19 L 0.63 -19 0.63 19 -0.63 19 z" class="primitive"/>
            </g>
            <g transform="translate(31.48,61.2)" id="img-a3bbc180-34">
              <path d="M-0.63,-17.52 L 0.63 -17.52 0.63 17.52 -0.63 17.52 z" class="primitive"/>
            </g>
            <g transform="translate(32.68,60.62)" id="img-a3bbc180-35">
              <path d="M-0.63,-18.1 L 0.63 -18.1 0.63 18.1 -0.63 18.1 z" class="primitive"/>
            </g>
            <g transform="translate(33.89,62.35)" id="img-a3bbc180-36">
              <path d="M-0.63,-16.36 L 0.63 -16.36 0.63 16.36 -0.63 16.36 z" class="primitive"/>
            </g>
            <g transform="translate(35.09,62.85)" id="img-a3bbc180-37">
              <path d="M-0.63,-15.86 L 0.63 -15.86 0.63 15.86 -0.63 15.86 z" class="primitive"/>
            </g>
            <g transform="translate(36.29,62.02)" id="img-a3bbc180-38">
              <path d="M-0.63,-16.69 L 0.63 -16.69 0.63 16.69 -0.63 16.69 z" class="primitive"/>
            </g>
            <g transform="translate(37.5,64.67)" id="img-a3bbc180-39">
              <path d="M-0.63,-14.05 L 0.63 -14.05 0.63 14.05 -0.63 14.05 z" class="primitive"/>
            </g>
            <g transform="translate(38.7,65.91)" id="img-a3bbc180-40">
              <path d="M-0.63,-12.81 L 0.63 -12.81 0.63 12.81 -0.63 12.81 z" class="primitive"/>
            </g>
            <g transform="translate(39.91,64.75)" id="img-a3bbc180-41">
              <path d="M-0.63,-13.96 L 0.63 -13.96 0.63 13.96 -0.63 13.96 z" class="primitive"/>
            </g>
            <g transform="translate(41.11,65.49)" id="img-a3bbc180-42">
              <path d="M-0.63,-13.22 L 0.63 -13.22 0.63 13.22 -0.63 13.22 z" class="primitive"/>
            </g>
            <g transform="translate(42.31,66.57)" id="img-a3bbc180-43">
              <path d="M-0.63,-12.15 L 0.63 -12.15 0.63 12.15 -0.63 12.15 z" class="primitive"/>
            </g>
            <g transform="translate(43.52,66.57)" id="img-a3bbc180-44">
              <path d="M-0.63,-12.15 L 0.63 -12.15 0.63 12.15 -0.63 12.15 z" class="primitive"/>
            </g>
            <g transform="translate(44.72,67.64)" id="img-a3bbc180-45">
              <path d="M-0.63,-11.07 L 0.63 -11.07 0.63 11.07 -0.63 11.07 z" class="primitive"/>
            </g>
            <g transform="translate(45.93,66.49)" id="img-a3bbc180-46">
              <path d="M-0.63,-12.23 L 0.63 -12.23 0.63 12.23 -0.63 12.23 z" class="primitive"/>
            </g>
            <g transform="translate(47.13,67.73)" id="img-a3bbc180-47">
              <path d="M-0.63,-10.99 L 0.63 -10.99 0.63 10.99 -0.63 10.99 z" class="primitive"/>
            </g>
            <g transform="translate(48.33,68.72)" id="img-a3bbc180-48">
              <path d="M-0.63,-10 L 0.63 -10 0.63 10 -0.63 10 z" class="primitive"/>
            </g>
            <g transform="translate(49.54,67.89)" id="img-a3bbc180-49">
              <path d="M-0.63,-10.82 L 0.63 -10.82 0.63 10.82 -0.63 10.82 z" class="primitive"/>
            </g>
            <g transform="translate(50.74,68.96)" id="img-a3bbc180-50">
              <path d="M-0.63,-9.75 L 0.63 -9.75 0.63 9.75 -0.63 9.75 z" class="primitive"/>
            </g>
            <g transform="translate(51.95,69.87)" id="img-a3bbc180-51">
              <path d="M-0.63,-8.84 L 0.63 -8.84 0.63 8.84 -0.63 8.84 z" class="primitive"/>
            </g>
            <g transform="translate(53.15,69.63)" id="img-a3bbc180-52">
              <path d="M-0.63,-9.09 L 0.63 -9.09 0.63 9.09 -0.63 9.09 z" class="primitive"/>
            </g>
            <g transform="translate(54.35,68.22)" id="img-a3bbc180-53">
              <path d="M-0.63,-10.49 L 0.63 -10.49 0.63 10.49 -0.63 10.49 z" class="primitive"/>
            </g>
            <g transform="translate(55.56,70.62)" id="img-a3bbc180-54">
              <path d="M-0.63,-8.1 L 0.63 -8.1 0.63 8.1 -0.63 8.1 z" class="primitive"/>
            </g>
            <g transform="translate(56.76,70.2)" id="img-a3bbc180-55">
              <path d="M-0.63,-8.51 L 0.63 -8.51 0.63 8.51 -0.63 8.51 z" class="primitive"/>
            </g>
            <g transform="translate(57.97,70.87)" id="img-a3bbc180-56">
              <path d="M-0.63,-7.85 L 0.63 -7.85 0.63 7.85 -0.63 7.85 z" class="primitive"/>
            </g>
            <g transform="translate(59.17,71.44)" id="img-a3bbc180-57">
              <path d="M-0.63,-7.27 L 0.63 -7.27 0.63 7.27 -0.63 7.27 z" class="primitive"/>
            </g>
            <g transform="translate(60.37,69.63)" id="img-a3bbc180-58">
              <path d="M-0.63,-9.09 L 0.63 -9.09 0.63 9.09 -0.63 9.09 z" class="primitive"/>
            </g>
            <g transform="translate(61.58,71.61)" id="img-a3bbc180-59">
              <path d="M-0.63,-7.11 L 0.63 -7.11 0.63 7.11 -0.63 7.11 z" class="primitive"/>
            </g>
            <g transform="translate(62.78,71.11)" id="img-a3bbc180-60">
              <path d="M-0.63,-7.6 L 0.63 -7.6 0.63 7.6 -0.63 7.6 z" class="primitive"/>
            </g>
            <g transform="translate(63.99,69.71)" id="img-a3bbc180-61">
              <path d="M-0.63,-9.01 L 0.63 -9.01 0.63 9.01 -0.63 9.01 z" class="primitive"/>
            </g>
            <g transform="translate(65.19,72.02)" id="img-a3bbc180-62">
              <path d="M-0.63,-6.69 L 0.63 -6.69 0.63 6.69 -0.63 6.69 z" class="primitive"/>
            </g>
            <g transform="translate(66.39,73.43)" id="img-a3bbc180-63">
              <path d="M-0.63,-5.29 L 0.63 -5.29 0.63 5.29 -0.63 5.29 z" class="primitive"/>
            </g>
            <g transform="translate(67.6,72.02)" id="img-a3bbc180-64">
              <path d="M-0.63,-6.69 L 0.63 -6.69 0.63 6.69 -0.63 6.69 z" class="primitive"/>
            </g>
            <g transform="translate(68.8,72.35)" id="img-a3bbc180-65">
              <path d="M-0.63,-6.36 L 0.63 -6.36 0.63 6.36 -0.63 6.36 z" class="primitive"/>
            </g>
            <g transform="translate(70.01,73.26)" id="img-a3bbc180-66">
              <path d="M-0.63,-5.45 L 0.63 -5.45 0.63 5.45 -0.63 5.45 z" class="primitive"/>
            </g>
            <g transform="translate(71.21,73.76)" id="img-a3bbc180-67">
              <path d="M-0.63,-4.96 L 0.63 -4.96 0.63 4.96 -0.63 4.96 z" class="primitive"/>
            </g>
            <g transform="translate(72.41,73.26)" id="img-a3bbc180-68">
              <path d="M-0.63,-5.45 L 0.63 -5.45 0.63 5.45 -0.63 5.45 z" class="primitive"/>
            </g>
            <g transform="translate(73.62,72.52)" id="img-a3bbc180-69">
              <path d="M-0.63,-6.2 L 0.63 -6.2 0.63 6.2 -0.63 6.2 z" class="primitive"/>
            </g>
            <g transform="translate(74.82,73.59)" id="img-a3bbc180-70">
              <path d="M-0.63,-5.12 L 0.63 -5.12 0.63 5.12 -0.63 5.12 z" class="primitive"/>
            </g>
            <g transform="translate(76.03,75)" id="img-a3bbc180-71">
              <path d="M-0.63,-3.72 L 0.63 -3.72 0.63 3.72 -0.63 3.72 z" class="primitive"/>
            </g>
            <g transform="translate(77.23,74.5)" id="img-a3bbc180-72">
              <path d="M-0.63,-4.21 L 0.63 -4.21 0.63 4.21 -0.63 4.21 z" class="primitive"/>
            </g>
            <g transform="translate(78.43,74.01)" id="img-a3bbc180-73">
              <path d="M-0.63,-4.71 L 0.63 -4.71 0.63 4.71 -0.63 4.71 z" class="primitive"/>
            </g>
            <g transform="translate(79.64,73.84)" id="img-a3bbc180-74">
              <path d="M-0.63,-4.88 L 0.63 -4.88 0.63 4.88 -0.63 4.88 z" class="primitive"/>
            </g>
            <g transform="translate(80.84,73.43)" id="img-a3bbc180-75">
              <path d="M-0.63,-5.29 L 0.63 -5.29 0.63 5.29 -0.63 5.29 z" class="primitive"/>
            </g>
            <g transform="translate(82.05,75.74)" id="img-a3bbc180-76">
              <path d="M-0.63,-2.97 L 0.63 -2.97 0.63 2.97 -0.63 2.97 z" class="primitive"/>
            </g>
            <g transform="translate(83.25,73.84)" id="img-a3bbc180-77">
              <path d="M-0.63,-4.88 L 0.63 -4.88 0.63 4.88 -0.63 4.88 z" class="primitive"/>
            </g>
            <g transform="translate(84.45,74.67)" id="img-a3bbc180-78">
              <path d="M-0.63,-4.05 L 0.63 -4.05 0.63 4.05 -0.63 4.05 z" class="primitive"/>
            </g>
            <g transform="translate(85.66,74.34)" id="img-a3bbc180-79">
              <path d="M-0.63,-4.38 L 0.63 -4.38 0.63 4.38 -0.63 4.38 z" class="primitive"/>
            </g>
            <g transform="translate(86.86,74.58)" id="img-a3bbc180-80">
              <path d="M-0.63,-4.13 L 0.63 -4.13 0.63 4.13 -0.63 4.13 z" class="primitive"/>
            </g>
            <g transform="translate(88.07,76.48)" id="img-a3bbc180-81">
              <path d="M-0.63,-2.23 L 0.63 -2.23 0.63 2.23 -0.63 2.23 z" class="primitive"/>
            </g>
            <g transform="translate(89.27,75)" id="img-a3bbc180-82">
              <path d="M-0.63,-3.72 L 0.63 -3.72 0.63 3.72 -0.63 3.72 z" class="primitive"/>
            </g>
            <g transform="translate(90.47,74.01)" id="img-a3bbc180-83">
              <path d="M-0.63,-4.71 L 0.63 -4.71 0.63 4.71 -0.63 4.71 z" class="primitive"/>
            </g>
            <g transform="translate(91.68,76.15)" id="img-a3bbc180-84">
              <path d="M-0.63,-2.56 L 0.63 -2.56 0.63 2.56 -0.63 2.56 z" class="primitive"/>
            </g>
            <g transform="translate(92.88,76.24)" id="img-a3bbc180-85">
              <path d="M-0.63,-2.48 L 0.63 -2.48 0.63 2.48 -0.63 2.48 z" class="primitive"/>
            </g>
            <g transform="translate(94.09,76.24)" id="img-a3bbc180-86">
              <path d="M-0.63,-2.48 L 0.63 -2.48 0.63 2.48 -0.63 2.48 z" class="primitive"/>
            </g>
            <g transform="translate(95.29,75.82)" id="img-a3bbc180-87">
              <path d="M-0.63,-2.89 L 0.63 -2.89 0.63 2.89 -0.63 2.89 z" class="primitive"/>
            </g>
            <g transform="translate(96.49,76.48)" id="img-a3bbc180-88">
              <path d="M-0.63,-2.23 L 0.63 -2.23 0.63 2.23 -0.63 2.23 z" class="primitive"/>
            </g>
            <g transform="translate(97.7,76.07)" id="img-a3bbc180-89">
              <path d="M-0.63,-2.64 L 0.63 -2.64 0.63 2.64 -0.63 2.64 z" class="primitive"/>
            </g>
            <g transform="translate(98.9,76.15)" id="img-a3bbc180-90">
              <path d="M-0.63,-2.56 L 0.63 -2.56 0.63 2.56 -0.63 2.56 z" class="primitive"/>
            </g>
            <g transform="translate(100.11,76.73)" id="img-a3bbc180-91">
              <path d="M-0.63,-1.98 L 0.63 -1.98 0.63 1.98 -0.63 1.98 z" class="primitive"/>
            </g>
            <g transform="translate(101.31,76.32)" id="img-a3bbc180-92">
              <path d="M-0.63,-2.4 L 0.63 -2.4 0.63 2.4 -0.63 2.4 z" class="primitive"/>
            </g>
            <g transform="translate(102.51,76.24)" id="img-a3bbc180-93">
              <path d="M-0.63,-2.48 L 0.63 -2.48 0.63 2.48 -0.63 2.48 z" class="primitive"/>
            </g>
            <g transform="translate(103.72,76.65)" id="img-a3bbc180-94">
              <path d="M-0.63,-2.07 L 0.63 -2.07 0.63 2.07 -0.63 2.07 z" class="primitive"/>
            </g>
            <g transform="translate(104.92,76.65)" id="img-a3bbc180-95">
              <path d="M-0.63,-2.07 L 0.63 -2.07 0.63 2.07 -0.63 2.07 z" class="primitive"/>
            </g>
            <g transform="translate(106.13,77.48)" id="img-a3bbc180-96">
              <path d="M-0.63,-1.24 L 0.63 -1.24 0.63 1.24 -0.63 1.24 z" class="primitive"/>
            </g>
            <g transform="translate(107.33,76.81)" id="img-a3bbc180-97">
              <path d="M-0.63,-1.9 L 0.63 -1.9 0.63 1.9 -0.63 1.9 z" class="primitive"/>
            </g>
            <g transform="translate(108.54,77.48)" id="img-a3bbc180-98">
              <path d="M-0.63,-1.24 L 0.63 -1.24 0.63 1.24 -0.63 1.24 z" class="primitive"/>
            </g>
            <g transform="translate(109.74,77.56)" id="img-a3bbc180-99">
              <path d="M-0.63,-1.16 L 0.63 -1.16 0.63 1.16 -0.63 1.16 z" class="primitive"/>
            </g>
            <g transform="translate(110.94,77.64)" id="img-a3bbc180-100">
              <path d="M-0.63,-1.07 L 0.63 -1.07 0.63 1.07 -0.63 1.07 z" class="primitive"/>
            </g>
            <g transform="translate(112.15,77.72)" id="img-a3bbc180-101">
              <path d="M-0.63,-0.99 L 0.63 -0.99 0.63 0.99 -0.63 0.99 z" class="primitive"/>
            </g>
            <g transform="translate(113.35,77.23)" id="img-a3bbc180-102">
              <path d="M-0.63,-1.49 L 0.63 -1.49 0.63 1.49 -0.63 1.49 z" class="primitive"/>
            </g>
            <g transform="translate(114.56,78.05)" id="img-a3bbc180-103">
              <path d="M-0.63,-0.66 L 0.63 -0.66 0.63 0.66 -0.63 0.66 z" class="primitive"/>
            </g>
            <g transform="translate(115.76,77.48)" id="img-a3bbc180-104">
              <path d="M-0.63,-1.24 L 0.63 -1.24 0.63 1.24 -0.63 1.24 z" class="primitive"/>
            </g>
            <g transform="translate(116.96,77.56)" id="img-a3bbc180-105">
              <path d="M-0.63,-1.16 L 0.63 -1.16 0.63 1.16 -0.63 1.16 z" class="primitive"/>
            </g>
            <g transform="translate(118.17,77.72)" id="img-a3bbc180-106">
              <path d="M-0.63,-0.99 L 0.63 -0.99 0.63 0.99 -0.63 0.99 z" class="primitive"/>
            </g>
            <g transform="translate(119.37,78.14)" id="img-a3bbc180-107">
              <path d="M-0.63,-0.58 L 0.63 -0.58 0.63 0.58 -0.63 0.58 z" class="primitive"/>
            </g>
            <g transform="translate(120.58,78.3)" id="img-a3bbc180-108">
              <path d="M-0.63,-0.41 L 0.63 -0.41 0.63 0.41 -0.63 0.41 z" class="primitive"/>
            </g>
            <g transform="translate(121.78,78.38)" id="img-a3bbc180-109">
              <path d="M-0.63,-0.33 L 0.63 -0.33 0.63 0.33 -0.63 0.33 z" class="primitive"/>
            </g>
            <g transform="translate(122.98,78.3)" id="img-a3bbc180-110">
              <path d="M-0.63,-0.41 L 0.63 -0.41 0.63 0.41 -0.63 0.41 z" class="primitive"/>
            </g>
            <g transform="translate(124.19,78.38)" id="img-a3bbc180-111">
              <path d="M-0.63,-0.33 L 0.63 -0.33 0.63 0.33 -0.63 0.33 z" class="primitive"/>
            </g>
            <g transform="translate(125.39,78.55)" id="img-a3bbc180-112">
              <path d="M-0.63,-0.17 L 0.63 -0.17 0.63 0.17 -0.63 0.17 z" class="primitive"/>
            </g>
            <g transform="translate(126.6,78.63)" id="img-a3bbc180-113">
              <path d="M-0.63,-0.08 L 0.63 -0.08 0.63 0.08 -0.63 0.08 z" class="primitive"/>
            </g>
            <g transform="translate(127.8,78.55)" id="img-a3bbc180-114">
              <path d="M-0.63,-0.17 L 0.63 -0.17 0.63 0.17 -0.63 0.17 z" class="primitive"/>
            </g>
            <g transform="translate(129,78.63)" id="img-a3bbc180-115">
              <path d="M-0.63,-0.08 L 0.63 -0.08 0.63 0.08 -0.63 0.08 z" class="primitive"/>
            </g>
          </g>
        </g>
      </g>
    </g>
  </g>
  <g class="guide ylabels" font-size="2.82" font-family="'PT Sans Caption','Helvetica Neue','Helvetica',sans-serif" fill="#6C606B" id="img-a3bbc180-116">
    <g transform="translate(11.02,78.72)" id="img-a3bbc180-117">
      <g class="primitive">
        <text text-anchor="end" dy="0.35em">0</text>
      </g>
    </g>
    <g transform="translate(11.02,62.19)" id="img-a3bbc180-118">
      <g class="primitive">
        <text text-anchor="end" dy="0.35em">100</text>
      </g>
    </g>
    <g transform="translate(11.02,45.66)" id="img-a3bbc180-119">
      <g class="primitive">
        <text text-anchor="end" dy="0.35em">200</text>
      </g>
    </g>
    <g transform="translate(11.02,29.14)" id="img-a3bbc180-120">
      <g class="primitive">
        <text text-anchor="end" dy="0.35em">300</text>
      </g>
    </g>
    <g transform="translate(11.02,12.61)" id="img-a3bbc180-121">
      <g class="primitive">
        <text text-anchor="end" dy="0.35em">400</text>
      </g>
    </g>
  </g>
  <g font-size="3.88" font-family="'PT Sans','Helvetica Neue','Helvetica',sans-serif" fill="#564A55" stroke="#000000" stroke-opacity="0.000" id="img-a3bbc180-122">
    <g transform="translate(74.22,5)" id="img-a3bbc180-123">
      <g class="primitive">
        <text text-anchor="middle" dy="0.6em">Degree distribution</text>
      </g>
    </g>
  </g>
</g>
<defs>
  <clipPath id="img-a3bbc180-4">
    <path d="M12.02,10.61 L 136.42 10.61 136.42 80.72 12.02 80.72" />
  </clipPath>
</defs>
</svg>
