<?xml version="1.0" encoding="UTF-8"?>
<svg xmlns="http://www.w3.org/2000/svg"
     xmlns:xlink="http://www.w3.org/1999/xlink"
     xmlns:gadfly="http://www.gadflyjl.org/ns"
     version="1.2"
     width="141.42mm" height="100mm" viewBox="0 0 141.42 100"
     stroke="none"
     fill="#000000"
     stroke-width="0.3"
     font-size="3.88"
>
<defs>
  <marker id="arrow" markerWidth="15" markerHeight="7" refX="5" refY="3.5" orient="auto" markerUnits="strokeWidth">
    <path d="M0,0 L15,3.5 L0,7 z" stroke="context-stroke" fill="context-stroke"/>
  </marker>
</defs>
<g class="plotroot xscalable yscalable" id="img-77e14ac0-1">
  <g class="guide xlabels" font-size="2.82" font-family="'PT Sans Caption','Helvetica Neue','Helvetica',sans-serif" fill="#6C606B" id="img-77e14ac0-2">
    <g transform="translate(19.96,91.33)">
      <g class="primitive">
        <text text-anchor="middle" dy="0.6em">1500</text>
      </g>
    </g>
    <g transform="translate(36.19,91.33)">
      <g class="primitive">
        <text text-anchor="middle" dy="0.6em">2000</text>
      </g>
    </g>
    <g transform="translate(52.41,91.33)">
      <g class="primitive">
        <text text-anchor="middle" dy="0.6em">2500</text>
      </g>
    </g>
    <g transform="translate(68.64,91.33)">
      <g class="primitive">
        <text text-anchor="middle" dy="0.6em">3000</text>
      </g>
    </g>
    <g transform="translate(84.87,91.33)">
      <g class="primitive">
        <text text-anchor="middle" dy="0.6em">3500</text>
      </g>
    </g>
  </g>
  <g class="guide colorkey" id="img-77e14ac0-3">
    <g class="color_coding_coding_coding_coding_4-cycle" id="img-77e14ac0-4">
      <g fill="#4C404B" font-size="2.82" font-family="'PT Sans','Helvetica Neue','Helvetica',sans-serif" id="img-77e14ac0-5">
        <g transform="translate(90.68,49.48)" id="img-77e14ac0-6">
          <g class="primitive">
            <text dy="0.35em">coding_coding_coding_coding_4-cycle</text>
          </g>
        </g>
      </g>
      <g fill-opacity="1" fill="#00BFFF" stroke="#FFFFFF" id="img-77e14ac0-7">
        <g transform="translate(88.77,49.48)" id="img-77e14ac0-8">
          <path d="M-0.91,-0.91 L 0.91 -0.91 0.91 0.91 -0.91 0.91 z" class="primitive"/>
        </g>
      </g>
    </g>
    <g fill="#362A35" font-size="3.88" font-family="'PT Sans','Helvetica Neue','Helvetica',sans-serif" stroke="#000000" stroke-opacity="0.000" id="img-77e14ac0-9">
      <g transform="translate(87.87,45.66)" id="img-77e14ac0-10">
        <g class="primitive">
          <text dy="-0em">graphlet</text>
        </g>
      </g>
    </g>
  </g>
  <g clip-path="url(#img-77e14ac0-11)">
    <g id="img-77e14ac0-12">
      <g pointer-events="visible" stroke-width="0.3" fill="#000000" fill-opacity="0.000" stroke="#000000" stroke-opacity="0.000" class="guide background" id="img-77e14ac0-13">
        <g transform="translate(52.41,47.66)" id="img-77e14ac0-14">
          <path d="M-34.45,-42.66 L 34.45 -42.66 34.45 42.66 -34.45 42.66 z" class="primitive"/>
        </g>
      </g>
      <g class="guide ygridlines xfixed" stroke-dasharray="0.5,0.5" stroke-width="0.2" stroke="#D0D0E0" id="img-77e14ac0-15">
        <g transform="translate(52.41,88.33)" id="img-77e14ac0-16">
          <path fill="none" d="M-34.45,0 L 34.45 0" class="primitive"/>
        </g>
        <g transform="translate(52.41,68)" id="img-77e14ac0-17">
          <path fill="none" d="M-34.45,0 L 34.45 0" class="primitive"/>
        </g>
        <g transform="translate(52.41,47.66)" id="img-77e14ac0-18">
          <path fill="none" d="M-34.45,0 L 34.45 0" class="primitive"/>
        </g>
        <g transform="translate(52.41,27.33)" id="img-77e14ac0-19">
          <path fill="none" d="M-34.45,0 L 34.45 0" class="primitive"/>
        </g>
        <g transform="translate(52.41,7)" id="img-77e14ac0-20">
          <path fill="none" d="M-34.45,0 L 34.45 0" class="primitive"/>
        </g>
      </g>
      <g class="guide xgridlines yfixed" stroke-dasharray="0.5,0.5" stroke-width="0.2" stroke="#D0D0E0" id="img-77e14ac0-21">
        <g transform="translate(19.96,47.66)" id="img-77e14ac0-22">
          <path fill="none" d="M0,-42.66 L 0 42.66" class="primitive"/>
        </g>
        <g transform="translate(36.19,47.66)" id="img-77e14ac0-23">
          <path fill="none" d="M0,-42.66 L 0 42.66" class="primitive"/>
        </g>
        <g transform="translate(52.41,47.66)" id="img-77e14ac0-24">
          <path fill="none" d="M0,-42.66 L 0 42.66" class="primitive"/>
        </g>
        <g transform="translate(68.64,47.66)" id="img-77e14ac0-25">
          <path fill="none" d="M0,-42.66 L 0 42.66" class="primitive"/>
        </g>
        <g transform="translate(84.87,47.66)" id="img-77e14ac0-26">
          <path fill="none" d="M0,-42.66 L 0 42.66" class="primitive"/>
        </g>
      </g>
      <g class="plotpanel" id="img-77e14ac0-27">
        <metadata>
          <boundingbox value="17.95833333333333mm 5.0mm 68.90968957064283mm 85.32666666666667mm"/>
          <unitbox value="1438.3759185037127 40.98368718747438 2123.248162992574 -41.96737437494876"/>
        </metadata>
        <g shape-rendering="crispEdges" stroke-width="0.3" id="img-77e14ac0-28">
          <g stroke="#000000" stroke-opacity="0.000" class="geometry" id="img-77e14ac0-29">
            <g fill="#00BFFF" id="img-77e14ac0-30">
              <g transform="translate(20.5,86.29)" id="img-77e14ac0-31">
                <path d="M-0.31,-2.03 L 0.31 -2.03 0.31 2.03 -0.31 2.03 z" class="primitive"/>
              </g>
              <g transform="translate(21.08,86.29)" id="img-77e14ac0-32">
                <path d="M-0.31,-2.03 L 0.31 -2.03 0.31 2.03 -0.31 2.03 z" class="primitive"/>
              </g>
              <g transform="translate(21.65,87.31)" id="img-77e14ac0-33">
                <path d="M-0.31,-1.02 L 0.31 -1.02 0.31 1.02 -0.31 1.02 z" class="primitive"/>
              </g>
              <g transform="translate(22.23,86.29)" id="img-77e14ac0-34">
                <path d="M-0.31,-2.03 L 0.31 -2.03 0.31 2.03 -0.31 2.03 z" class="primitive"/>
              </g>
              <g transform="translate(22.8,86.29)" id="img-77e14ac0-35">
                <path d="M-0.31,-2.03 L 0.31 -2.03 0.31 2.03 -0.31 2.03 z" class="primitive"/>
              </g>
              <g transform="translate(23.37,85.28)" id="img-77e14ac0-36">
                <path d="M-0.31,-3.05 L 0.31 -3.05 0.31 3.05 -0.31 3.05 z" class="primitive"/>
              </g>
              <g transform="translate(23.95,88.33)" id="img-77e14ac0-37">
                <path d="M-0.31,-0 L 0.31 -0 0.31 0 -0.31 0 z" class="primitive"/>
              </g>
              <g transform="translate(24.52,84.26)" id="img-77e14ac0-38">
                <path d="M-0.31,-4.07 L 0.31 -4.07 0.31 4.07 -0.31 4.07 z" class="primitive"/>
              </g>
              <g transform="translate(25.09,83.24)" id="img-77e14ac0-39">
                <path d="M-0.31,-5.08 L 0.31 -5.08 0.31 5.08 -0.31 5.08 z" class="primitive"/>
              </g>
              <g transform="translate(25.67,84.26)" id="img-77e14ac0-40">
                <path d="M-0.31,-4.07 L 0.31 -4.07 0.31 4.07 -0.31 4.07 z" class="primitive"/>
              </g>
              <g transform="translate(26.24,83.24)" id="img-77e14ac0-41">
                <path d="M-0.31,-5.08 L 0.31 -5.08 0.31 5.08 -0.31 5.08 z" class="primitive"/>
              </g>
              <g transform="translate(26.81,81.21)" id="img-77e14ac0-42">
                <path d="M-0.31,-7.12 L 0.31 -7.12 0.31 7.12 -0.31 7.12 z" class="primitive"/>
              </g>
              <g transform="translate(27.39,80.19)" id="img-77e14ac0-43">
                <path d="M-0.31,-8.13 L 0.31 -8.13 0.31 8.13 -0.31 8.13 z" class="primitive"/>
              </g>
              <g transform="translate(27.96,83.24)" id="img-77e14ac0-44">
                <path d="M-0.31,-5.08 L 0.31 -5.08 0.31 5.08 -0.31 5.08 z" class="primitive"/>
              </g>
              <g transform="translate(28.53,78.16)" id="img-77e14ac0-45">
                <path d="M-0.31,-10.17 L 0.31 -10.17 0.31 10.17 -0.31 10.17 z" class="primitive"/>
              </g>
              <g transform="translate(29.11,84.26)" id="img-77e14ac0-46">
                <path d="M-0.31,-4.07 L 0.31 -4.07 0.31 4.07 -0.31 4.07 z" class="primitive"/>
              </g>
              <g transform="translate(29.68,76.13)" id="img-77e14ac0-47">
                <path d="M-0.31,-12.2 L 0.31 -12.2 0.31 12.2 -0.31 12.2 z" class="primitive"/>
              </g>
              <g transform="translate(30.25,72.06)" id="img-77e14ac0-48">
                <path d="M-0.31,-16.27 L 0.31 -16.27 0.31 16.27 -0.31 16.27 z" class="primitive"/>
              </g>
              <g transform="translate(30.83,79.18)" id="img-77e14ac0-49">
                <path d="M-0.31,-9.15 L 0.31 -9.15 0.31 9.15 -0.31 9.15 z" class="primitive"/>
              </g>
              <g transform="translate(31.4,76.13)" id="img-77e14ac0-50">
                <path d="M-0.31,-12.2 L 0.31 -12.2 0.31 12.2 -0.31 12.2 z" class="primitive"/>
              </g>
              <g transform="translate(31.97,74.09)" id="img-77e14ac0-51">
                <path d="M-0.31,-14.23 L 0.31 -14.23 0.31 14.23 -0.31 14.23 z" class="primitive"/>
              </g>
              <g transform="translate(32.55,66.98)" id="img-77e14ac0-52">
                <path d="M-0.31,-21.35 L 0.31 -21.35 0.31 21.35 -0.31 21.35 z" class="primitive"/>
              </g>
              <g transform="translate(33.12,63.93)" id="img-77e14ac0-53">
                <path d="M-0.31,-24.4 L 0.31 -24.4 0.31 24.4 -0.31 24.4 z" class="primitive"/>
              </g>
              <g transform="translate(33.69,66.98)" id="img-77e14ac0-54">
                <path d="M-0.31,-21.35 L 0.31 -21.35 0.31 21.35 -0.31 21.35 z" class="primitive"/>
              </g>
              <g transform="translate(34.27,72.06)" id="img-77e14ac0-55">
                <path d="M-0.31,-16.27 L 0.31 -16.27 0.31 16.27 -0.31 16.27 z" class="primitive"/>
              </g>
              <g transform="translate(34.84,49.7)" id="img-77e14ac0-56">
                <path d="M-0.31,-38.63 L 0.31 -38.63 0.31 38.63 -0.31 38.63 z" class="primitive"/>
              </g>
              <g transform="translate(35.42,72.06)" id="img-77e14ac0-57">
                <path d="M-0.31,-16.27 L 0.31 -16.27 0.31 16.27 -0.31 16.27 z" class="primitive"/>
              </g>
              <g transform="translate(35.99,58.85)" id="img-77e14ac0-58">
                <path d="M-0.31,-29.48 L 0.31 -29.48 0.31 29.48 -0.31 29.48 z" class="primitive"/>
              </g>
              <g transform="translate(36.56,63.93)" id="img-77e14ac0-59">
                <path d="M-0.31,-24.4 L 0.31 -24.4 0.31 24.4 -0.31 24.4 z" class="primitive"/>
              </g>
              <g transform="translate(37.14,63.93)" id="img-77e14ac0-60">
                <path d="M-0.31,-24.4 L 0.31 -24.4 0.31 24.4 -0.31 24.4 z" class="primitive"/>
              </g>
              <g transform="translate(37.71,59.86)" id="img-77e14ac0-61">
                <path d="M-0.31,-28.46 L 0.31 -28.46 0.31 28.46 -0.31 28.46 z" class="primitive"/>
              </g>
              <g transform="translate(38.28,55.8)" id="img-77e14ac0-62">
                <path d="M-0.31,-32.53 L 0.31 -32.53 0.31 32.53 -0.31 32.53 z" class="primitive"/>
              </g>
              <g transform="translate(38.86,59.86)" id="img-77e14ac0-63">
                <path d="M-0.31,-28.46 L 0.31 -28.46 0.31 28.46 -0.31 28.46 z" class="primitive"/>
              </g>
              <g transform="translate(39.43,74.09)" id="img-77e14ac0-64">
                <path d="M-0.31,-14.23 L 0.31 -14.23 0.31 14.23 -0.31 14.23 z" class="primitive"/>
              </g>
              <g transform="translate(40,53.76)" id="img-77e14ac0-65">
                <path d="M-0.31,-34.56 L 0.31 -34.56 0.31 34.56 -0.31 34.56 z" class="primitive"/>
              </g>
              <g transform="translate(40.58,60.88)" id="img-77e14ac0-66">
                <path d="M-0.31,-27.45 L 0.31 -27.45 0.31 27.45 -0.31 27.45 z" class="primitive"/>
              </g>
              <g transform="translate(41.15,51.73)" id="img-77e14ac0-67">
                <path d="M-0.31,-36.6 L 0.31 -36.6 0.31 36.6 -0.31 36.6 z" class="primitive"/>
              </g>
              <g transform="translate(41.72,59.86)" id="img-77e14ac0-68">
                <path d="M-0.31,-28.46 L 0.31 -28.46 0.31 28.46 -0.31 28.46 z" class="primitive"/>
              </g>
              <g transform="translate(42.3,57.83)" id="img-77e14ac0-69">
                <path d="M-0.31,-30.5 L 0.31 -30.5 0.31 30.5 -0.31 30.5 z" class="primitive"/>
              </g>
              <g transform="translate(42.87,62.91)" id="img-77e14ac0-70">
                <path d="M-0.31,-25.41 L 0.31 -25.41 0.31 25.41 -0.31 25.41 z" class="primitive"/>
              </g>
              <g transform="translate(43.44,68)" id="img-77e14ac0-71">
                <path d="M-0.31,-20.33 L 0.31 -20.33 0.31 20.33 -0.31 20.33 z" class="primitive"/>
              </g>
              <g transform="translate(44.02,65.96)" id="img-77e14ac0-72">
                <path d="M-0.31,-22.36 L 0.31 -22.36 0.31 22.36 -0.31 22.36 z" class="primitive"/>
              </g>
              <g transform="translate(44.59,77.14)" id="img-77e14ac0-73">
                <path d="M-0.31,-11.18 L 0.31 -11.18 0.31 11.18 -0.31 11.18 z" class="primitive"/>
              </g>
              <g transform="translate(45.16,66.98)" id="img-77e14ac0-74">
                <path d="M-0.31,-21.35 L 0.31 -21.35 0.31 21.35 -0.31 21.35 z" class="primitive"/>
              </g>
              <g transform="translate(45.74,55.8)" id="img-77e14ac0-75">
                <path d="M-0.31,-32.53 L 0.31 -32.53 0.31 32.53 -0.31 32.53 z" class="primitive"/>
              </g>
              <g transform="translate(46.31,63.93)" id="img-77e14ac0-76">
                <path d="M-0.31,-24.4 L 0.31 -24.4 0.31 24.4 -0.31 24.4 z" class="primitive"/>
              </g>
              <g transform="translate(46.88,71.04)" id="img-77e14ac0-77">
                <path d="M-0.31,-17.28 L 0.31 -17.28 0.31 17.28 -0.31 17.28 z" class="primitive"/>
              </g>
              <g transform="translate(47.46,71.04)" id="img-77e14ac0-78">
                <path d="M-0.31,-17.28 L 0.31 -17.28 0.31 17.28 -0.31 17.28 z" class="primitive"/>
              </g>
              <g transform="translate(48.03,69.01)" id="img-77e14ac0-79">
                <path d="M-0.31,-19.32 L 0.31 -19.32 0.31 19.32 -0.31 19.32 z" class="primitive"/>
              </g>
              <g transform="translate(48.61,70.03)" id="img-77e14ac0-80">
                <path d="M-0.31,-18.3 L 0.31 -18.3 0.31 18.3 -0.31 18.3 z" class="primitive"/>
              </g>
              <g transform="translate(49.18,68)" id="img-77e14ac0-81">
                <path d="M-0.31,-20.33 L 0.31 -20.33 0.31 20.33 -0.31 20.33 z" class="primitive"/>
              </g>
              <g transform="translate(49.75,77.14)" id="img-77e14ac0-82">
                <path d="M-0.31,-11.18 L 0.31 -11.18 0.31 11.18 -0.31 11.18 z" class="primitive"/>
              </g>
              <g transform="translate(50.33,75.11)" id="img-77e14ac0-83">
                <path d="M-0.31,-13.22 L 0.31 -13.22 0.31 13.22 -0.31 13.22 z" class="primitive"/>
              </g>
              <g transform="translate(50.9,76.13)" id="img-77e14ac0-84">
                <path d="M-0.31,-12.2 L 0.31 -12.2 0.31 12.2 -0.31 12.2 z" class="primitive"/>
              </g>
              <g transform="translate(51.47,79.18)" id="img-77e14ac0-85">
                <path d="M-0.31,-9.15 L 0.31 -9.15 0.31 9.15 -0.31 9.15 z" class="primitive"/>
              </g>
              <g transform="translate(52.05,79.18)" id="img-77e14ac0-86">
                <path d="M-0.31,-9.15 L 0.31 -9.15 0.31 9.15 -0.31 9.15 z" class="primitive"/>
              </g>
              <g transform="translate(52.62,78.16)" id="img-77e14ac0-87">
                <path d="M-0.31,-10.17 L 0.31 -10.17 0.31 10.17 -0.31 10.17 z" class="primitive"/>
              </g>
              <g transform="translate(53.19,80.19)" id="img-77e14ac0-88">
                <path d="M-0.31,-8.13 L 0.31 -8.13 0.31 8.13 -0.31 8.13 z" class="primitive"/>
              </g>
              <g transform="translate(53.77,82.23)" id="img-77e14ac0-89">
                <path d="M-0.31,-6.1 L 0.31 -6.1 0.31 6.1 -0.31 6.1 z" class="primitive"/>
              </g>
              <g transform="translate(54.34,79.18)" id="img-77e14ac0-90">
                <path d="M-0.31,-9.15 L 0.31 -9.15 0.31 9.15 -0.31 9.15 z" class="primitive"/>
              </g>
              <g transform="translate(54.91,76.13)" id="img-77e14ac0-91">
                <path d="M-0.31,-12.2 L 0.31 -12.2 0.31 12.2 -0.31 12.2 z" class="primitive"/>
              </g>
              <g transform="translate(55.49,82.23)" id="img-77e14ac0-92">
                <path d="M-0.31,-6.1 L 0.31 -6.1 0.31 6.1 -0.31 6.1 z" class="primitive"/>
              </g>
              <g transform="translate(56.06,86.29)" id="img-77e14ac0-93">
                <path d="M-0.31,-2.03 L 0.31 -2.03 0.31 2.03 -0.31 2.03 z" class="primitive"/>
              </g>
              <g transform="translate(56.63,81.21)" id="img-77e14ac0-94">
                <path d="M-0.31,-7.12 L 0.31 -7.12 0.31 7.12 -0.31 7.12 z" class="primitive"/>
              </g>
              <g transform="translate(57.21,85.28)" id="img-77e14ac0-95">
                <path d="M-0.31,-3.05 L 0.31 -3.05 0.31 3.05 -0.31 3.05 z" class="primitive"/>
              </g>
              <g transform="translate(57.78,83.24)" id="img-77e14ac0-96">
                <path d="M-0.31,-5.08 L 0.31 -5.08 0.31 5.08 -0.31 5.08 z" class="primitive"/>
              </g>
              <g transform="translate(58.35,85.28)" id="img-77e14ac0-97">
                <path d="M-0.31,-3.05 L 0.31 -3.05 0.31 3.05 -0.31 3.05 z" class="primitive"/>
              </g>
              <g transform="translate(58.93,83.24)" id="img-77e14ac0-98">
                <path d="M-0.31,-5.08 L 0.31 -5.08 0.31 5.08 -0.31 5.08 z" class="primitive"/>
              </g>
              <g transform="translate(59.5,85.28)" id="img-77e14ac0-99">
                <path d="M-0.31,-3.05 L 0.31 -3.05 0.31 3.05 -0.31 3.05 z" class="primitive"/>
              </g>
              <g transform="translate(60.07,87.31)" id="img-77e14ac0-100">
                <path d="M-0.31,-1.02 L 0.31 -1.02 0.31 1.02 -0.31 1.02 z" class="primitive"/>
              </g>
              <g transform="translate(60.65,86.29)" id="img-77e14ac0-101">
                <path d="M-0.31,-2.03 L 0.31 -2.03 0.31 2.03 -0.31 2.03 z" class="primitive"/>
              </g>
              <g transform="translate(61.22,84.26)" id="img-77e14ac0-102">
                <path d="M-0.31,-4.07 L 0.31 -4.07 0.31 4.07 -0.31 4.07 z" class="primitive"/>
              </g>
              <g transform="translate(61.8,85.28)" id="img-77e14ac0-103">
                <path d="M-0.31,-3.05 L 0.31 -3.05 0.31 3.05 -0.31 3.05 z" class="primitive"/>
              </g>
              <g transform="translate(62.37,87.31)" id="img-77e14ac0-104">
                <path d="M-0.31,-1.02 L 0.31 -1.02 0.31 1.02 -0.31 1.02 z" class="primitive"/>
              </g>
              <g transform="translate(62.94,86.29)" id="img-77e14ac0-105">
                <path d="M-0.31,-2.03 L 0.31 -2.03 0.31 2.03 -0.31 2.03 z" class="primitive"/>
              </g>
              <g transform="translate(63.52,87.31)" id="img-77e14ac0-106">
                <path d="M-0.31,-1.02 L 0.31 -1.02 0.31 1.02 -0.31 1.02 z" class="primitive"/>
              </g>
              <g transform="translate(64.09,88.33)" id="img-77e14ac0-107">
                <path d="M-0.31,-0 L 0.31 -0 0.31 0 -0.31 0 z" class="primitive"/>
              </g>
              <g transform="translate(64.66,84.26)" id="img-77e14ac0-108">
                <path d="M-0.31,-4.07 L 0.31 -4.07 0.31 4.07 -0.31 4.07 z" class="primitive"/>
              </g>
              <g transform="translate(65.24,87.31)" id="img-77e14ac0-109">
                <path d="M-0.31,-1.02 L 0.31 -1.02 0.31 1.02 -0.31 1.02 z" class="primitive"/>
              </g>
              <g transform="translate(65.81,88.33)" id="img-77e14ac0-110">
                <path d="M-0.31,-0 L 0.31 -0 0.31 0 -0.31 0 z" class="primitive"/>
              </g>
              <g transform="translate(66.38,88.33)" id="img-77e14ac0-111">
                <path d="M-0.31,-0 L 0.31 -0 0.31 0 -0.31 0 z" class="primitive"/>
              </g>
              <g transform="translate(66.96,86.29)" id="img-77e14ac0-112">
                <path d="M-0.31,-2.03 L 0.31 -2.03 0.31 2.03 -0.31 2.03 z" class="primitive"/>
              </g>
              <g transform="translate(67.53,88.33)" id="img-77e14ac0-113">
                <path d="M-0.31,-0 L 0.31 -0 0.31 0 -0.31 0 z" class="primitive"/>
              </g>
              <g transform="translate(68.1,88.33)" id="img-77e14ac0-114">
                <path d="M-0.31,-0 L 0.31 -0 0.31 0 -0.31 0 z" class="primitive"/>
              </g>
              <g transform="translate(68.68,88.33)" id="img-77e14ac0-115">
                <path d="M-0.31,-0 L 0.31 -0 0.31 0 -0.31 0 z" class="primitive"/>
              </g>
              <g transform="translate(69.25,88.33)" id="img-77e14ac0-116">
                <path d="M-0.31,-0 L 0.31 -0 0.31 0 -0.31 0 z" class="primitive"/>
              </g>
              <g transform="translate(69.82,87.31)" id="img-77e14ac0-117">
                <path d="M-0.31,-1.02 L 0.31 -1.02 0.31 1.02 -0.31 1.02 z" class="primitive"/>
              </g>
              <g transform="translate(70.4,88.33)" id="img-77e14ac0-118">
                <path d="M-0.31,-0 L 0.31 -0 0.31 0 -0.31 0 z" class="primitive"/>
              </g>
              <g transform="translate(70.97,88.33)" id="img-77e14ac0-119">
                <path d="M-0.31,-0 L 0.31 -0 0.31 0 -0.31 0 z" class="primitive"/>
              </g>
              <g transform="translate(71.54,88.33)" id="img-77e14ac0-120">
                <path d="M-0.31,-0 L 0.31 -0 0.31 0 -0.31 0 z" class="primitive"/>
              </g>
              <g transform="translate(72.12,88.33)" id="img-77e14ac0-121">
                <path d="M-0.31,-0 L 0.31 -0 0.31 0 -0.31 0 z" class="primitive"/>
              </g>
              <g transform="translate(72.69,88.33)" id="img-77e14ac0-122">
                <path d="M-0.31,-0 L 0.31 -0 0.31 0 -0.31 0 z" class="primitive"/>
              </g>
              <g transform="translate(73.26,87.31)" id="img-77e14ac0-123">
                <path d="M-0.31,-1.02 L 0.31 -1.02 0.31 1.02 -0.31 1.02 z" class="primitive"/>
              </g>
              <g transform="translate(73.84,88.33)" id="img-77e14ac0-124">
                <path d="M-0.31,-0 L 0.31 -0 0.31 0 -0.31 0 z" class="primitive"/>
              </g>
              <g transform="translate(74.41,88.33)" id="img-77e14ac0-125">
                <path d="M-0.31,-0 L 0.31 -0 0.31 0 -0.31 0 z" class="primitive"/>
              </g>
              <g transform="translate(74.99,88.33)" id="img-77e14ac0-126">
                <path d="M-0.31,-0 L 0.31 -0 0.31 0 -0.31 0 z" class="primitive"/>
              </g>
              <g transform="translate(75.56,88.33)" id="img-77e14ac0-127">
                <path d="M-0.31,-0 L 0.31 -0 0.31 0 -0.31 0 z" class="primitive"/>
              </g>
              <g transform="translate(76.13,88.33)" id="img-77e14ac0-128">
                <path d="M-0.31,-0 L 0.31 -0 0.31 0 -0.31 0 z" class="primitive"/>
              </g>
              <g transform="translate(76.71,88.33)" id="img-77e14ac0-129">
                <path d="M-0.31,-0 L 0.31 -0 0.31 0 -0.31 0 z" class="primitive"/>
              </g>
              <g transform="translate(77.28,87.31)" id="img-77e14ac0-130">
                <path d="M-0.31,-1.02 L 0.31 -1.02 0.31 1.02 -0.31 1.02 z" class="primitive"/>
              </g>
            </g>
          </g>
        </g>
      </g>
    </g>
  </g>
  <g class="guide ylabels" font-size="2.82" font-family="'PT Sans Caption','Helvetica Neue','Helvetica',sans-serif" fill="#6C606B" id="img-77e14ac0-131">
    <g transform="translate(16.96,88.33)" id="img-77e14ac0-132">
      <g class="primitive">
        <text text-anchor="end" dy="0.35em">0</text>
      </g>
    </g>
    <g transform="translate(16.96,68)" id="img-77e14ac0-133">
      <g class="primitive">
        <text text-anchor="end" dy="0.35em">10</text>
      </g>
    </g>
    <g transform="translate(16.96,47.66)" id="img-77e14ac0-134">
      <g class="primitive">
        <text text-anchor="end" dy="0.35em">20</text>
      </g>
    </g>
    <g transform="translate(16.96,27.33)" id="img-77e14ac0-135">
      <g class="primitive">
        <text text-anchor="end" dy="0.35em">30</text>
      </g>
    </g>
    <g transform="translate(16.96,7)" id="img-77e14ac0-136">
      <g class="primitive">
        <text text-anchor="end" dy="0.35em">40</text>
      </g>
    </g>
  </g>
  <g font-size="3.88" font-family="'PT Sans','Helvetica Neue','Helvetica',sans-serif" fill="#564A55" stroke="#000000" stroke-opacity="0.000" id="img-77e14ac0-137">
    <g transform="translate(8.81,45.66)" id="img-77e14ac0-138">
      <g class="primitive">
        <text text-anchor="middle" dy="0.35em" transform="rotate(-90,0, 2)">frequency</text>
      </g>
    </g>
  </g>
</g>
<defs>
  <clipPath id="img-77e14ac0-11">
    <path d="M17.96,5 L 86.87 5 86.87 90.33 17.96 90.33" />
  </clipPath>
</defs>
</svg>
