<?xml version="1.0" encoding="UTF-8"?>
<svg xmlns="http://www.w3.org/2000/svg"
     xmlns:xlink="http://www.w3.org/1999/xlink"
     xmlns:gadfly="http://www.gadflyjl.org/ns"
     version="1.2"
     width="141.42mm" height="100mm" viewBox="0 0 141.42 100"
     stroke="none"
     fill="#000000"
     stroke-width="0.3"
     font-size="3.88"
>
<defs>
  <marker id="arrow" markerWidth="15" markerHeight="7" refX="5" refY="3.5" orient="auto" markerUnits="strokeWidth">
    <path d="M0,0 L15,3.5 L0,7 z" stroke="context-stroke" fill="context-stroke"/>
  </marker>
</defs>
<g class="plotroot xscalable yscalable" id="img-7700f8ef-1">
  <g class="guide xlabels" font-size="2.82" font-family="'PT Sans Caption','Helvetica Neue','Helvetica',sans-serif" fill="#6C606B" id="img-7700f8ef-2">
    <g transform="translate(19.96,81.89)">
      <g class="primitive">
        <text text-anchor="end" dy="0.35em" transform="rotate(-90,0, 0)">0</text>
      </g>
    </g>
    <g transform="translate(28.84,81.89)">
      <g class="primitive">
        <text text-anchor="end" dy="0.35em" transform="rotate(-90,0, 0)">1.0×10³</text>
      </g>
    </g>
    <g transform="translate(37.73,81.89)">
      <g class="primitive">
        <text text-anchor="end" dy="0.35em" transform="rotate(-90,0, 0)">2.0×10³</text>
      </g>
    </g>
    <g transform="translate(46.61,81.89)">
      <g class="primitive">
        <text text-anchor="end" dy="0.35em" transform="rotate(-90,0, 0)">3.0×10³</text>
      </g>
    </g>
    <g transform="translate(55.5,81.89)">
      <g class="primitive">
        <text text-anchor="end" dy="0.35em" transform="rotate(-90,0, 0)">4.0×10³</text>
      </g>
    </g>
    <g transform="translate(64.38,81.89)">
      <g class="primitive">
        <text text-anchor="end" dy="0.35em" transform="rotate(-90,0, 0)">5.0×10³</text>
      </g>
    </g>
    <g transform="translate(73.27,81.89)">
      <g class="primitive">
        <text text-anchor="end" dy="0.35em" transform="rotate(-90,0, 0)">6.0×10³</text>
      </g>
    </g>
  </g>
  <g class="guide colorkey" id="img-7700f8ef-3">
    <g class="color_coding_noncoding_noncoding_noncoding_4-tail" id="img-7700f8ef-4">
      <g fill="#4C404B" font-size="2.82" font-family="'PT Sans','Helvetica Neue','Helvetica',sans-serif" id="img-7700f8ef-5">
        <g transform="translate(79.08,44.76)" id="img-7700f8ef-6">
          <g class="primitive">
            <text dy="0.35em">coding_noncoding_noncoding_noncoding_4-tail</text>
          </g>
        </g>
      </g>
      <g fill-opacity="1" fill="#00BFFF" stroke="#FFFFFF" id="img-7700f8ef-7">
        <g transform="translate(77.17,44.76)" id="img-7700f8ef-8">
          <path d="M-0.91,-0.91 L 0.91 -0.91 0.91 0.91 -0.91 0.91 z" class="primitive"/>
        </g>
      </g>
    </g>
    <g fill="#362A35" font-size="3.88" font-family="'PT Sans','Helvetica Neue','Helvetica',sans-serif" stroke="#000000" stroke-opacity="0.000" id="img-7700f8ef-9">
      <g transform="translate(76.27,40.94)" id="img-7700f8ef-10">
        <g class="primitive">
          <text dy="-0em">graphlet</text>
        </g>
      </g>
    </g>
  </g>
  <g clip-path="url(#img-7700f8ef-11)">
    <g id="img-7700f8ef-12">
      <g pointer-events="visible" stroke-width="0.3" fill="#000000" fill-opacity="0.000" stroke="#000000" stroke-opacity="0.000" class="guide background" id="img-7700f8ef-13">
        <g transform="translate(46.61,42.94)" id="img-7700f8ef-14">
          <path d="M-28.65,-37.94 L 28.65 -37.94 28.65 37.94 -28.65 37.94 z" class="primitive"/>
        </g>
      </g>
      <g class="guide ygridlines xfixed" stroke-dasharray="0.5,0.5" stroke-width="0.2" stroke="#D0D0E0" id="img-7700f8ef-15">
        <g transform="translate(46.61,78.89)" id="img-7700f8ef-16">
          <path fill="none" d="M-28.65,0 L 28.65 0" class="primitive"/>
        </g>
        <g transform="translate(46.61,60.92)" id="img-7700f8ef-17">
          <path fill="none" d="M-28.65,0 L 28.65 0" class="primitive"/>
        </g>
        <g transform="translate(46.61,42.94)" id="img-7700f8ef-18">
          <path fill="none" d="M-28.65,0 L 28.65 0" class="primitive"/>
        </g>
        <g transform="translate(46.61,24.97)" id="img-7700f8ef-19">
          <path fill="none" d="M-28.65,0 L 28.65 0" class="primitive"/>
        </g>
        <g transform="translate(46.61,7)" id="img-7700f8ef-20">
          <path fill="none" d="M-28.65,0 L 28.65 0" class="primitive"/>
        </g>
      </g>
      <g class="guide xgridlines yfixed" stroke-dasharray="0.5,0.5" stroke-width="0.2" stroke="#D0D0E0" id="img-7700f8ef-21">
        <g transform="translate(19.96,42.94)" id="img-7700f8ef-22">
          <path fill="none" d="M0,-37.94 L 0 37.94" class="primitive"/>
        </g>
        <g transform="translate(28.84,42.94)" id="img-7700f8ef-23">
          <path fill="none" d="M0,-37.94 L 0 37.94" class="primitive"/>
        </g>
        <g transform="translate(37.73,42.94)" id="img-7700f8ef-24">
          <path fill="none" d="M0,-37.94 L 0 37.94" class="primitive"/>
        </g>
        <g transform="translate(46.61,42.94)" id="img-7700f8ef-25">
          <path fill="none" d="M0,-37.94 L 0 37.94" class="primitive"/>
        </g>
        <g transform="translate(55.5,42.94)" id="img-7700f8ef-26">
          <path fill="none" d="M0,-37.94 L 0 37.94" class="primitive"/>
        </g>
        <g transform="translate(64.38,42.94)" id="img-7700f8ef-27">
          <path fill="none" d="M0,-37.94 L 0 37.94" class="primitive"/>
        </g>
        <g transform="translate(73.27,42.94)" id="img-7700f8ef-28">
          <path fill="none" d="M0,-37.94 L 0 37.94" class="primitive"/>
        </g>
      </g>
      <g class="plotpanel" id="img-7700f8ef-29">
        <metadata>
          <boundingbox value="17.958333333333336mm 5.0mm 57.30968957064284mm 75.88666666666667mm"/>
          <unitbox value="-225.09979136341263 41.112862839655016 6450.199582726825 -42.225725679310024"/>
        </metadata>
        <g shape-rendering="crispEdges" stroke-width="0.3" id="img-7700f8ef-30">
          <g stroke="#000000" stroke-opacity="0.000" class="geometry" id="img-7700f8ef-31">
            <g fill="#00BFFF" id="img-7700f8ef-32">
              <g transform="translate(26.11,77.09)" id="img-7700f8ef-33">
                <path d="M-0.22,-1.8 L 0.22 -1.8 0.22 1.8 -0.22 1.8 z" class="primitive"/>
              </g>
              <g transform="translate(26.5,78.89)" id="img-7700f8ef-34">
                <path d="M-0.22,-0 L 0.22 -0 0.22 0 -0.22 0 z" class="primitive"/>
              </g>
              <g transform="translate(26.9,77.99)" id="img-7700f8ef-35">
                <path d="M-0.22,-0.9 L 0.22 -0.9 0.22 0.9 -0.22 0.9 z" class="primitive"/>
              </g>
              <g transform="translate(27.29,77.99)" id="img-7700f8ef-36">
                <path d="M-0.22,-0.9 L 0.22 -0.9 0.22 0.9 -0.22 0.9 z" class="primitive"/>
              </g>
              <g transform="translate(27.68,76.19)" id="img-7700f8ef-37">
                <path d="M-0.22,-2.7 L 0.22 -2.7 0.22 2.7 -0.22 2.7 z" class="primitive"/>
              </g>
              <g transform="translate(28.08,77.99)" id="img-7700f8ef-38">
                <path d="M-0.22,-0.9 L 0.22 -0.9 0.22 0.9 -0.22 0.9 z" class="primitive"/>
              </g>
              <g transform="translate(28.47,76.19)" id="img-7700f8ef-39">
                <path d="M-0.22,-2.7 L 0.22 -2.7 0.22 2.7 -0.22 2.7 z" class="primitive"/>
              </g>
              <g transform="translate(28.86,73.5)" id="img-7700f8ef-40">
                <path d="M-0.22,-5.39 L 0.22 -5.39 0.22 5.39 -0.22 5.39 z" class="primitive"/>
              </g>
              <g transform="translate(29.26,72.6)" id="img-7700f8ef-41">
                <path d="M-0.22,-6.29 L 0.22 -6.29 0.22 6.29 -0.22 6.29 z" class="primitive"/>
              </g>
              <g transform="translate(29.65,70.8)" id="img-7700f8ef-42">
                <path d="M-0.22,-8.09 L 0.22 -8.09 0.22 8.09 -0.22 8.09 z" class="primitive"/>
              </g>
              <g transform="translate(30.04,67.21)" id="img-7700f8ef-43">
                <path d="M-0.22,-11.68 L 0.22 -11.68 0.22 11.68 -0.22 11.68 z" class="primitive"/>
              </g>
              <g transform="translate(30.44,68.1)" id="img-7700f8ef-44">
                <path d="M-0.22,-10.78 L 0.22 -10.78 0.22 10.78 -0.22 10.78 z" class="primitive"/>
              </g>
              <g transform="translate(30.83,69.9)" id="img-7700f8ef-45">
                <path d="M-0.22,-8.99 L 0.22 -8.99 0.22 8.99 -0.22 8.99 z" class="primitive"/>
              </g>
              <g transform="translate(31.22,66.31)" id="img-7700f8ef-46">
                <path d="M-0.22,-12.58 L 0.22 -12.58 0.22 12.58 -0.22 12.58 z" class="primitive"/>
              </g>
              <g transform="translate(31.62,66.31)" id="img-7700f8ef-47">
                <path d="M-0.22,-12.58 L 0.22 -12.58 0.22 12.58 -0.22 12.58 z" class="primitive"/>
              </g>
              <g transform="translate(32.01,54.62)" id="img-7700f8ef-48">
                <path d="M-0.22,-24.26 L 0.22 -24.26 0.22 24.26 -0.22 24.26 z" class="primitive"/>
              </g>
              <g transform="translate(32.4,54.62)" id="img-7700f8ef-49">
                <path d="M-0.22,-24.26 L 0.22 -24.26 0.22 24.26 -0.22 24.26 z" class="primitive"/>
              </g>
              <g transform="translate(32.8,55.52)" id="img-7700f8ef-50">
                <path d="M-0.22,-23.36 L 0.22 -23.36 0.22 23.36 -0.22 23.36 z" class="primitive"/>
              </g>
              <g transform="translate(33.19,58.22)" id="img-7700f8ef-51">
                <path d="M-0.22,-20.67 L 0.22 -20.67 0.22 20.67 -0.22 20.67 z" class="primitive"/>
              </g>
              <g transform="translate(33.58,53.73)" id="img-7700f8ef-52">
                <path d="M-0.22,-25.16 L 0.22 -25.16 0.22 25.16 -0.22 25.16 z" class="primitive"/>
              </g>
              <g transform="translate(33.98,50.13)" id="img-7700f8ef-53">
                <path d="M-0.22,-28.75 L 0.22 -28.75 0.22 28.75 -0.22 28.75 z" class="primitive"/>
              </g>
              <g transform="translate(34.37,61.81)" id="img-7700f8ef-54">
                <path d="M-0.22,-17.07 L 0.22 -17.07 0.22 17.07 -0.22 17.07 z" class="primitive"/>
              </g>
              <g transform="translate(34.77,52.83)" id="img-7700f8ef-55">
                <path d="M-0.22,-26.06 L 0.22 -26.06 0.22 26.06 -0.22 26.06 z" class="primitive"/>
              </g>
              <g transform="translate(35.16,52.83)" id="img-7700f8ef-56">
                <path d="M-0.22,-26.06 L 0.22 -26.06 0.22 26.06 -0.22 26.06 z" class="primitive"/>
              </g>
              <g transform="translate(35.55,54.62)" id="img-7700f8ef-57">
                <path d="M-0.22,-24.26 L 0.22 -24.26 0.22 24.26 -0.22 24.26 z" class="primitive"/>
              </g>
              <g transform="translate(35.95,49.23)" id="img-7700f8ef-58">
                <path d="M-0.22,-29.65 L 0.22 -29.65 0.22 29.65 -0.22 29.65 z" class="primitive"/>
              </g>
              <g transform="translate(36.34,47.44)" id="img-7700f8ef-59">
                <path d="M-0.22,-31.45 L 0.22 -31.45 0.22 31.45 -0.22 31.45 z" class="primitive"/>
              </g>
              <g transform="translate(36.73,54.62)" id="img-7700f8ef-60">
                <path d="M-0.22,-24.26 L 0.22 -24.26 0.22 24.26 -0.22 24.26 z" class="primitive"/>
              </g>
              <g transform="translate(37.13,51.93)" id="img-7700f8ef-61">
                <path d="M-0.22,-26.96 L 0.22 -26.96 0.22 26.96 -0.22 26.96 z" class="primitive"/>
              </g>
              <g transform="translate(37.52,57.32)" id="img-7700f8ef-62">
                <path d="M-0.22,-21.57 L 0.22 -21.57 0.22 21.57 -0.22 21.57 z" class="primitive"/>
              </g>
              <g transform="translate(37.91,54.62)" id="img-7700f8ef-63">
                <path d="M-0.22,-24.26 L 0.22 -24.26 0.22 24.26 -0.22 24.26 z" class="primitive"/>
              </g>
              <g transform="translate(38.31,53.73)" id="img-7700f8ef-64">
                <path d="M-0.22,-25.16 L 0.22 -25.16 0.22 25.16 -0.22 25.16 z" class="primitive"/>
              </g>
              <g transform="translate(38.7,63.61)" id="img-7700f8ef-65">
                <path d="M-0.22,-15.28 L 0.22 -15.28 0.22 15.28 -0.22 15.28 z" class="primitive"/>
              </g>
              <g transform="translate(39.09,55.52)" id="img-7700f8ef-66">
                <path d="M-0.22,-23.36 L 0.22 -23.36 0.22 23.36 -0.22 23.36 z" class="primitive"/>
              </g>
              <g transform="translate(39.49,55.52)" id="img-7700f8ef-67">
                <path d="M-0.22,-23.36 L 0.22 -23.36 0.22 23.36 -0.22 23.36 z" class="primitive"/>
              </g>
              <g transform="translate(39.88,64.51)" id="img-7700f8ef-68">
                <path d="M-0.22,-14.38 L 0.22 -14.38 0.22 14.38 -0.22 14.38 z" class="primitive"/>
              </g>
              <g transform="translate(40.27,62.71)" id="img-7700f8ef-69">
                <path d="M-0.22,-16.17 L 0.22 -16.17 0.22 16.17 -0.22 16.17 z" class="primitive"/>
              </g>
              <g transform="translate(40.67,56.42)" id="img-7700f8ef-70">
                <path d="M-0.22,-22.46 L 0.22 -22.46 0.22 22.46 -0.22 22.46 z" class="primitive"/>
              </g>
              <g transform="translate(41.06,56.42)" id="img-7700f8ef-71">
                <path d="M-0.22,-22.46 L 0.22 -22.46 0.22 22.46 -0.22 22.46 z" class="primitive"/>
              </g>
              <g transform="translate(41.46,61.81)" id="img-7700f8ef-72">
                <path d="M-0.22,-17.07 L 0.22 -17.07 0.22 17.07 -0.22 17.07 z" class="primitive"/>
              </g>
              <g transform="translate(41.85,63.61)" id="img-7700f8ef-73">
                <path d="M-0.22,-15.28 L 0.22 -15.28 0.22 15.28 -0.22 15.28 z" class="primitive"/>
              </g>
              <g transform="translate(42.24,63.61)" id="img-7700f8ef-74">
                <path d="M-0.22,-15.28 L 0.22 -15.28 0.22 15.28 -0.22 15.28 z" class="primitive"/>
              </g>
              <g transform="translate(42.64,68.1)" id="img-7700f8ef-75">
                <path d="M-0.22,-10.78 L 0.22 -10.78 0.22 10.78 -0.22 10.78 z" class="primitive"/>
              </g>
              <g transform="translate(43.03,67.21)" id="img-7700f8ef-76">
                <path d="M-0.22,-11.68 L 0.22 -11.68 0.22 11.68 -0.22 11.68 z" class="primitive"/>
              </g>
              <g transform="translate(43.42,68.1)" id="img-7700f8ef-77">
                <path d="M-0.22,-10.78 L 0.22 -10.78 0.22 10.78 -0.22 10.78 z" class="primitive"/>
              </g>
              <g transform="translate(43.82,63.61)" id="img-7700f8ef-78">
                <path d="M-0.22,-15.28 L 0.22 -15.28 0.22 15.28 -0.22 15.28 z" class="primitive"/>
              </g>
              <g transform="translate(44.21,67.21)" id="img-7700f8ef-79">
                <path d="M-0.22,-11.68 L 0.22 -11.68 0.22 11.68 -0.22 11.68 z" class="primitive"/>
              </g>
              <g transform="translate(44.6,71.7)" id="img-7700f8ef-80">
                <path d="M-0.22,-7.19 L 0.22 -7.19 0.22 7.19 -0.22 7.19 z" class="primitive"/>
              </g>
              <g transform="translate(45,69)" id="img-7700f8ef-81">
                <path d="M-0.22,-9.88 L 0.22 -9.88 0.22 9.88 -0.22 9.88 z" class="primitive"/>
              </g>
              <g transform="translate(45.39,70.8)" id="img-7700f8ef-82">
                <path d="M-0.22,-8.09 L 0.22 -8.09 0.22 8.09 -0.22 8.09 z" class="primitive"/>
              </g>
              <g transform="translate(45.78,71.7)" id="img-7700f8ef-83">
                <path d="M-0.22,-7.19 L 0.22 -7.19 0.22 7.19 -0.22 7.19 z" class="primitive"/>
              </g>
              <g transform="translate(46.18,66.31)" id="img-7700f8ef-84">
                <path d="M-0.22,-12.58 L 0.22 -12.58 0.22 12.58 -0.22 12.58 z" class="primitive"/>
              </g>
              <g transform="translate(46.57,68.1)" id="img-7700f8ef-85">
                <path d="M-0.22,-10.78 L 0.22 -10.78 0.22 10.78 -0.22 10.78 z" class="primitive"/>
              </g>
              <g transform="translate(46.96,69)" id="img-7700f8ef-86">
                <path d="M-0.22,-9.88 L 0.22 -9.88 0.22 9.88 -0.22 9.88 z" class="primitive"/>
              </g>
              <g transform="translate(47.36,74.39)" id="img-7700f8ef-87">
                <path d="M-0.22,-4.49 L 0.22 -4.49 0.22 4.49 -0.22 4.49 z" class="primitive"/>
              </g>
              <g transform="translate(47.75,70.8)" id="img-7700f8ef-88">
                <path d="M-0.22,-8.09 L 0.22 -8.09 0.22 8.09 -0.22 8.09 z" class="primitive"/>
              </g>
              <g transform="translate(48.14,72.6)" id="img-7700f8ef-89">
                <path d="M-0.22,-6.29 L 0.22 -6.29 0.22 6.29 -0.22 6.29 z" class="primitive"/>
              </g>
              <g transform="translate(48.54,75.29)" id="img-7700f8ef-90">
                <path d="M-0.22,-3.59 L 0.22 -3.59 0.22 3.59 -0.22 3.59 z" class="primitive"/>
              </g>
              <g transform="translate(48.93,74.39)" id="img-7700f8ef-91">
                <path d="M-0.22,-4.49 L 0.22 -4.49 0.22 4.49 -0.22 4.49 z" class="primitive"/>
              </g>
              <g transform="translate(49.33,74.39)" id="img-7700f8ef-92">
                <path d="M-0.22,-4.49 L 0.22 -4.49 0.22 4.49 -0.22 4.49 z" class="primitive"/>
              </g>
              <g transform="translate(49.72,75.29)" id="img-7700f8ef-93">
                <path d="M-0.22,-3.59 L 0.22 -3.59 0.22 3.59 -0.22 3.59 z" class="primitive"/>
              </g>
              <g transform="translate(50.11,76.19)" id="img-7700f8ef-94">
                <path d="M-0.22,-2.7 L 0.22 -2.7 0.22 2.7 -0.22 2.7 z" class="primitive"/>
              </g>
              <g transform="translate(50.51,69.9)" id="img-7700f8ef-95">
                <path d="M-0.22,-8.99 L 0.22 -8.99 0.22 8.99 -0.22 8.99 z" class="primitive"/>
              </g>
              <g transform="translate(50.9,74.39)" id="img-7700f8ef-96">
                <path d="M-0.22,-4.49 L 0.22 -4.49 0.22 4.49 -0.22 4.49 z" class="primitive"/>
              </g>
              <g transform="translate(51.29,77.09)" id="img-7700f8ef-97">
                <path d="M-0.22,-1.8 L 0.22 -1.8 0.22 1.8 -0.22 1.8 z" class="primitive"/>
              </g>
              <g transform="translate(51.69,75.29)" id="img-7700f8ef-98">
                <path d="M-0.22,-3.59 L 0.22 -3.59 0.22 3.59 -0.22 3.59 z" class="primitive"/>
              </g>
              <g transform="translate(52.08,76.19)" id="img-7700f8ef-99">
                <path d="M-0.22,-2.7 L 0.22 -2.7 0.22 2.7 -0.22 2.7 z" class="primitive"/>
              </g>
              <g transform="translate(52.47,78.89)" id="img-7700f8ef-100">
                <path d="M-0.22,-0 L 0.22 -0 0.22 0 -0.22 0 z" class="primitive"/>
              </g>
              <g transform="translate(52.87,77.09)" id="img-7700f8ef-101">
                <path d="M-0.22,-1.8 L 0.22 -1.8 0.22 1.8 -0.22 1.8 z" class="primitive"/>
              </g>
              <g transform="translate(53.26,75.29)" id="img-7700f8ef-102">
                <path d="M-0.22,-3.59 L 0.22 -3.59 0.22 3.59 -0.22 3.59 z" class="primitive"/>
              </g>
              <g transform="translate(53.65,77.99)" id="img-7700f8ef-103">
                <path d="M-0.22,-0.9 L 0.22 -0.9 0.22 0.9 -0.22 0.9 z" class="primitive"/>
              </g>
              <g transform="translate(54.05,76.19)" id="img-7700f8ef-104">
                <path d="M-0.22,-2.7 L 0.22 -2.7 0.22 2.7 -0.22 2.7 z" class="primitive"/>
              </g>
              <g transform="translate(54.44,77.99)" id="img-7700f8ef-105">
                <path d="M-0.22,-0.9 L 0.22 -0.9 0.22 0.9 -0.22 0.9 z" class="primitive"/>
              </g>
              <g transform="translate(54.83,78.89)" id="img-7700f8ef-106">
                <path d="M-0.22,-0 L 0.22 -0 0.22 0 -0.22 0 z" class="primitive"/>
              </g>
              <g transform="translate(55.23,78.89)" id="img-7700f8ef-107">
                <path d="M-0.22,-0 L 0.22 -0 0.22 0 -0.22 0 z" class="primitive"/>
              </g>
              <g transform="translate(55.62,78.89)" id="img-7700f8ef-108">
                <path d="M-0.22,-0 L 0.22 -0 0.22 0 -0.22 0 z" class="primitive"/>
              </g>
              <g transform="translate(56.02,77.09)" id="img-7700f8ef-109">
                <path d="M-0.22,-1.8 L 0.22 -1.8 0.22 1.8 -0.22 1.8 z" class="primitive"/>
              </g>
              <g transform="translate(56.41,78.89)" id="img-7700f8ef-110">
                <path d="M-0.22,-0 L 0.22 -0 0.22 0 -0.22 0 z" class="primitive"/>
              </g>
              <g transform="translate(56.8,78.89)" id="img-7700f8ef-111">
                <path d="M-0.22,-0 L 0.22 -0 0.22 0 -0.22 0 z" class="primitive"/>
              </g>
              <g transform="translate(57.2,77.99)" id="img-7700f8ef-112">
                <path d="M-0.22,-0.9 L 0.22 -0.9 0.22 0.9 -0.22 0.9 z" class="primitive"/>
              </g>
              <g transform="translate(57.59,78.89)" id="img-7700f8ef-113">
                <path d="M-0.22,-0 L 0.22 -0 0.22 0 -0.22 0 z" class="primitive"/>
              </g>
              <g transform="translate(57.98,77.99)" id="img-7700f8ef-114">
                <path d="M-0.22,-0.9 L 0.22 -0.9 0.22 0.9 -0.22 0.9 z" class="primitive"/>
              </g>
              <g transform="translate(58.38,78.89)" id="img-7700f8ef-115">
                <path d="M-0.22,-0 L 0.22 -0 0.22 0 -0.22 0 z" class="primitive"/>
              </g>
              <g transform="translate(58.77,78.89)" id="img-7700f8ef-116">
                <path d="M-0.22,-0 L 0.22 -0 0.22 0 -0.22 0 z" class="primitive"/>
              </g>
              <g transform="translate(59.16,77.99)" id="img-7700f8ef-117">
                <path d="M-0.22,-0.9 L 0.22 -0.9 0.22 0.9 -0.22 0.9 z" class="primitive"/>
              </g>
              <g transform="translate(59.56,77.99)" id="img-7700f8ef-118">
                <path d="M-0.22,-0.9 L 0.22 -0.9 0.22 0.9 -0.22 0.9 z" class="primitive"/>
              </g>
              <g transform="translate(59.95,78.89)" id="img-7700f8ef-119">
                <path d="M-0.22,-0 L 0.22 -0 0.22 0 -0.22 0 z" class="primitive"/>
              </g>
              <g transform="translate(60.34,77.99)" id="img-7700f8ef-120">
                <path d="M-0.22,-0.9 L 0.22 -0.9 0.22 0.9 -0.22 0.9 z" class="primitive"/>
              </g>
              <g transform="translate(60.74,78.89)" id="img-7700f8ef-121">
                <path d="M-0.22,-0 L 0.22 -0 0.22 0 -0.22 0 z" class="primitive"/>
              </g>
              <g transform="translate(61.13,78.89)" id="img-7700f8ef-122">
                <path d="M-0.22,-0 L 0.22 -0 0.22 0 -0.22 0 z" class="primitive"/>
              </g>
              <g transform="translate(61.52,78.89)" id="img-7700f8ef-123">
                <path d="M-0.22,-0 L 0.22 -0 0.22 0 -0.22 0 z" class="primitive"/>
              </g>
              <g transform="translate(61.92,78.89)" id="img-7700f8ef-124">
                <path d="M-0.22,-0 L 0.22 -0 0.22 0 -0.22 0 z" class="primitive"/>
              </g>
              <g transform="translate(62.31,78.89)" id="img-7700f8ef-125">
                <path d="M-0.22,-0 L 0.22 -0 0.22 0 -0.22 0 z" class="primitive"/>
              </g>
              <g transform="translate(62.7,78.89)" id="img-7700f8ef-126">
                <path d="M-0.22,-0 L 0.22 -0 0.22 0 -0.22 0 z" class="primitive"/>
              </g>
              <g transform="translate(63.1,78.89)" id="img-7700f8ef-127">
                <path d="M-0.22,-0 L 0.22 -0 0.22 0 -0.22 0 z" class="primitive"/>
              </g>
              <g transform="translate(63.49,77.99)" id="img-7700f8ef-128">
                <path d="M-0.22,-0.9 L 0.22 -0.9 0.22 0.9 -0.22 0.9 z" class="primitive"/>
              </g>
              <g transform="translate(63.89,78.89)" id="img-7700f8ef-129">
                <path d="M-0.22,-0 L 0.22 -0 0.22 0 -0.22 0 z" class="primitive"/>
              </g>
              <g transform="translate(64.28,78.89)" id="img-7700f8ef-130">
                <path d="M-0.22,-0 L 0.22 -0 0.22 0 -0.22 0 z" class="primitive"/>
              </g>
              <g transform="translate(64.67,78.89)" id="img-7700f8ef-131">
                <path d="M-0.22,-0 L 0.22 -0 0.22 0 -0.22 0 z" class="primitive"/>
              </g>
              <g transform="translate(65.07,77.09)" id="img-7700f8ef-132">
                <path d="M-0.22,-1.8 L 0.22 -1.8 0.22 1.8 -0.22 1.8 z" class="primitive"/>
              </g>
            </g>
          </g>
        </g>
      </g>
    </g>
  </g>
  <g class="guide ylabels" font-size="2.82" font-family="'PT Sans Caption','Helvetica Neue','Helvetica',sans-serif" fill="#6C606B" id="img-7700f8ef-133">
    <g transform="translate(16.96,78.89)" id="img-7700f8ef-134">
      <g class="primitive">
        <text text-anchor="end" dy="0.35em">0</text>
      </g>
    </g>
    <g transform="translate(16.96,60.92)" id="img-7700f8ef-135">
      <g class="primitive">
        <text text-anchor="end" dy="0.35em">10</text>
      </g>
    </g>
    <g transform="translate(16.96,42.94)" id="img-7700f8ef-136">
      <g class="primitive">
        <text text-anchor="end" dy="0.35em">20</text>
      </g>
    </g>
    <g transform="translate(16.96,24.97)" id="img-7700f8ef-137">
      <g class="primitive">
        <text text-anchor="end" dy="0.35em">30</text>
      </g>
    </g>
    <g transform="translate(16.96,7)" id="img-7700f8ef-138">
      <g class="primitive">
        <text text-anchor="end" dy="0.35em">40</text>
      </g>
    </g>
  </g>
  <g font-size="3.88" font-family="'PT Sans','Helvetica Neue','Helvetica',sans-serif" fill="#564A55" stroke="#000000" stroke-opacity="0.000" id="img-7700f8ef-139">
    <g transform="translate(8.81,40.94)" id="img-7700f8ef-140">
      <g class="primitive">
        <text text-anchor="middle" dy="0.35em" transform="rotate(-90,0, 2)">frequency</text>
      </g>
    </g>
  </g>
</g>
<defs>
  <clipPath id="img-7700f8ef-11">
    <path d="M17.96,5 L 75.27 5 75.27 80.89 17.96 80.89" />
  </clipPath>
</defs>
</svg>
