<?xml version="1.0" encoding="UTF-8"?>
<svg xmlns="http://www.w3.org/2000/svg"
     xmlns:xlink="http://www.w3.org/1999/xlink"
     xmlns:gadfly="http://www.gadflyjl.org/ns"
     version="1.2"
     width="141.42mm" height="100mm" viewBox="0 0 141.42 100"
     stroke="none"
     fill="#000000"
     stroke-width="0.3"
     font-size="3.88"
>
<defs>
  <marker id="arrow" markerWidth="15" markerHeight="7" refX="5" refY="3.5" orient="auto" markerUnits="strokeWidth">
    <path d="M0,0 L15,3.5 L0,7 z" stroke="context-stroke" fill="context-stroke"/>
  </marker>
</defs>
<g class="plotroot xscalable yscalable" id="img-143f02b1-1">
  <g class="guide xlabels" font-size="2.82" font-family="'PT Sans Caption','Helvetica Neue','Helvetica',sans-serif" fill="#6C606B" id="img-143f02b1-2">
    <g transform="translate(19.96,91.33)">
      <g class="primitive">
        <text text-anchor="middle" dy="0.6em">3500</text>
      </g>
    </g>
    <g transform="translate(31.78,91.33)">
      <g class="primitive">
        <text text-anchor="middle" dy="0.6em">4000</text>
      </g>
    </g>
    <g transform="translate(43.6,91.33)">
      <g class="primitive">
        <text text-anchor="middle" dy="0.6em">4500</text>
      </g>
    </g>
    <g transform="translate(55.43,91.33)">
      <g class="primitive">
        <text text-anchor="middle" dy="0.6em">5000</text>
      </g>
    </g>
    <g transform="translate(67.25,91.33)">
      <g class="primitive">
        <text text-anchor="middle" dy="0.6em">5500</text>
      </g>
    </g>
    <g transform="translate(79.07,91.33)">
      <g class="primitive">
        <text text-anchor="middle" dy="0.6em">6000</text>
      </g>
    </g>
  </g>
  <g class="guide colorkey" id="img-143f02b1-3">
    <g class="color_coding_coding_coding_noncoding_4-clique" id="img-143f02b1-4">
      <g fill="#4C404B" font-size="2.82" font-family="'PT Sans','Helvetica Neue','Helvetica',sans-serif" id="img-143f02b1-5">
        <g transform="translate(84.89,49.48)" id="img-143f02b1-6">
          <g class="primitive">
            <text dy="0.35em">coding_coding_coding_noncoding_4-clique</text>
          </g>
        </g>
      </g>
      <g fill-opacity="1" fill="#00BFFF" stroke="#FFFFFF" id="img-143f02b1-7">
        <g transform="translate(82.98,49.48)" id="img-143f02b1-8">
          <path d="M-0.91,-0.91 L 0.91 -0.91 0.91 0.91 -0.91 0.91 z" class="primitive"/>
        </g>
      </g>
    </g>
    <g fill="#362A35" font-size="3.88" font-family="'PT Sans','Helvetica Neue','Helvetica',sans-serif" stroke="#000000" stroke-opacity="0.000" id="img-143f02b1-9">
      <g transform="translate(82.07,45.66)" id="img-143f02b1-10">
        <g class="primitive">
          <text dy="-0em">graphlet</text>
        </g>
      </g>
    </g>
  </g>
  <g clip-path="url(#img-143f02b1-11)">
    <g id="img-143f02b1-12">
      <g pointer-events="visible" stroke-width="0.3" fill="#000000" fill-opacity="0.000" stroke="#000000" stroke-opacity="0.000" class="guide background" id="img-143f02b1-13">
        <g transform="translate(49.52,47.66)" id="img-143f02b1-14">
          <path d="M-31.56,-42.66 L 31.56 -42.66 31.56 42.66 -31.56 42.66 z" class="primitive"/>
        </g>
      </g>
      <g class="guide ygridlines xfixed" stroke-dasharray="0.5,0.5" stroke-width="0.2" stroke="#D0D0E0" id="img-143f02b1-15">
        <g transform="translate(49.52,88.33)" id="img-143f02b1-16">
          <path fill="none" d="M-31.56,0 L 31.56 0" class="primitive"/>
        </g>
        <g transform="translate(49.52,68)" id="img-143f02b1-17">
          <path fill="none" d="M-31.56,0 L 31.56 0" class="primitive"/>
        </g>
        <g transform="translate(49.52,47.66)" id="img-143f02b1-18">
          <path fill="none" d="M-31.56,0 L 31.56 0" class="primitive"/>
        </g>
        <g transform="translate(49.52,27.33)" id="img-143f02b1-19">
          <path fill="none" d="M-31.56,0 L 31.56 0" class="primitive"/>
        </g>
        <g transform="translate(49.52,7)" id="img-143f02b1-20">
          <path fill="none" d="M-31.56,0 L 31.56 0" class="primitive"/>
        </g>
      </g>
      <g class="guide xgridlines yfixed" stroke-dasharray="0.5,0.5" stroke-width="0.2" stroke="#D0D0E0" id="img-143f02b1-21">
        <g transform="translate(19.96,47.66)" id="img-143f02b1-22">
          <path fill="none" d="M0,-42.66 L 0 42.66" class="primitive"/>
        </g>
        <g transform="translate(31.78,47.66)" id="img-143f02b1-23">
          <path fill="none" d="M0,-42.66 L 0 42.66" class="primitive"/>
        </g>
        <g transform="translate(43.6,47.66)" id="img-143f02b1-24">
          <path fill="none" d="M0,-42.66 L 0 42.66" class="primitive"/>
        </g>
        <g transform="translate(55.43,47.66)" id="img-143f02b1-25">
          <path fill="none" d="M0,-42.66 L 0 42.66" class="primitive"/>
        </g>
        <g transform="translate(67.25,47.66)" id="img-143f02b1-26">
          <path fill="none" d="M0,-42.66 L 0 42.66" class="primitive"/>
        </g>
        <g transform="translate(79.07,47.66)" id="img-143f02b1-27">
          <path fill="none" d="M0,-42.66 L 0 42.66" class="primitive"/>
        </g>
      </g>
      <g class="plotpanel" id="img-143f02b1-28">
        <metadata>
          <boundingbox value="17.958333333333336mm 5.0mm 63.11635623730951mm 85.32666666666667mm"/>
          <unitbox value="3415.421038808133 40.98368718747438 2669.157922383735 -41.96737437494876"/>
        </metadata>
        <g shape-rendering="crispEdges" stroke-width="0.3" id="img-143f02b1-29">
          <g stroke="#000000" stroke-opacity="0.000" class="geometry" id="img-143f02b1-30">
            <g fill="#00BFFF" id="img-143f02b1-31">
              <g transform="translate(25.14,87.31)" id="img-143f02b1-32">
                <path d="M-0.27,-1.02 L 0.27 -1.02 0.27 1.02 -0.27 1.02 z" class="primitive"/>
              </g>
              <g transform="translate(25.63,87.31)" id="img-143f02b1-33">
                <path d="M-0.27,-1.02 L 0.27 -1.02 0.27 1.02 -0.27 1.02 z" class="primitive"/>
              </g>
              <g transform="translate(26.11,88.33)" id="img-143f02b1-34">
                <path d="M-0.27,-0 L 0.27 -0 0.27 0 -0.27 0 z" class="primitive"/>
              </g>
              <g transform="translate(26.6,88.33)" id="img-143f02b1-35">
                <path d="M-0.27,-0 L 0.27 -0 0.27 0 -0.27 0 z" class="primitive"/>
              </g>
              <g transform="translate(27.09,88.33)" id="img-143f02b1-36">
                <path d="M-0.27,-0 L 0.27 -0 0.27 0 -0.27 0 z" class="primitive"/>
              </g>
              <g transform="translate(27.57,87.31)" id="img-143f02b1-37">
                <path d="M-0.27,-1.02 L 0.27 -1.02 0.27 1.02 -0.27 1.02 z" class="primitive"/>
              </g>
              <g transform="translate(28.06,88.33)" id="img-143f02b1-38">
                <path d="M-0.27,-0 L 0.27 -0 0.27 0 -0.27 0 z" class="primitive"/>
              </g>
              <g transform="translate(28.54,87.31)" id="img-143f02b1-39">
                <path d="M-0.27,-1.02 L 0.27 -1.02 0.27 1.02 -0.27 1.02 z" class="primitive"/>
              </g>
              <g transform="translate(29.03,88.33)" id="img-143f02b1-40">
                <path d="M-0.27,-0 L 0.27 -0 0.27 0 -0.27 0 z" class="primitive"/>
              </g>
              <g transform="translate(29.51,88.33)" id="img-143f02b1-41">
                <path d="M-0.27,-0 L 0.27 -0 0.27 0 -0.27 0 z" class="primitive"/>
              </g>
              <g transform="translate(30,87.31)" id="img-143f02b1-42">
                <path d="M-0.27,-1.02 L 0.27 -1.02 0.27 1.02 -0.27 1.02 z" class="primitive"/>
              </g>
              <g transform="translate(30.49,87.31)" id="img-143f02b1-43">
                <path d="M-0.27,-1.02 L 0.27 -1.02 0.27 1.02 -0.27 1.02 z" class="primitive"/>
              </g>
              <g transform="translate(30.97,86.29)" id="img-143f02b1-44">
                <path d="M-0.27,-2.03 L 0.27 -2.03 0.27 2.03 -0.27 2.03 z" class="primitive"/>
              </g>
              <g transform="translate(31.46,86.29)" id="img-143f02b1-45">
                <path d="M-0.27,-2.03 L 0.27 -2.03 0.27 2.03 -0.27 2.03 z" class="primitive"/>
              </g>
              <g transform="translate(31.94,88.33)" id="img-143f02b1-46">
                <path d="M-0.27,-0 L 0.27 -0 0.27 0 -0.27 0 z" class="primitive"/>
              </g>
              <g transform="translate(32.43,87.31)" id="img-143f02b1-47">
                <path d="M-0.27,-1.02 L 0.27 -1.02 0.27 1.02 -0.27 1.02 z" class="primitive"/>
              </g>
              <g transform="translate(32.91,87.31)" id="img-143f02b1-48">
                <path d="M-0.27,-1.02 L 0.27 -1.02 0.27 1.02 -0.27 1.02 z" class="primitive"/>
              </g>
              <g transform="translate(33.4,87.31)" id="img-143f02b1-49">
                <path d="M-0.27,-1.02 L 0.27 -1.02 0.27 1.02 -0.27 1.02 z" class="primitive"/>
              </g>
              <g transform="translate(33.89,88.33)" id="img-143f02b1-50">
                <path d="M-0.27,-0 L 0.27 -0 0.27 0 -0.27 0 z" class="primitive"/>
              </g>
              <g transform="translate(34.37,87.31)" id="img-143f02b1-51">
                <path d="M-0.27,-1.02 L 0.27 -1.02 0.27 1.02 -0.27 1.02 z" class="primitive"/>
              </g>
              <g transform="translate(34.86,88.33)" id="img-143f02b1-52">
                <path d="M-0.27,-0 L 0.27 -0 0.27 0 -0.27 0 z" class="primitive"/>
              </g>
              <g transform="translate(35.34,85.28)" id="img-143f02b1-53">
                <path d="M-0.27,-3.05 L 0.27 -3.05 0.27 3.05 -0.27 3.05 z" class="primitive"/>
              </g>
              <g transform="translate(35.83,85.28)" id="img-143f02b1-54">
                <path d="M-0.27,-3.05 L 0.27 -3.05 0.27 3.05 -0.27 3.05 z" class="primitive"/>
              </g>
              <g transform="translate(36.31,86.29)" id="img-143f02b1-55">
                <path d="M-0.27,-2.03 L 0.27 -2.03 0.27 2.03 -0.27 2.03 z" class="primitive"/>
              </g>
              <g transform="translate(36.8,86.29)" id="img-143f02b1-56">
                <path d="M-0.27,-2.03 L 0.27 -2.03 0.27 2.03 -0.27 2.03 z" class="primitive"/>
              </g>
              <g transform="translate(37.29,85.28)" id="img-143f02b1-57">
                <path d="M-0.27,-3.05 L 0.27 -3.05 0.27 3.05 -0.27 3.05 z" class="primitive"/>
              </g>
              <g transform="translate(37.77,87.31)" id="img-143f02b1-58">
                <path d="M-0.27,-1.02 L 0.27 -1.02 0.27 1.02 -0.27 1.02 z" class="primitive"/>
              </g>
              <g transform="translate(38.26,84.26)" id="img-143f02b1-59">
                <path d="M-0.27,-4.07 L 0.27 -4.07 0.27 4.07 -0.27 4.07 z" class="primitive"/>
              </g>
              <g transform="translate(38.74,85.28)" id="img-143f02b1-60">
                <path d="M-0.27,-3.05 L 0.27 -3.05 0.27 3.05 -0.27 3.05 z" class="primitive"/>
              </g>
              <g transform="translate(39.23,85.28)" id="img-143f02b1-61">
                <path d="M-0.27,-3.05 L 0.27 -3.05 0.27 3.05 -0.27 3.05 z" class="primitive"/>
              </g>
              <g transform="translate(39.71,83.24)" id="img-143f02b1-62">
                <path d="M-0.27,-5.08 L 0.27 -5.08 0.27 5.08 -0.27 5.08 z" class="primitive"/>
              </g>
              <g transform="translate(40.2,87.31)" id="img-143f02b1-63">
                <path d="M-0.27,-1.02 L 0.27 -1.02 0.27 1.02 -0.27 1.02 z" class="primitive"/>
              </g>
              <g transform="translate(40.69,84.26)" id="img-143f02b1-64">
                <path d="M-0.27,-4.07 L 0.27 -4.07 0.27 4.07 -0.27 4.07 z" class="primitive"/>
              </g>
              <g transform="translate(41.17,85.28)" id="img-143f02b1-65">
                <path d="M-0.27,-3.05 L 0.27 -3.05 0.27 3.05 -0.27 3.05 z" class="primitive"/>
              </g>
              <g transform="translate(41.66,84.26)" id="img-143f02b1-66">
                <path d="M-0.27,-4.07 L 0.27 -4.07 0.27 4.07 -0.27 4.07 z" class="primitive"/>
              </g>
              <g transform="translate(42.14,84.26)" id="img-143f02b1-67">
                <path d="M-0.27,-4.07 L 0.27 -4.07 0.27 4.07 -0.27 4.07 z" class="primitive"/>
              </g>
              <g transform="translate(42.63,84.26)" id="img-143f02b1-68">
                <path d="M-0.27,-4.07 L 0.27 -4.07 0.27 4.07 -0.27 4.07 z" class="primitive"/>
              </g>
              <g transform="translate(43.11,84.26)" id="img-143f02b1-69">
                <path d="M-0.27,-4.07 L 0.27 -4.07 0.27 4.07 -0.27 4.07 z" class="primitive"/>
              </g>
              <g transform="translate(43.6,83.24)" id="img-143f02b1-70">
                <path d="M-0.27,-5.08 L 0.27 -5.08 0.27 5.08 -0.27 5.08 z" class="primitive"/>
              </g>
              <g transform="translate(44.09,82.23)" id="img-143f02b1-71">
                <path d="M-0.27,-6.1 L 0.27 -6.1 0.27 6.1 -0.27 6.1 z" class="primitive"/>
              </g>
              <g transform="translate(44.57,87.31)" id="img-143f02b1-72">
                <path d="M-0.27,-1.02 L 0.27 -1.02 0.27 1.02 -0.27 1.02 z" class="primitive"/>
              </g>
              <g transform="translate(45.06,83.24)" id="img-143f02b1-73">
                <path d="M-0.27,-5.08 L 0.27 -5.08 0.27 5.08 -0.27 5.08 z" class="primitive"/>
              </g>
              <g transform="translate(45.54,80.19)" id="img-143f02b1-74">
                <path d="M-0.27,-8.13 L 0.27 -8.13 0.27 8.13 -0.27 8.13 z" class="primitive"/>
              </g>
              <g transform="translate(46.03,80.19)" id="img-143f02b1-75">
                <path d="M-0.27,-8.13 L 0.27 -8.13 0.27 8.13 -0.27 8.13 z" class="primitive"/>
              </g>
              <g transform="translate(46.51,77.14)" id="img-143f02b1-76">
                <path d="M-0.27,-11.18 L 0.27 -11.18 0.27 11.18 -0.27 11.18 z" class="primitive"/>
              </g>
              <g transform="translate(47,76.13)" id="img-143f02b1-77">
                <path d="M-0.27,-12.2 L 0.27 -12.2 0.27 12.2 -0.27 12.2 z" class="primitive"/>
              </g>
              <g transform="translate(47.49,78.16)" id="img-143f02b1-78">
                <path d="M-0.27,-10.17 L 0.27 -10.17 0.27 10.17 -0.27 10.17 z" class="primitive"/>
              </g>
              <g transform="translate(47.97,75.11)" id="img-143f02b1-79">
                <path d="M-0.27,-13.22 L 0.27 -13.22 0.27 13.22 -0.27 13.22 z" class="primitive"/>
              </g>
              <g transform="translate(48.46,79.18)" id="img-143f02b1-80">
                <path d="M-0.27,-9.15 L 0.27 -9.15 0.27 9.15 -0.27 9.15 z" class="primitive"/>
              </g>
              <g transform="translate(48.94,74.09)" id="img-143f02b1-81">
                <path d="M-0.27,-14.23 L 0.27 -14.23 0.27 14.23 -0.27 14.23 z" class="primitive"/>
              </g>
              <g transform="translate(49.43,65.96)" id="img-143f02b1-82">
                <path d="M-0.27,-22.36 L 0.27 -22.36 0.27 22.36 -0.27 22.36 z" class="primitive"/>
              </g>
              <g transform="translate(49.91,79.18)" id="img-143f02b1-83">
                <path d="M-0.27,-9.15 L 0.27 -9.15 0.27 9.15 -0.27 9.15 z" class="primitive"/>
              </g>
              <g transform="translate(50.4,70.03)" id="img-143f02b1-84">
                <path d="M-0.27,-18.3 L 0.27 -18.3 0.27 18.3 -0.27 18.3 z" class="primitive"/>
              </g>
              <g transform="translate(50.89,71.04)" id="img-143f02b1-85">
                <path d="M-0.27,-17.28 L 0.27 -17.28 0.27 17.28 -0.27 17.28 z" class="primitive"/>
              </g>
              <g transform="translate(51.37,74.09)" id="img-143f02b1-86">
                <path d="M-0.27,-14.23 L 0.27 -14.23 0.27 14.23 -0.27 14.23 z" class="primitive"/>
              </g>
              <g transform="translate(51.86,61.9)" id="img-143f02b1-87">
                <path d="M-0.27,-26.43 L 0.27 -26.43 0.27 26.43 -0.27 26.43 z" class="primitive"/>
              </g>
              <g transform="translate(52.34,77.14)" id="img-143f02b1-88">
                <path d="M-0.27,-11.18 L 0.27 -11.18 0.27 11.18 -0.27 11.18 z" class="primitive"/>
              </g>
              <g transform="translate(52.83,68)" id="img-143f02b1-89">
                <path d="M-0.27,-20.33 L 0.27 -20.33 0.27 20.33 -0.27 20.33 z" class="primitive"/>
              </g>
              <g transform="translate(53.31,64.95)" id="img-143f02b1-90">
                <path d="M-0.27,-23.38 L 0.27 -23.38 0.27 23.38 -0.27 23.38 z" class="primitive"/>
              </g>
              <g transform="translate(53.8,75.11)" id="img-143f02b1-91">
                <path d="M-0.27,-13.22 L 0.27 -13.22 0.27 13.22 -0.27 13.22 z" class="primitive"/>
              </g>
              <g transform="translate(54.29,60.88)" id="img-143f02b1-92">
                <path d="M-0.27,-27.45 L 0.27 -27.45 0.27 27.45 -0.27 27.45 z" class="primitive"/>
              </g>
              <g transform="translate(54.77,63.93)" id="img-143f02b1-93">
                <path d="M-0.27,-24.4 L 0.27 -24.4 0.27 24.4 -0.27 24.4 z" class="primitive"/>
              </g>
              <g transform="translate(55.26,62.91)" id="img-143f02b1-94">
                <path d="M-0.27,-25.41 L 0.27 -25.41 0.27 25.41 -0.27 25.41 z" class="primitive"/>
              </g>
              <g transform="translate(55.74,68)" id="img-143f02b1-95">
                <path d="M-0.27,-20.33 L 0.27 -20.33 0.27 20.33 -0.27 20.33 z" class="primitive"/>
              </g>
              <g transform="translate(56.23,68)" id="img-143f02b1-96">
                <path d="M-0.27,-20.33 L 0.27 -20.33 0.27 20.33 -0.27 20.33 z" class="primitive"/>
              </g>
              <g transform="translate(56.71,66.98)" id="img-143f02b1-97">
                <path d="M-0.27,-21.35 L 0.27 -21.35 0.27 21.35 -0.27 21.35 z" class="primitive"/>
              </g>
              <g transform="translate(57.2,58.85)" id="img-143f02b1-98">
                <path d="M-0.27,-29.48 L 0.27 -29.48 0.27 29.48 -0.27 29.48 z" class="primitive"/>
              </g>
              <g transform="translate(57.69,55.8)" id="img-143f02b1-99">
                <path d="M-0.27,-32.53 L 0.27 -32.53 0.27 32.53 -0.27 32.53 z" class="primitive"/>
              </g>
              <g transform="translate(58.17,60.88)" id="img-143f02b1-100">
                <path d="M-0.27,-27.45 L 0.27 -27.45 0.27 27.45 -0.27 27.45 z" class="primitive"/>
              </g>
              <g transform="translate(58.66,58.85)" id="img-143f02b1-101">
                <path d="M-0.27,-29.48 L 0.27 -29.48 0.27 29.48 -0.27 29.48 z" class="primitive"/>
              </g>
              <g transform="translate(59.14,65.96)" id="img-143f02b1-102">
                <path d="M-0.27,-22.36 L 0.27 -22.36 0.27 22.36 -0.27 22.36 z" class="primitive"/>
              </g>
              <g transform="translate(59.63,58.85)" id="img-143f02b1-103">
                <path d="M-0.27,-29.48 L 0.27 -29.48 0.27 29.48 -0.27 29.48 z" class="primitive"/>
              </g>
              <g transform="translate(60.11,57.83)" id="img-143f02b1-104">
                <path d="M-0.27,-30.5 L 0.27 -30.5 0.27 30.5 -0.27 30.5 z" class="primitive"/>
              </g>
              <g transform="translate(60.6,57.83)" id="img-143f02b1-105">
                <path d="M-0.27,-30.5 L 0.27 -30.5 0.27 30.5 -0.27 30.5 z" class="primitive"/>
              </g>
              <g transform="translate(61.09,59.86)" id="img-143f02b1-106">
                <path d="M-0.27,-28.46 L 0.27 -28.46 0.27 28.46 -0.27 28.46 z" class="primitive"/>
              </g>
              <g transform="translate(61.57,59.86)" id="img-143f02b1-107">
                <path d="M-0.27,-28.46 L 0.27 -28.46 0.27 28.46 -0.27 28.46 z" class="primitive"/>
              </g>
              <g transform="translate(62.06,60.88)" id="img-143f02b1-108">
                <path d="M-0.27,-27.45 L 0.27 -27.45 0.27 27.45 -0.27 27.45 z" class="primitive"/>
              </g>
              <g transform="translate(62.54,58.85)" id="img-143f02b1-109">
                <path d="M-0.27,-29.48 L 0.27 -29.48 0.27 29.48 -0.27 29.48 z" class="primitive"/>
              </g>
              <g transform="translate(63.03,71.04)" id="img-143f02b1-110">
                <path d="M-0.27,-17.28 L 0.27 -17.28 0.27 17.28 -0.27 17.28 z" class="primitive"/>
              </g>
              <g transform="translate(63.51,68)" id="img-143f02b1-111">
                <path d="M-0.27,-20.33 L 0.27 -20.33 0.27 20.33 -0.27 20.33 z" class="primitive"/>
              </g>
              <g transform="translate(64,72.06)" id="img-143f02b1-112">
                <path d="M-0.27,-16.27 L 0.27 -16.27 0.27 16.27 -0.27 16.27 z" class="primitive"/>
              </g>
              <g transform="translate(64.49,65.96)" id="img-143f02b1-113">
                <path d="M-0.27,-22.36 L 0.27 -22.36 0.27 22.36 -0.27 22.36 z" class="primitive"/>
              </g>
              <g transform="translate(64.97,70.03)" id="img-143f02b1-114">
                <path d="M-0.27,-18.3 L 0.27 -18.3 0.27 18.3 -0.27 18.3 z" class="primitive"/>
              </g>
              <g transform="translate(65.46,74.09)" id="img-143f02b1-115">
                <path d="M-0.27,-14.23 L 0.27 -14.23 0.27 14.23 -0.27 14.23 z" class="primitive"/>
              </g>
              <g transform="translate(65.94,74.09)" id="img-143f02b1-116">
                <path d="M-0.27,-14.23 L 0.27 -14.23 0.27 14.23 -0.27 14.23 z" class="primitive"/>
              </g>
              <g transform="translate(66.43,82.23)" id="img-143f02b1-117">
                <path d="M-0.27,-6.1 L 0.27 -6.1 0.27 6.1 -0.27 6.1 z" class="primitive"/>
              </g>
              <g transform="translate(66.91,79.18)" id="img-143f02b1-118">
                <path d="M-0.27,-9.15 L 0.27 -9.15 0.27 9.15 -0.27 9.15 z" class="primitive"/>
              </g>
              <g transform="translate(67.4,72.06)" id="img-143f02b1-119">
                <path d="M-0.27,-16.27 L 0.27 -16.27 0.27 16.27 -0.27 16.27 z" class="primitive"/>
              </g>
              <g transform="translate(67.88,82.23)" id="img-143f02b1-120">
                <path d="M-0.27,-6.1 L 0.27 -6.1 0.27 6.1 -0.27 6.1 z" class="primitive"/>
              </g>
              <g transform="translate(68.37,82.23)" id="img-143f02b1-121">
                <path d="M-0.27,-6.1 L 0.27 -6.1 0.27 6.1 -0.27 6.1 z" class="primitive"/>
              </g>
              <g transform="translate(68.86,83.24)" id="img-143f02b1-122">
                <path d="M-0.27,-5.08 L 0.27 -5.08 0.27 5.08 -0.27 5.08 z" class="primitive"/>
              </g>
              <g transform="translate(69.34,87.31)" id="img-143f02b1-123">
                <path d="M-0.27,-1.02 L 0.27 -1.02 0.27 1.02 -0.27 1.02 z" class="primitive"/>
              </g>
              <g transform="translate(69.83,87.31)" id="img-143f02b1-124">
                <path d="M-0.27,-1.02 L 0.27 -1.02 0.27 1.02 -0.27 1.02 z" class="primitive"/>
              </g>
              <g transform="translate(70.31,86.29)" id="img-143f02b1-125">
                <path d="M-0.27,-2.03 L 0.27 -2.03 0.27 2.03 -0.27 2.03 z" class="primitive"/>
              </g>
              <g transform="translate(70.8,86.29)" id="img-143f02b1-126">
                <path d="M-0.27,-2.03 L 0.27 -2.03 0.27 2.03 -0.27 2.03 z" class="primitive"/>
              </g>
              <g transform="translate(71.28,86.29)" id="img-143f02b1-127">
                <path d="M-0.27,-2.03 L 0.27 -2.03 0.27 2.03 -0.27 2.03 z" class="primitive"/>
              </g>
              <g transform="translate(71.77,85.28)" id="img-143f02b1-128">
                <path d="M-0.27,-3.05 L 0.27 -3.05 0.27 3.05 -0.27 3.05 z" class="primitive"/>
              </g>
              <g transform="translate(72.26,88.33)" id="img-143f02b1-129">
                <path d="M-0.27,-0 L 0.27 -0 0.27 0 -0.27 0 z" class="primitive"/>
              </g>
              <g transform="translate(72.74,88.33)" id="img-143f02b1-130">
                <path d="M-0.27,-0 L 0.27 -0 0.27 0 -0.27 0 z" class="primitive"/>
              </g>
              <g transform="translate(73.23,87.31)" id="img-143f02b1-131">
                <path d="M-0.27,-1.02 L 0.27 -1.02 0.27 1.02 -0.27 1.02 z" class="primitive"/>
              </g>
            </g>
          </g>
        </g>
      </g>
    </g>
  </g>
  <g class="guide ylabels" font-size="2.82" font-family="'PT Sans Caption','Helvetica Neue','Helvetica',sans-serif" fill="#6C606B" id="img-143f02b1-132">
    <g transform="translate(16.96,88.33)" id="img-143f02b1-133">
      <g class="primitive">
        <text text-anchor="end" dy="0.35em">0</text>
      </g>
    </g>
    <g transform="translate(16.96,68)" id="img-143f02b1-134">
      <g class="primitive">
        <text text-anchor="end" dy="0.35em">10</text>
      </g>
    </g>
    <g transform="translate(16.96,47.66)" id="img-143f02b1-135">
      <g class="primitive">
        <text text-anchor="end" dy="0.35em">20</text>
      </g>
    </g>
    <g transform="translate(16.96,27.33)" id="img-143f02b1-136">
      <g class="primitive">
        <text text-anchor="end" dy="0.35em">30</text>
      </g>
    </g>
    <g transform="translate(16.96,7)" id="img-143f02b1-137">
      <g class="primitive">
        <text text-anchor="end" dy="0.35em">40</text>
      </g>
    </g>
  </g>
  <g font-size="3.88" font-family="'PT Sans','Helvetica Neue','Helvetica',sans-serif" fill="#564A55" stroke="#000000" stroke-opacity="0.000" id="img-143f02b1-138">
    <g transform="translate(8.81,45.66)" id="img-143f02b1-139">
      <g class="primitive">
        <text text-anchor="middle" dy="0.35em" transform="rotate(-90,0, 2)">frequency</text>
      </g>
    </g>
  </g>
</g>
<defs>
  <clipPath id="img-143f02b1-11">
    <path d="M17.96,5 L 81.07 5 81.07 90.33 17.96 90.33" />
  </clipPath>
</defs>
</svg>
