<?xml version="1.0" encoding="UTF-8"?>
<svg xmlns="http://www.w3.org/2000/svg"
     xmlns:xlink="http://www.w3.org/1999/xlink"
     xmlns:gadfly="http://www.gadflyjl.org/ns"
     version="1.2"
     width="141.42mm" height="100mm" viewBox="0 0 141.42 100"
     stroke="none"
     fill="#000000"
     stroke-width="0.3"
     font-size="3.88"
>
<defs>
  <marker id="arrow" markerWidth="15" markerHeight="7" refX="5" refY="3.5" orient="auto" markerUnits="strokeWidth">
    <path d="M0,0 L15,3.5 L0,7 z" stroke="context-stroke" fill="context-stroke"/>
  </marker>
</defs>
<g class="plotroot xscalable yscalable" id="img-aa9c94e3-1">
  <g class="guide xlabels" font-size="2.82" font-family="'PT Sans Caption','Helvetica Neue','Helvetica',sans-serif" fill="#6C606B" id="img-aa9c94e3-2">
    <g transform="translate(19.96,91.33)">
      <g class="primitive">
        <text text-anchor="middle" dy="0.6em">11.2</text>
      </g>
    </g>
    <g transform="translate(36.36,91.33)">
      <g class="primitive">
        <text text-anchor="middle" dy="0.6em">11.4</text>
      </g>
    </g>
    <g transform="translate(52.76,91.33)">
      <g class="primitive">
        <text text-anchor="middle" dy="0.6em">11.6</text>
      </g>
    </g>
    <g transform="translate(69.16,91.33)">
      <g class="primitive">
        <text text-anchor="middle" dy="0.6em">11.8</text>
      </g>
    </g>
    <g transform="translate(85.56,91.33)">
      <g class="primitive">
        <text text-anchor="middle" dy="0.6em">12.0</text>
      </g>
    </g>
  </g>
  <g class="guide colorkey" id="img-aa9c94e3-3">
    <g class="color_coding_coding_coding_coding_4-path" id="img-aa9c94e3-4">
      <g fill="#4C404B" font-size="2.82" font-family="'PT Sans','Helvetica Neue','Helvetica',sans-serif" id="img-aa9c94e3-5">
        <g transform="translate(91.37,49.48)" id="img-aa9c94e3-6">
          <g class="primitive">
            <text dy="0.35em">coding_coding_coding_coding_4-path</text>
          </g>
        </g>
      </g>
      <g fill-opacity="1" fill="#00BFFF" stroke="#FFFFFF" id="img-aa9c94e3-7">
        <g transform="translate(89.47,49.48)" id="img-aa9c94e3-8">
          <path d="M-0.91,-0.91 L 0.91 -0.91 0.91 0.91 -0.91 0.91 z" class="primitive"/>
        </g>
      </g>
    </g>
    <g fill="#362A35" font-size="3.88" font-family="'PT Sans','Helvetica Neue','Helvetica',sans-serif" stroke="#000000" stroke-opacity="0.000" id="img-aa9c94e3-9">
      <g transform="translate(88.56,45.66)" id="img-aa9c94e3-10">
        <g class="primitive">
          <text dy="-0em">graphlet</text>
        </g>
      </g>
    </g>
  </g>
  <g clip-path="url(#img-aa9c94e3-11)">
    <g id="img-aa9c94e3-12">
      <g pointer-events="visible" stroke-width="0.3" fill="#000000" fill-opacity="0.000" stroke="#000000" stroke-opacity="0.000" class="guide background" id="img-aa9c94e3-13">
        <g transform="translate(52.76,47.66)" id="img-aa9c94e3-14">
          <path d="M-34.8,-42.66 L 34.8 -42.66 34.8 42.66 -34.8 42.66 z" class="primitive"/>
        </g>
      </g>
      <g class="guide ygridlines xfixed" stroke-dasharray="0.5,0.5" stroke-width="0.2" stroke="#D0D0E0" id="img-aa9c94e3-15">
        <g transform="translate(52.76,88.33)" id="img-aa9c94e3-16">
          <path fill="none" d="M-34.8,0 L 34.8 0" class="primitive"/>
        </g>
        <g transform="translate(52.76,68)" id="img-aa9c94e3-17">
          <path fill="none" d="M-34.8,0 L 34.8 0" class="primitive"/>
        </g>
        <g transform="translate(52.76,47.66)" id="img-aa9c94e3-18">
          <path fill="none" d="M-34.8,0 L 34.8 0" class="primitive"/>
        </g>
        <g transform="translate(52.76,27.33)" id="img-aa9c94e3-19">
          <path fill="none" d="M-34.8,0 L 34.8 0" class="primitive"/>
        </g>
        <g transform="translate(52.76,7)" id="img-aa9c94e3-20">
          <path fill="none" d="M-34.8,0 L 34.8 0" class="primitive"/>
        </g>
      </g>
      <g class="guide xgridlines yfixed" stroke-dasharray="0.5,0.5" stroke-width="0.2" stroke="#D0D0E0" id="img-aa9c94e3-21">
        <g transform="translate(19.96,47.66)" id="img-aa9c94e3-22">
          <path fill="none" d="M0,-42.66 L 0 42.66" class="primitive"/>
        </g>
        <g transform="translate(36.36,47.66)" id="img-aa9c94e3-23">
          <path fill="none" d="M0,-42.66 L 0 42.66" class="primitive"/>
        </g>
        <g transform="translate(52.76,47.66)" id="img-aa9c94e3-24">
          <path fill="none" d="M0,-42.66 L 0 42.66" class="primitive"/>
        </g>
        <g transform="translate(69.16,47.66)" id="img-aa9c94e3-25">
          <path fill="none" d="M0,-42.66 L 0 42.66" class="primitive"/>
        </g>
        <g transform="translate(85.56,47.66)" id="img-aa9c94e3-26">
          <path fill="none" d="M0,-42.66 L 0 42.66" class="primitive"/>
        </g>
      </g>
      <g class="plotpanel" id="img-aa9c94e3-27">
        <metadata>
          <boundingbox value="17.95833333333333mm 5.0mm 69.60302290397615mm 85.32666666666667mm"/>
          <unitbox value="11.175610879969025 40.98368718747438 0.8487782400619526 -41.96737437494876"/>
        </metadata>
        <g shape-rendering="crispEdges" stroke-width="0.3" id="img-aa9c94e3-28">
          <g stroke="#000000" stroke-opacity="0.000" class="geometry" id="img-aa9c94e3-29">
            <g fill="#00BFFF" id="img-aa9c94e3-30">
              <g transform="translate(29.37,87.31)" id="img-aa9c94e3-31">
                <path d="M-0.29,-1.02 L 0.29 -1.02 0.29 1.02 -0.29 1.02 z" class="primitive"/>
              </g>
              <g transform="translate(29.89,88.33)" id="img-aa9c94e3-32">
                <path d="M-0.29,-0 L 0.29 -0 0.29 0 -0.29 0 z" class="primitive"/>
              </g>
              <g transform="translate(30.42,86.29)" id="img-aa9c94e3-33">
                <path d="M-0.29,-2.03 L 0.29 -2.03 0.29 2.03 -0.29 2.03 z" class="primitive"/>
              </g>
              <g transform="translate(30.94,87.31)" id="img-aa9c94e3-34">
                <path d="M-0.29,-1.02 L 0.29 -1.02 0.29 1.02 -0.29 1.02 z" class="primitive"/>
              </g>
              <g transform="translate(31.46,87.31)" id="img-aa9c94e3-35">
                <path d="M-0.29,-1.02 L 0.29 -1.02 0.29 1.02 -0.29 1.02 z" class="primitive"/>
              </g>
              <g transform="translate(31.99,87.31)" id="img-aa9c94e3-36">
                <path d="M-0.29,-1.02 L 0.29 -1.02 0.29 1.02 -0.29 1.02 z" class="primitive"/>
              </g>
              <g transform="translate(32.51,86.29)" id="img-aa9c94e3-37">
                <path d="M-0.29,-2.03 L 0.29 -2.03 0.29 2.03 -0.29 2.03 z" class="primitive"/>
              </g>
              <g transform="translate(33.03,88.33)" id="img-aa9c94e3-38">
                <path d="M-0.29,-0 L 0.29 -0 0.29 0 -0.29 0 z" class="primitive"/>
              </g>
              <g transform="translate(33.56,88.33)" id="img-aa9c94e3-39">
                <path d="M-0.29,-0 L 0.29 -0 0.29 0 -0.29 0 z" class="primitive"/>
              </g>
              <g transform="translate(34.08,88.33)" id="img-aa9c94e3-40">
                <path d="M-0.29,-0 L 0.29 -0 0.29 0 -0.29 0 z" class="primitive"/>
              </g>
              <g transform="translate(34.6,87.31)" id="img-aa9c94e3-41">
                <path d="M-0.29,-1.02 L 0.29 -1.02 0.29 1.02 -0.29 1.02 z" class="primitive"/>
              </g>
              <g transform="translate(35.13,88.33)" id="img-aa9c94e3-42">
                <path d="M-0.29,-0 L 0.29 -0 0.29 0 -0.29 0 z" class="primitive"/>
              </g>
              <g transform="translate(35.65,88.33)" id="img-aa9c94e3-43">
                <path d="M-0.29,-0 L 0.29 -0 0.29 0 -0.29 0 z" class="primitive"/>
              </g>
              <g transform="translate(36.17,86.29)" id="img-aa9c94e3-44">
                <path d="M-0.29,-2.03 L 0.29 -2.03 0.29 2.03 -0.29 2.03 z" class="primitive"/>
              </g>
              <g transform="translate(36.7,84.26)" id="img-aa9c94e3-45">
                <path d="M-0.29,-4.07 L 0.29 -4.07 0.29 4.07 -0.29 4.07 z" class="primitive"/>
              </g>
              <g transform="translate(37.22,85.28)" id="img-aa9c94e3-46">
                <path d="M-0.29,-3.05 L 0.29 -3.05 0.29 3.05 -0.29 3.05 z" class="primitive"/>
              </g>
              <g transform="translate(37.74,87.31)" id="img-aa9c94e3-47">
                <path d="M-0.29,-1.02 L 0.29 -1.02 0.29 1.02 -0.29 1.02 z" class="primitive"/>
              </g>
              <g transform="translate(38.27,83.24)" id="img-aa9c94e3-48">
                <path d="M-0.29,-5.08 L 0.29 -5.08 0.29 5.08 -0.29 5.08 z" class="primitive"/>
              </g>
              <g transform="translate(38.79,82.23)" id="img-aa9c94e3-49">
                <path d="M-0.29,-6.1 L 0.29 -6.1 0.29 6.1 -0.29 6.1 z" class="primitive"/>
              </g>
              <g transform="translate(39.31,80.19)" id="img-aa9c94e3-50">
                <path d="M-0.29,-8.13 L 0.29 -8.13 0.29 8.13 -0.29 8.13 z" class="primitive"/>
              </g>
              <g transform="translate(39.84,84.26)" id="img-aa9c94e3-51">
                <path d="M-0.29,-4.07 L 0.29 -4.07 0.29 4.07 -0.29 4.07 z" class="primitive"/>
              </g>
              <g transform="translate(40.36,84.26)" id="img-aa9c94e3-52">
                <path d="M-0.29,-4.07 L 0.29 -4.07 0.29 4.07 -0.29 4.07 z" class="primitive"/>
              </g>
              <g transform="translate(40.89,78.16)" id="img-aa9c94e3-53">
                <path d="M-0.29,-10.17 L 0.29 -10.17 0.29 10.17 -0.29 10.17 z" class="primitive"/>
              </g>
              <g transform="translate(41.41,85.28)" id="img-aa9c94e3-54">
                <path d="M-0.29,-3.05 L 0.29 -3.05 0.29 3.05 -0.29 3.05 z" class="primitive"/>
              </g>
              <g transform="translate(41.93,83.24)" id="img-aa9c94e3-55">
                <path d="M-0.29,-5.08 L 0.29 -5.08 0.29 5.08 -0.29 5.08 z" class="primitive"/>
              </g>
              <g transform="translate(42.46,81.21)" id="img-aa9c94e3-56">
                <path d="M-0.29,-7.12 L 0.29 -7.12 0.29 7.12 -0.29 7.12 z" class="primitive"/>
              </g>
              <g transform="translate(42.98,83.24)" id="img-aa9c94e3-57">
                <path d="M-0.29,-5.08 L 0.29 -5.08 0.29 5.08 -0.29 5.08 z" class="primitive"/>
              </g>
              <g transform="translate(43.5,73.08)" id="img-aa9c94e3-58">
                <path d="M-0.29,-15.25 L 0.29 -15.25 0.29 15.25 -0.29 15.25 z" class="primitive"/>
              </g>
              <g transform="translate(44.03,75.11)" id="img-aa9c94e3-59">
                <path d="M-0.29,-13.22 L 0.29 -13.22 0.29 13.22 -0.29 13.22 z" class="primitive"/>
              </g>
              <g transform="translate(44.55,77.14)" id="img-aa9c94e3-60">
                <path d="M-0.29,-11.18 L 0.29 -11.18 0.29 11.18 -0.29 11.18 z" class="primitive"/>
              </g>
              <g transform="translate(45.07,80.19)" id="img-aa9c94e3-61">
                <path d="M-0.29,-8.13 L 0.29 -8.13 0.29 8.13 -0.29 8.13 z" class="primitive"/>
              </g>
              <g transform="translate(45.6,74.09)" id="img-aa9c94e3-62">
                <path d="M-0.29,-14.23 L 0.29 -14.23 0.29 14.23 -0.29 14.23 z" class="primitive"/>
              </g>
              <g transform="translate(46.12,74.09)" id="img-aa9c94e3-63">
                <path d="M-0.29,-14.23 L 0.29 -14.23 0.29 14.23 -0.29 14.23 z" class="primitive"/>
              </g>
              <g transform="translate(46.64,66.98)" id="img-aa9c94e3-64">
                <path d="M-0.29,-21.35 L 0.29 -21.35 0.29 21.35 -0.29 21.35 z" class="primitive"/>
              </g>
              <g transform="translate(47.17,69.01)" id="img-aa9c94e3-65">
                <path d="M-0.29,-19.32 L 0.29 -19.32 0.29 19.32 -0.29 19.32 z" class="primitive"/>
              </g>
              <g transform="translate(47.69,70.03)" id="img-aa9c94e3-66">
                <path d="M-0.29,-18.3 L 0.29 -18.3 0.29 18.3 -0.29 18.3 z" class="primitive"/>
              </g>
              <g transform="translate(48.21,81.21)" id="img-aa9c94e3-67">
                <path d="M-0.29,-7.12 L 0.29 -7.12 0.29 7.12 -0.29 7.12 z" class="primitive"/>
              </g>
              <g transform="translate(48.74,62.91)" id="img-aa9c94e3-68">
                <path d="M-0.29,-25.41 L 0.29 -25.41 0.29 25.41 -0.29 25.41 z" class="primitive"/>
              </g>
              <g transform="translate(49.26,70.03)" id="img-aa9c94e3-69">
                <path d="M-0.29,-18.3 L 0.29 -18.3 0.29 18.3 -0.29 18.3 z" class="primitive"/>
              </g>
              <g transform="translate(49.78,66.98)" id="img-aa9c94e3-70">
                <path d="M-0.29,-21.35 L 0.29 -21.35 0.29 21.35 -0.29 21.35 z" class="primitive"/>
              </g>
              <g transform="translate(50.31,55.8)" id="img-aa9c94e3-71">
                <path d="M-0.29,-32.53 L 0.29 -32.53 0.29 32.53 -0.29 32.53 z" class="primitive"/>
              </g>
              <g transform="translate(50.83,56.81)" id="img-aa9c94e3-72">
                <path d="M-0.29,-31.51 L 0.29 -31.51 0.29 31.51 -0.29 31.51 z" class="primitive"/>
              </g>
              <g transform="translate(51.36,70.03)" id="img-aa9c94e3-73">
                <path d="M-0.29,-18.3 L 0.29 -18.3 0.29 18.3 -0.29 18.3 z" class="primitive"/>
              </g>
              <g transform="translate(51.88,62.91)" id="img-aa9c94e3-74">
                <path d="M-0.29,-25.41 L 0.29 -25.41 0.29 25.41 -0.29 25.41 z" class="primitive"/>
              </g>
              <g transform="translate(52.4,59.86)" id="img-aa9c94e3-75">
                <path d="M-0.29,-28.46 L 0.29 -28.46 0.29 28.46 -0.29 28.46 z" class="primitive"/>
              </g>
              <g transform="translate(52.93,68)" id="img-aa9c94e3-76">
                <path d="M-0.29,-20.33 L 0.29 -20.33 0.29 20.33 -0.29 20.33 z" class="primitive"/>
              </g>
              <g transform="translate(53.45,61.9)" id="img-aa9c94e3-77">
                <path d="M-0.29,-26.43 L 0.29 -26.43 0.29 26.43 -0.29 26.43 z" class="primitive"/>
              </g>
              <g transform="translate(53.97,49.7)" id="img-aa9c94e3-78">
                <path d="M-0.29,-38.63 L 0.29 -38.63 0.29 38.63 -0.29 38.63 z" class="primitive"/>
              </g>
              <g transform="translate(54.5,58.85)" id="img-aa9c94e3-79">
                <path d="M-0.29,-29.48 L 0.29 -29.48 0.29 29.48 -0.29 29.48 z" class="primitive"/>
              </g>
              <g transform="translate(55.02,66.98)" id="img-aa9c94e3-80">
                <path d="M-0.29,-21.35 L 0.29 -21.35 0.29 21.35 -0.29 21.35 z" class="primitive"/>
              </g>
              <g transform="translate(55.54,60.88)" id="img-aa9c94e3-81">
                <path d="M-0.29,-27.45 L 0.29 -27.45 0.29 27.45 -0.29 27.45 z" class="primitive"/>
              </g>
              <g transform="translate(56.07,68)" id="img-aa9c94e3-82">
                <path d="M-0.29,-20.33 L 0.29 -20.33 0.29 20.33 -0.29 20.33 z" class="primitive"/>
              </g>
              <g transform="translate(56.59,56.81)" id="img-aa9c94e3-83">
                <path d="M-0.29,-31.51 L 0.29 -31.51 0.29 31.51 -0.29 31.51 z" class="primitive"/>
              </g>
              <g transform="translate(57.11,66.98)" id="img-aa9c94e3-84">
                <path d="M-0.29,-21.35 L 0.29 -21.35 0.29 21.35 -0.29 21.35 z" class="primitive"/>
              </g>
              <g transform="translate(57.64,64.95)" id="img-aa9c94e3-85">
                <path d="M-0.29,-23.38 L 0.29 -23.38 0.29 23.38 -0.29 23.38 z" class="primitive"/>
              </g>
              <g transform="translate(58.16,68)" id="img-aa9c94e3-86">
                <path d="M-0.29,-20.33 L 0.29 -20.33 0.29 20.33 -0.29 20.33 z" class="primitive"/>
              </g>
              <g transform="translate(58.68,61.9)" id="img-aa9c94e3-87">
                <path d="M-0.29,-26.43 L 0.29 -26.43 0.29 26.43 -0.29 26.43 z" class="primitive"/>
              </g>
              <g transform="translate(59.21,73.08)" id="img-aa9c94e3-88">
                <path d="M-0.29,-15.25 L 0.29 -15.25 0.29 15.25 -0.29 15.25 z" class="primitive"/>
              </g>
              <g transform="translate(59.73,65.96)" id="img-aa9c94e3-89">
                <path d="M-0.29,-22.36 L 0.29 -22.36 0.29 22.36 -0.29 22.36 z" class="primitive"/>
              </g>
              <g transform="translate(60.25,71.04)" id="img-aa9c94e3-90">
                <path d="M-0.29,-17.28 L 0.29 -17.28 0.29 17.28 -0.29 17.28 z" class="primitive"/>
              </g>
              <g transform="translate(60.78,68)" id="img-aa9c94e3-91">
                <path d="M-0.29,-20.33 L 0.29 -20.33 0.29 20.33 -0.29 20.33 z" class="primitive"/>
              </g>
              <g transform="translate(61.3,69.01)" id="img-aa9c94e3-92">
                <path d="M-0.29,-19.32 L 0.29 -19.32 0.29 19.32 -0.29 19.32 z" class="primitive"/>
              </g>
              <g transform="translate(61.83,76.13)" id="img-aa9c94e3-93">
                <path d="M-0.29,-12.2 L 0.29 -12.2 0.29 12.2 -0.29 12.2 z" class="primitive"/>
              </g>
              <g transform="translate(62.35,74.09)" id="img-aa9c94e3-94">
                <path d="M-0.29,-14.23 L 0.29 -14.23 0.29 14.23 -0.29 14.23 z" class="primitive"/>
              </g>
              <g transform="translate(62.87,74.09)" id="img-aa9c94e3-95">
                <path d="M-0.29,-14.23 L 0.29 -14.23 0.29 14.23 -0.29 14.23 z" class="primitive"/>
              </g>
              <g transform="translate(63.4,78.16)" id="img-aa9c94e3-96">
                <path d="M-0.29,-10.17 L 0.29 -10.17 0.29 10.17 -0.29 10.17 z" class="primitive"/>
              </g>
              <g transform="translate(63.92,77.14)" id="img-aa9c94e3-97">
                <path d="M-0.29,-11.18 L 0.29 -11.18 0.29 11.18 -0.29 11.18 z" class="primitive"/>
              </g>
              <g transform="translate(64.44,71.04)" id="img-aa9c94e3-98">
                <path d="M-0.29,-17.28 L 0.29 -17.28 0.29 17.28 -0.29 17.28 z" class="primitive"/>
              </g>
              <g transform="translate(64.97,74.09)" id="img-aa9c94e3-99">
                <path d="M-0.29,-14.23 L 0.29 -14.23 0.29 14.23 -0.29 14.23 z" class="primitive"/>
              </g>
              <g transform="translate(65.49,80.19)" id="img-aa9c94e3-100">
                <path d="M-0.29,-8.13 L 0.29 -8.13 0.29 8.13 -0.29 8.13 z" class="primitive"/>
              </g>
              <g transform="translate(66.01,72.06)" id="img-aa9c94e3-101">
                <path d="M-0.29,-16.27 L 0.29 -16.27 0.29 16.27 -0.29 16.27 z" class="primitive"/>
              </g>
              <g transform="translate(66.54,79.18)" id="img-aa9c94e3-102">
                <path d="M-0.29,-9.15 L 0.29 -9.15 0.29 9.15 -0.29 9.15 z" class="primitive"/>
              </g>
              <g transform="translate(67.06,86.29)" id="img-aa9c94e3-103">
                <path d="M-0.29,-2.03 L 0.29 -2.03 0.29 2.03 -0.29 2.03 z" class="primitive"/>
              </g>
              <g transform="translate(67.58,82.23)" id="img-aa9c94e3-104">
                <path d="M-0.29,-6.1 L 0.29 -6.1 0.29 6.1 -0.29 6.1 z" class="primitive"/>
              </g>
              <g transform="translate(68.11,80.19)" id="img-aa9c94e3-105">
                <path d="M-0.29,-8.13 L 0.29 -8.13 0.29 8.13 -0.29 8.13 z" class="primitive"/>
              </g>
              <g transform="translate(68.63,81.21)" id="img-aa9c94e3-106">
                <path d="M-0.29,-7.12 L 0.29 -7.12 0.29 7.12 -0.29 7.12 z" class="primitive"/>
              </g>
              <g transform="translate(69.15,84.26)" id="img-aa9c94e3-107">
                <path d="M-0.29,-4.07 L 0.29 -4.07 0.29 4.07 -0.29 4.07 z" class="primitive"/>
              </g>
              <g transform="translate(69.68,85.28)" id="img-aa9c94e3-108">
                <path d="M-0.29,-3.05 L 0.29 -3.05 0.29 3.05 -0.29 3.05 z" class="primitive"/>
              </g>
              <g transform="translate(70.2,83.24)" id="img-aa9c94e3-109">
                <path d="M-0.29,-5.08 L 0.29 -5.08 0.29 5.08 -0.29 5.08 z" class="primitive"/>
              </g>
              <g transform="translate(70.72,82.23)" id="img-aa9c94e3-110">
                <path d="M-0.29,-6.1 L 0.29 -6.1 0.29 6.1 -0.29 6.1 z" class="primitive"/>
              </g>
              <g transform="translate(71.25,84.26)" id="img-aa9c94e3-111">
                <path d="M-0.29,-4.07 L 0.29 -4.07 0.29 4.07 -0.29 4.07 z" class="primitive"/>
              </g>
              <g transform="translate(71.77,87.31)" id="img-aa9c94e3-112">
                <path d="M-0.29,-1.02 L 0.29 -1.02 0.29 1.02 -0.29 1.02 z" class="primitive"/>
              </g>
              <g transform="translate(72.3,86.29)" id="img-aa9c94e3-113">
                <path d="M-0.29,-2.03 L 0.29 -2.03 0.29 2.03 -0.29 2.03 z" class="primitive"/>
              </g>
              <g transform="translate(72.82,83.24)" id="img-aa9c94e3-114">
                <path d="M-0.29,-5.08 L 0.29 -5.08 0.29 5.08 -0.29 5.08 z" class="primitive"/>
              </g>
              <g transform="translate(73.34,85.28)" id="img-aa9c94e3-115">
                <path d="M-0.29,-3.05 L 0.29 -3.05 0.29 3.05 -0.29 3.05 z" class="primitive"/>
              </g>
              <g transform="translate(73.87,86.29)" id="img-aa9c94e3-116">
                <path d="M-0.29,-2.03 L 0.29 -2.03 0.29 2.03 -0.29 2.03 z" class="primitive"/>
              </g>
              <g transform="translate(74.39,87.31)" id="img-aa9c94e3-117">
                <path d="M-0.29,-1.02 L 0.29 -1.02 0.29 1.02 -0.29 1.02 z" class="primitive"/>
              </g>
              <g transform="translate(74.91,88.33)" id="img-aa9c94e3-118">
                <path d="M-0.29,-0 L 0.29 -0 0.29 0 -0.29 0 z" class="primitive"/>
              </g>
              <g transform="translate(75.44,88.33)" id="img-aa9c94e3-119">
                <path d="M-0.29,-0 L 0.29 -0 0.29 0 -0.29 0 z" class="primitive"/>
              </g>
              <g transform="translate(75.96,87.31)" id="img-aa9c94e3-120">
                <path d="M-0.29,-1.02 L 0.29 -1.02 0.29 1.02 -0.29 1.02 z" class="primitive"/>
              </g>
              <g transform="translate(76.48,87.31)" id="img-aa9c94e3-121">
                <path d="M-0.29,-1.02 L 0.29 -1.02 0.29 1.02 -0.29 1.02 z" class="primitive"/>
              </g>
              <g transform="translate(77.01,87.31)" id="img-aa9c94e3-122">
                <path d="M-0.29,-1.02 L 0.29 -1.02 0.29 1.02 -0.29 1.02 z" class="primitive"/>
              </g>
              <g transform="translate(77.53,87.31)" id="img-aa9c94e3-123">
                <path d="M-0.29,-1.02 L 0.29 -1.02 0.29 1.02 -0.29 1.02 z" class="primitive"/>
              </g>
              <g transform="translate(78.05,88.33)" id="img-aa9c94e3-124">
                <path d="M-0.29,-0 L 0.29 -0 0.29 0 -0.29 0 z" class="primitive"/>
              </g>
              <g transform="translate(78.58,87.31)" id="img-aa9c94e3-125">
                <path d="M-0.29,-1.02 L 0.29 -1.02 0.29 1.02 -0.29 1.02 z" class="primitive"/>
              </g>
              <g transform="translate(79.1,88.33)" id="img-aa9c94e3-126">
                <path d="M-0.29,-0 L 0.29 -0 0.29 0 -0.29 0 z" class="primitive"/>
              </g>
              <g transform="translate(79.62,87.31)" id="img-aa9c94e3-127">
                <path d="M-0.29,-1.02 L 0.29 -1.02 0.29 1.02 -0.29 1.02 z" class="primitive"/>
              </g>
              <g transform="translate(80.15,88.33)" id="img-aa9c94e3-128">
                <path d="M-0.29,-0 L 0.29 -0 0.29 0 -0.29 0 z" class="primitive"/>
              </g>
              <g transform="translate(80.67,88.33)" id="img-aa9c94e3-129">
                <path d="M-0.29,-0 L 0.29 -0 0.29 0 -0.29 0 z" class="primitive"/>
              </g>
              <g transform="translate(81.2,87.31)" id="img-aa9c94e3-130">
                <path d="M-0.29,-1.02 L 0.29 -1.02 0.29 1.02 -0.29 1.02 z" class="primitive"/>
              </g>
            </g>
          </g>
        </g>
      </g>
    </g>
  </g>
  <g class="guide ylabels" font-size="2.82" font-family="'PT Sans Caption','Helvetica Neue','Helvetica',sans-serif" fill="#6C606B" id="img-aa9c94e3-131">
    <g transform="translate(16.96,88.33)" id="img-aa9c94e3-132">
      <g class="primitive">
        <text text-anchor="end" dy="0.35em">0</text>
      </g>
    </g>
    <g transform="translate(16.96,68)" id="img-aa9c94e3-133">
      <g class="primitive">
        <text text-anchor="end" dy="0.35em">10</text>
      </g>
    </g>
    <g transform="translate(16.96,47.66)" id="img-aa9c94e3-134">
      <g class="primitive">
        <text text-anchor="end" dy="0.35em">20</text>
      </g>
    </g>
    <g transform="translate(16.96,27.33)" id="img-aa9c94e3-135">
      <g class="primitive">
        <text text-anchor="end" dy="0.35em">30</text>
      </g>
    </g>
    <g transform="translate(16.96,7)" id="img-aa9c94e3-136">
      <g class="primitive">
        <text text-anchor="end" dy="0.35em">40</text>
      </g>
    </g>
  </g>
  <g font-size="3.88" font-family="'PT Sans','Helvetica Neue','Helvetica',sans-serif" fill="#564A55" stroke="#000000" stroke-opacity="0.000" id="img-aa9c94e3-137">
    <g transform="translate(8.81,45.66)" id="img-aa9c94e3-138">
      <g class="primitive">
        <text text-anchor="middle" dy="0.35em" transform="rotate(-90,0, 2)">frequency</text>
      </g>
    </g>
  </g>
</g>
<defs>
  <clipPath id="img-aa9c94e3-11">
    <path d="M17.96,5 L 87.56 5 87.56 90.33 17.96 90.33" />
  </clipPath>
</defs>
</svg>
