<?xml version="1.0" encoding="UTF-8"?>
<svg xmlns="http://www.w3.org/2000/svg"
     xmlns:xlink="http://www.w3.org/1999/xlink"
     xmlns:gadfly="http://www.gadflyjl.org/ns"
     version="1.2"
     width="141.42mm" height="100mm" viewBox="0 0 141.42 100"
     stroke="none"
     fill="#000000"
     stroke-width="0.3"
     font-size="3.88"
>
<defs>
  <marker id="arrow" markerWidth="15" markerHeight="7" refX="5" refY="3.5" orient="auto" markerUnits="strokeWidth">
    <path d="M0,0 L15,3.5 L0,7 z" stroke="context-stroke" fill="context-stroke"/>
  </marker>
</defs>
<g class="plotroot xscalable yscalable" id="img-6505040d-1">
  <g class="guide xlabels" font-size="2.82" font-family="'PT Sans Caption','Helvetica Neue','Helvetica',sans-serif" fill="#6C606B" id="img-6505040d-2">
    <g transform="translate(18.28,91.33)">
      <g class="primitive">
        <text text-anchor="middle" dy="0.6em">5.6</text>
      </g>
    </g>
    <g transform="translate(29.52,91.33)">
      <g class="primitive">
        <text text-anchor="middle" dy="0.6em">5.8</text>
      </g>
    </g>
    <g transform="translate(40.76,91.33)">
      <g class="primitive">
        <text text-anchor="middle" dy="0.6em">6.0</text>
      </g>
    </g>
    <g transform="translate(52,91.33)">
      <g class="primitive">
        <text text-anchor="middle" dy="0.6em">6.2</text>
      </g>
    </g>
    <g transform="translate(63.24,91.33)">
      <g class="primitive">
        <text text-anchor="middle" dy="0.6em">6.4</text>
      </g>
    </g>
    <g transform="translate(74.48,91.33)">
      <g class="primitive">
        <text text-anchor="middle" dy="0.6em">6.6</text>
      </g>
    </g>
  </g>
  <g class="guide colorkey" id="img-6505040d-3">
    <g class="color_coding_coding_noncoding_noncoding_4-clique" id="img-6505040d-4">
      <g fill="#4C404B" font-size="2.82" font-family="'PT Sans','Helvetica Neue','Helvetica',sans-serif" id="img-6505040d-5">
        <g transform="translate(80.29,49.48)" id="img-6505040d-6">
          <g class="primitive">
            <text dy="0.35em">coding_coding_noncoding_noncoding_4-clique</text>
          </g>
        </g>
      </g>
      <g fill-opacity="1" fill="#00BFFF" stroke="#FFFFFF" id="img-6505040d-7">
        <g transform="translate(78.39,49.48)" id="img-6505040d-8">
          <path d="M-0.91,-0.91 L 0.91 -0.91 0.91 0.91 -0.91 0.91 z" class="primitive"/>
        </g>
      </g>
    </g>
    <g fill="#362A35" font-size="3.88" font-family="'PT Sans','Helvetica Neue','Helvetica',sans-serif" stroke="#000000" stroke-opacity="0.000" id="img-6505040d-9">
      <g transform="translate(77.48,45.66)" id="img-6505040d-10">
        <g class="primitive">
          <text dy="-0em">graphlet</text>
        </g>
      </g>
    </g>
  </g>
  <g clip-path="url(#img-6505040d-11)">
    <g id="img-6505040d-12">
      <g pointer-events="visible" stroke-width="0.3" fill="#000000" fill-opacity="0.000" stroke="#000000" stroke-opacity="0.000" class="guide background" id="img-6505040d-13">
        <g transform="translate(46.38,47.66)" id="img-6505040d-14">
          <path d="M-30.1,-42.66 L 30.1 -42.66 30.1 42.66 -30.1 42.66 z" class="primitive"/>
        </g>
      </g>
      <g class="guide ygridlines xfixed" stroke-dasharray="0.5,0.5" stroke-width="0.2" stroke="#D0D0E0" id="img-6505040d-15">
        <g transform="translate(46.38,88.33)" id="img-6505040d-16">
          <path fill="none" d="M-30.1,0 L 30.1 0" class="primitive"/>
        </g>
        <g transform="translate(46.38,74.77)" id="img-6505040d-17">
          <path fill="none" d="M-30.1,0 L 30.1 0" class="primitive"/>
        </g>
        <g transform="translate(46.38,61.22)" id="img-6505040d-18">
          <path fill="none" d="M-30.1,0 L 30.1 0" class="primitive"/>
        </g>
        <g transform="translate(46.38,47.66)" id="img-6505040d-19">
          <path fill="none" d="M-30.1,0 L 30.1 0" class="primitive"/>
        </g>
        <g transform="translate(46.38,34.11)" id="img-6505040d-20">
          <path fill="none" d="M-30.1,0 L 30.1 0" class="primitive"/>
        </g>
        <g transform="translate(46.38,20.55)" id="img-6505040d-21">
          <path fill="none" d="M-30.1,0 L 30.1 0" class="primitive"/>
        </g>
        <g transform="translate(46.38,7)" id="img-6505040d-22">
          <path fill="none" d="M-30.1,0 L 30.1 0" class="primitive"/>
        </g>
      </g>
      <g class="guide xgridlines yfixed" stroke-dasharray="0.5,0.5" stroke-width="0.2" stroke="#D0D0E0" id="img-6505040d-23">
        <g transform="translate(18.28,47.66)" id="img-6505040d-24">
          <path fill="none" d="M0,-42.66 L 0 42.66" class="primitive"/>
        </g>
        <g transform="translate(29.52,47.66)" id="img-6505040d-25">
          <path fill="none" d="M0,-42.66 L 0 42.66" class="primitive"/>
        </g>
        <g transform="translate(40.76,47.66)" id="img-6505040d-26">
          <path fill="none" d="M0,-42.66 L 0 42.66" class="primitive"/>
        </g>
        <g transform="translate(52,47.66)" id="img-6505040d-27">
          <path fill="none" d="M0,-42.66 L 0 42.66" class="primitive"/>
        </g>
        <g transform="translate(63.24,47.66)" id="img-6505040d-28">
          <path fill="none" d="M0,-42.66 L 0 42.66" class="primitive"/>
        </g>
        <g transform="translate(74.48,47.66)" id="img-6505040d-29">
          <path fill="none" d="M0,-42.66 L 0 42.66" class="primitive"/>
        </g>
      </g>
      <g class="plotpanel" id="img-6505040d-30">
        <metadata>
          <boundingbox value="16.284999999999997mm 5.0mm 60.196356237309516mm 85.32666666666667mm"/>
          <unitbox value="5.564410503920321 6.147553078121158 1.071178992159359 -6.295106156242315"/>
        </metadata>
        <g shape-rendering="crispEdges" stroke-width="0.3" id="img-6505040d-31">
          <g stroke="#000000" stroke-opacity="0.000" class="geometry" id="img-6505040d-32">
            <g fill="#00BFFF" id="img-6505040d-33">
              <g transform="translate(25.28,81.55)" id="img-6505040d-34">
                <path d="M-0.26,-6.78 L 0.26 -6.78 0.26 6.78 -0.26 6.78 z" class="primitive"/>
              </g>
              <g transform="translate(25.76,88.33)" id="img-6505040d-35">
                <path d="M-0.26,-0 L 0.26 -0 0.26 0 -0.26 0 z" class="primitive"/>
              </g>
              <g transform="translate(26.24,88.33)" id="img-6505040d-36">
                <path d="M-0.26,-0 L 0.26 -0 0.26 0 -0.26 0 z" class="primitive"/>
              </g>
              <g transform="translate(26.71,88.33)" id="img-6505040d-37">
                <path d="M-0.26,-0 L 0.26 -0 0.26 0 -0.26 0 z" class="primitive"/>
              </g>
              <g transform="translate(27.19,88.33)" id="img-6505040d-38">
                <path d="M-0.26,-0 L 0.26 -0 0.26 0 -0.26 0 z" class="primitive"/>
              </g>
              <g transform="translate(27.66,88.33)" id="img-6505040d-39">
                <path d="M-0.26,-0 L 0.26 -0 0.26 0 -0.26 0 z" class="primitive"/>
              </g>
              <g transform="translate(28.14,88.33)" id="img-6505040d-40">
                <path d="M-0.26,-0 L 0.26 -0 0.26 0 -0.26 0 z" class="primitive"/>
              </g>
              <g transform="translate(28.61,88.33)" id="img-6505040d-41">
                <path d="M-0.26,-0 L 0.26 -0 0.26 0 -0.26 0 z" class="primitive"/>
              </g>
              <g transform="translate(29.09,88.33)" id="img-6505040d-42">
                <path d="M-0.26,-0 L 0.26 -0 0.26 0 -0.26 0 z" class="primitive"/>
              </g>
              <g transform="translate(29.56,88.33)" id="img-6505040d-43">
                <path d="M-0.26,-0 L 0.26 -0 0.26 0 -0.26 0 z" class="primitive"/>
              </g>
              <g transform="translate(30.04,88.33)" id="img-6505040d-44">
                <path d="M-0.26,-0 L 0.26 -0 0.26 0 -0.26 0 z" class="primitive"/>
              </g>
              <g transform="translate(30.52,88.33)" id="img-6505040d-45">
                <path d="M-0.26,-0 L 0.26 -0 0.26 0 -0.26 0 z" class="primitive"/>
              </g>
              <g transform="translate(30.99,88.33)" id="img-6505040d-46">
                <path d="M-0.26,-0 L 0.26 -0 0.26 0 -0.26 0 z" class="primitive"/>
              </g>
              <g transform="translate(31.47,88.33)" id="img-6505040d-47">
                <path d="M-0.26,-0 L 0.26 -0 0.26 0 -0.26 0 z" class="primitive"/>
              </g>
              <g transform="translate(31.94,88.33)" id="img-6505040d-48">
                <path d="M-0.26,-0 L 0.26 -0 0.26 0 -0.26 0 z" class="primitive"/>
              </g>
              <g transform="translate(32.42,88.33)" id="img-6505040d-49">
                <path d="M-0.26,-0 L 0.26 -0 0.26 0 -0.26 0 z" class="primitive"/>
              </g>
              <g transform="translate(32.89,88.33)" id="img-6505040d-50">
                <path d="M-0.26,-0 L 0.26 -0 0.26 0 -0.26 0 z" class="primitive"/>
              </g>
              <g transform="translate(33.37,88.33)" id="img-6505040d-51">
                <path d="M-0.26,-0 L 0.26 -0 0.26 0 -0.26 0 z" class="primitive"/>
              </g>
              <g transform="translate(33.85,88.33)" id="img-6505040d-52">
                <path d="M-0.26,-0 L 0.26 -0 0.26 0 -0.26 0 z" class="primitive"/>
              </g>
              <g transform="translate(34.32,81.55)" id="img-6505040d-53">
                <path d="M-0.26,-6.78 L 0.26 -6.78 0.26 6.78 -0.26 6.78 z" class="primitive"/>
              </g>
              <g transform="translate(34.8,88.33)" id="img-6505040d-54">
                <path d="M-0.26,-0 L 0.26 -0 0.26 0 -0.26 0 z" class="primitive"/>
              </g>
              <g transform="translate(35.27,88.33)" id="img-6505040d-55">
                <path d="M-0.26,-0 L 0.26 -0 0.26 0 -0.26 0 z" class="primitive"/>
              </g>
              <g transform="translate(35.75,88.33)" id="img-6505040d-56">
                <path d="M-0.26,-0 L 0.26 -0 0.26 0 -0.26 0 z" class="primitive"/>
              </g>
              <g transform="translate(36.22,88.33)" id="img-6505040d-57">
                <path d="M-0.26,-0 L 0.26 -0 0.26 0 -0.26 0 z" class="primitive"/>
              </g>
              <g transform="translate(36.7,88.33)" id="img-6505040d-58">
                <path d="M-0.26,-0 L 0.26 -0 0.26 0 -0.26 0 z" class="primitive"/>
              </g>
              <g transform="translate(37.17,88.33)" id="img-6505040d-59">
                <path d="M-0.26,-0 L 0.26 -0 0.26 0 -0.26 0 z" class="primitive"/>
              </g>
              <g transform="translate(37.65,88.33)" id="img-6505040d-60">
                <path d="M-0.26,-0 L 0.26 -0 0.26 0 -0.26 0 z" class="primitive"/>
              </g>
              <g transform="translate(38.13,88.33)" id="img-6505040d-61">
                <path d="M-0.26,-0 L 0.26 -0 0.26 0 -0.26 0 z" class="primitive"/>
              </g>
              <g transform="translate(38.6,88.33)" id="img-6505040d-62">
                <path d="M-0.26,-0 L 0.26 -0 0.26 0 -0.26 0 z" class="primitive"/>
              </g>
              <g transform="translate(39.08,88.33)" id="img-6505040d-63">
                <path d="M-0.26,-0 L 0.26 -0 0.26 0 -0.26 0 z" class="primitive"/>
              </g>
              <g transform="translate(39.55,88.33)" id="img-6505040d-64">
                <path d="M-0.26,-0 L 0.26 -0 0.26 0 -0.26 0 z" class="primitive"/>
              </g>
              <g transform="translate(40.03,88.33)" id="img-6505040d-65">
                <path d="M-0.26,-0 L 0.26 -0 0.26 0 -0.26 0 z" class="primitive"/>
              </g>
              <g transform="translate(40.5,88.33)" id="img-6505040d-66">
                <path d="M-0.26,-0 L 0.26 -0 0.26 0 -0.26 0 z" class="primitive"/>
              </g>
              <g transform="translate(40.98,81.55)" id="img-6505040d-67">
                <path d="M-0.26,-6.78 L 0.26 -6.78 0.26 6.78 -0.26 6.78 z" class="primitive"/>
              </g>
              <g transform="translate(41.46,81.55)" id="img-6505040d-68">
                <path d="M-0.26,-6.78 L 0.26 -6.78 0.26 6.78 -0.26 6.78 z" class="primitive"/>
              </g>
              <g transform="translate(41.93,88.33)" id="img-6505040d-69">
                <path d="M-0.26,-0 L 0.26 -0 0.26 0 -0.26 0 z" class="primitive"/>
              </g>
              <g transform="translate(42.41,81.55)" id="img-6505040d-70">
                <path d="M-0.26,-6.78 L 0.26 -6.78 0.26 6.78 -0.26 6.78 z" class="primitive"/>
              </g>
              <g transform="translate(42.88,88.33)" id="img-6505040d-71">
                <path d="M-0.26,-0 L 0.26 -0 0.26 0 -0.26 0 z" class="primitive"/>
              </g>
              <g transform="translate(43.36,88.33)" id="img-6505040d-72">
                <path d="M-0.26,-0 L 0.26 -0 0.26 0 -0.26 0 z" class="primitive"/>
              </g>
              <g transform="translate(43.83,88.33)" id="img-6505040d-73">
                <path d="M-0.26,-0 L 0.26 -0 0.26 0 -0.26 0 z" class="primitive"/>
              </g>
              <g transform="translate(44.31,61.22)" id="img-6505040d-74">
                <path d="M-0.26,-27.11 L 0.26 -27.11 0.26 27.11 -0.26 27.11 z" class="primitive"/>
              </g>
              <g transform="translate(44.78,81.55)" id="img-6505040d-75">
                <path d="M-0.26,-6.78 L 0.26 -6.78 0.26 6.78 -0.26 6.78 z" class="primitive"/>
              </g>
              <g transform="translate(45.26,81.55)" id="img-6505040d-76">
                <path d="M-0.26,-6.78 L 0.26 -6.78 0.26 6.78 -0.26 6.78 z" class="primitive"/>
              </g>
              <g transform="translate(45.74,81.55)" id="img-6505040d-77">
                <path d="M-0.26,-6.78 L 0.26 -6.78 0.26 6.78 -0.26 6.78 z" class="primitive"/>
              </g>
              <g transform="translate(46.21,81.55)" id="img-6505040d-78">
                <path d="M-0.26,-6.78 L 0.26 -6.78 0.26 6.78 -0.26 6.78 z" class="primitive"/>
              </g>
              <g transform="translate(46.69,81.55)" id="img-6505040d-79">
                <path d="M-0.26,-6.78 L 0.26 -6.78 0.26 6.78 -0.26 6.78 z" class="primitive"/>
              </g>
              <g transform="translate(47.16,81.55)" id="img-6505040d-80">
                <path d="M-0.26,-6.78 L 0.26 -6.78 0.26 6.78 -0.26 6.78 z" class="primitive"/>
              </g>
              <g transform="translate(47.64,74.77)" id="img-6505040d-81">
                <path d="M-0.26,-13.55 L 0.26 -13.55 0.26 13.55 -0.26 13.55 z" class="primitive"/>
              </g>
              <g transform="translate(48.11,88.33)" id="img-6505040d-82">
                <path d="M-0.26,-0 L 0.26 -0 0.26 0 -0.26 0 z" class="primitive"/>
              </g>
              <g transform="translate(48.59,81.55)" id="img-6505040d-83">
                <path d="M-0.26,-6.78 L 0.26 -6.78 0.26 6.78 -0.26 6.78 z" class="primitive"/>
              </g>
              <g transform="translate(49.07,81.55)" id="img-6505040d-84">
                <path d="M-0.26,-6.78 L 0.26 -6.78 0.26 6.78 -0.26 6.78 z" class="primitive"/>
              </g>
              <g transform="translate(49.54,74.77)" id="img-6505040d-85">
                <path d="M-0.26,-13.55 L 0.26 -13.55 0.26 13.55 -0.26 13.55 z" class="primitive"/>
              </g>
              <g transform="translate(50.02,54.44)" id="img-6505040d-86">
                <path d="M-0.26,-33.89 L 0.26 -33.89 0.26 33.89 -0.26 33.89 z" class="primitive"/>
              </g>
              <g transform="translate(50.49,81.55)" id="img-6505040d-87">
                <path d="M-0.26,-6.78 L 0.26 -6.78 0.26 6.78 -0.26 6.78 z" class="primitive"/>
              </g>
              <g transform="translate(50.97,74.77)" id="img-6505040d-88">
                <path d="M-0.26,-13.55 L 0.26 -13.55 0.26 13.55 -0.26 13.55 z" class="primitive"/>
              </g>
              <g transform="translate(51.44,54.44)" id="img-6505040d-89">
                <path d="M-0.26,-33.89 L 0.26 -33.89 0.26 33.89 -0.26 33.89 z" class="primitive"/>
              </g>
              <g transform="translate(51.92,74.77)" id="img-6505040d-90">
                <path d="M-0.26,-13.55 L 0.26 -13.55 0.26 13.55 -0.26 13.55 z" class="primitive"/>
              </g>
              <g transform="translate(52.39,68)" id="img-6505040d-91">
                <path d="M-0.26,-20.33 L 0.26 -20.33 0.26 20.33 -0.26 20.33 z" class="primitive"/>
              </g>
              <g transform="translate(52.87,74.77)" id="img-6505040d-92">
                <path d="M-0.26,-13.55 L 0.26 -13.55 0.26 13.55 -0.26 13.55 z" class="primitive"/>
              </g>
              <g transform="translate(53.35,74.77)" id="img-6505040d-93">
                <path d="M-0.26,-13.55 L 0.26 -13.55 0.26 13.55 -0.26 13.55 z" class="primitive"/>
              </g>
              <g transform="translate(53.82,74.77)" id="img-6505040d-94">
                <path d="M-0.26,-13.55 L 0.26 -13.55 0.26 13.55 -0.26 13.55 z" class="primitive"/>
              </g>
              <g transform="translate(54.3,47.66)" id="img-6505040d-95">
                <path d="M-0.26,-40.66 L 0.26 -40.66 0.26 40.66 -0.26 40.66 z" class="primitive"/>
              </g>
              <g transform="translate(54.77,74.77)" id="img-6505040d-96">
                <path d="M-0.26,-13.55 L 0.26 -13.55 0.26 13.55 -0.26 13.55 z" class="primitive"/>
              </g>
              <g transform="translate(55.25,61.22)" id="img-6505040d-97">
                <path d="M-0.26,-27.11 L 0.26 -27.11 0.26 27.11 -0.26 27.11 z" class="primitive"/>
              </g>
              <g transform="translate(55.72,74.77)" id="img-6505040d-98">
                <path d="M-0.26,-13.55 L 0.26 -13.55 0.26 13.55 -0.26 13.55 z" class="primitive"/>
              </g>
              <g transform="translate(56.2,68)" id="img-6505040d-99">
                <path d="M-0.26,-20.33 L 0.26 -20.33 0.26 20.33 -0.26 20.33 z" class="primitive"/>
              </g>
              <g transform="translate(56.68,74.77)" id="img-6505040d-100">
                <path d="M-0.26,-13.55 L 0.26 -13.55 0.26 13.55 -0.26 13.55 z" class="primitive"/>
              </g>
              <g transform="translate(57.15,81.55)" id="img-6505040d-101">
                <path d="M-0.26,-6.78 L 0.26 -6.78 0.26 6.78 -0.26 6.78 z" class="primitive"/>
              </g>
              <g transform="translate(57.63,81.55)" id="img-6505040d-102">
                <path d="M-0.26,-6.78 L 0.26 -6.78 0.26 6.78 -0.26 6.78 z" class="primitive"/>
              </g>
              <g transform="translate(58.1,74.77)" id="img-6505040d-103">
                <path d="M-0.26,-13.55 L 0.26 -13.55 0.26 13.55 -0.26 13.55 z" class="primitive"/>
              </g>
              <g transform="translate(58.58,68)" id="img-6505040d-104">
                <path d="M-0.26,-20.33 L 0.26 -20.33 0.26 20.33 -0.26 20.33 z" class="primitive"/>
              </g>
              <g transform="translate(59.05,74.77)" id="img-6505040d-105">
                <path d="M-0.26,-13.55 L 0.26 -13.55 0.26 13.55 -0.26 13.55 z" class="primitive"/>
              </g>
              <g transform="translate(59.53,68)" id="img-6505040d-106">
                <path d="M-0.26,-20.33 L 0.26 -20.33 0.26 20.33 -0.26 20.33 z" class="primitive"/>
              </g>
              <g transform="translate(60,88.33)" id="img-6505040d-107">
                <path d="M-0.26,-0 L 0.26 -0 0.26 0 -0.26 0 z" class="primitive"/>
              </g>
              <g transform="translate(60.48,74.77)" id="img-6505040d-108">
                <path d="M-0.26,-13.55 L 0.26 -13.55 0.26 13.55 -0.26 13.55 z" class="primitive"/>
              </g>
              <g transform="translate(60.96,88.33)" id="img-6505040d-109">
                <path d="M-0.26,-0 L 0.26 -0 0.26 0 -0.26 0 z" class="primitive"/>
              </g>
              <g transform="translate(61.43,54.44)" id="img-6505040d-110">
                <path d="M-0.26,-33.89 L 0.26 -33.89 0.26 33.89 -0.26 33.89 z" class="primitive"/>
              </g>
              <g transform="translate(61.91,54.44)" id="img-6505040d-111">
                <path d="M-0.26,-33.89 L 0.26 -33.89 0.26 33.89 -0.26 33.89 z" class="primitive"/>
              </g>
              <g transform="translate(62.38,88.33)" id="img-6505040d-112">
                <path d="M-0.26,-0 L 0.26 -0 0.26 0 -0.26 0 z" class="primitive"/>
              </g>
              <g transform="translate(62.86,88.33)" id="img-6505040d-113">
                <path d="M-0.26,-0 L 0.26 -0 0.26 0 -0.26 0 z" class="primitive"/>
              </g>
              <g transform="translate(63.33,81.55)" id="img-6505040d-114">
                <path d="M-0.26,-6.78 L 0.26 -6.78 0.26 6.78 -0.26 6.78 z" class="primitive"/>
              </g>
              <g transform="translate(63.81,81.55)" id="img-6505040d-115">
                <path d="M-0.26,-6.78 L 0.26 -6.78 0.26 6.78 -0.26 6.78 z" class="primitive"/>
              </g>
              <g transform="translate(64.29,81.55)" id="img-6505040d-116">
                <path d="M-0.26,-6.78 L 0.26 -6.78 0.26 6.78 -0.26 6.78 z" class="primitive"/>
              </g>
              <g transform="translate(64.76,88.33)" id="img-6505040d-117">
                <path d="M-0.26,-0 L 0.26 -0 0.26 0 -0.26 0 z" class="primitive"/>
              </g>
              <g transform="translate(65.24,81.55)" id="img-6505040d-118">
                <path d="M-0.26,-6.78 L 0.26 -6.78 0.26 6.78 -0.26 6.78 z" class="primitive"/>
              </g>
              <g transform="translate(65.71,81.55)" id="img-6505040d-119">
                <path d="M-0.26,-6.78 L 0.26 -6.78 0.26 6.78 -0.26 6.78 z" class="primitive"/>
              </g>
              <g transform="translate(66.19,88.33)" id="img-6505040d-120">
                <path d="M-0.26,-0 L 0.26 -0 0.26 0 -0.26 0 z" class="primitive"/>
              </g>
              <g transform="translate(66.66,88.33)" id="img-6505040d-121">
                <path d="M-0.26,-0 L 0.26 -0 0.26 0 -0.26 0 z" class="primitive"/>
              </g>
              <g transform="translate(67.14,88.33)" id="img-6505040d-122">
                <path d="M-0.26,-0 L 0.26 -0 0.26 0 -0.26 0 z" class="primitive"/>
              </g>
              <g transform="translate(67.61,81.55)" id="img-6505040d-123">
                <path d="M-0.26,-6.78 L 0.26 -6.78 0.26 6.78 -0.26 6.78 z" class="primitive"/>
              </g>
              <g transform="translate(68.09,74.77)" id="img-6505040d-124">
                <path d="M-0.26,-13.55 L 0.26 -13.55 0.26 13.55 -0.26 13.55 z" class="primitive"/>
              </g>
              <g transform="translate(68.57,88.33)" id="img-6505040d-125">
                <path d="M-0.26,-0 L 0.26 -0 0.26 0 -0.26 0 z" class="primitive"/>
              </g>
              <g transform="translate(69.04,88.33)" id="img-6505040d-126">
                <path d="M-0.26,-0 L 0.26 -0 0.26 0 -0.26 0 z" class="primitive"/>
              </g>
              <g transform="translate(69.52,88.33)" id="img-6505040d-127">
                <path d="M-0.26,-0 L 0.26 -0 0.26 0 -0.26 0 z" class="primitive"/>
              </g>
              <g transform="translate(69.99,74.77)" id="img-6505040d-128">
                <path d="M-0.26,-13.55 L 0.26 -13.55 0.26 13.55 -0.26 13.55 z" class="primitive"/>
              </g>
              <g transform="translate(70.47,88.33)" id="img-6505040d-129">
                <path d="M-0.26,-0 L 0.26 -0 0.26 0 -0.26 0 z" class="primitive"/>
              </g>
              <g transform="translate(70.94,81.55)" id="img-6505040d-130">
                <path d="M-0.26,-6.78 L 0.26 -6.78 0.26 6.78 -0.26 6.78 z" class="primitive"/>
              </g>
              <g transform="translate(71.42,88.33)" id="img-6505040d-131">
                <path d="M-0.26,-0 L 0.26 -0 0.26 0 -0.26 0 z" class="primitive"/>
              </g>
              <g transform="translate(71.9,88.33)" id="img-6505040d-132">
                <path d="M-0.26,-0 L 0.26 -0 0.26 0 -0.26 0 z" class="primitive"/>
              </g>
              <g transform="translate(72.37,81.55)" id="img-6505040d-133">
                <path d="M-0.26,-6.78 L 0.26 -6.78 0.26 6.78 -0.26 6.78 z" class="primitive"/>
              </g>
            </g>
          </g>
        </g>
      </g>
    </g>
  </g>
  <g class="guide ylabels" font-size="2.82" font-family="'PT Sans Caption','Helvetica Neue','Helvetica',sans-serif" fill="#6C606B" id="img-6505040d-134">
    <g transform="translate(15.28,88.33)" id="img-6505040d-135">
      <g class="primitive">
        <text text-anchor="end" dy="0.35em">0</text>
      </g>
    </g>
    <g transform="translate(15.28,74.77)" id="img-6505040d-136">
      <g class="primitive">
        <text text-anchor="end" dy="0.35em">1</text>
      </g>
    </g>
    <g transform="translate(15.28,61.22)" id="img-6505040d-137">
      <g class="primitive">
        <text text-anchor="end" dy="0.35em">2</text>
      </g>
    </g>
    <g transform="translate(15.28,47.66)" id="img-6505040d-138">
      <g class="primitive">
        <text text-anchor="end" dy="0.35em">3</text>
      </g>
    </g>
    <g transform="translate(15.28,34.11)" id="img-6505040d-139">
      <g class="primitive">
        <text text-anchor="end" dy="0.35em">4</text>
      </g>
    </g>
    <g transform="translate(15.28,20.55)" id="img-6505040d-140">
      <g class="primitive">
        <text text-anchor="end" dy="0.35em">5</text>
      </g>
    </g>
    <g transform="translate(15.28,7)" id="img-6505040d-141">
      <g class="primitive">
        <text text-anchor="end" dy="0.35em">6</text>
      </g>
    </g>
  </g>
  <g font-size="3.88" font-family="'PT Sans','Helvetica Neue','Helvetica',sans-serif" fill="#564A55" stroke="#000000" stroke-opacity="0.000" id="img-6505040d-142">
    <g transform="translate(8.81,45.66)" id="img-6505040d-143">
      <g class="primitive">
        <text text-anchor="middle" dy="0.35em" transform="rotate(-90,0, 2)">frequency</text>
      </g>
    </g>
  </g>
</g>
<defs>
  <clipPath id="img-6505040d-11">
    <path d="M16.28,5 L 76.48 5 76.48 90.33 16.28 90.33" />
  </clipPath>
</defs>
</svg>
