<?xml version="1.0" encoding="UTF-8"?>
<svg xmlns="http://www.w3.org/2000/svg"
     xmlns:xlink="http://www.w3.org/1999/xlink"
     xmlns:gadfly="http://www.gadflyjl.org/ns"
     version="1.2"
     width="141.42mm" height="100mm" viewBox="0 0 141.42 100"
     stroke="none"
     fill="#000000"
     stroke-width="0.3"
     font-size="3.88"
>
<defs>
  <marker id="arrow" markerWidth="15" markerHeight="7" refX="5" refY="3.5" orient="auto" markerUnits="strokeWidth">
    <path d="M0,0 L15,3.5 L0,7 z" stroke="context-stroke" fill="context-stroke"/>
  </marker>
</defs>
<g class="plotroot xscalable yscalable" id="img-08f8e78b-1">
  <g class="guide xlabels" font-size="2.82" font-family="'PT Sans Caption','Helvetica Neue','Helvetica',sans-serif" fill="#6C606B" id="img-08f8e78b-2">
    <g transform="translate(19.96,91.33)">
      <g class="primitive">
        <text text-anchor="middle" dy="0.6em">0</text>
      </g>
    </g>
    <g transform="translate(36.38,91.33)">
      <g class="primitive">
        <text text-anchor="middle" dy="0.6em">1×10³</text>
      </g>
    </g>
    <g transform="translate(52.8,91.33)">
      <g class="primitive">
        <text text-anchor="middle" dy="0.6em">2×10³</text>
      </g>
    </g>
    <g transform="translate(69.22,91.33)">
      <g class="primitive">
        <text text-anchor="middle" dy="0.6em">3×10³</text>
      </g>
    </g>
    <g transform="translate(85.64,91.33)">
      <g class="primitive">
        <text text-anchor="middle" dy="0.6em">4×10³</text>
      </g>
    </g>
  </g>
  <g class="guide colorkey" id="img-08f8e78b-3">
    <g class="color_coding_noncoding_noncoding_3-path" id="img-08f8e78b-4">
      <g fill="#4C404B" font-size="2.82" font-family="'PT Sans','Helvetica Neue','Helvetica',sans-serif" id="img-08f8e78b-5">
        <g transform="translate(91.45,49.48)" id="img-08f8e78b-6">
          <g class="primitive">
            <text dy="0.35em">coding_noncoding_noncoding_3-path</text>
          </g>
        </g>
      </g>
      <g fill-opacity="1" fill="#00BFFF" stroke="#FFFFFF" id="img-08f8e78b-7">
        <g transform="translate(89.55,49.48)" id="img-08f8e78b-8">
          <path d="M-0.91,-0.91 L 0.91 -0.91 0.91 0.91 -0.91 0.91 z" class="primitive"/>
        </g>
      </g>
    </g>
    <g fill="#362A35" font-size="3.88" font-family="'PT Sans','Helvetica Neue','Helvetica',sans-serif" stroke="#000000" stroke-opacity="0.000" id="img-08f8e78b-9">
      <g transform="translate(88.64,45.66)" id="img-08f8e78b-10">
        <g class="primitive">
          <text dy="-0em">graphlet</text>
        </g>
      </g>
    </g>
  </g>
  <g clip-path="url(#img-08f8e78b-11)">
    <g id="img-08f8e78b-12">
      <g pointer-events="visible" stroke-width="0.3" fill="#000000" fill-opacity="0.000" stroke="#000000" stroke-opacity="0.000" class="guide background" id="img-08f8e78b-13">
        <g transform="translate(52.8,47.66)" id="img-08f8e78b-14">
          <path d="M-34.84,-42.66 L 34.84 -42.66 34.84 42.66 -34.84 42.66 z" class="primitive"/>
        </g>
      </g>
      <g class="guide ygridlines xfixed" stroke-dasharray="0.5,0.5" stroke-width="0.2" stroke="#D0D0E0" id="img-08f8e78b-15">
        <g transform="translate(52.8,88.33)" id="img-08f8e78b-16">
          <path fill="none" d="M-34.84,0 L 34.84 0" class="primitive"/>
        </g>
        <g transform="translate(52.8,68)" id="img-08f8e78b-17">
          <path fill="none" d="M-34.84,0 L 34.84 0" class="primitive"/>
        </g>
        <g transform="translate(52.8,47.66)" id="img-08f8e78b-18">
          <path fill="none" d="M-34.84,0 L 34.84 0" class="primitive"/>
        </g>
        <g transform="translate(52.8,27.33)" id="img-08f8e78b-19">
          <path fill="none" d="M-34.84,0 L 34.84 0" class="primitive"/>
        </g>
        <g transform="translate(52.8,7)" id="img-08f8e78b-20">
          <path fill="none" d="M-34.84,0 L 34.84 0" class="primitive"/>
        </g>
      </g>
      <g class="guide xgridlines yfixed" stroke-dasharray="0.5,0.5" stroke-width="0.2" stroke="#D0D0E0" id="img-08f8e78b-21">
        <g transform="translate(19.96,47.66)" id="img-08f8e78b-22">
          <path fill="none" d="M0,-42.66 L 0 42.66" class="primitive"/>
        </g>
        <g transform="translate(36.38,47.66)" id="img-08f8e78b-23">
          <path fill="none" d="M0,-42.66 L 0 42.66" class="primitive"/>
        </g>
        <g transform="translate(52.8,47.66)" id="img-08f8e78b-24">
          <path fill="none" d="M0,-42.66 L 0 42.66" class="primitive"/>
        </g>
        <g transform="translate(69.22,47.66)" id="img-08f8e78b-25">
          <path fill="none" d="M0,-42.66 L 0 42.66" class="primitive"/>
        </g>
        <g transform="translate(85.64,47.66)" id="img-08f8e78b-26">
          <path fill="none" d="M0,-42.66 L 0 42.66" class="primitive"/>
        </g>
      </g>
      <g class="plotpanel" id="img-08f8e78b-27">
        <metadata>
          <boundingbox value="17.95833333333333mm 5.0mm 69.68302290397617mm 85.32666666666667mm"/>
          <unitbox value="-121.79707398204587 40.98368718747438 4243.5941479640915 -41.96737437494876"/>
        </metadata>
        <g shape-rendering="crispEdges" stroke-width="0.3" id="img-08f8e78b-28">
          <g stroke="#000000" stroke-opacity="0.000" class="geometry" id="img-08f8e78b-29">
            <g fill="#00BFFF" id="img-08f8e78b-30">
              <g transform="translate(39.8,87.31)" id="img-08f8e78b-31">
                <path d="M-0.21,-1.02 L 0.21 -1.02 0.21 1.02 -0.21 1.02 z" class="primitive"/>
              </g>
              <g transform="translate(40.17,88.33)" id="img-08f8e78b-32">
                <path d="M-0.21,-0 L 0.21 -0 0.21 0 -0.21 0 z" class="primitive"/>
              </g>
              <g transform="translate(40.54,88.33)" id="img-08f8e78b-33">
                <path d="M-0.21,-0 L 0.21 -0 0.21 0 -0.21 0 z" class="primitive"/>
              </g>
              <g transform="translate(40.91,88.33)" id="img-08f8e78b-34">
                <path d="M-0.21,-0 L 0.21 -0 0.21 0 -0.21 0 z" class="primitive"/>
              </g>
              <g transform="translate(41.28,88.33)" id="img-08f8e78b-35">
                <path d="M-0.21,-0 L 0.21 -0 0.21 0 -0.21 0 z" class="primitive"/>
              </g>
              <g transform="translate(41.65,88.33)" id="img-08f8e78b-36">
                <path d="M-0.21,-0 L 0.21 -0 0.21 0 -0.21 0 z" class="primitive"/>
              </g>
              <g transform="translate(42.03,87.31)" id="img-08f8e78b-37">
                <path d="M-0.21,-1.02 L 0.21 -1.02 0.21 1.02 -0.21 1.02 z" class="primitive"/>
              </g>
              <g transform="translate(42.4,88.33)" id="img-08f8e78b-38">
                <path d="M-0.21,-0 L 0.21 -0 0.21 0 -0.21 0 z" class="primitive"/>
              </g>
              <g transform="translate(42.77,88.33)" id="img-08f8e78b-39">
                <path d="M-0.21,-0 L 0.21 -0 0.21 0 -0.21 0 z" class="primitive"/>
              </g>
              <g transform="translate(43.14,86.29)" id="img-08f8e78b-40">
                <path d="M-0.21,-2.03 L 0.21 -2.03 0.21 2.03 -0.21 2.03 z" class="primitive"/>
              </g>
              <g transform="translate(43.51,87.31)" id="img-08f8e78b-41">
                <path d="M-0.21,-1.02 L 0.21 -1.02 0.21 1.02 -0.21 1.02 z" class="primitive"/>
              </g>
              <g transform="translate(43.88,86.29)" id="img-08f8e78b-42">
                <path d="M-0.21,-2.03 L 0.21 -2.03 0.21 2.03 -0.21 2.03 z" class="primitive"/>
              </g>
              <g transform="translate(44.25,86.29)" id="img-08f8e78b-43">
                <path d="M-0.21,-2.03 L 0.21 -2.03 0.21 2.03 -0.21 2.03 z" class="primitive"/>
              </g>
              <g transform="translate(44.62,86.29)" id="img-08f8e78b-44">
                <path d="M-0.21,-2.03 L 0.21 -2.03 0.21 2.03 -0.21 2.03 z" class="primitive"/>
              </g>
              <g transform="translate(44.99,87.31)" id="img-08f8e78b-45">
                <path d="M-0.21,-1.02 L 0.21 -1.02 0.21 1.02 -0.21 1.02 z" class="primitive"/>
              </g>
              <g transform="translate(45.36,87.31)" id="img-08f8e78b-46">
                <path d="M-0.21,-1.02 L 0.21 -1.02 0.21 1.02 -0.21 1.02 z" class="primitive"/>
              </g>
              <g transform="translate(45.73,85.28)" id="img-08f8e78b-47">
                <path d="M-0.21,-3.05 L 0.21 -3.05 0.21 3.05 -0.21 3.05 z" class="primitive"/>
              </g>
              <g transform="translate(46.11,83.24)" id="img-08f8e78b-48">
                <path d="M-0.21,-5.08 L 0.21 -5.08 0.21 5.08 -0.21 5.08 z" class="primitive"/>
              </g>
              <g transform="translate(46.48,76.13)" id="img-08f8e78b-49">
                <path d="M-0.21,-12.2 L 0.21 -12.2 0.21 12.2 -0.21 12.2 z" class="primitive"/>
              </g>
              <g transform="translate(46.85,81.21)" id="img-08f8e78b-50">
                <path d="M-0.21,-7.12 L 0.21 -7.12 0.21 7.12 -0.21 7.12 z" class="primitive"/>
              </g>
              <g transform="translate(47.22,81.21)" id="img-08f8e78b-51">
                <path d="M-0.21,-7.12 L 0.21 -7.12 0.21 7.12 -0.21 7.12 z" class="primitive"/>
              </g>
              <g transform="translate(47.59,79.18)" id="img-08f8e78b-52">
                <path d="M-0.21,-9.15 L 0.21 -9.15 0.21 9.15 -0.21 9.15 z" class="primitive"/>
              </g>
              <g transform="translate(47.96,78.16)" id="img-08f8e78b-53">
                <path d="M-0.21,-10.17 L 0.21 -10.17 0.21 10.17 -0.21 10.17 z" class="primitive"/>
              </g>
              <g transform="translate(48.33,82.23)" id="img-08f8e78b-54">
                <path d="M-0.21,-6.1 L 0.21 -6.1 0.21 6.1 -0.21 6.1 z" class="primitive"/>
              </g>
              <g transform="translate(48.7,77.14)" id="img-08f8e78b-55">
                <path d="M-0.21,-11.18 L 0.21 -11.18 0.21 11.18 -0.21 11.18 z" class="primitive"/>
              </g>
              <g transform="translate(49.07,77.14)" id="img-08f8e78b-56">
                <path d="M-0.21,-11.18 L 0.21 -11.18 0.21 11.18 -0.21 11.18 z" class="primitive"/>
              </g>
              <g transform="translate(49.44,72.06)" id="img-08f8e78b-57">
                <path d="M-0.21,-16.27 L 0.21 -16.27 0.21 16.27 -0.21 16.27 z" class="primitive"/>
              </g>
              <g transform="translate(49.81,80.19)" id="img-08f8e78b-58">
                <path d="M-0.21,-8.13 L 0.21 -8.13 0.21 8.13 -0.21 8.13 z" class="primitive"/>
              </g>
              <g transform="translate(50.19,74.09)" id="img-08f8e78b-59">
                <path d="M-0.21,-14.23 L 0.21 -14.23 0.21 14.23 -0.21 14.23 z" class="primitive"/>
              </g>
              <g transform="translate(50.56,63.93)" id="img-08f8e78b-60">
                <path d="M-0.21,-24.4 L 0.21 -24.4 0.21 24.4 -0.21 24.4 z" class="primitive"/>
              </g>
              <g transform="translate(50.93,60.88)" id="img-08f8e78b-61">
                <path d="M-0.21,-27.45 L 0.21 -27.45 0.21 27.45 -0.21 27.45 z" class="primitive"/>
              </g>
              <g transform="translate(51.3,74.09)" id="img-08f8e78b-62">
                <path d="M-0.21,-14.23 L 0.21 -14.23 0.21 14.23 -0.21 14.23 z" class="primitive"/>
              </g>
              <g transform="translate(51.67,53.76)" id="img-08f8e78b-63">
                <path d="M-0.21,-34.56 L 0.21 -34.56 0.21 34.56 -0.21 34.56 z" class="primitive"/>
              </g>
              <g transform="translate(52.04,66.98)" id="img-08f8e78b-64">
                <path d="M-0.21,-21.35 L 0.21 -21.35 0.21 21.35 -0.21 21.35 z" class="primitive"/>
              </g>
              <g transform="translate(52.41,70.03)" id="img-08f8e78b-65">
                <path d="M-0.21,-18.3 L 0.21 -18.3 0.21 18.3 -0.21 18.3 z" class="primitive"/>
              </g>
              <g transform="translate(52.78,71.04)" id="img-08f8e78b-66">
                <path d="M-0.21,-17.28 L 0.21 -17.28 0.21 17.28 -0.21 17.28 z" class="primitive"/>
              </g>
              <g transform="translate(53.15,59.86)" id="img-08f8e78b-67">
                <path d="M-0.21,-28.46 L 0.21 -28.46 0.21 28.46 -0.21 28.46 z" class="primitive"/>
              </g>
              <g transform="translate(53.52,53.76)" id="img-08f8e78b-68">
                <path d="M-0.21,-34.56 L 0.21 -34.56 0.21 34.56 -0.21 34.56 z" class="primitive"/>
              </g>
              <g transform="translate(53.9,59.86)" id="img-08f8e78b-69">
                <path d="M-0.21,-28.46 L 0.21 -28.46 0.21 28.46 -0.21 28.46 z" class="primitive"/>
              </g>
              <g transform="translate(54.27,60.88)" id="img-08f8e78b-70">
                <path d="M-0.21,-27.45 L 0.21 -27.45 0.21 27.45 -0.21 27.45 z" class="primitive"/>
              </g>
              <g transform="translate(54.64,57.83)" id="img-08f8e78b-71">
                <path d="M-0.21,-30.5 L 0.21 -30.5 0.21 30.5 -0.21 30.5 z" class="primitive"/>
              </g>
              <g transform="translate(55.01,73.08)" id="img-08f8e78b-72">
                <path d="M-0.21,-15.25 L 0.21 -15.25 0.21 15.25 -0.21 15.25 z" class="primitive"/>
              </g>
              <g transform="translate(55.38,60.88)" id="img-08f8e78b-73">
                <path d="M-0.21,-27.45 L 0.21 -27.45 0.21 27.45 -0.21 27.45 z" class="primitive"/>
              </g>
              <g transform="translate(55.75,71.04)" id="img-08f8e78b-74">
                <path d="M-0.21,-17.28 L 0.21 -17.28 0.21 17.28 -0.21 17.28 z" class="primitive"/>
              </g>
              <g transform="translate(56.12,72.06)" id="img-08f8e78b-75">
                <path d="M-0.21,-16.27 L 0.21 -16.27 0.21 16.27 -0.21 16.27 z" class="primitive"/>
              </g>
              <g transform="translate(56.49,69.01)" id="img-08f8e78b-76">
                <path d="M-0.21,-19.32 L 0.21 -19.32 0.21 19.32 -0.21 19.32 z" class="primitive"/>
              </g>
              <g transform="translate(56.86,61.9)" id="img-08f8e78b-77">
                <path d="M-0.21,-26.43 L 0.21 -26.43 0.21 26.43 -0.21 26.43 z" class="primitive"/>
              </g>
              <g transform="translate(57.23,54.78)" id="img-08f8e78b-78">
                <path d="M-0.21,-33.55 L 0.21 -33.55 0.21 33.55 -0.21 33.55 z" class="primitive"/>
              </g>
              <g transform="translate(57.6,56.81)" id="img-08f8e78b-79">
                <path d="M-0.21,-31.51 L 0.21 -31.51 0.21 31.51 -0.21 31.51 z" class="primitive"/>
              </g>
              <g transform="translate(57.98,64.95)" id="img-08f8e78b-80">
                <path d="M-0.21,-23.38 L 0.21 -23.38 0.21 23.38 -0.21 23.38 z" class="primitive"/>
              </g>
              <g transform="translate(58.35,56.81)" id="img-08f8e78b-81">
                <path d="M-0.21,-31.51 L 0.21 -31.51 0.21 31.51 -0.21 31.51 z" class="primitive"/>
              </g>
              <g transform="translate(58.72,61.9)" id="img-08f8e78b-82">
                <path d="M-0.21,-26.43 L 0.21 -26.43 0.21 26.43 -0.21 26.43 z" class="primitive"/>
              </g>
              <g transform="translate(59.09,70.03)" id="img-08f8e78b-83">
                <path d="M-0.21,-18.3 L 0.21 -18.3 0.21 18.3 -0.21 18.3 z" class="primitive"/>
              </g>
              <g transform="translate(59.46,72.06)" id="img-08f8e78b-84">
                <path d="M-0.21,-16.27 L 0.21 -16.27 0.21 16.27 -0.21 16.27 z" class="primitive"/>
              </g>
              <g transform="translate(59.83,62.91)" id="img-08f8e78b-85">
                <path d="M-0.21,-25.41 L 0.21 -25.41 0.21 25.41 -0.21 25.41 z" class="primitive"/>
              </g>
              <g transform="translate(60.2,71.04)" id="img-08f8e78b-86">
                <path d="M-0.21,-17.28 L 0.21 -17.28 0.21 17.28 -0.21 17.28 z" class="primitive"/>
              </g>
              <g transform="translate(60.57,72.06)" id="img-08f8e78b-87">
                <path d="M-0.21,-16.27 L 0.21 -16.27 0.21 16.27 -0.21 16.27 z" class="primitive"/>
              </g>
              <g transform="translate(60.94,72.06)" id="img-08f8e78b-88">
                <path d="M-0.21,-16.27 L 0.21 -16.27 0.21 16.27 -0.21 16.27 z" class="primitive"/>
              </g>
              <g transform="translate(61.31,77.14)" id="img-08f8e78b-89">
                <path d="M-0.21,-11.18 L 0.21 -11.18 0.21 11.18 -0.21 11.18 z" class="primitive"/>
              </g>
              <g transform="translate(61.69,75.11)" id="img-08f8e78b-90">
                <path d="M-0.21,-13.22 L 0.21 -13.22 0.21 13.22 -0.21 13.22 z" class="primitive"/>
              </g>
              <g transform="translate(62.06,75.11)" id="img-08f8e78b-91">
                <path d="M-0.21,-13.22 L 0.21 -13.22 0.21 13.22 -0.21 13.22 z" class="primitive"/>
              </g>
              <g transform="translate(62.43,78.16)" id="img-08f8e78b-92">
                <path d="M-0.21,-10.17 L 0.21 -10.17 0.21 10.17 -0.21 10.17 z" class="primitive"/>
              </g>
              <g transform="translate(62.8,71.04)" id="img-08f8e78b-93">
                <path d="M-0.21,-17.28 L 0.21 -17.28 0.21 17.28 -0.21 17.28 z" class="primitive"/>
              </g>
              <g transform="translate(63.17,75.11)" id="img-08f8e78b-94">
                <path d="M-0.21,-13.22 L 0.21 -13.22 0.21 13.22 -0.21 13.22 z" class="primitive"/>
              </g>
              <g transform="translate(63.54,74.09)" id="img-08f8e78b-95">
                <path d="M-0.21,-14.23 L 0.21 -14.23 0.21 14.23 -0.21 14.23 z" class="primitive"/>
              </g>
              <g transform="translate(63.91,75.11)" id="img-08f8e78b-96">
                <path d="M-0.21,-13.22 L 0.21 -13.22 0.21 13.22 -0.21 13.22 z" class="primitive"/>
              </g>
              <g transform="translate(64.28,78.16)" id="img-08f8e78b-97">
                <path d="M-0.21,-10.17 L 0.21 -10.17 0.21 10.17 -0.21 10.17 z" class="primitive"/>
              </g>
              <g transform="translate(64.65,82.23)" id="img-08f8e78b-98">
                <path d="M-0.21,-6.1 L 0.21 -6.1 0.21 6.1 -0.21 6.1 z" class="primitive"/>
              </g>
              <g transform="translate(65.02,83.24)" id="img-08f8e78b-99">
                <path d="M-0.21,-5.08 L 0.21 -5.08 0.21 5.08 -0.21 5.08 z" class="primitive"/>
              </g>
              <g transform="translate(65.39,81.21)" id="img-08f8e78b-100">
                <path d="M-0.21,-7.12 L 0.21 -7.12 0.21 7.12 -0.21 7.12 z" class="primitive"/>
              </g>
              <g transform="translate(65.77,84.26)" id="img-08f8e78b-101">
                <path d="M-0.21,-4.07 L 0.21 -4.07 0.21 4.07 -0.21 4.07 z" class="primitive"/>
              </g>
              <g transform="translate(66.14,78.16)" id="img-08f8e78b-102">
                <path d="M-0.21,-10.17 L 0.21 -10.17 0.21 10.17 -0.21 10.17 z" class="primitive"/>
              </g>
              <g transform="translate(66.51,82.23)" id="img-08f8e78b-103">
                <path d="M-0.21,-6.1 L 0.21 -6.1 0.21 6.1 -0.21 6.1 z" class="primitive"/>
              </g>
              <g transform="translate(66.88,77.14)" id="img-08f8e78b-104">
                <path d="M-0.21,-11.18 L 0.21 -11.18 0.21 11.18 -0.21 11.18 z" class="primitive"/>
              </g>
              <g transform="translate(67.25,84.26)" id="img-08f8e78b-105">
                <path d="M-0.21,-4.07 L 0.21 -4.07 0.21 4.07 -0.21 4.07 z" class="primitive"/>
              </g>
              <g transform="translate(67.62,85.28)" id="img-08f8e78b-106">
                <path d="M-0.21,-3.05 L 0.21 -3.05 0.21 3.05 -0.21 3.05 z" class="primitive"/>
              </g>
              <g transform="translate(67.99,86.29)" id="img-08f8e78b-107">
                <path d="M-0.21,-2.03 L 0.21 -2.03 0.21 2.03 -0.21 2.03 z" class="primitive"/>
              </g>
              <g transform="translate(68.36,85.28)" id="img-08f8e78b-108">
                <path d="M-0.21,-3.05 L 0.21 -3.05 0.21 3.05 -0.21 3.05 z" class="primitive"/>
              </g>
              <g transform="translate(68.73,85.28)" id="img-08f8e78b-109">
                <path d="M-0.21,-3.05 L 0.21 -3.05 0.21 3.05 -0.21 3.05 z" class="primitive"/>
              </g>
              <g transform="translate(69.1,87.31)" id="img-08f8e78b-110">
                <path d="M-0.21,-1.02 L 0.21 -1.02 0.21 1.02 -0.21 1.02 z" class="primitive"/>
              </g>
              <g transform="translate(69.48,83.24)" id="img-08f8e78b-111">
                <path d="M-0.21,-5.08 L 0.21 -5.08 0.21 5.08 -0.21 5.08 z" class="primitive"/>
              </g>
              <g transform="translate(69.85,88.33)" id="img-08f8e78b-112">
                <path d="M-0.21,-0 L 0.21 -0 0.21 0 -0.21 0 z" class="primitive"/>
              </g>
              <g transform="translate(70.22,88.33)" id="img-08f8e78b-113">
                <path d="M-0.21,-0 L 0.21 -0 0.21 0 -0.21 0 z" class="primitive"/>
              </g>
              <g transform="translate(70.59,87.31)" id="img-08f8e78b-114">
                <path d="M-0.21,-1.02 L 0.21 -1.02 0.21 1.02 -0.21 1.02 z" class="primitive"/>
              </g>
              <g transform="translate(70.96,88.33)" id="img-08f8e78b-115">
                <path d="M-0.21,-0 L 0.21 -0 0.21 0 -0.21 0 z" class="primitive"/>
              </g>
              <g transform="translate(71.33,87.31)" id="img-08f8e78b-116">
                <path d="M-0.21,-1.02 L 0.21 -1.02 0.21 1.02 -0.21 1.02 z" class="primitive"/>
              </g>
              <g transform="translate(71.7,87.31)" id="img-08f8e78b-117">
                <path d="M-0.21,-1.02 L 0.21 -1.02 0.21 1.02 -0.21 1.02 z" class="primitive"/>
              </g>
              <g transform="translate(72.07,87.31)" id="img-08f8e78b-118">
                <path d="M-0.21,-1.02 L 0.21 -1.02 0.21 1.02 -0.21 1.02 z" class="primitive"/>
              </g>
              <g transform="translate(72.44,87.31)" id="img-08f8e78b-119">
                <path d="M-0.21,-1.02 L 0.21 -1.02 0.21 1.02 -0.21 1.02 z" class="primitive"/>
              </g>
              <g transform="translate(72.81,87.31)" id="img-08f8e78b-120">
                <path d="M-0.21,-1.02 L 0.21 -1.02 0.21 1.02 -0.21 1.02 z" class="primitive"/>
              </g>
              <g transform="translate(73.18,88.33)" id="img-08f8e78b-121">
                <path d="M-0.21,-0 L 0.21 -0 0.21 0 -0.21 0 z" class="primitive"/>
              </g>
              <g transform="translate(73.56,88.33)" id="img-08f8e78b-122">
                <path d="M-0.21,-0 L 0.21 -0 0.21 0 -0.21 0 z" class="primitive"/>
              </g>
              <g transform="translate(73.93,88.33)" id="img-08f8e78b-123">
                <path d="M-0.21,-0 L 0.21 -0 0.21 0 -0.21 0 z" class="primitive"/>
              </g>
              <g transform="translate(74.3,87.31)" id="img-08f8e78b-124">
                <path d="M-0.21,-1.02 L 0.21 -1.02 0.21 1.02 -0.21 1.02 z" class="primitive"/>
              </g>
              <g transform="translate(74.67,88.33)" id="img-08f8e78b-125">
                <path d="M-0.21,-0 L 0.21 -0 0.21 0 -0.21 0 z" class="primitive"/>
              </g>
              <g transform="translate(75.04,86.29)" id="img-08f8e78b-126">
                <path d="M-0.21,-2.03 L 0.21 -2.03 0.21 2.03 -0.21 2.03 z" class="primitive"/>
              </g>
              <g transform="translate(75.41,88.33)" id="img-08f8e78b-127">
                <path d="M-0.21,-0 L 0.21 -0 0.21 0 -0.21 0 z" class="primitive"/>
              </g>
              <g transform="translate(75.78,88.33)" id="img-08f8e78b-128">
                <path d="M-0.21,-0 L 0.21 -0 0.21 0 -0.21 0 z" class="primitive"/>
              </g>
              <g transform="translate(76.15,88.33)" id="img-08f8e78b-129">
                <path d="M-0.21,-0 L 0.21 -0 0.21 0 -0.21 0 z" class="primitive"/>
              </g>
              <g transform="translate(76.52,87.31)" id="img-08f8e78b-130">
                <path d="M-0.21,-1.02 L 0.21 -1.02 0.21 1.02 -0.21 1.02 z" class="primitive"/>
              </g>
            </g>
          </g>
        </g>
      </g>
    </g>
  </g>
  <g class="guide ylabels" font-size="2.82" font-family="'PT Sans Caption','Helvetica Neue','Helvetica',sans-serif" fill="#6C606B" id="img-08f8e78b-131">
    <g transform="translate(16.96,88.33)" id="img-08f8e78b-132">
      <g class="primitive">
        <text text-anchor="end" dy="0.35em">0</text>
      </g>
    </g>
    <g transform="translate(16.96,68)" id="img-08f8e78b-133">
      <g class="primitive">
        <text text-anchor="end" dy="0.35em">10</text>
      </g>
    </g>
    <g transform="translate(16.96,47.66)" id="img-08f8e78b-134">
      <g class="primitive">
        <text text-anchor="end" dy="0.35em">20</text>
      </g>
    </g>
    <g transform="translate(16.96,27.33)" id="img-08f8e78b-135">
      <g class="primitive">
        <text text-anchor="end" dy="0.35em">30</text>
      </g>
    </g>
    <g transform="translate(16.96,7)" id="img-08f8e78b-136">
      <g class="primitive">
        <text text-anchor="end" dy="0.35em">40</text>
      </g>
    </g>
  </g>
  <g font-size="3.88" font-family="'PT Sans','Helvetica Neue','Helvetica',sans-serif" fill="#564A55" stroke="#000000" stroke-opacity="0.000" id="img-08f8e78b-137">
    <g transform="translate(8.81,45.66)" id="img-08f8e78b-138">
      <g class="primitive">
        <text text-anchor="middle" dy="0.35em" transform="rotate(-90,0, 2)">frequency</text>
      </g>
    </g>
  </g>
</g>
<defs>
  <clipPath id="img-08f8e78b-11">
    <path d="M17.96,5 L 87.64 5 87.64 90.33 17.96 90.33" />
  </clipPath>
</defs>
</svg>
