<?xml version="1.0" encoding="UTF-8"?>
<svg xmlns="http://www.w3.org/2000/svg"
     xmlns:xlink="http://www.w3.org/1999/xlink"
     xmlns:gadfly="http://www.gadflyjl.org/ns"
     version="1.2"
     width="141.42mm" height="100mm" viewBox="0 0 141.42 100"
     stroke="none"
     fill="#000000"
     stroke-width="0.3"
     font-size="3.88"
>
<defs>
  <marker id="arrow" markerWidth="15" markerHeight="7" refX="5" refY="3.5" orient="auto" markerUnits="strokeWidth">
    <path d="M0,0 L15,3.5 L0,7 z" stroke="context-stroke" fill="context-stroke"/>
  </marker>
</defs>
<g class="plotroot xscalable yscalable" id="img-b92584b7-1">
  <g class="guide xlabels" font-size="2.82" font-family="'PT Sans Caption','Helvetica Neue','Helvetica',sans-serif" fill="#6C606B" id="img-b92584b7-2">
    <g transform="translate(19.96,91.33)">
      <g class="primitive">
        <text text-anchor="middle" dy="0.6em">4</text>
      </g>
    </g>
    <g transform="translate(32.57,91.33)">
      <g class="primitive">
        <text text-anchor="middle" dy="0.6em">5</text>
      </g>
    </g>
    <g transform="translate(45.18,91.33)">
      <g class="primitive">
        <text text-anchor="middle" dy="0.6em">6</text>
      </g>
    </g>
    <g transform="translate(57.79,91.33)">
      <g class="primitive">
        <text text-anchor="middle" dy="0.6em">7</text>
      </g>
    </g>
    <g transform="translate(70.4,91.33)">
      <g class="primitive">
        <text text-anchor="middle" dy="0.6em">8</text>
      </g>
    </g>
  </g>
  <g class="guide colorkey" id="img-b92584b7-3">
    <g class="color_coding_noncoding_noncoding_noncoding_4-chord" id="img-b92584b7-4">
      <g fill="#4C404B" font-size="2.82" font-family="'PT Sans','Helvetica Neue','Helvetica',sans-serif" id="img-b92584b7-5">
        <g transform="translate(76.21,49.48)" id="img-b92584b7-6">
          <g class="primitive">
            <text dy="0.35em">coding_noncoding_noncoding_noncoding_4-chord</text>
          </g>
        </g>
      </g>
      <g fill-opacity="1" fill="#00BFFF" stroke="#FFFFFF" id="img-b92584b7-7">
        <g transform="translate(74.31,49.48)" id="img-b92584b7-8">
          <path d="M-0.91,-0.91 L 0.91 -0.91 0.91 0.91 -0.91 0.91 z" class="primitive"/>
        </g>
      </g>
    </g>
    <g fill="#362A35" font-size="3.88" font-family="'PT Sans','Helvetica Neue','Helvetica',sans-serif" stroke="#000000" stroke-opacity="0.000" id="img-b92584b7-9">
      <g transform="translate(73.4,45.66)" id="img-b92584b7-10">
        <g class="primitive">
          <text dy="-0em">graphlet</text>
        </g>
      </g>
    </g>
  </g>
  <g clip-path="url(#img-b92584b7-11)">
    <g id="img-b92584b7-12">
      <g pointer-events="visible" stroke-width="0.3" fill="#000000" fill-opacity="0.000" stroke="#000000" stroke-opacity="0.000" class="guide background" id="img-b92584b7-13">
        <g transform="translate(45.18,47.66)" id="img-b92584b7-14">
          <path d="M-27.22,-42.66 L 27.22 -42.66 27.22 42.66 -27.22 42.66 z" class="primitive"/>
        </g>
      </g>
      <g class="guide ygridlines xfixed" stroke-dasharray="0.5,0.5" stroke-width="0.2" stroke="#D0D0E0" id="img-b92584b7-15">
        <g transform="translate(45.18,88.33)" id="img-b92584b7-16">
          <path fill="none" d="M-27.22,0 L 27.22 0" class="primitive"/>
        </g>
        <g transform="translate(45.18,68)" id="img-b92584b7-17">
          <path fill="none" d="M-27.22,0 L 27.22 0" class="primitive"/>
        </g>
        <g transform="translate(45.18,47.66)" id="img-b92584b7-18">
          <path fill="none" d="M-27.22,0 L 27.22 0" class="primitive"/>
        </g>
        <g transform="translate(45.18,27.33)" id="img-b92584b7-19">
          <path fill="none" d="M-27.22,0 L 27.22 0" class="primitive"/>
        </g>
        <g transform="translate(45.18,7)" id="img-b92584b7-20">
          <path fill="none" d="M-27.22,0 L 27.22 0" class="primitive"/>
        </g>
      </g>
      <g class="guide xgridlines yfixed" stroke-dasharray="0.5,0.5" stroke-width="0.2" stroke="#D0D0E0" id="img-b92584b7-21">
        <g transform="translate(19.96,47.66)" id="img-b92584b7-22">
          <path fill="none" d="M0,-42.66 L 0 42.66" class="primitive"/>
        </g>
        <g transform="translate(32.57,47.66)" id="img-b92584b7-23">
          <path fill="none" d="M0,-42.66 L 0 42.66" class="primitive"/>
        </g>
        <g transform="translate(45.18,47.66)" id="img-b92584b7-24">
          <path fill="none" d="M0,-42.66 L 0 42.66" class="primitive"/>
        </g>
        <g transform="translate(57.79,47.66)" id="img-b92584b7-25">
          <path fill="none" d="M0,-42.66 L 0 42.66" class="primitive"/>
        </g>
        <g transform="translate(70.4,47.66)" id="img-b92584b7-26">
          <path fill="none" d="M0,-42.66 L 0 42.66" class="primitive"/>
        </g>
      </g>
      <g class="plotpanel" id="img-b92584b7-27">
        <metadata>
          <boundingbox value="17.958333333333336mm 5.0mm 54.443022903976164mm 85.32666666666667mm"/>
          <unitbox value="3.8414052223787443 40.98368718747438 4.3171895552425115 -41.96737437494876"/>
        </metadata>
        <g shape-rendering="crispEdges" stroke-width="0.3" id="img-b92584b7-28">
          <g stroke="#000000" stroke-opacity="0.000" class="geometry" id="img-b92584b7-29">
            <g fill="#00BFFF" id="img-b92584b7-30">
              <g transform="translate(31.9,87.31)" id="img-b92584b7-31">
                <path d="M-0.18,-1.02 L 0.18 -1.02 0.18 1.02 -0.18 1.02 z" class="primitive"/>
              </g>
              <g transform="translate(32.21,87.31)" id="img-b92584b7-32">
                <path d="M-0.18,-1.02 L 0.18 -1.02 0.18 1.02 -0.18 1.02 z" class="primitive"/>
              </g>
              <g transform="translate(32.53,88.33)" id="img-b92584b7-33">
                <path d="M-0.18,-0 L 0.18 -0 0.18 0 -0.18 0 z" class="primitive"/>
              </g>
              <g transform="translate(32.84,88.33)" id="img-b92584b7-34">
                <path d="M-0.18,-0 L 0.18 -0 0.18 0 -0.18 0 z" class="primitive"/>
              </g>
              <g transform="translate(33.16,87.31)" id="img-b92584b7-35">
                <path d="M-0.18,-1.02 L 0.18 -1.02 0.18 1.02 -0.18 1.02 z" class="primitive"/>
              </g>
              <g transform="translate(33.47,88.33)" id="img-b92584b7-36">
                <path d="M-0.18,-0 L 0.18 -0 0.18 0 -0.18 0 z" class="primitive"/>
              </g>
              <g transform="translate(33.79,85.28)" id="img-b92584b7-37">
                <path d="M-0.18,-3.05 L 0.18 -3.05 0.18 3.05 -0.18 3.05 z" class="primitive"/>
              </g>
              <g transform="translate(34.1,87.31)" id="img-b92584b7-38">
                <path d="M-0.18,-1.02 L 0.18 -1.02 0.18 1.02 -0.18 1.02 z" class="primitive"/>
              </g>
              <g transform="translate(34.41,88.33)" id="img-b92584b7-39">
                <path d="M-0.18,-0 L 0.18 -0 0.18 0 -0.18 0 z" class="primitive"/>
              </g>
              <g transform="translate(34.73,88.33)" id="img-b92584b7-40">
                <path d="M-0.18,-0 L 0.18 -0 0.18 0 -0.18 0 z" class="primitive"/>
              </g>
              <g transform="translate(35.04,86.29)" id="img-b92584b7-41">
                <path d="M-0.18,-2.03 L 0.18 -2.03 0.18 2.03 -0.18 2.03 z" class="primitive"/>
              </g>
              <g transform="translate(35.36,88.33)" id="img-b92584b7-42">
                <path d="M-0.18,-0 L 0.18 -0 0.18 0 -0.18 0 z" class="primitive"/>
              </g>
              <g transform="translate(35.67,86.29)" id="img-b92584b7-43">
                <path d="M-0.18,-2.03 L 0.18 -2.03 0.18 2.03 -0.18 2.03 z" class="primitive"/>
              </g>
              <g transform="translate(35.99,88.33)" id="img-b92584b7-44">
                <path d="M-0.18,-0 L 0.18 -0 0.18 0 -0.18 0 z" class="primitive"/>
              </g>
              <g transform="translate(36.3,88.33)" id="img-b92584b7-45">
                <path d="M-0.18,-0 L 0.18 -0 0.18 0 -0.18 0 z" class="primitive"/>
              </g>
              <g transform="translate(36.62,85.28)" id="img-b92584b7-46">
                <path d="M-0.18,-3.05 L 0.18 -3.05 0.18 3.05 -0.18 3.05 z" class="primitive"/>
              </g>
              <g transform="translate(36.93,86.29)" id="img-b92584b7-47">
                <path d="M-0.18,-2.03 L 0.18 -2.03 0.18 2.03 -0.18 2.03 z" class="primitive"/>
              </g>
              <g transform="translate(37.24,87.31)" id="img-b92584b7-48">
                <path d="M-0.18,-1.02 L 0.18 -1.02 0.18 1.02 -0.18 1.02 z" class="primitive"/>
              </g>
              <g transform="translate(37.56,84.26)" id="img-b92584b7-49">
                <path d="M-0.18,-4.07 L 0.18 -4.07 0.18 4.07 -0.18 4.07 z" class="primitive"/>
              </g>
              <g transform="translate(37.87,85.28)" id="img-b92584b7-50">
                <path d="M-0.18,-3.05 L 0.18 -3.05 0.18 3.05 -0.18 3.05 z" class="primitive"/>
              </g>
              <g transform="translate(38.19,85.28)" id="img-b92584b7-51">
                <path d="M-0.18,-3.05 L 0.18 -3.05 0.18 3.05 -0.18 3.05 z" class="primitive"/>
              </g>
              <g transform="translate(38.5,83.24)" id="img-b92584b7-52">
                <path d="M-0.18,-5.08 L 0.18 -5.08 0.18 5.08 -0.18 5.08 z" class="primitive"/>
              </g>
              <g transform="translate(38.82,84.26)" id="img-b92584b7-53">
                <path d="M-0.18,-4.07 L 0.18 -4.07 0.18 4.07 -0.18 4.07 z" class="primitive"/>
              </g>
              <g transform="translate(39.13,80.19)" id="img-b92584b7-54">
                <path d="M-0.18,-8.13 L 0.18 -8.13 0.18 8.13 -0.18 8.13 z" class="primitive"/>
              </g>
              <g transform="translate(39.44,79.18)" id="img-b92584b7-55">
                <path d="M-0.18,-9.15 L 0.18 -9.15 0.18 9.15 -0.18 9.15 z" class="primitive"/>
              </g>
              <g transform="translate(39.76,81.21)" id="img-b92584b7-56">
                <path d="M-0.18,-7.12 L 0.18 -7.12 0.18 7.12 -0.18 7.12 z" class="primitive"/>
              </g>
              <g transform="translate(40.07,81.21)" id="img-b92584b7-57">
                <path d="M-0.18,-7.12 L 0.18 -7.12 0.18 7.12 -0.18 7.12 z" class="primitive"/>
              </g>
              <g transform="translate(40.39,84.26)" id="img-b92584b7-58">
                <path d="M-0.18,-4.07 L 0.18 -4.07 0.18 4.07 -0.18 4.07 z" class="primitive"/>
              </g>
              <g transform="translate(40.7,86.29)" id="img-b92584b7-59">
                <path d="M-0.18,-2.03 L 0.18 -2.03 0.18 2.03 -0.18 2.03 z" class="primitive"/>
              </g>
              <g transform="translate(41.02,77.14)" id="img-b92584b7-60">
                <path d="M-0.18,-11.18 L 0.18 -11.18 0.18 11.18 -0.18 11.18 z" class="primitive"/>
              </g>
              <g transform="translate(41.33,79.18)" id="img-b92584b7-61">
                <path d="M-0.18,-9.15 L 0.18 -9.15 0.18 9.15 -0.18 9.15 z" class="primitive"/>
              </g>
              <g transform="translate(41.64,82.23)" id="img-b92584b7-62">
                <path d="M-0.18,-6.1 L 0.18 -6.1 0.18 6.1 -0.18 6.1 z" class="primitive"/>
              </g>
              <g transform="translate(41.96,74.09)" id="img-b92584b7-63">
                <path d="M-0.18,-14.23 L 0.18 -14.23 0.18 14.23 -0.18 14.23 z" class="primitive"/>
              </g>
              <g transform="translate(42.27,76.13)" id="img-b92584b7-64">
                <path d="M-0.18,-12.2 L 0.18 -12.2 0.18 12.2 -0.18 12.2 z" class="primitive"/>
              </g>
              <g transform="translate(42.59,75.11)" id="img-b92584b7-65">
                <path d="M-0.18,-13.22 L 0.18 -13.22 0.18 13.22 -0.18 13.22 z" class="primitive"/>
              </g>
              <g transform="translate(42.9,74.09)" id="img-b92584b7-66">
                <path d="M-0.18,-14.23 L 0.18 -14.23 0.18 14.23 -0.18 14.23 z" class="primitive"/>
              </g>
              <g transform="translate(43.22,71.04)" id="img-b92584b7-67">
                <path d="M-0.18,-17.28 L 0.18 -17.28 0.18 17.28 -0.18 17.28 z" class="primitive"/>
              </g>
              <g transform="translate(43.53,73.08)" id="img-b92584b7-68">
                <path d="M-0.18,-15.25 L 0.18 -15.25 0.18 15.25 -0.18 15.25 z" class="primitive"/>
              </g>
              <g transform="translate(43.85,72.06)" id="img-b92584b7-69">
                <path d="M-0.18,-16.27 L 0.18 -16.27 0.18 16.27 -0.18 16.27 z" class="primitive"/>
              </g>
              <g transform="translate(44.16,69.01)" id="img-b92584b7-70">
                <path d="M-0.18,-19.32 L 0.18 -19.32 0.18 19.32 -0.18 19.32 z" class="primitive"/>
              </g>
              <g transform="translate(44.47,63.93)" id="img-b92584b7-71">
                <path d="M-0.18,-24.4 L 0.18 -24.4 0.18 24.4 -0.18 24.4 z" class="primitive"/>
              </g>
              <g transform="translate(44.79,76.13)" id="img-b92584b7-72">
                <path d="M-0.18,-12.2 L 0.18 -12.2 0.18 12.2 -0.18 12.2 z" class="primitive"/>
              </g>
              <g transform="translate(45.1,73.08)" id="img-b92584b7-73">
                <path d="M-0.18,-15.25 L 0.18 -15.25 0.18 15.25 -0.18 15.25 z" class="primitive"/>
              </g>
              <g transform="translate(45.42,64.95)" id="img-b92584b7-74">
                <path d="M-0.18,-23.38 L 0.18 -23.38 0.18 23.38 -0.18 23.38 z" class="primitive"/>
              </g>
              <g transform="translate(45.73,65.96)" id="img-b92584b7-75">
                <path d="M-0.18,-22.36 L 0.18 -22.36 0.18 22.36 -0.18 22.36 z" class="primitive"/>
              </g>
              <g transform="translate(46.05,68)" id="img-b92584b7-76">
                <path d="M-0.18,-20.33 L 0.18 -20.33 0.18 20.33 -0.18 20.33 z" class="primitive"/>
              </g>
              <g transform="translate(46.36,60.88)" id="img-b92584b7-77">
                <path d="M-0.18,-27.45 L 0.18 -27.45 0.18 27.45 -0.18 27.45 z" class="primitive"/>
              </g>
              <g transform="translate(46.67,61.9)" id="img-b92584b7-78">
                <path d="M-0.18,-26.43 L 0.18 -26.43 0.18 26.43 -0.18 26.43 z" class="primitive"/>
              </g>
              <g transform="translate(46.99,63.93)" id="img-b92584b7-79">
                <path d="M-0.18,-24.4 L 0.18 -24.4 0.18 24.4 -0.18 24.4 z" class="primitive"/>
              </g>
              <g transform="translate(47.3,68)" id="img-b92584b7-80">
                <path d="M-0.18,-20.33 L 0.18 -20.33 0.18 20.33 -0.18 20.33 z" class="primitive"/>
              </g>
              <g transform="translate(47.62,66.98)" id="img-b92584b7-81">
                <path d="M-0.18,-21.35 L 0.18 -21.35 0.18 21.35 -0.18 21.35 z" class="primitive"/>
              </g>
              <g transform="translate(47.93,56.81)" id="img-b92584b7-82">
                <path d="M-0.18,-31.51 L 0.18 -31.51 0.18 31.51 -0.18 31.51 z" class="primitive"/>
              </g>
              <g transform="translate(48.25,64.95)" id="img-b92584b7-83">
                <path d="M-0.18,-23.38 L 0.18 -23.38 0.18 23.38 -0.18 23.38 z" class="primitive"/>
              </g>
              <g transform="translate(48.56,50.71)" id="img-b92584b7-84">
                <path d="M-0.18,-37.61 L 0.18 -37.61 0.18 37.61 -0.18 37.61 z" class="primitive"/>
              </g>
              <g transform="translate(48.87,55.8)" id="img-b92584b7-85">
                <path d="M-0.18,-32.53 L 0.18 -32.53 0.18 32.53 -0.18 32.53 z" class="primitive"/>
              </g>
              <g transform="translate(49.19,64.95)" id="img-b92584b7-86">
                <path d="M-0.18,-23.38 L 0.18 -23.38 0.18 23.38 -0.18 23.38 z" class="primitive"/>
              </g>
              <g transform="translate(49.5,60.88)" id="img-b92584b7-87">
                <path d="M-0.18,-27.45 L 0.18 -27.45 0.18 27.45 -0.18 27.45 z" class="primitive"/>
              </g>
              <g transform="translate(49.82,58.85)" id="img-b92584b7-88">
                <path d="M-0.18,-29.48 L 0.18 -29.48 0.18 29.48 -0.18 29.48 z" class="primitive"/>
              </g>
              <g transform="translate(50.13,73.08)" id="img-b92584b7-89">
                <path d="M-0.18,-15.25 L 0.18 -15.25 0.18 15.25 -0.18 15.25 z" class="primitive"/>
              </g>
              <g transform="translate(50.45,65.96)" id="img-b92584b7-90">
                <path d="M-0.18,-22.36 L 0.18 -22.36 0.18 22.36 -0.18 22.36 z" class="primitive"/>
              </g>
              <g transform="translate(50.76,61.9)" id="img-b92584b7-91">
                <path d="M-0.18,-26.43 L 0.18 -26.43 0.18 26.43 -0.18 26.43 z" class="primitive"/>
              </g>
              <g transform="translate(51.07,68)" id="img-b92584b7-92">
                <path d="M-0.18,-20.33 L 0.18 -20.33 0.18 20.33 -0.18 20.33 z" class="primitive"/>
              </g>
              <g transform="translate(51.39,69.01)" id="img-b92584b7-93">
                <path d="M-0.18,-19.32 L 0.18 -19.32 0.18 19.32 -0.18 19.32 z" class="primitive"/>
              </g>
              <g transform="translate(51.7,73.08)" id="img-b92584b7-94">
                <path d="M-0.18,-15.25 L 0.18 -15.25 0.18 15.25 -0.18 15.25 z" class="primitive"/>
              </g>
              <g transform="translate(52.02,74.09)" id="img-b92584b7-95">
                <path d="M-0.18,-14.23 L 0.18 -14.23 0.18 14.23 -0.18 14.23 z" class="primitive"/>
              </g>
              <g transform="translate(52.33,66.98)" id="img-b92584b7-96">
                <path d="M-0.18,-21.35 L 0.18 -21.35 0.18 21.35 -0.18 21.35 z" class="primitive"/>
              </g>
              <g transform="translate(52.65,72.06)" id="img-b92584b7-97">
                <path d="M-0.18,-16.27 L 0.18 -16.27 0.18 16.27 -0.18 16.27 z" class="primitive"/>
              </g>
              <g transform="translate(52.96,77.14)" id="img-b92584b7-98">
                <path d="M-0.18,-11.18 L 0.18 -11.18 0.18 11.18 -0.18 11.18 z" class="primitive"/>
              </g>
              <g transform="translate(53.28,73.08)" id="img-b92584b7-99">
                <path d="M-0.18,-15.25 L 0.18 -15.25 0.18 15.25 -0.18 15.25 z" class="primitive"/>
              </g>
              <g transform="translate(53.59,72.06)" id="img-b92584b7-100">
                <path d="M-0.18,-16.27 L 0.18 -16.27 0.18 16.27 -0.18 16.27 z" class="primitive"/>
              </g>
              <g transform="translate(53.9,76.13)" id="img-b92584b7-101">
                <path d="M-0.18,-12.2 L 0.18 -12.2 0.18 12.2 -0.18 12.2 z" class="primitive"/>
              </g>
              <g transform="translate(54.22,77.14)" id="img-b92584b7-102">
                <path d="M-0.18,-11.18 L 0.18 -11.18 0.18 11.18 -0.18 11.18 z" class="primitive"/>
              </g>
              <g transform="translate(54.53,72.06)" id="img-b92584b7-103">
                <path d="M-0.18,-16.27 L 0.18 -16.27 0.18 16.27 -0.18 16.27 z" class="primitive"/>
              </g>
              <g transform="translate(54.85,78.16)" id="img-b92584b7-104">
                <path d="M-0.18,-10.17 L 0.18 -10.17 0.18 10.17 -0.18 10.17 z" class="primitive"/>
              </g>
              <g transform="translate(55.16,78.16)" id="img-b92584b7-105">
                <path d="M-0.18,-10.17 L 0.18 -10.17 0.18 10.17 -0.18 10.17 z" class="primitive"/>
              </g>
              <g transform="translate(55.48,80.19)" id="img-b92584b7-106">
                <path d="M-0.18,-8.13 L 0.18 -8.13 0.18 8.13 -0.18 8.13 z" class="primitive"/>
              </g>
              <g transform="translate(55.79,77.14)" id="img-b92584b7-107">
                <path d="M-0.18,-11.18 L 0.18 -11.18 0.18 11.18 -0.18 11.18 z" class="primitive"/>
              </g>
              <g transform="translate(56.1,82.23)" id="img-b92584b7-108">
                <path d="M-0.18,-6.1 L 0.18 -6.1 0.18 6.1 -0.18 6.1 z" class="primitive"/>
              </g>
              <g transform="translate(56.42,80.19)" id="img-b92584b7-109">
                <path d="M-0.18,-8.13 L 0.18 -8.13 0.18 8.13 -0.18 8.13 z" class="primitive"/>
              </g>
              <g transform="translate(56.73,79.18)" id="img-b92584b7-110">
                <path d="M-0.18,-9.15 L 0.18 -9.15 0.18 9.15 -0.18 9.15 z" class="primitive"/>
              </g>
              <g transform="translate(57.05,83.24)" id="img-b92584b7-111">
                <path d="M-0.18,-5.08 L 0.18 -5.08 0.18 5.08 -0.18 5.08 z" class="primitive"/>
              </g>
              <g transform="translate(57.36,86.29)" id="img-b92584b7-112">
                <path d="M-0.18,-2.03 L 0.18 -2.03 0.18 2.03 -0.18 2.03 z" class="primitive"/>
              </g>
              <g transform="translate(57.68,83.24)" id="img-b92584b7-113">
                <path d="M-0.18,-5.08 L 0.18 -5.08 0.18 5.08 -0.18 5.08 z" class="primitive"/>
              </g>
              <g transform="translate(57.99,84.26)" id="img-b92584b7-114">
                <path d="M-0.18,-4.07 L 0.18 -4.07 0.18 4.07 -0.18 4.07 z" class="primitive"/>
              </g>
              <g transform="translate(58.3,86.29)" id="img-b92584b7-115">
                <path d="M-0.18,-2.03 L 0.18 -2.03 0.18 2.03 -0.18 2.03 z" class="primitive"/>
              </g>
              <g transform="translate(58.62,85.28)" id="img-b92584b7-116">
                <path d="M-0.18,-3.05 L 0.18 -3.05 0.18 3.05 -0.18 3.05 z" class="primitive"/>
              </g>
              <g transform="translate(58.93,86.29)" id="img-b92584b7-117">
                <path d="M-0.18,-2.03 L 0.18 -2.03 0.18 2.03 -0.18 2.03 z" class="primitive"/>
              </g>
              <g transform="translate(59.25,85.28)" id="img-b92584b7-118">
                <path d="M-0.18,-3.05 L 0.18 -3.05 0.18 3.05 -0.18 3.05 z" class="primitive"/>
              </g>
              <g transform="translate(59.56,87.31)" id="img-b92584b7-119">
                <path d="M-0.18,-1.02 L 0.18 -1.02 0.18 1.02 -0.18 1.02 z" class="primitive"/>
              </g>
              <g transform="translate(59.88,87.31)" id="img-b92584b7-120">
                <path d="M-0.18,-1.02 L 0.18 -1.02 0.18 1.02 -0.18 1.02 z" class="primitive"/>
              </g>
              <g transform="translate(60.19,88.33)" id="img-b92584b7-121">
                <path d="M-0.18,-0 L 0.18 -0 0.18 0 -0.18 0 z" class="primitive"/>
              </g>
              <g transform="translate(60.51,86.29)" id="img-b92584b7-122">
                <path d="M-0.18,-2.03 L 0.18 -2.03 0.18 2.03 -0.18 2.03 z" class="primitive"/>
              </g>
              <g transform="translate(60.82,86.29)" id="img-b92584b7-123">
                <path d="M-0.18,-2.03 L 0.18 -2.03 0.18 2.03 -0.18 2.03 z" class="primitive"/>
              </g>
              <g transform="translate(61.13,88.33)" id="img-b92584b7-124">
                <path d="M-0.18,-0 L 0.18 -0 0.18 0 -0.18 0 z" class="primitive"/>
              </g>
              <g transform="translate(61.45,87.31)" id="img-b92584b7-125">
                <path d="M-0.18,-1.02 L 0.18 -1.02 0.18 1.02 -0.18 1.02 z" class="primitive"/>
              </g>
              <g transform="translate(61.76,88.33)" id="img-b92584b7-126">
                <path d="M-0.18,-0 L 0.18 -0 0.18 0 -0.18 0 z" class="primitive"/>
              </g>
              <g transform="translate(62.08,88.33)" id="img-b92584b7-127">
                <path d="M-0.18,-0 L 0.18 -0 0.18 0 -0.18 0 z" class="primitive"/>
              </g>
              <g transform="translate(62.39,88.33)" id="img-b92584b7-128">
                <path d="M-0.18,-0 L 0.18 -0 0.18 0 -0.18 0 z" class="primitive"/>
              </g>
              <g transform="translate(62.71,88.33)" id="img-b92584b7-129">
                <path d="M-0.18,-0 L 0.18 -0 0.18 0 -0.18 0 z" class="primitive"/>
              </g>
              <g transform="translate(63.02,87.31)" id="img-b92584b7-130">
                <path d="M-0.18,-1.02 L 0.18 -1.02 0.18 1.02 -0.18 1.02 z" class="primitive"/>
              </g>
            </g>
          </g>
        </g>
      </g>
    </g>
  </g>
  <g class="guide ylabels" font-size="2.82" font-family="'PT Sans Caption','Helvetica Neue','Helvetica',sans-serif" fill="#6C606B" id="img-b92584b7-131">
    <g transform="translate(16.96,88.33)" id="img-b92584b7-132">
      <g class="primitive">
        <text text-anchor="end" dy="0.35em">0</text>
      </g>
    </g>
    <g transform="translate(16.96,68)" id="img-b92584b7-133">
      <g class="primitive">
        <text text-anchor="end" dy="0.35em">10</text>
      </g>
    </g>
    <g transform="translate(16.96,47.66)" id="img-b92584b7-134">
      <g class="primitive">
        <text text-anchor="end" dy="0.35em">20</text>
      </g>
    </g>
    <g transform="translate(16.96,27.33)" id="img-b92584b7-135">
      <g class="primitive">
        <text text-anchor="end" dy="0.35em">30</text>
      </g>
    </g>
    <g transform="translate(16.96,7)" id="img-b92584b7-136">
      <g class="primitive">
        <text text-anchor="end" dy="0.35em">40</text>
      </g>
    </g>
  </g>
  <g font-size="3.88" font-family="'PT Sans','Helvetica Neue','Helvetica',sans-serif" fill="#564A55" stroke="#000000" stroke-opacity="0.000" id="img-b92584b7-137">
    <g transform="translate(8.81,45.66)" id="img-b92584b7-138">
      <g class="primitive">
        <text text-anchor="middle" dy="0.35em" transform="rotate(-90,0, 2)">frequency</text>
      </g>
    </g>
  </g>
</g>
<defs>
  <clipPath id="img-b92584b7-11">
    <path d="M17.96,5 L 72.4 5 72.4 90.33 17.96 90.33" />
  </clipPath>
</defs>
</svg>
