<?xml version="1.0" encoding="UTF-8"?>
<svg xmlns="http://www.w3.org/2000/svg"
     xmlns:xlink="http://www.w3.org/1999/xlink"
     xmlns:gadfly="http://www.gadflyjl.org/ns"
     version="1.2"
     width="141.42mm" height="100mm" viewBox="0 0 141.42 100"
     stroke="none"
     fill="#000000"
     stroke-width="0.3"
     font-size="3.88"
>
<defs>
  <marker id="arrow" markerWidth="15" markerHeight="7" refX="5" refY="3.5" orient="auto" markerUnits="strokeWidth">
    <path d="M0,0 L15,3.5 L0,7 z" stroke="context-stroke" fill="context-stroke"/>
  </marker>
</defs>
<g class="plotroot xscalable yscalable" id="img-0fa7fbbb-1">
  <g class="guide xlabels" font-size="2.82" font-family="'PT Sans Caption','Helvetica Neue','Helvetica',sans-serif" fill="#6C606B" id="img-0fa7fbbb-2">
    <g transform="translate(18.28,91.33)">
      <g class="primitive">
        <text text-anchor="middle" dy="0.6em">10.40</text>
      </g>
    </g>
    <g transform="translate(41.21,91.33)">
      <g class="primitive">
        <text text-anchor="middle" dy="0.6em">10.45</text>
      </g>
    </g>
    <g transform="translate(64.13,91.33)">
      <g class="primitive">
        <text text-anchor="middle" dy="0.6em">10.50</text>
      </g>
    </g>
    <g transform="translate(87.05,91.33)">
      <g class="primitive">
        <text text-anchor="middle" dy="0.6em">10.55</text>
      </g>
    </g>
  </g>
  <g class="guide colorkey" id="img-0fa7fbbb-3">
    <g class="color_coding_coding_coding_coding_4-tail" id="img-0fa7fbbb-4">
      <g fill="#4C404B" font-size="2.82" font-family="'PT Sans','Helvetica Neue','Helvetica',sans-serif" id="img-0fa7fbbb-5">
        <g transform="translate(92.86,49.48)" id="img-0fa7fbbb-6">
          <g class="primitive">
            <text dy="0.35em">coding_coding_coding_coding_4-tail</text>
          </g>
        </g>
      </g>
      <g fill-opacity="1" fill="#00BFFF" stroke="#FFFFFF" id="img-0fa7fbbb-7">
        <g transform="translate(90.95,49.48)" id="img-0fa7fbbb-8">
          <path d="M-0.91,-0.91 L 0.91 -0.91 0.91 0.91 -0.91 0.91 z" class="primitive"/>
        </g>
      </g>
    </g>
    <g fill="#362A35" font-size="3.88" font-family="'PT Sans','Helvetica Neue','Helvetica',sans-serif" stroke="#000000" stroke-opacity="0.000" id="img-0fa7fbbb-9">
      <g transform="translate(90.05,45.66)" id="img-0fa7fbbb-10">
        <g class="primitive">
          <text dy="-0em">graphlet</text>
        </g>
      </g>
    </g>
  </g>
  <g clip-path="url(#img-0fa7fbbb-11)">
    <g id="img-0fa7fbbb-12">
      <g pointer-events="visible" stroke-width="0.3" fill="#000000" fill-opacity="0.000" stroke="#000000" stroke-opacity="0.000" class="guide background" id="img-0fa7fbbb-13">
        <g transform="translate(52.67,47.66)" id="img-0fa7fbbb-14">
          <path d="M-36.38,-42.66 L 36.38 -42.66 36.38 42.66 -36.38 42.66 z" class="primitive"/>
        </g>
      </g>
      <g class="guide ygridlines xfixed" stroke-dasharray="0.5,0.5" stroke-width="0.2" stroke="#D0D0E0" id="img-0fa7fbbb-15">
        <g transform="translate(52.67,88.33)" id="img-0fa7fbbb-16">
          <path fill="none" d="M-36.38,0 L 36.38 0" class="primitive"/>
        </g>
        <g transform="translate(52.67,72.06)" id="img-0fa7fbbb-17">
          <path fill="none" d="M-36.38,0 L 36.38 0" class="primitive"/>
        </g>
        <g transform="translate(52.67,55.8)" id="img-0fa7fbbb-18">
          <path fill="none" d="M-36.38,0 L 36.38 0" class="primitive"/>
        </g>
        <g transform="translate(52.67,39.53)" id="img-0fa7fbbb-19">
          <path fill="none" d="M-36.38,0 L 36.38 0" class="primitive"/>
        </g>
        <g transform="translate(52.67,23.27)" id="img-0fa7fbbb-20">
          <path fill="none" d="M-36.38,0 L 36.38 0" class="primitive"/>
        </g>
        <g transform="translate(52.67,7)" id="img-0fa7fbbb-21">
          <path fill="none" d="M-36.38,0 L 36.38 0" class="primitive"/>
        </g>
      </g>
      <g class="guide xgridlines yfixed" stroke-dasharray="0.5,0.5" stroke-width="0.2" stroke="#D0D0E0" id="img-0fa7fbbb-22">
        <g transform="translate(18.28,47.66)" id="img-0fa7fbbb-23">
          <path fill="none" d="M0,-42.66 L 0 42.66" class="primitive"/>
        </g>
        <g transform="translate(41.21,47.66)" id="img-0fa7fbbb-24">
          <path fill="none" d="M0,-42.66 L 0 42.66" class="primitive"/>
        </g>
        <g transform="translate(64.13,47.66)" id="img-0fa7fbbb-25">
          <path fill="none" d="M0,-42.66 L 0 42.66" class="primitive"/>
        </g>
        <g transform="translate(87.05,47.66)" id="img-0fa7fbbb-26">
          <path fill="none" d="M0,-42.66 L 0 42.66" class="primitive"/>
        </g>
      </g>
      <g class="plotpanel" id="img-0fa7fbbb-27">
        <metadata>
          <boundingbox value="16.284999999999997mm 5.0mm 72.76302290397618mm 85.32666666666667mm"/>
          <unitbox value="10.395637190057528 5.122960898434298 0.15872561988494735 -5.245921796868595"/>
        </metadata>
        <g shape-rendering="crispEdges" stroke-width="0.3" id="img-0fa7fbbb-28">
          <g stroke="#000000" stroke-opacity="0.000" class="geometry" id="img-0fa7fbbb-29">
            <g fill="#00BFFF" id="img-0fa7fbbb-30">
              <g transform="translate(18.93,72.06)" id="img-0fa7fbbb-31">
                <path d="M-0.33,-16.27 L 0.33 -16.27 0.33 16.27 -0.33 16.27 z" class="primitive"/>
              </g>
              <g transform="translate(19.55,88.33)" id="img-0fa7fbbb-32">
                <path d="M-0.33,-0 L 0.33 -0 0.33 0 -0.33 0 z" class="primitive"/>
              </g>
              <g transform="translate(20.17,88.33)" id="img-0fa7fbbb-33">
                <path d="M-0.33,-0 L 0.33 -0 0.33 0 -0.33 0 z" class="primitive"/>
              </g>
              <g transform="translate(20.79,88.33)" id="img-0fa7fbbb-34">
                <path d="M-0.33,-0 L 0.33 -0 0.33 0 -0.33 0 z" class="primitive"/>
              </g>
              <g transform="translate(21.41,88.33)" id="img-0fa7fbbb-35">
                <path d="M-0.33,-0 L 0.33 -0 0.33 0 -0.33 0 z" class="primitive"/>
              </g>
              <g transform="translate(22.03,80.19)" id="img-0fa7fbbb-36">
                <path d="M-0.33,-8.13 L 0.33 -8.13 0.33 8.13 -0.33 8.13 z" class="primitive"/>
              </g>
              <g transform="translate(22.65,80.19)" id="img-0fa7fbbb-37">
                <path d="M-0.33,-8.13 L 0.33 -8.13 0.33 8.13 -0.33 8.13 z" class="primitive"/>
              </g>
              <g transform="translate(23.27,88.33)" id="img-0fa7fbbb-38">
                <path d="M-0.33,-0 L 0.33 -0 0.33 0 -0.33 0 z" class="primitive"/>
              </g>
              <g transform="translate(23.89,88.33)" id="img-0fa7fbbb-39">
                <path d="M-0.33,-0 L 0.33 -0 0.33 0 -0.33 0 z" class="primitive"/>
              </g>
              <g transform="translate(24.51,88.33)" id="img-0fa7fbbb-40">
                <path d="M-0.33,-0 L 0.33 -0 0.33 0 -0.33 0 z" class="primitive"/>
              </g>
              <g transform="translate(25.13,63.93)" id="img-0fa7fbbb-41">
                <path d="M-0.33,-24.4 L 0.33 -24.4 0.33 24.4 -0.33 24.4 z" class="primitive"/>
              </g>
              <g transform="translate(25.75,80.19)" id="img-0fa7fbbb-42">
                <path d="M-0.33,-8.13 L 0.33 -8.13 0.33 8.13 -0.33 8.13 z" class="primitive"/>
              </g>
              <g transform="translate(26.37,80.19)" id="img-0fa7fbbb-43">
                <path d="M-0.33,-8.13 L 0.33 -8.13 0.33 8.13 -0.33 8.13 z" class="primitive"/>
              </g>
              <g transform="translate(26.98,88.33)" id="img-0fa7fbbb-44">
                <path d="M-0.33,-0 L 0.33 -0 0.33 0 -0.33 0 z" class="primitive"/>
              </g>
              <g transform="translate(27.6,88.33)" id="img-0fa7fbbb-45">
                <path d="M-0.33,-0 L 0.33 -0 0.33 0 -0.33 0 z" class="primitive"/>
              </g>
              <g transform="translate(28.22,80.19)" id="img-0fa7fbbb-46">
                <path d="M-0.33,-8.13 L 0.33 -8.13 0.33 8.13 -0.33 8.13 z" class="primitive"/>
              </g>
              <g transform="translate(28.84,80.19)" id="img-0fa7fbbb-47">
                <path d="M-0.33,-8.13 L 0.33 -8.13 0.33 8.13 -0.33 8.13 z" class="primitive"/>
              </g>
              <g transform="translate(29.46,72.06)" id="img-0fa7fbbb-48">
                <path d="M-0.33,-16.27 L 0.33 -16.27 0.33 16.27 -0.33 16.27 z" class="primitive"/>
              </g>
              <g transform="translate(30.08,72.06)" id="img-0fa7fbbb-49">
                <path d="M-0.33,-16.27 L 0.33 -16.27 0.33 16.27 -0.33 16.27 z" class="primitive"/>
              </g>
              <g transform="translate(30.7,72.06)" id="img-0fa7fbbb-50">
                <path d="M-0.33,-16.27 L 0.33 -16.27 0.33 16.27 -0.33 16.27 z" class="primitive"/>
              </g>
              <g transform="translate(31.32,63.93)" id="img-0fa7fbbb-51">
                <path d="M-0.33,-24.4 L 0.33 -24.4 0.33 24.4 -0.33 24.4 z" class="primitive"/>
              </g>
              <g transform="translate(31.94,80.19)" id="img-0fa7fbbb-52">
                <path d="M-0.33,-8.13 L 0.33 -8.13 0.33 8.13 -0.33 8.13 z" class="primitive"/>
              </g>
              <g transform="translate(32.56,80.19)" id="img-0fa7fbbb-53">
                <path d="M-0.33,-8.13 L 0.33 -8.13 0.33 8.13 -0.33 8.13 z" class="primitive"/>
              </g>
              <g transform="translate(33.18,72.06)" id="img-0fa7fbbb-54">
                <path d="M-0.33,-16.27 L 0.33 -16.27 0.33 16.27 -0.33 16.27 z" class="primitive"/>
              </g>
              <g transform="translate(33.8,88.33)" id="img-0fa7fbbb-55">
                <path d="M-0.33,-0 L 0.33 -0 0.33 0 -0.33 0 z" class="primitive"/>
              </g>
              <g transform="translate(34.42,80.19)" id="img-0fa7fbbb-56">
                <path d="M-0.33,-8.13 L 0.33 -8.13 0.33 8.13 -0.33 8.13 z" class="primitive"/>
              </g>
              <g transform="translate(35.03,88.33)" id="img-0fa7fbbb-57">
                <path d="M-0.33,-0 L 0.33 -0 0.33 0 -0.33 0 z" class="primitive"/>
              </g>
              <g transform="translate(35.65,80.19)" id="img-0fa7fbbb-58">
                <path d="M-0.33,-8.13 L 0.33 -8.13 0.33 8.13 -0.33 8.13 z" class="primitive"/>
              </g>
              <g transform="translate(36.27,80.19)" id="img-0fa7fbbb-59">
                <path d="M-0.33,-8.13 L 0.33 -8.13 0.33 8.13 -0.33 8.13 z" class="primitive"/>
              </g>
              <g transform="translate(36.89,80.19)" id="img-0fa7fbbb-60">
                <path d="M-0.33,-8.13 L 0.33 -8.13 0.33 8.13 -0.33 8.13 z" class="primitive"/>
              </g>
              <g transform="translate(37.51,72.06)" id="img-0fa7fbbb-61">
                <path d="M-0.33,-16.27 L 0.33 -16.27 0.33 16.27 -0.33 16.27 z" class="primitive"/>
              </g>
              <g transform="translate(38.13,88.33)" id="img-0fa7fbbb-62">
                <path d="M-0.33,-0 L 0.33 -0 0.33 0 -0.33 0 z" class="primitive"/>
              </g>
              <g transform="translate(38.75,63.93)" id="img-0fa7fbbb-63">
                <path d="M-0.33,-24.4 L 0.33 -24.4 0.33 24.4 -0.33 24.4 z" class="primitive"/>
              </g>
              <g transform="translate(39.37,80.19)" id="img-0fa7fbbb-64">
                <path d="M-0.33,-8.13 L 0.33 -8.13 0.33 8.13 -0.33 8.13 z" class="primitive"/>
              </g>
              <g transform="translate(39.99,80.19)" id="img-0fa7fbbb-65">
                <path d="M-0.33,-8.13 L 0.33 -8.13 0.33 8.13 -0.33 8.13 z" class="primitive"/>
              </g>
              <g transform="translate(40.61,55.8)" id="img-0fa7fbbb-66">
                <path d="M-0.33,-32.53 L 0.33 -32.53 0.33 32.53 -0.33 32.53 z" class="primitive"/>
              </g>
              <g transform="translate(41.23,63.93)" id="img-0fa7fbbb-67">
                <path d="M-0.33,-24.4 L 0.33 -24.4 0.33 24.4 -0.33 24.4 z" class="primitive"/>
              </g>
              <g transform="translate(41.85,80.19)" id="img-0fa7fbbb-68">
                <path d="M-0.33,-8.13 L 0.33 -8.13 0.33 8.13 -0.33 8.13 z" class="primitive"/>
              </g>
              <g transform="translate(42.47,47.66)" id="img-0fa7fbbb-69">
                <path d="M-0.33,-40.66 L 0.33 -40.66 0.33 40.66 -0.33 40.66 z" class="primitive"/>
              </g>
              <g transform="translate(43.08,63.93)" id="img-0fa7fbbb-70">
                <path d="M-0.33,-24.4 L 0.33 -24.4 0.33 24.4 -0.33 24.4 z" class="primitive"/>
              </g>
              <g transform="translate(43.7,80.19)" id="img-0fa7fbbb-71">
                <path d="M-0.33,-8.13 L 0.33 -8.13 0.33 8.13 -0.33 8.13 z" class="primitive"/>
              </g>
              <g transform="translate(44.32,88.33)" id="img-0fa7fbbb-72">
                <path d="M-0.33,-0 L 0.33 -0 0.33 0 -0.33 0 z" class="primitive"/>
              </g>
              <g transform="translate(44.94,72.06)" id="img-0fa7fbbb-73">
                <path d="M-0.33,-16.27 L 0.33 -16.27 0.33 16.27 -0.33 16.27 z" class="primitive"/>
              </g>
              <g transform="translate(45.56,72.06)" id="img-0fa7fbbb-74">
                <path d="M-0.33,-16.27 L 0.33 -16.27 0.33 16.27 -0.33 16.27 z" class="primitive"/>
              </g>
              <g transform="translate(46.18,72.06)" id="img-0fa7fbbb-75">
                <path d="M-0.33,-16.27 L 0.33 -16.27 0.33 16.27 -0.33 16.27 z" class="primitive"/>
              </g>
              <g transform="translate(46.8,80.19)" id="img-0fa7fbbb-76">
                <path d="M-0.33,-8.13 L 0.33 -8.13 0.33 8.13 -0.33 8.13 z" class="primitive"/>
              </g>
              <g transform="translate(47.42,55.8)" id="img-0fa7fbbb-77">
                <path d="M-0.33,-32.53 L 0.33 -32.53 0.33 32.53 -0.33 32.53 z" class="primitive"/>
              </g>
              <g transform="translate(48.04,72.06)" id="img-0fa7fbbb-78">
                <path d="M-0.33,-16.27 L 0.33 -16.27 0.33 16.27 -0.33 16.27 z" class="primitive"/>
              </g>
              <g transform="translate(48.66,72.06)" id="img-0fa7fbbb-79">
                <path d="M-0.33,-16.27 L 0.33 -16.27 0.33 16.27 -0.33 16.27 z" class="primitive"/>
              </g>
              <g transform="translate(49.28,80.19)" id="img-0fa7fbbb-80">
                <path d="M-0.33,-8.13 L 0.33 -8.13 0.33 8.13 -0.33 8.13 z" class="primitive"/>
              </g>
              <g transform="translate(49.9,80.19)" id="img-0fa7fbbb-81">
                <path d="M-0.33,-8.13 L 0.33 -8.13 0.33 8.13 -0.33 8.13 z" class="primitive"/>
              </g>
              <g transform="translate(50.52,63.93)" id="img-0fa7fbbb-82">
                <path d="M-0.33,-24.4 L 0.33 -24.4 0.33 24.4 -0.33 24.4 z" class="primitive"/>
              </g>
              <g transform="translate(51.13,88.33)" id="img-0fa7fbbb-83">
                <path d="M-0.33,-0 L 0.33 -0 0.33 0 -0.33 0 z" class="primitive"/>
              </g>
              <g transform="translate(51.75,63.93)" id="img-0fa7fbbb-84">
                <path d="M-0.33,-24.4 L 0.33 -24.4 0.33 24.4 -0.33 24.4 z" class="primitive"/>
              </g>
              <g transform="translate(52.37,63.93)" id="img-0fa7fbbb-85">
                <path d="M-0.33,-24.4 L 0.33 -24.4 0.33 24.4 -0.33 24.4 z" class="primitive"/>
              </g>
              <g transform="translate(52.99,80.19)" id="img-0fa7fbbb-86">
                <path d="M-0.33,-8.13 L 0.33 -8.13 0.33 8.13 -0.33 8.13 z" class="primitive"/>
              </g>
              <g transform="translate(53.61,72.06)" id="img-0fa7fbbb-87">
                <path d="M-0.33,-16.27 L 0.33 -16.27 0.33 16.27 -0.33 16.27 z" class="primitive"/>
              </g>
              <g transform="translate(54.23,80.19)" id="img-0fa7fbbb-88">
                <path d="M-0.33,-8.13 L 0.33 -8.13 0.33 8.13 -0.33 8.13 z" class="primitive"/>
              </g>
              <g transform="translate(54.85,80.19)" id="img-0fa7fbbb-89">
                <path d="M-0.33,-8.13 L 0.33 -8.13 0.33 8.13 -0.33 8.13 z" class="primitive"/>
              </g>
              <g transform="translate(55.47,72.06)" id="img-0fa7fbbb-90">
                <path d="M-0.33,-16.27 L 0.33 -16.27 0.33 16.27 -0.33 16.27 z" class="primitive"/>
              </g>
              <g transform="translate(56.09,63.93)" id="img-0fa7fbbb-91">
                <path d="M-0.33,-24.4 L 0.33 -24.4 0.33 24.4 -0.33 24.4 z" class="primitive"/>
              </g>
              <g transform="translate(56.71,80.19)" id="img-0fa7fbbb-92">
                <path d="M-0.33,-8.13 L 0.33 -8.13 0.33 8.13 -0.33 8.13 z" class="primitive"/>
              </g>
              <g transform="translate(57.33,72.06)" id="img-0fa7fbbb-93">
                <path d="M-0.33,-16.27 L 0.33 -16.27 0.33 16.27 -0.33 16.27 z" class="primitive"/>
              </g>
              <g transform="translate(57.95,88.33)" id="img-0fa7fbbb-94">
                <path d="M-0.33,-0 L 0.33 -0 0.33 0 -0.33 0 z" class="primitive"/>
              </g>
              <g transform="translate(58.57,88.33)" id="img-0fa7fbbb-95">
                <path d="M-0.33,-0 L 0.33 -0 0.33 0 -0.33 0 z" class="primitive"/>
              </g>
              <g transform="translate(59.19,88.33)" id="img-0fa7fbbb-96">
                <path d="M-0.33,-0 L 0.33 -0 0.33 0 -0.33 0 z" class="primitive"/>
              </g>
              <g transform="translate(59.8,80.19)" id="img-0fa7fbbb-97">
                <path d="M-0.33,-8.13 L 0.33 -8.13 0.33 8.13 -0.33 8.13 z" class="primitive"/>
              </g>
              <g transform="translate(60.42,80.19)" id="img-0fa7fbbb-98">
                <path d="M-0.33,-8.13 L 0.33 -8.13 0.33 8.13 -0.33 8.13 z" class="primitive"/>
              </g>
              <g transform="translate(61.04,88.33)" id="img-0fa7fbbb-99">
                <path d="M-0.33,-0 L 0.33 -0 0.33 0 -0.33 0 z" class="primitive"/>
              </g>
              <g transform="translate(61.66,63.93)" id="img-0fa7fbbb-100">
                <path d="M-0.33,-24.4 L 0.33 -24.4 0.33 24.4 -0.33 24.4 z" class="primitive"/>
              </g>
              <g transform="translate(62.28,88.33)" id="img-0fa7fbbb-101">
                <path d="M-0.33,-0 L 0.33 -0 0.33 0 -0.33 0 z" class="primitive"/>
              </g>
              <g transform="translate(62.9,88.33)" id="img-0fa7fbbb-102">
                <path d="M-0.33,-0 L 0.33 -0 0.33 0 -0.33 0 z" class="primitive"/>
              </g>
              <g transform="translate(63.52,88.33)" id="img-0fa7fbbb-103">
                <path d="M-0.33,-0 L 0.33 -0 0.33 0 -0.33 0 z" class="primitive"/>
              </g>
              <g transform="translate(64.14,88.33)" id="img-0fa7fbbb-104">
                <path d="M-0.33,-0 L 0.33 -0 0.33 0 -0.33 0 z" class="primitive"/>
              </g>
              <g transform="translate(64.76,88.33)" id="img-0fa7fbbb-105">
                <path d="M-0.33,-0 L 0.33 -0 0.33 0 -0.33 0 z" class="primitive"/>
              </g>
              <g transform="translate(65.38,88.33)" id="img-0fa7fbbb-106">
                <path d="M-0.33,-0 L 0.33 -0 0.33 0 -0.33 0 z" class="primitive"/>
              </g>
              <g transform="translate(66,80.19)" id="img-0fa7fbbb-107">
                <path d="M-0.33,-8.13 L 0.33 -8.13 0.33 8.13 -0.33 8.13 z" class="primitive"/>
              </g>
              <g transform="translate(66.62,88.33)" id="img-0fa7fbbb-108">
                <path d="M-0.33,-0 L 0.33 -0 0.33 0 -0.33 0 z" class="primitive"/>
              </g>
              <g transform="translate(67.24,88.33)" id="img-0fa7fbbb-109">
                <path d="M-0.33,-0 L 0.33 -0 0.33 0 -0.33 0 z" class="primitive"/>
              </g>
              <g transform="translate(67.85,88.33)" id="img-0fa7fbbb-110">
                <path d="M-0.33,-0 L 0.33 -0 0.33 0 -0.33 0 z" class="primitive"/>
              </g>
              <g transform="translate(68.47,88.33)" id="img-0fa7fbbb-111">
                <path d="M-0.33,-0 L 0.33 -0 0.33 0 -0.33 0 z" class="primitive"/>
              </g>
              <g transform="translate(69.09,88.33)" id="img-0fa7fbbb-112">
                <path d="M-0.33,-0 L 0.33 -0 0.33 0 -0.33 0 z" class="primitive"/>
              </g>
              <g transform="translate(69.71,88.33)" id="img-0fa7fbbb-113">
                <path d="M-0.33,-0 L 0.33 -0 0.33 0 -0.33 0 z" class="primitive"/>
              </g>
              <g transform="translate(70.33,88.33)" id="img-0fa7fbbb-114">
                <path d="M-0.33,-0 L 0.33 -0 0.33 0 -0.33 0 z" class="primitive"/>
              </g>
              <g transform="translate(70.95,88.33)" id="img-0fa7fbbb-115">
                <path d="M-0.33,-0 L 0.33 -0 0.33 0 -0.33 0 z" class="primitive"/>
              </g>
              <g transform="translate(71.57,72.06)" id="img-0fa7fbbb-116">
                <path d="M-0.33,-16.27 L 0.33 -16.27 0.33 16.27 -0.33 16.27 z" class="primitive"/>
              </g>
              <g transform="translate(72.19,88.33)" id="img-0fa7fbbb-117">
                <path d="M-0.33,-0 L 0.33 -0 0.33 0 -0.33 0 z" class="primitive"/>
              </g>
              <g transform="translate(72.81,88.33)" id="img-0fa7fbbb-118">
                <path d="M-0.33,-0 L 0.33 -0 0.33 0 -0.33 0 z" class="primitive"/>
              </g>
              <g transform="translate(73.43,88.33)" id="img-0fa7fbbb-119">
                <path d="M-0.33,-0 L 0.33 -0 0.33 0 -0.33 0 z" class="primitive"/>
              </g>
              <g transform="translate(74.05,88.33)" id="img-0fa7fbbb-120">
                <path d="M-0.33,-0 L 0.33 -0 0.33 0 -0.33 0 z" class="primitive"/>
              </g>
              <g transform="translate(74.67,88.33)" id="img-0fa7fbbb-121">
                <path d="M-0.33,-0 L 0.33 -0 0.33 0 -0.33 0 z" class="primitive"/>
              </g>
              <g transform="translate(75.29,88.33)" id="img-0fa7fbbb-122">
                <path d="M-0.33,-0 L 0.33 -0 0.33 0 -0.33 0 z" class="primitive"/>
              </g>
              <g transform="translate(75.9,88.33)" id="img-0fa7fbbb-123">
                <path d="M-0.33,-0 L 0.33 -0 0.33 0 -0.33 0 z" class="primitive"/>
              </g>
              <g transform="translate(76.52,88.33)" id="img-0fa7fbbb-124">
                <path d="M-0.33,-0 L 0.33 -0 0.33 0 -0.33 0 z" class="primitive"/>
              </g>
              <g transform="translate(77.14,88.33)" id="img-0fa7fbbb-125">
                <path d="M-0.33,-0 L 0.33 -0 0.33 0 -0.33 0 z" class="primitive"/>
              </g>
              <g transform="translate(77.76,88.33)" id="img-0fa7fbbb-126">
                <path d="M-0.33,-0 L 0.33 -0 0.33 0 -0.33 0 z" class="primitive"/>
              </g>
              <g transform="translate(78.38,88.33)" id="img-0fa7fbbb-127">
                <path d="M-0.33,-0 L 0.33 -0 0.33 0 -0.33 0 z" class="primitive"/>
              </g>
              <g transform="translate(79,88.33)" id="img-0fa7fbbb-128">
                <path d="M-0.33,-0 L 0.33 -0 0.33 0 -0.33 0 z" class="primitive"/>
              </g>
              <g transform="translate(79.62,88.33)" id="img-0fa7fbbb-129">
                <path d="M-0.33,-0 L 0.33 -0 0.33 0 -0.33 0 z" class="primitive"/>
              </g>
              <g transform="translate(80.24,80.19)" id="img-0fa7fbbb-130">
                <path d="M-0.33,-8.13 L 0.33 -8.13 0.33 8.13 -0.33 8.13 z" class="primitive"/>
              </g>
            </g>
          </g>
        </g>
      </g>
    </g>
  </g>
  <g class="guide ylabels" font-size="2.82" font-family="'PT Sans Caption','Helvetica Neue','Helvetica',sans-serif" fill="#6C606B" id="img-0fa7fbbb-131">
    <g transform="translate(15.28,88.33)" id="img-0fa7fbbb-132">
      <g class="primitive">
        <text text-anchor="end" dy="0.35em">0</text>
      </g>
    </g>
    <g transform="translate(15.28,72.06)" id="img-0fa7fbbb-133">
      <g class="primitive">
        <text text-anchor="end" dy="0.35em">1</text>
      </g>
    </g>
    <g transform="translate(15.28,55.8)" id="img-0fa7fbbb-134">
      <g class="primitive">
        <text text-anchor="end" dy="0.35em">2</text>
      </g>
    </g>
    <g transform="translate(15.28,39.53)" id="img-0fa7fbbb-135">
      <g class="primitive">
        <text text-anchor="end" dy="0.35em">3</text>
      </g>
    </g>
    <g transform="translate(15.28,23.27)" id="img-0fa7fbbb-136">
      <g class="primitive">
        <text text-anchor="end" dy="0.35em">4</text>
      </g>
    </g>
    <g transform="translate(15.28,7)" id="img-0fa7fbbb-137">
      <g class="primitive">
        <text text-anchor="end" dy="0.35em">5</text>
      </g>
    </g>
  </g>
  <g font-size="3.88" font-family="'PT Sans','Helvetica Neue','Helvetica',sans-serif" fill="#564A55" stroke="#000000" stroke-opacity="0.000" id="img-0fa7fbbb-138">
    <g transform="translate(8.81,45.66)" id="img-0fa7fbbb-139">
      <g class="primitive">
        <text text-anchor="middle" dy="0.35em" transform="rotate(-90,0, 2)">frequency</text>
      </g>
    </g>
  </g>
</g>
<defs>
  <clipPath id="img-0fa7fbbb-11">
    <path d="M16.28,5 L 89.05 5 89.05 90.33 16.28 90.33" />
  </clipPath>
</defs>
</svg>
