<?xml version="1.0" encoding="UTF-8"?>
<svg xmlns="http://www.w3.org/2000/svg"
     xmlns:xlink="http://www.w3.org/1999/xlink"
     xmlns:gadfly="http://www.gadflyjl.org/ns"
     version="1.2"
     width="141.42mm" height="100mm" viewBox="0 0 141.42 100"
     stroke="none"
     fill="#000000"
     stroke-width="0.3"
     font-size="3.88"
>
<defs>
  <marker id="arrow" markerWidth="15" markerHeight="7" refX="5" refY="3.5" orient="auto" markerUnits="strokeWidth">
    <path d="M0,0 L15,3.5 L0,7 z" stroke="context-stroke" fill="context-stroke"/>
  </marker>
</defs>
<g class="plotroot xscalable yscalable" id="img-121411bb-1">
  <g class="guide xlabels" font-size="2.82" font-family="'PT Sans Caption','Helvetica Neue','Helvetica',sans-serif" fill="#6C606B" id="img-121411bb-2">
    <g transform="translate(19.96,91.33)">
      <g class="primitive">
        <text text-anchor="middle" dy="0.6em">0</text>
      </g>
    </g>
    <g transform="translate(32.74,91.33)">
      <g class="primitive">
        <text text-anchor="middle" dy="0.6em">100</text>
      </g>
    </g>
    <g transform="translate(45.52,91.33)">
      <g class="primitive">
        <text text-anchor="middle" dy="0.6em">200</text>
      </g>
    </g>
    <g transform="translate(58.31,91.33)">
      <g class="primitive">
        <text text-anchor="middle" dy="0.6em">300</text>
      </g>
    </g>
    <g transform="translate(71.09,91.33)">
      <g class="primitive">
        <text text-anchor="middle" dy="0.6em">400</text>
      </g>
    </g>
  </g>
  <g class="guide colorkey" id="img-121411bb-3">
    <g class="color_coding_noncoding_noncoding_noncoding_4-cycle" id="img-121411bb-4">
      <g fill="#4C404B" font-size="2.82" font-family="'PT Sans','Helvetica Neue','Helvetica',sans-serif" id="img-121411bb-5">
        <g transform="translate(76.9,49.48)" id="img-121411bb-6">
          <g class="primitive">
            <text dy="0.35em">coding_noncoding_noncoding_noncoding_4-cycle</text>
          </g>
        </g>
      </g>
      <g fill-opacity="1" fill="#00BFFF" stroke="#FFFFFF" id="img-121411bb-7">
        <g transform="translate(74.99,49.48)" id="img-121411bb-8">
          <path d="M-0.91,-0.91 L 0.91 -0.91 0.91 0.91 -0.91 0.91 z" class="primitive"/>
        </g>
      </g>
    </g>
    <g fill="#362A35" font-size="3.88" font-family="'PT Sans','Helvetica Neue','Helvetica',sans-serif" stroke="#000000" stroke-opacity="0.000" id="img-121411bb-9">
      <g transform="translate(74.09,45.66)" id="img-121411bb-10">
        <g class="primitive">
          <text dy="-0em">graphlet</text>
        </g>
      </g>
    </g>
  </g>
  <g clip-path="url(#img-121411bb-11)">
    <g id="img-121411bb-12">
      <g pointer-events="visible" stroke-width="0.3" fill="#000000" fill-opacity="0.000" stroke="#000000" stroke-opacity="0.000" class="guide background" id="img-121411bb-13">
        <g transform="translate(45.52,47.66)" id="img-121411bb-14">
          <path d="M-27.56,-42.66 L 27.56 -42.66 27.56 42.66 -27.56 42.66 z" class="primitive"/>
        </g>
      </g>
      <g class="guide ygridlines xfixed" stroke-dasharray="0.5,0.5" stroke-width="0.2" stroke="#D0D0E0" id="img-121411bb-15">
        <g transform="translate(45.52,88.33)" id="img-121411bb-16">
          <path fill="none" d="M-27.56,0 L 27.56 0" class="primitive"/>
        </g>
        <g transform="translate(45.52,72.06)" id="img-121411bb-17">
          <path fill="none" d="M-27.56,0 L 27.56 0" class="primitive"/>
        </g>
        <g transform="translate(45.52,55.8)" id="img-121411bb-18">
          <path fill="none" d="M-27.56,0 L 27.56 0" class="primitive"/>
        </g>
        <g transform="translate(45.52,39.53)" id="img-121411bb-19">
          <path fill="none" d="M-27.56,0 L 27.56 0" class="primitive"/>
        </g>
        <g transform="translate(45.52,23.27)" id="img-121411bb-20">
          <path fill="none" d="M-27.56,0 L 27.56 0" class="primitive"/>
        </g>
        <g transform="translate(45.52,7)" id="img-121411bb-21">
          <path fill="none" d="M-27.56,0 L 27.56 0" class="primitive"/>
        </g>
      </g>
      <g class="guide xgridlines yfixed" stroke-dasharray="0.5,0.5" stroke-width="0.2" stroke="#D0D0E0" id="img-121411bb-22">
        <g transform="translate(19.96,47.66)" id="img-121411bb-23">
          <path fill="none" d="M0,-42.66 L 0 42.66" class="primitive"/>
        </g>
        <g transform="translate(32.74,47.66)" id="img-121411bb-24">
          <path fill="none" d="M0,-42.66 L 0 42.66" class="primitive"/>
        </g>
        <g transform="translate(45.52,47.66)" id="img-121411bb-25">
          <path fill="none" d="M0,-42.66 L 0 42.66" class="primitive"/>
        </g>
        <g transform="translate(58.31,47.66)" id="img-121411bb-26">
          <path fill="none" d="M0,-42.66 L 0 42.66" class="primitive"/>
        </g>
        <g transform="translate(71.09,47.66)" id="img-121411bb-27">
          <path fill="none" d="M0,-42.66 L 0 42.66" class="primitive"/>
        </g>
      </g>
      <g class="plotpanel" id="img-121411bb-28">
        <metadata>
          <boundingbox value="17.95833333333333mm 5.0mm 55.129689570642824mm 85.32666666666667mm"/>
          <unitbox value="-15.646486546621569 51.22960898434298 431.2929730932432 -52.459217968685955"/>
        </metadata>
        <g shape-rendering="crispEdges" stroke-width="0.3" id="img-121411bb-29">
          <g stroke="#000000" stroke-opacity="0.000" class="geometry" id="img-121411bb-30">
            <g fill="#00BFFF" id="img-121411bb-31">
              <g transform="translate(25.81,86.7)" id="img-121411bb-32">
                <path d="M-0.25,-1.63 L 0.25 -1.63 0.25 1.63 -0.25 1.63 z" class="primitive"/>
              </g>
              <g transform="translate(26.26,87.51)" id="img-121411bb-33">
                <path d="M-0.25,-0.81 L 0.25 -0.81 0.25 0.81 -0.25 0.81 z" class="primitive"/>
              </g>
              <g transform="translate(26.71,85.89)" id="img-121411bb-34">
                <path d="M-0.25,-2.44 L 0.25 -2.44 0.25 2.44 -0.25 2.44 z" class="primitive"/>
              </g>
              <g transform="translate(27.16,81.01)" id="img-121411bb-35">
                <path d="M-0.25,-7.32 L 0.25 -7.32 0.25 7.32 -0.25 7.32 z" class="primitive"/>
              </g>
              <g transform="translate(27.61,87.51)" id="img-121411bb-36">
                <path d="M-0.25,-0.81 L 0.25 -0.81 0.25 0.81 -0.25 0.81 z" class="primitive"/>
              </g>
              <g transform="translate(28.06,83.45)" id="img-121411bb-37">
                <path d="M-0.25,-4.88 L 0.25 -4.88 0.25 4.88 -0.25 4.88 z" class="primitive"/>
              </g>
              <g transform="translate(28.52,85.07)" id="img-121411bb-38">
                <path d="M-0.25,-3.25 L 0.25 -3.25 0.25 3.25 -0.25 3.25 z" class="primitive"/>
              </g>
              <g transform="translate(28.97,80.19)" id="img-121411bb-39">
                <path d="M-0.25,-8.13 L 0.25 -8.13 0.25 8.13 -0.25 8.13 z" class="primitive"/>
              </g>
              <g transform="translate(29.42,82.63)" id="img-121411bb-40">
                <path d="M-0.25,-5.69 L 0.25 -5.69 0.25 5.69 -0.25 5.69 z" class="primitive"/>
              </g>
              <g transform="translate(29.87,72.06)" id="img-121411bb-41">
                <path d="M-0.25,-16.27 L 0.25 -16.27 0.25 16.27 -0.25 16.27 z" class="primitive"/>
              </g>
              <g transform="translate(30.32,80.19)" id="img-121411bb-42">
                <path d="M-0.25,-8.13 L 0.25 -8.13 0.25 8.13 -0.25 8.13 z" class="primitive"/>
              </g>
              <g transform="translate(30.77,71.25)" id="img-121411bb-43">
                <path d="M-0.25,-17.08 L 0.25 -17.08 0.25 17.08 -0.25 17.08 z" class="primitive"/>
              </g>
              <g transform="translate(31.22,74.5)" id="img-121411bb-44">
                <path d="M-0.25,-13.83 L 0.25 -13.83 0.25 13.83 -0.25 13.83 z" class="primitive"/>
              </g>
              <g transform="translate(31.67,69.62)" id="img-121411bb-45">
                <path d="M-0.25,-18.71 L 0.25 -18.71 0.25 18.71 -0.25 18.71 z" class="primitive"/>
              </g>
              <g transform="translate(32.13,73.69)" id="img-121411bb-46">
                <path d="M-0.25,-14.64 L 0.25 -14.64 0.25 14.64 -0.25 14.64 z" class="primitive"/>
              </g>
              <g transform="translate(32.58,63.12)" id="img-121411bb-47">
                <path d="M-0.25,-25.21 L 0.25 -25.21 0.25 25.21 -0.25 25.21 z" class="primitive"/>
              </g>
              <g transform="translate(33.03,62.3)" id="img-121411bb-48">
                <path d="M-0.25,-26.02 L 0.25 -26.02 0.25 26.02 -0.25 26.02 z" class="primitive"/>
              </g>
              <g transform="translate(33.48,65.56)" id="img-121411bb-49">
                <path d="M-0.25,-22.77 L 0.25 -22.77 0.25 22.77 -0.25 22.77 z" class="primitive"/>
              </g>
              <g transform="translate(33.93,57.42)" id="img-121411bb-50">
                <path d="M-0.25,-30.9 L 0.25 -30.9 0.25 30.9 -0.25 30.9 z" class="primitive"/>
              </g>
              <g transform="translate(34.38,62.3)" id="img-121411bb-51">
                <path d="M-0.25,-26.02 L 0.25 -26.02 0.25 26.02 -0.25 26.02 z" class="primitive"/>
              </g>
              <g transform="translate(34.83,61.49)" id="img-121411bb-52">
                <path d="M-0.25,-26.84 L 0.25 -26.84 0.25 26.84 -0.25 26.84 z" class="primitive"/>
              </g>
              <g transform="translate(35.28,63.12)" id="img-121411bb-53">
                <path d="M-0.25,-25.21 L 0.25 -25.21 0.25 25.21 -0.25 25.21 z" class="primitive"/>
              </g>
              <g transform="translate(35.74,54.17)" id="img-121411bb-54">
                <path d="M-0.25,-34.16 L 0.25 -34.16 0.25 34.16 -0.25 34.16 z" class="primitive"/>
              </g>
              <g transform="translate(36.19,72.06)" id="img-121411bb-55">
                <path d="M-0.25,-16.27 L 0.25 -16.27 0.25 16.27 -0.25 16.27 z" class="primitive"/>
              </g>
              <g transform="translate(36.64,57.42)" id="img-121411bb-56">
                <path d="M-0.25,-30.9 L 0.25 -30.9 0.25 30.9 -0.25 30.9 z" class="primitive"/>
              </g>
              <g transform="translate(37.09,72.87)" id="img-121411bb-57">
                <path d="M-0.25,-15.45 L 0.25 -15.45 0.25 15.45 -0.25 15.45 z" class="primitive"/>
              </g>
              <g transform="translate(37.54,70.43)" id="img-121411bb-58">
                <path d="M-0.25,-17.89 L 0.25 -17.89 0.25 17.89 -0.25 17.89 z" class="primitive"/>
              </g>
              <g transform="translate(37.99,68.81)" id="img-121411bb-59">
                <path d="M-0.25,-19.52 L 0.25 -19.52 0.25 19.52 -0.25 19.52 z" class="primitive"/>
              </g>
              <g transform="translate(38.44,64.74)" id="img-121411bb-60">
                <path d="M-0.25,-23.58 L 0.25 -23.58 0.25 23.58 -0.25 23.58 z" class="primitive"/>
              </g>
              <g transform="translate(38.89,68.81)" id="img-121411bb-61">
                <path d="M-0.25,-19.52 L 0.25 -19.52 0.25 19.52 -0.25 19.52 z" class="primitive"/>
              </g>
              <g transform="translate(39.34,68)" id="img-121411bb-62">
                <path d="M-0.25,-20.33 L 0.25 -20.33 0.25 20.33 -0.25 20.33 z" class="primitive"/>
              </g>
              <g transform="translate(39.8,73.69)" id="img-121411bb-63">
                <path d="M-0.25,-14.64 L 0.25 -14.64 0.25 14.64 -0.25 14.64 z" class="primitive"/>
              </g>
              <g transform="translate(40.25,64.74)" id="img-121411bb-64">
                <path d="M-0.25,-23.58 L 0.25 -23.58 0.25 23.58 -0.25 23.58 z" class="primitive"/>
              </g>
              <g transform="translate(40.7,71.25)" id="img-121411bb-65">
                <path d="M-0.25,-17.08 L 0.25 -17.08 0.25 17.08 -0.25 17.08 z" class="primitive"/>
              </g>
              <g transform="translate(41.15,76.13)" id="img-121411bb-66">
                <path d="M-0.25,-12.2 L 0.25 -12.2 0.25 12.2 -0.25 12.2 z" class="primitive"/>
              </g>
              <g transform="translate(41.6,70.43)" id="img-121411bb-67">
                <path d="M-0.25,-17.89 L 0.25 -17.89 0.25 17.89 -0.25 17.89 z" class="primitive"/>
              </g>
              <g transform="translate(42.05,77.75)" id="img-121411bb-68">
                <path d="M-0.25,-10.57 L 0.25 -10.57 0.25 10.57 -0.25 10.57 z" class="primitive"/>
              </g>
              <g transform="translate(42.5,72.87)" id="img-121411bb-69">
                <path d="M-0.25,-15.45 L 0.25 -15.45 0.25 15.45 -0.25 15.45 z" class="primitive"/>
              </g>
              <g transform="translate(42.95,71.25)" id="img-121411bb-70">
                <path d="M-0.25,-17.08 L 0.25 -17.08 0.25 17.08 -0.25 17.08 z" class="primitive"/>
              </g>
              <g transform="translate(43.41,72.06)" id="img-121411bb-71">
                <path d="M-0.25,-16.27 L 0.25 -16.27 0.25 16.27 -0.25 16.27 z" class="primitive"/>
              </g>
              <g transform="translate(43.86,78.57)" id="img-121411bb-72">
                <path d="M-0.25,-9.76 L 0.25 -9.76 0.25 9.76 -0.25 9.76 z" class="primitive"/>
              </g>
              <g transform="translate(44.31,75.31)" id="img-121411bb-73">
                <path d="M-0.25,-13.01 L 0.25 -13.01 0.25 13.01 -0.25 13.01 z" class="primitive"/>
              </g>
              <g transform="translate(44.76,78.57)" id="img-121411bb-74">
                <path d="M-0.25,-9.76 L 0.25 -9.76 0.25 9.76 -0.25 9.76 z" class="primitive"/>
              </g>
              <g transform="translate(45.21,77.75)" id="img-121411bb-75">
                <path d="M-0.25,-10.57 L 0.25 -10.57 0.25 10.57 -0.25 10.57 z" class="primitive"/>
              </g>
              <g transform="translate(45.66,83.45)" id="img-121411bb-76">
                <path d="M-0.25,-4.88 L 0.25 -4.88 0.25 4.88 -0.25 4.88 z" class="primitive"/>
              </g>
              <g transform="translate(46.11,76.13)" id="img-121411bb-77">
                <path d="M-0.25,-12.2 L 0.25 -12.2 0.25 12.2 -0.25 12.2 z" class="primitive"/>
              </g>
              <g transform="translate(46.56,85.89)" id="img-121411bb-78">
                <path d="M-0.25,-2.44 L 0.25 -2.44 0.25 2.44 -0.25 2.44 z" class="primitive"/>
              </g>
              <g transform="translate(47.02,76.13)" id="img-121411bb-79">
                <path d="M-0.25,-12.2 L 0.25 -12.2 0.25 12.2 -0.25 12.2 z" class="primitive"/>
              </g>
              <g transform="translate(47.47,81.01)" id="img-121411bb-80">
                <path d="M-0.25,-7.32 L 0.25 -7.32 0.25 7.32 -0.25 7.32 z" class="primitive"/>
              </g>
              <g transform="translate(47.92,75.31)" id="img-121411bb-81">
                <path d="M-0.25,-13.01 L 0.25 -13.01 0.25 13.01 -0.25 13.01 z" class="primitive"/>
              </g>
              <g transform="translate(48.37,81.01)" id="img-121411bb-82">
                <path d="M-0.25,-7.32 L 0.25 -7.32 0.25 7.32 -0.25 7.32 z" class="primitive"/>
              </g>
              <g transform="translate(48.82,81.82)" id="img-121411bb-83">
                <path d="M-0.25,-6.51 L 0.25 -6.51 0.25 6.51 -0.25 6.51 z" class="primitive"/>
              </g>
              <g transform="translate(49.27,86.7)" id="img-121411bb-84">
                <path d="M-0.25,-1.63 L 0.25 -1.63 0.25 1.63 -0.25 1.63 z" class="primitive"/>
              </g>
              <g transform="translate(49.72,85.89)" id="img-121411bb-85">
                <path d="M-0.25,-2.44 L 0.25 -2.44 0.25 2.44 -0.25 2.44 z" class="primitive"/>
              </g>
              <g transform="translate(50.17,80.19)" id="img-121411bb-86">
                <path d="M-0.25,-8.13 L 0.25 -8.13 0.25 8.13 -0.25 8.13 z" class="primitive"/>
              </g>
              <g transform="translate(50.63,85.07)" id="img-121411bb-87">
                <path d="M-0.25,-3.25 L 0.25 -3.25 0.25 3.25 -0.25 3.25 z" class="primitive"/>
              </g>
              <g transform="translate(51.08,81.01)" id="img-121411bb-88">
                <path d="M-0.25,-7.32 L 0.25 -7.32 0.25 7.32 -0.25 7.32 z" class="primitive"/>
              </g>
              <g transform="translate(51.53,85.89)" id="img-121411bb-89">
                <path d="M-0.25,-2.44 L 0.25 -2.44 0.25 2.44 -0.25 2.44 z" class="primitive"/>
              </g>
              <g transform="translate(51.98,84.26)" id="img-121411bb-90">
                <path d="M-0.25,-4.07 L 0.25 -4.07 0.25 4.07 -0.25 4.07 z" class="primitive"/>
              </g>
              <g transform="translate(52.43,87.51)" id="img-121411bb-91">
                <path d="M-0.25,-0.81 L 0.25 -0.81 0.25 0.81 -0.25 0.81 z" class="primitive"/>
              </g>
              <g transform="translate(52.88,84.26)" id="img-121411bb-92">
                <path d="M-0.25,-4.07 L 0.25 -4.07 0.25 4.07 -0.25 4.07 z" class="primitive"/>
              </g>
              <g transform="translate(53.33,87.51)" id="img-121411bb-93">
                <path d="M-0.25,-0.81 L 0.25 -0.81 0.25 0.81 -0.25 0.81 z" class="primitive"/>
              </g>
              <g transform="translate(53.78,86.7)" id="img-121411bb-94">
                <path d="M-0.25,-1.63 L 0.25 -1.63 0.25 1.63 -0.25 1.63 z" class="primitive"/>
              </g>
              <g transform="translate(54.24,88.33)" id="img-121411bb-95">
                <path d="M-0.25,-0 L 0.25 -0 0.25 0 -0.25 0 z" class="primitive"/>
              </g>
              <g transform="translate(54.69,88.33)" id="img-121411bb-96">
                <path d="M-0.25,-0 L 0.25 -0 0.25 0 -0.25 0 z" class="primitive"/>
              </g>
              <g transform="translate(55.14,87.51)" id="img-121411bb-97">
                <path d="M-0.25,-0.81 L 0.25 -0.81 0.25 0.81 -0.25 0.81 z" class="primitive"/>
              </g>
              <g transform="translate(55.59,86.7)" id="img-121411bb-98">
                <path d="M-0.25,-1.63 L 0.25 -1.63 0.25 1.63 -0.25 1.63 z" class="primitive"/>
              </g>
              <g transform="translate(56.04,86.7)" id="img-121411bb-99">
                <path d="M-0.25,-1.63 L 0.25 -1.63 0.25 1.63 -0.25 1.63 z" class="primitive"/>
              </g>
              <g transform="translate(56.49,87.51)" id="img-121411bb-100">
                <path d="M-0.25,-0.81 L 0.25 -0.81 0.25 0.81 -0.25 0.81 z" class="primitive"/>
              </g>
              <g transform="translate(56.94,87.51)" id="img-121411bb-101">
                <path d="M-0.25,-0.81 L 0.25 -0.81 0.25 0.81 -0.25 0.81 z" class="primitive"/>
              </g>
              <g transform="translate(57.39,87.51)" id="img-121411bb-102">
                <path d="M-0.25,-0.81 L 0.25 -0.81 0.25 0.81 -0.25 0.81 z" class="primitive"/>
              </g>
              <g transform="translate(57.84,87.51)" id="img-121411bb-103">
                <path d="M-0.25,-0.81 L 0.25 -0.81 0.25 0.81 -0.25 0.81 z" class="primitive"/>
              </g>
              <g transform="translate(58.3,86.7)" id="img-121411bb-104">
                <path d="M-0.25,-1.63 L 0.25 -1.63 0.25 1.63 -0.25 1.63 z" class="primitive"/>
              </g>
              <g transform="translate(58.75,86.7)" id="img-121411bb-105">
                <path d="M-0.25,-1.63 L 0.25 -1.63 0.25 1.63 -0.25 1.63 z" class="primitive"/>
              </g>
              <g transform="translate(59.2,88.33)" id="img-121411bb-106">
                <path d="M-0.25,-0 L 0.25 -0 0.25 0 -0.25 0 z" class="primitive"/>
              </g>
              <g transform="translate(59.65,85.89)" id="img-121411bb-107">
                <path d="M-0.25,-2.44 L 0.25 -2.44 0.25 2.44 -0.25 2.44 z" class="primitive"/>
              </g>
              <g transform="translate(60.1,87.51)" id="img-121411bb-108">
                <path d="M-0.25,-0.81 L 0.25 -0.81 0.25 0.81 -0.25 0.81 z" class="primitive"/>
              </g>
              <g transform="translate(60.55,88.33)" id="img-121411bb-109">
                <path d="M-0.25,-0 L 0.25 -0 0.25 0 -0.25 0 z" class="primitive"/>
              </g>
              <g transform="translate(61,87.51)" id="img-121411bb-110">
                <path d="M-0.25,-0.81 L 0.25 -0.81 0.25 0.81 -0.25 0.81 z" class="primitive"/>
              </g>
              <g transform="translate(61.45,88.33)" id="img-121411bb-111">
                <path d="M-0.25,-0 L 0.25 -0 0.25 0 -0.25 0 z" class="primitive"/>
              </g>
              <g transform="translate(61.91,88.33)" id="img-121411bb-112">
                <path d="M-0.25,-0 L 0.25 -0 0.25 0 -0.25 0 z" class="primitive"/>
              </g>
              <g transform="translate(62.36,88.33)" id="img-121411bb-113">
                <path d="M-0.25,-0 L 0.25 -0 0.25 0 -0.25 0 z" class="primitive"/>
              </g>
              <g transform="translate(62.81,88.33)" id="img-121411bb-114">
                <path d="M-0.25,-0 L 0.25 -0 0.25 0 -0.25 0 z" class="primitive"/>
              </g>
              <g transform="translate(63.26,88.33)" id="img-121411bb-115">
                <path d="M-0.25,-0 L 0.25 -0 0.25 0 -0.25 0 z" class="primitive"/>
              </g>
              <g transform="translate(63.71,87.51)" id="img-121411bb-116">
                <path d="M-0.25,-0.81 L 0.25 -0.81 0.25 0.81 -0.25 0.81 z" class="primitive"/>
              </g>
              <g transform="translate(64.16,86.7)" id="img-121411bb-117">
                <path d="M-0.25,-1.63 L 0.25 -1.63 0.25 1.63 -0.25 1.63 z" class="primitive"/>
              </g>
              <g transform="translate(64.61,88.33)" id="img-121411bb-118">
                <path d="M-0.25,-0 L 0.25 -0 0.25 0 -0.25 0 z" class="primitive"/>
              </g>
              <g transform="translate(65.06,88.33)" id="img-121411bb-119">
                <path d="M-0.25,-0 L 0.25 -0 0.25 0 -0.25 0 z" class="primitive"/>
              </g>
              <g transform="translate(65.52,88.33)" id="img-121411bb-120">
                <path d="M-0.25,-0 L 0.25 -0 0.25 0 -0.25 0 z" class="primitive"/>
              </g>
              <g transform="translate(65.97,88.33)" id="img-121411bb-121">
                <path d="M-0.25,-0 L 0.25 -0 0.25 0 -0.25 0 z" class="primitive"/>
              </g>
              <g transform="translate(66.42,88.33)" id="img-121411bb-122">
                <path d="M-0.25,-0 L 0.25 -0 0.25 0 -0.25 0 z" class="primitive"/>
              </g>
              <g transform="translate(66.87,88.33)" id="img-121411bb-123">
                <path d="M-0.25,-0 L 0.25 -0 0.25 0 -0.25 0 z" class="primitive"/>
              </g>
              <g transform="translate(67.32,87.51)" id="img-121411bb-124">
                <path d="M-0.25,-0.81 L 0.25 -0.81 0.25 0.81 -0.25 0.81 z" class="primitive"/>
              </g>
              <g transform="translate(67.77,88.33)" id="img-121411bb-125">
                <path d="M-0.25,-0 L 0.25 -0 0.25 0 -0.25 0 z" class="primitive"/>
              </g>
              <g transform="translate(68.22,88.33)" id="img-121411bb-126">
                <path d="M-0.25,-0 L 0.25 -0 0.25 0 -0.25 0 z" class="primitive"/>
              </g>
              <g transform="translate(68.67,88.33)" id="img-121411bb-127">
                <path d="M-0.25,-0 L 0.25 -0 0.25 0 -0.25 0 z" class="primitive"/>
              </g>
              <g transform="translate(69.13,88.33)" id="img-121411bb-128">
                <path d="M-0.25,-0 L 0.25 -0 0.25 0 -0.25 0 z" class="primitive"/>
              </g>
              <g transform="translate(69.58,88.33)" id="img-121411bb-129">
                <path d="M-0.25,-0 L 0.25 -0 0.25 0 -0.25 0 z" class="primitive"/>
              </g>
              <g transform="translate(70.03,88.33)" id="img-121411bb-130">
                <path d="M-0.25,-0 L 0.25 -0 0.25 0 -0.25 0 z" class="primitive"/>
              </g>
              <g transform="translate(70.48,87.51)" id="img-121411bb-131">
                <path d="M-0.25,-0.81 L 0.25 -0.81 0.25 0.81 -0.25 0.81 z" class="primitive"/>
              </g>
            </g>
          </g>
        </g>
      </g>
    </g>
  </g>
  <g class="guide ylabels" font-size="2.82" font-family="'PT Sans Caption','Helvetica Neue','Helvetica',sans-serif" fill="#6C606B" id="img-121411bb-132">
    <g transform="translate(16.96,88.33)" id="img-121411bb-133">
      <g class="primitive">
        <text text-anchor="end" dy="0.35em">0</text>
      </g>
    </g>
    <g transform="translate(16.96,72.06)" id="img-121411bb-134">
      <g class="primitive">
        <text text-anchor="end" dy="0.35em">10</text>
      </g>
    </g>
    <g transform="translate(16.96,55.8)" id="img-121411bb-135">
      <g class="primitive">
        <text text-anchor="end" dy="0.35em">20</text>
      </g>
    </g>
    <g transform="translate(16.96,39.53)" id="img-121411bb-136">
      <g class="primitive">
        <text text-anchor="end" dy="0.35em">30</text>
      </g>
    </g>
    <g transform="translate(16.96,23.27)" id="img-121411bb-137">
      <g class="primitive">
        <text text-anchor="end" dy="0.35em">40</text>
      </g>
    </g>
    <g transform="translate(16.96,7)" id="img-121411bb-138">
      <g class="primitive">
        <text text-anchor="end" dy="0.35em">50</text>
      </g>
    </g>
  </g>
  <g font-size="3.88" font-family="'PT Sans','Helvetica Neue','Helvetica',sans-serif" fill="#564A55" stroke="#000000" stroke-opacity="0.000" id="img-121411bb-139">
    <g transform="translate(8.81,45.66)" id="img-121411bb-140">
      <g class="primitive">
        <text text-anchor="middle" dy="0.35em" transform="rotate(-90,0, 2)">frequency</text>
      </g>
    </g>
  </g>
</g>
<defs>
  <clipPath id="img-121411bb-11">
    <path d="M17.96,5 L 73.09 5 73.09 90.33 17.96 90.33" />
  </clipPath>
</defs>
</svg>
