<?xml version="1.0" encoding="UTF-8"?>
<svg xmlns="http://www.w3.org/2000/svg"
     xmlns:xlink="http://www.w3.org/1999/xlink"
     xmlns:gadfly="http://www.gadflyjl.org/ns"
     version="1.2"
     width="141.42mm" height="100mm" viewBox="0 0 141.42 100"
     stroke="none"
     fill="#000000"
     stroke-width="0.3"
     font-size="3.88"
>
<defs>
  <marker id="arrow" markerWidth="15" markerHeight="7" refX="5" refY="3.5" orient="auto" markerUnits="strokeWidth">
    <path d="M0,0 L15,3.5 L0,7 z" stroke="context-stroke" fill="context-stroke"/>
  </marker>
</defs>
<g class="plotroot xscalable yscalable" id="img-55ec081e-1">
  <g class="guide xlabels" font-size="2.82" font-family="'PT Sans Caption','Helvetica Neue','Helvetica',sans-serif" fill="#6C606B" id="img-55ec081e-2">
    <g transform="translate(19.96,81.89)">
      <g class="primitive">
        <text text-anchor="end" dy="0.35em" transform="rotate(-90,0, 0)">0</text>
      </g>
    </g>
    <g transform="translate(31.24,81.89)">
      <g class="primitive">
        <text text-anchor="end" dy="0.35em" transform="rotate(-90,0, 0)">5.0×10³</text>
      </g>
    </g>
    <g transform="translate(42.52,81.89)">
      <g class="primitive">
        <text text-anchor="end" dy="0.35em" transform="rotate(-90,0, 0)">1.0×10⁴</text>
      </g>
    </g>
    <g transform="translate(53.81,81.89)">
      <g class="primitive">
        <text text-anchor="end" dy="0.35em" transform="rotate(-90,0, 0)">1.5×10⁴</text>
      </g>
    </g>
    <g transform="translate(65.09,81.89)">
      <g class="primitive">
        <text text-anchor="end" dy="0.35em" transform="rotate(-90,0, 0)">2.0×10⁴</text>
      </g>
    </g>
    <g transform="translate(76.37,81.89)">
      <g class="primitive">
        <text text-anchor="end" dy="0.35em" transform="rotate(-90,0, 0)">2.5×10⁴</text>
      </g>
    </g>
  </g>
  <g class="guide colorkey" id="img-55ec081e-3">
    <g class="color_coding_coding_noncoding_noncoding_4-path" id="img-55ec081e-4">
      <g fill="#4C404B" font-size="2.82" font-family="'PT Sans','Helvetica Neue','Helvetica',sans-serif" id="img-55ec081e-5">
        <g transform="translate(82.19,44.76)" id="img-55ec081e-6">
          <g class="primitive">
            <text dy="0.35em">coding_coding_noncoding_noncoding_4-path</text>
          </g>
        </g>
      </g>
      <g fill-opacity="1" fill="#00BFFF" stroke="#FFFFFF" id="img-55ec081e-7">
        <g transform="translate(80.28,44.76)" id="img-55ec081e-8">
          <path d="M-0.91,-0.91 L 0.91 -0.91 0.91 0.91 -0.91 0.91 z" class="primitive"/>
        </g>
      </g>
    </g>
    <g fill="#362A35" font-size="3.88" font-family="'PT Sans','Helvetica Neue','Helvetica',sans-serif" stroke="#000000" stroke-opacity="0.000" id="img-55ec081e-9">
      <g transform="translate(79.37,40.94)" id="img-55ec081e-10">
        <g class="primitive">
          <text dy="-0em">graphlet</text>
        </g>
      </g>
    </g>
  </g>
  <g clip-path="url(#img-55ec081e-11)">
    <g id="img-55ec081e-12">
      <g pointer-events="visible" stroke-width="0.3" fill="#000000" fill-opacity="0.000" stroke="#000000" stroke-opacity="0.000" class="guide background" id="img-55ec081e-13">
        <g transform="translate(48.17,42.94)" id="img-55ec081e-14">
          <path d="M-30.21,-37.94 L 30.21 -37.94 30.21 37.94 -30.21 37.94 z" class="primitive"/>
        </g>
      </g>
      <g class="guide ygridlines xfixed" stroke-dasharray="0.5,0.5" stroke-width="0.2" stroke="#D0D0E0" id="img-55ec081e-15">
        <g transform="translate(48.17,78.89)" id="img-55ec081e-16">
          <path fill="none" d="M-30.21,0 L 30.21 0" class="primitive"/>
        </g>
        <g transform="translate(48.17,60.92)" id="img-55ec081e-17">
          <path fill="none" d="M-30.21,0 L 30.21 0" class="primitive"/>
        </g>
        <g transform="translate(48.17,42.94)" id="img-55ec081e-18">
          <path fill="none" d="M-30.21,0 L 30.21 0" class="primitive"/>
        </g>
        <g transform="translate(48.17,24.97)" id="img-55ec081e-19">
          <path fill="none" d="M-30.21,0 L 30.21 0" class="primitive"/>
        </g>
        <g transform="translate(48.17,7)" id="img-55ec081e-20">
          <path fill="none" d="M-30.21,0 L 30.21 0" class="primitive"/>
        </g>
      </g>
      <g class="guide xgridlines yfixed" stroke-dasharray="0.5,0.5" stroke-width="0.2" stroke="#D0D0E0" id="img-55ec081e-21">
        <g transform="translate(19.96,42.94)" id="img-55ec081e-22">
          <path fill="none" d="M0,-37.94 L 0 37.94" class="primitive"/>
        </g>
        <g transform="translate(31.24,42.94)" id="img-55ec081e-23">
          <path fill="none" d="M0,-37.94 L 0 37.94" class="primitive"/>
        </g>
        <g transform="translate(42.52,42.94)" id="img-55ec081e-24">
          <path fill="none" d="M0,-37.94 L 0 37.94" class="primitive"/>
        </g>
        <g transform="translate(53.81,42.94)" id="img-55ec081e-25">
          <path fill="none" d="M0,-37.94 L 0 37.94" class="primitive"/>
        </g>
        <g transform="translate(65.09,42.94)" id="img-55ec081e-26">
          <path fill="none" d="M0,-37.94 L 0 37.94" class="primitive"/>
        </g>
        <g transform="translate(76.37,42.94)" id="img-55ec081e-27">
          <path fill="none" d="M0,-37.94 L 0 37.94" class="primitive"/>
        </g>
      </g>
      <g class="plotpanel" id="img-55ec081e-28">
        <metadata>
          <boundingbox value="17.958333333333336mm 5.0mm 60.41635623730949mm 75.88666666666667mm"/>
          <unitbox value="-886.2678013035836 41.112862839655016 26772.535602607168 -42.225725679310024"/>
        </metadata>
        <g shape-rendering="crispEdges" stroke-width="0.3" id="img-55ec081e-29">
          <g stroke="#000000" stroke-opacity="0.000" class="geometry" id="img-55ec081e-30">
            <g fill="#00BFFF" id="img-55ec081e-31">
              <g transform="translate(35.89,77.99)" id="img-55ec081e-32">
                <path d="M-0.21,-0.9 L 0.21 -0.9 0.21 0.9 -0.21 0.9 z" class="primitive"/>
              </g>
              <g transform="translate(36.26,78.89)" id="img-55ec081e-33">
                <path d="M-0.21,-0 L 0.21 -0 0.21 0 -0.21 0 z" class="primitive"/>
              </g>
              <g transform="translate(36.62,78.89)" id="img-55ec081e-34">
                <path d="M-0.21,-0 L 0.21 -0 0.21 0 -0.21 0 z" class="primitive"/>
              </g>
              <g transform="translate(36.99,78.89)" id="img-55ec081e-35">
                <path d="M-0.21,-0 L 0.21 -0 0.21 0 -0.21 0 z" class="primitive"/>
              </g>
              <g transform="translate(37.35,78.89)" id="img-55ec081e-36">
                <path d="M-0.21,-0 L 0.21 -0 0.21 0 -0.21 0 z" class="primitive"/>
              </g>
              <g transform="translate(37.72,78.89)" id="img-55ec081e-37">
                <path d="M-0.21,-0 L 0.21 -0 0.21 0 -0.21 0 z" class="primitive"/>
              </g>
              <g transform="translate(38.08,78.89)" id="img-55ec081e-38">
                <path d="M-0.21,-0 L 0.21 -0 0.21 0 -0.21 0 z" class="primitive"/>
              </g>
              <g transform="translate(38.45,77.99)" id="img-55ec081e-39">
                <path d="M-0.21,-0.9 L 0.21 -0.9 0.21 0.9 -0.21 0.9 z" class="primitive"/>
              </g>
              <g transform="translate(38.82,78.89)" id="img-55ec081e-40">
                <path d="M-0.21,-0 L 0.21 -0 0.21 0 -0.21 0 z" class="primitive"/>
              </g>
              <g transform="translate(39.18,78.89)" id="img-55ec081e-41">
                <path d="M-0.21,-0 L 0.21 -0 0.21 0 -0.21 0 z" class="primitive"/>
              </g>
              <g transform="translate(39.55,78.89)" id="img-55ec081e-42">
                <path d="M-0.21,-0 L 0.21 -0 0.21 0 -0.21 0 z" class="primitive"/>
              </g>
              <g transform="translate(39.91,78.89)" id="img-55ec081e-43">
                <path d="M-0.21,-0 L 0.21 -0 0.21 0 -0.21 0 z" class="primitive"/>
              </g>
              <g transform="translate(40.28,77.09)" id="img-55ec081e-44">
                <path d="M-0.21,-1.8 L 0.21 -1.8 0.21 1.8 -0.21 1.8 z" class="primitive"/>
              </g>
              <g transform="translate(40.64,77.09)" id="img-55ec081e-45">
                <path d="M-0.21,-1.8 L 0.21 -1.8 0.21 1.8 -0.21 1.8 z" class="primitive"/>
              </g>
              <g transform="translate(41.01,77.99)" id="img-55ec081e-46">
                <path d="M-0.21,-0.9 L 0.21 -0.9 0.21 0.9 -0.21 0.9 z" class="primitive"/>
              </g>
              <g transform="translate(41.38,76.19)" id="img-55ec081e-47">
                <path d="M-0.21,-2.7 L 0.21 -2.7 0.21 2.7 -0.21 2.7 z" class="primitive"/>
              </g>
              <g transform="translate(41.74,77.99)" id="img-55ec081e-48">
                <path d="M-0.21,-0.9 L 0.21 -0.9 0.21 0.9 -0.21 0.9 z" class="primitive"/>
              </g>
              <g transform="translate(42.11,74.39)" id="img-55ec081e-49">
                <path d="M-0.21,-4.49 L 0.21 -4.49 0.21 4.49 -0.21 4.49 z" class="primitive"/>
              </g>
              <g transform="translate(42.47,78.89)" id="img-55ec081e-50">
                <path d="M-0.21,-0 L 0.21 -0 0.21 0 -0.21 0 z" class="primitive"/>
              </g>
              <g transform="translate(42.84,76.19)" id="img-55ec081e-51">
                <path d="M-0.21,-2.7 L 0.21 -2.7 0.21 2.7 -0.21 2.7 z" class="primitive"/>
              </g>
              <g transform="translate(43.21,75.29)" id="img-55ec081e-52">
                <path d="M-0.21,-3.59 L 0.21 -3.59 0.21 3.59 -0.21 3.59 z" class="primitive"/>
              </g>
              <g transform="translate(43.57,74.39)" id="img-55ec081e-53">
                <path d="M-0.21,-4.49 L 0.21 -4.49 0.21 4.49 -0.21 4.49 z" class="primitive"/>
              </g>
              <g transform="translate(43.94,70.8)" id="img-55ec081e-54">
                <path d="M-0.21,-8.09 L 0.21 -8.09 0.21 8.09 -0.21 8.09 z" class="primitive"/>
              </g>
              <g transform="translate(44.3,69.9)" id="img-55ec081e-55">
                <path d="M-0.21,-8.99 L 0.21 -8.99 0.21 8.99 -0.21 8.99 z" class="primitive"/>
              </g>
              <g transform="translate(44.67,69.9)" id="img-55ec081e-56">
                <path d="M-0.21,-8.99 L 0.21 -8.99 0.21 8.99 -0.21 8.99 z" class="primitive"/>
              </g>
              <g transform="translate(45.03,72.6)" id="img-55ec081e-57">
                <path d="M-0.21,-6.29 L 0.21 -6.29 0.21 6.29 -0.21 6.29 z" class="primitive"/>
              </g>
              <g transform="translate(45.4,69)" id="img-55ec081e-58">
                <path d="M-0.21,-9.88 L 0.21 -9.88 0.21 9.88 -0.21 9.88 z" class="primitive"/>
              </g>
              <g transform="translate(45.77,72.6)" id="img-55ec081e-59">
                <path d="M-0.21,-6.29 L 0.21 -6.29 0.21 6.29 -0.21 6.29 z" class="primitive"/>
              </g>
              <g transform="translate(46.13,69.9)" id="img-55ec081e-60">
                <path d="M-0.21,-8.99 L 0.21 -8.99 0.21 8.99 -0.21 8.99 z" class="primitive"/>
              </g>
              <g transform="translate(46.5,66.31)" id="img-55ec081e-61">
                <path d="M-0.21,-12.58 L 0.21 -12.58 0.21 12.58 -0.21 12.58 z" class="primitive"/>
              </g>
              <g transform="translate(46.86,60.02)" id="img-55ec081e-62">
                <path d="M-0.21,-18.87 L 0.21 -18.87 0.21 18.87 -0.21 18.87 z" class="primitive"/>
              </g>
              <g transform="translate(47.23,62.71)" id="img-55ec081e-63">
                <path d="M-0.21,-16.17 L 0.21 -16.17 0.21 16.17 -0.21 16.17 z" class="primitive"/>
              </g>
              <g transform="translate(47.59,60.02)" id="img-55ec081e-64">
                <path d="M-0.21,-18.87 L 0.21 -18.87 0.21 18.87 -0.21 18.87 z" class="primitive"/>
              </g>
              <g transform="translate(47.96,60.92)" id="img-55ec081e-65">
                <path d="M-0.21,-17.97 L 0.21 -17.97 0.21 17.97 -0.21 17.97 z" class="primitive"/>
              </g>
              <g transform="translate(48.33,57.32)" id="img-55ec081e-66">
                <path d="M-0.21,-21.57 L 0.21 -21.57 0.21 21.57 -0.21 21.57 z" class="primitive"/>
              </g>
              <g transform="translate(48.69,59.12)" id="img-55ec081e-67">
                <path d="M-0.21,-19.77 L 0.21 -19.77 0.21 19.77 -0.21 19.77 z" class="primitive"/>
              </g>
              <g transform="translate(49.06,63.61)" id="img-55ec081e-68">
                <path d="M-0.21,-15.28 L 0.21 -15.28 0.21 15.28 -0.21 15.28 z" class="primitive"/>
              </g>
              <g transform="translate(49.42,60.02)" id="img-55ec081e-69">
                <path d="M-0.21,-18.87 L 0.21 -18.87 0.21 18.87 -0.21 18.87 z" class="primitive"/>
              </g>
              <g transform="translate(49.79,59.12)" id="img-55ec081e-70">
                <path d="M-0.21,-19.77 L 0.21 -19.77 0.21 19.77 -0.21 19.77 z" class="primitive"/>
              </g>
              <g transform="translate(50.15,54.62)" id="img-55ec081e-71">
                <path d="M-0.21,-24.26 L 0.21 -24.26 0.21 24.26 -0.21 24.26 z" class="primitive"/>
              </g>
              <g transform="translate(50.52,57.32)" id="img-55ec081e-72">
                <path d="M-0.21,-21.57 L 0.21 -21.57 0.21 21.57 -0.21 21.57 z" class="primitive"/>
              </g>
              <g transform="translate(50.89,50.13)" id="img-55ec081e-73">
                <path d="M-0.21,-28.75 L 0.21 -28.75 0.21 28.75 -0.21 28.75 z" class="primitive"/>
              </g>
              <g transform="translate(51.25,59.12)" id="img-55ec081e-74">
                <path d="M-0.21,-19.77 L 0.21 -19.77 0.21 19.77 -0.21 19.77 z" class="primitive"/>
              </g>
              <g transform="translate(51.62,55.52)" id="img-55ec081e-75">
                <path d="M-0.21,-23.36 L 0.21 -23.36 0.21 23.36 -0.21 23.36 z" class="primitive"/>
              </g>
              <g transform="translate(51.98,51.93)" id="img-55ec081e-76">
                <path d="M-0.21,-26.96 L 0.21 -26.96 0.21 26.96 -0.21 26.96 z" class="primitive"/>
              </g>
              <g transform="translate(52.35,54.62)" id="img-55ec081e-77">
                <path d="M-0.21,-24.26 L 0.21 -24.26 0.21 24.26 -0.21 24.26 z" class="primitive"/>
              </g>
              <g transform="translate(52.71,57.32)" id="img-55ec081e-78">
                <path d="M-0.21,-21.57 L 0.21 -21.57 0.21 21.57 -0.21 21.57 z" class="primitive"/>
              </g>
              <g transform="translate(53.08,55.52)" id="img-55ec081e-79">
                <path d="M-0.21,-23.36 L 0.21 -23.36 0.21 23.36 -0.21 23.36 z" class="primitive"/>
              </g>
              <g transform="translate(53.45,56.42)" id="img-55ec081e-80">
                <path d="M-0.21,-22.46 L 0.21 -22.46 0.21 22.46 -0.21 22.46 z" class="primitive"/>
              </g>
              <g transform="translate(53.81,52.83)" id="img-55ec081e-81">
                <path d="M-0.21,-26.06 L 0.21 -26.06 0.21 26.06 -0.21 26.06 z" class="primitive"/>
              </g>
              <g transform="translate(54.18,61.81)" id="img-55ec081e-82">
                <path d="M-0.21,-17.07 L 0.21 -17.07 0.21 17.07 -0.21 17.07 z" class="primitive"/>
              </g>
              <g transform="translate(54.54,50.13)" id="img-55ec081e-83">
                <path d="M-0.21,-28.75 L 0.21 -28.75 0.21 28.75 -0.21 28.75 z" class="primitive"/>
              </g>
              <g transform="translate(54.91,62.71)" id="img-55ec081e-84">
                <path d="M-0.21,-16.17 L 0.21 -16.17 0.21 16.17 -0.21 16.17 z" class="primitive"/>
              </g>
              <g transform="translate(55.27,56.42)" id="img-55ec081e-85">
                <path d="M-0.21,-22.46 L 0.21 -22.46 0.21 22.46 -0.21 22.46 z" class="primitive"/>
              </g>
              <g transform="translate(55.64,53.73)" id="img-55ec081e-86">
                <path d="M-0.21,-25.16 L 0.21 -25.16 0.21 25.16 -0.21 25.16 z" class="primitive"/>
              </g>
              <g transform="translate(56.01,54.62)" id="img-55ec081e-87">
                <path d="M-0.21,-24.26 L 0.21 -24.26 0.21 24.26 -0.21 24.26 z" class="primitive"/>
              </g>
              <g transform="translate(56.37,64.51)" id="img-55ec081e-88">
                <path d="M-0.21,-14.38 L 0.21 -14.38 0.21 14.38 -0.21 14.38 z" class="primitive"/>
              </g>
              <g transform="translate(56.74,63.61)" id="img-55ec081e-89">
                <path d="M-0.21,-15.28 L 0.21 -15.28 0.21 15.28 -0.21 15.28 z" class="primitive"/>
              </g>
              <g transform="translate(57.1,68.1)" id="img-55ec081e-90">
                <path d="M-0.21,-10.78 L 0.21 -10.78 0.21 10.78 -0.21 10.78 z" class="primitive"/>
              </g>
              <g transform="translate(57.47,61.81)" id="img-55ec081e-91">
                <path d="M-0.21,-17.07 L 0.21 -17.07 0.21 17.07 -0.21 17.07 z" class="primitive"/>
              </g>
              <g transform="translate(57.83,63.61)" id="img-55ec081e-92">
                <path d="M-0.21,-15.28 L 0.21 -15.28 0.21 15.28 -0.21 15.28 z" class="primitive"/>
              </g>
              <g transform="translate(58.2,62.71)" id="img-55ec081e-93">
                <path d="M-0.21,-16.17 L 0.21 -16.17 0.21 16.17 -0.21 16.17 z" class="primitive"/>
              </g>
              <g transform="translate(58.57,68.1)" id="img-55ec081e-94">
                <path d="M-0.21,-10.78 L 0.21 -10.78 0.21 10.78 -0.21 10.78 z" class="primitive"/>
              </g>
              <g transform="translate(58.93,66.31)" id="img-55ec081e-95">
                <path d="M-0.21,-12.58 L 0.21 -12.58 0.21 12.58 -0.21 12.58 z" class="primitive"/>
              </g>
              <g transform="translate(59.3,62.71)" id="img-55ec081e-96">
                <path d="M-0.21,-16.17 L 0.21 -16.17 0.21 16.17 -0.21 16.17 z" class="primitive"/>
              </g>
              <g transform="translate(59.66,62.71)" id="img-55ec081e-97">
                <path d="M-0.21,-16.17 L 0.21 -16.17 0.21 16.17 -0.21 16.17 z" class="primitive"/>
              </g>
              <g transform="translate(60.03,70.8)" id="img-55ec081e-98">
                <path d="M-0.21,-8.09 L 0.21 -8.09 0.21 8.09 -0.21 8.09 z" class="primitive"/>
              </g>
              <g transform="translate(60.39,74.39)" id="img-55ec081e-99">
                <path d="M-0.21,-4.49 L 0.21 -4.49 0.21 4.49 -0.21 4.49 z" class="primitive"/>
              </g>
              <g transform="translate(60.76,63.61)" id="img-55ec081e-100">
                <path d="M-0.21,-15.28 L 0.21 -15.28 0.21 15.28 -0.21 15.28 z" class="primitive"/>
              </g>
              <g transform="translate(61.13,69)" id="img-55ec081e-101">
                <path d="M-0.21,-9.88 L 0.21 -9.88 0.21 9.88 -0.21 9.88 z" class="primitive"/>
              </g>
              <g transform="translate(61.49,77.09)" id="img-55ec081e-102">
                <path d="M-0.21,-1.8 L 0.21 -1.8 0.21 1.8 -0.21 1.8 z" class="primitive"/>
              </g>
              <g transform="translate(61.86,71.7)" id="img-55ec081e-103">
                <path d="M-0.21,-7.19 L 0.21 -7.19 0.21 7.19 -0.21 7.19 z" class="primitive"/>
              </g>
              <g transform="translate(62.22,73.5)" id="img-55ec081e-104">
                <path d="M-0.21,-5.39 L 0.21 -5.39 0.21 5.39 -0.21 5.39 z" class="primitive"/>
              </g>
              <g transform="translate(62.59,74.39)" id="img-55ec081e-105">
                <path d="M-0.21,-4.49 L 0.21 -4.49 0.21 4.49 -0.21 4.49 z" class="primitive"/>
              </g>
              <g transform="translate(62.95,70.8)" id="img-55ec081e-106">
                <path d="M-0.21,-8.09 L 0.21 -8.09 0.21 8.09 -0.21 8.09 z" class="primitive"/>
              </g>
              <g transform="translate(63.32,72.6)" id="img-55ec081e-107">
                <path d="M-0.21,-6.29 L 0.21 -6.29 0.21 6.29 -0.21 6.29 z" class="primitive"/>
              </g>
              <g transform="translate(63.69,76.19)" id="img-55ec081e-108">
                <path d="M-0.21,-2.7 L 0.21 -2.7 0.21 2.7 -0.21 2.7 z" class="primitive"/>
              </g>
              <g transform="translate(64.05,76.19)" id="img-55ec081e-109">
                <path d="M-0.21,-2.7 L 0.21 -2.7 0.21 2.7 -0.21 2.7 z" class="primitive"/>
              </g>
              <g transform="translate(64.42,77.99)" id="img-55ec081e-110">
                <path d="M-0.21,-0.9 L 0.21 -0.9 0.21 0.9 -0.21 0.9 z" class="primitive"/>
              </g>
              <g transform="translate(64.78,78.89)" id="img-55ec081e-111">
                <path d="M-0.21,-0 L 0.21 -0 0.21 0 -0.21 0 z" class="primitive"/>
              </g>
              <g transform="translate(65.15,75.29)" id="img-55ec081e-112">
                <path d="M-0.21,-3.59 L 0.21 -3.59 0.21 3.59 -0.21 3.59 z" class="primitive"/>
              </g>
              <g transform="translate(65.52,77.09)" id="img-55ec081e-113">
                <path d="M-0.21,-1.8 L 0.21 -1.8 0.21 1.8 -0.21 1.8 z" class="primitive"/>
              </g>
              <g transform="translate(65.88,77.99)" id="img-55ec081e-114">
                <path d="M-0.21,-0.9 L 0.21 -0.9 0.21 0.9 -0.21 0.9 z" class="primitive"/>
              </g>
              <g transform="translate(66.25,76.19)" id="img-55ec081e-115">
                <path d="M-0.21,-2.7 L 0.21 -2.7 0.21 2.7 -0.21 2.7 z" class="primitive"/>
              </g>
              <g transform="translate(66.61,78.89)" id="img-55ec081e-116">
                <path d="M-0.21,-0 L 0.21 -0 0.21 0 -0.21 0 z" class="primitive"/>
              </g>
              <g transform="translate(66.98,77.99)" id="img-55ec081e-117">
                <path d="M-0.21,-0.9 L 0.21 -0.9 0.21 0.9 -0.21 0.9 z" class="primitive"/>
              </g>
              <g transform="translate(67.34,77.99)" id="img-55ec081e-118">
                <path d="M-0.21,-0.9 L 0.21 -0.9 0.21 0.9 -0.21 0.9 z" class="primitive"/>
              </g>
              <g transform="translate(67.71,77.99)" id="img-55ec081e-119">
                <path d="M-0.21,-0.9 L 0.21 -0.9 0.21 0.9 -0.21 0.9 z" class="primitive"/>
              </g>
              <g transform="translate(68.08,78.89)" id="img-55ec081e-120">
                <path d="M-0.21,-0 L 0.21 -0 0.21 0 -0.21 0 z" class="primitive"/>
              </g>
              <g transform="translate(68.44,77.09)" id="img-55ec081e-121">
                <path d="M-0.21,-1.8 L 0.21 -1.8 0.21 1.8 -0.21 1.8 z" class="primitive"/>
              </g>
              <g transform="translate(68.81,76.19)" id="img-55ec081e-122">
                <path d="M-0.21,-2.7 L 0.21 -2.7 0.21 2.7 -0.21 2.7 z" class="primitive"/>
              </g>
              <g transform="translate(69.17,78.89)" id="img-55ec081e-123">
                <path d="M-0.21,-0 L 0.21 -0 0.21 0 -0.21 0 z" class="primitive"/>
              </g>
              <g transform="translate(69.54,78.89)" id="img-55ec081e-124">
                <path d="M-0.21,-0 L 0.21 -0 0.21 0 -0.21 0 z" class="primitive"/>
              </g>
              <g transform="translate(69.9,77.99)" id="img-55ec081e-125">
                <path d="M-0.21,-0.9 L 0.21 -0.9 0.21 0.9 -0.21 0.9 z" class="primitive"/>
              </g>
              <g transform="translate(70.27,78.89)" id="img-55ec081e-126">
                <path d="M-0.21,-0 L 0.21 -0 0.21 0 -0.21 0 z" class="primitive"/>
              </g>
              <g transform="translate(70.64,78.89)" id="img-55ec081e-127">
                <path d="M-0.21,-0 L 0.21 -0 0.21 0 -0.21 0 z" class="primitive"/>
              </g>
              <g transform="translate(71,78.89)" id="img-55ec081e-128">
                <path d="M-0.21,-0 L 0.21 -0 0.21 0 -0.21 0 z" class="primitive"/>
              </g>
              <g transform="translate(71.37,78.89)" id="img-55ec081e-129">
                <path d="M-0.21,-0 L 0.21 -0 0.21 0 -0.21 0 z" class="primitive"/>
              </g>
              <g transform="translate(71.73,78.89)" id="img-55ec081e-130">
                <path d="M-0.21,-0 L 0.21 -0 0.21 0 -0.21 0 z" class="primitive"/>
              </g>
              <g transform="translate(72.1,77.99)" id="img-55ec081e-131">
                <path d="M-0.21,-0.9 L 0.21 -0.9 0.21 0.9 -0.21 0.9 z" class="primitive"/>
              </g>
            </g>
          </g>
        </g>
      </g>
    </g>
  </g>
  <g class="guide ylabels" font-size="2.82" font-family="'PT Sans Caption','Helvetica Neue','Helvetica',sans-serif" fill="#6C606B" id="img-55ec081e-132">
    <g transform="translate(16.96,78.89)" id="img-55ec081e-133">
      <g class="primitive">
        <text text-anchor="end" dy="0.35em">0</text>
      </g>
    </g>
    <g transform="translate(16.96,60.92)" id="img-55ec081e-134">
      <g class="primitive">
        <text text-anchor="end" dy="0.35em">10</text>
      </g>
    </g>
    <g transform="translate(16.96,42.94)" id="img-55ec081e-135">
      <g class="primitive">
        <text text-anchor="end" dy="0.35em">20</text>
      </g>
    </g>
    <g transform="translate(16.96,24.97)" id="img-55ec081e-136">
      <g class="primitive">
        <text text-anchor="end" dy="0.35em">30</text>
      </g>
    </g>
    <g transform="translate(16.96,7)" id="img-55ec081e-137">
      <g class="primitive">
        <text text-anchor="end" dy="0.35em">40</text>
      </g>
    </g>
  </g>
  <g font-size="3.88" font-family="'PT Sans','Helvetica Neue','Helvetica',sans-serif" fill="#564A55" stroke="#000000" stroke-opacity="0.000" id="img-55ec081e-138">
    <g transform="translate(8.81,40.94)" id="img-55ec081e-139">
      <g class="primitive">
        <text text-anchor="middle" dy="0.35em" transform="rotate(-90,0, 2)">frequency</text>
      </g>
    </g>
  </g>
</g>
<defs>
  <clipPath id="img-55ec081e-11">
    <path d="M17.96,5 L 78.37 5 78.37 80.89 17.96 80.89" />
  </clipPath>
</defs>
</svg>
