<?xml version="1.0" encoding="UTF-8"?>
<svg xmlns="http://www.w3.org/2000/svg"
     xmlns:xlink="http://www.w3.org/1999/xlink"
     xmlns:gadfly="http://www.gadflyjl.org/ns"
     version="1.2"
     width="141.42mm" height="100mm" viewBox="0 0 141.42 100"
     stroke="none"
     fill="#000000"
     stroke-width="0.3"
     font-size="3.88"
>
<defs>
  <marker id="arrow" markerWidth="15" markerHeight="7" refX="5" refY="3.5" orient="auto" markerUnits="strokeWidth">
    <path d="M0,0 L15,3.5 L0,7 z" stroke="context-stroke" fill="context-stroke"/>
  </marker>
</defs>
<g class="plotroot xscalable yscalable" id="img-cabdf6b7-1">
  <g class="guide xlabels" font-size="2.82" font-family="'PT Sans Caption','Helvetica Neue','Helvetica',sans-serif" fill="#6C606B" id="img-cabdf6b7-2">
    <g transform="translate(19.96,91.33)">
      <g class="primitive">
        <text text-anchor="middle" dy="0.6em">10.1</text>
      </g>
    </g>
    <g transform="translate(35.58,91.33)">
      <g class="primitive">
        <text text-anchor="middle" dy="0.6em">10.2</text>
      </g>
    </g>
    <g transform="translate(51.21,91.33)">
      <g class="primitive">
        <text text-anchor="middle" dy="0.6em">10.3</text>
      </g>
    </g>
    <g transform="translate(66.83,91.33)">
      <g class="primitive">
        <text text-anchor="middle" dy="0.6em">10.4</text>
      </g>
    </g>
    <g transform="translate(82.45,91.33)">
      <g class="primitive">
        <text text-anchor="middle" dy="0.6em">10.5</text>
      </g>
    </g>
  </g>
  <g class="guide colorkey" id="img-cabdf6b7-3">
    <g class="color_coding_noncoding_coding_coding_4-tail" id="img-cabdf6b7-4">
      <g fill="#4C404B" font-size="2.82" font-family="'PT Sans','Helvetica Neue','Helvetica',sans-serif" id="img-cabdf6b7-5">
        <g transform="translate(88.27,49.48)" id="img-cabdf6b7-6">
          <g class="primitive">
            <text dy="0.35em">coding_noncoding_coding_coding_4-tail</text>
          </g>
        </g>
      </g>
      <g fill-opacity="1" fill="#00BFFF" stroke="#FFFFFF" id="img-cabdf6b7-7">
        <g transform="translate(86.36,49.48)" id="img-cabdf6b7-8">
          <path d="M-0.91,-0.91 L 0.91 -0.91 0.91 0.91 -0.91 0.91 z" class="primitive"/>
        </g>
      </g>
    </g>
    <g fill="#362A35" font-size="3.88" font-family="'PT Sans','Helvetica Neue','Helvetica',sans-serif" stroke="#000000" stroke-opacity="0.000" id="img-cabdf6b7-9">
      <g transform="translate(85.45,45.66)" id="img-cabdf6b7-10">
        <g class="primitive">
          <text dy="-0em">graphlet</text>
        </g>
      </g>
    </g>
  </g>
  <g clip-path="url(#img-cabdf6b7-11)">
    <g id="img-cabdf6b7-12">
      <g pointer-events="visible" stroke-width="0.3" fill="#000000" fill-opacity="0.000" stroke="#000000" stroke-opacity="0.000" class="guide background" id="img-cabdf6b7-13">
        <g transform="translate(51.21,47.66)" id="img-cabdf6b7-14">
          <path d="M-33.25,-42.66 L 33.25 -42.66 33.25 42.66 -33.25 42.66 z" class="primitive"/>
        </g>
      </g>
      <g class="guide ygridlines xfixed" stroke-dasharray="0.5,0.5" stroke-width="0.2" stroke="#D0D0E0" id="img-cabdf6b7-15">
        <g transform="translate(51.21,88.33)" id="img-cabdf6b7-16">
          <path fill="none" d="M-33.25,0 L 33.25 0" class="primitive"/>
        </g>
        <g transform="translate(51.21,68)" id="img-cabdf6b7-17">
          <path fill="none" d="M-33.25,0 L 33.25 0" class="primitive"/>
        </g>
        <g transform="translate(51.21,47.66)" id="img-cabdf6b7-18">
          <path fill="none" d="M-33.25,0 L 33.25 0" class="primitive"/>
        </g>
        <g transform="translate(51.21,27.33)" id="img-cabdf6b7-19">
          <path fill="none" d="M-33.25,0 L 33.25 0" class="primitive"/>
        </g>
        <g transform="translate(51.21,7)" id="img-cabdf6b7-20">
          <path fill="none" d="M-33.25,0 L 33.25 0" class="primitive"/>
        </g>
      </g>
      <g class="guide xgridlines yfixed" stroke-dasharray="0.5,0.5" stroke-width="0.2" stroke="#D0D0E0" id="img-cabdf6b7-21">
        <g transform="translate(19.96,47.66)" id="img-cabdf6b7-22">
          <path fill="none" d="M0,-42.66 L 0 42.66" class="primitive"/>
        </g>
        <g transform="translate(35.58,47.66)" id="img-cabdf6b7-23">
          <path fill="none" d="M0,-42.66 L 0 42.66" class="primitive"/>
        </g>
        <g transform="translate(51.21,47.66)" id="img-cabdf6b7-24">
          <path fill="none" d="M0,-42.66 L 0 42.66" class="primitive"/>
        </g>
        <g transform="translate(66.83,47.66)" id="img-cabdf6b7-25">
          <path fill="none" d="M0,-42.66 L 0 42.66" class="primitive"/>
        </g>
        <g transform="translate(82.45,47.66)" id="img-cabdf6b7-26">
          <path fill="none" d="M0,-42.66 L 0 42.66" class="primitive"/>
        </g>
      </g>
      <g class="plotpanel" id="img-cabdf6b7-27">
        <metadata>
          <boundingbox value="17.95833333333333mm 5.0mm 66.49635623730953mm 85.32666666666667mm"/>
          <unitbox value="10.087199253713894 40.98368718747438 0.42560149257221375 -41.96737437494876"/>
        </metadata>
        <g shape-rendering="crispEdges" stroke-width="0.3" id="img-cabdf6b7-28">
          <g stroke="#000000" stroke-opacity="0.000" class="geometry" id="img-cabdf6b7-29">
            <g fill="#00BFFF" id="img-cabdf6b7-30">
              <g transform="translate(27.7,86.29)" id="img-cabdf6b7-31">
                <path d="M-0.28,-2.03 L 0.28 -2.03 0.28 2.03 -0.28 2.03 z" class="primitive"/>
              </g>
              <g transform="translate(28.2,88.33)" id="img-cabdf6b7-32">
                <path d="M-0.28,-0 L 0.28 -0 0.28 0 -0.28 0 z" class="primitive"/>
              </g>
              <g transform="translate(28.7,88.33)" id="img-cabdf6b7-33">
                <path d="M-0.28,-0 L 0.28 -0 0.28 0 -0.28 0 z" class="primitive"/>
              </g>
              <g transform="translate(29.2,88.33)" id="img-cabdf6b7-34">
                <path d="M-0.28,-0 L 0.28 -0 0.28 0 -0.28 0 z" class="primitive"/>
              </g>
              <g transform="translate(29.7,88.33)" id="img-cabdf6b7-35">
                <path d="M-0.28,-0 L 0.28 -0 0.28 0 -0.28 0 z" class="primitive"/>
              </g>
              <g transform="translate(30.2,88.33)" id="img-cabdf6b7-36">
                <path d="M-0.28,-0 L 0.28 -0 0.28 0 -0.28 0 z" class="primitive"/>
              </g>
              <g transform="translate(30.7,88.33)" id="img-cabdf6b7-37">
                <path d="M-0.28,-0 L 0.28 -0 0.28 0 -0.28 0 z" class="primitive"/>
              </g>
              <g transform="translate(31.2,88.33)" id="img-cabdf6b7-38">
                <path d="M-0.28,-0 L 0.28 -0 0.28 0 -0.28 0 z" class="primitive"/>
              </g>
              <g transform="translate(31.7,86.29)" id="img-cabdf6b7-39">
                <path d="M-0.28,-2.03 L 0.28 -2.03 0.28 2.03 -0.28 2.03 z" class="primitive"/>
              </g>
              <g transform="translate(32.2,88.33)" id="img-cabdf6b7-40">
                <path d="M-0.28,-0 L 0.28 -0 0.28 0 -0.28 0 z" class="primitive"/>
              </g>
              <g transform="translate(32.7,88.33)" id="img-cabdf6b7-41">
                <path d="M-0.28,-0 L 0.28 -0 0.28 0 -0.28 0 z" class="primitive"/>
              </g>
              <g transform="translate(33.2,88.33)" id="img-cabdf6b7-42">
                <path d="M-0.28,-0 L 0.28 -0 0.28 0 -0.28 0 z" class="primitive"/>
              </g>
              <g transform="translate(33.7,87.31)" id="img-cabdf6b7-43">
                <path d="M-0.28,-1.02 L 0.28 -1.02 0.28 1.02 -0.28 1.02 z" class="primitive"/>
              </g>
              <g transform="translate(34.2,87.31)" id="img-cabdf6b7-44">
                <path d="M-0.28,-1.02 L 0.28 -1.02 0.28 1.02 -0.28 1.02 z" class="primitive"/>
              </g>
              <g transform="translate(34.7,87.31)" id="img-cabdf6b7-45">
                <path d="M-0.28,-1.02 L 0.28 -1.02 0.28 1.02 -0.28 1.02 z" class="primitive"/>
              </g>
              <g transform="translate(35.2,88.33)" id="img-cabdf6b7-46">
                <path d="M-0.28,-0 L 0.28 -0 0.28 0 -0.28 0 z" class="primitive"/>
              </g>
              <g transform="translate(35.7,88.33)" id="img-cabdf6b7-47">
                <path d="M-0.28,-0 L 0.28 -0 0.28 0 -0.28 0 z" class="primitive"/>
              </g>
              <g transform="translate(36.2,88.33)" id="img-cabdf6b7-48">
                <path d="M-0.28,-0 L 0.28 -0 0.28 0 -0.28 0 z" class="primitive"/>
              </g>
              <g transform="translate(36.7,88.33)" id="img-cabdf6b7-49">
                <path d="M-0.28,-0 L 0.28 -0 0.28 0 -0.28 0 z" class="primitive"/>
              </g>
              <g transform="translate(37.2,88.33)" id="img-cabdf6b7-50">
                <path d="M-0.28,-0 L 0.28 -0 0.28 0 -0.28 0 z" class="primitive"/>
              </g>
              <g transform="translate(37.7,88.33)" id="img-cabdf6b7-51">
                <path d="M-0.28,-0 L 0.28 -0 0.28 0 -0.28 0 z" class="primitive"/>
              </g>
              <g transform="translate(38.2,88.33)" id="img-cabdf6b7-52">
                <path d="M-0.28,-0 L 0.28 -0 0.28 0 -0.28 0 z" class="primitive"/>
              </g>
              <g transform="translate(38.7,88.33)" id="img-cabdf6b7-53">
                <path d="M-0.28,-0 L 0.28 -0 0.28 0 -0.28 0 z" class="primitive"/>
              </g>
              <g transform="translate(39.2,88.33)" id="img-cabdf6b7-54">
                <path d="M-0.28,-0 L 0.28 -0 0.28 0 -0.28 0 z" class="primitive"/>
              </g>
              <g transform="translate(39.7,87.31)" id="img-cabdf6b7-55">
                <path d="M-0.28,-1.02 L 0.28 -1.02 0.28 1.02 -0.28 1.02 z" class="primitive"/>
              </g>
              <g transform="translate(40.2,86.29)" id="img-cabdf6b7-56">
                <path d="M-0.28,-2.03 L 0.28 -2.03 0.28 2.03 -0.28 2.03 z" class="primitive"/>
              </g>
              <g transform="translate(40.7,88.33)" id="img-cabdf6b7-57">
                <path d="M-0.28,-0 L 0.28 -0 0.28 0 -0.28 0 z" class="primitive"/>
              </g>
              <g transform="translate(41.2,88.33)" id="img-cabdf6b7-58">
                <path d="M-0.28,-0 L 0.28 -0 0.28 0 -0.28 0 z" class="primitive"/>
              </g>
              <g transform="translate(41.7,86.29)" id="img-cabdf6b7-59">
                <path d="M-0.28,-2.03 L 0.28 -2.03 0.28 2.03 -0.28 2.03 z" class="primitive"/>
              </g>
              <g transform="translate(42.2,87.31)" id="img-cabdf6b7-60">
                <path d="M-0.28,-1.02 L 0.28 -1.02 0.28 1.02 -0.28 1.02 z" class="primitive"/>
              </g>
              <g transform="translate(42.7,88.33)" id="img-cabdf6b7-61">
                <path d="M-0.28,-0 L 0.28 -0 0.28 0 -0.28 0 z" class="primitive"/>
              </g>
              <g transform="translate(43.2,86.29)" id="img-cabdf6b7-62">
                <path d="M-0.28,-2.03 L 0.28 -2.03 0.28 2.03 -0.28 2.03 z" class="primitive"/>
              </g>
              <g transform="translate(43.7,87.31)" id="img-cabdf6b7-63">
                <path d="M-0.28,-1.02 L 0.28 -1.02 0.28 1.02 -0.28 1.02 z" class="primitive"/>
              </g>
              <g transform="translate(44.2,85.28)" id="img-cabdf6b7-64">
                <path d="M-0.28,-3.05 L 0.28 -3.05 0.28 3.05 -0.28 3.05 z" class="primitive"/>
              </g>
              <g transform="translate(44.7,86.29)" id="img-cabdf6b7-65">
                <path d="M-0.28,-2.03 L 0.28 -2.03 0.28 2.03 -0.28 2.03 z" class="primitive"/>
              </g>
              <g transform="translate(45.2,88.33)" id="img-cabdf6b7-66">
                <path d="M-0.28,-0 L 0.28 -0 0.28 0 -0.28 0 z" class="primitive"/>
              </g>
              <g transform="translate(45.7,87.31)" id="img-cabdf6b7-67">
                <path d="M-0.28,-1.02 L 0.28 -1.02 0.28 1.02 -0.28 1.02 z" class="primitive"/>
              </g>
              <g transform="translate(46.2,86.29)" id="img-cabdf6b7-68">
                <path d="M-0.28,-2.03 L 0.28 -2.03 0.28 2.03 -0.28 2.03 z" class="primitive"/>
              </g>
              <g transform="translate(46.7,84.26)" id="img-cabdf6b7-69">
                <path d="M-0.28,-4.07 L 0.28 -4.07 0.28 4.07 -0.28 4.07 z" class="primitive"/>
              </g>
              <g transform="translate(47.2,88.33)" id="img-cabdf6b7-70">
                <path d="M-0.28,-0 L 0.28 -0 0.28 0 -0.28 0 z" class="primitive"/>
              </g>
              <g transform="translate(47.7,83.24)" id="img-cabdf6b7-71">
                <path d="M-0.28,-5.08 L 0.28 -5.08 0.28 5.08 -0.28 5.08 z" class="primitive"/>
              </g>
              <g transform="translate(48.2,84.26)" id="img-cabdf6b7-72">
                <path d="M-0.28,-4.07 L 0.28 -4.07 0.28 4.07 -0.28 4.07 z" class="primitive"/>
              </g>
              <g transform="translate(48.7,87.31)" id="img-cabdf6b7-73">
                <path d="M-0.28,-1.02 L 0.28 -1.02 0.28 1.02 -0.28 1.02 z" class="primitive"/>
              </g>
              <g transform="translate(49.2,82.23)" id="img-cabdf6b7-74">
                <path d="M-0.28,-6.1 L 0.28 -6.1 0.28 6.1 -0.28 6.1 z" class="primitive"/>
              </g>
              <g transform="translate(49.7,82.23)" id="img-cabdf6b7-75">
                <path d="M-0.28,-6.1 L 0.28 -6.1 0.28 6.1 -0.28 6.1 z" class="primitive"/>
              </g>
              <g transform="translate(50.2,87.31)" id="img-cabdf6b7-76">
                <path d="M-0.28,-1.02 L 0.28 -1.02 0.28 1.02 -0.28 1.02 z" class="primitive"/>
              </g>
              <g transform="translate(50.7,84.26)" id="img-cabdf6b7-77">
                <path d="M-0.28,-4.07 L 0.28 -4.07 0.28 4.07 -0.28 4.07 z" class="primitive"/>
              </g>
              <g transform="translate(51.2,82.23)" id="img-cabdf6b7-78">
                <path d="M-0.28,-6.1 L 0.28 -6.1 0.28 6.1 -0.28 6.1 z" class="primitive"/>
              </g>
              <g transform="translate(51.7,80.19)" id="img-cabdf6b7-79">
                <path d="M-0.28,-8.13 L 0.28 -8.13 0.28 8.13 -0.28 8.13 z" class="primitive"/>
              </g>
              <g transform="translate(52.2,77.14)" id="img-cabdf6b7-80">
                <path d="M-0.28,-11.18 L 0.28 -11.18 0.28 11.18 -0.28 11.18 z" class="primitive"/>
              </g>
              <g transform="translate(52.7,83.24)" id="img-cabdf6b7-81">
                <path d="M-0.28,-5.08 L 0.28 -5.08 0.28 5.08 -0.28 5.08 z" class="primitive"/>
              </g>
              <g transform="translate(53.2,81.21)" id="img-cabdf6b7-82">
                <path d="M-0.28,-7.12 L 0.28 -7.12 0.28 7.12 -0.28 7.12 z" class="primitive"/>
              </g>
              <g transform="translate(53.7,81.21)" id="img-cabdf6b7-83">
                <path d="M-0.28,-7.12 L 0.28 -7.12 0.28 7.12 -0.28 7.12 z" class="primitive"/>
              </g>
              <g transform="translate(54.2,81.21)" id="img-cabdf6b7-84">
                <path d="M-0.28,-7.12 L 0.28 -7.12 0.28 7.12 -0.28 7.12 z" class="primitive"/>
              </g>
              <g transform="translate(54.7,77.14)" id="img-cabdf6b7-85">
                <path d="M-0.28,-11.18 L 0.28 -11.18 0.28 11.18 -0.28 11.18 z" class="primitive"/>
              </g>
              <g transform="translate(55.2,75.11)" id="img-cabdf6b7-86">
                <path d="M-0.28,-13.22 L 0.28 -13.22 0.28 13.22 -0.28 13.22 z" class="primitive"/>
              </g>
              <g transform="translate(55.7,81.21)" id="img-cabdf6b7-87">
                <path d="M-0.28,-7.12 L 0.28 -7.12 0.28 7.12 -0.28 7.12 z" class="primitive"/>
              </g>
              <g transform="translate(56.2,72.06)" id="img-cabdf6b7-88">
                <path d="M-0.28,-16.27 L 0.28 -16.27 0.28 16.27 -0.28 16.27 z" class="primitive"/>
              </g>
              <g transform="translate(56.7,69.01)" id="img-cabdf6b7-89">
                <path d="M-0.28,-19.32 L 0.28 -19.32 0.28 19.32 -0.28 19.32 z" class="primitive"/>
              </g>
              <g transform="translate(57.2,79.18)" id="img-cabdf6b7-90">
                <path d="M-0.28,-9.15 L 0.28 -9.15 0.28 9.15 -0.28 9.15 z" class="primitive"/>
              </g>
              <g transform="translate(57.7,69.01)" id="img-cabdf6b7-91">
                <path d="M-0.28,-19.32 L 0.28 -19.32 0.28 19.32 -0.28 19.32 z" class="primitive"/>
              </g>
              <g transform="translate(58.2,69.01)" id="img-cabdf6b7-92">
                <path d="M-0.28,-19.32 L 0.28 -19.32 0.28 19.32 -0.28 19.32 z" class="primitive"/>
              </g>
              <g transform="translate(58.7,61.9)" id="img-cabdf6b7-93">
                <path d="M-0.28,-26.43 L 0.28 -26.43 0.28 26.43 -0.28 26.43 z" class="primitive"/>
              </g>
              <g transform="translate(59.2,79.18)" id="img-cabdf6b7-94">
                <path d="M-0.28,-9.15 L 0.28 -9.15 0.28 9.15 -0.28 9.15 z" class="primitive"/>
              </g>
              <g transform="translate(59.7,74.09)" id="img-cabdf6b7-95">
                <path d="M-0.28,-14.23 L 0.28 -14.23 0.28 14.23 -0.28 14.23 z" class="primitive"/>
              </g>
              <g transform="translate(60.2,63.93)" id="img-cabdf6b7-96">
                <path d="M-0.28,-24.4 L 0.28 -24.4 0.28 24.4 -0.28 24.4 z" class="primitive"/>
              </g>
              <g transform="translate(60.7,66.98)" id="img-cabdf6b7-97">
                <path d="M-0.28,-21.35 L 0.28 -21.35 0.28 21.35 -0.28 21.35 z" class="primitive"/>
              </g>
              <g transform="translate(61.2,68)" id="img-cabdf6b7-98">
                <path d="M-0.28,-20.33 L 0.28 -20.33 0.28 20.33 -0.28 20.33 z" class="primitive"/>
              </g>
              <g transform="translate(61.7,62.91)" id="img-cabdf6b7-99">
                <path d="M-0.28,-25.41 L 0.28 -25.41 0.28 25.41 -0.28 25.41 z" class="primitive"/>
              </g>
              <g transform="translate(62.2,56.81)" id="img-cabdf6b7-100">
                <path d="M-0.28,-31.51 L 0.28 -31.51 0.28 31.51 -0.28 31.51 z" class="primitive"/>
              </g>
              <g transform="translate(62.7,54.78)" id="img-cabdf6b7-101">
                <path d="M-0.28,-33.55 L 0.28 -33.55 0.28 33.55 -0.28 33.55 z" class="primitive"/>
              </g>
              <g transform="translate(63.2,64.95)" id="img-cabdf6b7-102">
                <path d="M-0.28,-23.38 L 0.28 -23.38 0.28 23.38 -0.28 23.38 z" class="primitive"/>
              </g>
              <g transform="translate(63.7,51.73)" id="img-cabdf6b7-103">
                <path d="M-0.28,-36.6 L 0.28 -36.6 0.28 36.6 -0.28 36.6 z" class="primitive"/>
              </g>
              <g transform="translate(64.2,53.76)" id="img-cabdf6b7-104">
                <path d="M-0.28,-34.56 L 0.28 -34.56 0.28 34.56 -0.28 34.56 z" class="primitive"/>
              </g>
              <g transform="translate(64.7,54.78)" id="img-cabdf6b7-105">
                <path d="M-0.28,-33.55 L 0.28 -33.55 0.28 33.55 -0.28 33.55 z" class="primitive"/>
              </g>
              <g transform="translate(65.2,57.83)" id="img-cabdf6b7-106">
                <path d="M-0.28,-30.5 L 0.28 -30.5 0.28 30.5 -0.28 30.5 z" class="primitive"/>
              </g>
              <g transform="translate(65.7,68)" id="img-cabdf6b7-107">
                <path d="M-0.28,-20.33 L 0.28 -20.33 0.28 20.33 -0.28 20.33 z" class="primitive"/>
              </g>
              <g transform="translate(66.2,49.7)" id="img-cabdf6b7-108">
                <path d="M-0.28,-38.63 L 0.28 -38.63 0.28 38.63 -0.28 38.63 z" class="primitive"/>
              </g>
              <g transform="translate(66.7,58.85)" id="img-cabdf6b7-109">
                <path d="M-0.28,-29.48 L 0.28 -29.48 0.28 29.48 -0.28 29.48 z" class="primitive"/>
              </g>
              <g transform="translate(67.2,61.9)" id="img-cabdf6b7-110">
                <path d="M-0.28,-26.43 L 0.28 -26.43 0.28 26.43 -0.28 26.43 z" class="primitive"/>
              </g>
              <g transform="translate(67.7,65.96)" id="img-cabdf6b7-111">
                <path d="M-0.28,-22.36 L 0.28 -22.36 0.28 22.36 -0.28 22.36 z" class="primitive"/>
              </g>
              <g transform="translate(68.2,57.83)" id="img-cabdf6b7-112">
                <path d="M-0.28,-30.5 L 0.28 -30.5 0.28 30.5 -0.28 30.5 z" class="primitive"/>
              </g>
              <g transform="translate(68.7,49.7)" id="img-cabdf6b7-113">
                <path d="M-0.28,-38.63 L 0.28 -38.63 0.28 38.63 -0.28 38.63 z" class="primitive"/>
              </g>
              <g transform="translate(69.2,66.98)" id="img-cabdf6b7-114">
                <path d="M-0.28,-21.35 L 0.28 -21.35 0.28 21.35 -0.28 21.35 z" class="primitive"/>
              </g>
              <g transform="translate(69.7,60.88)" id="img-cabdf6b7-115">
                <path d="M-0.28,-27.45 L 0.28 -27.45 0.28 27.45 -0.28 27.45 z" class="primitive"/>
              </g>
              <g transform="translate(70.2,60.88)" id="img-cabdf6b7-116">
                <path d="M-0.28,-27.45 L 0.28 -27.45 0.28 27.45 -0.28 27.45 z" class="primitive"/>
              </g>
              <g transform="translate(70.7,60.88)" id="img-cabdf6b7-117">
                <path d="M-0.28,-27.45 L 0.28 -27.45 0.28 27.45 -0.28 27.45 z" class="primitive"/>
              </g>
              <g transform="translate(71.2,65.96)" id="img-cabdf6b7-118">
                <path d="M-0.28,-22.36 L 0.28 -22.36 0.28 22.36 -0.28 22.36 z" class="primitive"/>
              </g>
              <g transform="translate(71.7,65.96)" id="img-cabdf6b7-119">
                <path d="M-0.28,-22.36 L 0.28 -22.36 0.28 22.36 -0.28 22.36 z" class="primitive"/>
              </g>
              <g transform="translate(72.2,75.11)" id="img-cabdf6b7-120">
                <path d="M-0.28,-13.22 L 0.28 -13.22 0.28 13.22 -0.28 13.22 z" class="primitive"/>
              </g>
              <g transform="translate(72.7,79.18)" id="img-cabdf6b7-121">
                <path d="M-0.28,-9.15 L 0.28 -9.15 0.28 9.15 -0.28 9.15 z" class="primitive"/>
              </g>
              <g transform="translate(73.2,80.19)" id="img-cabdf6b7-122">
                <path d="M-0.28,-8.13 L 0.28 -8.13 0.28 8.13 -0.28 8.13 z" class="primitive"/>
              </g>
              <g transform="translate(73.7,78.16)" id="img-cabdf6b7-123">
                <path d="M-0.28,-10.17 L 0.28 -10.17 0.28 10.17 -0.28 10.17 z" class="primitive"/>
              </g>
              <g transform="translate(74.2,80.19)" id="img-cabdf6b7-124">
                <path d="M-0.28,-8.13 L 0.28 -8.13 0.28 8.13 -0.28 8.13 z" class="primitive"/>
              </g>
              <g transform="translate(74.7,84.26)" id="img-cabdf6b7-125">
                <path d="M-0.28,-4.07 L 0.28 -4.07 0.28 4.07 -0.28 4.07 z" class="primitive"/>
              </g>
              <g transform="translate(75.2,79.18)" id="img-cabdf6b7-126">
                <path d="M-0.28,-9.15 L 0.28 -9.15 0.28 9.15 -0.28 9.15 z" class="primitive"/>
              </g>
              <g transform="translate(75.7,83.24)" id="img-cabdf6b7-127">
                <path d="M-0.28,-5.08 L 0.28 -5.08 0.28 5.08 -0.28 5.08 z" class="primitive"/>
              </g>
              <g transform="translate(76.2,87.31)" id="img-cabdf6b7-128">
                <path d="M-0.28,-1.02 L 0.28 -1.02 0.28 1.02 -0.28 1.02 z" class="primitive"/>
              </g>
              <g transform="translate(76.7,85.28)" id="img-cabdf6b7-129">
                <path d="M-0.28,-3.05 L 0.28 -3.05 0.28 3.05 -0.28 3.05 z" class="primitive"/>
              </g>
              <g transform="translate(77.2,85.28)" id="img-cabdf6b7-130">
                <path d="M-0.28,-3.05 L 0.28 -3.05 0.28 3.05 -0.28 3.05 z" class="primitive"/>
              </g>
            </g>
          </g>
        </g>
      </g>
    </g>
  </g>
  <g class="guide ylabels" font-size="2.82" font-family="'PT Sans Caption','Helvetica Neue','Helvetica',sans-serif" fill="#6C606B" id="img-cabdf6b7-131">
    <g transform="translate(16.96,88.33)" id="img-cabdf6b7-132">
      <g class="primitive">
        <text text-anchor="end" dy="0.35em">0</text>
      </g>
    </g>
    <g transform="translate(16.96,68)" id="img-cabdf6b7-133">
      <g class="primitive">
        <text text-anchor="end" dy="0.35em">10</text>
      </g>
    </g>
    <g transform="translate(16.96,47.66)" id="img-cabdf6b7-134">
      <g class="primitive">
        <text text-anchor="end" dy="0.35em">20</text>
      </g>
    </g>
    <g transform="translate(16.96,27.33)" id="img-cabdf6b7-135">
      <g class="primitive">
        <text text-anchor="end" dy="0.35em">30</text>
      </g>
    </g>
    <g transform="translate(16.96,7)" id="img-cabdf6b7-136">
      <g class="primitive">
        <text text-anchor="end" dy="0.35em">40</text>
      </g>
    </g>
  </g>
  <g font-size="3.88" font-family="'PT Sans','Helvetica Neue','Helvetica',sans-serif" fill="#564A55" stroke="#000000" stroke-opacity="0.000" id="img-cabdf6b7-137">
    <g transform="translate(8.81,45.66)" id="img-cabdf6b7-138">
      <g class="primitive">
        <text text-anchor="middle" dy="0.35em" transform="rotate(-90,0, 2)">frequency</text>
      </g>
    </g>
  </g>
</g>
<defs>
  <clipPath id="img-cabdf6b7-11">
    <path d="M17.96,5 L 84.45 5 84.45 90.33 17.96 90.33" />
  </clipPath>
</defs>
</svg>
