<?xml version="1.0" encoding="UTF-8"?>
<svg xmlns="http://www.w3.org/2000/svg"
     xmlns:xlink="http://www.w3.org/1999/xlink"
     xmlns:gadfly="http://www.gadflyjl.org/ns"
     version="1.2"
     width="141.42mm" height="100mm" viewBox="0 0 141.42 100"
     stroke="none"
     fill="#000000"
     stroke-width="0.3"
     font-size="3.88"
>
<defs>
  <marker id="arrow" markerWidth="15" markerHeight="7" refX="5" refY="3.5" orient="auto" markerUnits="strokeWidth">
    <path d="M0,0 L15,3.5 L0,7 z" stroke="context-stroke" fill="context-stroke"/>
  </marker>
</defs>
<g class="plotroot xscalable yscalable" id="img-88bf9711-1">
  <g class="guide xlabels" font-size="2.82" font-family="'PT Sans Caption','Helvetica Neue','Helvetica',sans-serif" fill="#6C606B" id="img-88bf9711-2">
    <g transform="translate(18.28,91.33)">
      <g class="primitive">
        <text text-anchor="middle" dy="0.6em">9.60</text>
      </g>
    </g>
    <g transform="translate(29.9,91.33)">
      <g class="primitive">
        <text text-anchor="middle" dy="0.6em">9.65</text>
      </g>
    </g>
    <g transform="translate(41.52,91.33)">
      <g class="primitive">
        <text text-anchor="middle" dy="0.6em">9.70</text>
      </g>
    </g>
    <g transform="translate(53.14,91.33)">
      <g class="primitive">
        <text text-anchor="middle" dy="0.6em">9.75</text>
      </g>
    </g>
    <g transform="translate(64.76,91.33)">
      <g class="primitive">
        <text text-anchor="middle" dy="0.6em">9.80</text>
      </g>
    </g>
    <g transform="translate(76.37,91.33)">
      <g class="primitive">
        <text text-anchor="middle" dy="0.6em">9.85</text>
      </g>
    </g>
  </g>
  <g class="guide colorkey" id="img-88bf9711-3">
    <g class="color_coding_coding_noncoding_noncoding_4-path" id="img-88bf9711-4">
      <g fill="#4C404B" font-size="2.82" font-family="'PT Sans','Helvetica Neue','Helvetica',sans-serif" id="img-88bf9711-5">
        <g transform="translate(82.19,49.48)" id="img-88bf9711-6">
          <g class="primitive">
            <text dy="0.35em">coding_coding_noncoding_noncoding_4-path</text>
          </g>
        </g>
      </g>
      <g fill-opacity="1" fill="#00BFFF" stroke="#FFFFFF" id="img-88bf9711-7">
        <g transform="translate(80.28,49.48)" id="img-88bf9711-8">
          <path d="M-0.91,-0.91 L 0.91 -0.91 0.91 0.91 -0.91 0.91 z" class="primitive"/>
        </g>
      </g>
    </g>
    <g fill="#362A35" font-size="3.88" font-family="'PT Sans','Helvetica Neue','Helvetica',sans-serif" stroke="#000000" stroke-opacity="0.000" id="img-88bf9711-9">
      <g transform="translate(79.37,45.66)" id="img-88bf9711-10">
        <g class="primitive">
          <text dy="-0em">graphlet</text>
        </g>
      </g>
    </g>
  </g>
  <g clip-path="url(#img-88bf9711-11)">
    <g id="img-88bf9711-12">
      <g pointer-events="visible" stroke-width="0.3" fill="#000000" fill-opacity="0.000" stroke="#000000" stroke-opacity="0.000" class="guide background" id="img-88bf9711-13">
        <g transform="translate(47.33,47.66)" id="img-88bf9711-14">
          <path d="M-31.04,-42.66 L 31.04 -42.66 31.04 42.66 -31.04 42.66 z" class="primitive"/>
        </g>
      </g>
      <g class="guide ygridlines xfixed" stroke-dasharray="0.5,0.5" stroke-width="0.2" stroke="#D0D0E0" id="img-88bf9711-15">
        <g transform="translate(47.33,88.33)" id="img-88bf9711-16">
          <path fill="none" d="M-31.04,0 L 31.04 0" class="primitive"/>
        </g>
        <g transform="translate(47.33,72.06)" id="img-88bf9711-17">
          <path fill="none" d="M-31.04,0 L 31.04 0" class="primitive"/>
        </g>
        <g transform="translate(47.33,55.8)" id="img-88bf9711-18">
          <path fill="none" d="M-31.04,0 L 31.04 0" class="primitive"/>
        </g>
        <g transform="translate(47.33,39.53)" id="img-88bf9711-19">
          <path fill="none" d="M-31.04,0 L 31.04 0" class="primitive"/>
        </g>
        <g transform="translate(47.33,23.27)" id="img-88bf9711-20">
          <path fill="none" d="M-31.04,0 L 31.04 0" class="primitive"/>
        </g>
        <g transform="translate(47.33,7)" id="img-88bf9711-21">
          <path fill="none" d="M-31.04,0 L 31.04 0" class="primitive"/>
        </g>
      </g>
      <g class="guide xgridlines yfixed" stroke-dasharray="0.5,0.5" stroke-width="0.2" stroke="#D0D0E0" id="img-88bf9711-22">
        <g transform="translate(18.28,47.66)" id="img-88bf9711-23">
          <path fill="none" d="M0,-42.66 L 0 42.66" class="primitive"/>
        </g>
        <g transform="translate(29.9,47.66)" id="img-88bf9711-24">
          <path fill="none" d="M0,-42.66 L 0 42.66" class="primitive"/>
        </g>
        <g transform="translate(41.52,47.66)" id="img-88bf9711-25">
          <path fill="none" d="M0,-42.66 L 0 42.66" class="primitive"/>
        </g>
        <g transform="translate(53.14,47.66)" id="img-88bf9711-26">
          <path fill="none" d="M0,-42.66 L 0 42.66" class="primitive"/>
        </g>
        <g transform="translate(64.76,47.66)" id="img-88bf9711-27">
          <path fill="none" d="M0,-42.66 L 0 42.66" class="primitive"/>
        </g>
        <g transform="translate(76.37,47.66)" id="img-88bf9711-28">
          <path fill="none" d="M0,-42.66 L 0 42.66" class="primitive"/>
        </g>
      </g>
      <g class="plotpanel" id="img-88bf9711-29">
        <metadata>
          <boundingbox value="16.285000000000004mm 5.0mm 62.089689570642825mm 85.32666666666667mm"/>
          <unitbox value="9.591392620554602 5.122960898434298 0.2672147588907994 -5.245921796868595"/>
        </metadata>
        <g shape-rendering="crispEdges" stroke-width="0.3" id="img-88bf9711-30">
          <g stroke="#000000" stroke-opacity="0.000" class="geometry" id="img-88bf9711-31">
            <g fill="#00BFFF" id="img-88bf9711-32">
              <g transform="translate(20.5,72.06)" id="img-88bf9711-33">
                <path d="M-0.28,-16.27 L 0.28 -16.27 0.28 16.27 -0.28 16.27 z" class="primitive"/>
              </g>
              <g transform="translate(21,88.33)" id="img-88bf9711-34">
                <path d="M-0.28,-0 L 0.28 -0 0.28 0 -0.28 0 z" class="primitive"/>
              </g>
              <g transform="translate(21.5,88.33)" id="img-88bf9711-35">
                <path d="M-0.28,-0 L 0.28 -0 0.28 0 -0.28 0 z" class="primitive"/>
              </g>
              <g transform="translate(22.01,88.33)" id="img-88bf9711-36">
                <path d="M-0.28,-0 L 0.28 -0 0.28 0 -0.28 0 z" class="primitive"/>
              </g>
              <g transform="translate(22.51,88.33)" id="img-88bf9711-37">
                <path d="M-0.28,-0 L 0.28 -0 0.28 0 -0.28 0 z" class="primitive"/>
              </g>
              <g transform="translate(23.01,88.33)" id="img-88bf9711-38">
                <path d="M-0.28,-0 L 0.28 -0 0.28 0 -0.28 0 z" class="primitive"/>
              </g>
              <g transform="translate(23.51,88.33)" id="img-88bf9711-39">
                <path d="M-0.28,-0 L 0.28 -0 0.28 0 -0.28 0 z" class="primitive"/>
              </g>
              <g transform="translate(24.02,88.33)" id="img-88bf9711-40">
                <path d="M-0.28,-0 L 0.28 -0 0.28 0 -0.28 0 z" class="primitive"/>
              </g>
              <g transform="translate(24.52,88.33)" id="img-88bf9711-41">
                <path d="M-0.28,-0 L 0.28 -0 0.28 0 -0.28 0 z" class="primitive"/>
              </g>
              <g transform="translate(25.02,80.19)" id="img-88bf9711-42">
                <path d="M-0.28,-8.13 L 0.28 -8.13 0.28 8.13 -0.28 8.13 z" class="primitive"/>
              </g>
              <g transform="translate(25.52,88.33)" id="img-88bf9711-43">
                <path d="M-0.28,-0 L 0.28 -0 0.28 0 -0.28 0 z" class="primitive"/>
              </g>
              <g transform="translate(26.02,88.33)" id="img-88bf9711-44">
                <path d="M-0.28,-0 L 0.28 -0 0.28 0 -0.28 0 z" class="primitive"/>
              </g>
              <g transform="translate(26.53,88.33)" id="img-88bf9711-45">
                <path d="M-0.28,-0 L 0.28 -0 0.28 0 -0.28 0 z" class="primitive"/>
              </g>
              <g transform="translate(27.03,88.33)" id="img-88bf9711-46">
                <path d="M-0.28,-0 L 0.28 -0 0.28 0 -0.28 0 z" class="primitive"/>
              </g>
              <g transform="translate(27.53,80.19)" id="img-88bf9711-47">
                <path d="M-0.28,-8.13 L 0.28 -8.13 0.28 8.13 -0.28 8.13 z" class="primitive"/>
              </g>
              <g transform="translate(28.03,88.33)" id="img-88bf9711-48">
                <path d="M-0.28,-0 L 0.28 -0 0.28 0 -0.28 0 z" class="primitive"/>
              </g>
              <g transform="translate(28.54,80.19)" id="img-88bf9711-49">
                <path d="M-0.28,-8.13 L 0.28 -8.13 0.28 8.13 -0.28 8.13 z" class="primitive"/>
              </g>
              <g transform="translate(29.04,88.33)" id="img-88bf9711-50">
                <path d="M-0.28,-0 L 0.28 -0 0.28 0 -0.28 0 z" class="primitive"/>
              </g>
              <g transform="translate(29.54,88.33)" id="img-88bf9711-51">
                <path d="M-0.28,-0 L 0.28 -0 0.28 0 -0.28 0 z" class="primitive"/>
              </g>
              <g transform="translate(30.04,80.19)" id="img-88bf9711-52">
                <path d="M-0.28,-8.13 L 0.28 -8.13 0.28 8.13 -0.28 8.13 z" class="primitive"/>
              </g>
              <g transform="translate(30.55,88.33)" id="img-88bf9711-53">
                <path d="M-0.28,-0 L 0.28 -0 0.28 0 -0.28 0 z" class="primitive"/>
              </g>
              <g transform="translate(31.05,88.33)" id="img-88bf9711-54">
                <path d="M-0.28,-0 L 0.28 -0 0.28 0 -0.28 0 z" class="primitive"/>
              </g>
              <g transform="translate(31.55,88.33)" id="img-88bf9711-55">
                <path d="M-0.28,-0 L 0.28 -0 0.28 0 -0.28 0 z" class="primitive"/>
              </g>
              <g transform="translate(32.05,80.19)" id="img-88bf9711-56">
                <path d="M-0.28,-8.13 L 0.28 -8.13 0.28 8.13 -0.28 8.13 z" class="primitive"/>
              </g>
              <g transform="translate(32.56,88.33)" id="img-88bf9711-57">
                <path d="M-0.28,-0 L 0.28 -0 0.28 0 -0.28 0 z" class="primitive"/>
              </g>
              <g transform="translate(33.06,88.33)" id="img-88bf9711-58">
                <path d="M-0.28,-0 L 0.28 -0 0.28 0 -0.28 0 z" class="primitive"/>
              </g>
              <g transform="translate(33.56,88.33)" id="img-88bf9711-59">
                <path d="M-0.28,-0 L 0.28 -0 0.28 0 -0.28 0 z" class="primitive"/>
              </g>
              <g transform="translate(34.06,80.19)" id="img-88bf9711-60">
                <path d="M-0.28,-8.13 L 0.28 -8.13 0.28 8.13 -0.28 8.13 z" class="primitive"/>
              </g>
              <g transform="translate(34.56,88.33)" id="img-88bf9711-61">
                <path d="M-0.28,-0 L 0.28 -0 0.28 0 -0.28 0 z" class="primitive"/>
              </g>
              <g transform="translate(35.07,88.33)" id="img-88bf9711-62">
                <path d="M-0.28,-0 L 0.28 -0 0.28 0 -0.28 0 z" class="primitive"/>
              </g>
              <g transform="translate(35.57,88.33)" id="img-88bf9711-63">
                <path d="M-0.28,-0 L 0.28 -0 0.28 0 -0.28 0 z" class="primitive"/>
              </g>
              <g transform="translate(36.07,88.33)" id="img-88bf9711-64">
                <path d="M-0.28,-0 L 0.28 -0 0.28 0 -0.28 0 z" class="primitive"/>
              </g>
              <g transform="translate(36.57,80.19)" id="img-88bf9711-65">
                <path d="M-0.28,-8.13 L 0.28 -8.13 0.28 8.13 -0.28 8.13 z" class="primitive"/>
              </g>
              <g transform="translate(37.08,63.93)" id="img-88bf9711-66">
                <path d="M-0.28,-24.4 L 0.28 -24.4 0.28 24.4 -0.28 24.4 z" class="primitive"/>
              </g>
              <g transform="translate(37.58,80.19)" id="img-88bf9711-67">
                <path d="M-0.28,-8.13 L 0.28 -8.13 0.28 8.13 -0.28 8.13 z" class="primitive"/>
              </g>
              <g transform="translate(38.08,63.93)" id="img-88bf9711-68">
                <path d="M-0.28,-24.4 L 0.28 -24.4 0.28 24.4 -0.28 24.4 z" class="primitive"/>
              </g>
              <g transform="translate(38.58,80.19)" id="img-88bf9711-69">
                <path d="M-0.28,-8.13 L 0.28 -8.13 0.28 8.13 -0.28 8.13 z" class="primitive"/>
              </g>
              <g transform="translate(39.09,88.33)" id="img-88bf9711-70">
                <path d="M-0.28,-0 L 0.28 -0 0.28 0 -0.28 0 z" class="primitive"/>
              </g>
              <g transform="translate(39.59,80.19)" id="img-88bf9711-71">
                <path d="M-0.28,-8.13 L 0.28 -8.13 0.28 8.13 -0.28 8.13 z" class="primitive"/>
              </g>
              <g transform="translate(40.09,88.33)" id="img-88bf9711-72">
                <path d="M-0.28,-0 L 0.28 -0 0.28 0 -0.28 0 z" class="primitive"/>
              </g>
              <g transform="translate(40.59,72.06)" id="img-88bf9711-73">
                <path d="M-0.28,-16.27 L 0.28 -16.27 0.28 16.27 -0.28 16.27 z" class="primitive"/>
              </g>
              <g transform="translate(41.1,80.19)" id="img-88bf9711-74">
                <path d="M-0.28,-8.13 L 0.28 -8.13 0.28 8.13 -0.28 8.13 z" class="primitive"/>
              </g>
              <g transform="translate(41.6,55.8)" id="img-88bf9711-75">
                <path d="M-0.28,-32.53 L 0.28 -32.53 0.28 32.53 -0.28 32.53 z" class="primitive"/>
              </g>
              <g transform="translate(42.1,80.19)" id="img-88bf9711-76">
                <path d="M-0.28,-8.13 L 0.28 -8.13 0.28 8.13 -0.28 8.13 z" class="primitive"/>
              </g>
              <g transform="translate(42.6,63.93)" id="img-88bf9711-77">
                <path d="M-0.28,-24.4 L 0.28 -24.4 0.28 24.4 -0.28 24.4 z" class="primitive"/>
              </g>
              <g transform="translate(43.11,63.93)" id="img-88bf9711-78">
                <path d="M-0.28,-24.4 L 0.28 -24.4 0.28 24.4 -0.28 24.4 z" class="primitive"/>
              </g>
              <g transform="translate(43.61,72.06)" id="img-88bf9711-79">
                <path d="M-0.28,-16.27 L 0.28 -16.27 0.28 16.27 -0.28 16.27 z" class="primitive"/>
              </g>
              <g transform="translate(44.11,80.19)" id="img-88bf9711-80">
                <path d="M-0.28,-8.13 L 0.28 -8.13 0.28 8.13 -0.28 8.13 z" class="primitive"/>
              </g>
              <g transform="translate(44.61,88.33)" id="img-88bf9711-81">
                <path d="M-0.28,-0 L 0.28 -0 0.28 0 -0.28 0 z" class="primitive"/>
              </g>
              <g transform="translate(45.11,72.06)" id="img-88bf9711-82">
                <path d="M-0.28,-16.27 L 0.28 -16.27 0.28 16.27 -0.28 16.27 z" class="primitive"/>
              </g>
              <g transform="translate(45.62,88.33)" id="img-88bf9711-83">
                <path d="M-0.28,-0 L 0.28 -0 0.28 0 -0.28 0 z" class="primitive"/>
              </g>
              <g transform="translate(46.12,80.19)" id="img-88bf9711-84">
                <path d="M-0.28,-8.13 L 0.28 -8.13 0.28 8.13 -0.28 8.13 z" class="primitive"/>
              </g>
              <g transform="translate(46.62,55.8)" id="img-88bf9711-85">
                <path d="M-0.28,-32.53 L 0.28 -32.53 0.28 32.53 -0.28 32.53 z" class="primitive"/>
              </g>
              <g transform="translate(47.12,80.19)" id="img-88bf9711-86">
                <path d="M-0.28,-8.13 L 0.28 -8.13 0.28 8.13 -0.28 8.13 z" class="primitive"/>
              </g>
              <g transform="translate(47.63,72.06)" id="img-88bf9711-87">
                <path d="M-0.28,-16.27 L 0.28 -16.27 0.28 16.27 -0.28 16.27 z" class="primitive"/>
              </g>
              <g transform="translate(48.13,63.93)" id="img-88bf9711-88">
                <path d="M-0.28,-24.4 L 0.28 -24.4 0.28 24.4 -0.28 24.4 z" class="primitive"/>
              </g>
              <g transform="translate(48.63,72.06)" id="img-88bf9711-89">
                <path d="M-0.28,-16.27 L 0.28 -16.27 0.28 16.27 -0.28 16.27 z" class="primitive"/>
              </g>
              <g transform="translate(49.13,80.19)" id="img-88bf9711-90">
                <path d="M-0.28,-8.13 L 0.28 -8.13 0.28 8.13 -0.28 8.13 z" class="primitive"/>
              </g>
              <g transform="translate(49.64,80.19)" id="img-88bf9711-91">
                <path d="M-0.28,-8.13 L 0.28 -8.13 0.28 8.13 -0.28 8.13 z" class="primitive"/>
              </g>
              <g transform="translate(50.14,63.93)" id="img-88bf9711-92">
                <path d="M-0.28,-24.4 L 0.28 -24.4 0.28 24.4 -0.28 24.4 z" class="primitive"/>
              </g>
              <g transform="translate(50.64,72.06)" id="img-88bf9711-93">
                <path d="M-0.28,-16.27 L 0.28 -16.27 0.28 16.27 -0.28 16.27 z" class="primitive"/>
              </g>
              <g transform="translate(51.14,47.66)" id="img-88bf9711-94">
                <path d="M-0.28,-40.66 L 0.28 -40.66 0.28 40.66 -0.28 40.66 z" class="primitive"/>
              </g>
              <g transform="translate(51.65,80.19)" id="img-88bf9711-95">
                <path d="M-0.28,-8.13 L 0.28 -8.13 0.28 8.13 -0.28 8.13 z" class="primitive"/>
              </g>
              <g transform="translate(52.15,63.93)" id="img-88bf9711-96">
                <path d="M-0.28,-24.4 L 0.28 -24.4 0.28 24.4 -0.28 24.4 z" class="primitive"/>
              </g>
              <g transform="translate(52.65,63.93)" id="img-88bf9711-97">
                <path d="M-0.28,-24.4 L 0.28 -24.4 0.28 24.4 -0.28 24.4 z" class="primitive"/>
              </g>
              <g transform="translate(53.15,80.19)" id="img-88bf9711-98">
                <path d="M-0.28,-8.13 L 0.28 -8.13 0.28 8.13 -0.28 8.13 z" class="primitive"/>
              </g>
              <g transform="translate(53.65,63.93)" id="img-88bf9711-99">
                <path d="M-0.28,-24.4 L 0.28 -24.4 0.28 24.4 -0.28 24.4 z" class="primitive"/>
              </g>
              <g transform="translate(54.16,80.19)" id="img-88bf9711-100">
                <path d="M-0.28,-8.13 L 0.28 -8.13 0.28 8.13 -0.28 8.13 z" class="primitive"/>
              </g>
              <g transform="translate(54.66,80.19)" id="img-88bf9711-101">
                <path d="M-0.28,-8.13 L 0.28 -8.13 0.28 8.13 -0.28 8.13 z" class="primitive"/>
              </g>
              <g transform="translate(55.16,80.19)" id="img-88bf9711-102">
                <path d="M-0.28,-8.13 L 0.28 -8.13 0.28 8.13 -0.28 8.13 z" class="primitive"/>
              </g>
              <g transform="translate(55.66,88.33)" id="img-88bf9711-103">
                <path d="M-0.28,-0 L 0.28 -0 0.28 0 -0.28 0 z" class="primitive"/>
              </g>
              <g transform="translate(56.17,63.93)" id="img-88bf9711-104">
                <path d="M-0.28,-24.4 L 0.28 -24.4 0.28 24.4 -0.28 24.4 z" class="primitive"/>
              </g>
              <g transform="translate(56.67,63.93)" id="img-88bf9711-105">
                <path d="M-0.28,-24.4 L 0.28 -24.4 0.28 24.4 -0.28 24.4 z" class="primitive"/>
              </g>
              <g transform="translate(57.17,80.19)" id="img-88bf9711-106">
                <path d="M-0.28,-8.13 L 0.28 -8.13 0.28 8.13 -0.28 8.13 z" class="primitive"/>
              </g>
              <g transform="translate(57.67,80.19)" id="img-88bf9711-107">
                <path d="M-0.28,-8.13 L 0.28 -8.13 0.28 8.13 -0.28 8.13 z" class="primitive"/>
              </g>
              <g transform="translate(58.18,88.33)" id="img-88bf9711-108">
                <path d="M-0.28,-0 L 0.28 -0 0.28 0 -0.28 0 z" class="primitive"/>
              </g>
              <g transform="translate(58.68,72.06)" id="img-88bf9711-109">
                <path d="M-0.28,-16.27 L 0.28 -16.27 0.28 16.27 -0.28 16.27 z" class="primitive"/>
              </g>
              <g transform="translate(59.18,88.33)" id="img-88bf9711-110">
                <path d="M-0.28,-0 L 0.28 -0 0.28 0 -0.28 0 z" class="primitive"/>
              </g>
              <g transform="translate(59.68,72.06)" id="img-88bf9711-111">
                <path d="M-0.28,-16.27 L 0.28 -16.27 0.28 16.27 -0.28 16.27 z" class="primitive"/>
              </g>
              <g transform="translate(60.19,72.06)" id="img-88bf9711-112">
                <path d="M-0.28,-16.27 L 0.28 -16.27 0.28 16.27 -0.28 16.27 z" class="primitive"/>
              </g>
              <g transform="translate(60.69,88.33)" id="img-88bf9711-113">
                <path d="M-0.28,-0 L 0.28 -0 0.28 0 -0.28 0 z" class="primitive"/>
              </g>
              <g transform="translate(61.19,80.19)" id="img-88bf9711-114">
                <path d="M-0.28,-8.13 L 0.28 -8.13 0.28 8.13 -0.28 8.13 z" class="primitive"/>
              </g>
              <g transform="translate(61.69,88.33)" id="img-88bf9711-115">
                <path d="M-0.28,-0 L 0.28 -0 0.28 0 -0.28 0 z" class="primitive"/>
              </g>
              <g transform="translate(62.2,88.33)" id="img-88bf9711-116">
                <path d="M-0.28,-0 L 0.28 -0 0.28 0 -0.28 0 z" class="primitive"/>
              </g>
              <g transform="translate(62.7,88.33)" id="img-88bf9711-117">
                <path d="M-0.28,-0 L 0.28 -0 0.28 0 -0.28 0 z" class="primitive"/>
              </g>
              <g transform="translate(63.2,80.19)" id="img-88bf9711-118">
                <path d="M-0.28,-8.13 L 0.28 -8.13 0.28 8.13 -0.28 8.13 z" class="primitive"/>
              </g>
              <g transform="translate(63.7,80.19)" id="img-88bf9711-119">
                <path d="M-0.28,-8.13 L 0.28 -8.13 0.28 8.13 -0.28 8.13 z" class="primitive"/>
              </g>
              <g transform="translate(64.2,80.19)" id="img-88bf9711-120">
                <path d="M-0.28,-8.13 L 0.28 -8.13 0.28 8.13 -0.28 8.13 z" class="primitive"/>
              </g>
              <g transform="translate(64.71,80.19)" id="img-88bf9711-121">
                <path d="M-0.28,-8.13 L 0.28 -8.13 0.28 8.13 -0.28 8.13 z" class="primitive"/>
              </g>
              <g transform="translate(65.21,72.06)" id="img-88bf9711-122">
                <path d="M-0.28,-16.27 L 0.28 -16.27 0.28 16.27 -0.28 16.27 z" class="primitive"/>
              </g>
              <g transform="translate(65.71,88.33)" id="img-88bf9711-123">
                <path d="M-0.28,-0 L 0.28 -0 0.28 0 -0.28 0 z" class="primitive"/>
              </g>
              <g transform="translate(66.21,88.33)" id="img-88bf9711-124">
                <path d="M-0.28,-0 L 0.28 -0 0.28 0 -0.28 0 z" class="primitive"/>
              </g>
              <g transform="translate(66.72,88.33)" id="img-88bf9711-125">
                <path d="M-0.28,-0 L 0.28 -0 0.28 0 -0.28 0 z" class="primitive"/>
              </g>
              <g transform="translate(67.22,88.33)" id="img-88bf9711-126">
                <path d="M-0.28,-0 L 0.28 -0 0.28 0 -0.28 0 z" class="primitive"/>
              </g>
              <g transform="translate(67.72,88.33)" id="img-88bf9711-127">
                <path d="M-0.28,-0 L 0.28 -0 0.28 0 -0.28 0 z" class="primitive"/>
              </g>
              <g transform="translate(68.22,80.19)" id="img-88bf9711-128">
                <path d="M-0.28,-8.13 L 0.28 -8.13 0.28 8.13 -0.28 8.13 z" class="primitive"/>
              </g>
              <g transform="translate(68.73,88.33)" id="img-88bf9711-129">
                <path d="M-0.28,-0 L 0.28 -0 0.28 0 -0.28 0 z" class="primitive"/>
              </g>
              <g transform="translate(69.23,80.19)" id="img-88bf9711-130">
                <path d="M-0.28,-8.13 L 0.28 -8.13 0.28 8.13 -0.28 8.13 z" class="primitive"/>
              </g>
              <g transform="translate(69.73,80.19)" id="img-88bf9711-131">
                <path d="M-0.28,-8.13 L 0.28 -8.13 0.28 8.13 -0.28 8.13 z" class="primitive"/>
              </g>
              <g transform="translate(70.23,88.33)" id="img-88bf9711-132">
                <path d="M-0.28,-0 L 0.28 -0 0.28 0 -0.28 0 z" class="primitive"/>
              </g>
            </g>
          </g>
        </g>
      </g>
    </g>
  </g>
  <g class="guide ylabels" font-size="2.82" font-family="'PT Sans Caption','Helvetica Neue','Helvetica',sans-serif" fill="#6C606B" id="img-88bf9711-133">
    <g transform="translate(15.28,88.33)" id="img-88bf9711-134">
      <g class="primitive">
        <text text-anchor="end" dy="0.35em">0</text>
      </g>
    </g>
    <g transform="translate(15.28,72.06)" id="img-88bf9711-135">
      <g class="primitive">
        <text text-anchor="end" dy="0.35em">1</text>
      </g>
    </g>
    <g transform="translate(15.28,55.8)" id="img-88bf9711-136">
      <g class="primitive">
        <text text-anchor="end" dy="0.35em">2</text>
      </g>
    </g>
    <g transform="translate(15.28,39.53)" id="img-88bf9711-137">
      <g class="primitive">
        <text text-anchor="end" dy="0.35em">3</text>
      </g>
    </g>
    <g transform="translate(15.28,23.27)" id="img-88bf9711-138">
      <g class="primitive">
        <text text-anchor="end" dy="0.35em">4</text>
      </g>
    </g>
    <g transform="translate(15.28,7)" id="img-88bf9711-139">
      <g class="primitive">
        <text text-anchor="end" dy="0.35em">5</text>
      </g>
    </g>
  </g>
  <g font-size="3.88" font-family="'PT Sans','Helvetica Neue','Helvetica',sans-serif" fill="#564A55" stroke="#000000" stroke-opacity="0.000" id="img-88bf9711-140">
    <g transform="translate(8.81,45.66)" id="img-88bf9711-141">
      <g class="primitive">
        <text text-anchor="middle" dy="0.35em" transform="rotate(-90,0, 2)">frequency</text>
      </g>
    </g>
  </g>
</g>
<defs>
  <clipPath id="img-88bf9711-11">
    <path d="M16.29,5 L 78.37 5 78.37 90.33 16.29 90.33" />
  </clipPath>
</defs>
</svg>
