<?xml version="1.0" encoding="UTF-8"?>
<svg xmlns="http://www.w3.org/2000/svg"
     xmlns:xlink="http://www.w3.org/1999/xlink"
     xmlns:gadfly="http://www.gadflyjl.org/ns"
     version="1.2"
     width="141.42mm" height="100mm" viewBox="0 0 141.42 100"
     stroke="none"
     fill="#000000"
     stroke-width="0.3"
     font-size="3.88"
>
<defs>
  <marker id="arrow" markerWidth="15" markerHeight="7" refX="5" refY="3.5" orient="auto" markerUnits="strokeWidth">
    <path d="M0,0 L15,3.5 L0,7 z" stroke="context-stroke" fill="context-stroke"/>
  </marker>
</defs>
<g class="plotroot xscalable yscalable" id="img-069824e9-1">
  <g class="guide xlabels" font-size="2.82" font-family="'PT Sans Caption','Helvetica Neue','Helvetica',sans-serif" fill="#6C606B" id="img-069824e9-2">
    <g transform="translate(18.29,91.33)">
      <g class="primitive">
        <text text-anchor="middle" dy="0.6em">7.80</text>
      </g>
    </g>
    <g transform="translate(31.76,91.33)">
      <g class="primitive">
        <text text-anchor="middle" dy="0.6em">7.85</text>
      </g>
    </g>
    <g transform="translate(45.23,91.33)">
      <g class="primitive">
        <text text-anchor="middle" dy="0.6em">7.90</text>
      </g>
    </g>
    <g transform="translate(58.7,91.33)">
      <g class="primitive">
        <text text-anchor="middle" dy="0.6em">7.95</text>
      </g>
    </g>
    <g transform="translate(72.17,91.33)">
      <g class="primitive">
        <text text-anchor="middle" dy="0.6em">8.00</text>
      </g>
    </g>
    <g transform="translate(85.64,91.33)">
      <g class="primitive">
        <text text-anchor="middle" dy="0.6em">8.05</text>
      </g>
    </g>
  </g>
  <g class="guide colorkey" id="img-069824e9-3">
    <g class="color_noncoding_coding_noncoding_3-path" id="img-069824e9-4">
      <g fill="#4C404B" font-size="2.82" font-family="'PT Sans','Helvetica Neue','Helvetica',sans-serif" id="img-069824e9-5">
        <g transform="translate(91.45,49.48)" id="img-069824e9-6">
          <g class="primitive">
            <text dy="0.35em">noncoding_coding_noncoding_3-path</text>
          </g>
        </g>
      </g>
      <g fill-opacity="1" fill="#00BFFF" stroke="#FFFFFF" id="img-069824e9-7">
        <g transform="translate(89.55,49.48)" id="img-069824e9-8">
          <path d="M-0.91,-0.91 L 0.91 -0.91 0.91 0.91 -0.91 0.91 z" class="primitive"/>
        </g>
      </g>
    </g>
    <g fill="#362A35" font-size="3.88" font-family="'PT Sans','Helvetica Neue','Helvetica',sans-serif" stroke="#000000" stroke-opacity="0.000" id="img-069824e9-9">
      <g transform="translate(88.64,45.66)" id="img-069824e9-10">
        <g class="primitive">
          <text dy="-0em">graphlet</text>
        </g>
      </g>
    </g>
  </g>
  <g clip-path="url(#img-069824e9-11)">
    <g id="img-069824e9-12">
      <g pointer-events="visible" stroke-width="0.3" fill="#000000" fill-opacity="0.000" stroke="#000000" stroke-opacity="0.000" class="guide background" id="img-069824e9-13">
        <g transform="translate(51.96,47.66)" id="img-069824e9-14">
          <path d="M-35.68,-42.66 L 35.68 -42.66 35.68 42.66 -35.68 42.66 z" class="primitive"/>
        </g>
      </g>
      <g class="guide ygridlines xfixed" stroke-dasharray="0.5,0.5" stroke-width="0.2" stroke="#D0D0E0" id="img-069824e9-15">
        <g transform="translate(51.96,88.33)" id="img-069824e9-16">
          <path fill="none" d="M-35.68,0 L 35.68 0" class="primitive"/>
        </g>
        <g transform="translate(51.96,72.06)" id="img-069824e9-17">
          <path fill="none" d="M-35.68,0 L 35.68 0" class="primitive"/>
        </g>
        <g transform="translate(51.96,55.8)" id="img-069824e9-18">
          <path fill="none" d="M-35.68,0 L 35.68 0" class="primitive"/>
        </g>
        <g transform="translate(51.96,39.53)" id="img-069824e9-19">
          <path fill="none" d="M-35.68,0 L 35.68 0" class="primitive"/>
        </g>
        <g transform="translate(51.96,23.27)" id="img-069824e9-20">
          <path fill="none" d="M-35.68,0 L 35.68 0" class="primitive"/>
        </g>
        <g transform="translate(51.96,7)" id="img-069824e9-21">
          <path fill="none" d="M-35.68,0 L 35.68 0" class="primitive"/>
        </g>
      </g>
      <g class="guide xgridlines yfixed" stroke-dasharray="0.5,0.5" stroke-width="0.2" stroke="#D0D0E0" id="img-069824e9-22">
        <g transform="translate(18.29,47.66)" id="img-069824e9-23">
          <path fill="none" d="M0,-42.66 L 0 42.66" class="primitive"/>
        </g>
        <g transform="translate(31.76,47.66)" id="img-069824e9-24">
          <path fill="none" d="M0,-42.66 L 0 42.66" class="primitive"/>
        </g>
        <g transform="translate(45.23,47.66)" id="img-069824e9-25">
          <path fill="none" d="M0,-42.66 L 0 42.66" class="primitive"/>
        </g>
        <g transform="translate(58.7,47.66)" id="img-069824e9-26">
          <path fill="none" d="M0,-42.66 L 0 42.66" class="primitive"/>
        </g>
        <g transform="translate(72.17,47.66)" id="img-069824e9-27">
          <path fill="none" d="M0,-42.66 L 0 42.66" class="primitive"/>
        </g>
        <g transform="translate(85.64,47.66)" id="img-069824e9-28">
          <path fill="none" d="M0,-42.66 L 0 42.66" class="primitive"/>
        </g>
      </g>
      <g class="plotpanel" id="img-069824e9-29">
        <metadata>
          <boundingbox value="16.284999999999997mm 5.0mm 71.35635623730948mm 85.32666666666667mm"/>
          <unitbox value="7.7925767955998335 5.122960898434298 0.26484640880033367 -5.245921796868595"/>
        </metadata>
        <g shape-rendering="crispEdges" stroke-width="0.3" id="img-069824e9-30">
          <g stroke="#000000" stroke-opacity="0.000" class="geometry" id="img-069824e9-31">
            <g fill="#00BFFF" id="img-069824e9-32">
              <g transform="translate(25.11,80.19)" id="img-069824e9-33">
                <path d="M-0.26,-8.13 L 0.26 -8.13 0.26 8.13 -0.26 8.13 z" class="primitive"/>
              </g>
              <g transform="translate(25.59,88.33)" id="img-069824e9-34">
                <path d="M-0.26,-0 L 0.26 -0 0.26 0 -0.26 0 z" class="primitive"/>
              </g>
              <g transform="translate(26.07,88.33)" id="img-069824e9-35">
                <path d="M-0.26,-0 L 0.26 -0 0.26 0 -0.26 0 z" class="primitive"/>
              </g>
              <g transform="translate(26.54,88.33)" id="img-069824e9-36">
                <path d="M-0.26,-0 L 0.26 -0 0.26 0 -0.26 0 z" class="primitive"/>
              </g>
              <g transform="translate(27.02,88.33)" id="img-069824e9-37">
                <path d="M-0.26,-0 L 0.26 -0 0.26 0 -0.26 0 z" class="primitive"/>
              </g>
              <g transform="translate(27.5,80.19)" id="img-069824e9-38">
                <path d="M-0.26,-8.13 L 0.26 -8.13 0.26 8.13 -0.26 8.13 z" class="primitive"/>
              </g>
              <g transform="translate(27.98,88.33)" id="img-069824e9-39">
                <path d="M-0.26,-0 L 0.26 -0 0.26 0 -0.26 0 z" class="primitive"/>
              </g>
              <g transform="translate(28.46,88.33)" id="img-069824e9-40">
                <path d="M-0.26,-0 L 0.26 -0 0.26 0 -0.26 0 z" class="primitive"/>
              </g>
              <g transform="translate(28.93,88.33)" id="img-069824e9-41">
                <path d="M-0.26,-0 L 0.26 -0 0.26 0 -0.26 0 z" class="primitive"/>
              </g>
              <g transform="translate(29.41,88.33)" id="img-069824e9-42">
                <path d="M-0.26,-0 L 0.26 -0 0.26 0 -0.26 0 z" class="primitive"/>
              </g>
              <g transform="translate(29.89,88.33)" id="img-069824e9-43">
                <path d="M-0.26,-0 L 0.26 -0 0.26 0 -0.26 0 z" class="primitive"/>
              </g>
              <g transform="translate(30.37,55.8)" id="img-069824e9-44">
                <path d="M-0.26,-32.53 L 0.26 -32.53 0.26 32.53 -0.26 32.53 z" class="primitive"/>
              </g>
              <g transform="translate(30.85,88.33)" id="img-069824e9-45">
                <path d="M-0.26,-0 L 0.26 -0 0.26 0 -0.26 0 z" class="primitive"/>
              </g>
              <g transform="translate(31.32,80.19)" id="img-069824e9-46">
                <path d="M-0.26,-8.13 L 0.26 -8.13 0.26 8.13 -0.26 8.13 z" class="primitive"/>
              </g>
              <g transform="translate(31.8,80.19)" id="img-069824e9-47">
                <path d="M-0.26,-8.13 L 0.26 -8.13 0.26 8.13 -0.26 8.13 z" class="primitive"/>
              </g>
              <g transform="translate(32.28,80.19)" id="img-069824e9-48">
                <path d="M-0.26,-8.13 L 0.26 -8.13 0.26 8.13 -0.26 8.13 z" class="primitive"/>
              </g>
              <g transform="translate(32.76,88.33)" id="img-069824e9-49">
                <path d="M-0.26,-0 L 0.26 -0 0.26 0 -0.26 0 z" class="primitive"/>
              </g>
              <g transform="translate(33.24,88.33)" id="img-069824e9-50">
                <path d="M-0.26,-0 L 0.26 -0 0.26 0 -0.26 0 z" class="primitive"/>
              </g>
              <g transform="translate(33.71,80.19)" id="img-069824e9-51">
                <path d="M-0.26,-8.13 L 0.26 -8.13 0.26 8.13 -0.26 8.13 z" class="primitive"/>
              </g>
              <g transform="translate(34.19,88.33)" id="img-069824e9-52">
                <path d="M-0.26,-0 L 0.26 -0 0.26 0 -0.26 0 z" class="primitive"/>
              </g>
              <g transform="translate(34.67,88.33)" id="img-069824e9-53">
                <path d="M-0.26,-0 L 0.26 -0 0.26 0 -0.26 0 z" class="primitive"/>
              </g>
              <g transform="translate(35.15,72.06)" id="img-069824e9-54">
                <path d="M-0.26,-16.27 L 0.26 -16.27 0.26 16.27 -0.26 16.27 z" class="primitive"/>
              </g>
              <g transform="translate(35.63,88.33)" id="img-069824e9-55">
                <path d="M-0.26,-0 L 0.26 -0 0.26 0 -0.26 0 z" class="primitive"/>
              </g>
              <g transform="translate(36.1,80.19)" id="img-069824e9-56">
                <path d="M-0.26,-8.13 L 0.26 -8.13 0.26 8.13 -0.26 8.13 z" class="primitive"/>
              </g>
              <g transform="translate(36.58,80.19)" id="img-069824e9-57">
                <path d="M-0.26,-8.13 L 0.26 -8.13 0.26 8.13 -0.26 8.13 z" class="primitive"/>
              </g>
              <g transform="translate(37.06,80.19)" id="img-069824e9-58">
                <path d="M-0.26,-8.13 L 0.26 -8.13 0.26 8.13 -0.26 8.13 z" class="primitive"/>
              </g>
              <g transform="translate(37.54,80.19)" id="img-069824e9-59">
                <path d="M-0.26,-8.13 L 0.26 -8.13 0.26 8.13 -0.26 8.13 z" class="primitive"/>
              </g>
              <g transform="translate(38.02,80.19)" id="img-069824e9-60">
                <path d="M-0.26,-8.13 L 0.26 -8.13 0.26 8.13 -0.26 8.13 z" class="primitive"/>
              </g>
              <g transform="translate(38.49,88.33)" id="img-069824e9-61">
                <path d="M-0.26,-0 L 0.26 -0 0.26 0 -0.26 0 z" class="primitive"/>
              </g>
              <g transform="translate(38.97,80.19)" id="img-069824e9-62">
                <path d="M-0.26,-8.13 L 0.26 -8.13 0.26 8.13 -0.26 8.13 z" class="primitive"/>
              </g>
              <g transform="translate(39.45,88.33)" id="img-069824e9-63">
                <path d="M-0.26,-0 L 0.26 -0 0.26 0 -0.26 0 z" class="primitive"/>
              </g>
              <g transform="translate(39.93,72.06)" id="img-069824e9-64">
                <path d="M-0.26,-16.27 L 0.26 -16.27 0.26 16.27 -0.26 16.27 z" class="primitive"/>
              </g>
              <g transform="translate(40.41,80.19)" id="img-069824e9-65">
                <path d="M-0.26,-8.13 L 0.26 -8.13 0.26 8.13 -0.26 8.13 z" class="primitive"/>
              </g>
              <g transform="translate(40.88,72.06)" id="img-069824e9-66">
                <path d="M-0.26,-16.27 L 0.26 -16.27 0.26 16.27 -0.26 16.27 z" class="primitive"/>
              </g>
              <g transform="translate(41.36,72.06)" id="img-069824e9-67">
                <path d="M-0.26,-16.27 L 0.26 -16.27 0.26 16.27 -0.26 16.27 z" class="primitive"/>
              </g>
              <g transform="translate(41.84,88.33)" id="img-069824e9-68">
                <path d="M-0.26,-0 L 0.26 -0 0.26 0 -0.26 0 z" class="primitive"/>
              </g>
              <g transform="translate(42.32,55.8)" id="img-069824e9-69">
                <path d="M-0.26,-32.53 L 0.26 -32.53 0.26 32.53 -0.26 32.53 z" class="primitive"/>
              </g>
              <g transform="translate(42.79,80.19)" id="img-069824e9-70">
                <path d="M-0.26,-8.13 L 0.26 -8.13 0.26 8.13 -0.26 8.13 z" class="primitive"/>
              </g>
              <g transform="translate(43.27,80.19)" id="img-069824e9-71">
                <path d="M-0.26,-8.13 L 0.26 -8.13 0.26 8.13 -0.26 8.13 z" class="primitive"/>
              </g>
              <g transform="translate(43.75,63.93)" id="img-069824e9-72">
                <path d="M-0.26,-24.4 L 0.26 -24.4 0.26 24.4 -0.26 24.4 z" class="primitive"/>
              </g>
              <g transform="translate(44.23,72.06)" id="img-069824e9-73">
                <path d="M-0.26,-16.27 L 0.26 -16.27 0.26 16.27 -0.26 16.27 z" class="primitive"/>
              </g>
              <g transform="translate(44.71,55.8)" id="img-069824e9-74">
                <path d="M-0.26,-32.53 L 0.26 -32.53 0.26 32.53 -0.26 32.53 z" class="primitive"/>
              </g>
              <g transform="translate(45.18,55.8)" id="img-069824e9-75">
                <path d="M-0.26,-32.53 L 0.26 -32.53 0.26 32.53 -0.26 32.53 z" class="primitive"/>
              </g>
              <g transform="translate(45.66,47.66)" id="img-069824e9-76">
                <path d="M-0.26,-40.66 L 0.26 -40.66 0.26 40.66 -0.26 40.66 z" class="primitive"/>
              </g>
              <g transform="translate(46.14,88.33)" id="img-069824e9-77">
                <path d="M-0.26,-0 L 0.26 -0 0.26 0 -0.26 0 z" class="primitive"/>
              </g>
              <g transform="translate(46.62,72.06)" id="img-069824e9-78">
                <path d="M-0.26,-16.27 L 0.26 -16.27 0.26 16.27 -0.26 16.27 z" class="primitive"/>
              </g>
              <g transform="translate(47.1,63.93)" id="img-069824e9-79">
                <path d="M-0.26,-24.4 L 0.26 -24.4 0.26 24.4 -0.26 24.4 z" class="primitive"/>
              </g>
              <g transform="translate(47.57,55.8)" id="img-069824e9-80">
                <path d="M-0.26,-32.53 L 0.26 -32.53 0.26 32.53 -0.26 32.53 z" class="primitive"/>
              </g>
              <g transform="translate(48.05,80.19)" id="img-069824e9-81">
                <path d="M-0.26,-8.13 L 0.26 -8.13 0.26 8.13 -0.26 8.13 z" class="primitive"/>
              </g>
              <g transform="translate(48.53,72.06)" id="img-069824e9-82">
                <path d="M-0.26,-16.27 L 0.26 -16.27 0.26 16.27 -0.26 16.27 z" class="primitive"/>
              </g>
              <g transform="translate(49.01,80.19)" id="img-069824e9-83">
                <path d="M-0.26,-8.13 L 0.26 -8.13 0.26 8.13 -0.26 8.13 z" class="primitive"/>
              </g>
              <g transform="translate(49.49,80.19)" id="img-069824e9-84">
                <path d="M-0.26,-8.13 L 0.26 -8.13 0.26 8.13 -0.26 8.13 z" class="primitive"/>
              </g>
              <g transform="translate(49.96,63.93)" id="img-069824e9-85">
                <path d="M-0.26,-24.4 L 0.26 -24.4 0.26 24.4 -0.26 24.4 z" class="primitive"/>
              </g>
              <g transform="translate(50.44,80.19)" id="img-069824e9-86">
                <path d="M-0.26,-8.13 L 0.26 -8.13 0.26 8.13 -0.26 8.13 z" class="primitive"/>
              </g>
              <g transform="translate(50.92,55.8)" id="img-069824e9-87">
                <path d="M-0.26,-32.53 L 0.26 -32.53 0.26 32.53 -0.26 32.53 z" class="primitive"/>
              </g>
              <g transform="translate(51.4,80.19)" id="img-069824e9-88">
                <path d="M-0.26,-8.13 L 0.26 -8.13 0.26 8.13 -0.26 8.13 z" class="primitive"/>
              </g>
              <g transform="translate(51.88,80.19)" id="img-069824e9-89">
                <path d="M-0.26,-8.13 L 0.26 -8.13 0.26 8.13 -0.26 8.13 z" class="primitive"/>
              </g>
              <g transform="translate(52.35,88.33)" id="img-069824e9-90">
                <path d="M-0.26,-0 L 0.26 -0 0.26 0 -0.26 0 z" class="primitive"/>
              </g>
              <g transform="translate(52.83,80.19)" id="img-069824e9-91">
                <path d="M-0.26,-8.13 L 0.26 -8.13 0.26 8.13 -0.26 8.13 z" class="primitive"/>
              </g>
              <g transform="translate(53.31,55.8)" id="img-069824e9-92">
                <path d="M-0.26,-32.53 L 0.26 -32.53 0.26 32.53 -0.26 32.53 z" class="primitive"/>
              </g>
              <g transform="translate(53.79,88.33)" id="img-069824e9-93">
                <path d="M-0.26,-0 L 0.26 -0 0.26 0 -0.26 0 z" class="primitive"/>
              </g>
              <g transform="translate(54.27,80.19)" id="img-069824e9-94">
                <path d="M-0.26,-8.13 L 0.26 -8.13 0.26 8.13 -0.26 8.13 z" class="primitive"/>
              </g>
              <g transform="translate(54.74,55.8)" id="img-069824e9-95">
                <path d="M-0.26,-32.53 L 0.26 -32.53 0.26 32.53 -0.26 32.53 z" class="primitive"/>
              </g>
              <g transform="translate(55.22,72.06)" id="img-069824e9-96">
                <path d="M-0.26,-16.27 L 0.26 -16.27 0.26 16.27 -0.26 16.27 z" class="primitive"/>
              </g>
              <g transform="translate(55.7,80.19)" id="img-069824e9-97">
                <path d="M-0.26,-8.13 L 0.26 -8.13 0.26 8.13 -0.26 8.13 z" class="primitive"/>
              </g>
              <g transform="translate(56.18,72.06)" id="img-069824e9-98">
                <path d="M-0.26,-16.27 L 0.26 -16.27 0.26 16.27 -0.26 16.27 z" class="primitive"/>
              </g>
              <g transform="translate(56.66,80.19)" id="img-069824e9-99">
                <path d="M-0.26,-8.13 L 0.26 -8.13 0.26 8.13 -0.26 8.13 z" class="primitive"/>
              </g>
              <g transform="translate(57.13,55.8)" id="img-069824e9-100">
                <path d="M-0.26,-32.53 L 0.26 -32.53 0.26 32.53 -0.26 32.53 z" class="primitive"/>
              </g>
              <g transform="translate(57.61,88.33)" id="img-069824e9-101">
                <path d="M-0.26,-0 L 0.26 -0 0.26 0 -0.26 0 z" class="primitive"/>
              </g>
              <g transform="translate(58.09,88.33)" id="img-069824e9-102">
                <path d="M-0.26,-0 L 0.26 -0 0.26 0 -0.26 0 z" class="primitive"/>
              </g>
              <g transform="translate(58.57,72.06)" id="img-069824e9-103">
                <path d="M-0.26,-16.27 L 0.26 -16.27 0.26 16.27 -0.26 16.27 z" class="primitive"/>
              </g>
              <g transform="translate(59.05,80.19)" id="img-069824e9-104">
                <path d="M-0.26,-8.13 L 0.26 -8.13 0.26 8.13 -0.26 8.13 z" class="primitive"/>
              </g>
              <g transform="translate(59.52,80.19)" id="img-069824e9-105">
                <path d="M-0.26,-8.13 L 0.26 -8.13 0.26 8.13 -0.26 8.13 z" class="primitive"/>
              </g>
              <g transform="translate(60,88.33)" id="img-069824e9-106">
                <path d="M-0.26,-0 L 0.26 -0 0.26 0 -0.26 0 z" class="primitive"/>
              </g>
              <g transform="translate(60.48,80.19)" id="img-069824e9-107">
                <path d="M-0.26,-8.13 L 0.26 -8.13 0.26 8.13 -0.26 8.13 z" class="primitive"/>
              </g>
              <g transform="translate(60.96,88.33)" id="img-069824e9-108">
                <path d="M-0.26,-0 L 0.26 -0 0.26 0 -0.26 0 z" class="primitive"/>
              </g>
              <g transform="translate(61.44,88.33)" id="img-069824e9-109">
                <path d="M-0.26,-0 L 0.26 -0 0.26 0 -0.26 0 z" class="primitive"/>
              </g>
              <g transform="translate(61.91,88.33)" id="img-069824e9-110">
                <path d="M-0.26,-0 L 0.26 -0 0.26 0 -0.26 0 z" class="primitive"/>
              </g>
              <g transform="translate(62.39,88.33)" id="img-069824e9-111">
                <path d="M-0.26,-0 L 0.26 -0 0.26 0 -0.26 0 z" class="primitive"/>
              </g>
              <g transform="translate(62.87,88.33)" id="img-069824e9-112">
                <path d="M-0.26,-0 L 0.26 -0 0.26 0 -0.26 0 z" class="primitive"/>
              </g>
              <g transform="translate(63.35,88.33)" id="img-069824e9-113">
                <path d="M-0.26,-0 L 0.26 -0 0.26 0 -0.26 0 z" class="primitive"/>
              </g>
              <g transform="translate(63.83,88.33)" id="img-069824e9-114">
                <path d="M-0.26,-0 L 0.26 -0 0.26 0 -0.26 0 z" class="primitive"/>
              </g>
              <g transform="translate(64.3,80.19)" id="img-069824e9-115">
                <path d="M-0.26,-8.13 L 0.26 -8.13 0.26 8.13 -0.26 8.13 z" class="primitive"/>
              </g>
              <g transform="translate(64.78,88.33)" id="img-069824e9-116">
                <path d="M-0.26,-0 L 0.26 -0 0.26 0 -0.26 0 z" class="primitive"/>
              </g>
              <g transform="translate(65.26,88.33)" id="img-069824e9-117">
                <path d="M-0.26,-0 L 0.26 -0 0.26 0 -0.26 0 z" class="primitive"/>
              </g>
              <g transform="translate(65.74,88.33)" id="img-069824e9-118">
                <path d="M-0.26,-0 L 0.26 -0 0.26 0 -0.26 0 z" class="primitive"/>
              </g>
              <g transform="translate(66.21,88.33)" id="img-069824e9-119">
                <path d="M-0.26,-0 L 0.26 -0 0.26 0 -0.26 0 z" class="primitive"/>
              </g>
              <g transform="translate(66.69,88.33)" id="img-069824e9-120">
                <path d="M-0.26,-0 L 0.26 -0 0.26 0 -0.26 0 z" class="primitive"/>
              </g>
              <g transform="translate(67.17,88.33)" id="img-069824e9-121">
                <path d="M-0.26,-0 L 0.26 -0 0.26 0 -0.26 0 z" class="primitive"/>
              </g>
              <g transform="translate(67.65,88.33)" id="img-069824e9-122">
                <path d="M-0.26,-0 L 0.26 -0 0.26 0 -0.26 0 z" class="primitive"/>
              </g>
              <g transform="translate(68.13,80.19)" id="img-069824e9-123">
                <path d="M-0.26,-8.13 L 0.26 -8.13 0.26 8.13 -0.26 8.13 z" class="primitive"/>
              </g>
              <g transform="translate(68.6,88.33)" id="img-069824e9-124">
                <path d="M-0.26,-0 L 0.26 -0 0.26 0 -0.26 0 z" class="primitive"/>
              </g>
              <g transform="translate(69.08,88.33)" id="img-069824e9-125">
                <path d="M-0.26,-0 L 0.26 -0 0.26 0 -0.26 0 z" class="primitive"/>
              </g>
              <g transform="translate(69.56,88.33)" id="img-069824e9-126">
                <path d="M-0.26,-0 L 0.26 -0 0.26 0 -0.26 0 z" class="primitive"/>
              </g>
              <g transform="translate(70.04,88.33)" id="img-069824e9-127">
                <path d="M-0.26,-0 L 0.26 -0 0.26 0 -0.26 0 z" class="primitive"/>
              </g>
              <g transform="translate(70.52,88.33)" id="img-069824e9-128">
                <path d="M-0.26,-0 L 0.26 -0 0.26 0 -0.26 0 z" class="primitive"/>
              </g>
              <g transform="translate(70.99,88.33)" id="img-069824e9-129">
                <path d="M-0.26,-0 L 0.26 -0 0.26 0 -0.26 0 z" class="primitive"/>
              </g>
              <g transform="translate(71.47,88.33)" id="img-069824e9-130">
                <path d="M-0.26,-0 L 0.26 -0 0.26 0 -0.26 0 z" class="primitive"/>
              </g>
              <g transform="translate(71.95,88.33)" id="img-069824e9-131">
                <path d="M-0.26,-0 L 0.26 -0 0.26 0 -0.26 0 z" class="primitive"/>
              </g>
              <g transform="translate(72.43,88.33)" id="img-069824e9-132">
                <path d="M-0.26,-0 L 0.26 -0 0.26 0 -0.26 0 z" class="primitive"/>
              </g>
            </g>
          </g>
        </g>
      </g>
    </g>
  </g>
  <g class="guide ylabels" font-size="2.82" font-family="'PT Sans Caption','Helvetica Neue','Helvetica',sans-serif" fill="#6C606B" id="img-069824e9-133">
    <g transform="translate(15.28,88.33)" id="img-069824e9-134">
      <g class="primitive">
        <text text-anchor="end" dy="0.35em">0</text>
      </g>
    </g>
    <g transform="translate(15.28,72.06)" id="img-069824e9-135">
      <g class="primitive">
        <text text-anchor="end" dy="0.35em">1</text>
      </g>
    </g>
    <g transform="translate(15.28,55.8)" id="img-069824e9-136">
      <g class="primitive">
        <text text-anchor="end" dy="0.35em">2</text>
      </g>
    </g>
    <g transform="translate(15.28,39.53)" id="img-069824e9-137">
      <g class="primitive">
        <text text-anchor="end" dy="0.35em">3</text>
      </g>
    </g>
    <g transform="translate(15.28,23.27)" id="img-069824e9-138">
      <g class="primitive">
        <text text-anchor="end" dy="0.35em">4</text>
      </g>
    </g>
    <g transform="translate(15.28,7)" id="img-069824e9-139">
      <g class="primitive">
        <text text-anchor="end" dy="0.35em">5</text>
      </g>
    </g>
  </g>
  <g font-size="3.88" font-family="'PT Sans','Helvetica Neue','Helvetica',sans-serif" fill="#564A55" stroke="#000000" stroke-opacity="0.000" id="img-069824e9-140">
    <g transform="translate(8.81,45.66)" id="img-069824e9-141">
      <g class="primitive">
        <text text-anchor="middle" dy="0.35em" transform="rotate(-90,0, 2)">frequency</text>
      </g>
    </g>
  </g>
</g>
<defs>
  <clipPath id="img-069824e9-11">
    <path d="M16.28,5 L 87.64 5 87.64 90.33 16.28 90.33" />
  </clipPath>
</defs>
</svg>
