<?xml version="1.0" encoding="UTF-8"?>
<svg xmlns="http://www.w3.org/2000/svg"
     xmlns:xlink="http://www.w3.org/1999/xlink"
     xmlns:gadfly="http://www.gadflyjl.org/ns"
     version="1.2"
     width="141.42mm" height="100mm" viewBox="0 0 141.42 100"
     stroke="none"
     fill="#000000"
     stroke-width="0.3"
     font-size="3.88"
>
<defs>
  <marker id="arrow" markerWidth="15" markerHeight="7" refX="5" refY="3.5" orient="auto" markerUnits="strokeWidth">
    <path d="M0,0 L15,3.5 L0,7 z" stroke="context-stroke" fill="context-stroke"/>
  </marker>
</defs>
<g class="plotroot xscalable yscalable" id="img-f1aa0912-1">
  <g class="guide xlabels" font-size="2.82" font-family="'PT Sans Caption','Helvetica Neue','Helvetica',sans-serif" fill="#6C606B" id="img-f1aa0912-2">
    <g transform="translate(19.96,91.33)">
      <g class="primitive">
        <text text-anchor="middle" dy="0.6em">0</text>
      </g>
    </g>
    <g transform="translate(31.42,91.33)">
      <g class="primitive">
        <text text-anchor="middle" dy="0.6em">2</text>
      </g>
    </g>
    <g transform="translate(42.88,91.33)">
      <g class="primitive">
        <text text-anchor="middle" dy="0.6em">4</text>
      </g>
    </g>
    <g transform="translate(54.35,91.33)">
      <g class="primitive">
        <text text-anchor="middle" dy="0.6em">6</text>
      </g>
    </g>
    <g transform="translate(65.81,91.33)">
      <g class="primitive">
        <text text-anchor="middle" dy="0.6em">8</text>
      </g>
    </g>
  </g>
  <g class="guide colorkey" id="img-f1aa0912-3">
    <g class="color_noncoding_noncoding_noncoding_noncoding_4-chord" id="img-f1aa0912-4">
      <g fill="#4C404B" font-size="2.82" font-family="'PT Sans','Helvetica Neue','Helvetica',sans-serif" id="img-f1aa0912-5">
        <g transform="translate(71.62,49.48)" id="img-f1aa0912-6">
          <g class="primitive">
            <text dy="0.35em">noncoding_noncoding_noncoding_noncoding_4-chord</text>
          </g>
        </g>
      </g>
      <g fill-opacity="1" fill="#00BFFF" stroke="#FFFFFF" id="img-f1aa0912-7">
        <g transform="translate(69.71,49.48)" id="img-f1aa0912-8">
          <path d="M-0.91,-0.91 L 0.91 -0.91 0.91 0.91 -0.91 0.91 z" class="primitive"/>
        </g>
      </g>
    </g>
    <g fill="#362A35" font-size="3.88" font-family="'PT Sans','Helvetica Neue','Helvetica',sans-serif" stroke="#000000" stroke-opacity="0.000" id="img-f1aa0912-9">
      <g transform="translate(68.81,45.66)" id="img-f1aa0912-10">
        <g class="primitive">
          <text dy="-0em">graphlet</text>
        </g>
      </g>
    </g>
  </g>
  <g clip-path="url(#img-f1aa0912-11)">
    <g id="img-f1aa0912-12">
      <g pointer-events="visible" stroke-width="0.3" fill="#000000" fill-opacity="0.000" stroke="#000000" stroke-opacity="0.000" class="guide background" id="img-f1aa0912-13">
        <g transform="translate(42.88,47.66)" id="img-f1aa0912-14">
          <path d="M-24.92,-42.66 L 24.92 -42.66 24.92 42.66 -24.92 42.66 z" class="primitive"/>
        </g>
      </g>
      <g class="guide ygridlines xfixed" stroke-dasharray="0.5,0.5" stroke-width="0.2" stroke="#D0D0E0" id="img-f1aa0912-15">
        <g transform="translate(42.88,88.33)" id="img-f1aa0912-16">
          <path fill="none" d="M-24.92,0 L 24.92 0" class="primitive"/>
        </g>
        <g transform="translate(42.88,72.06)" id="img-f1aa0912-17">
          <path fill="none" d="M-24.92,0 L 24.92 0" class="primitive"/>
        </g>
        <g transform="translate(42.88,55.8)" id="img-f1aa0912-18">
          <path fill="none" d="M-24.92,0 L 24.92 0" class="primitive"/>
        </g>
        <g transform="translate(42.88,39.53)" id="img-f1aa0912-19">
          <path fill="none" d="M-24.92,0 L 24.92 0" class="primitive"/>
        </g>
        <g transform="translate(42.88,23.27)" id="img-f1aa0912-20">
          <path fill="none" d="M-24.92,0 L 24.92 0" class="primitive"/>
        </g>
        <g transform="translate(42.88,7)" id="img-f1aa0912-21">
          <path fill="none" d="M-24.92,0 L 24.92 0" class="primitive"/>
        </g>
      </g>
      <g class="guide xgridlines yfixed" stroke-dasharray="0.5,0.5" stroke-width="0.2" stroke="#D0D0E0" id="img-f1aa0912-22">
        <g transform="translate(19.96,47.66)" id="img-f1aa0912-23">
          <path fill="none" d="M0,-42.66 L 0 42.66" class="primitive"/>
        </g>
        <g transform="translate(31.42,47.66)" id="img-f1aa0912-24">
          <path fill="none" d="M0,-42.66 L 0 42.66" class="primitive"/>
        </g>
        <g transform="translate(42.88,47.66)" id="img-f1aa0912-25">
          <path fill="none" d="M0,-42.66 L 0 42.66" class="primitive"/>
        </g>
        <g transform="translate(54.35,47.66)" id="img-f1aa0912-26">
          <path fill="none" d="M0,-42.66 L 0 42.66" class="primitive"/>
        </g>
        <g transform="translate(65.81,47.66)" id="img-f1aa0912-27">
          <path fill="none" d="M0,-42.66 L 0 42.66" class="primitive"/>
        </g>
      </g>
      <g class="plotpanel" id="img-f1aa0912-28">
        <metadata>
          <boundingbox value="17.95833333333333mm 5.0mm 49.849689570642845mm 85.32666666666667mm"/>
          <unitbox value="-0.34896637577770334 51.22960898434298 8.697932751555406 -52.459217968685955"/>
        </metadata>
        <g shape-rendering="crispEdges" stroke-width="0.3" id="img-f1aa0912-29">
          <g stroke="#000000" stroke-opacity="0.000" class="geometry" id="img-f1aa0912-30">
            <g fill="#00BFFF" id="img-f1aa0912-31">
              <g transform="translate(28.04,87.51)" id="img-f1aa0912-32">
                <path d="M-0.17,-0.81 L 0.17 -0.81 0.17 0.81 -0.17 0.81 z" class="primitive"/>
              </g>
              <g transform="translate(28.32,88.33)" id="img-f1aa0912-33">
                <path d="M-0.17,-0 L 0.17 -0 0.17 0 -0.17 0 z" class="primitive"/>
              </g>
              <g transform="translate(28.61,88.33)" id="img-f1aa0912-34">
                <path d="M-0.17,-0 L 0.17 -0 0.17 0 -0.17 0 z" class="primitive"/>
              </g>
              <g transform="translate(28.89,88.33)" id="img-f1aa0912-35">
                <path d="M-0.17,-0 L 0.17 -0 0.17 0 -0.17 0 z" class="primitive"/>
              </g>
              <g transform="translate(29.17,88.33)" id="img-f1aa0912-36">
                <path d="M-0.17,-0 L 0.17 -0 0.17 0 -0.17 0 z" class="primitive"/>
              </g>
              <g transform="translate(29.45,88.33)" id="img-f1aa0912-37">
                <path d="M-0.17,-0 L 0.17 -0 0.17 0 -0.17 0 z" class="primitive"/>
              </g>
              <g transform="translate(29.73,88.33)" id="img-f1aa0912-38">
                <path d="M-0.17,-0 L 0.17 -0 0.17 0 -0.17 0 z" class="primitive"/>
              </g>
              <g transform="translate(30.01,88.33)" id="img-f1aa0912-39">
                <path d="M-0.17,-0 L 0.17 -0 0.17 0 -0.17 0 z" class="primitive"/>
              </g>
              <g transform="translate(30.29,88.33)" id="img-f1aa0912-40">
                <path d="M-0.17,-0 L 0.17 -0 0.17 0 -0.17 0 z" class="primitive"/>
              </g>
              <g transform="translate(30.57,88.33)" id="img-f1aa0912-41">
                <path d="M-0.17,-0 L 0.17 -0 0.17 0 -0.17 0 z" class="primitive"/>
              </g>
              <g transform="translate(30.85,88.33)" id="img-f1aa0912-42">
                <path d="M-0.17,-0 L 0.17 -0 0.17 0 -0.17 0 z" class="primitive"/>
              </g>
              <g transform="translate(31.13,86.7)" id="img-f1aa0912-43">
                <path d="M-0.17,-1.63 L 0.17 -1.63 0.17 1.63 -0.17 1.63 z" class="primitive"/>
              </g>
              <g transform="translate(31.41,88.33)" id="img-f1aa0912-44">
                <path d="M-0.17,-0 L 0.17 -0 0.17 0 -0.17 0 z" class="primitive"/>
              </g>
              <g transform="translate(31.7,88.33)" id="img-f1aa0912-45">
                <path d="M-0.17,-0 L 0.17 -0 0.17 0 -0.17 0 z" class="primitive"/>
              </g>
              <g transform="translate(31.98,87.51)" id="img-f1aa0912-46">
                <path d="M-0.17,-0.81 L 0.17 -0.81 0.17 0.81 -0.17 0.81 z" class="primitive"/>
              </g>
              <g transform="translate(32.26,88.33)" id="img-f1aa0912-47">
                <path d="M-0.17,-0 L 0.17 -0 0.17 0 -0.17 0 z" class="primitive"/>
              </g>
              <g transform="translate(32.54,86.7)" id="img-f1aa0912-48">
                <path d="M-0.17,-1.63 L 0.17 -1.63 0.17 1.63 -0.17 1.63 z" class="primitive"/>
              </g>
              <g transform="translate(32.82,88.33)" id="img-f1aa0912-49">
                <path d="M-0.17,-0 L 0.17 -0 0.17 0 -0.17 0 z" class="primitive"/>
              </g>
              <g transform="translate(33.1,87.51)" id="img-f1aa0912-50">
                <path d="M-0.17,-0.81 L 0.17 -0.81 0.17 0.81 -0.17 0.81 z" class="primitive"/>
              </g>
              <g transform="translate(33.38,88.33)" id="img-f1aa0912-51">
                <path d="M-0.17,-0 L 0.17 -0 0.17 0 -0.17 0 z" class="primitive"/>
              </g>
              <g transform="translate(33.66,86.7)" id="img-f1aa0912-52">
                <path d="M-0.17,-1.63 L 0.17 -1.63 0.17 1.63 -0.17 1.63 z" class="primitive"/>
              </g>
              <g transform="translate(33.94,88.33)" id="img-f1aa0912-53">
                <path d="M-0.17,-0 L 0.17 -0 0.17 0 -0.17 0 z" class="primitive"/>
              </g>
              <g transform="translate(34.22,86.7)" id="img-f1aa0912-54">
                <path d="M-0.17,-1.63 L 0.17 -1.63 0.17 1.63 -0.17 1.63 z" class="primitive"/>
              </g>
              <g transform="translate(34.51,88.33)" id="img-f1aa0912-55">
                <path d="M-0.17,-0 L 0.17 -0 0.17 0 -0.17 0 z" class="primitive"/>
              </g>
              <g transform="translate(34.79,86.7)" id="img-f1aa0912-56">
                <path d="M-0.17,-1.63 L 0.17 -1.63 0.17 1.63 -0.17 1.63 z" class="primitive"/>
              </g>
              <g transform="translate(35.07,84.26)" id="img-f1aa0912-57">
                <path d="M-0.17,-4.07 L 0.17 -4.07 0.17 4.07 -0.17 4.07 z" class="primitive"/>
              </g>
              <g transform="translate(35.35,85.07)" id="img-f1aa0912-58">
                <path d="M-0.17,-3.25 L 0.17 -3.25 0.17 3.25 -0.17 3.25 z" class="primitive"/>
              </g>
              <g transform="translate(35.63,88.33)" id="img-f1aa0912-59">
                <path d="M-0.17,-0 L 0.17 -0 0.17 0 -0.17 0 z" class="primitive"/>
              </g>
              <g transform="translate(35.91,86.7)" id="img-f1aa0912-60">
                <path d="M-0.17,-1.63 L 0.17 -1.63 0.17 1.63 -0.17 1.63 z" class="primitive"/>
              </g>
              <g transform="translate(36.19,85.89)" id="img-f1aa0912-61">
                <path d="M-0.17,-2.44 L 0.17 -2.44 0.17 2.44 -0.17 2.44 z" class="primitive"/>
              </g>
              <g transform="translate(36.47,85.07)" id="img-f1aa0912-62">
                <path d="M-0.17,-3.25 L 0.17 -3.25 0.17 3.25 -0.17 3.25 z" class="primitive"/>
              </g>
              <g transform="translate(36.75,82.63)" id="img-f1aa0912-63">
                <path d="M-0.17,-5.69 L 0.17 -5.69 0.17 5.69 -0.17 5.69 z" class="primitive"/>
              </g>
              <g transform="translate(37.03,85.07)" id="img-f1aa0912-64">
                <path d="M-0.17,-3.25 L 0.17 -3.25 0.17 3.25 -0.17 3.25 z" class="primitive"/>
              </g>
              <g transform="translate(37.31,84.26)" id="img-f1aa0912-65">
                <path d="M-0.17,-4.07 L 0.17 -4.07 0.17 4.07 -0.17 4.07 z" class="primitive"/>
              </g>
              <g transform="translate(37.6,81.01)" id="img-f1aa0912-66">
                <path d="M-0.17,-7.32 L 0.17 -7.32 0.17 7.32 -0.17 7.32 z" class="primitive"/>
              </g>
              <g transform="translate(37.88,78.57)" id="img-f1aa0912-67">
                <path d="M-0.17,-9.76 L 0.17 -9.76 0.17 9.76 -0.17 9.76 z" class="primitive"/>
              </g>
              <g transform="translate(38.16,76.94)" id="img-f1aa0912-68">
                <path d="M-0.17,-11.39 L 0.17 -11.39 0.17 11.39 -0.17 11.39 z" class="primitive"/>
              </g>
              <g transform="translate(38.44,79.38)" id="img-f1aa0912-69">
                <path d="M-0.17,-8.95 L 0.17 -8.95 0.17 8.95 -0.17 8.95 z" class="primitive"/>
              </g>
              <g transform="translate(38.72,76.13)" id="img-f1aa0912-70">
                <path d="M-0.17,-12.2 L 0.17 -12.2 0.17 12.2 -0.17 12.2 z" class="primitive"/>
              </g>
              <g transform="translate(39,77.75)" id="img-f1aa0912-71">
                <path d="M-0.17,-10.57 L 0.17 -10.57 0.17 10.57 -0.17 10.57 z" class="primitive"/>
              </g>
              <g transform="translate(39.28,81.82)" id="img-f1aa0912-72">
                <path d="M-0.17,-6.51 L 0.17 -6.51 0.17 6.51 -0.17 6.51 z" class="primitive"/>
              </g>
              <g transform="translate(39.56,70.43)" id="img-f1aa0912-73">
                <path d="M-0.17,-17.89 L 0.17 -17.89 0.17 17.89 -0.17 17.89 z" class="primitive"/>
              </g>
              <g transform="translate(39.84,75.31)" id="img-f1aa0912-74">
                <path d="M-0.17,-13.01 L 0.17 -13.01 0.17 13.01 -0.17 13.01 z" class="primitive"/>
              </g>
              <g transform="translate(40.12,71.25)" id="img-f1aa0912-75">
                <path d="M-0.17,-17.08 L 0.17 -17.08 0.17 17.08 -0.17 17.08 z" class="primitive"/>
              </g>
              <g transform="translate(40.4,70.43)" id="img-f1aa0912-76">
                <path d="M-0.17,-17.89 L 0.17 -17.89 0.17 17.89 -0.17 17.89 z" class="primitive"/>
              </g>
              <g transform="translate(40.69,68.81)" id="img-f1aa0912-77">
                <path d="M-0.17,-19.52 L 0.17 -19.52 0.17 19.52 -0.17 19.52 z" class="primitive"/>
              </g>
              <g transform="translate(40.97,66.37)" id="img-f1aa0912-78">
                <path d="M-0.17,-21.96 L 0.17 -21.96 0.17 21.96 -0.17 21.96 z" class="primitive"/>
              </g>
              <g transform="translate(41.25,59.86)" id="img-f1aa0912-79">
                <path d="M-0.17,-28.46 L 0.17 -28.46 0.17 28.46 -0.17 28.46 z" class="primitive"/>
              </g>
              <g transform="translate(41.53,73.69)" id="img-f1aa0912-80">
                <path d="M-0.17,-14.64 L 0.17 -14.64 0.17 14.64 -0.17 14.64 z" class="primitive"/>
              </g>
              <g transform="translate(41.81,71.25)" id="img-f1aa0912-81">
                <path d="M-0.17,-17.08 L 0.17 -17.08 0.17 17.08 -0.17 17.08 z" class="primitive"/>
              </g>
              <g transform="translate(42.09,63.12)" id="img-f1aa0912-82">
                <path d="M-0.17,-25.21 L 0.17 -25.21 0.17 25.21 -0.17 25.21 z" class="primitive"/>
              </g>
              <g transform="translate(42.37,50.92)" id="img-f1aa0912-83">
                <path d="M-0.17,-37.41 L 0.17 -37.41 0.17 37.41 -0.17 37.41 z" class="primitive"/>
              </g>
              <g transform="translate(42.65,61.49)" id="img-f1aa0912-84">
                <path d="M-0.17,-26.84 L 0.17 -26.84 0.17 26.84 -0.17 26.84 z" class="primitive"/>
              </g>
              <g transform="translate(42.93,50.92)" id="img-f1aa0912-85">
                <path d="M-0.17,-37.41 L 0.17 -37.41 0.17 37.41 -0.17 37.41 z" class="primitive"/>
              </g>
              <g transform="translate(43.21,50.1)" id="img-f1aa0912-86">
                <path d="M-0.17,-38.22 L 0.17 -38.22 0.17 38.22 -0.17 38.22 z" class="primitive"/>
              </g>
              <g transform="translate(43.49,65.56)" id="img-f1aa0912-87">
                <path d="M-0.17,-22.77 L 0.17 -22.77 0.17 22.77 -0.17 22.77 z" class="primitive"/>
              </g>
              <g transform="translate(43.78,63.93)" id="img-f1aa0912-88">
                <path d="M-0.17,-24.4 L 0.17 -24.4 0.17 24.4 -0.17 24.4 z" class="primitive"/>
              </g>
              <g transform="translate(44.06,67.18)" id="img-f1aa0912-89">
                <path d="M-0.17,-21.14 L 0.17 -21.14 0.17 21.14 -0.17 21.14 z" class="primitive"/>
              </g>
              <g transform="translate(44.34,64.74)" id="img-f1aa0912-90">
                <path d="M-0.17,-23.58 L 0.17 -23.58 0.17 23.58 -0.17 23.58 z" class="primitive"/>
              </g>
              <g transform="translate(44.62,69.62)" id="img-f1aa0912-91">
                <path d="M-0.17,-18.71 L 0.17 -18.71 0.17 18.71 -0.17 18.71 z" class="primitive"/>
              </g>
              <g transform="translate(44.9,68)" id="img-f1aa0912-92">
                <path d="M-0.17,-20.33 L 0.17 -20.33 0.17 20.33 -0.17 20.33 z" class="primitive"/>
              </g>
              <g transform="translate(45.18,69.62)" id="img-f1aa0912-93">
                <path d="M-0.17,-18.71 L 0.17 -18.71 0.17 18.71 -0.17 18.71 z" class="primitive"/>
              </g>
              <g transform="translate(45.46,68.81)" id="img-f1aa0912-94">
                <path d="M-0.17,-19.52 L 0.17 -19.52 0.17 19.52 -0.17 19.52 z" class="primitive"/>
              </g>
              <g transform="translate(45.74,63.12)" id="img-f1aa0912-95">
                <path d="M-0.17,-25.21 L 0.17 -25.21 0.17 25.21 -0.17 25.21 z" class="primitive"/>
              </g>
              <g transform="translate(46.02,75.31)" id="img-f1aa0912-96">
                <path d="M-0.17,-13.01 L 0.17 -13.01 0.17 13.01 -0.17 13.01 z" class="primitive"/>
              </g>
              <g transform="translate(46.3,76.13)" id="img-f1aa0912-97">
                <path d="M-0.17,-12.2 L 0.17 -12.2 0.17 12.2 -0.17 12.2 z" class="primitive"/>
              </g>
              <g transform="translate(46.58,69.62)" id="img-f1aa0912-98">
                <path d="M-0.17,-18.71 L 0.17 -18.71 0.17 18.71 -0.17 18.71 z" class="primitive"/>
              </g>
              <g transform="translate(46.87,74.5)" id="img-f1aa0912-99">
                <path d="M-0.17,-13.83 L 0.17 -13.83 0.17 13.83 -0.17 13.83 z" class="primitive"/>
              </g>
              <g transform="translate(47.15,77.75)" id="img-f1aa0912-100">
                <path d="M-0.17,-10.57 L 0.17 -10.57 0.17 10.57 -0.17 10.57 z" class="primitive"/>
              </g>
              <g transform="translate(47.43,74.5)" id="img-f1aa0912-101">
                <path d="M-0.17,-13.83 L 0.17 -13.83 0.17 13.83 -0.17 13.83 z" class="primitive"/>
              </g>
              <g transform="translate(47.71,73.69)" id="img-f1aa0912-102">
                <path d="M-0.17,-14.64 L 0.17 -14.64 0.17 14.64 -0.17 14.64 z" class="primitive"/>
              </g>
              <g transform="translate(47.99,73.69)" id="img-f1aa0912-103">
                <path d="M-0.17,-14.64 L 0.17 -14.64 0.17 14.64 -0.17 14.64 z" class="primitive"/>
              </g>
              <g transform="translate(48.27,79.38)" id="img-f1aa0912-104">
                <path d="M-0.17,-8.95 L 0.17 -8.95 0.17 8.95 -0.17 8.95 z" class="primitive"/>
              </g>
              <g transform="translate(48.55,79.38)" id="img-f1aa0912-105">
                <path d="M-0.17,-8.95 L 0.17 -8.95 0.17 8.95 -0.17 8.95 z" class="primitive"/>
              </g>
              <g transform="translate(48.83,81.01)" id="img-f1aa0912-106">
                <path d="M-0.17,-7.32 L 0.17 -7.32 0.17 7.32 -0.17 7.32 z" class="primitive"/>
              </g>
              <g transform="translate(49.11,80.19)" id="img-f1aa0912-107">
                <path d="M-0.17,-8.13 L 0.17 -8.13 0.17 8.13 -0.17 8.13 z" class="primitive"/>
              </g>
              <g transform="translate(49.39,82.63)" id="img-f1aa0912-108">
                <path d="M-0.17,-5.69 L 0.17 -5.69 0.17 5.69 -0.17 5.69 z" class="primitive"/>
              </g>
              <g transform="translate(49.67,82.63)" id="img-f1aa0912-109">
                <path d="M-0.17,-5.69 L 0.17 -5.69 0.17 5.69 -0.17 5.69 z" class="primitive"/>
              </g>
              <g transform="translate(49.96,84.26)" id="img-f1aa0912-110">
                <path d="M-0.17,-4.07 L 0.17 -4.07 0.17 4.07 -0.17 4.07 z" class="primitive"/>
              </g>
              <g transform="translate(50.24,82.63)" id="img-f1aa0912-111">
                <path d="M-0.17,-5.69 L 0.17 -5.69 0.17 5.69 -0.17 5.69 z" class="primitive"/>
              </g>
              <g transform="translate(50.52,87.51)" id="img-f1aa0912-112">
                <path d="M-0.17,-0.81 L 0.17 -0.81 0.17 0.81 -0.17 0.81 z" class="primitive"/>
              </g>
              <g transform="translate(50.8,86.7)" id="img-f1aa0912-113">
                <path d="M-0.17,-1.63 L 0.17 -1.63 0.17 1.63 -0.17 1.63 z" class="primitive"/>
              </g>
              <g transform="translate(51.08,84.26)" id="img-f1aa0912-114">
                <path d="M-0.17,-4.07 L 0.17 -4.07 0.17 4.07 -0.17 4.07 z" class="primitive"/>
              </g>
              <g transform="translate(51.36,87.51)" id="img-f1aa0912-115">
                <path d="M-0.17,-0.81 L 0.17 -0.81 0.17 0.81 -0.17 0.81 z" class="primitive"/>
              </g>
              <g transform="translate(51.64,85.07)" id="img-f1aa0912-116">
                <path d="M-0.17,-3.25 L 0.17 -3.25 0.17 3.25 -0.17 3.25 z" class="primitive"/>
              </g>
              <g transform="translate(51.92,88.33)" id="img-f1aa0912-117">
                <path d="M-0.17,-0 L 0.17 -0 0.17 0 -0.17 0 z" class="primitive"/>
              </g>
              <g transform="translate(52.2,87.51)" id="img-f1aa0912-118">
                <path d="M-0.17,-0.81 L 0.17 -0.81 0.17 0.81 -0.17 0.81 z" class="primitive"/>
              </g>
              <g transform="translate(52.48,85.89)" id="img-f1aa0912-119">
                <path d="M-0.17,-2.44 L 0.17 -2.44 0.17 2.44 -0.17 2.44 z" class="primitive"/>
              </g>
              <g transform="translate(52.76,88.33)" id="img-f1aa0912-120">
                <path d="M-0.17,-0 L 0.17 -0 0.17 0 -0.17 0 z" class="primitive"/>
              </g>
              <g transform="translate(53.05,87.51)" id="img-f1aa0912-121">
                <path d="M-0.17,-0.81 L 0.17 -0.81 0.17 0.81 -0.17 0.81 z" class="primitive"/>
              </g>
              <g transform="translate(53.33,88.33)" id="img-f1aa0912-122">
                <path d="M-0.17,-0 L 0.17 -0 0.17 0 -0.17 0 z" class="primitive"/>
              </g>
              <g transform="translate(53.61,88.33)" id="img-f1aa0912-123">
                <path d="M-0.17,-0 L 0.17 -0 0.17 0 -0.17 0 z" class="primitive"/>
              </g>
              <g transform="translate(53.89,88.33)" id="img-f1aa0912-124">
                <path d="M-0.17,-0 L 0.17 -0 0.17 0 -0.17 0 z" class="primitive"/>
              </g>
              <g transform="translate(54.17,88.33)" id="img-f1aa0912-125">
                <path d="M-0.17,-0 L 0.17 -0 0.17 0 -0.17 0 z" class="primitive"/>
              </g>
              <g transform="translate(54.45,88.33)" id="img-f1aa0912-126">
                <path d="M-0.17,-0 L 0.17 -0 0.17 0 -0.17 0 z" class="primitive"/>
              </g>
              <g transform="translate(54.73,88.33)" id="img-f1aa0912-127">
                <path d="M-0.17,-0 L 0.17 -0 0.17 0 -0.17 0 z" class="primitive"/>
              </g>
              <g transform="translate(55.01,88.33)" id="img-f1aa0912-128">
                <path d="M-0.17,-0 L 0.17 -0 0.17 0 -0.17 0 z" class="primitive"/>
              </g>
              <g transform="translate(55.29,88.33)" id="img-f1aa0912-129">
                <path d="M-0.17,-0 L 0.17 -0 0.17 0 -0.17 0 z" class="primitive"/>
              </g>
              <g transform="translate(55.57,88.33)" id="img-f1aa0912-130">
                <path d="M-0.17,-0 L 0.17 -0 0.17 0 -0.17 0 z" class="primitive"/>
              </g>
              <g transform="translate(55.85,87.51)" id="img-f1aa0912-131">
                <path d="M-0.17,-0.81 L 0.17 -0.81 0.17 0.81 -0.17 0.81 z" class="primitive"/>
              </g>
            </g>
          </g>
        </g>
      </g>
    </g>
  </g>
  <g class="guide ylabels" font-size="2.82" font-family="'PT Sans Caption','Helvetica Neue','Helvetica',sans-serif" fill="#6C606B" id="img-f1aa0912-132">
    <g transform="translate(16.96,88.33)" id="img-f1aa0912-133">
      <g class="primitive">
        <text text-anchor="end" dy="0.35em">0</text>
      </g>
    </g>
    <g transform="translate(16.96,72.06)" id="img-f1aa0912-134">
      <g class="primitive">
        <text text-anchor="end" dy="0.35em">10</text>
      </g>
    </g>
    <g transform="translate(16.96,55.8)" id="img-f1aa0912-135">
      <g class="primitive">
        <text text-anchor="end" dy="0.35em">20</text>
      </g>
    </g>
    <g transform="translate(16.96,39.53)" id="img-f1aa0912-136">
      <g class="primitive">
        <text text-anchor="end" dy="0.35em">30</text>
      </g>
    </g>
    <g transform="translate(16.96,23.27)" id="img-f1aa0912-137">
      <g class="primitive">
        <text text-anchor="end" dy="0.35em">40</text>
      </g>
    </g>
    <g transform="translate(16.96,7)" id="img-f1aa0912-138">
      <g class="primitive">
        <text text-anchor="end" dy="0.35em">50</text>
      </g>
    </g>
  </g>
  <g font-size="3.88" font-family="'PT Sans','Helvetica Neue','Helvetica',sans-serif" fill="#564A55" stroke="#000000" stroke-opacity="0.000" id="img-f1aa0912-139">
    <g transform="translate(8.81,45.66)" id="img-f1aa0912-140">
      <g class="primitive">
        <text text-anchor="middle" dy="0.35em" transform="rotate(-90,0, 2)">frequency</text>
      </g>
    </g>
  </g>
</g>
<defs>
  <clipPath id="img-f1aa0912-11">
    <path d="M17.96,5 L 67.81 5 67.81 90.33 17.96 90.33" />
  </clipPath>
</defs>
</svg>
