<?xml version="1.0" encoding="UTF-8"?>
<svg xmlns="http://www.w3.org/2000/svg"
     xmlns:xlink="http://www.w3.org/1999/xlink"
     xmlns:gadfly="http://www.gadflyjl.org/ns"
     version="1.2"
     width="141.42mm" height="100mm" viewBox="0 0 141.42 100"
     stroke="none"
     fill="#000000"
     stroke-width="0.3"
     font-size="3.88"
>
<defs>
  <marker id="arrow" markerWidth="15" markerHeight="7" refX="5" refY="3.5" orient="auto" markerUnits="strokeWidth">
    <path d="M0,0 L15,3.5 L0,7 z" stroke="context-stroke" fill="context-stroke"/>
  </marker>
</defs>
<g class="plotroot xscalable yscalable" id="img-7f71633b-1">
  <g class="guide xlabels" font-size="2.82" font-family="'PT Sans Caption','Helvetica Neue','Helvetica',sans-serif" fill="#6C606B" id="img-7f71633b-2">
    <g transform="translate(19.96,91.33)">
      <g class="primitive">
        <text text-anchor="middle" dy="0.6em">8.4</text>
      </g>
    </g>
    <g transform="translate(31.24,91.33)">
      <g class="primitive">
        <text text-anchor="middle" dy="0.6em">8.6</text>
      </g>
    </g>
    <g transform="translate(42.52,91.33)">
      <g class="primitive">
        <text text-anchor="middle" dy="0.6em">8.8</text>
      </g>
    </g>
    <g transform="translate(53.81,91.33)">
      <g class="primitive">
        <text text-anchor="middle" dy="0.6em">9.0</text>
      </g>
    </g>
    <g transform="translate(65.09,91.33)">
      <g class="primitive">
        <text text-anchor="middle" dy="0.6em">9.2</text>
      </g>
    </g>
    <g transform="translate(76.37,91.33)">
      <g class="primitive">
        <text text-anchor="middle" dy="0.6em">9.4</text>
      </g>
    </g>
  </g>
  <g class="guide colorkey" id="img-7f71633b-3">
    <g class="color_noncoding_coding_coding_noncoding_4-path" id="img-7f71633b-4">
      <g fill="#4C404B" font-size="2.82" font-family="'PT Sans','Helvetica Neue','Helvetica',sans-serif" id="img-7f71633b-5">
        <g transform="translate(82.19,49.48)" id="img-7f71633b-6">
          <g class="primitive">
            <text dy="0.35em">noncoding_coding_coding_noncoding_4-path</text>
          </g>
        </g>
      </g>
      <g fill-opacity="1" fill="#00BFFF" stroke="#FFFFFF" id="img-7f71633b-7">
        <g transform="translate(80.28,49.48)" id="img-7f71633b-8">
          <path d="M-0.91,-0.91 L 0.91 -0.91 0.91 0.91 -0.91 0.91 z" class="primitive"/>
        </g>
      </g>
    </g>
    <g fill="#362A35" font-size="3.88" font-family="'PT Sans','Helvetica Neue','Helvetica',sans-serif" stroke="#000000" stroke-opacity="0.000" id="img-7f71633b-9">
      <g transform="translate(79.37,45.66)" id="img-7f71633b-10">
        <g class="primitive">
          <text dy="-0em">graphlet</text>
        </g>
      </g>
    </g>
  </g>
  <g clip-path="url(#img-7f71633b-11)">
    <g id="img-7f71633b-12">
      <g pointer-events="visible" stroke-width="0.3" fill="#000000" fill-opacity="0.000" stroke="#000000" stroke-opacity="0.000" class="guide background" id="img-7f71633b-13">
        <g transform="translate(48.17,47.66)" id="img-7f71633b-14">
          <path d="M-30.21,-42.66 L 30.21 -42.66 30.21 42.66 -30.21 42.66 z" class="primitive"/>
        </g>
      </g>
      <g class="guide ygridlines xfixed" stroke-dasharray="0.5,0.5" stroke-width="0.2" stroke="#D0D0E0" id="img-7f71633b-15">
        <g transform="translate(48.17,88.33)" id="img-7f71633b-16">
          <path fill="none" d="M-30.21,0 L 30.21 0" class="primitive"/>
        </g>
        <g transform="translate(48.17,68)" id="img-7f71633b-17">
          <path fill="none" d="M-30.21,0 L 30.21 0" class="primitive"/>
        </g>
        <g transform="translate(48.17,47.66)" id="img-7f71633b-18">
          <path fill="none" d="M-30.21,0 L 30.21 0" class="primitive"/>
        </g>
        <g transform="translate(48.17,27.33)" id="img-7f71633b-19">
          <path fill="none" d="M-30.21,0 L 30.21 0" class="primitive"/>
        </g>
        <g transform="translate(48.17,7)" id="img-7f71633b-20">
          <path fill="none" d="M-30.21,0 L 30.21 0" class="primitive"/>
        </g>
      </g>
      <g class="guide xgridlines yfixed" stroke-dasharray="0.5,0.5" stroke-width="0.2" stroke="#D0D0E0" id="img-7f71633b-21">
        <g transform="translate(19.96,47.66)" id="img-7f71633b-22">
          <path fill="none" d="M0,-42.66 L 0 42.66" class="primitive"/>
        </g>
        <g transform="translate(31.24,47.66)" id="img-7f71633b-23">
          <path fill="none" d="M0,-42.66 L 0 42.66" class="primitive"/>
        </g>
        <g transform="translate(42.52,47.66)" id="img-7f71633b-24">
          <path fill="none" d="M0,-42.66 L 0 42.66" class="primitive"/>
        </g>
        <g transform="translate(53.81,47.66)" id="img-7f71633b-25">
          <path fill="none" d="M0,-42.66 L 0 42.66" class="primitive"/>
        </g>
        <g transform="translate(65.09,47.66)" id="img-7f71633b-26">
          <path fill="none" d="M0,-42.66 L 0 42.66" class="primitive"/>
        </g>
        <g transform="translate(76.37,47.66)" id="img-7f71633b-27">
          <path fill="none" d="M0,-42.66 L 0 42.66" class="primitive"/>
        </g>
      </g>
      <g class="plotpanel" id="img-7f71633b-28">
        <metadata>
          <boundingbox value="17.95833333333333mm 5.0mm 60.4163562373095mm 85.32666666666667mm"/>
          <unitbox value="8.364549287947858 40.98368718747438 1.0709014241042867 -41.96737437494876"/>
        </metadata>
        <g shape-rendering="crispEdges" stroke-width="0.3" id="img-7f71633b-29">
          <g stroke="#000000" stroke-opacity="0.000" class="geometry" id="img-7f71633b-30">
            <g fill="#00BFFF" id="img-7f71633b-31">
              <g transform="translate(20.26,87.31)" id="img-7f71633b-32">
                <path d="M-0.27,-1.02 L 0.27 -1.02 0.27 1.02 -0.27 1.02 z" class="primitive"/>
              </g>
              <g transform="translate(20.74,88.33)" id="img-7f71633b-33">
                <path d="M-0.27,-0 L 0.27 -0 0.27 0 -0.27 0 z" class="primitive"/>
              </g>
              <g transform="translate(21.23,88.33)" id="img-7f71633b-34">
                <path d="M-0.27,-0 L 0.27 -0 0.27 0 -0.27 0 z" class="primitive"/>
              </g>
              <g transform="translate(21.71,88.33)" id="img-7f71633b-35">
                <path d="M-0.27,-0 L 0.27 -0 0.27 0 -0.27 0 z" class="primitive"/>
              </g>
              <g transform="translate(22.19,86.29)" id="img-7f71633b-36">
                <path d="M-0.27,-2.03 L 0.27 -2.03 0.27 2.03 -0.27 2.03 z" class="primitive"/>
              </g>
              <g transform="translate(22.67,87.31)" id="img-7f71633b-37">
                <path d="M-0.27,-1.02 L 0.27 -1.02 0.27 1.02 -0.27 1.02 z" class="primitive"/>
              </g>
              <g transform="translate(23.15,87.31)" id="img-7f71633b-38">
                <path d="M-0.27,-1.02 L 0.27 -1.02 0.27 1.02 -0.27 1.02 z" class="primitive"/>
              </g>
              <g transform="translate(23.64,88.33)" id="img-7f71633b-39">
                <path d="M-0.27,-0 L 0.27 -0 0.27 0 -0.27 0 z" class="primitive"/>
              </g>
              <g transform="translate(24.12,88.33)" id="img-7f71633b-40">
                <path d="M-0.27,-0 L 0.27 -0 0.27 0 -0.27 0 z" class="primitive"/>
              </g>
              <g transform="translate(24.6,87.31)" id="img-7f71633b-41">
                <path d="M-0.27,-1.02 L 0.27 -1.02 0.27 1.02 -0.27 1.02 z" class="primitive"/>
              </g>
              <g transform="translate(25.08,88.33)" id="img-7f71633b-42">
                <path d="M-0.27,-0 L 0.27 -0 0.27 0 -0.27 0 z" class="primitive"/>
              </g>
              <g transform="translate(25.57,88.33)" id="img-7f71633b-43">
                <path d="M-0.27,-0 L 0.27 -0 0.27 0 -0.27 0 z" class="primitive"/>
              </g>
              <g transform="translate(26.05,86.29)" id="img-7f71633b-44">
                <path d="M-0.27,-2.03 L 0.27 -2.03 0.27 2.03 -0.27 2.03 z" class="primitive"/>
              </g>
              <g transform="translate(26.53,88.33)" id="img-7f71633b-45">
                <path d="M-0.27,-0 L 0.27 -0 0.27 0 -0.27 0 z" class="primitive"/>
              </g>
              <g transform="translate(27.01,86.29)" id="img-7f71633b-46">
                <path d="M-0.27,-2.03 L 0.27 -2.03 0.27 2.03 -0.27 2.03 z" class="primitive"/>
              </g>
              <g transform="translate(27.49,87.31)" id="img-7f71633b-47">
                <path d="M-0.27,-1.02 L 0.27 -1.02 0.27 1.02 -0.27 1.02 z" class="primitive"/>
              </g>
              <g transform="translate(27.98,84.26)" id="img-7f71633b-48">
                <path d="M-0.27,-4.07 L 0.27 -4.07 0.27 4.07 -0.27 4.07 z" class="primitive"/>
              </g>
              <g transform="translate(28.46,87.31)" id="img-7f71633b-49">
                <path d="M-0.27,-1.02 L 0.27 -1.02 0.27 1.02 -0.27 1.02 z" class="primitive"/>
              </g>
              <g transform="translate(28.94,87.31)" id="img-7f71633b-50">
                <path d="M-0.27,-1.02 L 0.27 -1.02 0.27 1.02 -0.27 1.02 z" class="primitive"/>
              </g>
              <g transform="translate(29.42,86.29)" id="img-7f71633b-51">
                <path d="M-0.27,-2.03 L 0.27 -2.03 0.27 2.03 -0.27 2.03 z" class="primitive"/>
              </g>
              <g transform="translate(29.9,85.28)" id="img-7f71633b-52">
                <path d="M-0.27,-3.05 L 0.27 -3.05 0.27 3.05 -0.27 3.05 z" class="primitive"/>
              </g>
              <g transform="translate(30.39,86.29)" id="img-7f71633b-53">
                <path d="M-0.27,-2.03 L 0.27 -2.03 0.27 2.03 -0.27 2.03 z" class="primitive"/>
              </g>
              <g transform="translate(30.87,83.24)" id="img-7f71633b-54">
                <path d="M-0.27,-5.08 L 0.27 -5.08 0.27 5.08 -0.27 5.08 z" class="primitive"/>
              </g>
              <g transform="translate(31.35,84.26)" id="img-7f71633b-55">
                <path d="M-0.27,-4.07 L 0.27 -4.07 0.27 4.07 -0.27 4.07 z" class="primitive"/>
              </g>
              <g transform="translate(31.83,85.28)" id="img-7f71633b-56">
                <path d="M-0.27,-3.05 L 0.27 -3.05 0.27 3.05 -0.27 3.05 z" class="primitive"/>
              </g>
              <g transform="translate(32.32,82.23)" id="img-7f71633b-57">
                <path d="M-0.27,-6.1 L 0.27 -6.1 0.27 6.1 -0.27 6.1 z" class="primitive"/>
              </g>
              <g transform="translate(32.8,82.23)" id="img-7f71633b-58">
                <path d="M-0.27,-6.1 L 0.27 -6.1 0.27 6.1 -0.27 6.1 z" class="primitive"/>
              </g>
              <g transform="translate(33.28,84.26)" id="img-7f71633b-59">
                <path d="M-0.27,-4.07 L 0.27 -4.07 0.27 4.07 -0.27 4.07 z" class="primitive"/>
              </g>
              <g transform="translate(33.76,84.26)" id="img-7f71633b-60">
                <path d="M-0.27,-4.07 L 0.27 -4.07 0.27 4.07 -0.27 4.07 z" class="primitive"/>
              </g>
              <g transform="translate(34.24,84.26)" id="img-7f71633b-61">
                <path d="M-0.27,-4.07 L 0.27 -4.07 0.27 4.07 -0.27 4.07 z" class="primitive"/>
              </g>
              <g transform="translate(34.73,83.24)" id="img-7f71633b-62">
                <path d="M-0.27,-5.08 L 0.27 -5.08 0.27 5.08 -0.27 5.08 z" class="primitive"/>
              </g>
              <g transform="translate(35.21,88.33)" id="img-7f71633b-63">
                <path d="M-0.27,-0 L 0.27 -0 0.27 0 -0.27 0 z" class="primitive"/>
              </g>
              <g transform="translate(35.69,78.16)" id="img-7f71633b-64">
                <path d="M-0.27,-10.17 L 0.27 -10.17 0.27 10.17 -0.27 10.17 z" class="primitive"/>
              </g>
              <g transform="translate(36.17,82.23)" id="img-7f71633b-65">
                <path d="M-0.27,-6.1 L 0.27 -6.1 0.27 6.1 -0.27 6.1 z" class="primitive"/>
              </g>
              <g transform="translate(36.65,81.21)" id="img-7f71633b-66">
                <path d="M-0.27,-7.12 L 0.27 -7.12 0.27 7.12 -0.27 7.12 z" class="primitive"/>
              </g>
              <g transform="translate(37.14,78.16)" id="img-7f71633b-67">
                <path d="M-0.27,-10.17 L 0.27 -10.17 0.27 10.17 -0.27 10.17 z" class="primitive"/>
              </g>
              <g transform="translate(37.62,81.21)" id="img-7f71633b-68">
                <path d="M-0.27,-7.12 L 0.27 -7.12 0.27 7.12 -0.27 7.12 z" class="primitive"/>
              </g>
              <g transform="translate(38.1,79.18)" id="img-7f71633b-69">
                <path d="M-0.27,-9.15 L 0.27 -9.15 0.27 9.15 -0.27 9.15 z" class="primitive"/>
              </g>
              <g transform="translate(38.58,79.18)" id="img-7f71633b-70">
                <path d="M-0.27,-9.15 L 0.27 -9.15 0.27 9.15 -0.27 9.15 z" class="primitive"/>
              </g>
              <g transform="translate(39.06,66.98)" id="img-7f71633b-71">
                <path d="M-0.27,-21.35 L 0.27 -21.35 0.27 21.35 -0.27 21.35 z" class="primitive"/>
              </g>
              <g transform="translate(39.55,78.16)" id="img-7f71633b-72">
                <path d="M-0.27,-10.17 L 0.27 -10.17 0.27 10.17 -0.27 10.17 z" class="primitive"/>
              </g>
              <g transform="translate(40.03,70.03)" id="img-7f71633b-73">
                <path d="M-0.27,-18.3 L 0.27 -18.3 0.27 18.3 -0.27 18.3 z" class="primitive"/>
              </g>
              <g transform="translate(40.51,76.13)" id="img-7f71633b-74">
                <path d="M-0.27,-12.2 L 0.27 -12.2 0.27 12.2 -0.27 12.2 z" class="primitive"/>
              </g>
              <g transform="translate(40.99,76.13)" id="img-7f71633b-75">
                <path d="M-0.27,-12.2 L 0.27 -12.2 0.27 12.2 -0.27 12.2 z" class="primitive"/>
              </g>
              <g transform="translate(41.48,71.04)" id="img-7f71633b-76">
                <path d="M-0.27,-17.28 L 0.27 -17.28 0.27 17.28 -0.27 17.28 z" class="primitive"/>
              </g>
              <g transform="translate(41.96,74.09)" id="img-7f71633b-77">
                <path d="M-0.27,-14.23 L 0.27 -14.23 0.27 14.23 -0.27 14.23 z" class="primitive"/>
              </g>
              <g transform="translate(42.44,72.06)" id="img-7f71633b-78">
                <path d="M-0.27,-16.27 L 0.27 -16.27 0.27 16.27 -0.27 16.27 z" class="primitive"/>
              </g>
              <g transform="translate(42.92,70.03)" id="img-7f71633b-79">
                <path d="M-0.27,-18.3 L 0.27 -18.3 0.27 18.3 -0.27 18.3 z" class="primitive"/>
              </g>
              <g transform="translate(43.4,71.04)" id="img-7f71633b-80">
                <path d="M-0.27,-17.28 L 0.27 -17.28 0.27 17.28 -0.27 17.28 z" class="primitive"/>
              </g>
              <g transform="translate(43.89,73.08)" id="img-7f71633b-81">
                <path d="M-0.27,-15.25 L 0.27 -15.25 0.27 15.25 -0.27 15.25 z" class="primitive"/>
              </g>
              <g transform="translate(44.37,71.04)" id="img-7f71633b-82">
                <path d="M-0.27,-17.28 L 0.27 -17.28 0.27 17.28 -0.27 17.28 z" class="primitive"/>
              </g>
              <g transform="translate(44.85,62.91)" id="img-7f71633b-83">
                <path d="M-0.27,-25.41 L 0.27 -25.41 0.27 25.41 -0.27 25.41 z" class="primitive"/>
              </g>
              <g transform="translate(45.33,64.95)" id="img-7f71633b-84">
                <path d="M-0.27,-23.38 L 0.27 -23.38 0.27 23.38 -0.27 23.38 z" class="primitive"/>
              </g>
              <g transform="translate(45.81,55.8)" id="img-7f71633b-85">
                <path d="M-0.27,-32.53 L 0.27 -32.53 0.27 32.53 -0.27 32.53 z" class="primitive"/>
              </g>
              <g transform="translate(46.3,70.03)" id="img-7f71633b-86">
                <path d="M-0.27,-18.3 L 0.27 -18.3 0.27 18.3 -0.27 18.3 z" class="primitive"/>
              </g>
              <g transform="translate(46.78,63.93)" id="img-7f71633b-87">
                <path d="M-0.27,-24.4 L 0.27 -24.4 0.27 24.4 -0.27 24.4 z" class="primitive"/>
              </g>
              <g transform="translate(47.26,65.96)" id="img-7f71633b-88">
                <path d="M-0.27,-22.36 L 0.27 -22.36 0.27 22.36 -0.27 22.36 z" class="primitive"/>
              </g>
              <g transform="translate(47.74,65.96)" id="img-7f71633b-89">
                <path d="M-0.27,-22.36 L 0.27 -22.36 0.27 22.36 -0.27 22.36 z" class="primitive"/>
              </g>
              <g transform="translate(48.23,58.85)" id="img-7f71633b-90">
                <path d="M-0.27,-29.48 L 0.27 -29.48 0.27 29.48 -0.27 29.48 z" class="primitive"/>
              </g>
              <g transform="translate(48.71,62.91)" id="img-7f71633b-91">
                <path d="M-0.27,-25.41 L 0.27 -25.41 0.27 25.41 -0.27 25.41 z" class="primitive"/>
              </g>
              <g transform="translate(49.19,62.91)" id="img-7f71633b-92">
                <path d="M-0.27,-25.41 L 0.27 -25.41 0.27 25.41 -0.27 25.41 z" class="primitive"/>
              </g>
              <g transform="translate(49.67,60.88)" id="img-7f71633b-93">
                <path d="M-0.27,-27.45 L 0.27 -27.45 0.27 27.45 -0.27 27.45 z" class="primitive"/>
              </g>
              <g transform="translate(50.15,52.75)" id="img-7f71633b-94">
                <path d="M-0.27,-35.58 L 0.27 -35.58 0.27 35.58 -0.27 35.58 z" class="primitive"/>
              </g>
              <g transform="translate(50.64,47.66)" id="img-7f71633b-95">
                <path d="M-0.27,-40.66 L 0.27 -40.66 0.27 40.66 -0.27 40.66 z" class="primitive"/>
              </g>
              <g transform="translate(51.12,51.73)" id="img-7f71633b-96">
                <path d="M-0.27,-36.6 L 0.27 -36.6 0.27 36.6 -0.27 36.6 z" class="primitive"/>
              </g>
              <g transform="translate(51.6,72.06)" id="img-7f71633b-97">
                <path d="M-0.27,-16.27 L 0.27 -16.27 0.27 16.27 -0.27 16.27 z" class="primitive"/>
              </g>
              <g transform="translate(52.08,64.95)" id="img-7f71633b-98">
                <path d="M-0.27,-23.38 L 0.27 -23.38 0.27 23.38 -0.27 23.38 z" class="primitive"/>
              </g>
              <g transform="translate(52.56,60.88)" id="img-7f71633b-99">
                <path d="M-0.27,-27.45 L 0.27 -27.45 0.27 27.45 -0.27 27.45 z" class="primitive"/>
              </g>
              <g transform="translate(53.05,70.03)" id="img-7f71633b-100">
                <path d="M-0.27,-18.3 L 0.27 -18.3 0.27 18.3 -0.27 18.3 z" class="primitive"/>
              </g>
              <g transform="translate(53.53,69.01)" id="img-7f71633b-101">
                <path d="M-0.27,-19.32 L 0.27 -19.32 0.27 19.32 -0.27 19.32 z" class="primitive"/>
              </g>
              <g transform="translate(54.01,57.83)" id="img-7f71633b-102">
                <path d="M-0.27,-30.5 L 0.27 -30.5 0.27 30.5 -0.27 30.5 z" class="primitive"/>
              </g>
              <g transform="translate(54.49,71.04)" id="img-7f71633b-103">
                <path d="M-0.27,-17.28 L 0.27 -17.28 0.27 17.28 -0.27 17.28 z" class="primitive"/>
              </g>
              <g transform="translate(54.98,75.11)" id="img-7f71633b-104">
                <path d="M-0.27,-13.22 L 0.27 -13.22 0.27 13.22 -0.27 13.22 z" class="primitive"/>
              </g>
              <g transform="translate(55.46,73.08)" id="img-7f71633b-105">
                <path d="M-0.27,-15.25 L 0.27 -15.25 0.27 15.25 -0.27 15.25 z" class="primitive"/>
              </g>
              <g transform="translate(55.94,79.18)" id="img-7f71633b-106">
                <path d="M-0.27,-9.15 L 0.27 -9.15 0.27 9.15 -0.27 9.15 z" class="primitive"/>
              </g>
              <g transform="translate(56.42,74.09)" id="img-7f71633b-107">
                <path d="M-0.27,-14.23 L 0.27 -14.23 0.27 14.23 -0.27 14.23 z" class="primitive"/>
              </g>
              <g transform="translate(56.9,73.08)" id="img-7f71633b-108">
                <path d="M-0.27,-15.25 L 0.27 -15.25 0.27 15.25 -0.27 15.25 z" class="primitive"/>
              </g>
              <g transform="translate(57.39,80.19)" id="img-7f71633b-109">
                <path d="M-0.27,-8.13 L 0.27 -8.13 0.27 8.13 -0.27 8.13 z" class="primitive"/>
              </g>
              <g transform="translate(57.87,80.19)" id="img-7f71633b-110">
                <path d="M-0.27,-8.13 L 0.27 -8.13 0.27 8.13 -0.27 8.13 z" class="primitive"/>
              </g>
              <g transform="translate(58.35,76.13)" id="img-7f71633b-111">
                <path d="M-0.27,-12.2 L 0.27 -12.2 0.27 12.2 -0.27 12.2 z" class="primitive"/>
              </g>
              <g transform="translate(58.83,77.14)" id="img-7f71633b-112">
                <path d="M-0.27,-11.18 L 0.27 -11.18 0.27 11.18 -0.27 11.18 z" class="primitive"/>
              </g>
              <g transform="translate(59.31,83.24)" id="img-7f71633b-113">
                <path d="M-0.27,-5.08 L 0.27 -5.08 0.27 5.08 -0.27 5.08 z" class="primitive"/>
              </g>
              <g transform="translate(59.8,83.24)" id="img-7f71633b-114">
                <path d="M-0.27,-5.08 L 0.27 -5.08 0.27 5.08 -0.27 5.08 z" class="primitive"/>
              </g>
              <g transform="translate(60.28,84.26)" id="img-7f71633b-115">
                <path d="M-0.27,-4.07 L 0.27 -4.07 0.27 4.07 -0.27 4.07 z" class="primitive"/>
              </g>
              <g transform="translate(60.76,86.29)" id="img-7f71633b-116">
                <path d="M-0.27,-2.03 L 0.27 -2.03 0.27 2.03 -0.27 2.03 z" class="primitive"/>
              </g>
              <g transform="translate(61.24,80.19)" id="img-7f71633b-117">
                <path d="M-0.27,-8.13 L 0.27 -8.13 0.27 8.13 -0.27 8.13 z" class="primitive"/>
              </g>
              <g transform="translate(61.72,85.28)" id="img-7f71633b-118">
                <path d="M-0.27,-3.05 L 0.27 -3.05 0.27 3.05 -0.27 3.05 z" class="primitive"/>
              </g>
              <g transform="translate(62.21,81.21)" id="img-7f71633b-119">
                <path d="M-0.27,-7.12 L 0.27 -7.12 0.27 7.12 -0.27 7.12 z" class="primitive"/>
              </g>
              <g transform="translate(62.69,81.21)" id="img-7f71633b-120">
                <path d="M-0.27,-7.12 L 0.27 -7.12 0.27 7.12 -0.27 7.12 z" class="primitive"/>
              </g>
              <g transform="translate(63.17,85.28)" id="img-7f71633b-121">
                <path d="M-0.27,-3.05 L 0.27 -3.05 0.27 3.05 -0.27 3.05 z" class="primitive"/>
              </g>
              <g transform="translate(63.65,88.33)" id="img-7f71633b-122">
                <path d="M-0.27,-0 L 0.27 -0 0.27 0 -0.27 0 z" class="primitive"/>
              </g>
              <g transform="translate(64.14,87.31)" id="img-7f71633b-123">
                <path d="M-0.27,-1.02 L 0.27 -1.02 0.27 1.02 -0.27 1.02 z" class="primitive"/>
              </g>
              <g transform="translate(64.62,87.31)" id="img-7f71633b-124">
                <path d="M-0.27,-1.02 L 0.27 -1.02 0.27 1.02 -0.27 1.02 z" class="primitive"/>
              </g>
              <g transform="translate(65.1,87.31)" id="img-7f71633b-125">
                <path d="M-0.27,-1.02 L 0.27 -1.02 0.27 1.02 -0.27 1.02 z" class="primitive"/>
              </g>
              <g transform="translate(65.58,87.31)" id="img-7f71633b-126">
                <path d="M-0.27,-1.02 L 0.27 -1.02 0.27 1.02 -0.27 1.02 z" class="primitive"/>
              </g>
              <g transform="translate(66.06,86.29)" id="img-7f71633b-127">
                <path d="M-0.27,-2.03 L 0.27 -2.03 0.27 2.03 -0.27 2.03 z" class="primitive"/>
              </g>
              <g transform="translate(66.55,87.31)" id="img-7f71633b-128">
                <path d="M-0.27,-1.02 L 0.27 -1.02 0.27 1.02 -0.27 1.02 z" class="primitive"/>
              </g>
              <g transform="translate(67.03,88.33)" id="img-7f71633b-129">
                <path d="M-0.27,-0 L 0.27 -0 0.27 0 -0.27 0 z" class="primitive"/>
              </g>
              <g transform="translate(67.51,88.33)" id="img-7f71633b-130">
                <path d="M-0.27,-0 L 0.27 -0 0.27 0 -0.27 0 z" class="primitive"/>
              </g>
              <g transform="translate(67.99,87.31)" id="img-7f71633b-131">
                <path d="M-0.27,-1.02 L 0.27 -1.02 0.27 1.02 -0.27 1.02 z" class="primitive"/>
              </g>
            </g>
          </g>
        </g>
      </g>
    </g>
  </g>
  <g class="guide ylabels" font-size="2.82" font-family="'PT Sans Caption','Helvetica Neue','Helvetica',sans-serif" fill="#6C606B" id="img-7f71633b-132">
    <g transform="translate(16.96,88.33)" id="img-7f71633b-133">
      <g class="primitive">
        <text text-anchor="end" dy="0.35em">0</text>
      </g>
    </g>
    <g transform="translate(16.96,68)" id="img-7f71633b-134">
      <g class="primitive">
        <text text-anchor="end" dy="0.35em">10</text>
      </g>
    </g>
    <g transform="translate(16.96,47.66)" id="img-7f71633b-135">
      <g class="primitive">
        <text text-anchor="end" dy="0.35em">20</text>
      </g>
    </g>
    <g transform="translate(16.96,27.33)" id="img-7f71633b-136">
      <g class="primitive">
        <text text-anchor="end" dy="0.35em">30</text>
      </g>
    </g>
    <g transform="translate(16.96,7)" id="img-7f71633b-137">
      <g class="primitive">
        <text text-anchor="end" dy="0.35em">40</text>
      </g>
    </g>
  </g>
  <g font-size="3.88" font-family="'PT Sans','Helvetica Neue','Helvetica',sans-serif" fill="#564A55" stroke="#000000" stroke-opacity="0.000" id="img-7f71633b-138">
    <g transform="translate(8.81,45.66)" id="img-7f71633b-139">
      <g class="primitive">
        <text text-anchor="middle" dy="0.35em" transform="rotate(-90,0, 2)">frequency</text>
      </g>
    </g>
  </g>
</g>
<defs>
  <clipPath id="img-7f71633b-11">
    <path d="M17.96,5 L 78.37 5 78.37 90.33 17.96 90.33" />
  </clipPath>
</defs>
</svg>
