<?xml version="1.0" encoding="UTF-8"?>
<svg xmlns="http://www.w3.org/2000/svg"
     xmlns:xlink="http://www.w3.org/1999/xlink"
     xmlns:gadfly="http://www.gadflyjl.org/ns"
     version="1.2"
     width="141.42mm" height="100mm" viewBox="0 0 141.42 100"
     stroke="none"
     fill="#000000"
     stroke-width="0.3"
     font-size="3.88"
>
<defs>
  <marker id="arrow" markerWidth="15" markerHeight="7" refX="5" refY="3.5" orient="auto" markerUnits="strokeWidth">
    <path d="M0,0 L15,3.5 L0,7 z" stroke="context-stroke" fill="context-stroke"/>
  </marker>
</defs>
<g class="plotroot xscalable yscalable" id="img-c6427e73-1">
  <g class="guide xlabels" font-size="2.82" font-family="'PT Sans Caption','Helvetica Neue','Helvetica',sans-serif" fill="#6C606B" id="img-c6427e73-2">
    <g transform="translate(18.28,91.33)">
      <g class="primitive">
        <text text-anchor="middle" dy="0.6em">6.7</text>
      </g>
    </g>
    <g transform="translate(35.81,91.33)">
      <g class="primitive">
        <text text-anchor="middle" dy="0.6em">6.8</text>
      </g>
    </g>
    <g transform="translate(53.34,91.33)">
      <g class="primitive">
        <text text-anchor="middle" dy="0.6em">6.9</text>
      </g>
    </g>
    <g transform="translate(70.87,91.33)">
      <g class="primitive">
        <text text-anchor="middle" dy="0.6em">7.0</text>
      </g>
    </g>
    <g transform="translate(88.39,91.33)">
      <g class="primitive">
        <text text-anchor="middle" dy="0.6em">7.1</text>
      </g>
    </g>
  </g>
  <g class="guide colorkey" id="img-c6427e73-3">
    <g class="color_coding_noncoding_noncoding_3-tri" id="img-c6427e73-4">
      <g fill="#4C404B" font-size="2.82" font-family="'PT Sans','Helvetica Neue','Helvetica',sans-serif" id="img-c6427e73-5">
        <g transform="translate(94.21,49.48)" id="img-c6427e73-6">
          <g class="primitive">
            <text dy="0.35em">coding_noncoding_noncoding_3-tri</text>
          </g>
        </g>
      </g>
      <g fill-opacity="1" fill="#00BFFF" stroke="#FFFFFF" id="img-c6427e73-7">
        <g transform="translate(92.3,49.48)" id="img-c6427e73-8">
          <path d="M-0.91,-0.91 L 0.91 -0.91 0.91 0.91 -0.91 0.91 z" class="primitive"/>
        </g>
      </g>
    </g>
    <g fill="#362A35" font-size="3.88" font-family="'PT Sans','Helvetica Neue','Helvetica',sans-serif" stroke="#000000" stroke-opacity="0.000" id="img-c6427e73-9">
      <g transform="translate(91.39,45.66)" id="img-c6427e73-10">
        <g class="primitive">
          <text dy="-0em">graphlet</text>
        </g>
      </g>
    </g>
  </g>
  <g clip-path="url(#img-c6427e73-11)">
    <g id="img-c6427e73-12">
      <g pointer-events="visible" stroke-width="0.3" fill="#000000" fill-opacity="0.000" stroke="#000000" stroke-opacity="0.000" class="guide background" id="img-c6427e73-13">
        <g transform="translate(53.34,47.66)" id="img-c6427e73-14">
          <path d="M-37.05,-42.66 L 37.05 -42.66 37.05 42.66 -37.05 42.66 z" class="primitive"/>
        </g>
      </g>
      <g class="guide ygridlines xfixed" stroke-dasharray="0.5,0.5" stroke-width="0.2" stroke="#D0D0E0" id="img-c6427e73-15">
        <g transform="translate(53.34,88.33)" id="img-c6427e73-16">
          <path fill="none" d="M-37.05,0 L 37.05 0" class="primitive"/>
        </g>
        <g transform="translate(53.34,74.77)" id="img-c6427e73-17">
          <path fill="none" d="M-37.05,0 L 37.05 0" class="primitive"/>
        </g>
        <g transform="translate(53.34,61.22)" id="img-c6427e73-18">
          <path fill="none" d="M-37.05,0 L 37.05 0" class="primitive"/>
        </g>
        <g transform="translate(53.34,47.66)" id="img-c6427e73-19">
          <path fill="none" d="M-37.05,0 L 37.05 0" class="primitive"/>
        </g>
        <g transform="translate(53.34,34.11)" id="img-c6427e73-20">
          <path fill="none" d="M-37.05,0 L 37.05 0" class="primitive"/>
        </g>
        <g transform="translate(53.34,20.55)" id="img-c6427e73-21">
          <path fill="none" d="M-37.05,0 L 37.05 0" class="primitive"/>
        </g>
        <g transform="translate(53.34,7)" id="img-c6427e73-22">
          <path fill="none" d="M-37.05,0 L 37.05 0" class="primitive"/>
        </g>
      </g>
      <g class="guide xgridlines yfixed" stroke-dasharray="0.5,0.5" stroke-width="0.2" stroke="#D0D0E0" id="img-c6427e73-23">
        <g transform="translate(18.28,47.66)" id="img-c6427e73-24">
          <path fill="none" d="M0,-42.66 L 0 42.66" class="primitive"/>
        </g>
        <g transform="translate(35.81,47.66)" id="img-c6427e73-25">
          <path fill="none" d="M0,-42.66 L 0 42.66" class="primitive"/>
        </g>
        <g transform="translate(53.34,47.66)" id="img-c6427e73-26">
          <path fill="none" d="M0,-42.66 L 0 42.66" class="primitive"/>
        </g>
        <g transform="translate(70.87,47.66)" id="img-c6427e73-27">
          <path fill="none" d="M0,-42.66 L 0 42.66" class="primitive"/>
        </g>
        <g transform="translate(88.39,47.66)" id="img-c6427e73-28">
          <path fill="none" d="M0,-42.66 L 0 42.66" class="primitive"/>
        </g>
      </g>
      <g class="plotpanel" id="img-c6427e73-29">
        <metadata>
          <boundingbox value="16.284999999999997mm 5.0mm 74.10968957064284mm 85.32666666666667mm"/>
          <unitbox value="6.6885893090541515 6.147553078121158 0.4228213818916978 -6.295106156242315"/>
        </metadata>
        <g shape-rendering="crispEdges" stroke-width="0.3" id="img-c6427e73-30">
          <g stroke="#000000" stroke-opacity="0.000" class="geometry" id="img-c6427e73-31">
            <g fill="#00BFFF" id="img-c6427e73-32">
              <g transform="translate(22.14,81.55)" id="img-c6427e73-33">
                <path d="M-0.33,-6.78 L 0.33 -6.78 0.33 6.78 -0.33 6.78 z" class="primitive"/>
              </g>
              <g transform="translate(22.75,88.33)" id="img-c6427e73-34">
                <path d="M-0.33,-0 L 0.33 -0 0.33 0 -0.33 0 z" class="primitive"/>
              </g>
              <g transform="translate(23.36,88.33)" id="img-c6427e73-35">
                <path d="M-0.33,-0 L 0.33 -0 0.33 0 -0.33 0 z" class="primitive"/>
              </g>
              <g transform="translate(23.97,88.33)" id="img-c6427e73-36">
                <path d="M-0.33,-0 L 0.33 -0 0.33 0 -0.33 0 z" class="primitive"/>
              </g>
              <g transform="translate(24.59,88.33)" id="img-c6427e73-37">
                <path d="M-0.33,-0 L 0.33 -0 0.33 0 -0.33 0 z" class="primitive"/>
              </g>
              <g transform="translate(25.2,88.33)" id="img-c6427e73-38">
                <path d="M-0.33,-0 L 0.33 -0 0.33 0 -0.33 0 z" class="primitive"/>
              </g>
              <g transform="translate(25.81,88.33)" id="img-c6427e73-39">
                <path d="M-0.33,-0 L 0.33 -0 0.33 0 -0.33 0 z" class="primitive"/>
              </g>
              <g transform="translate(26.43,88.33)" id="img-c6427e73-40">
                <path d="M-0.33,-0 L 0.33 -0 0.33 0 -0.33 0 z" class="primitive"/>
              </g>
              <g transform="translate(27.04,88.33)" id="img-c6427e73-41">
                <path d="M-0.33,-0 L 0.33 -0 0.33 0 -0.33 0 z" class="primitive"/>
              </g>
              <g transform="translate(27.65,88.33)" id="img-c6427e73-42">
                <path d="M-0.33,-0 L 0.33 -0 0.33 0 -0.33 0 z" class="primitive"/>
              </g>
              <g transform="translate(28.26,88.33)" id="img-c6427e73-43">
                <path d="M-0.33,-0 L 0.33 -0 0.33 0 -0.33 0 z" class="primitive"/>
              </g>
              <g transform="translate(28.88,88.33)" id="img-c6427e73-44">
                <path d="M-0.33,-0 L 0.33 -0 0.33 0 -0.33 0 z" class="primitive"/>
              </g>
              <g transform="translate(29.49,88.33)" id="img-c6427e73-45">
                <path d="M-0.33,-0 L 0.33 -0 0.33 0 -0.33 0 z" class="primitive"/>
              </g>
              <g transform="translate(30.1,88.33)" id="img-c6427e73-46">
                <path d="M-0.33,-0 L 0.33 -0 0.33 0 -0.33 0 z" class="primitive"/>
              </g>
              <g transform="translate(30.72,88.33)" id="img-c6427e73-47">
                <path d="M-0.33,-0 L 0.33 -0 0.33 0 -0.33 0 z" class="primitive"/>
              </g>
              <g transform="translate(31.33,88.33)" id="img-c6427e73-48">
                <path d="M-0.33,-0 L 0.33 -0 0.33 0 -0.33 0 z" class="primitive"/>
              </g>
              <g transform="translate(31.94,88.33)" id="img-c6427e73-49">
                <path d="M-0.33,-0 L 0.33 -0 0.33 0 -0.33 0 z" class="primitive"/>
              </g>
              <g transform="translate(32.55,88.33)" id="img-c6427e73-50">
                <path d="M-0.33,-0 L 0.33 -0 0.33 0 -0.33 0 z" class="primitive"/>
              </g>
              <g transform="translate(33.17,88.33)" id="img-c6427e73-51">
                <path d="M-0.33,-0 L 0.33 -0 0.33 0 -0.33 0 z" class="primitive"/>
              </g>
              <g transform="translate(33.78,88.33)" id="img-c6427e73-52">
                <path d="M-0.33,-0 L 0.33 -0 0.33 0 -0.33 0 z" class="primitive"/>
              </g>
              <g transform="translate(34.39,88.33)" id="img-c6427e73-53">
                <path d="M-0.33,-0 L 0.33 -0 0.33 0 -0.33 0 z" class="primitive"/>
              </g>
              <g transform="translate(35.01,88.33)" id="img-c6427e73-54">
                <path d="M-0.33,-0 L 0.33 -0 0.33 0 -0.33 0 z" class="primitive"/>
              </g>
              <g transform="translate(35.62,88.33)" id="img-c6427e73-55">
                <path d="M-0.33,-0 L 0.33 -0 0.33 0 -0.33 0 z" class="primitive"/>
              </g>
              <g transform="translate(36.23,88.33)" id="img-c6427e73-56">
                <path d="M-0.33,-0 L 0.33 -0 0.33 0 -0.33 0 z" class="primitive"/>
              </g>
              <g transform="translate(36.84,88.33)" id="img-c6427e73-57">
                <path d="M-0.33,-0 L 0.33 -0 0.33 0 -0.33 0 z" class="primitive"/>
              </g>
              <g transform="translate(37.46,88.33)" id="img-c6427e73-58">
                <path d="M-0.33,-0 L 0.33 -0 0.33 0 -0.33 0 z" class="primitive"/>
              </g>
              <g transform="translate(38.07,88.33)" id="img-c6427e73-59">
                <path d="M-0.33,-0 L 0.33 -0 0.33 0 -0.33 0 z" class="primitive"/>
              </g>
              <g transform="translate(38.68,88.33)" id="img-c6427e73-60">
                <path d="M-0.33,-0 L 0.33 -0 0.33 0 -0.33 0 z" class="primitive"/>
              </g>
              <g transform="translate(39.3,88.33)" id="img-c6427e73-61">
                <path d="M-0.33,-0 L 0.33 -0 0.33 0 -0.33 0 z" class="primitive"/>
              </g>
              <g transform="translate(39.91,88.33)" id="img-c6427e73-62">
                <path d="M-0.33,-0 L 0.33 -0 0.33 0 -0.33 0 z" class="primitive"/>
              </g>
              <g transform="translate(40.52,81.55)" id="img-c6427e73-63">
                <path d="M-0.33,-6.78 L 0.33 -6.78 0.33 6.78 -0.33 6.78 z" class="primitive"/>
              </g>
              <g transform="translate(41.13,74.77)" id="img-c6427e73-64">
                <path d="M-0.33,-13.55 L 0.33 -13.55 0.33 13.55 -0.33 13.55 z" class="primitive"/>
              </g>
              <g transform="translate(41.75,88.33)" id="img-c6427e73-65">
                <path d="M-0.33,-0 L 0.33 -0 0.33 0 -0.33 0 z" class="primitive"/>
              </g>
              <g transform="translate(42.36,88.33)" id="img-c6427e73-66">
                <path d="M-0.33,-0 L 0.33 -0 0.33 0 -0.33 0 z" class="primitive"/>
              </g>
              <g transform="translate(42.97,88.33)" id="img-c6427e73-67">
                <path d="M-0.33,-0 L 0.33 -0 0.33 0 -0.33 0 z" class="primitive"/>
              </g>
              <g transform="translate(43.59,88.33)" id="img-c6427e73-68">
                <path d="M-0.33,-0 L 0.33 -0 0.33 0 -0.33 0 z" class="primitive"/>
              </g>
              <g transform="translate(44.2,81.55)" id="img-c6427e73-69">
                <path d="M-0.33,-6.78 L 0.33 -6.78 0.33 6.78 -0.33 6.78 z" class="primitive"/>
              </g>
              <g transform="translate(44.81,74.77)" id="img-c6427e73-70">
                <path d="M-0.33,-13.55 L 0.33 -13.55 0.33 13.55 -0.33 13.55 z" class="primitive"/>
              </g>
              <g transform="translate(45.42,74.77)" id="img-c6427e73-71">
                <path d="M-0.33,-13.55 L 0.33 -13.55 0.33 13.55 -0.33 13.55 z" class="primitive"/>
              </g>
              <g transform="translate(46.04,88.33)" id="img-c6427e73-72">
                <path d="M-0.33,-0 L 0.33 -0 0.33 0 -0.33 0 z" class="primitive"/>
              </g>
              <g transform="translate(46.65,81.55)" id="img-c6427e73-73">
                <path d="M-0.33,-6.78 L 0.33 -6.78 0.33 6.78 -0.33 6.78 z" class="primitive"/>
              </g>
              <g transform="translate(47.26,74.77)" id="img-c6427e73-74">
                <path d="M-0.33,-13.55 L 0.33 -13.55 0.33 13.55 -0.33 13.55 z" class="primitive"/>
              </g>
              <g transform="translate(47.88,81.55)" id="img-c6427e73-75">
                <path d="M-0.33,-6.78 L 0.33 -6.78 0.33 6.78 -0.33 6.78 z" class="primitive"/>
              </g>
              <g transform="translate(48.49,88.33)" id="img-c6427e73-76">
                <path d="M-0.33,-0 L 0.33 -0 0.33 0 -0.33 0 z" class="primitive"/>
              </g>
              <g transform="translate(49.1,74.77)" id="img-c6427e73-77">
                <path d="M-0.33,-13.55 L 0.33 -13.55 0.33 13.55 -0.33 13.55 z" class="primitive"/>
              </g>
              <g transform="translate(49.71,88.33)" id="img-c6427e73-78">
                <path d="M-0.33,-0 L 0.33 -0 0.33 0 -0.33 0 z" class="primitive"/>
              </g>
              <g transform="translate(50.33,68)" id="img-c6427e73-79">
                <path d="M-0.33,-20.33 L 0.33 -20.33 0.33 20.33 -0.33 20.33 z" class="primitive"/>
              </g>
              <g transform="translate(50.94,81.55)" id="img-c6427e73-80">
                <path d="M-0.33,-6.78 L 0.33 -6.78 0.33 6.78 -0.33 6.78 z" class="primitive"/>
              </g>
              <g transform="translate(51.55,74.77)" id="img-c6427e73-81">
                <path d="M-0.33,-13.55 L 0.33 -13.55 0.33 13.55 -0.33 13.55 z" class="primitive"/>
              </g>
              <g transform="translate(52.17,81.55)" id="img-c6427e73-82">
                <path d="M-0.33,-6.78 L 0.33 -6.78 0.33 6.78 -0.33 6.78 z" class="primitive"/>
              </g>
              <g transform="translate(52.78,68)" id="img-c6427e73-83">
                <path d="M-0.33,-20.33 L 0.33 -20.33 0.33 20.33 -0.33 20.33 z" class="primitive"/>
              </g>
              <g transform="translate(53.39,81.55)" id="img-c6427e73-84">
                <path d="M-0.33,-6.78 L 0.33 -6.78 0.33 6.78 -0.33 6.78 z" class="primitive"/>
              </g>
              <g transform="translate(54,88.33)" id="img-c6427e73-85">
                <path d="M-0.33,-0 L 0.33 -0 0.33 0 -0.33 0 z" class="primitive"/>
              </g>
              <g transform="translate(54.62,47.66)" id="img-c6427e73-86">
                <path d="M-0.33,-40.66 L 0.33 -40.66 0.33 40.66 -0.33 40.66 z" class="primitive"/>
              </g>
              <g transform="translate(55.23,88.33)" id="img-c6427e73-87">
                <path d="M-0.33,-0 L 0.33 -0 0.33 0 -0.33 0 z" class="primitive"/>
              </g>
              <g transform="translate(55.84,68)" id="img-c6427e73-88">
                <path d="M-0.33,-20.33 L 0.33 -20.33 0.33 20.33 -0.33 20.33 z" class="primitive"/>
              </g>
              <g transform="translate(56.46,74.77)" id="img-c6427e73-89">
                <path d="M-0.33,-13.55 L 0.33 -13.55 0.33 13.55 -0.33 13.55 z" class="primitive"/>
              </g>
              <g transform="translate(57.07,68)" id="img-c6427e73-90">
                <path d="M-0.33,-20.33 L 0.33 -20.33 0.33 20.33 -0.33 20.33 z" class="primitive"/>
              </g>
              <g transform="translate(57.68,74.77)" id="img-c6427e73-91">
                <path d="M-0.33,-13.55 L 0.33 -13.55 0.33 13.55 -0.33 13.55 z" class="primitive"/>
              </g>
              <g transform="translate(58.29,74.77)" id="img-c6427e73-92">
                <path d="M-0.33,-13.55 L 0.33 -13.55 0.33 13.55 -0.33 13.55 z" class="primitive"/>
              </g>
              <g transform="translate(58.91,68)" id="img-c6427e73-93">
                <path d="M-0.33,-20.33 L 0.33 -20.33 0.33 20.33 -0.33 20.33 z" class="primitive"/>
              </g>
              <g transform="translate(59.52,54.44)" id="img-c6427e73-94">
                <path d="M-0.33,-33.89 L 0.33 -33.89 0.33 33.89 -0.33 33.89 z" class="primitive"/>
              </g>
              <g transform="translate(60.13,68)" id="img-c6427e73-95">
                <path d="M-0.33,-20.33 L 0.33 -20.33 0.33 20.33 -0.33 20.33 z" class="primitive"/>
              </g>
              <g transform="translate(60.75,74.77)" id="img-c6427e73-96">
                <path d="M-0.33,-13.55 L 0.33 -13.55 0.33 13.55 -0.33 13.55 z" class="primitive"/>
              </g>
              <g transform="translate(61.36,88.33)" id="img-c6427e73-97">
                <path d="M-0.33,-0 L 0.33 -0 0.33 0 -0.33 0 z" class="primitive"/>
              </g>
              <g transform="translate(61.97,68)" id="img-c6427e73-98">
                <path d="M-0.33,-20.33 L 0.33 -20.33 0.33 20.33 -0.33 20.33 z" class="primitive"/>
              </g>
              <g transform="translate(62.58,81.55)" id="img-c6427e73-99">
                <path d="M-0.33,-6.78 L 0.33 -6.78 0.33 6.78 -0.33 6.78 z" class="primitive"/>
              </g>
              <g transform="translate(63.2,81.55)" id="img-c6427e73-100">
                <path d="M-0.33,-6.78 L 0.33 -6.78 0.33 6.78 -0.33 6.78 z" class="primitive"/>
              </g>
              <g transform="translate(63.81,61.22)" id="img-c6427e73-101">
                <path d="M-0.33,-27.11 L 0.33 -27.11 0.33 27.11 -0.33 27.11 z" class="primitive"/>
              </g>
              <g transform="translate(64.42,88.33)" id="img-c6427e73-102">
                <path d="M-0.33,-0 L 0.33 -0 0.33 0 -0.33 0 z" class="primitive"/>
              </g>
              <g transform="translate(65.04,81.55)" id="img-c6427e73-103">
                <path d="M-0.33,-6.78 L 0.33 -6.78 0.33 6.78 -0.33 6.78 z" class="primitive"/>
              </g>
              <g transform="translate(65.65,61.22)" id="img-c6427e73-104">
                <path d="M-0.33,-27.11 L 0.33 -27.11 0.33 27.11 -0.33 27.11 z" class="primitive"/>
              </g>
              <g transform="translate(66.26,88.33)" id="img-c6427e73-105">
                <path d="M-0.33,-0 L 0.33 -0 0.33 0 -0.33 0 z" class="primitive"/>
              </g>
              <g transform="translate(66.87,47.66)" id="img-c6427e73-106">
                <path d="M-0.33,-40.66 L 0.33 -40.66 0.33 40.66 -0.33 40.66 z" class="primitive"/>
              </g>
              <g transform="translate(67.49,81.55)" id="img-c6427e73-107">
                <path d="M-0.33,-6.78 L 0.33 -6.78 0.33 6.78 -0.33 6.78 z" class="primitive"/>
              </g>
              <g transform="translate(68.1,74.77)" id="img-c6427e73-108">
                <path d="M-0.33,-13.55 L 0.33 -13.55 0.33 13.55 -0.33 13.55 z" class="primitive"/>
              </g>
              <g transform="translate(68.71,68)" id="img-c6427e73-109">
                <path d="M-0.33,-20.33 L 0.33 -20.33 0.33 20.33 -0.33 20.33 z" class="primitive"/>
              </g>
              <g transform="translate(69.33,88.33)" id="img-c6427e73-110">
                <path d="M-0.33,-0 L 0.33 -0 0.33 0 -0.33 0 z" class="primitive"/>
              </g>
              <g transform="translate(69.94,68)" id="img-c6427e73-111">
                <path d="M-0.33,-20.33 L 0.33 -20.33 0.33 20.33 -0.33 20.33 z" class="primitive"/>
              </g>
              <g transform="translate(70.55,81.55)" id="img-c6427e73-112">
                <path d="M-0.33,-6.78 L 0.33 -6.78 0.33 6.78 -0.33 6.78 z" class="primitive"/>
              </g>
              <g transform="translate(71.16,88.33)" id="img-c6427e73-113">
                <path d="M-0.33,-0 L 0.33 -0 0.33 0 -0.33 0 z" class="primitive"/>
              </g>
              <g transform="translate(71.78,81.55)" id="img-c6427e73-114">
                <path d="M-0.33,-6.78 L 0.33 -6.78 0.33 6.78 -0.33 6.78 z" class="primitive"/>
              </g>
              <g transform="translate(72.39,74.77)" id="img-c6427e73-115">
                <path d="M-0.33,-13.55 L 0.33 -13.55 0.33 13.55 -0.33 13.55 z" class="primitive"/>
              </g>
              <g transform="translate(73,81.55)" id="img-c6427e73-116">
                <path d="M-0.33,-6.78 L 0.33 -6.78 0.33 6.78 -0.33 6.78 z" class="primitive"/>
              </g>
              <g transform="translate(73.62,88.33)" id="img-c6427e73-117">
                <path d="M-0.33,-0 L 0.33 -0 0.33 0 -0.33 0 z" class="primitive"/>
              </g>
              <g transform="translate(74.23,81.55)" id="img-c6427e73-118">
                <path d="M-0.33,-6.78 L 0.33 -6.78 0.33 6.78 -0.33 6.78 z" class="primitive"/>
              </g>
              <g transform="translate(74.84,88.33)" id="img-c6427e73-119">
                <path d="M-0.33,-0 L 0.33 -0 0.33 0 -0.33 0 z" class="primitive"/>
              </g>
              <g transform="translate(75.45,81.55)" id="img-c6427e73-120">
                <path d="M-0.33,-6.78 L 0.33 -6.78 0.33 6.78 -0.33 6.78 z" class="primitive"/>
              </g>
              <g transform="translate(76.07,88.33)" id="img-c6427e73-121">
                <path d="M-0.33,-0 L 0.33 -0 0.33 0 -0.33 0 z" class="primitive"/>
              </g>
              <g transform="translate(76.68,68)" id="img-c6427e73-122">
                <path d="M-0.33,-20.33 L 0.33 -20.33 0.33 20.33 -0.33 20.33 z" class="primitive"/>
              </g>
              <g transform="translate(77.29,81.55)" id="img-c6427e73-123">
                <path d="M-0.33,-6.78 L 0.33 -6.78 0.33 6.78 -0.33 6.78 z" class="primitive"/>
              </g>
              <g transform="translate(77.91,88.33)" id="img-c6427e73-124">
                <path d="M-0.33,-0 L 0.33 -0 0.33 0 -0.33 0 z" class="primitive"/>
              </g>
              <g transform="translate(78.52,88.33)" id="img-c6427e73-125">
                <path d="M-0.33,-0 L 0.33 -0 0.33 0 -0.33 0 z" class="primitive"/>
              </g>
              <g transform="translate(79.13,88.33)" id="img-c6427e73-126">
                <path d="M-0.33,-0 L 0.33 -0 0.33 0 -0.33 0 z" class="primitive"/>
              </g>
              <g transform="translate(79.74,88.33)" id="img-c6427e73-127">
                <path d="M-0.33,-0 L 0.33 -0 0.33 0 -0.33 0 z" class="primitive"/>
              </g>
              <g transform="translate(80.36,74.77)" id="img-c6427e73-128">
                <path d="M-0.33,-13.55 L 0.33 -13.55 0.33 13.55 -0.33 13.55 z" class="primitive"/>
              </g>
              <g transform="translate(80.97,88.33)" id="img-c6427e73-129">
                <path d="M-0.33,-0 L 0.33 -0 0.33 0 -0.33 0 z" class="primitive"/>
              </g>
              <g transform="translate(81.58,88.33)" id="img-c6427e73-130">
                <path d="M-0.33,-0 L 0.33 -0 0.33 0 -0.33 0 z" class="primitive"/>
              </g>
              <g transform="translate(82.2,88.33)" id="img-c6427e73-131">
                <path d="M-0.33,-0 L 0.33 -0 0.33 0 -0.33 0 z" class="primitive"/>
              </g>
              <g transform="translate(82.81,81.55)" id="img-c6427e73-132">
                <path d="M-0.33,-6.78 L 0.33 -6.78 0.33 6.78 -0.33 6.78 z" class="primitive"/>
              </g>
            </g>
          </g>
        </g>
      </g>
    </g>
  </g>
  <g class="guide ylabels" font-size="2.82" font-family="'PT Sans Caption','Helvetica Neue','Helvetica',sans-serif" fill="#6C606B" id="img-c6427e73-133">
    <g transform="translate(15.28,88.33)" id="img-c6427e73-134">
      <g class="primitive">
        <text text-anchor="end" dy="0.35em">0</text>
      </g>
    </g>
    <g transform="translate(15.28,74.77)" id="img-c6427e73-135">
      <g class="primitive">
        <text text-anchor="end" dy="0.35em">1</text>
      </g>
    </g>
    <g transform="translate(15.28,61.22)" id="img-c6427e73-136">
      <g class="primitive">
        <text text-anchor="end" dy="0.35em">2</text>
      </g>
    </g>
    <g transform="translate(15.28,47.66)" id="img-c6427e73-137">
      <g class="primitive">
        <text text-anchor="end" dy="0.35em">3</text>
      </g>
    </g>
    <g transform="translate(15.28,34.11)" id="img-c6427e73-138">
      <g class="primitive">
        <text text-anchor="end" dy="0.35em">4</text>
      </g>
    </g>
    <g transform="translate(15.28,20.55)" id="img-c6427e73-139">
      <g class="primitive">
        <text text-anchor="end" dy="0.35em">5</text>
      </g>
    </g>
    <g transform="translate(15.28,7)" id="img-c6427e73-140">
      <g class="primitive">
        <text text-anchor="end" dy="0.35em">6</text>
      </g>
    </g>
  </g>
  <g font-size="3.88" font-family="'PT Sans','Helvetica Neue','Helvetica',sans-serif" fill="#564A55" stroke="#000000" stroke-opacity="0.000" id="img-c6427e73-141">
    <g transform="translate(8.81,45.66)" id="img-c6427e73-142">
      <g class="primitive">
        <text text-anchor="middle" dy="0.35em" transform="rotate(-90,0, 2)">frequency</text>
      </g>
    </g>
  </g>
</g>
<defs>
  <clipPath id="img-c6427e73-11">
    <path d="M16.28,5 L 90.39 5 90.39 90.33 16.28 90.33" />
  </clipPath>
</defs>
</svg>
