<?xml version="1.0" encoding="UTF-8"?>
<svg xmlns="http://www.w3.org/2000/svg"
     xmlns:xlink="http://www.w3.org/1999/xlink"
     xmlns:gadfly="http://www.gadflyjl.org/ns"
     version="1.2"
     width="141.42mm" height="100mm" viewBox="0 0 141.42 100"
     stroke="none"
     fill="#000000"
     stroke-width="0.3"
     font-size="3.88"
>
<defs>
  <marker id="arrow" markerWidth="15" markerHeight="7" refX="5" refY="3.5" orient="auto" markerUnits="strokeWidth">
    <path d="M0,0 L15,3.5 L0,7 z" stroke="context-stroke" fill="context-stroke"/>
  </marker>
</defs>
<g class="plotroot xscalable yscalable" id="img-4a4e40d0-1">
  <g class="guide xlabels" font-size="2.82" font-family="'PT Sans Caption','Helvetica Neue','Helvetica',sans-serif" fill="#6C606B" id="img-4a4e40d0-2">
    <g transform="translate(18.28,91.33)">
      <g class="primitive">
        <text text-anchor="middle" dy="0.6em">8.85</text>
      </g>
    </g>
    <g transform="translate(31.01,91.33)">
      <g class="primitive">
        <text text-anchor="middle" dy="0.6em">8.90</text>
      </g>
    </g>
    <g transform="translate(43.73,91.33)">
      <g class="primitive">
        <text text-anchor="middle" dy="0.6em">8.95</text>
      </g>
    </g>
    <g transform="translate(56.45,91.33)">
      <g class="primitive">
        <text text-anchor="middle" dy="0.6em">9.00</text>
      </g>
    </g>
    <g transform="translate(69.17,91.33)">
      <g class="primitive">
        <text text-anchor="middle" dy="0.6em">9.05</text>
      </g>
    </g>
    <g transform="translate(81.89,91.33)">
      <g class="primitive">
        <text text-anchor="middle" dy="0.6em">9.10</text>
      </g>
    </g>
  </g>
  <g class="guide colorkey" id="img-4a4e40d0-3">
    <g class="color_coding_coding_noncoding_coding_4-star" id="img-4a4e40d0-4">
      <g fill="#4C404B" font-size="2.82" font-family="'PT Sans','Helvetica Neue','Helvetica',sans-serif" id="img-4a4e40d0-5">
        <g transform="translate(87.7,49.48)" id="img-4a4e40d0-6">
          <g class="primitive">
            <text dy="0.35em">coding_coding_noncoding_coding_4-star</text>
          </g>
        </g>
      </g>
      <g fill-opacity="1" fill="#00BFFF" stroke="#FFFFFF" id="img-4a4e40d0-7">
        <g transform="translate(85.79,49.48)" id="img-4a4e40d0-8">
          <path d="M-0.91,-0.91 L 0.91 -0.91 0.91 0.91 -0.91 0.91 z" class="primitive"/>
        </g>
      </g>
    </g>
    <g fill="#362A35" font-size="3.88" font-family="'PT Sans','Helvetica Neue','Helvetica',sans-serif" stroke="#000000" stroke-opacity="0.000" id="img-4a4e40d0-9">
      <g transform="translate(84.89,45.66)" id="img-4a4e40d0-10">
        <g class="primitive">
          <text dy="-0em">graphlet</text>
        </g>
      </g>
    </g>
  </g>
  <g clip-path="url(#img-4a4e40d0-11)">
    <g id="img-4a4e40d0-12">
      <g pointer-events="visible" stroke-width="0.3" fill="#000000" fill-opacity="0.000" stroke="#000000" stroke-opacity="0.000" class="guide background" id="img-4a4e40d0-13">
        <g transform="translate(50.09,47.66)" id="img-4a4e40d0-14">
          <path d="M-33.8,-42.66 L 33.8 -42.66 33.8 42.66 -33.8 42.66 z" class="primitive"/>
        </g>
      </g>
      <g class="guide ygridlines xfixed" stroke-dasharray="0.5,0.5" stroke-width="0.2" stroke="#D0D0E0" id="img-4a4e40d0-15">
        <g transform="translate(50.09,88.33)" id="img-4a4e40d0-16">
          <path fill="none" d="M-33.8,0 L 33.8 0" class="primitive"/>
        </g>
        <g transform="translate(50.09,72.06)" id="img-4a4e40d0-17">
          <path fill="none" d="M-33.8,0 L 33.8 0" class="primitive"/>
        </g>
        <g transform="translate(50.09,55.8)" id="img-4a4e40d0-18">
          <path fill="none" d="M-33.8,0 L 33.8 0" class="primitive"/>
        </g>
        <g transform="translate(50.09,39.53)" id="img-4a4e40d0-19">
          <path fill="none" d="M-33.8,0 L 33.8 0" class="primitive"/>
        </g>
        <g transform="translate(50.09,23.27)" id="img-4a4e40d0-20">
          <path fill="none" d="M-33.8,0 L 33.8 0" class="primitive"/>
        </g>
        <g transform="translate(50.09,7)" id="img-4a4e40d0-21">
          <path fill="none" d="M-33.8,0 L 33.8 0" class="primitive"/>
        </g>
      </g>
      <g class="guide xgridlines yfixed" stroke-dasharray="0.5,0.5" stroke-width="0.2" stroke="#D0D0E0" id="img-4a4e40d0-22">
        <g transform="translate(18.28,47.66)" id="img-4a4e40d0-23">
          <path fill="none" d="M0,-42.66 L 0 42.66" class="primitive"/>
        </g>
        <g transform="translate(31.01,47.66)" id="img-4a4e40d0-24">
          <path fill="none" d="M0,-42.66 L 0 42.66" class="primitive"/>
        </g>
        <g transform="translate(43.73,47.66)" id="img-4a4e40d0-25">
          <path fill="none" d="M0,-42.66 L 0 42.66" class="primitive"/>
        </g>
        <g transform="translate(56.45,47.66)" id="img-4a4e40d0-26">
          <path fill="none" d="M0,-42.66 L 0 42.66" class="primitive"/>
        </g>
        <g transform="translate(69.17,47.66)" id="img-4a4e40d0-27">
          <path fill="none" d="M0,-42.66 L 0 42.66" class="primitive"/>
        </g>
        <g transform="translate(81.89,47.66)" id="img-4a4e40d0-28">
          <path fill="none" d="M0,-42.66 L 0 42.66" class="primitive"/>
        </g>
      </g>
      <g class="plotpanel" id="img-4a4e40d0-29">
        <metadata>
          <boundingbox value="16.284999999999997mm 5.0mm 67.60302290397615mm 85.32666666666667mm"/>
          <unitbox value="8.84213873842514 5.122960898434298 0.265722523149721 -5.245921796868595"/>
        </metadata>
        <g shape-rendering="crispEdges" stroke-width="0.3" id="img-4a4e40d0-30">
          <g stroke="#000000" stroke-opacity="0.000" class="geometry" id="img-4a4e40d0-31">
            <g fill="#00BFFF" id="img-4a4e40d0-32">
              <g transform="translate(26.15,80.19)" id="img-4a4e40d0-33">
                <path d="M-0.29,-8.13 L 0.29 -8.13 0.29 8.13 -0.29 8.13 z" class="primitive"/>
              </g>
              <g transform="translate(26.68,88.33)" id="img-4a4e40d0-34">
                <path d="M-0.29,-0 L 0.29 -0 0.29 0 -0.29 0 z" class="primitive"/>
              </g>
              <g transform="translate(27.2,88.33)" id="img-4a4e40d0-35">
                <path d="M-0.29,-0 L 0.29 -0 0.29 0 -0.29 0 z" class="primitive"/>
              </g>
              <g transform="translate(27.72,88.33)" id="img-4a4e40d0-36">
                <path d="M-0.29,-0 L 0.29 -0 0.29 0 -0.29 0 z" class="primitive"/>
              </g>
              <g transform="translate(28.25,88.33)" id="img-4a4e40d0-37">
                <path d="M-0.29,-0 L 0.29 -0 0.29 0 -0.29 0 z" class="primitive"/>
              </g>
              <g transform="translate(28.77,88.33)" id="img-4a4e40d0-38">
                <path d="M-0.29,-0 L 0.29 -0 0.29 0 -0.29 0 z" class="primitive"/>
              </g>
              <g transform="translate(29.3,80.19)" id="img-4a4e40d0-39">
                <path d="M-0.29,-8.13 L 0.29 -8.13 0.29 8.13 -0.29 8.13 z" class="primitive"/>
              </g>
              <g transform="translate(29.82,80.19)" id="img-4a4e40d0-40">
                <path d="M-0.29,-8.13 L 0.29 -8.13 0.29 8.13 -0.29 8.13 z" class="primitive"/>
              </g>
              <g transform="translate(30.34,88.33)" id="img-4a4e40d0-41">
                <path d="M-0.29,-0 L 0.29 -0 0.29 0 -0.29 0 z" class="primitive"/>
              </g>
              <g transform="translate(30.87,80.19)" id="img-4a4e40d0-42">
                <path d="M-0.29,-8.13 L 0.29 -8.13 0.29 8.13 -0.29 8.13 z" class="primitive"/>
              </g>
              <g transform="translate(31.39,88.33)" id="img-4a4e40d0-43">
                <path d="M-0.29,-0 L 0.29 -0 0.29 0 -0.29 0 z" class="primitive"/>
              </g>
              <g transform="translate(31.91,88.33)" id="img-4a4e40d0-44">
                <path d="M-0.29,-0 L 0.29 -0 0.29 0 -0.29 0 z" class="primitive"/>
              </g>
              <g transform="translate(32.44,88.33)" id="img-4a4e40d0-45">
                <path d="M-0.29,-0 L 0.29 -0 0.29 0 -0.29 0 z" class="primitive"/>
              </g>
              <g transform="translate(32.96,88.33)" id="img-4a4e40d0-46">
                <path d="M-0.29,-0 L 0.29 -0 0.29 0 -0.29 0 z" class="primitive"/>
              </g>
              <g transform="translate(33.49,88.33)" id="img-4a4e40d0-47">
                <path d="M-0.29,-0 L 0.29 -0 0.29 0 -0.29 0 z" class="primitive"/>
              </g>
              <g transform="translate(34.01,88.33)" id="img-4a4e40d0-48">
                <path d="M-0.29,-0 L 0.29 -0 0.29 0 -0.29 0 z" class="primitive"/>
              </g>
              <g transform="translate(34.53,88.33)" id="img-4a4e40d0-49">
                <path d="M-0.29,-0 L 0.29 -0 0.29 0 -0.29 0 z" class="primitive"/>
              </g>
              <g transform="translate(35.06,88.33)" id="img-4a4e40d0-50">
                <path d="M-0.29,-0 L 0.29 -0 0.29 0 -0.29 0 z" class="primitive"/>
              </g>
              <g transform="translate(35.58,88.33)" id="img-4a4e40d0-51">
                <path d="M-0.29,-0 L 0.29 -0 0.29 0 -0.29 0 z" class="primitive"/>
              </g>
              <g transform="translate(36.11,80.19)" id="img-4a4e40d0-52">
                <path d="M-0.29,-8.13 L 0.29 -8.13 0.29 8.13 -0.29 8.13 z" class="primitive"/>
              </g>
              <g transform="translate(36.63,80.19)" id="img-4a4e40d0-53">
                <path d="M-0.29,-8.13 L 0.29 -8.13 0.29 8.13 -0.29 8.13 z" class="primitive"/>
              </g>
              <g transform="translate(37.15,88.33)" id="img-4a4e40d0-54">
                <path d="M-0.29,-0 L 0.29 -0 0.29 0 -0.29 0 z" class="primitive"/>
              </g>
              <g transform="translate(37.68,88.33)" id="img-4a4e40d0-55">
                <path d="M-0.29,-0 L 0.29 -0 0.29 0 -0.29 0 z" class="primitive"/>
              </g>
              <g transform="translate(38.2,80.19)" id="img-4a4e40d0-56">
                <path d="M-0.29,-8.13 L 0.29 -8.13 0.29 8.13 -0.29 8.13 z" class="primitive"/>
              </g>
              <g transform="translate(38.73,80.19)" id="img-4a4e40d0-57">
                <path d="M-0.29,-8.13 L 0.29 -8.13 0.29 8.13 -0.29 8.13 z" class="primitive"/>
              </g>
              <g transform="translate(39.25,80.19)" id="img-4a4e40d0-58">
                <path d="M-0.29,-8.13 L 0.29 -8.13 0.29 8.13 -0.29 8.13 z" class="primitive"/>
              </g>
              <g transform="translate(39.77,72.06)" id="img-4a4e40d0-59">
                <path d="M-0.29,-16.27 L 0.29 -16.27 0.29 16.27 -0.29 16.27 z" class="primitive"/>
              </g>
              <g transform="translate(40.3,88.33)" id="img-4a4e40d0-60">
                <path d="M-0.29,-0 L 0.29 -0 0.29 0 -0.29 0 z" class="primitive"/>
              </g>
              <g transform="translate(40.82,88.33)" id="img-4a4e40d0-61">
                <path d="M-0.29,-0 L 0.29 -0 0.29 0 -0.29 0 z" class="primitive"/>
              </g>
              <g transform="translate(41.35,88.33)" id="img-4a4e40d0-62">
                <path d="M-0.29,-0 L 0.29 -0 0.29 0 -0.29 0 z" class="primitive"/>
              </g>
              <g transform="translate(41.87,80.19)" id="img-4a4e40d0-63">
                <path d="M-0.29,-8.13 L 0.29 -8.13 0.29 8.13 -0.29 8.13 z" class="primitive"/>
              </g>
              <g transform="translate(42.39,80.19)" id="img-4a4e40d0-64">
                <path d="M-0.29,-8.13 L 0.29 -8.13 0.29 8.13 -0.29 8.13 z" class="primitive"/>
              </g>
              <g transform="translate(42.92,80.19)" id="img-4a4e40d0-65">
                <path d="M-0.29,-8.13 L 0.29 -8.13 0.29 8.13 -0.29 8.13 z" class="primitive"/>
              </g>
              <g transform="translate(43.44,63.93)" id="img-4a4e40d0-66">
                <path d="M-0.29,-24.4 L 0.29 -24.4 0.29 24.4 -0.29 24.4 z" class="primitive"/>
              </g>
              <g transform="translate(43.97,47.66)" id="img-4a4e40d0-67">
                <path d="M-0.29,-40.66 L 0.29 -40.66 0.29 40.66 -0.29 40.66 z" class="primitive"/>
              </g>
              <g transform="translate(44.49,63.93)" id="img-4a4e40d0-68">
                <path d="M-0.29,-24.4 L 0.29 -24.4 0.29 24.4 -0.29 24.4 z" class="primitive"/>
              </g>
              <g transform="translate(45.01,88.33)" id="img-4a4e40d0-69">
                <path d="M-0.29,-0 L 0.29 -0 0.29 0 -0.29 0 z" class="primitive"/>
              </g>
              <g transform="translate(45.54,63.93)" id="img-4a4e40d0-70">
                <path d="M-0.29,-24.4 L 0.29 -24.4 0.29 24.4 -0.29 24.4 z" class="primitive"/>
              </g>
              <g transform="translate(46.06,63.93)" id="img-4a4e40d0-71">
                <path d="M-0.29,-24.4 L 0.29 -24.4 0.29 24.4 -0.29 24.4 z" class="primitive"/>
              </g>
              <g transform="translate(46.59,63.93)" id="img-4a4e40d0-72">
                <path d="M-0.29,-24.4 L 0.29 -24.4 0.29 24.4 -0.29 24.4 z" class="primitive"/>
              </g>
              <g transform="translate(47.11,80.19)" id="img-4a4e40d0-73">
                <path d="M-0.29,-8.13 L 0.29 -8.13 0.29 8.13 -0.29 8.13 z" class="primitive"/>
              </g>
              <g transform="translate(47.63,63.93)" id="img-4a4e40d0-74">
                <path d="M-0.29,-24.4 L 0.29 -24.4 0.29 24.4 -0.29 24.4 z" class="primitive"/>
              </g>
              <g transform="translate(48.16,80.19)" id="img-4a4e40d0-75">
                <path d="M-0.29,-8.13 L 0.29 -8.13 0.29 8.13 -0.29 8.13 z" class="primitive"/>
              </g>
              <g transform="translate(48.68,88.33)" id="img-4a4e40d0-76">
                <path d="M-0.29,-0 L 0.29 -0 0.29 0 -0.29 0 z" class="primitive"/>
              </g>
              <g transform="translate(49.21,63.93)" id="img-4a4e40d0-77">
                <path d="M-0.29,-24.4 L 0.29 -24.4 0.29 24.4 -0.29 24.4 z" class="primitive"/>
              </g>
              <g transform="translate(49.73,88.33)" id="img-4a4e40d0-78">
                <path d="M-0.29,-0 L 0.29 -0 0.29 0 -0.29 0 z" class="primitive"/>
              </g>
              <g transform="translate(50.25,80.19)" id="img-4a4e40d0-79">
                <path d="M-0.29,-8.13 L 0.29 -8.13 0.29 8.13 -0.29 8.13 z" class="primitive"/>
              </g>
              <g transform="translate(50.78,72.06)" id="img-4a4e40d0-80">
                <path d="M-0.29,-16.27 L 0.29 -16.27 0.29 16.27 -0.29 16.27 z" class="primitive"/>
              </g>
              <g transform="translate(51.3,55.8)" id="img-4a4e40d0-81">
                <path d="M-0.29,-32.53 L 0.29 -32.53 0.29 32.53 -0.29 32.53 z" class="primitive"/>
              </g>
              <g transform="translate(51.83,55.8)" id="img-4a4e40d0-82">
                <path d="M-0.29,-32.53 L 0.29 -32.53 0.29 32.53 -0.29 32.53 z" class="primitive"/>
              </g>
              <g transform="translate(52.35,63.93)" id="img-4a4e40d0-83">
                <path d="M-0.29,-24.4 L 0.29 -24.4 0.29 24.4 -0.29 24.4 z" class="primitive"/>
              </g>
              <g transform="translate(52.87,88.33)" id="img-4a4e40d0-84">
                <path d="M-0.29,-0 L 0.29 -0 0.29 0 -0.29 0 z" class="primitive"/>
              </g>
              <g transform="translate(53.4,80.19)" id="img-4a4e40d0-85">
                <path d="M-0.29,-8.13 L 0.29 -8.13 0.29 8.13 -0.29 8.13 z" class="primitive"/>
              </g>
              <g transform="translate(53.92,80.19)" id="img-4a4e40d0-86">
                <path d="M-0.29,-8.13 L 0.29 -8.13 0.29 8.13 -0.29 8.13 z" class="primitive"/>
              </g>
              <g transform="translate(54.45,72.06)" id="img-4a4e40d0-87">
                <path d="M-0.29,-16.27 L 0.29 -16.27 0.29 16.27 -0.29 16.27 z" class="primitive"/>
              </g>
              <g transform="translate(54.97,72.06)" id="img-4a4e40d0-88">
                <path d="M-0.29,-16.27 L 0.29 -16.27 0.29 16.27 -0.29 16.27 z" class="primitive"/>
              </g>
              <g transform="translate(55.49,47.66)" id="img-4a4e40d0-89">
                <path d="M-0.29,-40.66 L 0.29 -40.66 0.29 40.66 -0.29 40.66 z" class="primitive"/>
              </g>
              <g transform="translate(56.02,80.19)" id="img-4a4e40d0-90">
                <path d="M-0.29,-8.13 L 0.29 -8.13 0.29 8.13 -0.29 8.13 z" class="primitive"/>
              </g>
              <g transform="translate(56.54,72.06)" id="img-4a4e40d0-91">
                <path d="M-0.29,-16.27 L 0.29 -16.27 0.29 16.27 -0.29 16.27 z" class="primitive"/>
              </g>
              <g transform="translate(57.06,55.8)" id="img-4a4e40d0-92">
                <path d="M-0.29,-32.53 L 0.29 -32.53 0.29 32.53 -0.29 32.53 z" class="primitive"/>
              </g>
              <g transform="translate(57.59,80.19)" id="img-4a4e40d0-93">
                <path d="M-0.29,-8.13 L 0.29 -8.13 0.29 8.13 -0.29 8.13 z" class="primitive"/>
              </g>
              <g transform="translate(58.11,63.93)" id="img-4a4e40d0-94">
                <path d="M-0.29,-24.4 L 0.29 -24.4 0.29 24.4 -0.29 24.4 z" class="primitive"/>
              </g>
              <g transform="translate(58.64,80.19)" id="img-4a4e40d0-95">
                <path d="M-0.29,-8.13 L 0.29 -8.13 0.29 8.13 -0.29 8.13 z" class="primitive"/>
              </g>
              <g transform="translate(59.16,72.06)" id="img-4a4e40d0-96">
                <path d="M-0.29,-16.27 L 0.29 -16.27 0.29 16.27 -0.29 16.27 z" class="primitive"/>
              </g>
              <g transform="translate(59.68,72.06)" id="img-4a4e40d0-97">
                <path d="M-0.29,-16.27 L 0.29 -16.27 0.29 16.27 -0.29 16.27 z" class="primitive"/>
              </g>
              <g transform="translate(60.21,88.33)" id="img-4a4e40d0-98">
                <path d="M-0.29,-0 L 0.29 -0 0.29 0 -0.29 0 z" class="primitive"/>
              </g>
              <g transform="translate(60.73,88.33)" id="img-4a4e40d0-99">
                <path d="M-0.29,-0 L 0.29 -0 0.29 0 -0.29 0 z" class="primitive"/>
              </g>
              <g transform="translate(61.26,55.8)" id="img-4a4e40d0-100">
                <path d="M-0.29,-32.53 L 0.29 -32.53 0.29 32.53 -0.29 32.53 z" class="primitive"/>
              </g>
              <g transform="translate(61.78,72.06)" id="img-4a4e40d0-101">
                <path d="M-0.29,-16.27 L 0.29 -16.27 0.29 16.27 -0.29 16.27 z" class="primitive"/>
              </g>
              <g transform="translate(62.3,80.19)" id="img-4a4e40d0-102">
                <path d="M-0.29,-8.13 L 0.29 -8.13 0.29 8.13 -0.29 8.13 z" class="primitive"/>
              </g>
              <g transform="translate(62.83,88.33)" id="img-4a4e40d0-103">
                <path d="M-0.29,-0 L 0.29 -0 0.29 0 -0.29 0 z" class="primitive"/>
              </g>
              <g transform="translate(63.35,63.93)" id="img-4a4e40d0-104">
                <path d="M-0.29,-24.4 L 0.29 -24.4 0.29 24.4 -0.29 24.4 z" class="primitive"/>
              </g>
              <g transform="translate(63.88,88.33)" id="img-4a4e40d0-105">
                <path d="M-0.29,-0 L 0.29 -0 0.29 0 -0.29 0 z" class="primitive"/>
              </g>
              <g transform="translate(64.4,72.06)" id="img-4a4e40d0-106">
                <path d="M-0.29,-16.27 L 0.29 -16.27 0.29 16.27 -0.29 16.27 z" class="primitive"/>
              </g>
              <g transform="translate(64.92,72.06)" id="img-4a4e40d0-107">
                <path d="M-0.29,-16.27 L 0.29 -16.27 0.29 16.27 -0.29 16.27 z" class="primitive"/>
              </g>
              <g transform="translate(65.45,80.19)" id="img-4a4e40d0-108">
                <path d="M-0.29,-8.13 L 0.29 -8.13 0.29 8.13 -0.29 8.13 z" class="primitive"/>
              </g>
              <g transform="translate(65.97,88.33)" id="img-4a4e40d0-109">
                <path d="M-0.29,-0 L 0.29 -0 0.29 0 -0.29 0 z" class="primitive"/>
              </g>
              <g transform="translate(66.5,88.33)" id="img-4a4e40d0-110">
                <path d="M-0.29,-0 L 0.29 -0 0.29 0 -0.29 0 z" class="primitive"/>
              </g>
              <g transform="translate(67.02,88.33)" id="img-4a4e40d0-111">
                <path d="M-0.29,-0 L 0.29 -0 0.29 0 -0.29 0 z" class="primitive"/>
              </g>
              <g transform="translate(67.54,88.33)" id="img-4a4e40d0-112">
                <path d="M-0.29,-0 L 0.29 -0 0.29 0 -0.29 0 z" class="primitive"/>
              </g>
              <g transform="translate(68.07,88.33)" id="img-4a4e40d0-113">
                <path d="M-0.29,-0 L 0.29 -0 0.29 0 -0.29 0 z" class="primitive"/>
              </g>
              <g transform="translate(68.59,88.33)" id="img-4a4e40d0-114">
                <path d="M-0.29,-0 L 0.29 -0 0.29 0 -0.29 0 z" class="primitive"/>
              </g>
              <g transform="translate(69.12,88.33)" id="img-4a4e40d0-115">
                <path d="M-0.29,-0 L 0.29 -0 0.29 0 -0.29 0 z" class="primitive"/>
              </g>
              <g transform="translate(69.64,88.33)" id="img-4a4e40d0-116">
                <path d="M-0.29,-0 L 0.29 -0 0.29 0 -0.29 0 z" class="primitive"/>
              </g>
              <g transform="translate(70.16,88.33)" id="img-4a4e40d0-117">
                <path d="M-0.29,-0 L 0.29 -0 0.29 0 -0.29 0 z" class="primitive"/>
              </g>
              <g transform="translate(70.69,88.33)" id="img-4a4e40d0-118">
                <path d="M-0.29,-0 L 0.29 -0 0.29 0 -0.29 0 z" class="primitive"/>
              </g>
              <g transform="translate(71.21,88.33)" id="img-4a4e40d0-119">
                <path d="M-0.29,-0 L 0.29 -0 0.29 0 -0.29 0 z" class="primitive"/>
              </g>
              <g transform="translate(71.74,88.33)" id="img-4a4e40d0-120">
                <path d="M-0.29,-0 L 0.29 -0 0.29 0 -0.29 0 z" class="primitive"/>
              </g>
              <g transform="translate(72.26,88.33)" id="img-4a4e40d0-121">
                <path d="M-0.29,-0 L 0.29 -0 0.29 0 -0.29 0 z" class="primitive"/>
              </g>
              <g transform="translate(72.78,88.33)" id="img-4a4e40d0-122">
                <path d="M-0.29,-0 L 0.29 -0 0.29 0 -0.29 0 z" class="primitive"/>
              </g>
              <g transform="translate(73.31,88.33)" id="img-4a4e40d0-123">
                <path d="M-0.29,-0 L 0.29 -0 0.29 0 -0.29 0 z" class="primitive"/>
              </g>
              <g transform="translate(73.83,88.33)" id="img-4a4e40d0-124">
                <path d="M-0.29,-0 L 0.29 -0 0.29 0 -0.29 0 z" class="primitive"/>
              </g>
              <g transform="translate(74.36,88.33)" id="img-4a4e40d0-125">
                <path d="M-0.29,-0 L 0.29 -0 0.29 0 -0.29 0 z" class="primitive"/>
              </g>
              <g transform="translate(74.88,80.19)" id="img-4a4e40d0-126">
                <path d="M-0.29,-8.13 L 0.29 -8.13 0.29 8.13 -0.29 8.13 z" class="primitive"/>
              </g>
              <g transform="translate(75.4,88.33)" id="img-4a4e40d0-127">
                <path d="M-0.29,-0 L 0.29 -0 0.29 0 -0.29 0 z" class="primitive"/>
              </g>
              <g transform="translate(75.93,88.33)" id="img-4a4e40d0-128">
                <path d="M-0.29,-0 L 0.29 -0 0.29 0 -0.29 0 z" class="primitive"/>
              </g>
              <g transform="translate(76.45,88.33)" id="img-4a4e40d0-129">
                <path d="M-0.29,-0 L 0.29 -0 0.29 0 -0.29 0 z" class="primitive"/>
              </g>
              <g transform="translate(76.98,80.19)" id="img-4a4e40d0-130">
                <path d="M-0.29,-8.13 L 0.29 -8.13 0.29 8.13 -0.29 8.13 z" class="primitive"/>
              </g>
              <g transform="translate(77.5,88.33)" id="img-4a4e40d0-131">
                <path d="M-0.29,-0 L 0.29 -0 0.29 0 -0.29 0 z" class="primitive"/>
              </g>
              <g transform="translate(78.02,88.33)" id="img-4a4e40d0-132">
                <path d="M-0.29,-0 L 0.29 -0 0.29 0 -0.29 0 z" class="primitive"/>
              </g>
            </g>
          </g>
        </g>
      </g>
    </g>
  </g>
  <g class="guide ylabels" font-size="2.82" font-family="'PT Sans Caption','Helvetica Neue','Helvetica',sans-serif" fill="#6C606B" id="img-4a4e40d0-133">
    <g transform="translate(15.28,88.33)" id="img-4a4e40d0-134">
      <g class="primitive">
        <text text-anchor="end" dy="0.35em">0</text>
      </g>
    </g>
    <g transform="translate(15.28,72.06)" id="img-4a4e40d0-135">
      <g class="primitive">
        <text text-anchor="end" dy="0.35em">1</text>
      </g>
    </g>
    <g transform="translate(15.28,55.8)" id="img-4a4e40d0-136">
      <g class="primitive">
        <text text-anchor="end" dy="0.35em">2</text>
      </g>
    </g>
    <g transform="translate(15.28,39.53)" id="img-4a4e40d0-137">
      <g class="primitive">
        <text text-anchor="end" dy="0.35em">3</text>
      </g>
    </g>
    <g transform="translate(15.28,23.27)" id="img-4a4e40d0-138">
      <g class="primitive">
        <text text-anchor="end" dy="0.35em">4</text>
      </g>
    </g>
    <g transform="translate(15.28,7)" id="img-4a4e40d0-139">
      <g class="primitive">
        <text text-anchor="end" dy="0.35em">5</text>
      </g>
    </g>
  </g>
  <g font-size="3.88" font-family="'PT Sans','Helvetica Neue','Helvetica',sans-serif" fill="#564A55" stroke="#000000" stroke-opacity="0.000" id="img-4a4e40d0-140">
    <g transform="translate(8.81,45.66)" id="img-4a4e40d0-141">
      <g class="primitive">
        <text text-anchor="middle" dy="0.35em" transform="rotate(-90,0, 2)">frequency</text>
      </g>
    </g>
  </g>
</g>
<defs>
  <clipPath id="img-4a4e40d0-11">
    <path d="M16.28,5 L 83.89 5 83.89 90.33 16.28 90.33" />
  </clipPath>
</defs>
</svg>
